G04*
G04 #@! TF.GenerationSoftware,Altium Limited,Altium Designer,25.7.1 (20)*
G04*
G04 Layer_Physical_Order=2*
G04 Layer_Color=16711680*
%FSLAX44Y44*%
%MOMM*%
G71*
G04*
G04 #@! TF.SameCoordinates,6D1EC6EB-D4D1-4485-8440-CF1E71E7DC7E*
G04*
G04*
G04 #@! TF.FilePolarity,Positive*
G04*
G01*
G75*
%ADD10C,0.2000*%
%ADD12C,0.2500*%
G04:AMPARAMS|DCode=18|XSize=0.5mm|YSize=0.6mm|CornerRadius=0mm|HoleSize=0mm|Usage=FLASHONLY|Rotation=171.000|XOffset=0mm|YOffset=0mm|HoleType=Round|Shape=Rectangle|*
%AMROTATEDRECTD18*
4,1,4,0.2939,0.2572,0.2000,-0.3354,-0.2939,-0.2572,-0.2000,0.3354,0.2939,0.2572,0.0*
%
%ADD18ROTATEDRECTD18*%

G04:AMPARAMS|DCode=19|XSize=0.5mm|YSize=0.6mm|CornerRadius=0mm|HoleSize=0mm|Usage=FLASHONLY|Rotation=314.000|XOffset=0mm|YOffset=0mm|HoleType=Round|Shape=Rectangle|*
%AMROTATEDRECTD19*
4,1,4,-0.3895,-0.0286,0.0421,0.3882,0.3895,0.0286,-0.0421,-0.3882,-0.3895,-0.0286,0.0*
%
%ADD19ROTATEDRECTD19*%

G04:AMPARAMS|DCode=20|XSize=0.5mm|YSize=0.6mm|CornerRadius=0mm|HoleSize=0mm|Usage=FLASHONLY|Rotation=293.779|XOffset=0mm|YOffset=0mm|HoleType=Round|Shape=Rectangle|*
%AMROTATEDRECTD20*
4,1,4,-0.3753,0.1078,0.1737,0.3497,0.3753,-0.1078,-0.1737,-0.3497,-0.3753,0.1078,0.0*
%
%ADD20ROTATEDRECTD20*%

G04:AMPARAMS|DCode=21|XSize=0.5mm|YSize=0.6mm|CornerRadius=0mm|HoleSize=0mm|Usage=FLASHONLY|Rotation=20.000|XOffset=0mm|YOffset=0mm|HoleType=Round|Shape=Rectangle|*
%AMROTATEDRECTD21*
4,1,4,-0.1323,-0.3674,-0.3375,0.1964,0.1323,0.3674,0.3375,-0.1964,-0.1323,-0.3674,0.0*
%
%ADD21ROTATEDRECTD21*%

G04:AMPARAMS|DCode=22|XSize=0.5mm|YSize=0.6mm|CornerRadius=0mm|HoleSize=0mm|Usage=FLASHONLY|Rotation=51.078|XOffset=0mm|YOffset=0mm|HoleType=Round|Shape=Rectangle|*
%AMROTATEDRECTD22*
4,1,4,0.0763,-0.3830,-0.3905,-0.0060,-0.0763,0.3830,0.3905,0.0060,0.0763,-0.3830,0.0*
%
%ADD22ROTATEDRECTD22*%

G04:AMPARAMS|DCode=23|XSize=0.5mm|YSize=0.6mm|CornerRadius=0mm|HoleSize=0mm|Usage=FLASHONLY|Rotation=344.966|XOffset=0mm|YOffset=0mm|HoleType=Round|Shape=Rectangle|*
%AMROTATEDRECTD23*
4,1,4,-0.3193,-0.2249,-0.1636,0.3546,0.3193,0.2249,0.1636,-0.3546,-0.3193,-0.2249,0.0*
%
%ADD23ROTATEDRECTD23*%

G04:AMPARAMS|DCode=24|XSize=0.5mm|YSize=0.6mm|CornerRadius=0mm|HoleSize=0mm|Usage=FLASHONLY|Rotation=334.000|XOffset=0mm|YOffset=0mm|HoleType=Round|Shape=Rectangle|*
%AMROTATEDRECTD24*
4,1,4,-0.3562,-0.1601,-0.0932,0.3792,0.3562,0.1601,0.0932,-0.3792,-0.3562,-0.1601,0.0*
%
%ADD24ROTATEDRECTD24*%

G04:AMPARAMS|DCode=25|XSize=0.5mm|YSize=0.6mm|CornerRadius=0mm|HoleSize=0mm|Usage=FLASHONLY|Rotation=244.120|XOffset=0mm|YOffset=0mm|HoleType=Round|Shape=Rectangle|*
%AMROTATEDRECTD25*
4,1,4,-0.1608,0.3559,0.3790,0.0940,0.1608,-0.3559,-0.3790,-0.0940,-0.1608,0.3559,0.0*
%
%ADD25ROTATEDRECTD25*%

G04:AMPARAMS|DCode=26|XSize=0.5mm|YSize=0.6mm|CornerRadius=0mm|HoleSize=0mm|Usage=FLASHONLY|Rotation=229.185|XOffset=0mm|YOffset=0mm|HoleType=Round|Shape=Rectangle|*
%AMROTATEDRECTD26*
4,1,4,-0.0636,0.3853,0.3905,-0.0069,0.0636,-0.3853,-0.3905,0.0069,-0.0636,0.3853,0.0*
%
%ADD26ROTATEDRECTD26*%

G04:AMPARAMS|DCode=27|XSize=0.5mm|YSize=0.6mm|CornerRadius=0mm|HoleSize=0mm|Usage=FLASHONLY|Rotation=209.122|XOffset=0mm|YOffset=0mm|HoleType=Round|Shape=Rectangle|*
%AMROTATEDRECTD27*
4,1,4,0.0724,0.3837,0.3644,-0.1404,-0.0724,-0.3837,-0.3644,0.1404,0.0724,0.3837,0.0*
%
%ADD27ROTATEDRECTD27*%

G04:AMPARAMS|DCode=28|XSize=0.5mm|YSize=0.6mm|CornerRadius=0mm|HoleSize=0mm|Usage=FLASHONLY|Rotation=320.702|XOffset=0mm|YOffset=0mm|HoleType=Round|Shape=Rectangle|*
%AMROTATEDRECTD28*
4,1,4,-0.3835,-0.0738,-0.0035,0.3905,0.3835,0.0738,0.0035,-0.3905,-0.3835,-0.0738,0.0*
%
%ADD28ROTATEDRECTD28*%

G04:AMPARAMS|DCode=29|XSize=0.5mm|YSize=0.6mm|CornerRadius=0mm|HoleSize=0mm|Usage=FLASHONLY|Rotation=190.000|XOffset=0mm|YOffset=0mm|HoleType=Round|Shape=Rectangle|*
%AMROTATEDRECTD29*
4,1,4,0.1941,0.3388,0.2983,-0.2520,-0.1941,-0.3388,-0.2983,0.2520,0.1941,0.3388,0.0*
%
%ADD29ROTATEDRECTD29*%

G04:AMPARAMS|DCode=30|XSize=0.5mm|YSize=0.6mm|CornerRadius=0mm|HoleSize=0mm|Usage=FLASHONLY|Rotation=176.515|XOffset=0mm|YOffset=0mm|HoleType=Round|Shape=Rectangle|*
%AMROTATEDRECTD30*
4,1,4,0.2678,0.2843,0.2313,-0.3146,-0.2678,-0.2843,-0.2313,0.3146,0.2678,0.2843,0.0*
%
%ADD30ROTATEDRECTD30*%

G04:AMPARAMS|DCode=31|XSize=0.5mm|YSize=0.6mm|CornerRadius=0mm|HoleSize=0mm|Usage=FLASHONLY|Rotation=260.000|XOffset=0mm|YOffset=0mm|HoleType=Round|Shape=Rectangle|*
%AMROTATEDRECTD31*
4,1,4,-0.2520,0.2983,0.3388,0.1941,0.2520,-0.2983,-0.3388,-0.1941,-0.2520,0.2983,0.0*
%
%ADD31ROTATEDRECTD31*%

%ADD32R,0.6000X0.5000*%
G04:AMPARAMS|DCode=33|XSize=0.5mm|YSize=0.6mm|CornerRadius=0mm|HoleSize=0mm|Usage=FLASHONLY|Rotation=290.000|XOffset=0mm|YOffset=0mm|HoleType=Round|Shape=Rectangle|*
%AMROTATEDRECTD33*
4,1,4,-0.3674,0.1323,0.1964,0.3375,0.3674,-0.1323,-0.1964,-0.3375,-0.3674,0.1323,0.0*
%
%ADD33ROTATEDRECTD33*%

G04:AMPARAMS|DCode=34|XSize=0.5mm|YSize=0.6mm|CornerRadius=0mm|HoleSize=0mm|Usage=FLASHONLY|Rotation=280.000|XOffset=0mm|YOffset=0mm|HoleType=Round|Shape=Rectangle|*
%AMROTATEDRECTD34*
4,1,4,-0.3388,0.1941,0.2520,0.2983,0.3388,-0.1941,-0.2520,-0.2983,-0.3388,0.1941,0.0*
%
%ADD34ROTATEDRECTD34*%

%ADD35R,0.5000X0.6000*%
G04:AMPARAMS|DCode=36|XSize=0.5mm|YSize=0.6mm|CornerRadius=0mm|HoleSize=0mm|Usage=FLASHONLY|Rotation=180.421|XOffset=0mm|YOffset=0mm|HoleType=Round|Shape=Rectangle|*
%AMROTATEDRECTD36*
4,1,4,0.2478,0.3018,0.2522,-0.2982,-0.2478,-0.3018,-0.2522,0.2982,0.2478,0.3018,0.0*
%
%ADD36ROTATEDRECTD36*%

G04:AMPARAMS|DCode=37|XSize=0.5mm|YSize=0.6mm|CornerRadius=0mm|HoleSize=0mm|Usage=FLASHONLY|Rotation=172.798|XOffset=0mm|YOffset=0mm|HoleType=Round|Shape=Rectangle|*
%AMROTATEDRECTD37*
4,1,4,0.2856,0.2663,0.2104,-0.3290,-0.2856,-0.2663,-0.2104,0.3290,0.2856,0.2663,0.0*
%
%ADD37ROTATEDRECTD37*%

G04:AMPARAMS|DCode=38|XSize=0.5mm|YSize=0.6mm|CornerRadius=0mm|HoleSize=0mm|Usage=FLASHONLY|Rotation=120.000|XOffset=0mm|YOffset=0mm|HoleType=Round|Shape=Rectangle|*
%AMROTATEDRECTD38*
4,1,4,0.3848,-0.0665,-0.1348,-0.3665,-0.3848,0.0665,0.1348,0.3665,0.3848,-0.0665,0.0*
%
%ADD38ROTATEDRECTD38*%

G04:AMPARAMS|DCode=40|XSize=0.5mm|YSize=0.6mm|CornerRadius=0mm|HoleSize=0mm|Usage=FLASHONLY|Rotation=52.338|XOffset=0mm|YOffset=0mm|HoleType=Round|Shape=Rectangle|*
%AMROTATEDRECTD40*
4,1,4,0.0847,-0.3812,-0.3902,-0.0146,-0.0847,0.3812,0.3902,0.0146,0.0847,-0.3812,0.0*
%
%ADD40ROTATEDRECTD40*%

G04:AMPARAMS|DCode=41|XSize=0.5mm|YSize=0.6mm|CornerRadius=0mm|HoleSize=0mm|Usage=FLASHONLY|Rotation=30.000|XOffset=0mm|YOffset=0mm|HoleType=Round|Shape=Rectangle|*
%AMROTATEDRECTD41*
4,1,4,-0.0665,-0.3848,-0.3665,0.1348,0.0665,0.3848,0.3665,-0.1348,-0.0665,-0.3848,0.0*
%
%ADD41ROTATEDRECTD41*%

G04:AMPARAMS|DCode=42|XSize=0.5mm|YSize=0.6mm|CornerRadius=0mm|HoleSize=0mm|Usage=FLASHONLY|Rotation=149.428|XOffset=0mm|YOffset=0mm|HoleType=Round|Shape=Rectangle|*
%AMROTATEDRECTD42*
4,1,4,0.3678,0.1311,0.0627,-0.3855,-0.3678,-0.1311,-0.0627,0.3855,0.3678,0.1311,0.0*
%
%ADD42ROTATEDRECTD42*%

G04:AMPARAMS|DCode=43|XSize=0.5mm|YSize=0.6mm|CornerRadius=0mm|HoleSize=0mm|Usage=FLASHONLY|Rotation=84.459|XOffset=0mm|YOffset=0mm|HoleType=Round|Shape=Rectangle|*
%AMROTATEDRECTD43*
4,1,4,0.2745,-0.2778,-0.3227,-0.2199,-0.2745,0.2778,0.3227,0.2199,0.2745,-0.2778,0.0*
%
%ADD43ROTATEDRECTD43*%

G04:AMPARAMS|DCode=44|XSize=0.5mm|YSize=0.6mm|CornerRadius=0mm|HoleSize=0mm|Usage=FLASHONLY|Rotation=161.758|XOffset=0mm|YOffset=0mm|HoleType=Round|Shape=Rectangle|*
%AMROTATEDRECTD44*
4,1,4,0.3314,0.2067,0.1435,-0.3632,-0.3314,-0.2067,-0.1435,0.3632,0.3314,0.2067,0.0*
%
%ADD44ROTATEDRECTD44*%

G04:AMPARAMS|DCode=45|XSize=0.5mm|YSize=0.6mm|CornerRadius=0mm|HoleSize=0mm|Usage=FLASHONLY|Rotation=142.894|XOffset=0mm|YOffset=0mm|HoleType=Round|Shape=Rectangle|*
%AMROTATEDRECTD45*
4,1,4,0.3804,0.0884,0.0184,-0.3901,-0.3804,-0.0884,-0.0184,0.3901,0.3804,0.0884,0.0*
%
%ADD45ROTATEDRECTD45*%

G04:AMPARAMS|DCode=46|XSize=0.5mm|YSize=0.6mm|CornerRadius=0mm|HoleSize=0mm|Usage=FLASHONLY|Rotation=1.331|XOffset=0mm|YOffset=0mm|HoleType=Round|Shape=Rectangle|*
%AMROTATEDRECTD46*
4,1,4,-0.2430,-0.3057,-0.2569,0.2941,0.2430,0.3057,0.2569,-0.2941,-0.2430,-0.3057,0.0*
%
%ADD46ROTATEDRECTD46*%

G04:AMPARAMS|DCode=80|XSize=2.1mm|YSize=1mm|CornerRadius=0.5mm|HoleSize=0mm|Usage=FLASHONLY|Rotation=171.000|XOffset=0mm|YOffset=0mm|HoleType=Round|Shape=RoundedRectangle|*
%AMROUNDEDRECTD80*
21,1,2.1000,0.0000,0,0,171.0*
21,1,1.1000,1.0000,0,0,171.0*
1,1,1.0000,-0.5432,0.0860*
1,1,1.0000,0.5432,-0.0860*
1,1,1.0000,0.5432,-0.0860*
1,1,1.0000,-0.5432,0.0860*
%
%ADD80ROUNDEDRECTD80*%
%ADD85C,1.0000*%
%ADD86C,0.1500*%
%ADD88C,0.1500*%
%ADD90C,0.5000*%
%ADD91C,0.2500*%
%ADD92C,0.1540*%
%ADD94C,1.5000*%
%ADD95P,2.1213X4X126.0*%
%ADD96C,2.8000*%
%ADD97R,1.5000X1.5000*%
%ADD98C,1.7500*%
%ADD99C,4.1000*%
%ADD100C,2.5000*%
%ADD101C,0.6000*%
%ADD102R,0.8000X1.6000*%
G04:AMPARAMS|DCode=103|XSize=0.9mm|YSize=0.8mm|CornerRadius=0mm|HoleSize=0mm|Usage=FLASHONLY|Rotation=171.000|XOffset=0mm|YOffset=0mm|HoleType=Round|Shape=Rectangle|*
%AMROTATEDRECTD103*
4,1,4,0.5070,0.3247,0.3819,-0.4655,-0.5070,-0.3247,-0.3819,0.4655,0.5070,0.3247,0.0*
%
%ADD103ROTATEDRECTD103*%

%ADD104R,0.9000X0.8000*%
%AMCUSTOMSHAPE105*
4,1,6,-0.7202,-0.3922,-0.5638,0.5955,0.7202,0.3922,0.1482,-0.0235,0.1482,-0.0235,0.5638,-0.5955,-0.7202,-0.3922,0.0*%
%ADD105CUSTOMSHAPE105*%

%AMCUSTOMSHAPE106*
4,1,5,0.6708,0.4000,-0.0205,0.5095,-0.5926,0.0939,-0.1770,-0.4782,0.5144,-0.5877,0.6708,0.4000,0.0*%
%ADD106CUSTOMSHAPE106*%

G04:AMPARAMS|DCode=107|XSize=0.5mm|YSize=0.6mm|CornerRadius=0mm|HoleSize=0mm|Usage=FLASHONLY|Rotation=326.495|XOffset=0mm|YOffset=0mm|HoleType=Round|Shape=Rectangle|*
%AMROTATEDRECTD107*
4,1,4,-0.3741,-0.1122,-0.0429,0.3882,0.3741,0.1122,0.0429,-0.3882,-0.3741,-0.1122,0.0*
%
%ADD107ROTATEDRECTD107*%

D10*
X-784547Y8225D02*
G03*
X-785007Y10307I-1883J676D01*
G01*
X-784547Y8225D02*
G03*
X-755556Y-23119I22547J-8225D01*
G01*
X-747541Y-23221D02*
G03*
X-747789Y-23119I-248J-248D01*
G01*
X-588403Y-23572D02*
G03*
X-589514Y-23221I-1132J-1649D01*
G01*
X-558925Y-26132D02*
G03*
X-558887Y-26113I-12575J26132D01*
G01*
X-587906Y-23913D02*
G03*
X-558925Y-26132I16406J23913D01*
G01*
X-488816Y-24174D02*
G03*
X-485549Y-22784I-92J4749D01*
G01*
X-558857Y-26099D02*
G03*
X-558887Y-26113I1914J-4073D01*
G01*
X-556210Y-25479D02*
G03*
X-558857Y-26099I126J-6499D01*
G01*
X-442139Y20627D02*
G03*
X-436589Y34025I-13399J13399D01*
G01*
X-481176Y241493D02*
G03*
X-478827Y247164I-5671J5671D01*
G01*
X-348191Y311688D02*
G03*
X-348311Y312369I-2000J0D01*
G01*
X-354591Y329697D02*
G03*
X-359006Y335215I-10342J-3748D01*
G01*
X-407161Y384070D02*
G03*
X-405116Y379133I6982J0D01*
G01*
X-348191Y265896D02*
G03*
X-331186Y248890I17005J0D01*
G01*
X-481089Y174922D02*
G03*
X-481088Y174925I-1938J495D01*
G01*
X-478073Y183194D02*
G03*
X-479744Y180225I4631J-4561D01*
G01*
X-478045Y183222D02*
G03*
X-478073Y183194I3179J-3185D01*
G01*
X-438843Y218904D02*
G03*
X-444852Y216416I0J-8497D01*
G01*
X-390775Y300107D02*
G03*
X-398214Y282146I17960J-17960D01*
G01*
X-409300Y240039D02*
G03*
X-416850Y230757I3386J-10466D01*
G01*
X-404786Y240515D02*
G03*
X-409300Y240039I-1128J-10942D01*
G01*
X-404786Y240515D02*
G03*
X-403882Y240637I192J1991D01*
G01*
D02*
G03*
X-398214Y248908I-3201J8272D01*
G01*
X-428703Y218904D02*
G03*
X-417141Y228147I0J11852D01*
G01*
D02*
G03*
X-417104Y228373I-1952J438D01*
G01*
X-416850Y230757D02*
G03*
X-416852Y230737I10936J-1184D01*
G01*
X-243561Y239687D02*
G03*
X-243815Y239703I-254J-1984D01*
G01*
X-229626Y237973D02*
G03*
X-221537Y240202I1343J10918D01*
G01*
D02*
G03*
X-218041Y244878I-6746J8688D01*
G01*
X-218041Y244879D02*
G03*
X-218030Y244906I-4179J1670D01*
G01*
D02*
G03*
X-217742Y245745I-10253J3984D01*
G01*
D02*
G03*
X-217740Y245751I-4311J1290D01*
G01*
X-215308Y253923D02*
G03*
X-215306Y253929I-4313J1284D01*
G01*
D02*
G03*
X-215326Y260264I-10545J3133D01*
G01*
X-391616Y203396D02*
G03*
X-370793Y218790I0J21781D01*
G01*
X-369970Y223828D02*
G03*
X-369966Y223856I-10856J1772D01*
G01*
X-369655Y225592D02*
G03*
X-369734Y225274I1895J-640D01*
G01*
X-349880Y239703D02*
G03*
X-369655Y225592I0J-20913D01*
G01*
X-720000Y-253000D02*
G03*
X-704714Y-237714I0J15286D01*
G01*
X-449999Y-236936D02*
G03*
X-450000Y-237000I1999J-64D01*
G01*
X-483934Y169078D02*
G03*
X-486207Y168697I-866J-1803D01*
G01*
X-483934Y169078D02*
G03*
X-475248Y177774I2846J5844D01*
G01*
X-474866Y180037D02*
G03*
X-475248Y177774I1425J-1404D01*
G01*
X-432751Y214024D02*
G03*
X-446627Y208276I0J-19624D01*
G01*
X-387315Y282453D02*
G03*
X-390414Y274970I7483J-7483D01*
G01*
X-390472Y232431D02*
G03*
X-390414Y232910I-1942J479D01*
G01*
X-391507Y228232D02*
G03*
X-391538Y228104I10680J-2632D01*
G01*
X-392483Y224316D02*
G03*
X-392318Y224767I-1783J906D01*
G01*
X-409300Y214024D02*
G03*
X-392483Y224316I0J18886D01*
G01*
X-502287Y267294D02*
G03*
X-506263Y257695I9599J-9599D01*
G01*
X-351702Y244203D02*
G03*
X-369663Y236763I0J-25400D01*
G01*
X-241634Y244184D02*
G03*
X-241909Y244203I-275J-1981D01*
G01*
X-229178Y242452D02*
G03*
X-222223Y246541I895J6438D01*
G01*
X-219411Y257950D02*
G03*
X-221537Y261924I-6439J-888D01*
G01*
X-226657Y266499D02*
G03*
X-226652Y266494I1338J1487D01*
G01*
X-219620Y255207D02*
G03*
X-219411Y257950I-6230J1855D01*
G01*
X-222220Y246549D02*
G03*
X-222053Y247036I-6064J2342D01*
G01*
X-418697Y388044D02*
G03*
X-416935Y389117I-10J2000D01*
G01*
X-343691Y265896D02*
G03*
X-334954Y253972I12505J0D01*
G01*
D02*
G03*
X-334624Y253899I591J1911D01*
G01*
D02*
G03*
X-333328Y253818I1297J10282D01*
G01*
X-233644D02*
G03*
X-232839Y253987I0J2000D01*
G01*
X-225852Y257061D02*
G03*
X-225850Y257062I-805J1831D01*
G01*
X-388152Y369816D02*
G03*
X-380374Y363173I18246J13487D01*
G01*
X-343691Y347392D02*
G03*
X-359473Y363173I-15781J0D01*
G01*
X-392845Y377866D02*
G03*
X-390917Y373555I10771J2230D01*
G01*
X-409300Y394860D02*
G03*
X-416935Y389117I2139J-10790D01*
G01*
X-399169Y391629D02*
G03*
X-409300Y394860I-7991J-7559D01*
G01*
X-393079Y381173D02*
G03*
X-397405Y389775I-16221J-2768D01*
G01*
X-393055Y380734D02*
G03*
X-393079Y381173I-1997J108D01*
G01*
X-393055Y380734D02*
G03*
X-392845Y377866I10982J-638D01*
G01*
X-259570Y385857D02*
G03*
X-267010Y367896I17960J-17960D01*
G01*
X-208070Y377440D02*
G03*
X-215510Y359480I17960J-17960D01*
G01*
X-485806Y-28154D02*
G03*
X-475044Y-21756I-7199J24358D01*
G01*
X-486851Y-28444D02*
G03*
X-486283Y-28295I-2057J9018D01*
G01*
X-588801Y-28691D02*
G03*
X-589781Y-28419I-1007J-1728D01*
G01*
X-747606Y-27721D02*
G03*
X-747531Y-27721I65J4500D01*
G01*
D02*
G03*
X-747529Y-27721I-10J4500D01*
G01*
X-493005Y-29195D02*
G03*
X-487320Y-28551I0J25400D01*
G01*
X-835059Y2900D02*
G03*
X-809659Y-22500I25400J0D01*
G01*
X-779016Y-22870D02*
G03*
X-780156Y-22500I-1160J-1630D01*
G01*
X-778523Y-23221D02*
G03*
X-755198Y-27676I16523J23221D01*
G01*
X-588361Y-28947D02*
G03*
X-556983Y-30191I16861J28947D01*
G01*
X-500723Y292155D02*
G03*
X-506878Y307016I-21016J0D01*
G01*
X-477263Y319391D02*
G03*
X-484702Y337351I-25400J0D01*
G01*
X-477263Y304884D02*
G03*
X-476515Y303335I2000J10D01*
G01*
X-476511Y290014D02*
G03*
X-476515Y303335I-5283J6659D01*
G01*
X-476511Y290014D02*
G03*
X-477263Y288462I1249J-1562D01*
G01*
X-556963Y-30182D02*
G03*
X-556943Y-30172I-14537J30182D01*
G01*
X-556964Y-30182D02*
G03*
X-556963Y-30182I-14535J30182D01*
G01*
X-556123Y-29978D02*
G03*
X-556943Y-30172I39J-2000D01*
G01*
X-556976Y-30188D02*
G03*
X-556964Y-30182I-4018J8332D01*
G01*
X-556983Y-30191D02*
G03*
X-556976Y-30188I-1938J4061D01*
G01*
X-754692Y-27619D02*
G03*
X-755189Y-27674I-29J-2000D01*
G01*
X-755198Y-27676D02*
G03*
X-755189Y-27674I-6802J27676D01*
G01*
X-445250Y260000D02*
Y260000D01*
X-435000D01*
X-800100Y25400D02*
X-785007Y10307D01*
X-755556Y-23119D02*
X-747789D01*
X-589524Y-23221D02*
X-589514Y-23221D01*
X-747541Y-23221D02*
X-589524D01*
X-588403Y-23572D02*
X-587906Y-23913D01*
X-556210Y-25479D02*
X-488816Y-24174D01*
X-485549Y-22784D02*
X-442139Y20627D01*
X-478827Y247164D02*
Y263275D01*
X-354591Y329697D02*
X-348311Y312369D01*
X-365150Y339167D02*
X-359006Y335215D01*
X-405116Y379133D02*
X-365150Y339167D01*
X-348191Y265896D02*
Y311688D01*
X-331186Y248890D02*
X-228283D01*
X-481088Y174925D02*
X-479744Y180225D01*
X-478045Y183222D02*
X-444852Y216416D01*
X-390775Y300107D02*
X-364933Y325949D01*
X-398214Y248908D02*
Y282146D01*
X-438843Y218904D02*
X-428703D01*
X-417104Y228373D02*
X-416852Y230737D01*
X-243561Y239687D02*
X-229626Y237973D01*
X-217740Y245751D02*
X-215308Y253923D01*
X-218029Y269213D02*
X-215326Y260264D01*
X-429899Y203396D02*
X-391616D01*
X-349880Y239703D02*
X-243815D01*
X-370793Y218790D02*
X-369970Y223828D01*
X-369966Y223856D02*
X-369734Y225274D01*
X-704714Y-237714D02*
Y-237500D01*
X-450000Y-235000D02*
X-405000D01*
X-449999Y-236936D02*
X-449939Y-235136D01*
X-449941Y-235136D02*
X-449939Y-235073D01*
X-450000Y-235071D02*
Y-235000D01*
Y-253000D02*
Y-237000D01*
X-489569Y165334D02*
X-486207Y168697D01*
X-474866Y180037D02*
X-446627Y208276D01*
X-432751Y214024D02*
X-409300D01*
X-387315Y282453D02*
X-368907Y300861D01*
X-390414Y232910D02*
Y274970D01*
X-391507Y228232D02*
X-390472Y232431D01*
X-392318Y224767D02*
X-391538Y228104D01*
X-506263Y245467D02*
Y257695D01*
X-380827Y225599D02*
X-369663Y236763D01*
X-351702Y244203D02*
X-241909D01*
X-241634Y244184D02*
X-229178Y242452D01*
X-226652Y266494D02*
X-221537Y261924D01*
X-226658Y266500D02*
X-226657Y266499D01*
X-222053Y247036D02*
X-219620Y255207D01*
X-432248Y388044D02*
X-418697D01*
X-343691Y279985D02*
X-343691Y265896D01*
X-333328Y253818D02*
X-233644D01*
X-232839Y253987D02*
X-230900Y254840D01*
X-230900D02*
X-225852Y257061D01*
X-225850Y257062D02*
X-225850Y257062D01*
X-343691Y308892D02*
X-343691Y280025D01*
X-343691Y308852D02*
Y347392D01*
X-390917Y373555D02*
X-388152Y369816D01*
X-380374Y363173D02*
X-359473D01*
X-399169Y391629D02*
X-397405Y389775D01*
X-259570Y385857D02*
X-259065Y386362D01*
X-267010Y358266D02*
Y367896D01*
X-208070Y377440D02*
X-207561Y377949D01*
X-215510Y347018D02*
Y359480D01*
X-475044Y-21756D02*
X-440589Y12700D01*
X-486283Y-28295D02*
X-485806Y-28154D01*
X-589792Y-28419D02*
X-589781Y-28419D01*
X-754692Y-27619D02*
X-747606Y-27721D01*
X-747529Y-27721D02*
X-589792Y-28419D01*
X-747531Y-27721D02*
X-747529D01*
X-487320Y-28551D02*
X-486851Y-28444D01*
X-515677Y-29195D02*
X-493005D01*
X-588801Y-28691D02*
X-588361Y-28947D01*
X-835059Y2900D02*
Y19230D01*
X-779016Y-22871D02*
X-778523Y-23221D01*
X-780166Y-22500D02*
X-780156Y-22500D01*
X-809659Y-22500D02*
X-780166D01*
X-500723Y277171D02*
Y292155D01*
X-491051Y343700D02*
X-484702Y337351D01*
X-477263Y304884D02*
Y319391D01*
Y273152D02*
Y288462D01*
X-556123Y-29978D02*
X-515677Y-29195D01*
X-867990Y19230D02*
X-835059D01*
X-19215Y276075D02*
X-18787Y276503D01*
X-19215Y268442D02*
Y276075D01*
X-19673Y267984D02*
X-19215Y268442D01*
X267Y292531D02*
X342Y292456D01*
Y283591D02*
Y292456D01*
Y283591D02*
X588Y283345D01*
X-8893Y273866D02*
Y281466D01*
X-8850Y281509D01*
X-8893Y273866D02*
X-8850Y273823D01*
D12*
X-1240899Y-81308D02*
G03*
X-1242500Y-83630I899J-2333D01*
G01*
X-1240899Y-81308D02*
G03*
X-1237834Y-71040I-2402J6308D01*
G01*
X-1238300Y-69597D02*
G03*
X-1237834Y-71040I2500J11D01*
G01*
X-1236132Y-15318D02*
G03*
X-1238300Y-24471I18232J-9153D01*
G01*
X-1235436Y-14481D02*
G03*
X-1236122Y-15301I1529J-1978D01*
G01*
X-1226763Y-8391D02*
G03*
X-1227559Y-8543I64J-2499D01*
G01*
X-1191538Y-7488D02*
G03*
X-1165984Y3483I-962J37488D01*
G01*
D02*
G03*
X-1155030Y31499I-26516J26517D01*
G01*
X-1154675Y51146D02*
G03*
X-1155715Y49027I1458J-2031D01*
G01*
X-1130396Y68000D02*
G03*
X-1131852Y67533I0J-2500D01*
G01*
X-939301Y63692D02*
G03*
X-941016Y68000I-1726J1809D01*
G01*
X-939301Y63692D02*
G03*
X-914901Y63694I12201J-12891D01*
G01*
X-913184Y68000D02*
G03*
X-914901Y63694I11J-2500D01*
G01*
X-704719Y70674D02*
G03*
X-704713Y70676I-979J4903D01*
G01*
X-695106Y72606D02*
G03*
X-695091Y72609I-985J4902D01*
G01*
D02*
G03*
X-695083Y72611I-2231J11027D01*
G01*
D02*
G03*
X-693041Y73108I-5186J25733D01*
G01*
D02*
G03*
X-693032Y73110I-5155J18027D01*
G01*
D02*
G03*
X-693021Y73113I-3091J10817D01*
G01*
D02*
G03*
X-693014Y73116I-1374J4807D01*
G01*
X-683588Y75826D02*
G03*
X-683575Y75830I-1382J4805D01*
G01*
D02*
G03*
X-683570Y75832I-3123J10808D01*
G01*
D02*
G03*
X-683561Y75834I-5200J18014D01*
G01*
D02*
G03*
X-683301Y75911I-7283J25220D01*
G01*
D02*
G03*
X-683288Y75915I-1425J4793D01*
G01*
X-660920Y82631D02*
G03*
X-660887Y82641I-1438J4789D01*
G01*
X-645263Y87434D02*
G03*
X-643549Y88109I-3437J11236D01*
G01*
D02*
G03*
X-638198Y93400I-5151J10560D01*
G01*
D02*
G03*
X-638194Y93408I-4467J2247D01*
G01*
X-636920Y95953D02*
G03*
X-635729Y99105I-14525J7286D01*
G01*
X-630738Y116708D02*
G03*
X-631380Y115588I1774J-1761D01*
G01*
X-628178Y119268D02*
G03*
X-627937Y119525I-3522J3549D01*
G01*
X-621104Y127339D02*
G03*
X-620131Y128548I-14103J12356D01*
G01*
D02*
G03*
X-620128Y128551I-4018J2976D01*
G01*
X-614311Y136418D02*
G03*
X-614309Y136420I-4020J2973D01*
G01*
D02*
G03*
X-613430Y137717I-15067J11160D01*
G01*
X-608287Y146012D02*
G03*
X-607631Y147153I-15921J9904D01*
G01*
X-599877Y161766D02*
G03*
X-599779Y161960I-4417J2344D01*
G01*
X-553566Y201202D02*
G03*
X-553566Y201215I-44372J-163D01*
G01*
X-546804Y210205D02*
G03*
X-553373Y202174I10423J-15229D01*
G01*
D02*
G03*
X-553566Y201215I2307J-963D01*
G01*
X-535173Y213803D02*
G03*
X-546804Y210205I0J-20595D01*
G01*
X-556607Y184896D02*
G03*
X-553566Y201202I-41331J16143D01*
G01*
X-597270Y167230D02*
G03*
X-556607Y184896I11554J29035D01*
G01*
X-479806Y213803D02*
G03*
X-456089Y237520I0J23717D01*
G01*
X-719957Y58139D02*
G03*
X-719902Y57620I2500J0D01*
G01*
X-755254Y54399D02*
G03*
X-755374Y54839I-2462J-433D01*
G01*
D02*
G03*
X-774375Y68000I-19002J-7136D01*
G01*
X-708101Y69995D02*
G03*
X-719957Y58139I0J-11856D01*
G01*
X-754082Y47729D02*
G03*
X-754078Y47702I17482J3071D01*
G01*
X-719957Y44630D02*
G03*
X-719237Y54486I-16643J6170D01*
G01*
X-736600Y33050D02*
G03*
X-719957Y44630I0J17750D01*
G01*
X-754082Y47729D02*
G03*
X-736600Y33050I17482J3071D01*
G01*
X-1235861Y-6510D02*
G03*
X-1243300Y-24471I17960J-17960D01*
G01*
X-1235843Y-6493D02*
G03*
X-1235861Y-6510I17943J-17978D01*
G01*
X-1234947Y-5925D02*
G03*
X-1235843Y-6493I860J-2348D01*
G01*
X-1192500Y-2500D02*
G03*
X-1162701Y17029I0J32500D01*
G01*
D02*
G03*
X-1160026Y31297I-29799J12971D01*
G01*
X-1160859Y52603D02*
G03*
X-1160859Y52595I2499J87D01*
G01*
X-1159776Y53639D02*
G03*
X-1160079Y53383I1458J-2031D01*
G01*
X-1132005Y73000D02*
G03*
X-1132129Y72997I0J-2500D01*
G01*
X-648718Y91920D02*
G03*
X-649531Y91785I-3J-2500D01*
G01*
X-597290Y172705D02*
G03*
X-600139Y172234I-1092J-2249D01*
G01*
X-612533Y148652D02*
G03*
X-612051Y149492I-11675J7264D01*
G01*
X-618331Y139391D02*
G03*
X-617682Y140347I-11045J8190D01*
G01*
X-624856Y130644D02*
G03*
X-624148Y131524I-10351J9051D01*
G01*
X-648718Y91920D02*
G03*
X-642664Y95647I18J6750D01*
G01*
X-641386Y98201D02*
G03*
X-640567Y100369I-10059J5038D01*
G01*
X-635225Y119292D02*
G03*
X-635872Y118165I1771J-1765D01*
G01*
X-718452Y74053D02*
G03*
X-718442Y74054I-345J6241D01*
G01*
X-724045Y73756D02*
G03*
X-723368Y73782I-478J21245D01*
G01*
X-718442Y74054D02*
G03*
X-718410Y74056I-769J13728D01*
G01*
X-723368Y73782D02*
G03*
X-723350Y73783I-327J6241D01*
G01*
X-718410Y74056D02*
G03*
X-717191Y74161I-1215J21215D01*
G01*
X-707393Y75308D02*
G03*
X-707380Y75309I-1619J13654D01*
G01*
D02*
G03*
X-705715Y75574I-2504J21102D01*
G01*
X-694417Y77915D02*
G03*
X-694407Y77918I-3779J13220D01*
G01*
X-717191Y74161D02*
G03*
X-717173Y74163I-1562J13661D01*
G01*
X-705715Y75574D02*
G03*
X-705698Y75578I-1215J6131D01*
G01*
X-707413Y75305D02*
G03*
X-707393Y75308I-727J6208D01*
G01*
X-684949Y80638D02*
G03*
X-684726Y80703I-5895J20416D01*
G01*
X-694407Y77918D02*
G03*
X-694396Y77921I-1716J6010D01*
G01*
X-684970Y80632D02*
G03*
X-684959Y80635I-1727J6007D01*
G01*
D02*
G03*
X-684949Y80638I-3812J13211D01*
G01*
X-717173Y74163D02*
G03*
X-717154Y74165I-708J6210D01*
G01*
X-696075Y77511D02*
G03*
X-694417Y77915I-4194J20832D01*
G01*
X-696090Y77508D02*
G03*
X-696075Y77511I-1231J6127D01*
G01*
X-597290Y172705D02*
G03*
X-559709Y192693I11574J23561D01*
G01*
D02*
G03*
X-559690Y199690I-26006J3572D01*
G01*
X-559709Y199993D02*
G03*
X-559690Y199690I2500J11D01*
G01*
X-547993Y217493D02*
G03*
X-559709Y200237I6849J-17256D01*
G01*
X-543394Y218800D02*
G03*
X-546067Y218261I123J-7499D01*
G01*
X-543379Y218801D02*
G03*
X-543394Y218800I70J-4999D01*
G01*
X-543377Y218801D02*
G03*
X-543379Y218801I328J-25398D01*
G01*
X-543373Y218801D02*
G03*
X-543377Y218801I102J-7499D01*
G01*
X-543366Y218801D02*
G03*
X-543373Y218801I57J-5000D01*
G01*
X-543049Y218803D02*
G03*
X-543366Y218801I0J-25400D01*
G01*
X-490276Y218803D02*
G03*
X-469100Y239980I0J21177D01*
G01*
X-458701Y251892D02*
G03*
X-469100Y241493I0J-10399D01*
G01*
X-428703Y251892D02*
G03*
X-425000Y255595I0J3703D01*
G01*
X-431001Y235394D02*
G03*
X-447500Y251892I-16499J0D01*
G01*
X-447970Y24105D02*
G03*
X-447421Y24945I-1775J1760D01*
G01*
X-502021Y-19425D02*
G03*
X-484061Y-11985I0J25400D01*
G01*
X-442965Y36240D02*
G03*
X-443044Y35998I6376J-2215D01*
G01*
X-555125Y-19425D02*
G03*
X-556162Y-19650I0J-2500D01*
G01*
X-560750Y-21741D02*
G03*
X-560851Y-21788I4666J-10237D01*
G01*
X-560851Y-21788D02*
G03*
X-560892Y-21807I1994J-4311D01*
G01*
D02*
G03*
X-560908Y-21814I3949J-8365D01*
G01*
X-560908Y-21814D02*
G03*
X-560938Y-21829I2021J-4299D01*
G01*
X-560993Y-21856D02*
G03*
X-560938Y-21829I-10507J21856D01*
G01*
X-594343Y8140D02*
G03*
X-560993Y-21856I22843J-8140D01*
G01*
X-594343Y8140D02*
G03*
X-594924Y10724I-2359J827D01*
G01*
X-41396Y28695D02*
G03*
X-59356Y36135I-17960J-17960D01*
G01*
X-154368D02*
G03*
X-155672Y35761I11J-2500D01*
G01*
X-168959Y33475D02*
G03*
X-155672Y35761I3859J17325D01*
G01*
X-219611Y43575D02*
G03*
X-201651Y36135I17960J17960D01*
G01*
X-220088Y44235D02*
G03*
X-219631Y43594I2239J1113D01*
G01*
X-1410745Y-445000D02*
G03*
X-1411000Y-445106I0J-361D01*
G01*
X-702924Y57906D02*
G03*
X-713575Y51460I0J-12023D01*
G01*
D02*
G03*
X-713854Y50374I2220J-1149D01*
G01*
X-714947Y43821D02*
G03*
X-713854Y50374I-21653J6979D01*
G01*
X-733675Y28239D02*
G03*
X-714947Y43821I-2925J22561D01*
G01*
X-745938Y26670D02*
G03*
X-745617Y26690I-0J2500D01*
G01*
X-1022689Y-447689D02*
G03*
X-1022500Y-447500I0J189D01*
G01*
X-529505Y-133400D02*
G03*
X-527184Y-135000I2332J900D01*
G01*
X-511589D02*
G03*
X-494727Y-128016I0J23845D01*
G01*
X-755516Y-135000D02*
G03*
X-753193Y-133396I-11J2500D01*
G01*
X-720005Y-133400D02*
G03*
X-717684Y-135000I2332J900D01*
G01*
X-565015D02*
G03*
X-562693Y-133396I-11J2500D01*
G01*
X-529505Y-133400D02*
G03*
X-562693Y-133396I-16595J-6299D01*
G01*
X-720005Y-133400D02*
G03*
X-753193Y-133396I-16595J-6299D01*
G01*
X-1242500Y-90000D02*
Y-83630D01*
X-1238300Y-69597D02*
Y-24471D01*
X-1236132Y-15318D02*
X-1236122Y-15301D01*
X-1235436Y-14481D02*
X-1227922Y-8676D01*
X-1227559Y-8543D01*
X-1226763Y-8391D02*
X-1191538Y-7488D01*
X-1155715Y49027D02*
X-1155030Y31499D01*
X-1154675Y51146D02*
X-1144776Y58253D01*
X-1131852Y67533D01*
X-1130396Y68000D02*
X-941016D01*
X-704713Y70676D02*
X-695106Y72606D01*
X-693014Y73116D02*
X-683588Y75826D01*
X-683288Y75915D02*
X-660920Y82631D01*
X-660887Y82641D02*
X-645263Y87434D01*
X-626153Y121565D02*
X-623629Y124452D01*
X-638194Y93408D02*
X-636920Y95953D01*
X-635729Y99105D02*
X-631380Y115588D01*
X-630738Y116708D02*
X-628178Y119268D01*
X-627937Y119525D02*
X-626153Y121565D01*
X-598758Y164105D02*
X-597270Y167230D01*
X-623629Y124452D02*
X-621104Y127339D01*
X-620128Y128551D02*
X-614311Y136418D01*
X-613430Y137717D02*
X-608287Y146012D01*
X-607631Y147153D02*
X-599877Y161766D01*
X-599779Y161960D02*
X-598758Y164105D01*
X-913184Y68000D02*
X-774375D01*
X-708101Y69995D02*
X-704719Y70674D01*
X-535173Y213803D02*
X-479806D01*
X-755254Y54399D02*
X-754082Y47729D01*
X-719902Y57620D02*
X-719237Y54486D01*
X-1243300Y-75000D02*
Y-24471D01*
X-1234947Y-5925D02*
X-1225600Y-2500D01*
X-1192500D01*
X-1160859Y52595D02*
X-1160026Y31297D01*
X-1160859Y52603D02*
X-1160079Y53383D01*
X-1159776Y53639D02*
X-1132865Y72961D01*
X-1132129Y72997D01*
X-600685Y171688D02*
X-600139Y172234D01*
X-604293Y164110D02*
X-600685Y171688D01*
X-612051Y149492D02*
X-604293Y164110D01*
X-615106Y144503D02*
X-612533Y148652D01*
X-617682Y140347D02*
X-615106Y144503D01*
X-624148Y131524D02*
X-618331Y139391D01*
X-1132005Y73000D02*
X-757630D01*
X-642664Y95647D02*
X-641386Y98201D01*
X-640567Y100369D02*
X-635872Y118165D01*
X-635225Y119292D02*
X-631701Y122816D01*
Y122816D02*
X-624867Y130632D01*
X-662358Y87420D02*
X-649531Y91785D01*
X-723350Y73783D02*
X-718452Y74053D01*
X-705698Y75578D02*
X-696090Y77508D01*
X-717154Y74165D02*
X-707413Y75305D01*
X-694396Y77921D02*
X-684970Y80632D01*
X-684726Y80703D02*
X-662358Y87420D01*
X-543049Y218803D02*
X-490276D01*
X-559709Y199993D02*
Y200237D01*
X-547993Y217493D02*
X-546067Y218261D01*
X-469100Y239980D02*
Y241493D01*
X-431001Y233546D02*
Y235394D01*
X-425000Y255595D02*
Y260000D01*
X-447500Y251892D02*
X-428703D01*
X-458701D02*
X-447500D01*
X-757630Y73000D02*
X-724045Y73755D01*
X-484061Y-11985D02*
X-447970Y24105D01*
X-447421Y24945D02*
X-443044Y35998D01*
X-555125Y-19425D02*
X-502021D01*
X-442965Y36240D02*
X-436589Y54600D01*
X-560750Y-21741D02*
X-556162Y-19650D01*
X-609600Y25400D02*
X-594924Y10724D01*
X-41396Y28695D02*
X-38100Y25400D01*
X-154368Y36135D02*
X-59356D01*
X-180903Y36135D02*
X-168959Y33475D01*
X-201651Y36135D02*
X-180903D01*
X-219631Y43594D02*
X-219611Y43575D01*
X-222100Y48281D02*
X-220088Y44235D01*
X-1410745Y-445000D02*
X-1397992D01*
Y-426712D01*
X-1397992Y-426712D02*
X-1397992Y-426712D01*
Y-467405D02*
Y-455000D01*
X-1411000Y-467405D02*
Y-459107D01*
X-745617Y26690D02*
X-733675Y28239D01*
X-747359Y26670D02*
X-745938D01*
X-840000Y-302500D02*
Y-287000D01*
X-1050932Y-447689D02*
X-1022689D01*
X-565015Y-135000D02*
X-565015D01*
X-717684D02*
X-565015D01*
X-527184D02*
X-511589D01*
X-755516D02*
X-755516D01*
X-822850D02*
X-755516D01*
X-700000Y-287500D02*
X-690500D01*
X-690000Y-287000D01*
X-1050000Y-457500D02*
X-1026475D01*
X-1027500Y-467500D02*
X-1026475D01*
X-1027572Y-467572D02*
X-1027500Y-467500D01*
X-1045665Y-467572D02*
X-1027572D01*
X-810000Y-302000D02*
Y-286500D01*
X-790000Y-287500D02*
X-780500D01*
X-780000Y-287000D01*
X-750500Y-287500D02*
X-750000Y-287000D01*
X-760000Y-287500D02*
X-750500D01*
X-720500D02*
X-720000Y-287000D01*
X-730000Y-287500D02*
X-720500D01*
X-630000Y-300000D02*
Y-288000D01*
X-630000Y-288000D01*
X-570000D02*
Y-273894D01*
X-600000Y-288000D02*
Y-273894D01*
X-540000Y-288000D02*
Y-273894D01*
X-510000Y-287000D02*
Y-272894D01*
X-420000Y-302500D02*
Y-287000D01*
X-390000Y-302500D02*
Y-287000D01*
X-120000Y-302500D02*
Y-287000D01*
X-240000Y-302500D02*
Y-287000D01*
X-270000Y-302500D02*
Y-287000D01*
X-660000Y-302500D02*
Y-287000D01*
X-480000Y-302500D02*
Y-287000D01*
X-450000Y-302500D02*
Y-287000D01*
X-360000Y-302500D02*
Y-287000D01*
X-330000Y-302500D02*
Y-287000D01*
X-300000Y-302500D02*
Y-287000D01*
X-210000Y-302500D02*
Y-287000D01*
X-30000Y-302500D02*
Y-287000D01*
X-180000Y-302500D02*
Y-287000D01*
X-150000Y-302500D02*
Y-287000D01*
X-90000Y-302500D02*
Y-287000D01*
X-60000Y-302500D02*
Y-287000D01*
X0Y-302500D02*
Y-287000D01*
X30000Y-302500D02*
Y-287000D01*
X60000Y-302500D02*
Y-287000D01*
D18*
X-478827Y263275D02*
D03*
X-502287Y267294D02*
D03*
X-564632Y276731D02*
D03*
X-563068Y286608D02*
D03*
X-500723Y277171D02*
D03*
X-477263Y273152D02*
D03*
D19*
X-81181Y312206D02*
D03*
X-88375Y305260D02*
D03*
D20*
X-75774Y329863D02*
D03*
X-66623Y333895D02*
D03*
D21*
X-80564Y243166D02*
D03*
X-83984Y252563D02*
D03*
X588Y283345D02*
D03*
X4008Y273948D02*
D03*
D22*
X-75528Y210289D02*
D03*
X-83308Y216571D02*
D03*
D23*
X-102421Y274846D02*
D03*
X-99827Y284504D02*
D03*
D24*
X-87681Y278729D02*
D03*
X-83298Y287716D02*
D03*
D25*
X-22751Y312531D02*
D03*
X-13754Y308167D02*
D03*
D26*
X245Y318293D02*
D03*
X7812Y311757D02*
D03*
D27*
X22792Y304671D02*
D03*
X27659Y295935D02*
D03*
D28*
X-72059Y284334D02*
D03*
X-65725Y292073D02*
D03*
D29*
X-8850Y273823D02*
D03*
X-7114Y263975D02*
D03*
D30*
X-19673Y267984D02*
D03*
X-20281Y258002D02*
D03*
D31*
X-41439Y283820D02*
D03*
X-31591Y282083D02*
D03*
D32*
X-34988Y241755D02*
D03*
X-44988Y241755D02*
D03*
X-44988Y297255D02*
D03*
X-34988Y297255D02*
D03*
D33*
X-54956Y318997D02*
D03*
X-64353Y315577D02*
D03*
D34*
X-52726Y306703D02*
D03*
X-42878Y308440D02*
D03*
X-29420Y232117D02*
D03*
X-39269Y230381D02*
D03*
D35*
X-435000Y260000D02*
D03*
X-425000D02*
D03*
Y270000D02*
D03*
X-435000D02*
D03*
X-1397992Y-445000D02*
D03*
Y-455000D02*
D03*
X-59988Y258255D02*
D03*
X-59988Y268255D02*
D03*
D36*
X37275Y269451D02*
D03*
X37348Y259451D02*
D03*
D37*
X24008Y259200D02*
D03*
X22755Y249279D02*
D03*
D38*
X-6908Y215959D02*
D03*
X-15568Y210959D02*
D03*
D40*
X-57590Y228994D02*
D03*
X-65506Y235104D02*
D03*
D41*
X-87284Y230175D02*
D03*
X-92285Y238835D02*
D03*
D42*
X28728Y228348D02*
D03*
X23642Y219738D02*
D03*
D43*
X-45107Y200134D02*
D03*
X-55060Y201099D02*
D03*
D44*
X9624Y252168D02*
D03*
X6494Y242670D02*
D03*
D45*
X13382Y229153D02*
D03*
X7348Y221178D02*
D03*
D46*
X-114384Y257898D02*
D03*
X-114616Y267895D02*
D03*
D80*
X-487226Y297533D02*
D03*
X-491051Y343700D02*
D03*
X-531547Y350114D02*
D03*
X-562165Y354964D02*
D03*
D85*
X-512350Y324293D02*
D03*
X-581488Y335243D02*
D03*
D86*
X-687500Y-222748D02*
G03*
X-690000Y-228784I6036J-6036D01*
G01*
X-540000Y-253000D02*
G03*
X-539753Y-252404I-596J596D01*
G01*
X-270000Y-241413D02*
G03*
X-272593Y-235152I-8854J0D01*
G01*
X-173801D02*
G03*
X-173104Y-234981I0J1500D01*
G01*
X-184424Y-235152D02*
G03*
X-183559Y-234878I-0J1500D01*
G01*
X-139980Y-234790D02*
G03*
X-139003Y-235152I978J1138D01*
G01*
X-120000Y-240016D02*
G03*
X-124864Y-235152I-4864J0D01*
G01*
X30000Y-250153D02*
G03*
X15000Y-235152I-15000J0D01*
G01*
X-176430Y-234886D02*
G03*
X-175576Y-235152I854J1233D01*
G01*
X-163653Y-232653D02*
G03*
X-173104Y-234981I0J-20347D01*
G01*
X-176430Y-234886D02*
G03*
X-183559Y-234878I-3570J-5130D01*
G01*
X-139980Y-234790D02*
G03*
X-145711Y-232653I-5731J-6612D01*
G01*
X-398349Y-209837D02*
G03*
X-389115Y-214670I12339J12339D01*
G01*
Y-214670D02*
G03*
X-390000Y-216806I2137J-2137D01*
G01*
X-389115Y-214670D02*
G03*
X-386009Y-214948I3106J17172D01*
G01*
X-330056Y-215200D02*
G03*
X-330888Y-214948I-831J-1249D01*
G01*
X-476621Y-164279D02*
G03*
X-466839Y-140662I-23617J23617D01*
G01*
X-478341Y-165999D02*
G03*
X-478375Y-166034I1057J-1065D01*
G01*
X-466302Y-212970D02*
G03*
X-466510Y-213063I505J-1413D01*
G01*
X-466285Y-212964D02*
G03*
X-466302Y-212970I4699J-13390D01*
G01*
X-461586Y-212164D02*
G03*
X-466285Y-212964I0J-14190D01*
G01*
X-429468Y-212164D02*
G03*
X-412173Y-205000I0J24458D01*
G01*
X-398349Y-209837D02*
G03*
X-412173Y-205000I-13824J-17336D01*
G01*
X-466576Y-213097D02*
G03*
X-466523Y-213070I-651J1352D01*
G01*
X-42449Y-235153D02*
G03*
X-42450Y-235153I31J-1500D01*
G01*
X-42418Y-235152D02*
G03*
X-42449Y-235153I0J-1500D01*
G01*
X-727400Y-230400D02*
G03*
X-750000Y-253000I0J-22600D01*
G01*
X-352338Y-261000D02*
G03*
X-342682Y-265000I9657J9657D01*
G01*
X-360000Y-253000D02*
G03*
X-359762Y-253577I817J0D01*
G01*
X-240000Y-253000D02*
G03*
X-241300Y-256138I3138J-3138D01*
G01*
X-359762Y-253577D02*
G03*
X-359761Y-253577I578J577D01*
G01*
X-191030Y-265424D02*
G03*
X-191910Y-265139I-879J-1215D01*
G01*
X-191030Y-265424D02*
G03*
X-180000Y-269000I11030J15223D01*
G01*
X-139700D02*
G03*
X-138645Y-268859I0J4000D01*
G01*
X-138255Y-268807D02*
G03*
X-138645Y-268859I0J-1500D01*
G01*
X-116328Y-268807D02*
G03*
X-98367Y-261367I0J25400D01*
G01*
X-445803Y-230368D02*
G03*
X-444813Y-230750I1000J1118D01*
G01*
X-416852D02*
G03*
X-405000Y-225841I0J16762D01*
G01*
X-378750Y-244840D02*
G03*
X-375027Y-250557I6250J0D01*
G01*
X-372886Y-236313D02*
G03*
X-378750Y-244840I3268J-8528D01*
G01*
X60000Y-252900D02*
G03*
X34600Y-227500I-25400J0D01*
G01*
X-472257Y-171842D02*
G03*
X-462839Y-147026I-27981J24816D01*
G01*
X-472269Y-171855D02*
G03*
X-472257Y-171842I-27970J24828D01*
G01*
X-472269Y-171855D02*
G03*
X-472271Y-171857I1128J-989D01*
G01*
X-451473Y-228926D02*
G03*
X-451484Y-228929I1473J-6074D01*
G01*
X-448517Y-228929D02*
G03*
X-448526Y-228926I-1484J-6071D01*
G01*
X-451136Y-228886D02*
G03*
X-451473Y-228926I9J-1500D01*
G01*
X-445803Y-230368D02*
G03*
X-448517Y-228929I-4197J-4631D01*
G01*
X-448526Y-228926D02*
G03*
X-448864Y-228886I-347J-1459D01*
G01*
X-451484Y-228929D02*
G03*
X-453201Y-229632I1484J-6071D01*
G01*
D02*
G03*
X-453476Y-229842I768J-1288D01*
G01*
X-454709Y-230871D02*
G03*
X-454870Y-231004I870J-1222D01*
G01*
X-454709Y-230871D02*
G03*
X-453476Y-229842I-5931J8360D01*
G01*
X-660603Y-251544D02*
G03*
X-660000Y-253000I2060J0D01*
G01*
X-835440Y-257561D02*
G03*
X-817479Y-265000I17960J17960D01*
G01*
X-742521D02*
G03*
X-724560Y-257561I0J25400D01*
G01*
X-806728Y-264993D02*
G03*
X-806579Y-265000I149J1493D01*
G01*
X-352500Y-250000D02*
G03*
X-349500Y-253000I3000J0D01*
G01*
X-352754Y-244840D02*
G03*
X-356000Y-241750I-3246J-160D01*
G01*
X-163653Y-236653D02*
G03*
X-180000Y-253000I0J-16347D01*
G01*
X-328000D02*
G03*
X-320000Y-245000I0J8000D01*
G01*
X-49999Y-265424D02*
G03*
X-49992Y-265424I-57J1499D01*
G01*
X-35776Y-264817D02*
G03*
X-36147Y-264831I728J-25135D01*
G01*
X-31444Y-264654D02*
G03*
X-30000Y-263155I-56J1499D01*
G01*
X-365620Y-242024D02*
G03*
X-364675Y-241750I-1261J6121D01*
G01*
X-311196Y-223921D02*
G03*
X-320000Y-232725I0J-8804D01*
G01*
X-140961Y-241402D02*
G03*
X-145711Y-236653I-4750J0D01*
G01*
X-494727Y-158344D02*
G03*
X-492603Y-157464I0J3005D01*
G01*
X-466839Y274970D02*
G03*
X-454839Y270000I11999J11999D01*
G01*
X-798000Y-253000D02*
G03*
X-790000Y-245000I0J8000D01*
G01*
X-773686Y-216681D02*
G03*
X-790000Y-240400I9086J-23719D01*
G01*
X-771991Y-216924D02*
G03*
X-748265Y-215186I9991J26424D01*
G01*
X-772630Y-216683D02*
G03*
X-773680Y-216679I-531J-1403D01*
G01*
X-747541Y-215000D02*
G03*
X-748265Y-215186I0J-1500D01*
G01*
X-326954Y-228445D02*
G03*
X-333828Y-221571I-6874J0D01*
G01*
X-201942Y-228018D02*
G03*
X-210000Y-236076I0J-8059D01*
G01*
X-60000Y-238154D02*
G03*
X-65000Y-226083I-17071J0D01*
G01*
X-145631Y-228018D02*
G03*
X-140961Y-226083I0J6605D01*
G01*
X-470682Y-182382D02*
G03*
X-458839Y-153784I-28605J28598D01*
G01*
X-470686Y-182386D02*
G03*
X-470682Y-182382I-28602J28602D01*
G01*
X-428254Y-220886D02*
G03*
X-410847Y-213676I0J24617D01*
G01*
X-464450Y-220886D02*
G03*
X-478960Y-230843I0J-15550D01*
G01*
D02*
G03*
X-478964Y-230853I14509J-5592D01*
G01*
X-479771Y-236638D02*
G03*
X-479015Y-231748I-5294J3322D01*
G01*
X-478964Y-230853D02*
G03*
X-479015Y-231748I1403J-530D01*
G01*
X-479771Y-236638D02*
G03*
X-480000Y-237435I1271J-796D01*
G01*
X-754600Y-222500D02*
G03*
X-780000Y-247900I0J-25400D01*
G01*
X-570000Y-233089D02*
G03*
X-570183Y-232647I-625J0D01*
G01*
X-418793Y-252500D02*
G03*
X-420000Y-253000I0J-1707D01*
G01*
X-407122Y-252500D02*
G03*
X-398349Y-243727I0J8773D01*
G01*
X-331693Y-235501D02*
G03*
X-339775Y-227419I-8083J0D01*
G01*
X-149615Y-265000D02*
G03*
X-141941Y-261821I0J10853D01*
G01*
X-35048Y-268807D02*
G03*
X-50000Y-275000I0J-21145D01*
G01*
X-5000Y-268807D02*
G03*
X0Y-263807I0J5000D01*
G01*
X-190464Y-260665D02*
G03*
X-180000Y-265000I10465J10465D01*
G01*
X-149615Y-253929D02*
G03*
X-150000Y-253000I-1313J0D01*
G01*
X-422494Y-226750D02*
G03*
X-411516Y-224255I0J25400D01*
G01*
X-444272Y-226500D02*
G03*
X-443451Y-226750I830J1250D01*
G01*
X-367250Y-227806D02*
G03*
X-366728Y-227820I426J6235D01*
G01*
X-411516Y-224255D02*
G03*
X-410787Y-223480I-657J1348D01*
G01*
X-408812Y-220888D02*
G03*
X-410787Y-223480I3812J-4952D01*
G01*
X-406207Y-218883D02*
G03*
X-406069Y-218762I-915J1189D01*
G01*
X-398349Y-227299D02*
G03*
X-402500Y-217277I-14174J0D01*
G01*
X-475630Y-151267D02*
G03*
X-470839Y-139700I-11567J11567D01*
G01*
X-402500Y-217277D02*
G03*
X-406057Y-218750I0J-5030D01*
G01*
X-484351Y-159989D02*
G03*
X-484385Y-160023I1057J-1065D01*
G01*
X-448211Y-224907D02*
G03*
X-448456Y-224886I-254J-1478D01*
G01*
X-444272Y-226500D02*
G03*
X-448201Y-224909I-5728J-8500D01*
G01*
X-454789Y-224886D02*
G03*
X-454856Y-224892I2072J-24270D01*
G01*
X-448201Y-224909D02*
G03*
X-448211Y-224907I-1799J-10091D01*
G01*
X-454856Y-224892D02*
G03*
X-469941Y-231932I2139J-24264D01*
G01*
X-485065Y-233316D02*
G03*
X-482793Y-227830I-5486J5486D01*
G01*
X-49354Y251255D02*
G03*
X-49007Y252094I-838J838D01*
G01*
X-9694Y121422D02*
G03*
X-9106Y121543I-2J1500D01*
G01*
X-313295Y121755D02*
G03*
X-310782Y121422I2513J9324D01*
G01*
X-283665Y121422D02*
G03*
X-283846Y121409I17J-1500D01*
G01*
X-288010D02*
G03*
X-288191Y121422I-198J-1487D01*
G01*
X-287812Y121383D02*
G03*
X-284042Y121383I1884J14125D01*
G01*
X-328033Y121422D02*
G03*
X-326572Y122626I-9J1500D01*
G01*
X-429869Y121422D02*
G03*
X-444096Y116374I0J-22573D01*
G01*
D02*
G03*
X-444589Y114810I952J-1159D01*
G01*
X-59988Y268255D02*
G03*
X-74163Y262384I0J-20047D01*
G01*
X-74350Y341622D02*
G03*
X-92311Y349061I-17960J-17960D01*
G01*
X26882Y105293D02*
G03*
X26274Y105422I-608J-1371D01*
G01*
X18571Y99171D02*
G03*
X18528Y99172I-44J-1499D01*
G01*
X34326Y109298D02*
G03*
X33729Y109422I-597J-1376D01*
G01*
X-282886Y153327D02*
G03*
X-281557Y153506I-63J5500D01*
G01*
X-280700Y153729D02*
G03*
X-280686Y153733I-1009J3871D01*
G01*
D02*
G03*
X-278631Y154536I-2410J9189D01*
G01*
X-269513Y159289D02*
G03*
X-270516Y158857I1961J-5935D01*
G01*
X-260298Y153864D02*
G03*
X-260294Y153858I1232J855D01*
G01*
X-262403Y156896D02*
G03*
X-269513Y159289I-5150J-3542D01*
G01*
X-260294Y153858D02*
G03*
X-259236Y153422I1058J1064D01*
G01*
X-310362Y131498D02*
G03*
X-305350Y129422I5013J5013D01*
G01*
X-310362Y131498D02*
G03*
X-320477Y135672I-10076J-10076D01*
G01*
X-322753Y135672D02*
G03*
X-334200Y129801I3393J-20711D01*
G01*
X-329124Y153074D02*
G03*
X-330411Y152330I9J-1500D01*
G01*
X-343750Y148185D02*
G03*
X-330411Y152330I4444J9237D01*
G01*
X-343754Y148188D02*
G03*
X-343750Y148185I1729J3607D01*
G01*
X-347740Y150098D02*
G03*
X-348388Y150245I-648J-1353D01*
G01*
X-284657Y182370D02*
G03*
X-291455Y179930I1259J-14194D01*
G01*
X-292287Y179672D02*
G03*
X-291455Y179930I-9J1500D01*
G01*
X-269568Y183604D02*
G03*
X-272201Y183486I0J-29432D01*
G01*
X-266306Y183604D02*
G03*
X-264818Y185191I-9J1500D01*
G01*
X-256595Y191485D02*
G03*
X-264818Y185191I-1983J-5927D01*
G01*
X-256595Y191485D02*
G03*
X-256085Y191411I466J1426D01*
G01*
X-247698Y191662D02*
G03*
X-247762Y191660I720J-25390D01*
G01*
X-228283Y191765D02*
G03*
X-230704Y192169I-2217J-5844D01*
G01*
X-228283Y191765D02*
G03*
X-227770Y191672I522J1406D01*
G01*
X-464290Y150245D02*
G03*
X-482250Y142805I0J-25400D01*
G01*
X-342026Y151795D02*
G03*
X-333221Y155997I2720J5627D01*
G01*
X-329649Y161422D02*
G03*
X-339306Y157422I0J-13657D01*
G01*
X-332159Y157090D02*
G03*
X-333221Y155997I396J-1447D01*
G01*
X-329649Y157422D02*
G03*
X-332159Y157090I0J-9657D01*
G01*
X-292112Y161422D02*
G03*
X-294413Y161213I0J-12801D01*
G01*
X-294761Y157192D02*
G03*
X-294608Y157191I89J5499D01*
G01*
X-295249Y161306D02*
G03*
X-295817Y161422I-577J-1384D01*
G01*
X-295237Y161302D02*
G03*
X-294413Y161213I565J1389D01*
G01*
X-276311Y160770D02*
G03*
X-276262Y160817I-3784J3991D01*
G01*
X-276237Y160842D02*
G03*
X-276228Y160851I-1050J1071D01*
G01*
X-276225Y160853D02*
G03*
X-276228Y160851I6658J-6681D01*
G01*
X-276318Y160764D02*
G03*
X-276311Y160770I-2747J2907D01*
G01*
X-278461Y159193D02*
G03*
X-278431Y159210I-1927J3505D01*
G01*
X-276374Y160711D02*
G03*
X-276361Y160723I-2735J2919D01*
G01*
X-279038Y163698D02*
G03*
X-279039Y163696I9470J-9525D01*
G01*
X-280454Y158098D02*
G03*
X-280446Y158102I-1919J3509D01*
G01*
X-278431Y159210D02*
G03*
X-276374Y160711I-4967J8966D01*
G01*
X-283096Y161422D02*
G03*
X-282373Y161607I-0J1500D01*
G01*
X-276262Y160817D02*
G03*
X-276237Y160842I-2783J2873D01*
G01*
X-279066Y163671D02*
G03*
X-279045Y163690I-1030J1091D01*
G01*
X-269568Y167604D02*
G03*
X-279038Y163698I0J-13432D01*
G01*
X-282932Y157327D02*
G03*
X-282571Y157375I-17J1500D01*
G01*
X-280387Y162699D02*
G03*
X-279109Y163630I-3010J5477D01*
G01*
X-269568Y163604D02*
G03*
X-276225Y160853I0J-9432D01*
G01*
X-279039Y163696D02*
G03*
X-279045Y163690I2811J-2845D01*
G01*
X-281709Y157600D02*
G03*
X-280454Y158098I-1387J5322D01*
G01*
X-288280Y117410D02*
G03*
X-288473Y117422I-193J-1488D01*
G01*
X-30906Y149436D02*
G03*
X-30908Y149435I373J-1453D01*
G01*
X-287639Y125401D02*
G03*
X-284215Y125401I1711J10106D01*
G01*
X-282538Y141027D02*
G03*
X-285828Y141922I-3223J-5355D01*
G01*
X-288544Y113412D02*
G03*
X-288720Y113422I-176J-1490D01*
G01*
X-280609Y133531D02*
G03*
X-280048Y133422I560J1391D01*
G01*
X-285828Y141922D02*
G03*
X-285838Y141922I67J-6250D01*
G01*
X-283136Y113422D02*
G03*
X-283310Y113412I0J-1500D01*
G01*
X-283382Y117422D02*
G03*
X-283573Y117410I0J-1500D01*
G01*
X-282796Y146757D02*
G03*
X-269917Y141422I12880J12880D01*
G01*
X-283967Y125422D02*
G03*
X-284215Y125401I0J-1500D01*
G01*
X-288280Y117410D02*
G03*
X-283573Y117410I2352J18098D01*
G01*
X-285851Y141922D02*
G03*
X-285838Y141922I7J1500D01*
G01*
X-287639Y125401D02*
G03*
X-287888Y125422I-249J-1479D01*
G01*
X-285851Y141922D02*
G03*
X-291596Y138305I-77J-6249D01*
G01*
X-288544Y113412D02*
G03*
X-283310Y113412I2616J22096D01*
G01*
X-269568Y175604D02*
G03*
X-271493Y175518I0J-21432D01*
G01*
X-283943Y174402D02*
G03*
X-287922Y172488I545J-6226D01*
G01*
X-256854Y165260D02*
G03*
X-262512Y167604I-5658J-5656D01*
G01*
X-284312Y178385D02*
G03*
X-290537Y175531I915J-10209D01*
G01*
X-259689Y162438D02*
G03*
X-262512Y163604I-2823J-2833D01*
G01*
X-290951Y175248D02*
G03*
X-290537Y175531I-628J1362D01*
G01*
X-251195Y170915D02*
G03*
X-262512Y175604I-11317J-11310D01*
G01*
X-254015Y168077D02*
G03*
X-262512Y171604I-8497J-8473D01*
G01*
X-269568Y179604D02*
G03*
X-271837Y179503I0J-25432D01*
G01*
X-248473Y173848D02*
G03*
X-262512Y179604I-14039J-14244D01*
G01*
X-269568Y171604D02*
G03*
X-274658Y170844I0J-17432D01*
G01*
X-252861Y161693D02*
G03*
X-252000Y161422I861J1229D01*
G01*
X-255143Y158408D02*
G03*
X-252000Y157422I3143J4514D01*
G01*
X-249707Y179903D02*
G03*
X-248908Y179672I799J1269D01*
G01*
X-254612Y163018D02*
G03*
X-253894Y162418I3874J3904D01*
G01*
X-250136Y169855D02*
G03*
X-249081Y169422I1055J1067D01*
G01*
X-257426Y160175D02*
G03*
X-257420Y160169I2814J2842D01*
G01*
X-248473Y173848D02*
G03*
X-247425Y173422I1048J1073D01*
G01*
X-255156Y158418D02*
G03*
X-255143Y158408I2295J3276D01*
G01*
X-257420Y160169D02*
G03*
X-256212Y159157I6682J6753D01*
G01*
X-251806Y165868D02*
G03*
X-250738Y165422I1068J1054D01*
G01*
X-256211Y159157D02*
G03*
X-256190Y159142I2317J3261D01*
G01*
X-311377Y126212D02*
G03*
X-329499Y126215I-9062J-4790D01*
G01*
X-320439Y121422D02*
G03*
X-310782Y117422I9657J9657D01*
G01*
X-314354Y122848D02*
G03*
X-326572Y122626I-6085J-1426D01*
G01*
X-263208Y145564D02*
G03*
X-262152Y145422I1057J3858D01*
G01*
X-264684Y150443D02*
G03*
X-264100Y150077I1068J1053D01*
G01*
X-282161Y140698D02*
G03*
X-281972Y140511I1147J967D01*
G01*
X-282167Y140706D02*
G03*
X-282526Y141019I-1153J-959D01*
G01*
X-280084Y138285D02*
G03*
X-278734Y137422I1358J637D01*
G01*
X-291484Y95552D02*
G03*
X-285495Y98032I0J8469D01*
G01*
X-289012Y74983D02*
G03*
X-272869Y74985I8070J6319D01*
G01*
X-286618Y78685D02*
G03*
X-287968Y79552I-1359J-634D01*
G01*
X-286618Y78685D02*
G03*
X-274722Y81916I5676J2616D01*
G01*
X-292558Y67174D02*
G03*
X-293497Y67512I-948J-1163D01*
G01*
X-271704Y75552D02*
G03*
X-272869Y74985I9J-1500D01*
G01*
X-292558Y67174D02*
G03*
X-279107Y63104I11616J14127D01*
G01*
X-273237Y83552D02*
G03*
X-274722Y81916I9J-1500D01*
G01*
X-280941Y81301D02*
G03*
X-286373Y83552I-5432J-5432D01*
G01*
X-279206Y106126D02*
G03*
X-292638Y105384I-6289J-8094D01*
G01*
X-279297Y97230D02*
G03*
X-289853Y102512I-6198J802D01*
G01*
X-289012Y74983D02*
G03*
X-290179Y75552I-1176J-931D01*
G01*
X-279107Y63104D02*
G03*
X-278103Y63233I-1835J18198D01*
G01*
X-280084Y138285D02*
G03*
X-280377Y138845I-5678J-2613D01*
G01*
X-280379Y138849D02*
G03*
X-280745Y139263I-1288J-768D01*
G01*
X-280377Y138845D02*
G03*
X-280379Y138849I-5385J-3173D01*
G01*
X-280996Y139512D02*
G03*
X-280752Y139269I1173J935D01*
G01*
X-485596Y129914D02*
G03*
X-485323Y129801I273J273D01*
G01*
X-456541D02*
G03*
X-455576Y130160I-9J1500D01*
G01*
X-447422Y130158D02*
G03*
X-455576Y130160I-4078J-4736D01*
G01*
X-447422Y130158D02*
G03*
X-446459Y129801I971J1143D01*
G01*
X-316283Y139953D02*
G03*
X-316162Y139948I121J1495D01*
G01*
X-330813Y125422D02*
G03*
X-329499Y126215I-9J1500D01*
G01*
X-308909Y137690D02*
G03*
X-316082Y139948I-7173J-10265D01*
G01*
X-308909Y137690D02*
G03*
X-308053Y137422I856J1232D01*
G01*
X-343341Y108366D02*
G03*
X-342427Y108702I-32J1500D01*
G01*
D02*
G03*
X-340845Y110134I-13661J16675D01*
G01*
X-292963Y137422D02*
G03*
X-291596Y138305I-0J1500D01*
G01*
X-280996Y139512D02*
G03*
X-281972Y140511I-4931J-3840D01*
G01*
X-314354Y122848D02*
G03*
X-313295Y121755I1458J352D01*
G01*
X-311377Y126212D02*
G03*
X-310064Y125422I1321J710D01*
G01*
X-295243Y173422D02*
G03*
X-294615Y173560I-0J1500D01*
G01*
X-368754Y107821D02*
G03*
X-368751Y107821I-29J1500D01*
G01*
X-356779Y108078D02*
G03*
X-356887Y108076I1179J-57278D01*
G01*
X-467827Y108076D02*
G03*
X-467000Y107821I836J1245D01*
G01*
X-471320Y110967D02*
G03*
X-467827Y108076I17097J17097D01*
G01*
X-471324Y110973D02*
G03*
X-471320Y110967I1261J812D01*
G01*
X-476457Y118949D02*
G03*
X-483178Y123492I-8632J-5527D01*
G01*
D02*
G03*
X-492883Y120078I-1910J-10070D01*
G01*
X-493188Y119810D02*
G03*
X-492883Y120078I-831J1249D01*
G01*
X-493559Y119563D02*
G03*
X-511520Y112123I0J-25400D01*
G01*
X-272869Y102512D02*
G03*
X-275379Y103552I-2510J-2510D01*
G01*
X-276299Y103867D02*
G03*
X-275379Y103552I920J1185D01*
G01*
X-292638Y105384D02*
G03*
X-292638Y105383I2785J-2872D01*
G01*
X-295134Y103552D02*
G03*
X-294090Y103975I0J1500D01*
G01*
X-354835Y104085D02*
G03*
X-360886Y103827I-765J-53285D01*
G01*
X-361017Y103821D02*
G03*
X-360886Y103827I-9J1500D01*
G01*
X-478839Y113437D02*
G03*
X-478408Y112398I1500J13D01*
G01*
X-478839Y113437D02*
G03*
X-490909Y115700I-6250J-15D01*
G01*
X-493422Y111896D02*
G03*
X-492025Y112849I0J1500D01*
G01*
X-235540Y95552D02*
G03*
X-234820Y95740I-9J1500D01*
G01*
D02*
G03*
X-232100Y97802I-6119J10900D01*
G01*
X-279297Y97230D02*
G03*
X-277816Y95552I1489J-179D01*
G01*
X-293497Y99551D02*
G03*
X-292460Y99976I-9J1500D01*
G01*
X-348432Y99566D02*
G03*
X-348224Y99551I209J1485D01*
G01*
X-348432Y99566D02*
G03*
X-362760Y99567I-7168J-48766D01*
G01*
X-362977Y99551D02*
G03*
X-362760Y99567I0J1500D01*
G01*
X-471933Y100266D02*
G03*
X-470899Y99834I1053J1068D01*
G01*
X-156653Y145422D02*
G03*
X-155739Y145732I0J1500D01*
G01*
X-351834Y67634D02*
G03*
X-350673Y67512I1161J5437D01*
G01*
X-351857Y67639D02*
G03*
X-351834Y67634I854J3928D01*
G01*
X-351857Y67639D02*
G03*
X-351870Y67642I-3743J-16839D01*
G01*
X-351878Y67644D02*
G03*
X-351870Y67642I1205J5428D01*
G01*
X-351878Y67644D02*
G03*
X-355600Y68050I-3722J-16844D01*
G01*
D02*
G03*
X-359876Y67512I0J-17250D01*
G01*
X-368756Y67047D02*
G03*
X-367312Y67088I0J25400D01*
G01*
X-434253Y67047D02*
G03*
X-435073Y66797I9J-1500D01*
G01*
X-460291Y67047D02*
G03*
X-435073Y66797I12791J18255D01*
G01*
X-465664Y67047D02*
G03*
X-478714Y62601I0J-21380D01*
G01*
D02*
G03*
X-479289Y61488I924J-1182D01*
G01*
X-482504Y56251D02*
G03*
X-479289Y61488I-3031J5466D01*
G01*
X-349067Y91570D02*
G03*
X-348833Y91552I234J1482D01*
G01*
X-349406Y87572D02*
G03*
X-361792Y87572I-6194J-36772D01*
G01*
X-349076Y95618D02*
G03*
X-362130Y95617I-6524J-44818D01*
G01*
X-348729Y95567D02*
G03*
X-348522Y95552I216J1484D01*
G01*
X-349406Y87572D02*
G03*
X-349159Y87551I247J1480D01*
G01*
X-349067Y91570D02*
G03*
X-362130Y91570I-6533J-40770D01*
G01*
X-349757Y83573D02*
G03*
X-361435Y83575I-5843J-32773D01*
G01*
X-349757Y83573D02*
G03*
X-349515Y83552I255J1478D01*
G01*
X-350552Y75581D02*
G03*
X-360646Y75581I-5048J-24781D01*
G01*
X-350145Y79578D02*
G03*
X-349867Y79552I279J1474D01*
G01*
X-350145Y79578D02*
G03*
X-361055Y79578I-5454J-28778D01*
G01*
X-350552Y75581D02*
G03*
X-350256Y75552I296J1471D01*
G01*
X-362367Y91552D02*
G03*
X-362130Y91570I0J1500D01*
G01*
X-362678Y95551D02*
G03*
X-362479Y95566I-9J1500D01*
G01*
X-361697Y83552D02*
G03*
X-361435Y83575I0J1500D01*
G01*
X-362041Y87551D02*
G03*
X-361792Y87572I0J1500D01*
G01*
X-361333Y79552D02*
G03*
X-361055Y79578I0J1500D01*
G01*
X-360944Y75552D02*
G03*
X-360646Y75581I0J1500D01*
G01*
X-259716Y75458D02*
G03*
X-253592Y76424I2216J5844D01*
G01*
X-259716Y75458D02*
G03*
X-260238Y75552I-523J-1406D01*
G01*
X-436478Y75552D02*
G03*
X-437523Y75127I1J-1500D01*
G01*
X-439745Y73347D02*
G03*
X-437523Y75127I-7755J11955D01*
G01*
X-459051Y76957D02*
G03*
X-439745Y73347I11551J8345D01*
G01*
X-459561Y77712D02*
G03*
X-459051Y76957I12061J7590D01*
G01*
X-460217Y78756D02*
G03*
X-461487Y79458I-1270J-798D01*
G01*
X-471220D02*
G03*
X-471519Y79426I9J-1500D01*
G01*
Y79426D02*
G03*
X-484109Y72561I5371J-24826D01*
G01*
X-257500Y81301D02*
G03*
X-262932Y83552I-5432J-5432D01*
G01*
X-438262Y79552D02*
G03*
X-439428Y78985I9J-1500D01*
G01*
X-446012Y75160D02*
G03*
X-439428Y78985I-1488J10141D01*
G01*
X-456179Y79848D02*
G03*
X-446012Y75160I8679J5453D01*
G01*
X-458006Y82756D02*
G03*
X-459276Y83458I-1270J-798D01*
G01*
X-477393D02*
G03*
X-477840Y83390I0J-1500D01*
G01*
X-484171Y81420D02*
G03*
X-483924Y81491I-1614J6038D01*
G01*
X-487976Y80402D02*
G03*
X-488645Y80018I388J-1449D01*
G01*
X-137600Y105422D02*
G03*
X-137609Y105422I-18J-1500D01*
G01*
X-145507D02*
G03*
X-145678Y105412I0J-1500D01*
G01*
X-162383Y103471D02*
G03*
X-163383Y102922I168J-1491D01*
G01*
X-172546Y102252D02*
G03*
X-163383Y102922I4273J4561D01*
G01*
X-124688Y164164D02*
G03*
X-160615Y157806I-12913J-31723D01*
G01*
X-165863Y169422D02*
G03*
X-164989Y169709I-9J1500D01*
G01*
X-149173Y173075D02*
G03*
X-163612Y165735I11573J-40634D01*
G01*
X-159080Y177869D02*
G03*
X-166303Y173687I21479J-45428D01*
G01*
X-163243Y170932D02*
G03*
X-164989Y169709I25642J-38491D01*
G01*
X-125526Y160177D02*
G03*
X-159392Y153422I-12074J-27736D01*
G01*
X-154716Y175408D02*
G03*
X-163243Y170932I17116J-42966D01*
G01*
X-142440Y170384D02*
G03*
X-162158Y161767I4839J-37943D01*
G01*
X-164520Y165422D02*
G03*
X-163612Y165734I-9J1500D01*
G01*
X-126138Y156057D02*
G03*
X-156541Y150616I-11462J-23615D01*
G01*
X-154529Y141668D02*
G03*
X-152269Y143359I-14060J21154D01*
G01*
X-155344Y141422D02*
G03*
X-154529Y141668I-9J1500D01*
G01*
X-161609Y157422D02*
G03*
X-160615Y157806I-9J1500D01*
G01*
X-167146Y173422D02*
G03*
X-166303Y173687I-9J1500D01*
G01*
X-163612Y165734D02*
X-163612Y165735D01*
X-163106Y161422D02*
G03*
X-162158Y161767I-9J1500D01*
G01*
X-127406Y152219D02*
G03*
X-154231Y147222I-10194J-19777D01*
G01*
X-145191Y129422D02*
G03*
X-143728Y131210I-9J1500D01*
G01*
X-132900Y136560D02*
G03*
X-143728Y131210I-4701J-4119D01*
G01*
X-151365Y180769D02*
G03*
X-159080Y177869I13765J-48328D01*
G01*
X-129703Y144303D02*
G03*
X-150951Y137422I-7897J-11861D01*
G01*
X-131124Y140386D02*
G03*
X-147803Y133422I-6476J-7945D01*
G01*
X-147364Y186214D02*
G03*
X-145413Y186126I1220J5363D01*
G01*
X-147403Y190763D02*
G03*
X-158929Y187605I-5279J-3346D01*
G01*
X-147403Y190763D02*
G03*
X-145937Y190091I1260J814D01*
G01*
X-145929Y190093D02*
G03*
X-145937Y190091I8329J-57651D01*
G01*
X-145000Y190219D02*
G03*
X-145929Y190093I7400J-57778D01*
G01*
X-22258Y104098D02*
G03*
X-22081Y103947I1060J1062D01*
G01*
X-3451Y99172D02*
G03*
X-6908Y97740I0J-4889D01*
G01*
X-14067Y98118D02*
G03*
X-8423Y97240I3676J5054D01*
G01*
X-149542Y98082D02*
G03*
X-149286Y98223I-597J1376D01*
G01*
X-136558Y96783D02*
G03*
X-136564Y96781I387J-1449D01*
G01*
X-120797Y168086D02*
G03*
X-120503Y168057I295J1471D01*
G01*
X-101223D02*
G03*
X-95792Y170307I0J7682D01*
G01*
X-840000Y-287000D02*
G03*
X-840500Y-286500I-500J0D01*
G01*
X-91494Y164057D02*
G03*
X-86061Y166307I0J7682D01*
G01*
X-124688Y164164D02*
G03*
X-124139Y164057I557J1393D01*
G01*
X-64412Y152925D02*
G03*
X-63541Y153350I-187J1488D01*
G01*
X-71447Y152057D02*
G03*
X-71261Y152068I0J1500D01*
G01*
X-127406Y152219D02*
G03*
X-126737Y152057I678J1338D01*
G01*
X-79756Y160194D02*
G03*
X-79007Y160598I-308J1468D01*
G01*
X-125526Y160177D02*
G03*
X-124946Y160057I589J1379D01*
G01*
X-80567D02*
G03*
X-80261Y160088I0J1500D01*
G01*
X-129290Y173866D02*
G03*
X-149173Y173075I-8310J-41425D01*
G01*
X-120397Y172085D02*
G03*
X-120106Y172057I291J1471D01*
G01*
X-106594D02*
G03*
X-105535Y172494I0J1500D01*
G01*
X-30533Y149483D02*
G03*
X-30906Y149436I0J-1500D01*
G01*
X-43870Y146089D02*
G03*
X-57383Y149774I-11190J-14417D01*
G01*
X-71198Y148057D02*
G03*
X-71012Y148068I0J1500D01*
G01*
X-128485Y148252D02*
G03*
X-127754Y148057I741J1304D01*
G01*
X-69576Y158480D02*
G03*
X-69572Y158485I-1051J1070D01*
G01*
X-70330Y158073D02*
G03*
X-69576Y158480I-306J1468D01*
G01*
X-440473Y83552D02*
G03*
X-441823Y82688I9J-1500D01*
G01*
X-453727Y85838D02*
G03*
X-441823Y82688I6227J-537D01*
G01*
X-453727Y85838D02*
G03*
X-455214Y87458I-1495J119D01*
G01*
X-477992Y96116D02*
G03*
X-474521Y95551I3471J10381D01*
G01*
X-478973Y97216D02*
G03*
X-477992Y96116I1466J320D01*
G01*
X-478973Y97216D02*
G03*
X-481710Y101187I-6116J-1287D01*
G01*
X-442068Y87551D02*
G03*
X-447500Y85302I0J-7682D01*
G01*
X-176751Y87305D02*
G03*
X-177566Y87551I-824J-1253D01*
G01*
X-172850Y84112D02*
G03*
X-176751Y87305I-17960J-17960D01*
G01*
X-485089Y95929D02*
G03*
X-474521Y91552I10568J10568D01*
G01*
X-128566Y289508D02*
G03*
X-121126Y307468I-17960J17960D01*
G01*
X-159847Y186276D02*
G03*
X-158929Y187605I-582J1383D01*
G01*
X-163411Y189088D02*
G03*
X-170282Y185422I25811J-56647D01*
G01*
X-163403Y189092D02*
G03*
X-162586Y190058I-631J1361D01*
G01*
X-159855Y186272D02*
G03*
X-168769Y181651I22255J-53831D01*
G01*
X-146883Y195869D02*
G03*
X-162586Y190058I-5799J-8452D01*
G01*
X-145413Y186126D02*
G03*
X-145387Y186129I-524J3965D01*
G01*
X-140540Y186611D02*
G03*
X-145387Y186129I2939J-54170D01*
G01*
X-140540Y186611D02*
G03*
X-140520Y186613I-204J3995D01*
G01*
X-140520Y186612D02*
G03*
X-140461Y186616I-224J3994D01*
G01*
D02*
G03*
X-139771Y186708I-375J5487D01*
G01*
X-146883Y195869D02*
G03*
X-145484Y195716I843J1240D01*
G01*
X-128491Y177785D02*
G03*
X-150260Y176925I-9109J-45344D01*
G01*
X-151352Y180773D02*
G03*
X-151361Y180770I2179J-7697D01*
G01*
X-151351Y180773D02*
G03*
X-151352Y180773I1091J-3848D01*
G01*
X-151361Y180770D02*
G03*
X-151365Y180769I1101J-3846D01*
G01*
X-150260Y176925D02*
G03*
X-154716Y175408I12660J-44483D01*
G01*
X-142703Y101422D02*
G03*
X-146252Y100316I0J-6250D01*
G01*
X-151345Y180775D02*
G03*
X-151351Y180773I13745J-48334D01*
G01*
X-137081Y182688D02*
G03*
X-151345Y180775I-519J-50247D01*
G01*
X-130090Y169947D02*
G03*
X-142440Y170384I-7510J-37505D01*
G01*
X-148173Y147317D02*
G03*
X-152058Y143578I10572J-14876D01*
G01*
X-128485Y148252D02*
G03*
X-148173Y147317I-9115J-15811D01*
G01*
X-132900Y136560D02*
G03*
X-131787Y136057I1121J996D01*
G01*
X-144474Y196119D02*
G03*
X-143968Y196451I-556J1393D01*
G01*
X-140744Y190606D02*
G03*
X-144972Y190223I3144J-58165D01*
G01*
X-131124Y140386D02*
G03*
X-130195Y140057I939J1170D01*
G01*
X-140508Y190640D02*
G03*
X-132749Y194950I-3662J15731D01*
G01*
X-140744Y190606D02*
G03*
X-140508Y190640I-93J1497D01*
G01*
X-169557Y181422D02*
G03*
X-168769Y181651I-9J1500D01*
G01*
X-119865Y182530D02*
G03*
X-119863Y182530I14J1500D01*
G01*
X-152269Y143359D02*
G03*
X-152058Y143578I-972J1143D01*
G01*
X-129703Y144303D02*
G03*
X-128888Y144057I823J1254D01*
G01*
X-45736Y142448D02*
G03*
X-56864Y145807I-9324J-10776D01*
G01*
X-45736Y142448D02*
G03*
X-44771Y142089I974J1141D01*
G01*
X-45998Y136462D02*
G03*
X-60956Y140057I-9062J-4790D01*
G01*
X-45998Y136462D02*
G03*
X-44686Y135672I1321J710D01*
G01*
X-41238D02*
G03*
X-41224Y135678I-624J1364D01*
G01*
X-29374Y134419D02*
G03*
X-37627Y137338I-5614J-2747D01*
G01*
X-29374Y134419D02*
G03*
X-28041Y133590I1342J671D01*
G01*
X-48926Y132872D02*
G03*
X-59132Y136414I-6134J-1200D01*
G01*
X-48926Y132872D02*
G03*
X-47465Y131672I1470J300D01*
G01*
X-6200Y127842D02*
G03*
X-5723Y132741I-24923J4899D01*
G01*
X-60094Y136057D02*
G03*
X-59132Y136414I-9J1500D01*
G01*
X-13754Y93490D02*
G03*
X-10168Y92924I3364J9682D01*
G01*
X-16420Y94883D02*
G03*
X-16409Y94875I2353J3235D01*
G01*
X15905Y93490D02*
G03*
X15872Y93489I0J-1500D01*
G01*
X17275Y92922D02*
G03*
X15905Y93490I-1371J-1371D01*
G01*
X-24174Y100460D02*
G03*
X-29420Y101422I-5246J-13820D01*
G01*
X-10516Y125422D02*
G03*
X-9926Y125543I0J1500D01*
G01*
X-7070Y126765D02*
G03*
X-6200Y127842I-601J1374D01*
G01*
X-4504Y123512D02*
G03*
X-4203Y123687I-599J1375D01*
G01*
X-4203Y123687D02*
G03*
X-1800Y125790I-14576J19082D01*
G01*
X-8876Y117422D02*
G03*
X-8286Y117543I0J1500D01*
G01*
X-23824Y100269D02*
G03*
X-24174Y100460I-887J-1209D01*
G01*
X-25762Y96712D02*
G03*
X-26185Y96925I-879J-1215D01*
G01*
X-16409Y94875D02*
G03*
X-13754Y93490I6018J8297D01*
G01*
X-4958Y105422D02*
G03*
X-10390Y103172I0J-7682D01*
G01*
X-20007Y92546D02*
G03*
X-6203Y86828I13804J13804D01*
G01*
X-26185Y96925D02*
G03*
X-29420Y97422I-3235J-10285D01*
G01*
X9362Y116872D02*
G03*
X728Y121400I-6134J-1200D01*
G01*
X9362Y116873D02*
G03*
X10823Y115672I1470J300D01*
G01*
X-2204Y113422D02*
G03*
X3228Y115672I0J7682D01*
G01*
X-14218Y50800D02*
G03*
X3742Y58239I0J25400D01*
G01*
X-65725Y292073D02*
G03*
X-69033Y300058I-11294J0D01*
G01*
X-1448Y228094D02*
G03*
X-1788Y228636I-1411J-509D01*
G01*
X-43190Y249180D02*
G03*
X-26474Y259200I3190J13632D01*
G01*
X-1448Y228094D02*
G03*
X728Y225158I5890J2090D01*
G01*
X-52361Y317922D02*
G03*
X-52362Y317924I-2595J-2595D01*
G01*
X-65725Y292073D02*
G03*
X-64436Y288960I4402J0D01*
G01*
X-49007Y273530D02*
G03*
X-53506Y266500I9007J-10718D01*
G01*
X-11772Y292173D02*
G03*
X-11771Y292174I-364J366D01*
G01*
X-62637Y217427D02*
G03*
X-56449Y202488I21127J0D01*
G01*
X3742Y236341D02*
G03*
X3754Y236353I-1049J1073D01*
G01*
X-5705Y232552D02*
G03*
X3742Y236341I0J13669D01*
G01*
X25582Y229651D02*
G03*
X28728Y228348I3146J3146D01*
G01*
X27659Y295935D02*
G03*
X24819Y294759I0J-4016D01*
G01*
X-681250Y-222799D02*
G03*
X-681251Y-222639I-6250J50D01*
G01*
X-688904Y-285904D02*
G03*
X-681465Y-267943I-17960J17960D01*
G01*
X-818000Y-310000D02*
G03*
X-810000Y-302000I0J8000D01*
G01*
X-26000Y262812D02*
G03*
X-33819Y275374I-14000J0D01*
G01*
X-26474Y259200D02*
G03*
X-23582Y258002I2892J2892D01*
G01*
X-26474Y259200D02*
G03*
X-26000Y262812I-13526J3612D01*
G01*
X-53506Y266500D02*
G03*
X-57745Y268255I-4239J-4239D01*
G01*
X-7114Y263975D02*
G03*
X-5153Y264787I0J2773D01*
G01*
X-20281Y258002D02*
G03*
X-7998Y263090I0J17371D01*
G01*
X-53506Y266500D02*
G03*
X-43190Y249180I13506J-3688D01*
G01*
D02*
G03*
X-44988Y244840I4340J-4340D01*
G01*
X-39269Y230381D02*
G03*
X-43267Y240034I-13652J0D01*
G01*
X-39269Y230381D02*
G03*
X-37127Y225211I7311J0D01*
G01*
X-28042Y216125D02*
G03*
X-15568Y210959I12473J12473D01*
G01*
X-92285Y238835D02*
G03*
X-89615Y245281I-6445J6445D01*
G01*
X-89044Y247503D02*
G03*
X-89615Y246125I1377J-1377D01*
G01*
X-99827Y284504D02*
G03*
X-107209Y281446I0J-10439D01*
G01*
X-77171Y206322D02*
G03*
X-75528Y210289I-3966J3966D01*
G01*
X-52362Y317924D02*
G03*
X-54956Y318997I-2594J-2597D01*
G01*
X-34988Y297255D02*
G03*
X-37318Y302880I-7955J-0D01*
G01*
X-54956Y318997D02*
G03*
X-57240Y324512I-7798J0D01*
G01*
X-92072Y287716D02*
G03*
X-99827Y284504I0J-10967D01*
G01*
X-33819Y275374D02*
G03*
X-31591Y280753I-5379J5379D01*
G01*
Y289053D02*
G03*
X-34988Y297255I-11599J0D01*
G01*
X-33819Y275374D02*
G03*
X-49007Y273530I-6181J-12562D01*
G01*
X-31591Y282083D02*
G03*
X-15349Y288810I0J22973D01*
G01*
X-12136Y304259D02*
G03*
X-13754Y308167I-5526J0D01*
G01*
X-24314Y308759D02*
G03*
X-22751Y312531I-3772J3772D01*
G01*
X4484Y222364D02*
G03*
X7348Y221178I2865J2865D01*
G01*
X6800Y242670D02*
G03*
X22755Y249279I0J22564D01*
G01*
X23642Y219738D02*
G03*
X20167Y221178I-3475J-3475D01*
G01*
X-72781Y292073D02*
G03*
X-83298Y287716I0J-14873D01*
G01*
X4484Y222364D02*
G03*
X4320Y222504I-1055J-1067D01*
G01*
X-12136Y292023D02*
G03*
X-11772Y292173I0J516D01*
G01*
X-110272Y278384D02*
G03*
X-114616Y267895I10488J-10488D01*
G01*
X-71121Y221088D02*
G03*
X-70607Y220729I1097J1023D01*
G01*
X-73274Y226605D02*
G03*
X-71121Y221088I8146J0D01*
G01*
X22755Y249279D02*
G03*
X30303Y252405I-0J10674D01*
G01*
X42644Y274681D02*
G03*
X35641Y287953I-24964J-4689D01*
G01*
X43080Y269993D02*
G03*
X43062Y270952I-25400J0D01*
G01*
X43000Y272592D02*
G03*
X42947Y273069I-3248J-123D01*
G01*
X17477Y261248D02*
G03*
X22422Y259200I4945J4945D01*
G01*
X37348Y259451D02*
G03*
X42998Y261791I0J7990D01*
G01*
X-690000Y-253000D02*
Y-228784D01*
X-539753Y-252404D02*
Y-225841D01*
X-270000Y-253000D02*
Y-241413D01*
X-184424Y-235152D02*
X-184424D01*
X-139003D02*
X-124864D01*
X-120000Y-253000D02*
Y-240016D01*
X-175576Y-235152D02*
X-175576D01*
X-139003D02*
X-139003D01*
X-175576D02*
X-173801D01*
X-390000Y-253000D02*
Y-216806D01*
X-202500Y-235152D02*
X-184424D01*
X30000Y-253000D02*
Y-250153D01*
X-163653Y-232653D02*
X-145711D01*
X-330056Y-215200D02*
X-326167Y-217789D01*
X-386009Y-214948D02*
X-330888D01*
X-466839Y-140662D02*
Y-123234D01*
X-478341Y-165999D02*
X-476621Y-164279D01*
X-482467Y-170365D02*
X-478375Y-166034D01*
X-461586Y-212164D02*
X-429468D01*
X-412173Y-205000D02*
Y-205000D01*
X-471868Y-215645D02*
X-466576Y-213097D01*
X-466523Y-213070D02*
X-466510Y-213063D01*
X-48418Y-235283D02*
X-42450Y-235153D01*
X-42418Y-235152D02*
X-30000D01*
X-42450Y-235153D02*
X-42449Y-235153D01*
X-510000Y-253000D02*
Y-237841D01*
X-727400Y-230400D02*
X-711200D01*
X-342682Y-265000D02*
X-320000D01*
X-359761Y-253577D02*
X-352338Y-261000D01*
X-241300Y-265000D02*
Y-256138D01*
X-375027Y-250557D02*
X-369500Y-253000D01*
X-360000D01*
X-359762Y-253577D02*
X-359761Y-253577D01*
X-202378Y-265139D02*
X-191910D01*
X-191910D01*
X-180000Y-269000D02*
X-139700D01*
X-138255Y-268807D02*
X-116328D01*
X-98367Y-261367D02*
X-90000Y-253000D01*
Y-233766D01*
X60000Y-253000D02*
Y-252900D01*
X-444813Y-230750D02*
X-416852D01*
X-372886Y-236313D02*
X-372886D01*
X-366881Y-235903D01*
X-458339Y-123573D02*
Y-123234D01*
X-462839Y-128073D02*
X-458339Y-123573D01*
X-462839Y-147026D02*
Y-128073D01*
X-476217Y-176375D02*
X-472271Y-171857D01*
X-451136Y-228886D02*
X-448864D01*
X-459091Y-235000D02*
X-454870Y-231004D01*
X-660603Y-251544D02*
Y-234748D01*
X-45000Y-227500D02*
X34600D01*
X-840000Y-253000D02*
X-835440Y-257561D01*
X-806832Y-264982D02*
X-806728Y-264993D01*
X-806579Y-265000D02*
X-742521D01*
X-600000Y-253000D02*
X-599835D01*
X-724560Y-257561D02*
X-720000Y-253000D01*
X-599835D02*
Y-238748D01*
X-349500Y-253000D02*
X-330000D01*
X-328000D01*
X-352754Y-244840D02*
X-352500Y-250000D01*
X-180000Y-253000D02*
Y-240016D01*
X-320000Y-245000D02*
Y-232725D01*
X-50000Y-265424D02*
X-49999D01*
X-49992Y-265424D02*
X-36147Y-264831D01*
X-35776Y-264817D02*
X-31444Y-264654D01*
X-30000Y-263155D02*
Y-253000D01*
X-372500Y-244840D02*
X-365620Y-242024D01*
X-365620Y-242024D01*
X-364675Y-241750D02*
X-356000D01*
X-163653Y-236653D02*
X-145711D01*
X-205000Y-221768D02*
X-180000D01*
X-474839Y-139700D02*
Y-132234D01*
X-477927Y-129484D02*
X-477589D01*
X-474839Y-132234D01*
X-483839Y-123573D02*
Y-123234D01*
Y-123573D02*
X-477927Y-129484D01*
X-492603Y-157464D02*
X-474839Y-139700D01*
X-491500Y-244091D02*
Y-216448D01*
X-817479Y-265000D02*
X-806579D01*
X-435000Y270000D02*
X-425000D01*
X-454839D02*
X-435000D01*
X-810000Y-253000D02*
X-798000D01*
X-790000Y-245000D02*
Y-240400D01*
X-630000Y-253000D02*
Y-226748D01*
X-630000Y-226748D02*
X-630000Y-226748D01*
X-772630Y-216683D02*
X-771991Y-216924D01*
X-773686Y-216681D02*
X-773680Y-216679D01*
X-747541Y-215000D02*
X-695000D01*
X-366824Y-221571D02*
X-333828D01*
X-60000Y-253000D02*
Y-238154D01*
X-210000Y-241402D02*
Y-236076D01*
Y-253000D02*
Y-241402D01*
X-201942Y-228018D02*
X-145631D01*
X-456089Y-129484D02*
X-455750D01*
X-458839Y-132234D02*
X-456089Y-129484D01*
X-449839Y-123573D02*
Y-123234D01*
X-455750Y-129484D02*
X-449839Y-123573D01*
X-458839Y-153784D02*
Y-132234D01*
X-475105Y-186805D02*
X-470686Y-182386D01*
X-464450Y-220886D02*
X-428254D01*
X-480000Y-253000D02*
Y-237435D01*
X-780000Y-253000D02*
Y-247900D01*
X-570000Y-253000D02*
Y-233089D01*
X-754600Y-222500D02*
X-705000D01*
X-418793Y-252500D02*
X-407122D01*
X-310000Y-253000D02*
X-300000D01*
X-398349Y-243727D02*
Y-227299D01*
X-180000Y-265000D02*
X-149615D01*
X-35048Y-268807D02*
X-5000D01*
X-198630Y-252500D02*
X-190464Y-260665D01*
X-149615Y-265000D02*
Y-253929D01*
X0Y-263807D02*
Y-253000D01*
X-443451Y-226750D02*
X-422494D01*
X-366728Y-227820D02*
X-339775Y-227419D01*
X-373011D02*
X-367250Y-227807D01*
X-408812Y-220888D02*
X-406207Y-218883D01*
X-406069Y-218762D02*
X-406057Y-218750D01*
X-470839Y-139700D02*
Y-128073D01*
X-475339Y-123573D02*
Y-123234D01*
Y-123573D02*
X-470839Y-128073D01*
X-484351Y-159989D02*
X-475630Y-151267D01*
X-488477Y-164354D02*
X-484385Y-160023D01*
X-454789Y-224886D02*
X-448456D01*
X-402500Y-217277D02*
X-402500Y-217277D01*
X-482793Y-227830D02*
Y-213233D01*
X-65506Y235104D02*
X-49354Y251255D01*
X-12136Y292023D02*
Y304259D01*
X-9106Y121543D02*
X-4504Y123512D01*
X-310782Y121422D02*
X-288199D01*
X-283665Y121422D02*
X-283656Y121422D01*
X-284042Y121383D02*
X-283846Y121409D01*
X-288199Y121422D02*
X-288191Y121422D01*
X-288010Y121409D02*
X-287812Y121383D01*
X-328033Y121422D02*
X-328033D01*
X-429869D02*
X-328033D01*
X-444589Y114810D02*
X-444589Y114810D01*
X-83984Y252563D02*
X-74163Y262384D01*
X-74350Y341622D02*
X-66623Y333895D01*
X-111574Y349061D02*
X-92311D01*
X34326Y109298D02*
X39504Y107038D01*
X18527Y99172D02*
X18528Y99172D01*
X-145825Y109422D02*
X33729D01*
X-3451Y99172D02*
X18527D01*
X26882Y105293D02*
X32028Y102991D01*
X-4958Y105422D02*
X26274D01*
X18571Y99171D02*
X24527Y98994D01*
X-298335Y153074D02*
X-282886Y153327D01*
X-281557Y153506D02*
X-280700Y153729D01*
X-278631Y154536D02*
X-270516Y158857D01*
X-262403Y156896D02*
X-260298Y153864D01*
X-259236Y153422D02*
X-159392D01*
X-305350Y129422D02*
X-145191D01*
X-321871Y135672D02*
X-320477Y135672D01*
X-322753Y135672D02*
X-321871D01*
X-347740Y150098D02*
X-343754Y148188D01*
X-464290Y150245D02*
X-348388D01*
X-329124Y153074D02*
X-298335D01*
X-284657Y182370D02*
X-278429Y182928D01*
X-333056Y179672D02*
X-292287D01*
X-278429Y182928D02*
X-272201Y183486D01*
X-269568Y183604D02*
X-266306D01*
X-256085Y191411D02*
X-247762Y191660D01*
X-247698Y191662D02*
X-230704Y192169D01*
X-227770Y191672D02*
X-180903D01*
X-485535Y139521D02*
X-482250Y142805D01*
X-480486Y154245D02*
X-347100D01*
X-346791Y154096D01*
X-342026Y151795D01*
X-310055Y157422D02*
X-294761Y157192D01*
X-295249Y161306D02*
X-295237Y161302D01*
X-329649Y161422D02*
X-295817D01*
X-294608Y157191D02*
X-282932Y157327D01*
X-280446Y158102D02*
X-278461Y159193D01*
X-279109Y163630D02*
X-279066Y163671D01*
X-282373Y161607D02*
X-280387Y162699D01*
X-282571Y157375D02*
X-281709Y157600D01*
X-292112Y161422D02*
X-283096D01*
X-276361Y160723D02*
X-276318Y160764D01*
X-314354Y146757D02*
X-282796D01*
X-283656Y121422D02*
X-121637D01*
X-274936Y148776D02*
X-263208Y145564D01*
X-295826Y125422D02*
X-287888Y125422D01*
X-310782Y117422D02*
X-288473D01*
X-283382D02*
X-20281D01*
X-323950Y113422D02*
X-288720D01*
X-280048Y133422D02*
X-147803D01*
X-285928Y135672D02*
X-280609Y133531D01*
X-283967Y125422D02*
X-85872D01*
X-283136Y113422D02*
X-2204D01*
X-284312Y178385D02*
X-271837Y179503D01*
X-269568Y171604D02*
X-262512D01*
X-283398Y168176D02*
X-274658Y170844D01*
X-269568Y179604D02*
X-262512D01*
X-283943Y174402D02*
X-271493Y175518D01*
X-269568Y167604D02*
X-262512D01*
X-269568Y163604D02*
X-262512D01*
X-267552Y153354D02*
X-264684Y150443D01*
X-269568Y175604D02*
X-262512D01*
X-294615Y173560D02*
X-290951Y175248D01*
X-292516Y167668D02*
X-287922Y172488D01*
X-254015Y168077D02*
X-251806Y165868D01*
X-250738Y165422D02*
X-164520D01*
X-252000Y161422D02*
X-163106D01*
X-256190Y159142D02*
X-255156Y158418D01*
X-251195Y170915D02*
X-250136Y169855D01*
X-259689Y162438D02*
X-257426Y160175D01*
X-247425Y173422D02*
X-167146D01*
X-248908Y179672D02*
X-171306D01*
X-249081Y169422D02*
X-165863D01*
X-258578Y185558D02*
X-249707Y179903D01*
X-252000Y157422D02*
X-161609D01*
X-256854Y165260D02*
X-254612Y163018D01*
X-253894Y162418D02*
X-252861Y161693D01*
X-269917Y141422D02*
X-155344D01*
X-327738Y140878D02*
X-316283Y139953D01*
X-264100Y150077D02*
X-264093Y150074D01*
X-262152Y149422D01*
X-282167Y140706D02*
X-282161Y140698D01*
X-282538Y141027D02*
X-282526Y141019D01*
X-279206Y106126D02*
X-276299Y103867D01*
X-348833Y91552D02*
X-162586D01*
X-289996Y83552D02*
X-286373D01*
X-273237Y83552D02*
X-262932D01*
X-349503Y83552D02*
X-289996Y83552D01*
X-278734Y137422D02*
X-150951D01*
X-278103Y63233D02*
X-265176Y65262D01*
X-350256Y75552D02*
X-290179D01*
X-349159Y87551D02*
X-177566D01*
X-350673Y67512D02*
X-293497D01*
X-292500Y95552D02*
X-291484D01*
X-271704Y75552D02*
X-260238D01*
X-262152Y145422D02*
X-156653D01*
X-280752Y139269D02*
X-280745Y139263D01*
X-485323Y129801D02*
X-456541D01*
X-446459D02*
X-334200D01*
X-451500Y125422D02*
X-330813D01*
X-316162Y139948D02*
X-316082D01*
X-308053Y137422D02*
X-292963D01*
X-356779Y108078D02*
X-343341Y108366D01*
X-354835Y104085D02*
X-317700Y103552D01*
X-291596Y138305D02*
X-291596Y138305D01*
X-310064Y125422D02*
X-295826D01*
X-481089Y154847D02*
X-480486Y154245D01*
X-329649Y157422D02*
X-310055D01*
X-451000Y173422D02*
X-295243D01*
X-467000Y107821D02*
X-368754D01*
X-368751Y107821D02*
X-356887Y108076D01*
X-471320Y110967D02*
X-471320Y110967D01*
X-476457Y118949D02*
X-471324Y110973D01*
X-493559Y119563D02*
X-493188Y119810D01*
X-511747Y111896D02*
X-511520Y112123D01*
X-294090Y103975D02*
X-292638Y105383D01*
X-317700Y103552D02*
X-295134D01*
X-469831Y103821D02*
X-361017D01*
X-478408Y112398D02*
X-469831Y103821D01*
X-492025Y112849D02*
X-490909Y115700D01*
X-498686Y111896D02*
X-493422D01*
X-277816Y95552D02*
X-235540D01*
X-292460Y99976D02*
X-289853Y102512D01*
X-293506Y99551D02*
X-293497Y99551D01*
X-348224Y99551D02*
X-293506Y99551D01*
X-449339Y99551D02*
X-362977D01*
X-470899Y99834D02*
X-449339Y99551D01*
X-471936Y100270D02*
X-471933Y100266D01*
X-485089Y113422D02*
X-471936Y100270D01*
X-155739Y145732D02*
X-155592Y145861D01*
X-154231Y147222D01*
X-157695Y149433D02*
X-157246Y149883D01*
X-156541Y150616D01*
X-262152Y149422D02*
X-157735D01*
X-157695Y149433D01*
X-359876Y67512D02*
X-359876Y67512D01*
X-367312Y67088D02*
X-359876Y67512D01*
X-434253Y67047D02*
X-368756D01*
X-465664D02*
X-460291D01*
X-488477Y52930D02*
X-482504Y56251D01*
X-348522Y95552D02*
X-292500Y95552D01*
X-349076Y95618D02*
X-348729Y95567D01*
X-349867Y79552D02*
X-287968D01*
X-349515Y83552D02*
X-349503D01*
X-462839Y95551D02*
X-362678Y95551D01*
X-362479Y95566D02*
X-362130Y95617D01*
X-442068Y87551D02*
X-362041D01*
X-387050Y75552D02*
X-360944Y75552D01*
X-474521Y91552D02*
X-362367D01*
X-438262Y79552D02*
X-361333Y79552D01*
X-428678Y83552D02*
X-361697Y83552D01*
X-171306Y179672D02*
X-169557Y181422D01*
X-253592Y76424D02*
X-247500Y81301D01*
X-436478Y75552D02*
X-387050D01*
X-460217Y78756D02*
X-459561Y77712D01*
X-471220Y79458D02*
X-461487D01*
X-485089Y71581D02*
X-484109Y72561D01*
X-458006Y82756D02*
X-456179Y79848D01*
X-477393Y83458D02*
X-459276D01*
X-483924Y81491D02*
X-477840Y83390D01*
X-487976Y80402D02*
X-484171Y81420D01*
X-490683Y77980D02*
X-488645Y80018D01*
X-145507Y105422D02*
X-137609D01*
X-162383Y103471D02*
X-145678Y105412D01*
X-176751Y106190D02*
X-172546Y102252D01*
X-137600Y105422D02*
X-23582D01*
X-168274Y106814D02*
X-145825Y109422D01*
X-161609Y157422D02*
X-161609D01*
X-155344Y141422D02*
X-155344D01*
X-163106Y161422D02*
X-163106D01*
X-164520Y165422D02*
X-164520D01*
X-159392Y153422D02*
X-159392D01*
X-20281Y117422D02*
X-11526Y117422D01*
X-85872Y125422D02*
X-14521Y125422D01*
X-121637Y121422D02*
X-18779Y121422D01*
X-23582Y105422D02*
X-22258Y104098D01*
X-152682Y187417D02*
X-147364Y186214D01*
X-8423Y97240D02*
X-6908Y97740D01*
X-22081Y103947D02*
X-14067Y98118D01*
X-136558Y96783D02*
X-136552Y96784D01*
X-149286Y98223D02*
X-146252Y100316D01*
X-142532Y95164D02*
X-136564Y96781D01*
X-155019Y95738D02*
X-149542Y98082D01*
X-17661Y95786D02*
X-16420Y94883D01*
X-136552Y96784D02*
X-134118Y97422D01*
X-120503Y168057D02*
X-101223D01*
X-130090Y169947D02*
X-120797Y168086D01*
X-852500Y-286500D02*
X-840500D01*
X-124139Y164057D02*
X-91494D01*
X-63541Y153350D02*
X-61310Y155581D01*
X-63541Y153350D02*
X-63541Y153350D01*
X-71261Y152068D02*
X-64412Y152925D01*
X-126737Y152057D02*
X-71447D01*
X-79007Y160598D02*
X-76416Y163188D01*
X-79007Y160598D02*
X-79007Y160598D01*
X-80261Y160088D02*
X-79756Y160194D01*
X-124946Y160057D02*
X-80567D01*
X-105535Y172494D02*
X-102491Y175538D01*
X-122997Y172606D02*
X-120397Y172085D01*
X-149173Y173075D02*
X-149173Y173075D01*
X-120106Y172057D02*
X-106594D01*
X-30533Y149483D02*
X-19753D01*
X-71012Y148068D02*
X-57383Y149774D01*
X-30908Y149435D02*
X-30906Y149436D01*
X-43870Y146089D02*
X-30908Y149435D01*
X-127754Y148057D02*
X-71198D01*
X-69572Y158485D02*
X-69249Y158619D01*
X-69572Y158485D02*
X-69572Y158485D01*
X-80000Y156057D02*
X-70330Y158073D01*
X-126138Y156057D02*
X-80000D01*
X-440473Y83552D02*
X-428678D01*
X-485785Y87458D02*
X-455214D01*
X-474521Y95551D02*
X-462839D01*
X-487226Y104759D02*
X-481710Y101187D01*
X-172850Y84112D02*
X-168738Y80000D01*
X-129898Y288175D02*
X-128566Y289508D01*
X-121126Y307468D02*
Y315292D01*
X-85245Y329505D02*
X-85167Y329583D01*
X-76054D02*
X-75774Y329863D01*
X-85167Y329583D02*
X-76054D01*
X-159855Y186272D02*
X-159847Y186276D01*
X-163411Y189088D02*
X-163403Y189092D01*
X-143968Y196451D02*
X-135129Y205290D01*
X-145387Y186129D02*
Y186129D01*
X-140540Y186611D02*
Y186611D01*
X-139771Y186708D02*
X-126356Y189348D01*
X-145484Y195716D02*
X-144474Y196119D01*
X-137600Y132441D02*
X-137215Y132057D01*
X-151345Y180775D02*
X-151345Y180775D01*
X-150260Y176925D02*
X-150260Y176925D01*
X-137215Y132057D02*
X-55445D01*
X-134118Y97422D02*
X-29420D01*
X-142703Y101422D02*
X-29420D01*
X-145000Y190219D02*
X-144972Y190223D01*
X-230500Y185422D02*
X-170282D01*
X-137081Y182688D02*
X-119865Y182530D01*
X-119863D02*
X-119858D01*
X-128491Y177785D02*
X-119858Y176056D01*
X-110527Y178307D01*
X-129290Y173866D02*
X-122997Y172606D01*
X-128888Y144057D02*
X-70855D01*
X-56864Y145807D01*
X-44771Y142089D02*
X-23945D01*
X-130195Y140057D02*
X-60956D01*
X-44686Y135672D02*
X-41238D01*
X-41224Y135678D02*
X-37627Y137338D01*
X-28041Y133590D02*
X-23816D01*
X-55445Y132057D02*
X-55060Y131672D01*
X-47465D02*
X-34988D01*
X-18779Y121422D02*
X-9694Y121422D01*
X-5723Y132741D02*
Y138362D01*
X-131787Y136057D02*
X-60094D01*
X-10168Y92924D02*
X15872Y93489D01*
X-14521Y125422D02*
X-10516D01*
X-9926Y125543D02*
X-7070Y126765D01*
X-1800Y125790D02*
X3792Y131382D01*
X-11526Y117422D02*
X-8876D01*
X-23824Y100269D02*
X-17661Y95786D01*
X-8286Y117543D02*
X728Y121400D01*
X-25762Y96712D02*
X-20007Y92546D01*
X-6203Y86828D02*
X-3030D01*
X10823Y115672D02*
X19757D01*
X3742Y58239D02*
X18003Y72500D01*
X-165100Y50800D02*
X-14218D01*
X-112630Y257741D02*
X-108212Y257844D01*
X-114384Y257898D02*
X-112630Y257741D01*
X-88375Y305260D02*
X-85540Y305564D01*
X-80711Y300927D01*
X-71203Y311757D02*
X-70342Y312618D01*
X-68882D01*
X-65922Y315577D01*
X-64353D01*
X-81181Y312206D02*
X-69033Y300059D01*
X-5705Y232552D02*
X-1788Y228636D01*
X-64436Y288960D02*
X-49007Y273530D01*
X-59349Y228141D02*
X-57590Y228994D01*
X-62453Y224120D02*
X-59349Y228141D01*
X-80876Y240658D02*
X-80564Y243166D01*
X-80876Y240658D02*
X-78946Y235356D01*
X-70598Y220725D02*
X-62637Y217427D01*
X-101315Y272219D02*
X-96788Y269213D01*
X-85400Y279415D02*
X-81378Y277454D01*
X-102421Y274846D02*
X-101315Y272219D01*
X-87681Y278729D02*
X-85400Y279415D01*
X-71978Y284414D02*
X-69099D01*
X-72059Y284334D02*
X-71978Y284414D01*
X-69099D02*
X-65478Y280793D01*
X-65108D01*
X-60402Y256005D02*
X-59988Y258255D01*
X-60402Y251223D02*
Y256005D01*
X245Y317420D02*
Y318293D01*
X-3762Y313413D02*
X245Y317420D01*
X-3762Y313413D02*
Y313413D01*
X-44907Y201873D02*
X-44438Y206709D01*
X-45107Y200134D02*
X-44907Y201873D01*
X-29420Y232117D02*
X-29210Y231907D01*
Y226133D02*
Y231907D01*
X-28642Y245803D02*
X-27781Y246664D01*
X-34988Y241755D02*
X-34488D01*
X-30440Y245803D01*
X-28642D01*
X-2719Y239947D02*
X-2367Y239595D01*
X-6133Y246840D02*
X-2719Y243426D01*
X-6133Y246840D02*
Y246840D01*
X-2719Y239947D02*
Y243426D01*
X-11653Y238501D02*
X-10390Y237238D01*
X3754Y236353D02*
X3965Y236564D01*
X-10390Y237238D02*
X-9286Y236134D01*
X-5705Y232552D01*
X3965Y236564D02*
X5630Y240586D01*
X6494Y242670D01*
X13382Y229153D02*
Y231149D01*
X15415Y233182D02*
Y237738D01*
X13382Y231149D02*
X15415Y233182D01*
X-6371Y210583D02*
X-5313Y209524D01*
X-6908Y215959D02*
X-6371Y215421D01*
X-5313Y208307D02*
Y209524D01*
X-6371Y210583D02*
Y215421D01*
X20876Y303087D02*
X21126D01*
X22359Y301854D02*
X22792Y304671D01*
X21126Y303087D02*
X22359Y301854D01*
X18003Y300214D02*
X20876Y303087D01*
X17477Y300214D02*
X18003D01*
X22561Y232672D02*
X25582Y229651D01*
X4008Y273948D02*
X24819Y294759D01*
X-681405Y-215023D02*
X-681358Y-215069D01*
X-681358Y-215022D02*
X-681251Y-222639D01*
X-681465Y-267943D02*
X-681250Y-222799D01*
X-690000Y-287000D02*
X-688904Y-285904D01*
X-854424Y-310000D02*
X-818000D01*
X8672Y253119D02*
X9624Y252168D01*
X3324Y253980D02*
X4185Y253119D01*
X8672D01*
X6494Y242670D02*
X6800D01*
X-59988Y268255D02*
X-57745D01*
X-44988Y241755D02*
Y244840D01*
X-5153Y264787D02*
X4008Y273948D01*
X-7998Y263090D02*
X-7114Y263975D01*
X-23582Y258002D02*
X-20281D01*
X-37127Y225211D02*
X-28042Y216125D01*
X-89615Y245281D02*
Y246125D01*
X-89044Y247503D02*
X-83984Y252563D01*
X-79277Y204216D02*
X-77171Y206322D01*
X-92072Y287716D02*
X-83298D01*
X-52362Y317924D02*
X-52361Y317922D01*
X-53148Y297255D02*
X-44988D01*
X-44988Y297255D01*
X-42878Y308440D02*
X-37318Y302880D01*
X-60476Y306282D02*
X-53148D01*
X-52361Y317922D02*
X-42878Y308440D01*
X-53148Y306282D02*
X-52726Y306703D01*
X-60811Y305948D02*
X-60476Y306282D01*
X-11771Y292174D02*
X7812Y311757D01*
X-66623Y333895D02*
X-57240Y324512D01*
X-41510Y283748D02*
X-41439Y283820D01*
X-49748Y283748D02*
X-41510D01*
X-49906Y283591D02*
X-49748Y283748D01*
X-31591Y280753D02*
Y282083D01*
Y289053D01*
X-25968Y307104D02*
X-24314Y308759D01*
X-72781Y292073D02*
X-65725D01*
X-73274Y226605D02*
X-66022Y233857D01*
X-73274Y226605D02*
X-73274Y226605D01*
X7348Y221178D02*
X20167D01*
X728Y225158D02*
X4320Y222504D01*
X27659Y295935D02*
X35641Y287953D01*
X42644Y274681D02*
X42947Y273069D01*
X30875Y269425D02*
X35524Y269459D01*
X37275Y269451D01*
X-11772Y292173D02*
X-11771Y292174D01*
X-15349Y288810D02*
X-12136Y292023D01*
X-110272Y278384D02*
X-107209Y281446D01*
X-56449Y202488D02*
X-55060Y201099D01*
X-70607Y220728D02*
X-70598Y220725D01*
X-83308Y216571D02*
X-73274Y226605D01*
X-88863Y223222D02*
Y224440D01*
X-87639Y225663D01*
Y229821D01*
X-87284Y230175D01*
X43080Y261873D02*
Y269993D01*
X42998Y261791D02*
X43080Y261873D01*
X22422Y259200D02*
X24008D01*
X43000Y272592D02*
X43062Y270952D01*
X30303Y252405D02*
X37348Y259451D01*
D88*
X-152682Y187417D02*
D03*
X-150260Y176925D02*
D03*
D90*
X-581525Y257387D02*
G03*
X-577740Y266526I-9139J9139D01*
G01*
X-569335Y263891D02*
G03*
X-564632Y275245I-11354J11354D01*
G01*
X-581525Y257387D02*
G03*
X-571819Y261408I0J13727D01*
G01*
X-1159886Y62415D02*
G03*
X-1155812Y64594I-7214J18385D01*
G01*
X-1165923Y56377D02*
G03*
X-1167779Y51323I4626J-4567D01*
G01*
X-1166268Y29040D02*
G03*
X-1166324Y31968I-26232J960D01*
G01*
X-1192500Y3750D02*
G03*
X-1166268Y29040I0J26250D01*
G01*
X-1251939Y3750D02*
G03*
X-1269899Y-3690I0J-25400D01*
G01*
X-1270001Y-3801D02*
G03*
X-1271710Y-8176I4791J-4393D01*
G01*
X-1271708Y-13747D02*
G03*
X-1271709Y-13815I6500J-85D01*
G01*
X-1271730Y-25341D02*
G03*
X-1271709Y-24600I-13229J741D01*
G01*
X-1272176Y-30535D02*
G03*
X-1271894Y-28303I-15445J3085D01*
G01*
X-1274033Y-38301D02*
G03*
X-1273127Y-35318I-14544J6044D01*
G01*
X-1277351Y-45527D02*
G03*
X-1275897Y-42803I-13101J8742D01*
G01*
X-1277356Y-45535D02*
G03*
X-1277351Y-45527I-6860J4583D01*
G01*
X-1282060Y-52019D02*
G03*
X-1280073Y-49601I-11115J11159D01*
G01*
X-1287882Y-57415D02*
G03*
X-1285481Y-55440I-8759J13090D01*
G01*
X-1287890Y-57421D02*
G03*
X-1287882Y-57415I-4584J6860D01*
G01*
X-1291980Y-60154D02*
G03*
X-1291965Y-60144I-4568J6870D01*
G01*
X-1293503Y-61050D02*
G03*
X-1291980Y-60154I-7212J14002D01*
G01*
X-1132730Y79250D02*
G03*
X-1136445Y78084I0J-6500D01*
G01*
X-762103Y79250D02*
G03*
X-762004Y79251I0J5000D01*
G01*
X-647099Y100766D02*
G03*
X-646466Y102781I-4346J2473D01*
G01*
X-647544Y100110D02*
G03*
X-647117Y100735I-3900J3129D01*
G01*
D02*
G03*
X-647099Y100766I-8610J4961D01*
G01*
X-662771Y93884D02*
G03*
X-662609Y93936I-1450J4785D01*
G01*
X-649756Y98532D02*
G03*
X-649415Y98670I-1688J4706D01*
G01*
X-661883Y94183D02*
G03*
X-661821Y94205I-1625J4729D01*
G01*
X-724224Y80003D02*
G03*
X-723702Y80023I-299J14997D01*
G01*
D02*
G03*
X-723695Y80023I-406J7489D01*
G01*
X-718797Y80294D02*
G03*
X-718771Y80295I-414J7489D01*
G01*
X-686684Y86642D02*
G03*
X-686495Y86698I-4159J14412D01*
G01*
X-686697Y86638D02*
G03*
X-686684Y86642I-2073J7208D01*
G01*
X-706939Y81703D02*
G03*
X-706929Y81705I-1468J7355D01*
G01*
X-718771Y80295D02*
G03*
X-717904Y80370I-854J14976D01*
G01*
X-708119Y81515D02*
G03*
X-706939Y81703I-1765J14896D01*
G01*
X-717904Y80370D02*
G03*
X-717881Y80373I-849J7452D01*
G01*
X-697322Y83636D02*
G03*
X-696136Y83924I-2947J14708D01*
G01*
D02*
G03*
X-696123Y83927I-2060J7212D01*
G01*
X-708140Y81513D02*
G03*
X-708119Y81515I-872J7449D01*
G01*
X-1418000Y-65000D02*
G03*
X-1418778Y-65061I0J-5000D01*
G01*
X-1426530Y-66749D02*
G03*
X-1427150Y-67239I2778J-4157D01*
G01*
X-1428980Y-69125D02*
G03*
X-1429691Y-70782I4165J-2767D01*
G01*
X-1430879Y-393000D02*
G03*
X-1430296Y-394408I1992J0D01*
G01*
X-651962Y113109D02*
G03*
X-651505Y113457I-4309J6138D01*
G01*
X-651964Y113108D02*
G03*
X-651962Y113109I-4308J6139D01*
G01*
X-657343Y109239D02*
G03*
X-657204Y109335I-2774J4160D01*
G01*
X60611Y111020D02*
G03*
X61164Y111000I553J7480D01*
G01*
X62840Y110988D02*
G03*
X62500Y111000I-340J-4988D01*
G01*
X80440Y107367D02*
G03*
X79340Y107920I-2778J-4157D01*
G01*
X73718Y110542D02*
G03*
X72923Y110635I-975J-4904D01*
G01*
X52679Y111689D02*
G03*
X53773Y111526I1647J7317D01*
G01*
X52679Y111689D02*
G03*
X53313Y111574I1647J7317D01*
G01*
X-1279999Y99911D02*
G03*
X-1280000Y99831I4999J-92D01*
G01*
X-1270283Y115646D02*
G03*
X-1271147Y115184I1913J-4619D01*
G01*
X-1267070Y116873D02*
G03*
X-1268008Y116588I975J-4904D01*
G01*
X-1263683Y117449D02*
G03*
X-1264657Y117353I2J-5000D01*
G01*
X-1113806Y115235D02*
G03*
X-1114671Y115697I-2778J-4157D01*
G01*
X-1116945Y116639D02*
G03*
X-1117884Y116924I-1913J-4619D01*
G01*
X-1279967Y-24876D02*
G03*
X-1279959Y-24600I-4992J276D01*
G01*
X-1280265Y-28914D02*
G03*
X-1280132Y-27865I-7356J1463D01*
G01*
X-1281648Y-35127D02*
G03*
X-1281221Y-33720I-6929J2870D01*
G01*
X-1312500Y-57500D02*
G03*
X-1312132Y-57491I0J7500D01*
G01*
X-1309682Y-57370D02*
G03*
X-1308586Y-57235I-368J7491D01*
G01*
X-1303780Y-56279D02*
G03*
X-1302373Y-55852I-1463J7356D01*
G01*
X-1297845Y-53977D02*
G03*
X-1296548Y-53284I-2870J6929D01*
G01*
X-1292473Y-50561D02*
G03*
X-1291326Y-49617I-4167J6236D01*
G01*
X-1287883Y-46174D02*
G03*
X-1286939Y-45026I-5292J5314D01*
G01*
X-1284216Y-40952D02*
G03*
X-1283523Y-39655I-6236J4167D01*
G01*
X-1279880Y102018D02*
G03*
X-1279973Y101162I4905J-968D01*
G01*
X-1279087Y105508D02*
G03*
X-1279371Y104572I4620J-1913D01*
G01*
X-1275702Y111444D02*
G03*
X-1276311Y110702I3545J-3526D01*
G01*
X-1273194Y113816D02*
G03*
X-1273943Y113203I2778J-4157D01*
G01*
X-1120298Y117404D02*
G03*
X-1121274Y117500I-975J-4904D01*
G01*
X-724522Y87500D02*
G03*
X-724109Y87512I0J7500D01*
G01*
X-670209Y101554D02*
G03*
X-670068Y101628I-2236J4472D01*
G01*
X-670351Y101486D02*
G03*
X-670209Y101554I-2094J4541D01*
G01*
X-679016Y97511D02*
G03*
X-678530Y97714I-2655J7014D01*
G01*
X-709012Y88962D02*
G03*
X-708407Y89058I-872J7449D01*
G01*
X-719211Y87782D02*
G03*
X-718753Y87822I-414J7489D01*
G01*
X-688770Y93846D02*
G03*
X-688189Y94039I-2073J7208D01*
G01*
X-698792Y90990D02*
G03*
X-698196Y91135I-1477J7353D01*
G01*
X-1425500Y-58076D02*
G03*
X-1426438Y-58361I975J-4904D01*
G01*
X-1428713Y-59303D02*
G03*
X-1429577Y-59765I1913J-4619D01*
G01*
X-1436120Y-66311D02*
G03*
X-1436570Y-67153I4164J-2768D01*
G01*
X-1348721Y-491184D02*
G03*
X-1349147Y-489777I-7356J-1463D01*
G01*
X-1354439Y-479878D02*
G03*
X-1355383Y-478730I-6236J-4167D01*
G01*
X-1351023Y-485249D02*
G03*
X-1351716Y-483953I-6929J-2870D01*
G01*
X-1347500Y-499904D02*
G03*
X-1347509Y-499536I-7500J0D01*
G01*
X-1347629Y-497086D02*
G03*
X-1347764Y-495991I-7491J-368D01*
G01*
X-1422110Y-57500D02*
G03*
X-1423079Y-57595I0J-5000D01*
G01*
X-1437518Y-69440D02*
G03*
X-1437802Y-70376I4619J-1913D01*
G01*
X-1434133Y-63505D02*
G03*
X-1434741Y-64247I3545J-3526D01*
G01*
X-1431625Y-61133D02*
G03*
X-1432374Y-61746I2778J-4157D01*
G01*
X-1437801Y-454535D02*
G03*
X-1437521Y-455455I4902J984D01*
G01*
X-1438379Y-451136D02*
G03*
X-1438284Y-452107I5000J0D01*
G01*
X-1437682Y-426712D02*
G03*
X-1438379Y-427000I0J-985D01*
G01*
X-1436569Y-457754D02*
G03*
X-1436129Y-458581I4613J1929D01*
G01*
X-1431008Y-464184D02*
G03*
X-1430067Y-464674I2767J4164D01*
G01*
X-1379632Y-467413D02*
G03*
X-1380000Y-467405I-368J-7491D01*
G01*
X-1432370Y-463162D02*
G03*
X-1431637Y-463763I3522J3549D01*
G01*
X-1434737Y-460663D02*
G03*
X-1434137Y-461395I4149J2791D01*
G01*
X-1376086Y-467669D02*
G03*
X-1377181Y-467534I-1463J-7356D01*
G01*
X-1369873Y-469052D02*
G03*
X-1371280Y-468625I-2870J-6929D01*
G01*
X-1364048Y-471620D02*
G03*
X-1365345Y-470927I-4167J-6236D01*
G01*
X-1358826Y-475287D02*
G03*
X-1359973Y-474343I-5314J-5292D01*
G01*
X-1343859Y-885381D02*
G03*
X-1343255Y-886117I4150J2790D01*
G01*
X50248Y-879301D02*
G03*
X52380Y-884635I19445J4678D01*
G01*
X-1100881Y-884637D02*
G03*
X-1135507Y-884631I-17311J10016D01*
G01*
X79709Y-857311D02*
G03*
X50248Y-879301I-10015J-17312D01*
G01*
X83561Y104246D02*
G03*
X82939Y105004I-4157J-2778D01*
G01*
X85391Y101335D02*
G03*
X84929Y102199I-4619J-1913D01*
G01*
X86617Y98122D02*
G03*
X86333Y99060I-4904J-975D01*
G01*
X-1347500Y-872995D02*
G03*
X-1347500Y-872979I-5000J16D01*
G01*
X-1347500Y-872995D02*
G03*
X-1347331Y-874268I5000J16D01*
G01*
X-1341496Y-887877D02*
G03*
X-1340757Y-888483I3527J3544D01*
G01*
X-1332206Y-892027D02*
G03*
X-1331231Y-892123I975J4904D01*
G01*
X-1335553Y-891265D02*
G03*
X-1334628Y-891545I1907J4622D01*
G01*
X-1338691Y-889863D02*
G03*
X-1337843Y-890317I2770J4163D01*
G01*
X-1139825Y-892123D02*
G03*
X-1135507Y-884631I-16J5000D01*
G01*
X48059Y-892123D02*
G03*
X52380Y-884635I-16J5000D01*
G01*
X-1100881Y-884637D02*
G03*
X-1096559Y-892123I4338J-2487D01*
G01*
X79709Y-857311D02*
G03*
X87194Y-852989I2485J4339D01*
G01*
Y94732D02*
G03*
X87098Y95707I-5000J0D01*
G01*
X-139100Y355773D02*
G03*
X-134188Y350860I4912J0D01*
G01*
X-139100Y355773D02*
G03*
X-140620Y364428I-25400J0D01*
G01*
D02*
G03*
X-144520Y367653I-4698J-1711D01*
G01*
X-139100Y249991D02*
G03*
X-131661Y232031I25400J0D01*
G01*
X-92173Y192544D02*
G03*
X-74213Y185104I17960J17960D01*
G01*
X7291Y168412D02*
G03*
X7231Y167292I7438J-961D01*
G01*
X7514Y170168D02*
G03*
X-7422Y185104I-14936J0D01*
G01*
X7375Y160438D02*
G03*
X7478Y159351I7498J158D01*
G01*
X11029Y144987D02*
G03*
X11449Y143964I7128J2333D01*
G01*
X8631Y152577D02*
G03*
X8896Y151503I7394J1259D01*
G01*
X14517Y137832D02*
G03*
X15083Y136881I6708J3355D01*
G01*
X19017Y131270D02*
G03*
X19720Y130411I6143J4302D01*
G01*
X24439Y125436D02*
G03*
X25257Y124691I5441J5162D01*
G01*
X30656Y120466D02*
G03*
X31575Y119850I4623J5906D01*
G01*
X37536Y116463D02*
G03*
X38536Y115989I3705J6521D01*
G01*
X44932Y113516D02*
G03*
X45990Y113194I2705J6995D01*
G01*
X-651890Y113160D02*
G03*
X-651505Y113457I-4381J6087D01*
G01*
X-643933Y119691D02*
G03*
X-643476Y120099I-4767J5790D01*
G01*
X-636439Y126930D02*
G03*
X-636012Y127381I-5224J5382D01*
G01*
D02*
G03*
X-636010Y127383I-5651J4931D01*
G01*
X-629561Y134758D02*
G03*
X-629177Y135236I-5646J4937D01*
G01*
X-623346Y143121D02*
G03*
X-623002Y143629I-6030J4459D01*
G01*
X-617834Y151964D02*
G03*
X-617532Y152498I-6374J3952D01*
G01*
X-558428Y432500D02*
G03*
X-561731Y431254I0J-5000D01*
G01*
X-541144Y432435D02*
G03*
X-541950Y432500I-806J-4935D01*
G01*
X-561772Y421395D02*
G03*
X-560509Y421014I2063J4555D01*
G01*
X-561764Y431224D02*
G03*
X-562431Y430512I3299J-3757D01*
G01*
X-563141Y429586D02*
G03*
X-563658Y428755I3968J-3042D01*
G01*
X-564172Y427712D02*
G03*
X-564515Y426800I4485J-2210D01*
G01*
X-564964Y425125D02*
G03*
X-562125Y421554I4902J984D01*
G01*
X-536981Y336994D02*
G03*
X-531547Y350114I-13120J13120D01*
G01*
X-545658Y374747D02*
G03*
X-538218Y356786I25400J0D01*
G01*
X-548998Y324977D02*
G03*
X-556438Y307016I17960J-17960D01*
G01*
X-555628Y318347D02*
G03*
X-563068Y300386I17960J-17960D01*
G01*
X-568110Y305865D02*
G03*
X-575549Y287905I17960J-17960D01*
G01*
X-593077Y239729D02*
G03*
X-596260Y235863I1750J-4684D01*
G01*
X-597160Y179864D02*
G03*
X-604458Y178032I-2847J-4110D01*
G01*
X-597160Y179864D02*
G03*
X-592220Y215178I11445J16402D01*
G01*
X-598758Y220742D02*
G03*
X-592220Y215178I4931J-830D01*
G01*
X-544165Y413363D02*
G03*
X-548321Y419084I-4938J782D01*
G01*
X-577740Y266526D02*
Y274012D01*
X-564632Y275245D02*
Y276731D01*
X-571818Y261408D02*
X-569335Y263891D01*
X-1165910Y56390D02*
X-1159886Y62415D01*
X-1165923Y56377D02*
X-1165910Y56390D01*
X-1167779Y51323D02*
X-1166324Y31968D01*
X-1251939Y3750D02*
X-1192500D01*
X-1270001Y-3801D02*
X-1269899Y-3690D01*
X-1271710Y-8176D02*
X-1271708Y-13745D01*
X-1271708Y-13747D02*
X-1271708Y-13745D01*
X-1271709Y-24600D02*
Y-13815D01*
X-1271894Y-28303D02*
X-1271730Y-25341D01*
X-1273127Y-35318D02*
X-1272176Y-30535D01*
X-1275897Y-42803D02*
X-1274033Y-38301D01*
X-1280073Y-49601D02*
X-1277356Y-45535D01*
X-1285481Y-55440D02*
X-1282060Y-52019D01*
X-1291965Y-60144D02*
X-1287890Y-57421D01*
X-1309034Y-65000D02*
X-1305615Y-64870D01*
X-1404720Y-65000D02*
X-1309034Y-65000D01*
X-1305615Y-64870D02*
X-1299693Y-63779D01*
X-1293503Y-61050D01*
X-1155812Y64594D02*
X-1136445Y78084D01*
X-1132730Y79250D02*
X-762103D01*
X-649415Y98670D02*
X-647544Y100110D01*
X-662609Y93936D02*
X-661883Y94183D01*
X-661821Y94205D02*
X-649756Y98532D01*
X-646466Y102781D02*
X-646022Y107608D01*
X-723695Y80023D02*
X-718797Y80294D01*
X-717881Y80373D02*
X-708140Y81513D01*
X-696123Y83927D02*
X-686697Y86638D01*
X-686495Y86698D02*
X-662771Y93884D01*
X-706929Y81705D02*
X-697322Y83636D01*
X-1418000Y-65000D02*
X-1404720D01*
X-1425616Y-66138D02*
X-1418778Y-65061D01*
X-1426530Y-66749D02*
X-1425616Y-66138D01*
X-1428646Y-68625D02*
X-1427150Y-67239D01*
X-1428980Y-69125D02*
X-1428646Y-68625D01*
X-1430879Y-76000D02*
X-1429691Y-70782D01*
X-1430879Y-393000D02*
Y-76000D01*
X-1430296Y-394408D02*
X-1397992Y-426712D01*
X-649415Y98670D02*
X-649340Y98452D01*
X-762004Y79251D02*
X-724224Y80003D01*
X-648195Y116182D02*
X-643933Y119691D01*
X-659717Y107655D02*
X-657343Y109239D01*
X-651964Y113108D02*
X-651962Y113109D01*
X-659717Y107655D02*
X-651964Y113108D01*
X53773Y111526D02*
X60611Y111020D01*
X61164Y111000D02*
X62500D01*
X79340Y107920D02*
X80440Y107367D01*
X74382Y110410D02*
X79340Y107920D01*
X73718Y110542D02*
X74382Y110410D01*
X62840Y111000D02*
X72923Y110635D01*
X45990Y113194D02*
X52679Y111689D01*
X-1279999Y99911D02*
X-1279973Y101162D01*
X-1280000Y99831D02*
X-1279959Y-12151D01*
X-1267070Y116873D02*
X-1264657Y117353D01*
X-1277956Y108238D02*
X-1276311Y110702D01*
X-1273194Y113816D02*
X-1271147Y115184D01*
X-1270283Y115646D02*
X-1268008Y116588D01*
X-1263683Y117449D02*
X-1244987Y117455D01*
X-1116945Y116639D02*
X-1114671Y115697D01*
X-1244987Y117455D02*
X-1122504Y117500D01*
X-1279959Y-24600D02*
Y-12151D01*
X-1280132Y-27865D02*
X-1279967Y-24876D01*
X-1283523Y-39655D02*
X-1281648Y-35127D01*
X-1281221Y-33720D02*
X-1280265Y-28914D01*
X-1308586Y-57235D02*
X-1303780Y-56279D01*
X-1111778Y113880D02*
X-1109966Y112067D01*
X-1113806Y115235D02*
X-1111778Y113880D01*
X-1120298Y117404D02*
X-1117884Y116924D01*
X-1340283Y-57500D02*
X-1312500Y-57500D01*
X-1312132Y-57491D02*
X-1309682Y-57371D01*
X-1302373Y-55852D02*
X-1297845Y-53977D01*
X-1296548Y-53284D02*
X-1292473Y-50561D01*
X-1291326Y-49617D02*
X-1287883Y-46174D01*
X-1287883Y-46174D01*
X-1286939Y-45026D02*
X-1284216Y-40952D01*
X-1279880Y102018D02*
X-1279371Y104572D01*
X-1279087Y105508D02*
X-1277956Y108238D01*
X-1275702Y111444D02*
X-1275702Y111444D01*
X-1273943Y113203D01*
X-1122504Y117500D02*
X-1121274D01*
X-1109966Y112067D02*
X-1105005Y91894D01*
X-1100611Y87500D01*
X-670068Y101628D02*
X-668431Y102512D01*
X-661978Y106152D01*
X-659717Y107655D01*
X-1100611Y87500D02*
X-762592D01*
X-724522Y87500D01*
X-718753Y87822D02*
X-709012Y88962D01*
X-688189Y94039D02*
X-679016Y97511D01*
X-698196Y91135D02*
X-688770Y93846D01*
X-724109Y87512D02*
X-719211Y87782D01*
X-678530Y97714D02*
X-670351Y101486D01*
X-708407Y89058D02*
X-698792Y90990D01*
X-1425500Y-58076D02*
X-1423079Y-57595D01*
X-1431625Y-61133D02*
X-1429577Y-59765D01*
X-1436120Y-66311D02*
X-1434741Y-64247D01*
X-1428713Y-59303D02*
X-1426438Y-58361D01*
X-1438379Y-402000D02*
Y-73277D01*
X-1437521Y-455455D02*
X-1436569Y-457754D01*
X-1348721Y-491184D02*
X-1348644Y-491567D01*
X-1354439Y-479878D02*
X-1351716Y-483953D01*
X-1351023Y-485249D02*
X-1349147Y-489777D01*
X-1347500Y-618000D02*
X-1347500Y-499904D01*
X-1347629Y-497086D02*
X-1347509Y-499536D01*
X-1348644Y-491567D02*
X-1347764Y-495991D01*
X-1422110Y-57500D02*
X-1340283D01*
X-1438379Y-73277D02*
X-1437802Y-70376D01*
X-1437518Y-69440D02*
X-1436570Y-67153D01*
X-1434133Y-63505D02*
X-1434133Y-63505D01*
X-1432374Y-61746D01*
X-1438284Y-452107D02*
X-1437801Y-454535D01*
X-1437682Y-426712D02*
X-1423392D01*
X-1438379Y-402000D02*
X-1438379Y-451136D01*
X-1423625Y-467201D02*
X-1422602Y-467405D01*
X-1376086Y-467669D02*
X-1371280Y-468625D01*
X-1430067Y-464674D02*
X-1423625Y-467201D01*
X-1379632Y-467413D02*
X-1377181Y-467534D01*
X-1436129Y-458581D02*
X-1434737Y-460663D01*
X-1358826Y-475287D02*
X-1355383Y-478730D01*
X-1364048Y-471620D02*
X-1359973Y-474343D01*
X-1434137Y-461395D02*
X-1432370Y-463162D01*
X-1431637Y-463763D02*
X-1431008Y-464184D01*
X-1369873Y-469052D02*
X-1365345Y-470927D01*
X-1397992Y-467405D02*
X-1380000D01*
X-1422602D02*
X-1411000D01*
X-1397992D01*
X-1347500Y-872979D02*
Y-618000D01*
X-1344702Y-884119D02*
X-1343859Y-885381D01*
X83561Y104246D02*
X84929Y102199D01*
X86617Y98122D02*
X87098Y95707D01*
X85391Y101335D02*
X86333Y99060D01*
X80850Y107093D02*
X82939Y105004D01*
X80440Y107367D02*
X80850Y107093D01*
X-1347331Y-874268D02*
X-1344702Y-884119D01*
X-1347500Y-872995D02*
X-1347500D01*
X-1340757Y-888483D02*
X-1338691Y-889863D01*
X-1343255Y-886117D02*
X-1341496Y-887877D01*
X-1334628Y-891545D02*
X-1332206Y-892027D01*
X-1337843Y-890317D02*
X-1335553Y-891265D01*
X-1331231Y-892123D02*
X-1139825D01*
X-1096559D02*
X-1096559D01*
X48059D01*
X87194Y-852989D02*
Y-852989D01*
Y94732D01*
X-139100Y249991D02*
Y355773D01*
X-134188Y350860D02*
X-122932D01*
X-164143Y370858D02*
X-162054Y370517D01*
X-207561Y377949D02*
X-164143Y370858D01*
X-144520Y367653D01*
X-172761Y372265D02*
X-164143Y370858D01*
X-131661Y232031D02*
X-92173Y192544D01*
X-74213Y185104D02*
X-7422D01*
X7291Y168412D02*
X7514Y170168D01*
X7230Y167292D02*
X7375Y160438D01*
X8896Y151503D02*
X11029Y144987D01*
X7478Y159351D02*
X7894Y156902D01*
X8631Y152577D01*
X11449Y143964D02*
X14517Y137832D01*
X15083Y136881D02*
X15998Y135576D01*
X19017Y131270D01*
X19720Y130411D02*
X24439Y125436D01*
X25257Y124691D02*
X30656Y120465D01*
X31575Y119850D02*
X37536Y116463D01*
X38536Y115989D02*
X44932Y113516D01*
X-259477Y386429D02*
X-259065Y386362D01*
X-290537Y391502D02*
X-259477Y386429D01*
X-259065Y386362D02*
X-251886Y385189D01*
X-245035Y384070D02*
X-207561Y377949D01*
X-245035Y384070D02*
X-245035D01*
X-651505Y113457D02*
X-648195Y116182D01*
X-643476Y120099D02*
X-636439Y126930D01*
X-636010Y127383D02*
X-633675Y130053D01*
X-245035Y384070D02*
X-245035Y384070D01*
X-629177Y135236D02*
X-623346Y143121D01*
X-623002Y143629D02*
X-618831Y150355D01*
X-633675Y130053D02*
X-629561Y134758D01*
X-618831Y150355D02*
X-617834Y151964D01*
X-617532Y152498D02*
X-613062Y161227D01*
X-613062Y161228D02*
X-609605Y167979D01*
X-604458Y178032D01*
X-245035Y384070D02*
Y384070D01*
X-290537Y391502D02*
X-290537D01*
X-363663Y403446D02*
X-290537Y391502D01*
X-250912Y385030D02*
X-245035Y384070D01*
X-558428Y432500D02*
X-541950D01*
X-561764Y431224D02*
X-561731Y431254D01*
X-545658Y374747D02*
Y403937D01*
X-564172Y427712D02*
X-563658Y428755D01*
X-562125Y421554D02*
X-561772Y421395D01*
X-564964Y425125D02*
X-564515Y426800D01*
X-564964Y425125D02*
Y425125D01*
X-538218Y356786D02*
X-531547Y350114D01*
X-548998Y324977D02*
X-536981Y336994D01*
X-555628Y318347D02*
X-548998Y324977D01*
X-556438Y253414D02*
Y307016D01*
X-563068Y286608D02*
Y300386D01*
X-568110Y305865D02*
X-555628Y318347D01*
X-575549Y287842D02*
Y287905D01*
X-593077Y239729D02*
X-556438Y253414D01*
X-598758Y220742D02*
X-596260Y235863D01*
X-251886Y385189D02*
X-250912Y385030D01*
X-545658Y403937D02*
X-544165Y413363D01*
X-560509Y421014D02*
X-548321Y419084D01*
X-563141Y429586D02*
X-562431Y430512D01*
X-541144Y432435D02*
X-517804Y428622D01*
X-453223Y418074D01*
X-363663Y403446D01*
D91*
X-180903Y36135D02*
D03*
D92*
X-290915Y71096D02*
G03*
X-291989Y71532I-1073J-1105D01*
G01*
X-290915Y71096D02*
G03*
X-270963Y71101I9974J10205D01*
G01*
X-269903Y71532D02*
G03*
X-270963Y71101I9J-1540D01*
G01*
X-351003Y71567D02*
G03*
X-350673Y71532I330J1504D01*
G01*
X-351003Y71567D02*
G03*
X-360195Y71568I-4597J-20767D01*
G01*
X-360527Y71532D02*
G03*
X-360195Y71568I0J1540D01*
G01*
X-244998Y75553D02*
G03*
X-242430Y77612I-2502J5749D01*
G01*
X-242056Y77972D02*
G03*
X-242430Y77612I864J-1275D01*
G01*
X-231119Y81301D02*
G03*
X-242056Y77972I0J-19628D01*
G01*
X-260463Y71469D02*
G03*
X-253383Y71893I2963J9833D01*
G01*
X-260463Y71469D02*
G03*
X-260891Y71532I-436J-1477D01*
G01*
X-434938Y71532D02*
G03*
X-435898Y71188I9J-1540D01*
G01*
X-446652Y67051D02*
G03*
X-435898Y71188I-848J18250D01*
G01*
X-458557Y70757D02*
G03*
X-446652Y67051I11057J14544D01*
G01*
X-458557Y70757D02*
G03*
X-459474Y71067I-926J-1230D01*
G01*
X-465664D02*
G03*
X-483624Y63627I0J-25400D01*
G01*
X-658940Y-285940D02*
G03*
X-651500Y-267979I-17960J17960D01*
G01*
X-350673Y71532D02*
X-291989D01*
X-269903D02*
X-260891D01*
X-363100Y71532D02*
X-360527Y71532D01*
X-434938Y71532D02*
X-363100D01*
X-231119Y81301D02*
X-179097D01*
X-253383Y71893D02*
X-244998Y75553D01*
X-465664Y71067D02*
X-459474D01*
X-485535Y61717D02*
X-483624Y63627D01*
X-651500Y-267979D02*
Y-213988D01*
X-660000Y-287000D02*
X-658940Y-285940D01*
D94*
X-356986Y376123D02*
D03*
X-382074Y380097D02*
D03*
X-407161Y384070D02*
D03*
X-432248Y388044D02*
D03*
X-457335Y392017D02*
D03*
X-482423Y395990D02*
D03*
X-507510Y399964D02*
D03*
X-532597Y403937D02*
D03*
X-360960Y351036D02*
D03*
X-364933Y325949D02*
D03*
X-368907Y300861D02*
D03*
X-372880Y275774D02*
D03*
X-376853Y250687D02*
D03*
X-380827Y225599D02*
D03*
X-405914Y229573D02*
D03*
X-431001Y233546D02*
D03*
X-456089Y237520D02*
D03*
X-481176Y241493D02*
D03*
X-506263Y245467D02*
D03*
X-531351Y249440D02*
D03*
X-556438Y253414D02*
D03*
X-581525Y257387D02*
D03*
X-1372592Y-426712D02*
D03*
X-1397992D02*
D03*
X-1423392D02*
D03*
D95*
X-557684Y407911D02*
D03*
D96*
X-800100Y-546100D02*
D03*
Y-355600D02*
D03*
Y-165100D02*
D03*
Y25400D02*
D03*
X-728606Y-755662D02*
D03*
X-180916Y-755657D02*
D03*
X-228600Y-546100D02*
D03*
Y-355600D02*
D03*
Y-165100D02*
D03*
Y25400D02*
D03*
X-1014360Y-755657D02*
D03*
Y-546098D02*
D03*
X-1038157Y-165100D02*
D03*
X-990600Y25400D02*
D03*
X-1067393Y-355544D02*
D03*
X-490481Y-755662D02*
D03*
X-419100Y-546100D02*
D03*
Y-355600D02*
D03*
Y-165100D02*
D03*
Y25400D02*
D03*
X-1298225Y-755660D02*
D03*
X-1230600Y55400D02*
D03*
X-1298225Y-546100D02*
D03*
X-609600Y25400D02*
D03*
Y-165100D02*
D03*
Y-355600D02*
D03*
Y-546100D02*
D03*
X-38100D02*
D03*
Y-355600D02*
D03*
Y-165100D02*
D03*
Y25400D02*
D03*
X-1234725Y-520700D02*
D03*
X-665107Y-730262D02*
D03*
X-736600Y50800D02*
D03*
X-1003893Y-330144D02*
D03*
X25400Y50800D02*
D03*
Y-139700D02*
D03*
Y-330200D02*
D03*
Y-520700D02*
D03*
X-165100Y50800D02*
D03*
Y-139700D02*
D03*
Y-330200D02*
D03*
Y-520700D02*
D03*
X-117416Y-730257D02*
D03*
X-355600Y50800D02*
D03*
Y-139700D02*
D03*
X-426982Y-730262D02*
D03*
X-546100Y50800D02*
D03*
Y-139700D02*
D03*
Y-330200D02*
D03*
Y-520700D02*
D03*
X-736600Y-139700D02*
D03*
Y-330200D02*
D03*
Y-520700D02*
D03*
X-927100Y50800D02*
D03*
X-974657Y-139700D02*
D03*
X-950860Y-520698D02*
D03*
Y-730257D02*
D03*
X-1167100Y80800D02*
D03*
X-1234725Y-730260D02*
D03*
X-355600Y-520700D02*
D03*
Y-330200D02*
D03*
D97*
X-1347192Y-426712D02*
D03*
D98*
X-1209325Y-571500D02*
D03*
X-1310925D02*
D03*
X-639706Y-781062D02*
D03*
X-741307D02*
D03*
X-711200Y0D02*
D03*
X-812800D02*
D03*
X-978493Y-380944D02*
D03*
X-1080093D02*
D03*
X-50800Y0D02*
D03*
X50800D02*
D03*
Y-190500D02*
D03*
X-50800D02*
D03*
Y-381000D02*
D03*
X50800D02*
D03*
Y-571500D02*
D03*
X-50800D02*
D03*
X-241300Y0D02*
D03*
X-139700D02*
D03*
Y-190500D02*
D03*
X-241300D02*
D03*
Y-381000D02*
D03*
X-139700D02*
D03*
Y-571500D02*
D03*
X-241300D02*
D03*
X-193615Y-781057D02*
D03*
X-92015D02*
D03*
X-330200Y0D02*
D03*
X-431800D02*
D03*
Y-190500D02*
D03*
X-330200D02*
D03*
X-401581Y-781062D02*
D03*
X-503181D02*
D03*
X-622300Y0D02*
D03*
X-520700D02*
D03*
Y-190500D02*
D03*
X-622300D02*
D03*
Y-381000D02*
D03*
X-520700D02*
D03*
Y-571500D02*
D03*
X-622300D02*
D03*
X-711200Y-190500D02*
D03*
X-812800D02*
D03*
Y-381000D02*
D03*
X-711200D02*
D03*
Y-571500D02*
D03*
X-812800D02*
D03*
X-901700Y0D02*
D03*
X-1003300D02*
D03*
X-1050856Y-190500D02*
D03*
X-949257D02*
D03*
X-1027059Y-571498D02*
D03*
X-925460D02*
D03*
Y-781057D02*
D03*
X-1027059D02*
D03*
X-1243300Y30000D02*
D03*
X-1141700D02*
D03*
X-1209325Y-781060D02*
D03*
X-1310925D02*
D03*
X-431800Y-571500D02*
D03*
X-330200D02*
D03*
Y-381000D02*
D03*
X-431800D02*
D03*
D99*
X-1260125Y-571500D02*
D03*
X-690507Y-781062D02*
D03*
X-762000Y0D02*
D03*
X-1029293Y-380944D02*
D03*
X0Y0D02*
D03*
Y-190500D02*
D03*
Y-381000D02*
D03*
Y-571500D02*
D03*
X-190500Y0D02*
D03*
Y-190500D02*
D03*
Y-381000D02*
D03*
Y-571500D02*
D03*
X-142816Y-781057D02*
D03*
X-381000Y0D02*
D03*
Y-190500D02*
D03*
X-452382Y-781062D02*
D03*
X-571500Y0D02*
D03*
Y-190500D02*
D03*
Y-381000D02*
D03*
Y-571500D02*
D03*
X-762000Y-190500D02*
D03*
Y-381000D02*
D03*
Y-571500D02*
D03*
X-952500Y0D02*
D03*
X-1000057Y-190500D02*
D03*
X-976260Y-571498D02*
D03*
Y-781057D02*
D03*
X-1192500Y30000D02*
D03*
X-1260125Y-781060D02*
D03*
X-381000Y-571500D02*
D03*
Y-381000D02*
D03*
D100*
X-585715Y196265D02*
D03*
X-1250413Y-285944D02*
D03*
X-1118192Y-874620D02*
D03*
X69694Y-874623D02*
D03*
X-857253Y-97500D02*
D03*
X-285753D02*
D03*
Y-478500D02*
D03*
X-857253D02*
D03*
D101*
X-1242500Y-90000D02*
D03*
X-445250Y260000D02*
D03*
X-436589Y34025D02*
D03*
X-466839Y-123234D02*
D03*
X-687500Y-222748D02*
D03*
X-539753Y-225841D02*
D03*
X-272593Y-235152D02*
D03*
X-202500D02*
D03*
X-120000Y-240016D02*
D03*
X15000Y-235152D02*
D03*
X-326167Y-217789D02*
D03*
X-412173Y-205000D02*
D03*
X-482467Y-170365D02*
D03*
X-471868Y-215645D02*
D03*
X-48418Y-235283D02*
D03*
X-30000Y-235152D02*
D03*
X-228283Y248890D02*
D03*
X-1243300Y-75000D02*
D03*
X-481089Y174922D02*
D03*
X-218029Y269213D02*
D03*
X-429899Y203396D02*
D03*
X-458339Y-123234D02*
D03*
X-510000Y-237841D02*
D03*
X-711200Y-230400D02*
D03*
X-320000Y-265000D02*
D03*
X-241300D02*
D03*
X-202378Y-265139D02*
D03*
X-405000Y-225841D02*
D03*
X-366881Y-235903D02*
D03*
X-90000Y-233766D02*
D03*
X-476217Y-176375D02*
D03*
X-459091Y-235000D02*
D03*
X-660603Y-234748D02*
D03*
X-45000Y-227500D02*
D03*
X-483839Y-123234D02*
D03*
X-704714Y-237500D02*
D03*
X-599835Y-238748D02*
D03*
X-372500Y-244840D02*
D03*
X-50000Y-265424D02*
D03*
X-405000Y-235000D02*
D03*
X-311196Y-223921D02*
D03*
X-180000Y-240016D02*
D03*
X-140961Y-241402D02*
D03*
X-205000Y-221768D02*
D03*
X-180000D02*
D03*
X-494727Y-158344D02*
D03*
X-491500Y-244091D02*
D03*
X-449939Y-235136D02*
D03*
X-491500Y-216448D02*
D03*
X-466839Y274970D02*
D03*
X-489569Y165334D02*
D03*
X-449839Y-123234D02*
D03*
X-630000Y-226748D02*
D03*
X-695000Y-215000D02*
D03*
X-326954Y-228445D02*
D03*
X-366824Y-221571D02*
D03*
X-210000Y-241402D02*
D03*
X-65000Y-226083D02*
D03*
X-140961D02*
D03*
X-410847Y-213676D02*
D03*
X-475105Y-186805D02*
D03*
X-464450Y-220886D02*
D03*
X-436589Y54600D02*
D03*
X-226658Y266500D02*
D03*
X-475339Y-123234D02*
D03*
X-570183Y-232647D02*
D03*
X-705000Y-222500D02*
D03*
X-310000Y-253000D02*
D03*
X-331693Y-235501D02*
D03*
X-373011Y-227419D02*
D03*
X-50000Y-275000D02*
D03*
X-198630Y-252500D02*
D03*
X-141941Y-261821D02*
D03*
X-402500Y-217277D02*
D03*
X-488477Y-164354D02*
D03*
X-482793Y-213233D02*
D03*
X-469941Y-231932D02*
D03*
X-485065Y-233316D02*
D03*
X-222100Y48281D02*
D03*
X-225850Y257062D02*
D03*
X-649415Y98670D02*
D03*
X-646022Y107608D02*
D03*
X-1107485Y101980D02*
D03*
X-1279969Y16201D02*
D03*
X-1376086Y-467669D02*
D03*
X-1347500Y-676968D02*
D03*
Y-846807D02*
D03*
X-1314753Y-892123D02*
D03*
X87194Y-97234D02*
D03*
Y-475770D02*
D03*
Y-678245D02*
D03*
Y-849282D02*
D03*
X42013Y-892123D02*
D03*
X-296594D02*
D03*
X-1090626D02*
D03*
X-1150041D02*
D03*
X80850Y107093D02*
D03*
X-762592Y87500D02*
D03*
X-747359Y26670D02*
D03*
X-702924Y57906D02*
D03*
X-867990Y19230D02*
D03*
X-267010Y358266D02*
D03*
X-215510Y347018D02*
D03*
X32028Y102991D02*
D03*
X39504Y107038D02*
D03*
X24527Y98994D02*
D03*
X-506878Y307016D02*
D03*
X-440589Y12700D02*
D03*
X-444589Y114810D02*
D03*
X-333056Y179672D02*
D03*
X-180903Y191672D02*
D03*
X-339306Y157422D02*
D03*
X-274936Y148776D02*
D03*
X-285928Y135672D02*
D03*
X-267552Y153354D02*
D03*
X-283398Y168176D02*
D03*
X-258578Y185558D02*
D03*
X-314354Y146757D02*
D03*
X-327738Y140878D02*
D03*
X-320439Y121422D02*
D03*
X-323950Y113422D02*
D03*
X-285495Y98032D02*
D03*
X-280941Y81301D02*
D03*
X-485535Y139521D02*
D03*
X-451500Y125422D02*
D03*
X-340845Y110134D02*
D03*
X-485596Y129914D02*
D03*
X-481089Y154847D02*
D03*
X-292516Y167668D02*
D03*
X-272869Y102512D02*
D03*
X-511747Y111896D02*
D03*
X-230500Y185922D02*
D03*
X-232100Y97802D02*
D03*
X-498686Y111896D02*
D03*
X-485089Y113422D02*
D03*
X-265176Y65262D02*
D03*
X-179097Y81301D02*
D03*
X-247500D02*
D03*
X-257500D02*
D03*
X-168274Y106814D02*
D03*
X-176751Y106190D02*
D03*
X-152682Y187417D02*
D03*
X-142532Y95164D02*
D03*
X-155019Y95738D02*
D03*
X-451000Y173422D02*
D03*
X-447500Y85302D02*
D03*
X-168738Y80000D02*
D03*
X-162586Y91552D02*
D03*
X-121126Y315292D02*
D03*
X-85245Y329505D02*
D03*
X-129898Y288175D02*
D03*
X-135129Y205290D02*
D03*
X-137600Y132441D02*
D03*
X-132749Y194950D02*
D03*
X-126356Y189348D02*
D03*
X-119858Y182530D02*
D03*
X-110527Y178307D02*
D03*
X-102491Y175538D02*
D03*
X-95792Y170307D02*
D03*
X-86061Y166307D02*
D03*
X-76416Y163188D02*
D03*
X-69249Y158619D02*
D03*
X-61310Y155581D02*
D03*
X-55060Y131672D02*
D03*
X-34988D02*
D03*
X-23816Y133590D02*
D03*
X-23945Y142089D02*
D03*
X-5723Y138362D02*
D03*
X-19753Y149483D02*
D03*
X-10390Y103172D02*
D03*
X-3030Y86828D02*
D03*
X3792Y131382D02*
D03*
X3228Y115672D02*
D03*
X19757D02*
D03*
X18003Y72500D02*
D03*
X17275Y92922D02*
D03*
X-108212Y257844D02*
D03*
X-80711Y300927D02*
D03*
X-71203Y311757D02*
D03*
X-62453Y224120D02*
D03*
X-78946Y235356D02*
D03*
X-18787Y276503D02*
D03*
X-96788Y269213D02*
D03*
X-81378Y277454D02*
D03*
X-65108Y280793D02*
D03*
X-60402Y251223D02*
D03*
X-3762Y313413D02*
D03*
X-44438Y206709D02*
D03*
X-29210Y226133D02*
D03*
X-27781Y246664D02*
D03*
X-2367Y239595D02*
D03*
X15415Y237738D02*
D03*
X-5313Y208307D02*
D03*
X17477Y300214D02*
D03*
X22561Y232672D02*
D03*
X-487226Y104759D02*
D03*
X-488477Y52930D02*
D03*
X-485089Y95929D02*
D03*
X-485785Y87458D02*
D03*
X-490683Y77980D02*
D03*
X-485089Y71581D02*
D03*
X-485535Y61717D02*
D03*
X-681358Y-215069D02*
D03*
X-835059Y19230D02*
D03*
X-651500Y-213988D02*
D03*
X-494727Y-128016D02*
D03*
X-700000Y-287500D02*
D03*
X-854424Y-310000D02*
D03*
X-852500Y-286500D02*
D03*
X-88863Y223222D02*
D03*
X-79277Y204216D02*
D03*
X3324Y253980D02*
D03*
X30875Y269425D02*
D03*
X-60811Y305948D02*
D03*
X-49906Y283591D02*
D03*
X-53148Y297255D02*
D03*
X-25968Y307104D02*
D03*
X-8850Y281509D02*
D03*
X267Y292531D02*
D03*
X17477Y261248D02*
D03*
X-1022500Y-447500D02*
D03*
X-1050932Y-447689D02*
D03*
X-822850Y-135000D02*
D03*
X-1026475Y-457500D02*
D03*
Y-467500D02*
D03*
X-1050000Y-457500D02*
D03*
X-1045665Y-467572D02*
D03*
X-810000Y-302000D02*
D03*
X-790000Y-287500D02*
D03*
X-760000D02*
D03*
X-730000D02*
D03*
X-630000Y-300000D02*
D03*
X-570000Y-273894D02*
D03*
X-600000D02*
D03*
X-540000D02*
D03*
X-510000Y-272894D02*
D03*
X-420000Y-302500D02*
D03*
X-390000D02*
D03*
X-120000D02*
D03*
X-240000D02*
D03*
X-270000D02*
D03*
X-840000D02*
D03*
X-660000D02*
D03*
X-480000D02*
D03*
X-450000D02*
D03*
X-360000D02*
D03*
X-330000D02*
D03*
X-300000D02*
D03*
X-210000D02*
D03*
X-30000D02*
D03*
X-180000D02*
D03*
X-150000D02*
D03*
X-90000D02*
D03*
X-60000D02*
D03*
X30000D02*
D03*
X0D02*
D03*
X60000D02*
D03*
D102*
X-270000Y-253000D02*
D03*
X-120000D02*
D03*
X-540000D02*
D03*
X-690000D02*
D03*
X-390000D02*
D03*
X30000D02*
D03*
X-240000D02*
D03*
X-360000D02*
D03*
X-510000D02*
D03*
X-660000D02*
D03*
X-90000D02*
D03*
X-750000D02*
D03*
X60000D02*
D03*
X-330000D02*
D03*
X-180000D02*
D03*
X-450000D02*
D03*
X-600000D02*
D03*
X-720000D02*
D03*
X-840000D02*
D03*
X-30000D02*
D03*
X-210000D02*
D03*
X-480000D02*
D03*
X-630000D02*
D03*
X-810000D02*
D03*
X-60000D02*
D03*
X-300000D02*
D03*
X0D02*
D03*
X-150000D02*
D03*
X-570000D02*
D03*
X-420000D02*
D03*
X-780000D02*
D03*
X30000Y-287000D02*
D03*
X60000D02*
D03*
X-390000D02*
D03*
X-750000D02*
D03*
X-90000D02*
D03*
X-30000D02*
D03*
X-60000D02*
D03*
X-810000D02*
D03*
X-690000D02*
D03*
X-660000D02*
D03*
X-840000D02*
D03*
X-780000D02*
D03*
X-720000D02*
D03*
X-600000D02*
D03*
X-630000D02*
D03*
X-420000D02*
D03*
X-450000D02*
D03*
X-480000D02*
D03*
X-510000D02*
D03*
X-570000D02*
D03*
X-360000D02*
D03*
X-540000D02*
D03*
X-180000D02*
D03*
X-150000D02*
D03*
X0D02*
D03*
X-120000D02*
D03*
X-240000D02*
D03*
X-270000D02*
D03*
X-300000D02*
D03*
X-210000D02*
D03*
X-330000D02*
D03*
D103*
X-577740Y274012D02*
D03*
X-575549Y287842D02*
D03*
D104*
X-1411000Y-445106D02*
D03*
X-1411000Y-459107D02*
D03*
D105*
X-122932Y350860D02*
D03*
D106*
X-111574Y349061D02*
D03*
D107*
X-6133Y246840D02*
D03*
X-11653Y238501D02*
D03*
M02*
