G04*
G04 #@! TF.GenerationSoftware,Altium Limited,Altium Designer,25.7.1 (20)*
G04*
G04 Layer_Color=5020405*
%FSLAX44Y44*%
%MOMM*%
G71*
G04*
G04 #@! TF.SameCoordinates,6D1EC6EB-D4D1-4485-8440-CF1E71E7DC7E*
G04*
G04*
G04 #@! TF.FilePolarity,Positive*
G04*
G01*
G75*
%ADD86C,0.1500*%
D86*
X-1312500Y-50000D02*
G03*
X-1287500Y-25000I0J25000D01*
G01*
X-1420879Y-50000D02*
G03*
X-1445879Y-75000I0J-25000D01*
G01*
Y-449904D02*
G03*
X-1420879Y-474904I25000J0D01*
G01*
X-1355000Y-874623D02*
G03*
X-1330000Y-899623I25000J0D01*
G01*
X-724522Y95000D02*
G03*
X-611800Y187806I-4173J119927D01*
G01*
X-1097505Y100000D02*
G03*
X-1122505Y125000I-25000J0D01*
G01*
X-1262448Y124949D02*
G03*
X-1287448Y99949I0J-25000D01*
G01*
X-1355000Y-499904D02*
G03*
X-1380000Y-474904I-25000J0D01*
G01*
X69694Y-899623D02*
G03*
X94694Y-874623I0J25000D01*
G01*
X94694Y93500D02*
G03*
X69694Y118500I-25000J0D01*
G01*
X-1445879Y-449904D02*
Y-75000D01*
X-1421000Y-50000D02*
X-1312500D01*
X-1421000Y-474904D02*
X-1380000D01*
X61164Y118500D02*
X69694D01*
X94694Y-874623D02*
X94694Y93500D01*
X-1097505Y95000D02*
X-724522Y95000D01*
X-1097505Y95000D02*
Y100000D01*
X-1287500Y-25000D02*
Y99949D01*
X-1262448Y125000D02*
X-1122505D01*
X-1330000Y-899623D02*
X69694Y-899623D01*
X-1355000Y-874623D02*
X-1355000Y-499904D01*
X-611800Y187806D02*
X-572380Y426425D01*
X-571443Y429924D01*
X-569841Y433173D01*
X-567637Y436048D01*
X-564916Y438438D01*
X-561780Y440252D01*
X-558351Y441421D01*
X-554760Y441899D01*
X-551146Y441668D01*
X-24940Y355720D01*
X-15746Y353739D01*
X-6797Y350844D01*
X1816Y347065D01*
X10005Y342440D01*
X17689Y337015D01*
X24788Y330846D01*
X31232Y323995D01*
X36955Y316531D01*
X41899Y308530D01*
X46014Y300072D01*
X49259Y291245D01*
X51600Y282135D01*
X53015Y272837D01*
X53488Y263443D01*
X53093Y254865D02*
X53488Y263443D01*
X51914Y246359D02*
X53093Y254865D01*
X49959Y237998D02*
X51914Y246359D01*
X47245Y229851D02*
X49959Y237998D01*
X43795Y221987D02*
X47245Y229851D01*
X39638Y214473D02*
X43795Y221987D01*
X34810Y207373D02*
X39638Y214473D01*
X23953Y192885D02*
X34810Y207373D01*
X20257Y187110D02*
X23953Y192885D01*
X17450Y180854D02*
X20257Y187110D01*
X15594Y174253D02*
X17450Y180854D01*
X14729Y167451D02*
X15594Y174253D01*
X14729Y167451D02*
X14873Y160595D01*
X16024Y153836D01*
X18157Y147319D01*
X21224Y141187D01*
X25161Y135572D01*
X29880Y130597D01*
X35279Y126371D01*
X41241Y122984D01*
X47637Y120511D01*
X54326Y119005D01*
X61164Y118500D01*
M02*
