G04*
G04 #@! TF.GenerationSoftware,Altium Limited,Altium Designer,25.7.1 (20)*
G04*
G04 Layer_Color=65535*
%FSLAX44Y44*%
%MOMM*%
G71*
G04*
G04 #@! TF.SameCoordinates,6D1EC6EB-D4D1-4485-8440-CF1E71E7DC7E*
G04*
G04*
G04 #@! TF.FilePolarity,Positive*
G04*
G01*
G75*
%ADD10C,0.2000*%
%ADD11C,0.6847*%
%ADD12C,0.2500*%
%ADD13C,0.5478*%
%ADD14C,0.2540*%
%ADD15C,0.3000*%
%ADD16C,0.1364*%
%ADD17C,0.4000*%
G36*
X-196157Y266066D02*
X-195808D01*
Y265369D01*
X-195460D01*
Y257350D01*
X-195111D01*
Y251423D01*
X-194762D01*
Y249679D01*
X-194414D01*
Y248285D01*
X-194065D01*
Y246193D01*
X-193716D01*
Y245147D01*
X-193368D01*
Y244449D01*
X-193019D01*
Y242706D01*
X-192670D01*
Y242009D01*
X-192322D01*
Y240963D01*
X-191973D01*
Y239220D01*
X-191624D01*
Y238174D01*
X-191276D01*
Y237128D01*
X-190927D01*
Y234687D01*
X-190578D01*
Y231898D01*
X-190230D01*
Y228063D01*
X-190578D01*
Y225622D01*
X-190927D01*
Y223181D01*
X-191276D01*
Y221787D01*
X-191624D01*
Y220392D01*
X-191973D01*
Y218649D01*
X-192322D01*
Y217952D01*
X-192670D01*
Y216906D01*
X-193019D01*
Y215163D01*
X-193368D01*
Y214116D01*
X-193716D01*
Y213071D01*
X-194065D01*
Y210630D01*
X-194414D01*
Y204703D01*
X-194065D01*
Y203308D01*
X-193716D01*
Y202611D01*
X-193368D01*
Y201914D01*
X-193019D01*
Y201216D01*
X-192670D01*
Y200868D01*
X-192322D01*
Y200170D01*
X-191973D01*
Y199822D01*
X-191624D01*
Y199473D01*
X-191276D01*
Y198776D01*
X-190927D01*
Y198427D01*
X-190578D01*
Y198078D01*
X-190230D01*
Y197730D01*
X-189881D01*
Y197381D01*
X-189533D01*
Y197033D01*
X-189184D01*
Y196684D01*
X-188835D01*
Y196335D01*
X-188486D01*
Y195986D01*
X-188138D01*
Y195638D01*
X-187789D01*
Y195289D01*
X-187441D01*
Y194941D01*
X-187092D01*
Y194592D01*
X-186743D01*
Y194243D01*
X-186395D01*
Y193895D01*
X-186046D01*
Y193546D01*
X-185697D01*
Y193197D01*
X-185349D01*
Y192849D01*
X-185000D01*
Y192500D01*
X-184303D01*
Y192151D01*
X-183954D01*
Y191803D01*
X-183605D01*
Y191454D01*
X-183257D01*
Y191105D01*
X-182559D01*
Y190408D01*
X-181862D01*
Y190059D01*
X-181514D01*
Y189711D01*
X-181165D01*
Y189362D01*
X-180467D01*
Y189013D01*
X-180119D01*
Y188665D01*
X-179770D01*
Y188316D01*
X-179422D01*
Y187967D01*
X-179073D01*
Y187619D01*
X-178376D01*
Y187270D01*
X-178027D01*
Y186922D01*
X-177678D01*
Y186573D01*
X-177330D01*
Y186224D01*
X-176632D01*
Y185876D01*
X-176284D01*
Y185527D01*
X-175935D01*
Y185178D01*
X-175238D01*
Y184481D01*
X-174889D01*
Y184132D01*
X-174192D01*
Y183784D01*
X-173843D01*
Y183435D01*
X-173494D01*
Y183086D01*
X-172797D01*
Y182738D01*
X-172449D01*
Y182389D01*
X-172100D01*
Y182040D01*
X-171402D01*
Y181692D01*
X-171054D01*
Y181343D01*
X-170705D01*
Y180994D01*
X-170357D01*
Y180646D01*
X-170008D01*
Y180297D01*
X-169659D01*
Y179948D01*
X-168962D01*
Y179600D01*
X-168613D01*
Y179251D01*
X-168265D01*
Y178902D01*
X-167916D01*
Y178554D01*
X-167219D01*
Y178205D01*
X-166870D01*
Y177857D01*
X-166521D01*
Y177508D01*
X-166173D01*
Y177159D01*
X-165824D01*
Y176810D01*
X-165127D01*
Y176462D01*
X-164778D01*
Y175765D01*
X-164081D01*
Y175416D01*
X-163732D01*
Y175067D01*
X-163384D01*
Y174719D01*
X-163035D01*
Y174370D01*
X-162686D01*
Y174021D01*
X-162337D01*
Y173673D01*
X-161989D01*
Y173324D01*
X-161640D01*
Y172975D01*
X-161292D01*
Y172627D01*
X-160943D01*
Y172278D01*
X-160594D01*
Y171929D01*
X-160246D01*
Y171581D01*
X-159897D01*
Y171232D01*
X-159548D01*
Y170535D01*
X-158851D01*
Y170186D01*
X-158502D01*
Y169489D01*
X-158154D01*
Y169140D01*
X-157805D01*
Y168792D01*
X-157456D01*
Y168443D01*
X-157108D01*
Y168094D01*
X-156759D01*
Y167397D01*
X-156410D01*
Y167048D01*
X-156062D01*
Y166700D01*
X-155713D01*
Y166002D01*
X-155364D01*
Y165654D01*
X-155016D01*
Y164956D01*
X-154667D01*
Y164608D01*
X-154319D01*
Y164259D01*
X-153970D01*
Y163562D01*
X-153621D01*
Y163213D01*
X-153272D01*
Y162516D01*
X-152924D01*
Y162167D01*
X-152575D01*
Y161818D01*
X-152226D01*
Y160772D01*
X-151878D01*
Y160424D01*
X-151529D01*
Y159726D01*
X-151181D01*
Y159029D01*
X-150832D01*
Y158332D01*
X-150483D01*
Y157635D01*
X-150135D01*
Y156937D01*
X-149786D01*
Y156240D01*
X-149437D01*
Y155543D01*
X-149089D01*
Y154497D01*
X-148740D01*
Y154148D01*
X-148391D01*
Y153451D01*
X-148043D01*
Y152405D01*
X-147694D01*
Y151707D01*
X-147345D01*
Y151010D01*
X-146997D01*
Y149616D01*
X-146648D01*
Y148918D01*
X-146299D01*
Y148221D01*
X-145951D01*
Y146826D01*
X-145602D01*
Y145780D01*
X-145253D01*
Y145083D01*
X-144905D01*
Y143340D01*
X-144556D01*
Y141945D01*
X-144207D01*
Y141248D01*
X-143859D01*
Y139156D01*
X-143510D01*
Y137761D01*
X-143161D01*
Y136018D01*
X-142813D01*
Y133577D01*
X-142464D01*
Y131486D01*
X-142116D01*
Y129394D01*
X-141767D01*
Y123118D01*
X-141418D01*
Y116842D01*
X-141767D01*
Y113007D01*
X-142116D01*
Y110915D01*
X-142464D01*
Y109869D01*
X-142813D01*
Y108126D01*
X-143161D01*
Y107080D01*
X-143510D01*
Y106034D01*
X-143859D01*
Y104988D01*
X-144207D01*
Y104291D01*
X-144556D01*
Y103593D01*
X-144905D01*
Y102896D01*
X-145253D01*
Y102199D01*
X-145602D01*
Y101501D01*
X-145253D01*
Y101153D01*
X-144905D01*
Y101501D01*
X-144207D01*
Y101850D01*
X-143859D01*
Y102199D01*
X-143510D01*
Y102547D01*
X-142813D01*
Y102896D01*
X-142464D01*
Y103245D01*
X-142116D01*
Y103593D01*
X-141418D01*
Y104291D01*
X-141070D01*
Y104639D01*
X-140372D01*
Y104988D01*
X-140024D01*
Y105337D01*
X-139675D01*
Y105685D01*
X-139326D01*
Y106034D01*
X-138978D01*
Y106383D01*
X-138629D01*
Y106731D01*
X-138280D01*
Y107080D01*
X-137932D01*
Y107777D01*
X-137234D01*
Y108474D01*
X-136886D01*
Y108823D01*
X-136188D01*
Y109520D01*
X-135840D01*
Y109869D01*
X-135491D01*
Y110218D01*
X-135142D01*
Y110566D01*
X-134794D01*
Y111264D01*
X-134445D01*
Y111612D01*
X-134096D01*
Y111961D01*
X-133748D01*
Y112658D01*
X-133399D01*
Y113007D01*
X-133051D01*
Y113704D01*
X-132702D01*
Y114053D01*
X-132353D01*
Y114402D01*
X-132005D01*
Y115099D01*
X-131656D01*
Y115448D01*
X-131307D01*
Y116145D01*
X-130959D01*
Y116842D01*
X-130610D01*
Y117191D01*
X-130261D01*
Y117888D01*
X-129913D01*
Y118585D01*
X-129564D01*
Y118934D01*
X-129215D01*
Y119631D01*
X-128867D01*
Y120677D01*
X-128518D01*
Y121375D01*
X-128169D01*
Y121723D01*
X-127821D01*
Y122769D01*
X-127472D01*
Y123467D01*
X-127123D01*
Y123815D01*
X-126775D01*
Y124861D01*
X-126426D01*
Y125558D01*
X-126077D01*
Y126256D01*
X-125729D01*
Y127650D01*
X-125380D01*
Y127999D01*
X-125031D01*
Y129045D01*
X-124683D01*
Y130440D01*
X-124334D01*
Y131137D01*
X-123986D01*
Y131834D01*
X-123637D01*
Y133229D01*
X-123288D01*
Y134275D01*
X-122940D01*
Y135321D01*
X-122591D01*
Y136715D01*
X-122242D01*
Y137761D01*
X-121894D01*
Y138807D01*
X-121545D01*
Y140550D01*
X-121196D01*
Y141945D01*
X-120848D01*
Y143340D01*
X-120499D01*
Y146129D01*
X-120150D01*
Y148570D01*
X-119802D01*
Y152405D01*
X-119453D01*
Y163562D01*
X-119802D01*
Y167048D01*
X-120150D01*
Y169489D01*
X-120499D01*
Y171929D01*
X-120848D01*
Y172975D01*
X-121196D01*
Y174370D01*
X-121545D01*
Y176113D01*
X-121894D01*
Y176810D01*
X-122242D01*
Y177857D01*
X-122591D01*
Y178902D01*
X-122940D01*
Y179600D01*
X-123288D01*
Y180297D01*
X-123637D01*
Y181343D01*
X-123986D01*
Y181692D01*
X-124334D01*
Y182389D01*
X-124683D01*
Y183086D01*
X-125031D01*
Y183435D01*
X-125380D01*
Y183784D01*
X-125729D01*
Y184481D01*
X-126077D01*
Y184830D01*
X-126426D01*
Y185178D01*
X-126775D01*
Y185527D01*
X-127123D01*
Y185876D01*
X-127472D01*
Y186224D01*
X-127821D01*
Y186573D01*
X-128518D01*
Y186922D01*
X-128867D01*
Y187270D01*
X-129564D01*
Y187619D01*
X-130610D01*
Y187967D01*
X-131307D01*
Y188316D01*
X-132353D01*
Y188665D01*
X-136886D01*
Y188316D01*
X-137932D01*
Y187967D01*
X-138629D01*
Y187619D01*
X-139675D01*
Y187270D01*
X-140024D01*
Y186922D01*
X-140372D01*
Y186573D01*
X-140721D01*
Y186224D01*
X-141070D01*
Y185876D01*
X-141418D01*
Y185527D01*
X-141767D01*
Y184830D01*
X-142116D01*
Y184481D01*
X-142464D01*
Y183784D01*
X-142813D01*
Y182738D01*
X-143161D01*
Y181692D01*
X-143510D01*
Y181343D01*
X-143859D01*
Y180297D01*
X-144207D01*
Y179948D01*
X-144556D01*
Y179600D01*
X-144905D01*
Y179251D01*
X-145253D01*
Y178902D01*
X-145602D01*
Y178554D01*
X-145951D01*
Y178205D01*
X-146997D01*
Y177857D01*
X-148043D01*
Y177508D01*
X-149089D01*
Y177857D01*
X-150483D01*
Y178205D01*
X-151181D01*
Y178554D01*
X-151878D01*
Y178902D01*
X-152226D01*
Y179251D01*
X-152575D01*
Y179600D01*
X-152924D01*
Y180297D01*
X-153272D01*
Y180994D01*
X-153621D01*
Y181692D01*
X-153970D01*
Y182738D01*
X-154319D01*
Y183435D01*
X-154667D01*
Y184481D01*
X-155016D01*
Y186922D01*
X-155364D01*
Y190757D01*
X-155016D01*
Y193546D01*
X-154667D01*
Y194592D01*
X-154319D01*
Y195638D01*
X-153970D01*
Y196684D01*
X-153621D01*
Y197381D01*
X-153272D01*
Y198078D01*
X-152924D01*
Y198776D01*
X-152575D01*
Y199473D01*
X-152226D01*
Y199822D01*
X-151878D01*
Y200868D01*
X-151181D01*
Y201565D01*
X-150832D01*
Y201914D01*
X-150483D01*
Y202262D01*
X-150135D01*
Y202611D01*
X-149786D01*
Y202960D01*
X-149437D01*
Y203308D01*
X-149089D01*
Y203657D01*
X-148740D01*
Y204006D01*
X-148391D01*
Y204354D01*
X-147694D01*
Y205051D01*
X-146648D01*
Y205400D01*
X-146299D01*
Y205749D01*
X-145602D01*
Y206098D01*
X-144905D01*
Y206446D01*
X-144207D01*
Y206795D01*
X-143510D01*
Y207143D01*
X-142116D01*
Y207492D01*
X-140372D01*
Y207841D01*
X-137583D01*
Y208189D01*
X-136886D01*
Y207841D01*
X-132702D01*
Y207492D01*
X-131307D01*
Y207143D01*
X-129564D01*
Y206795D01*
X-128518D01*
Y206446D01*
X-127472D01*
Y206098D01*
X-126077D01*
Y205749D01*
X-125729D01*
Y205400D01*
X-125031D01*
Y205051D01*
X-123986D01*
Y204703D01*
X-123288D01*
Y204354D01*
X-122940D01*
Y204006D01*
X-122242D01*
Y203657D01*
X-121545D01*
Y203308D01*
X-121196D01*
Y202960D01*
X-120499D01*
Y202611D01*
X-120150D01*
Y202262D01*
X-119453D01*
Y201914D01*
X-118756D01*
Y201565D01*
X-118407D01*
Y201216D01*
X-118058D01*
Y200868D01*
X-117710D01*
Y200519D01*
X-117361D01*
Y200170D01*
X-117013D01*
Y199822D01*
X-116315D01*
Y199473D01*
X-115967D01*
Y199124D01*
X-115618D01*
Y198776D01*
X-115269D01*
Y198078D01*
X-114572D01*
Y197381D01*
X-114223D01*
Y197033D01*
X-113875D01*
Y196684D01*
X-113526D01*
Y196335D01*
X-113177D01*
Y195986D01*
X-112829D01*
Y195638D01*
X-112480D01*
Y194941D01*
X-112131D01*
Y194592D01*
X-111783D01*
Y194243D01*
X-111434D01*
Y193546D01*
X-111085D01*
Y193197D01*
X-110737D01*
Y192849D01*
X-110388D01*
Y192151D01*
X-110039D01*
Y191454D01*
X-109691D01*
Y191105D01*
X-109342D01*
Y190059D01*
X-108994D01*
Y189711D01*
X-108645D01*
Y189362D01*
X-108296D01*
Y188316D01*
X-107948D01*
Y187967D01*
X-107599D01*
Y187270D01*
X-107250D01*
Y186224D01*
X-106902D01*
Y185527D01*
X-106553D01*
Y184830D01*
X-106204D01*
Y183784D01*
X-105856D01*
Y183086D01*
X-105507D01*
Y182040D01*
X-105158D01*
Y180646D01*
X-104810D01*
Y179600D01*
X-104461D01*
Y178902D01*
X-104112D01*
Y176810D01*
X-103764D01*
Y175416D01*
X-103415D01*
Y173673D01*
X-103066D01*
Y170884D01*
X-102718D01*
Y168792D01*
X-102369D01*
Y164259D01*
X-102020D01*
Y161121D01*
X-102369D01*
Y155194D01*
X-102718D01*
Y152753D01*
X-103066D01*
Y149267D01*
X-103415D01*
Y147175D01*
X-103764D01*
Y145432D01*
X-104112D01*
Y143340D01*
X-104461D01*
Y141945D01*
X-104810D01*
Y140550D01*
X-105158D01*
Y138807D01*
X-105507D01*
Y137761D01*
X-105856D01*
Y136715D01*
X-106204D01*
Y135321D01*
X-106553D01*
Y134275D01*
X-106902D01*
Y133577D01*
X-107250D01*
Y132183D01*
X-107599D01*
Y131486D01*
X-107948D01*
Y130788D01*
X-108296D01*
Y129394D01*
X-108645D01*
Y128696D01*
X-108994D01*
Y127999D01*
X-109342D01*
Y126953D01*
X-109691D01*
Y126256D01*
X-110039D01*
Y125558D01*
X-110388D01*
Y124861D01*
X-110737D01*
Y124164D01*
X-111085D01*
Y123467D01*
X-111434D01*
Y122769D01*
X-111783D01*
Y122072D01*
X-112131D01*
Y121375D01*
X-112480D01*
Y121026D01*
X-112829D01*
Y120329D01*
X-113177D01*
Y119631D01*
X-113526D01*
Y118934D01*
X-113875D01*
Y118237D01*
X-114223D01*
Y117888D01*
X-114572D01*
Y117191D01*
X-114921D01*
Y116842D01*
X-115269D01*
Y116145D01*
X-115618D01*
Y115448D01*
X-115967D01*
Y115099D01*
X-116315D01*
Y114402D01*
X-116664D01*
Y113704D01*
X-117013D01*
Y113356D01*
X-117361D01*
Y113007D01*
X-117710D01*
Y112658D01*
X-118058D01*
Y111961D01*
X-118407D01*
Y111612D01*
X-118756D01*
Y110915D01*
X-119104D01*
Y110566D01*
X-119453D01*
Y110218D01*
X-119802D01*
Y109520D01*
X-120150D01*
Y109172D01*
X-120848D01*
Y108474D01*
X-121196D01*
Y108126D01*
X-121545D01*
Y107777D01*
X-121894D01*
Y107428D01*
X-122242D01*
Y107080D01*
X-122591D01*
Y106731D01*
X-122940D01*
Y106034D01*
X-123637D01*
Y105685D01*
X-123986D01*
Y105337D01*
X-124334D01*
Y104988D01*
X-124683D01*
Y104639D01*
X-125031D01*
Y104291D01*
X-125380D01*
Y103942D01*
X-125729D01*
Y103593D01*
X-126077D01*
Y103245D01*
X-126426D01*
Y102896D01*
X-126775D01*
Y102547D01*
X-127123D01*
Y102199D01*
X-127472D01*
Y101850D01*
X-128169D01*
Y101501D01*
X-128518D01*
Y101153D01*
X-128867D01*
Y100804D01*
X-129564D01*
Y100455D01*
X-129913D01*
Y100107D01*
X-130610D01*
Y99758D01*
X-130959D01*
Y99409D01*
X-131656D01*
Y99061D01*
X-132005D01*
Y98712D01*
X-132702D01*
Y98363D01*
X-133051D01*
Y98015D01*
X-133748D01*
Y97666D01*
X-134445D01*
Y97317D01*
X-134794D01*
Y96969D01*
X-135491D01*
Y96620D01*
X-136188D01*
Y96271D01*
X-136886D01*
Y95923D01*
X-137583D01*
Y95574D01*
X-138280D01*
Y95225D01*
X-138978D01*
Y94877D01*
X-139675D01*
Y94528D01*
X-140372D01*
Y94180D01*
X-141070D01*
Y93831D01*
X-141767D01*
Y93482D01*
X-142813D01*
Y93134D01*
X-143510D01*
Y92785D01*
X-144207D01*
Y92436D01*
X-145602D01*
Y92088D01*
X-146299D01*
Y91739D01*
X-146997D01*
Y91390D01*
X-148391D01*
Y91042D01*
X-149089D01*
Y90693D01*
X-150135D01*
Y90344D01*
X-151529D01*
Y89996D01*
X-152575D01*
Y89647D01*
X-153621D01*
Y89298D01*
X-155364D01*
Y88950D01*
X-156410D01*
Y88601D01*
X-157456D01*
Y88252D01*
X-159548D01*
Y87904D01*
X-160943D01*
Y87555D01*
X-162337D01*
Y87206D01*
X-164778D01*
Y86858D01*
X-166870D01*
Y86509D01*
X-168613D01*
Y86160D01*
X-173843D01*
Y85812D01*
X-177678D01*
Y85463D01*
X-193716D01*
Y85812D01*
X-199643D01*
Y86160D01*
X-225095D01*
Y86509D01*
X-226490D01*
Y86858D01*
X-227536D01*
Y87206D01*
X-228233D01*
Y87555D01*
X-228930D01*
Y87904D01*
X-229279D01*
Y88252D01*
X-229628D01*
Y88601D01*
X-230325D01*
Y89298D01*
X-230674D01*
Y89647D01*
X-231022D01*
Y90344D01*
X-231371D01*
Y91390D01*
X-231720D01*
Y92785D01*
X-232068D01*
Y94180D01*
X-231720D01*
Y95923D01*
X-231371D01*
Y96969D01*
X-231022D01*
Y97666D01*
X-230674D01*
Y98015D01*
X-230325D01*
Y98363D01*
X-229976D01*
Y98712D01*
X-229628D01*
Y99061D01*
X-229279D01*
Y99409D01*
X-228930D01*
Y99758D01*
X-228582D01*
Y100107D01*
X-227884D01*
Y100455D01*
X-227187D01*
Y100804D01*
X-226490D01*
Y101153D01*
X-225444D01*
Y101501D01*
X-223003D01*
Y101850D01*
X-213938D01*
Y102199D01*
X-211498D01*
Y102547D01*
X-211149D01*
Y103593D01*
X-211498D01*
Y104291D01*
X-212195D01*
Y104639D01*
X-212544D01*
Y104988D01*
X-212892D01*
Y105337D01*
X-213241D01*
Y105685D01*
X-213590D01*
Y106034D01*
X-214287D01*
Y106383D01*
X-214636D01*
Y106731D01*
X-214984D01*
Y107080D01*
X-215333D01*
Y107428D01*
X-216030D01*
Y107777D01*
X-216379D01*
Y108126D01*
X-216728D01*
Y108474D01*
X-217076D01*
Y108823D01*
X-217425D01*
Y109172D01*
X-217773D01*
Y109520D01*
X-218122D01*
Y109869D01*
X-218471D01*
Y110218D01*
X-218820D01*
Y110566D01*
X-219168D01*
Y110915D01*
X-219517D01*
Y111264D01*
X-219865D01*
Y111612D01*
X-220214D01*
Y112310D01*
X-220563D01*
Y112658D01*
X-220911D01*
Y113356D01*
X-221260D01*
Y113704D01*
X-221609D01*
Y114053D01*
X-221957D01*
Y114750D01*
X-222306D01*
Y115448D01*
X-222655D01*
Y115796D01*
X-223003D01*
Y116493D01*
X-223352D01*
Y116842D01*
X-223701D01*
Y117191D01*
X-224049D01*
Y117888D01*
X-224398D01*
Y118237D01*
X-224747D01*
Y118934D01*
X-225793D01*
Y118585D01*
X-226490D01*
Y117888D01*
X-226838D01*
Y117191D01*
X-227187D01*
Y116842D01*
X-227536D01*
Y116145D01*
X-227884D01*
Y115448D01*
X-228233D01*
Y115099D01*
X-228582D01*
Y114053D01*
X-228930D01*
Y113704D01*
X-229279D01*
Y113007D01*
X-229628D01*
Y112310D01*
X-229976D01*
Y111612D01*
X-230325D01*
Y111264D01*
X-230674D01*
Y110218D01*
X-231022D01*
Y109869D01*
X-231371D01*
Y109172D01*
X-231720D01*
Y108474D01*
X-232068D01*
Y107777D01*
X-232417D01*
Y107428D01*
X-232766D01*
Y106731D01*
X-233114D01*
Y106034D01*
X-233463D01*
Y105337D01*
X-233812D01*
Y104988D01*
X-234160D01*
Y104291D01*
X-234509D01*
Y103593D01*
X-234858D01*
Y102896D01*
X-235206D01*
Y102199D01*
X-235555D01*
Y101501D01*
X-235903D01*
Y100804D01*
X-236252D01*
Y100455D01*
X-236601D01*
Y100107D01*
X-236949D01*
Y99409D01*
X-237298D01*
Y99061D01*
X-237647D01*
Y98712D01*
X-237995D01*
Y98015D01*
X-238344D01*
Y97666D01*
X-238693D01*
Y96969D01*
X-239041D01*
Y96620D01*
X-239390D01*
Y96271D01*
X-239739D01*
Y95923D01*
X-240087D01*
Y95574D01*
X-240436D01*
Y95225D01*
X-240785D01*
Y94877D01*
X-241133D01*
Y94528D01*
X-241482D01*
Y94180D01*
X-241831D01*
Y93831D01*
X-242179D01*
Y93482D01*
X-242528D01*
Y93134D01*
X-242877D01*
Y92785D01*
X-243225D01*
Y92436D01*
X-244271D01*
Y92088D01*
X-244620D01*
Y91739D01*
X-245317D01*
Y91390D01*
X-246363D01*
Y91042D01*
X-247060D01*
Y90693D01*
X-248455D01*
Y90344D01*
X-252639D01*
Y89996D01*
X-255428D01*
Y90344D01*
X-259263D01*
Y90693D01*
X-259961D01*
Y91042D01*
X-260658D01*
Y91390D01*
X-261704D01*
Y91739D01*
X-262052D01*
Y92088D01*
X-262750D01*
Y92436D01*
X-263099D01*
Y92785D01*
X-263447D01*
Y93134D01*
X-263796D01*
Y93482D01*
X-264144D01*
Y94180D01*
X-264493D01*
Y94877D01*
X-264842D01*
Y98015D01*
X-264493D01*
Y98363D01*
X-264144D01*
Y99061D01*
X-263796D01*
Y99409D01*
X-263447D01*
Y99758D01*
X-263099D01*
Y100107D01*
X-262750D01*
Y100455D01*
X-262052D01*
Y100804D01*
X-261355D01*
Y101153D01*
X-261007D01*
Y101501D01*
X-260309D01*
Y101850D01*
X-259612D01*
Y102199D01*
X-258915D01*
Y102547D01*
X-258217D01*
Y102896D01*
X-257869D01*
Y103245D01*
X-257171D01*
Y103593D01*
X-256474D01*
Y103942D01*
X-256125D01*
Y104291D01*
X-255428D01*
Y104639D01*
X-254731D01*
Y104988D01*
X-254382D01*
Y105685D01*
X-253685D01*
Y106034D01*
X-253336D01*
Y106383D01*
X-252987D01*
Y106731D01*
X-252639D01*
Y107080D01*
X-252290D01*
Y107777D01*
X-251942D01*
Y108474D01*
X-251593D01*
Y108823D01*
X-251244D01*
Y109520D01*
X-250896D01*
Y109869D01*
X-250547D01*
Y110566D01*
X-250198D01*
Y111264D01*
X-249850D01*
Y111961D01*
X-249501D01*
Y112658D01*
X-249152D01*
Y113704D01*
X-248804D01*
Y114750D01*
X-248455D01*
Y115796D01*
X-248106D01*
Y117539D01*
X-247758D01*
Y118585D01*
X-247409D01*
Y119631D01*
X-247060D01*
Y121723D01*
X-246712D01*
Y123467D01*
X-246363D01*
Y124861D01*
X-246014D01*
Y127302D01*
X-245666D01*
Y128696D01*
X-245317D01*
Y130788D01*
X-244968D01*
Y141596D01*
X-245317D01*
Y155194D01*
X-245666D01*
Y177159D01*
X-246014D01*
Y178554D01*
X-246363D01*
Y179251D01*
X-246712D01*
Y179948D01*
X-247060D01*
Y180646D01*
X-247409D01*
Y180994D01*
X-247758D01*
Y181343D01*
X-248106D01*
Y182040D01*
X-248455D01*
Y182389D01*
X-249152D01*
Y182738D01*
X-249501D01*
Y183086D01*
X-249850D01*
Y183435D01*
X-250198D01*
Y183784D01*
X-250547D01*
Y184132D01*
X-251244D01*
Y184481D01*
X-251942D01*
Y184830D01*
X-252290D01*
Y185178D01*
X-252639D01*
Y185527D01*
X-252987D01*
Y185876D01*
X-253685D01*
Y186224D01*
X-254034D01*
Y186573D01*
X-254382D01*
Y186922D01*
X-254731D01*
Y187270D01*
X-255079D01*
Y187619D01*
X-255428D01*
Y187967D01*
X-255777D01*
Y188316D01*
X-256125D01*
Y188665D01*
X-256474D01*
Y189013D01*
X-256823D01*
Y189362D01*
X-257171D01*
Y189711D01*
X-257520D01*
Y190059D01*
X-257869D01*
Y190408D01*
X-258217D01*
Y190757D01*
X-258566D01*
Y191105D01*
X-258915D01*
Y191803D01*
X-259263D01*
Y192151D01*
X-259612D01*
Y192500D01*
X-259961D01*
Y192849D01*
X-260309D01*
Y193197D01*
X-260658D01*
Y193895D01*
X-261007D01*
Y194243D01*
X-261355D01*
Y194592D01*
X-261704D01*
Y195289D01*
X-262052D01*
Y195638D01*
X-262401D01*
Y195986D01*
X-262750D01*
Y196684D01*
X-263099D01*
Y197033D01*
X-263447D01*
Y197730D01*
X-263796D01*
Y198427D01*
X-264144D01*
Y198776D01*
X-264493D01*
Y199473D01*
X-264842D01*
Y200519D01*
X-265190D01*
Y200868D01*
X-265539D01*
Y201565D01*
X-265888D01*
Y202611D01*
X-266236D01*
Y203308D01*
X-266585D01*
Y203657D01*
X-266934D01*
Y204703D01*
X-267282D01*
Y205051D01*
X-267631D01*
Y205749D01*
X-267980D01*
Y206446D01*
X-268328D01*
Y207143D01*
X-268677D01*
Y207492D01*
X-269026D01*
Y208538D01*
X-269374D01*
Y208887D01*
X-269723D01*
Y209584D01*
X-270072D01*
Y210281D01*
X-270420D01*
Y210979D01*
X-270769D01*
Y211327D01*
X-271117D01*
Y212025D01*
X-271466D01*
Y213071D01*
X-271815D01*
Y213419D01*
X-272164D01*
Y214465D01*
X-272512D01*
Y215163D01*
X-272861D01*
Y215860D01*
X-273209D01*
Y216906D01*
X-273558D01*
Y217603D01*
X-273907D01*
Y218300D01*
X-274255D01*
Y219346D01*
X-274604D01*
Y220044D01*
X-274953D01*
Y220741D01*
X-275301D01*
Y221787D01*
X-275650D01*
Y222136D01*
X-275999D01*
Y222833D01*
X-276347D01*
Y223879D01*
X-276696D01*
Y224576D01*
X-277045D01*
Y225273D01*
X-277393D01*
Y226319D01*
X-277742D01*
Y226668D01*
X-278091D01*
Y227365D01*
X-278439D01*
Y228411D01*
X-278788D01*
Y229109D01*
X-279137D01*
Y229806D01*
X-279485D01*
Y230503D01*
X-279834D01*
Y231201D01*
X-280182D01*
Y231549D01*
X-280531D01*
Y232595D01*
X-280880D01*
Y232944D01*
X-281229D01*
Y233641D01*
X-281577D01*
Y234338D01*
X-281926D01*
Y234687D01*
X-282274D01*
Y235036D01*
X-282623D01*
Y235733D01*
X-282972D01*
Y236082D01*
X-283320D01*
Y236430D01*
X-283669D01*
Y236779D01*
X-284018D01*
Y237128D01*
X-284366D01*
Y237476D01*
X-284715D01*
Y237825D01*
X-285412D01*
Y238174D01*
X-286110D01*
Y238522D01*
X-286458D01*
Y238871D01*
X-287156D01*
Y239220D01*
X-287853D01*
Y239568D01*
X-288550D01*
Y239917D01*
X-289247D01*
Y240266D01*
X-289945D01*
Y240614D01*
X-290642D01*
Y240963D01*
X-291688D01*
Y241312D01*
X-292385D01*
Y241660D01*
X-293083D01*
Y242009D01*
X-294129D01*
Y242358D01*
X-294826D01*
Y242706D01*
X-295175D01*
Y243055D01*
X-295523D01*
Y243403D01*
X-295872D01*
Y243752D01*
X-296221D01*
Y244101D01*
X-296569D01*
Y244449D01*
X-296918D01*
Y245147D01*
X-297267D01*
Y248982D01*
X-296918D01*
Y249679D01*
X-296569D01*
Y250028D01*
X-296221D01*
Y250725D01*
X-295872D01*
Y251074D01*
X-294826D01*
Y251771D01*
X-294129D01*
Y252120D01*
X-293083D01*
Y252468D01*
X-291688D01*
Y252817D01*
X-286458D01*
Y252468D01*
X-285412D01*
Y252120D01*
X-284018D01*
Y251771D01*
X-282972D01*
Y251423D01*
X-282623D01*
Y251074D01*
X-281229D01*
Y250725D01*
X-280880D01*
Y250376D01*
X-280182D01*
Y250028D01*
X-279485D01*
Y249679D01*
X-279137D01*
Y249331D01*
X-278439D01*
Y248982D01*
X-277742D01*
Y248633D01*
X-277393D01*
Y248285D01*
X-277045D01*
Y247936D01*
X-276347D01*
Y247587D01*
X-275999D01*
Y247239D01*
X-275650D01*
Y246890D01*
X-274953D01*
Y246541D01*
X-274604D01*
Y245844D01*
X-273907D01*
Y245495D01*
X-273558D01*
Y244798D01*
X-272861D01*
Y244449D01*
X-272512D01*
Y243752D01*
X-271815D01*
Y243055D01*
X-271466D01*
Y242706D01*
X-271117D01*
Y242358D01*
X-270769D01*
Y241660D01*
X-270420D01*
Y241312D01*
X-270072D01*
Y240963D01*
X-269723D01*
Y240614D01*
X-269374D01*
Y239917D01*
X-269026D01*
Y239568D01*
X-268677D01*
Y238871D01*
X-268328D01*
Y238174D01*
X-267980D01*
Y237825D01*
X-267631D01*
Y237476D01*
X-267282D01*
Y236779D01*
X-266934D01*
Y236430D01*
X-266585D01*
Y236082D01*
X-266236D01*
Y235384D01*
X-265539D01*
Y234687D01*
X-265190D01*
Y234338D01*
X-264842D01*
Y233641D01*
X-264493D01*
Y233293D01*
X-264144D01*
Y232944D01*
X-263796D01*
Y232246D01*
X-263447D01*
Y231898D01*
X-263099D01*
Y231201D01*
X-262401D01*
Y230852D01*
X-262052D01*
Y230155D01*
X-261704D01*
Y229806D01*
X-261355D01*
Y229457D01*
X-261007D01*
Y228760D01*
X-260658D01*
Y228411D01*
X-260309D01*
Y228063D01*
X-259961D01*
Y227714D01*
X-259612D01*
Y227365D01*
X-259263D01*
Y227017D01*
X-258915D01*
Y226668D01*
X-258566D01*
Y225971D01*
X-257869D01*
Y225273D01*
X-257520D01*
Y224925D01*
X-256823D01*
Y224228D01*
X-256474D01*
Y223879D01*
X-256125D01*
Y223530D01*
X-255777D01*
Y223181D01*
X-255079D01*
Y222833D01*
X-254731D01*
Y222484D01*
X-254382D01*
Y222136D01*
X-254034D01*
Y221787D01*
X-253685D01*
Y221438D01*
X-252987D01*
Y221090D01*
X-252639D01*
Y220741D01*
X-251942D01*
Y220392D01*
X-251593D01*
Y220044D01*
X-251244D01*
Y219695D01*
X-250547D01*
Y219346D01*
X-250198D01*
Y218998D01*
X-249501D01*
Y218649D01*
X-248804D01*
Y218300D01*
X-248455D01*
Y217952D01*
X-247758D01*
Y217603D01*
X-247060D01*
Y217254D01*
X-246363D01*
Y216906D01*
X-245666D01*
Y216557D01*
X-244620D01*
Y216208D01*
X-243923D01*
Y215860D01*
X-243225D01*
Y215511D01*
X-242528D01*
Y215163D01*
X-240436D01*
Y214814D01*
X-237995D01*
Y215163D01*
X-236949D01*
Y215511D01*
X-236601D01*
Y216208D01*
X-236252D01*
Y217254D01*
X-235903D01*
Y218300D01*
X-236252D01*
Y219346D01*
X-236601D01*
Y220392D01*
X-236949D01*
Y220741D01*
X-237298D01*
Y221090D01*
X-237647D01*
Y221438D01*
X-237995D01*
Y221787D01*
X-238344D01*
Y222136D01*
X-238693D01*
Y222833D01*
X-239041D01*
Y223181D01*
X-239739D01*
Y223879D01*
X-240087D01*
Y224228D01*
X-240785D01*
Y224576D01*
X-241133D01*
Y224925D01*
X-241482D01*
Y225273D01*
X-241831D01*
Y225622D01*
X-242179D01*
Y225971D01*
X-242528D01*
Y226319D01*
X-242877D01*
Y227017D01*
X-243225D01*
Y227365D01*
X-243574D01*
Y227714D01*
X-243923D01*
Y228411D01*
X-244271D01*
Y228760D01*
X-244620D01*
Y229109D01*
X-244968D01*
Y229806D01*
X-245317D01*
Y230155D01*
X-245666D01*
Y230852D01*
X-246014D01*
Y231549D01*
X-246363D01*
Y232246D01*
X-246712D01*
Y232944D01*
X-247060D01*
Y233990D01*
X-247409D01*
Y234687D01*
X-247758D01*
Y235384D01*
X-248106D01*
Y237128D01*
X-248455D01*
Y242358D01*
X-248106D01*
Y244101D01*
X-247758D01*
Y244798D01*
X-247060D01*
Y245147D01*
X-246363D01*
Y245495D01*
X-245317D01*
Y245844D01*
X-242528D01*
Y246193D01*
X-241133D01*
Y246541D01*
X-240785D01*
Y246890D01*
X-239739D01*
Y247239D01*
X-239041D01*
Y247587D01*
X-238693D01*
Y247936D01*
X-237995D01*
Y248285D01*
X-237647D01*
Y248633D01*
X-237298D01*
Y248982D01*
X-236949D01*
Y249331D01*
X-236601D01*
Y250028D01*
X-236252D01*
Y250376D01*
X-235903D01*
Y250725D01*
X-235555D01*
Y251074D01*
X-235206D01*
Y251423D01*
X-234858D01*
Y251771D01*
X-234509D01*
Y252120D01*
X-234160D01*
Y252468D01*
X-233812D01*
Y252817D01*
X-233463D01*
Y253166D01*
X-233114D01*
Y253514D01*
X-232766D01*
Y253863D01*
X-232068D01*
Y254212D01*
X-231720D01*
Y254560D01*
X-231371D01*
Y254909D01*
X-231022D01*
Y255258D01*
X-229976D01*
Y255606D01*
X-229628D01*
Y255955D01*
X-228930D01*
Y256304D01*
X-227884D01*
Y256652D01*
X-227536D01*
Y257001D01*
X-226490D01*
Y257350D01*
X-225444D01*
Y257698D01*
X-224398D01*
Y258047D01*
X-223352D01*
Y258396D01*
X-221260D01*
Y258744D01*
X-213938D01*
Y258396D01*
X-210800D01*
Y258744D01*
X-210452D01*
Y259093D01*
X-209754D01*
Y259442D01*
X-209057D01*
Y259790D01*
X-208360D01*
Y260139D01*
X-208011D01*
Y260487D01*
X-207314D01*
Y260836D01*
X-206617D01*
Y261185D01*
X-206268D01*
Y261534D01*
X-205571D01*
Y261882D01*
X-204873D01*
Y262231D01*
X-204525D01*
Y262579D01*
X-203827D01*
Y262928D01*
X-203130D01*
Y263277D01*
X-202781D01*
Y263625D01*
X-202084D01*
Y263974D01*
X-201387D01*
Y264323D01*
X-201038D01*
Y264671D01*
X-200341D01*
Y265020D01*
X-199643D01*
Y265369D01*
X-199295D01*
Y265717D01*
X-198598D01*
Y266066D01*
X-197900D01*
Y266415D01*
X-197203D01*
Y266763D01*
X-196157D01*
Y266066D01*
D02*
G37*
G36*
X-310864Y257350D02*
X-309121D01*
Y257001D01*
X-307726D01*
Y256652D01*
X-306332D01*
Y256304D01*
X-305634D01*
Y255955D01*
X-305286D01*
Y255606D01*
X-304937D01*
Y255258D01*
X-304588D01*
Y254212D01*
X-304240D01*
Y245844D01*
X-303891D01*
Y236779D01*
X-303542D01*
Y236430D01*
X-289247D01*
Y236082D01*
X-287853D01*
Y235733D01*
X-286110D01*
Y235384D01*
X-285412D01*
Y235036D01*
X-284715D01*
Y234687D01*
X-284366D01*
Y233990D01*
X-284018D01*
Y232944D01*
X-283669D01*
Y222136D01*
X-283320D01*
Y219695D01*
X-282972D01*
Y215860D01*
X-283320D01*
Y215511D01*
X-283669D01*
Y214465D01*
X-284018D01*
Y214116D01*
X-284366D01*
Y213768D01*
X-285064D01*
Y213419D01*
X-285412D01*
Y213071D01*
X-284715D01*
Y212722D01*
X-284018D01*
Y212373D01*
X-283669D01*
Y211676D01*
X-283320D01*
Y210630D01*
X-282972D01*
Y199822D01*
X-282623D01*
Y197381D01*
X-282274D01*
Y195289D01*
Y194941D01*
Y193546D01*
X-282623D01*
Y193197D01*
X-282972D01*
Y192151D01*
X-283320D01*
Y191803D01*
X-283669D01*
Y191454D01*
X-284366D01*
Y191105D01*
X-286110D01*
Y190757D01*
X-301799D01*
Y191105D01*
X-303542D01*
Y191454D01*
X-304588D01*
Y191105D01*
X-305983D01*
Y190757D01*
X-322021D01*
Y191105D01*
X-323764D01*
Y191454D01*
X-325159D01*
Y191105D01*
X-343986D01*
Y191454D01*
X-344683D01*
Y191803D01*
X-345032D01*
Y192151D01*
X-345381D01*
Y192500D01*
X-345729D01*
Y193197D01*
X-346078D01*
Y194941D01*
X-346427D01*
Y195986D01*
X-346775D01*
Y197730D01*
X-347124D01*
Y212025D01*
X-346775D01*
Y213071D01*
X-346427D01*
Y213419D01*
X-346078D01*
Y213768D01*
X-345729D01*
Y214465D01*
X-346078D01*
Y214814D01*
X-346427D01*
Y215511D01*
X-346775D01*
Y217254D01*
X-347124D01*
Y218300D01*
X-347473D01*
Y220044D01*
X-347821D01*
Y234338D01*
X-347473D01*
Y235384D01*
X-347124D01*
Y235733D01*
X-346775D01*
Y236082D01*
X-346427D01*
Y236430D01*
X-333527D01*
Y236779D01*
X-333178D01*
Y236430D01*
X-329691D01*
Y236082D01*
X-328297D01*
Y235733D01*
X-326553D01*
Y237825D01*
X-326902D01*
Y239220D01*
X-327251D01*
Y240963D01*
X-327599D01*
Y255606D01*
X-327251D01*
Y256304D01*
X-326902D01*
Y257001D01*
X-326205D01*
Y257350D01*
X-325159D01*
Y257698D01*
X-310864D01*
Y257350D01*
D02*
G37*
G36*
X-281577Y190408D02*
X-281926D01*
Y190757D01*
X-281577D01*
Y190408D01*
D02*
G37*
G36*
X-1241422Y-237493D02*
X-1241225D01*
X-1240719Y-237521D01*
X-1240184Y-237578D01*
X-1239622Y-237690D01*
X-1239060Y-237803D01*
X-1238554Y-237971D01*
X-1238525D01*
X-1238469Y-237999D01*
X-1238385Y-238056D01*
X-1238244Y-238112D01*
X-1237935Y-238281D01*
X-1237570Y-238534D01*
X-1237232Y-238871D01*
X-1236923Y-239293D01*
X-1236782Y-239546D01*
X-1236698Y-239799D01*
X-1236642Y-240080D01*
X-1236613Y-240389D01*
Y-240418D01*
Y-240502D01*
X-1236642Y-240643D01*
X-1236698Y-240839D01*
X-1236754Y-241036D01*
X-1236867Y-241261D01*
X-1237007Y-241486D01*
X-1237204Y-241711D01*
X-1237232Y-241739D01*
X-1237288Y-241795D01*
X-1237401Y-241880D01*
X-1237541Y-241992D01*
X-1237879Y-242217D01*
X-1238047Y-242273D01*
X-1238216Y-242330D01*
X-1238441D01*
X-1238666Y-242358D01*
X-1239004D01*
X-1239116Y-242330D01*
X-1239397Y-242273D01*
X-1239706Y-242189D01*
X-1239734D01*
X-1239763Y-242133D01*
X-1239903Y-242020D01*
X-1240044Y-241852D01*
X-1240072Y-241739D01*
X-1240100Y-241655D01*
Y-241627D01*
X-1240072Y-241514D01*
X-1239988Y-241346D01*
X-1239847Y-241177D01*
X-1239819Y-241149D01*
X-1239763Y-241064D01*
X-1239678Y-240924D01*
X-1239594Y-240783D01*
X-1239566Y-240755D01*
X-1239538Y-240643D01*
X-1239510Y-240474D01*
X-1239482Y-240305D01*
Y-240277D01*
Y-240193D01*
X-1239510Y-240080D01*
X-1239566Y-239940D01*
X-1239678Y-239771D01*
X-1239819Y-239602D01*
X-1240016Y-239433D01*
X-1240269Y-239293D01*
X-1240297Y-239265D01*
X-1240381Y-239237D01*
X-1240550Y-239180D01*
X-1240747Y-239124D01*
X-1241028Y-239068D01*
X-1241337Y-239012D01*
X-1241675Y-238955D01*
X-1242378D01*
X-1242518Y-238984D01*
X-1242715D01*
X-1243137Y-239040D01*
X-1243615Y-239096D01*
X-1244121Y-239209D01*
X-1244599Y-239349D01*
X-1245077Y-239546D01*
X-1245133Y-239574D01*
X-1245274Y-239658D01*
X-1245499Y-239799D01*
X-1245724Y-239996D01*
X-1245977Y-240249D01*
X-1246202Y-240530D01*
X-1246342Y-240896D01*
X-1246370Y-241092D01*
X-1246398Y-241289D01*
Y-241317D01*
X-1246370Y-241430D01*
X-1246342Y-241598D01*
X-1246286Y-241795D01*
X-1246173Y-242048D01*
X-1246005Y-242302D01*
X-1245752Y-242554D01*
X-1245442Y-242836D01*
X-1245414Y-242864D01*
X-1245302Y-242948D01*
X-1245105Y-243061D01*
X-1244824Y-243229D01*
X-1244458Y-243426D01*
X-1244008Y-243679D01*
X-1243446Y-243932D01*
X-1242799Y-244242D01*
X-1242771D01*
X-1242659Y-244298D01*
X-1242518Y-244354D01*
X-1242321Y-244438D01*
X-1242096Y-244551D01*
X-1241815Y-244663D01*
X-1241225Y-244916D01*
X-1240606Y-245198D01*
X-1240016Y-245479D01*
X-1239734Y-245591D01*
X-1239510Y-245704D01*
X-1239313Y-245788D01*
X-1239172Y-245872D01*
X-1239144D01*
X-1239060Y-245929D01*
X-1238947Y-245985D01*
X-1238779Y-246069D01*
X-1238610Y-246182D01*
X-1238385Y-246294D01*
X-1237851Y-246632D01*
X-1237260Y-247025D01*
X-1236642Y-247503D01*
X-1236023Y-248037D01*
X-1235433Y-248628D01*
X-1235404D01*
X-1235348Y-248656D01*
X-1235264Y-248712D01*
X-1235151Y-248769D01*
X-1234870Y-248937D01*
X-1234505Y-249218D01*
X-1234083Y-249556D01*
X-1233689Y-249978D01*
X-1233267Y-250484D01*
X-1232930Y-251074D01*
Y-251102D01*
X-1232874Y-251159D01*
X-1232846Y-251271D01*
X-1232761Y-251440D01*
X-1232705Y-251609D01*
X-1232621Y-251861D01*
X-1232536Y-252115D01*
X-1232424Y-252424D01*
X-1232339Y-252761D01*
X-1232255Y-253099D01*
X-1232171Y-253492D01*
X-1232086Y-253914D01*
X-1231974Y-254842D01*
X-1231946Y-255826D01*
Y-255882D01*
Y-255995D01*
X-1231974Y-256220D01*
X-1232002Y-256501D01*
X-1232058Y-256838D01*
X-1232115Y-257232D01*
X-1232227Y-257682D01*
X-1232368Y-258188D01*
X-1232564Y-258694D01*
X-1232789Y-259228D01*
X-1233043Y-259791D01*
X-1233380Y-260353D01*
X-1233774Y-260916D01*
X-1234223Y-261478D01*
X-1234758Y-262012D01*
X-1235348Y-262518D01*
X-1235376Y-262546D01*
X-1235489Y-262631D01*
X-1235657Y-262743D01*
X-1235910Y-262912D01*
X-1236192Y-263081D01*
X-1236557Y-263305D01*
X-1236979Y-263530D01*
X-1237457Y-263755D01*
X-1237963Y-263980D01*
X-1238525Y-264205D01*
X-1239144Y-264430D01*
X-1239819Y-264599D01*
X-1240494Y-264768D01*
X-1241225Y-264880D01*
X-1242012Y-264964D01*
X-1242799Y-264993D01*
X-1243193D01*
X-1243446Y-264964D01*
X-1243783Y-264936D01*
X-1244177Y-264880D01*
X-1244627Y-264824D01*
X-1245105Y-264768D01*
X-1245611Y-264655D01*
X-1246145Y-264543D01*
X-1246708Y-264374D01*
X-1247270Y-264205D01*
X-1247832Y-263980D01*
X-1248367Y-263727D01*
X-1248901Y-263446D01*
X-1249435Y-263109D01*
X-1249463Y-263081D01*
X-1249576Y-262996D01*
X-1249716Y-262884D01*
X-1249913Y-262715D01*
X-1250138Y-262490D01*
X-1250391Y-262237D01*
X-1250672Y-261928D01*
X-1250954Y-261562D01*
X-1251263Y-261168D01*
X-1251516Y-260719D01*
X-1251797Y-260241D01*
X-1252022Y-259706D01*
X-1252219Y-259144D01*
X-1252359Y-258525D01*
X-1252472Y-257879D01*
X-1252500Y-257204D01*
Y-257176D01*
Y-257091D01*
X-1252472Y-256951D01*
Y-256754D01*
X-1252444Y-256529D01*
X-1252387Y-256276D01*
X-1252331Y-255995D01*
X-1252219Y-255657D01*
X-1252106Y-255320D01*
X-1251966Y-254954D01*
X-1251797Y-254589D01*
X-1251600Y-254195D01*
X-1251347Y-253830D01*
X-1251066Y-253436D01*
X-1250729Y-253071D01*
X-1250363Y-252705D01*
X-1250335Y-252677D01*
X-1250251Y-252621D01*
X-1250138Y-252536D01*
X-1249969Y-252396D01*
X-1249773Y-252255D01*
X-1249520Y-252115D01*
X-1249238Y-251946D01*
X-1248929Y-251749D01*
X-1248564Y-251580D01*
X-1248170Y-251412D01*
X-1247748Y-251271D01*
X-1247298Y-251102D01*
X-1246820Y-250990D01*
X-1246314Y-250905D01*
X-1245780Y-250849D01*
X-1245246Y-250821D01*
X-1244964D01*
X-1244768Y-250849D01*
X-1244515D01*
X-1244233Y-250877D01*
X-1243924Y-250905D01*
X-1243587Y-250962D01*
X-1242856Y-251102D01*
X-1242068Y-251299D01*
X-1241281Y-251580D01*
X-1240578Y-251946D01*
X-1240550Y-251974D01*
X-1240494Y-252002D01*
X-1240381Y-252087D01*
X-1240241Y-252199D01*
X-1240072Y-252311D01*
X-1239903Y-252480D01*
X-1239706Y-252677D01*
X-1239510Y-252902D01*
X-1239116Y-253436D01*
X-1238779Y-254055D01*
X-1238638Y-254420D01*
X-1238525Y-254786D01*
X-1238469Y-255208D01*
X-1238441Y-255629D01*
Y-255657D01*
Y-255714D01*
Y-255798D01*
X-1238469Y-255910D01*
X-1238525Y-256248D01*
X-1238610Y-256670D01*
X-1238779Y-257120D01*
X-1239032Y-257598D01*
X-1239200Y-257851D01*
X-1239397Y-258104D01*
X-1239622Y-258329D01*
X-1239875Y-258554D01*
X-1239903D01*
X-1239931Y-258610D01*
X-1240016Y-258666D01*
X-1240128Y-258722D01*
X-1240409Y-258919D01*
X-1240803Y-259116D01*
X-1241281Y-259341D01*
X-1241843Y-259538D01*
X-1242462Y-259650D01*
X-1243137Y-259706D01*
X-1243418D01*
X-1243727Y-259678D01*
X-1244093Y-259622D01*
X-1244543Y-259566D01*
X-1245021Y-259453D01*
X-1245471Y-259285D01*
X-1245920Y-259088D01*
X-1245949D01*
X-1245977Y-259060D01*
X-1246145Y-258947D01*
X-1246370Y-258750D01*
X-1246652Y-258497D01*
X-1246933Y-258160D01*
X-1247158Y-257766D01*
X-1247326Y-257288D01*
X-1247355Y-257035D01*
X-1247383Y-256754D01*
Y-256726D01*
Y-256585D01*
X-1247355Y-256417D01*
X-1247298Y-256220D01*
X-1247186Y-255967D01*
X-1247073Y-255714D01*
X-1246876Y-255461D01*
X-1246623Y-255208D01*
X-1246595Y-255179D01*
X-1246511Y-255123D01*
X-1246398Y-255039D01*
X-1246258Y-254954D01*
X-1245920Y-254786D01*
X-1245752Y-254701D01*
X-1245583Y-254673D01*
X-1245499D01*
X-1245358Y-254645D01*
X-1245189Y-254617D01*
X-1245105Y-254589D01*
X-1244993D01*
X-1244796Y-254645D01*
X-1244683Y-254729D01*
X-1244599Y-254814D01*
X-1244543Y-254954D01*
X-1244515Y-255123D01*
Y-255151D01*
X-1244571Y-255236D01*
X-1244627Y-255461D01*
X-1244655Y-255489D01*
Y-255545D01*
X-1244683Y-255629D01*
Y-255686D01*
X-1244711Y-255826D01*
X-1244740Y-256051D01*
X-1244768Y-256332D01*
Y-256360D01*
Y-256388D01*
X-1244711Y-256557D01*
X-1244655Y-256670D01*
X-1244599Y-256782D01*
X-1244486Y-256923D01*
X-1244346Y-257035D01*
X-1244318D01*
X-1244261Y-257091D01*
X-1244177Y-257120D01*
X-1244037Y-257176D01*
X-1243727Y-257288D01*
X-1243530Y-257316D01*
X-1243334Y-257344D01*
X-1243165D01*
X-1242996Y-257316D01*
X-1242771Y-257260D01*
X-1242518Y-257204D01*
X-1242265Y-257120D01*
X-1241984Y-256979D01*
X-1241731Y-256782D01*
X-1241703Y-256754D01*
X-1241618Y-256670D01*
X-1241534Y-256557D01*
X-1241394Y-256388D01*
X-1241281Y-256164D01*
X-1241197Y-255910D01*
X-1241112Y-255629D01*
X-1241084Y-255320D01*
Y-255292D01*
Y-255264D01*
X-1241112Y-255095D01*
X-1241140Y-254870D01*
X-1241253Y-254561D01*
X-1241394Y-254223D01*
X-1241646Y-253886D01*
X-1241956Y-253549D01*
X-1242181Y-253380D01*
X-1242406Y-253239D01*
X-1242462Y-253211D01*
X-1242631Y-253127D01*
X-1242884Y-253014D01*
X-1243249Y-252874D01*
X-1243671Y-252761D01*
X-1244177Y-252649D01*
X-1244768Y-252565D01*
X-1245386Y-252536D01*
X-1245611D01*
X-1245752Y-252565D01*
X-1245949D01*
X-1246173Y-252593D01*
X-1246708Y-252705D01*
X-1247298Y-252846D01*
X-1247945Y-253099D01*
X-1248592Y-253408D01*
X-1248901Y-253633D01*
X-1249210Y-253858D01*
X-1249238Y-253886D01*
X-1249295Y-253914D01*
X-1249351Y-253999D01*
X-1249463Y-254111D01*
X-1249744Y-254392D01*
X-1250026Y-254786D01*
X-1250335Y-255264D01*
X-1250616Y-255826D01*
X-1250729Y-256164D01*
X-1250785Y-256473D01*
X-1250841Y-256838D01*
X-1250869Y-257204D01*
Y-257232D01*
Y-257316D01*
X-1250841Y-257457D01*
Y-257654D01*
X-1250785Y-257879D01*
X-1250729Y-258132D01*
X-1250644Y-258413D01*
X-1250560Y-258750D01*
X-1250419Y-259060D01*
X-1250251Y-259425D01*
X-1250054Y-259763D01*
X-1249801Y-260128D01*
X-1249520Y-260494D01*
X-1249182Y-260831D01*
X-1248789Y-261168D01*
X-1248339Y-261478D01*
X-1248310Y-261506D01*
X-1248226Y-261534D01*
X-1248114Y-261618D01*
X-1247917Y-261703D01*
X-1247692Y-261815D01*
X-1247439Y-261928D01*
X-1247101Y-262068D01*
X-1246764Y-262209D01*
X-1246370Y-262349D01*
X-1245949Y-262490D01*
X-1245499Y-262603D01*
X-1244993Y-262715D01*
X-1244458Y-262799D01*
X-1243924Y-262884D01*
X-1243334Y-262912D01*
X-1242743Y-262940D01*
X-1242602D01*
X-1242434Y-262912D01*
X-1242209D01*
X-1241928Y-262884D01*
X-1241590Y-262827D01*
X-1241225Y-262771D01*
X-1240803Y-262687D01*
X-1240381Y-262574D01*
X-1239931Y-262434D01*
X-1239482Y-262293D01*
X-1239004Y-262096D01*
X-1238525Y-261843D01*
X-1238047Y-261590D01*
X-1237570Y-261281D01*
X-1237120Y-260916D01*
X-1237092Y-260887D01*
X-1237007Y-260831D01*
X-1236895Y-260690D01*
X-1236754Y-260550D01*
X-1236557Y-260325D01*
X-1236360Y-260100D01*
X-1236135Y-259819D01*
X-1235910Y-259481D01*
X-1235686Y-259116D01*
X-1235461Y-258750D01*
X-1235264Y-258300D01*
X-1235067Y-257851D01*
X-1234926Y-257373D01*
X-1234814Y-256838D01*
X-1234730Y-256304D01*
X-1234701Y-255742D01*
Y-255714D01*
Y-255657D01*
Y-255573D01*
Y-255461D01*
X-1234730Y-255151D01*
X-1234786Y-254758D01*
X-1234898Y-254308D01*
X-1235039Y-253830D01*
X-1235236Y-253324D01*
X-1235489Y-252846D01*
X-1235517Y-252789D01*
X-1235601Y-252649D01*
X-1235742Y-252452D01*
X-1235939Y-252171D01*
X-1236164Y-251861D01*
X-1236445Y-251524D01*
X-1237035Y-250793D01*
X-1237063D01*
X-1237120Y-250765D01*
X-1237204Y-250709D01*
X-1237316Y-250653D01*
X-1237485Y-250568D01*
X-1237654Y-250484D01*
X-1238104Y-250259D01*
X-1238666Y-249978D01*
X-1239285Y-249640D01*
X-1239988Y-249275D01*
X-1240747Y-248881D01*
X-1240775Y-248853D01*
X-1240859Y-248825D01*
X-1241028Y-248769D01*
X-1241225Y-248656D01*
X-1241450Y-248544D01*
X-1241759Y-248403D01*
X-1242096Y-248262D01*
X-1242462Y-248094D01*
X-1242856Y-247897D01*
X-1243277Y-247700D01*
X-1244205Y-247250D01*
X-1245189Y-246772D01*
X-1246230Y-246294D01*
X-1246258Y-246266D01*
X-1246342Y-246210D01*
X-1246483Y-246126D01*
X-1246680Y-245985D01*
X-1246905Y-245816D01*
X-1247130Y-245619D01*
X-1247383Y-245394D01*
X-1247664Y-245141D01*
X-1247917Y-244860D01*
X-1248198Y-244551D01*
X-1248423Y-244214D01*
X-1248648Y-243848D01*
X-1248845Y-243454D01*
X-1248985Y-243061D01*
X-1249070Y-242639D01*
X-1249098Y-242189D01*
Y-242161D01*
Y-242076D01*
X-1249070Y-241964D01*
Y-241795D01*
X-1249013Y-241598D01*
X-1248985Y-241374D01*
X-1248789Y-240868D01*
X-1248676Y-240586D01*
X-1248507Y-240277D01*
X-1248339Y-239968D01*
X-1248114Y-239687D01*
X-1247832Y-239377D01*
X-1247523Y-239096D01*
X-1247158Y-238815D01*
X-1246736Y-238562D01*
X-1246708D01*
X-1246652Y-238506D01*
X-1246539Y-238449D01*
X-1246370Y-238393D01*
X-1246202Y-238309D01*
X-1245977Y-238224D01*
X-1245695Y-238112D01*
X-1245386Y-237999D01*
X-1245077Y-237915D01*
X-1244711Y-237803D01*
X-1244318Y-237718D01*
X-1243896Y-237634D01*
X-1242968Y-237521D01*
X-1241956Y-237465D01*
X-1241590D01*
X-1241422Y-237493D01*
D02*
G37*
G36*
X-1193087Y-239293D02*
X-1192890Y-239349D01*
X-1192665Y-239405D01*
X-1192440Y-239518D01*
X-1192215Y-239687D01*
X-1191991Y-239883D01*
X-1191962Y-239911D01*
X-1191906Y-239996D01*
X-1191794Y-240108D01*
X-1191681Y-240277D01*
X-1191597Y-240502D01*
X-1191484Y-240727D01*
X-1191428Y-241008D01*
X-1191400Y-241289D01*
Y-241317D01*
Y-241430D01*
X-1191428Y-241570D01*
X-1191484Y-241767D01*
X-1191541Y-241992D01*
X-1191653Y-242217D01*
X-1191822Y-242442D01*
X-1192019Y-242667D01*
X-1192047Y-242695D01*
X-1192131Y-242751D01*
X-1192244Y-242836D01*
X-1192412Y-242948D01*
X-1192637Y-243061D01*
X-1192862Y-243145D01*
X-1193143Y-243201D01*
X-1193453Y-243229D01*
X-1193593D01*
X-1193734Y-243201D01*
X-1193931Y-243145D01*
X-1194156Y-243089D01*
X-1194380Y-242976D01*
X-1194605Y-242836D01*
X-1194830Y-242639D01*
X-1194858Y-242611D01*
X-1194915Y-242526D01*
X-1194999Y-242414D01*
X-1195112Y-242245D01*
X-1195224Y-242048D01*
X-1195308Y-241795D01*
X-1195365Y-241514D01*
X-1195393Y-241233D01*
Y-241205D01*
Y-241092D01*
X-1195365Y-240952D01*
X-1195308Y-240755D01*
X-1195252Y-240530D01*
X-1195140Y-240305D01*
X-1194999Y-240080D01*
X-1194802Y-239855D01*
X-1194774Y-239827D01*
X-1194690Y-239771D01*
X-1194549Y-239658D01*
X-1194380Y-239546D01*
X-1194184Y-239462D01*
X-1193931Y-239349D01*
X-1193650Y-239293D01*
X-1193368Y-239265D01*
X-1193228D01*
X-1193087Y-239293D01*
D02*
G37*
G36*
X-1181615Y-239574D02*
X-1181503Y-239630D01*
X-1181390Y-239715D01*
X-1181306Y-239827D01*
X-1181249Y-239968D01*
X-1181221Y-240193D01*
Y-240221D01*
Y-240277D01*
X-1181249Y-240389D01*
X-1181278Y-240530D01*
X-1181306Y-240868D01*
X-1181362Y-241233D01*
Y-241289D01*
Y-241430D01*
X-1181390Y-241627D01*
Y-241908D01*
X-1181418Y-242273D01*
Y-242667D01*
X-1181446Y-243089D01*
Y-243539D01*
Y-246210D01*
X-1180406D01*
X-1180265Y-246182D01*
X-1180097D01*
X-1179872Y-246154D01*
X-1179647D01*
X-1179366Y-246126D01*
X-1179281D01*
X-1179169Y-246154D01*
X-1179056Y-246210D01*
X-1178972Y-246294D01*
X-1178859Y-246407D01*
X-1178803Y-246547D01*
X-1178775Y-246772D01*
Y-247391D01*
Y-247419D01*
Y-247503D01*
X-1178803Y-247616D01*
X-1178859Y-247728D01*
X-1178944Y-247841D01*
X-1179056Y-247953D01*
X-1179225Y-248037D01*
X-1179450Y-248066D01*
X-1179900D01*
X-1180097Y-248037D01*
X-1180631D01*
X-1180800Y-248009D01*
X-1181446D01*
Y-259734D01*
Y-259791D01*
Y-259931D01*
X-1181418Y-260156D01*
X-1181362Y-260438D01*
X-1181306Y-260747D01*
X-1181193Y-261084D01*
X-1181025Y-261422D01*
X-1180828Y-261731D01*
X-1180771Y-261787D01*
X-1180715Y-261843D01*
X-1180631Y-261928D01*
X-1180490Y-262040D01*
X-1180322Y-262209D01*
X-1180125Y-262406D01*
X-1179844Y-262631D01*
X-1179816D01*
X-1179787Y-262659D01*
X-1179675Y-262771D01*
X-1179562Y-262940D01*
X-1179506Y-263052D01*
Y-263165D01*
Y-263221D01*
X-1179534Y-263334D01*
X-1179591Y-263502D01*
X-1179731Y-263643D01*
X-1179759Y-263671D01*
X-1179872Y-263727D01*
X-1180012Y-263812D01*
X-1180181Y-263896D01*
X-1180209Y-263924D01*
X-1180294Y-263980D01*
X-1180406Y-264065D01*
X-1180518Y-264177D01*
X-1180547Y-264205D01*
X-1180603Y-264233D01*
X-1180771Y-264402D01*
X-1180968Y-264599D01*
X-1181137Y-264768D01*
X-1181193Y-264824D01*
X-1181306Y-264908D01*
X-1181474Y-264993D01*
X-1181699Y-265049D01*
X-1181728D01*
X-1181840Y-265021D01*
X-1182009Y-264993D01*
X-1182149Y-264908D01*
X-1182177Y-264880D01*
X-1182290Y-264824D01*
X-1182459Y-264683D01*
X-1182683Y-264515D01*
X-1182908Y-264318D01*
X-1183190Y-264037D01*
X-1183443Y-263699D01*
X-1183696Y-263305D01*
Y-263277D01*
X-1183724Y-263221D01*
X-1183780Y-263137D01*
X-1183836Y-263024D01*
X-1183893Y-262884D01*
X-1183977Y-262687D01*
X-1184061Y-262490D01*
X-1184118Y-262237D01*
X-1184286Y-261703D01*
X-1184427Y-261056D01*
X-1184539Y-260325D01*
X-1184567Y-259538D01*
Y-248009D01*
X-1184961D01*
X-1185102Y-248037D01*
X-1185608D01*
X-1185973Y-248066D01*
X-1186479D01*
X-1186564Y-248037D01*
X-1186676Y-247981D01*
X-1186817Y-247897D01*
X-1186901Y-247784D01*
X-1186985Y-247616D01*
X-1187014Y-247391D01*
Y-246800D01*
Y-246772D01*
Y-246688D01*
X-1186985Y-246575D01*
X-1186929Y-246463D01*
X-1186845Y-246350D01*
X-1186704Y-246238D01*
X-1186536Y-246154D01*
X-1186311Y-246126D01*
X-1186142D01*
X-1186001Y-246154D01*
X-1185833D01*
X-1185608Y-246182D01*
X-1185214D01*
X-1184849Y-246210D01*
X-1184567D01*
Y-245198D01*
Y-245170D01*
Y-245085D01*
Y-244944D01*
X-1184595Y-244804D01*
Y-244663D01*
X-1184624Y-244523D01*
X-1184652Y-244438D01*
X-1184708Y-244382D01*
X-1184764D01*
X-1184877Y-244354D01*
X-1185214D01*
X-1185298Y-244326D01*
X-1185411Y-244270D01*
X-1185523Y-244185D01*
X-1185608Y-244073D01*
X-1185664Y-243904D01*
X-1185692Y-243679D01*
Y-243623D01*
X-1185664Y-243539D01*
X-1185608Y-243370D01*
X-1185523Y-243229D01*
X-1185495Y-243201D01*
X-1185439Y-243173D01*
X-1185355Y-243089D01*
X-1185242Y-242976D01*
X-1184989Y-242751D01*
X-1184708Y-242498D01*
X-1184680Y-242470D01*
X-1184652Y-242442D01*
X-1184567Y-242358D01*
X-1184455Y-242245D01*
X-1184146Y-241964D01*
X-1183752Y-241570D01*
X-1183724Y-241542D01*
X-1183668Y-241458D01*
X-1183555Y-241374D01*
X-1183415Y-241233D01*
X-1183133Y-240896D01*
X-1182852Y-240586D01*
X-1182824Y-240558D01*
X-1182796Y-240502D01*
X-1182655Y-240333D01*
X-1182459Y-240080D01*
X-1182262Y-239827D01*
X-1182234Y-239771D01*
X-1182149Y-239687D01*
X-1181981Y-239602D01*
X-1181784Y-239546D01*
X-1181699D01*
X-1181615Y-239574D01*
D02*
G37*
G36*
X-1170452Y-237212D02*
X-1170340Y-237297D01*
X-1170255Y-237381D01*
X-1170199Y-237521D01*
X-1170171Y-237690D01*
Y-237746D01*
X-1170199Y-237859D01*
X-1170227Y-237999D01*
X-1170340Y-238168D01*
X-1170368Y-238196D01*
X-1170396Y-238253D01*
X-1170480Y-238337D01*
X-1170565Y-238449D01*
X-1170733Y-238702D01*
X-1170874Y-238927D01*
Y-238955D01*
X-1170902Y-239012D01*
X-1170958Y-239124D01*
X-1170986Y-239293D01*
X-1171043Y-239462D01*
X-1171099Y-239658D01*
X-1171127Y-240108D01*
Y-257148D01*
Y-257176D01*
Y-257232D01*
X-1171155Y-257316D01*
X-1171183Y-257429D01*
X-1171240Y-257569D01*
X-1171352Y-257710D01*
X-1171464Y-257851D01*
X-1171633Y-257963D01*
X-1172449Y-258329D01*
X-1172477Y-258357D01*
X-1172589Y-258441D01*
X-1172758Y-258554D01*
X-1172983Y-258694D01*
X-1173039Y-258722D01*
X-1173152Y-258778D01*
X-1173320Y-258863D01*
X-1173489Y-258947D01*
X-1173517D01*
X-1173602Y-258975D01*
X-1173742Y-259003D01*
X-1173967D01*
X-1174051Y-258975D01*
X-1174136Y-258919D01*
X-1174248Y-258863D01*
X-1174333Y-258750D01*
X-1174389Y-258582D01*
X-1174417Y-258385D01*
Y-241711D01*
Y-241683D01*
Y-241655D01*
X-1174445Y-241486D01*
X-1174473Y-241317D01*
X-1174586Y-241177D01*
X-1174614Y-241149D01*
X-1174670Y-241120D01*
X-1174810Y-241064D01*
X-1174923Y-241036D01*
X-1175064Y-241008D01*
X-1175092D01*
X-1175120Y-240980D01*
X-1175232Y-240896D01*
X-1175317Y-240839D01*
X-1175373Y-240727D01*
X-1175401Y-240614D01*
X-1175429Y-240446D01*
Y-240418D01*
Y-240389D01*
X-1175373Y-240221D01*
X-1175317Y-240136D01*
X-1175260Y-240052D01*
X-1175148Y-239968D01*
X-1175007Y-239883D01*
X-1174979D01*
X-1174951Y-239855D01*
X-1174754Y-239743D01*
X-1174501Y-239574D01*
X-1174192Y-239405D01*
X-1174164D01*
X-1174108Y-239349D01*
X-1174023Y-239293D01*
X-1173883Y-239209D01*
X-1173742Y-239096D01*
X-1173545Y-238984D01*
X-1173123Y-238674D01*
X-1173095Y-238646D01*
X-1173039Y-238618D01*
X-1172955Y-238562D01*
X-1172814Y-238449D01*
X-1172505Y-238253D01*
X-1172111Y-237999D01*
X-1172083Y-237971D01*
X-1171999Y-237915D01*
X-1171886Y-237803D01*
X-1171746Y-237690D01*
X-1171436Y-237465D01*
X-1171296Y-237353D01*
X-1171183Y-237297D01*
X-1171127Y-237268D01*
X-1171015Y-237212D01*
X-1170874Y-237184D01*
X-1170733Y-237156D01*
X-1170649D01*
X-1170452Y-237212D01*
D02*
G37*
G36*
X-1192159Y-245282D02*
X-1192047Y-245338D01*
X-1191934Y-245451D01*
X-1191850Y-245591D01*
X-1191822Y-245788D01*
Y-246041D01*
Y-246069D01*
Y-246126D01*
X-1191850Y-246210D01*
X-1191878Y-246350D01*
X-1191906Y-246519D01*
X-1191934Y-246744D01*
X-1191962Y-247025D01*
X-1191991Y-247335D01*
Y-247363D01*
Y-247503D01*
X-1192019Y-247672D01*
Y-247925D01*
Y-248262D01*
X-1192047Y-248628D01*
Y-249050D01*
Y-249528D01*
Y-262265D01*
Y-262293D01*
X-1192019Y-262349D01*
X-1191962Y-262490D01*
X-1191822Y-262631D01*
X-1191794D01*
X-1191766Y-262687D01*
X-1191597Y-262827D01*
X-1191372Y-262996D01*
X-1191091Y-263221D01*
X-1191063D01*
X-1191034Y-263277D01*
X-1190922Y-263418D01*
X-1190810Y-263587D01*
X-1190753Y-263699D01*
Y-263812D01*
Y-263840D01*
Y-263896D01*
X-1190781Y-264008D01*
X-1190866Y-264093D01*
X-1190950Y-264205D01*
X-1191091Y-264318D01*
X-1191288Y-264374D01*
X-1191569Y-264402D01*
X-1192215D01*
X-1192328Y-264374D01*
X-1192525D01*
X-1192750Y-264346D01*
X-1193003Y-264318D01*
X-1193256D01*
X-1193453Y-264290D01*
X-1193987D01*
X-1194324Y-264318D01*
X-1194662Y-264346D01*
X-1194802D01*
X-1194915Y-264374D01*
X-1195224D01*
X-1195618Y-264402D01*
X-1195758D01*
X-1195871Y-264374D01*
X-1196040Y-264318D01*
X-1196180Y-264261D01*
X-1196321Y-264149D01*
X-1196433Y-264008D01*
X-1196461Y-263812D01*
Y-263755D01*
X-1196433Y-263643D01*
X-1196349Y-263446D01*
X-1196208Y-263221D01*
X-1196180Y-263193D01*
X-1196124Y-263165D01*
X-1195955Y-263024D01*
X-1195758Y-262856D01*
X-1195646Y-262771D01*
X-1195590Y-262715D01*
X-1195562Y-262687D01*
X-1195533Y-262659D01*
X-1195365Y-262518D01*
X-1195224Y-262349D01*
X-1195196Y-262265D01*
X-1195168Y-262209D01*
Y-249921D01*
Y-249893D01*
Y-249809D01*
Y-249697D01*
X-1195196Y-249556D01*
X-1195280Y-249247D01*
X-1195337Y-249134D01*
X-1195421Y-249050D01*
X-1195449D01*
X-1195533Y-249022D01*
X-1195646Y-248965D01*
X-1195758Y-248937D01*
X-1196068Y-248825D01*
X-1196208Y-248769D01*
X-1196349Y-248740D01*
X-1196405Y-248712D01*
X-1196489Y-248628D01*
X-1196574Y-248459D01*
X-1196630Y-248347D01*
Y-248206D01*
Y-248150D01*
X-1196602Y-248037D01*
X-1196546Y-247897D01*
X-1196405Y-247756D01*
X-1196349Y-247728D01*
X-1196208Y-247616D01*
X-1195983Y-247475D01*
X-1195674Y-247306D01*
X-1195646Y-247278D01*
X-1195590Y-247250D01*
X-1195477Y-247194D01*
X-1195365Y-247138D01*
X-1195112Y-246997D01*
X-1194999Y-246941D01*
X-1194915Y-246913D01*
X-1194858Y-246885D01*
X-1194746Y-246800D01*
X-1194549Y-246688D01*
X-1194324Y-246519D01*
X-1193846Y-246210D01*
X-1193593Y-246041D01*
X-1193396Y-245900D01*
X-1193368Y-245872D01*
X-1193312Y-245844D01*
X-1193143Y-245704D01*
X-1192918Y-245535D01*
X-1192834Y-245451D01*
X-1192750Y-245394D01*
X-1192722Y-245366D01*
X-1192637Y-245310D01*
X-1192497Y-245282D01*
X-1192356Y-245254D01*
X-1192244D01*
X-1192159Y-245282D01*
D02*
G37*
G36*
X-1202703Y-237043D02*
X-1202591Y-237100D01*
X-1202478Y-237184D01*
X-1202394Y-237297D01*
X-1202338Y-237465D01*
X-1202310Y-237690D01*
Y-237718D01*
X-1202338Y-237803D01*
Y-237943D01*
X-1202366Y-238112D01*
X-1202394Y-238337D01*
X-1202422Y-238590D01*
X-1202478Y-239152D01*
Y-239180D01*
Y-239293D01*
X-1202507Y-239462D01*
Y-239687D01*
Y-239940D01*
X-1202535Y-240249D01*
Y-240614D01*
Y-240980D01*
Y-262265D01*
Y-262293D01*
X-1202507Y-262349D01*
X-1202450Y-262490D01*
X-1202310Y-262631D01*
X-1202282D01*
X-1202253Y-262687D01*
X-1202085Y-262827D01*
X-1201860Y-262996D01*
X-1201579Y-263221D01*
X-1201551D01*
X-1201522Y-263277D01*
X-1201410Y-263418D01*
X-1201298Y-263587D01*
X-1201241Y-263699D01*
Y-263812D01*
Y-263840D01*
Y-263896D01*
X-1201269Y-264008D01*
X-1201354Y-264093D01*
X-1201438Y-264205D01*
X-1201579Y-264318D01*
X-1201776Y-264374D01*
X-1202057Y-264402D01*
X-1202703D01*
X-1202816Y-264374D01*
X-1203013D01*
X-1203238Y-264346D01*
X-1203491Y-264318D01*
X-1203744D01*
X-1203941Y-264290D01*
X-1204475D01*
X-1204812Y-264318D01*
X-1205150Y-264346D01*
X-1205290D01*
X-1205403Y-264374D01*
X-1205712D01*
X-1206106Y-264402D01*
X-1206246D01*
X-1206359Y-264374D01*
X-1206527Y-264318D01*
X-1206668Y-264261D01*
X-1206809Y-264149D01*
X-1206921Y-264008D01*
X-1206949Y-263812D01*
Y-263755D01*
X-1206921Y-263643D01*
X-1206837Y-263446D01*
X-1206696Y-263221D01*
X-1206668Y-263193D01*
X-1206612Y-263165D01*
X-1206443Y-263024D01*
X-1206246Y-262856D01*
X-1206134Y-262771D01*
X-1206077Y-262715D01*
X-1206049Y-262687D01*
X-1206021Y-262659D01*
X-1205853Y-262518D01*
X-1205712Y-262349D01*
X-1205684Y-262265D01*
X-1205656Y-262209D01*
Y-242639D01*
Y-242611D01*
Y-242554D01*
Y-242358D01*
Y-242161D01*
X-1205684Y-242076D01*
Y-242020D01*
Y-241992D01*
Y-241964D01*
X-1205712Y-241908D01*
X-1205768D01*
X-1205853Y-241964D01*
X-1205909Y-241992D01*
X-1205993Y-242048D01*
X-1206106Y-242133D01*
X-1206274Y-242245D01*
X-1206302D01*
X-1206359Y-242302D01*
X-1206527Y-242414D01*
X-1206752Y-242554D01*
X-1206949Y-242639D01*
X-1207202D01*
X-1207343Y-242611D01*
X-1207483Y-242554D01*
X-1207624Y-242442D01*
X-1207708Y-242273D01*
X-1207737Y-242048D01*
Y-242020D01*
X-1207708Y-241908D01*
X-1207680Y-241795D01*
X-1207596Y-241627D01*
X-1207540Y-241570D01*
X-1207483Y-241514D01*
X-1207371Y-241374D01*
X-1207174Y-241233D01*
X-1206921Y-241008D01*
X-1206584Y-240727D01*
X-1206134Y-240389D01*
Y-240361D01*
X-1206077Y-240333D01*
X-1206021Y-240249D01*
X-1205965Y-240136D01*
X-1205853Y-239996D01*
X-1205712Y-239827D01*
X-1205571Y-239630D01*
X-1205375Y-239405D01*
X-1205347Y-239377D01*
X-1205262Y-239293D01*
X-1205150Y-239152D01*
X-1204981Y-238984D01*
X-1204784Y-238759D01*
X-1204559Y-238506D01*
X-1204053Y-237943D01*
X-1204025Y-237915D01*
X-1203969Y-237831D01*
X-1203884Y-237718D01*
X-1203772Y-237606D01*
X-1203519Y-237325D01*
X-1203406Y-237240D01*
X-1203322Y-237156D01*
X-1203266Y-237128D01*
X-1203210Y-237072D01*
X-1203097Y-237043D01*
X-1203069D01*
X-1203013Y-237015D01*
X-1202788D01*
X-1202703Y-237043D01*
D02*
G37*
G36*
X-1172392Y-260184D02*
X-1172139Y-260241D01*
X-1171886Y-260325D01*
X-1171577Y-260466D01*
X-1171296Y-260634D01*
X-1171015Y-260859D01*
X-1170986Y-260887D01*
X-1170902Y-260972D01*
X-1170790Y-261140D01*
X-1170649Y-261337D01*
X-1170508Y-261590D01*
X-1170396Y-261900D01*
X-1170312Y-262237D01*
X-1170284Y-262603D01*
Y-262659D01*
Y-262771D01*
X-1170312Y-262968D01*
X-1170368Y-263193D01*
X-1170452Y-263474D01*
X-1170593Y-263755D01*
X-1170762Y-264037D01*
X-1171015Y-264318D01*
X-1171043Y-264346D01*
X-1171127Y-264430D01*
X-1171296Y-264543D01*
X-1171493Y-264655D01*
X-1171746Y-264768D01*
X-1172027Y-264880D01*
X-1172364Y-264964D01*
X-1172730Y-264993D01*
X-1172898D01*
X-1173095Y-264964D01*
X-1173348Y-264908D01*
X-1173602Y-264824D01*
X-1173911Y-264711D01*
X-1174192Y-264543D01*
X-1174473Y-264318D01*
X-1174501Y-264290D01*
X-1174586Y-264177D01*
X-1174698Y-264037D01*
X-1174810Y-263840D01*
X-1174951Y-263587D01*
X-1175064Y-263305D01*
X-1175148Y-262968D01*
X-1175176Y-262603D01*
Y-262546D01*
Y-262434D01*
X-1175148Y-262237D01*
X-1175092Y-261984D01*
X-1175007Y-261731D01*
X-1174895Y-261422D01*
X-1174726Y-261140D01*
X-1174501Y-260859D01*
X-1174473Y-260831D01*
X-1174361Y-260747D01*
X-1174220Y-260634D01*
X-1174023Y-260494D01*
X-1173770Y-260381D01*
X-1173461Y-260269D01*
X-1173123Y-260184D01*
X-1172730Y-260156D01*
X-1172561D01*
X-1172392Y-260184D01*
D02*
G37*
G36*
X-1227110Y-245507D02*
X-1226969Y-245535D01*
X-1226857Y-245648D01*
X-1226829Y-245676D01*
X-1226716Y-245760D01*
X-1226575Y-245872D01*
X-1226379Y-246069D01*
X-1226125Y-246266D01*
X-1225872Y-246547D01*
X-1225619Y-246828D01*
X-1225338Y-247166D01*
Y-247194D01*
X-1225282Y-247222D01*
X-1225170Y-247391D01*
X-1224973Y-247672D01*
X-1224776Y-247981D01*
X-1224551Y-248375D01*
X-1224382Y-248769D01*
X-1224242Y-249190D01*
X-1224185Y-249584D01*
Y-249556D01*
Y-249528D01*
X-1224129Y-249387D01*
X-1224073Y-249134D01*
X-1223932Y-248825D01*
X-1223736Y-248487D01*
X-1223482Y-248066D01*
X-1223145Y-247644D01*
X-1222695Y-247222D01*
X-1222667Y-247194D01*
X-1222611Y-247138D01*
X-1222498Y-247053D01*
X-1222358Y-246969D01*
X-1222161Y-246828D01*
X-1221964Y-246688D01*
X-1221711Y-246547D01*
X-1221430Y-246379D01*
X-1220783Y-246069D01*
X-1220052Y-245788D01*
X-1219658Y-245704D01*
X-1219237Y-245619D01*
X-1218815Y-245563D01*
X-1218365Y-245535D01*
X-1218140D01*
X-1217971Y-245563D01*
X-1217746Y-245591D01*
X-1217493Y-245619D01*
X-1217240Y-245648D01*
X-1216931Y-245704D01*
X-1216256Y-245872D01*
X-1215553Y-246126D01*
X-1215188Y-246294D01*
X-1214822Y-246491D01*
X-1214457Y-246716D01*
X-1214119Y-246969D01*
X-1214091D01*
X-1214063Y-247025D01*
X-1213979Y-247082D01*
X-1213866Y-247194D01*
X-1213585Y-247447D01*
X-1213248Y-247813D01*
X-1212854Y-248262D01*
X-1212432Y-248797D01*
X-1212038Y-249387D01*
X-1211673Y-250090D01*
Y-250118D01*
X-1211645Y-250175D01*
X-1211589Y-250259D01*
X-1211532Y-250371D01*
X-1211476Y-250540D01*
X-1211420Y-250709D01*
X-1211251Y-251131D01*
X-1211111Y-251637D01*
X-1210970Y-252171D01*
X-1210886Y-252733D01*
X-1210857Y-253295D01*
Y-253352D01*
Y-253521D01*
X-1210886Y-253773D01*
X-1210914Y-254139D01*
X-1210942Y-254561D01*
X-1210998Y-255039D01*
X-1211083Y-255601D01*
X-1211195Y-256220D01*
X-1211364Y-256866D01*
X-1211532Y-257541D01*
X-1211757Y-258244D01*
X-1212038Y-258947D01*
X-1212348Y-259650D01*
X-1212713Y-260353D01*
X-1213163Y-261056D01*
X-1213641Y-261703D01*
X-1213669Y-261731D01*
X-1213754Y-261843D01*
X-1213922Y-262012D01*
X-1214119Y-262209D01*
X-1214372Y-262462D01*
X-1214710Y-262743D01*
X-1215047Y-263052D01*
X-1215469Y-263334D01*
X-1215919Y-263643D01*
X-1216397Y-263952D01*
X-1216931Y-264233D01*
X-1217493Y-264486D01*
X-1218084Y-264683D01*
X-1218730Y-264852D01*
X-1219377Y-264964D01*
X-1220052Y-264993D01*
X-1220277D01*
X-1220530Y-264964D01*
X-1220867Y-264936D01*
X-1221261Y-264852D01*
X-1221655Y-264768D01*
X-1222077Y-264627D01*
X-1222498Y-264458D01*
X-1222526Y-264430D01*
X-1222639Y-264374D01*
X-1222808Y-264290D01*
X-1223004Y-264149D01*
X-1223201Y-263980D01*
X-1223426Y-263755D01*
X-1223651Y-263474D01*
X-1223848Y-263165D01*
Y-266680D01*
Y-266708D01*
Y-266820D01*
X-1223820Y-267017D01*
X-1223792Y-267214D01*
X-1223764Y-267467D01*
X-1223679Y-267748D01*
X-1223595Y-268001D01*
X-1223482Y-268254D01*
X-1223454Y-268282D01*
X-1223342Y-268395D01*
X-1223173Y-268592D01*
X-1223033Y-268732D01*
X-1222892Y-268873D01*
X-1222864D01*
X-1222836Y-268929D01*
X-1222723Y-269042D01*
X-1222639Y-269210D01*
X-1222583Y-269295D01*
Y-269407D01*
Y-269435D01*
Y-269463D01*
X-1222639Y-269632D01*
X-1222723Y-269801D01*
X-1222836Y-269885D01*
X-1222948Y-269941D01*
X-1222976D01*
X-1223004Y-269969D01*
X-1223173Y-270026D01*
X-1223398Y-270110D01*
X-1223679Y-270222D01*
X-1223707D01*
X-1223764Y-270279D01*
X-1223876Y-270335D01*
X-1224017Y-270391D01*
X-1224382Y-270588D01*
X-1224804Y-270841D01*
X-1224832Y-270869D01*
X-1224916Y-270897D01*
X-1225029Y-270982D01*
X-1225170Y-271066D01*
X-1225507Y-271291D01*
X-1225816Y-271488D01*
X-1225844D01*
X-1225872Y-271544D01*
X-1225957Y-271600D01*
X-1226069Y-271713D01*
X-1226210Y-271825D01*
X-1226379Y-271966D01*
X-1226575Y-272163D01*
X-1226800Y-272359D01*
X-1226857Y-272388D01*
X-1226969Y-272416D01*
X-1227110Y-272472D01*
X-1227278Y-272500D01*
X-1227307D01*
X-1227363Y-272472D01*
X-1227475Y-272444D01*
X-1227560Y-272388D01*
X-1227672Y-272303D01*
X-1227756Y-272134D01*
X-1227813Y-271938D01*
Y-271656D01*
X-1227785Y-271600D01*
X-1227756Y-271488D01*
X-1227672Y-271291D01*
X-1227588Y-271066D01*
X-1227503Y-270757D01*
X-1227419Y-270447D01*
X-1227222Y-269716D01*
Y-269660D01*
X-1227194Y-269548D01*
X-1227138Y-269351D01*
X-1227082Y-269098D01*
X-1227053Y-268817D01*
X-1226997Y-268479D01*
X-1226969Y-267776D01*
Y-251383D01*
Y-251355D01*
Y-251327D01*
Y-251243D01*
X-1226997Y-251131D01*
X-1227025Y-250877D01*
X-1227082Y-250540D01*
X-1227222Y-250146D01*
X-1227391Y-249697D01*
X-1227616Y-249275D01*
X-1227953Y-248853D01*
X-1228009Y-248825D01*
X-1228094Y-248769D01*
X-1228206Y-248712D01*
X-1228375Y-248628D01*
X-1228572Y-248515D01*
X-1228853Y-248375D01*
X-1229162Y-248206D01*
X-1229219Y-248178D01*
X-1229303Y-248066D01*
X-1229415Y-247925D01*
X-1229443Y-247813D01*
X-1229472Y-247700D01*
Y-247672D01*
Y-247616D01*
X-1229415Y-247419D01*
Y-247391D01*
X-1229387Y-247363D01*
X-1229303Y-247222D01*
X-1229275Y-247194D01*
X-1229219Y-247138D01*
X-1229078Y-247025D01*
X-1228909Y-246885D01*
X-1228853Y-246857D01*
X-1228769Y-246744D01*
X-1228600Y-246604D01*
X-1228459Y-246463D01*
X-1228431Y-246435D01*
X-1228403Y-246407D01*
X-1228291Y-246294D01*
X-1228150Y-246154D01*
X-1228066Y-246041D01*
X-1228037Y-246013D01*
X-1227981Y-245957D01*
X-1227897Y-245872D01*
X-1227785Y-245732D01*
X-1227756Y-245704D01*
X-1227672Y-245591D01*
X-1227503Y-245507D01*
X-1227278Y-245479D01*
X-1227222D01*
X-1227110Y-245507D01*
D02*
G37*
G36*
X-1265117Y-226969D02*
X-1265161D01*
X-1265270D01*
X-1265467Y-226947D01*
X-1265708D01*
X-1266014Y-226925D01*
X-1266386D01*
X-1266779Y-226903D01*
X-1267195Y-226882D01*
X-1267654D01*
X-1268113Y-226860D01*
X-1269098Y-226838D01*
X-1270060Y-226816D01*
X-1270497D01*
X-1270935D01*
X-1270957D01*
X-1271044D01*
X-1271153D01*
X-1271328D01*
X-1271525D01*
X-1271788D01*
X-1272072D01*
X-1272378Y-226838D01*
X-1272728D01*
X-1273100D01*
X-1273493Y-226860D01*
X-1273909D01*
X-1274806Y-226882D01*
X-1275746Y-226925D01*
X-1274762Y-229156D01*
X-1276118Y-229878D01*
X-1279879Y-224979D01*
Y-223229D01*
X-1279857D01*
X-1279814D01*
X-1279726D01*
X-1279617D01*
X-1279486D01*
X-1279333Y-223251D01*
X-1279136D01*
X-1278939D01*
X-1278458Y-223273D01*
X-1277889D01*
X-1277277Y-223295D01*
X-1276599D01*
X-1275899Y-223317D01*
X-1275177Y-223339D01*
X-1273690Y-223361D01*
X-1272947D01*
X-1272247Y-223382D01*
X-1271569D01*
X-1270935D01*
X-1270913D01*
X-1270825D01*
X-1270716D01*
X-1270541D01*
X-1270322D01*
X-1270060D01*
X-1269754Y-223361D01*
X-1269404D01*
X-1269010D01*
X-1268573Y-223339D01*
X-1268092D01*
X-1267567Y-223317D01*
X-1267020Y-223295D01*
X-1266430Y-223273D01*
X-1265795Y-223251D01*
X-1265117Y-223229D01*
Y-226969D01*
D02*
G37*
G36*
X-1267173Y-231824D02*
X-1266933Y-231868D01*
X-1266648Y-231955D01*
X-1266364Y-232087D01*
X-1266058Y-232262D01*
X-1265752Y-232502D01*
X-1265730Y-232524D01*
X-1265642Y-232633D01*
X-1265511Y-232786D01*
X-1265380Y-233005D01*
X-1265227Y-233289D01*
X-1265117Y-233617D01*
X-1265030Y-234011D01*
X-1264986Y-234449D01*
Y-234492D01*
X-1265008Y-234623D01*
X-1265030Y-234820D01*
X-1265074Y-235039D01*
X-1265139Y-235301D01*
X-1265270Y-235586D01*
X-1265424Y-235848D01*
X-1265642Y-236089D01*
X-1265664Y-236110D01*
X-1265773Y-236176D01*
X-1265905Y-236285D01*
X-1266102Y-236373D01*
X-1266320Y-236482D01*
X-1266605Y-236592D01*
X-1266911Y-236657D01*
X-1267239Y-236679D01*
X-1267261D01*
X-1267282D01*
X-1267414Y-236657D01*
X-1267610Y-236635D01*
X-1267851Y-236592D01*
X-1268113Y-236504D01*
X-1268420Y-236373D01*
X-1268726Y-236220D01*
X-1269010Y-235979D01*
X-1269054Y-235936D01*
X-1269141Y-235848D01*
X-1269251Y-235673D01*
X-1269404Y-235454D01*
X-1269535Y-235170D01*
X-1269666Y-234842D01*
X-1269754Y-234449D01*
X-1269776Y-233989D01*
Y-233814D01*
X-1269732Y-233617D01*
X-1269688Y-233399D01*
X-1269622Y-233136D01*
X-1269491Y-232852D01*
X-1269338Y-232611D01*
X-1269119Y-232371D01*
X-1269098Y-232349D01*
X-1269010Y-232283D01*
X-1268857Y-232174D01*
X-1268682Y-232065D01*
X-1268442Y-231977D01*
X-1268179Y-231868D01*
X-1267873Y-231802D01*
X-1267545Y-231780D01*
X-1267523D01*
X-1267501D01*
X-1267370D01*
X-1267173Y-231824D01*
D02*
G37*
G36*
X-1267261Y-239085D02*
X-1267064Y-239107D01*
X-1266801Y-239150D01*
X-1266517Y-239194D01*
X-1266189Y-239282D01*
X-1265839Y-239391D01*
X-1265467Y-239544D01*
X-1265052Y-239719D01*
X-1264636Y-239938D01*
X-1264221Y-240200D01*
X-1263805Y-240506D01*
X-1263368Y-240856D01*
X-1262952Y-241272D01*
X-1262559Y-241753D01*
X-1262537Y-241797D01*
X-1262449Y-241884D01*
X-1262340Y-242059D01*
X-1262187Y-242300D01*
X-1262012Y-242584D01*
X-1261815Y-242956D01*
X-1261597Y-243371D01*
X-1261378Y-243852D01*
X-1261137Y-244377D01*
X-1260919Y-244989D01*
X-1260700Y-245624D01*
X-1260503Y-246345D01*
X-1260328Y-247089D01*
X-1260175Y-247898D01*
X-1260066Y-248751D01*
X-1260000Y-249670D01*
X-1262296Y-250063D01*
Y-250019D01*
X-1262318Y-249910D01*
X-1262340Y-249735D01*
X-1262362Y-249495D01*
X-1262406Y-249210D01*
X-1262449Y-248882D01*
X-1262515Y-248510D01*
X-1262581Y-248117D01*
X-1262668Y-247701D01*
X-1262777Y-247264D01*
X-1263040Y-246389D01*
X-1263390Y-245514D01*
X-1263587Y-245121D01*
X-1263805Y-244749D01*
X-1263827Y-244727D01*
X-1263871Y-244662D01*
X-1263936Y-244574D01*
X-1264024Y-244443D01*
X-1264155Y-244312D01*
X-1264286Y-244137D01*
X-1264461Y-243962D01*
X-1264658Y-243787D01*
X-1264877Y-243612D01*
X-1265096Y-243437D01*
X-1265358Y-243262D01*
X-1265642Y-243131D01*
X-1265927Y-242999D01*
X-1266233Y-242912D01*
X-1266561Y-242846D01*
X-1266911Y-242824D01*
X-1266933D01*
X-1266998D01*
X-1267107D01*
X-1267239Y-242846D01*
X-1267414Y-242868D01*
X-1267610Y-242912D01*
X-1268048Y-243043D01*
X-1268288Y-243131D01*
X-1268529Y-243240D01*
X-1268770Y-243371D01*
X-1269010Y-243524D01*
X-1269229Y-243721D01*
X-1269469Y-243962D01*
X-1269666Y-244202D01*
X-1269841Y-244508D01*
Y-244530D01*
X-1269885Y-244596D01*
X-1269929Y-244683D01*
X-1269972Y-244836D01*
X-1270060Y-245011D01*
X-1270126Y-245252D01*
X-1270213Y-245514D01*
X-1270301Y-245842D01*
X-1270366Y-246214D01*
X-1270454Y-246608D01*
X-1270541Y-247067D01*
X-1270607Y-247570D01*
X-1270650Y-248139D01*
X-1270694Y-248751D01*
X-1270738Y-249407D01*
Y-250107D01*
X-1270760D01*
X-1270804D01*
X-1270913Y-250085D01*
X-1271022Y-250063D01*
X-1271175Y-250041D01*
X-1271350Y-250019D01*
X-1271569Y-249998D01*
X-1271809Y-249976D01*
X-1272050Y-249954D01*
X-1272334Y-249910D01*
X-1272947Y-249844D01*
X-1273625Y-249779D01*
X-1274324Y-249691D01*
X-1275090Y-249604D01*
X-1275833Y-249538D01*
X-1276599Y-249473D01*
X-1277364Y-249407D01*
X-1278064Y-249342D01*
X-1278742Y-249320D01*
X-1279354Y-249276D01*
X-1279617D01*
X-1279879D01*
Y-240178D01*
X-1276818Y-240310D01*
Y-240331D01*
X-1276839Y-240441D01*
Y-240572D01*
X-1276861Y-240791D01*
X-1276883Y-241053D01*
X-1276905Y-241359D01*
X-1276949Y-241731D01*
X-1276971Y-242125D01*
X-1276992Y-242584D01*
X-1277036Y-243087D01*
X-1277058Y-243634D01*
X-1277080Y-244224D01*
X-1277102Y-244836D01*
Y-245492D01*
X-1277124Y-246192D01*
Y-246914D01*
X-1277102D01*
X-1277036Y-246936D01*
X-1276927D01*
X-1276774Y-246958D01*
X-1276599Y-246980D01*
X-1276380Y-247001D01*
X-1276140Y-247045D01*
X-1275877Y-247067D01*
X-1275593Y-247089D01*
X-1275287Y-247133D01*
X-1274631Y-247176D01*
X-1273931Y-247198D01*
X-1273231Y-247220D01*
Y-246870D01*
X-1273209Y-246673D01*
X-1273187Y-246477D01*
X-1273165Y-246214D01*
X-1273143Y-245952D01*
X-1273100Y-245646D01*
X-1273056Y-245317D01*
X-1272925Y-244640D01*
X-1272750Y-243896D01*
X-1272531Y-243131D01*
X-1272225Y-242387D01*
X-1271853Y-241644D01*
X-1271635Y-241294D01*
X-1271394Y-240944D01*
X-1271110Y-240637D01*
X-1270825Y-240331D01*
X-1270519Y-240069D01*
X-1270191Y-239806D01*
X-1269819Y-239588D01*
X-1269426Y-239413D01*
X-1269010Y-239260D01*
X-1268551Y-239150D01*
X-1268070Y-239085D01*
X-1267545Y-239063D01*
X-1267523D01*
X-1267414D01*
X-1267261Y-239085D01*
D02*
G37*
G36*
X-1278305Y-251747D02*
X-1278195Y-251769D01*
X-1278042Y-251791D01*
X-1277845Y-251856D01*
X-1277605Y-251944D01*
X-1277277Y-252031D01*
X-1276905Y-252163D01*
X-1276446Y-252338D01*
X-1275899Y-252534D01*
X-1275593Y-252666D01*
X-1275265Y-252775D01*
X-1274915Y-252928D01*
X-1274543Y-253081D01*
X-1274149Y-253234D01*
X-1273734Y-253409D01*
X-1273275Y-253606D01*
X-1272794Y-253803D01*
X-1272291Y-254022D01*
X-1271766Y-254240D01*
X-1271744D01*
X-1271700Y-254262D01*
X-1271613Y-254306D01*
X-1271503Y-254350D01*
X-1271372Y-254393D01*
X-1271219Y-254459D01*
X-1271044Y-254546D01*
X-1270847Y-254634D01*
X-1270388Y-254809D01*
X-1269885Y-255028D01*
X-1269316Y-255246D01*
X-1268748Y-255487D01*
X-1268157Y-255727D01*
X-1267567Y-255946D01*
X-1267020Y-256165D01*
X-1266495Y-256340D01*
X-1266036Y-256493D01*
X-1265642Y-256624D01*
X-1265467Y-256668D01*
X-1265336Y-256712D01*
X-1265205Y-256733D01*
X-1265117D01*
Y-260560D01*
X-1265139D01*
X-1265161D01*
X-1265249Y-260582D01*
X-1265358Y-260604D01*
X-1265511Y-260626D01*
X-1265708Y-260670D01*
X-1265970Y-260757D01*
X-1266298Y-260845D01*
X-1266692Y-260954D01*
X-1267151Y-261107D01*
X-1267414Y-261195D01*
X-1267698Y-261282D01*
X-1268026Y-261392D01*
X-1268354Y-261501D01*
X-1268704Y-261632D01*
X-1269076Y-261763D01*
X-1269491Y-261894D01*
X-1269907Y-262048D01*
X-1270366Y-262223D01*
X-1270847Y-262397D01*
X-1271350Y-262594D01*
X-1271897Y-262791D01*
X-1271919D01*
X-1271963Y-262813D01*
X-1272050Y-262835D01*
X-1272159Y-262879D01*
X-1272291Y-262944D01*
X-1272444Y-262988D01*
X-1272641Y-263054D01*
X-1272837Y-263141D01*
X-1273297Y-263294D01*
X-1273800Y-263491D01*
X-1274368Y-263688D01*
X-1274937Y-263885D01*
X-1275527Y-264103D01*
X-1276096Y-264300D01*
X-1276643Y-264497D01*
X-1277146Y-264650D01*
X-1277605Y-264803D01*
X-1277780Y-264847D01*
X-1277955Y-264912D01*
X-1278108Y-264934D01*
X-1278239Y-264978D01*
X-1278348Y-265000D01*
X-1278414D01*
Y-260910D01*
X-1278370D01*
X-1278327D01*
X-1278239Y-260889D01*
X-1278130Y-260867D01*
X-1277999Y-260845D01*
X-1277802Y-260801D01*
X-1277561Y-260735D01*
X-1277277Y-260670D01*
X-1276949Y-260582D01*
X-1276555Y-260451D01*
X-1276096Y-260320D01*
X-1275571Y-260167D01*
X-1274959Y-259992D01*
X-1274303Y-259773D01*
X-1273537Y-259533D01*
X-1273515D01*
X-1273493Y-259511D01*
X-1273428Y-259489D01*
X-1273362Y-259467D01*
X-1273143Y-259401D01*
X-1272859Y-259314D01*
X-1272531Y-259205D01*
X-1272159Y-259095D01*
X-1271766Y-258964D01*
X-1271328Y-258833D01*
X-1270475Y-258592D01*
X-1270060Y-258483D01*
X-1269666Y-258374D01*
X-1269316Y-258286D01*
X-1269010Y-258221D01*
X-1268748Y-258177D01*
X-1268573Y-258155D01*
Y-257980D01*
X-1268616D01*
X-1268660D01*
X-1268748Y-257958D01*
X-1268857Y-257936D01*
X-1268988Y-257914D01*
X-1269185Y-257871D01*
X-1269404Y-257805D01*
X-1269688Y-257739D01*
X-1269994Y-257652D01*
X-1270388Y-257542D01*
X-1270825Y-257433D01*
X-1271328Y-257280D01*
X-1271897Y-257105D01*
X-1272531Y-256908D01*
X-1273253Y-256668D01*
X-1273275D01*
X-1273297Y-256646D01*
X-1273428Y-256602D01*
X-1273625Y-256537D01*
X-1273909Y-256471D01*
X-1274215Y-256362D01*
X-1274587Y-256252D01*
X-1275002Y-256143D01*
X-1275418Y-256012D01*
X-1276293Y-255771D01*
X-1276730Y-255662D01*
X-1277146Y-255552D01*
X-1277517Y-255487D01*
X-1277867Y-255421D01*
X-1278174Y-255378D01*
X-1278414Y-255356D01*
Y-251725D01*
X-1278370D01*
X-1278305Y-251747D01*
D02*
G37*
G36*
X-1270756Y-174958D02*
X-1275066D01*
Y-171109D01*
X-1270756D01*
Y-174958D01*
D02*
G37*
G36*
X-1249566Y-177523D02*
X-1249181Y-177549D01*
X-1248797Y-177600D01*
X-1247924Y-177754D01*
X-1247873D01*
X-1247719Y-177805D01*
X-1247514Y-177856D01*
X-1247206Y-177933D01*
X-1246872Y-178036D01*
X-1246488Y-178164D01*
X-1246103Y-178318D01*
X-1245692Y-178498D01*
X-1245667D01*
X-1245641Y-178446D01*
X-1245487Y-178344D01*
X-1245282Y-178216D01*
X-1245077Y-178113D01*
X-1245051D01*
X-1245025Y-178087D01*
X-1244897Y-178036D01*
X-1244718Y-178010D01*
X-1244538Y-177985D01*
X-1244410D01*
X-1244281Y-178010D01*
X-1244102Y-178062D01*
X-1243922Y-178113D01*
X-1243691Y-178216D01*
X-1243486Y-178369D01*
X-1243307Y-178549D01*
X-1243281Y-178575D01*
X-1243230Y-178652D01*
X-1243153Y-178806D01*
X-1243050Y-178985D01*
X-1242947Y-179242D01*
X-1242870Y-179575D01*
X-1242819Y-179960D01*
X-1242794Y-180422D01*
Y-181294D01*
Y-181345D01*
Y-181474D01*
X-1242819Y-181679D01*
Y-181935D01*
X-1242922Y-182474D01*
X-1242999Y-182705D01*
X-1243101Y-182910D01*
X-1243127Y-182936D01*
X-1243204Y-183039D01*
X-1243332Y-183167D01*
X-1243512Y-183295D01*
X-1243717Y-183449D01*
X-1243974Y-183577D01*
X-1244281Y-183680D01*
X-1244615Y-183706D01*
X-1244718D01*
X-1244846Y-183680D01*
X-1245000Y-183654D01*
X-1245179Y-183603D01*
X-1245385Y-183552D01*
X-1245590Y-183449D01*
X-1245769Y-183321D01*
X-1245795Y-183295D01*
X-1245846Y-183244D01*
X-1245923Y-183141D01*
X-1246026Y-183039D01*
X-1246128Y-182859D01*
X-1246257Y-182679D01*
X-1246334Y-182474D01*
X-1246411Y-182218D01*
X-1246462Y-182192D01*
X-1246565Y-182141D01*
X-1246744Y-182038D01*
X-1246975Y-181910D01*
X-1247232Y-181781D01*
X-1247565Y-181653D01*
X-1247899Y-181525D01*
X-1248258Y-181397D01*
X-1248309Y-181371D01*
X-1248437Y-181345D01*
X-1248617Y-181294D01*
X-1248874Y-181243D01*
X-1249181Y-181191D01*
X-1249515Y-181166D01*
X-1249900Y-181114D01*
X-1250644D01*
X-1250798Y-181140D01*
X-1251003D01*
X-1251490Y-181191D01*
X-1252029Y-181294D01*
X-1252568Y-181397D01*
X-1253132Y-181576D01*
X-1253620Y-181807D01*
X-1253645Y-181833D01*
X-1253697Y-181858D01*
X-1253876Y-182012D01*
X-1254081Y-182218D01*
X-1254133Y-182346D01*
X-1254158Y-182474D01*
Y-182500D01*
Y-182551D01*
X-1254107Y-182628D01*
X-1254056Y-182731D01*
X-1253979Y-182859D01*
X-1253850Y-182987D01*
X-1253671Y-183115D01*
X-1253440Y-183269D01*
X-1253414D01*
X-1253312Y-183321D01*
X-1253158Y-183372D01*
X-1252901Y-183449D01*
X-1252568Y-183526D01*
X-1252363Y-183577D01*
X-1252132Y-183629D01*
X-1251875Y-183680D01*
X-1251567Y-183731D01*
X-1251259Y-183782D01*
X-1250900Y-183834D01*
X-1250849D01*
X-1250746Y-183859D01*
X-1250567Y-183885D01*
X-1250310Y-183911D01*
X-1250028Y-183962D01*
X-1249695Y-184013D01*
X-1249310Y-184065D01*
X-1248925Y-184142D01*
X-1248104Y-184296D01*
X-1247283Y-184449D01*
X-1246872Y-184526D01*
X-1246513Y-184629D01*
X-1246180Y-184706D01*
X-1245898Y-184809D01*
X-1245872D01*
X-1245821Y-184834D01*
X-1245718Y-184886D01*
X-1245590Y-184937D01*
X-1245436Y-185014D01*
X-1245256Y-185091D01*
X-1244846Y-185296D01*
X-1244384Y-185578D01*
X-1243922Y-185912D01*
X-1243460Y-186322D01*
X-1243050Y-186784D01*
Y-186810D01*
X-1242999Y-186835D01*
X-1242947Y-186912D01*
X-1242896Y-187015D01*
X-1242717Y-187271D01*
X-1242537Y-187605D01*
X-1242357Y-188015D01*
X-1242178Y-188477D01*
X-1242075Y-188965D01*
X-1242024Y-189503D01*
Y-189529D01*
Y-189580D01*
Y-189683D01*
X-1242050Y-189837D01*
X-1242075Y-189991D01*
X-1242126Y-190196D01*
X-1242229Y-190632D01*
X-1242434Y-191145D01*
X-1242588Y-191427D01*
X-1242742Y-191709D01*
X-1242947Y-191966D01*
X-1243178Y-192248D01*
X-1243435Y-192505D01*
X-1243743Y-192761D01*
X-1243768Y-192787D01*
X-1243845Y-192838D01*
X-1243999Y-192941D01*
X-1244179Y-193043D01*
X-1244435Y-193197D01*
X-1244718Y-193351D01*
X-1245077Y-193531D01*
X-1245462Y-193685D01*
X-1245898Y-193864D01*
X-1246385Y-194044D01*
X-1246898Y-194198D01*
X-1247463Y-194352D01*
X-1248078Y-194454D01*
X-1248720Y-194557D01*
X-1249387Y-194608D01*
X-1250105Y-194634D01*
X-1250515D01*
X-1250669Y-194608D01*
X-1251054D01*
X-1251516Y-194557D01*
X-1252003Y-194506D01*
X-1252516Y-194454D01*
X-1253029Y-194352D01*
X-1253055D01*
X-1253081Y-194326D01*
X-1253158D01*
X-1253260Y-194301D01*
X-1253491Y-194224D01*
X-1253825Y-194147D01*
X-1254210Y-194044D01*
X-1254620Y-193890D01*
X-1255467Y-193557D01*
X-1255518Y-193608D01*
X-1255620Y-193710D01*
X-1255800Y-193839D01*
X-1256031Y-193941D01*
X-1256057D01*
X-1256082Y-193967D01*
X-1256211Y-193993D01*
X-1256416Y-194018D01*
X-1256647Y-194044D01*
X-1256775D01*
X-1256929Y-194018D01*
X-1257134Y-193967D01*
X-1257339Y-193916D01*
X-1257570Y-193813D01*
X-1257801Y-193685D01*
X-1258006Y-193505D01*
X-1258032Y-193480D01*
X-1258083Y-193403D01*
X-1258160Y-193249D01*
X-1258237Y-193069D01*
X-1258340Y-192787D01*
X-1258417Y-192479D01*
X-1258468Y-192094D01*
X-1258494Y-191633D01*
Y-190427D01*
Y-190401D01*
Y-190375D01*
Y-190222D01*
X-1258468Y-189991D01*
X-1258443Y-189708D01*
X-1258365Y-189401D01*
X-1258288Y-189093D01*
X-1258160Y-188785D01*
X-1258006Y-188554D01*
X-1257981Y-188528D01*
X-1257904Y-188477D01*
X-1257801Y-188375D01*
X-1257647Y-188272D01*
X-1257442Y-188169D01*
X-1257237Y-188067D01*
X-1256954Y-188015D01*
X-1256672Y-187990D01*
X-1256570D01*
X-1256441Y-188015D01*
X-1256288Y-188041D01*
X-1256134Y-188092D01*
X-1255954Y-188144D01*
X-1255775Y-188246D01*
X-1255595Y-188375D01*
X-1255569Y-188400D01*
X-1255518Y-188451D01*
X-1255441Y-188528D01*
X-1255338Y-188657D01*
X-1255210Y-188836D01*
X-1255107Y-189042D01*
X-1255005Y-189298D01*
X-1254902Y-189606D01*
X-1254851Y-189632D01*
X-1254748Y-189708D01*
X-1254569Y-189837D01*
X-1254338Y-189991D01*
X-1254030Y-190170D01*
X-1253697Y-190350D01*
X-1253312Y-190504D01*
X-1252901Y-190658D01*
X-1252876D01*
X-1252850Y-190683D01*
X-1252696Y-190709D01*
X-1252465Y-190760D01*
X-1252132Y-190837D01*
X-1251747Y-190914D01*
X-1251285Y-190966D01*
X-1250772Y-190991D01*
X-1250208Y-191017D01*
X-1249977D01*
X-1249797Y-190991D01*
X-1249592D01*
X-1249361Y-190966D01*
X-1249079Y-190940D01*
X-1248797Y-190914D01*
X-1248181Y-190837D01*
X-1247540Y-190683D01*
X-1246924Y-190504D01*
X-1246359Y-190247D01*
X-1246334Y-190222D01*
X-1246257Y-190170D01*
X-1246154Y-190093D01*
X-1246026Y-189991D01*
X-1245898Y-189888D01*
X-1245795Y-189734D01*
X-1245718Y-189580D01*
X-1245692Y-189426D01*
Y-189401D01*
X-1245718Y-189298D01*
X-1245744Y-189170D01*
X-1245821Y-189016D01*
X-1245923Y-188836D01*
X-1246103Y-188657D01*
X-1246334Y-188451D01*
X-1246642Y-188272D01*
X-1246693Y-188246D01*
X-1246744Y-188221D01*
X-1246821Y-188195D01*
X-1246949Y-188144D01*
X-1247078Y-188118D01*
X-1247257Y-188067D01*
X-1247463Y-187990D01*
X-1247719Y-187938D01*
X-1247976Y-187861D01*
X-1248309Y-187810D01*
X-1248643Y-187733D01*
X-1249053Y-187682D01*
X-1249489Y-187605D01*
X-1249951Y-187528D01*
X-1250490Y-187477D01*
X-1250541D01*
X-1250669Y-187451D01*
X-1250900Y-187425D01*
X-1251182Y-187374D01*
X-1251542Y-187323D01*
X-1251952Y-187271D01*
X-1252388Y-187169D01*
X-1252850Y-187092D01*
X-1253825Y-186835D01*
X-1254774Y-186527D01*
X-1255236Y-186348D01*
X-1255646Y-186168D01*
X-1256005Y-185937D01*
X-1256313Y-185707D01*
X-1256339Y-185681D01*
X-1256365Y-185655D01*
X-1256441Y-185578D01*
X-1256544Y-185476D01*
X-1256647Y-185347D01*
X-1256775Y-185193D01*
X-1257031Y-184834D01*
X-1257314Y-184373D01*
X-1257545Y-183834D01*
X-1257647Y-183526D01*
X-1257724Y-183218D01*
X-1257750Y-182885D01*
X-1257775Y-182525D01*
Y-182500D01*
Y-182448D01*
Y-182346D01*
X-1257750Y-182192D01*
X-1257724Y-182038D01*
X-1257699Y-181833D01*
X-1257570Y-181397D01*
X-1257391Y-180884D01*
X-1257237Y-180601D01*
X-1257083Y-180345D01*
X-1256903Y-180063D01*
X-1256698Y-179806D01*
X-1256441Y-179550D01*
X-1256159Y-179293D01*
X-1256134Y-179267D01*
X-1256057Y-179216D01*
X-1255928Y-179139D01*
X-1255749Y-179011D01*
X-1255544Y-178883D01*
X-1255261Y-178729D01*
X-1254954Y-178549D01*
X-1254594Y-178395D01*
X-1254184Y-178216D01*
X-1253748Y-178062D01*
X-1253286Y-177908D01*
X-1252747Y-177779D01*
X-1252208Y-177651D01*
X-1251618Y-177574D01*
X-1251003Y-177523D01*
X-1250336Y-177497D01*
X-1249874D01*
X-1249566Y-177523D01*
D02*
G37*
G36*
X-1270269Y-190427D02*
X-1265677D01*
X-1265446Y-190452D01*
X-1265164Y-190478D01*
X-1264830Y-190555D01*
X-1264522Y-190632D01*
X-1264240Y-190760D01*
X-1263984Y-190940D01*
X-1263958Y-190966D01*
X-1263907Y-191042D01*
X-1263804Y-191145D01*
X-1263701Y-191299D01*
X-1263599Y-191479D01*
X-1263496Y-191709D01*
X-1263445Y-191966D01*
X-1263419Y-192248D01*
Y-192274D01*
Y-192376D01*
X-1263445Y-192530D01*
X-1263496Y-192710D01*
X-1263548Y-192915D01*
X-1263650Y-193146D01*
X-1263804Y-193351D01*
X-1263984Y-193557D01*
X-1264009Y-193582D01*
X-1264086Y-193634D01*
X-1264240Y-193710D01*
X-1264445Y-193787D01*
X-1264702Y-193890D01*
X-1265035Y-193967D01*
X-1265446Y-194018D01*
X-1265908Y-194044D01*
X-1278478D01*
X-1278709Y-194018D01*
X-1279017Y-193993D01*
X-1279325Y-193916D01*
X-1279658Y-193839D01*
X-1279940Y-193710D01*
X-1280197Y-193557D01*
X-1280223Y-193531D01*
X-1280274Y-193454D01*
X-1280377Y-193351D01*
X-1280454Y-193197D01*
X-1280556Y-192992D01*
X-1280659Y-192787D01*
X-1280710Y-192505D01*
X-1280736Y-192223D01*
Y-192197D01*
Y-192094D01*
X-1280710Y-191940D01*
X-1280659Y-191761D01*
X-1280607Y-191556D01*
X-1280505Y-191350D01*
X-1280377Y-191145D01*
X-1280197Y-190940D01*
X-1280171Y-190914D01*
X-1280094Y-190863D01*
X-1279940Y-190786D01*
X-1279735Y-190683D01*
X-1279479Y-190581D01*
X-1279145Y-190504D01*
X-1278735Y-190452D01*
X-1278247Y-190427D01*
X-1273886D01*
Y-181602D01*
X-1277042D01*
X-1277272Y-181576D01*
X-1277580Y-181551D01*
X-1277888Y-181474D01*
X-1278222Y-181397D01*
X-1278504Y-181268D01*
X-1278760Y-181114D01*
X-1278786Y-181089D01*
X-1278837Y-181012D01*
X-1278940Y-180909D01*
X-1279017Y-180755D01*
X-1279120Y-180550D01*
X-1279222Y-180345D01*
X-1279274Y-180063D01*
X-1279299Y-179780D01*
Y-179755D01*
Y-179652D01*
X-1279274Y-179498D01*
X-1279222Y-179319D01*
X-1279171Y-179113D01*
X-1279068Y-178908D01*
X-1278940Y-178703D01*
X-1278760Y-178498D01*
X-1278735Y-178472D01*
X-1278658Y-178421D01*
X-1278504Y-178344D01*
X-1278299Y-178241D01*
X-1278042Y-178139D01*
X-1277709Y-178062D01*
X-1277298Y-178010D01*
X-1276811Y-177985D01*
X-1270269D01*
Y-190427D01*
D02*
G37*
G36*
X-1228171Y-177523D02*
X-1227940D01*
X-1227683Y-177549D01*
X-1227375Y-177600D01*
X-1227068Y-177651D01*
X-1226709Y-177728D01*
X-1226349Y-177805D01*
X-1225528Y-178010D01*
X-1224682Y-178318D01*
X-1224271Y-178523D01*
X-1223835Y-178729D01*
X-1223810Y-178754D01*
X-1223733Y-178780D01*
X-1223604Y-178857D01*
X-1223450Y-178960D01*
X-1223271Y-179088D01*
X-1223040Y-179216D01*
X-1222809Y-179396D01*
X-1222527Y-179601D01*
X-1221963Y-180088D01*
X-1221398Y-180653D01*
X-1220859Y-181320D01*
X-1220603Y-181679D01*
X-1220372Y-182064D01*
X-1220346Y-182089D01*
X-1220321Y-182166D01*
X-1220269Y-182269D01*
X-1220192Y-182423D01*
X-1220090Y-182602D01*
X-1219987Y-182833D01*
X-1219884Y-183090D01*
X-1219782Y-183372D01*
X-1219577Y-184013D01*
X-1219371Y-184732D01*
X-1219243Y-185501D01*
X-1219192Y-185912D01*
Y-186322D01*
Y-186348D01*
Y-186425D01*
Y-186527D01*
X-1219218Y-186681D01*
Y-186861D01*
X-1219243Y-187092D01*
X-1219295Y-187348D01*
X-1219346Y-187605D01*
X-1219474Y-188246D01*
X-1219679Y-188913D01*
X-1219987Y-189632D01*
X-1220167Y-190016D01*
X-1220372Y-190375D01*
Y-190401D01*
X-1220423Y-190452D01*
X-1220500Y-190555D01*
X-1220577Y-190709D01*
X-1220705Y-190863D01*
X-1220859Y-191042D01*
X-1221039Y-191273D01*
X-1221244Y-191504D01*
X-1221475Y-191735D01*
X-1221706Y-191992D01*
X-1221988Y-192248D01*
X-1222296Y-192505D01*
X-1222655Y-192761D01*
X-1223014Y-193018D01*
X-1223399Y-193249D01*
X-1223810Y-193480D01*
X-1223835D01*
X-1223912Y-193531D01*
X-1224041Y-193582D01*
X-1224194Y-193659D01*
X-1224425Y-193736D01*
X-1224656Y-193839D01*
X-1224938Y-193941D01*
X-1225272Y-194044D01*
X-1225605Y-194172D01*
X-1225965Y-194275D01*
X-1226785Y-194454D01*
X-1227658Y-194583D01*
X-1228119Y-194608D01*
X-1228581Y-194634D01*
X-1228838D01*
X-1228992Y-194608D01*
X-1229223D01*
X-1229479Y-194583D01*
X-1229787Y-194531D01*
X-1230095Y-194480D01*
X-1230454Y-194429D01*
X-1230839Y-194352D01*
X-1231634Y-194147D01*
X-1232481Y-193864D01*
X-1232891Y-193710D01*
X-1233327Y-193505D01*
X-1233353Y-193480D01*
X-1233430Y-193454D01*
X-1233532Y-193377D01*
X-1233686Y-193300D01*
X-1233892Y-193172D01*
X-1234097Y-193043D01*
X-1234610Y-192684D01*
X-1235149Y-192248D01*
X-1235739Y-191709D01*
X-1236277Y-191094D01*
X-1236765Y-190401D01*
Y-190375D01*
X-1236816Y-190299D01*
X-1236868Y-190196D01*
X-1236944Y-190068D01*
X-1237047Y-189888D01*
X-1237150Y-189657D01*
X-1237252Y-189426D01*
X-1237355Y-189144D01*
X-1237560Y-188528D01*
X-1237765Y-187836D01*
X-1237894Y-187092D01*
X-1237919Y-186681D01*
X-1237945Y-186297D01*
Y-186271D01*
Y-186194D01*
Y-186091D01*
X-1237919Y-185912D01*
Y-185732D01*
X-1237894Y-185501D01*
X-1237842Y-185245D01*
X-1237791Y-184937D01*
X-1237663Y-184296D01*
X-1237458Y-183577D01*
X-1237150Y-182808D01*
X-1236970Y-182397D01*
X-1236765Y-182012D01*
X-1236739Y-181987D01*
X-1236713Y-181910D01*
X-1236637Y-181807D01*
X-1236534Y-181653D01*
X-1236406Y-181499D01*
X-1236252Y-181294D01*
X-1236072Y-181063D01*
X-1235867Y-180807D01*
X-1235636Y-180550D01*
X-1235379Y-180268D01*
X-1235097Y-180011D01*
X-1234790Y-179729D01*
X-1234097Y-179190D01*
X-1233301Y-178703D01*
X-1233276Y-178677D01*
X-1233199Y-178652D01*
X-1233071Y-178600D01*
X-1232917Y-178523D01*
X-1232711Y-178421D01*
X-1232455Y-178318D01*
X-1232173Y-178216D01*
X-1231865Y-178087D01*
X-1231531Y-177985D01*
X-1231147Y-177882D01*
X-1230351Y-177677D01*
X-1229479Y-177549D01*
X-1229043Y-177497D01*
X-1228350D01*
X-1228171Y-177523D01*
D02*
G37*
G36*
X-1190777Y-176432D02*
X-1190469D01*
X-1190161Y-176466D01*
X-1189784Y-176500D01*
X-1189340Y-176602D01*
X-1188929Y-176705D01*
X-1188553Y-176876D01*
X-1188211Y-177116D01*
X-1188176Y-177150D01*
X-1188108Y-177218D01*
X-1187971Y-177390D01*
X-1187834Y-177561D01*
X-1187697Y-177834D01*
X-1187561Y-178108D01*
X-1187492Y-178450D01*
X-1187458Y-178826D01*
Y-178861D01*
Y-178997D01*
X-1187492Y-179203D01*
X-1187561Y-179442D01*
X-1187629Y-179750D01*
X-1187766Y-180024D01*
X-1187971Y-180332D01*
X-1188211Y-180606D01*
X-1188245Y-180640D01*
X-1188347Y-180708D01*
X-1188553Y-180811D01*
X-1188827Y-180914D01*
X-1189169Y-181050D01*
X-1189613Y-181153D01*
X-1190161Y-181221D01*
X-1190777Y-181256D01*
X-1199467Y-188817D01*
X-1199433D01*
X-1199364Y-188885D01*
X-1199227Y-188954D01*
X-1199056Y-189091D01*
X-1198851Y-189227D01*
X-1198577Y-189398D01*
X-1197996Y-189877D01*
X-1197277Y-190493D01*
X-1196525Y-191212D01*
X-1196114Y-191622D01*
X-1195703Y-192067D01*
X-1195327Y-192580D01*
X-1194917Y-193094D01*
X-1194882Y-193128D01*
X-1194814Y-193230D01*
X-1194711Y-193367D01*
X-1194540Y-193607D01*
X-1194369Y-193881D01*
X-1194130Y-194223D01*
X-1193890Y-194599D01*
X-1193616Y-195044D01*
X-1193343Y-195523D01*
X-1193035Y-196070D01*
X-1192727Y-196652D01*
X-1192385Y-197268D01*
X-1192077Y-197952D01*
X-1191735Y-198636D01*
X-1191393Y-199389D01*
X-1191085Y-200176D01*
X-1189476D01*
X-1189169Y-200210D01*
X-1188792Y-200244D01*
X-1188347Y-200347D01*
X-1187937Y-200450D01*
X-1187561Y-200621D01*
X-1187218Y-200860D01*
X-1187184Y-200894D01*
X-1187116Y-200997D01*
X-1186979Y-201134D01*
X-1186842Y-201339D01*
X-1186705Y-201579D01*
X-1186568Y-201887D01*
X-1186500Y-202229D01*
X-1186466Y-202605D01*
Y-202639D01*
Y-202776D01*
X-1186500Y-202981D01*
X-1186568Y-203221D01*
X-1186637Y-203495D01*
X-1186774Y-203803D01*
X-1186979Y-204076D01*
X-1187218Y-204350D01*
X-1187253Y-204384D01*
X-1187355Y-204453D01*
X-1187561Y-204555D01*
X-1187834Y-204658D01*
X-1188176Y-204795D01*
X-1188621Y-204897D01*
X-1189169Y-204966D01*
X-1189784Y-205000D01*
X-1194198D01*
Y-204966D01*
X-1194266Y-204829D01*
X-1194335Y-204658D01*
X-1194472Y-204384D01*
X-1194609Y-204076D01*
X-1194780Y-203700D01*
X-1194951Y-203255D01*
X-1195156Y-202776D01*
X-1195396Y-202263D01*
X-1195669Y-201750D01*
X-1196217Y-200552D01*
X-1196833Y-199321D01*
X-1197483Y-198089D01*
Y-198055D01*
X-1197551Y-197986D01*
X-1197619Y-197849D01*
X-1197722Y-197644D01*
X-1197859Y-197439D01*
X-1198030Y-197165D01*
X-1198372Y-196618D01*
X-1198817Y-195968D01*
X-1199296Y-195317D01*
X-1199775Y-194736D01*
X-1200049Y-194462D01*
X-1200288Y-194223D01*
X-1200357Y-194154D01*
X-1200528Y-194017D01*
X-1200801Y-193778D01*
X-1201178Y-193504D01*
X-1201622Y-193196D01*
X-1202136Y-192854D01*
X-1202751Y-192546D01*
X-1203401Y-192238D01*
X-1206344Y-194770D01*
Y-200176D01*
X-1204325D01*
X-1204052Y-200210D01*
X-1203709Y-200244D01*
X-1203333Y-200347D01*
X-1202957Y-200450D01*
X-1202580Y-200621D01*
X-1202272Y-200860D01*
X-1202238Y-200894D01*
X-1202170Y-200997D01*
X-1202033Y-201134D01*
X-1201896Y-201339D01*
X-1201759Y-201579D01*
X-1201622Y-201887D01*
X-1201554Y-202229D01*
X-1201520Y-202605D01*
Y-202639D01*
Y-202776D01*
X-1201554Y-202981D01*
X-1201622Y-203221D01*
X-1201691Y-203495D01*
X-1201828Y-203803D01*
X-1202033Y-204076D01*
X-1202272Y-204350D01*
X-1202307Y-204384D01*
X-1202409Y-204453D01*
X-1202580Y-204555D01*
X-1202854Y-204658D01*
X-1203162Y-204795D01*
X-1203573Y-204897D01*
X-1204052Y-204966D01*
X-1204599Y-205000D01*
X-1212195D01*
X-1212468Y-204966D01*
X-1212810Y-204932D01*
X-1213187Y-204829D01*
X-1213597Y-204726D01*
X-1213974Y-204555D01*
X-1214281Y-204350D01*
X-1214316Y-204316D01*
X-1214384Y-204213D01*
X-1214521Y-204076D01*
X-1214624Y-203871D01*
X-1214761Y-203597D01*
X-1214897Y-203323D01*
X-1214966Y-202947D01*
X-1215000Y-202571D01*
Y-202537D01*
Y-202400D01*
X-1214966Y-202194D01*
X-1214897Y-201955D01*
X-1214829Y-201681D01*
X-1214692Y-201408D01*
X-1214521Y-201134D01*
X-1214281Y-200860D01*
X-1214247Y-200826D01*
X-1214145Y-200758D01*
X-1213974Y-200655D01*
X-1213700Y-200518D01*
X-1213358Y-200381D01*
X-1212981Y-200278D01*
X-1212468Y-200210D01*
X-1211921Y-200176D01*
X-1211168D01*
Y-181221D01*
X-1212195D01*
X-1212468Y-181187D01*
X-1212810Y-181153D01*
X-1213187Y-181050D01*
X-1213597Y-180948D01*
X-1213974Y-180777D01*
X-1214281Y-180571D01*
X-1214316Y-180537D01*
X-1214384Y-180434D01*
X-1214521Y-180298D01*
X-1214624Y-180092D01*
X-1214761Y-179853D01*
X-1214897Y-179545D01*
X-1214966Y-179203D01*
X-1215000Y-178826D01*
Y-178792D01*
Y-178655D01*
X-1214966Y-178450D01*
X-1214897Y-178211D01*
X-1214829Y-177903D01*
X-1214692Y-177629D01*
X-1214521Y-177355D01*
X-1214281Y-177082D01*
X-1214247Y-177047D01*
X-1214145Y-176979D01*
X-1213974Y-176876D01*
X-1213700Y-176739D01*
X-1213358Y-176602D01*
X-1212981Y-176500D01*
X-1212468Y-176432D01*
X-1211921Y-176397D01*
X-1204599Y-176432D01*
X-1204325D01*
X-1204052Y-176466D01*
X-1203709Y-176500D01*
X-1203333Y-176602D01*
X-1202957Y-176705D01*
X-1202580Y-176876D01*
X-1202272Y-177116D01*
X-1202238Y-177150D01*
X-1202170Y-177218D01*
X-1202033Y-177390D01*
X-1201896Y-177561D01*
X-1201759Y-177834D01*
X-1201622Y-178108D01*
X-1201554Y-178450D01*
X-1201520Y-178826D01*
Y-178861D01*
Y-178997D01*
X-1201554Y-179203D01*
X-1201622Y-179442D01*
X-1201691Y-179750D01*
X-1201828Y-180024D01*
X-1202033Y-180332D01*
X-1202272Y-180606D01*
X-1202307Y-180640D01*
X-1202409Y-180708D01*
X-1202580Y-180811D01*
X-1202854Y-180914D01*
X-1203162Y-181050D01*
X-1203573Y-181153D01*
X-1204052Y-181221D01*
X-1204599Y-181256D01*
X-1206344D01*
Y-188406D01*
X-1197756Y-181050D01*
Y-181016D01*
Y-180982D01*
X-1197825Y-180914D01*
X-1197927Y-180845D01*
X-1198098Y-180708D01*
X-1198338Y-180537D01*
X-1198372Y-180503D01*
X-1198440Y-180434D01*
X-1198577Y-180298D01*
X-1198680Y-180127D01*
X-1198817Y-179887D01*
X-1198954Y-179613D01*
X-1199022Y-179271D01*
X-1199056Y-178895D01*
Y-178861D01*
Y-178724D01*
X-1199022Y-178519D01*
X-1198954Y-178245D01*
X-1198885Y-177971D01*
X-1198748Y-177697D01*
X-1198577Y-177390D01*
X-1198338Y-177116D01*
X-1198304Y-177082D01*
X-1198235Y-177013D01*
X-1197996Y-176739D01*
X-1197859Y-176637D01*
X-1197791Y-176500D01*
X-1197722Y-176432D01*
X-1197756Y-176397D01*
X-1190777Y-176432D01*
D02*
G37*
%LPC*%
G36*
X-310864Y256652D02*
X-325508D01*
Y256304D01*
X-326205D01*
Y255606D01*
X-326553D01*
Y240963D01*
X-326205D01*
Y240266D01*
X-325508D01*
Y239917D01*
X-310515D01*
Y240266D01*
X-310167D01*
Y240614D01*
X-309818D01*
Y255606D01*
X-310167D01*
Y255955D01*
Y256304D01*
X-310864D01*
Y256652D01*
D02*
G37*
G36*
X-307377Y255955D02*
X-308772D01*
Y240963D01*
X-309121D01*
Y240266D01*
X-308772D01*
Y239568D01*
X-308424D01*
Y239220D01*
X-308075D01*
Y238871D01*
X-307726D01*
Y238522D01*
X-307377D01*
Y238174D01*
X-307029D01*
Y237476D01*
X-306680D01*
Y237128D01*
X-307377D01*
Y237476D01*
X-308075D01*
Y237825D01*
X-308424D01*
Y238174D01*
X-308772D01*
Y238522D01*
X-309470D01*
Y238871D01*
X-309818D01*
Y239220D01*
X-310515D01*
Y238871D01*
X-325856D01*
Y237825D01*
X-325508D01*
Y236779D01*
X-325159D01*
Y236430D01*
X-309818D01*
Y236082D01*
X-308075D01*
Y235733D01*
X-305983D01*
Y236082D01*
X-305634D01*
Y236430D01*
X-304937D01*
Y237825D01*
X-304588D01*
Y238522D01*
X-304937D01*
Y250725D01*
X-305286D01*
Y254560D01*
X-305634D01*
Y254909D01*
X-305983D01*
Y255258D01*
X-306332D01*
Y255606D01*
X-307377D01*
Y255955D01*
D02*
G37*
G36*
X-290991Y235733D02*
X-303891D01*
Y235384D01*
X-305286D01*
Y235036D01*
X-305634D01*
Y234687D01*
X-305983D01*
Y219695D01*
X-305634D01*
Y219346D01*
X-305286D01*
Y218998D01*
X-304240D01*
Y218649D01*
X-290642D01*
Y218998D01*
X-289945D01*
Y219346D01*
X-289596D01*
Y220044D01*
X-289247D01*
Y221438D01*
Y221787D01*
Y234338D01*
X-289596D01*
Y235036D01*
X-289945D01*
Y235384D01*
X-290991D01*
Y235733D01*
D02*
G37*
G36*
X-311561D02*
X-324462D01*
Y235384D01*
X-325856D01*
Y234687D01*
X-326205D01*
Y233641D01*
X-326553D01*
Y220741D01*
X-326205D01*
Y219695D01*
X-325856D01*
Y218998D01*
X-324810D01*
Y218649D01*
X-311213D01*
Y218998D01*
X-310167D01*
Y219346D01*
X-309818D01*
Y221090D01*
X-309470D01*
Y223181D01*
X-309818D01*
Y223530D01*
X-309470D01*
Y233990D01*
X-309818D01*
Y235036D01*
X-310167D01*
Y235384D01*
X-311561D01*
Y235733D01*
D02*
G37*
G36*
X-331435D02*
X-345381D01*
Y235384D01*
X-346078D01*
Y235036D01*
X-346427D01*
Y234338D01*
X-346775D01*
Y233990D01*
Y233641D01*
Y220044D01*
X-346427D01*
Y219346D01*
X-346078D01*
Y218998D01*
X-343986D01*
Y218649D01*
X-343289D01*
Y218998D01*
X-330737D01*
Y219346D01*
X-330389D01*
Y219695D01*
X-330040D01*
Y234687D01*
X-330389D01*
Y235036D01*
X-330737D01*
Y235384D01*
X-331435D01*
Y235733D01*
D02*
G37*
G36*
X-327948Y235036D02*
X-328994D01*
Y224925D01*
Y224576D01*
Y219695D01*
X-329343D01*
Y219346D01*
X-328994D01*
Y218649D01*
X-328645D01*
Y218300D01*
X-328297D01*
Y217952D01*
X-327948D01*
Y217603D01*
X-327599D01*
Y216906D01*
X-327251D01*
Y216557D01*
X-326553D01*
Y217603D01*
X-326902D01*
Y218998D01*
X-327251D01*
Y234687D01*
X-327948D01*
Y235036D01*
D02*
G37*
G36*
X-307726D02*
X-308772D01*
Y218998D01*
X-308424D01*
Y218300D01*
X-308075D01*
Y217952D01*
X-307726D01*
Y217603D01*
X-307377D01*
Y217254D01*
X-307029D01*
Y216906D01*
X-306680D01*
Y216208D01*
X-306332D01*
Y217952D01*
X-306680D01*
Y219695D01*
X-307029D01*
Y230503D01*
Y230852D01*
Y234687D01*
X-307726D01*
Y235036D01*
D02*
G37*
G36*
X-287156D02*
X-288202D01*
Y234687D01*
X-288550D01*
Y233990D01*
X-288202D01*
Y220044D01*
X-288550D01*
Y218998D01*
X-288202D01*
Y218649D01*
X-287853D01*
Y217952D01*
X-287504D01*
Y217603D01*
X-287156D01*
Y217254D01*
X-286807D01*
Y216906D01*
X-286458D01*
Y216557D01*
X-286110D01*
Y215860D01*
X-286458D01*
Y216208D01*
X-287156D01*
Y216557D01*
X-287504D01*
Y216906D01*
X-288202D01*
Y217254D01*
X-288550D01*
Y217603D01*
X-289247D01*
Y217952D01*
X-305286D01*
Y216208D01*
X-304937D01*
Y215163D01*
X-304588D01*
Y214814D01*
X-304240D01*
Y214465D01*
X-288899D01*
Y214116D01*
X-288550D01*
Y214465D01*
X-287504D01*
Y214116D01*
X-286110D01*
Y214465D01*
X-285064D01*
Y214814D01*
X-284715D01*
Y215163D01*
X-284366D01*
Y227017D01*
X-284715D01*
Y233293D01*
X-285064D01*
Y233990D01*
X-285412D01*
Y234338D01*
X-286110D01*
Y234687D01*
X-287156D01*
Y235036D01*
D02*
G37*
G36*
X-309470Y217952D02*
X-325508D01*
Y217603D01*
X-325856D01*
Y217254D01*
X-325508D01*
Y215860D01*
X-325159D01*
Y215163D01*
X-324810D01*
Y214465D01*
X-308772D01*
Y214116D01*
X-306680D01*
Y214465D01*
X-306332D01*
Y214116D01*
X-305983D01*
Y214465D01*
X-305634D01*
Y215163D01*
X-305983D01*
Y215860D01*
X-306680D01*
Y216208D01*
X-307377D01*
Y216557D01*
X-308075D01*
Y216906D01*
X-308424D01*
Y217254D01*
X-309121D01*
Y217603D01*
X-309470D01*
Y217952D01*
D02*
G37*
G36*
X-329691D02*
X-346078D01*
Y216557D01*
X-345729D01*
Y215511D01*
X-345381D01*
Y214814D01*
X-344683D01*
Y214465D01*
X-330389D01*
Y214116D01*
X-329691D01*
Y214465D01*
X-328994D01*
Y214116D01*
X-328645D01*
Y214465D01*
X-326205D01*
Y215511D01*
X-326553D01*
Y216208D01*
X-326902D01*
Y215860D01*
X-327251D01*
Y216208D01*
X-327599D01*
Y216557D01*
X-328297D01*
Y216906D01*
X-328645D01*
Y217254D01*
X-329343D01*
Y217603D01*
X-329691D01*
Y217952D01*
D02*
G37*
G36*
X-290294Y213419D02*
X-303194D01*
Y213071D01*
X-304588D01*
Y212722D01*
X-304937D01*
Y212373D01*
X-305286D01*
Y197381D01*
X-304937D01*
Y197033D01*
X-304588D01*
Y196684D01*
X-303542D01*
Y196335D01*
X-289945D01*
Y196684D01*
X-289247D01*
Y197033D01*
X-288899D01*
Y197730D01*
X-288550D01*
Y208538D01*
Y208887D01*
Y212025D01*
X-288899D01*
Y212722D01*
X-289247D01*
Y213071D01*
X-290294D01*
Y213419D01*
D02*
G37*
G36*
X-310864D02*
X-323764D01*
Y213071D01*
X-325159D01*
Y212373D01*
X-325508D01*
Y211327D01*
X-325856D01*
Y198427D01*
X-325508D01*
Y198078D01*
Y197730D01*
Y197381D01*
X-325159D01*
Y196684D01*
X-324113D01*
Y196335D01*
X-310515D01*
Y196684D01*
X-309470D01*
Y197033D01*
X-309121D01*
Y198776D01*
X-308772D01*
Y200868D01*
X-309121D01*
Y201216D01*
X-308772D01*
Y211676D01*
X-309121D01*
Y212722D01*
X-309470D01*
Y213071D01*
X-310864D01*
Y213419D01*
D02*
G37*
G36*
X-330737D02*
X-344683D01*
Y213071D01*
X-345381D01*
Y212722D01*
X-345729D01*
Y212025D01*
X-346078D01*
Y197730D01*
X-345729D01*
Y197033D01*
X-345381D01*
Y196684D01*
X-343289D01*
Y196335D01*
X-342592D01*
Y196684D01*
X-330040D01*
Y197033D01*
X-329691D01*
Y197381D01*
X-329343D01*
Y212373D01*
X-329691D01*
Y212722D01*
X-330040D01*
Y213071D01*
X-330737D01*
Y213419D01*
D02*
G37*
G36*
X-327251Y212722D02*
X-328297D01*
Y197381D01*
X-328645D01*
Y197033D01*
X-328297D01*
Y196335D01*
X-327948D01*
Y195986D01*
X-327599D01*
Y195638D01*
X-327251D01*
Y195289D01*
X-326902D01*
Y194592D01*
X-326553D01*
Y194243D01*
X-325856D01*
Y195289D01*
X-326205D01*
Y196684D01*
X-326553D01*
Y198776D01*
Y199124D01*
Y212373D01*
X-327251D01*
Y212722D01*
D02*
G37*
G36*
X-307029D02*
X-308075D01*
Y196684D01*
X-307726D01*
Y195986D01*
X-307377D01*
Y195638D01*
X-307029D01*
Y195289D01*
X-306680D01*
Y194941D01*
X-306332D01*
Y194592D01*
X-305983D01*
Y193895D01*
X-305634D01*
Y195638D01*
X-305983D01*
Y197381D01*
X-306332D01*
Y208887D01*
Y209235D01*
Y212373D01*
X-307029D01*
Y212722D01*
D02*
G37*
G36*
X-286458D02*
X-287504D01*
Y212373D01*
X-287853D01*
Y211676D01*
X-287504D01*
Y197730D01*
X-287853D01*
Y196684D01*
X-287504D01*
Y196335D01*
X-287156D01*
Y195638D01*
X-286807D01*
Y195289D01*
X-286458D01*
Y194941D01*
X-286110D01*
Y194592D01*
X-285761D01*
Y194243D01*
X-285412D01*
Y193546D01*
X-285761D01*
Y193895D01*
X-286458D01*
Y194243D01*
X-286807D01*
Y194592D01*
X-287504D01*
Y194941D01*
X-287853D01*
Y195289D01*
X-288550D01*
Y195638D01*
X-304588D01*
Y193895D01*
X-304240D01*
Y192849D01*
X-303891D01*
Y192500D01*
X-303542D01*
Y192151D01*
X-302496D01*
Y191803D01*
X-285412D01*
Y192151D01*
X-284366D01*
Y192500D01*
X-284018D01*
Y192849D01*
X-283669D01*
Y204703D01*
X-284018D01*
Y210979D01*
X-284366D01*
Y211676D01*
X-284715D01*
Y212025D01*
X-285412D01*
Y212373D01*
X-286458D01*
Y212722D01*
D02*
G37*
G36*
X-328994Y195638D02*
X-345381D01*
Y194243D01*
X-345032D01*
Y193197D01*
X-344683D01*
Y192500D01*
X-343986D01*
Y192151D01*
X-325508D01*
Y193197D01*
X-325856D01*
Y193895D01*
X-326205D01*
Y193546D01*
X-326553D01*
Y193895D01*
X-326902D01*
Y194243D01*
X-327599D01*
Y194592D01*
X-327948D01*
Y194941D01*
X-328645D01*
Y195289D01*
X-328994D01*
Y195638D01*
D02*
G37*
G36*
X-308772D02*
X-324810D01*
Y195289D01*
X-325159D01*
Y194941D01*
X-324810D01*
Y193546D01*
X-324462D01*
Y192849D01*
X-324113D01*
Y192500D01*
X-323764D01*
Y192151D01*
X-322370D01*
Y191803D01*
X-305983D01*
Y192151D01*
X-304937D01*
Y192849D01*
X-305286D01*
Y193546D01*
X-305983D01*
Y193895D01*
X-306680D01*
Y194243D01*
X-307377D01*
Y194592D01*
X-307726D01*
Y194941D01*
X-308424D01*
Y195289D01*
X-308772D01*
Y195638D01*
D02*
G37*
%LPD*%
G36*
X-297532Y230715D02*
X-297250Y230702D01*
X-296995Y230664D01*
X-296740Y230625D01*
X-296509Y230574D01*
X-296292Y230523D01*
X-296088Y230459D01*
X-295909Y230408D01*
X-295743Y230344D01*
X-295602Y230293D01*
X-295487Y230229D01*
X-295385Y230191D01*
X-295296Y230152D01*
X-295245Y230114D01*
X-295206Y230101D01*
X-295194Y230089D01*
X-294823Y229846D01*
X-294504Y229578D01*
X-294235Y229322D01*
X-294018Y229067D01*
X-293852Y228849D01*
X-293788Y228747D01*
X-293724Y228671D01*
X-293686Y228594D01*
X-293660Y228543D01*
X-293635Y228517D01*
Y228504D01*
X-293456Y228147D01*
X-293328Y227789D01*
X-293239Y227444D01*
X-293188Y227137D01*
X-293162Y226997D01*
X-293149Y226869D01*
X-293137Y226767D01*
X-293124Y226665D01*
Y226588D01*
Y226537D01*
Y226499D01*
Y226486D01*
X-293137Y226217D01*
X-293162Y225949D01*
X-293200Y225706D01*
X-293252Y225476D01*
X-293303Y225259D01*
X-293367Y225055D01*
X-293430Y224876D01*
X-293494Y224710D01*
X-293558Y224557D01*
X-293622Y224429D01*
X-293686Y224314D01*
X-293737Y224212D01*
X-293788Y224148D01*
X-293827Y224084D01*
X-293839Y224058D01*
X-293852Y224046D01*
X-294120Y223713D01*
X-294414Y223432D01*
X-294708Y223190D01*
X-294976Y222998D01*
X-295219Y222857D01*
X-295321Y222793D01*
X-295411Y222755D01*
X-295487Y222717D01*
X-295539Y222691D01*
X-295577Y222666D01*
X-295590D01*
X-295986Y222525D01*
X-296369Y222423D01*
X-296727Y222346D01*
X-297046Y222295D01*
X-297199Y222270D01*
X-297327D01*
X-297442Y222257D01*
X-297532Y222244D01*
X-298017D01*
X-298311Y222270D01*
X-298579Y222308D01*
X-298822Y222346D01*
X-299039Y222385D01*
X-299129Y222397D01*
X-299205Y222410D01*
X-299256Y222423D01*
X-299307Y222436D01*
X-299333Y222449D01*
X-299346D01*
X-299652Y222538D01*
X-299933Y222653D01*
X-300202Y222768D01*
X-300432Y222883D01*
X-300636Y222998D01*
X-300713Y223036D01*
X-300777Y223087D01*
X-300828Y223113D01*
X-300866Y223138D01*
X-300892Y223164D01*
X-300905D01*
X-301160Y223368D01*
X-301403Y223573D01*
X-301594Y223790D01*
X-301773Y224007D01*
X-301914Y224186D01*
X-302003Y224339D01*
X-302042Y224390D01*
X-302067Y224429D01*
X-302093Y224454D01*
Y224467D01*
X-302246Y224786D01*
X-302361Y225119D01*
X-302438Y225451D01*
X-302502Y225758D01*
X-302527Y225898D01*
X-302540Y226039D01*
X-302553Y226154D01*
Y226256D01*
X-302565Y226332D01*
Y226396D01*
Y226435D01*
Y226447D01*
X-302553Y226703D01*
X-302527Y226958D01*
X-302502Y227188D01*
X-302450Y227406D01*
X-302399Y227623D01*
X-302335Y227815D01*
X-302284Y227993D01*
X-302220Y228159D01*
X-302157Y228300D01*
X-302093Y228440D01*
X-302029Y228543D01*
X-301978Y228645D01*
X-301939Y228709D01*
X-301901Y228773D01*
X-301888Y228798D01*
X-301875Y228811D01*
X-301607Y229143D01*
X-301313Y229437D01*
X-301019Y229680D01*
X-300751Y229884D01*
X-300496Y230037D01*
X-300394Y230101D01*
X-300304Y230152D01*
X-300227Y230191D01*
X-300176Y230216D01*
X-300138Y230242D01*
X-300125D01*
X-299716Y230408D01*
X-299307Y230523D01*
X-298924Y230612D01*
X-298566Y230664D01*
X-298413Y230689D01*
X-298273Y230702D01*
X-298145Y230715D01*
X-298030D01*
X-297940Y230727D01*
X-297825D01*
X-297532Y230715D01*
D02*
G37*
%LPC*%
G36*
X-297774Y229015D02*
X-297876D01*
X-298106Y229003D01*
X-298324Y228977D01*
X-298732Y228900D01*
X-298924Y228849D01*
X-299090Y228798D01*
X-299256Y228734D01*
X-299397Y228671D01*
X-299525Y228607D01*
X-299640Y228543D01*
X-299742Y228479D01*
X-299818Y228428D01*
X-299882Y228389D01*
X-299933Y228351D01*
X-299959Y228338D01*
X-299972Y228326D01*
X-300112Y228198D01*
X-300253Y228057D01*
X-300355Y227904D01*
X-300457Y227751D01*
X-300547Y227597D01*
X-300611Y227444D01*
X-300713Y227137D01*
X-300751Y226997D01*
X-300790Y226869D01*
X-300802Y226754D01*
X-300815Y226652D01*
X-300828Y226575D01*
X-300841Y226511D01*
Y226473D01*
Y226460D01*
X-300802Y226102D01*
X-300738Y225796D01*
X-300649Y225527D01*
X-300547Y225298D01*
X-300445Y225131D01*
X-300355Y225004D01*
X-300304Y224927D01*
X-300278Y224914D01*
Y224902D01*
X-300074Y224710D01*
X-299870Y224557D01*
X-299665Y224416D01*
X-299474Y224314D01*
X-299307Y224237D01*
X-299167Y224186D01*
X-299116Y224173D01*
X-299077Y224160D01*
X-299065Y224148D01*
X-299052D01*
X-298796Y224084D01*
X-298554Y224033D01*
X-298324Y223994D01*
X-298132Y223969D01*
X-297979Y223956D01*
X-297864Y223943D01*
X-297762D01*
X-297493Y223956D01*
X-297238Y223982D01*
X-296995Y224033D01*
X-296791Y224084D01*
X-296612Y224122D01*
X-296484Y224173D01*
X-296433Y224186D01*
X-296395Y224199D01*
X-296382Y224212D01*
X-296369D01*
X-296126Y224327D01*
X-295922Y224454D01*
X-295730Y224595D01*
X-295577Y224723D01*
X-295449Y224850D01*
X-295360Y224953D01*
X-295296Y225016D01*
X-295283Y225042D01*
X-295142Y225272D01*
X-295028Y225515D01*
X-294951Y225758D01*
X-294900Y225987D01*
X-294861Y226205D01*
X-294849Y226281D01*
Y226358D01*
X-294836Y226422D01*
Y226473D01*
Y226499D01*
Y226511D01*
X-294849Y226728D01*
X-294887Y226933D01*
X-294938Y227125D01*
X-294989Y227291D01*
X-295040Y227444D01*
X-295091Y227546D01*
X-295130Y227623D01*
X-295142Y227648D01*
X-295270Y227853D01*
X-295424Y228044D01*
X-295577Y228211D01*
X-295743Y228338D01*
X-295884Y228453D01*
X-295998Y228543D01*
X-296088Y228594D01*
X-296101Y228607D01*
X-296113D01*
X-296382Y228734D01*
X-296663Y228837D01*
X-296957Y228900D01*
X-297238Y228951D01*
X-297493Y228990D01*
X-297596Y229003D01*
X-297698D01*
X-297774Y229015D01*
D02*
G37*
%LPD*%
G36*
X-313593Y227521D02*
X-315279D01*
Y228543D01*
X-315637Y228696D01*
X-315816Y228747D01*
X-315982Y228798D01*
X-316123Y228837D01*
X-316225Y228862D01*
X-316301Y228888D01*
X-316327D01*
X-316544Y228926D01*
X-316749Y228964D01*
X-316940Y228990D01*
X-317119Y229003D01*
X-317260Y229015D01*
X-317566D01*
X-317681Y229003D01*
X-317911Y228990D01*
X-318013Y228977D01*
X-318103Y228964D01*
X-318154Y228951D01*
X-318180D01*
X-318346Y228926D01*
X-318512Y228888D01*
X-318652Y228849D01*
X-318780Y228811D01*
X-318882Y228773D01*
X-318972Y228734D01*
X-319023Y228722D01*
X-319036Y228709D01*
X-319163Y228632D01*
X-319266Y228543D01*
X-319342Y228453D01*
X-319393Y228364D01*
X-319432Y228287D01*
X-319444Y228223D01*
X-319457Y228172D01*
Y228159D01*
X-319432Y228044D01*
X-319393Y227942D01*
X-319342Y227853D01*
X-319278Y227776D01*
X-319214Y227725D01*
X-319163Y227687D01*
X-319125Y227661D01*
X-319112Y227648D01*
X-318869Y227533D01*
X-318755Y227495D01*
X-318640Y227457D01*
X-318550Y227431D01*
X-318473Y227418D01*
X-318422Y227406D01*
X-318410D01*
X-318269Y227380D01*
X-318141Y227367D01*
X-318039Y227355D01*
X-317937Y227342D01*
X-317873D01*
X-317809Y227329D01*
X-317771D01*
X-315458Y227150D01*
X-315126Y227099D01*
X-314832Y227010D01*
X-314564Y226907D01*
X-314347Y226792D01*
X-314168Y226677D01*
X-314091Y226626D01*
X-314027Y226575D01*
X-313976Y226537D01*
X-313938Y226511D01*
X-313925Y226499D01*
X-313912Y226486D01*
X-313797Y226371D01*
X-313695Y226256D01*
X-313542Y226000D01*
X-313427Y225732D01*
X-313337Y225476D01*
X-313286Y225246D01*
X-313274Y225144D01*
X-313261Y225055D01*
X-313248Y224991D01*
Y224940D01*
Y224902D01*
Y224889D01*
X-313274Y224595D01*
X-313325Y224327D01*
X-313401Y224084D01*
X-313491Y223879D01*
X-313593Y223701D01*
X-313670Y223573D01*
X-313695Y223534D01*
X-313721Y223496D01*
X-313746Y223483D01*
Y223470D01*
X-313938Y223266D01*
X-314155Y223087D01*
X-314385Y222921D01*
X-314590Y222793D01*
X-314781Y222691D01*
X-314934Y222627D01*
X-314998Y222602D01*
X-315037Y222576D01*
X-315062Y222563D01*
X-315075D01*
X-315394Y222461D01*
X-315714Y222385D01*
X-316033Y222321D01*
X-316314Y222282D01*
X-316455Y222270D01*
X-316570Y222257D01*
X-316672D01*
X-316761Y222244D01*
X-316940D01*
X-317209Y222257D01*
X-317464Y222270D01*
X-317694Y222295D01*
X-317911Y222321D01*
X-318090Y222346D01*
X-318231Y222359D01*
X-318282Y222372D01*
X-318320Y222385D01*
X-318346D01*
X-318601Y222436D01*
X-318831Y222500D01*
X-319048Y222563D01*
X-319240Y222627D01*
X-319406Y222678D01*
X-319534Y222729D01*
X-319611Y222755D01*
X-319623Y222768D01*
X-319636D01*
Y222244D01*
X-321323D01*
Y225694D01*
X-319636D01*
Y224416D01*
X-319496Y224365D01*
X-319329Y224314D01*
X-319163Y224263D01*
X-318997Y224212D01*
X-318857Y224173D01*
X-318729Y224135D01*
X-318652Y224122D01*
X-318640Y224109D01*
X-318627D01*
X-318371Y224058D01*
X-318103Y224020D01*
X-317835Y223994D01*
X-317579Y223969D01*
X-317362Y223956D01*
X-317272D01*
X-317196Y223943D01*
X-316851D01*
X-316672Y223956D01*
X-316506Y223982D01*
X-316353Y223994D01*
X-316225Y224020D01*
X-316135Y224033D01*
X-316071Y224046D01*
X-316046D01*
X-315867Y224097D01*
X-315714Y224148D01*
X-315573Y224199D01*
X-315458Y224250D01*
X-315356Y224288D01*
X-315292Y224327D01*
X-315241Y224352D01*
X-315228Y224365D01*
X-315113Y224454D01*
X-315037Y224544D01*
X-314973Y224620D01*
X-314934Y224710D01*
X-314909Y224786D01*
X-314896Y224838D01*
X-314883Y224876D01*
Y224889D01*
X-314896Y225004D01*
X-314909Y225093D01*
X-314934Y225144D01*
X-314947Y225170D01*
X-314998Y225259D01*
X-315062Y225336D01*
X-315126Y225374D01*
X-315139Y225387D01*
X-315152D01*
X-315318Y225464D01*
X-315484Y225515D01*
X-315650Y225553D01*
X-315803Y225579D01*
X-315944Y225604D01*
X-316046Y225617D01*
X-316135D01*
X-316340Y225630D01*
X-316532Y225643D01*
X-316710D01*
X-316876Y225655D01*
X-317004D01*
X-317106Y225668D01*
X-317196D01*
X-317388Y225681D01*
X-317579Y225706D01*
X-317784Y225732D01*
X-317962Y225745D01*
X-318116Y225770D01*
X-318231Y225783D01*
X-318282D01*
X-318320Y225796D01*
X-318346D01*
X-318588Y225834D01*
X-318818Y225885D01*
X-319036Y225936D01*
X-319227Y226000D01*
X-319393Y226051D01*
X-319521Y226090D01*
X-319559Y226102D01*
X-319598Y226115D01*
X-319611Y226128D01*
X-319623D01*
X-319853Y226230D01*
X-320045Y226358D01*
X-320224Y226473D01*
X-320377Y226601D01*
X-320492Y226703D01*
X-320582Y226792D01*
X-320633Y226843D01*
X-320658Y226869D01*
X-320799Y227073D01*
X-320901Y227291D01*
X-320965Y227508D01*
X-321016Y227725D01*
X-321054Y227904D01*
X-321067Y228057D01*
X-321080Y228121D01*
Y228159D01*
Y228185D01*
Y228198D01*
X-321054Y228517D01*
X-320990Y228811D01*
X-320901Y229067D01*
X-320812Y229271D01*
X-320709Y229437D01*
X-320620Y229565D01*
X-320569Y229641D01*
X-320543Y229667D01*
X-320339Y229859D01*
X-320122Y230037D01*
X-319904Y230178D01*
X-319700Y230293D01*
X-319508Y230370D01*
X-319368Y230434D01*
X-319317Y230459D01*
X-319278Y230472D01*
X-319253Y230485D01*
X-319240D01*
X-318946Y230574D01*
X-318652Y230625D01*
X-318384Y230676D01*
X-318129Y230702D01*
X-317924Y230715D01*
X-317835Y230727D01*
X-317388D01*
X-317170Y230715D01*
X-316966Y230689D01*
X-316774Y230676D01*
X-316621Y230651D01*
X-316506Y230625D01*
X-316429Y230612D01*
X-316404D01*
X-316174Y230561D01*
X-315969Y230510D01*
X-315778Y230459D01*
X-315612Y230421D01*
X-315471Y230370D01*
X-315369Y230344D01*
X-315305Y230319D01*
X-315279Y230306D01*
Y230727D01*
X-313593D01*
Y227521D01*
D02*
G37*
G36*
X-335090Y232912D02*
X-334975D01*
X-334860Y232899D01*
X-334720Y232887D01*
X-334554Y232848D01*
X-334400Y232810D01*
X-334260Y232746D01*
X-334132Y232657D01*
X-334119Y232644D01*
X-334094Y232618D01*
X-334043Y232554D01*
X-333991Y232491D01*
X-333940Y232388D01*
X-333889Y232286D01*
X-333864Y232158D01*
X-333851Y232018D01*
Y232005D01*
Y231954D01*
X-333864Y231877D01*
X-333889Y231788D01*
X-333915Y231673D01*
X-333966Y231571D01*
X-334043Y231456D01*
X-334132Y231353D01*
X-334145Y231341D01*
X-334183Y231315D01*
X-334260Y231277D01*
X-334362Y231238D01*
X-334490Y231187D01*
X-334656Y231149D01*
X-334860Y231124D01*
X-335090Y231111D01*
X-336917D01*
Y224046D01*
X-334975D01*
X-334860Y224033D01*
X-334720Y224020D01*
X-334554Y223982D01*
X-334400Y223943D01*
X-334260Y223879D01*
X-334132Y223790D01*
X-334119Y223777D01*
X-334094Y223739D01*
X-334043Y223688D01*
X-333991Y223611D01*
X-333940Y223522D01*
X-333889Y223407D01*
X-333864Y223279D01*
X-333851Y223138D01*
Y223126D01*
Y223074D01*
X-333864Y222998D01*
X-333889Y222908D01*
X-333915Y222806D01*
X-333966Y222691D01*
X-334043Y222589D01*
X-334132Y222487D01*
X-334145Y222474D01*
X-334183Y222449D01*
X-334260Y222410D01*
X-334362Y222372D01*
X-334490Y222321D01*
X-334656Y222282D01*
X-334860Y222257D01*
X-335090Y222244D01*
X-340661D01*
X-340776Y222257D01*
X-340929Y222270D01*
X-341082Y222308D01*
X-341248Y222346D01*
X-341389Y222410D01*
X-341517Y222487D01*
X-341529Y222500D01*
X-341555Y222538D01*
X-341606Y222589D01*
X-341644Y222666D01*
X-341696Y222768D01*
X-341747Y222870D01*
X-341772Y223011D01*
X-341785Y223151D01*
Y223164D01*
Y223215D01*
X-341772Y223292D01*
X-341747Y223381D01*
X-341721Y223483D01*
X-341670Y223585D01*
X-341606Y223688D01*
X-341517Y223790D01*
X-341504Y223803D01*
X-341465Y223828D01*
X-341389Y223867D01*
X-341287Y223918D01*
X-341159Y223969D01*
X-340993Y224007D01*
X-340788Y224033D01*
X-340546Y224046D01*
X-338719D01*
Y231124D01*
X-340661D01*
X-340776Y231136D01*
X-340929Y231149D01*
X-341082Y231187D01*
X-341248Y231226D01*
X-341389Y231290D01*
X-341517Y231366D01*
X-341529Y231379D01*
X-341555Y231417D01*
X-341606Y231468D01*
X-341644Y231545D01*
X-341696Y231635D01*
X-341747Y231749D01*
X-341772Y231877D01*
X-341785Y232018D01*
Y232031D01*
Y232082D01*
X-341772Y232158D01*
X-341747Y232248D01*
X-341721Y232363D01*
X-341670Y232465D01*
X-341606Y232567D01*
X-341517Y232669D01*
X-341504Y232682D01*
X-341465Y232708D01*
X-341389Y232746D01*
X-341287Y232797D01*
X-341159Y232848D01*
X-340993Y232887D01*
X-340788Y232912D01*
X-340546Y232925D01*
X-335090Y232912D01*
D02*
G37*
G36*
X-291795Y206338D02*
X-293137D01*
X-297889Y198378D01*
X-296688D01*
Y196666D01*
X-301824D01*
Y198378D01*
X-299793D01*
X-298260Y200895D01*
X-301224Y206338D01*
X-302565D01*
Y208050D01*
X-298464D01*
Y206338D01*
X-299333D01*
X-297289Y202530D01*
X-295015Y206338D01*
X-295820D01*
Y208050D01*
X-291795D01*
Y206338D01*
D02*
G37*
G36*
X-316340Y208522D02*
X-315931Y208470D01*
X-315573Y208394D01*
X-315407Y208356D01*
X-315254Y208317D01*
X-315113Y208266D01*
X-314998Y208228D01*
X-314883Y208189D01*
X-314794Y208151D01*
X-314730Y208113D01*
X-314666Y208100D01*
X-314641Y208074D01*
X-314628D01*
X-314283Y207883D01*
X-313989Y207666D01*
X-313721Y207448D01*
X-313503Y207231D01*
X-313325Y207040D01*
X-313261Y206963D01*
X-313197Y206886D01*
X-313159Y206822D01*
X-313120Y206784D01*
X-313095Y206758D01*
Y206746D01*
X-312992Y206580D01*
X-312903Y206413D01*
X-312763Y206068D01*
X-312660Y205736D01*
X-312584Y205430D01*
X-312558Y205289D01*
X-312545Y205161D01*
X-312533Y205046D01*
X-312520Y204944D01*
X-312507Y204868D01*
Y204804D01*
Y204765D01*
Y204753D01*
Y204510D01*
X-312520Y204395D01*
Y204293D01*
Y204203D01*
X-312533Y204126D01*
Y204075D01*
Y204063D01*
Y203935D01*
X-312545Y203820D01*
Y203731D01*
Y203667D01*
X-312558Y203603D01*
Y203564D01*
Y203552D01*
Y203539D01*
X-319611D01*
X-319585Y203411D01*
X-319547Y203283D01*
X-319496Y203155D01*
X-319444Y203041D01*
X-319393Y202938D01*
X-319355Y202862D01*
X-319329Y202811D01*
X-319317Y202785D01*
X-319202Y202632D01*
X-319061Y202504D01*
X-318921Y202376D01*
X-318780Y202274D01*
X-318640Y202185D01*
X-318537Y202121D01*
X-318461Y202082D01*
X-318448Y202070D01*
X-318435D01*
X-318180Y201967D01*
X-317911Y201891D01*
X-317630Y201840D01*
X-317349Y201801D01*
X-317106Y201776D01*
X-317004Y201763D01*
X-316915D01*
X-316838Y201750D01*
X-316736D01*
X-316353Y201763D01*
X-315995Y201801D01*
X-315663Y201852D01*
X-315369Y201903D01*
X-315241Y201942D01*
X-315126Y201967D01*
X-315024Y201993D01*
X-314934Y202006D01*
X-314858Y202031D01*
X-314807Y202044D01*
X-314781Y202057D01*
X-314768D01*
X-314411Y202172D01*
X-314078Y202299D01*
X-313772Y202427D01*
X-313503Y202555D01*
X-313389Y202606D01*
X-313286Y202657D01*
X-313197Y202696D01*
X-313107Y202734D01*
X-313056Y202772D01*
X-313005Y202785D01*
X-312980Y202811D01*
X-312967D01*
X-312188Y201405D01*
X-312571Y201201D01*
X-312941Y201009D01*
X-313312Y200843D01*
X-313644Y200702D01*
X-313797Y200651D01*
X-313938Y200600D01*
X-314053Y200549D01*
X-314155Y200511D01*
X-314244Y200485D01*
X-314308Y200460D01*
X-314347Y200447D01*
X-314359D01*
X-314794Y200319D01*
X-315215Y200230D01*
X-315624Y200166D01*
X-315803Y200140D01*
X-315982Y200128D01*
X-316148Y200102D01*
X-316289D01*
X-316416Y200089D01*
X-316532Y200077D01*
X-316736D01*
X-317017Y200089D01*
X-317285Y200102D01*
X-317541Y200140D01*
X-317771Y200179D01*
X-318001Y200217D01*
X-318205Y200268D01*
X-318397Y200319D01*
X-318576Y200370D01*
X-318729Y200434D01*
X-318869Y200485D01*
X-318997Y200536D01*
X-319100Y200575D01*
X-319176Y200613D01*
X-319227Y200639D01*
X-319266Y200664D01*
X-319278D01*
X-319636Y200894D01*
X-319943Y201150D01*
X-320211Y201405D01*
X-320428Y201648D01*
X-320594Y201865D01*
X-320658Y201955D01*
X-320709Y202044D01*
X-320760Y202108D01*
X-320786Y202159D01*
X-320799Y202185D01*
X-320812Y202197D01*
X-320978Y202555D01*
X-321105Y202913D01*
X-321195Y203258D01*
X-321259Y203577D01*
X-321284Y203718D01*
X-321297Y203858D01*
X-321310Y203973D01*
Y204063D01*
X-321323Y204152D01*
Y204203D01*
Y204242D01*
Y204254D01*
X-321310Y204523D01*
X-321284Y204765D01*
X-321246Y205008D01*
X-321208Y205225D01*
X-321144Y205443D01*
X-321093Y205634D01*
X-321029Y205813D01*
X-320965Y205979D01*
X-320901Y206132D01*
X-320837Y206260D01*
X-320773Y206362D01*
X-320722Y206465D01*
X-320684Y206528D01*
X-320645Y206592D01*
X-320633Y206618D01*
X-320620Y206631D01*
X-320352Y206963D01*
X-320070Y207257D01*
X-319777Y207500D01*
X-319508Y207704D01*
X-319266Y207857D01*
X-319163Y207921D01*
X-319074Y207972D01*
X-319010Y208011D01*
X-318959Y208036D01*
X-318921Y208062D01*
X-318908D01*
X-318512Y208228D01*
X-318129Y208343D01*
X-317771Y208432D01*
X-317451Y208483D01*
X-317298Y208509D01*
X-317170Y208522D01*
X-317055Y208534D01*
X-316966D01*
X-316876Y208547D01*
X-316774D01*
X-316340Y208522D01*
D02*
G37*
%LPC*%
G36*
X-316659Y206835D02*
X-316864D01*
X-317170Y206822D01*
X-317464Y206771D01*
X-317720Y206707D01*
X-317962Y206644D01*
X-318154Y206567D01*
X-318244Y206528D01*
X-318307Y206503D01*
X-318358Y206477D01*
X-318397Y206452D01*
X-318422Y206439D01*
X-318435D01*
X-318691Y206273D01*
X-318908Y206094D01*
X-319087Y205890D01*
X-319227Y205698D01*
X-319342Y205532D01*
X-319406Y205379D01*
X-319432Y205327D01*
X-319457Y205289D01*
X-319470Y205264D01*
Y205251D01*
X-314168D01*
X-314232Y205532D01*
X-314385Y205787D01*
X-314564Y206017D01*
X-314756Y206196D01*
X-314934Y206337D01*
X-315088Y206439D01*
X-315228Y206516D01*
X-315279Y206541D01*
X-315305Y206554D01*
X-315331Y206567D01*
X-315343D01*
X-315612Y206656D01*
X-315893Y206733D01*
X-316148Y206771D01*
X-316378Y206810D01*
X-316570Y206822D01*
X-316659Y206835D01*
D02*
G37*
%LPD*%
G36*
X-332739Y210745D02*
X-332624D01*
X-332509Y210732D01*
X-332369Y210719D01*
X-332203Y210681D01*
X-332049Y210642D01*
X-331909Y210578D01*
X-331781Y210489D01*
X-331768Y210476D01*
X-331743Y210451D01*
X-331692Y210387D01*
X-331641Y210323D01*
X-331590Y210221D01*
X-331538Y210119D01*
X-331513Y209991D01*
X-331500Y209850D01*
Y209837D01*
Y209786D01*
X-331513Y209710D01*
X-331538Y209620D01*
X-331564Y209505D01*
X-331615Y209403D01*
X-331692Y209288D01*
X-331781Y209186D01*
X-331794Y209173D01*
X-331832Y209148D01*
X-331909Y209109D01*
X-332011Y209071D01*
X-332139Y209020D01*
X-332305Y208981D01*
X-332509Y208956D01*
X-332739Y208943D01*
X-335984Y206120D01*
X-335972D01*
X-335946Y206094D01*
X-335895Y206068D01*
X-335831Y206017D01*
X-335755Y205966D01*
X-335652Y205902D01*
X-335435Y205724D01*
X-335167Y205494D01*
X-334886Y205225D01*
X-334732Y205072D01*
X-334579Y204906D01*
X-334439Y204714D01*
X-334285Y204523D01*
X-334272Y204510D01*
X-334247Y204471D01*
X-334209Y204420D01*
X-334145Y204331D01*
X-334081Y204229D01*
X-333991Y204101D01*
X-333902Y203960D01*
X-333800Y203794D01*
X-333698Y203615D01*
X-333583Y203411D01*
X-333468Y203194D01*
X-333340Y202964D01*
X-333225Y202708D01*
X-333097Y202453D01*
X-332969Y202172D01*
X-332854Y201878D01*
X-332254D01*
X-332139Y201865D01*
X-331998Y201852D01*
X-331832Y201814D01*
X-331679Y201776D01*
X-331538Y201712D01*
X-331411Y201622D01*
X-331398Y201610D01*
X-331372Y201571D01*
X-331321Y201520D01*
X-331270Y201444D01*
X-331219Y201354D01*
X-331168Y201239D01*
X-331142Y201111D01*
X-331129Y200971D01*
Y200958D01*
Y200907D01*
X-331142Y200830D01*
X-331168Y200741D01*
X-331193Y200639D01*
X-331245Y200524D01*
X-331321Y200421D01*
X-331411Y200319D01*
X-331423Y200306D01*
X-331462Y200281D01*
X-331538Y200243D01*
X-331641Y200204D01*
X-331768Y200153D01*
X-331934Y200115D01*
X-332139Y200089D01*
X-332369Y200077D01*
X-334017D01*
Y200089D01*
X-334043Y200140D01*
X-334068Y200204D01*
X-334119Y200306D01*
X-334170Y200421D01*
X-334234Y200562D01*
X-334298Y200728D01*
X-334375Y200907D01*
X-334464Y201099D01*
X-334566Y201290D01*
X-334771Y201737D01*
X-335001Y202197D01*
X-335243Y202657D01*
Y202670D01*
X-335269Y202696D01*
X-335295Y202747D01*
X-335333Y202823D01*
X-335384Y202900D01*
X-335448Y203002D01*
X-335576Y203207D01*
X-335742Y203449D01*
X-335921Y203692D01*
X-336100Y203909D01*
X-336202Y204012D01*
X-336291Y204101D01*
X-336317Y204126D01*
X-336381Y204178D01*
X-336483Y204267D01*
X-336623Y204369D01*
X-336789Y204484D01*
X-336981Y204612D01*
X-337211Y204727D01*
X-337454Y204842D01*
X-338553Y203897D01*
Y201878D01*
X-337799D01*
X-337696Y201865D01*
X-337569Y201852D01*
X-337428Y201814D01*
X-337288Y201776D01*
X-337147Y201712D01*
X-337032Y201622D01*
X-337019Y201610D01*
X-336994Y201571D01*
X-336943Y201520D01*
X-336892Y201444D01*
X-336841Y201354D01*
X-336789Y201239D01*
X-336764Y201111D01*
X-336751Y200971D01*
Y200958D01*
Y200907D01*
X-336764Y200830D01*
X-336789Y200741D01*
X-336815Y200639D01*
X-336866Y200524D01*
X-336943Y200421D01*
X-337032Y200319D01*
X-337045Y200306D01*
X-337083Y200281D01*
X-337147Y200243D01*
X-337249Y200204D01*
X-337364Y200153D01*
X-337518Y200115D01*
X-337696Y200089D01*
X-337901Y200077D01*
X-340737D01*
X-340840Y200089D01*
X-340967Y200102D01*
X-341108Y200140D01*
X-341261Y200179D01*
X-341402Y200243D01*
X-341517Y200319D01*
X-341529Y200332D01*
X-341555Y200370D01*
X-341606Y200421D01*
X-341644Y200498D01*
X-341696Y200600D01*
X-341747Y200702D01*
X-341772Y200843D01*
X-341785Y200984D01*
Y200996D01*
Y201047D01*
X-341772Y201124D01*
X-341747Y201214D01*
X-341721Y201316D01*
X-341670Y201418D01*
X-341606Y201520D01*
X-341517Y201622D01*
X-341504Y201635D01*
X-341465Y201661D01*
X-341402Y201699D01*
X-341299Y201750D01*
X-341172Y201801D01*
X-341031Y201840D01*
X-340840Y201865D01*
X-340635Y201878D01*
X-340354D01*
Y208956D01*
X-340737D01*
X-340840Y208969D01*
X-340967Y208981D01*
X-341108Y209020D01*
X-341261Y209058D01*
X-341402Y209122D01*
X-341517Y209199D01*
X-341529Y209212D01*
X-341555Y209250D01*
X-341606Y209301D01*
X-341644Y209378D01*
X-341696Y209467D01*
X-341747Y209582D01*
X-341772Y209710D01*
X-341785Y209850D01*
Y209863D01*
Y209914D01*
X-341772Y209991D01*
X-341747Y210080D01*
X-341721Y210195D01*
X-341670Y210297D01*
X-341606Y210400D01*
X-341517Y210502D01*
X-341504Y210515D01*
X-341465Y210540D01*
X-341402Y210578D01*
X-341299Y210630D01*
X-341172Y210681D01*
X-341031Y210719D01*
X-340840Y210745D01*
X-340635Y210757D01*
X-337901Y210745D01*
X-337799D01*
X-337696Y210732D01*
X-337569Y210719D01*
X-337428Y210681D01*
X-337288Y210642D01*
X-337147Y210578D01*
X-337032Y210489D01*
X-337019Y210476D01*
X-336994Y210451D01*
X-336943Y210387D01*
X-336892Y210323D01*
X-336841Y210221D01*
X-336789Y210119D01*
X-336764Y209991D01*
X-336751Y209850D01*
Y209837D01*
Y209786D01*
X-336764Y209710D01*
X-336789Y209620D01*
X-336815Y209505D01*
X-336866Y209403D01*
X-336943Y209288D01*
X-337032Y209186D01*
X-337045Y209173D01*
X-337083Y209148D01*
X-337147Y209109D01*
X-337249Y209071D01*
X-337364Y209020D01*
X-337518Y208981D01*
X-337696Y208956D01*
X-337901Y208943D01*
X-338553D01*
Y206273D01*
X-335346Y209020D01*
Y209033D01*
Y209045D01*
X-335371Y209071D01*
X-335410Y209097D01*
X-335473Y209148D01*
X-335563Y209212D01*
X-335576Y209224D01*
X-335601Y209250D01*
X-335652Y209301D01*
X-335691Y209365D01*
X-335742Y209454D01*
X-335793Y209556D01*
X-335818Y209684D01*
X-335831Y209825D01*
Y209837D01*
Y209889D01*
X-335818Y209965D01*
X-335793Y210068D01*
X-335767Y210170D01*
X-335716Y210272D01*
X-335652Y210387D01*
X-335563Y210489D01*
X-335550Y210502D01*
X-335525Y210527D01*
X-335435Y210630D01*
X-335384Y210668D01*
X-335359Y210719D01*
X-335333Y210745D01*
X-335346Y210757D01*
X-332739Y210745D01*
D02*
G37*
%LPC*%
G36*
X-1218984Y-248234D02*
X-1219152D01*
X-1219265Y-248262D01*
X-1219434D01*
X-1219602Y-248291D01*
X-1220024Y-248375D01*
X-1220502Y-248515D01*
X-1221008Y-248712D01*
X-1221542Y-248993D01*
X-1222048Y-249359D01*
X-1222105Y-249387D01*
X-1222217Y-249528D01*
X-1222442Y-249725D01*
X-1222695Y-250006D01*
X-1222976Y-250343D01*
X-1223258Y-250765D01*
X-1223567Y-251243D01*
X-1223848Y-251777D01*
Y-261984D01*
X-1223792Y-261422D01*
X-1223736Y-261365D01*
X-1223651Y-261253D01*
X-1223482Y-261112D01*
X-1223342Y-260944D01*
X-1223314Y-260887D01*
X-1223201Y-260775D01*
X-1223061Y-260578D01*
X-1222892Y-260325D01*
X-1222864Y-260269D01*
X-1222751Y-260184D01*
X-1222583Y-260100D01*
X-1222386Y-260044D01*
X-1222273D01*
X-1222189Y-260072D01*
X-1222077Y-260156D01*
X-1221964Y-260241D01*
X-1221908Y-260381D01*
X-1221852Y-260578D01*
X-1221880Y-260859D01*
Y-260916D01*
X-1221908Y-261000D01*
X-1221936Y-261168D01*
Y-261197D01*
Y-261309D01*
X-1221964Y-261450D01*
Y-261590D01*
Y-261618D01*
Y-261646D01*
X-1221936Y-261815D01*
X-1221908Y-262040D01*
X-1221824Y-262265D01*
Y-262293D01*
X-1221795Y-262321D01*
X-1221655Y-262490D01*
X-1221570Y-262574D01*
X-1221430Y-262687D01*
X-1221289Y-262799D01*
X-1221092Y-262912D01*
X-1221064D01*
X-1220980Y-262940D01*
X-1220867Y-262996D01*
X-1220727Y-263024D01*
X-1220530Y-263081D01*
X-1220333Y-263137D01*
X-1219855Y-263165D01*
X-1219743D01*
X-1219602Y-263137D01*
X-1219434D01*
X-1219209Y-263081D01*
X-1218956Y-263052D01*
X-1218674Y-262968D01*
X-1218365Y-262884D01*
X-1218056Y-262743D01*
X-1217718Y-262603D01*
X-1217381Y-262406D01*
X-1217015Y-262181D01*
X-1216678Y-261900D01*
X-1216340Y-261590D01*
X-1216003Y-261253D01*
X-1215694Y-260831D01*
X-1215666Y-260803D01*
X-1215638Y-260719D01*
X-1215553Y-260578D01*
X-1215441Y-260409D01*
X-1215328Y-260156D01*
X-1215188Y-259875D01*
X-1215047Y-259566D01*
X-1214878Y-259172D01*
X-1214738Y-258750D01*
X-1214597Y-258272D01*
X-1214457Y-257766D01*
X-1214344Y-257204D01*
X-1214232Y-256613D01*
X-1214147Y-255967D01*
X-1214119Y-255292D01*
X-1214091Y-254589D01*
Y-254561D01*
Y-254477D01*
Y-254336D01*
X-1214119Y-254167D01*
Y-253942D01*
X-1214175Y-253689D01*
X-1214204Y-253408D01*
X-1214260Y-253099D01*
X-1214428Y-252424D01*
X-1214682Y-251693D01*
X-1214850Y-251299D01*
X-1215019Y-250934D01*
X-1215244Y-250568D01*
X-1215497Y-250203D01*
X-1215525Y-250175D01*
X-1215553Y-250118D01*
X-1215638Y-250034D01*
X-1215750Y-249893D01*
X-1215891Y-249753D01*
X-1216059Y-249584D01*
X-1216453Y-249218D01*
X-1216959Y-248853D01*
X-1217550Y-248544D01*
X-1217887Y-248403D01*
X-1218224Y-248319D01*
X-1218590Y-248262D01*
X-1218984Y-248234D01*
D02*
G37*
G36*
X-1228581Y-181114D02*
X-1228812D01*
X-1228992Y-181140D01*
X-1229197Y-181166D01*
X-1229453Y-181191D01*
X-1229710Y-181243D01*
X-1230018Y-181320D01*
X-1230659Y-181499D01*
X-1230993Y-181628D01*
X-1231352Y-181781D01*
X-1231685Y-181961D01*
X-1232045Y-182192D01*
X-1232378Y-182423D01*
X-1232686Y-182705D01*
X-1232711Y-182731D01*
X-1232763Y-182782D01*
X-1232840Y-182859D01*
X-1232942Y-182987D01*
X-1233071Y-183141D01*
X-1233199Y-183321D01*
X-1233353Y-183526D01*
X-1233507Y-183757D01*
X-1233815Y-184296D01*
X-1234071Y-184911D01*
X-1234174Y-185270D01*
X-1234251Y-185630D01*
X-1234302Y-185989D01*
X-1234328Y-186374D01*
Y-186399D01*
Y-186451D01*
Y-186527D01*
X-1234302Y-186656D01*
X-1234276Y-186810D01*
X-1234251Y-186989D01*
X-1234122Y-187400D01*
X-1233917Y-187887D01*
X-1233789Y-188169D01*
X-1233635Y-188426D01*
X-1233456Y-188708D01*
X-1233225Y-188990D01*
X-1232968Y-189272D01*
X-1232686Y-189555D01*
X-1232660Y-189580D01*
X-1232609Y-189606D01*
X-1232506Y-189683D01*
X-1232378Y-189785D01*
X-1232224Y-189888D01*
X-1232019Y-190016D01*
X-1231814Y-190145D01*
X-1231557Y-190273D01*
X-1231249Y-190427D01*
X-1230941Y-190555D01*
X-1230608Y-190683D01*
X-1230249Y-190786D01*
X-1229864Y-190889D01*
X-1229453Y-190966D01*
X-1229017Y-190991D01*
X-1228581Y-191017D01*
X-1228350D01*
X-1228171Y-190991D01*
X-1227965Y-190966D01*
X-1227709Y-190940D01*
X-1227452Y-190889D01*
X-1227145Y-190837D01*
X-1226503Y-190658D01*
X-1226170Y-190529D01*
X-1225811Y-190401D01*
X-1225477Y-190222D01*
X-1225144Y-190042D01*
X-1224784Y-189811D01*
X-1224477Y-189555D01*
X-1224451Y-189529D01*
X-1224400Y-189478D01*
X-1224323Y-189401D01*
X-1224220Y-189298D01*
X-1224092Y-189144D01*
X-1223938Y-188990D01*
X-1223630Y-188605D01*
X-1223348Y-188118D01*
X-1223066Y-187579D01*
X-1222963Y-187271D01*
X-1222886Y-186989D01*
X-1222835Y-186656D01*
X-1222809Y-186348D01*
Y-186322D01*
Y-186271D01*
Y-186168D01*
X-1222835Y-186040D01*
Y-185886D01*
X-1222886Y-185707D01*
X-1222963Y-185270D01*
X-1223117Y-184783D01*
X-1223348Y-184244D01*
X-1223476Y-183962D01*
X-1223656Y-183680D01*
X-1223835Y-183398D01*
X-1224066Y-183115D01*
X-1224092Y-183090D01*
X-1224143Y-183039D01*
X-1224246Y-182936D01*
X-1224374Y-182808D01*
X-1224554Y-182654D01*
X-1224759Y-182474D01*
X-1224990Y-182295D01*
X-1225272Y-182115D01*
X-1225580Y-181935D01*
X-1225913Y-181756D01*
X-1226298Y-181576D01*
X-1226683Y-181422D01*
X-1227119Y-181294D01*
X-1227581Y-181191D01*
X-1228068Y-181140D01*
X-1228581Y-181114D01*
D02*
G37*
%LPD*%
D10*
X82500Y-800958D02*
G03*
X82500Y-800958I-2500J0D01*
G01*
Y-830979D02*
G03*
X82500Y-830979I-2500J0D01*
G01*
X79500Y-816000D02*
G03*
X79500Y-816000I-2500J0D01*
G01*
X45000Y262500D02*
G03*
X45000Y262500I-85000J0D01*
G01*
X-1437500Y-385000D02*
X-1327500D01*
X-1437500Y-120000D02*
X-1327500D01*
Y-385000D02*
Y-120000D01*
X-1437500Y-385000D02*
Y-120000D01*
X-598311Y247289D02*
X-371143Y211309D01*
X-342985Y389093D01*
X-570153Y425073D02*
X-342985Y389093D01*
X-574846Y395442D02*
X-570153Y425073D01*
X-594401Y271981D02*
X-574846Y395442D01*
X-598311Y247289D02*
X-594401Y271981D01*
X-1334492Y-439412D02*
Y-414012D01*
X-1436092Y-439412D02*
X-1334492D01*
X-1436092Y-414012D02*
X-1334492D01*
X-1436092Y-439412D02*
Y-414012D01*
X60641Y-796959D02*
Y-804957D01*
Y-796959D02*
X63307D01*
X64450Y-797340D01*
X65212Y-798102D01*
X65592Y-798863D01*
X65973Y-800006D01*
Y-801910D01*
X65592Y-803053D01*
X65212Y-803815D01*
X64450Y-804576D01*
X63307Y-804957D01*
X60641D01*
Y-826980D02*
Y-834978D01*
Y-826980D02*
X64069D01*
X65212Y-827361D01*
X65592Y-827742D01*
X65973Y-828503D01*
Y-829265D01*
X65592Y-830027D01*
X65212Y-830408D01*
X64069Y-830789D01*
X60641D02*
X64069D01*
X65212Y-831170D01*
X65592Y-831550D01*
X65973Y-832312D01*
Y-833455D01*
X65592Y-834217D01*
X65212Y-834597D01*
X64069Y-834978D01*
X60641D01*
X-543985Y204793D02*
X-543166Y209965D01*
X-539851Y206548D01*
X-539628Y207959D01*
X-539009Y208825D01*
X-538464Y209221D01*
X-536979Y209467D01*
X-536038Y209318D01*
X-534702Y208625D01*
X-533911Y207535D01*
X-533664Y206050D01*
X-533887Y204639D01*
X-534581Y203303D01*
X-535126Y202907D01*
X-536141Y202586D01*
X-533733Y211701D02*
X-533337Y211156D01*
X-532792Y211552D01*
X-533188Y212096D01*
X-533733Y211701D01*
X-542101Y216689D02*
X-541282Y221862D01*
X-537967Y218445D01*
X-537743Y219855D01*
X-537124Y220721D01*
X-536580Y221117D01*
X-535094Y221364D01*
X-534154Y221215D01*
X-532818Y220521D01*
X-532026Y219432D01*
X-531780Y217947D01*
X-532003Y216536D01*
X-532697Y215200D01*
X-533241Y214804D01*
X-534256Y214483D01*
X-540857Y224542D02*
X-530387Y226740D01*
X-539666Y232066D02*
X-530387Y226740D01*
X-565753Y213929D02*
X-566768Y213608D01*
X-567858Y212816D01*
X-568477Y211950D01*
X-568775Y210070D01*
X-568454Y209055D01*
X-567662Y207965D01*
X-566796Y207346D01*
X-565460Y206652D01*
X-563109Y206280D01*
X-561624Y206527D01*
X-560609Y206848D01*
X-559519Y207640D01*
X-558900Y208505D01*
X-558602Y210386D01*
X-558923Y211401D01*
X-559715Y212491D01*
X-560581Y213110D01*
X-561992Y213333D01*
X-562364Y210982D02*
X-561992Y213333D01*
X-567747Y216559D02*
X-557872Y214995D01*
X-567747Y216559D02*
X-556830Y221578D01*
X-566704Y223142D02*
X-556830Y221578D01*
X-566273Y225869D02*
X-556398Y224305D01*
X-566273Y225869D02*
X-565751Y229161D01*
X-565057Y230497D01*
X-563968Y231289D01*
X-562953Y231610D01*
X-561468Y231856D01*
X-559117Y231484D01*
X-557781Y230791D01*
X-556915Y230171D01*
X-556123Y229082D01*
X-555876Y227597D01*
X-556398Y224305D01*
X-592852Y220065D02*
X-593597Y215363D01*
X-589439Y214222D01*
X-589835Y214767D01*
X-590081Y216252D01*
X-589858Y217663D01*
X-589164Y218999D01*
X-588075Y219790D01*
X-586590Y220037D01*
X-585649Y219888D01*
X-584313Y219195D01*
X-583522Y218105D01*
X-583275Y216620D01*
X-583498Y215209D01*
X-584192Y213873D01*
X-584737Y213477D01*
X-585752Y213156D01*
X-592353Y223216D02*
X-581882Y225413D01*
X-591161Y230739D02*
X-581882Y225413D01*
X-1432238Y-397501D02*
Y-405118D01*
X-1432714Y-406547D01*
X-1433190Y-407023D01*
X-1434142Y-407499D01*
X-1435094D01*
X-1436046Y-407023D01*
X-1436522Y-406547D01*
X-1436998Y-405118D01*
Y-404166D01*
X-1429191Y-399882D02*
Y-399405D01*
X-1428715Y-398453D01*
X-1428239Y-397977D01*
X-1427286Y-397501D01*
X-1425382D01*
X-1424430Y-397977D01*
X-1423954Y-398453D01*
X-1423478Y-399405D01*
Y-400358D01*
X-1423954Y-401310D01*
X-1424906Y-402738D01*
X-1429667Y-407499D01*
X-1423002D01*
X-1392713Y-347582D02*
X-1392141Y-348725D01*
X-1390999Y-349868D01*
X-1389856Y-350439D01*
X-1388142Y-351010D01*
X-1385286D01*
X-1383572Y-350439D01*
X-1382429Y-349868D01*
X-1381286Y-348725D01*
X-1380715Y-347582D01*
Y-345297D01*
X-1381286Y-344155D01*
X-1382429Y-343012D01*
X-1383572Y-342440D01*
X-1385286Y-341869D01*
X-1388142D01*
X-1389856Y-342440D01*
X-1390999Y-343012D01*
X-1392141Y-344155D01*
X-1392713Y-345297D01*
Y-347582D01*
Y-339070D02*
X-1380715D01*
Y-332214D01*
X-1392713Y-323473D02*
Y-330900D01*
X-1380715D01*
Y-323473D01*
X-1387000Y-330900D02*
Y-326330D01*
X-1392713Y-321474D02*
X-1380715D01*
X-1392713D02*
Y-317474D01*
X-1392141Y-315760D01*
X-1390999Y-314618D01*
X-1389856Y-314047D01*
X-1388142Y-313475D01*
X-1385286D01*
X-1383572Y-314047D01*
X-1382429Y-314618D01*
X-1381286Y-315760D01*
X-1380715Y-317474D01*
Y-321474D01*
X-1392713Y-301364D02*
X-1380715D01*
X-1392713D02*
Y-297365D01*
X-1392141Y-295651D01*
X-1390999Y-294508D01*
X-1389856Y-293937D01*
X-1388142Y-293365D01*
X-1385286D01*
X-1383572Y-293937D01*
X-1382429Y-294508D01*
X-1381286Y-295651D01*
X-1380715Y-297365D01*
Y-301364D01*
X-1392713Y-289538D02*
X-1392141Y-288966D01*
X-1392713Y-288395D01*
X-1393284Y-288966D01*
X-1392713Y-289538D01*
X-1388714Y-288966D02*
X-1380715D01*
X-1387000Y-279997D02*
X-1388142Y-280568D01*
X-1388714Y-282282D01*
Y-283996D01*
X-1388142Y-285710D01*
X-1387000Y-286281D01*
X-1385857Y-285710D01*
X-1385286Y-284567D01*
X-1384714Y-281711D01*
X-1384143Y-280568D01*
X-1383000Y-279997D01*
X-1382429D01*
X-1381286Y-280568D01*
X-1380715Y-282282D01*
Y-283996D01*
X-1381286Y-285710D01*
X-1382429Y-286281D01*
X-1388714Y-277483D02*
X-1376716D01*
X-1387000D02*
X-1388142Y-276340D01*
X-1388714Y-275198D01*
Y-273484D01*
X-1388142Y-272341D01*
X-1387000Y-271199D01*
X-1385286Y-270627D01*
X-1384143D01*
X-1382429Y-271199D01*
X-1381286Y-272341D01*
X-1380715Y-273484D01*
Y-275198D01*
X-1381286Y-276340D01*
X-1382429Y-277483D01*
X-1392713Y-268057D02*
X-1380715D01*
X-1388714Y-258687D02*
X-1380715D01*
X-1387000D02*
X-1388142Y-259830D01*
X-1388714Y-260972D01*
Y-262686D01*
X-1388142Y-263829D01*
X-1387000Y-264971D01*
X-1385286Y-265543D01*
X-1384143D01*
X-1382429Y-264971D01*
X-1381286Y-263829D01*
X-1380715Y-262686D01*
Y-260972D01*
X-1381286Y-259830D01*
X-1382429Y-258687D01*
X-1388714Y-254916D02*
X-1380715Y-251489D01*
X-1388714Y-248061D02*
X-1380715Y-251489D01*
X-1378430Y-252631D01*
X-1377287Y-253774D01*
X-1376716Y-254916D01*
Y-255488D01*
X-1390427Y-236635D02*
X-1390999Y-235492D01*
X-1392713Y-233778D01*
X-1380715D01*
X-1389856Y-227265D02*
X-1390427D01*
X-1391570Y-226694D01*
X-1392141Y-226123D01*
X-1392713Y-224980D01*
Y-222695D01*
X-1392141Y-221552D01*
X-1391570Y-220981D01*
X-1390427Y-220410D01*
X-1389285D01*
X-1388142Y-220981D01*
X-1386428Y-222123D01*
X-1380715Y-227836D01*
Y-219838D01*
X-1392713Y-211440D02*
X-1384714Y-217153D01*
Y-208584D01*
X-1392713Y-211440D02*
X-1380715D01*
X-1388714Y-206470D02*
X-1380715Y-200185D01*
X-1388714D02*
X-1380715Y-206470D01*
X-1392713Y-196529D02*
Y-190245D01*
X-1388142Y-193672D01*
Y-191959D01*
X-1387571Y-190816D01*
X-1387000Y-190245D01*
X-1385286Y-189673D01*
X-1384143D01*
X-1382429Y-190245D01*
X-1381286Y-191387D01*
X-1380715Y-193101D01*
Y-194815D01*
X-1381286Y-196529D01*
X-1381858Y-197100D01*
X-1383000Y-197672D01*
X-1389856Y-186417D02*
X-1390427D01*
X-1391570Y-185846D01*
X-1392141Y-185274D01*
X-1392713Y-184132D01*
Y-181846D01*
X-1392141Y-180704D01*
X-1391570Y-180133D01*
X-1390427Y-179561D01*
X-1389285D01*
X-1388142Y-180133D01*
X-1386428Y-181275D01*
X-1380715Y-186988D01*
Y-178990D01*
D11*
X-1246145Y-201941D02*
G03*
X-1209397Y-150229I35938J13375D01*
G01*
D12*
X70000Y-808937D02*
Y-792979D01*
X56614Y-808937D02*
X70000D01*
X56614Y-792979D02*
X70000D01*
Y-800958D02*
X77000D01*
X56614Y-808937D02*
Y-792979D01*
X46000D02*
X48000D01*
X46000Y-838958D02*
X48000D01*
X59000Y-819000D02*
Y-813000D01*
X63000Y-819000D02*
Y-813000D01*
X46000Y-838958D02*
Y-792979D01*
X48000Y-838958D02*
Y-792979D01*
X56614Y-838958D02*
Y-823000D01*
X70000Y-830979D02*
X77000D01*
X56614Y-823000D02*
X70000D01*
X67000Y-816000D02*
X74000D01*
X56614Y-838958D02*
X70000D01*
Y-823000D01*
X-1312625Y-641500D02*
Y-601500D01*
Y-641500D02*
X-1207625D01*
Y-601500D01*
X-1312625D02*
X-1207625D01*
X-1340125Y-651500D02*
Y-491500D01*
Y-651500D02*
X-1180125D01*
Y-491500D01*
X-1340125D02*
X-1180125D01*
X-743007Y-851062D02*
Y-811062D01*
Y-851062D02*
X-638007D01*
Y-811062D01*
X-743007D02*
X-638007D01*
X-770507Y-861062D02*
Y-701062D01*
Y-861062D02*
X-610506D01*
Y-701062D01*
X-770507D02*
X-610506D01*
X-814500Y-70000D02*
Y-30000D01*
Y-70000D02*
X-709500D01*
Y-30000D01*
X-814500D02*
X-709500D01*
X-842000Y-80000D02*
Y80000D01*
Y-80000D02*
X-682000D01*
Y80000D01*
X-842000D02*
X-682000D01*
X-1081793Y-450944D02*
Y-410944D01*
Y-450944D02*
X-976793D01*
Y-410944D01*
X-1081793D02*
X-976793D01*
X-1109293Y-460944D02*
Y-300944D01*
Y-460944D02*
X-949293D01*
Y-300944D01*
X-1109293D02*
X-949293D01*
X-1340125Y-701060D02*
X-1180125D01*
Y-861060D02*
Y-701060D01*
X-1340125Y-861060D02*
X-1180125D01*
X-1340125D02*
Y-701060D01*
X-1312625Y-811060D02*
X-1207625D01*
Y-851060D02*
Y-811060D01*
X-1312625Y-851060D02*
X-1207625D01*
X-1312625D02*
Y-811060D01*
X-80000Y80000D02*
X80000D01*
Y-80000D02*
Y80000D01*
X-80000Y-80000D02*
X80000D01*
X-80000D02*
Y80000D01*
X-52500Y-30000D02*
X52500D01*
Y-70000D02*
Y-30000D01*
X-52500Y-70000D02*
X52500D01*
X-52500D02*
Y-30000D01*
X-1272500Y110000D02*
X-1112500D01*
Y-50000D02*
Y110000D01*
X-1272500Y-50000D02*
X-1112500D01*
X-1272500D02*
Y110000D01*
X-1245000Y0D02*
X-1140000D01*
Y-40000D02*
Y0D01*
X-1245000Y-40000D02*
X-1140000D01*
X-1245000D02*
Y0D01*
X-1056260Y-701057D02*
X-896260D01*
Y-861057D02*
Y-701057D01*
X-1056260Y-861057D02*
X-896260D01*
X-1056260D02*
Y-701057D01*
X-1028760Y-811057D02*
X-923760D01*
Y-851057D02*
Y-811057D01*
X-1028760Y-851057D02*
X-923760D01*
X-1028760D02*
Y-811057D01*
X-1056260Y-491498D02*
X-896260D01*
Y-651498D02*
Y-491498D01*
X-1056260Y-651498D02*
X-896260D01*
X-1056260D02*
Y-491498D01*
X-1028760Y-601498D02*
X-923760D01*
Y-641498D02*
Y-601498D01*
X-1028760Y-641498D02*
X-923760D01*
X-1028760D02*
Y-601498D01*
X-1080057Y-110500D02*
X-920057D01*
Y-270500D02*
Y-110500D01*
X-1080057Y-270500D02*
X-920057D01*
X-1080057D02*
Y-110500D01*
X-1052557Y-220500D02*
X-947557D01*
Y-260500D02*
Y-220500D01*
X-1052557Y-260500D02*
X-947557D01*
X-1052557D02*
Y-220500D01*
X-1032500Y80000D02*
X-872500D01*
Y-80000D02*
Y80000D01*
X-1032500Y-80000D02*
X-872500D01*
X-1032500D02*
Y80000D01*
X-1005000Y-30000D02*
X-900000D01*
Y-70000D02*
Y-30000D01*
X-1005000Y-70000D02*
X-900000D01*
X-1005000D02*
Y-30000D01*
X-842000Y-491500D02*
X-682000D01*
Y-651500D02*
Y-491500D01*
X-842000Y-651500D02*
X-682000D01*
X-842000D02*
Y-491500D01*
X-814500Y-601500D02*
X-709500D01*
Y-641500D02*
Y-601500D01*
X-814500Y-641500D02*
X-709500D01*
X-814500D02*
Y-601500D01*
X-842000Y-301000D02*
X-682000D01*
Y-461000D02*
Y-301000D01*
X-842000Y-461000D02*
X-682000D01*
X-842000D02*
Y-301000D01*
X-814500Y-411000D02*
X-709500D01*
Y-451000D02*
Y-411000D01*
X-814500Y-451000D02*
X-709500D01*
X-814500D02*
Y-411000D01*
X-842000Y-110500D02*
X-682000D01*
Y-270500D02*
Y-110500D01*
X-842000Y-270500D02*
X-682000D01*
X-842000D02*
Y-110500D01*
X-814500Y-220500D02*
X-709500D01*
Y-260500D02*
Y-220500D01*
X-814500Y-260500D02*
X-709500D01*
X-814500D02*
Y-220500D01*
X-651500Y-491500D02*
X-491500D01*
Y-651500D02*
Y-491500D01*
X-651500Y-651500D02*
X-491500D01*
X-651500D02*
Y-491500D01*
X-624000Y-601500D02*
X-519000D01*
Y-641500D02*
Y-601500D01*
X-624000Y-641500D02*
X-519000D01*
X-624000D02*
Y-601500D01*
X-651500Y-301000D02*
X-491500D01*
Y-461000D02*
Y-301000D01*
X-651500Y-461000D02*
X-491500D01*
X-651500D02*
Y-301000D01*
X-624000Y-411000D02*
X-519000D01*
Y-451000D02*
Y-411000D01*
X-624000Y-451000D02*
X-519000D01*
X-624000D02*
Y-411000D01*
X-651500Y-110500D02*
X-491500D01*
Y-270500D02*
Y-110500D01*
X-651500Y-270500D02*
X-491500D01*
X-651500D02*
Y-110500D01*
X-624000Y-220500D02*
X-519000D01*
Y-260500D02*
Y-220500D01*
X-624000Y-260500D02*
X-519000D01*
X-624000D02*
Y-220500D01*
X-651500Y80000D02*
X-491500D01*
Y-80000D02*
Y80000D01*
X-651500Y-80000D02*
X-491500D01*
X-651500D02*
Y80000D01*
X-624000Y-30000D02*
X-519000D01*
Y-70000D02*
Y-30000D01*
X-624000Y-70000D02*
X-519000D01*
X-624000D02*
Y-30000D01*
X-532382Y-701062D02*
X-372381D01*
Y-861062D02*
Y-701062D01*
X-532382Y-861062D02*
X-372381D01*
X-532382D02*
Y-701062D01*
X-504882Y-811062D02*
X-399882D01*
Y-851062D02*
Y-811062D01*
X-504882Y-851062D02*
X-399882D01*
X-504882D02*
Y-811062D01*
X-461000Y-301000D02*
X-301000D01*
Y-461000D02*
Y-301000D01*
X-461000Y-461000D02*
X-301000D01*
X-461000D02*
Y-301000D01*
X-433500Y-411000D02*
X-328500D01*
Y-451000D02*
Y-411000D01*
X-433500Y-451000D02*
X-328500D01*
X-433500D02*
Y-411000D01*
X-461000Y-110500D02*
X-301000D01*
Y-270500D02*
Y-110500D01*
X-461000Y-270500D02*
X-301000D01*
X-461000D02*
Y-110500D01*
X-433500Y-220500D02*
X-328500D01*
Y-260500D02*
Y-220500D01*
X-433500Y-260500D02*
X-328500D01*
X-433500D02*
Y-220500D01*
X-461000Y80000D02*
X-301000D01*
Y-80000D02*
Y80000D01*
X-461000Y-80000D02*
X-301000D01*
X-461000D02*
Y80000D01*
X-433500Y-30000D02*
X-328500D01*
Y-70000D02*
Y-30000D01*
X-433500Y-70000D02*
X-328500D01*
X-433500D02*
Y-30000D01*
X-222815Y-701057D02*
X-62815D01*
Y-861057D02*
Y-701057D01*
X-222815Y-861057D02*
X-62815D01*
X-222815D02*
Y-701057D01*
X-195315Y-811057D02*
X-90316D01*
Y-851057D02*
Y-811057D01*
X-195315Y-851057D02*
X-90316D01*
X-195315D02*
Y-811057D01*
X-270500Y-491500D02*
X-110500D01*
Y-651500D02*
Y-491500D01*
X-270500Y-651500D02*
X-110500D01*
X-270500D02*
Y-491500D01*
X-243000Y-601500D02*
X-138000D01*
Y-641500D02*
Y-601500D01*
X-243000Y-641500D02*
X-138000D01*
X-243000D02*
Y-601500D01*
X-270500Y-301000D02*
X-110500D01*
Y-461000D02*
Y-301000D01*
X-270500Y-461000D02*
X-110500D01*
X-270500D02*
Y-301000D01*
X-243000Y-411000D02*
X-138000D01*
Y-451000D02*
Y-411000D01*
X-243000Y-451000D02*
X-138000D01*
X-243000D02*
Y-411000D01*
X-270500Y-110500D02*
X-110500D01*
Y-270500D02*
Y-110500D01*
X-270500Y-270500D02*
X-110500D01*
X-270500D02*
Y-110500D01*
X-243000Y-220500D02*
X-138000D01*
Y-260500D02*
Y-220500D01*
X-243000Y-260500D02*
X-138000D01*
X-243000D02*
Y-220500D01*
X-270500Y80000D02*
X-110500D01*
Y-80000D02*
Y80000D01*
X-270500Y-80000D02*
X-110500D01*
X-270500D02*
Y80000D01*
X-243000Y-30000D02*
X-138000D01*
Y-70000D02*
Y-30000D01*
X-243000Y-70000D02*
X-138000D01*
X-243000D02*
Y-30000D01*
X-80000Y-491500D02*
X80000D01*
Y-651500D02*
Y-491500D01*
X-80000Y-651500D02*
X80000D01*
X-80000D02*
Y-491500D01*
X-52500Y-601500D02*
X52500D01*
Y-641500D02*
Y-601500D01*
X-52500Y-641500D02*
X52500D01*
X-52500D02*
Y-601500D01*
X-80000Y-301000D02*
X80000D01*
Y-461000D02*
Y-301000D01*
X-80000Y-461000D02*
X80000D01*
X-80000D02*
Y-301000D01*
X-52500Y-411000D02*
X52500D01*
Y-451000D02*
Y-411000D01*
X-52500Y-451000D02*
X52500D01*
X-52500D02*
Y-411000D01*
X-80000Y-110500D02*
X80000D01*
Y-270500D02*
Y-110500D01*
X-80000Y-270500D02*
X80000D01*
X-80000D02*
Y-110500D01*
X-52500Y-220500D02*
X52500D01*
Y-260500D02*
Y-220500D01*
X-52500Y-260500D02*
X52500D01*
X-52500D02*
Y-220500D01*
X-461000Y-491500D02*
X-301000D01*
Y-651500D02*
Y-491500D01*
X-461000Y-651500D02*
X-301000D01*
X-461000D02*
Y-491500D01*
X-433500Y-601500D02*
X-328500D01*
Y-641500D02*
Y-601500D01*
X-433500Y-641500D02*
X-328500D01*
X-433500D02*
Y-601500D01*
X39497Y-792500D02*
X27500D01*
X39497D02*
Y-797642D01*
X38926Y-799356D01*
X38355Y-799927D01*
X37212Y-800498D01*
X36070D01*
X34927Y-799927D01*
X34356Y-799356D01*
X33784Y-797642D01*
Y-792500D01*
Y-796499D02*
X27500Y-800498D01*
X39497Y-810610D02*
Y-803183D01*
X27500D01*
Y-810610D01*
X33784Y-803183D02*
Y-807754D01*
X39497Y-812610D02*
X27500Y-817180D01*
X39497Y-821751D02*
X27500Y-817180D01*
X28643Y-823865D02*
X28071Y-823293D01*
X27500Y-823865D01*
X28071Y-824436D01*
X28643Y-823865D01*
X27500Y-836205D02*
X39497Y-831635D01*
X27500Y-827064D01*
X31499Y-828778D02*
Y-834491D01*
D13*
X-1251976Y-139264D02*
Y-122830D01*
Y-164600D02*
Y-148166D01*
X-1261563Y-139264D02*
Y-122830D01*
X-1261563Y-164600D02*
Y-148166D01*
X-1277997Y-139264D02*
X-1261563D01*
X-1277997Y-148166D02*
X-1261563D01*
X-1277997Y-164600D02*
X-1261563D01*
X-1277997Y-139264D02*
Y-122830D01*
X-1261563D01*
X-1277997Y-164600D02*
Y-148166D01*
X-1235542Y-164600D02*
Y-148166D01*
X-1210207Y-164600D02*
Y-160686D01*
X-1226641Y-139264D02*
X-1210207D01*
X-1251976D02*
X-1235542D01*
X-1251976Y-148166D02*
X-1235542D01*
X-1226641Y-148166D02*
X-1221163D01*
X-1226641Y-164600D02*
Y-148166D01*
X-1251976Y-164600D02*
X-1235542D01*
X-1226641D02*
X-1210207D01*
X-1226641Y-122830D02*
X-1210207D01*
X-1251976D02*
X-1235542D01*
X-1210207Y-139264D02*
Y-122830D01*
X-1226641Y-139264D02*
Y-122830D01*
X-1235542Y-139264D02*
Y-122830D01*
D14*
X-94774Y303250D02*
X-90606Y298934D01*
X-82573Y330145D02*
X-80155Y324655D01*
X-81331Y236502D02*
X-75693Y238554D01*
X-72744Y204185D02*
X-68975Y208853D01*
X-106875Y269830D02*
X-101080Y268273D01*
X-93048Y274569D02*
X-87655Y271939D01*
X-29459Y312451D02*
X-26840Y317849D01*
X-6257Y319945D02*
X-2336Y324485D01*
X17251Y308452D02*
X22493Y311372D01*
X-78180Y281590D02*
X-73537Y277791D01*
X-4283Y287957D02*
X1355Y290009D01*
X-12846Y279211D02*
X-6938Y280253D01*
X-22303Y274155D02*
X-16314Y273790D01*
X-47869Y281907D02*
X-46827Y287816D01*
X-50988Y294255D02*
X-50988Y300255D01*
X-71017Y316344D02*
X-68965Y310706D01*
X-59156Y308616D02*
X-58114Y302707D01*
X-62988Y252255D02*
X-56988Y252255D01*
X34231Y275428D02*
X40230Y275473D01*
X21784Y265529D02*
X27737Y264777D01*
X-3212Y221557D02*
X-212Y216361D01*
X-5289Y253515D02*
X-283Y250207D01*
X-54717Y222988D02*
X-51051Y227737D01*
X-28988Y244755D02*
X-28988Y238755D01*
X-86882Y223479D02*
X-81687Y226479D01*
X29197Y235040D02*
X34363Y231988D01*
X-39424Y196568D02*
X-38845Y202540D01*
X8653Y258805D02*
X14351Y256927D01*
X14609Y235748D02*
X19394Y232128D01*
X-24033Y236114D02*
X-22991Y230205D01*
X-117243Y251830D02*
X-111245Y251969D01*
X-249388Y369450D02*
X-243462Y368512D01*
X-236888Y367320D02*
X-230962Y366381D01*
D15*
X-1296603Y-344027D02*
Y-364022D01*
X-1281939Y-353549D02*
X-1282891Y-351644D01*
X-1285748Y-350692D01*
X-1288604D01*
X-1291461Y-351644D01*
X-1292413Y-353549D01*
X-1291461Y-355453D01*
X-1289557Y-356405D01*
X-1284796Y-357357D01*
X-1282891Y-358309D01*
X-1281939Y-360214D01*
Y-361166D01*
X-1282891Y-363070D01*
X-1285748Y-364022D01*
X-1288604D01*
X-1291461Y-363070D01*
X-1292413Y-361166D01*
X-1272989Y-350692D02*
X-1274893Y-351644D01*
X-1276797Y-353549D01*
X-1277750Y-356405D01*
Y-358309D01*
X-1276797Y-361166D01*
X-1274893Y-363070D01*
X-1272989Y-364022D01*
X-1270132D01*
X-1268228Y-363070D01*
X-1266323Y-361166D01*
X-1265371Y-358309D01*
Y-356405D01*
X-1266323Y-353549D01*
X-1268228Y-351644D01*
X-1270132Y-350692D01*
X-1272989D01*
X-1260991Y-344027D02*
Y-364022D01*
X-1247661Y-344027D02*
X-1260991Y-357357D01*
X-1256230Y-352596D02*
X-1247661Y-364022D01*
X-1243186Y-356405D02*
X-1231759D01*
Y-354501D01*
X-1232712Y-352596D01*
X-1233664Y-351644D01*
X-1235568Y-350692D01*
X-1238425D01*
X-1240329Y-351644D01*
X-1242233Y-353549D01*
X-1243186Y-356405D01*
Y-358309D01*
X-1242233Y-361166D01*
X-1240329Y-363070D01*
X-1238425Y-364022D01*
X-1235568D01*
X-1233664Y-363070D01*
X-1231759Y-361166D01*
X-1226522Y-350692D02*
X-1220809Y-364022D01*
X-1215096Y-350692D02*
X-1220809Y-364022D01*
X-1222714Y-367831D01*
X-1224618Y-369735D01*
X-1226522Y-370688D01*
X-1227475D01*
X-1182722Y-346883D02*
X-1184627Y-344979D01*
X-1187483Y-344027D01*
X-1191292D01*
X-1194148Y-344979D01*
X-1196053Y-346883D01*
Y-348788D01*
X-1195101Y-350692D01*
X-1194148Y-351644D01*
X-1192244Y-352596D01*
X-1186531Y-354501D01*
X-1184627Y-355453D01*
X-1183674Y-356405D01*
X-1182722Y-358309D01*
Y-361166D01*
X-1184627Y-363070D01*
X-1187483Y-364022D01*
X-1191292D01*
X-1194148Y-363070D01*
X-1196053Y-361166D01*
X-1178247Y-350692D02*
Y-370688D01*
Y-353549D02*
X-1176343Y-351644D01*
X-1174438Y-350692D01*
X-1171582D01*
X-1169677Y-351644D01*
X-1167773Y-353549D01*
X-1166821Y-356405D01*
Y-358309D01*
X-1167773Y-361166D01*
X-1169677Y-363070D01*
X-1171582Y-364022D01*
X-1174438D01*
X-1176343Y-363070D01*
X-1178247Y-361166D01*
X-1162536Y-344027D02*
Y-364022D01*
X-1156442Y-344027D02*
X-1155490Y-344979D01*
X-1154538Y-344027D01*
X-1155490Y-343074D01*
X-1156442Y-344027D01*
X-1155490Y-350692D02*
Y-364022D01*
X-1148158Y-344027D02*
Y-360214D01*
X-1147206Y-363070D01*
X-1145302Y-364022D01*
X-1143397D01*
X-1151015Y-350692D02*
X-1144350D01*
X-1282272Y-392361D02*
X-1273703D01*
X-1270846Y-391409D01*
X-1269894Y-390456D01*
X-1268942Y-388552D01*
Y-385695D01*
X-1269894Y-383791D01*
X-1270846Y-382839D01*
X-1273703Y-381887D01*
X-1282272D01*
Y-401883D01*
X-1264467Y-388552D02*
Y-401883D01*
Y-394265D02*
X-1263514Y-391409D01*
X-1261610Y-389504D01*
X-1259706Y-388552D01*
X-1256849D01*
X-1250279D02*
X-1252184Y-389504D01*
X-1254088Y-391409D01*
X-1255040Y-394265D01*
Y-396170D01*
X-1254088Y-399026D01*
X-1252184Y-400930D01*
X-1250279Y-401883D01*
X-1247423D01*
X-1245518Y-400930D01*
X-1243614Y-399026D01*
X-1242662Y-396170D01*
Y-394265D01*
X-1243614Y-391409D01*
X-1245518Y-389504D01*
X-1247423Y-388552D01*
X-1250279D01*
X-1235425Y-381887D02*
Y-398074D01*
X-1234473Y-400930D01*
X-1232569Y-401883D01*
X-1230664D01*
X-1238282Y-388552D02*
X-1231617D01*
X-1223047D02*
X-1224951Y-389504D01*
X-1226856Y-391409D01*
X-1227808Y-394265D01*
Y-396170D01*
X-1226856Y-399026D01*
X-1224951Y-400930D01*
X-1223047Y-401883D01*
X-1220190D01*
X-1218286Y-400930D01*
X-1216382Y-399026D01*
X-1215430Y-396170D01*
Y-394265D01*
X-1216382Y-391409D01*
X-1218286Y-389504D01*
X-1220190Y-388552D01*
X-1223047D01*
X-1208193Y-381887D02*
Y-398074D01*
X-1207241Y-400930D01*
X-1205337Y-401883D01*
X-1203432D01*
X-1211049Y-388552D02*
X-1204384D01*
X-1199623D02*
X-1193910Y-401883D01*
X-1188197Y-388552D02*
X-1193910Y-401883D01*
X-1195815Y-405691D01*
X-1197719Y-407596D01*
X-1199623Y-408548D01*
X-1200576D01*
X-1184865Y-388552D02*
Y-408548D01*
Y-391409D02*
X-1182960Y-389504D01*
X-1181056Y-388552D01*
X-1178199D01*
X-1176295Y-389504D01*
X-1174391Y-391409D01*
X-1173438Y-394265D01*
Y-396170D01*
X-1174391Y-399026D01*
X-1176295Y-400930D01*
X-1178199Y-401883D01*
X-1181056D01*
X-1182960Y-400930D01*
X-1184865Y-399026D01*
X-1169154Y-394265D02*
X-1157728D01*
Y-392361D01*
X-1158680Y-390456D01*
X-1159632Y-389504D01*
X-1161536Y-388552D01*
X-1164393D01*
X-1166297Y-389504D01*
X-1168202Y-391409D01*
X-1169154Y-394265D01*
Y-396170D01*
X-1168202Y-399026D01*
X-1166297Y-400930D01*
X-1164393Y-401883D01*
X-1161536D01*
X-1159632Y-400930D01*
X-1157728Y-399026D01*
D16*
X-325074Y249413D02*
X-323515Y245776D01*
X-321957Y249413D02*
X-323515Y245776D01*
X-317956Y251231D02*
X-320554D01*
X-320813Y248893D01*
X-320554Y249153D01*
X-319774Y249413D01*
X-318995D01*
X-318216Y249153D01*
X-317696Y248633D01*
X-317436Y247854D01*
Y247334D01*
X-317696Y246555D01*
X-318216Y246035D01*
X-318995Y245776D01*
X-319774D01*
X-320554Y246035D01*
X-320813Y246295D01*
X-321073Y246815D01*
X-315956Y246295D02*
X-316215Y246035D01*
X-315956Y245776D01*
X-315696Y246035D01*
X-315956Y246295D01*
X-314501Y250192D02*
X-313981Y250452D01*
X-313202Y251231D01*
Y245776D01*
D17*
X-1334125Y-499504D02*
Y-516500D01*
X-1322794Y-499504D02*
X-1334125Y-510835D01*
X-1330078Y-506788D02*
X-1322794Y-516500D01*
X-1309278Y-501932D02*
X-1310087Y-500313D01*
X-1312515Y-499504D01*
X-1314134D01*
X-1316562Y-500313D01*
X-1318181Y-502741D01*
X-1318990Y-506788D01*
Y-510835D01*
X-1318181Y-514072D01*
X-1316562Y-515691D01*
X-1314134Y-516500D01*
X-1313325D01*
X-1310897Y-515691D01*
X-1309278Y-514072D01*
X-1308469Y-511644D01*
Y-510835D01*
X-1309278Y-508406D01*
X-1310897Y-506788D01*
X-1313325Y-505979D01*
X-1314134D01*
X-1316562Y-506788D01*
X-1318181Y-508406D01*
X-1318990Y-510835D01*
X-1303127Y-499504D02*
X-1294224D01*
X-1299080Y-505979D01*
X-1296652D01*
X-1295033Y-506788D01*
X-1294224Y-507597D01*
X-1293415Y-510025D01*
Y-511644D01*
X-1294224Y-514072D01*
X-1295843Y-515691D01*
X-1298271Y-516500D01*
X-1300699D01*
X-1303127Y-515691D01*
X-1303936Y-514881D01*
X-1304746Y-513263D01*
X-1289611Y-522165D02*
X-1276661D01*
X-1263145Y-501932D02*
X-1264764Y-500313D01*
X-1267192Y-499504D01*
X-1270429D01*
X-1272857Y-500313D01*
X-1274476Y-501932D01*
Y-503550D01*
X-1273667Y-505169D01*
X-1272857Y-505979D01*
X-1271238Y-506788D01*
X-1266382Y-508406D01*
X-1264764Y-509216D01*
X-1263954Y-510025D01*
X-1263145Y-511644D01*
Y-514072D01*
X-1264764Y-515691D01*
X-1267192Y-516500D01*
X-1270429D01*
X-1272857Y-515691D01*
X-1274476Y-514072D01*
X-1259341Y-502741D02*
X-1257722Y-501932D01*
X-1255294Y-499504D01*
Y-516500D01*
X-764507Y-709065D02*
Y-726062D01*
X-753176Y-709065D02*
X-764507Y-720396D01*
X-760460Y-716349D02*
X-753176Y-726062D01*
X-741278Y-709065D02*
X-749372Y-720396D01*
X-737231D01*
X-741278Y-709065D02*
Y-726062D01*
X-726143Y-709065D02*
X-734237Y-720396D01*
X-722096D01*
X-726143Y-709065D02*
Y-726062D01*
X-719102Y-731727D02*
X-706152D01*
X-692636Y-711493D02*
X-694255Y-709875D01*
X-696683Y-709065D01*
X-699920D01*
X-702348Y-709875D01*
X-703967Y-711493D01*
Y-713112D01*
X-703158Y-714731D01*
X-702348Y-715540D01*
X-700730Y-716349D01*
X-695874Y-717968D01*
X-694255Y-718777D01*
X-693446Y-719587D01*
X-692636Y-721206D01*
Y-723634D01*
X-694255Y-725252D01*
X-696683Y-726062D01*
X-699920D01*
X-702348Y-725252D01*
X-703967Y-723634D01*
X-688832Y-712303D02*
X-687214Y-711493D01*
X-684786Y-709065D01*
Y-726062D01*
X-836000Y71996D02*
Y55000D01*
X-824669Y71996D02*
X-836000Y60665D01*
X-831953Y64712D02*
X-824669Y55000D01*
X-812772Y71996D02*
X-820865Y60665D01*
X-808725D01*
X-812772Y71996D02*
Y55000D01*
X-800874Y71996D02*
X-803302Y71187D01*
X-804921Y68759D01*
X-805730Y64712D01*
Y62284D01*
X-804921Y58237D01*
X-803302Y55809D01*
X-800874Y55000D01*
X-799256D01*
X-796827Y55809D01*
X-795209Y58237D01*
X-794399Y62284D01*
Y64712D01*
X-795209Y68759D01*
X-796827Y71187D01*
X-799256Y71996D01*
X-800874D01*
X-790595Y49335D02*
X-777646D01*
X-764130Y69568D02*
X-765748Y71187D01*
X-768176Y71996D01*
X-771414D01*
X-773842Y71187D01*
X-775461Y69568D01*
Y67950D01*
X-774651Y66331D01*
X-773842Y65521D01*
X-772223Y64712D01*
X-767367Y63094D01*
X-765748Y62284D01*
X-764939Y61475D01*
X-764130Y59856D01*
Y57428D01*
X-765748Y55809D01*
X-768176Y55000D01*
X-771414D01*
X-773842Y55809D01*
X-775461Y57428D01*
X-760326Y68759D02*
X-758707Y69568D01*
X-756279Y71996D01*
Y55000D01*
X-1103293Y-308948D02*
Y-325944D01*
X-1091962Y-308948D02*
X-1103293Y-320279D01*
X-1099246Y-316232D02*
X-1091962Y-325944D01*
X-1078446Y-308948D02*
X-1086539D01*
X-1087348Y-316232D01*
X-1086539Y-315423D01*
X-1084111Y-314613D01*
X-1081683D01*
X-1079255Y-315423D01*
X-1077636Y-317041D01*
X-1076827Y-319469D01*
Y-321088D01*
X-1077636Y-323516D01*
X-1079255Y-325135D01*
X-1081683Y-325944D01*
X-1084111D01*
X-1086539Y-325135D01*
X-1087348Y-324325D01*
X-1088158Y-322707D01*
X-1072214Y-312995D02*
Y-312185D01*
X-1071404Y-310567D01*
X-1070595Y-309757D01*
X-1068976Y-308948D01*
X-1065739D01*
X-1064120Y-309757D01*
X-1063311Y-310567D01*
X-1062501Y-312185D01*
Y-313804D01*
X-1063311Y-315423D01*
X-1064930Y-317851D01*
X-1073023Y-325944D01*
X-1061692D01*
X-1057888Y-331610D02*
X-1044939D01*
X-1031422Y-311376D02*
X-1033041Y-309757D01*
X-1035469Y-308948D01*
X-1038707D01*
X-1041135Y-309757D01*
X-1042753Y-311376D01*
Y-312995D01*
X-1041944Y-314613D01*
X-1041135Y-315423D01*
X-1039516Y-316232D01*
X-1034660Y-317851D01*
X-1033041Y-318660D01*
X-1032232Y-319469D01*
X-1031422Y-321088D01*
Y-323516D01*
X-1033041Y-325135D01*
X-1035469Y-325944D01*
X-1038707D01*
X-1041135Y-325135D01*
X-1042753Y-323516D01*
X-1027618Y-312185D02*
X-1026000Y-311376D01*
X-1023572Y-308948D01*
Y-325944D01*
X-74000Y71996D02*
Y55000D01*
X-62669Y71996D02*
X-74000Y60665D01*
X-69953Y64712D02*
X-62669Y55000D01*
X-54009Y71996D02*
X-56437Y71187D01*
X-58056Y68759D01*
X-58865Y64712D01*
Y62284D01*
X-58056Y58237D01*
X-56437Y55809D01*
X-54009Y55000D01*
X-52390D01*
X-49962Y55809D01*
X-48344Y58237D01*
X-47534Y62284D01*
Y64712D01*
X-48344Y68759D01*
X-49962Y71187D01*
X-52390Y71996D01*
X-54009D01*
X-38874D02*
X-41302Y71187D01*
X-42921Y68759D01*
X-43730Y64712D01*
Y62284D01*
X-42921Y58237D01*
X-41302Y55809D01*
X-38874Y55000D01*
X-37255D01*
X-34827Y55809D01*
X-33209Y58237D01*
X-32399Y62284D01*
Y64712D01*
X-33209Y68759D01*
X-34827Y71187D01*
X-37255Y71996D01*
X-38874D01*
X-28595Y49335D02*
X-15646D01*
X-2130Y69568D02*
X-3748Y71187D01*
X-6176Y71996D01*
X-9414D01*
X-11842Y71187D01*
X-13461Y69568D01*
Y67950D01*
X-12651Y66331D01*
X-11842Y65521D01*
X-10223Y64712D01*
X-5367Y63094D01*
X-3748Y62284D01*
X-2939Y61475D01*
X-2130Y59856D01*
Y57428D01*
X-3748Y55809D01*
X-6176Y55000D01*
X-9414D01*
X-11842Y55809D01*
X-13461Y57428D01*
X1674Y68759D02*
X3293Y69568D01*
X5721Y71996D01*
Y55000D01*
X-74000Y-118504D02*
Y-135500D01*
X-62669Y-118504D02*
X-74000Y-129835D01*
X-69953Y-125788D02*
X-62669Y-135500D01*
X-54009Y-118504D02*
X-56437Y-119313D01*
X-58056Y-121741D01*
X-58865Y-125788D01*
Y-128216D01*
X-58056Y-132263D01*
X-56437Y-134691D01*
X-54009Y-135500D01*
X-52390D01*
X-49962Y-134691D01*
X-48344Y-132263D01*
X-47534Y-128216D01*
Y-125788D01*
X-48344Y-121741D01*
X-49962Y-119313D01*
X-52390Y-118504D01*
X-54009D01*
X-43730Y-121741D02*
X-42112Y-120932D01*
X-39684Y-118504D01*
Y-135500D01*
X-31266Y-141166D02*
X-18317D01*
X-4801Y-120932D02*
X-6419Y-119313D01*
X-8847Y-118504D01*
X-12085D01*
X-14513Y-119313D01*
X-16132Y-120932D01*
Y-122550D01*
X-15322Y-124169D01*
X-14513Y-124979D01*
X-12894Y-125788D01*
X-8038Y-127407D01*
X-6419Y-128216D01*
X-5610Y-129025D01*
X-4801Y-130644D01*
Y-133072D01*
X-6419Y-134691D01*
X-8847Y-135500D01*
X-12085D01*
X-14513Y-134691D01*
X-16132Y-133072D01*
X-997Y-121741D02*
X622Y-120932D01*
X3050Y-118504D01*
Y-135500D01*
X-74000Y-309004D02*
Y-326000D01*
X-62669Y-309004D02*
X-74000Y-320335D01*
X-69953Y-316288D02*
X-62669Y-326000D01*
X-54009Y-309004D02*
X-56437Y-309813D01*
X-58056Y-312241D01*
X-58865Y-316288D01*
Y-318716D01*
X-58056Y-322763D01*
X-56437Y-325191D01*
X-54009Y-326000D01*
X-52390D01*
X-49962Y-325191D01*
X-48344Y-322763D01*
X-47534Y-318716D01*
Y-316288D01*
X-48344Y-312241D01*
X-49962Y-309813D01*
X-52390Y-309004D01*
X-54009D01*
X-42921Y-313050D02*
Y-312241D01*
X-42112Y-310622D01*
X-41302Y-309813D01*
X-39684Y-309004D01*
X-36446D01*
X-34827Y-309813D01*
X-34018Y-310622D01*
X-33209Y-312241D01*
Y-313860D01*
X-34018Y-315478D01*
X-35637Y-317906D01*
X-43730Y-326000D01*
X-32399D01*
X-28595Y-331665D02*
X-15646D01*
X-2130Y-311432D02*
X-3748Y-309813D01*
X-6176Y-309004D01*
X-9414D01*
X-11842Y-309813D01*
X-13461Y-311432D01*
Y-313050D01*
X-12651Y-314669D01*
X-11842Y-315478D01*
X-10223Y-316288D01*
X-5367Y-317906D01*
X-3748Y-318716D01*
X-2939Y-319525D01*
X-2130Y-321144D01*
Y-323572D01*
X-3748Y-325191D01*
X-6176Y-326000D01*
X-9414D01*
X-11842Y-325191D01*
X-13461Y-323572D01*
X1674Y-312241D02*
X3293Y-311432D01*
X5721Y-309004D01*
Y-326000D01*
X-74000Y-499504D02*
Y-516500D01*
X-62669Y-499504D02*
X-74000Y-510835D01*
X-69953Y-506788D02*
X-62669Y-516500D01*
X-54009Y-499504D02*
X-56437Y-500313D01*
X-58056Y-502741D01*
X-58865Y-506788D01*
Y-509216D01*
X-58056Y-513263D01*
X-56437Y-515691D01*
X-54009Y-516500D01*
X-52390D01*
X-49962Y-515691D01*
X-48344Y-513263D01*
X-47534Y-509216D01*
Y-506788D01*
X-48344Y-502741D01*
X-49962Y-500313D01*
X-52390Y-499504D01*
X-54009D01*
X-42112D02*
X-33209D01*
X-38065Y-505979D01*
X-35637D01*
X-34018Y-506788D01*
X-33209Y-507597D01*
X-32399Y-510025D01*
Y-511644D01*
X-33209Y-514072D01*
X-34827Y-515691D01*
X-37255Y-516500D01*
X-39684D01*
X-42112Y-515691D01*
X-42921Y-514881D01*
X-43730Y-513263D01*
X-28595Y-522165D02*
X-15646D01*
X-2130Y-501932D02*
X-3748Y-500313D01*
X-6176Y-499504D01*
X-9414D01*
X-11842Y-500313D01*
X-13461Y-501932D01*
Y-503550D01*
X-12651Y-505169D01*
X-11842Y-505979D01*
X-10223Y-506788D01*
X-5367Y-508406D01*
X-3748Y-509216D01*
X-2939Y-510025D01*
X-2130Y-511644D01*
Y-514072D01*
X-3748Y-515691D01*
X-6176Y-516500D01*
X-9414D01*
X-11842Y-515691D01*
X-13461Y-514072D01*
X1674Y-502741D02*
X3293Y-501932D01*
X5721Y-499504D01*
Y-516500D01*
X-264500Y71996D02*
Y55000D01*
X-253169Y71996D02*
X-264500Y60665D01*
X-260453Y64712D02*
X-253169Y55000D01*
X-249365Y68759D02*
X-247747Y69568D01*
X-245318Y71996D01*
Y55000D01*
X-232045Y71996D02*
X-234473Y71187D01*
X-236092Y68759D01*
X-236901Y64712D01*
Y62284D01*
X-236092Y58237D01*
X-234473Y55809D01*
X-232045Y55000D01*
X-230426D01*
X-227998Y55809D01*
X-226380Y58237D01*
X-225570Y62284D01*
Y64712D01*
X-226380Y68759D01*
X-227998Y71187D01*
X-230426Y71996D01*
X-232045D01*
X-221766Y49335D02*
X-208817D01*
X-195301Y69568D02*
X-196919Y71187D01*
X-199347Y71996D01*
X-202585D01*
X-205013Y71187D01*
X-206632Y69568D01*
Y67950D01*
X-205822Y66331D01*
X-205013Y65521D01*
X-203394Y64712D01*
X-198538Y63094D01*
X-196919Y62284D01*
X-196110Y61475D01*
X-195301Y59856D01*
Y57428D01*
X-196919Y55809D01*
X-199347Y55000D01*
X-202585D01*
X-205013Y55809D01*
X-206632Y57428D01*
X-191497Y68759D02*
X-189878Y69568D01*
X-187450Y71996D01*
Y55000D01*
X-264500Y-118504D02*
Y-135500D01*
X-253169Y-118504D02*
X-264500Y-129835D01*
X-260453Y-125788D02*
X-253169Y-135500D01*
X-249365Y-121741D02*
X-247747Y-120932D01*
X-245318Y-118504D01*
Y-135500D01*
X-236901Y-121741D02*
X-235282Y-120932D01*
X-232854Y-118504D01*
Y-135500D01*
X-224437Y-141166D02*
X-211488D01*
X-197971Y-120932D02*
X-199590Y-119313D01*
X-202018Y-118504D01*
X-205256D01*
X-207684Y-119313D01*
X-209302Y-120932D01*
Y-122550D01*
X-208493Y-124169D01*
X-207684Y-124979D01*
X-206065Y-125788D01*
X-201209Y-127407D01*
X-199590Y-128216D01*
X-198781Y-129025D01*
X-197971Y-130644D01*
Y-133072D01*
X-199590Y-134691D01*
X-202018Y-135500D01*
X-205256D01*
X-207684Y-134691D01*
X-209302Y-133072D01*
X-194167Y-121741D02*
X-192549Y-120932D01*
X-190121Y-118504D01*
Y-135500D01*
X-264500Y-309004D02*
Y-326000D01*
X-253169Y-309004D02*
X-264500Y-320335D01*
X-260453Y-316288D02*
X-253169Y-326000D01*
X-249365Y-312241D02*
X-247747Y-311432D01*
X-245318Y-309004D01*
Y-326000D01*
X-236092Y-313050D02*
Y-312241D01*
X-235282Y-310622D01*
X-234473Y-309813D01*
X-232854Y-309004D01*
X-229617D01*
X-227998Y-309813D01*
X-227189Y-310622D01*
X-226380Y-312241D01*
Y-313860D01*
X-227189Y-315478D01*
X-228808Y-317906D01*
X-236901Y-326000D01*
X-225570D01*
X-221766Y-331665D02*
X-208817D01*
X-195301Y-311432D02*
X-196919Y-309813D01*
X-199347Y-309004D01*
X-202585D01*
X-205013Y-309813D01*
X-206632Y-311432D01*
Y-313050D01*
X-205822Y-314669D01*
X-205013Y-315478D01*
X-203394Y-316288D01*
X-198538Y-317906D01*
X-196919Y-318716D01*
X-196110Y-319525D01*
X-195301Y-321144D01*
Y-323572D01*
X-196919Y-325191D01*
X-199347Y-326000D01*
X-202585D01*
X-205013Y-325191D01*
X-206632Y-323572D01*
X-191497Y-312241D02*
X-189878Y-311432D01*
X-187450Y-309004D01*
Y-326000D01*
X-264500Y-499504D02*
Y-516500D01*
X-253169Y-499504D02*
X-264500Y-510835D01*
X-260453Y-506788D02*
X-253169Y-516500D01*
X-249365Y-502741D02*
X-247747Y-501932D01*
X-245318Y-499504D01*
Y-516500D01*
X-235282Y-499504D02*
X-226380D01*
X-231236Y-505979D01*
X-228808D01*
X-227189Y-506788D01*
X-226380Y-507597D01*
X-225570Y-510025D01*
Y-511644D01*
X-226380Y-514072D01*
X-227998Y-515691D01*
X-230426Y-516500D01*
X-232854D01*
X-235282Y-515691D01*
X-236092Y-514881D01*
X-236901Y-513263D01*
X-221766Y-522165D02*
X-208817D01*
X-195301Y-501932D02*
X-196919Y-500313D01*
X-199347Y-499504D01*
X-202585D01*
X-205013Y-500313D01*
X-206632Y-501932D01*
Y-503550D01*
X-205822Y-505169D01*
X-205013Y-505979D01*
X-203394Y-506788D01*
X-198538Y-508406D01*
X-196919Y-509216D01*
X-196110Y-510025D01*
X-195301Y-511644D01*
Y-514072D01*
X-196919Y-515691D01*
X-199347Y-516500D01*
X-202585D01*
X-205013Y-515691D01*
X-206632Y-514072D01*
X-191497Y-502741D02*
X-189878Y-501932D01*
X-187450Y-499504D01*
Y-516500D01*
X-216815Y-709060D02*
Y-726057D01*
X-205485Y-709060D02*
X-216815Y-720391D01*
X-212769Y-716344D02*
X-205485Y-726057D01*
X-201681Y-712298D02*
X-200062Y-711488D01*
X-197634Y-709060D01*
Y-726057D01*
X-181123Y-709060D02*
X-189217Y-720391D01*
X-177076D01*
X-181123Y-709060D02*
Y-726057D01*
X-174082Y-731722D02*
X-161132D01*
X-147616Y-711488D02*
X-149235Y-709870D01*
X-151663Y-709060D01*
X-154900D01*
X-157328Y-709870D01*
X-158947Y-711488D01*
Y-713107D01*
X-158138Y-714726D01*
X-157328Y-715535D01*
X-155710Y-716344D01*
X-150854Y-717963D01*
X-149235Y-718773D01*
X-148425Y-719582D01*
X-147616Y-721200D01*
Y-723629D01*
X-149235Y-725247D01*
X-151663Y-726057D01*
X-154900D01*
X-157328Y-725247D01*
X-158947Y-723629D01*
X-143812Y-712298D02*
X-142193Y-711488D01*
X-139765Y-709060D01*
Y-726057D01*
X-455000Y71996D02*
Y55000D01*
X-443669Y71996D02*
X-455000Y60665D01*
X-450953Y64712D02*
X-443669Y55000D01*
X-439056Y67950D02*
Y68759D01*
X-438246Y70378D01*
X-437437Y71187D01*
X-435818Y71996D01*
X-432581D01*
X-430962Y71187D01*
X-430153Y70378D01*
X-429344Y68759D01*
Y67140D01*
X-430153Y65521D01*
X-431772Y63094D01*
X-439865Y55000D01*
X-428534D01*
X-419874Y71996D02*
X-422302Y71187D01*
X-423921Y68759D01*
X-424730Y64712D01*
Y62284D01*
X-423921Y58237D01*
X-422302Y55809D01*
X-419874Y55000D01*
X-418256D01*
X-415827Y55809D01*
X-414209Y58237D01*
X-413399Y62284D01*
Y64712D01*
X-414209Y68759D01*
X-415827Y71187D01*
X-418256Y71996D01*
X-419874D01*
X-409595Y49335D02*
X-396646D01*
X-383130Y69568D02*
X-384748Y71187D01*
X-387177Y71996D01*
X-390414D01*
X-392842Y71187D01*
X-394461Y69568D01*
Y67950D01*
X-393651Y66331D01*
X-392842Y65521D01*
X-391223Y64712D01*
X-386367Y63094D01*
X-384748Y62284D01*
X-383939Y61475D01*
X-383130Y59856D01*
Y57428D01*
X-384748Y55809D01*
X-387177Y55000D01*
X-390414D01*
X-392842Y55809D01*
X-394461Y57428D01*
X-379326Y68759D02*
X-377707Y69568D01*
X-375279Y71996D01*
Y55000D01*
X-455000Y-118504D02*
Y-135500D01*
X-443669Y-118504D02*
X-455000Y-129835D01*
X-450953Y-125788D02*
X-443669Y-135500D01*
X-439056Y-122550D02*
Y-121741D01*
X-438246Y-120122D01*
X-437437Y-119313D01*
X-435818Y-118504D01*
X-432581D01*
X-430962Y-119313D01*
X-430153Y-120122D01*
X-429344Y-121741D01*
Y-123360D01*
X-430153Y-124979D01*
X-431772Y-127407D01*
X-439865Y-135500D01*
X-428534D01*
X-424730Y-121741D02*
X-423112Y-120932D01*
X-420684Y-118504D01*
Y-135500D01*
X-412266Y-141166D02*
X-399317D01*
X-385801Y-120932D02*
X-387419Y-119313D01*
X-389847Y-118504D01*
X-393085D01*
X-395513Y-119313D01*
X-397132Y-120932D01*
Y-122550D01*
X-396322Y-124169D01*
X-395513Y-124979D01*
X-393894Y-125788D01*
X-389038Y-127407D01*
X-387419Y-128216D01*
X-386610Y-129025D01*
X-385801Y-130644D01*
Y-133072D01*
X-387419Y-134691D01*
X-389847Y-135500D01*
X-393085D01*
X-395513Y-134691D01*
X-397132Y-133072D01*
X-381997Y-121741D02*
X-380378Y-120932D01*
X-377950Y-118504D01*
Y-135500D01*
X-526381Y-709065D02*
Y-726062D01*
X-515051Y-709065D02*
X-526381Y-720396D01*
X-522335Y-716349D02*
X-515051Y-726062D01*
X-510437Y-713112D02*
Y-712303D01*
X-509628Y-710684D01*
X-508819Y-709875D01*
X-507200Y-709065D01*
X-503963D01*
X-502344Y-709875D01*
X-501534Y-710684D01*
X-500725Y-712303D01*
Y-713921D01*
X-501534Y-715540D01*
X-503153Y-717968D01*
X-511247Y-726062D01*
X-499916D01*
X-488018Y-709065D02*
X-496112Y-720396D01*
X-483971D01*
X-488018Y-709065D02*
Y-726062D01*
X-480977Y-731727D02*
X-468027D01*
X-454511Y-711493D02*
X-456130Y-709875D01*
X-458558Y-709065D01*
X-461795D01*
X-464223Y-709875D01*
X-465842Y-711493D01*
Y-713112D01*
X-465033Y-714731D01*
X-464223Y-715540D01*
X-462605Y-716349D01*
X-457749Y-717968D01*
X-456130Y-718777D01*
X-455321Y-719587D01*
X-454511Y-721206D01*
Y-723634D01*
X-456130Y-725252D01*
X-458558Y-726062D01*
X-461795D01*
X-464223Y-725252D01*
X-465842Y-723634D01*
X-450707Y-712303D02*
X-449089Y-711493D01*
X-446660Y-709065D01*
Y-726062D01*
X-645500Y71996D02*
Y55000D01*
X-634169Y71996D02*
X-645500Y60665D01*
X-641453Y64712D02*
X-634169Y55000D01*
X-628746Y71996D02*
X-619844D01*
X-624700Y65521D01*
X-622272D01*
X-620653Y64712D01*
X-619844Y63903D01*
X-619034Y61475D01*
Y59856D01*
X-619844Y57428D01*
X-621462Y55809D01*
X-623890Y55000D01*
X-626318D01*
X-628746Y55809D01*
X-629556Y56619D01*
X-630365Y58237D01*
X-610374Y71996D02*
X-612802Y71187D01*
X-614421Y68759D01*
X-615230Y64712D01*
Y62284D01*
X-614421Y58237D01*
X-612802Y55809D01*
X-610374Y55000D01*
X-608755D01*
X-606328Y55809D01*
X-604709Y58237D01*
X-603899Y62284D01*
Y64712D01*
X-604709Y68759D01*
X-606328Y71187D01*
X-608755Y71996D01*
X-610374D01*
X-600095Y49335D02*
X-587146D01*
X-573630Y69568D02*
X-575248Y71187D01*
X-577677Y71996D01*
X-580914D01*
X-583342Y71187D01*
X-584961Y69568D01*
Y67950D01*
X-584151Y66331D01*
X-583342Y65521D01*
X-581723Y64712D01*
X-576867Y63094D01*
X-575248Y62284D01*
X-574439Y61475D01*
X-573630Y59856D01*
Y57428D01*
X-575248Y55809D01*
X-577677Y55000D01*
X-580914D01*
X-583342Y55809D01*
X-584961Y57428D01*
X-569826Y68759D02*
X-568207Y69568D01*
X-565779Y71996D01*
Y55000D01*
X-645500Y-118504D02*
Y-135500D01*
X-634169Y-118504D02*
X-645500Y-129835D01*
X-641453Y-125788D02*
X-634169Y-135500D01*
X-628746Y-118504D02*
X-619844D01*
X-624700Y-124979D01*
X-622272D01*
X-620653Y-125788D01*
X-619844Y-126597D01*
X-619034Y-129025D01*
Y-130644D01*
X-619844Y-133072D01*
X-621462Y-134691D01*
X-623890Y-135500D01*
X-626318D01*
X-628746Y-134691D01*
X-629556Y-133881D01*
X-630365Y-132263D01*
X-615230Y-121741D02*
X-613612Y-120932D01*
X-611184Y-118504D01*
Y-135500D01*
X-602766Y-141166D02*
X-589817D01*
X-576301Y-120932D02*
X-577919Y-119313D01*
X-580347Y-118504D01*
X-583585D01*
X-586013Y-119313D01*
X-587631Y-120932D01*
Y-122550D01*
X-586822Y-124169D01*
X-586013Y-124979D01*
X-584394Y-125788D01*
X-579538Y-127407D01*
X-577919Y-128216D01*
X-577110Y-129025D01*
X-576301Y-130644D01*
Y-133072D01*
X-577919Y-134691D01*
X-580347Y-135500D01*
X-583585D01*
X-586013Y-134691D01*
X-587631Y-133072D01*
X-572497Y-121741D02*
X-570878Y-120932D01*
X-568450Y-118504D01*
Y-135500D01*
X-645500Y-309004D02*
Y-326000D01*
X-634169Y-309004D02*
X-645500Y-320335D01*
X-641453Y-316288D02*
X-634169Y-326000D01*
X-628746Y-309004D02*
X-619844D01*
X-624700Y-315478D01*
X-622272D01*
X-620653Y-316288D01*
X-619844Y-317097D01*
X-619034Y-319525D01*
Y-321144D01*
X-619844Y-323572D01*
X-621462Y-325191D01*
X-623890Y-326000D01*
X-626318D01*
X-628746Y-325191D01*
X-629556Y-324381D01*
X-630365Y-322763D01*
X-614421Y-313050D02*
Y-312241D01*
X-613612Y-310622D01*
X-612802Y-309813D01*
X-611184Y-309004D01*
X-607946D01*
X-606328Y-309813D01*
X-605518Y-310622D01*
X-604709Y-312241D01*
Y-313860D01*
X-605518Y-315478D01*
X-607137Y-317906D01*
X-615230Y-326000D01*
X-603899D01*
X-600095Y-331665D02*
X-587146D01*
X-573630Y-311432D02*
X-575248Y-309813D01*
X-577677Y-309004D01*
X-580914D01*
X-583342Y-309813D01*
X-584961Y-311432D01*
Y-313050D01*
X-584151Y-314669D01*
X-583342Y-315478D01*
X-581723Y-316288D01*
X-576867Y-317906D01*
X-575248Y-318716D01*
X-574439Y-319525D01*
X-573630Y-321144D01*
Y-323572D01*
X-575248Y-325191D01*
X-577677Y-326000D01*
X-580914D01*
X-583342Y-325191D01*
X-584961Y-323572D01*
X-569826Y-312241D02*
X-568207Y-311432D01*
X-565779Y-309004D01*
Y-326000D01*
X-645500Y-499504D02*
Y-516500D01*
X-634169Y-499504D02*
X-645500Y-510835D01*
X-641453Y-506788D02*
X-634169Y-516500D01*
X-628746Y-499504D02*
X-619844D01*
X-624700Y-505979D01*
X-622272D01*
X-620653Y-506788D01*
X-619844Y-507597D01*
X-619034Y-510025D01*
Y-511644D01*
X-619844Y-514072D01*
X-621462Y-515691D01*
X-623890Y-516500D01*
X-626318D01*
X-628746Y-515691D01*
X-629556Y-514881D01*
X-630365Y-513263D01*
X-613612Y-499504D02*
X-604709D01*
X-609565Y-505979D01*
X-607137D01*
X-605518Y-506788D01*
X-604709Y-507597D01*
X-603899Y-510025D01*
Y-511644D01*
X-604709Y-514072D01*
X-606328Y-515691D01*
X-608755Y-516500D01*
X-611184D01*
X-613612Y-515691D01*
X-614421Y-514881D01*
X-615230Y-513263D01*
X-600095Y-522165D02*
X-587146D01*
X-573630Y-501932D02*
X-575248Y-500313D01*
X-577677Y-499504D01*
X-580914D01*
X-583342Y-500313D01*
X-584961Y-501932D01*
Y-503550D01*
X-584151Y-505169D01*
X-583342Y-505979D01*
X-581723Y-506788D01*
X-576867Y-508406D01*
X-575248Y-509216D01*
X-574439Y-510025D01*
X-573630Y-511644D01*
Y-514072D01*
X-575248Y-515691D01*
X-577677Y-516500D01*
X-580914D01*
X-583342Y-515691D01*
X-584961Y-514072D01*
X-569826Y-502741D02*
X-568207Y-501932D01*
X-565779Y-499504D01*
Y-516500D01*
X-836000Y-118504D02*
Y-135500D01*
X-824669Y-118504D02*
X-836000Y-129835D01*
X-831953Y-125788D02*
X-824669Y-135500D01*
X-812772Y-118504D02*
X-820865Y-129835D01*
X-808725D01*
X-812772Y-118504D02*
Y-135500D01*
X-805730Y-121741D02*
X-804112Y-120932D01*
X-801684Y-118504D01*
Y-135500D01*
X-793266Y-141166D02*
X-780317D01*
X-766801Y-120932D02*
X-768419Y-119313D01*
X-770847Y-118504D01*
X-774085D01*
X-776513Y-119313D01*
X-778131Y-120932D01*
Y-122550D01*
X-777322Y-124169D01*
X-776513Y-124979D01*
X-774894Y-125788D01*
X-770038Y-127407D01*
X-768419Y-128216D01*
X-767610Y-129025D01*
X-766801Y-130644D01*
Y-133072D01*
X-768419Y-134691D01*
X-770847Y-135500D01*
X-774085D01*
X-776513Y-134691D01*
X-778131Y-133072D01*
X-762997Y-121741D02*
X-761378Y-120932D01*
X-758950Y-118504D01*
Y-135500D01*
X-836000Y-309004D02*
Y-326000D01*
X-824669Y-309004D02*
X-836000Y-320335D01*
X-831953Y-316288D02*
X-824669Y-326000D01*
X-812772Y-309004D02*
X-820865Y-320335D01*
X-808725D01*
X-812772Y-309004D02*
Y-326000D01*
X-804921Y-313050D02*
Y-312241D01*
X-804112Y-310622D01*
X-803302Y-309813D01*
X-801684Y-309004D01*
X-798446D01*
X-796827Y-309813D01*
X-796018Y-310622D01*
X-795209Y-312241D01*
Y-313860D01*
X-796018Y-315478D01*
X-797637Y-317906D01*
X-805730Y-326000D01*
X-794399D01*
X-790595Y-331665D02*
X-777646D01*
X-764130Y-311432D02*
X-765748Y-309813D01*
X-768176Y-309004D01*
X-771414D01*
X-773842Y-309813D01*
X-775461Y-311432D01*
Y-313050D01*
X-774651Y-314669D01*
X-773842Y-315478D01*
X-772223Y-316288D01*
X-767367Y-317906D01*
X-765748Y-318716D01*
X-764939Y-319525D01*
X-764130Y-321144D01*
Y-323572D01*
X-765748Y-325191D01*
X-768176Y-326000D01*
X-771414D01*
X-773842Y-325191D01*
X-775461Y-323572D01*
X-760326Y-312241D02*
X-758707Y-311432D01*
X-756279Y-309004D01*
Y-326000D01*
X-836000Y-499504D02*
Y-516500D01*
X-824669Y-499504D02*
X-836000Y-510835D01*
X-831953Y-506788D02*
X-824669Y-516500D01*
X-812772Y-499504D02*
X-820865Y-510835D01*
X-808725D01*
X-812772Y-499504D02*
Y-516500D01*
X-804112Y-499504D02*
X-795209D01*
X-800065Y-505979D01*
X-797637D01*
X-796018Y-506788D01*
X-795209Y-507597D01*
X-794399Y-510025D01*
Y-511644D01*
X-795209Y-514072D01*
X-796827Y-515691D01*
X-799256Y-516500D01*
X-801684D01*
X-804112Y-515691D01*
X-804921Y-514881D01*
X-805730Y-513263D01*
X-790595Y-522165D02*
X-777646D01*
X-764130Y-501932D02*
X-765748Y-500313D01*
X-768176Y-499504D01*
X-771414D01*
X-773842Y-500313D01*
X-775461Y-501932D01*
Y-503550D01*
X-774651Y-505169D01*
X-773842Y-505979D01*
X-772223Y-506788D01*
X-767367Y-508406D01*
X-765748Y-509216D01*
X-764939Y-510025D01*
X-764130Y-511644D01*
Y-514072D01*
X-765748Y-515691D01*
X-768176Y-516500D01*
X-771414D01*
X-773842Y-515691D01*
X-775461Y-514072D01*
X-760326Y-502741D02*
X-758707Y-501932D01*
X-756279Y-499504D01*
Y-516500D01*
X-1026500Y71996D02*
Y55000D01*
X-1015169Y71996D02*
X-1026500Y60665D01*
X-1022453Y64712D02*
X-1015169Y55000D01*
X-1001653Y71996D02*
X-1009746D01*
X-1010556Y64712D01*
X-1009746Y65521D01*
X-1007318Y66331D01*
X-1004890D01*
X-1002462Y65521D01*
X-1000844Y63903D01*
X-1000034Y61475D01*
Y59856D01*
X-1000844Y57428D01*
X-1002462Y55809D01*
X-1004890Y55000D01*
X-1007318D01*
X-1009746Y55809D01*
X-1010556Y56619D01*
X-1011365Y58237D01*
X-991374Y71996D02*
X-993802Y71187D01*
X-995421Y68759D01*
X-996230Y64712D01*
Y62284D01*
X-995421Y58237D01*
X-993802Y55809D01*
X-991374Y55000D01*
X-989755D01*
X-987327Y55809D01*
X-985709Y58237D01*
X-984899Y62284D01*
Y64712D01*
X-985709Y68759D01*
X-987327Y71187D01*
X-989755Y71996D01*
X-991374D01*
X-981096Y49335D02*
X-968146D01*
X-954630Y69568D02*
X-956248Y71187D01*
X-958677Y71996D01*
X-961914D01*
X-964342Y71187D01*
X-965961Y69568D01*
Y67950D01*
X-965151Y66331D01*
X-964342Y65521D01*
X-962723Y64712D01*
X-957867Y63094D01*
X-956248Y62284D01*
X-955439Y61475D01*
X-954630Y59856D01*
Y57428D01*
X-956248Y55809D01*
X-958677Y55000D01*
X-961914D01*
X-964342Y55809D01*
X-965961Y57428D01*
X-950826Y68759D02*
X-949207Y69568D01*
X-946779Y71996D01*
Y55000D01*
X-1074056Y-118504D02*
Y-135500D01*
X-1062726Y-118504D02*
X-1074056Y-129835D01*
X-1070010Y-125788D02*
X-1062726Y-135500D01*
X-1049210Y-118504D02*
X-1057303D01*
X-1058112Y-125788D01*
X-1057303Y-124979D01*
X-1054875Y-124169D01*
X-1052447D01*
X-1050019Y-124979D01*
X-1048400Y-126597D01*
X-1047591Y-129025D01*
Y-130644D01*
X-1048400Y-133072D01*
X-1050019Y-134691D01*
X-1052447Y-135500D01*
X-1054875D01*
X-1057303Y-134691D01*
X-1058112Y-133881D01*
X-1058922Y-132263D01*
X-1043787Y-121741D02*
X-1042168Y-120932D01*
X-1039740Y-118504D01*
Y-135500D01*
X-1031323Y-141166D02*
X-1018373D01*
X-1004857Y-120932D02*
X-1006476Y-119313D01*
X-1008904Y-118504D01*
X-1012141D01*
X-1014569Y-119313D01*
X-1016188Y-120932D01*
Y-122550D01*
X-1015379Y-124169D01*
X-1014569Y-124979D01*
X-1012951Y-125788D01*
X-1008094Y-127407D01*
X-1006476Y-128216D01*
X-1005667Y-129025D01*
X-1004857Y-130644D01*
Y-133072D01*
X-1006476Y-134691D01*
X-1008904Y-135500D01*
X-1012141D01*
X-1014569Y-134691D01*
X-1016188Y-133072D01*
X-1001053Y-121741D02*
X-999435Y-120932D01*
X-997006Y-118504D01*
Y-135500D01*
X-1050259Y-499502D02*
Y-516498D01*
X-1038929Y-499502D02*
X-1050259Y-510833D01*
X-1046213Y-506786D02*
X-1038929Y-516498D01*
X-1025413Y-499502D02*
X-1033506D01*
X-1034315Y-506786D01*
X-1033506Y-505976D01*
X-1031078Y-505167D01*
X-1028650D01*
X-1026222Y-505976D01*
X-1024603Y-507595D01*
X-1023794Y-510023D01*
Y-511642D01*
X-1024603Y-514070D01*
X-1026222Y-515689D01*
X-1028650Y-516498D01*
X-1031078D01*
X-1033506Y-515689D01*
X-1034315Y-514879D01*
X-1035125Y-513261D01*
X-1018371Y-499502D02*
X-1009468D01*
X-1014324Y-505976D01*
X-1011896D01*
X-1010278Y-506786D01*
X-1009468Y-507595D01*
X-1008659Y-510023D01*
Y-511642D01*
X-1009468Y-514070D01*
X-1011087Y-515689D01*
X-1013515Y-516498D01*
X-1015943D01*
X-1018371Y-515689D01*
X-1019181Y-514879D01*
X-1019990Y-513261D01*
X-1004855Y-522163D02*
X-991905D01*
X-978389Y-501930D02*
X-980008Y-500311D01*
X-982436Y-499502D01*
X-985673D01*
X-988101Y-500311D01*
X-989720Y-501930D01*
Y-503548D01*
X-988911Y-505167D01*
X-988101Y-505976D01*
X-986483Y-506786D01*
X-981627Y-508405D01*
X-980008Y-509214D01*
X-979199Y-510023D01*
X-978389Y-511642D01*
Y-514070D01*
X-980008Y-515689D01*
X-982436Y-516498D01*
X-985673D01*
X-988101Y-515689D01*
X-989720Y-514070D01*
X-974585Y-502739D02*
X-972967Y-501930D01*
X-970538Y-499502D01*
Y-516498D01*
X-1050259Y-709060D02*
Y-726057D01*
X-1038929Y-709060D02*
X-1050259Y-720391D01*
X-1046213Y-716344D02*
X-1038929Y-726057D01*
X-1025413Y-709060D02*
X-1033506D01*
X-1034315Y-716344D01*
X-1033506Y-715535D01*
X-1031078Y-714726D01*
X-1028650D01*
X-1026222Y-715535D01*
X-1024603Y-717154D01*
X-1023794Y-719582D01*
Y-721200D01*
X-1024603Y-723629D01*
X-1026222Y-725247D01*
X-1028650Y-726057D01*
X-1031078D01*
X-1033506Y-725247D01*
X-1034315Y-724438D01*
X-1035125Y-722819D01*
X-1011896Y-709060D02*
X-1019990Y-720391D01*
X-1007850D01*
X-1011896Y-709060D02*
Y-726057D01*
X-1004855Y-731722D02*
X-991905D01*
X-978389Y-711488D02*
X-980008Y-709870D01*
X-982436Y-709060D01*
X-985673D01*
X-988101Y-709870D01*
X-989720Y-711488D01*
Y-713107D01*
X-988911Y-714726D01*
X-988101Y-715535D01*
X-986483Y-716344D01*
X-981627Y-717963D01*
X-980008Y-718773D01*
X-979199Y-719582D01*
X-978389Y-721200D01*
Y-723629D01*
X-980008Y-725247D01*
X-982436Y-726057D01*
X-985673D01*
X-988101Y-725247D01*
X-989720Y-723629D01*
X-974585Y-712298D02*
X-972967Y-711488D01*
X-970538Y-709060D01*
Y-726057D01*
X-1266500Y101996D02*
Y85000D01*
X-1255169Y101996D02*
X-1266500Y90665D01*
X-1262453Y94712D02*
X-1255169Y85000D01*
X-1241653Y99568D02*
X-1242462Y101187D01*
X-1244890Y101996D01*
X-1246509D01*
X-1248937Y101187D01*
X-1250556Y98759D01*
X-1251365Y94712D01*
Y90665D01*
X-1250556Y87428D01*
X-1248937Y85809D01*
X-1246509Y85000D01*
X-1245700D01*
X-1243272Y85809D01*
X-1241653Y87428D01*
X-1240844Y89856D01*
Y90665D01*
X-1241653Y93094D01*
X-1243272Y94712D01*
X-1245700Y95521D01*
X-1246509D01*
X-1248937Y94712D01*
X-1250556Y93094D01*
X-1251365Y90665D01*
X-1232264Y101996D02*
X-1234693Y101187D01*
X-1236311Y98759D01*
X-1237121Y94712D01*
Y92284D01*
X-1236311Y88237D01*
X-1234693Y85809D01*
X-1232264Y85000D01*
X-1230646D01*
X-1228218Y85809D01*
X-1226599Y88237D01*
X-1225790Y92284D01*
Y94712D01*
X-1226599Y98759D01*
X-1228218Y101187D01*
X-1230646Y101996D01*
X-1232264D01*
X-1221986Y79335D02*
X-1209036D01*
X-1195520Y99568D02*
X-1197139Y101187D01*
X-1199567Y101996D01*
X-1202804D01*
X-1205232Y101187D01*
X-1206851Y99568D01*
Y97950D01*
X-1206042Y96331D01*
X-1205232Y95521D01*
X-1203614Y94712D01*
X-1198757Y93094D01*
X-1197139Y92284D01*
X-1196329Y91475D01*
X-1195520Y89856D01*
Y87428D01*
X-1197139Y85809D01*
X-1199567Y85000D01*
X-1202804D01*
X-1205232Y85809D01*
X-1206851Y87428D01*
X-1191716Y98759D02*
X-1190097Y99568D01*
X-1187669Y101996D01*
Y85000D01*
X-1334125Y-709064D02*
Y-726060D01*
X-1322794Y-709064D02*
X-1334125Y-720395D01*
X-1330078Y-716348D02*
X-1322794Y-726060D01*
X-1309278Y-711492D02*
X-1310087Y-709873D01*
X-1312515Y-709064D01*
X-1314134D01*
X-1316562Y-709873D01*
X-1318181Y-712301D01*
X-1318990Y-716348D01*
Y-720395D01*
X-1318181Y-723632D01*
X-1316562Y-725251D01*
X-1314134Y-726060D01*
X-1313325D01*
X-1310897Y-725251D01*
X-1309278Y-723632D01*
X-1308469Y-721204D01*
Y-720395D01*
X-1309278Y-717967D01*
X-1310897Y-716348D01*
X-1313325Y-715538D01*
X-1314134D01*
X-1316562Y-716348D01*
X-1318181Y-717967D01*
X-1318990Y-720395D01*
X-1296652Y-709064D02*
X-1304746Y-720395D01*
X-1292605D01*
X-1296652Y-709064D02*
Y-726060D01*
X-1289611Y-731725D02*
X-1276661D01*
X-1263145Y-711492D02*
X-1264764Y-709873D01*
X-1267192Y-709064D01*
X-1270429D01*
X-1272857Y-709873D01*
X-1274476Y-711492D01*
Y-713110D01*
X-1273667Y-714729D01*
X-1272857Y-715538D01*
X-1271238Y-716348D01*
X-1266382Y-717967D01*
X-1264764Y-718776D01*
X-1263954Y-719585D01*
X-1263145Y-721204D01*
Y-723632D01*
X-1264764Y-725251D01*
X-1267192Y-726060D01*
X-1270429D01*
X-1272857Y-725251D01*
X-1274476Y-723632D01*
X-1259341Y-712301D02*
X-1257722Y-711492D01*
X-1255294Y-709064D01*
Y-726060D01*
X-455000Y-499504D02*
Y-516500D01*
X-443669Y-499504D02*
X-455000Y-510835D01*
X-450953Y-506788D02*
X-443669Y-516500D01*
X-439056Y-503550D02*
Y-502741D01*
X-438246Y-501122D01*
X-437437Y-500313D01*
X-435818Y-499504D01*
X-432581D01*
X-430962Y-500313D01*
X-430153Y-501122D01*
X-429344Y-502741D01*
Y-504360D01*
X-430153Y-505979D01*
X-431772Y-508406D01*
X-439865Y-516500D01*
X-428534D01*
X-423112Y-499504D02*
X-414209D01*
X-419065Y-505979D01*
X-416637D01*
X-415018Y-506788D01*
X-414209Y-507597D01*
X-413399Y-510025D01*
Y-511644D01*
X-414209Y-514072D01*
X-415827Y-515691D01*
X-418256Y-516500D01*
X-420684D01*
X-423112Y-515691D01*
X-423921Y-514881D01*
X-424730Y-513263D01*
X-409595Y-522165D02*
X-396646D01*
X-383130Y-501932D02*
X-384748Y-500313D01*
X-387177Y-499504D01*
X-390414D01*
X-392842Y-500313D01*
X-394461Y-501932D01*
Y-503550D01*
X-393651Y-505169D01*
X-392842Y-505979D01*
X-391223Y-506788D01*
X-386367Y-508406D01*
X-384748Y-509216D01*
X-383939Y-510025D01*
X-383130Y-511644D01*
Y-514072D01*
X-384748Y-515691D01*
X-387177Y-516500D01*
X-390414D01*
X-392842Y-515691D01*
X-394461Y-514072D01*
X-379326Y-502741D02*
X-377707Y-501932D01*
X-375279Y-499504D01*
Y-516500D01*
X-455000Y-309004D02*
Y-326000D01*
X-443669Y-309004D02*
X-455000Y-320335D01*
X-450953Y-316288D02*
X-443669Y-326000D01*
X-439056Y-313050D02*
Y-312241D01*
X-438246Y-310622D01*
X-437437Y-309813D01*
X-435818Y-309004D01*
X-432581D01*
X-430962Y-309813D01*
X-430153Y-310622D01*
X-429344Y-312241D01*
Y-313860D01*
X-430153Y-315478D01*
X-431772Y-317906D01*
X-439865Y-326000D01*
X-428534D01*
X-423921Y-313050D02*
Y-312241D01*
X-423112Y-310622D01*
X-422302Y-309813D01*
X-420684Y-309004D01*
X-417446D01*
X-415827Y-309813D01*
X-415018Y-310622D01*
X-414209Y-312241D01*
Y-313860D01*
X-415018Y-315478D01*
X-416637Y-317906D01*
X-424730Y-326000D01*
X-413399D01*
X-409595Y-331665D02*
X-396646D01*
X-383130Y-311432D02*
X-384748Y-309813D01*
X-387177Y-309004D01*
X-390414D01*
X-392842Y-309813D01*
X-394461Y-311432D01*
Y-313050D01*
X-393651Y-314669D01*
X-392842Y-315478D01*
X-391223Y-316288D01*
X-386367Y-317906D01*
X-384748Y-318716D01*
X-383939Y-319525D01*
X-383130Y-321144D01*
Y-323572D01*
X-384748Y-325191D01*
X-387177Y-326000D01*
X-390414D01*
X-392842Y-325191D01*
X-394461Y-323572D01*
X-379326Y-312241D02*
X-377707Y-311432D01*
X-375279Y-309004D01*
Y-326000D01*
M02*
