M48
;Layer_Color=9474304
;FILE_FORMAT=4:4
METRIC,LZ
;TYPE=PLATED
T01F00S00C0.3000
T03F00S00C0.9000
T04F00S00C1.5500
T05F00S00C3.0000
;TYPE=NON_PLATED
T06F00S00C1.0000
T07F00S00C1.7500
T08F00S00C3.6000
T09F00S00C4.0000
T10F00S00C4.1000
%
T01
X-013475Y-00846807
X-01314753Y-00892123
X-01150041
X-01090626
X-00296594
X00042013
X00087194Y-00849282
Y-00678245
Y-0047577
X-01026475Y-004675
Y-004575
X-010225Y-004475
X-01050932Y-00447689
X-0105Y-004575
X-01045665Y-00467572
X-01376086Y-00467669
X-013475Y-00676968
X-012425Y-0009
X-012433Y-00075
X-01279969Y00016201
X-0086799Y0001923
X-00835059
X-00747359Y0002667
X-00702924Y00057906
X-00695Y-00215
X-00681358Y-00215069
X-006875Y-00222748
X-00705Y-002225
X-007112Y-002304
X-00704714Y-002375
X-00660603Y-00234748
X-006515Y-00213988
X-0063Y-00226748
X-00599835Y-00238748
X-006Y-00273894
X-0057
X-0054
X-00539753Y-00225841
X-00570183Y-00232647
X-0063Y-003
X-0066Y-003025
X-007Y-002875
X-0073
X-0076
X-0079
X-0081Y-00302
X-0084Y-003025
X-00854424Y-0031
X-008525Y-002865
X-0082285Y-00135
X-00494727Y-00128016
X-00483839Y-00123234
X-00475339
X-00466839
X-00458339
X-00449839
X-00476217Y-00176375
X-00475105Y-00186805
X-00482467Y-00170365
X-00488477Y-00164354
X-00494727Y-00158344
X-004915Y-00216448
X-00482793Y-00213233
X-00471868Y-00215645
X-0046445Y-00220886
X-00469941Y-00231932
X-00459091Y-00235
X-00449939Y-00235136
X-00485065Y-00233316
X-004915Y-00244091
X-0051Y-00237841
Y-00272894
X-0048Y-003025
X-0045
X-0042
X-0039
X-0036
X-0033
X-003
X-0027
X-0024
X-0021
X-0018
X-0015
X-00141941Y-00261821
X-00140961Y-00241402
Y-00226083
X-0018Y-00221768
Y-00240016
X-002025Y-00235152
X-0021Y-00241402
X-0019863Y-002525
X-00202378Y-00265139
X-002413Y-00265
X-00272593Y-00235152
X-00311196Y-00223921
X-00326954Y-00228445
X-00326167Y-00217789
X-00331693Y-00235501
X-00366881Y-00235903
X-00366824Y-00221571
X-00373011Y-00227419
X-003725Y-0024484
X-00405Y-00235
Y-00225841
X-004025Y-00217277
X-00410847Y-00213676
X-00412173Y-00205
X-0031Y-00253
X-0032Y-00265
X-00205Y-00221768
X-002221Y00048281
X-00265176Y00065262
X-00436589Y000546
Y00034025
X-00440589Y000127
X-00488477Y0005293
X-00485535Y00061717
X-0012Y-00240016
X-0009Y-00233766
X-00065Y-00226083
X-00045Y-002275
X-00048418Y-00235283
X-0003Y-00235152
X00015
X0Y-003025
X-0003
X-0006
X-0009
X-0012
X-0005Y-00275
Y-00265424
X0003Y-003025
X0006
X00087194Y-00097234
X0008085Y00107093
X00039504Y00107038
X00032028Y00102991
X00024527Y00098994
X00017275Y00092922
X00018003Y000725
X-0000303Y00086828
X-0001039Y00103172
X00003228Y00115672
X00003792Y00131382
X-00005723Y00138362
X-00023945Y00142089
X-00023816Y0013359
X-00034988Y00131672
X-0005506
X-0006131Y00155581
X-00069249Y00158619
X-00076416Y00163188
X-00086061Y00166307
X-00095792Y00170307
X-00102491Y00175538
X-00110527Y00178307
X-00119858Y0018253
X-00126356Y00189348
X-00079277Y00204216
X-00088863Y00223222
X-00078946Y00235356
X-00062453Y0022412
X-00060402Y00251223
X-00065108Y00280793
X-00049906Y00283591
X-00053148Y00297255
X-00060811Y00305948
X-00071203Y00311757
X-00080711Y00300927
X-00081378Y00277454
X-00096788Y00269213
X-00108212Y00257844
X-00121126Y00315292
X-00085245Y00329505
X-00025968Y00307104
X-00003762Y00313413
X00000267Y00292531
X-0000885Y00281509
X-00018787Y00276503
X-00027781Y00246664
X-0002921Y00226133
X-00044438Y00206709
X-00005313Y00208307
X-00002367Y00239595
X00015415Y00237738
X00022561Y00232672
X00017477Y00261248
X00003324Y0025398
X00030875Y00269425
X00017477Y00300214
X00019757Y00115672
X-00019753Y00149483
X-001376Y00132441
X-00142532Y00095164
X-00155019Y00095738
X-00162586Y00091552
X-00168738Y0008
X-00179097Y00081301
X-00176751Y0010619
X-00168274Y00106814
X-002321Y00097802
X-002475Y00081301
X-002575
X-00280941
X-00285495Y00098032
X-00272869Y00102512
X-00285928Y00135672
X-00274936Y00148776
X-00267552Y00153354
X-00283398Y00168176
X-00292516Y00167668
X-00314354Y00146757
X-00327738Y00140878
X-00320439Y00121422
X-0032395Y00113422
X-00340845Y00110134
X-00339306Y00157422
X-00333056Y00179672
X-00258578Y00185558
X-002305Y00185922
X-00180903Y00191672
X-00152682Y00187417
X-00132749Y0019495
X-00135129Y0020529
X-00129898Y00288175
X-00218029Y00269213
X-00226658Y002665
X-0022585Y00257062
X-00228283Y0024889
X-0021551Y00347018
X-0026701Y00358266
X-0044525Y0026
X-00466839Y0027497
X-00506878Y00307016
X-00481089Y00174922
X-00489569Y00165334
X-00481089Y00154847
X-00485535Y00139521
X-00485596Y00129914
X-00485089Y00113422
X-00487226Y00104759
X-00485089Y00095929
X-00485785Y00087458
X-00490683Y0007798
X-00485089Y00071581
X-004475Y00085302
X-00444589Y0011481
X-004515Y00125422
X-00451Y00173422
X-00429899Y00203396
X-00498686Y00111896
X-00511747
X-00646022Y00107608
X-00649415Y0009867
X-00762592Y000875
X-01107485Y0010198
T03
X-01423392Y-00426712
X-01397992
X-01372592
X-01347192
X-00506263Y00245467
X-00481176Y00241493
X-00456089Y0023752
X-00431001Y00233546
X-00405914Y00229573
X-00380827Y00225599
X-00376853Y00250687
X-0037288Y00275774
X-00368907Y00300861
X-00364933Y00325949
X-0036096Y00351036
X-00356986Y00376123
X-00382074Y00380097
X-00407161Y0038407
X-00432248Y00388044
X-00457335Y00392017
X-00482423Y0039599
X-0050751Y00399964
X-00532597Y00403937
X-00557684Y00407911
X-00556438Y00253414
X-00581525Y00257387
X-00531351Y0024944
T04
X-01298225Y-0075566
X-01234725Y-0073026
X-0101436Y-00755657
X-0095086Y-00730257
X-00728606Y-00755662
X-00665107Y-00730262
X-00490481Y-00755662
X-00426982Y-00730262
X-00180916Y-00755657
X-00117416Y-00730257
X-000381Y-005461
X000254Y-005207
Y-003302
X-000381Y-003556
X-001651Y-003302
X-002286Y-003556
X-003556Y-003302
X-004191Y-003556
Y-005461
X-003556Y-005207
X-002286Y-005461
X-001651Y-005207
X-005461
X-006096Y-005461
X-007366Y-005207
X-008001Y-005461
Y-003556
X-007366Y-003302
X-006096Y-003556
X-005461Y-003302
X-01003893Y-00330144
X-01067393Y-00355544
X-0101436Y-00546098
X-0095086Y-00520698
X-01234725Y-005207
X-01298225Y-005461
X-01038157Y-001651
X-00974657Y-001397
X-009906Y000254
X-009271Y000508
X-012306Y000554
X-008001Y000254
X-007366Y000508
X-006096Y000254
X-005461Y000508
Y-001397
X-006096Y-001651
X-007366Y-001397
X-008001Y-001651
X-004191
X-003556Y-001397
X-002286Y-001651
X-001651Y-001397
Y000508
X-002286Y000254
X-003556Y000508
X-004191Y000254
X-000381
X000254Y000508
Y-001397
X-000381Y-001651
X-011671Y000808
T05
X-01118192Y-0087462
X00069694Y-00874623
X-00285753Y-004785
X-00857253
X-01250413Y-00285944
X-00857253Y-000975
X-00285753
X-00585715Y00196265
T06
X-0051235Y00324293
X-00581488Y00335243
T07
X-01310925Y-0078106
X-01209325
X-01027059Y-00781057
X-0092546
X-00741307Y-00781062
X-00639706
X-00503181
X-00401581
X-00193615Y-00781057
X-00092015
X-000508Y-005715
X000508
Y-00381
X-000508
X-001397
X-002413
X-003302
X-004318
X-005207
Y-005715
X-004318
X-003302
X-002413
X-001397
X-006223
X-007112
X-008128
Y-00381
X-007112
X-006223
X-00978493Y-00380944
X-01080093
X-01027059Y-00571498
X-0092546
X-01209325Y-005715
X-01310925
X-01050856Y-001905
X-00949257
X-010033Y0
X-011417Y0003
X-012433
X-009017Y0
X-008128
X-007112
X-006223
Y-001905
X-007112
X-008128
X-005207
X-004318
X-003302
X-002413
X-001397
Y0
X-002413
X-003302
X-004318
X-005207
X-000508
X000508
Y-001905
X-000508
T08
X-00023844Y-00706556
X-00261633Y-00706149
T09
X-00261964Y-00864896
X-00023733Y-00864927
T10
X-01260125Y-0078106
X-0097626Y-00781057
X-00690507Y-00781062
X-00452382
X-00142816Y-00781057
X0Y-005715
Y-00381
X-001905
Y-005715
X-00381
Y-00381
X-005715
Y-005715
X-00762
Y-00381
X-01029293Y-00380944
X-0097626Y-00571498
X-01260125Y-005715
X-01000057Y-001905
X-009525Y0
X-011925Y0003
X-00762Y0
X-005715
Y-001905
X-00762
X-00381
X-001905
Y0
X-00381
X0
Y-001905
M30
