G04*
G04 #@! TF.GenerationSoftware,Altium Limited,Altium Designer,25.7.1 (20)*
G04*
G04 Layer_Color=2752767*
%FSLAX44Y44*%
%MOMM*%
G71*
G04*
G04 #@! TF.SameCoordinates,6D1EC6EB-D4D1-4485-8440-CF1E71E7DC7E*
G04*
G04*
G04 #@! TF.FilePolarity,Positive*
G04*
G01*
G75*
%ADD119C,0.0508*%
%ADD120C,0.0677*%
%ADD121C,0.0339*%
D119*
X-358002Y375107D02*
Y374091D01*
X-355970D01*
Y375107D01*
X-354954D01*
Y377139D01*
X-355970D01*
Y378155D01*
X-358002D01*
Y377139D01*
X-359018D01*
Y375107D01*
X-358002D01*
X-383089Y379081D02*
Y378065D01*
X-381058D01*
Y379081D01*
X-380042D01*
Y381113D01*
X-381058D01*
Y382129D01*
X-383089D01*
Y381113D01*
X-384105D01*
Y379081D01*
X-383089D01*
X-408177Y383054D02*
Y382038D01*
X-406145D01*
Y383054D01*
X-405129D01*
Y385086D01*
X-406145D01*
Y386102D01*
X-408177D01*
Y385086D01*
X-409193D01*
Y383054D01*
X-408177D01*
X-433264Y387028D02*
Y386012D01*
X-431232D01*
Y387028D01*
X-430216D01*
Y389059D01*
X-431232D01*
Y390075D01*
X-433264D01*
Y389059D01*
X-434280D01*
Y387028D01*
X-433264D01*
X-458351Y391001D02*
Y389985D01*
X-456319D01*
Y391001D01*
X-455303D01*
Y393033D01*
X-456319D01*
Y394049D01*
X-458351D01*
Y393033D01*
X-459367D01*
Y391001D01*
X-458351D01*
X-483439Y394974D02*
Y393958D01*
X-481407D01*
Y394974D01*
X-480391D01*
Y397006D01*
X-481407D01*
Y398022D01*
X-483439D01*
Y397006D01*
X-484455D01*
Y394974D01*
X-483439D01*
X-508526Y398948D02*
Y397932D01*
X-506494D01*
Y398948D01*
X-505478D01*
Y400980D01*
X-506494D01*
Y401996D01*
X-508526D01*
Y400980D01*
X-509542D01*
Y398948D01*
X-508526D01*
X-558700Y406895D02*
Y405879D01*
X-556668D01*
Y406895D01*
X-555652D01*
Y408927D01*
X-556668D01*
Y409943D01*
X-558700D01*
Y408927D01*
X-559716D01*
Y406895D01*
X-558700D01*
X-533613Y402921D02*
Y401905D01*
X-531581D01*
Y402921D01*
X-530565D01*
Y404953D01*
X-531581D01*
Y405969D01*
X-533613D01*
Y404953D01*
X-534629D01*
Y402921D01*
X-533613D01*
X-361976Y350020D02*
Y349004D01*
X-359944D01*
Y350020D01*
X-358928D01*
Y352052D01*
X-359944D01*
Y353068D01*
X-361976D01*
Y352052D01*
X-362992D01*
Y350020D01*
X-361976D01*
X-365949Y324933D02*
Y323917D01*
X-363917D01*
Y324933D01*
X-362901D01*
Y326965D01*
X-363917D01*
Y327981D01*
X-365949D01*
Y326965D01*
X-366965D01*
Y324933D01*
X-365949D01*
X-369922Y299845D02*
Y298829D01*
X-367891D01*
Y299845D01*
X-366875D01*
Y301877D01*
X-367891D01*
Y302893D01*
X-369922D01*
Y301877D01*
X-370938D01*
Y299845D01*
X-369922D01*
X-373896Y274758D02*
Y273742D01*
X-371864D01*
Y274758D01*
X-370848D01*
Y276790D01*
X-371864D01*
Y277806D01*
X-373896D01*
Y276790D01*
X-374912D01*
Y274758D01*
X-373896D01*
X-377869Y249671D02*
Y248655D01*
X-375837D01*
Y249671D01*
X-374821D01*
Y251703D01*
X-375837D01*
Y252719D01*
X-377869D01*
Y251703D01*
X-378885D01*
Y249671D01*
X-377869D01*
X-381843Y224583D02*
Y223568D01*
X-379811D01*
Y224583D01*
X-378795D01*
Y226616D01*
X-379811D01*
Y227631D01*
X-381843D01*
Y226616D01*
X-382859D01*
Y224583D01*
X-381843D01*
X-406930Y228557D02*
Y227541D01*
X-404898D01*
Y228557D01*
X-403882D01*
Y230589D01*
X-404898D01*
Y231605D01*
X-406930D01*
Y230589D01*
X-407946D01*
Y228557D01*
X-406930D01*
X-432017Y232530D02*
Y231514D01*
X-429985D01*
Y232530D01*
X-428969D01*
Y234562D01*
X-429985D01*
Y235578D01*
X-432017D01*
Y234562D01*
X-433033D01*
Y232530D01*
X-432017D01*
X-457105Y236504D02*
Y235488D01*
X-455073D01*
Y236504D01*
X-454057D01*
Y238536D01*
X-455073D01*
Y239552D01*
X-457105D01*
Y238536D01*
X-458121D01*
Y236504D01*
X-457105D01*
X-482192Y240477D02*
Y239461D01*
X-480160D01*
Y240477D01*
X-479144D01*
Y242509D01*
X-480160D01*
Y243525D01*
X-482192D01*
Y242509D01*
X-483208D01*
Y240477D01*
X-482192D01*
X-507279Y244451D02*
Y243435D01*
X-505247D01*
Y244451D01*
X-504231D01*
Y246483D01*
X-505247D01*
Y247499D01*
X-507279D01*
Y246483D01*
X-508295D01*
Y244451D01*
X-507279D01*
X-532366Y248424D02*
Y247408D01*
X-530335D01*
Y248424D01*
X-529319D01*
Y250456D01*
X-530335D01*
Y251472D01*
X-532366D01*
Y250456D01*
X-533382D01*
Y248424D01*
X-532366D01*
X-557454Y252398D02*
Y251382D01*
X-555422D01*
Y252398D01*
X-554406D01*
Y254430D01*
X-555422D01*
Y255446D01*
X-557454D01*
Y254430D01*
X-558470D01*
Y252398D01*
X-557454D01*
X-582541Y256371D02*
Y255355D01*
X-580509D01*
Y256371D01*
X-579493D01*
Y258403D01*
X-580509D01*
Y259419D01*
X-582541D01*
Y258403D01*
X-583557D01*
Y256371D01*
X-582541D01*
X-1373608Y-427728D02*
Y-428744D01*
X-1371576D01*
Y-427728D01*
X-1370560D01*
Y-425696D01*
X-1371576D01*
Y-424680D01*
X-1373608D01*
Y-425696D01*
X-1374624D01*
Y-427728D01*
X-1373608D01*
X-800100Y-548132D02*
X-802132Y-544068D01*
X-798068D01*
X-800100Y-548132D01*
Y-357632D02*
X-802132Y-353568D01*
X-798068D01*
X-800100Y-357632D01*
Y-167132D02*
X-802132Y-163068D01*
X-798068D01*
X-800100Y-167132D01*
Y23368D02*
X-802132Y27432D01*
X-798068D01*
X-800100Y23368D01*
X-728606Y-757694D02*
X-730639Y-753630D01*
X-726574D01*
X-728606Y-757694D01*
X-180916Y-757689D02*
X-182948Y-753625D01*
X-178883D01*
X-180916Y-757689D01*
X-228600Y-548132D02*
X-230632Y-544068D01*
X-226568D01*
X-228600Y-548132D01*
Y-357632D02*
X-230632Y-353568D01*
X-226568D01*
X-228600Y-357632D01*
Y-167132D02*
X-230632Y-163068D01*
X-226568D01*
X-228600Y-167132D01*
Y23368D02*
X-230632Y27432D01*
X-226568D01*
X-228600Y23368D01*
X-1348208Y-427728D02*
Y-428744D01*
X-1346176D01*
Y-427728D01*
X-1345160D01*
Y-425696D01*
X-1346176D01*
Y-424680D01*
X-1348208D01*
Y-425696D01*
X-1349224D01*
Y-427728D01*
X-1348208D01*
X-1014360Y-757689D02*
X-1016392Y-753625D01*
X-1012327D01*
X-1014360Y-757689D01*
Y-548130D02*
X-1016392Y-544066D01*
X-1012327D01*
X-1014360Y-548130D01*
X-1038157Y-167132D02*
X-1040189Y-163068D01*
X-1036124D01*
X-1038157Y-167132D01*
X-990600Y23368D02*
X-992632Y27432D01*
X-988568D01*
X-990600Y23368D01*
X-1067393Y-357576D02*
X-1069425Y-353512D01*
X-1065361D01*
X-1067393Y-357576D01*
X-490481Y-757694D02*
X-492514Y-753630D01*
X-488450D01*
X-490481Y-757694D01*
X-419100Y-548132D02*
X-421132Y-544068D01*
X-417068D01*
X-419100Y-548132D01*
Y-357632D02*
X-421132Y-353568D01*
X-417068D01*
X-419100Y-357632D01*
Y-167132D02*
X-421132Y-163068D01*
X-417068D01*
X-419100Y-167132D01*
Y23368D02*
X-421132Y27432D01*
X-417068D01*
X-419100Y23368D01*
X-1298225Y-757692D02*
X-1300257Y-753628D01*
X-1296193D01*
X-1298225Y-757692D01*
X-1230600Y53368D02*
X-1232632Y57432D01*
X-1228568D01*
X-1230600Y53368D01*
X-1298225Y-548132D02*
X-1300257Y-544068D01*
X-1296193D01*
X-1298225Y-548132D01*
X-609600Y23368D02*
X-611632Y27432D01*
X-607568D01*
X-609600Y23368D01*
Y-167132D02*
X-611632Y-163068D01*
X-607568D01*
X-609600Y-167132D01*
Y-357632D02*
X-611632Y-353568D01*
X-607568D01*
X-609600Y-357632D01*
Y-548132D02*
X-611632Y-544068D01*
X-607568D01*
X-609600Y-548132D01*
X-38100D02*
X-40132Y-544068D01*
X-36068D01*
X-38100Y-548132D01*
Y-357632D02*
X-40132Y-353568D01*
X-36068D01*
X-38100Y-357632D01*
Y-167132D02*
X-40132Y-163068D01*
X-36068D01*
X-38100Y-167132D01*
Y23368D02*
X-40132Y27432D01*
X-36068D01*
X-38100Y23368D01*
X-489258Y295501D02*
Y299566D01*
X-485194D01*
Y295501D01*
X-489258D01*
X-488242Y296518D02*
Y298549D01*
X-486210D01*
Y296518D01*
X-488242D01*
X-1399008Y-427728D02*
Y-428744D01*
X-1396976D01*
Y-427728D01*
X-1395960D01*
Y-425696D01*
X-1396976D01*
Y-424680D01*
X-1399008D01*
Y-425696D01*
X-1400024D01*
Y-427728D01*
X-1399008D01*
X-1424408D02*
Y-428744D01*
X-1422376D01*
Y-427728D01*
X-1421360D01*
Y-425696D01*
X-1422376D01*
Y-424680D01*
X-1424408D01*
Y-425696D01*
X-1425424D01*
Y-427728D01*
X-1424408D01*
X-1234725Y-522732D02*
X-1236757Y-518668D01*
X-1232693D01*
X-1234725Y-522732D01*
X-1262157Y-573532D02*
Y-569468D01*
X-1258093D01*
Y-573532D01*
X-1262157D01*
X-585715Y194233D02*
X-587747Y198297D01*
X-583683D01*
X-585715Y194233D01*
Y195249D02*
X-586731Y197281D01*
X-584699D01*
X-585715Y195249D01*
X-1250413Y-287976D02*
X-1252445Y-283912D01*
X-1248381D01*
X-1250413Y-287976D01*
Y-286960D02*
X-1251429Y-284928D01*
X-1249397D01*
X-1250413Y-286960D01*
X-1118192Y-876652D02*
X-1120224Y-872588D01*
X-1116160D01*
X-1118192Y-876652D01*
Y-875636D02*
X-1119208Y-873604D01*
X-1117176D01*
X-1118192Y-875636D01*
X69694Y-876655D02*
X67662Y-872591D01*
X71726D01*
X69694Y-876655D01*
Y-875639D02*
X68678Y-873607D01*
X70710D01*
X69694Y-875639D01*
X-263665Y-708181D02*
X-262649Y-706149D01*
X-263665Y-704117D01*
X-261633Y-705133D01*
X-259601Y-704117D01*
X-260617Y-706149D01*
X-259601Y-708181D01*
X-261633Y-707165D01*
X-263665Y-708181D01*
X-25876Y-708588D02*
X-24860Y-706556D01*
X-25876Y-704524D01*
X-23844Y-705540D01*
X-21812Y-704524D01*
X-22828Y-706556D01*
X-21812Y-708588D01*
X-23844Y-707572D01*
X-25876Y-708588D01*
X-665107Y-732294D02*
X-667139Y-728230D01*
X-663074D01*
X-665107Y-732294D01*
X-692539Y-783094D02*
Y-779030D01*
X-688475D01*
Y-783094D01*
X-692539D01*
X-736600Y48768D02*
X-738632Y52832D01*
X-734568D01*
X-736600Y48768D01*
X-764032Y-2032D02*
Y2032D01*
X-759968D01*
Y-2032D01*
X-764032D01*
X-857253Y-99532D02*
X-859285Y-95468D01*
X-855221D01*
X-857253Y-99532D01*
Y-98516D02*
X-858269Y-96484D01*
X-856237D01*
X-857253Y-98516D01*
X-285753Y-99532D02*
X-287785Y-95468D01*
X-283721D01*
X-285753Y-99532D01*
Y-98516D02*
X-286769Y-96484D01*
X-284737D01*
X-285753Y-98516D01*
Y-480532D02*
X-287785Y-476468D01*
X-283721D01*
X-285753Y-480532D01*
Y-479516D02*
X-286769Y-477484D01*
X-284737D01*
X-285753Y-479516D01*
X-857253Y-480532D02*
X-859285Y-476468D01*
X-855221D01*
X-857253Y-480532D01*
Y-479516D02*
X-858269Y-477484D01*
X-856237D01*
X-857253Y-479516D01*
X-514381Y324293D02*
X-512350Y326325D01*
X-510317Y324293D01*
X-512350Y322261D01*
X-514381Y324293D01*
X-583520Y335243D02*
X-581488Y337276D01*
X-579456Y335243D01*
X-581488Y333212D01*
X-583520Y335243D01*
X-493083Y341668D02*
Y345732D01*
X-489019D01*
Y341668D01*
X-493083D01*
X-492067Y342684D02*
Y344716D01*
X-490035D01*
Y342684D01*
X-492067D01*
X-533578Y348082D02*
Y352146D01*
X-529515D01*
Y348082D01*
X-533578D01*
X-532562Y349098D02*
Y351130D01*
X-530531D01*
Y349098D01*
X-532562D01*
X-564197Y352932D02*
Y356996D01*
X-560133D01*
Y352932D01*
X-564197D01*
X-563181Y353948D02*
Y355980D01*
X-561149D01*
Y353948D01*
X-563181D01*
X-1003893Y-332176D02*
X-1005925Y-328112D01*
X-1001861D01*
X-1003893Y-332176D01*
X-1031325Y-382976D02*
Y-378912D01*
X-1027261D01*
Y-382976D01*
X-1031325D01*
X-2032Y-2032D02*
Y2032D01*
X2032D01*
Y-2032D01*
X-2032D01*
X25400Y48768D02*
X23368Y52832D01*
X27432D01*
X25400Y48768D01*
Y-141732D02*
X23368Y-137668D01*
X27432D01*
X25400Y-141732D01*
X-2032Y-192532D02*
Y-188468D01*
X2032D01*
Y-192532D01*
X-2032D01*
Y-383032D02*
Y-378968D01*
X2032D01*
Y-383032D01*
X-2032D01*
X25400Y-332232D02*
X23368Y-328168D01*
X27432D01*
X25400Y-332232D01*
Y-522732D02*
X23368Y-518668D01*
X27432D01*
X25400Y-522732D01*
X-2032Y-573532D02*
Y-569468D01*
X2032D01*
Y-573532D01*
X-2032D01*
X-192532Y-2032D02*
Y2032D01*
X-188468D01*
Y-2032D01*
X-192532D01*
X-165100Y48768D02*
X-167132Y52832D01*
X-163068D01*
X-165100Y48768D01*
Y-141732D02*
X-167132Y-137668D01*
X-163068D01*
X-165100Y-141732D01*
X-192532Y-192532D02*
Y-188468D01*
X-188468D01*
Y-192532D01*
X-192532D01*
Y-383032D02*
Y-378968D01*
X-188468D01*
Y-383032D01*
X-192532D01*
X-165100Y-332232D02*
X-167132Y-328168D01*
X-163068D01*
X-165100Y-332232D01*
Y-522732D02*
X-167132Y-518668D01*
X-163068D01*
X-165100Y-522732D01*
X-192532Y-573532D02*
Y-569468D01*
X-188468D01*
Y-573532D01*
X-192532D01*
X-144847Y-783089D02*
Y-779025D01*
X-140784D01*
Y-783089D01*
X-144847D01*
X-117416Y-732289D02*
X-119447Y-728225D01*
X-115384D01*
X-117416Y-732289D01*
X-355600Y48768D02*
X-357632Y52832D01*
X-353568D01*
X-355600Y48768D01*
X-383032Y-2032D02*
Y2032D01*
X-378968D01*
Y-2032D01*
X-383032D01*
Y-192532D02*
Y-188468D01*
X-378968D01*
Y-192532D01*
X-383032D01*
X-355600Y-141732D02*
X-357632Y-137668D01*
X-353568D01*
X-355600Y-141732D01*
X-426982Y-732294D02*
X-429013Y-728230D01*
X-424949D01*
X-426982Y-732294D01*
X-454413Y-783094D02*
Y-779030D01*
X-450350D01*
Y-783094D01*
X-454413D01*
X-573532Y-2032D02*
Y2032D01*
X-569468D01*
Y-2032D01*
X-573532D01*
X-546100Y48768D02*
X-548132Y52832D01*
X-544068D01*
X-546100Y48768D01*
Y-141732D02*
X-548132Y-137668D01*
X-544068D01*
X-546100Y-141732D01*
X-573532Y-192532D02*
Y-188468D01*
X-569468D01*
Y-192532D01*
X-573532D01*
Y-383032D02*
Y-378968D01*
X-569468D01*
Y-383032D01*
X-573532D01*
X-546100Y-332232D02*
X-548132Y-328168D01*
X-544068D01*
X-546100Y-332232D01*
Y-522732D02*
X-548132Y-518668D01*
X-544068D01*
X-546100Y-522732D01*
X-573532Y-573532D02*
Y-569468D01*
X-569468D01*
Y-573532D01*
X-573532D01*
X-736600Y-141732D02*
X-738632Y-137668D01*
X-734568D01*
X-736600Y-141732D01*
X-764032Y-192532D02*
Y-188468D01*
X-759968D01*
Y-192532D01*
X-764032D01*
Y-383032D02*
Y-378968D01*
X-759968D01*
Y-383032D01*
X-764032D01*
X-736600Y-332232D02*
X-738632Y-328168D01*
X-734568D01*
X-736600Y-332232D01*
Y-522732D02*
X-738632Y-518668D01*
X-734568D01*
X-736600Y-522732D01*
X-764032Y-573532D02*
Y-569468D01*
X-759968D01*
Y-573532D01*
X-764032D01*
X-927100Y48768D02*
X-929132Y52832D01*
X-925068D01*
X-927100Y48768D01*
X-954532Y-2032D02*
Y2032D01*
X-950468D01*
Y-2032D01*
X-954532D01*
X-1002088Y-192532D02*
Y-188468D01*
X-998025D01*
Y-192532D01*
X-1002088D01*
X-974657Y-141732D02*
X-976689Y-137668D01*
X-972625D01*
X-974657Y-141732D01*
X-978291Y-573530D02*
Y-569466D01*
X-974228D01*
Y-573530D01*
X-978291D01*
X-950860Y-522730D02*
X-952891Y-518666D01*
X-948828D01*
X-950860Y-522730D01*
Y-732289D02*
X-952891Y-728225D01*
X-948828D01*
X-950860Y-732289D01*
X-978291Y-783089D02*
Y-779025D01*
X-974228D01*
Y-783089D01*
X-978291D01*
X-1194532Y27968D02*
Y32032D01*
X-1190468D01*
Y27968D01*
X-1194532D01*
X-1167100Y78768D02*
X-1169132Y82832D01*
X-1165068D01*
X-1167100Y78768D01*
X-1234725Y-732292D02*
X-1236757Y-728228D01*
X-1232693D01*
X-1234725Y-732292D01*
X-1262157Y-783092D02*
Y-779028D01*
X-1258093D01*
Y-783092D01*
X-1262157D01*
X-383032Y-573532D02*
Y-569468D01*
X-378968D01*
Y-573532D01*
X-383032D01*
X-355600Y-522732D02*
X-357632Y-518668D01*
X-353568D01*
X-355600Y-522732D01*
Y-332232D02*
X-357632Y-328168D01*
X-353568D01*
X-355600Y-332232D01*
X-383032Y-383032D02*
Y-378968D01*
X-378968D01*
Y-383032D01*
X-383032D01*
X-1242500Y-92032D02*
X-1241484Y-91016D01*
X-1240468D01*
X-1241484Y-90000D01*
X-1240468Y-88984D01*
X-1241484D01*
X-1242500Y-87968D01*
X-1243516Y-88984D01*
X-1244532D01*
X-1243516Y-90000D01*
X-1244532Y-91016D01*
X-1243516D01*
X-1242500Y-92032D01*
X-445250Y257968D02*
X-444234Y258984D01*
X-443218D01*
X-444234Y260000D01*
X-443218Y261016D01*
X-444234D01*
X-445250Y262032D01*
X-446266Y261016D01*
X-447282D01*
X-446266Y260000D01*
X-447282Y258984D01*
X-446266D01*
X-445250Y257968D01*
X-436589Y31993D02*
X-435573Y33009D01*
X-434557D01*
X-435573Y34025D01*
X-434557Y35041D01*
X-435573D01*
X-436589Y36057D01*
X-437605Y35041D01*
X-438621D01*
X-437605Y34025D01*
X-438621Y33009D01*
X-437605D01*
X-436589Y31993D01*
X-466839Y-125266D02*
X-465823Y-124250D01*
X-464807D01*
X-465823Y-123234D01*
X-464807Y-122218D01*
X-465823D01*
X-466839Y-121202D01*
X-467855Y-122218D01*
X-468871D01*
X-467855Y-123234D01*
X-468871Y-124250D01*
X-467855D01*
X-466839Y-125266D01*
X-687500Y-224780D02*
X-686484Y-223764D01*
X-685468D01*
X-686484Y-222748D01*
X-685468Y-221732D01*
X-686484D01*
X-687500Y-220716D01*
X-688516Y-221732D01*
X-689532D01*
X-688516Y-222748D01*
X-689532Y-223764D01*
X-688516D01*
X-687500Y-224780D01*
X-539753Y-227873D02*
X-538737Y-226857D01*
X-537721D01*
X-538737Y-225841D01*
X-537721Y-224825D01*
X-538737D01*
X-539753Y-223809D01*
X-540769Y-224825D01*
X-541785D01*
X-540769Y-225841D01*
X-541785Y-226857D01*
X-540769D01*
X-539753Y-227873D01*
X-272593Y-237185D02*
X-271577Y-236168D01*
X-270561D01*
X-271577Y-235152D01*
X-270561Y-234137D01*
X-271577D01*
X-272593Y-233120D01*
X-273609Y-234137D01*
X-274625D01*
X-273609Y-235152D01*
X-274625Y-236168D01*
X-273609D01*
X-272593Y-237185D01*
X-202500D02*
X-201484Y-236168D01*
X-200468D01*
X-201484Y-235152D01*
X-200468Y-234137D01*
X-201484D01*
X-202500Y-233120D01*
X-203516Y-234137D01*
X-204532D01*
X-203516Y-235152D01*
X-204532Y-236168D01*
X-203516D01*
X-202500Y-237185D01*
X-120000Y-242048D02*
X-118984Y-241032D01*
X-117968D01*
X-118984Y-240016D01*
X-117968Y-239000D01*
X-118984D01*
X-120000Y-237984D01*
X-121016Y-239000D01*
X-122032D01*
X-121016Y-240016D01*
X-122032Y-241032D01*
X-121016D01*
X-120000Y-242048D01*
X15000Y-237185D02*
X16016Y-236168D01*
X17032D01*
X16016Y-235152D01*
X17032Y-234137D01*
X16016D01*
X15000Y-233120D01*
X13984Y-234137D01*
X12968D01*
X13984Y-235152D01*
X12968Y-236168D01*
X13984D01*
X15000Y-237185D01*
X-326167Y-219821D02*
X-325151Y-218805D01*
X-324135D01*
X-325151Y-217789D01*
X-324135Y-216773D01*
X-325151D01*
X-326167Y-215757D01*
X-327183Y-216773D01*
X-328199D01*
X-327183Y-217789D01*
X-328199Y-218805D01*
X-327183D01*
X-326167Y-219821D01*
X-412173Y-207032D02*
X-411157Y-206016D01*
X-410141D01*
X-411157Y-205000D01*
X-410141Y-203984D01*
X-411157D01*
X-412173Y-202968D01*
X-413189Y-203984D01*
X-414205D01*
X-413189Y-205000D01*
X-414205Y-206016D01*
X-413189D01*
X-412173Y-207032D01*
X-482467Y-172397D02*
X-481451Y-171381D01*
X-480435D01*
X-481451Y-170365D01*
X-480435Y-169349D01*
X-481451D01*
X-482467Y-168333D01*
X-483483Y-169349D01*
X-484499D01*
X-483483Y-170365D01*
X-484499Y-171381D01*
X-483483D01*
X-482467Y-172397D01*
X-471868Y-217677D02*
X-470852Y-216661D01*
X-469836D01*
X-470852Y-215645D01*
X-469836Y-214629D01*
X-470852D01*
X-471868Y-213613D01*
X-472884Y-214629D01*
X-473900D01*
X-472884Y-215645D01*
X-473900Y-216661D01*
X-472884D01*
X-471868Y-217677D01*
X-48418Y-237315D02*
X-47402Y-236299D01*
X-46386D01*
X-47402Y-235283D01*
X-46386Y-234267D01*
X-47402D01*
X-48418Y-233251D01*
X-49434Y-234267D01*
X-50450D01*
X-49434Y-235283D01*
X-50450Y-236299D01*
X-49434D01*
X-48418Y-237315D01*
X-30000Y-237185D02*
X-28984Y-236168D01*
X-27968D01*
X-28984Y-235152D01*
X-27968Y-234137D01*
X-28984D01*
X-30000Y-233120D01*
X-31016Y-234137D01*
X-32032D01*
X-31016Y-235152D01*
X-32032Y-236168D01*
X-31016D01*
X-30000Y-237185D01*
X-228283Y246858D02*
X-227267Y247874D01*
X-226251D01*
X-227267Y248890D01*
X-226251Y249906D01*
X-227267D01*
X-228283Y250922D01*
X-229299Y249906D01*
X-230315D01*
X-229299Y248890D01*
X-230315Y247874D01*
X-229299D01*
X-228283Y246858D01*
X-1243300Y-77032D02*
X-1242284Y-76016D01*
X-1241268D01*
X-1242284Y-75000D01*
X-1241268Y-73984D01*
X-1242284D01*
X-1243300Y-72968D01*
X-1244316Y-73984D01*
X-1245332D01*
X-1244316Y-75000D01*
X-1245332Y-76016D01*
X-1244316D01*
X-1243300Y-77032D01*
X-481089Y172890D02*
X-480073Y173906D01*
X-479057D01*
X-480073Y174922D01*
X-479057Y175938D01*
X-480073D01*
X-481089Y176954D01*
X-482105Y175938D01*
X-483121D01*
X-482105Y174922D01*
X-483121Y173906D01*
X-482105D01*
X-481089Y172890D01*
X-218029Y267181D02*
X-217013Y268197D01*
X-215997D01*
X-217013Y269213D01*
X-215997Y270229D01*
X-217013D01*
X-218029Y271245D01*
X-219045Y270229D01*
X-220061D01*
X-219045Y269213D01*
X-220061Y268197D01*
X-219045D01*
X-218029Y267181D01*
X-429899Y201364D02*
X-428883Y202380D01*
X-427867D01*
X-428883Y203396D01*
X-427867Y204412D01*
X-428883D01*
X-429899Y205428D01*
X-430915Y204412D01*
X-431931D01*
X-430915Y203396D01*
X-431931Y202380D01*
X-430915D01*
X-429899Y201364D01*
X-458339Y-125266D02*
X-457323Y-124250D01*
X-456307D01*
X-457323Y-123234D01*
X-456307Y-122218D01*
X-457323D01*
X-458339Y-121202D01*
X-459355Y-122218D01*
X-460371D01*
X-459355Y-123234D01*
X-460371Y-124250D01*
X-459355D01*
X-458339Y-125266D01*
X-510000Y-239873D02*
X-508984Y-238857D01*
X-507968D01*
X-508984Y-237841D01*
X-507968Y-236825D01*
X-508984D01*
X-510000Y-235809D01*
X-511016Y-236825D01*
X-512032D01*
X-511016Y-237841D01*
X-512032Y-238857D01*
X-511016D01*
X-510000Y-239873D01*
X-711200Y-232432D02*
X-710184Y-231416D01*
X-709168D01*
X-710184Y-230400D01*
X-709168Y-229384D01*
X-710184D01*
X-711200Y-228368D01*
X-712216Y-229384D01*
X-713232D01*
X-712216Y-230400D01*
X-713232Y-231416D01*
X-712216D01*
X-711200Y-232432D01*
X-320000Y-267032D02*
X-318984Y-266016D01*
X-317968D01*
X-318984Y-265000D01*
X-317968Y-263984D01*
X-318984D01*
X-320000Y-262968D01*
X-321016Y-263984D01*
X-322032D01*
X-321016Y-265000D01*
X-322032Y-266016D01*
X-321016D01*
X-320000Y-267032D01*
X-241300D02*
X-240284Y-266016D01*
X-239268D01*
X-240284Y-265000D01*
X-239268Y-263984D01*
X-240284D01*
X-241300Y-262968D01*
X-242316Y-263984D01*
X-243332D01*
X-242316Y-265000D01*
X-243332Y-266016D01*
X-242316D01*
X-241300Y-267032D01*
X-202378Y-267171D02*
X-201362Y-266155D01*
X-200346D01*
X-201362Y-265139D01*
X-200346Y-264123D01*
X-201362D01*
X-202378Y-263107D01*
X-203394Y-264123D01*
X-204410D01*
X-203394Y-265139D01*
X-204410Y-266155D01*
X-203394D01*
X-202378Y-267171D01*
X-405000Y-227873D02*
X-403984Y-226857D01*
X-402968D01*
X-403984Y-225841D01*
X-402968Y-224825D01*
X-403984D01*
X-405000Y-223809D01*
X-406016Y-224825D01*
X-407032D01*
X-406016Y-225841D01*
X-407032Y-226857D01*
X-406016D01*
X-405000Y-227873D01*
X-366881Y-237934D02*
X-365865Y-236919D01*
X-364849D01*
X-365865Y-235903D01*
X-364849Y-234886D01*
X-365865D01*
X-366881Y-233871D01*
X-367897Y-234886D01*
X-368913D01*
X-367897Y-235903D01*
X-368913Y-236919D01*
X-367897D01*
X-366881Y-237934D01*
X-90000Y-235798D02*
X-88984Y-234782D01*
X-87968D01*
X-88984Y-233766D01*
X-87968Y-232750D01*
X-88984D01*
X-90000Y-231734D01*
X-91016Y-232750D01*
X-92032D01*
X-91016Y-233766D01*
X-92032Y-234782D01*
X-91016D01*
X-90000Y-235798D01*
X-476217Y-178407D02*
X-475201Y-177391D01*
X-474185D01*
X-475201Y-176375D01*
X-474185Y-175359D01*
X-475201D01*
X-476217Y-174343D01*
X-477233Y-175359D01*
X-478249D01*
X-477233Y-176375D01*
X-478249Y-177391D01*
X-477233D01*
X-476217Y-178407D01*
X-459091Y-237032D02*
X-458075Y-236016D01*
X-457059D01*
X-458075Y-235000D01*
X-457059Y-233984D01*
X-458075D01*
X-459091Y-232968D01*
X-460107Y-233984D01*
X-461123D01*
X-460107Y-235000D01*
X-461123Y-236016D01*
X-460107D01*
X-459091Y-237032D01*
X-660603Y-236780D02*
X-659587Y-235764D01*
X-658571D01*
X-659587Y-234748D01*
X-658571Y-233732D01*
X-659587D01*
X-660603Y-232716D01*
X-661619Y-233732D01*
X-662635D01*
X-661619Y-234748D01*
X-662635Y-235764D01*
X-661619D01*
X-660603Y-236780D01*
X-45000Y-229532D02*
X-43984Y-228516D01*
X-42968D01*
X-43984Y-227500D01*
X-42968Y-226484D01*
X-43984D01*
X-45000Y-225468D01*
X-46016Y-226484D01*
X-47032D01*
X-46016Y-227500D01*
X-47032Y-228516D01*
X-46016D01*
X-45000Y-229532D01*
X-483839Y-125266D02*
X-482823Y-124250D01*
X-481807D01*
X-482823Y-123234D01*
X-481807Y-122218D01*
X-482823D01*
X-483839Y-121202D01*
X-484855Y-122218D01*
X-485871D01*
X-484855Y-123234D01*
X-485871Y-124250D01*
X-484855D01*
X-483839Y-125266D01*
X-704714Y-239532D02*
X-703698Y-238516D01*
X-702682D01*
X-703698Y-237500D01*
X-702682Y-236484D01*
X-703698D01*
X-704714Y-235468D01*
X-705730Y-236484D01*
X-706746D01*
X-705730Y-237500D01*
X-706746Y-238516D01*
X-705730D01*
X-704714Y-239532D01*
X-599835Y-240780D02*
X-598819Y-239764D01*
X-597803D01*
X-598819Y-238748D01*
X-597803Y-237732D01*
X-598819D01*
X-599835Y-236716D01*
X-600851Y-237732D01*
X-601867D01*
X-600851Y-238748D01*
X-601867Y-239764D01*
X-600851D01*
X-599835Y-240780D01*
X-372500Y-246872D02*
X-371484Y-245856D01*
X-370468D01*
X-371484Y-244840D01*
X-370468Y-243824D01*
X-371484D01*
X-372500Y-242808D01*
X-373516Y-243824D01*
X-374532D01*
X-373516Y-244840D01*
X-374532Y-245856D01*
X-373516D01*
X-372500Y-246872D01*
X-50000Y-267456D02*
X-48984Y-266440D01*
X-47968D01*
X-48984Y-265424D01*
X-47968Y-264408D01*
X-48984D01*
X-50000Y-263392D01*
X-51016Y-264408D01*
X-52032D01*
X-51016Y-265424D01*
X-52032Y-266440D01*
X-51016D01*
X-50000Y-267456D01*
X-405000Y-237032D02*
X-403984Y-236016D01*
X-402968D01*
X-403984Y-235000D01*
X-402968Y-233984D01*
X-403984D01*
X-405000Y-232968D01*
X-406016Y-233984D01*
X-407032D01*
X-406016Y-235000D01*
X-407032Y-236016D01*
X-406016D01*
X-405000Y-237032D01*
X-311196Y-225953D02*
X-310180Y-224937D01*
X-309164D01*
X-310180Y-223921D01*
X-309164Y-222905D01*
X-310180D01*
X-311196Y-221889D01*
X-312212Y-222905D01*
X-313228D01*
X-312212Y-223921D01*
X-313228Y-224937D01*
X-312212D01*
X-311196Y-225953D01*
X-180000Y-242048D02*
X-178984Y-241032D01*
X-177968D01*
X-178984Y-240016D01*
X-177968Y-239000D01*
X-178984D01*
X-180000Y-237984D01*
X-181016Y-239000D01*
X-182032D01*
X-181016Y-240016D01*
X-182032Y-241032D01*
X-181016D01*
X-180000Y-242048D01*
X-140961Y-243435D02*
X-139945Y-242418D01*
X-138929D01*
X-139945Y-241402D01*
X-138929Y-240387D01*
X-139945D01*
X-140961Y-239370D01*
X-141977Y-240387D01*
X-142993D01*
X-141977Y-241402D01*
X-142993Y-242418D01*
X-141977D01*
X-140961Y-243435D01*
X-205000Y-223800D02*
X-203984Y-222784D01*
X-202968D01*
X-203984Y-221768D01*
X-202968Y-220752D01*
X-203984D01*
X-205000Y-219736D01*
X-206016Y-220752D01*
X-207032D01*
X-206016Y-221768D01*
X-207032Y-222784D01*
X-206016D01*
X-205000Y-223800D01*
X-180000D02*
X-178984Y-222784D01*
X-177968D01*
X-178984Y-221768D01*
X-177968Y-220752D01*
X-178984D01*
X-180000Y-219736D01*
X-181016Y-220752D01*
X-182032D01*
X-181016Y-221768D01*
X-182032Y-222784D01*
X-181016D01*
X-180000Y-223800D01*
X-494727Y-160376D02*
X-493711Y-159360D01*
X-492695D01*
X-493711Y-158344D01*
X-492695Y-157328D01*
X-493711D01*
X-494727Y-156312D01*
X-495743Y-157328D01*
X-496759D01*
X-495743Y-158344D01*
X-496759Y-159360D01*
X-495743D01*
X-494727Y-160376D01*
X-491500Y-246123D02*
X-490484Y-245107D01*
X-489468D01*
X-490484Y-244091D01*
X-489468Y-243075D01*
X-490484D01*
X-491500Y-242059D01*
X-492516Y-243075D01*
X-493532D01*
X-492516Y-244091D01*
X-493532Y-245107D01*
X-492516D01*
X-491500Y-246123D01*
X-449939Y-237168D02*
X-448923Y-236152D01*
X-447907D01*
X-448923Y-235136D01*
X-447907Y-234120D01*
X-448923D01*
X-449939Y-233104D01*
X-450955Y-234120D01*
X-451971D01*
X-450955Y-235136D01*
X-451971Y-236152D01*
X-450955D01*
X-449939Y-237168D01*
X-491500Y-218480D02*
X-490484Y-217465D01*
X-489468D01*
X-490484Y-216448D01*
X-489468Y-215432D01*
X-490484D01*
X-491500Y-214417D01*
X-492516Y-215432D01*
X-493532D01*
X-492516Y-216448D01*
X-493532Y-217465D01*
X-492516D01*
X-491500Y-218480D01*
X-466839Y272938D02*
X-465823Y273954D01*
X-464807D01*
X-465823Y274970D01*
X-464807Y275986D01*
X-465823D01*
X-466839Y277002D01*
X-467855Y275986D01*
X-468871D01*
X-467855Y274970D01*
X-468871Y273954D01*
X-467855D01*
X-466839Y272938D01*
X-489569Y163302D02*
X-488553Y164318D01*
X-487537D01*
X-488553Y165334D01*
X-487537Y166350D01*
X-488553D01*
X-489569Y167366D01*
X-490585Y166350D01*
X-491601D01*
X-490585Y165334D01*
X-491601Y164318D01*
X-490585D01*
X-489569Y163302D01*
X-449839Y-125266D02*
X-448823Y-124250D01*
X-447807D01*
X-448823Y-123234D01*
X-447807Y-122218D01*
X-448823D01*
X-449839Y-121202D01*
X-450855Y-122218D01*
X-451871D01*
X-450855Y-123234D01*
X-451871Y-124250D01*
X-450855D01*
X-449839Y-125266D01*
X-630000Y-228780D02*
X-628984Y-227764D01*
X-627968D01*
X-628984Y-226748D01*
X-627968Y-225732D01*
X-628984D01*
X-630000Y-224716D01*
X-631016Y-225732D01*
X-632032D01*
X-631016Y-226748D01*
X-632032Y-227764D01*
X-631016D01*
X-630000Y-228780D01*
X-695000Y-217032D02*
X-693984Y-216016D01*
X-692968D01*
X-693984Y-215000D01*
X-692968Y-213984D01*
X-693984D01*
X-695000Y-212968D01*
X-696016Y-213984D01*
X-697032D01*
X-696016Y-215000D01*
X-697032Y-216016D01*
X-696016D01*
X-695000Y-217032D01*
X-326954Y-230477D02*
X-325938Y-229461D01*
X-324922D01*
X-325938Y-228445D01*
X-324922Y-227429D01*
X-325938D01*
X-326954Y-226413D01*
X-327970Y-227429D01*
X-328986D01*
X-327970Y-228445D01*
X-328986Y-229461D01*
X-327970D01*
X-326954Y-230477D01*
X-366824Y-223603D02*
X-365808Y-222587D01*
X-364792D01*
X-365808Y-221571D01*
X-364792Y-220555D01*
X-365808D01*
X-366824Y-219539D01*
X-367840Y-220555D01*
X-368856D01*
X-367840Y-221571D01*
X-368856Y-222587D01*
X-367840D01*
X-366824Y-223603D01*
X-210000Y-243435D02*
X-208984Y-242418D01*
X-207968D01*
X-208984Y-241402D01*
X-207968Y-240387D01*
X-208984D01*
X-210000Y-239370D01*
X-211016Y-240387D01*
X-212032D01*
X-211016Y-241402D01*
X-212032Y-242418D01*
X-211016D01*
X-210000Y-243435D01*
X-65000Y-228115D02*
X-63984Y-227099D01*
X-62968D01*
X-63984Y-226083D01*
X-62968Y-225067D01*
X-63984D01*
X-65000Y-224051D01*
X-66016Y-225067D01*
X-67032D01*
X-66016Y-226083D01*
X-67032Y-227099D01*
X-66016D01*
X-65000Y-228115D01*
X-140961D02*
X-139945Y-227099D01*
X-138929D01*
X-139945Y-226083D01*
X-138929Y-225067D01*
X-139945D01*
X-140961Y-224051D01*
X-141977Y-225067D01*
X-142993D01*
X-141977Y-226083D01*
X-142993Y-227099D01*
X-141977D01*
X-140961Y-228115D01*
X-410847Y-215708D02*
X-409831Y-214692D01*
X-408815D01*
X-409831Y-213676D01*
X-408815Y-212660D01*
X-409831D01*
X-410847Y-211644D01*
X-411863Y-212660D01*
X-412879D01*
X-411863Y-213676D01*
X-412879Y-214692D01*
X-411863D01*
X-410847Y-215708D01*
X-475105Y-188837D02*
X-474089Y-187821D01*
X-473073D01*
X-474089Y-186805D01*
X-473073Y-185789D01*
X-474089D01*
X-475105Y-184773D01*
X-476121Y-185789D01*
X-477137D01*
X-476121Y-186805D01*
X-477137Y-187821D01*
X-476121D01*
X-475105Y-188837D01*
X-464450Y-222918D02*
X-463434Y-221902D01*
X-462418D01*
X-463434Y-220886D01*
X-462418Y-219870D01*
X-463434D01*
X-464450Y-218854D01*
X-465466Y-219870D01*
X-466482D01*
X-465466Y-220886D01*
X-466482Y-221902D01*
X-465466D01*
X-464450Y-222918D01*
X-436589Y52568D02*
X-435573Y53584D01*
X-434557D01*
X-435573Y54600D01*
X-434557Y55616D01*
X-435573D01*
X-436589Y56632D01*
X-437605Y55616D01*
X-438621D01*
X-437605Y54600D01*
X-438621Y53584D01*
X-437605D01*
X-436589Y52568D01*
X-226658Y264468D02*
X-225642Y265484D01*
X-224626D01*
X-225642Y266500D01*
X-224626Y267516D01*
X-225642D01*
X-226658Y268532D01*
X-227674Y267516D01*
X-228690D01*
X-227674Y266500D01*
X-228690Y265484D01*
X-227674D01*
X-226658Y264468D01*
X-475339Y-125266D02*
X-474323Y-124250D01*
X-473307D01*
X-474323Y-123234D01*
X-473307Y-122218D01*
X-474323D01*
X-475339Y-121202D01*
X-476355Y-122218D01*
X-477371D01*
X-476355Y-123234D01*
X-477371Y-124250D01*
X-476355D01*
X-475339Y-125266D01*
X-570183Y-234679D02*
X-569167Y-233663D01*
X-568151D01*
X-569167Y-232647D01*
X-568151Y-231631D01*
X-569167D01*
X-570183Y-230615D01*
X-571199Y-231631D01*
X-572215D01*
X-571199Y-232647D01*
X-572215Y-233663D01*
X-571199D01*
X-570183Y-234679D01*
X-705000Y-224532D02*
X-703984Y-223516D01*
X-702968D01*
X-703984Y-222500D01*
X-702968Y-221484D01*
X-703984D01*
X-705000Y-220468D01*
X-706016Y-221484D01*
X-707032D01*
X-706016Y-222500D01*
X-707032Y-223516D01*
X-706016D01*
X-705000Y-224532D01*
X-310000Y-255032D02*
X-308984Y-254016D01*
X-307968D01*
X-308984Y-253000D01*
X-307968Y-251984D01*
X-308984D01*
X-310000Y-250968D01*
X-311016Y-251984D01*
X-312032D01*
X-311016Y-253000D01*
X-312032Y-254016D01*
X-311016D01*
X-310000Y-255032D01*
X-331693Y-237533D02*
X-330677Y-236518D01*
X-329661D01*
X-330677Y-235501D01*
X-329661Y-234485D01*
X-330677D01*
X-331693Y-233470D01*
X-332709Y-234485D01*
X-333725D01*
X-332709Y-235501D01*
X-333725Y-236518D01*
X-332709D01*
X-331693Y-237533D01*
X-373011Y-229451D02*
X-371995Y-228435D01*
X-370979D01*
X-371995Y-227419D01*
X-370979Y-226403D01*
X-371995D01*
X-373011Y-225387D01*
X-374027Y-226403D01*
X-375043D01*
X-374027Y-227419D01*
X-375043Y-228435D01*
X-374027D01*
X-373011Y-229451D01*
X-50000Y-277032D02*
X-48984Y-276016D01*
X-47968D01*
X-48984Y-275000D01*
X-47968Y-273984D01*
X-48984D01*
X-50000Y-272968D01*
X-51016Y-273984D01*
X-52032D01*
X-51016Y-275000D01*
X-52032Y-276016D01*
X-51016D01*
X-50000Y-277032D01*
X-198630Y-254532D02*
X-197614Y-253516D01*
X-196598D01*
X-197614Y-252500D01*
X-196598Y-251484D01*
X-197614D01*
X-198630Y-250468D01*
X-199646Y-251484D01*
X-200662D01*
X-199646Y-252500D01*
X-200662Y-253516D01*
X-199646D01*
X-198630Y-254532D01*
X-141941Y-263853D02*
X-140925Y-262837D01*
X-139909D01*
X-140925Y-261821D01*
X-139909Y-260805D01*
X-140925D01*
X-141941Y-259789D01*
X-142957Y-260805D01*
X-143973D01*
X-142957Y-261821D01*
X-143973Y-262837D01*
X-142957D01*
X-141941Y-263853D01*
X-402500Y-219309D02*
X-401484Y-218293D01*
X-400468D01*
X-401484Y-217277D01*
X-400468Y-216261D01*
X-401484D01*
X-402500Y-215245D01*
X-403516Y-216261D01*
X-404532D01*
X-403516Y-217277D01*
X-404532Y-218293D01*
X-403516D01*
X-402500Y-219309D01*
X-488477Y-166386D02*
X-487461Y-165370D01*
X-486445D01*
X-487461Y-164354D01*
X-486445Y-163338D01*
X-487461D01*
X-488477Y-162322D01*
X-489493Y-163338D01*
X-490509D01*
X-489493Y-164354D01*
X-490509Y-165370D01*
X-489493D01*
X-488477Y-166386D01*
X-482793Y-215265D02*
X-481777Y-214249D01*
X-480761D01*
X-481777Y-213233D01*
X-480761Y-212217D01*
X-481777D01*
X-482793Y-211201D01*
X-483809Y-212217D01*
X-484825D01*
X-483809Y-213233D01*
X-484825Y-214249D01*
X-483809D01*
X-482793Y-215265D01*
X-469941Y-233964D02*
X-468925Y-232948D01*
X-467909D01*
X-468925Y-231932D01*
X-467909Y-230916D01*
X-468925D01*
X-469941Y-229900D01*
X-470957Y-230916D01*
X-471973D01*
X-470957Y-231932D01*
X-471973Y-232948D01*
X-470957D01*
X-469941Y-233964D01*
X-485065Y-235348D02*
X-484049Y-234332D01*
X-483033D01*
X-484049Y-233316D01*
X-483033Y-232300D01*
X-484049D01*
X-485065Y-231284D01*
X-486081Y-232300D01*
X-487097D01*
X-486081Y-233316D01*
X-487097Y-234332D01*
X-486081D01*
X-485065Y-235348D01*
X-222100Y46249D02*
X-221084Y47265D01*
X-220068D01*
X-221084Y48281D01*
X-220068Y49297D01*
X-221084D01*
X-222100Y50313D01*
X-223116Y49297D01*
X-224132D01*
X-223116Y48281D01*
X-224132Y47265D01*
X-223116D01*
X-222100Y46249D01*
X-225850Y255030D02*
X-224834Y256046D01*
X-223818D01*
X-224834Y257062D01*
X-223818Y258078D01*
X-224834D01*
X-225850Y259094D01*
X-226866Y258078D01*
X-227882D01*
X-226866Y257062D01*
X-227882Y256046D01*
X-226866D01*
X-225850Y255030D01*
X-649415Y96638D02*
X-648399Y97654D01*
X-647383D01*
X-648399Y98670D01*
X-647383Y99686D01*
X-648399D01*
X-649415Y100702D01*
X-650431Y99686D01*
X-651447D01*
X-650431Y98670D01*
X-651447Y97654D01*
X-650431D01*
X-649415Y96638D01*
X-646022Y105576D02*
X-645006Y106593D01*
X-643990D01*
X-645006Y107608D01*
X-643990Y108624D01*
X-645006D01*
X-646022Y109641D01*
X-647038Y108624D01*
X-648054D01*
X-647038Y107608D01*
X-648054Y106593D01*
X-647038D01*
X-646022Y105576D01*
X-1107485Y99948D02*
X-1106469Y100964D01*
X-1105453D01*
X-1106469Y101980D01*
X-1105453Y102996D01*
X-1106469D01*
X-1107485Y104012D01*
X-1108501Y102996D01*
X-1109517D01*
X-1108501Y101980D01*
X-1109517Y100964D01*
X-1108501D01*
X-1107485Y99948D01*
X-1279969Y14169D02*
X-1278953Y15185D01*
X-1277937D01*
X-1278953Y16201D01*
X-1277937Y17217D01*
X-1278953D01*
X-1279969Y18233D01*
X-1280985Y17217D01*
X-1282001D01*
X-1280985Y16201D01*
X-1282001Y15185D01*
X-1280985D01*
X-1279969Y14169D01*
X-1376086Y-469701D02*
X-1375070Y-468685D01*
X-1374054D01*
X-1375070Y-467669D01*
X-1374054Y-466653D01*
X-1375070D01*
X-1376086Y-465637D01*
X-1377102Y-466653D01*
X-1378118D01*
X-1377102Y-467669D01*
X-1378118Y-468685D01*
X-1377102D01*
X-1376086Y-469701D01*
X-1347500Y-679000D02*
X-1346484Y-677984D01*
X-1345468D01*
X-1346484Y-676968D01*
X-1345468Y-675952D01*
X-1346484D01*
X-1347500Y-674936D01*
X-1348516Y-675952D01*
X-1349532D01*
X-1348516Y-676968D01*
X-1349532Y-677984D01*
X-1348516D01*
X-1347500Y-679000D01*
Y-848839D02*
X-1346484Y-847823D01*
X-1345468D01*
X-1346484Y-846807D01*
X-1345468Y-845791D01*
X-1346484D01*
X-1347500Y-844775D01*
X-1348516Y-845791D01*
X-1349532D01*
X-1348516Y-846807D01*
X-1349532Y-847823D01*
X-1348516D01*
X-1347500Y-848839D01*
X-1314753Y-894155D02*
X-1313737Y-893139D01*
X-1312721D01*
X-1313737Y-892123D01*
X-1312721Y-891107D01*
X-1313737D01*
X-1314753Y-890091D01*
X-1315769Y-891107D01*
X-1316785D01*
X-1315769Y-892123D01*
X-1316785Y-893139D01*
X-1315769D01*
X-1314753Y-894155D01*
X87194Y-99266D02*
X88210Y-98250D01*
X89226D01*
X88210Y-97234D01*
X89226Y-96218D01*
X88210D01*
X87194Y-95202D01*
X86178Y-96218D01*
X85162D01*
X86178Y-97234D01*
X85162Y-98250D01*
X86178D01*
X87194Y-99266D01*
Y-477802D02*
X88210Y-476786D01*
X89226D01*
X88210Y-475770D01*
X89226Y-474754D01*
X88210D01*
X87194Y-473738D01*
X86178Y-474754D01*
X85162D01*
X86178Y-475770D01*
X85162Y-476786D01*
X86178D01*
X87194Y-477802D01*
Y-680277D02*
X88210Y-679261D01*
X89226D01*
X88210Y-678245D01*
X89226Y-677229D01*
X88210D01*
X87194Y-676213D01*
X86178Y-677229D01*
X85162D01*
X86178Y-678245D01*
X85162Y-679261D01*
X86178D01*
X87194Y-680277D01*
Y-851314D02*
X88210Y-850298D01*
X89226D01*
X88210Y-849282D01*
X89226Y-848266D01*
X88210D01*
X87194Y-847250D01*
X86178Y-848266D01*
X85162D01*
X86178Y-849282D01*
X85162Y-850298D01*
X86178D01*
X87194Y-851314D01*
X42013Y-894155D02*
X43029Y-893139D01*
X44045D01*
X43029Y-892123D01*
X44045Y-891107D01*
X43029D01*
X42013Y-890091D01*
X40997Y-891107D01*
X39981D01*
X40997Y-892123D01*
X39981Y-893139D01*
X40997D01*
X42013Y-894155D01*
X-296594D02*
X-295578Y-893139D01*
X-294562D01*
X-295578Y-892123D01*
X-294562Y-891107D01*
X-295578D01*
X-296594Y-890091D01*
X-297610Y-891107D01*
X-298626D01*
X-297610Y-892123D01*
X-298626Y-893139D01*
X-297610D01*
X-296594Y-894155D01*
X-1090626D02*
X-1089610Y-893139D01*
X-1088594D01*
X-1089610Y-892123D01*
X-1088594Y-891107D01*
X-1089610D01*
X-1090626Y-890091D01*
X-1091642Y-891107D01*
X-1092658D01*
X-1091642Y-892123D01*
X-1092658Y-893139D01*
X-1091642D01*
X-1090626Y-894155D01*
X-1150041D02*
X-1149025Y-893139D01*
X-1148009D01*
X-1149025Y-892123D01*
X-1148009Y-891107D01*
X-1149025D01*
X-1150041Y-890091D01*
X-1151057Y-891107D01*
X-1152073D01*
X-1151057Y-892123D01*
X-1152073Y-893139D01*
X-1151057D01*
X-1150041Y-894155D01*
X80850Y105061D02*
X81866Y106077D01*
X82882D01*
X81866Y107093D01*
X82882Y108109D01*
X81866D01*
X80850Y109125D01*
X79834Y108109D01*
X78818D01*
X79834Y107093D01*
X78818Y106077D01*
X79834D01*
X80850Y105061D01*
X-762592Y85468D02*
X-761576Y86484D01*
X-760560D01*
X-761576Y87500D01*
X-760560Y88516D01*
X-761576D01*
X-762592Y89532D01*
X-763608Y88516D01*
X-764624D01*
X-763608Y87500D01*
X-764624Y86484D01*
X-763608D01*
X-762592Y85468D01*
X-747359Y24638D02*
X-746343Y25654D01*
X-745327D01*
X-746343Y26670D01*
X-745327Y27686D01*
X-746343D01*
X-747359Y28702D01*
X-748375Y27686D01*
X-749391D01*
X-748375Y26670D01*
X-749391Y25654D01*
X-748375D01*
X-747359Y24638D01*
X-702924Y55875D02*
X-701908Y56891D01*
X-700892D01*
X-701908Y57906D01*
X-700892Y58923D01*
X-701908D01*
X-702924Y59939D01*
X-703940Y58923D01*
X-704956D01*
X-703940Y57906D01*
X-704956Y56891D01*
X-703940D01*
X-702924Y55875D01*
X-867990Y17198D02*
X-866974Y18214D01*
X-865958D01*
X-866974Y19230D01*
X-865958Y20246D01*
X-866974D01*
X-867990Y21262D01*
X-869006Y20246D01*
X-870022D01*
X-869006Y19230D01*
X-870022Y18214D01*
X-869006D01*
X-867990Y17198D01*
X-267010Y356234D02*
X-265994Y357250D01*
X-264978D01*
X-265994Y358266D01*
X-264978Y359282D01*
X-265994D01*
X-267010Y360298D01*
X-268026Y359282D01*
X-269042D01*
X-268026Y358266D01*
X-269042Y357250D01*
X-268026D01*
X-267010Y356234D01*
X-215510Y344986D02*
X-214494Y346002D01*
X-213478D01*
X-214494Y347018D01*
X-213478Y348034D01*
X-214494D01*
X-215510Y349050D01*
X-216526Y348034D01*
X-217542D01*
X-216526Y347018D01*
X-217542Y346002D01*
X-216526D01*
X-215510Y344986D01*
X32028Y100959D02*
X33044Y101975D01*
X34060D01*
X33044Y102991D01*
X34060Y104007D01*
X33044D01*
X32028Y105023D01*
X31012Y104007D01*
X29996D01*
X31012Y102991D01*
X29996Y101975D01*
X31012D01*
X32028Y100959D01*
X39504Y105006D02*
X40519Y106022D01*
X41536D01*
X40519Y107038D01*
X41536Y108054D01*
X40519D01*
X39504Y109070D01*
X38488Y108054D01*
X37471D01*
X38488Y107038D01*
X37471Y106022D01*
X38488D01*
X39504Y105006D01*
X24527Y96962D02*
X25543Y97978D01*
X26559D01*
X25543Y98994D01*
X26559Y100010D01*
X25543D01*
X24527Y101026D01*
X23511Y100010D01*
X22495D01*
X23511Y98994D01*
X22495Y97978D01*
X23511D01*
X24527Y96962D01*
X-506878Y304984D02*
X-505862Y306000D01*
X-504846D01*
X-505862Y307016D01*
X-504846Y308032D01*
X-505862D01*
X-506878Y309048D01*
X-507894Y308032D01*
X-508910D01*
X-507894Y307016D01*
X-508910Y306000D01*
X-507894D01*
X-506878Y304984D01*
X-440589Y10668D02*
X-439573Y11684D01*
X-438557D01*
X-439573Y12700D01*
X-438557Y13716D01*
X-439573D01*
X-440589Y14732D01*
X-441605Y13716D01*
X-442621D01*
X-441605Y12700D01*
X-442621Y11684D01*
X-441605D01*
X-440589Y10668D01*
X-444589Y112779D02*
X-443573Y113794D01*
X-442557D01*
X-443573Y114810D01*
X-442557Y115827D01*
X-443573D01*
X-444589Y116842D01*
X-445605Y115827D01*
X-446621D01*
X-445605Y114810D01*
X-446621Y113794D01*
X-445605D01*
X-444589Y112779D01*
X-333056Y177640D02*
X-332040Y178656D01*
X-331024D01*
X-332040Y179672D01*
X-331024Y180688D01*
X-332040D01*
X-333056Y181704D01*
X-334072Y180688D01*
X-335088D01*
X-334072Y179672D01*
X-335088Y178656D01*
X-334072D01*
X-333056Y177640D01*
X-180903Y189640D02*
X-179887Y190656D01*
X-178871D01*
X-179887Y191672D01*
X-178871Y192688D01*
X-179887D01*
X-180903Y193704D01*
X-181919Y192688D01*
X-182935D01*
X-181919Y191672D01*
X-182935Y190656D01*
X-181919D01*
X-180903Y189640D01*
X-339306Y155390D02*
X-338290Y156406D01*
X-337274D01*
X-338290Y157422D01*
X-337274Y158438D01*
X-338290D01*
X-339306Y159454D01*
X-340322Y158438D01*
X-341338D01*
X-340322Y157422D01*
X-341338Y156406D01*
X-340322D01*
X-339306Y155390D01*
X-274936Y146744D02*
X-273920Y147760D01*
X-272904D01*
X-273920Y148776D01*
X-272904Y149792D01*
X-273920D01*
X-274936Y150808D01*
X-275952Y149792D01*
X-276968D01*
X-275952Y148776D01*
X-276968Y147760D01*
X-275952D01*
X-274936Y146744D01*
X-285928Y133640D02*
X-284912Y134656D01*
X-283896D01*
X-284912Y135672D01*
X-283896Y136688D01*
X-284912D01*
X-285928Y137704D01*
X-286944Y136688D01*
X-287960D01*
X-286944Y135672D01*
X-287960Y134656D01*
X-286944D01*
X-285928Y133640D01*
X-267552Y151322D02*
X-266536Y152338D01*
X-265520D01*
X-266536Y153354D01*
X-265520Y154370D01*
X-266536D01*
X-267552Y155386D01*
X-268568Y154370D01*
X-269584D01*
X-268568Y153354D01*
X-269584Y152338D01*
X-268568D01*
X-267552Y151322D01*
X-283398Y166144D02*
X-282382Y167160D01*
X-281366D01*
X-282382Y168176D01*
X-281366Y169192D01*
X-282382D01*
X-283398Y170208D01*
X-284414Y169192D01*
X-285430D01*
X-284414Y168176D01*
X-285430Y167160D01*
X-284414D01*
X-283398Y166144D01*
X-258578Y183526D02*
X-257562Y184542D01*
X-256546D01*
X-257562Y185558D01*
X-256546Y186574D01*
X-257562D01*
X-258578Y187590D01*
X-259594Y186574D01*
X-260610D01*
X-259594Y185558D01*
X-260610Y184542D01*
X-259594D01*
X-258578Y183526D01*
X-314354Y144725D02*
X-313338Y145741D01*
X-312322D01*
X-313338Y146757D01*
X-312322Y147773D01*
X-313338D01*
X-314354Y148789D01*
X-315370Y147773D01*
X-316386D01*
X-315370Y146757D01*
X-316386Y145741D01*
X-315370D01*
X-314354Y144725D01*
X-327738Y138846D02*
X-326722Y139862D01*
X-325706D01*
X-326722Y140878D01*
X-325706Y141894D01*
X-326722D01*
X-327738Y142910D01*
X-328754Y141894D01*
X-329770D01*
X-328754Y140878D01*
X-329770Y139862D01*
X-328754D01*
X-327738Y138846D01*
X-320439Y119390D02*
X-319423Y120406D01*
X-318407D01*
X-319423Y121422D01*
X-318407Y122438D01*
X-319423D01*
X-320439Y123454D01*
X-321455Y122438D01*
X-322471D01*
X-321455Y121422D01*
X-322471Y120406D01*
X-321455D01*
X-320439Y119390D01*
X-323950Y111390D02*
X-322934Y112406D01*
X-321918D01*
X-322934Y113422D01*
X-321918Y114438D01*
X-322934D01*
X-323950Y115454D01*
X-324966Y114438D01*
X-325982D01*
X-324966Y113422D01*
X-325982Y112406D01*
X-324966D01*
X-323950Y111390D01*
X-285495Y96000D02*
X-284479Y97016D01*
X-283463D01*
X-284479Y98032D01*
X-283463Y99048D01*
X-284479D01*
X-285495Y100064D01*
X-286511Y99048D01*
X-287527D01*
X-286511Y98032D01*
X-287527Y97016D01*
X-286511D01*
X-285495Y96000D01*
X-280941Y79269D02*
X-279925Y80286D01*
X-278909D01*
X-279925Y81301D01*
X-278909Y82317D01*
X-279925D01*
X-280941Y83334D01*
X-281957Y82317D01*
X-282973D01*
X-281957Y81301D01*
X-282973Y80286D01*
X-281957D01*
X-280941Y79269D01*
X-485535Y137489D02*
X-484519Y138505D01*
X-483503D01*
X-484519Y139521D01*
X-483503Y140537D01*
X-484519D01*
X-485535Y141553D01*
X-486551Y140537D01*
X-487567D01*
X-486551Y139521D01*
X-487567Y138505D01*
X-486551D01*
X-485535Y137489D01*
X-451500Y123390D02*
X-450484Y124406D01*
X-449468D01*
X-450484Y125422D01*
X-449468Y126438D01*
X-450484D01*
X-451500Y127454D01*
X-452516Y126438D01*
X-453532D01*
X-452516Y125422D01*
X-453532Y124406D01*
X-452516D01*
X-451500Y123390D01*
X-340845Y108102D02*
X-339829Y109118D01*
X-338813D01*
X-339829Y110134D01*
X-338813Y111150D01*
X-339829D01*
X-340845Y112166D01*
X-341861Y111150D01*
X-342877D01*
X-341861Y110134D01*
X-342877Y109118D01*
X-341861D01*
X-340845Y108102D01*
X-485596Y127882D02*
X-484580Y128898D01*
X-483564D01*
X-484580Y129914D01*
X-483564Y130930D01*
X-484580D01*
X-485596Y131946D01*
X-486612Y130930D01*
X-487628D01*
X-486612Y129914D01*
X-487628Y128898D01*
X-486612D01*
X-485596Y127882D01*
X-481089Y152816D02*
X-480073Y153832D01*
X-479057D01*
X-480073Y154847D01*
X-479057Y155864D01*
X-480073D01*
X-481089Y156880D01*
X-482105Y155864D01*
X-483121D01*
X-482105Y154847D01*
X-483121Y153832D01*
X-482105D01*
X-481089Y152816D01*
X-292516Y165636D02*
X-291500Y166652D01*
X-290484D01*
X-291500Y167668D01*
X-290484Y168684D01*
X-291500D01*
X-292516Y169700D01*
X-293532Y168684D01*
X-294548D01*
X-293532Y167668D01*
X-294548Y166652D01*
X-293532D01*
X-292516Y165636D01*
X-272869Y100480D02*
X-271853Y101496D01*
X-270837D01*
X-271853Y102512D01*
X-270837Y103528D01*
X-271853D01*
X-272869Y104544D01*
X-273885Y103528D01*
X-274901D01*
X-273885Y102512D01*
X-274901Y101496D01*
X-273885D01*
X-272869Y100480D01*
X-511747Y109864D02*
X-510731Y110880D01*
X-509715D01*
X-510731Y111896D01*
X-509715Y112912D01*
X-510731D01*
X-511747Y113928D01*
X-512763Y112912D01*
X-513779D01*
X-512763Y111896D01*
X-513779Y110880D01*
X-512763D01*
X-511747Y109864D01*
X-230500Y183890D02*
X-229484Y184906D01*
X-228468D01*
X-229484Y185922D01*
X-228468Y186938D01*
X-229484D01*
X-230500Y187954D01*
X-231516Y186938D01*
X-232532D01*
X-231516Y185922D01*
X-232532Y184906D01*
X-231516D01*
X-230500Y183890D01*
X-232100Y95770D02*
X-231084Y96785D01*
X-230068D01*
X-231084Y97802D01*
X-230068Y98818D01*
X-231084D01*
X-232100Y99833D01*
X-233116Y98818D01*
X-234132D01*
X-233116Y97802D01*
X-234132Y96785D01*
X-233116D01*
X-232100Y95770D01*
X-498686Y109864D02*
X-497670Y110880D01*
X-496654D01*
X-497670Y111896D01*
X-496654Y112912D01*
X-497670D01*
X-498686Y113928D01*
X-499702Y112912D01*
X-500718D01*
X-499702Y111896D01*
X-500718Y110880D01*
X-499702D01*
X-498686Y109864D01*
X-485089Y111390D02*
X-484073Y112406D01*
X-483057D01*
X-484073Y113422D01*
X-483057Y114438D01*
X-484073D01*
X-485089Y115454D01*
X-486105Y114438D01*
X-487121D01*
X-486105Y113422D01*
X-487121Y112406D01*
X-486105D01*
X-485089Y111390D01*
X-265176Y63229D02*
X-264160Y64246D01*
X-263144D01*
X-264160Y65262D01*
X-263144Y66277D01*
X-264160D01*
X-265176Y67294D01*
X-266192Y66277D01*
X-267208D01*
X-266192Y65262D01*
X-267208Y64246D01*
X-266192D01*
X-265176Y63229D01*
X-179097Y79269D02*
X-178081Y80286D01*
X-177066D01*
X-178081Y81301D01*
X-177066Y82317D01*
X-178081D01*
X-179097Y83334D01*
X-180114Y82317D01*
X-181129D01*
X-180114Y81301D01*
X-181129Y80286D01*
X-180114D01*
X-179097Y79269D01*
X-247500D02*
X-246484Y80286D01*
X-245468D01*
X-246484Y81301D01*
X-245468Y82317D01*
X-246484D01*
X-247500Y83334D01*
X-248516Y82317D01*
X-249532D01*
X-248516Y81301D01*
X-249532Y80286D01*
X-248516D01*
X-247500Y79269D01*
X-257500D02*
X-256484Y80286D01*
X-255468D01*
X-256484Y81301D01*
X-255468Y82317D01*
X-256484D01*
X-257500Y83334D01*
X-258516Y82317D01*
X-259532D01*
X-258516Y81301D01*
X-259532Y80286D01*
X-258516D01*
X-257500Y79269D01*
X-168274Y104782D02*
X-167258Y105798D01*
X-166242D01*
X-167258Y106814D01*
X-166242Y107830D01*
X-167258D01*
X-168274Y108846D01*
X-169290Y107830D01*
X-170306D01*
X-169290Y106814D01*
X-170306Y105798D01*
X-169290D01*
X-168274Y104782D01*
X-176751Y104158D02*
X-175735Y105174D01*
X-174719D01*
X-175735Y106190D01*
X-174719Y107206D01*
X-175735D01*
X-176751Y108222D01*
X-177767Y107206D01*
X-178783D01*
X-177767Y106190D01*
X-178783Y105174D01*
X-177767D01*
X-176751Y104158D01*
X-152682Y185385D02*
X-151666Y186401D01*
X-150650D01*
X-151666Y187417D01*
X-150650Y188433D01*
X-151666D01*
X-152682Y189449D01*
X-153698Y188433D01*
X-154714D01*
X-153698Y187417D01*
X-154714Y186401D01*
X-153698D01*
X-152682Y185385D01*
X-142532Y93132D02*
X-141516Y94148D01*
X-140500D01*
X-141516Y95164D01*
X-140500Y96180D01*
X-141516D01*
X-142532Y97196D01*
X-143548Y96180D01*
X-144564D01*
X-143548Y95164D01*
X-144564Y94148D01*
X-143548D01*
X-142532Y93132D01*
X-155019Y93706D02*
X-154003Y94722D01*
X-152987D01*
X-154003Y95738D01*
X-152987Y96754D01*
X-154003D01*
X-155019Y97770D01*
X-156035Y96754D01*
X-157051D01*
X-156035Y95738D01*
X-157051Y94722D01*
X-156035D01*
X-155019Y93706D01*
X-451000Y171390D02*
X-449984Y172406D01*
X-448968D01*
X-449984Y173422D01*
X-448968Y174438D01*
X-449984D01*
X-451000Y175454D01*
X-452016Y174438D01*
X-453032D01*
X-452016Y173422D01*
X-453032Y172406D01*
X-452016D01*
X-451000Y171390D01*
X-447500Y83270D02*
X-446484Y84285D01*
X-445468D01*
X-446484Y85302D01*
X-445468Y86318D01*
X-446484D01*
X-447500Y87333D01*
X-448516Y86318D01*
X-449532D01*
X-448516Y85302D01*
X-449532Y84285D01*
X-448516D01*
X-447500Y83270D01*
X-168738Y77968D02*
X-167722Y78984D01*
X-166706D01*
X-167722Y80000D01*
X-166706Y81016D01*
X-167722D01*
X-168738Y82032D01*
X-169754Y81016D01*
X-170770D01*
X-169754Y80000D01*
X-170770Y78984D01*
X-169754D01*
X-168738Y77968D01*
X-162586Y89520D02*
X-161570Y90535D01*
X-160554D01*
X-161570Y91552D01*
X-160554Y92568D01*
X-161570D01*
X-162586Y93583D01*
X-163602Y92568D01*
X-164618D01*
X-163602Y91552D01*
X-164618Y90535D01*
X-163602D01*
X-162586Y89520D01*
X-121126Y313260D02*
X-120110Y314276D01*
X-119094D01*
X-120110Y315292D01*
X-119094Y316308D01*
X-120110D01*
X-121126Y317324D01*
X-122142Y316308D01*
X-123158D01*
X-122142Y315292D01*
X-123158Y314276D01*
X-122142D01*
X-121126Y313260D01*
X-85245Y327473D02*
X-84229Y328489D01*
X-83213D01*
X-84229Y329505D01*
X-83213Y330521D01*
X-84229D01*
X-85245Y331537D01*
X-86261Y330521D01*
X-87277D01*
X-86261Y329505D01*
X-87277Y328489D01*
X-86261D01*
X-85245Y327473D01*
X-129898Y286143D02*
X-128882Y287159D01*
X-127866D01*
X-128882Y288175D01*
X-127866Y289191D01*
X-128882D01*
X-129898Y290207D01*
X-130914Y289191D01*
X-131930D01*
X-130914Y288175D01*
X-131930Y287159D01*
X-130914D01*
X-129898Y286143D01*
X-135129Y203258D02*
X-134114Y204274D01*
X-133097D01*
X-134114Y205290D01*
X-133097Y206306D01*
X-134114D01*
X-135129Y207322D01*
X-136145Y206306D01*
X-137162D01*
X-136145Y205290D01*
X-137162Y204274D01*
X-136145D01*
X-135129Y203258D01*
X-137600Y130409D02*
X-136584Y131425D01*
X-135568D01*
X-136584Y132441D01*
X-135568Y133457D01*
X-136584D01*
X-137600Y134473D01*
X-138616Y133457D01*
X-139632D01*
X-138616Y132441D01*
X-139632Y131425D01*
X-138616D01*
X-137600Y130409D01*
X-132749Y192918D02*
X-131733Y193934D01*
X-130717D01*
X-131733Y194950D01*
X-130717Y195966D01*
X-131733D01*
X-132749Y196982D01*
X-133765Y195966D01*
X-134781D01*
X-133765Y194950D01*
X-134781Y193934D01*
X-133765D01*
X-132749Y192918D01*
X-126356Y187316D02*
X-125340Y188332D01*
X-124324D01*
X-125340Y189348D01*
X-124324Y190364D01*
X-125340D01*
X-126356Y191380D01*
X-127372Y190364D01*
X-128388D01*
X-127372Y189348D01*
X-128388Y188332D01*
X-127372D01*
X-126356Y187316D01*
X-119858Y180498D02*
X-118842Y181514D01*
X-117826D01*
X-118842Y182530D01*
X-117826Y183546D01*
X-118842D01*
X-119858Y184562D01*
X-120874Y183546D01*
X-121890D01*
X-120874Y182530D01*
X-121890Y181514D01*
X-120874D01*
X-119858Y180498D01*
X-110527Y176275D02*
X-109511Y177290D01*
X-108495D01*
X-109511Y178307D01*
X-108495Y179322D01*
X-109511D01*
X-110527Y180338D01*
X-111543Y179322D01*
X-112559D01*
X-111543Y178307D01*
X-112559Y177290D01*
X-111543D01*
X-110527Y176275D01*
X-102491Y173506D02*
X-101475Y174522D01*
X-100459D01*
X-101475Y175538D01*
X-100459Y176554D01*
X-101475D01*
X-102491Y177570D01*
X-103507Y176554D01*
X-104523D01*
X-103507Y175538D01*
X-104523Y174522D01*
X-103507D01*
X-102491Y173506D01*
X-95792Y168275D02*
X-94775Y169291D01*
X-93759D01*
X-94775Y170307D01*
X-93759Y171323D01*
X-94775D01*
X-95792Y172339D01*
X-96807Y171323D01*
X-97823D01*
X-96807Y170307D01*
X-97823Y169291D01*
X-96807D01*
X-95792Y168275D01*
X-86061Y164275D02*
X-85045Y165291D01*
X-84030D01*
X-85045Y166307D01*
X-84030Y167323D01*
X-85045D01*
X-86061Y168339D01*
X-87078Y167323D01*
X-88094D01*
X-87078Y166307D01*
X-88094Y165291D01*
X-87078D01*
X-86061Y164275D01*
X-76416Y161157D02*
X-75400Y162173D01*
X-74384D01*
X-75400Y163188D01*
X-74384Y164205D01*
X-75400D01*
X-76416Y165221D01*
X-77432Y164205D01*
X-78448D01*
X-77432Y163188D01*
X-78448Y162173D01*
X-77432D01*
X-76416Y161157D01*
X-69249Y156587D02*
X-68233Y157603D01*
X-67217D01*
X-68233Y158619D01*
X-67217Y159635D01*
X-68233D01*
X-69249Y160651D01*
X-70265Y159635D01*
X-71281D01*
X-70265Y158619D01*
X-71281Y157603D01*
X-70265D01*
X-69249Y156587D01*
X-61310Y153549D02*
X-60294Y154565D01*
X-59278D01*
X-60294Y155581D01*
X-59278Y156597D01*
X-60294D01*
X-61310Y157613D01*
X-62326Y156597D01*
X-63342D01*
X-62326Y155581D01*
X-63342Y154565D01*
X-62326D01*
X-61310Y153549D01*
X-55060Y129640D02*
X-54044Y130656D01*
X-53028D01*
X-54044Y131672D01*
X-53028Y132688D01*
X-54044D01*
X-55060Y133704D01*
X-56076Y132688D01*
X-57092D01*
X-56076Y131672D01*
X-57092Y130656D01*
X-56076D01*
X-55060Y129640D01*
X-34988D02*
X-33972Y130656D01*
X-32956D01*
X-33972Y131672D01*
X-32956Y132688D01*
X-33972D01*
X-34988Y133704D01*
X-36004Y132688D01*
X-37020D01*
X-36004Y131672D01*
X-37020Y130656D01*
X-36004D01*
X-34988Y129640D01*
X-23816Y131558D02*
X-22800Y132574D01*
X-21784D01*
X-22800Y133590D01*
X-21784Y134606D01*
X-22800D01*
X-23816Y135622D01*
X-24832Y134606D01*
X-25848D01*
X-24832Y133590D01*
X-25848Y132574D01*
X-24832D01*
X-23816Y131558D01*
X-23945Y140057D02*
X-22929Y141073D01*
X-21913D01*
X-22929Y142089D01*
X-21913Y143105D01*
X-22929D01*
X-23945Y144121D01*
X-24961Y143105D01*
X-25977D01*
X-24961Y142089D01*
X-25977Y141073D01*
X-24961D01*
X-23945Y140057D01*
X-5723Y136330D02*
X-4707Y137346D01*
X-3691D01*
X-4707Y138362D01*
X-3691Y139378D01*
X-4707D01*
X-5723Y140394D01*
X-6739Y139378D01*
X-7755D01*
X-6739Y138362D01*
X-7755Y137346D01*
X-6739D01*
X-5723Y136330D01*
X-19753Y147451D02*
X-18736Y148467D01*
X-17721D01*
X-18736Y149483D01*
X-17721Y150499D01*
X-18736D01*
X-19753Y151515D01*
X-20768Y150499D01*
X-21785D01*
X-20768Y149483D01*
X-21785Y148467D01*
X-20768D01*
X-19753Y147451D01*
X-10390Y101140D02*
X-9374Y102156D01*
X-8359D01*
X-9374Y103172D01*
X-8359Y104188D01*
X-9374D01*
X-10390Y105204D01*
X-11407Y104188D01*
X-12422D01*
X-11407Y103172D01*
X-12422Y102156D01*
X-11407D01*
X-10390Y101140D01*
X-3030Y84796D02*
X-2014Y85812D01*
X-998D01*
X-2014Y86828D01*
X-998Y87844D01*
X-2014D01*
X-3030Y88860D01*
X-4046Y87844D01*
X-5062D01*
X-4046Y86828D01*
X-5062Y85812D01*
X-4046D01*
X-3030Y84796D01*
X3792Y129350D02*
X4808Y130366D01*
X5824D01*
X4808Y131382D01*
X5824Y132398D01*
X4808D01*
X3792Y133414D01*
X2776Y132398D01*
X1760D01*
X2776Y131382D01*
X1760Y130366D01*
X2776D01*
X3792Y129350D01*
X3228Y113640D02*
X4244Y114656D01*
X5260D01*
X4244Y115672D01*
X5260Y116688D01*
X4244D01*
X3228Y117704D01*
X2212Y116688D01*
X1196D01*
X2212Y115672D01*
X1196Y114656D01*
X2212D01*
X3228Y113640D01*
X19757D02*
X20773Y114656D01*
X21789D01*
X20773Y115672D01*
X21789Y116688D01*
X20773D01*
X19757Y117704D01*
X18741Y116688D01*
X17725D01*
X18741Y115672D01*
X17725Y114656D01*
X18741D01*
X19757Y113640D01*
X18003Y70468D02*
X19018Y71484D01*
X20034D01*
X19018Y72500D01*
X20034Y73516D01*
X19018D01*
X18003Y74532D01*
X16987Y73516D01*
X15970D01*
X16987Y72500D01*
X15970Y71484D01*
X16987D01*
X18003Y70468D01*
X17275Y90890D02*
X18291Y91906D01*
X19307D01*
X18291Y92922D01*
X19307Y93938D01*
X18291D01*
X17275Y94954D01*
X16259Y93938D01*
X15243D01*
X16259Y92922D01*
X15243Y91906D01*
X16259D01*
X17275Y90890D01*
X-108212Y255812D02*
X-107196Y256828D01*
X-106180D01*
X-107196Y257844D01*
X-106180Y258860D01*
X-107196D01*
X-108212Y259876D01*
X-109228Y258860D01*
X-110244D01*
X-109228Y257844D01*
X-110244Y256828D01*
X-109228D01*
X-108212Y255812D01*
X-80711Y298895D02*
X-79696Y299911D01*
X-78679D01*
X-79696Y300927D01*
X-78679Y301943D01*
X-79696D01*
X-80711Y302959D01*
X-81728Y301943D01*
X-82744D01*
X-81728Y300927D01*
X-82744Y299911D01*
X-81728D01*
X-80711Y298895D01*
X-71203Y309725D02*
X-70187Y310741D01*
X-69171D01*
X-70187Y311757D01*
X-69171Y312773D01*
X-70187D01*
X-71203Y313789D01*
X-72219Y312773D01*
X-73235D01*
X-72219Y311757D01*
X-73235Y310741D01*
X-72219D01*
X-71203Y309725D01*
X-62453Y222088D02*
X-61437Y223104D01*
X-60421D01*
X-61437Y224120D01*
X-60421Y225136D01*
X-61437D01*
X-62453Y226152D01*
X-63469Y225136D01*
X-64485D01*
X-63469Y224120D01*
X-64485Y223104D01*
X-63469D01*
X-62453Y222088D01*
X-78946Y233324D02*
X-77930Y234340D01*
X-76914D01*
X-77930Y235356D01*
X-76914Y236372D01*
X-77930D01*
X-78946Y237388D01*
X-79962Y236372D01*
X-80978D01*
X-79962Y235356D01*
X-80978Y234340D01*
X-79962D01*
X-78946Y233324D01*
X-18787Y274471D02*
X-17771Y275487D01*
X-16755D01*
X-17771Y276503D01*
X-16755Y277519D01*
X-17771D01*
X-18787Y278535D01*
X-19803Y277519D01*
X-20819D01*
X-19803Y276503D01*
X-20819Y275487D01*
X-19803D01*
X-18787Y274471D01*
X-96788Y267181D02*
X-95772Y268197D01*
X-94756D01*
X-95772Y269213D01*
X-94756Y270229D01*
X-95772D01*
X-96788Y271245D01*
X-97804Y270229D01*
X-98820D01*
X-97804Y269213D01*
X-98820Y268197D01*
X-97804D01*
X-96788Y267181D01*
X-81378Y275422D02*
X-80363Y276438D01*
X-79346D01*
X-80363Y277454D01*
X-79346Y278470D01*
X-80363D01*
X-81378Y279486D01*
X-82395Y278470D01*
X-83411D01*
X-82395Y277454D01*
X-83411Y276438D01*
X-82395D01*
X-81378Y275422D01*
X-65108Y278761D02*
X-64092Y279777D01*
X-63076D01*
X-64092Y280793D01*
X-63076Y281809D01*
X-64092D01*
X-65108Y282825D01*
X-66124Y281809D01*
X-67140D01*
X-66124Y280793D01*
X-67140Y279777D01*
X-66124D01*
X-65108Y278761D01*
X-60402Y249191D02*
X-59387Y250207D01*
X-58370D01*
X-59387Y251223D01*
X-58370Y252239D01*
X-59387D01*
X-60402Y253255D01*
X-61418Y252239D01*
X-62435D01*
X-61418Y251223D01*
X-62435Y250207D01*
X-61418D01*
X-60402Y249191D01*
X-3762Y311381D02*
X-2746Y312397D01*
X-1730D01*
X-2746Y313413D01*
X-1730Y314429D01*
X-2746D01*
X-3762Y315445D01*
X-4778Y314429D01*
X-5794D01*
X-4778Y313413D01*
X-5794Y312397D01*
X-4778D01*
X-3762Y311381D01*
X-44438Y204677D02*
X-43422Y205693D01*
X-42406D01*
X-43422Y206709D01*
X-42406Y207725D01*
X-43422D01*
X-44438Y208741D01*
X-45454Y207725D01*
X-46470D01*
X-45454Y206709D01*
X-46470Y205693D01*
X-45454D01*
X-44438Y204677D01*
X-29210Y224101D02*
X-28194Y225117D01*
X-27178D01*
X-28194Y226133D01*
X-27178Y227149D01*
X-28194D01*
X-29210Y228165D01*
X-30226Y227149D01*
X-31242D01*
X-30226Y226133D01*
X-31242Y225117D01*
X-30226D01*
X-29210Y224101D01*
X-27781Y244632D02*
X-26765Y245648D01*
X-25749D01*
X-26765Y246664D01*
X-25749Y247680D01*
X-26765D01*
X-27781Y248696D01*
X-28797Y247680D01*
X-29813D01*
X-28797Y246664D01*
X-29813Y245648D01*
X-28797D01*
X-27781Y244632D01*
X-2367Y237563D02*
X-1351Y238579D01*
X-335D01*
X-1351Y239595D01*
X-335Y240611D01*
X-1351D01*
X-2367Y241627D01*
X-3383Y240611D01*
X-4399D01*
X-3383Y239595D01*
X-4399Y238579D01*
X-3383D01*
X-2367Y237563D01*
X15415Y235706D02*
X16431Y236722D01*
X17447D01*
X16431Y237738D01*
X17447Y238754D01*
X16431D01*
X15415Y239770D01*
X14399Y238754D01*
X13383D01*
X14399Y237738D01*
X13383Y236722D01*
X14399D01*
X15415Y235706D01*
X-5313Y206275D02*
X-4297Y207291D01*
X-3281D01*
X-4297Y208307D01*
X-3281Y209323D01*
X-4297D01*
X-5313Y210339D01*
X-6329Y209323D01*
X-7345D01*
X-6329Y208307D01*
X-7345Y207291D01*
X-6329D01*
X-5313Y206275D01*
X17477Y298182D02*
X18493Y299198D01*
X19509D01*
X18493Y300214D01*
X19509Y301230D01*
X18493D01*
X17477Y302246D01*
X16461Y301230D01*
X15445D01*
X16461Y300214D01*
X15445Y299198D01*
X16461D01*
X17477Y298182D01*
X22561Y230640D02*
X23577Y231656D01*
X24593D01*
X23577Y232672D01*
X24593Y233688D01*
X23577D01*
X22561Y234704D01*
X21545Y233688D01*
X20529D01*
X21545Y232672D01*
X20529Y231656D01*
X21545D01*
X22561Y230640D01*
X-487226Y102727D02*
X-486210Y103743D01*
X-485194D01*
X-486210Y104759D01*
X-485194Y105775D01*
X-486210D01*
X-487226Y106791D01*
X-488242Y105775D01*
X-489258D01*
X-488242Y104759D01*
X-489258Y103743D01*
X-488242D01*
X-487226Y102727D01*
X-488477Y50898D02*
X-487461Y51914D01*
X-486445D01*
X-487461Y52930D01*
X-486445Y53946D01*
X-487461D01*
X-488477Y54962D01*
X-489493Y53946D01*
X-490509D01*
X-489493Y52930D01*
X-490509Y51914D01*
X-489493D01*
X-488477Y50898D01*
X-485089Y93897D02*
X-484073Y94913D01*
X-483057D01*
X-484073Y95929D01*
X-483057Y96945D01*
X-484073D01*
X-485089Y97961D01*
X-486105Y96945D01*
X-487121D01*
X-486105Y95929D01*
X-487121Y94913D01*
X-486105D01*
X-485089Y93897D01*
X-485785Y85426D02*
X-484769Y86441D01*
X-483753D01*
X-484769Y87458D01*
X-483753Y88474D01*
X-484769D01*
X-485785Y89489D01*
X-486801Y88474D01*
X-487817D01*
X-486801Y87458D01*
X-487817Y86441D01*
X-486801D01*
X-485785Y85426D01*
X-490683Y75948D02*
X-489667Y76964D01*
X-488651D01*
X-489667Y77980D01*
X-488651Y78996D01*
X-489667D01*
X-490683Y80012D01*
X-491699Y78996D01*
X-492715D01*
X-491699Y77980D01*
X-492715Y76964D01*
X-491699D01*
X-490683Y75948D01*
X-485089Y69549D02*
X-484073Y70565D01*
X-483057D01*
X-484073Y71581D01*
X-483057Y72597D01*
X-484073D01*
X-485089Y73613D01*
X-486105Y72597D01*
X-487121D01*
X-486105Y71581D01*
X-487121Y70565D01*
X-486105D01*
X-485089Y69549D01*
X-485535Y59685D02*
X-484519Y60701D01*
X-483503D01*
X-484519Y61717D01*
X-483503Y62733D01*
X-484519D01*
X-485535Y63749D01*
X-486551Y62733D01*
X-487567D01*
X-486551Y61717D01*
X-487567Y60701D01*
X-486551D01*
X-485535Y59685D01*
X-681358Y-217101D02*
X-680342Y-216085D01*
X-679326D01*
X-680342Y-215069D01*
X-679326Y-214053D01*
X-680342D01*
X-681358Y-213037D01*
X-682374Y-214053D01*
X-683390D01*
X-682374Y-215069D01*
X-683390Y-216085D01*
X-682374D01*
X-681358Y-217101D01*
X-835059Y17198D02*
X-834043Y18214D01*
X-833027D01*
X-834043Y19230D01*
X-833027Y20246D01*
X-834043D01*
X-835059Y21262D01*
X-836075Y20246D01*
X-837091D01*
X-836075Y19230D01*
X-837091Y18214D01*
X-836075D01*
X-835059Y17198D01*
X-651500Y-216021D02*
X-650484Y-215005D01*
X-649468D01*
X-650484Y-213988D01*
X-649468Y-212973D01*
X-650484D01*
X-651500Y-211957D01*
X-652516Y-212973D01*
X-653532D01*
X-652516Y-213988D01*
X-653532Y-215005D01*
X-652516D01*
X-651500Y-216021D01*
X-494727Y-130048D02*
X-493711Y-129032D01*
X-492695D01*
X-493711Y-128016D01*
X-492695Y-127000D01*
X-493711D01*
X-494727Y-125984D01*
X-495743Y-127000D01*
X-496759D01*
X-495743Y-128016D01*
X-496759Y-129032D01*
X-495743D01*
X-494727Y-130048D01*
X-700000Y-289532D02*
X-698984Y-288516D01*
X-697968D01*
X-698984Y-287500D01*
X-697968Y-286484D01*
X-698984D01*
X-700000Y-285468D01*
X-701016Y-286484D01*
X-702032D01*
X-701016Y-287500D01*
X-702032Y-288516D01*
X-701016D01*
X-700000Y-289532D01*
X-854424Y-312032D02*
X-853408Y-311016D01*
X-852392D01*
X-853408Y-310000D01*
X-852392Y-308984D01*
X-853408D01*
X-854424Y-307968D01*
X-855440Y-308984D01*
X-856456D01*
X-855440Y-310000D01*
X-856456Y-311016D01*
X-855440D01*
X-854424Y-312032D01*
X-852500Y-288532D02*
X-851484Y-287516D01*
X-850468D01*
X-851484Y-286500D01*
X-850468Y-285484D01*
X-851484D01*
X-852500Y-284468D01*
X-853516Y-285484D01*
X-854532D01*
X-853516Y-286500D01*
X-854532Y-287516D01*
X-853516D01*
X-852500Y-288532D01*
X-88863Y221190D02*
X-87847Y222206D01*
X-86831D01*
X-87847Y223222D01*
X-86831Y224238D01*
X-87847D01*
X-88863Y225254D01*
X-89879Y224238D01*
X-90895D01*
X-89879Y223222D01*
X-90895Y222206D01*
X-89879D01*
X-88863Y221190D01*
X-79277Y202183D02*
X-78261Y203200D01*
X-77245D01*
X-78261Y204216D01*
X-77245Y205231D01*
X-78261D01*
X-79277Y206248D01*
X-80293Y205231D01*
X-81309D01*
X-80293Y204216D01*
X-81309Y203200D01*
X-80293D01*
X-79277Y202183D01*
X3324Y251948D02*
X4340Y252964D01*
X5356D01*
X4340Y253980D01*
X5356Y254996D01*
X4340D01*
X3324Y256012D01*
X2308Y254996D01*
X1292D01*
X2308Y253980D01*
X1292Y252964D01*
X2308D01*
X3324Y251948D01*
X30875Y267393D02*
X31891Y268409D01*
X32907D01*
X31891Y269425D01*
X32907Y270441D01*
X31891D01*
X30875Y271457D01*
X29859Y270441D01*
X28843D01*
X29859Y269425D01*
X28843Y268409D01*
X29859D01*
X30875Y267393D01*
X-60811Y303916D02*
X-59795Y304932D01*
X-58779D01*
X-59795Y305948D01*
X-58779Y306964D01*
X-59795D01*
X-60811Y307980D01*
X-61827Y306964D01*
X-62843D01*
X-61827Y305948D01*
X-62843Y304932D01*
X-61827D01*
X-60811Y303916D01*
X-49906Y281558D02*
X-48890Y282575D01*
X-47874D01*
X-48890Y283591D01*
X-47874Y284606D01*
X-48890D01*
X-49906Y285623D01*
X-50922Y284606D01*
X-51938D01*
X-50922Y283591D01*
X-51938Y282575D01*
X-50922D01*
X-49906Y281558D01*
X-53148Y295223D02*
X-52132Y296239D01*
X-51116D01*
X-52132Y297255D01*
X-51116Y298271D01*
X-52132D01*
X-53148Y299287D01*
X-54164Y298271D01*
X-55180D01*
X-54164Y297255D01*
X-55180Y296239D01*
X-54164D01*
X-53148Y295223D01*
X-25968Y305072D02*
X-24952Y306088D01*
X-23936D01*
X-24952Y307104D01*
X-23936Y308120D01*
X-24952D01*
X-25968Y309136D01*
X-26984Y308120D01*
X-28000D01*
X-26984Y307104D01*
X-28000Y306088D01*
X-26984D01*
X-25968Y305072D01*
X-8850Y279477D02*
X-7834Y280493D01*
X-6818D01*
X-7834Y281509D01*
X-6818Y282525D01*
X-7834D01*
X-8850Y283541D01*
X-9866Y282525D01*
X-10882D01*
X-9866Y281509D01*
X-10882Y280493D01*
X-9866D01*
X-8850Y279477D01*
X267Y290499D02*
X1283Y291515D01*
X2299D01*
X1283Y292531D01*
X2299Y293547D01*
X1283D01*
X267Y294563D01*
X-749Y293547D01*
X-1765D01*
X-749Y292531D01*
X-1765Y291515D01*
X-749D01*
X267Y290499D01*
X17477Y259216D02*
X18493Y260233D01*
X19509D01*
X18493Y261248D01*
X19509Y262264D01*
X18493D01*
X17477Y263281D01*
X16461Y262264D01*
X15445D01*
X16461Y261248D01*
X15445Y260233D01*
X16461D01*
X17477Y259216D01*
X-1022500Y-449532D02*
X-1021484Y-448516D01*
X-1020468D01*
X-1021484Y-447500D01*
X-1020468Y-446484D01*
X-1021484D01*
X-1022500Y-445468D01*
X-1023516Y-446484D01*
X-1024532D01*
X-1023516Y-447500D01*
X-1024532Y-448516D01*
X-1023516D01*
X-1022500Y-449532D01*
X-1050932Y-449721D02*
X-1049916Y-448705D01*
X-1048900D01*
X-1049916Y-447689D01*
X-1048900Y-446673D01*
X-1049916D01*
X-1050932Y-445657D01*
X-1051948Y-446673D01*
X-1052964D01*
X-1051948Y-447689D01*
X-1052964Y-448705D01*
X-1051948D01*
X-1050932Y-449721D01*
X-822850Y-137032D02*
X-821834Y-136016D01*
X-820818D01*
X-821834Y-135000D01*
X-820818Y-133984D01*
X-821834D01*
X-822850Y-132968D01*
X-823866Y-133984D01*
X-824882D01*
X-823866Y-135000D01*
X-824882Y-136016D01*
X-823866D01*
X-822850Y-137032D01*
X-1026475Y-459532D02*
X-1025459Y-458516D01*
X-1024443D01*
X-1025459Y-457500D01*
X-1024443Y-456484D01*
X-1025459D01*
X-1026475Y-455468D01*
X-1027491Y-456484D01*
X-1028507D01*
X-1027491Y-457500D01*
X-1028507Y-458516D01*
X-1027491D01*
X-1026475Y-459532D01*
Y-469532D02*
X-1025459Y-468516D01*
X-1024443D01*
X-1025459Y-467500D01*
X-1024443Y-466484D01*
X-1025459D01*
X-1026475Y-465468D01*
X-1027491Y-466484D01*
X-1028507D01*
X-1027491Y-467500D01*
X-1028507Y-468516D01*
X-1027491D01*
X-1026475Y-469532D01*
X-1050000Y-459532D02*
X-1048984Y-458516D01*
X-1047968D01*
X-1048984Y-457500D01*
X-1047968Y-456484D01*
X-1048984D01*
X-1050000Y-455468D01*
X-1051016Y-456484D01*
X-1052032D01*
X-1051016Y-457500D01*
X-1052032Y-458516D01*
X-1051016D01*
X-1050000Y-459532D01*
X-1045665Y-469604D02*
X-1044649Y-468588D01*
X-1043633D01*
X-1044649Y-467572D01*
X-1043633Y-466556D01*
X-1044649D01*
X-1045665Y-465540D01*
X-1046681Y-466556D01*
X-1047697D01*
X-1046681Y-467572D01*
X-1047697Y-468588D01*
X-1046681D01*
X-1045665Y-469604D01*
X-810000Y-304032D02*
X-808984Y-303016D01*
X-807968D01*
X-808984Y-302000D01*
X-807968Y-300984D01*
X-808984D01*
X-810000Y-299968D01*
X-811016Y-300984D01*
X-812032D01*
X-811016Y-302000D01*
X-812032Y-303016D01*
X-811016D01*
X-810000Y-304032D01*
X-790000Y-289532D02*
X-788984Y-288516D01*
X-787968D01*
X-788984Y-287500D01*
X-787968Y-286484D01*
X-788984D01*
X-790000Y-285468D01*
X-791016Y-286484D01*
X-792032D01*
X-791016Y-287500D01*
X-792032Y-288516D01*
X-791016D01*
X-790000Y-289532D01*
X-760000D02*
X-758984Y-288516D01*
X-757968D01*
X-758984Y-287500D01*
X-757968Y-286484D01*
X-758984D01*
X-760000Y-285468D01*
X-761016Y-286484D01*
X-762032D01*
X-761016Y-287500D01*
X-762032Y-288516D01*
X-761016D01*
X-760000Y-289532D01*
X-730000D02*
X-728984Y-288516D01*
X-727968D01*
X-728984Y-287500D01*
X-727968Y-286484D01*
X-728984D01*
X-730000Y-285468D01*
X-731016Y-286484D01*
X-732032D01*
X-731016Y-287500D01*
X-732032Y-288516D01*
X-731016D01*
X-730000Y-289532D01*
X-630000Y-302032D02*
X-628984Y-301016D01*
X-627968D01*
X-628984Y-300000D01*
X-627968Y-298984D01*
X-628984D01*
X-630000Y-297968D01*
X-631016Y-298984D01*
X-632032D01*
X-631016Y-300000D01*
X-632032Y-301016D01*
X-631016D01*
X-630000Y-302032D01*
X-570000Y-275926D02*
X-568984Y-274910D01*
X-567968D01*
X-568984Y-273894D01*
X-567968Y-272878D01*
X-568984D01*
X-570000Y-271862D01*
X-571016Y-272878D01*
X-572032D01*
X-571016Y-273894D01*
X-572032Y-274910D01*
X-571016D01*
X-570000Y-275926D01*
X-600000D02*
X-598984Y-274910D01*
X-597968D01*
X-598984Y-273894D01*
X-597968Y-272878D01*
X-598984D01*
X-600000Y-271862D01*
X-601016Y-272878D01*
X-602032D01*
X-601016Y-273894D01*
X-602032Y-274910D01*
X-601016D01*
X-600000Y-275926D01*
X-540000D02*
X-538984Y-274910D01*
X-537968D01*
X-538984Y-273894D01*
X-537968Y-272878D01*
X-538984D01*
X-540000Y-271862D01*
X-541016Y-272878D01*
X-542032D01*
X-541016Y-273894D01*
X-542032Y-274910D01*
X-541016D01*
X-540000Y-275926D01*
X-510000Y-274926D02*
X-508984Y-273910D01*
X-507968D01*
X-508984Y-272894D01*
X-507968Y-271878D01*
X-508984D01*
X-510000Y-270862D01*
X-511016Y-271878D01*
X-512032D01*
X-511016Y-272894D01*
X-512032Y-273910D01*
X-511016D01*
X-510000Y-274926D01*
X-420000Y-304532D02*
X-418984Y-303516D01*
X-417968D01*
X-418984Y-302500D01*
X-417968Y-301484D01*
X-418984D01*
X-420000Y-300468D01*
X-421016Y-301484D01*
X-422032D01*
X-421016Y-302500D01*
X-422032Y-303516D01*
X-421016D01*
X-420000Y-304532D01*
X-390000D02*
X-388984Y-303516D01*
X-387968D01*
X-388984Y-302500D01*
X-387968Y-301484D01*
X-388984D01*
X-390000Y-300468D01*
X-391016Y-301484D01*
X-392032D01*
X-391016Y-302500D01*
X-392032Y-303516D01*
X-391016D01*
X-390000Y-304532D01*
X-120000D02*
X-118984Y-303516D01*
X-117968D01*
X-118984Y-302500D01*
X-117968Y-301484D01*
X-118984D01*
X-120000Y-300468D01*
X-121016Y-301484D01*
X-122032D01*
X-121016Y-302500D01*
X-122032Y-303516D01*
X-121016D01*
X-120000Y-304532D01*
X-240000D02*
X-238984Y-303516D01*
X-237968D01*
X-238984Y-302500D01*
X-237968Y-301484D01*
X-238984D01*
X-240000Y-300468D01*
X-241016Y-301484D01*
X-242032D01*
X-241016Y-302500D01*
X-242032Y-303516D01*
X-241016D01*
X-240000Y-304532D01*
X-270000D02*
X-268984Y-303516D01*
X-267968D01*
X-268984Y-302500D01*
X-267968Y-301484D01*
X-268984D01*
X-270000Y-300468D01*
X-271016Y-301484D01*
X-272032D01*
X-271016Y-302500D01*
X-272032Y-303516D01*
X-271016D01*
X-270000Y-304532D01*
X-840000D02*
X-838984Y-303516D01*
X-837968D01*
X-838984Y-302500D01*
X-837968Y-301484D01*
X-838984D01*
X-840000Y-300468D01*
X-841016Y-301484D01*
X-842032D01*
X-841016Y-302500D01*
X-842032Y-303516D01*
X-841016D01*
X-840000Y-304532D01*
X-660000D02*
X-658984Y-303516D01*
X-657968D01*
X-658984Y-302500D01*
X-657968Y-301484D01*
X-658984D01*
X-660000Y-300468D01*
X-661016Y-301484D01*
X-662032D01*
X-661016Y-302500D01*
X-662032Y-303516D01*
X-661016D01*
X-660000Y-304532D01*
X-480000D02*
X-478984Y-303516D01*
X-477968D01*
X-478984Y-302500D01*
X-477968Y-301484D01*
X-478984D01*
X-480000Y-300468D01*
X-481016Y-301484D01*
X-482032D01*
X-481016Y-302500D01*
X-482032Y-303516D01*
X-481016D01*
X-480000Y-304532D01*
X-450000D02*
X-448984Y-303516D01*
X-447968D01*
X-448984Y-302500D01*
X-447968Y-301484D01*
X-448984D01*
X-450000Y-300468D01*
X-451016Y-301484D01*
X-452032D01*
X-451016Y-302500D01*
X-452032Y-303516D01*
X-451016D01*
X-450000Y-304532D01*
X-360000D02*
X-358984Y-303516D01*
X-357968D01*
X-358984Y-302500D01*
X-357968Y-301484D01*
X-358984D01*
X-360000Y-300468D01*
X-361016Y-301484D01*
X-362032D01*
X-361016Y-302500D01*
X-362032Y-303516D01*
X-361016D01*
X-360000Y-304532D01*
X-330000D02*
X-328984Y-303516D01*
X-327968D01*
X-328984Y-302500D01*
X-327968Y-301484D01*
X-328984D01*
X-330000Y-300468D01*
X-331016Y-301484D01*
X-332032D01*
X-331016Y-302500D01*
X-332032Y-303516D01*
X-331016D01*
X-330000Y-304532D01*
X-300000D02*
X-298984Y-303516D01*
X-297968D01*
X-298984Y-302500D01*
X-297968Y-301484D01*
X-298984D01*
X-300000Y-300468D01*
X-301016Y-301484D01*
X-302032D01*
X-301016Y-302500D01*
X-302032Y-303516D01*
X-301016D01*
X-300000Y-304532D01*
X-210000D02*
X-208984Y-303516D01*
X-207968D01*
X-208984Y-302500D01*
X-207968Y-301484D01*
X-208984D01*
X-210000Y-300468D01*
X-211016Y-301484D01*
X-212032D01*
X-211016Y-302500D01*
X-212032Y-303516D01*
X-211016D01*
X-210000Y-304532D01*
X-30000D02*
X-28984Y-303516D01*
X-27968D01*
X-28984Y-302500D01*
X-27968Y-301484D01*
X-28984D01*
X-30000Y-300468D01*
X-31016Y-301484D01*
X-32032D01*
X-31016Y-302500D01*
X-32032Y-303516D01*
X-31016D01*
X-30000Y-304532D01*
X-180000D02*
X-178984Y-303516D01*
X-177968D01*
X-178984Y-302500D01*
X-177968Y-301484D01*
X-178984D01*
X-180000Y-300468D01*
X-181016Y-301484D01*
X-182032D01*
X-181016Y-302500D01*
X-182032Y-303516D01*
X-181016D01*
X-180000Y-304532D01*
X-150000D02*
X-148984Y-303516D01*
X-147968D01*
X-148984Y-302500D01*
X-147968Y-301484D01*
X-148984D01*
X-150000Y-300468D01*
X-151016Y-301484D01*
X-152032D01*
X-151016Y-302500D01*
X-152032Y-303516D01*
X-151016D01*
X-150000Y-304532D01*
X-90000D02*
X-88984Y-303516D01*
X-87968D01*
X-88984Y-302500D01*
X-87968Y-301484D01*
X-88984D01*
X-90000Y-300468D01*
X-91016Y-301484D01*
X-92032D01*
X-91016Y-302500D01*
X-92032Y-303516D01*
X-91016D01*
X-90000Y-304532D01*
X-60000D02*
X-58984Y-303516D01*
X-57968D01*
X-58984Y-302500D01*
X-57968Y-301484D01*
X-58984D01*
X-60000Y-300468D01*
X-61016Y-301484D01*
X-62032D01*
X-61016Y-302500D01*
X-62032Y-303516D01*
X-61016D01*
X-60000Y-304532D01*
X30000D02*
X31016Y-303516D01*
X32032D01*
X31016Y-302500D01*
X32032Y-301484D01*
X31016D01*
X30000Y-300468D01*
X28984Y-301484D01*
X27968D01*
X28984Y-302500D01*
X27968Y-303516D01*
X28984D01*
X30000Y-304532D01*
X0D02*
X1016Y-303516D01*
X2032D01*
X1016Y-302500D01*
X2032Y-301484D01*
X1016D01*
X0Y-300468D01*
X-1016Y-301484D01*
X-2032D01*
X-1016Y-302500D01*
X-2032Y-303516D01*
X-1016D01*
X0Y-304532D01*
X60000D02*
X61016Y-303516D01*
X62032D01*
X61016Y-302500D01*
X62032Y-301484D01*
X61016D01*
X60000Y-300468D01*
X58984Y-301484D01*
X57968D01*
X58984Y-302500D01*
X57968Y-303516D01*
X58984D01*
X60000Y-304532D01*
D120*
X-1207293Y-571500D02*
G03*
X-1207293Y-571500I-2032J0D01*
G01*
X-1308893D02*
G03*
X-1308893Y-571500I-2032J0D01*
G01*
X-21701Y-864927D02*
G03*
X-21701Y-864927I-2032J0D01*
G01*
X-259932Y-864896D02*
G03*
X-259932Y-864896I-2032J0D01*
G01*
X-637674Y-781062D02*
G03*
X-637674Y-781062I-2032J0D01*
G01*
X-739275D02*
G03*
X-739275Y-781062I-2032J0D01*
G01*
X-709168Y0D02*
G03*
X-709168Y0I-2032J0D01*
G01*
X-810768D02*
G03*
X-810768Y0I-2032J0D01*
G01*
X-976461Y-380944D02*
G03*
X-976461Y-380944I-2032J0D01*
G01*
X-1078061D02*
G03*
X-1078061Y-380944I-2032J0D01*
G01*
X-48768Y0D02*
G03*
X-48768Y0I-2032J0D01*
G01*
X52832D02*
G03*
X52832Y0I-2032J0D01*
G01*
Y-190500D02*
G03*
X52832Y-190500I-2032J0D01*
G01*
X-48768D02*
G03*
X-48768Y-190500I-2032J0D01*
G01*
Y-381000D02*
G03*
X-48768Y-381000I-2032J0D01*
G01*
X52832D02*
G03*
X52832Y-381000I-2032J0D01*
G01*
Y-571500D02*
G03*
X52832Y-571500I-2032J0D01*
G01*
X-48768D02*
G03*
X-48768Y-571500I-2032J0D01*
G01*
X-239268Y0D02*
G03*
X-239268Y0I-2032J0D01*
G01*
X-137668D02*
G03*
X-137668Y0I-2032J0D01*
G01*
Y-190500D02*
G03*
X-137668Y-190500I-2032J0D01*
G01*
X-239268D02*
G03*
X-239268Y-190500I-2032J0D01*
G01*
Y-381000D02*
G03*
X-239268Y-381000I-2032J0D01*
G01*
X-137668D02*
G03*
X-137668Y-381000I-2032J0D01*
G01*
Y-571500D02*
G03*
X-137668Y-571500I-2032J0D01*
G01*
X-239268D02*
G03*
X-239268Y-571500I-2032J0D01*
G01*
X-191583Y-781057D02*
G03*
X-191583Y-781057I-2032J0D01*
G01*
X-89984D02*
G03*
X-89984Y-781057I-2032J0D01*
G01*
X-328168Y0D02*
G03*
X-328168Y0I-2032J0D01*
G01*
X-429768D02*
G03*
X-429768Y0I-2032J0D01*
G01*
Y-190500D02*
G03*
X-429768Y-190500I-2032J0D01*
G01*
X-328168D02*
G03*
X-328168Y-190500I-2032J0D01*
G01*
X-399549Y-781062D02*
G03*
X-399549Y-781062I-2032J0D01*
G01*
X-501149D02*
G03*
X-501149Y-781062I-2032J0D01*
G01*
X-620268Y0D02*
G03*
X-620268Y0I-2032J0D01*
G01*
X-518668D02*
G03*
X-518668Y0I-2032J0D01*
G01*
Y-190500D02*
G03*
X-518668Y-190500I-2032J0D01*
G01*
X-620268D02*
G03*
X-620268Y-190500I-2032J0D01*
G01*
Y-381000D02*
G03*
X-620268Y-381000I-2032J0D01*
G01*
X-518668D02*
G03*
X-518668Y-381000I-2032J0D01*
G01*
Y-571500D02*
G03*
X-518668Y-571500I-2032J0D01*
G01*
X-620268D02*
G03*
X-620268Y-571500I-2032J0D01*
G01*
X-709168Y-190500D02*
G03*
X-709168Y-190500I-2032J0D01*
G01*
X-810768D02*
G03*
X-810768Y-190500I-2032J0D01*
G01*
Y-381000D02*
G03*
X-810768Y-381000I-2032J0D01*
G01*
X-709168D02*
G03*
X-709168Y-381000I-2032J0D01*
G01*
Y-571500D02*
G03*
X-709168Y-571500I-2032J0D01*
G01*
X-810768D02*
G03*
X-810768Y-571500I-2032J0D01*
G01*
X-899668Y0D02*
G03*
X-899668Y0I-2032J0D01*
G01*
X-1001268D02*
G03*
X-1001268Y0I-2032J0D01*
G01*
X-1048824Y-190500D02*
G03*
X-1048824Y-190500I-2032J0D01*
G01*
X-947225D02*
G03*
X-947225Y-190500I-2032J0D01*
G01*
X-1025027Y-571498D02*
G03*
X-1025027Y-571498I-2032J0D01*
G01*
X-923428D02*
G03*
X-923428Y-571498I-2032J0D01*
G01*
Y-781057D02*
G03*
X-923428Y-781057I-2032J0D01*
G01*
X-1025027D02*
G03*
X-1025027Y-781057I-2032J0D01*
G01*
X-1241268Y30000D02*
G03*
X-1241268Y30000I-2032J0D01*
G01*
X-1139668D02*
G03*
X-1139668Y30000I-2032J0D01*
G01*
X-1207293Y-781060D02*
G03*
X-1207293Y-781060I-2032J0D01*
G01*
X-1308893D02*
G03*
X-1308893Y-781060I-2032J0D01*
G01*
X-429768Y-571500D02*
G03*
X-429768Y-571500I-2032J0D01*
G01*
X-328168D02*
G03*
X-328168Y-571500I-2032J0D01*
G01*
Y-381000D02*
G03*
X-328168Y-381000I-2032J0D01*
G01*
X-429768D02*
G03*
X-429768Y-381000I-2032J0D01*
G01*
D121*
X-22717Y-864927D02*
G03*
X-22717Y-864927I-1016J0D01*
G01*
X-260947Y-864896D02*
G03*
X-260947Y-864896I-1016J0D01*
G01*
M02*
