G04*
G04 #@! TF.GenerationSoftware,Altium Limited,Altium Designer,25.7.1 (20)*
G04*
G04 Layer_Color=128*
%FSLAX44Y44*%
%MOMM*%
G71*
G04*
G04 #@! TF.SameCoordinates,6D1EC6EB-D4D1-4485-8440-CF1E71E7DC7E*
G04*
G04*
G04 #@! TF.FilePolarity,Positive*
G04*
G01*
G75*
%ADD119C,0.0508*%
D119*
X-361486Y376123D02*
X-352486D01*
X-356986Y371623D02*
Y380623D01*
X-386573Y380097D02*
X-377574D01*
X-382074Y375597D02*
Y384597D01*
X-411661Y384070D02*
X-402661D01*
X-407161Y379570D02*
Y388570D01*
X-436748Y388044D02*
X-427748D01*
X-432248Y383544D02*
Y392543D01*
X-461835Y392017D02*
X-452835D01*
X-457335Y387517D02*
Y396517D01*
X-486922Y395990D02*
X-477923D01*
X-482423Y391490D02*
Y400490D01*
X-512010Y399964D02*
X-503010D01*
X-507510Y395464D02*
Y404464D01*
X-562184Y407911D02*
X-553184D01*
X-557684Y403411D02*
Y412411D01*
X-537097Y403937D02*
X-528097D01*
X-532597Y399437D02*
Y408437D01*
X-365460Y351036D02*
X-356460D01*
X-360960Y346536D02*
Y355536D01*
X-369433Y325949D02*
X-360433D01*
X-364933Y321449D02*
Y330449D01*
X-373406Y300861D02*
X-364407D01*
X-368907Y296361D02*
Y305361D01*
X-377380Y275774D02*
X-368380D01*
X-372880Y271274D02*
Y280274D01*
X-381353Y250687D02*
X-372353D01*
X-376853Y246187D02*
Y255187D01*
X-385327Y225599D02*
X-376327D01*
X-380827Y221099D02*
Y230100D01*
X-410414Y229573D02*
X-401414D01*
X-405914Y225073D02*
Y234073D01*
X-435501Y233546D02*
X-426501D01*
X-431001Y229046D02*
Y238046D01*
X-460589Y237520D02*
X-451589D01*
X-456089Y233020D02*
Y242020D01*
X-485676Y241493D02*
X-476676D01*
X-481176Y236993D02*
Y245993D01*
X-510763Y245467D02*
X-501763D01*
X-506263Y240967D02*
Y249967D01*
X-535850Y249440D02*
X-526851D01*
X-531351Y244940D02*
Y253940D01*
X-560938Y253414D02*
X-551938D01*
X-556438Y248914D02*
Y257914D01*
X-586025Y257387D02*
X-577025D01*
X-581525Y252887D02*
Y261887D01*
X-1377092Y-426712D02*
X-1368092D01*
X-1372592Y-431212D02*
Y-422212D01*
X-807850Y-546100D02*
X-792350D01*
X-800100Y-553850D02*
Y-538350D01*
X-807850Y-355600D02*
X-792350D01*
X-800100Y-363350D02*
Y-347850D01*
X-807850Y-165100D02*
X-792350D01*
X-800100Y-172850D02*
Y-157350D01*
X-807850Y25400D02*
X-792350D01*
X-800100Y17650D02*
Y33150D01*
X-736357Y-755662D02*
X-720856D01*
X-728606Y-763412D02*
Y-747912D01*
X-188666Y-755657D02*
X-173165D01*
X-180916Y-763407D02*
Y-747907D01*
X-236350Y-546100D02*
X-220850D01*
X-228600Y-553850D02*
Y-538350D01*
X-236350Y-355600D02*
X-220850D01*
X-228600Y-363350D02*
Y-347850D01*
X-236350Y-165100D02*
X-220850D01*
X-228600Y-172850D02*
Y-157350D01*
X-236350Y25400D02*
X-220850D01*
X-228600Y17650D02*
Y33150D01*
X-1351692Y-426712D02*
X-1342692D01*
X-1347192Y-431212D02*
Y-422212D01*
X-1022110Y-755657D02*
X-1006609D01*
X-1014360Y-763407D02*
Y-747907D01*
X-1022110Y-546098D02*
X-1006609D01*
X-1014360Y-553848D02*
Y-538348D01*
X-1045907Y-165100D02*
X-1030406D01*
X-1038157Y-172850D02*
Y-157350D01*
X-998350Y25400D02*
X-982850D01*
X-990600Y17650D02*
Y33150D01*
X-1075143Y-355544D02*
X-1059643D01*
X-1067393Y-363294D02*
Y-347794D01*
X-498232Y-755662D02*
X-482732D01*
X-490481Y-763412D02*
Y-747912D01*
X-426850Y-546100D02*
X-411350D01*
X-419100Y-553850D02*
Y-538350D01*
X-426850Y-355600D02*
X-411350D01*
X-419100Y-363350D02*
Y-347850D01*
X-426850Y-165100D02*
X-411350D01*
X-419100Y-172850D02*
Y-157350D01*
X-426850Y25400D02*
X-411350D01*
X-419100Y17650D02*
Y33150D01*
X-1305975Y-755660D02*
X-1290475D01*
X-1298225Y-763410D02*
Y-747910D01*
X-1238350Y55400D02*
X-1222850D01*
X-1230600Y47650D02*
Y63150D01*
X-1305975Y-546100D02*
X-1290475D01*
X-1298225Y-553850D02*
Y-538350D01*
X-617350Y25400D02*
X-601850D01*
X-609600Y17650D02*
Y33150D01*
X-617350Y-165100D02*
X-601850D01*
X-609600Y-172850D02*
Y-157350D01*
X-617350Y-355600D02*
X-601850D01*
X-609600Y-363350D02*
Y-347850D01*
X-617350Y-546100D02*
X-601850D01*
X-609600Y-553850D02*
Y-538350D01*
X-45850Y-546100D02*
X-30350D01*
X-38100Y-553850D02*
Y-538350D01*
X-45850Y-355600D02*
X-30350D01*
X-38100Y-363350D02*
Y-347850D01*
X-45850Y-165100D02*
X-30350D01*
X-38100Y-172850D02*
Y-157350D01*
X-45850Y25400D02*
X-30350D01*
X-38100Y17650D02*
Y33150D01*
X-489976Y297533D02*
X-484476D01*
X-487226Y294784D02*
Y300284D01*
X-1402492Y-426712D02*
X-1393492D01*
X-1397992Y-431212D02*
Y-422212D01*
X-1427892Y-426712D02*
X-1418892D01*
X-1423392Y-431212D02*
Y-422212D01*
X-1242475Y-520700D02*
X-1226975D01*
X-1234725Y-528450D02*
Y-512950D01*
X-1218075Y-571500D02*
X-1200575D01*
X-1209325Y-580250D02*
Y-562750D01*
X-1319675Y-571500D02*
X-1302175D01*
X-1310925Y-580250D02*
Y-562750D01*
X-1280625Y-571500D02*
X-1239625D01*
X-1260125Y-592000D02*
Y-551000D01*
X-600715Y196265D02*
X-570715D01*
X-585715Y181265D02*
Y211265D01*
X-1265413Y-285944D02*
X-1235413D01*
X-1250413Y-300944D02*
Y-270944D01*
X-1133192Y-874620D02*
X-1103192D01*
X-1118192Y-889620D02*
Y-859620D01*
X54694Y-874623D02*
X84694D01*
X69694Y-889623D02*
Y-859623D01*
X-279633Y-706149D02*
X-243633D01*
X-261633Y-724149D02*
Y-688149D01*
X-41844Y-706556D02*
X-5844D01*
X-23844Y-724556D02*
Y-688556D01*
X-43733Y-864927D02*
X-3733D01*
X-23733Y-884927D02*
Y-844927D01*
X-281964Y-864896D02*
X-241964D01*
X-261964Y-884896D02*
Y-844896D01*
X-672857Y-730262D02*
X-657356D01*
X-665107Y-738012D02*
Y-722512D01*
X-648456Y-781062D02*
X-630956D01*
X-639706Y-789812D02*
Y-772312D01*
X-750057Y-781062D02*
X-732557D01*
X-741307Y-789812D02*
Y-772312D01*
X-711006Y-781062D02*
X-670006D01*
X-690507Y-801562D02*
Y-760562D01*
X-744350Y50800D02*
X-728850D01*
X-736600Y43050D02*
Y58550D01*
X-719950Y0D02*
X-702450D01*
X-711200Y-8750D02*
Y8750D01*
X-821550Y0D02*
X-804050D01*
X-812800Y-8750D02*
Y8750D01*
X-782500Y0D02*
X-741500D01*
X-762000Y-20500D02*
Y20500D01*
X-872253Y-97500D02*
X-842253D01*
X-857253Y-112500D02*
Y-82500D01*
X-300753Y-97500D02*
X-270753D01*
X-285753Y-112500D02*
Y-82500D01*
X-300753Y-478500D02*
X-270753D01*
X-285753Y-493500D02*
Y-463500D01*
X-872253Y-478500D02*
X-842253D01*
X-857253Y-493500D02*
Y-463500D01*
X-517350Y324293D02*
X-507350D01*
X-512350Y319293D02*
Y329293D01*
X-586488Y335243D02*
X-576488D01*
X-581488Y330243D02*
Y340243D01*
X-493801Y343700D02*
X-488301D01*
X-491051Y340950D02*
Y346450D01*
X-534296Y350114D02*
X-528797D01*
X-531547Y347364D02*
Y352864D01*
X-564915Y354964D02*
X-559415D01*
X-562165Y352214D02*
Y357714D01*
X-1011643Y-330144D02*
X-996143D01*
X-1003893Y-337894D02*
Y-322394D01*
X-987243Y-380944D02*
X-969743D01*
X-978493Y-389694D02*
Y-372194D01*
X-1088843Y-380944D02*
X-1071343D01*
X-1080093Y-389694D02*
Y-372194D01*
X-1049793Y-380944D02*
X-1008793D01*
X-1029293Y-401444D02*
Y-360444D01*
X-20500Y0D02*
X20500D01*
X0Y-20500D02*
Y20500D01*
X-59550Y0D02*
X-42050D01*
X-50800Y-8750D02*
Y8750D01*
X42050Y0D02*
X59550D01*
X50800Y-8750D02*
Y8750D01*
X17650Y50800D02*
X33150D01*
X25400Y43050D02*
Y58550D01*
X17650Y-139700D02*
X33150D01*
X25400Y-147450D02*
Y-131950D01*
X42050Y-190500D02*
X59550D01*
X50800Y-199250D02*
Y-181750D01*
X-59550Y-190500D02*
X-42050D01*
X-50800Y-199250D02*
Y-181750D01*
X-20500Y-190500D02*
X20500D01*
X0Y-211000D02*
Y-170000D01*
X-20500Y-381000D02*
X20500D01*
X0Y-401500D02*
Y-360500D01*
X-59550Y-381000D02*
X-42050D01*
X-50800Y-389750D02*
Y-372250D01*
X42050Y-381000D02*
X59550D01*
X50800Y-389750D02*
Y-372250D01*
X17650Y-330200D02*
X33150D01*
X25400Y-337950D02*
Y-322450D01*
X17650Y-520700D02*
X33150D01*
X25400Y-528450D02*
Y-512950D01*
X42050Y-571500D02*
X59550D01*
X50800Y-580250D02*
Y-562750D01*
X-59550Y-571500D02*
X-42050D01*
X-50800Y-580250D02*
Y-562750D01*
X-20500Y-571500D02*
X20500D01*
X0Y-592000D02*
Y-551000D01*
X-211000Y0D02*
X-170000D01*
X-190500Y-20500D02*
Y20500D01*
X-250050Y0D02*
X-232550D01*
X-241300Y-8750D02*
Y8750D01*
X-148450Y0D02*
X-130950D01*
X-139700Y-8750D02*
Y8750D01*
X-172850Y50800D02*
X-157350D01*
X-165100Y43050D02*
Y58550D01*
X-172850Y-139700D02*
X-157350D01*
X-165100Y-147450D02*
Y-131950D01*
X-148450Y-190500D02*
X-130950D01*
X-139700Y-199250D02*
Y-181750D01*
X-250050Y-190500D02*
X-232550D01*
X-241300Y-199250D02*
Y-181750D01*
X-211000Y-190500D02*
X-170000D01*
X-190500Y-211000D02*
Y-170000D01*
X-211000Y-381000D02*
X-170000D01*
X-190500Y-401500D02*
Y-360500D01*
X-250050Y-381000D02*
X-232550D01*
X-241300Y-389750D02*
Y-372250D01*
X-148450Y-381000D02*
X-130950D01*
X-139700Y-389750D02*
Y-372250D01*
X-172850Y-330200D02*
X-157350D01*
X-165100Y-337950D02*
Y-322450D01*
X-172850Y-520700D02*
X-157350D01*
X-165100Y-528450D02*
Y-512950D01*
X-148450Y-571500D02*
X-130950D01*
X-139700Y-580250D02*
Y-562750D01*
X-250050Y-571500D02*
X-232550D01*
X-241300Y-580250D02*
Y-562750D01*
X-211000Y-571500D02*
X-170000D01*
X-190500Y-592000D02*
Y-551000D01*
X-163316Y-781057D02*
X-122316D01*
X-142816Y-801557D02*
Y-760557D01*
X-202365Y-781057D02*
X-184865D01*
X-193615Y-789807D02*
Y-772307D01*
X-100765Y-781057D02*
X-83265D01*
X-92015Y-789807D02*
Y-772307D01*
X-125166Y-730257D02*
X-109665D01*
X-117416Y-738007D02*
Y-722507D01*
X-363350Y50800D02*
X-347850D01*
X-355600Y43050D02*
Y58550D01*
X-338950Y0D02*
X-321450D01*
X-330200Y-8750D02*
Y8750D01*
X-440550Y0D02*
X-423050D01*
X-431800Y-8750D02*
Y8750D01*
X-401500Y0D02*
X-360500D01*
X-381000Y-20500D02*
Y20500D01*
X-401500Y-190500D02*
X-360500D01*
X-381000Y-211000D02*
Y-170000D01*
X-440550Y-190500D02*
X-423050D01*
X-431800Y-199250D02*
Y-181750D01*
X-338950Y-190500D02*
X-321450D01*
X-330200Y-199250D02*
Y-181750D01*
X-363350Y-139700D02*
X-347850D01*
X-355600Y-147450D02*
Y-131950D01*
X-434731Y-730262D02*
X-419231D01*
X-426982Y-738012D02*
Y-722512D01*
X-410331Y-781062D02*
X-392831D01*
X-401581Y-789812D02*
Y-772312D01*
X-511931Y-781062D02*
X-494431D01*
X-503181Y-789812D02*
Y-772312D01*
X-472882Y-781062D02*
X-431881D01*
X-452382Y-801562D02*
Y-760562D01*
X-592000Y0D02*
X-551000D01*
X-571500Y-20500D02*
Y20500D01*
X-631050Y0D02*
X-613550D01*
X-622300Y-8750D02*
Y8750D01*
X-529450Y0D02*
X-511950D01*
X-520700Y-8750D02*
Y8750D01*
X-553850Y50800D02*
X-538350D01*
X-546100Y43050D02*
Y58550D01*
X-553850Y-139700D02*
X-538350D01*
X-546100Y-147450D02*
Y-131950D01*
X-529450Y-190500D02*
X-511950D01*
X-520700Y-199250D02*
Y-181750D01*
X-631050Y-190500D02*
X-613550D01*
X-622300Y-199250D02*
Y-181750D01*
X-592000Y-190500D02*
X-551000D01*
X-571500Y-211000D02*
Y-170000D01*
X-592000Y-381000D02*
X-551000D01*
X-571500Y-401500D02*
Y-360500D01*
X-631050Y-381000D02*
X-613550D01*
X-622300Y-389750D02*
Y-372250D01*
X-529450Y-381000D02*
X-511950D01*
X-520700Y-389750D02*
Y-372250D01*
X-553850Y-330200D02*
X-538350D01*
X-546100Y-337950D02*
Y-322450D01*
X-553850Y-520700D02*
X-538350D01*
X-546100Y-528450D02*
Y-512950D01*
X-529450Y-571500D02*
X-511950D01*
X-520700Y-580250D02*
Y-562750D01*
X-631050Y-571500D02*
X-613550D01*
X-622300Y-580250D02*
Y-562750D01*
X-592000Y-571500D02*
X-551000D01*
X-571500Y-592000D02*
Y-551000D01*
X-744350Y-139700D02*
X-728850D01*
X-736600Y-147450D02*
Y-131950D01*
X-719950Y-190500D02*
X-702450D01*
X-711200Y-199250D02*
Y-181750D01*
X-821550Y-190500D02*
X-804050D01*
X-812800Y-199250D02*
Y-181750D01*
X-782500Y-190500D02*
X-741500D01*
X-762000Y-211000D02*
Y-170000D01*
X-782500Y-381000D02*
X-741500D01*
X-762000Y-401500D02*
Y-360500D01*
X-821550Y-381000D02*
X-804050D01*
X-812800Y-389750D02*
Y-372250D01*
X-719950Y-381000D02*
X-702450D01*
X-711200Y-389750D02*
Y-372250D01*
X-744350Y-330200D02*
X-728850D01*
X-736600Y-337950D02*
Y-322450D01*
X-744350Y-520700D02*
X-728850D01*
X-736600Y-528450D02*
Y-512950D01*
X-719950Y-571500D02*
X-702450D01*
X-711200Y-580250D02*
Y-562750D01*
X-821550Y-571500D02*
X-804050D01*
X-812800Y-580250D02*
Y-562750D01*
X-782500Y-571500D02*
X-741500D01*
X-762000Y-592000D02*
Y-551000D01*
X-934850Y50800D02*
X-919350D01*
X-927100Y43050D02*
Y58550D01*
X-910450Y0D02*
X-892950D01*
X-901700Y-8750D02*
Y8750D01*
X-1012050Y0D02*
X-994550D01*
X-1003300Y-8750D02*
Y8750D01*
X-973000Y0D02*
X-932000D01*
X-952500Y-20500D02*
Y20500D01*
X-1020556Y-190500D02*
X-979557D01*
X-1000057Y-211000D02*
Y-170000D01*
X-1059606Y-190500D02*
X-1042106D01*
X-1050856Y-199250D02*
Y-181750D01*
X-958007Y-190500D02*
X-940507D01*
X-949257Y-199250D02*
Y-181750D01*
X-982406Y-139700D02*
X-966907D01*
X-974657Y-147450D02*
Y-131950D01*
X-996759Y-571498D02*
X-955760D01*
X-976260Y-591998D02*
Y-550998D01*
X-1035809Y-571498D02*
X-1018309D01*
X-1027059Y-580248D02*
Y-562748D01*
X-934210Y-571498D02*
X-916710D01*
X-925460Y-580248D02*
Y-562748D01*
X-958609Y-520698D02*
X-943110D01*
X-950860Y-528448D02*
Y-512948D01*
X-958609Y-730257D02*
X-943110D01*
X-950860Y-738007D02*
Y-722507D01*
X-934210Y-781057D02*
X-916710D01*
X-925460Y-789807D02*
Y-772307D01*
X-1035809Y-781057D02*
X-1018309D01*
X-1027059Y-789807D02*
Y-772307D01*
X-996759Y-781057D02*
X-955760D01*
X-976260Y-801557D02*
Y-760557D01*
X-1213000Y30000D02*
X-1172000D01*
X-1192500Y9500D02*
Y50500D01*
X-1252050Y30000D02*
X-1234550D01*
X-1243300Y21250D02*
Y38750D01*
X-1150450Y30000D02*
X-1132950D01*
X-1141700Y21250D02*
Y38750D01*
X-1174850Y80800D02*
X-1159350D01*
X-1167100Y73050D02*
Y88550D01*
X-1242475Y-730260D02*
X-1226975D01*
X-1234725Y-738010D02*
Y-722510D01*
X-1218075Y-781060D02*
X-1200575D01*
X-1209325Y-789810D02*
Y-772310D01*
X-1319675Y-781060D02*
X-1302175D01*
X-1310925Y-789810D02*
Y-772310D01*
X-1280625Y-781060D02*
X-1239625D01*
X-1260125Y-801560D02*
Y-760560D01*
X-401500Y-571500D02*
X-360500D01*
X-381000Y-592000D02*
Y-551000D01*
X-440550Y-571500D02*
X-423050D01*
X-431800Y-580250D02*
Y-562750D01*
X-338950Y-571500D02*
X-321450D01*
X-330200Y-580250D02*
Y-562750D01*
X-363350Y-520700D02*
X-347850D01*
X-355600Y-528450D02*
Y-512950D01*
X-363350Y-330200D02*
X-347850D01*
X-355600Y-337950D02*
Y-322450D01*
X-338950Y-381000D02*
X-321450D01*
X-330200Y-389750D02*
Y-372250D01*
X-440550Y-381000D02*
X-423050D01*
X-431800Y-389750D02*
Y-372250D01*
X-401500Y-381000D02*
X-360500D01*
X-381000Y-401500D02*
Y-360500D01*
X-1244000Y-90000D02*
X-1241000D01*
X-1242500Y-91500D02*
Y-88500D01*
X-446750Y260000D02*
X-443750D01*
X-445250Y258500D02*
Y261500D01*
X-438089Y34025D02*
X-435089D01*
X-436589Y32525D02*
Y35525D01*
X-468339Y-123234D02*
X-465339D01*
X-466839Y-124734D02*
Y-121734D01*
X-689000Y-222748D02*
X-686000D01*
X-687500Y-224248D02*
Y-221248D01*
X-541253Y-225841D02*
X-538253D01*
X-539753Y-227341D02*
Y-224341D01*
X-274093Y-235152D02*
X-271093D01*
X-272593Y-236653D02*
Y-233652D01*
X-204000Y-235152D02*
X-201000D01*
X-202500Y-236653D02*
Y-233652D01*
X-121500Y-240016D02*
X-118500D01*
X-120000Y-241516D02*
Y-238516D01*
X13500Y-235152D02*
X16500D01*
X15000Y-236653D02*
Y-233652D01*
X-327667Y-217789D02*
X-324667D01*
X-326167Y-219289D02*
Y-216289D01*
X-413673Y-205000D02*
X-410673D01*
X-412173Y-206500D02*
Y-203500D01*
X-483967Y-170365D02*
X-480967D01*
X-482467Y-171865D02*
Y-168865D01*
X-473368Y-215645D02*
X-470368D01*
X-471868Y-217145D02*
Y-214145D01*
X-49918Y-235283D02*
X-46918D01*
X-48418Y-236783D02*
Y-233783D01*
X-31500Y-235152D02*
X-28500D01*
X-30000Y-236653D02*
Y-233652D01*
X-229783Y248890D02*
X-226783D01*
X-228283Y247390D02*
Y250390D01*
X-1244800Y-75000D02*
X-1241800D01*
X-1243300Y-76500D02*
Y-73500D01*
X-482589Y174922D02*
X-479589D01*
X-481089Y173422D02*
Y176422D01*
X-219529Y269213D02*
X-216529D01*
X-218029Y267713D02*
Y270713D01*
X-431399Y203396D02*
X-428399D01*
X-429899Y201896D02*
Y204896D01*
X-459839Y-123234D02*
X-456839D01*
X-458339Y-124734D02*
Y-121734D01*
X-511500Y-237841D02*
X-508500D01*
X-510000Y-239341D02*
Y-236341D01*
X-712700Y-230400D02*
X-709700D01*
X-711200Y-231900D02*
Y-228900D01*
X-321500Y-265000D02*
X-318500D01*
X-320000Y-266500D02*
Y-263500D01*
X-242800Y-265000D02*
X-239800D01*
X-241300Y-266500D02*
Y-263500D01*
X-203878Y-265139D02*
X-200878D01*
X-202378Y-266639D02*
Y-263639D01*
X-406500Y-225841D02*
X-403500D01*
X-405000Y-227341D02*
Y-224341D01*
X-368381Y-235903D02*
X-365381D01*
X-366881Y-237402D02*
Y-234403D01*
X-91500Y-233766D02*
X-88500D01*
X-90000Y-235266D02*
Y-232266D01*
X-477717Y-176375D02*
X-474717D01*
X-476217Y-177875D02*
Y-174875D01*
X-460591Y-235000D02*
X-457591D01*
X-459091Y-236500D02*
Y-233500D01*
X-662103Y-234748D02*
X-659103D01*
X-660603Y-236248D02*
Y-233248D01*
X-46500Y-227500D02*
X-43500D01*
X-45000Y-229000D02*
Y-226000D01*
X-485339Y-123234D02*
X-482339D01*
X-483839Y-124734D02*
Y-121734D01*
X-706214Y-237500D02*
X-703214D01*
X-704714Y-239000D02*
Y-236000D01*
X-601335Y-238748D02*
X-598335D01*
X-599835Y-240248D02*
Y-237248D01*
X-374000Y-244840D02*
X-371000D01*
X-372500Y-246340D02*
Y-243340D01*
X-51500Y-265424D02*
X-48500D01*
X-50000Y-266924D02*
Y-263924D01*
X-406500Y-235000D02*
X-403500D01*
X-405000Y-236500D02*
Y-233500D01*
X-312696Y-223921D02*
X-309696D01*
X-311196Y-225421D02*
Y-222421D01*
X-181500Y-240016D02*
X-178500D01*
X-180000Y-241516D02*
Y-238516D01*
X-142461Y-241402D02*
X-139461D01*
X-140961Y-242903D02*
Y-239902D01*
X-206500Y-221768D02*
X-203500D01*
X-205000Y-223268D02*
Y-220268D01*
X-181500Y-221768D02*
X-178500D01*
X-180000Y-223268D02*
Y-220268D01*
X-496227Y-158344D02*
X-493227D01*
X-494727Y-159844D02*
Y-156844D01*
X-493000Y-244091D02*
X-490000D01*
X-491500Y-245591D02*
Y-242591D01*
X-451439Y-235136D02*
X-448439D01*
X-449939Y-236636D02*
Y-233636D01*
X-493000Y-216448D02*
X-490000D01*
X-491500Y-217948D02*
Y-214949D01*
X-468339Y274970D02*
X-465339D01*
X-466839Y273470D02*
Y276470D01*
X-491069Y165334D02*
X-488069D01*
X-489569Y163834D02*
Y166834D01*
X-451339Y-123234D02*
X-448339D01*
X-449839Y-124734D02*
Y-121734D01*
X-631500Y-226748D02*
X-628500D01*
X-630000Y-228248D02*
Y-225248D01*
X-696500Y-215000D02*
X-693500D01*
X-695000Y-216500D02*
Y-213500D01*
X-328454Y-228445D02*
X-325454D01*
X-326954Y-229945D02*
Y-226945D01*
X-368324Y-221571D02*
X-365324D01*
X-366824Y-223071D02*
Y-220071D01*
X-211500Y-241402D02*
X-208500D01*
X-210000Y-242903D02*
Y-239902D01*
X-66500Y-226083D02*
X-63500D01*
X-65000Y-227583D02*
Y-224583D01*
X-142461Y-226083D02*
X-139461D01*
X-140961Y-227583D02*
Y-224583D01*
X-412347Y-213676D02*
X-409347D01*
X-410847Y-215176D02*
Y-212176D01*
X-476605Y-186805D02*
X-473605D01*
X-475105Y-188305D02*
Y-185305D01*
X-465950Y-220886D02*
X-462950D01*
X-464450Y-222386D02*
Y-219386D01*
X-438089Y54600D02*
X-435089D01*
X-436589Y53100D02*
Y56100D01*
X-228158Y266500D02*
X-225158D01*
X-226658Y265000D02*
Y268000D01*
X-476839Y-123234D02*
X-473839D01*
X-475339Y-124734D02*
Y-121734D01*
X-571683Y-232647D02*
X-568683D01*
X-570183Y-234147D02*
Y-231147D01*
X-706500Y-222500D02*
X-703500D01*
X-705000Y-224000D02*
Y-221000D01*
X-311500Y-253000D02*
X-308500D01*
X-310000Y-254500D02*
Y-251500D01*
X-333193Y-235501D02*
X-330193D01*
X-331693Y-237001D02*
Y-234002D01*
X-374511Y-227419D02*
X-371511D01*
X-373011Y-228919D02*
Y-225919D01*
X-51500Y-275000D02*
X-48500D01*
X-50000Y-276500D02*
Y-273500D01*
X-200130Y-252500D02*
X-197130D01*
X-198630Y-254000D02*
Y-251000D01*
X-143441Y-261821D02*
X-140441D01*
X-141941Y-263321D02*
Y-260321D01*
X-404000Y-217277D02*
X-401000D01*
X-402500Y-218777D02*
Y-215777D01*
X-489977Y-164354D02*
X-486977D01*
X-488477Y-165854D02*
Y-162854D01*
X-484293Y-213233D02*
X-481293D01*
X-482793Y-214733D02*
Y-211733D01*
X-471441Y-231932D02*
X-468441D01*
X-469941Y-233432D02*
Y-230432D01*
X-486565Y-233316D02*
X-483565D01*
X-485065Y-234816D02*
Y-231816D01*
X-223600Y48281D02*
X-220600D01*
X-222100Y46781D02*
Y49781D01*
X-227350Y257062D02*
X-224350D01*
X-225850Y255562D02*
Y258562D01*
X-650915Y98670D02*
X-647915D01*
X-649415Y97170D02*
Y100169D01*
X-647522Y107608D02*
X-644522D01*
X-646022Y106109D02*
Y109108D01*
X-1108985Y101980D02*
X-1105985D01*
X-1107485Y100480D02*
Y103480D01*
X-1281469Y16201D02*
X-1278469D01*
X-1279969Y14701D02*
Y17701D01*
X-1377586Y-467669D02*
X-1374586D01*
X-1376086Y-469169D02*
Y-466169D01*
X-1349000Y-676968D02*
X-1346000D01*
X-1347500Y-678468D02*
Y-675468D01*
X-1349000Y-846807D02*
X-1346000D01*
X-1347500Y-848307D02*
Y-845307D01*
X-1316253Y-892123D02*
X-1313253D01*
X-1314753Y-893623D02*
Y-890623D01*
X85694Y-97234D02*
X88694D01*
X87194Y-98734D02*
Y-95734D01*
X85694Y-475770D02*
X88694D01*
X87194Y-477270D02*
Y-474270D01*
X85694Y-678245D02*
X88694D01*
X87194Y-679745D02*
Y-676745D01*
X85694Y-849282D02*
X88694D01*
X87194Y-850782D02*
Y-847782D01*
X40513Y-892123D02*
X43513D01*
X42013Y-893623D02*
Y-890623D01*
X-298094Y-892123D02*
X-295094D01*
X-296594Y-893623D02*
Y-890623D01*
X-1092126Y-892123D02*
X-1089126D01*
X-1090626Y-893623D02*
Y-890623D01*
X-1151541Y-892123D02*
X-1148541D01*
X-1150041Y-893623D02*
Y-890623D01*
X79350Y107093D02*
X82350D01*
X80850Y105593D02*
Y108593D01*
X-764092Y87500D02*
X-761092D01*
X-762592Y86000D02*
Y89000D01*
X-748859Y26670D02*
X-745859D01*
X-747359Y25170D02*
Y28170D01*
X-704424Y57906D02*
X-701424D01*
X-702924Y56406D02*
Y59406D01*
X-869490Y19230D02*
X-866490D01*
X-867990Y17730D02*
Y20730D01*
X-268510Y358266D02*
X-265510D01*
X-267010Y356766D02*
Y359766D01*
X-217010Y347018D02*
X-214010D01*
X-215510Y345518D02*
Y348518D01*
X30528Y102991D02*
X33528D01*
X32028Y101491D02*
Y104491D01*
X38003Y107038D02*
X41003D01*
X39504Y105538D02*
Y108538D01*
X23027Y98994D02*
X26027D01*
X24527Y97494D02*
Y100494D01*
X-508378Y307016D02*
X-505378D01*
X-506878Y305516D02*
Y308516D01*
X-442089Y12700D02*
X-439089D01*
X-440589Y11200D02*
Y14200D01*
X-446089Y114810D02*
X-443089D01*
X-444589Y113310D02*
Y116311D01*
X-334556Y179672D02*
X-331556D01*
X-333056Y178172D02*
Y181172D01*
X-182403Y191672D02*
X-179403D01*
X-180903Y190172D02*
Y193172D01*
X-340806Y157422D02*
X-337806D01*
X-339306Y155922D02*
Y158922D01*
X-276436Y148776D02*
X-273436D01*
X-274936Y147276D02*
Y150276D01*
X-287428Y135672D02*
X-284428D01*
X-285928Y134172D02*
Y137172D01*
X-269052Y153354D02*
X-266052D01*
X-267552Y151854D02*
Y154854D01*
X-284898Y168176D02*
X-281898D01*
X-283398Y166676D02*
Y169676D01*
X-260078Y185558D02*
X-257078D01*
X-258578Y184058D02*
Y187058D01*
X-315854Y146757D02*
X-312854D01*
X-314354Y145257D02*
Y148257D01*
X-329238Y140878D02*
X-326238D01*
X-327738Y139378D02*
Y142378D01*
X-321939Y121422D02*
X-318939D01*
X-320439Y119922D02*
Y122922D01*
X-325450Y113422D02*
X-322450D01*
X-323950Y111922D02*
Y114922D01*
X-286995Y98032D02*
X-283995D01*
X-285495Y96532D02*
Y99532D01*
X-282441Y81301D02*
X-279442D01*
X-280941Y79802D02*
Y82802D01*
X-487035Y139521D02*
X-484035D01*
X-485535Y138021D02*
Y141021D01*
X-453000Y125422D02*
X-450000D01*
X-451500Y123922D02*
Y126922D01*
X-342345Y110134D02*
X-339345D01*
X-340845Y108634D02*
Y111634D01*
X-487096Y129914D02*
X-484096D01*
X-485596Y128414D02*
Y131414D01*
X-482589Y154847D02*
X-479589D01*
X-481089Y153348D02*
Y156348D01*
X-294016Y167668D02*
X-291016D01*
X-292516Y166168D02*
Y169168D01*
X-274369Y102512D02*
X-271369D01*
X-272869Y101012D02*
Y104012D01*
X-513247Y111896D02*
X-510247D01*
X-511747Y110396D02*
Y113396D01*
X-232000Y185922D02*
X-229000D01*
X-230500Y184422D02*
Y187422D01*
X-233600Y97802D02*
X-230600D01*
X-232100Y96301D02*
Y99302D01*
X-500186Y111896D02*
X-497186D01*
X-498686Y110396D02*
Y113396D01*
X-486589Y113422D02*
X-483589D01*
X-485089Y111922D02*
Y114922D01*
X-266676Y65262D02*
X-263676D01*
X-265176Y63762D02*
Y66761D01*
X-180597Y81301D02*
X-177598D01*
X-179097Y79802D02*
Y82802D01*
X-249000Y81301D02*
X-246000D01*
X-247500Y79802D02*
Y82802D01*
X-259000Y81301D02*
X-256000D01*
X-257500Y79802D02*
Y82802D01*
X-169774Y106814D02*
X-166774D01*
X-168274Y105314D02*
Y108314D01*
X-178251Y106190D02*
X-175251D01*
X-176751Y104690D02*
Y107690D01*
X-154182Y187417D02*
X-151182D01*
X-152682Y185917D02*
Y188917D01*
X-144032Y95164D02*
X-141032D01*
X-142532Y93664D02*
Y96664D01*
X-156519Y95738D02*
X-153519D01*
X-155019Y94238D02*
Y97238D01*
X-452500Y173422D02*
X-449500D01*
X-451000Y171922D02*
Y174922D01*
X-449000Y85302D02*
X-446000D01*
X-447500Y83801D02*
Y86802D01*
X-170238Y80000D02*
X-167238D01*
X-168738Y78500D02*
Y81500D01*
X-164086Y91552D02*
X-161086D01*
X-162586Y90051D02*
Y93052D01*
X-122626Y315292D02*
X-119626D01*
X-121126Y313792D02*
Y316792D01*
X-86745Y329505D02*
X-83745D01*
X-85245Y328005D02*
Y331005D01*
X-131398Y288175D02*
X-128398D01*
X-129898Y286675D02*
Y289675D01*
X-136629Y205290D02*
X-133630D01*
X-135129Y203790D02*
Y206790D01*
X-139100Y132441D02*
X-136100D01*
X-137600Y130941D02*
Y133941D01*
X-134249Y194950D02*
X-131249D01*
X-132749Y193450D02*
Y196450D01*
X-127856Y189348D02*
X-124856D01*
X-126356Y187848D02*
Y190848D01*
X-121358Y182530D02*
X-118358D01*
X-119858Y181030D02*
Y184030D01*
X-112027Y178307D02*
X-109027D01*
X-110527Y176807D02*
Y179806D01*
X-103991Y175538D02*
X-100991D01*
X-102491Y174038D02*
Y177038D01*
X-97291Y170307D02*
X-94291D01*
X-95792Y168807D02*
Y171807D01*
X-87562Y166307D02*
X-84562D01*
X-86061Y164807D02*
Y167807D01*
X-77916Y163188D02*
X-74916D01*
X-76416Y161688D02*
Y164688D01*
X-70749Y158619D02*
X-67749D01*
X-69249Y157119D02*
Y160119D01*
X-62810Y155581D02*
X-59810D01*
X-61310Y154081D02*
Y157081D01*
X-56560Y131672D02*
X-53560D01*
X-55060Y130172D02*
Y133172D01*
X-36488Y131672D02*
X-33488D01*
X-34988Y130172D02*
Y133172D01*
X-25316Y133590D02*
X-22316D01*
X-23816Y132090D02*
Y135090D01*
X-25445Y142089D02*
X-22445D01*
X-23945Y140589D02*
Y143589D01*
X-7223Y138362D02*
X-4223D01*
X-5723Y136862D02*
Y139862D01*
X-21253Y149483D02*
X-18253D01*
X-19753Y147983D02*
Y150983D01*
X-11890Y103172D02*
X-8891D01*
X-10390Y101672D02*
Y104672D01*
X-4530Y86828D02*
X-1530D01*
X-3030Y85328D02*
Y88328D01*
X2292Y131382D02*
X5292D01*
X3792Y129882D02*
Y132882D01*
X1728Y115672D02*
X4728D01*
X3228Y114172D02*
Y117172D01*
X18257Y115672D02*
X21257D01*
X19757Y114172D02*
Y117172D01*
X16502Y72500D02*
X19503D01*
X18003Y71000D02*
Y74000D01*
X15775Y92922D02*
X18775D01*
X17275Y91422D02*
Y94422D01*
X-109712Y257844D02*
X-106712D01*
X-108212Y256344D02*
Y259344D01*
X-82212Y300927D02*
X-79212D01*
X-80711Y299427D02*
Y302427D01*
X-72703Y311757D02*
X-69703D01*
X-71203Y310257D02*
Y313257D01*
X-63953Y224120D02*
X-60953D01*
X-62453Y222620D02*
Y225620D01*
X-80446Y235356D02*
X-77446D01*
X-78946Y233856D02*
Y236856D01*
X-20287Y276503D02*
X-17287D01*
X-18787Y275003D02*
Y278003D01*
X-98288Y269213D02*
X-95288D01*
X-96788Y267713D02*
Y270713D01*
X-82879Y277454D02*
X-79879D01*
X-81378Y275954D02*
Y278954D01*
X-66608Y280793D02*
X-63608D01*
X-65108Y279293D02*
Y282293D01*
X-61902Y251223D02*
X-58903D01*
X-60402Y249723D02*
Y252723D01*
X-5262Y313413D02*
X-2262D01*
X-3762Y311913D02*
Y314913D01*
X-45938Y206709D02*
X-42938D01*
X-44438Y205209D02*
Y208209D01*
X-30710Y226133D02*
X-27710D01*
X-29210Y224633D02*
Y227633D01*
X-29281Y246664D02*
X-26281D01*
X-27781Y245164D02*
Y248164D01*
X-3867Y239595D02*
X-867D01*
X-2367Y238095D02*
Y241095D01*
X13915Y237738D02*
X16915D01*
X15415Y236238D02*
Y239238D01*
X-6813Y208307D02*
X-3813D01*
X-5313Y206807D02*
Y209807D01*
X15977Y300214D02*
X18977D01*
X17477Y298714D02*
Y301714D01*
X21061Y232672D02*
X24061D01*
X22561Y231172D02*
Y234172D01*
X-488726Y104759D02*
X-485726D01*
X-487226Y103259D02*
Y106259D01*
X-489977Y52930D02*
X-486977D01*
X-488477Y51430D02*
Y54430D01*
X-486589Y95929D02*
X-483589D01*
X-485089Y94429D02*
Y97429D01*
X-487285Y87458D02*
X-484285D01*
X-485785Y85957D02*
Y88958D01*
X-492183Y77980D02*
X-489183D01*
X-490683Y76480D02*
Y79480D01*
X-486589Y71581D02*
X-483589D01*
X-485089Y70081D02*
Y73081D01*
X-487035Y61717D02*
X-484035D01*
X-485535Y60217D02*
Y63217D01*
X-682858Y-215069D02*
X-679858D01*
X-681358Y-216569D02*
Y-213569D01*
X-836559Y19230D02*
X-833559D01*
X-835059Y17730D02*
Y20730D01*
X-653000Y-213988D02*
X-650000D01*
X-651500Y-215488D02*
Y-212488D01*
X-496227Y-128016D02*
X-493227D01*
X-494727Y-129516D02*
Y-126516D01*
X-701500Y-287500D02*
X-698500D01*
X-700000Y-289000D02*
Y-286000D01*
X-855924Y-310000D02*
X-852924D01*
X-854424Y-311500D02*
Y-308500D01*
X-854000Y-286500D02*
X-851000D01*
X-852500Y-288000D02*
Y-285000D01*
X-90363Y223222D02*
X-87363D01*
X-88863Y221722D02*
Y224722D01*
X-80777Y204216D02*
X-77777D01*
X-79277Y202715D02*
Y205716D01*
X1824Y253980D02*
X4824D01*
X3324Y252480D02*
Y255480D01*
X29375Y269425D02*
X32375D01*
X30875Y267925D02*
Y270925D01*
X-62311Y305948D02*
X-59311D01*
X-60811Y304448D02*
Y307448D01*
X-51406Y283591D02*
X-48406D01*
X-49906Y282090D02*
Y285091D01*
X-54648Y297255D02*
X-51648D01*
X-53148Y295755D02*
Y298755D01*
X-27468Y307104D02*
X-24468D01*
X-25968Y305604D02*
Y308604D01*
X-10350Y281509D02*
X-7350D01*
X-8850Y280009D02*
Y283009D01*
X-1233Y292531D02*
X1767D01*
X267Y291031D02*
Y294031D01*
X15977Y261248D02*
X18977D01*
X17477Y259748D02*
Y262749D01*
X-1024000Y-447500D02*
X-1021000D01*
X-1022500Y-449000D02*
Y-446000D01*
X-1052432Y-447689D02*
X-1049432D01*
X-1050932Y-449189D02*
Y-446189D01*
X-824350Y-135000D02*
X-821350D01*
X-822850Y-136500D02*
Y-133500D01*
X-1027975Y-457500D02*
X-1024975D01*
X-1026475Y-459000D02*
Y-456000D01*
X-1027975Y-467500D02*
X-1024975D01*
X-1026475Y-469000D02*
Y-466000D01*
X-1051500Y-457500D02*
X-1048500D01*
X-1050000Y-459000D02*
Y-456000D01*
X-1047165Y-467572D02*
X-1044165D01*
X-1045665Y-469072D02*
Y-466072D01*
X-811500Y-302000D02*
X-808500D01*
X-810000Y-303500D02*
Y-300500D01*
X-791500Y-287500D02*
X-788500D01*
X-790000Y-289000D02*
Y-286000D01*
X-761500Y-287500D02*
X-758500D01*
X-760000Y-289000D02*
Y-286000D01*
X-731500Y-287500D02*
X-728500D01*
X-730000Y-289000D02*
Y-286000D01*
X-631500Y-300000D02*
X-628500D01*
X-630000Y-301500D02*
Y-298500D01*
X-571500Y-273894D02*
X-568500D01*
X-570000Y-275394D02*
Y-272394D01*
X-601500Y-273894D02*
X-598500D01*
X-600000Y-275394D02*
Y-272394D01*
X-541500Y-273894D02*
X-538500D01*
X-540000Y-275394D02*
Y-272394D01*
X-511500Y-272894D02*
X-508500D01*
X-510000Y-274394D02*
Y-271394D01*
X-421500Y-302500D02*
X-418500D01*
X-420000Y-304000D02*
Y-301000D01*
X-391500Y-302500D02*
X-388500D01*
X-390000Y-304000D02*
Y-301000D01*
X-121500Y-302500D02*
X-118500D01*
X-120000Y-304000D02*
Y-301000D01*
X-241500Y-302500D02*
X-238500D01*
X-240000Y-304000D02*
Y-301000D01*
X-271500Y-302500D02*
X-268500D01*
X-270000Y-304000D02*
Y-301000D01*
X-841500Y-302500D02*
X-838500D01*
X-840000Y-304000D02*
Y-301000D01*
X-661500Y-302500D02*
X-658500D01*
X-660000Y-304000D02*
Y-301000D01*
X-481500Y-302500D02*
X-478500D01*
X-480000Y-304000D02*
Y-301000D01*
X-451500Y-302500D02*
X-448500D01*
X-450000Y-304000D02*
Y-301000D01*
X-361500Y-302500D02*
X-358500D01*
X-360000Y-304000D02*
Y-301000D01*
X-331500Y-302500D02*
X-328500D01*
X-330000Y-304000D02*
Y-301000D01*
X-301500Y-302500D02*
X-298500D01*
X-300000Y-304000D02*
Y-301000D01*
X-211500Y-302500D02*
X-208500D01*
X-210000Y-304000D02*
Y-301000D01*
X-31500Y-302500D02*
X-28500D01*
X-30000Y-304000D02*
Y-301000D01*
X-181500Y-302500D02*
X-178500D01*
X-180000Y-304000D02*
Y-301000D01*
X-151500Y-302500D02*
X-148500D01*
X-150000Y-304000D02*
Y-301000D01*
X-91500Y-302500D02*
X-88500D01*
X-90000Y-304000D02*
Y-301000D01*
X-61500Y-302500D02*
X-58500D01*
X-60000Y-304000D02*
Y-301000D01*
X28500Y-302500D02*
X31500D01*
X30000Y-304000D02*
Y-301000D01*
X-1500Y-302500D02*
X1500D01*
X0Y-304000D02*
Y-301000D01*
X58500Y-302500D02*
X61500D01*
X60000Y-304000D02*
Y-301000D01*
M02*
