G04*
G04 #@! TF.GenerationSoftware,Altium Limited,Altium Designer,25.7.1 (20)*
G04*
G04 Layer_Color=32896*
%FSLAX44Y44*%
%MOMM*%
G71*
G04*
G04 #@! TF.SameCoordinates,6D1EC6EB-D4D1-4485-8440-CF1E71E7DC7E*
G04*
G04*
G04 #@! TF.FilePolarity,Positive*
G04*
G01*
G75*
%ADD10C,0.2000*%
%ADD12C,0.2500*%
%ADD15C,0.3000*%
%ADD86C,0.1500*%
%ADD112C,1.3110*%
%ADD113C,1.0488*%
%ADD114C,0.0789*%
G36*
X-437467Y380085D02*
X-437265D01*
Y379682D01*
X-437064D01*
Y375044D01*
X-436862D01*
Y371617D01*
X-436660D01*
Y370609D01*
X-436459D01*
Y369802D01*
X-436257D01*
Y368592D01*
X-436055D01*
Y367988D01*
X-435854D01*
Y367584D01*
X-435652D01*
Y366576D01*
X-435451D01*
Y366173D01*
X-435249D01*
Y365568D01*
X-435047D01*
Y364560D01*
X-434846D01*
Y363955D01*
X-434644D01*
Y363350D01*
X-434442D01*
Y361939D01*
X-434241D01*
Y360326D01*
X-434039D01*
Y358108D01*
X-434241D01*
Y356697D01*
X-434442D01*
Y355285D01*
X-434644D01*
Y354479D01*
X-434846D01*
Y353672D01*
X-435047D01*
Y352664D01*
X-435249D01*
Y352261D01*
X-435451D01*
Y351656D01*
X-435652D01*
Y350648D01*
X-435854D01*
Y350043D01*
X-436055D01*
Y349438D01*
X-436257D01*
Y348027D01*
X-436459D01*
Y344599D01*
X-436257D01*
Y343793D01*
X-436055D01*
Y343390D01*
X-435854D01*
Y342986D01*
X-435652D01*
Y342583D01*
X-435451D01*
Y342382D01*
X-435249D01*
Y341978D01*
X-435047D01*
Y341777D01*
X-434846D01*
Y341575D01*
X-434644D01*
Y341172D01*
X-434442D01*
Y340970D01*
X-434241D01*
Y340769D01*
X-434039D01*
Y340567D01*
X-433838D01*
Y340365D01*
X-433636D01*
Y340164D01*
X-433434D01*
Y339962D01*
X-433233D01*
Y339760D01*
X-433031D01*
Y339559D01*
X-432830D01*
Y339357D01*
X-432628D01*
Y339156D01*
X-432426D01*
Y338954D01*
X-432225D01*
Y338752D01*
X-432023D01*
Y338551D01*
X-431821D01*
Y338349D01*
X-431620D01*
Y338147D01*
X-431418D01*
Y337946D01*
X-431217D01*
Y337744D01*
X-431015D01*
Y337542D01*
X-430612D01*
Y337341D01*
X-430410D01*
Y337139D01*
X-430209D01*
Y336938D01*
X-430007D01*
Y336736D01*
X-429604D01*
Y336333D01*
X-429200D01*
Y336131D01*
X-428999D01*
Y335929D01*
X-428797D01*
Y335728D01*
X-428394D01*
Y335526D01*
X-428192D01*
Y335325D01*
X-427991D01*
Y335123D01*
X-427789D01*
Y334921D01*
X-427587D01*
Y334720D01*
X-427184D01*
Y334518D01*
X-426982D01*
Y334316D01*
X-426781D01*
Y334115D01*
X-426579D01*
Y333913D01*
X-426176D01*
Y333712D01*
X-425974D01*
Y333510D01*
X-425773D01*
Y333308D01*
X-425369D01*
Y332905D01*
X-425168D01*
Y332704D01*
X-424765D01*
Y332502D01*
X-424563D01*
Y332300D01*
X-424361D01*
Y332099D01*
X-423958D01*
Y331897D01*
X-423756D01*
Y331695D01*
X-423555D01*
Y331494D01*
X-423152D01*
Y331292D01*
X-422950D01*
Y331091D01*
X-422748D01*
Y330889D01*
X-422547D01*
Y330687D01*
X-422345D01*
Y330486D01*
X-422144D01*
Y330284D01*
X-421740D01*
Y330082D01*
X-421539D01*
Y329881D01*
X-421337D01*
Y329679D01*
X-421135D01*
Y329478D01*
X-420732D01*
Y329276D01*
X-420531D01*
Y329074D01*
X-420329D01*
Y328873D01*
X-420127D01*
Y328671D01*
X-419926D01*
Y328469D01*
X-419522D01*
Y328268D01*
X-419321D01*
Y327865D01*
X-418918D01*
Y327663D01*
X-418716D01*
Y327461D01*
X-418514D01*
Y327260D01*
X-418313D01*
Y327058D01*
X-418111D01*
Y326856D01*
X-417910D01*
Y326655D01*
X-417708D01*
Y326453D01*
X-417506D01*
Y326252D01*
X-417305D01*
Y326050D01*
X-417103D01*
Y325848D01*
X-416901D01*
Y325647D01*
X-416700D01*
Y325445D01*
X-416498D01*
Y325243D01*
X-416297D01*
Y324840D01*
X-415893D01*
Y324639D01*
X-415692D01*
Y324235D01*
X-415490D01*
Y324034D01*
X-415288D01*
Y323832D01*
X-415087D01*
Y323630D01*
X-414885D01*
Y323429D01*
X-414683D01*
Y323026D01*
X-414482D01*
Y322824D01*
X-414280D01*
Y322622D01*
X-414079D01*
Y322219D01*
X-413877D01*
Y322018D01*
X-413675D01*
Y321614D01*
X-413474D01*
Y321413D01*
X-413272D01*
Y321211D01*
X-413070D01*
Y320808D01*
X-412869D01*
Y320606D01*
X-412667D01*
Y320203D01*
X-412466D01*
Y320001D01*
X-412264D01*
Y319800D01*
X-412062D01*
Y319195D01*
X-411861D01*
Y318993D01*
X-411659D01*
Y318590D01*
X-411457D01*
Y318187D01*
X-411256D01*
Y317783D01*
X-411054D01*
Y317380D01*
X-410853D01*
Y316977D01*
X-410651D01*
Y316574D01*
X-410449D01*
Y316170D01*
X-410248D01*
Y315566D01*
X-410046D01*
Y315364D01*
X-409845D01*
Y314961D01*
X-409643D01*
Y314356D01*
X-409441D01*
Y313953D01*
X-409240D01*
Y313549D01*
X-409038D01*
Y312743D01*
X-408836D01*
Y312340D01*
X-408635D01*
Y311936D01*
X-408433D01*
Y311130D01*
X-408232D01*
Y310525D01*
X-408030D01*
Y310122D01*
X-407828D01*
Y309114D01*
X-407627D01*
Y308307D01*
X-407425D01*
Y307904D01*
X-407223D01*
Y306694D01*
X-407022D01*
Y305888D01*
X-406820D01*
Y304879D01*
X-406618D01*
Y303468D01*
X-406417D01*
Y302258D01*
X-406215D01*
Y301049D01*
X-406014D01*
Y297419D01*
X-405812D01*
Y293790D01*
X-406014D01*
Y291572D01*
X-406215D01*
Y290363D01*
X-406417D01*
Y289758D01*
X-406618D01*
Y288750D01*
X-406820D01*
Y288145D01*
X-407022D01*
Y287540D01*
X-407223D01*
Y286935D01*
X-407425D01*
Y286532D01*
X-407627D01*
Y286129D01*
X-407828D01*
Y285725D01*
X-408030D01*
Y285322D01*
X-408232D01*
Y284919D01*
X-408030D01*
Y284717D01*
X-407828D01*
Y284919D01*
X-407425D01*
Y285121D01*
X-407223D01*
Y285322D01*
X-407022D01*
Y285524D01*
X-406618D01*
Y285725D01*
X-406417D01*
Y285927D01*
X-406215D01*
Y286129D01*
X-405812D01*
Y286532D01*
X-405610D01*
Y286733D01*
X-405207D01*
Y286935D01*
X-405006D01*
Y287137D01*
X-404804D01*
Y287338D01*
X-404602D01*
Y287540D01*
X-404401D01*
Y287742D01*
X-404199D01*
Y287943D01*
X-403997D01*
Y288145D01*
X-403796D01*
Y288548D01*
X-403393D01*
Y288951D01*
X-403191D01*
Y289153D01*
X-402788D01*
Y289556D01*
X-402586D01*
Y289758D01*
X-402384D01*
Y289959D01*
X-402183D01*
Y290161D01*
X-401981D01*
Y290564D01*
X-401780D01*
Y290766D01*
X-401578D01*
Y290968D01*
X-401376D01*
Y291371D01*
X-401175D01*
Y291572D01*
X-400973D01*
Y291976D01*
X-400771D01*
Y292177D01*
X-400570D01*
Y292379D01*
X-400368D01*
Y292782D01*
X-400167D01*
Y292984D01*
X-399965D01*
Y293387D01*
X-399763D01*
Y293790D01*
X-399562D01*
Y293992D01*
X-399360D01*
Y294395D01*
X-399159D01*
Y294798D01*
X-398957D01*
Y295000D01*
X-398755D01*
Y295403D01*
X-398554D01*
Y296008D01*
X-398352D01*
Y296411D01*
X-398150D01*
Y296613D01*
X-397949D01*
Y297218D01*
X-397747D01*
Y297621D01*
X-397546D01*
Y297823D01*
X-397344D01*
Y298428D01*
X-397142D01*
Y298831D01*
X-396941D01*
Y299234D01*
X-396739D01*
Y300041D01*
X-396537D01*
Y300242D01*
X-396336D01*
Y300847D01*
X-396134D01*
Y301654D01*
X-395933D01*
Y302057D01*
X-395731D01*
Y302460D01*
X-395529D01*
Y303267D01*
X-395328D01*
Y303871D01*
X-395126D01*
Y304476D01*
X-394924D01*
Y305283D01*
X-394723D01*
Y305888D01*
X-394521D01*
Y306493D01*
X-394320D01*
Y307501D01*
X-394118D01*
Y308307D01*
X-393916D01*
Y309114D01*
X-393715D01*
Y310727D01*
X-393513D01*
Y312138D01*
X-393311D01*
Y314356D01*
X-393110D01*
Y320808D01*
X-393311D01*
Y322824D01*
X-393513D01*
Y324235D01*
X-393715D01*
Y325647D01*
X-393916D01*
Y326252D01*
X-394118D01*
Y327058D01*
X-394320D01*
Y328066D01*
X-394521D01*
Y328469D01*
X-394723D01*
Y329074D01*
X-394924D01*
Y329679D01*
X-395126D01*
Y330082D01*
X-395328D01*
Y330486D01*
X-395529D01*
Y331091D01*
X-395731D01*
Y331292D01*
X-395933D01*
Y331695D01*
X-396134D01*
Y332099D01*
X-396336D01*
Y332300D01*
X-396537D01*
Y332502D01*
X-396739D01*
Y332905D01*
X-396941D01*
Y333107D01*
X-397142D01*
Y333308D01*
X-397344D01*
Y333510D01*
X-397546D01*
Y333712D01*
X-397747D01*
Y333913D01*
X-397949D01*
Y334115D01*
X-398352D01*
Y334316D01*
X-398554D01*
Y334518D01*
X-398957D01*
Y334720D01*
X-399562D01*
Y334921D01*
X-399965D01*
Y335123D01*
X-400570D01*
Y335325D01*
X-403191D01*
Y335123D01*
X-403796D01*
Y334921D01*
X-404199D01*
Y334720D01*
X-404804D01*
Y334518D01*
X-405006D01*
Y334316D01*
X-405207D01*
Y334115D01*
X-405409D01*
Y333913D01*
X-405610D01*
Y333712D01*
X-405812D01*
Y333510D01*
X-406014D01*
Y333107D01*
X-406215D01*
Y332905D01*
X-406417D01*
Y332502D01*
X-406618D01*
Y331897D01*
X-406820D01*
Y331292D01*
X-407022D01*
Y331091D01*
X-407223D01*
Y330486D01*
X-407425D01*
Y330284D01*
X-407627D01*
Y330082D01*
X-407828D01*
Y329881D01*
X-408030D01*
Y329679D01*
X-408232D01*
Y329478D01*
X-408433D01*
Y329276D01*
X-409038D01*
Y329074D01*
X-409643D01*
Y328873D01*
X-410248D01*
Y329074D01*
X-411054D01*
Y329276D01*
X-411457D01*
Y329478D01*
X-411861D01*
Y329679D01*
X-412062D01*
Y329881D01*
X-412264D01*
Y330082D01*
X-412466D01*
Y330486D01*
X-412667D01*
Y330889D01*
X-412869D01*
Y331292D01*
X-413070D01*
Y331897D01*
X-413272D01*
Y332300D01*
X-413474D01*
Y332905D01*
X-413675D01*
Y334316D01*
X-413877D01*
Y336534D01*
X-413675D01*
Y338147D01*
X-413474D01*
Y338752D01*
X-413272D01*
Y339357D01*
X-413070D01*
Y339962D01*
X-412869D01*
Y340365D01*
X-412667D01*
Y340769D01*
X-412466D01*
Y341172D01*
X-412264D01*
Y341575D01*
X-412062D01*
Y341777D01*
X-411861D01*
Y342382D01*
X-411457D01*
Y342785D01*
X-411256D01*
Y342986D01*
X-411054D01*
Y343188D01*
X-410853D01*
Y343390D01*
X-410651D01*
Y343591D01*
X-410449D01*
Y343793D01*
X-410248D01*
Y343994D01*
X-410046D01*
Y344196D01*
X-409845D01*
Y344398D01*
X-409441D01*
Y344801D01*
X-408836D01*
Y345003D01*
X-408635D01*
Y345204D01*
X-408232D01*
Y345406D01*
X-407828D01*
Y345607D01*
X-407425D01*
Y345809D01*
X-407022D01*
Y346011D01*
X-406215D01*
Y346212D01*
X-405207D01*
Y346414D01*
X-403594D01*
Y346615D01*
X-403191D01*
Y346414D01*
X-400771D01*
Y346212D01*
X-399965D01*
Y346011D01*
X-398957D01*
Y345809D01*
X-398352D01*
Y345607D01*
X-397747D01*
Y345406D01*
X-396941D01*
Y345204D01*
X-396739D01*
Y345003D01*
X-396336D01*
Y344801D01*
X-395731D01*
Y344599D01*
X-395328D01*
Y344398D01*
X-395126D01*
Y344196D01*
X-394723D01*
Y343994D01*
X-394320D01*
Y343793D01*
X-394118D01*
Y343591D01*
X-393715D01*
Y343390D01*
X-393513D01*
Y343188D01*
X-393110D01*
Y342986D01*
X-392707D01*
Y342785D01*
X-392505D01*
Y342583D01*
X-392303D01*
Y342382D01*
X-392102D01*
Y342180D01*
X-391900D01*
Y341978D01*
X-391698D01*
Y341777D01*
X-391295D01*
Y341575D01*
X-391094D01*
Y341373D01*
X-390892D01*
Y341172D01*
X-390690D01*
Y340769D01*
X-390287D01*
Y340365D01*
X-390085D01*
Y340164D01*
X-389884D01*
Y339962D01*
X-389682D01*
Y339760D01*
X-389481D01*
Y339559D01*
X-389279D01*
Y339357D01*
X-389077D01*
Y338954D01*
X-388876D01*
Y338752D01*
X-388674D01*
Y338551D01*
X-388473D01*
Y338147D01*
X-388271D01*
Y337946D01*
X-388069D01*
Y337744D01*
X-387868D01*
Y337341D01*
X-387666D01*
Y336938D01*
X-387464D01*
Y336736D01*
X-387263D01*
Y336131D01*
X-387061D01*
Y335929D01*
X-386860D01*
Y335728D01*
X-386658D01*
Y335123D01*
X-386456D01*
Y334921D01*
X-386255D01*
Y334518D01*
X-386053D01*
Y333913D01*
X-385851D01*
Y333510D01*
X-385650D01*
Y333107D01*
X-385448D01*
Y332502D01*
X-385247D01*
Y332099D01*
X-385045D01*
Y331494D01*
X-384843D01*
Y330687D01*
X-384642D01*
Y330082D01*
X-384440D01*
Y329679D01*
X-384238D01*
Y328469D01*
X-384037D01*
Y327663D01*
X-383835D01*
Y326655D01*
X-383633D01*
Y325042D01*
X-383432D01*
Y323832D01*
X-383230D01*
Y321211D01*
X-383029D01*
Y319396D01*
X-383230D01*
Y315969D01*
X-383432D01*
Y314557D01*
X-383633D01*
Y312541D01*
X-383835D01*
Y311332D01*
X-384037D01*
Y310323D01*
X-384238D01*
Y309114D01*
X-384440D01*
Y308307D01*
X-384642D01*
Y307501D01*
X-384843D01*
Y306493D01*
X-385045D01*
Y305888D01*
X-385247D01*
Y305283D01*
X-385448D01*
Y304476D01*
X-385650D01*
Y303871D01*
X-385851D01*
Y303468D01*
X-386053D01*
Y302662D01*
X-386255D01*
Y302258D01*
X-386456D01*
Y301855D01*
X-386658D01*
Y301049D01*
X-386860D01*
Y300645D01*
X-387061D01*
Y300242D01*
X-387263D01*
Y299637D01*
X-387464D01*
Y299234D01*
X-387666D01*
Y298831D01*
X-387868D01*
Y298428D01*
X-388069D01*
Y298024D01*
X-388271D01*
Y297621D01*
X-388473D01*
Y297218D01*
X-388674D01*
Y296815D01*
X-388876D01*
Y296411D01*
X-389077D01*
Y296210D01*
X-389279D01*
Y295807D01*
X-389481D01*
Y295403D01*
X-389682D01*
Y295000D01*
X-389884D01*
Y294597D01*
X-390085D01*
Y294395D01*
X-390287D01*
Y293992D01*
X-390489D01*
Y293790D01*
X-390690D01*
Y293387D01*
X-390892D01*
Y292984D01*
X-391094D01*
Y292782D01*
X-391295D01*
Y292379D01*
X-391497D01*
Y291976D01*
X-391698D01*
Y291774D01*
X-391900D01*
Y291572D01*
X-392102D01*
Y291371D01*
X-392303D01*
Y290968D01*
X-392505D01*
Y290766D01*
X-392707D01*
Y290363D01*
X-392908D01*
Y290161D01*
X-393110D01*
Y289959D01*
X-393311D01*
Y289556D01*
X-393513D01*
Y289354D01*
X-393916D01*
Y288951D01*
X-394118D01*
Y288750D01*
X-394320D01*
Y288548D01*
X-394521D01*
Y288346D01*
X-394723D01*
Y288145D01*
X-394924D01*
Y287943D01*
X-395126D01*
Y287540D01*
X-395529D01*
Y287338D01*
X-395731D01*
Y287137D01*
X-395933D01*
Y286935D01*
X-396134D01*
Y286733D01*
X-396336D01*
Y286532D01*
X-396537D01*
Y286330D01*
X-396739D01*
Y286129D01*
X-396941D01*
Y285927D01*
X-397142D01*
Y285725D01*
X-397344D01*
Y285524D01*
X-397546D01*
Y285322D01*
X-397747D01*
Y285121D01*
X-398150D01*
Y284919D01*
X-398352D01*
Y284717D01*
X-398554D01*
Y284516D01*
X-398957D01*
Y284314D01*
X-399159D01*
Y284112D01*
X-399562D01*
Y283911D01*
X-399763D01*
Y283709D01*
X-400167D01*
Y283507D01*
X-400368D01*
Y283306D01*
X-400771D01*
Y283104D01*
X-400973D01*
Y282903D01*
X-401376D01*
Y282701D01*
X-401780D01*
Y282499D01*
X-401981D01*
Y282298D01*
X-402384D01*
Y282096D01*
X-402788D01*
Y281894D01*
X-403191D01*
Y281693D01*
X-403594D01*
Y281491D01*
X-403997D01*
Y281290D01*
X-404401D01*
Y281088D01*
X-404804D01*
Y280886D01*
X-405207D01*
Y280685D01*
X-405610D01*
Y280483D01*
X-406014D01*
Y280282D01*
X-406618D01*
Y280080D01*
X-407022D01*
Y279878D01*
X-407425D01*
Y279677D01*
X-408232D01*
Y279475D01*
X-408635D01*
Y279273D01*
X-409038D01*
Y279072D01*
X-409845D01*
Y278870D01*
X-410248D01*
Y278668D01*
X-410853D01*
Y278467D01*
X-411659D01*
Y278265D01*
X-412264D01*
Y278064D01*
X-412869D01*
Y277862D01*
X-413877D01*
Y277660D01*
X-414482D01*
Y277459D01*
X-415087D01*
Y277257D01*
X-416297D01*
Y277056D01*
X-417103D01*
Y276854D01*
X-417910D01*
Y276652D01*
X-419321D01*
Y276451D01*
X-420531D01*
Y276249D01*
X-421539D01*
Y276047D01*
X-424563D01*
Y275846D01*
X-426781D01*
Y275644D01*
X-436055D01*
Y275846D01*
X-439483D01*
Y276047D01*
X-454202D01*
Y276249D01*
X-455008D01*
Y276451D01*
X-455613D01*
Y276652D01*
X-456016D01*
Y276854D01*
X-456419D01*
Y277056D01*
X-456621D01*
Y277257D01*
X-456823D01*
Y277459D01*
X-457226D01*
Y277862D01*
X-457428D01*
Y278064D01*
X-457629D01*
Y278467D01*
X-457831D01*
Y279072D01*
X-458032D01*
Y279878D01*
X-458234D01*
Y280685D01*
X-458032D01*
Y281693D01*
X-457831D01*
Y282298D01*
X-457629D01*
Y282701D01*
X-457428D01*
Y282903D01*
X-457226D01*
Y283104D01*
X-457024D01*
Y283306D01*
X-456823D01*
Y283507D01*
X-456621D01*
Y283709D01*
X-456419D01*
Y283911D01*
X-456218D01*
Y284112D01*
X-455815D01*
Y284314D01*
X-455411D01*
Y284516D01*
X-455008D01*
Y284717D01*
X-454403D01*
Y284919D01*
X-452992D01*
Y285121D01*
X-447750D01*
Y285322D01*
X-446338D01*
Y285524D01*
X-446137D01*
Y286129D01*
X-446338D01*
Y286532D01*
X-446741D01*
Y286733D01*
X-446943D01*
Y286935D01*
X-447145D01*
Y287137D01*
X-447346D01*
Y287338D01*
X-447548D01*
Y287540D01*
X-447951D01*
Y287742D01*
X-448153D01*
Y287943D01*
X-448355D01*
Y288145D01*
X-448556D01*
Y288346D01*
X-448959D01*
Y288548D01*
X-449161D01*
Y288750D01*
X-449363D01*
Y288951D01*
X-449564D01*
Y289153D01*
X-449766D01*
Y289354D01*
X-449967D01*
Y289556D01*
X-450169D01*
Y289758D01*
X-450371D01*
Y289959D01*
X-450572D01*
Y290161D01*
X-450774D01*
Y290363D01*
X-450976D01*
Y290564D01*
X-451177D01*
Y290766D01*
X-451379D01*
Y291169D01*
X-451581D01*
Y291371D01*
X-451782D01*
Y291774D01*
X-451984D01*
Y291976D01*
X-452185D01*
Y292177D01*
X-452387D01*
Y292581D01*
X-452589D01*
Y292984D01*
X-452790D01*
Y293185D01*
X-452992D01*
Y293589D01*
X-453194D01*
Y293790D01*
X-453395D01*
Y293992D01*
X-453597D01*
Y294395D01*
X-453798D01*
Y294597D01*
X-454000D01*
Y295000D01*
X-454605D01*
Y294798D01*
X-455008D01*
Y294395D01*
X-455210D01*
Y293992D01*
X-455411D01*
Y293790D01*
X-455613D01*
Y293387D01*
X-455815D01*
Y292984D01*
X-456016D01*
Y292782D01*
X-456218D01*
Y292177D01*
X-456419D01*
Y291976D01*
X-456621D01*
Y291572D01*
X-456823D01*
Y291169D01*
X-457024D01*
Y290766D01*
X-457226D01*
Y290564D01*
X-457428D01*
Y289959D01*
X-457629D01*
Y289758D01*
X-457831D01*
Y289354D01*
X-458032D01*
Y288951D01*
X-458234D01*
Y288548D01*
X-458436D01*
Y288346D01*
X-458637D01*
Y287943D01*
X-458839D01*
Y287540D01*
X-459041D01*
Y287137D01*
X-459242D01*
Y286935D01*
X-459444D01*
Y286532D01*
X-459646D01*
Y286129D01*
X-459847D01*
Y285725D01*
X-460049D01*
Y285322D01*
X-460250D01*
Y284919D01*
X-460452D01*
Y284516D01*
X-460654D01*
Y284314D01*
X-460855D01*
Y284112D01*
X-461057D01*
Y283709D01*
X-461258D01*
Y283507D01*
X-461460D01*
Y283306D01*
X-461662D01*
Y282903D01*
X-461863D01*
Y282701D01*
X-462065D01*
Y282298D01*
X-462267D01*
Y282096D01*
X-462468D01*
Y281894D01*
X-462670D01*
Y281693D01*
X-462871D01*
Y281491D01*
X-463073D01*
Y281290D01*
X-463275D01*
Y281088D01*
X-463476D01*
Y280886D01*
X-463678D01*
Y280685D01*
X-463880D01*
Y280483D01*
X-464081D01*
Y280282D01*
X-464283D01*
Y280080D01*
X-464484D01*
Y279878D01*
X-464686D01*
Y279677D01*
X-465291D01*
Y279475D01*
X-465493D01*
Y279273D01*
X-465896D01*
Y279072D01*
X-466501D01*
Y278870D01*
X-466904D01*
Y278668D01*
X-467710D01*
Y278467D01*
X-470130D01*
Y278265D01*
X-471743D01*
Y278467D01*
X-473961D01*
Y278668D01*
X-474364D01*
Y278870D01*
X-474767D01*
Y279072D01*
X-475372D01*
Y279273D01*
X-475574D01*
Y279475D01*
X-475977D01*
Y279677D01*
X-476179D01*
Y279878D01*
X-476380D01*
Y280080D01*
X-476582D01*
Y280282D01*
X-476783D01*
Y280685D01*
X-476985D01*
Y281088D01*
X-477187D01*
Y282903D01*
X-476985D01*
Y283104D01*
X-476783D01*
Y283507D01*
X-476582D01*
Y283709D01*
X-476380D01*
Y283911D01*
X-476179D01*
Y284112D01*
X-475977D01*
Y284314D01*
X-475574D01*
Y284516D01*
X-475170D01*
Y284717D01*
X-474969D01*
Y284919D01*
X-474566D01*
Y285121D01*
X-474162D01*
Y285322D01*
X-473759D01*
Y285524D01*
X-473356D01*
Y285725D01*
X-473154D01*
Y285927D01*
X-472751D01*
Y286129D01*
X-472348D01*
Y286330D01*
X-472146D01*
Y286532D01*
X-471743D01*
Y286733D01*
X-471340D01*
Y286935D01*
X-471138D01*
Y287338D01*
X-470735D01*
Y287540D01*
X-470533D01*
Y287742D01*
X-470331D01*
Y287943D01*
X-470130D01*
Y288145D01*
X-469928D01*
Y288548D01*
X-469727D01*
Y288951D01*
X-469525D01*
Y289153D01*
X-469323D01*
Y289556D01*
X-469122D01*
Y289758D01*
X-468920D01*
Y290161D01*
X-468718D01*
Y290564D01*
X-468517D01*
Y290968D01*
X-468315D01*
Y291371D01*
X-468114D01*
Y291976D01*
X-467912D01*
Y292581D01*
X-467710D01*
Y293185D01*
X-467509D01*
Y294193D01*
X-467307D01*
Y294798D01*
X-467105D01*
Y295403D01*
X-466904D01*
Y296613D01*
X-466702D01*
Y297621D01*
X-466501D01*
Y298428D01*
X-466299D01*
Y299839D01*
X-466097D01*
Y300645D01*
X-465896D01*
Y301855D01*
X-465694D01*
Y308106D01*
X-465896D01*
Y315969D01*
X-466097D01*
Y328671D01*
X-466299D01*
Y329478D01*
X-466501D01*
Y329881D01*
X-466702D01*
Y330284D01*
X-466904D01*
Y330687D01*
X-467105D01*
Y330889D01*
X-467307D01*
Y331091D01*
X-467509D01*
Y331494D01*
X-467710D01*
Y331695D01*
X-468114D01*
Y331897D01*
X-468315D01*
Y332099D01*
X-468517D01*
Y332300D01*
X-468718D01*
Y332502D01*
X-468920D01*
Y332704D01*
X-469323D01*
Y332905D01*
X-469727D01*
Y333107D01*
X-469928D01*
Y333308D01*
X-470130D01*
Y333510D01*
X-470331D01*
Y333712D01*
X-470735D01*
Y333913D01*
X-470936D01*
Y334115D01*
X-471138D01*
Y334316D01*
X-471340D01*
Y334518D01*
X-471541D01*
Y334720D01*
X-471743D01*
Y334921D01*
X-471944D01*
Y335123D01*
X-472146D01*
Y335325D01*
X-472348D01*
Y335526D01*
X-472549D01*
Y335728D01*
X-472751D01*
Y335929D01*
X-472953D01*
Y336131D01*
X-473154D01*
Y336333D01*
X-473356D01*
Y336534D01*
X-473557D01*
Y336736D01*
X-473759D01*
Y337139D01*
X-473961D01*
Y337341D01*
X-474162D01*
Y337542D01*
X-474364D01*
Y337744D01*
X-474566D01*
Y337946D01*
X-474767D01*
Y338349D01*
X-474969D01*
Y338551D01*
X-475170D01*
Y338752D01*
X-475372D01*
Y339156D01*
X-475574D01*
Y339357D01*
X-475775D01*
Y339559D01*
X-475977D01*
Y339962D01*
X-476179D01*
Y340164D01*
X-476380D01*
Y340567D01*
X-476582D01*
Y340970D01*
X-476783D01*
Y341172D01*
X-476985D01*
Y341575D01*
X-477187D01*
Y342180D01*
X-477388D01*
Y342382D01*
X-477590D01*
Y342785D01*
X-477791D01*
Y343390D01*
X-477993D01*
Y343793D01*
X-478195D01*
Y343994D01*
X-478396D01*
Y344599D01*
X-478598D01*
Y344801D01*
X-478800D01*
Y345204D01*
X-479001D01*
Y345607D01*
X-479203D01*
Y346011D01*
X-479404D01*
Y346212D01*
X-479606D01*
Y346817D01*
X-479808D01*
Y347019D01*
X-480009D01*
Y347422D01*
X-480211D01*
Y347825D01*
X-480413D01*
Y348228D01*
X-480614D01*
Y348430D01*
X-480816D01*
Y348833D01*
X-481017D01*
Y349438D01*
X-481219D01*
Y349640D01*
X-481421D01*
Y350245D01*
X-481622D01*
Y350648D01*
X-481824D01*
Y351051D01*
X-482026D01*
Y351656D01*
X-482227D01*
Y352059D01*
X-482429D01*
Y352463D01*
X-482631D01*
Y353068D01*
X-482832D01*
Y353471D01*
X-483034D01*
Y353874D01*
X-483235D01*
Y354479D01*
X-483437D01*
Y354680D01*
X-483639D01*
Y355084D01*
X-483840D01*
Y355689D01*
X-484042D01*
Y356092D01*
X-484244D01*
Y356495D01*
X-484445D01*
Y357100D01*
X-484647D01*
Y357301D01*
X-484848D01*
Y357705D01*
X-485050D01*
Y358310D01*
X-485252D01*
Y358713D01*
X-485453D01*
Y359116D01*
X-485655D01*
Y359519D01*
X-485857D01*
Y359923D01*
X-486058D01*
Y360124D01*
X-486260D01*
Y360729D01*
X-486461D01*
Y360931D01*
X-486663D01*
Y361334D01*
X-486865D01*
Y361737D01*
X-487066D01*
Y361939D01*
X-487268D01*
Y362141D01*
X-487469D01*
Y362544D01*
X-487671D01*
Y362745D01*
X-487873D01*
Y362947D01*
X-488074D01*
Y363149D01*
X-488276D01*
Y363350D01*
X-488478D01*
Y363552D01*
X-488679D01*
Y363754D01*
X-489082D01*
Y363955D01*
X-489486D01*
Y364157D01*
X-489687D01*
Y364358D01*
X-490090D01*
Y364560D01*
X-490494D01*
Y364762D01*
X-490897D01*
Y364963D01*
X-491300D01*
Y365165D01*
X-491703D01*
Y365367D01*
X-492107D01*
Y365568D01*
X-492712D01*
Y365770D01*
X-493115D01*
Y365971D01*
X-493518D01*
Y366173D01*
X-494123D01*
Y366375D01*
X-494526D01*
Y366576D01*
X-494728D01*
Y366778D01*
X-494930D01*
Y366979D01*
X-495131D01*
Y367181D01*
X-495333D01*
Y367383D01*
X-495534D01*
Y367584D01*
X-495736D01*
Y367988D01*
X-495938D01*
Y370205D01*
X-495736D01*
Y370609D01*
X-495534D01*
Y370810D01*
X-495333D01*
Y371214D01*
X-495131D01*
Y371415D01*
X-494526D01*
Y371818D01*
X-494123D01*
Y372020D01*
X-493518D01*
Y372222D01*
X-492712D01*
Y372423D01*
X-489687D01*
Y372222D01*
X-489082D01*
Y372020D01*
X-488276D01*
Y371818D01*
X-487671D01*
Y371617D01*
X-487469D01*
Y371415D01*
X-486663D01*
Y371214D01*
X-486461D01*
Y371012D01*
X-486058D01*
Y370810D01*
X-485655D01*
Y370609D01*
X-485453D01*
Y370407D01*
X-485050D01*
Y370205D01*
X-484647D01*
Y370004D01*
X-484445D01*
Y369802D01*
X-484244D01*
Y369601D01*
X-483840D01*
Y369399D01*
X-483639D01*
Y369197D01*
X-483437D01*
Y368996D01*
X-483034D01*
Y368794D01*
X-482832D01*
Y368391D01*
X-482429D01*
Y368189D01*
X-482227D01*
Y367786D01*
X-481824D01*
Y367584D01*
X-481622D01*
Y367181D01*
X-481219D01*
Y366778D01*
X-481017D01*
Y366576D01*
X-480816D01*
Y366375D01*
X-480614D01*
Y365971D01*
X-480413D01*
Y365770D01*
X-480211D01*
Y365568D01*
X-480009D01*
Y365367D01*
X-479808D01*
Y364963D01*
X-479606D01*
Y364762D01*
X-479404D01*
Y364358D01*
X-479203D01*
Y363955D01*
X-479001D01*
Y363754D01*
X-478800D01*
Y363552D01*
X-478598D01*
Y363149D01*
X-478396D01*
Y362947D01*
X-478195D01*
Y362745D01*
X-477993D01*
Y362342D01*
X-477590D01*
Y361939D01*
X-477388D01*
Y361737D01*
X-477187D01*
Y361334D01*
X-476985D01*
Y361132D01*
X-476783D01*
Y360931D01*
X-476582D01*
Y360527D01*
X-476380D01*
Y360326D01*
X-476179D01*
Y359923D01*
X-475775D01*
Y359721D01*
X-475574D01*
Y359318D01*
X-475372D01*
Y359116D01*
X-475170D01*
Y358914D01*
X-474969D01*
Y358511D01*
X-474767D01*
Y358310D01*
X-474566D01*
Y358108D01*
X-474364D01*
Y357906D01*
X-474162D01*
Y357705D01*
X-473961D01*
Y357503D01*
X-473759D01*
Y357301D01*
X-473557D01*
Y356898D01*
X-473154D01*
Y356495D01*
X-472953D01*
Y356293D01*
X-472549D01*
Y355890D01*
X-472348D01*
Y355689D01*
X-472146D01*
Y355487D01*
X-471944D01*
Y355285D01*
X-471541D01*
Y355084D01*
X-471340D01*
Y354882D01*
X-471138D01*
Y354680D01*
X-470936D01*
Y354479D01*
X-470735D01*
Y354277D01*
X-470331D01*
Y354076D01*
X-470130D01*
Y353874D01*
X-469727D01*
Y353672D01*
X-469525D01*
Y353471D01*
X-469323D01*
Y353269D01*
X-468920D01*
Y353068D01*
X-468718D01*
Y352866D01*
X-468315D01*
Y352664D01*
X-467912D01*
Y352463D01*
X-467710D01*
Y352261D01*
X-467307D01*
Y352059D01*
X-466904D01*
Y351858D01*
X-466501D01*
Y351656D01*
X-466097D01*
Y351455D01*
X-465493D01*
Y351253D01*
X-465089D01*
Y351051D01*
X-464686D01*
Y350850D01*
X-464283D01*
Y350648D01*
X-463073D01*
Y350446D01*
X-461662D01*
Y350648D01*
X-461057D01*
Y350850D01*
X-460855D01*
Y351253D01*
X-460654D01*
Y351858D01*
X-460452D01*
Y352463D01*
X-460654D01*
Y353068D01*
X-460855D01*
Y353672D01*
X-461057D01*
Y353874D01*
X-461258D01*
Y354076D01*
X-461460D01*
Y354277D01*
X-461662D01*
Y354479D01*
X-461863D01*
Y354680D01*
X-462065D01*
Y355084D01*
X-462267D01*
Y355285D01*
X-462670D01*
Y355689D01*
X-462871D01*
Y355890D01*
X-463275D01*
Y356092D01*
X-463476D01*
Y356293D01*
X-463678D01*
Y356495D01*
X-463880D01*
Y356697D01*
X-464081D01*
Y356898D01*
X-464283D01*
Y357100D01*
X-464484D01*
Y357503D01*
X-464686D01*
Y357705D01*
X-464888D01*
Y357906D01*
X-465089D01*
Y358310D01*
X-465291D01*
Y358511D01*
X-465493D01*
Y358713D01*
X-465694D01*
Y359116D01*
X-465896D01*
Y359318D01*
X-466097D01*
Y359721D01*
X-466299D01*
Y360124D01*
X-466501D01*
Y360527D01*
X-466702D01*
Y360931D01*
X-466904D01*
Y361536D01*
X-467105D01*
Y361939D01*
X-467307D01*
Y362342D01*
X-467509D01*
Y363350D01*
X-467710D01*
Y366375D01*
X-467509D01*
Y367383D01*
X-467307D01*
Y367786D01*
X-466904D01*
Y367988D01*
X-466501D01*
Y368189D01*
X-465896D01*
Y368391D01*
X-464283D01*
Y368592D01*
X-463476D01*
Y368794D01*
X-463275D01*
Y368996D01*
X-462670D01*
Y369197D01*
X-462267D01*
Y369399D01*
X-462065D01*
Y369601D01*
X-461662D01*
Y369802D01*
X-461460D01*
Y370004D01*
X-461258D01*
Y370205D01*
X-461057D01*
Y370407D01*
X-460855D01*
Y370810D01*
X-460654D01*
Y371012D01*
X-460452D01*
Y371214D01*
X-460250D01*
Y371415D01*
X-460049D01*
Y371617D01*
X-459847D01*
Y371818D01*
X-459646D01*
Y372020D01*
X-459444D01*
Y372222D01*
X-459242D01*
Y372423D01*
X-459041D01*
Y372625D01*
X-458839D01*
Y372826D01*
X-458637D01*
Y373028D01*
X-458234D01*
Y373230D01*
X-458032D01*
Y373431D01*
X-457831D01*
Y373633D01*
X-457629D01*
Y373835D01*
X-457024D01*
Y374036D01*
X-456823D01*
Y374238D01*
X-456419D01*
Y374440D01*
X-455815D01*
Y374641D01*
X-455613D01*
Y374843D01*
X-455008D01*
Y375044D01*
X-454403D01*
Y375246D01*
X-453798D01*
Y375448D01*
X-453194D01*
Y375649D01*
X-451984D01*
Y375851D01*
X-447750D01*
Y375649D01*
X-445935D01*
Y375851D01*
X-445733D01*
Y376053D01*
X-445330D01*
Y376254D01*
X-444927D01*
Y376456D01*
X-444524D01*
Y376657D01*
X-444322D01*
Y376859D01*
X-443919D01*
Y377061D01*
X-443516D01*
Y377262D01*
X-443314D01*
Y377464D01*
X-442911D01*
Y377665D01*
X-442508D01*
Y377867D01*
X-442306D01*
Y378069D01*
X-441903D01*
Y378270D01*
X-441499D01*
Y378472D01*
X-441298D01*
Y378674D01*
X-440895D01*
Y378875D01*
X-440491D01*
Y379077D01*
X-440290D01*
Y379278D01*
X-439886D01*
Y379480D01*
X-439483D01*
Y379682D01*
X-439282D01*
Y379883D01*
X-438878D01*
Y380085D01*
X-438475D01*
Y380287D01*
X-438072D01*
Y380488D01*
X-437467D01*
Y380085D01*
D02*
G37*
G36*
X-517225Y396445D02*
X-516620D01*
Y396244D01*
X-516217D01*
Y395840D01*
X-516015D01*
Y395437D01*
X-515813D01*
Y386969D01*
X-516015D01*
Y385961D01*
X-516217D01*
Y385154D01*
X-516418D01*
Y383945D01*
X-515410D01*
Y384146D01*
X-514604D01*
Y384348D01*
X-512587D01*
Y384549D01*
X-512386D01*
Y384348D01*
X-504926D01*
Y384146D01*
X-504724D01*
Y383945D01*
X-504522D01*
Y383743D01*
X-504321D01*
Y383138D01*
X-504119D01*
Y374871D01*
X-504321D01*
Y373863D01*
X-504522D01*
Y373258D01*
X-504724D01*
Y372250D01*
X-504926D01*
Y371847D01*
X-505127D01*
Y371646D01*
X-505329D01*
Y371242D01*
X-505127D01*
Y371041D01*
X-504926D01*
Y370839D01*
X-504724D01*
Y370234D01*
X-504522D01*
Y361968D01*
X-504724D01*
Y360959D01*
X-504926D01*
Y360354D01*
X-505127D01*
Y359346D01*
X-505329D01*
Y358943D01*
X-505531D01*
Y358742D01*
X-505732D01*
Y358540D01*
X-505934D01*
Y358338D01*
X-506337D01*
Y358137D01*
X-517225D01*
Y358338D01*
X-518031D01*
Y358137D01*
X-519039D01*
Y357935D01*
X-528314D01*
Y358137D01*
X-529120D01*
Y358338D01*
X-529725D01*
Y358137D01*
X-530733D01*
Y357935D01*
X-539807D01*
Y358137D01*
X-540815D01*
Y358338D01*
X-541218D01*
Y358540D01*
X-541419D01*
Y358742D01*
X-541621D01*
Y359346D01*
X-541823D01*
Y359548D01*
X-542024D01*
Y360354D01*
Y360556D01*
Y361766D01*
X-541823D01*
Y363177D01*
X-541621D01*
Y369428D01*
X-541419D01*
Y370033D01*
X-541218D01*
Y370436D01*
X-541016D01*
Y370637D01*
X-540613D01*
Y370839D01*
X-540210D01*
Y371041D01*
X-540411D01*
Y371242D01*
X-540815D01*
Y371444D01*
X-541016D01*
Y371646D01*
X-541218D01*
Y372250D01*
X-541419D01*
Y372452D01*
X-541621D01*
Y374670D01*
X-541419D01*
Y376081D01*
X-541218D01*
Y382332D01*
X-541016D01*
Y382936D01*
X-540815D01*
Y383340D01*
X-540613D01*
Y383541D01*
X-540210D01*
Y383743D01*
X-539807D01*
Y383945D01*
X-538798D01*
Y384146D01*
X-537992D01*
Y384348D01*
X-529725D01*
Y384549D01*
X-529524D01*
Y389791D01*
X-529322D01*
Y394631D01*
X-529120D01*
Y395235D01*
X-528919D01*
Y395437D01*
X-528717D01*
Y395639D01*
X-528516D01*
Y395840D01*
X-528112D01*
Y396042D01*
X-527306D01*
Y396244D01*
X-526499D01*
Y396445D01*
X-525491D01*
Y396647D01*
X-517225D01*
Y396445D01*
D02*
G37*
G36*
X-541934Y356833D02*
X-542135D01*
Y357034D01*
X-541934D01*
Y356833D01*
D02*
G37*
G36*
X-1326647Y-209053D02*
X-1325664Y-209184D01*
X-1324943Y-209381D01*
X-1324288Y-209643D01*
X-1323764Y-209905D01*
X-1323436Y-210102D01*
X-1323239Y-210233D01*
X-1323174Y-210298D01*
X-1322715Y-210822D01*
X-1322388Y-211347D01*
X-1322125Y-211871D01*
X-1321994Y-212461D01*
X-1321863Y-212919D01*
X-1321798Y-213313D01*
Y-213575D01*
Y-213640D01*
X-1321863Y-214361D01*
X-1321994Y-215016D01*
X-1322256Y-215606D01*
X-1322519Y-216065D01*
X-1322715Y-216458D01*
X-1322977Y-216720D01*
X-1323108Y-216917D01*
X-1323174Y-216982D01*
X-1323764Y-217376D01*
X-1324485Y-217703D01*
X-1325271Y-217900D01*
X-1325992Y-218096D01*
X-1326647Y-218162D01*
X-1327171Y-218228D01*
X-1329137D01*
Y-254532D01*
X-1327696D01*
X-1326647Y-254598D01*
X-1325664Y-254729D01*
X-1324943Y-254925D01*
X-1324288Y-255187D01*
X-1323764Y-255450D01*
X-1323436Y-255646D01*
X-1323239Y-255777D01*
X-1323174Y-255843D01*
X-1322715Y-256367D01*
X-1322388Y-256891D01*
X-1322125Y-257416D01*
X-1321994Y-257940D01*
X-1321863Y-258399D01*
X-1321798Y-258792D01*
Y-259054D01*
Y-259119D01*
X-1321863Y-259840D01*
X-1321994Y-260561D01*
X-1322256Y-261085D01*
X-1322519Y-261610D01*
X-1322715Y-262003D01*
X-1322977Y-262265D01*
X-1323108Y-262462D01*
X-1323174Y-262527D01*
X-1323764Y-262920D01*
X-1324485Y-263248D01*
X-1325271Y-263445D01*
X-1325992Y-263641D01*
X-1326647Y-263707D01*
X-1327171Y-263772D01*
X-1341720D01*
X-1342768Y-263707D01*
X-1343685Y-263576D01*
X-1344472Y-263379D01*
X-1345062Y-263117D01*
X-1345586Y-262920D01*
X-1345914Y-262724D01*
X-1346110Y-262593D01*
X-1346176Y-262527D01*
X-1346634Y-262003D01*
X-1347028Y-261479D01*
X-1347290Y-260889D01*
X-1347421Y-260365D01*
X-1347552Y-259906D01*
X-1347617Y-259513D01*
Y-259251D01*
Y-259185D01*
X-1347552Y-258464D01*
X-1347421Y-257809D01*
X-1347159Y-257219D01*
X-1346897Y-256760D01*
X-1346634Y-256367D01*
X-1346372Y-256105D01*
X-1346241Y-255908D01*
X-1346176Y-255843D01*
X-1345586Y-255384D01*
X-1344865Y-255056D01*
X-1344144Y-254860D01*
X-1343423Y-254663D01*
X-1342768Y-254598D01*
X-1342244Y-254532D01*
X-1338377D01*
Y-244178D01*
X-1344013Y-239329D01*
X-1345258Y-239919D01*
X-1346438Y-240508D01*
X-1347421Y-241164D01*
X-1348273Y-241754D01*
X-1348994Y-242278D01*
X-1349518Y-242736D01*
X-1349845Y-242999D01*
X-1349977Y-243130D01*
X-1350435Y-243588D01*
X-1350959Y-244113D01*
X-1351877Y-245227D01*
X-1352794Y-246472D01*
X-1353646Y-247717D01*
X-1354302Y-248765D01*
X-1354629Y-249290D01*
X-1354891Y-249683D01*
X-1355088Y-250076D01*
X-1355219Y-250338D01*
X-1355350Y-250469D01*
Y-250535D01*
X-1356595Y-252894D01*
X-1357775Y-255253D01*
X-1358823Y-257547D01*
X-1359348Y-258530D01*
X-1359806Y-259513D01*
X-1360199Y-260430D01*
X-1360527Y-261282D01*
X-1360855Y-262003D01*
X-1361117Y-262593D01*
X-1361379Y-263117D01*
X-1361510Y-263445D01*
X-1361641Y-263707D01*
Y-263772D01*
X-1370095D01*
X-1371274Y-263707D01*
X-1372323Y-263576D01*
X-1373175Y-263379D01*
X-1373830Y-263117D01*
X-1374355Y-262920D01*
X-1374748Y-262724D01*
X-1374944Y-262593D01*
X-1375010Y-262527D01*
X-1375468Y-262003D01*
X-1375862Y-261479D01*
X-1376124Y-260889D01*
X-1376255Y-260365D01*
X-1376386Y-259906D01*
X-1376452Y-259513D01*
Y-259251D01*
Y-259185D01*
X-1376386Y-258464D01*
X-1376255Y-257809D01*
X-1375993Y-257219D01*
X-1375731Y-256760D01*
X-1375468Y-256367D01*
X-1375206Y-256105D01*
X-1375075Y-255908D01*
X-1375010Y-255843D01*
X-1374355Y-255384D01*
X-1373634Y-255056D01*
X-1372847Y-254860D01*
X-1371995Y-254663D01*
X-1371274Y-254598D01*
X-1370685Y-254532D01*
X-1367605D01*
X-1367015Y-253025D01*
X-1366360Y-251583D01*
X-1365704Y-250273D01*
X-1365114Y-248962D01*
X-1364459Y-247782D01*
X-1363869Y-246668D01*
X-1363280Y-245620D01*
X-1362755Y-244702D01*
X-1362231Y-243850D01*
X-1361772Y-243130D01*
X-1361314Y-242474D01*
X-1360986Y-241950D01*
X-1360658Y-241491D01*
X-1360462Y-241229D01*
X-1360331Y-241033D01*
X-1360265Y-240967D01*
X-1359479Y-239984D01*
X-1358758Y-239001D01*
X-1357971Y-238149D01*
X-1357185Y-237363D01*
X-1355743Y-235987D01*
X-1354367Y-234807D01*
X-1353253Y-233890D01*
X-1352729Y-233562D01*
X-1352336Y-233300D01*
X-1352008Y-233038D01*
X-1351746Y-232907D01*
X-1351615Y-232776D01*
X-1351549D01*
X-1368194Y-218293D01*
X-1369374Y-218228D01*
X-1370423Y-218096D01*
X-1371274Y-217900D01*
X-1371930Y-217638D01*
X-1372454Y-217441D01*
X-1372847Y-217244D01*
X-1373044Y-217113D01*
X-1373109Y-217048D01*
X-1373568Y-216524D01*
X-1373961Y-215934D01*
X-1374223Y-215410D01*
X-1374355Y-214820D01*
X-1374485Y-214361D01*
X-1374551Y-213968D01*
Y-213706D01*
Y-213640D01*
X-1374485Y-212919D01*
X-1374355Y-212264D01*
X-1374092Y-211740D01*
X-1373830Y-211216D01*
X-1373568Y-210888D01*
X-1373306Y-210560D01*
X-1373175Y-210429D01*
X-1373109Y-210364D01*
X-1372454Y-209905D01*
X-1371733Y-209577D01*
X-1370947Y-209381D01*
X-1370095Y-209184D01*
X-1369374Y-209118D01*
X-1368784Y-209053D01*
X-1368194D01*
X-1354826Y-208988D01*
X-1354891Y-209053D01*
X-1354760Y-209184D01*
X-1354629Y-209446D01*
X-1354367Y-209643D01*
X-1353909Y-210167D01*
X-1353777Y-210298D01*
X-1353712Y-210364D01*
X-1353253Y-210888D01*
X-1352926Y-211478D01*
X-1352663Y-212002D01*
X-1352532Y-212526D01*
X-1352401Y-213050D01*
X-1352336Y-213444D01*
Y-213706D01*
Y-213771D01*
X-1352401Y-214492D01*
X-1352532Y-215147D01*
X-1352794Y-215672D01*
X-1353057Y-216131D01*
X-1353253Y-216458D01*
X-1353515Y-216720D01*
X-1353646Y-216851D01*
X-1353712Y-216917D01*
X-1354171Y-217244D01*
X-1354498Y-217507D01*
X-1354695Y-217638D01*
X-1354826Y-217769D01*
Y-217834D01*
Y-217900D01*
X-1338377Y-231989D01*
Y-218293D01*
X-1341720D01*
X-1342768Y-218228D01*
X-1343685Y-218096D01*
X-1344472Y-217900D01*
X-1345062Y-217638D01*
X-1345586Y-217441D01*
X-1345914Y-217244D01*
X-1346110Y-217113D01*
X-1346176Y-217048D01*
X-1346634Y-216524D01*
X-1347028Y-215934D01*
X-1347290Y-215410D01*
X-1347421Y-214820D01*
X-1347552Y-214361D01*
X-1347617Y-213968D01*
Y-213706D01*
Y-213640D01*
X-1347552Y-212919D01*
X-1347421Y-212264D01*
X-1347159Y-211740D01*
X-1346897Y-211216D01*
X-1346634Y-210888D01*
X-1346372Y-210560D01*
X-1346241Y-210429D01*
X-1346176Y-210364D01*
X-1345586Y-209905D01*
X-1344865Y-209577D01*
X-1344144Y-209381D01*
X-1343423Y-209184D01*
X-1342768Y-209118D01*
X-1342244Y-209053D01*
X-1341720D01*
X-1327696Y-208988D01*
X-1326647Y-209053D01*
D02*
G37*
G36*
X-1206802Y-206229D02*
X-1215059D01*
Y-198857D01*
X-1206802D01*
Y-206229D01*
D02*
G37*
G36*
X-1252903Y-211144D02*
X-1251724Y-211242D01*
X-1250593Y-211390D01*
X-1249561Y-211635D01*
X-1248529Y-211881D01*
X-1247644Y-212176D01*
X-1246809Y-212471D01*
X-1246022Y-212815D01*
X-1245334Y-213110D01*
X-1244744Y-213454D01*
X-1244204Y-213749D01*
X-1243811Y-213995D01*
X-1243467Y-214240D01*
X-1243221Y-214388D01*
X-1243073Y-214486D01*
X-1243024Y-214535D01*
X-1242484Y-215027D01*
X-1241992Y-215518D01*
X-1241599Y-216010D01*
X-1241255Y-216550D01*
X-1240960Y-217042D01*
X-1240665Y-217582D01*
X-1240321Y-218565D01*
X-1240075Y-219401D01*
X-1240026Y-219794D01*
X-1239977Y-220089D01*
X-1239928Y-220384D01*
Y-220581D01*
Y-220679D01*
Y-220728D01*
X-1239977Y-221416D01*
X-1240026Y-222055D01*
X-1240174Y-222645D01*
X-1240370Y-223235D01*
X-1240813Y-224267D01*
X-1241353Y-225151D01*
X-1241845Y-225839D01*
X-1242091Y-226134D01*
X-1242287Y-226380D01*
X-1242484Y-226577D01*
X-1242631Y-226724D01*
X-1242680Y-226773D01*
X-1242729Y-226822D01*
X-1243319Y-227265D01*
X-1244007Y-227707D01*
X-1244794Y-228051D01*
X-1245678Y-228395D01*
X-1247497Y-228985D01*
X-1249364Y-229477D01*
X-1250249Y-229624D01*
X-1251085Y-229820D01*
X-1251871Y-229919D01*
X-1252559Y-230017D01*
X-1253100Y-230115D01*
X-1253542Y-230165D01*
X-1253788Y-230214D01*
X-1253886D01*
X-1254918Y-230312D01*
X-1255803Y-230459D01*
X-1256639Y-230607D01*
X-1257425Y-230705D01*
X-1258064Y-230853D01*
X-1258703Y-230951D01*
X-1259194Y-231098D01*
X-1259686Y-231197D01*
X-1260079Y-231344D01*
X-1260423Y-231442D01*
X-1260669Y-231492D01*
X-1260915Y-231590D01*
X-1261062Y-231639D01*
X-1261160Y-231688D01*
X-1261259Y-231737D01*
X-1261848Y-232081D01*
X-1262291Y-232474D01*
X-1262635Y-232819D01*
X-1262831Y-233163D01*
X-1262979Y-233458D01*
X-1263028Y-233703D01*
X-1263077Y-233900D01*
Y-233949D01*
X-1263028Y-234244D01*
X-1262880Y-234539D01*
X-1262684Y-234834D01*
X-1262438Y-235030D01*
X-1262192Y-235227D01*
X-1261996Y-235374D01*
X-1261848Y-235473D01*
X-1261799Y-235522D01*
X-1260718Y-236013D01*
X-1259538Y-236357D01*
X-1258310Y-236652D01*
X-1257130Y-236800D01*
X-1256589Y-236849D01*
X-1256049Y-236898D01*
X-1255606Y-236947D01*
X-1255213D01*
X-1254869Y-236996D01*
X-1254427D01*
X-1253346Y-236947D01*
X-1252363Y-236898D01*
X-1251478Y-236800D01*
X-1250741Y-236652D01*
X-1250102Y-236505D01*
X-1249659Y-236406D01*
X-1249364Y-236357D01*
X-1249315Y-236308D01*
X-1249266D01*
X-1248480Y-236013D01*
X-1247743Y-235718D01*
X-1247104Y-235374D01*
X-1246514Y-235030D01*
X-1246071Y-234735D01*
X-1245727Y-234490D01*
X-1245531Y-234342D01*
X-1245433Y-234293D01*
X-1245236Y-233703D01*
X-1245039Y-233212D01*
X-1244843Y-232819D01*
X-1244597Y-232474D01*
X-1244400Y-232229D01*
X-1244253Y-232081D01*
X-1244155Y-231983D01*
X-1244106Y-231934D01*
X-1243762Y-231688D01*
X-1243418Y-231492D01*
X-1243073Y-231393D01*
X-1242778Y-231295D01*
X-1242484Y-231246D01*
X-1242238Y-231197D01*
X-1242041D01*
X-1241501Y-231246D01*
X-1240960Y-231344D01*
X-1240567Y-231541D01*
X-1240174Y-231737D01*
X-1239879Y-231934D01*
X-1239682Y-232131D01*
X-1239535Y-232229D01*
X-1239486Y-232278D01*
X-1239191Y-232720D01*
X-1238945Y-233310D01*
X-1238798Y-233900D01*
X-1238650Y-234490D01*
X-1238601Y-235030D01*
X-1238552Y-235473D01*
Y-235767D01*
Y-235817D01*
Y-235866D01*
Y-238176D01*
X-1238601Y-239060D01*
X-1238699Y-239798D01*
X-1238847Y-240387D01*
X-1239043Y-240928D01*
X-1239191Y-241272D01*
X-1239338Y-241567D01*
X-1239436Y-241715D01*
X-1239486Y-241764D01*
X-1239879Y-242108D01*
X-1240321Y-242353D01*
X-1240763Y-242550D01*
X-1241157Y-242648D01*
X-1241550Y-242747D01*
X-1241845Y-242796D01*
X-1242091D01*
X-1242533Y-242747D01*
X-1242926Y-242698D01*
X-1243172Y-242648D01*
X-1243221Y-242599D01*
X-1243270D01*
X-1243712Y-242403D01*
X-1244056Y-242157D01*
X-1244253Y-241960D01*
X-1244351Y-241862D01*
X-1245973Y-242501D01*
X-1246760Y-242796D01*
X-1247497Y-242992D01*
X-1248136Y-243140D01*
X-1248578Y-243287D01*
X-1248775Y-243337D01*
X-1248922D01*
X-1248971Y-243386D01*
X-1249020D01*
X-1250003Y-243582D01*
X-1250986Y-243680D01*
X-1251920Y-243779D01*
X-1252805Y-243877D01*
X-1253542D01*
X-1253837Y-243926D01*
X-1254623D01*
X-1256000Y-243877D01*
X-1257278Y-243779D01*
X-1258506Y-243582D01*
X-1259686Y-243386D01*
X-1260767Y-243091D01*
X-1261750Y-242796D01*
X-1262684Y-242452D01*
X-1263519Y-242108D01*
X-1264257Y-241813D01*
X-1264945Y-241469D01*
X-1265485Y-241174D01*
X-1265977Y-240879D01*
X-1266321Y-240682D01*
X-1266616Y-240486D01*
X-1266763Y-240387D01*
X-1266812Y-240338D01*
X-1267402Y-239847D01*
X-1267894Y-239355D01*
X-1268336Y-238815D01*
X-1268729Y-238323D01*
X-1269024Y-237783D01*
X-1269319Y-237242D01*
X-1269712Y-236259D01*
X-1269909Y-235424D01*
X-1270007Y-235030D01*
X-1270056Y-234735D01*
X-1270105Y-234440D01*
Y-234244D01*
Y-234146D01*
Y-234097D01*
X-1270007Y-233064D01*
X-1269810Y-232131D01*
X-1269466Y-231246D01*
X-1269122Y-230459D01*
X-1268778Y-229820D01*
X-1268434Y-229329D01*
X-1268336Y-229132D01*
X-1268238Y-228985D01*
X-1268139Y-228936D01*
Y-228887D01*
X-1267353Y-228002D01*
X-1266468Y-227216D01*
X-1265584Y-226577D01*
X-1264699Y-226036D01*
X-1263913Y-225643D01*
X-1263569Y-225495D01*
X-1263274Y-225348D01*
X-1263028Y-225250D01*
X-1262831Y-225151D01*
X-1262733Y-225102D01*
X-1262684D01*
X-1262143Y-224906D01*
X-1261504Y-224758D01*
X-1260816Y-224562D01*
X-1260030Y-224414D01*
X-1258457Y-224119D01*
X-1256884Y-223824D01*
X-1256147Y-223677D01*
X-1255410Y-223579D01*
X-1254771Y-223480D01*
X-1254230Y-223382D01*
X-1253739Y-223333D01*
X-1253395Y-223284D01*
X-1253198Y-223235D01*
X-1253100D01*
X-1252412Y-223136D01*
X-1251822Y-223038D01*
X-1251232Y-222940D01*
X-1250741Y-222841D01*
X-1250298Y-222743D01*
X-1249905Y-222645D01*
X-1249266Y-222497D01*
X-1248775Y-222350D01*
X-1248480Y-222251D01*
X-1248283Y-222153D01*
X-1248234D01*
X-1247792Y-221858D01*
X-1247448Y-221613D01*
X-1247202Y-221367D01*
X-1247055Y-221121D01*
X-1246956Y-220924D01*
X-1246858Y-220777D01*
Y-220679D01*
Y-220630D01*
X-1246907Y-220384D01*
X-1247005Y-220138D01*
X-1247399Y-219745D01*
X-1247743Y-219450D01*
X-1247841Y-219401D01*
X-1247890Y-219352D01*
X-1248824Y-218909D01*
X-1249905Y-218565D01*
X-1250937Y-218369D01*
X-1251969Y-218172D01*
X-1252903Y-218074D01*
X-1253296D01*
X-1253591Y-218025D01*
X-1255017D01*
X-1255754Y-218123D01*
X-1256393Y-218172D01*
X-1256983Y-218270D01*
X-1257474Y-218369D01*
X-1257818Y-218467D01*
X-1258064Y-218516D01*
X-1258162Y-218565D01*
X-1258850Y-218811D01*
X-1259489Y-219057D01*
X-1260128Y-219303D01*
X-1260620Y-219548D01*
X-1261062Y-219794D01*
X-1261406Y-219991D01*
X-1261603Y-220089D01*
X-1261701Y-220138D01*
X-1261848Y-220630D01*
X-1261996Y-221023D01*
X-1262242Y-221367D01*
X-1262438Y-221711D01*
X-1262635Y-221908D01*
X-1262782Y-222104D01*
X-1262880Y-222202D01*
X-1262930Y-222251D01*
X-1263274Y-222497D01*
X-1263667Y-222694D01*
X-1264060Y-222792D01*
X-1264404Y-222890D01*
X-1264699Y-222940D01*
X-1264945Y-222989D01*
X-1265141D01*
X-1265780Y-222940D01*
X-1266370Y-222743D01*
X-1266862Y-222497D01*
X-1267255Y-222202D01*
X-1267599Y-221957D01*
X-1267844Y-221711D01*
X-1267992Y-221514D01*
X-1268041Y-221465D01*
X-1268238Y-221072D01*
X-1268385Y-220630D01*
X-1268582Y-219597D01*
Y-219106D01*
X-1268631Y-218713D01*
Y-218467D01*
Y-218369D01*
Y-216698D01*
X-1268582Y-215813D01*
X-1268484Y-215076D01*
X-1268336Y-214437D01*
X-1268139Y-213945D01*
X-1267943Y-213601D01*
X-1267795Y-213306D01*
X-1267697Y-213159D01*
X-1267648Y-213110D01*
X-1267304Y-212766D01*
X-1266911Y-212471D01*
X-1266468Y-212274D01*
X-1266124Y-212176D01*
X-1265780Y-212078D01*
X-1265535Y-212029D01*
X-1265289D01*
X-1264945Y-212078D01*
X-1264601Y-212127D01*
X-1264355Y-212225D01*
X-1264306Y-212274D01*
X-1264257D01*
X-1263864Y-212471D01*
X-1263470Y-212717D01*
X-1263175Y-212913D01*
X-1263126Y-213011D01*
X-1263077D01*
X-1262291Y-212668D01*
X-1261553Y-212373D01*
X-1260816Y-212127D01*
X-1260177Y-211930D01*
X-1259587Y-211783D01*
X-1259194Y-211684D01*
X-1258899Y-211586D01*
X-1258801D01*
X-1257130Y-211291D01*
X-1256393Y-211193D01*
X-1255656Y-211144D01*
X-1255066Y-211095D01*
X-1254181D01*
X-1252903Y-211144D01*
D02*
G37*
G36*
X-1202525Y-212078D02*
X-1201739Y-212176D01*
X-1201100Y-212323D01*
X-1200609Y-212520D01*
X-1200216Y-212717D01*
X-1199921Y-212864D01*
X-1199773Y-212962D01*
X-1199724Y-213011D01*
X-1199380Y-213405D01*
X-1199134Y-213798D01*
X-1198938Y-214191D01*
X-1198839Y-214584D01*
X-1198741Y-214928D01*
X-1198692Y-215223D01*
Y-215420D01*
Y-215469D01*
X-1198741Y-216010D01*
X-1198839Y-216550D01*
X-1199036Y-216943D01*
X-1199232Y-217337D01*
X-1199380Y-217631D01*
X-1199577Y-217828D01*
X-1199675Y-217976D01*
X-1199724Y-218025D01*
X-1200216Y-218320D01*
X-1200756Y-218565D01*
X-1201395Y-218713D01*
X-1201985Y-218860D01*
X-1202575Y-218909D01*
X-1203017Y-218959D01*
X-1209062D01*
Y-235866D01*
X-1200707D01*
X-1199773Y-235915D01*
X-1198987Y-236013D01*
X-1198348Y-236161D01*
X-1197856Y-236357D01*
X-1197463Y-236554D01*
X-1197168Y-236701D01*
X-1197021Y-236800D01*
X-1196972Y-236849D01*
X-1196628Y-237242D01*
X-1196382Y-237635D01*
X-1196185Y-238028D01*
X-1196087Y-238422D01*
X-1195989Y-238766D01*
X-1195939Y-239060D01*
Y-239257D01*
Y-239306D01*
X-1195989Y-239847D01*
X-1196087Y-240387D01*
X-1196284Y-240781D01*
X-1196480Y-241174D01*
X-1196628Y-241469D01*
X-1196824Y-241665D01*
X-1196923Y-241813D01*
X-1196972Y-241862D01*
X-1197463Y-242157D01*
X-1198004Y-242403D01*
X-1198643Y-242550D01*
X-1199232Y-242698D01*
X-1199822Y-242747D01*
X-1200265Y-242796D01*
X-1224348D01*
X-1225232Y-242747D01*
X-1226019Y-242648D01*
X-1226658Y-242501D01*
X-1227149Y-242304D01*
X-1227542Y-242157D01*
X-1227837Y-242009D01*
X-1227985Y-241911D01*
X-1228034Y-241862D01*
X-1228378Y-241469D01*
X-1228673Y-241076D01*
X-1228869Y-240633D01*
X-1228968Y-240240D01*
X-1229066Y-239896D01*
X-1229115Y-239601D01*
Y-239405D01*
Y-239355D01*
X-1229066Y-238815D01*
X-1228968Y-238323D01*
X-1228771Y-237881D01*
X-1228575Y-237537D01*
X-1228378Y-237242D01*
X-1228181Y-237045D01*
X-1228083Y-236898D01*
X-1228034Y-236849D01*
X-1227542Y-236505D01*
X-1227002Y-236259D01*
X-1226412Y-236112D01*
X-1225773Y-235964D01*
X-1225232Y-235915D01*
X-1224790Y-235866D01*
X-1215992D01*
Y-212029D01*
X-1203459D01*
X-1202525Y-212078D01*
D02*
G37*
G36*
X-1294139Y-211193D02*
X-1292468Y-211439D01*
X-1290945Y-211832D01*
X-1290207Y-212029D01*
X-1289568Y-212225D01*
X-1288979Y-212471D01*
X-1288438Y-212668D01*
X-1287946Y-212864D01*
X-1287553Y-213061D01*
X-1287258Y-213208D01*
X-1287013Y-213307D01*
X-1286865Y-213356D01*
X-1286816Y-213405D01*
X-1285292Y-214339D01*
X-1283965Y-215371D01*
X-1283376Y-215911D01*
X-1282835Y-216403D01*
X-1282343Y-216943D01*
X-1281901Y-217435D01*
X-1281508Y-217927D01*
X-1281164Y-218369D01*
X-1280869Y-218762D01*
X-1280623Y-219057D01*
X-1280427Y-219352D01*
X-1280279Y-219548D01*
X-1280230Y-219696D01*
X-1280181Y-219745D01*
X-1279788Y-220482D01*
X-1279444Y-221269D01*
X-1278854Y-222743D01*
X-1278461Y-224119D01*
X-1278215Y-225348D01*
X-1278117Y-225938D01*
X-1278018Y-226429D01*
X-1277969Y-226872D01*
Y-227216D01*
X-1277920Y-227560D01*
Y-227756D01*
Y-227904D01*
Y-227953D01*
X-1277969Y-228690D01*
X-1278018Y-229477D01*
X-1278264Y-230902D01*
X-1278657Y-232229D01*
X-1279051Y-233408D01*
X-1279247Y-233949D01*
X-1279444Y-234391D01*
X-1279640Y-234834D01*
X-1279837Y-235178D01*
X-1279984Y-235424D01*
X-1280083Y-235620D01*
X-1280181Y-235767D01*
Y-235817D01*
X-1281115Y-237144D01*
X-1282147Y-238323D01*
X-1283277Y-239355D01*
X-1284309Y-240191D01*
X-1285292Y-240879D01*
X-1285686Y-241125D01*
X-1286079Y-241371D01*
X-1286374Y-241518D01*
X-1286570Y-241665D01*
X-1286718Y-241715D01*
X-1286767Y-241764D01*
X-1287602Y-242157D01*
X-1288389Y-242452D01*
X-1290011Y-242992D01*
X-1291534Y-243386D01*
X-1292272Y-243533D01*
X-1292960Y-243631D01*
X-1293549Y-243730D01*
X-1294139Y-243828D01*
X-1294631Y-243877D01*
X-1295073D01*
X-1295368Y-243926D01*
X-1295860D01*
X-1296744Y-243877D01*
X-1297629Y-243828D01*
X-1299300Y-243582D01*
X-1300873Y-243238D01*
X-1301561Y-243042D01*
X-1302200Y-242796D01*
X-1302839Y-242599D01*
X-1303379Y-242403D01*
X-1303822Y-242206D01*
X-1304264Y-242059D01*
X-1304559Y-241911D01*
X-1304805Y-241813D01*
X-1304952Y-241715D01*
X-1305001D01*
X-1305788Y-241272D01*
X-1306525Y-240830D01*
X-1307213Y-240338D01*
X-1307901Y-239847D01*
X-1308491Y-239355D01*
X-1309031Y-238864D01*
X-1309474Y-238372D01*
X-1309916Y-237930D01*
X-1310309Y-237488D01*
X-1310653Y-237045D01*
X-1310948Y-236701D01*
X-1311194Y-236406D01*
X-1311341Y-236112D01*
X-1311489Y-235915D01*
X-1311587Y-235817D01*
Y-235767D01*
X-1311980Y-235079D01*
X-1312324Y-234342D01*
X-1312914Y-232966D01*
X-1313307Y-231688D01*
X-1313553Y-230459D01*
X-1313651Y-229968D01*
X-1313750Y-229477D01*
X-1313799Y-229034D01*
Y-228690D01*
X-1313848Y-228395D01*
Y-228199D01*
Y-228051D01*
Y-228002D01*
Y-227216D01*
X-1313750Y-226429D01*
X-1313504Y-224955D01*
X-1313111Y-223579D01*
X-1312718Y-222350D01*
X-1312521Y-221809D01*
X-1312324Y-221318D01*
X-1312128Y-220875D01*
X-1311931Y-220531D01*
X-1311784Y-220236D01*
X-1311685Y-220040D01*
X-1311636Y-219892D01*
X-1311587Y-219843D01*
X-1311145Y-219106D01*
X-1310653Y-218418D01*
X-1309621Y-217140D01*
X-1308540Y-216059D01*
X-1307459Y-215125D01*
X-1306918Y-214732D01*
X-1306476Y-214388D01*
X-1306033Y-214142D01*
X-1305689Y-213896D01*
X-1305394Y-213700D01*
X-1305149Y-213552D01*
X-1305001Y-213503D01*
X-1304952Y-213454D01*
X-1304117Y-213061D01*
X-1303330Y-212668D01*
X-1301708Y-212078D01*
X-1300135Y-211684D01*
X-1299447Y-211537D01*
X-1298759Y-211390D01*
X-1298170Y-211291D01*
X-1297580Y-211193D01*
X-1297088Y-211144D01*
X-1296646D01*
X-1296302Y-211095D01*
X-1294975D01*
X-1294139Y-211193D01*
D02*
G37*
G36*
X-1197590Y-302046D02*
X-1204790Y-311423D01*
X-1207385Y-310042D01*
X-1205502Y-305772D01*
X-1207302Y-305688D01*
X-1209018Y-305646D01*
X-1209813D01*
X-1210567Y-305604D01*
X-1211278D01*
X-1211948D01*
X-1212534Y-305563D01*
X-1213078D01*
X-1213581D01*
X-1213957D01*
X-1214292D01*
X-1214502D01*
X-1214669D01*
X-1214711D01*
X-1215548D01*
X-1216385D01*
X-1218227Y-305604D01*
X-1220111Y-305646D01*
X-1220990Y-305688D01*
X-1221869D01*
X-1222664Y-305730D01*
X-1223418Y-305772D01*
X-1224129D01*
X-1224715Y-305814D01*
X-1225176D01*
X-1225552Y-305856D01*
X-1225762D01*
X-1225845D01*
Y-298698D01*
X-1224548Y-298739D01*
X-1223334Y-298781D01*
X-1222204Y-298823D01*
X-1221157Y-298865D01*
X-1220153Y-298907D01*
X-1219232D01*
X-1218394Y-298949D01*
X-1217641D01*
X-1216971D01*
X-1216385Y-298991D01*
X-1215883D01*
X-1215464D01*
X-1215129D01*
X-1214920D01*
X-1214753D01*
X-1214711D01*
X-1213497D01*
X-1212199D01*
X-1210860Y-298949D01*
X-1209437D01*
X-1206590Y-298907D01*
X-1205209Y-298865D01*
X-1203869Y-298823D01*
X-1202572D01*
X-1201400Y-298781D01*
X-1200311D01*
X-1199390Y-298739D01*
X-1199014D01*
X-1198637D01*
X-1198344Y-298698D01*
X-1198093D01*
X-1197884D01*
X-1197716D01*
X-1197632D01*
X-1197590D01*
Y-302046D01*
D02*
G37*
G36*
X-1220571Y-315107D02*
X-1219985Y-315232D01*
X-1219483Y-315441D01*
X-1219022Y-315609D01*
X-1218688Y-315818D01*
X-1218394Y-316027D01*
X-1218227Y-316153D01*
X-1218185Y-316195D01*
X-1217767Y-316655D01*
X-1217474Y-317116D01*
X-1217222Y-317660D01*
X-1217097Y-318162D01*
X-1217013Y-318581D01*
X-1216929Y-318958D01*
Y-319292D01*
X-1216971Y-320171D01*
X-1217139Y-320925D01*
X-1217390Y-321553D01*
X-1217641Y-322097D01*
X-1217934Y-322515D01*
X-1218143Y-322850D01*
X-1218311Y-323018D01*
X-1218394Y-323102D01*
X-1218939Y-323562D01*
X-1219525Y-323855D01*
X-1220111Y-324106D01*
X-1220613Y-324274D01*
X-1221074Y-324357D01*
X-1221450Y-324399D01*
X-1221701Y-324441D01*
X-1221743D01*
X-1221785D01*
X-1222413Y-324399D01*
X-1222999Y-324274D01*
X-1223543Y-324064D01*
X-1223962Y-323855D01*
X-1224339Y-323688D01*
X-1224590Y-323478D01*
X-1224799Y-323353D01*
X-1224841Y-323311D01*
X-1225259Y-322850D01*
X-1225552Y-322348D01*
X-1225804Y-321804D01*
X-1225929Y-321302D01*
X-1226013Y-320883D01*
X-1226055Y-320506D01*
X-1226097Y-320255D01*
Y-320171D01*
X-1226013Y-319334D01*
X-1225845Y-318581D01*
X-1225636Y-317953D01*
X-1225343Y-317409D01*
X-1225092Y-316990D01*
X-1224841Y-316697D01*
X-1224673Y-316488D01*
X-1224632Y-316446D01*
X-1224045Y-315986D01*
X-1223459Y-315651D01*
X-1222915Y-315399D01*
X-1222371Y-315232D01*
X-1221911Y-315148D01*
X-1221534Y-315065D01*
X-1221283D01*
X-1221241D01*
X-1221199D01*
X-1220571Y-315107D01*
D02*
G37*
G36*
X-1220194Y-329046D02*
X-1219274Y-329171D01*
X-1218394Y-329380D01*
X-1217599Y-329674D01*
X-1216846Y-330008D01*
X-1216134Y-330427D01*
X-1215506Y-330929D01*
X-1214920Y-331432D01*
X-1214376Y-332018D01*
X-1213832Y-332604D01*
X-1213371Y-333273D01*
X-1212953Y-333943D01*
X-1212241Y-335366D01*
X-1211655Y-336790D01*
X-1211237Y-338255D01*
X-1210902Y-339678D01*
X-1210650Y-340975D01*
X-1210567Y-341603D01*
X-1210483Y-342189D01*
X-1210441Y-342692D01*
X-1210399Y-343194D01*
X-1210358Y-343571D01*
X-1210316Y-343947D01*
Y-344617D01*
X-1208976Y-344575D01*
X-1207637Y-344534D01*
X-1206381Y-344450D01*
X-1205795Y-344366D01*
X-1205251Y-344324D01*
X-1204748Y-344282D01*
X-1204288Y-344199D01*
X-1203869Y-344157D01*
X-1203534Y-344115D01*
X-1203242Y-344073D01*
X-1203032D01*
X-1202907Y-344031D01*
X-1202865D01*
Y-342650D01*
X-1202907Y-341310D01*
Y-340055D01*
X-1202948Y-338882D01*
X-1202990Y-337752D01*
X-1203032Y-336706D01*
X-1203116Y-335743D01*
X-1203158Y-334864D01*
X-1203200Y-334110D01*
X-1203283Y-333399D01*
X-1203325Y-332813D01*
X-1203367Y-332311D01*
X-1203409Y-331892D01*
Y-331641D01*
X-1203451Y-331432D01*
Y-331390D01*
X-1197590Y-331138D01*
Y-348552D01*
X-1198093D01*
X-1198595D01*
X-1199767Y-348636D01*
X-1201065Y-348677D01*
X-1202404Y-348803D01*
X-1203869Y-348929D01*
X-1205334Y-349054D01*
X-1206758Y-349180D01*
X-1208223Y-349347D01*
X-1209562Y-349515D01*
X-1210860Y-349640D01*
X-1212032Y-349766D01*
X-1212576Y-349850D01*
X-1213036Y-349892D01*
X-1213497Y-349933D01*
X-1213916Y-349975D01*
X-1214250Y-350017D01*
X-1214543Y-350059D01*
X-1214753Y-350101D01*
X-1214962Y-350143D01*
X-1215046D01*
X-1215088D01*
Y-348803D01*
X-1215171Y-347547D01*
X-1215255Y-346375D01*
X-1215339Y-345287D01*
X-1215464Y-344324D01*
X-1215632Y-343445D01*
X-1215799Y-342692D01*
X-1215925Y-341980D01*
X-1216092Y-341352D01*
X-1216260Y-340850D01*
X-1216385Y-340389D01*
X-1216553Y-340055D01*
X-1216636Y-339762D01*
X-1216720Y-339594D01*
X-1216804Y-339468D01*
Y-339427D01*
X-1217139Y-338841D01*
X-1217515Y-338380D01*
X-1217976Y-337920D01*
X-1218394Y-337543D01*
X-1218855Y-337250D01*
X-1219315Y-336999D01*
X-1219776Y-336790D01*
X-1220236Y-336622D01*
X-1221074Y-336371D01*
X-1221450Y-336287D01*
X-1221785Y-336245D01*
X-1222036Y-336203D01*
X-1222245D01*
X-1222371D01*
X-1222413D01*
X-1223083Y-336245D01*
X-1223711Y-336371D01*
X-1224297Y-336538D01*
X-1224841Y-336790D01*
X-1225385Y-337041D01*
X-1225887Y-337376D01*
X-1226306Y-337710D01*
X-1226724Y-338045D01*
X-1227101Y-338380D01*
X-1227436Y-338715D01*
X-1227687Y-339050D01*
X-1227938Y-339301D01*
X-1228106Y-339552D01*
X-1228231Y-339720D01*
X-1228315Y-339845D01*
X-1228357Y-339887D01*
X-1228776Y-340599D01*
X-1229152Y-341352D01*
X-1229822Y-343027D01*
X-1230324Y-344701D01*
X-1230534Y-345538D01*
X-1230701Y-346333D01*
X-1230827Y-347087D01*
X-1230952Y-347799D01*
X-1231036Y-348426D01*
X-1231120Y-348970D01*
X-1231161Y-349431D01*
X-1231203Y-349766D01*
X-1231245Y-349975D01*
Y-350059D01*
X-1235640Y-349305D01*
X-1235515Y-347547D01*
X-1235306Y-345915D01*
X-1235013Y-344366D01*
X-1234678Y-342943D01*
X-1234301Y-341562D01*
X-1233882Y-340348D01*
X-1233464Y-339175D01*
X-1233003Y-338171D01*
X-1232585Y-337250D01*
X-1232166Y-336455D01*
X-1231789Y-335743D01*
X-1231455Y-335199D01*
X-1231161Y-334738D01*
X-1230952Y-334403D01*
X-1230785Y-334236D01*
X-1230743Y-334152D01*
X-1229989Y-333232D01*
X-1229194Y-332436D01*
X-1228357Y-331766D01*
X-1227562Y-331180D01*
X-1226766Y-330678D01*
X-1225971Y-330260D01*
X-1225176Y-329925D01*
X-1224464Y-329632D01*
X-1223794Y-329422D01*
X-1223166Y-329255D01*
X-1222622Y-329171D01*
X-1222120Y-329087D01*
X-1221743Y-329046D01*
X-1221450Y-329004D01*
X-1221241D01*
X-1221199D01*
X-1220194Y-329046D01*
D02*
G37*
G36*
X-1200395Y-360189D02*
X-1200855Y-360231D01*
X-1201441Y-360314D01*
X-1202111Y-360440D01*
X-1202823Y-360565D01*
X-1203618Y-360775D01*
X-1204455Y-360984D01*
X-1206130Y-361445D01*
X-1206925Y-361696D01*
X-1207720Y-361905D01*
X-1208432Y-362114D01*
X-1209018Y-362324D01*
X-1209562Y-362449D01*
X-1209939Y-362575D01*
X-1210190Y-362659D01*
X-1210232Y-362700D01*
X-1210274D01*
X-1211655Y-363161D01*
X-1212869Y-363538D01*
X-1213957Y-363872D01*
X-1214920Y-364165D01*
X-1215757Y-364375D01*
X-1216511Y-364584D01*
X-1217097Y-364752D01*
X-1217641Y-364877D01*
X-1218060Y-365003D01*
X-1218436Y-365086D01*
X-1218688Y-365128D01*
X-1218897Y-365170D01*
X-1219064Y-365212D01*
X-1219148D01*
X-1219232D01*
Y-365547D01*
X-1218897Y-365589D01*
X-1218394Y-365672D01*
X-1217809Y-365798D01*
X-1217139Y-365965D01*
X-1216385Y-366175D01*
X-1215590Y-366384D01*
X-1213957Y-366844D01*
X-1213120Y-367096D01*
X-1212367Y-367347D01*
X-1211655Y-367556D01*
X-1211027Y-367765D01*
X-1210483Y-367933D01*
X-1210064Y-368058D01*
X-1209939Y-368100D01*
X-1209813Y-368142D01*
X-1209771Y-368184D01*
X-1209730D01*
X-1208265Y-368644D01*
X-1207009Y-369063D01*
X-1205837Y-369398D01*
X-1204832Y-369691D01*
X-1203953Y-369942D01*
X-1203200Y-370193D01*
X-1202572Y-370361D01*
X-1202028Y-370486D01*
X-1201567Y-370612D01*
X-1201190Y-370695D01*
X-1200939Y-370737D01*
X-1200730Y-370779D01*
X-1200563Y-370821D01*
X-1200479D01*
X-1200395D01*
Y-378649D01*
X-1200521D01*
X-1200730Y-378607D01*
X-1200981Y-378523D01*
X-1201274Y-378481D01*
X-1201609Y-378356D01*
X-1201944Y-378272D01*
X-1202823Y-377979D01*
X-1203786Y-377686D01*
X-1204832Y-377309D01*
X-1205920Y-376932D01*
X-1207051Y-376514D01*
X-1208139Y-376137D01*
X-1209227Y-375760D01*
X-1210190Y-375384D01*
X-1211069Y-375091D01*
X-1211446Y-374923D01*
X-1211823Y-374798D01*
X-1212116Y-374714D01*
X-1212367Y-374588D01*
X-1212576Y-374505D01*
X-1212744Y-374463D01*
X-1212827Y-374421D01*
X-1212869D01*
X-1213916Y-374044D01*
X-1214878Y-373667D01*
X-1215799Y-373333D01*
X-1216678Y-372998D01*
X-1217474Y-372705D01*
X-1218269Y-372454D01*
X-1218980Y-372202D01*
X-1219650Y-371951D01*
X-1220278Y-371742D01*
X-1220906Y-371533D01*
X-1221450Y-371365D01*
X-1221953Y-371198D01*
X-1222832Y-370905D01*
X-1223585Y-370695D01*
X-1224213Y-370528D01*
X-1224715Y-370361D01*
X-1225092Y-370277D01*
X-1225385Y-370235D01*
X-1225594Y-370193D01*
X-1225762Y-370151D01*
X-1225804D01*
X-1225845D01*
Y-362826D01*
X-1225678D01*
X-1225427Y-362784D01*
X-1225176Y-362700D01*
X-1224841Y-362617D01*
X-1224087Y-362365D01*
X-1223208Y-362072D01*
X-1222204Y-361738D01*
X-1221157Y-361319D01*
X-1220027Y-360900D01*
X-1218897Y-360440D01*
X-1217809Y-359980D01*
X-1216720Y-359561D01*
X-1215757Y-359142D01*
X-1214878Y-358807D01*
X-1214502Y-358640D01*
X-1214167Y-358473D01*
X-1213874Y-358347D01*
X-1213623Y-358263D01*
X-1213413Y-358180D01*
X-1213246Y-358096D01*
X-1213162Y-358054D01*
X-1213120D01*
X-1212116Y-357635D01*
X-1211153Y-357217D01*
X-1210232Y-356840D01*
X-1209353Y-356463D01*
X-1208558Y-356129D01*
X-1207804Y-355835D01*
X-1207093Y-355542D01*
X-1206423Y-355249D01*
X-1205795Y-355040D01*
X-1205209Y-354789D01*
X-1204162Y-354412D01*
X-1203283Y-354077D01*
X-1202572Y-353826D01*
X-1201944Y-353659D01*
X-1201483Y-353491D01*
X-1201107Y-353366D01*
X-1200814Y-353324D01*
X-1200604Y-353282D01*
X-1200479Y-353240D01*
X-1200395D01*
Y-360189D01*
D02*
G37*
G36*
X-1344665Y-325106D02*
X-1344611D01*
X-1344395Y-325160D01*
X-1344288Y-325267D01*
X-1344180Y-325321D01*
X-1344019Y-325483D01*
X-1343803Y-325644D01*
X-1343319Y-326183D01*
X-1343103Y-326398D01*
X-1342942Y-326614D01*
X-1342834Y-326775D01*
X-1342780Y-326829D01*
X-1341811Y-327906D01*
X-1341380Y-328391D01*
X-1341003Y-328821D01*
X-1340680Y-329145D01*
X-1340465Y-329414D01*
X-1340303Y-329575D01*
X-1340249Y-329629D01*
X-1339872Y-330060D01*
X-1339603Y-330437D01*
X-1339334Y-330760D01*
X-1339118Y-331029D01*
X-1339011Y-331245D01*
X-1338903Y-331406D01*
X-1338795Y-331460D01*
Y-331514D01*
X-1337934Y-332160D01*
X-1337288Y-332699D01*
X-1336803Y-333129D01*
X-1336426Y-333399D01*
X-1336211Y-333668D01*
X-1336103Y-333775D01*
X-1335995Y-333883D01*
X-1335834Y-334206D01*
X-1335780Y-334422D01*
X-1335726Y-334637D01*
Y-334691D01*
X-1335780Y-335122D01*
X-1335941Y-335445D01*
X-1336211Y-335660D01*
X-1336480Y-335768D01*
X-1336749Y-335822D01*
X-1337234D01*
X-1337611Y-335660D01*
X-1338042Y-335391D01*
X-1338365Y-335176D01*
X-1338472Y-335068D01*
X-1338526D01*
X-1338849Y-334852D01*
X-1339065Y-334691D01*
X-1339226Y-334583D01*
X-1339334Y-334529D01*
X-1339495Y-334422D01*
X-1339603D01*
X-1339657Y-334529D01*
Y-334583D01*
Y-334637D01*
Y-334745D01*
X-1339711Y-334906D01*
Y-335283D01*
Y-335660D01*
Y-335768D01*
Y-335822D01*
Y-373300D01*
X-1339657Y-373408D01*
X-1339603Y-373569D01*
X-1339334Y-373892D01*
X-1339011Y-374161D01*
X-1338957Y-374215D01*
X-1338903Y-374269D01*
X-1338795Y-374377D01*
X-1338580Y-374538D01*
X-1338203Y-374861D01*
X-1337880Y-375131D01*
X-1337772Y-375185D01*
X-1337718Y-375238D01*
X-1337449Y-375669D01*
X-1337288Y-376046D01*
X-1337234Y-376261D01*
Y-376369D01*
X-1337288Y-376746D01*
X-1337503Y-377015D01*
X-1337772Y-377231D01*
X-1338042Y-377338D01*
X-1338365Y-377446D01*
X-1338580Y-377500D01*
X-1338849D01*
X-1339603Y-377446D01*
X-1340195D01*
X-1340411Y-377392D01*
X-1340680D01*
X-1341326Y-377338D01*
X-1341972Y-377285D01*
X-1342995D01*
X-1343372Y-377338D01*
X-1343857D01*
X-1344342Y-377392D01*
X-1344772Y-377446D01*
X-1345149D01*
X-1345365Y-377500D01*
X-1346603D01*
X-1347142Y-377446D01*
X-1347519Y-377338D01*
X-1347788Y-377123D01*
X-1347950Y-376908D01*
X-1348111Y-376746D01*
X-1348165Y-376531D01*
Y-376423D01*
Y-376369D01*
Y-376154D01*
X-1348057Y-375938D01*
X-1347842Y-375615D01*
X-1347626Y-375346D01*
X-1347573Y-375238D01*
X-1347519D01*
X-1346980Y-374808D01*
X-1346550Y-374484D01*
X-1346226Y-374215D01*
X-1346172Y-374108D01*
X-1346119D01*
X-1345849Y-373838D01*
X-1345742Y-373569D01*
X-1345688Y-373461D01*
Y-373408D01*
Y-332645D01*
Y-331945D01*
Y-331245D01*
X-1345742Y-330652D01*
Y-330168D01*
Y-329737D01*
X-1345796Y-329414D01*
Y-329198D01*
Y-329145D01*
X-1345903Y-328068D01*
X-1345957Y-327583D01*
X-1346011Y-327152D01*
X-1346065Y-326829D01*
Y-326560D01*
X-1346119Y-326398D01*
Y-326344D01*
X-1346065Y-325914D01*
X-1345957Y-325591D01*
X-1345796Y-325375D01*
X-1345580Y-325214D01*
X-1345365Y-325106D01*
X-1345203Y-325052D01*
X-1344772D01*
X-1344665Y-325106D01*
D02*
G37*
G36*
X-1362704Y-329414D02*
X-1362165Y-329521D01*
X-1361681Y-329737D01*
X-1361304Y-329898D01*
X-1360981Y-330114D01*
X-1360712Y-330329D01*
X-1360550Y-330437D01*
X-1360496Y-330491D01*
X-1360119Y-330922D01*
X-1359850Y-331352D01*
X-1359635Y-331783D01*
X-1359527Y-332214D01*
X-1359419Y-332591D01*
X-1359365Y-332860D01*
Y-333075D01*
Y-333129D01*
X-1359419Y-333668D01*
X-1359527Y-334206D01*
X-1359688Y-334691D01*
X-1359904Y-335068D01*
X-1360119Y-335391D01*
X-1360281Y-335606D01*
X-1360388Y-335768D01*
X-1360442Y-335822D01*
X-1360873Y-336199D01*
X-1361304Y-336468D01*
X-1361735Y-336683D01*
X-1362165Y-336791D01*
X-1362542Y-336899D01*
X-1362811Y-336953D01*
X-1363081D01*
X-1363673Y-336899D01*
X-1364212Y-336791D01*
X-1364642Y-336629D01*
X-1365073Y-336414D01*
X-1365396Y-336199D01*
X-1365612Y-336037D01*
X-1365773Y-335929D01*
X-1365827Y-335876D01*
X-1366204Y-335445D01*
X-1366527Y-335014D01*
X-1366743Y-334583D01*
X-1366850Y-334152D01*
X-1366958Y-333775D01*
X-1367012Y-333506D01*
Y-333291D01*
Y-333237D01*
X-1366958Y-332699D01*
X-1366850Y-332160D01*
X-1366635Y-331729D01*
X-1366473Y-331298D01*
X-1366258Y-330975D01*
X-1366042Y-330760D01*
X-1365935Y-330598D01*
X-1365881Y-330545D01*
X-1365450Y-330168D01*
X-1365019Y-329845D01*
X-1364588Y-329629D01*
X-1364158Y-329521D01*
X-1363781Y-329414D01*
X-1363512Y-329360D01*
X-1363242D01*
X-1362704Y-329414D01*
D02*
G37*
G36*
X-1385051Y-330006D02*
X-1384728Y-330168D01*
X-1384566Y-330329D01*
X-1384512Y-330437D01*
X-1384135Y-330922D01*
X-1383758Y-331406D01*
X-1383489Y-331729D01*
X-1383435Y-331837D01*
X-1383382Y-331891D01*
X-1382843Y-332483D01*
X-1382305Y-333129D01*
X-1382035Y-333399D01*
X-1381820Y-333560D01*
X-1381712Y-333722D01*
X-1381658Y-333775D01*
X-1380905Y-334529D01*
X-1380312Y-335068D01*
X-1380097Y-335283D01*
X-1379935Y-335445D01*
X-1379881Y-335499D01*
X-1379828Y-335552D01*
X-1379289Y-336037D01*
X-1378804Y-336468D01*
X-1378589Y-336683D01*
X-1378427Y-336845D01*
X-1378320Y-336899D01*
X-1378266Y-336953D01*
X-1378104Y-337222D01*
X-1377997Y-337545D01*
X-1377943Y-337706D01*
Y-337814D01*
X-1377997Y-338245D01*
X-1378104Y-338568D01*
X-1378266Y-338783D01*
X-1378481Y-338945D01*
X-1378697Y-339053D01*
X-1378858Y-339106D01*
X-1379504D01*
X-1379720Y-339160D01*
X-1379828D01*
X-1379935Y-339268D01*
X-1379989Y-339430D01*
X-1380043Y-339699D01*
Y-339968D01*
X-1380097Y-340237D01*
Y-340507D01*
Y-340668D01*
Y-340722D01*
Y-342660D01*
X-1379558D01*
X-1378858Y-342607D01*
X-1378104D01*
X-1377674Y-342553D01*
X-1377350D01*
X-1377081Y-342499D01*
X-1376758D01*
X-1376327Y-342553D01*
X-1376004Y-342714D01*
X-1375735Y-342930D01*
X-1375573Y-343145D01*
X-1375466Y-343360D01*
X-1375412Y-343576D01*
Y-343737D01*
Y-343791D01*
Y-344922D01*
X-1375466Y-345353D01*
X-1375627Y-345676D01*
X-1375789Y-345891D01*
X-1376058Y-346053D01*
X-1376273Y-346161D01*
X-1376435Y-346214D01*
X-1377404D01*
X-1378104Y-346161D01*
X-1379074D01*
X-1379343Y-346107D01*
X-1380097D01*
Y-368184D01*
X-1380151Y-369692D01*
X-1380366Y-371092D01*
X-1380635Y-372331D01*
X-1380958Y-373354D01*
X-1381066Y-373838D01*
X-1381228Y-374215D01*
X-1381389Y-374592D01*
X-1381497Y-374861D01*
X-1381604Y-375077D01*
X-1381712Y-375238D01*
X-1381766Y-375346D01*
Y-375400D01*
X-1382251Y-376154D01*
X-1382735Y-376800D01*
X-1383274Y-377338D01*
X-1383705Y-377715D01*
X-1384135Y-378038D01*
X-1384458Y-378308D01*
X-1384674Y-378415D01*
X-1384728Y-378469D01*
X-1384997Y-378631D01*
X-1385320Y-378685D01*
X-1385535Y-378739D01*
X-1385589D01*
X-1386020Y-378631D01*
X-1386343Y-378469D01*
X-1386559Y-378308D01*
X-1386666Y-378200D01*
X-1386989Y-377877D01*
X-1387366Y-377500D01*
X-1387689Y-377177D01*
X-1387797Y-377123D01*
X-1387851Y-377069D01*
X-1388066Y-376854D01*
X-1388282Y-376692D01*
X-1388443Y-376585D01*
X-1388497Y-376531D01*
X-1388820Y-376369D01*
X-1389089Y-376208D01*
X-1389305Y-376100D01*
X-1389359Y-376046D01*
X-1389628Y-375777D01*
X-1389736Y-375454D01*
X-1389789Y-375238D01*
Y-375131D01*
Y-374915D01*
X-1389682Y-374700D01*
X-1389466Y-374377D01*
X-1389251Y-374161D01*
X-1389197Y-374108D01*
X-1389143D01*
X-1388605Y-373677D01*
X-1388228Y-373300D01*
X-1387905Y-372977D01*
X-1387635Y-372761D01*
X-1387474Y-372600D01*
X-1387366Y-372492D01*
X-1387258Y-372384D01*
X-1386882Y-371792D01*
X-1386559Y-371146D01*
X-1386343Y-370500D01*
X-1386235Y-369907D01*
X-1386128Y-369369D01*
X-1386074Y-368938D01*
Y-368669D01*
Y-368561D01*
Y-346107D01*
X-1387312D01*
X-1387635Y-346161D01*
X-1388659D01*
X-1389035Y-346214D01*
X-1389897D01*
X-1390328Y-346161D01*
X-1390651Y-345999D01*
X-1390866Y-345784D01*
X-1391028Y-345568D01*
X-1391136Y-345353D01*
X-1391189Y-345137D01*
Y-344976D01*
Y-344922D01*
Y-343737D01*
X-1391136Y-343307D01*
X-1391028Y-343037D01*
X-1390813Y-342822D01*
X-1390651Y-342660D01*
X-1390436Y-342553D01*
X-1390220Y-342499D01*
X-1390059D01*
X-1389520Y-342553D01*
X-1389089D01*
X-1388659Y-342607D01*
X-1388336D01*
X-1388066Y-342660D01*
X-1386074D01*
Y-337545D01*
Y-336683D01*
X-1386128Y-335876D01*
Y-335122D01*
X-1386182Y-334422D01*
Y-333883D01*
X-1386235Y-333506D01*
Y-333237D01*
Y-333129D01*
X-1386343Y-332429D01*
X-1386397Y-331783D01*
X-1386451Y-331514D01*
X-1386505Y-331298D01*
Y-331191D01*
Y-331137D01*
X-1386451Y-330706D01*
X-1386343Y-330437D01*
X-1386182Y-330221D01*
X-1385966Y-330060D01*
X-1385751Y-329952D01*
X-1385589Y-329898D01*
X-1385428D01*
X-1385051Y-330006D01*
D02*
G37*
G36*
X-1297871Y-341314D02*
X-1297548Y-341476D01*
X-1297386Y-341691D01*
X-1297332Y-341745D01*
X-1297117Y-342014D01*
X-1296955Y-342176D01*
X-1296848Y-342283D01*
X-1296794Y-342337D01*
X-1296632Y-342553D01*
X-1296363Y-342822D01*
X-1296148Y-343037D01*
X-1296094Y-343091D01*
X-1296040Y-343145D01*
X-1295771Y-343414D01*
X-1295448Y-343684D01*
X-1295286Y-343899D01*
X-1295179Y-343953D01*
X-1294855Y-344222D01*
X-1294586Y-344437D01*
X-1294478Y-344545D01*
X-1294425Y-344599D01*
X-1294263Y-344868D01*
X-1294209Y-344922D01*
Y-344976D01*
X-1294102Y-345353D01*
Y-345460D01*
Y-345514D01*
X-1294155Y-345730D01*
X-1294209Y-345945D01*
X-1294425Y-346214D01*
X-1294586Y-346430D01*
X-1294694Y-346484D01*
X-1295286Y-346807D01*
X-1295825Y-347076D01*
X-1296202Y-347291D01*
X-1296525Y-347453D01*
X-1296740Y-347561D01*
X-1296902Y-347668D01*
X-1297009Y-347722D01*
X-1297655Y-348530D01*
X-1298086Y-349338D01*
X-1298409Y-350199D01*
X-1298679Y-350953D01*
X-1298786Y-351599D01*
X-1298840Y-352084D01*
X-1298894Y-352299D01*
Y-352461D01*
Y-352514D01*
Y-352568D01*
Y-383962D01*
X-1298840Y-385308D01*
X-1298732Y-385954D01*
X-1298679Y-386493D01*
X-1298571Y-386977D01*
X-1298463Y-387354D01*
X-1298409Y-387570D01*
Y-387677D01*
X-1298032Y-389077D01*
X-1297871Y-389670D01*
X-1297709Y-390262D01*
X-1297548Y-390693D01*
X-1297386Y-391070D01*
X-1297332Y-391285D01*
X-1297278Y-391393D01*
Y-391931D01*
X-1297386Y-392308D01*
X-1297548Y-392631D01*
X-1297763Y-392793D01*
X-1297925Y-392901D01*
X-1298140Y-392954D01*
X-1298248Y-393008D01*
X-1298302D01*
X-1298625Y-392954D01*
X-1298894Y-392847D01*
X-1299109Y-392793D01*
X-1299217Y-392739D01*
X-1299648Y-392362D01*
X-1300025Y-391985D01*
X-1300348Y-391716D01*
X-1300617Y-391501D01*
X-1300833Y-391285D01*
X-1300994Y-391177D01*
X-1301048Y-391070D01*
X-1301102D01*
X-1301694Y-390693D01*
X-1302340Y-390262D01*
X-1302610Y-390100D01*
X-1302825Y-389939D01*
X-1302986Y-389885D01*
X-1303040Y-389831D01*
X-1303848Y-389347D01*
X-1304548Y-388970D01*
X-1304817Y-388862D01*
X-1305033Y-388754D01*
X-1305140Y-388647D01*
X-1305194D01*
X-1305733Y-388431D01*
X-1306163Y-388270D01*
X-1306487Y-388162D01*
X-1306540Y-388108D01*
X-1306594D01*
X-1306810Y-388000D01*
X-1307025Y-387839D01*
X-1307187Y-387516D01*
X-1307294Y-387193D01*
Y-387139D01*
Y-387085D01*
Y-386870D01*
X-1307187Y-386708D01*
X-1307025Y-386385D01*
X-1306810Y-386170D01*
X-1306756Y-386062D01*
X-1306702D01*
X-1306433Y-385793D01*
X-1306163Y-385523D01*
X-1305840Y-385146D01*
X-1305625Y-384931D01*
X-1305571Y-384877D01*
X-1305356Y-384393D01*
X-1305194Y-383908D01*
X-1305033Y-383369D01*
X-1304979Y-382885D01*
X-1304925Y-382508D01*
X-1304871Y-382131D01*
Y-381916D01*
Y-381862D01*
Y-375131D01*
X-1305248Y-375723D01*
X-1305679Y-376261D01*
X-1306110Y-376692D01*
X-1306487Y-377015D01*
X-1306864Y-377285D01*
X-1307187Y-377446D01*
X-1307402Y-377554D01*
X-1307456Y-377608D01*
X-1308264Y-377931D01*
X-1309071Y-378200D01*
X-1309825Y-378362D01*
X-1310579Y-378523D01*
X-1311225Y-378577D01*
X-1311710Y-378631D01*
X-1312141D01*
X-1313433Y-378577D01*
X-1314671Y-378362D01*
X-1315910Y-378038D01*
X-1317041Y-377662D01*
X-1318118Y-377177D01*
X-1319141Y-376638D01*
X-1320056Y-376046D01*
X-1320918Y-375454D01*
X-1321725Y-374915D01*
X-1322372Y-374323D01*
X-1323018Y-373784D01*
X-1323503Y-373300D01*
X-1323879Y-372923D01*
X-1324203Y-372600D01*
X-1324364Y-372384D01*
X-1324418Y-372331D01*
X-1325333Y-371092D01*
X-1326195Y-369746D01*
X-1326895Y-368400D01*
X-1327487Y-367053D01*
X-1328026Y-365707D01*
X-1328457Y-364361D01*
X-1328780Y-363069D01*
X-1329103Y-361830D01*
X-1329318Y-360646D01*
X-1329480Y-359569D01*
X-1329587Y-358653D01*
X-1329641Y-357845D01*
X-1329695Y-357146D01*
X-1329749Y-356661D01*
Y-356338D01*
Y-356230D01*
X-1329695Y-355153D01*
X-1329534Y-354076D01*
X-1329264Y-353053D01*
X-1328995Y-352084D01*
X-1328672Y-351276D01*
X-1328564Y-350953D01*
X-1328457Y-350630D01*
X-1328349Y-350415D01*
X-1328241Y-350253D01*
X-1328187Y-350145D01*
Y-350091D01*
X-1327487Y-348745D01*
X-1326733Y-347614D01*
X-1325926Y-346591D01*
X-1325172Y-345730D01*
X-1324526Y-345030D01*
X-1323987Y-344545D01*
X-1323772Y-344330D01*
X-1323610Y-344222D01*
X-1323556Y-344114D01*
X-1323503D01*
X-1322856Y-343630D01*
X-1322156Y-343199D01*
X-1321456Y-342822D01*
X-1320756Y-342499D01*
X-1319410Y-342014D01*
X-1318118Y-341691D01*
X-1317525Y-341583D01*
X-1317041Y-341530D01*
X-1316556Y-341476D01*
X-1316125Y-341422D01*
X-1315802Y-341368D01*
X-1315372D01*
X-1314510Y-341422D01*
X-1313702Y-341530D01*
X-1312894Y-341691D01*
X-1312141Y-341853D01*
X-1310741Y-342391D01*
X-1309502Y-342983D01*
X-1308963Y-343307D01*
X-1308479Y-343576D01*
X-1308102Y-343845D01*
X-1307725Y-344114D01*
X-1307456Y-344276D01*
X-1307240Y-344437D01*
X-1307133Y-344545D01*
X-1307079Y-344599D01*
X-1306217Y-345407D01*
X-1305571Y-346214D01*
X-1305087Y-347022D01*
X-1304710Y-347668D01*
X-1304440Y-348260D01*
X-1304333Y-348745D01*
X-1304225Y-349014D01*
Y-349068D01*
Y-349122D01*
X-1304117Y-348368D01*
X-1303848Y-347561D01*
X-1303525Y-346807D01*
X-1303094Y-346053D01*
X-1302717Y-345460D01*
X-1302340Y-344922D01*
X-1302125Y-344599D01*
X-1302017Y-344545D01*
Y-344491D01*
X-1301479Y-343845D01*
X-1300994Y-343307D01*
X-1300509Y-342768D01*
X-1300025Y-342391D01*
X-1299648Y-342014D01*
X-1299379Y-341799D01*
X-1299163Y-341637D01*
X-1299109Y-341583D01*
X-1298894Y-341368D01*
X-1298625Y-341314D01*
X-1298409Y-341260D01*
X-1298302D01*
X-1297871Y-341314D01*
D02*
G37*
G36*
X-1406321Y-325375D02*
X-1406051Y-325429D01*
X-1405836Y-325537D01*
X-1405728Y-325591D01*
X-1405513Y-325698D01*
X-1405244Y-325914D01*
X-1404651Y-326344D01*
X-1404382Y-326560D01*
X-1404167Y-326775D01*
X-1404005Y-326883D01*
X-1403951Y-326937D01*
X-1403197Y-327421D01*
X-1402605Y-327798D01*
X-1402336Y-328014D01*
X-1402174Y-328121D01*
X-1402067Y-328175D01*
X-1402013Y-328229D01*
X-1401205Y-328821D01*
X-1400828Y-329037D01*
X-1400559Y-329252D01*
X-1400290Y-329414D01*
X-1400128Y-329521D01*
X-1400020Y-329629D01*
X-1399967D01*
X-1399374Y-329952D01*
X-1398890Y-330275D01*
X-1398513Y-330491D01*
X-1398459Y-330545D01*
X-1398405D01*
X-1398136Y-330706D01*
X-1397920Y-330868D01*
X-1397813Y-331029D01*
X-1397705Y-331191D01*
X-1397597Y-331514D01*
Y-331568D01*
Y-331622D01*
X-1397651Y-331945D01*
X-1397705Y-332160D01*
X-1397813Y-332375D01*
X-1397974Y-332483D01*
X-1398190Y-332645D01*
X-1398244Y-332699D01*
X-1398297D01*
X-1398567Y-332752D01*
X-1398782Y-332806D01*
X-1399051Y-332914D01*
X-1399159Y-332968D01*
X-1399213Y-333022D01*
X-1399428Y-333291D01*
X-1399482Y-333614D01*
X-1399536Y-333937D01*
Y-333991D01*
Y-334045D01*
Y-365977D01*
X-1399590Y-366353D01*
X-1399697Y-366677D01*
X-1399859Y-366892D01*
X-1400074Y-367000D01*
X-1400236Y-367107D01*
X-1400397Y-367161D01*
X-1400828D01*
X-1401098Y-367107D01*
X-1401259Y-367053D01*
X-1401313D01*
X-1401636Y-366892D01*
X-1401959Y-366730D01*
X-1402174Y-366623D01*
X-1402282Y-366569D01*
X-1402713Y-366300D01*
X-1403036Y-366084D01*
X-1403251Y-365923D01*
X-1403305Y-365869D01*
X-1404867Y-365169D01*
X-1405190Y-364953D01*
X-1405405Y-364684D01*
X-1405621Y-364415D01*
X-1405728Y-364146D01*
X-1405782Y-363930D01*
X-1405836Y-363769D01*
Y-363661D01*
Y-363607D01*
Y-330975D01*
X-1405890Y-330114D01*
X-1405998Y-329737D01*
X-1406105Y-329414D01*
X-1406159Y-329091D01*
X-1406267Y-328875D01*
X-1406321Y-328768D01*
Y-328714D01*
X-1406590Y-328283D01*
X-1406913Y-327798D01*
X-1407075Y-327583D01*
X-1407236Y-327421D01*
X-1407290Y-327314D01*
X-1407344Y-327260D01*
X-1407559Y-326937D01*
X-1407613Y-326668D01*
X-1407667Y-326452D01*
Y-326344D01*
X-1407613Y-326021D01*
X-1407505Y-325752D01*
X-1407344Y-325591D01*
X-1407128Y-325429D01*
X-1406752Y-325321D01*
X-1406590D01*
X-1406321Y-325375D01*
D02*
G37*
G36*
X-1364912Y-340883D02*
X-1364642Y-340937D01*
X-1364481Y-341045D01*
X-1364427Y-341099D01*
X-1364265Y-341207D01*
X-1364104Y-341368D01*
X-1363673Y-341691D01*
X-1363350Y-341960D01*
X-1363242Y-342014D01*
X-1363188Y-342068D01*
X-1362811Y-342337D01*
X-1362327Y-342660D01*
X-1361411Y-343253D01*
X-1360981Y-343576D01*
X-1360604Y-343791D01*
X-1360388Y-343953D01*
X-1360281Y-344007D01*
X-1360119Y-344060D01*
X-1359904Y-344168D01*
X-1359419Y-344437D01*
X-1359204Y-344545D01*
X-1358988Y-344653D01*
X-1358881Y-344707D01*
X-1358827Y-344760D01*
X-1358235Y-345084D01*
X-1357804Y-345353D01*
X-1357534Y-345568D01*
X-1357427Y-345622D01*
X-1357157Y-345891D01*
X-1357050Y-346161D01*
X-1356996Y-346376D01*
Y-346484D01*
Y-346753D01*
X-1357104Y-346968D01*
X-1357265Y-347291D01*
X-1357427Y-347453D01*
X-1357534Y-347507D01*
X-1357804Y-347561D01*
X-1358073Y-347668D01*
X-1358665Y-347884D01*
X-1358881Y-347938D01*
X-1359096Y-348045D01*
X-1359258Y-348099D01*
X-1359311D01*
X-1359473Y-348261D01*
X-1359581Y-348476D01*
X-1359742Y-349068D01*
X-1359796Y-349338D01*
Y-349553D01*
Y-349715D01*
Y-349768D01*
Y-373300D01*
X-1359742Y-373408D01*
X-1359688Y-373569D01*
X-1359419Y-373892D01*
X-1359096Y-374161D01*
X-1359042Y-374215D01*
X-1358988Y-374269D01*
X-1358881Y-374377D01*
X-1358665Y-374538D01*
X-1358288Y-374861D01*
X-1357965Y-375131D01*
X-1357858Y-375185D01*
X-1357804Y-375238D01*
X-1357534Y-375669D01*
X-1357373Y-376046D01*
X-1357319Y-376261D01*
Y-376369D01*
X-1357373Y-376746D01*
X-1357588Y-377015D01*
X-1357858Y-377231D01*
X-1358127Y-377338D01*
X-1358450Y-377446D01*
X-1358665Y-377500D01*
X-1358934D01*
X-1359688Y-377446D01*
X-1360281D01*
X-1360496Y-377392D01*
X-1360765D01*
X-1361411Y-377338D01*
X-1362058Y-377285D01*
X-1363081D01*
X-1363458Y-377338D01*
X-1363942D01*
X-1364427Y-377392D01*
X-1364858Y-377446D01*
X-1365235D01*
X-1365450Y-377500D01*
X-1366689D01*
X-1367227Y-377446D01*
X-1367604Y-377338D01*
X-1367873Y-377123D01*
X-1368035Y-376908D01*
X-1368196Y-376746D01*
X-1368250Y-376531D01*
Y-376423D01*
Y-376369D01*
Y-376154D01*
X-1368143Y-375938D01*
X-1367927Y-375615D01*
X-1367712Y-375346D01*
X-1367658Y-375238D01*
X-1367604D01*
X-1367065Y-374808D01*
X-1366635Y-374484D01*
X-1366312Y-374215D01*
X-1366258Y-374108D01*
X-1366204D01*
X-1365935Y-373838D01*
X-1365827Y-373569D01*
X-1365773Y-373461D01*
Y-373408D01*
Y-349014D01*
Y-348099D01*
Y-347291D01*
X-1365827Y-346591D01*
Y-345945D01*
Y-345461D01*
X-1365881Y-345137D01*
Y-344868D01*
Y-344814D01*
X-1365935Y-344222D01*
X-1365989Y-343684D01*
X-1366042Y-343253D01*
X-1366096Y-342930D01*
X-1366150Y-342660D01*
X-1366204Y-342499D01*
Y-342391D01*
Y-342337D01*
Y-341853D01*
X-1366150Y-341476D01*
X-1365989Y-341207D01*
X-1365773Y-340991D01*
X-1365558Y-340883D01*
X-1365396Y-340830D01*
X-1365181D01*
X-1364912Y-340883D01*
D02*
G37*
G36*
X-1268254Y-326021D02*
X-1266478Y-326237D01*
X-1265670Y-326398D01*
X-1264916Y-326560D01*
X-1264216Y-326775D01*
X-1263624Y-326937D01*
X-1263031Y-327152D01*
X-1262493Y-327368D01*
X-1262062Y-327529D01*
X-1261739Y-327691D01*
X-1261416Y-327798D01*
X-1261200Y-327906D01*
X-1261093Y-328014D01*
X-1261039D01*
X-1260231Y-328498D01*
X-1259531Y-329037D01*
X-1258939Y-329575D01*
X-1258400Y-330168D01*
X-1257970Y-330706D01*
X-1257646Y-331298D01*
X-1257323Y-331891D01*
X-1257108Y-332429D01*
X-1256731Y-333399D01*
X-1256677Y-333829D01*
X-1256569Y-334206D01*
Y-334529D01*
X-1256516Y-334745D01*
Y-334906D01*
Y-334960D01*
X-1256569Y-335822D01*
X-1256731Y-336629D01*
X-1257000Y-337383D01*
X-1257377Y-338137D01*
X-1257808Y-338837D01*
X-1258239Y-339483D01*
X-1258777Y-340076D01*
X-1259262Y-340614D01*
X-1259800Y-341099D01*
X-1260285Y-341530D01*
X-1260716Y-341907D01*
X-1261146Y-342230D01*
X-1261524Y-342499D01*
X-1261793Y-342660D01*
X-1261954Y-342768D01*
X-1262008Y-342822D01*
X-1264000Y-343737D01*
X-1265885Y-344653D01*
X-1267662Y-345514D01*
X-1268470Y-345891D01*
X-1269224Y-346268D01*
X-1269924Y-346591D01*
X-1270570Y-346861D01*
X-1271162Y-347130D01*
X-1271593Y-347345D01*
X-1271970Y-347561D01*
X-1272293Y-347668D01*
X-1272455Y-347722D01*
X-1272508Y-347776D01*
X-1273962Y-348530D01*
X-1275309Y-349230D01*
X-1276493Y-349876D01*
X-1277570Y-350415D01*
X-1278432Y-350845D01*
X-1278755Y-351007D01*
X-1279078Y-351168D01*
X-1279293Y-351276D01*
X-1279455Y-351384D01*
X-1279563Y-351438D01*
X-1279616D01*
X-1280747Y-352838D01*
X-1281286Y-353484D01*
X-1281716Y-354076D01*
X-1282093Y-354615D01*
X-1282363Y-354991D01*
X-1282524Y-355261D01*
X-1282578Y-355368D01*
X-1283063Y-356284D01*
X-1283440Y-357253D01*
X-1283709Y-358169D01*
X-1283924Y-359030D01*
X-1284032Y-359784D01*
X-1284086Y-360376D01*
Y-360592D01*
Y-360753D01*
Y-360861D01*
Y-360915D01*
X-1284032Y-361992D01*
X-1283870Y-363015D01*
X-1283655Y-364038D01*
X-1283386Y-364953D01*
X-1283009Y-365815D01*
X-1282632Y-366677D01*
X-1282201Y-367377D01*
X-1281770Y-368077D01*
X-1281340Y-368723D01*
X-1280909Y-369261D01*
X-1280532Y-369692D01*
X-1280155Y-370123D01*
X-1279886Y-370392D01*
X-1279670Y-370661D01*
X-1279509Y-370769D01*
X-1279455Y-370823D01*
X-1278593Y-371523D01*
X-1277678Y-372115D01*
X-1276762Y-372600D01*
X-1275847Y-373084D01*
X-1274932Y-373461D01*
X-1274070Y-373731D01*
X-1273208Y-374000D01*
X-1272401Y-374215D01*
X-1271593Y-374377D01*
X-1270893Y-374484D01*
X-1270247Y-374592D01*
X-1269708Y-374646D01*
X-1269278D01*
X-1268954Y-374700D01*
X-1268685D01*
X-1267554Y-374646D01*
X-1266424Y-374592D01*
X-1265400Y-374431D01*
X-1264377Y-374269D01*
X-1263408Y-374054D01*
X-1262547Y-373838D01*
X-1261739Y-373569D01*
X-1260985Y-373300D01*
X-1260339Y-373031D01*
X-1259693Y-372761D01*
X-1259208Y-372546D01*
X-1258777Y-372331D01*
X-1258400Y-372169D01*
X-1258185Y-372007D01*
X-1258023Y-371954D01*
X-1257970Y-371900D01*
X-1257108Y-371307D01*
X-1256354Y-370661D01*
X-1255708Y-370015D01*
X-1255169Y-369315D01*
X-1254685Y-368615D01*
X-1254308Y-367969D01*
X-1253985Y-367269D01*
X-1253716Y-366677D01*
X-1253554Y-366030D01*
X-1253392Y-365492D01*
X-1253285Y-365007D01*
X-1253177Y-364576D01*
Y-364200D01*
X-1253123Y-363930D01*
Y-363769D01*
Y-363715D01*
X-1253177Y-363015D01*
X-1253285Y-362315D01*
X-1253392Y-361722D01*
X-1253608Y-361076D01*
X-1254146Y-359999D01*
X-1254739Y-359084D01*
X-1255277Y-358330D01*
X-1255816Y-357792D01*
X-1256031Y-357576D01*
X-1256139Y-357415D01*
X-1256246Y-357361D01*
X-1256300Y-357307D01*
X-1256892Y-356876D01*
X-1257485Y-356445D01*
X-1258723Y-355853D01*
X-1259962Y-355368D01*
X-1261093Y-355099D01*
X-1262116Y-354884D01*
X-1262547Y-354830D01*
X-1262924D01*
X-1263193Y-354776D01*
X-1263624D01*
X-1264808Y-354830D01*
X-1265939Y-354991D01*
X-1266908Y-355207D01*
X-1267716Y-355422D01*
X-1268416Y-355692D01*
X-1268901Y-355907D01*
X-1269224Y-356068D01*
X-1269331Y-356122D01*
X-1269762Y-356392D01*
X-1270193Y-356715D01*
X-1270785Y-357361D01*
X-1271270Y-358007D01*
X-1271539Y-358653D01*
X-1271755Y-359245D01*
X-1271808Y-359676D01*
X-1271862Y-359999D01*
Y-360053D01*
Y-360107D01*
X-1271808Y-360699D01*
X-1271647Y-361238D01*
X-1271485Y-361722D01*
X-1271270Y-362153D01*
X-1271001Y-362476D01*
X-1270839Y-362692D01*
X-1270678Y-362853D01*
X-1270624Y-362907D01*
X-1270139Y-363284D01*
X-1269601Y-363553D01*
X-1269116Y-363715D01*
X-1268631Y-363823D01*
X-1268201Y-363930D01*
X-1267878Y-363984D01*
X-1267554D01*
X-1267178Y-363930D01*
X-1266801Y-363876D01*
X-1266208Y-363661D01*
X-1265939Y-363553D01*
X-1265778Y-363499D01*
X-1265670Y-363392D01*
X-1265616D01*
X-1265347Y-363176D01*
X-1265131Y-362907D01*
X-1265024Y-362692D01*
X-1264916Y-362476D01*
X-1264808Y-362153D01*
Y-362099D01*
Y-362046D01*
X-1264862Y-361507D01*
X-1264916Y-361076D01*
X-1264970Y-360807D01*
Y-360699D01*
X-1265024Y-360538D01*
Y-360430D01*
X-1265077Y-360376D01*
X-1265185Y-359946D01*
X-1265293Y-359784D01*
Y-359730D01*
X-1265239Y-359407D01*
X-1265131Y-359138D01*
X-1264970Y-358976D01*
X-1264754Y-358815D01*
X-1264377Y-358707D01*
X-1264162D01*
X-1264000Y-358761D01*
X-1263677Y-358815D01*
X-1263408Y-358869D01*
X-1263247D01*
X-1262924Y-358922D01*
X-1262600Y-359084D01*
X-1261954Y-359407D01*
X-1261685Y-359569D01*
X-1261470Y-359730D01*
X-1261308Y-359838D01*
X-1261254Y-359892D01*
X-1260770Y-360376D01*
X-1260393Y-360861D01*
X-1260177Y-361346D01*
X-1259962Y-361830D01*
X-1259854Y-362207D01*
X-1259800Y-362530D01*
Y-362799D01*
Y-362853D01*
X-1259854Y-363392D01*
X-1259908Y-363876D01*
X-1260231Y-364792D01*
X-1260662Y-365546D01*
X-1261200Y-366192D01*
X-1261739Y-366677D01*
X-1262170Y-367053D01*
X-1262493Y-367269D01*
X-1262547Y-367323D01*
X-1262600D01*
X-1263462Y-367700D01*
X-1264324Y-368023D01*
X-1265239Y-368238D01*
X-1266100Y-368346D01*
X-1266801Y-368453D01*
X-1267393Y-368507D01*
X-1267931D01*
X-1269224Y-368400D01*
X-1270408Y-368184D01*
X-1271485Y-367807D01*
X-1272401Y-367377D01*
X-1273155Y-367000D01*
X-1273693Y-366623D01*
X-1273908Y-366515D01*
X-1274070Y-366407D01*
X-1274124Y-366300D01*
X-1274178D01*
X-1274662Y-365869D01*
X-1275093Y-365438D01*
X-1275470Y-364953D01*
X-1275793Y-364469D01*
X-1276278Y-363553D01*
X-1276601Y-362692D01*
X-1276762Y-361884D01*
X-1276870Y-361238D01*
X-1276924Y-361022D01*
Y-360861D01*
Y-360753D01*
Y-360699D01*
X-1276870Y-359892D01*
X-1276762Y-359084D01*
X-1276547Y-358384D01*
X-1276278Y-357684D01*
X-1275632Y-356499D01*
X-1274878Y-355476D01*
X-1274501Y-355045D01*
X-1274124Y-354669D01*
X-1273801Y-354345D01*
X-1273478Y-354130D01*
X-1273208Y-353915D01*
X-1272993Y-353753D01*
X-1272885Y-353699D01*
X-1272831Y-353645D01*
X-1271485Y-352945D01*
X-1269978Y-352407D01*
X-1268470Y-352030D01*
X-1267070Y-351761D01*
X-1266424Y-351653D01*
X-1265831Y-351599D01*
X-1265293Y-351545D01*
X-1264808D01*
X-1264431Y-351491D01*
X-1263893D01*
X-1262870Y-351545D01*
X-1261846Y-351653D01*
X-1260877Y-351814D01*
X-1259962Y-352030D01*
X-1259100Y-352353D01*
X-1258293Y-352622D01*
X-1257539Y-352945D01*
X-1256839Y-353268D01*
X-1256246Y-353645D01*
X-1255708Y-353968D01*
X-1255223Y-354238D01*
X-1254846Y-354507D01*
X-1254523Y-354776D01*
X-1254308Y-354938D01*
X-1254146Y-355045D01*
X-1254092Y-355099D01*
X-1253392Y-355799D01*
X-1252746Y-356499D01*
X-1252208Y-357253D01*
X-1251723Y-357953D01*
X-1251346Y-358707D01*
X-1251023Y-359407D01*
X-1250754Y-360107D01*
X-1250538Y-360753D01*
X-1250323Y-361399D01*
X-1250215Y-361938D01*
X-1250108Y-362423D01*
X-1250054Y-362853D01*
Y-363230D01*
X-1250000Y-363499D01*
Y-363661D01*
Y-363715D01*
X-1250054Y-365007D01*
X-1250269Y-366246D01*
X-1250538Y-367430D01*
X-1250915Y-368507D01*
X-1251346Y-369530D01*
X-1251885Y-370446D01*
X-1252369Y-371307D01*
X-1252962Y-372061D01*
X-1253500Y-372761D01*
X-1254039Y-373354D01*
X-1254523Y-373838D01*
X-1254954Y-374269D01*
X-1255331Y-374592D01*
X-1255600Y-374808D01*
X-1255816Y-374969D01*
X-1255869Y-375023D01*
X-1256892Y-375669D01*
X-1257916Y-376208D01*
X-1258939Y-376692D01*
X-1260016Y-377123D01*
X-1261093Y-377446D01*
X-1262170Y-377769D01*
X-1263193Y-377985D01*
X-1264162Y-378200D01*
X-1265077Y-378308D01*
X-1265939Y-378415D01*
X-1266693Y-378523D01*
X-1267339Y-378577D01*
X-1267824Y-378631D01*
X-1268577D01*
X-1270085Y-378577D01*
X-1271593Y-378415D01*
X-1272993Y-378200D01*
X-1274285Y-377877D01*
X-1275578Y-377554D01*
X-1276762Y-377123D01*
X-1277839Y-376692D01*
X-1278809Y-376261D01*
X-1279724Y-375831D01*
X-1280532Y-375400D01*
X-1281232Y-374969D01*
X-1281770Y-374646D01*
X-1282255Y-374323D01*
X-1282578Y-374108D01*
X-1282793Y-373946D01*
X-1282847Y-373892D01*
X-1283978Y-372923D01*
X-1285001Y-371900D01*
X-1285863Y-370823D01*
X-1286617Y-369746D01*
X-1287263Y-368669D01*
X-1287747Y-367592D01*
X-1288178Y-366569D01*
X-1288555Y-365600D01*
X-1288824Y-364630D01*
X-1289040Y-363769D01*
X-1289147Y-363015D01*
X-1289255Y-362369D01*
X-1289309Y-361830D01*
X-1289363Y-361399D01*
Y-361184D01*
Y-361076D01*
X-1289309Y-359192D01*
X-1289094Y-357415D01*
X-1288932Y-356607D01*
X-1288770Y-355853D01*
X-1288609Y-355207D01*
X-1288448Y-354561D01*
X-1288232Y-353968D01*
X-1288071Y-353484D01*
X-1287909Y-352999D01*
X-1287801Y-352676D01*
X-1287640Y-352353D01*
X-1287586Y-352138D01*
X-1287478Y-352030D01*
Y-351976D01*
X-1286832Y-350845D01*
X-1286024Y-349876D01*
X-1285270Y-349068D01*
X-1284463Y-348422D01*
X-1283763Y-347884D01*
X-1283224Y-347561D01*
X-1283009Y-347453D01*
X-1282847Y-347345D01*
X-1282740Y-347291D01*
X-1282686D01*
X-1281555Y-346161D01*
X-1280370Y-345137D01*
X-1279186Y-344222D01*
X-1278055Y-343468D01*
X-1277032Y-342822D01*
X-1276601Y-342607D01*
X-1276278Y-342391D01*
X-1275955Y-342230D01*
X-1275739Y-342122D01*
X-1275578Y-342014D01*
X-1275524D01*
X-1275255Y-341853D01*
X-1274878Y-341691D01*
X-1274447Y-341476D01*
X-1273908Y-341260D01*
X-1272778Y-340722D01*
X-1271593Y-340183D01*
X-1270462Y-339699D01*
X-1269924Y-339483D01*
X-1269493Y-339268D01*
X-1269116Y-339106D01*
X-1268847Y-338999D01*
X-1268631Y-338891D01*
X-1268577D01*
X-1267339Y-338299D01*
X-1266262Y-337814D01*
X-1265400Y-337329D01*
X-1264700Y-336953D01*
X-1264162Y-336629D01*
X-1263785Y-336414D01*
X-1263570Y-336252D01*
X-1263516Y-336199D01*
X-1262924Y-335660D01*
X-1262439Y-335176D01*
X-1262116Y-334691D01*
X-1261900Y-334206D01*
X-1261793Y-333829D01*
X-1261739Y-333506D01*
X-1261685Y-333291D01*
Y-333237D01*
X-1261739Y-332860D01*
X-1261793Y-332483D01*
X-1262062Y-331783D01*
X-1262493Y-331245D01*
X-1262977Y-330760D01*
X-1263408Y-330383D01*
X-1263839Y-330114D01*
X-1264108Y-329952D01*
X-1264216Y-329898D01*
X-1265131Y-329521D01*
X-1266047Y-329252D01*
X-1267016Y-329037D01*
X-1267931Y-328929D01*
X-1268739Y-328821D01*
X-1269116D01*
X-1269385Y-328768D01*
X-1270732D01*
X-1271378Y-328875D01*
X-1271970Y-328983D01*
X-1272508Y-329091D01*
X-1272885Y-329198D01*
X-1273208Y-329306D01*
X-1273370Y-329360D01*
X-1273424Y-329414D01*
X-1273908Y-329683D01*
X-1274285Y-330006D01*
X-1274555Y-330329D01*
X-1274770Y-330652D01*
X-1274878Y-330922D01*
X-1274932Y-331137D01*
Y-331298D01*
Y-331352D01*
X-1274878Y-331675D01*
X-1274824Y-331998D01*
X-1274770Y-332214D01*
X-1274716Y-332268D01*
X-1274555Y-332537D01*
X-1274393Y-332806D01*
X-1274285Y-332968D01*
X-1274232Y-333022D01*
X-1273962Y-333345D01*
X-1273801Y-333668D01*
X-1273747Y-333883D01*
Y-333937D01*
X-1273801Y-334099D01*
X-1273855Y-334314D01*
X-1274124Y-334637D01*
X-1274393Y-334852D01*
X-1274447Y-334960D01*
X-1274501D01*
X-1275093Y-335122D01*
X-1275632Y-335229D01*
X-1275847Y-335283D01*
X-1276493D01*
X-1276924Y-335229D01*
X-1277355D01*
X-1277678Y-335122D01*
X-1278001Y-335014D01*
X-1278647Y-334583D01*
X-1278916Y-334368D01*
X-1279132Y-334206D01*
X-1279240Y-334099D01*
X-1279293Y-334045D01*
X-1279670Y-333614D01*
X-1279939Y-333183D01*
X-1280155Y-332752D01*
X-1280263Y-332375D01*
X-1280370Y-331998D01*
X-1280424Y-331729D01*
Y-331568D01*
Y-331514D01*
X-1280370Y-330922D01*
X-1280263Y-330383D01*
X-1280101Y-329898D01*
X-1279832Y-329414D01*
X-1279240Y-328606D01*
X-1278593Y-327960D01*
X-1277893Y-327475D01*
X-1277301Y-327152D01*
X-1277032Y-327044D01*
X-1276870Y-326937D01*
X-1276762Y-326883D01*
X-1276709D01*
X-1275739Y-326560D01*
X-1274662Y-326344D01*
X-1273585Y-326129D01*
X-1272562Y-326021D01*
X-1271593Y-325967D01*
X-1271216D01*
X-1270893Y-325914D01*
X-1270193D01*
X-1268254Y-326021D01*
D02*
G37*
G36*
X-1402013Y-369423D02*
X-1401367Y-369584D01*
X-1400774Y-369800D01*
X-1400290Y-370015D01*
X-1399913Y-370284D01*
X-1399644Y-370500D01*
X-1399428Y-370661D01*
X-1399374Y-370715D01*
X-1398944Y-371254D01*
X-1398620Y-371792D01*
X-1398405Y-372384D01*
X-1398244Y-372869D01*
X-1398136Y-373354D01*
X-1398082Y-373731D01*
Y-373946D01*
Y-374054D01*
X-1398136Y-374754D01*
X-1398297Y-375400D01*
X-1398513Y-375938D01*
X-1398782Y-376423D01*
X-1398997Y-376800D01*
X-1399213Y-377069D01*
X-1399374Y-377285D01*
X-1399428Y-377338D01*
X-1399967Y-377769D01*
X-1400505Y-378092D01*
X-1401098Y-378308D01*
X-1401582Y-378469D01*
X-1402067Y-378577D01*
X-1402444Y-378631D01*
X-1402767D01*
X-1403467Y-378577D01*
X-1404113Y-378415D01*
X-1404651Y-378200D01*
X-1405136Y-377985D01*
X-1405513Y-377769D01*
X-1405836Y-377554D01*
X-1405998Y-377392D01*
X-1406051Y-377338D01*
X-1406536Y-376800D01*
X-1406859Y-376261D01*
X-1407128Y-375723D01*
X-1407290Y-375185D01*
X-1407398Y-374754D01*
X-1407451Y-374377D01*
Y-374161D01*
Y-374054D01*
X-1407398Y-373354D01*
X-1407236Y-372708D01*
X-1407021Y-372115D01*
X-1406752Y-371631D01*
X-1406482Y-371254D01*
X-1406267Y-370931D01*
X-1406105Y-370769D01*
X-1406051Y-370715D01*
X-1405513Y-370284D01*
X-1404975Y-369961D01*
X-1404382Y-369692D01*
X-1403898Y-369530D01*
X-1403413Y-369423D01*
X-1403090Y-369369D01*
X-1402767D01*
X-1402013Y-369423D01*
D02*
G37*
%LPC*%
G36*
X-517023Y396042D02*
X-525491D01*
Y395840D01*
X-525895D01*
Y395639D01*
Y395437D01*
X-526096D01*
Y386767D01*
X-525895D01*
Y386566D01*
X-525693D01*
Y386364D01*
X-517023D01*
Y386566D01*
X-516620D01*
Y386969D01*
X-516418D01*
Y395437D01*
X-516620D01*
Y395840D01*
X-517023D01*
Y396042D01*
D02*
G37*
G36*
X-526701Y395639D02*
X-527508D01*
Y395437D01*
X-528112D01*
Y395235D01*
X-528314D01*
Y395034D01*
X-528516D01*
Y394832D01*
X-528717D01*
Y392614D01*
X-528919D01*
Y385558D01*
X-529120D01*
Y385154D01*
X-528919D01*
Y384348D01*
X-528516D01*
Y384146D01*
X-528314D01*
Y383945D01*
X-527104D01*
Y384146D01*
X-526096D01*
Y384348D01*
X-517225D01*
Y384549D01*
X-517023D01*
Y385154D01*
X-516821D01*
Y385759D01*
X-525693D01*
Y385961D01*
X-526096D01*
Y385759D01*
X-526298D01*
Y385558D01*
X-526701D01*
Y385356D01*
X-526903D01*
Y385154D01*
X-527104D01*
Y384953D01*
X-527508D01*
Y384751D01*
X-527911D01*
Y384953D01*
X-527709D01*
Y385356D01*
X-527508D01*
Y385558D01*
X-527306D01*
Y385759D01*
X-527104D01*
Y385961D01*
X-526903D01*
Y386162D01*
X-526701D01*
Y386566D01*
X-526499D01*
Y386969D01*
X-526701D01*
Y395639D01*
D02*
G37*
G36*
X-505531Y383945D02*
X-513596D01*
Y383743D01*
X-513999D01*
Y383541D01*
X-514200D01*
Y383340D01*
X-514402D01*
Y374670D01*
X-514200D01*
Y374468D01*
X-513999D01*
Y374267D01*
X-506740D01*
Y374065D01*
X-506337D01*
Y374267D01*
X-505127D01*
Y374468D01*
X-504926D01*
Y374871D01*
X-504724D01*
Y382735D01*
Y382936D01*
Y383138D01*
X-504926D01*
Y383541D01*
X-505127D01*
Y383743D01*
X-505531D01*
Y383945D01*
D02*
G37*
G36*
X-517628D02*
X-525088D01*
Y383743D01*
X-525895D01*
Y383541D01*
X-526096D01*
Y382936D01*
X-526298D01*
Y376888D01*
X-526096D01*
Y376686D01*
X-526298D01*
Y375476D01*
X-526096D01*
Y374468D01*
X-525895D01*
Y374267D01*
X-525290D01*
Y374065D01*
X-517426D01*
Y374267D01*
X-516821D01*
Y374670D01*
X-516620D01*
Y375275D01*
X-516418D01*
Y382735D01*
X-516620D01*
Y383340D01*
X-516821D01*
Y383743D01*
X-517628D01*
Y383945D01*
D02*
G37*
G36*
X-529524D02*
X-536984D01*
Y383743D01*
X-537589D01*
Y383541D01*
X-537790D01*
Y383138D01*
X-537992D01*
Y375880D01*
Y375678D01*
Y374871D01*
X-537790D01*
Y374468D01*
X-537589D01*
Y374267D01*
X-537185D01*
Y374065D01*
X-529322D01*
Y374267D01*
X-528717D01*
Y374468D01*
X-528516D01*
Y374670D01*
X-528314D01*
Y383340D01*
X-528516D01*
Y383541D01*
X-528717D01*
Y383743D01*
X-529524D01*
Y383945D01*
D02*
G37*
G36*
X-515007Y383541D02*
X-515612D01*
Y383340D01*
X-516015D01*
Y374267D01*
X-516217D01*
Y373460D01*
X-516418D01*
Y372855D01*
X-516015D01*
Y373057D01*
X-515813D01*
Y373460D01*
X-515612D01*
Y373662D01*
X-515410D01*
Y373863D01*
X-515208D01*
Y374065D01*
X-515007D01*
Y374468D01*
X-514805D01*
Y374670D01*
X-515007D01*
Y377492D01*
Y377694D01*
Y383541D01*
D02*
G37*
G36*
X-505127Y373662D02*
X-514604D01*
Y373460D01*
X-514805D01*
Y373258D01*
X-515208D01*
Y373057D01*
X-515410D01*
Y372855D01*
X-515813D01*
Y372654D01*
X-516015D01*
Y372452D01*
X-516217D01*
Y372654D01*
X-516418D01*
Y372250D01*
X-516620D01*
Y371646D01*
X-515208D01*
Y371444D01*
X-515007D01*
Y371646D01*
X-514604D01*
Y371444D01*
X-514200D01*
Y371646D01*
X-505934D01*
Y371847D01*
X-505531D01*
Y372250D01*
X-505329D01*
Y372855D01*
X-505127D01*
Y373662D01*
D02*
G37*
G36*
X-526701Y383541D02*
X-527306D01*
Y383340D01*
X-527709D01*
Y381122D01*
Y380920D01*
Y374670D01*
X-527911D01*
Y373662D01*
X-528112D01*
Y372654D01*
X-527911D01*
Y372452D01*
X-528314D01*
Y372049D01*
X-528516D01*
Y371646D01*
X-528314D01*
Y371444D01*
X-528112D01*
Y371646D01*
X-527911D01*
Y371444D01*
X-526701D01*
Y371646D01*
X-517426D01*
Y372049D01*
X-517225D01*
Y372452D01*
X-517023D01*
Y373258D01*
X-516821D01*
Y373460D01*
X-517023D01*
Y373662D01*
X-526298D01*
Y373460D01*
X-526499D01*
Y373258D01*
X-526903D01*
Y373057D01*
X-527104D01*
Y372855D01*
X-527508D01*
Y372654D01*
X-527911D01*
Y373057D01*
X-527709D01*
Y373258D01*
X-527508D01*
Y373460D01*
X-527306D01*
Y373662D01*
X-527104D01*
Y373863D01*
X-526903D01*
Y374267D01*
X-526701D01*
Y383541D01*
D02*
G37*
G36*
X-538597D02*
X-539202D01*
Y383340D01*
X-539807D01*
Y383138D01*
X-540210D01*
Y382936D01*
X-540411D01*
Y382533D01*
X-540613D01*
Y378904D01*
X-540815D01*
Y372049D01*
X-540613D01*
Y371847D01*
X-540411D01*
Y371646D01*
X-539807D01*
Y371444D01*
X-539000D01*
Y371646D01*
X-538395D01*
Y371444D01*
X-538194D01*
Y371646D01*
X-529322D01*
Y371847D01*
X-529120D01*
Y372049D01*
X-528919D01*
Y372654D01*
X-528717D01*
Y373662D01*
X-537992D01*
Y373460D01*
X-538395D01*
Y373258D01*
X-538597D01*
Y373057D01*
X-539000D01*
Y372855D01*
X-539202D01*
Y372654D01*
X-539605D01*
Y372452D01*
X-539807D01*
Y372855D01*
X-539605D01*
Y373057D01*
X-539403D01*
Y373258D01*
X-539202D01*
Y373460D01*
X-539000D01*
Y373662D01*
X-538798D01*
Y374065D01*
X-538597D01*
Y374267D01*
X-538395D01*
Y374871D01*
X-538597D01*
Y382936D01*
X-538395D01*
Y383340D01*
X-538597D01*
Y383541D01*
D02*
G37*
G36*
X-505934Y371041D02*
X-513999D01*
Y370839D01*
X-514402D01*
Y370637D01*
X-514604D01*
Y370436D01*
X-514805D01*
Y361766D01*
X-514604D01*
Y361564D01*
X-514402D01*
Y361363D01*
X-507144D01*
Y361161D01*
X-506740D01*
Y361363D01*
X-505531D01*
Y361564D01*
X-505329D01*
Y361968D01*
X-505127D01*
Y370234D01*
X-505329D01*
Y370637D01*
X-505531D01*
Y370839D01*
X-505934D01*
Y371041D01*
D02*
G37*
G36*
X-518031D02*
X-525491D01*
Y370839D01*
X-526298D01*
Y370637D01*
X-526499D01*
Y370033D01*
X-526701D01*
Y363984D01*
X-526499D01*
Y363782D01*
X-526701D01*
Y362572D01*
X-526499D01*
Y361564D01*
X-526298D01*
Y361363D01*
X-525693D01*
Y361161D01*
X-517830D01*
Y361363D01*
X-517225D01*
Y361766D01*
X-517023D01*
Y361968D01*
Y362169D01*
Y362371D01*
X-516821D01*
Y369831D01*
X-517023D01*
Y370436D01*
X-517225D01*
Y370839D01*
X-518031D01*
Y371041D01*
D02*
G37*
G36*
X-529927D02*
X-537387D01*
Y370839D01*
X-537992D01*
Y370637D01*
X-538194D01*
Y370234D01*
X-538395D01*
Y368419D01*
Y368218D01*
Y361968D01*
X-538194D01*
Y361564D01*
X-537992D01*
Y361363D01*
X-537589D01*
Y361161D01*
X-529725D01*
Y361363D01*
X-529120D01*
Y361564D01*
X-528919D01*
Y361766D01*
X-528717D01*
Y370436D01*
X-528919D01*
Y370637D01*
X-529120D01*
Y370839D01*
X-529927D01*
Y371041D01*
D02*
G37*
G36*
X-515410Y370637D02*
X-516015D01*
Y370436D01*
X-516418D01*
Y362774D01*
Y362572D01*
Y361363D01*
X-516620D01*
Y360556D01*
X-516821D01*
Y359951D01*
X-516418D01*
Y360153D01*
X-516217D01*
Y360556D01*
X-516015D01*
Y360758D01*
X-515813D01*
Y360959D01*
X-515612D01*
Y361161D01*
X-515410D01*
Y361564D01*
X-515208D01*
Y361766D01*
X-515410D01*
Y370637D01*
D02*
G37*
G36*
X-505531Y360758D02*
X-515007D01*
Y360556D01*
X-515208D01*
Y360354D01*
X-515612D01*
Y360153D01*
X-515813D01*
Y359951D01*
X-516217D01*
Y359750D01*
X-516418D01*
Y359548D01*
X-516620D01*
Y359750D01*
X-516821D01*
Y359346D01*
X-517023D01*
Y358742D01*
X-506337D01*
Y358943D01*
X-505934D01*
Y359346D01*
X-505732D01*
Y359951D01*
X-505531D01*
Y360758D01*
D02*
G37*
G36*
X-527104Y370637D02*
X-527709D01*
Y370436D01*
X-528112D01*
Y368621D01*
Y368419D01*
Y361766D01*
X-528314D01*
Y360758D01*
X-528516D01*
Y359750D01*
X-528314D01*
Y359548D01*
X-528717D01*
Y359145D01*
X-528919D01*
Y358742D01*
X-528314D01*
Y358540D01*
X-518838D01*
Y358742D01*
X-518031D01*
Y358943D01*
X-517830D01*
Y359145D01*
X-517628D01*
Y359548D01*
X-517426D01*
Y360354D01*
X-517225D01*
Y360556D01*
X-517426D01*
Y360758D01*
X-526701D01*
Y360556D01*
X-526903D01*
Y360354D01*
X-527306D01*
Y360153D01*
X-527508D01*
Y359951D01*
X-527911D01*
Y359750D01*
X-528314D01*
Y360153D01*
X-528112D01*
Y360354D01*
X-527911D01*
Y360556D01*
X-527709D01*
Y360758D01*
X-527508D01*
Y360959D01*
X-527306D01*
Y361363D01*
X-527104D01*
Y370637D01*
D02*
G37*
G36*
X-539000D02*
X-539605D01*
Y370436D01*
X-540210D01*
Y370234D01*
X-540613D01*
Y370033D01*
X-540815D01*
Y369629D01*
X-541016D01*
Y366000D01*
X-541218D01*
Y359145D01*
X-541016D01*
Y358943D01*
X-540815D01*
Y358742D01*
X-540210D01*
Y358540D01*
X-530330D01*
Y358742D01*
X-529725D01*
Y358943D01*
X-529524D01*
Y359145D01*
X-529322D01*
Y359750D01*
X-529120D01*
Y360758D01*
X-538395D01*
Y360556D01*
X-538798D01*
Y360354D01*
X-539000D01*
Y360153D01*
X-539403D01*
Y359951D01*
X-539605D01*
Y359750D01*
X-540008D01*
Y359548D01*
X-540210D01*
Y359951D01*
X-540008D01*
Y360153D01*
X-539807D01*
Y360354D01*
X-539605D01*
Y360556D01*
X-539403D01*
Y360758D01*
X-539202D01*
Y361161D01*
X-539000D01*
Y361363D01*
X-538798D01*
Y361968D01*
X-539000D01*
Y370033D01*
X-538798D01*
Y370436D01*
X-539000D01*
Y370637D01*
D02*
G37*
%LPD*%
G36*
X-508187Y382316D02*
X-508068Y382301D01*
X-507972Y382279D01*
X-507898Y382249D01*
X-507839Y382220D01*
X-507795Y382197D01*
X-507773Y382183D01*
X-507765Y382175D01*
X-507714Y382116D01*
X-507677Y382057D01*
X-507647Y381998D01*
X-507632Y381931D01*
X-507617Y381880D01*
X-507610Y381835D01*
Y381806D01*
Y381798D01*
X-507617Y381717D01*
X-507632Y381643D01*
X-507662Y381577D01*
X-507691Y381525D01*
X-507714Y381480D01*
X-507743Y381451D01*
X-507758Y381429D01*
X-507765Y381421D01*
X-507839Y381377D01*
X-507920Y381340D01*
X-508017Y381318D01*
X-508105Y381296D01*
X-508194Y381288D01*
X-508260Y381281D01*
X-509384D01*
Y377186D01*
X-508327D01*
X-508187Y377179D01*
X-508068Y377164D01*
X-507972Y377142D01*
X-507898Y377112D01*
X-507839Y377083D01*
X-507795Y377060D01*
X-507773Y377046D01*
X-507765Y377038D01*
X-507714Y376979D01*
X-507677Y376920D01*
X-507647Y376861D01*
X-507632Y376802D01*
X-507617Y376750D01*
X-507610Y376706D01*
Y376676D01*
Y376669D01*
X-507617Y376587D01*
X-507632Y376506D01*
X-507662Y376447D01*
X-507691Y376388D01*
X-507714Y376343D01*
X-507743Y376314D01*
X-507758Y376292D01*
X-507765Y376284D01*
X-507839Y376240D01*
X-507920Y376203D01*
X-508017Y376181D01*
X-508105Y376159D01*
X-508194Y376151D01*
X-508260Y376144D01*
X-511483D01*
X-511616Y376151D01*
X-511734Y376166D01*
X-511830Y376188D01*
X-511904Y376218D01*
X-511964Y376240D01*
X-512008Y376262D01*
X-512030Y376277D01*
X-512038Y376284D01*
X-512089Y376343D01*
X-512134Y376403D01*
X-512163Y376469D01*
X-512178Y376528D01*
X-512193Y376580D01*
X-512200Y376624D01*
Y376654D01*
Y376661D01*
X-512193Y376743D01*
X-512178Y376816D01*
X-512148Y376883D01*
X-512119Y376935D01*
X-512089Y376979D01*
X-512060Y377009D01*
X-512045Y377031D01*
X-512038Y377038D01*
X-511964Y377090D01*
X-511882Y377127D01*
X-511794Y377149D01*
X-511698Y377171D01*
X-511616Y377179D01*
X-511550Y377186D01*
X-510426D01*
Y381273D01*
X-511483D01*
X-511616Y381281D01*
X-511734Y381296D01*
X-511830Y381318D01*
X-511904Y381347D01*
X-511964Y381370D01*
X-512008Y381392D01*
X-512030Y381407D01*
X-512038Y381414D01*
X-512089Y381473D01*
X-512134Y381540D01*
X-512163Y381599D01*
X-512178Y381665D01*
X-512193Y381717D01*
X-512200Y381761D01*
Y381791D01*
Y381798D01*
X-512193Y381880D01*
X-512178Y381954D01*
X-512148Y382013D01*
X-512119Y382072D01*
X-512089Y382109D01*
X-512060Y382146D01*
X-512045Y382160D01*
X-512038Y382168D01*
X-511964Y382220D01*
X-511882Y382257D01*
X-511794Y382279D01*
X-511698Y382301D01*
X-511616Y382308D01*
X-511550Y382316D01*
X-511483D01*
X-508327Y382323D01*
X-508187Y382316D01*
D02*
G37*
G36*
X-521409Y381044D02*
X-521291Y381037D01*
X-521143Y381022D01*
X-520988Y380993D01*
X-520818Y380963D01*
X-520648Y380911D01*
X-520641D01*
X-520626Y380904D01*
X-520604Y380897D01*
X-520574Y380882D01*
X-520493Y380845D01*
X-520382Y380801D01*
X-520264Y380734D01*
X-520138Y380653D01*
X-520012Y380549D01*
X-519894Y380438D01*
X-519879Y380424D01*
X-519850Y380379D01*
X-519798Y380305D01*
X-519739Y380209D01*
X-519687Y380091D01*
X-519635Y379943D01*
X-519598Y379773D01*
X-519584Y379588D01*
Y379581D01*
Y379566D01*
Y379544D01*
X-519591Y379507D01*
X-519598Y379418D01*
X-519621Y379315D01*
X-519650Y379189D01*
X-519687Y379063D01*
X-519746Y378938D01*
X-519828Y378820D01*
X-519842Y378805D01*
X-519872Y378775D01*
X-519924Y378723D01*
X-519990Y378664D01*
X-520079Y378591D01*
X-520182Y378524D01*
X-520293Y378450D01*
X-520426Y378391D01*
X-520434D01*
X-520441Y378383D01*
X-520463Y378376D01*
X-520485Y378369D01*
X-520559Y378346D01*
X-520655Y378317D01*
X-520766Y378280D01*
X-520892Y378251D01*
X-521025Y378221D01*
X-521165Y378199D01*
X-521180D01*
X-521202Y378191D01*
X-521232D01*
X-521298Y378184D01*
X-521387Y378169D01*
X-521491Y378162D01*
X-521609Y378147D01*
X-521720Y378132D01*
X-521831Y378125D01*
X-521882D01*
X-521941Y378117D01*
X-522015D01*
X-522112Y378110D01*
X-522215D01*
X-522326Y378103D01*
X-522444Y378095D01*
X-522496D01*
X-522555Y378088D01*
X-522636Y378073D01*
X-522725Y378058D01*
X-522821Y378036D01*
X-522917Y378007D01*
X-523013Y377962D01*
X-523021D01*
X-523028Y377955D01*
X-523065Y377933D01*
X-523102Y377888D01*
X-523131Y377836D01*
X-523139Y377822D01*
X-523154Y377792D01*
X-523161Y377740D01*
X-523168Y377674D01*
Y377667D01*
X-523161Y377644D01*
X-523154Y377615D01*
X-523139Y377570D01*
X-523117Y377519D01*
X-523080Y377474D01*
X-523035Y377423D01*
X-522969Y377371D01*
X-522962Y377364D01*
X-522932Y377349D01*
X-522895Y377327D01*
X-522836Y377304D01*
X-522769Y377275D01*
X-522688Y377245D01*
X-522599Y377216D01*
X-522496Y377186D01*
X-522481D01*
X-522444Y377179D01*
X-522392Y377171D01*
X-522318Y377156D01*
X-522230Y377149D01*
X-522134Y377134D01*
X-522030Y377127D01*
X-521831D01*
X-521786Y377134D01*
X-521735D01*
X-521609Y377142D01*
X-521461Y377156D01*
X-521306Y377171D01*
X-521151Y377193D01*
X-521003Y377223D01*
X-520995D01*
X-520988Y377230D01*
X-520944Y377238D01*
X-520870Y377260D01*
X-520788Y377282D01*
X-520692Y377312D01*
X-520596Y377341D01*
X-520500Y377371D01*
X-520419Y377400D01*
Y378140D01*
X-519443D01*
Y376144D01*
X-520419D01*
Y376447D01*
X-520426D01*
X-520434Y376440D01*
X-520478Y376425D01*
X-520552Y376395D01*
X-520648Y376366D01*
X-520759Y376329D01*
X-520885Y376292D01*
X-521018Y376255D01*
X-521165Y376225D01*
X-521180D01*
X-521202Y376218D01*
X-521232Y376210D01*
X-521313Y376203D01*
X-521417Y376188D01*
X-521542Y376174D01*
X-521675Y376159D01*
X-521823Y376151D01*
X-521978Y376144D01*
X-522082D01*
X-522134Y376151D01*
X-522193D01*
X-522259Y376159D01*
X-522341Y376166D01*
X-522503Y376188D01*
X-522688Y376225D01*
X-522873Y376270D01*
X-523058Y376329D01*
X-523065D01*
X-523080Y376336D01*
X-523102Y376351D01*
X-523139Y376366D01*
X-523228Y376403D01*
X-523339Y376462D01*
X-523457Y376536D01*
X-523590Y376632D01*
X-523715Y376735D01*
X-523826Y376853D01*
Y376861D01*
X-523841Y376868D01*
X-523856Y376890D01*
X-523871Y376913D01*
X-523915Y376987D01*
X-523974Y377090D01*
X-524026Y377208D01*
X-524070Y377349D01*
X-524100Y377504D01*
X-524115Y377674D01*
Y377681D01*
Y377704D01*
Y377733D01*
X-524107Y377770D01*
X-524100Y377822D01*
X-524092Y377881D01*
X-524063Y378014D01*
X-524011Y378162D01*
X-523945Y378317D01*
X-523856Y378465D01*
X-523797Y378531D01*
X-523730Y378598D01*
X-523723Y378605D01*
X-523715Y378613D01*
X-523693Y378627D01*
X-523664Y378650D01*
X-523627Y378679D01*
X-523582Y378709D01*
X-523479Y378775D01*
X-523353Y378842D01*
X-523198Y378901D01*
X-523028Y378953D01*
X-522836Y378982D01*
X-521498Y379086D01*
X-521476D01*
X-521439Y379093D01*
X-521402D01*
X-521343Y379100D01*
X-521284Y379108D01*
X-521210Y379115D01*
X-521128Y379130D01*
X-521121D01*
X-521091Y379137D01*
X-521047Y379145D01*
X-520995Y379160D01*
X-520929Y379182D01*
X-520862Y379204D01*
X-520722Y379271D01*
X-520714Y379278D01*
X-520692Y379293D01*
X-520663Y379315D01*
X-520626Y379344D01*
X-520589Y379389D01*
X-520559Y379440D01*
X-520537Y379500D01*
X-520522Y379566D01*
Y379574D01*
X-520530Y379603D01*
X-520537Y379640D01*
X-520559Y379684D01*
X-520589Y379736D01*
X-520633Y379788D01*
X-520692Y379840D01*
X-520766Y379884D01*
X-520774Y379891D01*
X-520803Y379899D01*
X-520855Y379921D01*
X-520914Y379943D01*
X-520988Y379965D01*
X-521069Y379987D01*
X-521165Y380010D01*
X-521261Y380024D01*
X-521276D01*
X-521306Y380032D01*
X-521358Y380039D01*
X-521417Y380047D01*
X-521550Y380054D01*
X-521616Y380061D01*
X-521794D01*
X-521875Y380054D01*
X-521978Y380047D01*
X-522089Y380032D01*
X-522208Y380010D01*
X-522333Y379987D01*
X-522348D01*
X-522392Y379973D01*
X-522452Y379958D01*
X-522533Y379936D01*
X-522629Y379906D01*
X-522732Y379877D01*
X-522939Y379788D01*
Y379197D01*
X-523915D01*
Y381052D01*
X-522939D01*
Y380808D01*
X-522925Y380815D01*
X-522888Y380830D01*
X-522828Y380845D01*
X-522747Y380874D01*
X-522651Y380897D01*
X-522540Y380926D01*
X-522422Y380956D01*
X-522289Y380985D01*
X-522274D01*
X-522230Y380993D01*
X-522163Y381007D01*
X-522075Y381022D01*
X-521964Y381030D01*
X-521845Y381044D01*
X-521720Y381052D01*
X-521461D01*
X-521409Y381044D01*
D02*
G37*
G36*
X-532914D02*
X-532848D01*
X-532774Y381037D01*
X-532692Y381030D01*
X-532604Y381015D01*
X-532397Y380985D01*
X-532175Y380933D01*
X-531939Y380867D01*
X-531702Y380771D01*
X-531695D01*
X-531673Y380756D01*
X-531643Y380741D01*
X-531599Y380719D01*
X-531547Y380690D01*
X-531488Y380653D01*
X-531340Y380564D01*
X-531185Y380446D01*
X-531015Y380305D01*
X-530845Y380135D01*
X-530689Y379943D01*
X-530682Y379936D01*
X-530675Y379921D01*
X-530653Y379884D01*
X-530630Y379847D01*
X-530601Y379788D01*
X-530564Y379729D01*
X-530527Y379647D01*
X-530490Y379566D01*
X-530453Y379470D01*
X-530423Y379367D01*
X-530386Y379256D01*
X-530357Y379130D01*
X-530327Y379004D01*
X-530312Y378871D01*
X-530298Y378723D01*
X-530290Y378576D01*
Y378568D01*
Y378546D01*
Y378509D01*
X-530298Y378465D01*
Y378406D01*
X-530305Y378339D01*
X-530312Y378258D01*
X-530327Y378176D01*
X-530364Y377999D01*
X-530409Y377807D01*
X-530475Y377615D01*
X-530564Y377430D01*
Y377423D01*
X-530578Y377408D01*
X-530593Y377386D01*
X-530616Y377356D01*
X-530667Y377267D01*
X-530748Y377164D01*
X-530852Y377038D01*
X-530963Y376913D01*
X-531103Y376794D01*
X-531251Y376676D01*
X-531259D01*
X-531273Y376661D01*
X-531296Y376646D01*
X-531325Y376632D01*
X-531362Y376602D01*
X-531406Y376580D01*
X-531525Y376513D01*
X-531658Y376447D01*
X-531813Y376380D01*
X-531976Y376314D01*
X-532153Y376262D01*
X-532160D01*
X-532175Y376255D01*
X-532205Y376247D01*
X-532234Y376240D01*
X-532279Y376233D01*
X-532330Y376225D01*
X-532456Y376203D01*
X-532596Y376181D01*
X-532752Y376159D01*
X-532922Y376144D01*
X-533203D01*
X-533254Y376151D01*
X-533321Y376159D01*
X-533395D01*
X-533483Y376174D01*
X-533668Y376203D01*
X-533875Y376247D01*
X-534097Y376306D01*
X-534326Y376388D01*
X-534333D01*
X-534356Y376403D01*
X-534385Y376417D01*
X-534430Y376440D01*
X-534481Y376462D01*
X-534540Y376499D01*
X-534681Y376580D01*
X-534836Y376691D01*
X-535006Y376831D01*
X-535176Y376994D01*
X-535331Y377186D01*
X-535339Y377193D01*
X-535346Y377208D01*
X-535368Y377245D01*
X-535398Y377282D01*
X-535427Y377341D01*
X-535464Y377408D01*
X-535501Y377482D01*
X-535538Y377570D01*
X-535575Y377667D01*
X-535612Y377770D01*
X-535649Y377888D01*
X-535679Y378014D01*
X-535708Y378147D01*
X-535730Y378287D01*
X-535745Y378443D01*
X-535752Y378598D01*
Y378605D01*
Y378627D01*
Y378657D01*
Y378701D01*
X-535745Y378760D01*
X-535738Y378820D01*
X-535730Y378894D01*
X-535716Y378975D01*
X-535686Y379152D01*
X-535634Y379352D01*
X-535560Y379559D01*
X-535457Y379766D01*
Y379773D01*
X-535442Y379788D01*
X-535427Y379817D01*
X-535405Y379862D01*
X-535368Y379906D01*
X-535331Y379965D01*
X-535235Y380091D01*
X-535109Y380239D01*
X-534954Y380387D01*
X-534770Y380542D01*
X-534555Y380682D01*
X-534548Y380690D01*
X-534526Y380697D01*
X-534496Y380719D01*
X-534444Y380741D01*
X-534385Y380764D01*
X-534319Y380801D01*
X-534237Y380830D01*
X-534141Y380867D01*
X-534038Y380897D01*
X-533919Y380933D01*
X-533794Y380963D01*
X-533661Y380993D01*
X-533513Y381015D01*
X-533365Y381037D01*
X-533203Y381044D01*
X-533032Y381052D01*
X-532966D01*
X-532914Y381044D01*
D02*
G37*
%LPC*%
G36*
X-533003Y380061D02*
X-533062D01*
X-533106Y380054D01*
X-533166D01*
X-533225Y380047D01*
X-533372Y380024D01*
X-533535Y379995D01*
X-533705Y379958D01*
X-533868Y379899D01*
X-534023Y379825D01*
X-534030D01*
X-534038Y379817D01*
X-534090Y379788D01*
X-534156Y379736D01*
X-534237Y379670D01*
X-534333Y379596D01*
X-534422Y379500D01*
X-534511Y379389D01*
X-534585Y379271D01*
X-534592Y379256D01*
X-534614Y379211D01*
X-534644Y379152D01*
X-534673Y379063D01*
X-534703Y378967D01*
X-534733Y378857D01*
X-534755Y378738D01*
X-534762Y378613D01*
Y378605D01*
Y378591D01*
Y378561D01*
X-534755Y378524D01*
Y378480D01*
X-534747Y378435D01*
X-534725Y378310D01*
X-534696Y378176D01*
X-534651Y378036D01*
X-534585Y377896D01*
X-534503Y377763D01*
X-534496Y377748D01*
X-534459Y377711D01*
X-534407Y377652D01*
X-534333Y377578D01*
X-534245Y377504D01*
X-534134Y377423D01*
X-534016Y377349D01*
X-533875Y377282D01*
X-533868D01*
X-533860Y377275D01*
X-533838Y377267D01*
X-533809Y377260D01*
X-533735Y377230D01*
X-533631Y377208D01*
X-533513Y377179D01*
X-533372Y377149D01*
X-533225Y377134D01*
X-533069Y377127D01*
X-533010D01*
X-532944Y377134D01*
X-532855Y377142D01*
X-532744Y377156D01*
X-532611Y377179D01*
X-532471Y377208D01*
X-532323Y377245D01*
X-532315D01*
X-532308Y377253D01*
X-532286Y377260D01*
X-532256Y377267D01*
X-532175Y377297D01*
X-532079Y377341D01*
X-531968Y377400D01*
X-531850Y377482D01*
X-531732Y377570D01*
X-531613Y377681D01*
Y377689D01*
X-531599Y377696D01*
X-531569Y377740D01*
X-531517Y377814D01*
X-531458Y377910D01*
X-531399Y378044D01*
X-531347Y378199D01*
X-531310Y378376D01*
X-531288Y378583D01*
Y378591D01*
Y378613D01*
X-531296Y378650D01*
X-531303Y378694D01*
X-531310Y378753D01*
X-531318Y378820D01*
X-531340Y378894D01*
X-531362Y378975D01*
X-531421Y379152D01*
X-531458Y379241D01*
X-531510Y379330D01*
X-531569Y379418D01*
X-531628Y379507D01*
X-531709Y379588D01*
X-531791Y379662D01*
X-531798Y379670D01*
X-531813Y379677D01*
X-531842Y379699D01*
X-531879Y379721D01*
X-531924Y379751D01*
X-531983Y379788D01*
X-532049Y379825D01*
X-532123Y379862D01*
X-532205Y379899D01*
X-532301Y379936D01*
X-532397Y379965D01*
X-532508Y379995D01*
X-532744Y380039D01*
X-532870Y380054D01*
X-533003Y380061D01*
D02*
G37*
%LPD*%
G36*
X-508157Y369496D02*
X-508046Y369482D01*
X-507965Y369459D01*
X-507891Y369430D01*
X-507832Y369400D01*
X-507795Y369378D01*
X-507773Y369363D01*
X-507765Y369356D01*
X-507714Y369297D01*
X-507677Y369238D01*
X-507647Y369179D01*
X-507632Y369112D01*
X-507617Y369060D01*
X-507610Y369016D01*
Y368986D01*
Y368979D01*
X-507617Y368898D01*
X-507632Y368824D01*
X-507662Y368757D01*
X-507691Y368706D01*
X-507714Y368661D01*
X-507743Y368632D01*
X-507758Y368610D01*
X-507765Y368602D01*
X-507832Y368558D01*
X-507913Y368521D01*
X-508002Y368499D01*
X-508083Y368476D01*
X-508157Y368469D01*
X-508216Y368462D01*
X-508438D01*
Y364367D01*
X-508275D01*
X-508157Y364359D01*
X-508046Y364345D01*
X-507965Y364323D01*
X-507891Y364293D01*
X-507832Y364263D01*
X-507795Y364241D01*
X-507773Y364226D01*
X-507765Y364219D01*
X-507714Y364160D01*
X-507677Y364101D01*
X-507647Y364042D01*
X-507632Y363983D01*
X-507617Y363931D01*
X-507610Y363886D01*
Y363857D01*
Y363849D01*
X-507617Y363768D01*
X-507632Y363687D01*
X-507662Y363628D01*
X-507691Y363568D01*
X-507714Y363524D01*
X-507743Y363495D01*
X-507758Y363473D01*
X-507765Y363465D01*
X-507832Y363421D01*
X-507913Y363384D01*
X-508002Y363362D01*
X-508083Y363339D01*
X-508157Y363332D01*
X-508216Y363325D01*
X-509857D01*
X-509975Y363332D01*
X-510079Y363347D01*
X-510168Y363369D01*
X-510234Y363399D01*
X-510293Y363421D01*
X-510330Y363443D01*
X-510352Y363458D01*
X-510360Y363465D01*
X-510411Y363524D01*
X-510456Y363583D01*
X-510485Y363650D01*
X-510500Y363709D01*
X-510515Y363761D01*
X-510522Y363805D01*
Y363835D01*
Y363842D01*
X-510515Y363923D01*
X-510500Y363997D01*
X-510471Y364064D01*
X-510441Y364115D01*
X-510411Y364160D01*
X-510382Y364189D01*
X-510367Y364212D01*
X-510360Y364219D01*
X-510293Y364271D01*
X-510212Y364308D01*
X-510131Y364330D01*
X-510049Y364352D01*
X-509975Y364359D01*
X-509916Y364367D01*
X-509480D01*
Y365535D01*
X-510116Y366082D01*
X-510256Y366015D01*
X-510389Y365949D01*
X-510500Y365875D01*
X-510596Y365808D01*
X-510677Y365749D01*
X-510737Y365697D01*
X-510774Y365668D01*
X-510788Y365653D01*
X-510840Y365601D01*
X-510899Y365542D01*
X-511003Y365416D01*
X-511106Y365276D01*
X-511202Y365135D01*
X-511276Y365017D01*
X-511313Y364958D01*
X-511343Y364914D01*
X-511365Y364869D01*
X-511380Y364840D01*
X-511394Y364825D01*
Y364818D01*
X-511535Y364552D01*
X-511668Y364286D01*
X-511786Y364027D01*
X-511845Y363916D01*
X-511897Y363805D01*
X-511941Y363702D01*
X-511978Y363605D01*
X-512015Y363524D01*
X-512045Y363458D01*
X-512074Y363399D01*
X-512089Y363362D01*
X-512104Y363332D01*
Y363325D01*
X-513058D01*
X-513190Y363332D01*
X-513309Y363347D01*
X-513405Y363369D01*
X-513479Y363399D01*
X-513538Y363421D01*
X-513582Y363443D01*
X-513605Y363458D01*
X-513612Y363465D01*
X-513664Y363524D01*
X-513708Y363583D01*
X-513737Y363650D01*
X-513752Y363709D01*
X-513767Y363761D01*
X-513774Y363805D01*
Y363835D01*
Y363842D01*
X-513767Y363923D01*
X-513752Y363997D01*
X-513723Y364064D01*
X-513693Y364115D01*
X-513664Y364160D01*
X-513634Y364189D01*
X-513619Y364212D01*
X-513612Y364219D01*
X-513538Y364271D01*
X-513457Y364308D01*
X-513368Y364330D01*
X-513272Y364352D01*
X-513190Y364359D01*
X-513124Y364367D01*
X-512777D01*
X-512710Y364537D01*
X-512636Y364699D01*
X-512562Y364847D01*
X-512496Y364995D01*
X-512422Y365128D01*
X-512355Y365254D01*
X-512289Y365372D01*
X-512230Y365476D01*
X-512170Y365572D01*
X-512119Y365653D01*
X-512067Y365727D01*
X-512030Y365786D01*
X-511993Y365838D01*
X-511971Y365867D01*
X-511956Y365889D01*
X-511949Y365897D01*
X-511860Y366008D01*
X-511779Y366119D01*
X-511690Y366215D01*
X-511601Y366303D01*
X-511439Y366459D01*
X-511284Y366592D01*
X-511158Y366695D01*
X-511099Y366732D01*
X-511054Y366762D01*
X-511017Y366791D01*
X-510988Y366806D01*
X-510973Y366821D01*
X-510966D01*
X-512843Y368454D01*
X-512976Y368462D01*
X-513094Y368476D01*
X-513190Y368499D01*
X-513265Y368528D01*
X-513324Y368550D01*
X-513368Y368573D01*
X-513390Y368587D01*
X-513397Y368595D01*
X-513449Y368654D01*
X-513494Y368720D01*
X-513523Y368779D01*
X-513538Y368846D01*
X-513553Y368898D01*
X-513560Y368942D01*
Y368972D01*
Y368979D01*
X-513553Y369060D01*
X-513538Y369134D01*
X-513508Y369193D01*
X-513479Y369253D01*
X-513449Y369290D01*
X-513420Y369326D01*
X-513405Y369341D01*
X-513397Y369349D01*
X-513324Y369400D01*
X-513242Y369437D01*
X-513154Y369459D01*
X-513058Y369482D01*
X-512976Y369489D01*
X-512910Y369496D01*
X-512843D01*
X-511335Y369504D01*
X-511343Y369496D01*
X-511328Y369482D01*
X-511313Y369452D01*
X-511284Y369430D01*
X-511232Y369371D01*
X-511217Y369356D01*
X-511210Y369349D01*
X-511158Y369290D01*
X-511121Y369223D01*
X-511091Y369164D01*
X-511077Y369105D01*
X-511062Y369046D01*
X-511054Y369001D01*
Y368972D01*
Y368964D01*
X-511062Y368883D01*
X-511077Y368809D01*
X-511106Y368750D01*
X-511136Y368698D01*
X-511158Y368661D01*
X-511188Y368632D01*
X-511202Y368617D01*
X-511210Y368610D01*
X-511261Y368573D01*
X-511298Y368543D01*
X-511320Y368528D01*
X-511335Y368513D01*
Y368506D01*
Y368499D01*
X-509480Y366909D01*
Y368454D01*
X-509857D01*
X-509975Y368462D01*
X-510079Y368476D01*
X-510168Y368499D01*
X-510234Y368528D01*
X-510293Y368550D01*
X-510330Y368573D01*
X-510352Y368587D01*
X-510360Y368595D01*
X-510411Y368654D01*
X-510456Y368720D01*
X-510485Y368779D01*
X-510500Y368846D01*
X-510515Y368898D01*
X-510522Y368942D01*
Y368972D01*
Y368979D01*
X-510515Y369060D01*
X-510500Y369134D01*
X-510471Y369193D01*
X-510441Y369253D01*
X-510411Y369290D01*
X-510382Y369326D01*
X-510367Y369341D01*
X-510360Y369349D01*
X-510293Y369400D01*
X-510212Y369437D01*
X-510131Y369459D01*
X-510049Y369482D01*
X-509975Y369489D01*
X-509916Y369496D01*
X-509857D01*
X-508275Y369504D01*
X-508157Y369496D01*
D02*
G37*
G36*
X-521964Y368218D02*
X-521912D01*
X-521845Y368210D01*
X-521772Y368203D01*
X-521683Y368188D01*
X-521498Y368159D01*
X-521291Y368107D01*
X-521069Y368040D01*
X-520840Y367944D01*
X-520833D01*
X-520811Y367929D01*
X-520781Y367915D01*
X-520744Y367892D01*
X-520692Y367863D01*
X-520633Y367826D01*
X-520493Y367737D01*
X-520338Y367619D01*
X-520168Y367479D01*
X-520005Y367309D01*
X-519850Y367116D01*
X-519842Y367109D01*
X-519835Y367094D01*
X-519813Y367057D01*
X-519791Y367020D01*
X-519761Y366961D01*
X-519724Y366902D01*
X-519687Y366828D01*
X-519650Y366739D01*
X-519613Y366643D01*
X-519576Y366540D01*
X-519547Y366429D01*
X-519510Y366303D01*
X-519488Y366178D01*
X-519465Y366037D01*
X-519451Y365897D01*
X-519443Y365742D01*
Y365734D01*
Y365712D01*
Y365682D01*
X-519451Y365631D01*
Y365579D01*
X-519458Y365513D01*
X-519465Y365431D01*
X-519480Y365350D01*
X-519517Y365165D01*
X-519569Y364966D01*
X-519643Y364759D01*
X-519739Y364552D01*
X-519746Y364544D01*
X-519754Y364529D01*
X-519768Y364500D01*
X-519798Y364463D01*
X-519828Y364411D01*
X-519865Y364359D01*
X-519961Y364234D01*
X-520086Y364093D01*
X-520242Y363946D01*
X-520419Y363798D01*
X-520626Y363665D01*
X-520633D01*
X-520655Y363650D01*
X-520685Y363635D01*
X-520729Y363613D01*
X-520788Y363591D01*
X-520862Y363561D01*
X-520944Y363532D01*
X-521032Y363495D01*
X-521136Y363465D01*
X-521247Y363436D01*
X-521365Y363406D01*
X-521498Y363384D01*
X-521631Y363362D01*
X-521779Y363339D01*
X-521934Y363332D01*
X-522097Y363325D01*
X-522215D01*
X-522281Y363332D01*
X-522355Y363339D01*
X-522437D01*
X-522533Y363354D01*
X-522636Y363362D01*
X-522740Y363376D01*
X-522976Y363413D01*
X-523220Y363465D01*
X-523471Y363539D01*
X-523479D01*
X-523501Y363546D01*
X-523538Y363561D01*
X-523590Y363576D01*
X-523649Y363598D01*
X-523715Y363628D01*
X-523797Y363657D01*
X-523885Y363687D01*
X-524078Y363768D01*
X-524292Y363864D01*
X-524506Y363975D01*
X-524728Y364093D01*
X-524277Y364906D01*
X-524270D01*
X-524255Y364892D01*
X-524225Y364884D01*
X-524196Y364862D01*
X-524144Y364840D01*
X-524092Y364818D01*
X-524033Y364788D01*
X-523967Y364759D01*
X-523811Y364685D01*
X-523634Y364611D01*
X-523442Y364537D01*
X-523235Y364470D01*
X-523228D01*
X-523213Y364463D01*
X-523183Y364455D01*
X-523139Y364441D01*
X-523087Y364433D01*
X-523028Y364418D01*
X-522962Y364404D01*
X-522888Y364382D01*
X-522718Y364352D01*
X-522525Y364323D01*
X-522318Y364300D01*
X-522097Y364293D01*
X-522038D01*
X-521993Y364300D01*
X-521941D01*
X-521882Y364308D01*
X-521742Y364323D01*
X-521579Y364345D01*
X-521417Y364374D01*
X-521261Y364418D01*
X-521114Y364478D01*
X-521106D01*
X-521099Y364485D01*
X-521054Y364507D01*
X-520995Y364544D01*
X-520914Y364596D01*
X-520833Y364655D01*
X-520751Y364729D01*
X-520670Y364803D01*
X-520604Y364892D01*
X-520596Y364906D01*
X-520582Y364936D01*
X-520559Y364980D01*
X-520530Y365039D01*
X-520500Y365106D01*
X-520471Y365180D01*
X-520448Y365254D01*
X-520434Y365328D01*
X-524514D01*
Y365335D01*
Y365342D01*
Y365365D01*
X-524521Y365402D01*
Y365439D01*
Y365490D01*
X-524529Y365557D01*
Y365631D01*
Y365638D01*
Y365668D01*
X-524536Y365712D01*
Y365764D01*
Y365823D01*
X-524543Y365889D01*
Y366030D01*
Y366037D01*
Y366059D01*
Y366096D01*
X-524536Y366141D01*
X-524529Y366200D01*
X-524521Y366266D01*
X-524514Y366340D01*
X-524499Y366422D01*
X-524455Y366599D01*
X-524395Y366791D01*
X-524314Y366991D01*
X-524262Y367087D01*
X-524203Y367183D01*
Y367190D01*
X-524188Y367205D01*
X-524166Y367227D01*
X-524144Y367264D01*
X-524107Y367309D01*
X-524070Y367353D01*
X-523967Y367464D01*
X-523841Y367589D01*
X-523686Y367715D01*
X-523516Y367841D01*
X-523316Y367952D01*
X-523309D01*
X-523294Y367966D01*
X-523257Y367974D01*
X-523220Y367996D01*
X-523168Y368018D01*
X-523102Y368040D01*
X-523035Y368063D01*
X-522954Y368092D01*
X-522865Y368114D01*
X-522769Y368136D01*
X-522562Y368181D01*
X-522326Y368210D01*
X-522075Y368225D01*
X-522015D01*
X-521964Y368218D01*
D02*
G37*
%LPC*%
G36*
X-522023Y367235D02*
X-522141D01*
X-522193Y367227D01*
X-522304Y367220D01*
X-522437Y367198D01*
X-522585Y367175D01*
X-522747Y367131D01*
X-522902Y367080D01*
X-522910D01*
X-522925Y367072D01*
X-522939Y367065D01*
X-522969Y367050D01*
X-523050Y367006D01*
X-523139Y366946D01*
X-523242Y366865D01*
X-523353Y366762D01*
X-523457Y366629D01*
X-523545Y366481D01*
X-523582Y366318D01*
X-520515D01*
Y366325D01*
X-520522Y366340D01*
X-520537Y366362D01*
X-520552Y366392D01*
X-520589Y366481D01*
X-520655Y366577D01*
X-520737Y366688D01*
X-520840Y366806D01*
X-520966Y366909D01*
X-521114Y367006D01*
X-521121D01*
X-521136Y367013D01*
X-521158Y367028D01*
X-521188Y367043D01*
X-521225Y367057D01*
X-521276Y367080D01*
X-521387Y367124D01*
X-521528Y367161D01*
X-521675Y367198D01*
X-521845Y367227D01*
X-522023Y367235D01*
D02*
G37*
%LPD*%
G36*
X-530290Y366948D02*
X-531066D01*
X-532781Y363799D01*
X-531894Y362343D01*
X-530719D01*
Y361352D01*
X-533690D01*
Y362343D01*
X-532995D01*
X-535745Y366948D01*
X-536521D01*
Y367938D01*
X-534193D01*
Y366948D01*
X-534659D01*
X-533343Y364745D01*
X-532160Y366948D01*
X-532663D01*
Y367938D01*
X-530290D01*
Y366948D01*
D02*
G37*
%LPC*%
G36*
X-1295417Y-218025D02*
X-1295860D01*
X-1296842Y-218074D01*
X-1297776Y-218172D01*
X-1298661Y-218369D01*
X-1299496Y-218615D01*
X-1300234Y-218909D01*
X-1300971Y-219254D01*
X-1301610Y-219597D01*
X-1302200Y-219942D01*
X-1302740Y-220286D01*
X-1303183Y-220630D01*
X-1303576Y-220974D01*
X-1303920Y-221269D01*
X-1304166Y-221514D01*
X-1304362Y-221711D01*
X-1304460Y-221809D01*
X-1304510Y-221858D01*
X-1304952Y-222399D01*
X-1305296Y-222940D01*
X-1305640Y-223480D01*
X-1305886Y-224021D01*
X-1306328Y-225053D01*
X-1306623Y-225987D01*
X-1306770Y-226822D01*
X-1306869Y-227167D01*
Y-227461D01*
X-1306918Y-227707D01*
Y-227904D01*
Y-228002D01*
Y-228051D01*
X-1306869Y-228641D01*
X-1306770Y-229280D01*
X-1306623Y-229820D01*
X-1306427Y-230410D01*
X-1305886Y-231442D01*
X-1305345Y-232376D01*
X-1304755Y-233113D01*
X-1304460Y-233408D01*
X-1304215Y-233703D01*
X-1304018Y-233900D01*
X-1303871Y-234047D01*
X-1303772Y-234146D01*
X-1303723Y-234195D01*
X-1303134Y-234686D01*
X-1302445Y-235129D01*
X-1301806Y-235473D01*
X-1301168Y-235817D01*
X-1300479Y-236062D01*
X-1299841Y-236308D01*
X-1298612Y-236652D01*
X-1298022Y-236751D01*
X-1297531Y-236849D01*
X-1297039Y-236898D01*
X-1296646Y-236947D01*
X-1296302Y-236996D01*
X-1295860D01*
X-1295024Y-236947D01*
X-1294188Y-236898D01*
X-1293402Y-236751D01*
X-1292665Y-236554D01*
X-1291977Y-236357D01*
X-1291338Y-236112D01*
X-1290748Y-235866D01*
X-1290158Y-235571D01*
X-1289667Y-235325D01*
X-1289274Y-235079D01*
X-1288880Y-234834D01*
X-1288585Y-234637D01*
X-1288340Y-234440D01*
X-1288143Y-234293D01*
X-1288045Y-234244D01*
X-1287996Y-234195D01*
X-1287455Y-233654D01*
X-1286964Y-233113D01*
X-1286521Y-232573D01*
X-1286177Y-232032D01*
X-1285882Y-231541D01*
X-1285636Y-231000D01*
X-1285243Y-230066D01*
X-1284998Y-229280D01*
X-1284948Y-228936D01*
X-1284899Y-228641D01*
X-1284850Y-228395D01*
Y-228248D01*
Y-228150D01*
Y-228100D01*
X-1284899Y-227363D01*
X-1284998Y-226675D01*
X-1285145Y-225987D01*
X-1285342Y-225299D01*
X-1285833Y-224119D01*
X-1286423Y-223087D01*
X-1286718Y-222645D01*
X-1287013Y-222252D01*
X-1287258Y-221908D01*
X-1287504Y-221613D01*
X-1287701Y-221367D01*
X-1287848Y-221219D01*
X-1287946Y-221121D01*
X-1287996Y-221072D01*
X-1288585Y-220531D01*
X-1289224Y-220089D01*
X-1289912Y-219647D01*
X-1290551Y-219303D01*
X-1291239Y-219008D01*
X-1291878Y-218762D01*
X-1293107Y-218418D01*
X-1293697Y-218270D01*
X-1294188Y-218172D01*
X-1294680Y-218123D01*
X-1295073Y-218074D01*
X-1295417Y-218025D01*
D02*
G37*
G36*
X-1313864Y-346537D02*
X-1314187D01*
X-1314941Y-346591D01*
X-1315641Y-346699D01*
X-1316287Y-346861D01*
X-1316933Y-347130D01*
X-1318064Y-347722D01*
X-1319033Y-348422D01*
X-1319787Y-349122D01*
X-1320110Y-349445D01*
X-1320379Y-349714D01*
X-1320595Y-349984D01*
X-1320756Y-350145D01*
X-1320810Y-350253D01*
X-1320864Y-350307D01*
X-1321349Y-351007D01*
X-1321779Y-351707D01*
X-1322103Y-352407D01*
X-1322426Y-353161D01*
X-1322910Y-354561D01*
X-1323233Y-355853D01*
X-1323341Y-356446D01*
X-1323395Y-356984D01*
X-1323503Y-357469D01*
Y-357899D01*
X-1323556Y-358222D01*
Y-358492D01*
Y-358653D01*
Y-358707D01*
X-1323503Y-360053D01*
X-1323449Y-361346D01*
X-1323287Y-362584D01*
X-1323072Y-363715D01*
X-1322856Y-364792D01*
X-1322587Y-365761D01*
X-1322318Y-366677D01*
X-1322049Y-367484D01*
X-1321725Y-368238D01*
X-1321456Y-368830D01*
X-1321187Y-369369D01*
X-1320972Y-369854D01*
X-1320756Y-370177D01*
X-1320595Y-370446D01*
X-1320541Y-370607D01*
X-1320487Y-370661D01*
X-1319895Y-371469D01*
X-1319249Y-372115D01*
X-1318602Y-372707D01*
X-1317956Y-373246D01*
X-1317256Y-373677D01*
X-1316610Y-374054D01*
X-1315964Y-374323D01*
X-1315372Y-374592D01*
X-1314779Y-374754D01*
X-1314241Y-374915D01*
X-1313756Y-374969D01*
X-1313325Y-375077D01*
X-1313002D01*
X-1312733Y-375131D01*
X-1312518D01*
X-1311602Y-375077D01*
X-1311225Y-374969D01*
X-1310848Y-374861D01*
X-1310579Y-374808D01*
X-1310364Y-374700D01*
X-1310202Y-374646D01*
X-1310148D01*
X-1309771Y-374431D01*
X-1309502Y-374215D01*
X-1309233Y-374000D01*
X-1309071Y-373838D01*
X-1308802Y-373515D01*
X-1308748Y-373461D01*
Y-373408D01*
X-1308587Y-372977D01*
X-1308533Y-372546D01*
X-1308479Y-372223D01*
Y-372169D01*
Y-372115D01*
Y-371846D01*
X-1308533Y-371577D01*
Y-371361D01*
Y-371307D01*
X-1308587Y-370984D01*
X-1308640Y-370823D01*
Y-370715D01*
X-1308694Y-370177D01*
X-1308587Y-369800D01*
X-1308479Y-369530D01*
X-1308264Y-369369D01*
X-1308048Y-369207D01*
X-1307887Y-369154D01*
X-1307671D01*
X-1307294Y-369261D01*
X-1306971Y-369423D01*
X-1306756Y-369584D01*
X-1306702Y-369692D01*
X-1306379Y-370177D01*
X-1306110Y-370554D01*
X-1305894Y-370769D01*
X-1305840Y-370877D01*
X-1305571Y-371200D01*
X-1305248Y-371469D01*
X-1305087Y-371684D01*
X-1304979Y-371792D01*
X-1304871Y-372869D01*
Y-353322D01*
X-1305410Y-352299D01*
X-1306002Y-351384D01*
X-1306540Y-350576D01*
X-1307079Y-349930D01*
X-1307563Y-349391D01*
X-1307994Y-349014D01*
X-1308210Y-348745D01*
X-1308317Y-348691D01*
X-1309287Y-347991D01*
X-1310310Y-347453D01*
X-1311279Y-347076D01*
X-1312194Y-346807D01*
X-1313002Y-346645D01*
X-1313325Y-346591D01*
X-1313648D01*
X-1313864Y-346537D01*
D02*
G37*
%LPD*%
D10*
X75000Y-831542D02*
G03*
X75000Y-831542I-2500J0D01*
G01*
Y-801521D02*
G03*
X75000Y-801521I-2500J0D01*
G01*
X72000Y-816500D02*
G03*
X72000Y-816500I-2500J0D01*
G01*
X21500Y-265000D02*
X38500D01*
X21500Y-255500D02*
X23500D01*
X36500D02*
X38500D01*
X21500Y-284500D02*
X23500D01*
X36500D02*
X38500D01*
X21500D02*
Y-255500D01*
X38500Y-284500D02*
Y-255500D01*
X68500Y-284500D02*
Y-255500D01*
X51500Y-284500D02*
Y-255500D01*
X66500Y-284500D02*
X68500D01*
X51500D02*
X53500D01*
X66500Y-255500D02*
X68500D01*
X51500D02*
X53500D01*
X51500Y-265000D02*
X68500D01*
X-381500Y-284500D02*
Y-255500D01*
X-398500Y-284500D02*
Y-255500D01*
X-383500Y-284500D02*
X-381500D01*
X-398500D02*
X-396500D01*
X-383500Y-255500D02*
X-381500D01*
X-398500D02*
X-396500D01*
X-398500Y-265000D02*
X-381500D01*
X-741500Y-284500D02*
Y-255500D01*
X-758500Y-284500D02*
Y-255500D01*
X-743500Y-284500D02*
X-741500D01*
X-758500D02*
X-756500D01*
X-743500Y-255500D02*
X-741500D01*
X-758500D02*
X-756500D01*
X-758500Y-265000D02*
X-741500D01*
X-98500D02*
X-81500D01*
X-98500Y-255500D02*
X-96500D01*
X-83500D02*
X-81500D01*
X-98500Y-284500D02*
X-96500D01*
X-83500D02*
X-81500D01*
X-98500D02*
Y-255500D01*
X-81500Y-284500D02*
Y-255500D01*
X-38500Y-265000D02*
X-21500D01*
X-38500Y-255500D02*
X-36500D01*
X-23500D02*
X-21500D01*
X-38500Y-284500D02*
X-36500D01*
X-23500D02*
X-21500D01*
X-38500D02*
Y-255500D01*
X-21500Y-284500D02*
Y-255500D01*
X-51500Y-284500D02*
Y-255500D01*
X-68500Y-284500D02*
Y-255500D01*
X-53500Y-284500D02*
X-51500D01*
X-68500D02*
X-66500D01*
X-53500Y-255500D02*
X-51500D01*
X-68500D02*
X-66500D01*
X-68500Y-265000D02*
X-51500D01*
X-818500D02*
X-801500D01*
X-818500Y-255500D02*
X-816500D01*
X-803500D02*
X-801500D01*
X-818500Y-284500D02*
X-816500D01*
X-803500D02*
X-801500D01*
X-818500D02*
Y-255500D01*
X-801500Y-284500D02*
Y-255500D01*
X-681500Y-284500D02*
Y-255500D01*
X-698500Y-284500D02*
Y-255500D01*
X-683500Y-284500D02*
X-681500D01*
X-698500D02*
X-696500D01*
X-683500Y-255500D02*
X-681500D01*
X-698500D02*
X-696500D01*
X-698500Y-265000D02*
X-681500D01*
X-651500Y-284500D02*
Y-255500D01*
X-668500Y-284500D02*
Y-255500D01*
X-653500Y-284500D02*
X-651500D01*
X-668500D02*
X-666500D01*
X-653500Y-255500D02*
X-651500D01*
X-668500D02*
X-666500D01*
X-668500Y-265000D02*
X-651500D01*
X-831500Y-284500D02*
Y-255500D01*
X-848500Y-284500D02*
Y-255500D01*
X-833500Y-284500D02*
X-831500D01*
X-848500D02*
X-846500D01*
X-833500Y-255500D02*
X-831500D01*
X-848500D02*
X-846500D01*
X-848500Y-265000D02*
X-831500D01*
X-771500Y-284500D02*
Y-255500D01*
X-788500Y-284500D02*
Y-255500D01*
X-773500Y-284500D02*
X-771500D01*
X-788500D02*
X-786500D01*
X-773500Y-255500D02*
X-771500D01*
X-788500D02*
X-786500D01*
X-788500Y-265000D02*
X-771500D01*
X-711500Y-284500D02*
Y-255500D01*
X-728500Y-284500D02*
Y-255500D01*
X-713500Y-284500D02*
X-711500D01*
X-728500D02*
X-726500D01*
X-713500Y-255500D02*
X-711500D01*
X-728500D02*
X-726500D01*
X-728500Y-265000D02*
X-711500D01*
X-591500Y-284500D02*
Y-255500D01*
X-608500Y-284500D02*
Y-255500D01*
X-593500Y-284500D02*
X-591500D01*
X-608500D02*
X-606500D01*
X-593500Y-255500D02*
X-591500D01*
X-608500D02*
X-606500D01*
X-608500Y-265000D02*
X-591500D01*
X-621500Y-284500D02*
Y-255500D01*
X-638500Y-284500D02*
Y-255500D01*
X-623500Y-284500D02*
X-621500D01*
X-638500D02*
X-636500D01*
X-623500Y-255500D02*
X-621500D01*
X-638500D02*
X-636500D01*
X-638500Y-265000D02*
X-621500D01*
X-411500Y-284500D02*
Y-255500D01*
X-428500Y-284500D02*
Y-255500D01*
X-413500Y-284500D02*
X-411500D01*
X-428500D02*
X-426500D01*
X-413500Y-255500D02*
X-411500D01*
X-428500D02*
X-426500D01*
X-428500Y-265000D02*
X-411500D01*
X-458500D02*
X-441500D01*
X-458500Y-255500D02*
X-456500D01*
X-443500D02*
X-441500D01*
X-458500Y-284500D02*
X-456500D01*
X-443500D02*
X-441500D01*
X-458500D02*
Y-255500D01*
X-441500Y-284500D02*
Y-255500D01*
X-488500Y-265000D02*
X-471500D01*
X-488500Y-255500D02*
X-486500D01*
X-473500D02*
X-471500D01*
X-488500Y-284500D02*
X-486500D01*
X-473500D02*
X-471500D01*
X-488500D02*
Y-255500D01*
X-471500Y-284500D02*
Y-255500D01*
X-501500Y-284500D02*
Y-255500D01*
X-518500Y-284500D02*
Y-255500D01*
X-503500Y-284500D02*
X-501500D01*
X-518500D02*
X-516500D01*
X-503500Y-255500D02*
X-501500D01*
X-518500D02*
X-516500D01*
X-518500Y-265000D02*
X-501500D01*
X-561500Y-284500D02*
Y-255500D01*
X-578500Y-284500D02*
Y-255500D01*
X-563500Y-284500D02*
X-561500D01*
X-578500D02*
X-576500D01*
X-563500Y-255500D02*
X-561500D01*
X-578500D02*
X-576500D01*
X-578500Y-265000D02*
X-561500D01*
X-351500Y-284500D02*
Y-255500D01*
X-368500Y-284500D02*
Y-255500D01*
X-353500Y-284500D02*
X-351500D01*
X-368500D02*
X-366500D01*
X-353500Y-255500D02*
X-351500D01*
X-368500D02*
X-366500D01*
X-368500Y-265000D02*
X-351500D01*
X-531500Y-284500D02*
Y-255500D01*
X-548500Y-284500D02*
Y-255500D01*
X-533500Y-284500D02*
X-531500D01*
X-548500D02*
X-546500D01*
X-533500Y-255500D02*
X-531500D01*
X-548500D02*
X-546500D01*
X-548500Y-265000D02*
X-531500D01*
X-188500D02*
X-171500D01*
X-188500Y-255500D02*
X-186500D01*
X-173500D02*
X-171500D01*
X-188500Y-284500D02*
X-186500D01*
X-173500D02*
X-171500D01*
X-188500D02*
Y-255500D01*
X-171500Y-284500D02*
Y-255500D01*
X-141500Y-284500D02*
Y-255500D01*
X-158500Y-284500D02*
Y-255500D01*
X-143500Y-284500D02*
X-141500D01*
X-158500D02*
X-156500D01*
X-143500Y-255500D02*
X-141500D01*
X-158500D02*
X-156500D01*
X-158500Y-265000D02*
X-141500D01*
X8500Y-284500D02*
Y-255500D01*
X-8500Y-284500D02*
Y-255500D01*
X6500Y-284500D02*
X8500D01*
X-8500D02*
X-6500D01*
X6500Y-255500D02*
X8500D01*
X-8500D02*
X-6500D01*
X-8500Y-265000D02*
X8500D01*
X-111500Y-284500D02*
Y-255500D01*
X-128500Y-284500D02*
Y-255500D01*
X-113500Y-284500D02*
X-111500D01*
X-128500D02*
X-126500D01*
X-113500Y-255500D02*
X-111500D01*
X-128500D02*
X-126500D01*
X-128500Y-265000D02*
X-111500D01*
X-231500Y-284500D02*
Y-255500D01*
X-248500Y-284500D02*
Y-255500D01*
X-233500Y-284500D02*
X-231500D01*
X-248500D02*
X-246500D01*
X-233500Y-255500D02*
X-231500D01*
X-248500D02*
X-246500D01*
X-248500Y-265000D02*
X-231500D01*
X-261500Y-284500D02*
Y-255500D01*
X-278500Y-284500D02*
Y-255500D01*
X-263500Y-284500D02*
X-261500D01*
X-278500D02*
X-276500D01*
X-263500Y-255500D02*
X-261500D01*
X-278500D02*
X-276500D01*
X-278500Y-265000D02*
X-261500D01*
X-308500D02*
X-291500D01*
X-308500Y-255500D02*
X-306500D01*
X-293500D02*
X-291500D01*
X-308500Y-284500D02*
X-306500D01*
X-293500D02*
X-291500D01*
X-308500D02*
Y-255500D01*
X-291500Y-284500D02*
Y-255500D01*
X-201500Y-284500D02*
Y-255500D01*
X-218500Y-284500D02*
Y-255500D01*
X-203500Y-284500D02*
X-201500D01*
X-218500D02*
X-216500D01*
X-203500Y-255500D02*
X-201500D01*
X-218500D02*
X-216500D01*
X-218500Y-265000D02*
X-201500D01*
X-321500Y-284500D02*
Y-255500D01*
X-338500Y-284500D02*
Y-255500D01*
X-323500Y-284500D02*
X-321500D01*
X-338500D02*
X-336500D01*
X-323500Y-255500D02*
X-321500D01*
X-338500D02*
X-336500D01*
X-338500Y-265000D02*
X-321500D01*
X53141Y-835541D02*
Y-827543D01*
Y-835541D02*
X55807D01*
X56950Y-835160D01*
X57711Y-834398D01*
X58092Y-833637D01*
X58473Y-832494D01*
Y-830590D01*
X58092Y-829447D01*
X57711Y-828685D01*
X56950Y-827924D01*
X55807Y-827543D01*
X53141D01*
Y-805520D02*
Y-797522D01*
Y-805520D02*
X56569D01*
X57711Y-805139D01*
X58092Y-804758D01*
X58473Y-803997D01*
Y-803235D01*
X58092Y-802473D01*
X57711Y-802092D01*
X56569Y-801711D01*
X53141D02*
X56569D01*
X57711Y-801330D01*
X58092Y-800950D01*
X58473Y-800188D01*
Y-799045D01*
X58092Y-798283D01*
X57711Y-797903D01*
X56569Y-797522D01*
X53141D01*
X-89324Y333364D02*
X-91201Y321514D01*
X-97972Y322587D01*
X-104729Y335804D02*
X-97393Y334642D01*
X-99270Y322792D01*
X-106606Y323954D01*
X-98287Y328999D02*
X-102801Y329714D01*
X-106704Y336117D02*
X-108581Y324267D01*
X-106704Y336117D02*
X-110654Y336742D01*
X-112436Y336446D01*
X-113743Y335496D01*
X-114486Y334457D01*
X-115318Y332854D01*
X-115765Y330032D01*
X-115469Y328250D01*
X-115084Y327032D01*
X-114134Y325725D01*
X-112530Y324893D01*
X-108581Y324267D01*
X-133902Y340424D02*
X-126566Y339263D01*
X-128443Y327413D01*
X-135778Y328575D01*
X-127460Y333620D02*
X-131974Y334335D01*
X-135877Y340737D02*
X-137753Y328887D01*
X-135877Y340737D02*
X-145653Y330139D01*
X-143776Y341988D02*
X-145653Y330139D01*
X-157954Y332087D02*
X-151563Y343222D01*
X-148926Y330657D01*
X-149993Y334875D02*
X-155636Y335769D01*
X-158842Y344375D02*
X-160719Y332525D01*
X-158842Y344375D02*
X-163921Y345179D01*
X-165703Y344883D01*
X-166357Y344408D01*
X-167100Y343369D01*
X-167278Y342240D01*
X-166893Y341022D01*
X-166418Y340369D01*
X-164815Y339536D01*
X-159736Y338732D02*
X-164815Y339536D01*
X-166597Y339240D01*
X-167250Y338765D01*
X-167994Y337726D01*
X-168262Y336033D01*
X-167876Y334815D01*
X-167401Y334162D01*
X-165798Y333329D01*
X-160719Y332525D01*
X-169394Y346046D02*
X-171271Y334196D01*
X-178042Y335269D01*
X-184799Y348486D02*
X-177463Y347324D01*
X-179340Y335474D01*
X-186676Y336636D01*
X-178357Y341681D02*
X-182871Y342396D01*
D12*
X62500Y-839521D02*
Y-823563D01*
X49114D02*
X62500D01*
X49114Y-839521D02*
X62500D01*
Y-831542D02*
X69500D01*
X49114Y-839521D02*
Y-823563D01*
X38500Y-839521D02*
X40500D01*
X38500Y-793542D02*
X40500D01*
X51500Y-819500D02*
Y-813500D01*
X55500Y-819500D02*
Y-813500D01*
X38500Y-839521D02*
Y-793542D01*
X40500Y-839521D02*
Y-793542D01*
X49114Y-809500D02*
Y-793542D01*
X62500Y-801521D02*
X69500D01*
X49114Y-809500D02*
X62500D01*
X59500Y-816500D02*
X66500D01*
X49114Y-793542D02*
X62500D01*
Y-809500D02*
Y-793542D01*
X20503Y-795000D02*
X32500D01*
X20503D02*
Y-800142D01*
X21074Y-801856D01*
X21645Y-802427D01*
X22788Y-802998D01*
X23930D01*
X25073Y-802427D01*
X25644Y-801856D01*
X26216Y-800142D01*
Y-795000D01*
Y-798999D02*
X32500Y-802998D01*
X20503Y-813110D02*
Y-805683D01*
X32500D01*
Y-813110D01*
X26216Y-805683D02*
Y-810254D01*
X20503Y-815110D02*
X32500Y-819680D01*
X20503Y-824251D02*
X32500Y-819680D01*
X31357Y-826365D02*
X31929Y-825793D01*
X32500Y-826365D01*
X31929Y-826936D01*
X31357Y-826365D01*
X32500Y-838705D02*
X20503Y-834135D01*
X32500Y-829564D01*
X28501Y-831278D02*
Y-836991D01*
D15*
X-1158897Y-420527D02*
Y-440522D01*
X-1173561Y-430048D02*
X-1172609Y-428144D01*
X-1169752Y-427192D01*
X-1166896D01*
X-1164039Y-428144D01*
X-1163087Y-430048D01*
X-1164039Y-431953D01*
X-1165944Y-432905D01*
X-1170704Y-433857D01*
X-1172609Y-434809D01*
X-1173561Y-436714D01*
Y-437666D01*
X-1172609Y-439570D01*
X-1169752Y-440522D01*
X-1166896D01*
X-1164039Y-439570D01*
X-1163087Y-437666D01*
X-1182511Y-427192D02*
X-1180607Y-428144D01*
X-1178703Y-430048D01*
X-1177750Y-432905D01*
Y-434809D01*
X-1178703Y-437666D01*
X-1180607Y-439570D01*
X-1182511Y-440522D01*
X-1185368D01*
X-1187272Y-439570D01*
X-1189177Y-437666D01*
X-1190129Y-434809D01*
Y-432905D01*
X-1189177Y-430048D01*
X-1187272Y-428144D01*
X-1185368Y-427192D01*
X-1182511D01*
X-1194509Y-420527D02*
Y-440522D01*
X-1207839Y-420527D02*
X-1194509Y-433857D01*
X-1199270Y-429096D02*
X-1207839Y-440522D01*
X-1212315Y-432905D02*
X-1223741D01*
Y-431001D01*
X-1222788Y-429096D01*
X-1221836Y-428144D01*
X-1219932Y-427192D01*
X-1217075D01*
X-1215171Y-428144D01*
X-1213267Y-430048D01*
X-1212315Y-432905D01*
Y-434809D01*
X-1213267Y-437666D01*
X-1215171Y-439570D01*
X-1217075Y-440522D01*
X-1219932D01*
X-1221836Y-439570D01*
X-1223741Y-437666D01*
X-1228978Y-427192D02*
X-1234691Y-440522D01*
X-1240404Y-427192D02*
X-1234691Y-440522D01*
X-1232786Y-444331D01*
X-1230882Y-446236D01*
X-1228978Y-447188D01*
X-1228025D01*
X-1272778Y-423383D02*
X-1270873Y-421479D01*
X-1268017Y-420527D01*
X-1264208D01*
X-1261352Y-421479D01*
X-1259447Y-423383D01*
Y-425288D01*
X-1260399Y-427192D01*
X-1261352Y-428144D01*
X-1263256Y-429096D01*
X-1268969Y-431001D01*
X-1270873Y-431953D01*
X-1271825Y-432905D01*
X-1272778Y-434809D01*
Y-437666D01*
X-1270873Y-439570D01*
X-1268017Y-440522D01*
X-1264208D01*
X-1261352Y-439570D01*
X-1259447Y-437666D01*
X-1277253Y-427192D02*
Y-447188D01*
Y-430048D02*
X-1279157Y-428144D01*
X-1281062Y-427192D01*
X-1283918D01*
X-1285823Y-428144D01*
X-1287727Y-430048D01*
X-1288679Y-432905D01*
Y-434809D01*
X-1287727Y-437666D01*
X-1285823Y-439570D01*
X-1283918Y-440522D01*
X-1281062D01*
X-1279157Y-439570D01*
X-1277253Y-437666D01*
X-1292964Y-420527D02*
Y-440522D01*
X-1299058Y-420527D02*
X-1300010Y-421479D01*
X-1300962Y-420527D01*
X-1300010Y-419575D01*
X-1299058Y-420527D01*
X-1300010Y-427192D02*
Y-440522D01*
X-1307342Y-420527D02*
Y-436714D01*
X-1308294Y-439570D01*
X-1310198Y-440522D01*
X-1312103D01*
X-1304485Y-427192D02*
X-1311151D01*
X-1173228Y-468861D02*
X-1181797D01*
X-1184654Y-467909D01*
X-1185606Y-466956D01*
X-1186558Y-465052D01*
Y-462196D01*
X-1185606Y-460291D01*
X-1184654Y-459339D01*
X-1181797Y-458387D01*
X-1173228D01*
Y-478383D01*
X-1191033Y-465052D02*
Y-478383D01*
Y-470765D02*
X-1191985Y-467909D01*
X-1193890Y-466004D01*
X-1195794Y-465052D01*
X-1198651D01*
X-1205221D02*
X-1203316Y-466004D01*
X-1201412Y-467909D01*
X-1200460Y-470765D01*
Y-472669D01*
X-1201412Y-475526D01*
X-1203316Y-477430D01*
X-1205221Y-478383D01*
X-1208077D01*
X-1209982Y-477430D01*
X-1211886Y-475526D01*
X-1212838Y-472669D01*
Y-470765D01*
X-1211886Y-467909D01*
X-1209982Y-466004D01*
X-1208077Y-465052D01*
X-1205221D01*
X-1220075Y-458387D02*
Y-474574D01*
X-1221027Y-477430D01*
X-1222931Y-478383D01*
X-1224836D01*
X-1217218Y-465052D02*
X-1223884D01*
X-1232453D02*
X-1230549Y-466004D01*
X-1228644Y-467909D01*
X-1227692Y-470765D01*
Y-472669D01*
X-1228644Y-475526D01*
X-1230549Y-477430D01*
X-1232453Y-478383D01*
X-1235310D01*
X-1237214Y-477430D01*
X-1239118Y-475526D01*
X-1240070Y-472669D01*
Y-470765D01*
X-1239118Y-467909D01*
X-1237214Y-466004D01*
X-1235310Y-465052D01*
X-1232453D01*
X-1247307Y-458387D02*
Y-474574D01*
X-1248259Y-477430D01*
X-1250163Y-478383D01*
X-1252068D01*
X-1244451Y-465052D02*
X-1251116D01*
X-1255877D02*
X-1261590Y-478383D01*
X-1267303Y-465052D02*
X-1261590Y-478383D01*
X-1259685Y-482191D01*
X-1257781Y-484096D01*
X-1255877Y-485048D01*
X-1254924D01*
X-1270635Y-465052D02*
Y-485048D01*
Y-467909D02*
X-1272540Y-466004D01*
X-1274444Y-465052D01*
X-1277301D01*
X-1279205Y-466004D01*
X-1281109Y-467909D01*
X-1282061Y-470765D01*
Y-472669D01*
X-1281109Y-475526D01*
X-1279205Y-477430D01*
X-1277301Y-478383D01*
X-1274444D01*
X-1272540Y-477430D01*
X-1270635Y-475526D01*
X-1286346Y-470765D02*
X-1297772D01*
Y-468861D01*
X-1296820Y-466956D01*
X-1295868Y-466004D01*
X-1293964Y-465052D01*
X-1291107D01*
X-1289203Y-466004D01*
X-1287298Y-467909D01*
X-1286346Y-470765D01*
Y-472669D01*
X-1287298Y-475526D01*
X-1289203Y-477430D01*
X-1291107Y-478383D01*
X-1293964D01*
X-1295868Y-477430D01*
X-1297772Y-475526D01*
D86*
X-134000Y345000D02*
X-104036Y339970D01*
X-134000Y345000D02*
X-131500Y360000D01*
X-101500Y355000D01*
X-104000Y340000D02*
X-101500Y355000D01*
D112*
X-1332526Y-158907D02*
G03*
X-1262168Y-257915I1551J-73401D01*
G01*
D113*
X-1282467Y-137914D02*
Y-106450D01*
X-1299510Y-137914D02*
Y-106450D01*
X-1330975Y-137914D02*
Y-106450D01*
X-1282467D02*
X-1251003D01*
X-1330975D02*
X-1299510D01*
X-1330975Y-186422D02*
X-1299510D01*
X-1282467D02*
X-1251003D01*
X-1299510D02*
Y-154957D01*
X-1309999Y-154958D02*
X-1299510D01*
X-1282467Y-154957D02*
X-1251003D01*
X-1282467Y-137914D02*
X-1251003D01*
X-1330975D02*
X-1299510D01*
X-1330975Y-186422D02*
Y-178928D01*
X-1282467Y-186422D02*
Y-154957D01*
X-1201184Y-186422D02*
Y-154957D01*
X-1232648Y-106449D02*
X-1201184D01*
Y-137914D02*
Y-106449D01*
X-1232648Y-186422D02*
X-1201184D01*
X-1232648Y-154957D02*
X-1201184D01*
X-1232648Y-137914D02*
X-1201184D01*
X-1232648Y-186422D02*
Y-154957D01*
X-1232648Y-137914D02*
Y-106449D01*
X-1251003Y-186422D02*
Y-154957D01*
Y-137914D02*
Y-106450D01*
D114*
X-517274Y391855D02*
X-518175Y389752D01*
X-519077Y391855D02*
X-518175Y389752D01*
X-521390Y392907D02*
X-519888D01*
X-519738Y391555D01*
X-519888Y391705D01*
X-520339Y391855D01*
X-520789D01*
X-521240Y391705D01*
X-521540Y391405D01*
X-521691Y390954D01*
Y390653D01*
X-521540Y390203D01*
X-521240Y389902D01*
X-520789Y389752D01*
X-520339D01*
X-519888Y389902D01*
X-519738Y390052D01*
X-519587Y390353D01*
X-522547Y390052D02*
X-522397Y389902D01*
X-522547Y389752D01*
X-522697Y389902D01*
X-522547Y390052D01*
X-523388Y392306D02*
X-523689Y392456D01*
X-524139Y392907D01*
Y389752D01*
M02*
