%TF.GenerationSoftware,KiCad,Pcbnew,7.0.7*%
%TF.CreationDate,2024-04-21T23:19:44+02:00*%
%TF.ProjectId,isokey_frame,69736f6b-6579-45f6-9672-616d652e6b69,A*%
%TF.SameCoordinates,Original*%
%TF.FileFunction,Copper,L2,Bot*%
%TF.FilePolarity,Positive*%
%FSLAX46Y46*%
G04 Gerber Fmt 4.6, Leading zero omitted, Abs format (unit mm)*
G04 Created by KiCad (PCBNEW 7.0.7) date 2024-04-21 23:19:44*
%MOMM*%
%LPD*%
G01*
G04 APERTURE LIST*
%TA.AperFunction,NonConductor*%
%ADD10C,0.500000*%
%TD*%
%TA.AperFunction,ComponentPad*%
%ADD11C,2.900000*%
%TD*%
%TA.AperFunction,ConnectorPad*%
%ADD12C,5.000000*%
%TD*%
G04 APERTURE END LIST*
D10*
X213125492Y-94050300D02*
X213125492Y-94050200D01*
X152784413Y-173379126D02*
X166307413Y-169755626D01*
X139976492Y-132150300D02*
X139976492Y-146150000D01*
X193074492Y-74000000D02*
X179075492Y-74000000D01*
X193075492Y-147149992D02*
G75*
G03*
X194075492Y-146150000I108J999892D01*
G01*
X179075492Y-73999992D02*
G75*
G03*
X178075492Y-75000000I8J-1000008D01*
G01*
X217175978Y-93050292D02*
G75*
G03*
X216175992Y-94050300I-78J-999908D01*
G01*
X231174992Y-90000000D02*
X231175492Y-90000000D01*
X194075492Y-127100000D02*
X194075492Y-113100300D01*
X160026492Y-128100000D02*
X174025492Y-128100000D01*
X194075500Y-94050300D02*
G75*
G03*
X193075492Y-93050300I-1000000J0D01*
G01*
X213125492Y-146150000D02*
X213125492Y-132150300D01*
X194074500Y-75000000D02*
G75*
G03*
X193074492Y-74000000I-1000000J0D01*
G01*
X191144600Y-154058100D02*
G75*
G03*
X190144592Y-153058100I-1000000J0D01*
G01*
X148643468Y-157924770D02*
G75*
G03*
X147936366Y-159149517I258832J-965930D01*
G01*
X231175436Y-131150100D02*
X217176492Y-131150300D01*
X155975492Y-89000000D02*
X155975492Y-75000000D01*
X212125478Y-93050100D02*
X212125436Y-93050100D01*
X155975500Y-132150300D02*
G75*
G03*
X154975492Y-131150300I-1000000J0D01*
G01*
X232175492Y-75000300D02*
X232175492Y-75000200D01*
X200027092Y-153057900D02*
X200026578Y-153057900D01*
X216176000Y-127100000D02*
G75*
G03*
X217175992Y-128100000I1000000J0D01*
G01*
X159026492Y-113100300D02*
X159026492Y-127100000D01*
X174025978Y-131150100D02*
X174025936Y-131150100D01*
X231175478Y-93050100D02*
X231175436Y-93050100D01*
X160026492Y-109050000D02*
X174025492Y-109050000D01*
X217175992Y-147150000D02*
X217176492Y-147150000D01*
X198126492Y-131150292D02*
G75*
G03*
X197126492Y-132150300I-92J-999908D01*
G01*
X155975492Y-108050000D02*
X155975492Y-94050300D01*
X174025936Y-131150100D02*
X160026992Y-131150300D01*
X179076492Y-93050292D02*
G75*
G03*
X178076492Y-94050300I8J-1000008D01*
G01*
X198125978Y-93050292D02*
G75*
G03*
X197125992Y-94050300I-78J-999908D01*
G01*
X231175492Y-147149992D02*
G75*
G03*
X232175492Y-146150000I108J999892D01*
G01*
X212125492Y-131150300D02*
X198126492Y-131150300D01*
X178076500Y-127100000D02*
G75*
G03*
X179076492Y-128100000I1000000J0D01*
G01*
X217176492Y-112100300D02*
X217175992Y-112100300D01*
X232175492Y-89000000D02*
X232175492Y-75000300D01*
X231175492Y-109049992D02*
G75*
G03*
X232175492Y-108050000I108J999892D01*
G01*
X160026478Y-131150292D02*
G75*
G03*
X159026492Y-132150300I22J-1000008D01*
G01*
X174025492Y-93050300D02*
X160026492Y-93050300D01*
X178076500Y-108050000D02*
G75*
G03*
X179076492Y-109050000I1000000J0D01*
G01*
X194075492Y-146150000D02*
X194075492Y-132150300D01*
X190144592Y-169057592D02*
G75*
G03*
X191144592Y-168057600I8J999992D01*
G01*
X175025992Y-146150000D02*
X175025992Y-132150300D01*
X175025492Y-89000000D02*
X175025492Y-75000000D01*
X193075492Y-128099992D02*
G75*
G03*
X194075492Y-127100000I108J999892D01*
G01*
X193075492Y-131150300D02*
X179076492Y-131150300D01*
X198126492Y-128100000D02*
X212125492Y-128100000D01*
X154975507Y-93050300D02*
X140976507Y-93050100D01*
X214025592Y-169057600D02*
X214026092Y-169057600D01*
X178076500Y-146150000D02*
G75*
G03*
X179076492Y-147150000I1000000J0D01*
G01*
X174025492Y-109049992D02*
G75*
G03*
X175025492Y-108050000I8J999992D01*
G01*
X163391125Y-155008376D02*
G75*
G03*
X162166370Y-154301276I-965925J-258824D01*
G01*
X159026492Y-75000000D02*
X159026492Y-89000000D01*
X178076492Y-132150300D02*
X178076492Y-146150000D01*
X198126492Y-109050000D02*
X212124992Y-109050000D01*
X197126500Y-89000000D02*
G75*
G03*
X198126492Y-90000000I1000000J0D01*
G01*
X194075492Y-108050000D02*
X194075492Y-94050300D01*
X194075500Y-132150300D02*
G75*
G03*
X193075492Y-131150300I-1000000J0D01*
G01*
X139976500Y-146150000D02*
G75*
G03*
X140976492Y-147150000I1000000J0D01*
G01*
X179076492Y-147150000D02*
X193075492Y-147150000D01*
X139976492Y-94050100D02*
X139976492Y-94050300D01*
X154975492Y-147149992D02*
G75*
G03*
X155975492Y-146150000I8J999992D01*
G01*
X175025492Y-108050000D02*
X175025492Y-94050300D01*
X213125500Y-113100300D02*
G75*
G03*
X212125492Y-112100300I-1000000J0D01*
G01*
X213125492Y-108050000D02*
X213125492Y-94050300D01*
X197126500Y-127100000D02*
G75*
G03*
X198126492Y-128100000I1000000J0D01*
G01*
X176145592Y-153058092D02*
G75*
G03*
X175145592Y-154058100I8J-1000008D01*
G01*
X198125992Y-109050000D02*
X198126492Y-109050000D01*
X160026492Y-73999992D02*
G75*
G03*
X159026492Y-75000000I8J-1000008D01*
G01*
X216175992Y-132150300D02*
X216175992Y-146150000D01*
X179076492Y-128100000D02*
X193075492Y-128100000D01*
X217175978Y-131150292D02*
G75*
G03*
X216175992Y-132150300I-78J-999908D01*
G01*
X217176492Y-131150300D02*
X217175978Y-131150300D01*
X179076492Y-109050000D02*
X193075492Y-109050000D01*
X232175492Y-132150300D02*
X232175492Y-132150200D01*
X162166370Y-154301276D02*
X148643470Y-157924776D01*
X175145592Y-154058100D02*
X175145592Y-168057600D01*
X212125492Y-128099992D02*
G75*
G03*
X213125492Y-127100000I108J999892D01*
G01*
X140976492Y-112100292D02*
G75*
G03*
X139976492Y-113100300I8J-1000008D01*
G01*
X231174992Y-112100300D02*
X217176492Y-112100300D01*
X139976492Y-94050300D02*
X139976492Y-108050000D01*
X217175992Y-112100292D02*
G75*
G03*
X216175992Y-113100300I-92J-999908D01*
G01*
X216175992Y-75000300D02*
X216175992Y-89000000D01*
X214026078Y-153057700D02*
X214026036Y-153057700D01*
X231175492Y-112100300D02*
X231174992Y-112100300D01*
X159026492Y-94050300D02*
X159026492Y-108050000D01*
X213125492Y-89000000D02*
X213125492Y-75000000D01*
X175025500Y-75000000D02*
G75*
G03*
X174025492Y-74000000I-1000000J0D01*
G01*
X190144592Y-153058100D02*
X176145592Y-153058100D01*
X212125492Y-109049992D02*
G75*
G03*
X213125492Y-108050000I108J999892D01*
G01*
X175025500Y-113100300D02*
G75*
G03*
X174025492Y-112100300I-1000000J0D01*
G01*
X175145600Y-168057600D02*
G75*
G03*
X176145592Y-169057600I1000000J0D01*
G01*
X174025492Y-147150000D02*
X174025992Y-147150000D01*
X231175492Y-89999992D02*
G75*
G03*
X232175492Y-89000000I108J999892D01*
G01*
X159026500Y-127100000D02*
G75*
G03*
X160026492Y-128100000I1000000J0D01*
G01*
X139976492Y-113100300D02*
X139976492Y-127100000D01*
X232175500Y-75000200D02*
G75*
G03*
X231175478Y-74000100I-1000000J100D01*
G01*
X217175978Y-74000292D02*
G75*
G03*
X216175992Y-75000300I-78J-999908D01*
G01*
X231175492Y-128099992D02*
G75*
G03*
X232175492Y-127100000I108J999892D01*
G01*
X175025492Y-127100000D02*
X175025492Y-113100300D01*
X216175992Y-94050300D02*
X216175992Y-108050000D01*
X178076492Y-113100300D02*
X178076492Y-127100000D01*
X194074492Y-89000000D02*
X194074492Y-75000000D01*
X140976492Y-90000000D02*
X154975492Y-90000000D01*
X155975492Y-146150000D02*
X155975492Y-132150300D01*
X139976500Y-127100000D02*
G75*
G03*
X140976492Y-128100000I1000000J0D01*
G01*
X214026036Y-153057700D02*
X200027092Y-153057900D01*
X174025492Y-112100300D02*
X160026492Y-112100300D01*
X174025492Y-74000000D02*
X160026492Y-74000000D01*
X232175492Y-146150000D02*
X232175492Y-132150300D01*
X193075492Y-109049992D02*
G75*
G03*
X194075492Y-108050000I108J999892D01*
G01*
X160026492Y-93050292D02*
G75*
G03*
X159026492Y-94050300I8J-1000008D01*
G01*
X198126492Y-93050300D02*
X198125978Y-93050300D01*
X155975500Y-94050300D02*
G75*
G03*
X154975507Y-93050300I-1000000J0D01*
G01*
X216175992Y-113100300D02*
X216175992Y-127100000D01*
X214026092Y-169057592D02*
G75*
G03*
X215026092Y-168057600I108J999892D01*
G01*
X160026992Y-131150300D02*
X160026478Y-131150300D01*
X217175992Y-109050000D02*
X217176492Y-109050000D01*
X139976500Y-89000000D02*
G75*
G03*
X140976492Y-90000000I1000000J0D01*
G01*
X212125492Y-112100300D02*
X198126492Y-112100300D01*
X160026492Y-147150000D02*
X160026992Y-147150000D01*
X174025492Y-89999992D02*
G75*
G03*
X175025492Y-89000000I8J999992D01*
G01*
X147936366Y-159149517D02*
X151559666Y-172672017D01*
X200026578Y-153057892D02*
G75*
G03*
X199026592Y-154057900I-78J-999908D01*
G01*
X159026492Y-132150300D02*
X159026492Y-146150000D01*
X193075492Y-112100300D02*
X179076492Y-112100300D01*
X175025992Y-132150300D02*
X175025992Y-132150200D01*
X140976492Y-128100000D02*
X154975492Y-128100000D01*
X213125500Y-94050200D02*
G75*
G03*
X212125478Y-93050100I-1000000J100D01*
G01*
X231174992Y-109050000D02*
X231175492Y-109050000D01*
X193075492Y-93050300D02*
X179076492Y-93050300D01*
X155975492Y-127100000D02*
X155975492Y-113100300D01*
X139976492Y-75000000D02*
X139976492Y-89000000D01*
X232175492Y-94050300D02*
X232175492Y-94050200D01*
X174025992Y-147149992D02*
G75*
G03*
X175025992Y-146150000I8J999992D01*
G01*
X197126492Y-75000000D02*
X197126492Y-89000000D01*
X179075492Y-90000000D02*
X193074492Y-90000000D01*
X213125492Y-127100000D02*
X213125492Y-113100300D01*
X197126000Y-108050000D02*
G75*
G03*
X198125992Y-109050000I1000000J0D01*
G01*
X217176492Y-147150000D02*
X231174992Y-147150000D01*
X154975492Y-131150300D02*
X140976492Y-131150300D01*
X217175992Y-90000000D02*
X217176492Y-90000000D01*
X159026500Y-146150000D02*
G75*
G03*
X160026492Y-147150000I1000000J0D01*
G01*
X212124992Y-109050000D02*
X212125492Y-109050000D01*
X217176492Y-74000300D02*
X217175978Y-74000300D01*
X217176492Y-109050000D02*
X231174992Y-109050000D01*
X217175992Y-128100000D02*
X217176492Y-128100000D01*
X232175492Y-108050000D02*
X232175492Y-94050300D01*
X191144592Y-168057600D02*
X191144592Y-154058100D01*
X215026100Y-154057800D02*
G75*
G03*
X214026078Y-153057700I-1000000J100D01*
G01*
X155975500Y-75000000D02*
G75*
G03*
X154975492Y-74000000I-1000000J0D01*
G01*
X175026000Y-132150200D02*
G75*
G03*
X174025978Y-131150100I-1000000J100D01*
G01*
X200027092Y-169057600D02*
X214025592Y-169057600D01*
X212125492Y-147149992D02*
G75*
G03*
X213125492Y-146150000I108J999892D01*
G01*
X155975500Y-113100300D02*
G75*
G03*
X154975492Y-112100300I-1000000J0D01*
G01*
X154975492Y-74000000D02*
X140976492Y-74000000D01*
X178075500Y-89000000D02*
G75*
G03*
X179075492Y-90000000I1000000J0D01*
G01*
X193074492Y-89999992D02*
G75*
G03*
X194074492Y-89000000I108J999892D01*
G01*
X198126492Y-73999992D02*
G75*
G03*
X197126492Y-75000000I-92J-999908D01*
G01*
X231175436Y-93050100D02*
X217176492Y-93050300D01*
X231174992Y-128100000D02*
X231175492Y-128100000D01*
X217176492Y-93050300D02*
X217175978Y-93050300D01*
X231175478Y-74000100D02*
X231175436Y-74000100D01*
X154975492Y-109049992D02*
G75*
G03*
X155975492Y-108050000I8J999992D01*
G01*
X199026592Y-154057900D02*
X199026592Y-168057600D01*
X215026092Y-168057600D02*
X215026092Y-154057900D01*
X212125492Y-74000000D02*
X198126492Y-74000000D01*
X213125500Y-75000000D02*
G75*
G03*
X212125492Y-74000000I-1000000J0D01*
G01*
X140976507Y-93050092D02*
G75*
G03*
X139976492Y-94050100I-7J-1000008D01*
G01*
X154975492Y-112100300D02*
X140976492Y-112100300D01*
X140976492Y-147150000D02*
X154975492Y-147150000D01*
X231175436Y-74000100D02*
X217176492Y-74000300D01*
X197126492Y-132150300D02*
X197126492Y-146150000D01*
X232175492Y-127100000D02*
X232175492Y-113100300D01*
X179076492Y-112100292D02*
G75*
G03*
X178076492Y-113100300I8J-1000008D01*
G01*
X212125436Y-93050100D02*
X198126492Y-93050300D01*
X159026500Y-89000000D02*
G75*
G03*
X160026492Y-90000000I1000000J0D01*
G01*
X167014517Y-168530878D02*
X163391117Y-155008378D01*
X140976492Y-131150292D02*
G75*
G03*
X139976492Y-132150300I8J-1000008D01*
G01*
X199026600Y-168057600D02*
G75*
G03*
X200026592Y-169057600I1000000J0D01*
G01*
X174025492Y-128099992D02*
G75*
G03*
X175025492Y-127100000I8J999992D01*
G01*
X197125992Y-94050300D02*
X197125992Y-108050000D01*
X198126492Y-147150000D02*
X212125492Y-147150000D01*
X175025500Y-94050300D02*
G75*
G03*
X174025492Y-93050300I-1000000J0D01*
G01*
X231175478Y-131150100D02*
X231175436Y-131150100D01*
X160026492Y-90000000D02*
X174025492Y-90000000D01*
X139976500Y-108050000D02*
G75*
G03*
X140976492Y-109050000I1000000J0D01*
G01*
X154975492Y-89999992D02*
G75*
G03*
X155975492Y-89000000I8J999992D01*
G01*
X232175500Y-94050200D02*
G75*
G03*
X231175478Y-93050100I-1000000J100D01*
G01*
X213125500Y-132150300D02*
G75*
G03*
X212125492Y-131150300I-1000000J0D01*
G01*
X232175500Y-132150200D02*
G75*
G03*
X231175478Y-131150100I-1000000J100D01*
G01*
X178076492Y-94050300D02*
X178076492Y-108050000D01*
X197126492Y-113100300D02*
X197126492Y-127100000D01*
X159026500Y-108050000D02*
G75*
G03*
X160026492Y-109050000I1000000J0D01*
G01*
X160026492Y-112100292D02*
G75*
G03*
X159026492Y-113100300I8J-1000008D01*
G01*
X197126500Y-146150000D02*
G75*
G03*
X198126492Y-147150000I1000000J0D01*
G01*
X217176492Y-90000000D02*
X231174992Y-90000000D01*
X216176000Y-108050000D02*
G75*
G03*
X217175992Y-109050000I1000000J0D01*
G01*
X166307411Y-169755620D02*
G75*
G03*
X167014517Y-168530878I-258811J965920D01*
G01*
X198126492Y-90000000D02*
X212125492Y-90000000D01*
X232175500Y-113100300D02*
G75*
G03*
X231175492Y-112100300I-1000000J0D01*
G01*
X176145592Y-169057600D02*
X190144592Y-169057600D01*
X200026592Y-169057600D02*
X200027092Y-169057600D01*
X140976492Y-73999992D02*
G75*
G03*
X139976492Y-75000000I8J-1000008D01*
G01*
X198126492Y-112100292D02*
G75*
G03*
X197126492Y-113100300I-92J-999908D01*
G01*
X154975492Y-128099992D02*
G75*
G03*
X155975492Y-127100000I8J999992D01*
G01*
X178075492Y-75000000D02*
X178075492Y-89000000D01*
X140976492Y-109050000D02*
X154975492Y-109050000D01*
X160026992Y-147150000D02*
X174025492Y-147150000D01*
X194075500Y-113100300D02*
G75*
G03*
X193075492Y-112100300I-1000000J0D01*
G01*
X216176000Y-89000000D02*
G75*
G03*
X217175992Y-90000000I1000000J0D01*
G01*
X217176492Y-128100000D02*
X231174992Y-128100000D01*
X151559675Y-172672015D02*
G75*
G03*
X152784413Y-173379125I965925J258815D01*
G01*
X212125492Y-89999992D02*
G75*
G03*
X213125492Y-89000000I108J999892D01*
G01*
X215026092Y-154057900D02*
X215026092Y-154057800D01*
X216176000Y-146150000D02*
G75*
G03*
X217175992Y-147150000I1000000J0D01*
G01*
X179076492Y-131150292D02*
G75*
G03*
X178076492Y-132150300I8J-1000008D01*
G01*
D11*
%TO.P,H7,1,1*%
%TO.N,N/C*%
X107976992Y-195598916D03*
D12*
X107976992Y-195598916D03*
%TD*%
D11*
%TO.P,H7,1,1*%
%TO.N,GND*%
X143981992Y-70629716D03*
D12*
X143981992Y-70629716D03*
%TD*%
D11*
%TO.P,H7,1,1*%
%TO.N,N/C*%
X231198751Y-174083107D03*
D12*
X231198751Y-174083107D03*
%TD*%
D11*
%TO.P,H7,1,1*%
%TO.N,N/C*%
X231198751Y-67083107D03*
D12*
X231198751Y-67083107D03*
%TD*%
D11*
%TO.P,H7,1,1*%
%TO.N,N/C*%
X83976992Y-171598916D03*
D12*
X83976992Y-171598916D03*
%TD*%
M02*
