%TF.GenerationSoftware,KiCad,Pcbnew,7.0.7*%
%TF.CreationDate,2024-04-21T23:19:44+02:00*%
%TF.ProjectId,isokey_frame,69736f6b-6579-45f6-9672-616d652e6b69,A*%
%TF.SameCoordinates,Original*%
%TF.FileFunction,Soldermask,Bot*%
%TF.FilePolarity,Negative*%
%FSLAX46Y46*%
G04 Gerber Fmt 4.6, Leading zero omitted, Abs format (unit mm)*
G04 Created by KiCad (PCBNEW 7.0.7) date 2024-04-21 23:19:44*
%MOMM*%
%LPD*%
G01*
G04 APERTURE LIST*
%ADD10C,0.500000*%
%ADD11C,2.900000*%
%ADD12C,5.000000*%
G04 APERTURE END LIST*
D10*
X194121008Y-89000150D02*
X194121008Y-75000150D01*
X175048500Y-108051084D02*
X175048500Y-94051384D01*
X155998934Y-113099366D02*
G75*
G03*
X154999000Y-112099366I-999934J66D01*
G01*
X213149000Y-88999066D02*
X213149000Y-74999066D01*
X179098500Y-74001100D02*
G75*
G03*
X178098500Y-75001084I0J-1000000D01*
G01*
X214049086Y-153058784D02*
X214049044Y-153058784D01*
X160049500Y-74001100D02*
G75*
G03*
X159049500Y-75001084I0J-1000000D01*
G01*
X217199486Y-131149300D02*
G75*
G03*
X216199500Y-132149366I-86J-999900D01*
G01*
X232198516Y-94051284D02*
G75*
G03*
X231198486Y-93051184I-1000016J84D01*
G01*
X216222508Y-94050450D02*
X216222508Y-108050150D01*
X175072550Y-132150350D02*
G75*
G03*
X174072494Y-131150250I-1000150J-50D01*
G01*
X140999500Y-90001084D02*
X154998500Y-90001084D01*
X175048934Y-74999066D02*
G75*
G03*
X174049000Y-73999066I-1000034J-34D01*
G01*
X231198500Y-112101384D02*
X231198000Y-112101384D01*
X156021950Y-94050450D02*
G75*
G03*
X155022023Y-93050450I-999950J50D01*
G01*
X154998500Y-131151384D02*
X140999500Y-131151384D01*
X212172008Y-112100450D02*
X198173008Y-112100450D01*
X190168100Y-153057166D02*
X176169100Y-153057166D01*
X139999500Y-113101384D02*
X139999500Y-127101084D01*
X232198500Y-132151384D02*
X232198500Y-132151284D01*
X194098500Y-108051084D02*
X194098500Y-94051384D01*
X212149000Y-147149000D02*
G75*
G03*
X213149000Y-146149066I-100J1000100D01*
G01*
X198173008Y-112100408D02*
G75*
G03*
X197173008Y-113100450I-108J-999892D01*
G01*
X213148516Y-113101384D02*
G75*
G03*
X212148500Y-112101384I-1000016J-16D01*
G01*
X193098500Y-131151384D02*
X179099500Y-131151384D01*
X231198500Y-90001100D02*
G75*
G03*
X232198500Y-89001084I100J999900D01*
G01*
X139999516Y-146151084D02*
G75*
G03*
X140999500Y-147151084I999984J-16D01*
G01*
X141000000Y-128099066D02*
X154999000Y-128099066D01*
X160050000Y-89999066D02*
X174049000Y-89999066D01*
X214049044Y-153058784D02*
X200050100Y-153058984D01*
X191191108Y-168057750D02*
X191191108Y-154058250D01*
X175072050Y-113100450D02*
G75*
G03*
X174072008Y-112100450I-1000150J-150D01*
G01*
X217199500Y-109049066D02*
X217200000Y-109049066D01*
X174048986Y-131151184D02*
X174048944Y-131151184D01*
X148666989Y-157923882D02*
G75*
G03*
X147959875Y-159148583I258811J-965918D01*
G01*
X194098516Y-94051384D02*
G75*
G03*
X193098500Y-93051384I-1000016J-16D01*
G01*
X179099000Y-73999000D02*
G75*
G03*
X178099000Y-74999066I-100J-999900D01*
G01*
X231221994Y-131150250D02*
X231221952Y-131150250D01*
X159073008Y-113100450D02*
X159073008Y-127100150D01*
X178123008Y-94050450D02*
X178123008Y-108050150D01*
X213172008Y-146150150D02*
X213172008Y-132150450D01*
X154998500Y-90001100D02*
G75*
G03*
X155998500Y-89001084I0J1000000D01*
G01*
X216222550Y-127100150D02*
G75*
G03*
X217222508Y-128100150I999850J-150D01*
G01*
X179123008Y-131150408D02*
G75*
G03*
X178123008Y-132150450I-8J-999992D01*
G01*
X141023008Y-109050150D02*
X155022008Y-109050150D01*
X155022008Y-131150450D02*
X141023008Y-131150450D01*
X160073508Y-147150150D02*
X174072008Y-147150150D01*
X217223008Y-112100450D02*
X217222508Y-112100450D01*
X159050000Y-113099366D02*
X159050000Y-127099066D01*
X231222008Y-90000108D02*
G75*
G03*
X232222008Y-89000150I-108J1000108D01*
G01*
X175048516Y-113101384D02*
G75*
G03*
X174048500Y-112101384I-1000016J-16D01*
G01*
X178123050Y-146150150D02*
G75*
G03*
X179123008Y-147150150I999850J-150D01*
G01*
X154999015Y-93049366D02*
X141000015Y-93049166D01*
X197172550Y-108050150D02*
G75*
G03*
X198172508Y-109050150I999850J-150D01*
G01*
X213148934Y-74999066D02*
G75*
G03*
X212149000Y-73999066I-1000034J-34D01*
G01*
X141000000Y-109049066D02*
X154999000Y-109049066D01*
X140023050Y-127100150D02*
G75*
G03*
X141023008Y-128100150I999950J-50D01*
G01*
X197149516Y-127101084D02*
G75*
G03*
X198149500Y-128101084I999984J-16D01*
G01*
X232222008Y-89000150D02*
X232222008Y-75000450D01*
X216199016Y-108051084D02*
G75*
G03*
X217199000Y-109051084I999984J-16D01*
G01*
X213148516Y-75001084D02*
G75*
G03*
X212148500Y-74001084I-1000016J-16D01*
G01*
X179099500Y-147151084D02*
X193098500Y-147151084D01*
X231199000Y-147149000D02*
G75*
G03*
X232199000Y-146149066I-100J1000100D01*
G01*
X175049000Y-88999066D02*
X175049000Y-74999066D01*
X217223008Y-93050450D02*
X217222494Y-93050450D01*
X216199500Y-94049366D02*
X216199500Y-108049066D01*
X194099000Y-127099066D02*
X194099000Y-113099366D01*
X159049500Y-75001084D02*
X159049500Y-89001084D01*
X217200000Y-128099066D02*
X231198500Y-128099066D01*
X174048944Y-131151184D02*
X160050000Y-131151384D01*
X200073608Y-153058050D02*
X200073094Y-153058050D01*
X213148500Y-94051384D02*
X213148500Y-94051284D01*
X174072008Y-74000150D02*
X160073008Y-74000150D01*
X175169034Y-168056666D02*
G75*
G03*
X176169100Y-169056666I999966J-34D01*
G01*
X214049544Y-153056766D02*
X200050600Y-153056966D01*
X217198986Y-131151400D02*
G75*
G03*
X216199000Y-132151384I114J-1000100D01*
G01*
X198149500Y-131151400D02*
G75*
G03*
X197149500Y-132151384I100J-1000100D01*
G01*
X216222508Y-75000450D02*
X216222508Y-89000150D01*
X139999500Y-132151384D02*
X139999500Y-146151084D01*
X231222008Y-128100108D02*
G75*
G03*
X232222008Y-127100150I-108J1000108D01*
G01*
X212149000Y-89999000D02*
G75*
G03*
X213149000Y-88999066I-100J1000100D01*
G01*
X159049500Y-132151384D02*
X159049500Y-146151084D01*
X217222508Y-109050150D02*
X217223008Y-109050150D01*
X140000000Y-74999066D02*
X140000000Y-88999066D01*
X197173008Y-113100450D02*
X197173008Y-127100150D01*
X216199434Y-146149066D02*
G75*
G03*
X217199500Y-147149066I999966J-34D01*
G01*
X216199000Y-113101384D02*
X216199000Y-127101084D01*
X231198500Y-128101100D02*
G75*
G03*
X232198500Y-127101084I100J999900D01*
G01*
X160050000Y-131151384D02*
X160049486Y-131151384D01*
X140023008Y-75000150D02*
X140023008Y-89000150D01*
X198149500Y-128101084D02*
X212148500Y-128101084D01*
X178100000Y-132149366D02*
X178100000Y-146149066D01*
X197149016Y-108051084D02*
G75*
G03*
X198149000Y-109051084I999984J-16D01*
G01*
X141000000Y-89999066D02*
X154999000Y-89999066D01*
X179100000Y-128099066D02*
X193099000Y-128099066D01*
X231198500Y-147151100D02*
G75*
G03*
X232198500Y-146151084I100J999900D01*
G01*
X231198500Y-109051100D02*
G75*
G03*
X232198500Y-108051084I100J999900D01*
G01*
X174072008Y-93050450D02*
X160073008Y-93050450D01*
X194122050Y-132150450D02*
G75*
G03*
X193122008Y-131150450I-1000150J-150D01*
G01*
X166330426Y-169756728D02*
G75*
G03*
X167037525Y-168531962I-258826J965928D01*
G01*
X139999500Y-94051384D02*
X139999500Y-108051084D01*
X216199434Y-127099066D02*
G75*
G03*
X217199500Y-128099066I999966J-34D01*
G01*
X175049000Y-132151384D02*
X175049000Y-132151284D01*
X139999516Y-89001084D02*
G75*
G03*
X140999500Y-90001084I999984J-16D01*
G01*
X212148000Y-109051084D02*
X212148500Y-109051084D01*
X198173008Y-93050450D02*
X198172494Y-93050450D01*
X159049516Y-146151084D02*
G75*
G03*
X160049500Y-147151084I999984J-16D01*
G01*
X151606137Y-172672179D02*
G75*
G03*
X152830929Y-173379276I965963J258879D01*
G01*
X160050000Y-93049400D02*
G75*
G03*
X159050000Y-94049366I0J-1000000D01*
G01*
X155998516Y-132151384D02*
G75*
G03*
X154998500Y-131151384I-1000016J-16D01*
G01*
X174072452Y-131150250D02*
X160073508Y-131150450D01*
X141023008Y-147150150D02*
X155022008Y-147150150D01*
X154998500Y-74001084D02*
X140999500Y-74001084D01*
X213172008Y-89000150D02*
X213172008Y-75000150D01*
X193122008Y-109050108D02*
G75*
G03*
X194122008Y-108050150I-108J1000108D01*
G01*
X212171508Y-109050150D02*
X212172008Y-109050150D01*
X174049000Y-89999000D02*
G75*
G03*
X175049000Y-88999066I-100J1000100D01*
G01*
X174048500Y-147151084D02*
X174049000Y-147151084D01*
X176168600Y-153059200D02*
G75*
G03*
X175168600Y-154059184I0J-1000000D01*
G01*
X194097500Y-89001084D02*
X194097500Y-75001084D01*
X179123008Y-112100408D02*
G75*
G03*
X178123008Y-113100450I-8J-999992D01*
G01*
X175168616Y-168058684D02*
G75*
G03*
X176168600Y-169058684I999984J-16D01*
G01*
X212148444Y-93051184D02*
X198149500Y-93051384D01*
X232198934Y-132149266D02*
G75*
G03*
X231198986Y-131149166I-1000034J66D01*
G01*
X151582684Y-172673098D02*
G75*
G03*
X152807421Y-173380210I965916J258798D01*
G01*
X175072008Y-127100150D02*
X175072008Y-113100450D01*
X216199000Y-75001384D02*
X216199000Y-89001084D01*
X198150000Y-131149300D02*
G75*
G03*
X197150000Y-132149366I-100J-999900D01*
G01*
X159072950Y-108050150D02*
G75*
G03*
X160073008Y-109050150I1000050J50D01*
G01*
X151583128Y-172671095D02*
G75*
G03*
X152807921Y-173378192I965972J258895D01*
G01*
X232222008Y-132150450D02*
X232222008Y-132150350D01*
X154999000Y-131149366D02*
X141000000Y-131149366D01*
X231198000Y-109051084D02*
X231198500Y-109051084D01*
X231199000Y-128099000D02*
G75*
G03*
X232199000Y-127099066I-100J1000100D01*
G01*
X141000015Y-93049100D02*
G75*
G03*
X140000000Y-94049166I-15J-1000000D01*
G01*
X178099934Y-108049066D02*
G75*
G03*
X179100000Y-109049066I999966J-34D01*
G01*
X193122008Y-128100108D02*
G75*
G03*
X194122008Y-127100150I-108J1000108D01*
G01*
X198173008Y-128100150D02*
X212172008Y-128100150D01*
X194099000Y-146149066D02*
X194099000Y-132149366D01*
X156022008Y-108050150D02*
X156022008Y-94050450D01*
X231198500Y-109049066D02*
X231199000Y-109049066D01*
X193099000Y-131149366D02*
X179100000Y-131149366D01*
X159049516Y-89001084D02*
G75*
G03*
X160049500Y-90001084I999984J-16D01*
G01*
X199073150Y-168057750D02*
G75*
G03*
X200073108Y-169057750I999850J-150D01*
G01*
X178122050Y-89000150D02*
G75*
G03*
X179122008Y-90000150I999850J-150D01*
G01*
X198150000Y-112099300D02*
G75*
G03*
X197150000Y-113099366I-100J-999900D01*
G01*
X190167600Y-153059184D02*
X176168600Y-153059184D01*
X212148500Y-147151100D02*
G75*
G03*
X213148500Y-146151084I100J999900D01*
G01*
X198148986Y-93051400D02*
G75*
G03*
X197149000Y-94051384I114J-1000100D01*
G01*
X231222008Y-109050108D02*
G75*
G03*
X232222008Y-108050150I-108J1000108D01*
G01*
X213172008Y-108050150D02*
X213172008Y-94050450D01*
X231198944Y-131149166D02*
X217200000Y-131149366D01*
X214049100Y-169056666D02*
X214049600Y-169056666D01*
X232198516Y-75001284D02*
G75*
G03*
X231198486Y-74001184I-1000016J84D01*
G01*
X197149934Y-146149066D02*
G75*
G03*
X198150000Y-147149066I999966J-34D01*
G01*
X217200000Y-93049366D02*
X217199486Y-93049366D01*
X175072008Y-108050150D02*
X175072008Y-94050450D01*
X200049586Y-153059000D02*
G75*
G03*
X199049600Y-154058984I114J-1000100D01*
G01*
X200049600Y-169058684D02*
X200050100Y-169058684D01*
X154998500Y-112101384D02*
X140999500Y-112101384D01*
X159049516Y-127101084D02*
G75*
G03*
X160049500Y-128101084I999984J-16D01*
G01*
X179122008Y-90000150D02*
X193121008Y-90000150D01*
X162189378Y-154302360D02*
X148666478Y-157925860D01*
X155999000Y-127099066D02*
X155999000Y-113099366D01*
X159049934Y-88999066D02*
G75*
G03*
X160050000Y-89999066I1000066J66D01*
G01*
X159072950Y-127100150D02*
G75*
G03*
X160073008Y-128100150I1000050J50D01*
G01*
X139999516Y-108051084D02*
G75*
G03*
X140999500Y-109051084I999984J-16D01*
G01*
X159073008Y-132150450D02*
X159073008Y-146150150D01*
X191168100Y-168056666D02*
X191168100Y-154057166D01*
X159072950Y-146150150D02*
G75*
G03*
X160073008Y-147150150I1000050J50D01*
G01*
X214049586Y-153056766D02*
X214049544Y-153056766D01*
X152807921Y-173378192D02*
X166330921Y-169754692D01*
X231221508Y-112100450D02*
X217223008Y-112100450D01*
X231221994Y-74000250D02*
X231221952Y-74000250D01*
X197149500Y-132151384D02*
X197149500Y-146151084D01*
X217199500Y-74001384D02*
X217198986Y-74001384D01*
X217199500Y-109051084D02*
X231198000Y-109051084D01*
X156021950Y-132150450D02*
G75*
G03*
X155022008Y-131150450I-999950J50D01*
G01*
X212148500Y-109049066D02*
X212149000Y-109049066D01*
X197149934Y-127099066D02*
G75*
G03*
X198150000Y-128099066I999966J-34D01*
G01*
X175049000Y-108049066D02*
X175049000Y-94049366D01*
X231221508Y-109050150D02*
X231222008Y-109050150D01*
X213149000Y-146149066D02*
X213149000Y-132149366D01*
X154999000Y-73999066D02*
X141000000Y-73999066D01*
X198149000Y-109051084D02*
X198149500Y-109051084D01*
X167037525Y-168531962D02*
X163414125Y-155009462D01*
X212148500Y-74001084D02*
X198149500Y-74001084D01*
X160050000Y-128099066D02*
X174049000Y-128099066D01*
X160049500Y-109051084D02*
X174048500Y-109051084D01*
X175049000Y-146151084D02*
X175049000Y-132151384D01*
X140000000Y-113099366D02*
X140000000Y-127099066D01*
X198149500Y-74001100D02*
G75*
G03*
X197149500Y-75001084I100J-1000100D01*
G01*
X216222508Y-132150450D02*
X216222508Y-146150150D01*
X193121008Y-90000108D02*
G75*
G03*
X194121008Y-89000150I-108J1000108D01*
G01*
X217199500Y-128101084D02*
X231198000Y-128101084D01*
X193098500Y-93051384D02*
X179099500Y-93051384D01*
X197173008Y-132150450D02*
X197173008Y-146150150D01*
X231198944Y-73999166D02*
X217200000Y-73999366D01*
X197173008Y-75000150D02*
X197173008Y-89000150D01*
X216199500Y-113099366D02*
X216199500Y-127099066D01*
X217222508Y-147150150D02*
X217223008Y-147150150D01*
X200050100Y-169056666D02*
X200050600Y-169056666D01*
X174072008Y-90000108D02*
G75*
G03*
X175072008Y-89000150I-8J1000008D01*
G01*
X217199000Y-90001084D02*
X217199500Y-90001084D01*
X200050086Y-153056900D02*
G75*
G03*
X199050100Y-154056966I-86J-999900D01*
G01*
X174049000Y-109049000D02*
G75*
G03*
X175049000Y-108049066I-100J1000100D01*
G01*
X216222550Y-146150150D02*
G75*
G03*
X217222508Y-147150150I999850J-150D01*
G01*
X232198934Y-113099366D02*
G75*
G03*
X231199000Y-112099366I-1000034J-34D01*
G01*
X232199000Y-132149366D02*
X232199000Y-132149266D01*
X213148516Y-94051284D02*
G75*
G03*
X212148486Y-93051184I-1000016J84D01*
G01*
X231222008Y-147150108D02*
G75*
G03*
X232222008Y-146150150I-108J1000108D01*
G01*
X178098516Y-89001084D02*
G75*
G03*
X179098500Y-90001084I999984J-16D01*
G01*
X194098500Y-146151084D02*
X194098500Y-132151384D01*
X194122050Y-113100450D02*
G75*
G03*
X193122008Y-112100450I-1000150J-150D01*
G01*
X155999000Y-88999066D02*
X155999000Y-74999066D01*
X193099000Y-93049366D02*
X179100000Y-93049366D01*
X212148500Y-90001100D02*
G75*
G03*
X213148500Y-89001084I100J999900D01*
G01*
X159049500Y-94051384D02*
X159049500Y-108051084D01*
X155022008Y-109050108D02*
G75*
G03*
X156022008Y-108050150I-8J1000008D01*
G01*
X155022008Y-90000108D02*
G75*
G03*
X156022008Y-89000150I-8J1000008D01*
G01*
X163437588Y-155008540D02*
G75*
G03*
X162212886Y-154301427I-965888J-258760D01*
G01*
X140999500Y-128101084D02*
X154998500Y-128101084D01*
X215049600Y-154056966D02*
X215049600Y-154056866D01*
X231221508Y-90000150D02*
X231222008Y-90000150D01*
X217223008Y-147150150D02*
X231221508Y-147150150D01*
X141023008Y-112100408D02*
G75*
G03*
X140023008Y-113100450I-8J-999992D01*
G01*
X193099000Y-109049000D02*
G75*
G03*
X194099000Y-108049066I-100J1000100D01*
G01*
X193097500Y-74001084D02*
X179098500Y-74001084D01*
X160050000Y-112099400D02*
G75*
G03*
X159050000Y-113099366I0J-1000000D01*
G01*
X198173008Y-74000108D02*
G75*
G03*
X197173008Y-75000150I-108J-999892D01*
G01*
X176192108Y-153058208D02*
G75*
G03*
X175192108Y-154058250I-8J-999992D01*
G01*
X217200000Y-109049066D02*
X231198500Y-109049066D01*
X213172008Y-127100150D02*
X213172008Y-113100450D01*
X214072108Y-169057750D02*
X214072608Y-169057750D01*
X212149000Y-73999066D02*
X198150000Y-73999066D01*
X198149500Y-147151084D02*
X212148500Y-147151084D01*
X174049486Y-131149166D02*
X174049444Y-131149166D01*
X178123008Y-132150450D02*
X178123008Y-146150150D01*
X140999500Y-147151084D02*
X154998500Y-147151084D01*
X166353914Y-169755721D02*
G75*
G03*
X167061032Y-168531028I-258814J965921D01*
G01*
X140023008Y-94050250D02*
X140023008Y-94050450D01*
X174048500Y-93051384D02*
X160049500Y-93051384D01*
X179100000Y-112099300D02*
G75*
G03*
X178100000Y-113099366I-100J-999900D01*
G01*
X178100000Y-94049366D02*
X178100000Y-108049066D01*
X194098934Y-113099366D02*
G75*
G03*
X193099000Y-112099366I-1000034J-34D01*
G01*
X217198986Y-93051400D02*
G75*
G03*
X216199000Y-94051384I114J-1000100D01*
G01*
X215072608Y-154058050D02*
X215072608Y-154057950D01*
X159050000Y-132149366D02*
X159050000Y-146149066D01*
X140999500Y-109051084D02*
X154998500Y-109051084D01*
X191168034Y-154057166D02*
G75*
G03*
X190168100Y-153057166I-1000034J-34D01*
G01*
X160049486Y-131151400D02*
G75*
G03*
X159049500Y-132151384I14J-1000000D01*
G01*
X176169100Y-153057100D02*
G75*
G03*
X175169100Y-154057166I-100J-999900D01*
G01*
X162212886Y-154301426D02*
X148689986Y-157924926D01*
X193098000Y-89999000D02*
G75*
G03*
X194098000Y-88999066I-100J1000100D01*
G01*
X232222008Y-146150150D02*
X232222008Y-132150450D01*
X194122050Y-94050450D02*
G75*
G03*
X193122008Y-93050450I-1000150J-150D01*
G01*
X190191108Y-153058250D02*
X176192108Y-153058250D01*
X198149500Y-109049066D02*
X198150000Y-109049066D01*
X198150000Y-73999000D02*
G75*
G03*
X197150000Y-74999066I-100J-999900D01*
G01*
X212149000Y-109049000D02*
G75*
G03*
X213149000Y-108049066I-100J1000100D01*
G01*
X160073008Y-128100150D02*
X174072008Y-128100150D01*
X178098500Y-75001084D02*
X178098500Y-89001084D01*
X193122008Y-93050450D02*
X179123008Y-93050450D01*
X217199500Y-89999066D02*
X217200000Y-89999066D01*
X198150000Y-89999066D02*
X212149000Y-89999066D01*
X217223008Y-74000450D02*
X217222494Y-74000450D01*
X213148934Y-113099366D02*
G75*
G03*
X212149000Y-112099366I-1000034J-34D01*
G01*
X140999500Y-131151400D02*
G75*
G03*
X139999500Y-132151384I0J-1000000D01*
G01*
X194122008Y-108050150D02*
X194122008Y-94050450D01*
X174072508Y-147150108D02*
G75*
G03*
X175072508Y-146150150I-8J1000008D01*
G01*
X231198944Y-93049166D02*
X217200000Y-93049366D01*
X190191108Y-169057708D02*
G75*
G03*
X191191108Y-168057750I-108J1000108D01*
G01*
X179100000Y-147149066D02*
X193099000Y-147149066D01*
X197149500Y-75001084D02*
X197149500Y-89001084D01*
X160073008Y-74000108D02*
G75*
G03*
X159073008Y-75000150I-8J-999992D01*
G01*
X200073608Y-169057750D02*
X214072108Y-169057750D01*
X213148500Y-127101084D02*
X213148500Y-113101384D01*
X175072008Y-89000150D02*
X175072008Y-75000150D01*
X213149000Y-94049366D02*
X213149000Y-94049266D01*
X178123050Y-127100150D02*
G75*
G03*
X179123008Y-128100150I999850J-150D01*
G01*
X231221952Y-93050250D02*
X217223008Y-93050450D01*
X179123008Y-128100150D02*
X193122008Y-128100150D01*
X231198444Y-74001184D02*
X217199500Y-74001384D01*
X160050000Y-147151084D02*
X174048500Y-147151084D01*
X193098000Y-73999066D02*
X179099000Y-73999066D01*
X175049016Y-132151284D02*
G75*
G03*
X174048986Y-131151184I-1000016J84D01*
G01*
X154999000Y-89999100D02*
G75*
G03*
X155999000Y-88999066I0J1000000D01*
G01*
X155998516Y-94051384D02*
G75*
G03*
X154998515Y-93051384I-1000016J-16D01*
G01*
X190167600Y-169058700D02*
G75*
G03*
X191167600Y-168058684I100J999900D01*
G01*
X212149000Y-112099366D02*
X198150000Y-112099366D01*
X178099516Y-108051084D02*
G75*
G03*
X179099500Y-109051084I999984J-16D01*
G01*
X193098500Y-109051100D02*
G75*
G03*
X194098500Y-108051084I100J999900D01*
G01*
X212149000Y-131149366D02*
X198150000Y-131149366D01*
X197150000Y-113099366D02*
X197150000Y-127099066D01*
X179099500Y-109051084D02*
X193098500Y-109051084D01*
X141023008Y-128100150D02*
X155022008Y-128100150D01*
X174049444Y-131149166D02*
X160050500Y-131149366D01*
X197150000Y-132149366D02*
X197150000Y-146149066D01*
X232199000Y-146149066D02*
X232199000Y-132149366D01*
X140999500Y-112101400D02*
G75*
G03*
X139999500Y-113101384I0J-1000000D01*
G01*
X217222494Y-131150408D02*
G75*
G03*
X216222508Y-132150450I-94J-999892D01*
G01*
X174072008Y-112100450D02*
X160073008Y-112100450D01*
X163414579Y-155007456D02*
G75*
G03*
X162189878Y-154300342I-965879J-258744D01*
G01*
X232222008Y-94050450D02*
X232222008Y-94050350D01*
X198173008Y-131150408D02*
G75*
G03*
X197173008Y-132150450I-108J-999892D01*
G01*
X179123008Y-109050150D02*
X193122008Y-109050150D01*
X159049934Y-108049066D02*
G75*
G03*
X160050000Y-109049066I1000066J66D01*
G01*
X193099000Y-112099366D02*
X179100000Y-112099366D01*
X175072050Y-94050450D02*
G75*
G03*
X174072008Y-93050450I-1000150J-150D01*
G01*
X154999000Y-112099366D02*
X141000000Y-112099366D01*
X160049500Y-90001084D02*
X174048500Y-90001084D01*
X198172508Y-109050150D02*
X198173008Y-109050150D01*
X197173050Y-89000150D02*
G75*
G03*
X198173008Y-90000150I999850J-150D01*
G01*
X193098500Y-112101384D02*
X179099500Y-112101384D01*
X232199000Y-74999366D02*
X232199000Y-74999266D01*
X175048516Y-94051384D02*
G75*
G03*
X174048500Y-93051384I-1000016J-16D01*
G01*
X232198516Y-132151284D02*
G75*
G03*
X231198486Y-131151184I-1000016J84D01*
G01*
X217222508Y-90000150D02*
X217223008Y-90000150D01*
X212148500Y-109051100D02*
G75*
G03*
X213148500Y-108051084I100J999900D01*
G01*
X191167616Y-154059184D02*
G75*
G03*
X190167600Y-153059184I-1000016J-16D01*
G01*
X214049100Y-169058700D02*
G75*
G03*
X215049100Y-168058684I100J999900D01*
G01*
X214072552Y-153057850D02*
X200073608Y-153058050D01*
X217199500Y-147149066D02*
X217200000Y-147149066D01*
X198173008Y-147150150D02*
X212172008Y-147150150D01*
X175192150Y-168057750D02*
G75*
G03*
X176192108Y-169057750I999850J-150D01*
G01*
X212172008Y-147150108D02*
G75*
G03*
X213172008Y-146150150I-108J1000108D01*
G01*
X193121008Y-74000150D02*
X179122008Y-74000150D01*
X216199500Y-132149366D02*
X216199500Y-146149066D01*
X179099500Y-128101084D02*
X193098500Y-128101084D01*
X155998500Y-89001084D02*
X155998500Y-75001084D01*
X193098500Y-147151100D02*
G75*
G03*
X194098500Y-146151084I100J999900D01*
G01*
X199049616Y-168058684D02*
G75*
G03*
X200049600Y-169058684I999984J-16D01*
G01*
X212148500Y-128101100D02*
G75*
G03*
X213148500Y-127101084I100J999900D01*
G01*
X140000034Y-146149066D02*
G75*
G03*
X141000000Y-147149066I999966J-34D01*
G01*
X198149500Y-93051384D02*
X198148986Y-93051384D01*
X179123008Y-93050408D02*
G75*
G03*
X178123008Y-94050450I-8J-999992D01*
G01*
X175048500Y-127101084D02*
X175048500Y-113101384D01*
X213149000Y-108049066D02*
X213149000Y-94049366D01*
X159050000Y-94049366D02*
X159050000Y-108049066D01*
X174048500Y-128101100D02*
G75*
G03*
X175048500Y-127101084I0J1000000D01*
G01*
X217200000Y-89999066D02*
X231198500Y-89999066D01*
X231221508Y-128100150D02*
X231222008Y-128100150D01*
X140000000Y-94049366D02*
X140000000Y-108049066D01*
X198173008Y-109050150D02*
X212171508Y-109050150D01*
X231221952Y-74000250D02*
X217223008Y-74000450D01*
X217222508Y-128100150D02*
X217223008Y-128100150D01*
X175048516Y-75001084D02*
G75*
G03*
X174048500Y-74001084I-1000016J-16D01*
G01*
X215049534Y-154056866D02*
G75*
G03*
X214049586Y-153056766I-1000034J66D01*
G01*
X140023008Y-113100450D02*
X140023008Y-127100150D01*
X216199000Y-94051384D02*
X216199000Y-108051084D01*
X178099000Y-74999066D02*
X178099000Y-88999066D01*
X160049500Y-112101400D02*
G75*
G03*
X159049500Y-113101384I0J-1000000D01*
G01*
X140999500Y-74001100D02*
G75*
G03*
X139999500Y-75001084I0J-1000000D01*
G01*
X140000000Y-132149366D02*
X140000000Y-146149066D01*
X217222494Y-93050408D02*
G75*
G03*
X216222508Y-94050450I-94J-999892D01*
G01*
X178122008Y-75000150D02*
X178122008Y-89000150D01*
X174049500Y-147149000D02*
G75*
G03*
X175049500Y-146149066I-100J1000100D01*
G01*
X216199434Y-108049066D02*
G75*
G03*
X217199500Y-109049066I999966J-34D01*
G01*
X217200000Y-131149366D02*
X217199486Y-131149366D01*
X231199000Y-112099366D02*
X231198500Y-112099366D01*
X191167600Y-168058684D02*
X191167600Y-154059184D01*
X197149000Y-94051384D02*
X197149000Y-108051084D01*
X212148500Y-112101384D02*
X198149500Y-112101384D01*
X231198444Y-131151184D02*
X217199500Y-131151384D01*
X212172008Y-90000108D02*
G75*
G03*
X213172008Y-89000150I-108J1000108D01*
G01*
X175168600Y-154059184D02*
X175168600Y-168058684D01*
X140000000Y-94049166D02*
X140000000Y-94049366D01*
X174072494Y-131150250D02*
X174072452Y-131150250D01*
X175049500Y-146149066D02*
X175049500Y-132149366D01*
X232198516Y-113101384D02*
G75*
G03*
X231198500Y-112101384I-1000016J-16D01*
G01*
X174049000Y-147151100D02*
G75*
G03*
X175049000Y-146151084I0J1000000D01*
G01*
X232222050Y-75000350D02*
G75*
G03*
X231221994Y-74000250I-1000150J-50D01*
G01*
X232198500Y-94051384D02*
X232198500Y-94051284D01*
X198173008Y-90000150D02*
X212172008Y-90000150D01*
X215049600Y-168056666D02*
X215049600Y-154056966D01*
X160049500Y-147151084D02*
X160050000Y-147151084D01*
X179123008Y-147150150D02*
X193122008Y-147150150D01*
X176192108Y-169057750D02*
X190191108Y-169057750D01*
X232198934Y-94049266D02*
G75*
G03*
X231198986Y-93049166I-1000034J66D01*
G01*
X156022008Y-89000150D02*
X156022008Y-75000150D01*
X178123050Y-108050150D02*
G75*
G03*
X179123008Y-109050150I999850J-150D01*
G01*
X216222550Y-108050150D02*
G75*
G03*
X217222508Y-109050150I999850J-150D01*
G01*
X216199000Y-132151384D02*
X216199000Y-146151084D01*
X217199500Y-93051384D02*
X217198986Y-93051384D01*
X231198000Y-128101084D02*
X231198500Y-128101084D01*
X231222008Y-112100450D02*
X231221508Y-112100450D01*
X213148500Y-108051084D02*
X213148500Y-94051384D01*
X197149500Y-94049366D02*
X197149500Y-108049066D01*
X141023008Y-131150408D02*
G75*
G03*
X140023008Y-132150450I-8J-999992D01*
G01*
X159050000Y-74999066D02*
X159050000Y-88999066D01*
X154999000Y-147149100D02*
G75*
G03*
X155999000Y-146149066I0J1000000D01*
G01*
X154998515Y-93051384D02*
X140999515Y-93051184D01*
X232198934Y-74999266D02*
G75*
G03*
X231198986Y-73999166I-1000034J66D01*
G01*
X200050100Y-153058984D02*
X200049586Y-153058984D01*
X213172008Y-94050450D02*
X213172008Y-94050350D01*
X174072008Y-147150150D02*
X174072508Y-147150150D01*
X155999000Y-108049066D02*
X155999000Y-94049366D01*
X193099000Y-147149000D02*
G75*
G03*
X194099000Y-146149066I-100J1000100D01*
G01*
X140999515Y-93051200D02*
G75*
G03*
X139999500Y-94051184I-15J-1000000D01*
G01*
X178099500Y-113101384D02*
X178099500Y-127101084D01*
X216199434Y-88999066D02*
G75*
G03*
X217199500Y-89999066I999966J-34D01*
G01*
X231199000Y-109049000D02*
G75*
G03*
X232199000Y-108049066I-100J1000100D01*
G01*
X191191150Y-154058250D02*
G75*
G03*
X190191108Y-153058250I-1000150J-150D01*
G01*
X200073094Y-153058008D02*
G75*
G03*
X199073108Y-154058050I-94J-999892D01*
G01*
X197149516Y-89001084D02*
G75*
G03*
X198149500Y-90001084I999984J-16D01*
G01*
X140023008Y-132150450D02*
X140023008Y-146150150D01*
X193099000Y-128099000D02*
G75*
G03*
X194099000Y-127099066I-100J1000100D01*
G01*
X232222008Y-108050150D02*
X232222008Y-94050450D01*
X216199016Y-146151084D02*
G75*
G03*
X217199000Y-147151084I999984J-16D01*
G01*
X156021950Y-75000150D02*
G75*
G03*
X155022008Y-74000150I-999950J50D01*
G01*
X197149434Y-108049066D02*
G75*
G03*
X198149500Y-109049066I999966J-34D01*
G01*
X197172508Y-94050450D02*
X197172508Y-108050150D01*
X231221994Y-93050250D02*
X231221952Y-93050250D01*
X231198486Y-131151184D02*
X231198444Y-131151184D01*
X213172050Y-132150450D02*
G75*
G03*
X212172008Y-131150450I-1000150J-150D01*
G01*
X174049000Y-128099000D02*
G75*
G03*
X175049000Y-127099066I-100J1000100D01*
G01*
X213148934Y-132149366D02*
G75*
G03*
X212149000Y-131149366I-1000034J-34D01*
G01*
X212172008Y-128100108D02*
G75*
G03*
X213172008Y-127100150I-108J1000108D01*
G01*
X231198500Y-112099366D02*
X217200000Y-112099366D01*
X217199500Y-112099300D02*
G75*
G03*
X216199500Y-113099366I-100J-999900D01*
G01*
X212172008Y-74000150D02*
X198173008Y-74000150D01*
X160073008Y-90000150D02*
X174072008Y-90000150D01*
X179098500Y-90001084D02*
X193097500Y-90001084D01*
X215049100Y-168058684D02*
X215049100Y-154058984D01*
X140023050Y-89000150D02*
G75*
G03*
X141023008Y-90000150I999950J-50D01*
G01*
X179100000Y-93049300D02*
G75*
G03*
X178100000Y-94049366I-100J-999900D01*
G01*
X217199486Y-73999300D02*
G75*
G03*
X216199500Y-74999366I-86J-999900D01*
G01*
X217200000Y-73999366D02*
X217199486Y-73999366D01*
X197149500Y-113101384D02*
X197149500Y-127101084D01*
X194098934Y-94049366D02*
G75*
G03*
X193099000Y-93049366I-1000034J-34D01*
G01*
X139999500Y-94051184D02*
X139999500Y-94051384D01*
X155998500Y-127101084D02*
X155998500Y-113101384D01*
X140000034Y-127099066D02*
G75*
G03*
X141000000Y-128099066I999966J-34D01*
G01*
X179100000Y-109049066D02*
X193099000Y-109049066D01*
X198149500Y-112101400D02*
G75*
G03*
X197149500Y-113101384I100J-1000100D01*
G01*
X198150000Y-128099066D02*
X212149000Y-128099066D01*
X216199500Y-74999366D02*
X216199500Y-88999066D01*
X198150000Y-147149066D02*
X212149000Y-147149066D01*
X214072608Y-169057708D02*
G75*
G03*
X215072608Y-168057750I-108J1000108D01*
G01*
X141000000Y-147149066D02*
X154999000Y-147149066D01*
X160050000Y-73999100D02*
G75*
G03*
X159050000Y-74999066I0J-1000000D01*
G01*
X175049500Y-132149366D02*
X175049500Y-132149266D01*
X178100000Y-113099366D02*
X178100000Y-127099066D01*
X215072650Y-154057950D02*
G75*
G03*
X214072594Y-153057850I-1000150J-50D01*
G01*
X198150000Y-93049366D02*
X198149486Y-93049366D01*
X160050000Y-147149066D02*
X160050500Y-147149066D01*
X175192108Y-154058250D02*
X175192108Y-168057750D01*
X198149500Y-109051084D02*
X212148000Y-109051084D01*
X216199016Y-89001084D02*
G75*
G03*
X217199000Y-90001084I999984J-16D01*
G01*
X215049100Y-154058984D02*
X215049100Y-154058884D01*
X159049516Y-108051084D02*
G75*
G03*
X160049500Y-109051084I999984J-16D01*
G01*
X217199000Y-147151084D02*
X217199500Y-147151084D01*
X217199486Y-93049300D02*
G75*
G03*
X216199500Y-94049366I-86J-999900D01*
G01*
X155022008Y-147150108D02*
G75*
G03*
X156022008Y-146150150I-8J1000008D01*
G01*
X217223008Y-131150450D02*
X217222494Y-131150450D01*
X194122008Y-127100150D02*
X194122008Y-113100450D01*
X178099934Y-127099066D02*
G75*
G03*
X179100000Y-128099066I999966J-34D01*
G01*
X160050000Y-109049066D02*
X174049000Y-109049066D01*
X212171952Y-93050250D02*
X198173008Y-93050450D01*
X147982882Y-159149667D02*
X151606182Y-172672167D01*
X194098000Y-88999066D02*
X194098000Y-74999066D01*
X148666483Y-157925879D02*
G75*
G03*
X147959374Y-159150601I258817J-965921D01*
G01*
X174048500Y-112101384D02*
X160049500Y-112101384D01*
X194121050Y-75000150D02*
G75*
G03*
X193121008Y-74000150I-1000150J-150D01*
G01*
X178099500Y-94051384D02*
X178099500Y-108051084D01*
X200050600Y-153056966D02*
X200050086Y-153056966D01*
X232198500Y-89001084D02*
X232198500Y-75001384D01*
X199050100Y-154056966D02*
X199050100Y-168056666D01*
X152807421Y-173380210D02*
X166330421Y-169756710D01*
X179099500Y-131151400D02*
G75*
G03*
X178099500Y-132151384I0J-1000000D01*
G01*
X231198486Y-74001184D02*
X231198444Y-74001184D01*
X232222050Y-113100450D02*
G75*
G03*
X231222008Y-112100450I-1000150J-150D01*
G01*
X197150000Y-74999066D02*
X197150000Y-88999066D01*
X159049934Y-146149066D02*
G75*
G03*
X160050000Y-147149066I1000066J66D01*
G01*
X217223008Y-128100150D02*
X231221508Y-128100150D01*
X197149516Y-146151084D02*
G75*
G03*
X198149500Y-147151084I999984J-16D01*
G01*
X232199000Y-127099066D02*
X232199000Y-113099366D01*
X231198986Y-131149166D02*
X231198944Y-131149166D01*
X160072994Y-131150408D02*
G75*
G03*
X159073008Y-132150450I6J-999992D01*
G01*
X232222008Y-75000450D02*
X232222008Y-75000350D01*
X199073108Y-154058050D02*
X199073108Y-168057750D01*
X160049500Y-93051400D02*
G75*
G03*
X159049500Y-94051384I0J-1000000D01*
G01*
X174049000Y-73999066D02*
X160050000Y-73999066D01*
X140023008Y-94050450D02*
X140023008Y-108050150D01*
X178099500Y-132151384D02*
X178099500Y-146151084D01*
X215072608Y-168057750D02*
X215072608Y-154058050D01*
X139999500Y-75001084D02*
X139999500Y-89001084D01*
X176168600Y-169058684D02*
X190167600Y-169058684D01*
X231198000Y-90001084D02*
X231198500Y-90001084D01*
X160073508Y-131150450D02*
X160072994Y-131150450D01*
X174048500Y-109051100D02*
G75*
G03*
X175048500Y-108051084I0J1000000D01*
G01*
X194098516Y-132151384D02*
G75*
G03*
X193098500Y-131151384I-1000016J-16D01*
G01*
X175049434Y-132149266D02*
G75*
G03*
X174049486Y-131149166I-1000034J66D01*
G01*
X214048600Y-169058684D02*
X214049100Y-169058684D01*
X197149934Y-88999066D02*
G75*
G03*
X198150000Y-89999066I999966J-34D01*
G01*
X154998500Y-147151100D02*
G75*
G03*
X155998500Y-146151084I0J1000000D01*
G01*
X198172494Y-93050408D02*
G75*
G03*
X197172508Y-94050450I-94J-999892D01*
G01*
X179099500Y-93051400D02*
G75*
G03*
X178099500Y-94051384I0J-1000000D01*
G01*
X147959874Y-159148583D02*
X151583174Y-172671083D01*
X214049600Y-169056600D02*
G75*
G03*
X215049600Y-168056666I-100J1000100D01*
G01*
X231221952Y-131150250D02*
X217223008Y-131150450D01*
X231198500Y-89999066D02*
X231199000Y-89999066D01*
X199049600Y-154058984D02*
X199049600Y-168058684D01*
X160073008Y-109050150D02*
X174072008Y-109050150D01*
X160050500Y-147149066D02*
X174049000Y-147149066D01*
X212171994Y-93050250D02*
X212171952Y-93050250D01*
X159073008Y-94050450D02*
X159073008Y-108050150D01*
X193122008Y-131150450D02*
X179123008Y-131150450D01*
X232222008Y-127100150D02*
X232222008Y-113100450D01*
X217199500Y-112101384D02*
X217199000Y-112101384D01*
X231199000Y-89999000D02*
G75*
G03*
X232199000Y-88999066I-100J1000100D01*
G01*
X200073108Y-169057750D02*
X200073608Y-169057750D01*
X155998500Y-108051084D02*
X155998500Y-94051384D01*
X175049000Y-127099066D02*
X175049000Y-113099366D01*
X231198444Y-93051184D02*
X217199500Y-93051384D01*
X212172008Y-131150450D02*
X198173008Y-131150450D01*
X198149500Y-90001084D02*
X212148500Y-90001084D01*
X194122008Y-146150150D02*
X194122008Y-132150450D01*
X178099934Y-146149066D02*
G75*
G03*
X179100000Y-147149066I999966J-34D01*
G01*
X212149000Y-128099000D02*
G75*
G03*
X213149000Y-127099066I-100J1000100D01*
G01*
X212172008Y-109050108D02*
G75*
G03*
X213172008Y-108050150I-108J1000108D01*
G01*
X232199000Y-108049066D02*
X232199000Y-94049366D01*
X155998934Y-94049366D02*
G75*
G03*
X154999015Y-93049366I-999934J66D01*
G01*
X178098934Y-88999066D02*
G75*
G03*
X179099000Y-89999066I999966J-34D01*
G01*
X175072508Y-132150450D02*
X175072508Y-132150350D01*
X217199000Y-128101084D02*
X217199500Y-128101084D01*
X217198986Y-74001400D02*
G75*
G03*
X216199000Y-75001384I114J-1000100D01*
G01*
X212148486Y-93051184D02*
X212148444Y-93051184D01*
X162189878Y-154300342D02*
X148666978Y-157923842D01*
X139999516Y-127101084D02*
G75*
G03*
X140999500Y-128101084I999984J-16D01*
G01*
X160049500Y-128101084D02*
X174048500Y-128101084D01*
X155998934Y-132149366D02*
G75*
G03*
X154999000Y-131149366I-999934J66D01*
G01*
X213172050Y-94050350D02*
G75*
G03*
X212171994Y-93050250I-1000150J-50D01*
G01*
X217199500Y-131151384D02*
X217198986Y-131151384D01*
X174072008Y-109050108D02*
G75*
G03*
X175072008Y-108050150I-8J1000008D01*
G01*
X147959374Y-159150601D02*
X151582674Y-172673101D01*
X231198986Y-93049166D02*
X231198944Y-93049166D01*
X174049000Y-112099366D02*
X160050000Y-112099366D01*
X175169100Y-154057166D02*
X175169100Y-168056666D01*
X193122008Y-112100450D02*
X179123008Y-112100450D01*
X178099516Y-146151084D02*
G75*
G03*
X179099500Y-147151084I999984J-16D01*
G01*
X155998500Y-146151084D02*
X155998500Y-132151384D01*
X217199500Y-90001084D02*
X231198000Y-90001084D01*
X232198500Y-75001384D02*
X232198500Y-75001284D01*
X178123008Y-113100450D02*
X178123008Y-127100150D01*
X155022008Y-74000150D02*
X141023008Y-74000150D01*
X213149000Y-127099066D02*
X213149000Y-113099366D01*
X232222050Y-132150350D02*
G75*
G03*
X231221994Y-131150250I-1000150J-50D01*
G01*
X140000034Y-108049066D02*
G75*
G03*
X141000000Y-109049066I999966J-34D01*
G01*
X213148516Y-132151384D02*
G75*
G03*
X212148500Y-131151384I-1000016J-16D01*
G01*
X167061033Y-168531028D02*
X163437633Y-155008528D01*
X198150000Y-109049066D02*
X212148500Y-109049066D01*
X154998500Y-128101100D02*
G75*
G03*
X155998500Y-127101084I0J1000000D01*
G01*
X175048934Y-94049366D02*
G75*
G03*
X174049000Y-93049366I-1000034J-34D01*
G01*
X140000034Y-88999066D02*
G75*
G03*
X141000000Y-89999066I999966J-34D01*
G01*
X174048500Y-74001084D02*
X160049500Y-74001084D01*
X154998500Y-109051100D02*
G75*
G03*
X155998500Y-108051084I0J1000000D01*
G01*
X179099500Y-112101400D02*
G75*
G03*
X178099500Y-113101384I0J-1000000D01*
G01*
X175048500Y-89001084D02*
X175048500Y-75001084D01*
X140023050Y-146150150D02*
G75*
G03*
X141023008Y-147150150I999950J-50D01*
G01*
X160049986Y-131149400D02*
G75*
G03*
X159050000Y-132149366I14J-1000000D01*
G01*
X174049000Y-93049366D02*
X160050000Y-93049366D01*
X141000000Y-73999000D02*
G75*
G03*
X140000000Y-74999066I0J-1000000D01*
G01*
X193122008Y-147150108D02*
G75*
G03*
X194122008Y-146150150I-108J1000108D01*
G01*
X217222494Y-74000408D02*
G75*
G03*
X216222508Y-75000450I-94J-999892D01*
G01*
X217200000Y-147149066D02*
X231198500Y-147149066D01*
X160073008Y-112100408D02*
G75*
G03*
X159073008Y-113100450I-8J-999992D01*
G01*
X156021950Y-113100450D02*
G75*
G03*
X155022008Y-112100450I-999950J50D01*
G01*
X194099000Y-108049066D02*
X194099000Y-94049366D01*
X198149486Y-93049300D02*
G75*
G03*
X197149500Y-94049366I-86J-999900D01*
G01*
X155022008Y-112100450D02*
X141023008Y-112100450D01*
X167038025Y-168529944D02*
X163414625Y-155007444D01*
X159072950Y-89000150D02*
G75*
G03*
X160073008Y-90000150I1000050J50D01*
G01*
X159049934Y-127099066D02*
G75*
G03*
X160050000Y-128099066I1000066J66D01*
G01*
X200050600Y-169056666D02*
X214049100Y-169056666D01*
X154999000Y-128099100D02*
G75*
G03*
X155999000Y-127099066I0J1000000D01*
G01*
X213148500Y-146151084D02*
X213148500Y-132151384D01*
X155999000Y-146149066D02*
X155999000Y-132149366D01*
X141000000Y-131149300D02*
G75*
G03*
X140000000Y-132149366I0J-1000000D01*
G01*
X212148986Y-93049166D02*
X212148944Y-93049166D01*
X163414135Y-155009459D02*
G75*
G03*
X162189378Y-154302360I-965935J-258841D01*
G01*
X179099000Y-89999066D02*
X193098000Y-89999066D01*
X178099516Y-127101084D02*
G75*
G03*
X179099500Y-128101084I999984J-16D01*
G01*
X216222550Y-89000150D02*
G75*
G03*
X217222508Y-90000150I999850J-150D01*
G01*
X179122008Y-74000108D02*
G75*
G03*
X178122008Y-75000150I-8J-999992D01*
G01*
X217199000Y-109051084D02*
X217199500Y-109051084D01*
X148689972Y-157924873D02*
G75*
G03*
X147982883Y-159149667I258828J-965927D01*
G01*
X193097500Y-90001100D02*
G75*
G03*
X194097500Y-89001084I100J999900D01*
G01*
X217223008Y-109050150D02*
X231221508Y-109050150D01*
X212148500Y-131151384D02*
X198149500Y-131151384D01*
X213172050Y-113100450D02*
G75*
G03*
X212172008Y-112100450I-1000150J-150D01*
G01*
X197173050Y-146150150D02*
G75*
G03*
X198173008Y-147150150I999850J-150D01*
G01*
X217222508Y-112100408D02*
G75*
G03*
X216222508Y-113100450I-108J-999892D01*
G01*
X160073008Y-147150150D02*
X160073508Y-147150150D01*
X194098934Y-132149366D02*
G75*
G03*
X193099000Y-131149366I-1000034J-34D01*
G01*
X175072508Y-146150150D02*
X175072508Y-132150450D01*
X166330931Y-169754731D02*
G75*
G03*
X167038024Y-168529944I-258831J965931D01*
G01*
X175072050Y-75000150D02*
G75*
G03*
X174072008Y-74000150I-1000150J-150D01*
G01*
X232198500Y-146151084D02*
X232198500Y-132151384D01*
X232198500Y-127101084D02*
X232198500Y-113101384D01*
X214072594Y-153057850D02*
X214072552Y-153057850D01*
X215049116Y-154058884D02*
G75*
G03*
X214049086Y-153058784I-1000016J84D01*
G01*
X155022023Y-93050450D02*
X141023023Y-93050250D01*
X216222508Y-113100450D02*
X216222508Y-127100150D01*
X213148934Y-94049266D02*
G75*
G03*
X212148986Y-93049166I-1000034J66D01*
G01*
X232198500Y-108051084D02*
X232198500Y-94051384D01*
X141023008Y-90000150D02*
X155022008Y-90000150D01*
X213148500Y-89001084D02*
X213148500Y-75001084D01*
X174048500Y-90001100D02*
G75*
G03*
X175048500Y-89001084I0J1000000D01*
G01*
X154999000Y-109049100D02*
G75*
G03*
X155999000Y-108049066I0J1000000D01*
G01*
X197173050Y-127100150D02*
G75*
G03*
X198173008Y-128100150I999850J-150D01*
G01*
X190168100Y-169056600D02*
G75*
G03*
X191168100Y-168056666I-100J1000100D01*
G01*
X155022008Y-128100108D02*
G75*
G03*
X156022008Y-127100150I-8J1000008D01*
G01*
X213172050Y-75000150D02*
G75*
G03*
X212172008Y-74000150I-1000150J-150D01*
G01*
X194098516Y-113101384D02*
G75*
G03*
X193098500Y-112101384I-1000016J-16D01*
G01*
X194097934Y-74999066D02*
G75*
G03*
X193098000Y-73999066I-1000034J-34D01*
G01*
X232222050Y-94050350D02*
G75*
G03*
X231221994Y-93050250I-1000150J-50D01*
G01*
X174072008Y-128100108D02*
G75*
G03*
X175072008Y-127100150I-8J1000008D01*
G01*
X174049000Y-147149066D02*
X174049500Y-147149066D01*
X155998516Y-113101384D02*
G75*
G03*
X154998500Y-112101384I-1000016J-16D01*
G01*
X152830929Y-173379276D02*
X166353929Y-169755776D01*
X217223008Y-90000150D02*
X231221508Y-90000150D01*
X141023023Y-93050308D02*
G75*
G03*
X140023008Y-94050250I-23J-999992D01*
G01*
X141023008Y-74000108D02*
G75*
G03*
X140023008Y-75000150I-8J-999992D01*
G01*
X194098500Y-127101084D02*
X194098500Y-113101384D01*
X231198986Y-73999166D02*
X231198944Y-73999166D01*
X199050034Y-168056666D02*
G75*
G03*
X200050100Y-169056666I999966J-34D01*
G01*
X141000000Y-112099300D02*
G75*
G03*
X140000000Y-113099366I0J-1000000D01*
G01*
X231198500Y-128099066D02*
X231199000Y-128099066D01*
X155998516Y-75001084D02*
G75*
G03*
X154998500Y-74001084I-1000016J-16D01*
G01*
X193098500Y-128101100D02*
G75*
G03*
X194098500Y-127101084I100J999900D01*
G01*
X232199000Y-94049366D02*
X232199000Y-94049266D01*
X212148944Y-93049166D02*
X198150000Y-93049366D01*
X176169100Y-169056666D02*
X190168100Y-169056666D01*
X160050500Y-131149366D02*
X160049986Y-131149366D01*
X155998934Y-74999066D02*
G75*
G03*
X154999000Y-73999066I-999934J66D01*
G01*
X232199000Y-88999066D02*
X232199000Y-74999366D01*
X216199016Y-127101084D02*
G75*
G03*
X217199000Y-128101084I999984J-16D01*
G01*
X175048934Y-113099366D02*
G75*
G03*
X174049000Y-112099366I-1000034J-34D01*
G01*
X231198000Y-112101384D02*
X217199500Y-112101384D01*
X160073008Y-93050408D02*
G75*
G03*
X159073008Y-94050450I-8J-999992D01*
G01*
X140023050Y-108050150D02*
G75*
G03*
X141023008Y-109050150I999950J-50D01*
G01*
X194097516Y-75001084D02*
G75*
G03*
X193097500Y-74001084I-1000016J-16D01*
G01*
X200050100Y-169058684D02*
X214048600Y-169058684D01*
X217199500Y-128099066D02*
X217200000Y-128099066D01*
X159073008Y-75000150D02*
X159073008Y-89000150D01*
X217200000Y-112099366D02*
X217199500Y-112099366D01*
X217199500Y-147151084D02*
X231198000Y-147151084D01*
X217199000Y-112101400D02*
G75*
G03*
X216199000Y-113101384I100J-1000100D01*
G01*
X231198486Y-93051184D02*
X231198444Y-93051184D01*
X156022008Y-127100150D02*
X156022008Y-113100450D01*
X159049500Y-113101384D02*
X159049500Y-127101084D01*
X179100000Y-131149300D02*
G75*
G03*
X178100000Y-132149366I-100J-999900D01*
G01*
X156022008Y-146150150D02*
X156022008Y-132150450D01*
D11*
%TO.C,H7*%
X107976992Y-195598916D03*
D12*
X107976992Y-195598916D03*
%TD*%
D11*
%TO.C,H7*%
X143981992Y-70629716D03*
D12*
X143981992Y-70629716D03*
%TD*%
D11*
%TO.C,H7*%
X231198751Y-174083107D03*
D12*
X231198751Y-174083107D03*
%TD*%
D11*
%TO.C,H7*%
X231198751Y-67083107D03*
D12*
X231198751Y-67083107D03*
%TD*%
D11*
%TO.C,H7*%
X83976992Y-171598916D03*
D12*
X83976992Y-171598916D03*
%TD*%
M02*
