%TF.GenerationSoftware,KiCad,Pcbnew,7.0.7*%
%TF.CreationDate,2024-04-21T22:40:59+02:00*%
%TF.ProjectId,isokey_left_frame,69736f6b-6579-45f6-9c65-66745f667261,rev?*%
%TF.SameCoordinates,Original*%
%TF.FileFunction,Legend,Top*%
%TF.FilePolarity,Positive*%
%FSLAX46Y46*%
G04 Gerber Fmt 4.6, Leading zero omitted, Abs format (unit mm)*
G04 Created by KiCad (PCBNEW 7.0.7) date 2024-04-21 22:40:59*
%MOMM*%
%LPD*%
G01*
G04 APERTURE LIST*
%ADD10C,0.300000*%
%ADD11C,0.600000*%
%ADD12C,0.500000*%
%ADD13C,0.350000*%
G04 APERTURE END LIST*
D10*
G36*
X82185500Y-152213915D02*
G01*
X82199704Y-152220785D01*
X82211447Y-152230882D01*
X82215143Y-152235073D01*
X82319556Y-152361835D01*
X82327880Y-152374512D01*
X82333480Y-152388638D01*
X82336355Y-152404213D01*
X82336775Y-152413492D01*
X82336775Y-152672878D01*
X82335699Y-152687510D01*
X82331916Y-152702602D01*
X82325408Y-152716245D01*
X82319556Y-152724535D01*
X82218440Y-152851297D01*
X82206877Y-152862632D01*
X82193009Y-152870875D01*
X82178069Y-152874539D01*
X82173377Y-152874745D01*
X82011078Y-152874745D01*
X82319556Y-153258695D01*
X82327880Y-153271372D01*
X82333480Y-153285498D01*
X82336355Y-153301073D01*
X82336775Y-153310352D01*
X82336775Y-153389487D01*
X82213311Y-153389487D01*
X82213311Y-153352117D01*
X81834490Y-152874745D01*
X81727145Y-152874745D01*
X81727145Y-153389487D01*
X81602215Y-153389487D01*
X81602215Y-152361835D01*
X81727145Y-152361835D01*
X81727145Y-152724535D01*
X82145533Y-152724535D01*
X82211113Y-152643569D01*
X82211113Y-152445000D01*
X82143702Y-152361835D01*
X81727145Y-152361835D01*
X81602215Y-152361835D01*
X81602215Y-152211625D01*
X82170080Y-152211625D01*
X82185500Y-152213915D01*
G37*
G36*
X83009378Y-152469213D02*
G01*
X83022715Y-152475907D01*
X83034777Y-152487064D01*
X83040928Y-152495191D01*
X83140945Y-152625617D01*
X83150025Y-152638948D01*
X83155743Y-152654211D01*
X83158013Y-152669599D01*
X83158164Y-152675076D01*
X83158164Y-153007369D01*
X82639026Y-153007369D01*
X82639026Y-153158311D01*
X82706071Y-153245872D01*
X83162561Y-153245872D01*
X83162561Y-153387288D01*
X82680059Y-153387288D01*
X82665263Y-153385579D01*
X82651338Y-153379668D01*
X82640061Y-153369536D01*
X82637194Y-153365673D01*
X82530582Y-153240010D01*
X82522661Y-153227058D01*
X82518040Y-153212832D01*
X82515928Y-153198144D01*
X82515561Y-153187986D01*
X82515561Y-152853129D01*
X82641224Y-152853129D01*
X83036898Y-152853129D01*
X83036898Y-152704385D01*
X82969120Y-152619389D01*
X82710101Y-152619389D01*
X82641224Y-152706584D01*
X82641224Y-152853129D01*
X82515561Y-152853129D01*
X82515561Y-152677274D01*
X82517812Y-152662174D01*
X82523003Y-152648337D01*
X82530147Y-152634919D01*
X82534612Y-152627815D01*
X82638293Y-152494825D01*
X82648694Y-152483976D01*
X82660538Y-152474840D01*
X82675279Y-152468314D01*
X82685554Y-152466981D01*
X82994766Y-152466981D01*
X83009378Y-152469213D01*
G37*
G36*
X83558600Y-152655659D02*
G01*
X83804431Y-153167103D01*
X84054291Y-152649431D01*
X84054291Y-152469180D01*
X84180321Y-152469180D01*
X84180321Y-152668848D01*
X84179051Y-152683494D01*
X84175241Y-152698262D01*
X84172627Y-152705118D01*
X83859385Y-153355415D01*
X83851649Y-153368488D01*
X83841125Y-153380321D01*
X83827123Y-153389337D01*
X83811015Y-153393545D01*
X83804431Y-153393883D01*
X83789529Y-153392042D01*
X83774474Y-153385430D01*
X83763029Y-153375701D01*
X83753196Y-153362289D01*
X83749476Y-153355415D01*
X83440265Y-152711346D01*
X83435521Y-152696523D01*
X83433195Y-152681821D01*
X83432937Y-152675076D01*
X83432937Y-152469180D01*
X83558600Y-152469180D01*
X83558600Y-152655659D01*
G37*
G36*
X84558042Y-153131933D02*
G01*
X84784089Y-153131933D01*
X84784089Y-153389487D01*
X84558042Y-153389487D01*
X84558042Y-153131933D01*
G37*
G36*
X85652005Y-152213480D02*
G01*
X85666154Y-152219044D01*
X85678332Y-152228318D01*
X85684246Y-152235073D01*
X85990160Y-152619023D01*
X85998661Y-152632253D01*
X86003620Y-152646424D01*
X86006028Y-152662740D01*
X86006280Y-152670680D01*
X86006280Y-153391685D01*
X85880617Y-153391685D01*
X85880617Y-152980258D01*
X85396650Y-152980258D01*
X85396650Y-153391685D01*
X85271720Y-153391685D01*
X85271720Y-152838475D01*
X85397749Y-152838475D01*
X85880617Y-152838475D01*
X85880617Y-152700355D01*
X85638084Y-152398471D01*
X85397749Y-152698157D01*
X85397749Y-152838475D01*
X85271720Y-152838475D01*
X85271720Y-152666650D01*
X85273509Y-152652095D01*
X85278875Y-152636826D01*
X85286764Y-152622471D01*
X85290038Y-152617557D01*
X85593021Y-152235439D01*
X85603373Y-152223928D01*
X85616439Y-152215556D01*
X85631151Y-152211835D01*
X85635886Y-152211625D01*
X85652005Y-152213480D01*
G37*
G36*
X82093335Y-150468865D02*
G01*
X82106962Y-150474516D01*
X82118271Y-150483935D01*
X82123551Y-150490795D01*
X82223569Y-150617191D01*
X82232649Y-150630522D01*
X82238367Y-150645784D01*
X82240637Y-150661173D01*
X82240788Y-150666650D01*
X82240788Y-151243674D01*
X82345568Y-151243674D01*
X82345568Y-151389487D01*
X81759752Y-151389487D01*
X81744161Y-151387574D01*
X81729420Y-151380962D01*
X81718479Y-151370974D01*
X81714323Y-151365307D01*
X81615404Y-151235247D01*
X81607081Y-151223163D01*
X81601481Y-151209165D01*
X81598606Y-151193255D01*
X81598185Y-151183590D01*
X81598185Y-151156479D01*
X81721650Y-151156479D01*
X81787595Y-151243674D01*
X82115125Y-151243674D01*
X82115125Y-151001140D01*
X81788695Y-151001140D01*
X81721650Y-151086503D01*
X81721650Y-151156479D01*
X81598185Y-151156479D01*
X81598185Y-151056828D01*
X81599831Y-151040835D01*
X81604126Y-151026503D01*
X81611088Y-151012229D01*
X81615038Y-151005903D01*
X81715788Y-150876577D01*
X81726846Y-150866305D01*
X81740899Y-150858834D01*
X81756813Y-150855514D01*
X81761950Y-150855327D01*
X82115125Y-150855327D01*
X82115125Y-150695959D01*
X82051378Y-150614993D01*
X81696371Y-150614993D01*
X81696371Y-150466981D01*
X82077390Y-150466981D01*
X82093335Y-150468865D01*
G37*
G36*
X83030303Y-150702187D02*
G01*
X82961793Y-150617191D01*
X82710467Y-150617191D01*
X82670533Y-150667749D01*
X83139846Y-151126803D01*
X83149784Y-151138596D01*
X83156882Y-151151625D01*
X83161141Y-151165890D01*
X83162561Y-151181392D01*
X83161416Y-151197672D01*
X83157981Y-151212441D01*
X83151380Y-151227250D01*
X83144242Y-151237445D01*
X83036531Y-151368237D01*
X83025116Y-151379572D01*
X83011278Y-151387815D01*
X82996222Y-151391479D01*
X82991468Y-151391685D01*
X82683356Y-151391685D01*
X82667936Y-151389395D01*
X82653732Y-151382526D01*
X82641989Y-151372428D01*
X82638293Y-151368237D01*
X82532780Y-151241475D01*
X82524457Y-151228653D01*
X82518857Y-151214093D01*
X82515982Y-151197793D01*
X82515561Y-151187986D01*
X82515561Y-151116912D01*
X82641224Y-151116912D01*
X82641224Y-151156479D01*
X82710101Y-151241475D01*
X82965823Y-151241475D01*
X83006489Y-151190917D01*
X82539741Y-150734427D01*
X82529616Y-150722485D01*
X82522767Y-150707760D01*
X82518480Y-150691508D01*
X82516660Y-150679839D01*
X82516660Y-150671779D01*
X82517935Y-150656548D01*
X82522343Y-150641121D01*
X82529900Y-150627268D01*
X82532780Y-150623419D01*
X82635362Y-150490429D01*
X82646835Y-150479094D01*
X82659409Y-150471469D01*
X82674672Y-150467348D01*
X82681158Y-150466981D01*
X82988171Y-150466981D01*
X83003012Y-150469271D01*
X83016851Y-150476140D01*
X83028449Y-150486238D01*
X83032135Y-150490429D01*
X83138747Y-150618656D01*
X83147779Y-150631807D01*
X83153855Y-150646116D01*
X83156975Y-150661585D01*
X83157431Y-150670680D01*
X83157431Y-150750181D01*
X83030303Y-150750181D01*
X83030303Y-150702187D01*
G37*
G36*
X83865614Y-151219860D02*
G01*
X83882100Y-151241475D01*
X83971127Y-151241475D01*
X83971127Y-151391685D01*
X83854989Y-151391685D01*
X83840148Y-151389395D01*
X83826310Y-151382526D01*
X83814711Y-151372428D01*
X83811025Y-151368237D01*
X83758269Y-151302658D01*
X83749414Y-151289833D01*
X83743457Y-151275675D01*
X83740398Y-151260183D01*
X83739951Y-151251001D01*
X83739951Y-150619389D01*
X83528925Y-150619389D01*
X83528925Y-150466981D01*
X83739951Y-150466981D01*
X83739951Y-150080833D01*
X83865614Y-150080833D01*
X83865614Y-150466981D01*
X84075540Y-150466981D01*
X84075540Y-150619389D01*
X83865614Y-150619389D01*
X83865614Y-151219860D01*
G37*
G36*
X84844130Y-150469213D02*
G01*
X84857468Y-150475907D01*
X84869530Y-150487064D01*
X84875680Y-150495191D01*
X84975697Y-150625617D01*
X84984778Y-150638948D01*
X84990495Y-150654211D01*
X84992765Y-150669599D01*
X84992916Y-150675076D01*
X84992916Y-151007369D01*
X84473778Y-151007369D01*
X84473778Y-151158311D01*
X84540823Y-151245872D01*
X84997313Y-151245872D01*
X84997313Y-151387288D01*
X84514811Y-151387288D01*
X84500015Y-151385579D01*
X84486090Y-151379668D01*
X84474813Y-151369536D01*
X84471946Y-151365673D01*
X84365334Y-151240010D01*
X84357413Y-151227058D01*
X84352793Y-151212832D01*
X84350680Y-151198144D01*
X84350314Y-151187986D01*
X84350314Y-150853129D01*
X84475976Y-150853129D01*
X84871650Y-150853129D01*
X84871650Y-150704385D01*
X84803872Y-150619389D01*
X84544853Y-150619389D01*
X84475976Y-150706584D01*
X84475976Y-150853129D01*
X84350314Y-150853129D01*
X84350314Y-150677274D01*
X84352565Y-150662174D01*
X84357755Y-150648337D01*
X84364899Y-150634919D01*
X84369364Y-150627815D01*
X84473046Y-150494825D01*
X84483447Y-150483976D01*
X84495290Y-150474840D01*
X84510031Y-150468314D01*
X84520307Y-150466981D01*
X84829518Y-150466981D01*
X84844130Y-150469213D01*
G37*
G36*
X85476884Y-150826751D02*
G01*
X85476884Y-151389487D01*
X85353053Y-151389487D01*
X85353053Y-150672878D01*
X85351095Y-150658315D01*
X85345221Y-150643752D01*
X85339131Y-150634043D01*
X85327047Y-150624555D01*
X85312507Y-150619518D01*
X85309822Y-150619389D01*
X85267690Y-150619389D01*
X85267690Y-150466981D01*
X85362578Y-150466981D01*
X85378950Y-150469775D01*
X85394290Y-150476802D01*
X85408191Y-150486231D01*
X85420308Y-150496488D01*
X85432907Y-150508928D01*
X85435484Y-150511678D01*
X85445187Y-150522955D01*
X85455497Y-150537341D01*
X85463785Y-150552049D01*
X85470051Y-150567080D01*
X85474296Y-150582432D01*
X85476520Y-150598106D01*
X85476884Y-150607665D01*
X85476884Y-150614260D01*
X85573970Y-150492627D01*
X85584892Y-150481407D01*
X85597454Y-150472616D01*
X85611750Y-150467607D01*
X85619033Y-150466981D01*
X85743597Y-150466981D01*
X85759040Y-150468865D01*
X85773752Y-150475377D01*
X85784790Y-150485214D01*
X85789026Y-150490795D01*
X85896371Y-150619023D01*
X85905226Y-150632170D01*
X85911183Y-150646882D01*
X85914045Y-150661273D01*
X85914689Y-150672878D01*
X85914689Y-150747983D01*
X85789026Y-150747983D01*
X85789026Y-150702554D01*
X85717951Y-150619389D01*
X85646877Y-150619389D01*
X85476884Y-150826751D01*
G37*
G36*
X86492079Y-150080833D02*
G01*
X86618841Y-150080833D01*
X86618841Y-150233241D01*
X86492079Y-150233241D01*
X86492079Y-150080833D01*
G37*
G36*
X86492079Y-150466981D02*
G01*
X86618841Y-150466981D01*
X86618841Y-151391685D01*
X86492079Y-151391685D01*
X86492079Y-150466981D01*
G37*
G36*
X87473935Y-151037777D02*
G01*
X87221877Y-151345889D01*
X87221877Y-151393883D01*
X87096214Y-151393883D01*
X87096214Y-151314382D01*
X87097290Y-151299750D01*
X87101073Y-151284658D01*
X87107581Y-151271015D01*
X87113433Y-151262725D01*
X87384909Y-150930432D01*
X87113433Y-150595942D01*
X87105109Y-150583091D01*
X87099510Y-150568443D01*
X87096819Y-150553914D01*
X87096214Y-150542086D01*
X87096214Y-150466981D01*
X87221877Y-150466981D01*
X87221877Y-150516441D01*
X87473935Y-150821256D01*
X87725994Y-150516441D01*
X87725994Y-150466981D01*
X87851657Y-150466981D01*
X87851657Y-150542086D01*
X87850512Y-150557405D01*
X87846487Y-150573160D01*
X87839564Y-150587351D01*
X87833339Y-150595942D01*
X87560764Y-150928234D01*
X87833339Y-151262725D01*
X87842194Y-151275698D01*
X87848151Y-151289888D01*
X87851210Y-151305296D01*
X87851657Y-151314382D01*
X87851657Y-151393883D01*
X87725994Y-151393883D01*
X87725994Y-151345889D01*
X87473935Y-151037777D01*
G37*
G36*
X88148778Y-150490429D02*
G01*
X88023848Y-150490429D01*
X88023848Y-150411294D01*
X88025326Y-150395803D01*
X88029760Y-150381065D01*
X88037150Y-150367080D01*
X88042533Y-150359637D01*
X88249162Y-150102083D01*
X88260577Y-150090748D01*
X88274416Y-150082505D01*
X88289471Y-150078841D01*
X88294225Y-150078635D01*
X88591713Y-150078635D01*
X88607763Y-150080925D01*
X88622024Y-150087794D01*
X88633329Y-150097892D01*
X88636775Y-150102083D01*
X88741189Y-150231043D01*
X88749513Y-150243720D01*
X88755113Y-150257846D01*
X88757988Y-150273421D01*
X88758408Y-150282700D01*
X88758408Y-150548314D01*
X88757046Y-150564250D01*
X88752960Y-150579085D01*
X88746150Y-150592818D01*
X88741189Y-150599972D01*
X88230844Y-151243674D01*
X88758408Y-151243674D01*
X88758408Y-151393883D01*
X88082100Y-151393883D01*
X88066680Y-151391593D01*
X88052476Y-151384724D01*
X88040733Y-151374626D01*
X88037037Y-151370436D01*
X88028713Y-151357759D01*
X88023114Y-151343632D01*
X88020238Y-151328057D01*
X88019818Y-151318778D01*
X88020894Y-151304147D01*
X88024678Y-151289054D01*
X88031185Y-151275411D01*
X88037037Y-151267121D01*
X88634944Y-150519005D01*
X88634944Y-150312009D01*
X88567166Y-150228845D01*
X88319870Y-150228845D01*
X88148778Y-150440603D01*
X88148778Y-150490429D01*
G37*
G36*
X89575767Y-150838475D02*
G01*
X89675785Y-150838475D01*
X89675785Y-150980258D01*
X89575767Y-150980258D01*
X89575767Y-151442243D01*
X89450104Y-151442243D01*
X89450104Y-150980258D01*
X89004605Y-150980258D01*
X88988870Y-150978039D01*
X88974638Y-150971385D01*
X88963113Y-150961602D01*
X88959542Y-150957543D01*
X88950687Y-150944067D01*
X88944730Y-150929606D01*
X88941671Y-150914160D01*
X88941224Y-150905153D01*
X88941224Y-150838475D01*
X89062857Y-150838475D01*
X89450104Y-150838475D01*
X89450104Y-150228845D01*
X89441678Y-150228845D01*
X89062857Y-150704385D01*
X89062857Y-150838475D01*
X88941224Y-150838475D01*
X88941224Y-150668848D01*
X88942702Y-150652764D01*
X88947136Y-150637897D01*
X88954526Y-150624248D01*
X88959909Y-150617191D01*
X89368771Y-150102815D01*
X89378377Y-150091127D01*
X89392244Y-150082626D01*
X89407600Y-150079013D01*
X89415300Y-150078635D01*
X89575767Y-150078635D01*
X89575767Y-150838475D01*
G37*
G36*
X90445680Y-150088916D02*
G01*
X90460649Y-150095328D01*
X90472776Y-150105013D01*
X90477756Y-150110509D01*
X90577041Y-150232875D01*
X90585541Y-150246577D01*
X90590500Y-150260807D01*
X90592909Y-150276833D01*
X90593161Y-150284532D01*
X90593161Y-150683503D01*
X90592153Y-150698546D01*
X90588611Y-150713774D01*
X90582519Y-150727204D01*
X90577041Y-150735160D01*
X90479954Y-150855327D01*
X90469132Y-150866662D01*
X90455407Y-150874905D01*
X90439894Y-150878569D01*
X90434891Y-150878775D01*
X90124581Y-150878775D01*
X90109425Y-150876557D01*
X90095558Y-150869902D01*
X90084178Y-150860120D01*
X90080617Y-150856060D01*
X90071762Y-150842585D01*
X90065805Y-150828124D01*
X90062746Y-150812677D01*
X90062299Y-150803670D01*
X90062299Y-150728565D01*
X90188328Y-150728565D01*
X90264898Y-150728565D01*
X90264898Y-150625617D01*
X90255739Y-150625617D01*
X90188328Y-150708782D01*
X90188328Y-150728565D01*
X90062299Y-150728565D01*
X90062299Y-150679106D01*
X90063329Y-150664200D01*
X90066952Y-150649018D01*
X90073182Y-150635516D01*
X90078785Y-150627449D01*
X90182100Y-150498855D01*
X90193327Y-150488809D01*
X90207774Y-150482483D01*
X90223530Y-150479972D01*
X90229361Y-150479804D01*
X90328279Y-150479804D01*
X90343979Y-150481808D01*
X90358104Y-150487818D01*
X90370655Y-150497836D01*
X90372976Y-150500321D01*
X90382008Y-150512585D01*
X90388084Y-150526299D01*
X90391204Y-150541462D01*
X90391660Y-150550512D01*
X90391660Y-150728565D01*
X90407048Y-150728565D01*
X90467498Y-150651995D01*
X90467498Y-150313841D01*
X90405216Y-150237271D01*
X90050942Y-150237271D01*
X89984630Y-150318237D01*
X89984630Y-151164905D01*
X90042515Y-151237445D01*
X90593161Y-151237445D01*
X90593161Y-151387288D01*
X90016137Y-151387288D01*
X90001141Y-151385434D01*
X89987479Y-151379870D01*
X89975150Y-151370596D01*
X89968876Y-151363841D01*
X89875087Y-151248070D01*
X89866393Y-151234525D01*
X89861321Y-151220315D01*
X89858858Y-151204192D01*
X89858600Y-151196413D01*
X89858600Y-150288928D01*
X89859631Y-150273747D01*
X89863253Y-150258475D01*
X89869484Y-150245115D01*
X89875087Y-150237271D01*
X89977302Y-150110509D01*
X89988299Y-150099175D01*
X90001092Y-150091550D01*
X90015682Y-150087634D01*
X90024563Y-150087062D01*
X90430861Y-150087062D01*
X90445680Y-150088916D01*
G37*
G36*
X91313765Y-150464632D02*
G01*
X91328648Y-150470442D01*
X91341242Y-150480403D01*
X91344574Y-150484200D01*
X91448621Y-150614260D01*
X91458088Y-150627090D01*
X91463610Y-150641390D01*
X91466135Y-150656290D01*
X91466573Y-150666650D01*
X91466573Y-151449570D01*
X91465474Y-151464339D01*
X91461610Y-151479477D01*
X91454964Y-151493049D01*
X91448988Y-151501228D01*
X91353367Y-151618831D01*
X91343848Y-151630342D01*
X91330281Y-151638714D01*
X91315379Y-151642272D01*
X91307937Y-151642644D01*
X91031699Y-151642644D01*
X91016858Y-151640355D01*
X91003019Y-151633485D01*
X90991421Y-151623387D01*
X90987735Y-151619197D01*
X90882588Y-151489504D01*
X90969417Y-151382159D01*
X91058077Y-151492801D01*
X91282292Y-151492801D01*
X91340544Y-151420261D01*
X91340544Y-151115446D01*
X91243824Y-151234881D01*
X91234305Y-151246392D01*
X91220738Y-151254764D01*
X91205836Y-151258322D01*
X91198394Y-151258695D01*
X91035729Y-151258695D01*
X91020309Y-151256405D01*
X91006105Y-151249535D01*
X90994361Y-151239438D01*
X90990666Y-151235247D01*
X90789532Y-150986486D01*
X90780258Y-150973849D01*
X90774849Y-150959662D01*
X90772376Y-150944813D01*
X90771946Y-150934462D01*
X90771946Y-150905153D01*
X90897609Y-150905153D01*
X91062473Y-151108485D01*
X91171650Y-151108485D01*
X91340544Y-150901123D01*
X91340544Y-150695959D01*
X91273133Y-150612794D01*
X91066503Y-150612794D01*
X90897609Y-150822721D01*
X90897609Y-150905153D01*
X90771946Y-150905153D01*
X90771946Y-150793046D01*
X90773023Y-150778299D01*
X90776806Y-150763243D01*
X90783314Y-150749809D01*
X90789166Y-150741755D01*
X90995795Y-150484933D01*
X91005899Y-150473341D01*
X91019723Y-150466043D01*
X91035347Y-150463145D01*
X91041224Y-150462951D01*
X91298412Y-150462951D01*
X91313765Y-150464632D01*
G37*
G36*
X92125296Y-150700355D02*
G01*
X92125296Y-151391685D01*
X91997435Y-151391685D01*
X91997435Y-150700355D01*
X91934787Y-150619389D01*
X91883862Y-150619389D01*
X91814986Y-150702554D01*
X91814986Y-151391685D01*
X91689323Y-151391685D01*
X91689323Y-150469180D01*
X91816085Y-150469180D01*
X91813154Y-150492260D01*
X91810956Y-150490429D01*
X91822283Y-150479094D01*
X91835822Y-150470851D01*
X91850362Y-150467187D01*
X91854919Y-150466981D01*
X91961531Y-150466981D01*
X91976527Y-150468836D01*
X91990189Y-150474400D01*
X92002519Y-150483674D01*
X92008792Y-150490429D01*
X92061182Y-150561137D01*
X92116870Y-150492627D01*
X92128433Y-150481292D01*
X92142300Y-150473049D01*
X92157241Y-150469386D01*
X92161933Y-150469180D01*
X92271842Y-150469180D01*
X92287262Y-150471469D01*
X92301466Y-150478339D01*
X92313209Y-150488437D01*
X92316905Y-150492627D01*
X92416922Y-150617191D01*
X92425954Y-150630164D01*
X92432030Y-150644355D01*
X92435150Y-150659762D01*
X92435607Y-150668848D01*
X92435607Y-151391685D01*
X92308478Y-151391685D01*
X92308478Y-150698157D01*
X92245097Y-150619389D01*
X92189776Y-150619389D01*
X92125296Y-150700355D01*
G37*
G36*
X93101849Y-150468865D02*
G01*
X93115476Y-150474516D01*
X93126784Y-150483935D01*
X93132065Y-150490795D01*
X93232083Y-150617191D01*
X93241163Y-150630522D01*
X93246880Y-150645784D01*
X93249150Y-150661173D01*
X93249302Y-150666650D01*
X93249302Y-151243674D01*
X93354082Y-151243674D01*
X93354082Y-151389487D01*
X92768265Y-151389487D01*
X92752674Y-151387574D01*
X92737934Y-151380962D01*
X92726992Y-151370974D01*
X92722836Y-151365307D01*
X92623918Y-151235247D01*
X92615594Y-151223163D01*
X92609995Y-151209165D01*
X92607119Y-151193255D01*
X92606699Y-151183590D01*
X92606699Y-151156479D01*
X92730163Y-151156479D01*
X92796109Y-151243674D01*
X93123639Y-151243674D01*
X93123639Y-151001140D01*
X92797208Y-151001140D01*
X92730163Y-151086503D01*
X92730163Y-151156479D01*
X92606699Y-151156479D01*
X92606699Y-151056828D01*
X92608345Y-151040835D01*
X92612640Y-151026503D01*
X92619602Y-151012229D01*
X92623551Y-151005903D01*
X92724302Y-150876577D01*
X92735359Y-150866305D01*
X92749413Y-150858834D01*
X92765327Y-150855514D01*
X92770464Y-150855327D01*
X93123639Y-150855327D01*
X93123639Y-150695959D01*
X93059891Y-150614993D01*
X92704884Y-150614993D01*
X92704884Y-150466981D01*
X93085903Y-150466981D01*
X93101849Y-150468865D01*
G37*
G36*
X93831088Y-150080833D02*
G01*
X93957850Y-150080833D01*
X93957850Y-150233241D01*
X93831088Y-150233241D01*
X93831088Y-150080833D01*
G37*
G36*
X93831088Y-150466981D02*
G01*
X93957850Y-150466981D01*
X93957850Y-151391685D01*
X93831088Y-151391685D01*
X93831088Y-150466981D01*
G37*
G36*
X94874127Y-151219860D02*
G01*
X94890614Y-151241475D01*
X94979640Y-151241475D01*
X94979640Y-151391685D01*
X94863503Y-151391685D01*
X94848662Y-151389395D01*
X94834823Y-151382526D01*
X94823225Y-151372428D01*
X94819539Y-151368237D01*
X94766782Y-151302658D01*
X94757927Y-151289833D01*
X94751970Y-151275675D01*
X94748911Y-151260183D01*
X94748464Y-151251001D01*
X94748464Y-150080833D01*
X94874127Y-150080833D01*
X94874127Y-151219860D01*
G37*
G36*
X95566556Y-151131933D02*
G01*
X95792602Y-151131933D01*
X95792602Y-151389487D01*
X95566556Y-151389487D01*
X95566556Y-151131933D01*
G37*
G36*
X96923203Y-150469180D02*
G01*
X96923203Y-150617191D01*
X96569661Y-150617191D01*
X96399668Y-150828949D01*
X96399668Y-151029351D01*
X96575157Y-151241475D01*
X96923203Y-151241475D01*
X96923203Y-151387288D01*
X96548412Y-151387288D01*
X96532870Y-151385249D01*
X96518759Y-151379131D01*
X96506080Y-151368934D01*
X96503715Y-151366406D01*
X96293056Y-151110317D01*
X96285683Y-151097632D01*
X96279906Y-151083251D01*
X96276796Y-151068755D01*
X96276203Y-151059026D01*
X96276203Y-150799640D01*
X96277279Y-150784436D01*
X96281063Y-150769083D01*
X96287571Y-150755585D01*
X96293422Y-150747616D01*
X96498953Y-150492993D01*
X96508742Y-150481482D01*
X96521793Y-150473110D01*
X96537135Y-150469389D01*
X96542184Y-150469180D01*
X96923203Y-150469180D01*
G37*
G36*
X97696206Y-150466841D02*
G01*
X97709868Y-150473013D01*
X97722198Y-150483301D01*
X97728471Y-150490795D01*
X97823360Y-150623785D01*
X97831683Y-150635938D01*
X97837737Y-150650392D01*
X97840427Y-150665848D01*
X97840579Y-150670680D01*
X97840579Y-151187986D01*
X97838826Y-151203542D01*
X97834250Y-151217910D01*
X97826834Y-151232625D01*
X97822627Y-151239277D01*
X97723342Y-151363475D01*
X97712429Y-151374738D01*
X97698832Y-151381326D01*
X97684141Y-151383258D01*
X97677913Y-151383258D01*
X97359176Y-151383258D01*
X97343410Y-151381051D01*
X97328857Y-151374427D01*
X97316678Y-151364574D01*
X97211165Y-151241842D01*
X97201891Y-151228554D01*
X97196482Y-151213842D01*
X97194009Y-151198575D01*
X97193579Y-151187986D01*
X97193579Y-151158311D01*
X97319242Y-151158311D01*
X97385921Y-151239277D01*
X97651901Y-151239277D01*
X97714916Y-151158311D01*
X97714916Y-150697791D01*
X97653000Y-150612794D01*
X97386287Y-150612794D01*
X97319242Y-150698157D01*
X97319242Y-151158311D01*
X97193579Y-151158311D01*
X97193579Y-150666650D01*
X97195831Y-150651592D01*
X97201021Y-150637856D01*
X97208165Y-150624575D01*
X97212630Y-150617557D01*
X97316311Y-150484200D01*
X97327581Y-150473961D01*
X97340783Y-150467514D01*
X97355917Y-150464859D01*
X97359176Y-150464783D01*
X97681210Y-150464783D01*
X97696206Y-150466841D01*
G37*
G36*
X98546929Y-150700355D02*
G01*
X98546929Y-151391685D01*
X98419068Y-151391685D01*
X98419068Y-150700355D01*
X98356420Y-150619389D01*
X98305495Y-150619389D01*
X98236618Y-150702554D01*
X98236618Y-151391685D01*
X98110956Y-151391685D01*
X98110956Y-150469180D01*
X98237718Y-150469180D01*
X98234787Y-150492260D01*
X98232588Y-150490429D01*
X98243916Y-150479094D01*
X98257455Y-150470851D01*
X98271995Y-150467187D01*
X98276552Y-150466981D01*
X98383164Y-150466981D01*
X98398160Y-150468836D01*
X98411822Y-150474400D01*
X98424152Y-150483674D01*
X98430425Y-150490429D01*
X98482815Y-150561137D01*
X98538503Y-150492627D01*
X98550066Y-150481292D01*
X98563933Y-150473049D01*
X98578874Y-150469386D01*
X98583565Y-150469180D01*
X98693475Y-150469180D01*
X98708895Y-150471469D01*
X98723099Y-150478339D01*
X98734842Y-150488437D01*
X98738538Y-150492627D01*
X98838555Y-150617191D01*
X98847587Y-150630164D01*
X98853663Y-150644355D01*
X98856783Y-150659762D01*
X98857240Y-150668848D01*
X98857240Y-151391685D01*
X98730111Y-151391685D01*
X98730111Y-150698157D01*
X98666730Y-150619389D01*
X98611409Y-150619389D01*
X98546929Y-150700355D01*
G37*
G36*
X66805914Y-42211625D02*
G01*
X67134542Y-42211625D01*
X67134542Y-42361835D01*
X67031960Y-42361835D01*
X67031960Y-43241475D01*
X67134542Y-43241475D01*
X67134542Y-43393883D01*
X66805914Y-43393883D01*
X66805914Y-43241475D01*
X66906297Y-43241475D01*
X66906297Y-42361835D01*
X66805914Y-42361835D01*
X66805914Y-42211625D01*
G37*
G36*
X68030303Y-42702187D02*
G01*
X67961793Y-42617191D01*
X67710467Y-42617191D01*
X67670533Y-42667749D01*
X68139846Y-43126803D01*
X68149784Y-43138596D01*
X68156882Y-43151625D01*
X68161141Y-43165890D01*
X68162561Y-43181392D01*
X68161416Y-43197672D01*
X68157981Y-43212441D01*
X68151380Y-43227250D01*
X68144242Y-43237445D01*
X68036531Y-43368237D01*
X68025116Y-43379572D01*
X68011278Y-43387815D01*
X67996222Y-43391479D01*
X67991468Y-43391685D01*
X67683356Y-43391685D01*
X67667936Y-43389395D01*
X67653732Y-43382526D01*
X67641989Y-43372428D01*
X67638293Y-43368237D01*
X67532780Y-43241475D01*
X67524457Y-43228653D01*
X67518857Y-43214093D01*
X67515982Y-43197793D01*
X67515561Y-43187986D01*
X67515561Y-43116912D01*
X67641224Y-43116912D01*
X67641224Y-43156479D01*
X67710101Y-43241475D01*
X67965823Y-43241475D01*
X68006489Y-43190917D01*
X67539741Y-42734427D01*
X67529616Y-42722485D01*
X67522767Y-42707760D01*
X67518480Y-42691508D01*
X67516660Y-42679839D01*
X67516660Y-42671779D01*
X67517935Y-42656548D01*
X67522343Y-42641121D01*
X67529900Y-42627268D01*
X67532780Y-42623419D01*
X67635362Y-42490429D01*
X67646835Y-42479094D01*
X67659409Y-42471469D01*
X67674672Y-42467348D01*
X67681158Y-42466981D01*
X67988171Y-42466981D01*
X68003012Y-42469271D01*
X68016851Y-42476140D01*
X68028449Y-42486238D01*
X68032135Y-42490429D01*
X68138747Y-42618656D01*
X68147779Y-42631807D01*
X68153855Y-42646116D01*
X68156975Y-42661585D01*
X68157431Y-42670680D01*
X68157431Y-42750181D01*
X68030303Y-42750181D01*
X68030303Y-42702187D01*
G37*
G36*
X68935564Y-42466841D02*
G01*
X68949226Y-42473013D01*
X68961556Y-42483301D01*
X68967829Y-42490795D01*
X69062718Y-42623785D01*
X69071041Y-42635938D01*
X69077095Y-42650392D01*
X69079785Y-42665848D01*
X69079937Y-42670680D01*
X69079937Y-43187986D01*
X69078184Y-43203542D01*
X69073608Y-43217910D01*
X69066192Y-43232625D01*
X69061985Y-43239277D01*
X68962700Y-43363475D01*
X68951787Y-43374738D01*
X68938189Y-43381326D01*
X68923499Y-43383258D01*
X68917271Y-43383258D01*
X68598534Y-43383258D01*
X68582768Y-43381051D01*
X68568215Y-43374427D01*
X68556036Y-43364574D01*
X68450523Y-43241842D01*
X68441249Y-43228554D01*
X68435840Y-43213842D01*
X68433367Y-43198575D01*
X68432937Y-43187986D01*
X68432937Y-43158311D01*
X68558600Y-43158311D01*
X68625279Y-43239277D01*
X68891259Y-43239277D01*
X68954274Y-43158311D01*
X68954274Y-42697791D01*
X68892358Y-42612794D01*
X68625645Y-42612794D01*
X68558600Y-42698157D01*
X68558600Y-43158311D01*
X68432937Y-43158311D01*
X68432937Y-42666650D01*
X68435189Y-42651592D01*
X68440379Y-42637856D01*
X68447523Y-42624575D01*
X68451988Y-42617557D01*
X68555669Y-42484200D01*
X68566939Y-42473961D01*
X68580141Y-42467514D01*
X68595275Y-42464859D01*
X68598534Y-42464783D01*
X68920568Y-42464783D01*
X68935564Y-42466841D01*
G37*
G36*
X69485502Y-43090533D02*
G01*
X69485502Y-43391685D01*
X69354344Y-43391685D01*
X69354344Y-42211625D01*
X69485502Y-42211625D01*
X69485502Y-42871081D01*
X69963241Y-42259619D01*
X69963241Y-42211625D01*
X70088171Y-42211625D01*
X70088171Y-42288928D01*
X70086693Y-42305012D01*
X70082259Y-42319879D01*
X70074869Y-42333529D01*
X70069487Y-42340586D01*
X69708251Y-42801838D01*
X70071685Y-43262725D01*
X70080008Y-43275402D01*
X70085608Y-43289528D01*
X70088484Y-43305103D01*
X70088904Y-43314382D01*
X70088904Y-43391685D01*
X69963241Y-43391685D01*
X69963241Y-43343691D01*
X69620690Y-42909549D01*
X69485502Y-43090533D01*
G37*
G36*
X70761506Y-42469213D02*
G01*
X70774844Y-42475907D01*
X70786906Y-42487064D01*
X70793056Y-42495191D01*
X70893073Y-42625617D01*
X70902154Y-42638948D01*
X70907871Y-42654211D01*
X70910141Y-42669599D01*
X70910293Y-42675076D01*
X70910293Y-43007369D01*
X70391154Y-43007369D01*
X70391154Y-43158311D01*
X70458199Y-43245872D01*
X70914689Y-43245872D01*
X70914689Y-43387288D01*
X70432187Y-43387288D01*
X70417391Y-43385579D01*
X70403467Y-43379668D01*
X70392189Y-43369536D01*
X70389323Y-43365673D01*
X70282711Y-43240010D01*
X70274789Y-43227058D01*
X70270169Y-43212832D01*
X70268056Y-43198144D01*
X70267690Y-43187986D01*
X70267690Y-42853129D01*
X70393353Y-42853129D01*
X70789026Y-42853129D01*
X70789026Y-42704385D01*
X70721249Y-42619389D01*
X70462229Y-42619389D01*
X70393353Y-42706584D01*
X70393353Y-42853129D01*
X70267690Y-42853129D01*
X70267690Y-42677274D01*
X70269941Y-42662174D01*
X70275131Y-42648337D01*
X70282276Y-42634919D01*
X70286741Y-42627815D01*
X70390422Y-42494825D01*
X70400823Y-42483976D01*
X70412667Y-42474840D01*
X70427407Y-42468314D01*
X70437683Y-42466981D01*
X70746894Y-42466981D01*
X70761506Y-42469213D01*
G37*
G36*
X71471929Y-43318778D02*
G01*
X71202285Y-42982090D01*
X71193961Y-42969412D01*
X71188362Y-42955286D01*
X71185486Y-42939711D01*
X71185066Y-42930432D01*
X71185066Y-42466981D01*
X71310729Y-42466981D01*
X71310729Y-42901123D01*
X71559856Y-43209235D01*
X71704204Y-43031915D01*
X71704204Y-42466981D01*
X71829867Y-42466981D01*
X71829867Y-43061224D01*
X71828791Y-43075856D01*
X71825007Y-43090948D01*
X71818500Y-43104591D01*
X71812648Y-43112882D01*
X71278122Y-43771971D01*
X71191294Y-43664626D01*
X71471929Y-43318778D01*
G37*
G36*
X73145481Y-42655659D02*
G01*
X73391311Y-43167103D01*
X73641172Y-42649431D01*
X73641172Y-42469180D01*
X73767201Y-42469180D01*
X73767201Y-42668848D01*
X73765931Y-42683494D01*
X73762122Y-42698262D01*
X73759508Y-42705118D01*
X73446266Y-43355415D01*
X73438529Y-43368488D01*
X73428006Y-43380321D01*
X73414004Y-43389337D01*
X73397895Y-43393545D01*
X73391311Y-43393883D01*
X73376410Y-43392042D01*
X73361355Y-43385430D01*
X73349909Y-43375701D01*
X73340077Y-43362289D01*
X73336357Y-43355415D01*
X73027145Y-42711346D01*
X73022401Y-42696523D01*
X73020076Y-42681821D01*
X73019818Y-42675076D01*
X73019818Y-42469180D01*
X73145481Y-42469180D01*
X73145481Y-42655659D01*
G37*
G36*
X74675785Y-42078635D02*
G01*
X74675785Y-42228845D01*
X74066154Y-42228845D01*
X74066154Y-42464783D01*
X74407972Y-42464783D01*
X74423235Y-42467073D01*
X74437425Y-42473942D01*
X74449277Y-42484040D01*
X74453035Y-42488230D01*
X74658199Y-42741388D01*
X74667473Y-42753989D01*
X74672882Y-42768083D01*
X74675355Y-42782801D01*
X74675785Y-42793046D01*
X74675785Y-43059026D01*
X74674708Y-43073658D01*
X74670925Y-43088750D01*
X74664417Y-43102393D01*
X74658565Y-43110683D01*
X74452302Y-43365673D01*
X74442697Y-43377184D01*
X74428830Y-43385556D01*
X74413473Y-43389115D01*
X74405774Y-43389487D01*
X73946720Y-43389487D01*
X73946720Y-43239277D01*
X74381228Y-43239277D01*
X74552320Y-43027519D01*
X74552320Y-42822721D01*
X74383426Y-42614993D01*
X73941224Y-42614993D01*
X73941224Y-42078635D01*
X74675785Y-42078635D01*
G37*
G36*
X76286688Y-42702187D02*
G01*
X76218178Y-42617191D01*
X75966852Y-42617191D01*
X75926919Y-42667749D01*
X76396231Y-43126803D01*
X76406169Y-43138596D01*
X76413267Y-43151625D01*
X76417526Y-43165890D01*
X76418946Y-43181392D01*
X76417801Y-43197672D01*
X76414366Y-43212441D01*
X76407765Y-43227250D01*
X76400628Y-43237445D01*
X76292916Y-43368237D01*
X76281502Y-43379572D01*
X76267663Y-43387815D01*
X76252607Y-43391479D01*
X76247854Y-43391685D01*
X75939741Y-43391685D01*
X75924321Y-43389395D01*
X75910117Y-43382526D01*
X75898374Y-43372428D01*
X75894678Y-43368237D01*
X75789166Y-43241475D01*
X75780842Y-43228653D01*
X75775242Y-43214093D01*
X75772367Y-43197793D01*
X75771946Y-43187986D01*
X75771946Y-43116912D01*
X75897609Y-43116912D01*
X75897609Y-43156479D01*
X75966486Y-43241475D01*
X76222208Y-43241475D01*
X76262875Y-43190917D01*
X75796127Y-42734427D01*
X75786001Y-42722485D01*
X75779152Y-42707760D01*
X75774865Y-42691508D01*
X75773046Y-42679839D01*
X75773046Y-42671779D01*
X75774321Y-42656548D01*
X75778728Y-42641121D01*
X75786285Y-42627268D01*
X75789166Y-42623419D01*
X75891748Y-42490429D01*
X75903220Y-42479094D01*
X75915795Y-42471469D01*
X75931057Y-42467348D01*
X75937543Y-42466981D01*
X76244556Y-42466981D01*
X76259397Y-42469271D01*
X76273236Y-42476140D01*
X76284834Y-42486238D01*
X76288520Y-42490429D01*
X76395132Y-42618656D01*
X76404164Y-42631807D01*
X76410240Y-42646116D01*
X76413361Y-42661585D01*
X76413817Y-42670680D01*
X76413817Y-42750181D01*
X76286688Y-42750181D01*
X76286688Y-42702187D01*
G37*
G36*
X77091133Y-42464755D02*
G01*
X77104700Y-42472080D01*
X77108077Y-42475774D01*
X77318370Y-42724902D01*
X77326224Y-42738686D01*
X77332377Y-42753427D01*
X77335884Y-42768855D01*
X77336322Y-42776193D01*
X77336322Y-43059026D01*
X77334873Y-43075110D01*
X77330526Y-43089977D01*
X77323281Y-43103626D01*
X77318004Y-43110683D01*
X77112473Y-43365673D01*
X77102685Y-43377184D01*
X77089633Y-43385556D01*
X77074291Y-43389277D01*
X77069242Y-43389487D01*
X76814986Y-43389487D01*
X76814986Y-43777833D01*
X76689323Y-43777833D01*
X76689323Y-42619389D01*
X76814986Y-42619389D01*
X76814986Y-43241475D01*
X77041399Y-43241475D01*
X77211392Y-43029717D01*
X77211392Y-42806235D01*
X77052023Y-42619389D01*
X76814986Y-42619389D01*
X76689323Y-42619389D01*
X76689323Y-42462951D01*
X77076570Y-42462951D01*
X77091133Y-42464755D01*
G37*
G36*
X78039375Y-43219860D02*
G01*
X78055861Y-43241475D01*
X78144888Y-43241475D01*
X78144888Y-43391685D01*
X78028750Y-43391685D01*
X78013910Y-43389395D01*
X78000071Y-43382526D01*
X77988472Y-43372428D01*
X77984787Y-43368237D01*
X77932030Y-43302658D01*
X77923175Y-43289833D01*
X77917218Y-43275675D01*
X77914159Y-43260183D01*
X77913712Y-43251001D01*
X77913712Y-42080833D01*
X78039375Y-42080833D01*
X78039375Y-43219860D01*
G37*
G36*
X78831088Y-42080833D02*
G01*
X78957850Y-42080833D01*
X78957850Y-42233241D01*
X78831088Y-42233241D01*
X78831088Y-42080833D01*
G37*
G36*
X78831088Y-42466981D02*
G01*
X78957850Y-42466981D01*
X78957850Y-43391685D01*
X78831088Y-43391685D01*
X78831088Y-42466981D01*
G37*
G36*
X79874127Y-43219860D02*
G01*
X79890614Y-43241475D01*
X79979640Y-43241475D01*
X79979640Y-43391685D01*
X79863503Y-43391685D01*
X79848662Y-43389395D01*
X79834823Y-43382526D01*
X79823225Y-43372428D01*
X79819539Y-43368237D01*
X79766782Y-43302658D01*
X79757927Y-43289833D01*
X79751970Y-43275675D01*
X79748911Y-43260183D01*
X79748464Y-43251001D01*
X79748464Y-42619389D01*
X79537438Y-42619389D01*
X79537438Y-42466981D01*
X79748464Y-42466981D01*
X79748464Y-42080833D01*
X79874127Y-42080833D01*
X79874127Y-42466981D01*
X80084054Y-42466981D01*
X80084054Y-42619389D01*
X79874127Y-42619389D01*
X79874127Y-43219860D01*
G37*
G36*
X66852215Y-44211625D02*
G01*
X66977145Y-44211625D01*
X66977145Y-45241475D01*
X67586775Y-45241475D01*
X67586775Y-45391685D01*
X66852215Y-45391685D01*
X66852215Y-44211625D01*
G37*
G36*
X68259378Y-44469213D02*
G01*
X68272715Y-44475907D01*
X68284777Y-44487064D01*
X68290928Y-44495191D01*
X68390945Y-44625617D01*
X68400025Y-44638948D01*
X68405743Y-44654211D01*
X68408013Y-44669599D01*
X68408164Y-44675076D01*
X68408164Y-45007369D01*
X67889026Y-45007369D01*
X67889026Y-45158311D01*
X67956071Y-45245872D01*
X68412561Y-45245872D01*
X68412561Y-45387288D01*
X67930059Y-45387288D01*
X67915263Y-45385579D01*
X67901338Y-45379668D01*
X67890061Y-45369536D01*
X67887194Y-45365673D01*
X67780582Y-45240010D01*
X67772661Y-45227058D01*
X67768040Y-45212832D01*
X67765928Y-45198144D01*
X67765561Y-45187986D01*
X67765561Y-44853129D01*
X67891224Y-44853129D01*
X68286898Y-44853129D01*
X68286898Y-44704385D01*
X68219120Y-44619389D01*
X67960101Y-44619389D01*
X67891224Y-44706584D01*
X67891224Y-44853129D01*
X67765561Y-44853129D01*
X67765561Y-44677274D01*
X67767812Y-44662174D01*
X67773003Y-44648337D01*
X67780147Y-44634919D01*
X67784612Y-44627815D01*
X67888293Y-44494825D01*
X67898694Y-44483976D01*
X67910538Y-44474840D01*
X67925279Y-44468314D01*
X67935554Y-44466981D01*
X68244766Y-44466981D01*
X68259378Y-44469213D01*
G37*
G36*
X69082274Y-44231043D02*
G01*
X69020725Y-44309811D01*
X69020725Y-44466981D01*
X69227721Y-44466981D01*
X69227721Y-44619389D01*
X69018527Y-44619389D01*
X69018527Y-45391685D01*
X68893963Y-45391685D01*
X68893963Y-44619389D01*
X68682937Y-44619389D01*
X68682937Y-44466981D01*
X68893963Y-44466981D01*
X68893963Y-44280502D01*
X68894971Y-44265458D01*
X68898513Y-44250231D01*
X68904605Y-44236800D01*
X68910083Y-44228845D01*
X69008269Y-44104281D01*
X69019771Y-44092946D01*
X69032432Y-44085321D01*
X69047859Y-44081200D01*
X69054431Y-44080833D01*
X69329937Y-44080833D01*
X69329937Y-44231043D01*
X69082274Y-44231043D01*
G37*
G36*
X70032990Y-45219860D02*
G01*
X70049476Y-45241475D01*
X70138503Y-45241475D01*
X70138503Y-45391685D01*
X70022365Y-45391685D01*
X70007525Y-45389395D01*
X69993686Y-45382526D01*
X69982087Y-45372428D01*
X69978401Y-45368237D01*
X69925645Y-45302658D01*
X69916790Y-45289833D01*
X69910833Y-45275675D01*
X69907774Y-45260183D01*
X69907327Y-45251001D01*
X69907327Y-44619389D01*
X69696301Y-44619389D01*
X69696301Y-44466981D01*
X69907327Y-44466981D01*
X69907327Y-44080833D01*
X70032990Y-44080833D01*
X70032990Y-44466981D01*
X70242916Y-44466981D01*
X70242916Y-44619389D01*
X70032990Y-44619389D01*
X70032990Y-45219860D01*
G37*
G36*
X71660133Y-43978743D02*
G01*
X71686589Y-43981233D01*
X71712568Y-43985383D01*
X71738071Y-43991194D01*
X71763096Y-43998664D01*
X71787645Y-44007795D01*
X71811716Y-44018585D01*
X71835310Y-44031036D01*
X71858055Y-44044803D01*
X71879579Y-44059849D01*
X71899882Y-44076173D01*
X71918963Y-44093776D01*
X71936823Y-44112657D01*
X71953463Y-44132816D01*
X71968880Y-44154254D01*
X71983077Y-44176971D01*
X71995957Y-44200432D01*
X72007120Y-44224407D01*
X72016565Y-44248898D01*
X72024293Y-44273905D01*
X72030304Y-44299426D01*
X72034597Y-44325463D01*
X72037173Y-44352015D01*
X72038032Y-44379082D01*
X72037297Y-44404355D01*
X72035093Y-44429190D01*
X72031420Y-44453585D01*
X72026277Y-44477542D01*
X72019666Y-44501060D01*
X72011585Y-44524139D01*
X72002034Y-44546779D01*
X71991015Y-44568981D01*
X71976561Y-44594791D01*
X71962583Y-44617650D01*
X71946441Y-44641185D01*
X71930985Y-44660469D01*
X71911445Y-44679570D01*
X71906751Y-44683164D01*
X71939625Y-44686878D01*
X71972532Y-44691837D01*
X72005471Y-44698041D01*
X72038442Y-44705490D01*
X72071445Y-44714184D01*
X72104480Y-44724123D01*
X72137548Y-44735307D01*
X72170648Y-44747736D01*
X72203780Y-44761410D01*
X72236944Y-44776329D01*
X72259071Y-44786967D01*
X72284075Y-44798672D01*
X72308251Y-44808370D01*
X72331602Y-44816060D01*
X72361450Y-44823192D01*
X72389829Y-44826755D01*
X72416739Y-44826750D01*
X72442179Y-44823177D01*
X72466150Y-44816036D01*
X72483164Y-44808339D01*
X72505500Y-44797600D01*
X72528732Y-44784648D01*
X72550294Y-44770624D01*
X72556437Y-44766207D01*
X72565596Y-44841922D01*
X72559180Y-44870175D01*
X72552525Y-44898069D01*
X72545632Y-44925606D01*
X72538500Y-44952785D01*
X72531130Y-44979607D01*
X72523522Y-45006070D01*
X72520411Y-45016556D01*
X72509974Y-45045693D01*
X72499116Y-45073876D01*
X72487839Y-45101106D01*
X72476142Y-45127381D01*
X72464025Y-45152702D01*
X72451489Y-45177069D01*
X72438533Y-45200482D01*
X72425157Y-45222941D01*
X72411819Y-45243910D01*
X72393500Y-45270500D01*
X72374572Y-45295526D01*
X72355032Y-45318986D01*
X72334882Y-45340882D01*
X72314121Y-45361214D01*
X72292750Y-45379980D01*
X72270768Y-45397182D01*
X72265177Y-45401238D01*
X72244230Y-45414769D01*
X72222831Y-45426970D01*
X72193598Y-45441166D01*
X72163564Y-45452997D01*
X72132728Y-45462461D01*
X72101091Y-45469559D01*
X72076837Y-45473330D01*
X72052133Y-45475770D01*
X72026977Y-45476880D01*
X72018492Y-45476953D01*
X71556263Y-45476953D01*
X71493370Y-45469626D01*
X71465700Y-45464861D01*
X71439016Y-45458807D01*
X71413321Y-45451465D01*
X71388613Y-45442836D01*
X71364892Y-45432918D01*
X71357205Y-45429326D01*
X71335089Y-45417257D01*
X71314233Y-45404253D01*
X71289934Y-45386683D01*
X71267603Y-45367652D01*
X71247239Y-45347161D01*
X71228844Y-45325208D01*
X71215544Y-45306594D01*
X71200517Y-45282227D01*
X71187494Y-45256448D01*
X71176474Y-45229257D01*
X71167459Y-45200654D01*
X71160446Y-45170639D01*
X71155437Y-45139211D01*
X71152995Y-45114714D01*
X71151681Y-45089423D01*
X71151430Y-45072121D01*
X71152654Y-45043499D01*
X71156324Y-45014877D01*
X71162442Y-44986254D01*
X71169410Y-44962402D01*
X71178077Y-44938551D01*
X71186235Y-44919469D01*
X71199096Y-44896800D01*
X71212916Y-44874335D01*
X71226669Y-44853126D01*
X71242182Y-44830114D01*
X71256454Y-44809560D01*
X71270634Y-44789143D01*
X71285289Y-44767161D01*
X71299130Y-44744988D01*
X71311774Y-44721976D01*
X71316294Y-44711863D01*
X71321977Y-44686580D01*
X71322287Y-44660415D01*
X71316277Y-44636277D01*
X71313241Y-44629431D01*
X71283569Y-44628417D01*
X71254852Y-44625376D01*
X71227088Y-44620307D01*
X71200279Y-44613212D01*
X71174423Y-44604088D01*
X71149522Y-44592937D01*
X71139829Y-44587909D01*
X71117267Y-44572296D01*
X71096294Y-44555223D01*
X71076910Y-44536690D01*
X71059114Y-44516697D01*
X71042907Y-44495245D01*
X71037857Y-44487770D01*
X71027019Y-44463536D01*
X71017707Y-44438463D01*
X71009922Y-44412551D01*
X71003663Y-44385799D01*
X70996946Y-44310083D01*
X71021994Y-44321431D01*
X71045998Y-44331049D01*
X71073425Y-44340308D01*
X71099350Y-44347077D01*
X71123771Y-44351356D01*
X71139218Y-44352826D01*
X71164500Y-44353552D01*
X71189888Y-44352235D01*
X71213979Y-44348017D01*
X71231420Y-44341835D01*
X71420708Y-44341835D01*
X71424027Y-44368170D01*
X71433984Y-44391764D01*
X71448796Y-44410833D01*
X71469969Y-44426825D01*
X71494028Y-44436178D01*
X71518405Y-44438921D01*
X71542925Y-44436178D01*
X71566590Y-44426825D01*
X71586793Y-44410833D01*
X71602089Y-44389732D01*
X71611036Y-44365889D01*
X71613660Y-44341835D01*
X71610485Y-44315440D01*
X71600961Y-44292509D01*
X71586793Y-44274668D01*
X71566722Y-44259372D01*
X71542610Y-44250425D01*
X71517184Y-44247801D01*
X71491196Y-44250976D01*
X71467806Y-44260500D01*
X71448796Y-44274668D01*
X71432804Y-44294726D01*
X71423451Y-44317959D01*
X71420708Y-44341835D01*
X71231420Y-44341835D01*
X71234507Y-44314477D01*
X71239420Y-44287818D01*
X71246156Y-44261855D01*
X71254718Y-44236591D01*
X71265104Y-44212024D01*
X71277315Y-44188155D01*
X71291351Y-44164984D01*
X71307211Y-44142510D01*
X71324896Y-44120734D01*
X71344406Y-44099655D01*
X71358426Y-44085990D01*
X71380451Y-44066676D01*
X71403248Y-44049261D01*
X71426819Y-44033746D01*
X71451162Y-44020131D01*
X71476278Y-44008415D01*
X71502167Y-43998600D01*
X71528828Y-43990684D01*
X71556263Y-43984668D01*
X71584470Y-43980552D01*
X71613450Y-43978335D01*
X71633199Y-43977913D01*
X71660133Y-43978743D01*
G37*
D11*
G36*
X81238781Y-114156589D02*
G01*
X81238781Y-114964422D01*
X81467392Y-114964422D01*
X81522485Y-114965796D01*
X81573455Y-114969918D01*
X81620304Y-114976787D01*
X81673069Y-114989237D01*
X81719394Y-115005981D01*
X81759279Y-115027019D01*
X81792724Y-115052349D01*
X81825967Y-115086842D01*
X81852333Y-115125199D01*
X81871820Y-115167419D01*
X81884430Y-115213504D01*
X81890161Y-115263453D01*
X81890543Y-115280961D01*
X81887104Y-115332236D01*
X81876787Y-115379725D01*
X81859593Y-115423426D01*
X81835520Y-115463341D01*
X81804569Y-115499470D01*
X81792724Y-115510671D01*
X81751817Y-115540179D01*
X81710644Y-115560106D01*
X81663031Y-115575792D01*
X81608978Y-115587240D01*
X81561099Y-115593345D01*
X81509098Y-115596736D01*
X81467392Y-115597500D01*
X80505686Y-115597500D01*
X80450577Y-115596143D01*
X80399555Y-115592073D01*
X80352620Y-115585289D01*
X80299700Y-115572994D01*
X80253165Y-115556460D01*
X80213017Y-115535685D01*
X80179256Y-115510671D01*
X80146386Y-115475805D01*
X80120317Y-115437152D01*
X80101048Y-115394713D01*
X80088581Y-115348486D01*
X80082913Y-115298473D01*
X80082536Y-115280961D01*
X80086013Y-115229724D01*
X80096446Y-115182352D01*
X80113834Y-115138843D01*
X80138177Y-115099198D01*
X80169476Y-115063418D01*
X80181454Y-115052349D01*
X80222992Y-115022468D01*
X80264396Y-115002289D01*
X80311971Y-114986404D01*
X80365718Y-114974812D01*
X80413160Y-114968630D01*
X80464551Y-114965195D01*
X80505686Y-114964422D01*
X80604605Y-114964422D01*
X80604605Y-112643138D01*
X80505686Y-112643138D01*
X80450577Y-112641781D01*
X80399555Y-112637711D01*
X80352620Y-112630928D01*
X80299700Y-112618633D01*
X80253165Y-112602098D01*
X80213017Y-112581324D01*
X80179256Y-112556310D01*
X80146386Y-112521444D01*
X80120317Y-112482791D01*
X80101048Y-112440351D01*
X80088581Y-112394125D01*
X80082913Y-112344112D01*
X80082536Y-112326599D01*
X80085936Y-112275363D01*
X80096137Y-112227990D01*
X80113138Y-112184481D01*
X80136941Y-112144837D01*
X80167544Y-112109056D01*
X80179256Y-112097988D01*
X80220536Y-112068106D01*
X80261961Y-112047928D01*
X80309773Y-112032042D01*
X80363971Y-112020450D01*
X80411927Y-112014268D01*
X80463971Y-112010833D01*
X80505686Y-112010061D01*
X81467392Y-112010061D01*
X81522485Y-112011434D01*
X81573455Y-112015556D01*
X81620304Y-112022425D01*
X81673069Y-112034876D01*
X81719394Y-112051620D01*
X81759279Y-112072657D01*
X81792724Y-112097988D01*
X81825967Y-112132481D01*
X81852333Y-112170837D01*
X81871820Y-112213058D01*
X81884430Y-112259142D01*
X81890161Y-112309091D01*
X81890543Y-112326599D01*
X81887104Y-112377875D01*
X81876787Y-112425363D01*
X81859593Y-112469065D01*
X81835520Y-112508980D01*
X81804569Y-112545108D01*
X81792724Y-112556310D01*
X81751817Y-112585818D01*
X81710644Y-112605744D01*
X81663031Y-112621431D01*
X81608978Y-112632878D01*
X81561099Y-112638983D01*
X81509098Y-112642375D01*
X81467392Y-112643138D01*
X81238781Y-112643138D01*
X81238781Y-113416899D01*
X82364252Y-112643138D01*
X82318640Y-112638810D01*
X82276522Y-112623596D01*
X82241145Y-112593843D01*
X82227965Y-112573895D01*
X82209901Y-112528677D01*
X82199938Y-112485693D01*
X82193552Y-112435872D01*
X82190924Y-112387727D01*
X82190596Y-112361770D01*
X82193996Y-112309915D01*
X82204197Y-112260688D01*
X82221198Y-112214088D01*
X82245001Y-112170116D01*
X82275604Y-112128771D01*
X82287316Y-112115573D01*
X82321077Y-112085177D01*
X82361225Y-112059932D01*
X82407760Y-112039839D01*
X82460680Y-112024898D01*
X82507615Y-112016655D01*
X82558637Y-112011709D01*
X82613746Y-112010061D01*
X83260013Y-112010061D01*
X83315122Y-112011434D01*
X83366144Y-112015556D01*
X83413079Y-112022425D01*
X83465999Y-112034876D01*
X83512534Y-112051620D01*
X83552682Y-112072657D01*
X83586443Y-112097988D01*
X83619687Y-112132481D01*
X83646052Y-112170837D01*
X83665539Y-112213058D01*
X83678149Y-112259142D01*
X83683881Y-112309091D01*
X83684263Y-112326599D01*
X83680824Y-112377875D01*
X83670507Y-112425363D01*
X83653312Y-112469065D01*
X83629239Y-112508980D01*
X83598289Y-112545108D01*
X83586443Y-112556310D01*
X83545936Y-112585818D01*
X83506335Y-112605744D01*
X83461422Y-112621431D01*
X83411195Y-112632878D01*
X83367188Y-112638983D01*
X83319781Y-112642375D01*
X83281995Y-112643138D01*
X82144434Y-113463061D01*
X82184121Y-113486902D01*
X82223500Y-113512263D01*
X82262569Y-113539143D01*
X82301329Y-113567544D01*
X82339780Y-113597464D01*
X82377922Y-113628904D01*
X82415755Y-113661864D01*
X82453279Y-113696344D01*
X82490493Y-113732343D01*
X82527399Y-113769863D01*
X82563995Y-113808902D01*
X82600282Y-113849461D01*
X82636261Y-113891540D01*
X82671930Y-113935139D01*
X82707289Y-113980257D01*
X82742340Y-114026896D01*
X82777125Y-114074865D01*
X82811411Y-114124251D01*
X82845200Y-114175054D01*
X82878490Y-114227274D01*
X82911283Y-114280911D01*
X82943577Y-114335964D01*
X82975374Y-114392434D01*
X83006672Y-114450321D01*
X83037472Y-114509625D01*
X83067775Y-114570346D01*
X83097579Y-114632483D01*
X83126885Y-114696037D01*
X83155694Y-114761008D01*
X83184004Y-114827396D01*
X83211816Y-114895201D01*
X83239130Y-114964422D01*
X83408390Y-114964422D01*
X83462967Y-114965796D01*
X83513491Y-114969918D01*
X83559962Y-114976787D01*
X83612352Y-114989237D01*
X83658408Y-115005981D01*
X83698132Y-115027019D01*
X83731524Y-115052349D01*
X83764767Y-115086842D01*
X83791132Y-115125199D01*
X83810620Y-115167419D01*
X83823229Y-115213504D01*
X83828961Y-115263453D01*
X83829343Y-115280961D01*
X83825943Y-115332236D01*
X83815742Y-115379725D01*
X83798740Y-115423426D01*
X83774938Y-115463341D01*
X83744335Y-115499470D01*
X83732623Y-115510671D01*
X83692089Y-115540179D01*
X83651169Y-115560106D01*
X83603754Y-115575792D01*
X83549846Y-115587240D01*
X83502044Y-115593345D01*
X83450086Y-115596736D01*
X83408390Y-115597500D01*
X82833565Y-115597500D01*
X82808689Y-115536122D01*
X82783522Y-115475088D01*
X82758062Y-115414398D01*
X82732311Y-115354050D01*
X82706268Y-115294047D01*
X82679932Y-115234387D01*
X82653305Y-115175070D01*
X82626386Y-115116097D01*
X82599175Y-115057467D01*
X82571672Y-114999181D01*
X82543877Y-114941238D01*
X82515790Y-114883639D01*
X82487411Y-114826383D01*
X82458740Y-114769470D01*
X82429777Y-114712902D01*
X82400522Y-114656676D01*
X82376694Y-114611974D01*
X82353021Y-114568817D01*
X82329502Y-114527206D01*
X82306138Y-114487141D01*
X82282928Y-114448621D01*
X82248403Y-114393740D01*
X82214226Y-114342336D01*
X82180397Y-114294409D01*
X82146915Y-114249960D01*
X82113781Y-114208989D01*
X82080995Y-114171495D01*
X82048557Y-114137479D01*
X82037822Y-114126913D01*
X82005084Y-114096375D01*
X81971168Y-114066996D01*
X81936073Y-114038776D01*
X81899800Y-114011715D01*
X81862348Y-113985813D01*
X81823718Y-113961071D01*
X81783909Y-113937487D01*
X81742921Y-113915063D01*
X81700755Y-113893798D01*
X81657411Y-113873693D01*
X81627860Y-113860933D01*
X81238781Y-114156589D01*
G37*
D12*
G36*
X75694224Y-111553030D02*
G01*
X75694224Y-111834398D01*
X75359123Y-111834398D01*
X75359123Y-111553030D01*
X75694224Y-111553030D01*
G37*
G36*
X75732815Y-112084502D02*
G01*
X75732815Y-112991132D01*
X76070847Y-112991132D01*
X76095332Y-112991742D01*
X76117986Y-112993574D01*
X76138807Y-112996627D01*
X76162258Y-113002161D01*
X76182847Y-113009603D01*
X76200574Y-113018953D01*
X76215439Y-113030211D01*
X76230213Y-113045541D01*
X76241931Y-113062588D01*
X76250592Y-113081353D01*
X76256197Y-113101835D01*
X76258744Y-113124034D01*
X76258914Y-113131816D01*
X76257385Y-113154605D01*
X76252800Y-113175711D01*
X76245158Y-113195134D01*
X76234459Y-113212874D01*
X76220703Y-113228931D01*
X76215439Y-113233909D01*
X76197258Y-113247024D01*
X76178959Y-113255880D01*
X76157797Y-113262852D01*
X76133774Y-113267940D01*
X76112494Y-113270653D01*
X76089383Y-113272160D01*
X76070847Y-113272500D01*
X75112926Y-113272500D01*
X75088433Y-113271897D01*
X75065757Y-113270088D01*
X75044897Y-113267073D01*
X75021377Y-113261608D01*
X75000695Y-113254260D01*
X74982851Y-113245026D01*
X74967846Y-113233909D01*
X74953237Y-113218413D01*
X74941651Y-113201234D01*
X74933087Y-113182372D01*
X74927546Y-113161827D01*
X74925027Y-113139599D01*
X74924859Y-113131816D01*
X74926371Y-113109044D01*
X74930904Y-113087989D01*
X74938461Y-113068652D01*
X74949039Y-113051032D01*
X74962641Y-113035130D01*
X74967846Y-113030211D01*
X74986193Y-113016930D01*
X75004604Y-113007962D01*
X75025854Y-113000901D01*
X75049942Y-112995749D01*
X75071256Y-112993002D01*
X75094386Y-112991475D01*
X75112926Y-112991132D01*
X75450958Y-112991132D01*
X75450958Y-112365870D01*
X75224301Y-112365870D01*
X75200144Y-112365267D01*
X75177742Y-112363458D01*
X75157096Y-112360443D01*
X75133757Y-112354979D01*
X75113161Y-112347630D01*
X75095308Y-112338397D01*
X75080198Y-112327280D01*
X75065257Y-112311784D01*
X75053407Y-112294605D01*
X75044649Y-112275743D01*
X75038982Y-112255198D01*
X75036406Y-112232970D01*
X75036234Y-112225186D01*
X75037745Y-112202414D01*
X75042279Y-112181360D01*
X75049835Y-112162023D01*
X75060414Y-112144403D01*
X75074015Y-112128500D01*
X75079221Y-112123581D01*
X75097568Y-112110300D01*
X75115979Y-112101332D01*
X75137229Y-112094272D01*
X75161316Y-112089120D01*
X75182630Y-112086372D01*
X75205761Y-112084846D01*
X75224301Y-112084502D01*
X75732815Y-112084502D01*
G37*
G36*
X77577825Y-112414230D02*
G01*
X77560499Y-112404644D01*
X77542959Y-112395668D01*
X77525206Y-112387302D01*
X77507239Y-112379548D01*
X77484480Y-112370713D01*
X77461386Y-112362832D01*
X77442671Y-112357215D01*
X77433233Y-112354635D01*
X77409558Y-112348865D01*
X77390377Y-112344953D01*
X77370983Y-112341668D01*
X77351375Y-112339008D01*
X77331553Y-112336974D01*
X77311517Y-112335565D01*
X77291268Y-112334783D01*
X77275941Y-112334607D01*
X77255749Y-112334794D01*
X77236084Y-112335355D01*
X77207573Y-112336898D01*
X77180247Y-112339282D01*
X77154107Y-112342508D01*
X77129151Y-112346575D01*
X77105380Y-112351484D01*
X77082795Y-112357234D01*
X77061394Y-112363825D01*
X77041178Y-112371259D01*
X77022147Y-112379533D01*
X77016067Y-112382479D01*
X76997474Y-112393225D01*
X76981703Y-112407346D01*
X76973734Y-112425297D01*
X76973568Y-112428396D01*
X76980379Y-112447759D01*
X76996084Y-112463430D01*
X77014604Y-112475511D01*
X77031210Y-112484084D01*
X77051509Y-112491377D01*
X77074249Y-112497402D01*
X77096254Y-112502187D01*
X77121647Y-112506942D01*
X77142916Y-112510489D01*
X77166092Y-112514018D01*
X77191173Y-112517530D01*
X77218161Y-112521024D01*
X77227581Y-112522185D01*
X77261964Y-112526465D01*
X77295015Y-112530757D01*
X77326734Y-112535060D01*
X77357121Y-112539374D01*
X77386177Y-112543700D01*
X77413900Y-112548037D01*
X77440292Y-112552386D01*
X77465351Y-112556746D01*
X77489079Y-112561117D01*
X77511475Y-112565500D01*
X77532539Y-112569895D01*
X77552271Y-112574301D01*
X77579372Y-112580931D01*
X77603476Y-112587587D01*
X77617881Y-112592039D01*
X77644321Y-112601418D01*
X77669601Y-112611605D01*
X77693723Y-112622599D01*
X77716685Y-112634400D01*
X77738488Y-112647008D01*
X77759132Y-112660423D01*
X77778616Y-112674645D01*
X77796942Y-112689675D01*
X77814108Y-112705512D01*
X77830115Y-112722155D01*
X77840142Y-112733700D01*
X77854197Y-112751284D01*
X77866869Y-112769048D01*
X77878159Y-112786993D01*
X77888067Y-112805118D01*
X77896592Y-112823423D01*
X77903735Y-112841909D01*
X77911108Y-112866837D01*
X77916023Y-112892086D01*
X77918481Y-112917655D01*
X77918788Y-112930560D01*
X77917616Y-112956621D01*
X77914100Y-112981868D01*
X77908239Y-113006298D01*
X77900035Y-113029913D01*
X77889486Y-113052712D01*
X77876593Y-113074695D01*
X77861356Y-113095863D01*
X77843775Y-113116215D01*
X77823850Y-113135751D01*
X77801580Y-113154471D01*
X77785432Y-113166498D01*
X77761110Y-113183120D01*
X77735896Y-113198669D01*
X77709789Y-113213147D01*
X77682789Y-113226551D01*
X77654895Y-113238884D01*
X77626109Y-113250144D01*
X77596430Y-113260331D01*
X77565857Y-113269446D01*
X77534392Y-113277489D01*
X77502034Y-113284460D01*
X77468782Y-113290358D01*
X77434638Y-113295184D01*
X77399600Y-113298937D01*
X77363670Y-113301618D01*
X77326847Y-113303226D01*
X77289130Y-113303763D01*
X77266391Y-113303621D01*
X77243970Y-113303196D01*
X77221866Y-113302487D01*
X77200081Y-113301496D01*
X77178613Y-113300221D01*
X77157462Y-113298662D01*
X77136630Y-113296820D01*
X77116115Y-113294695D01*
X77095917Y-113292287D01*
X77076038Y-113289595D01*
X77062961Y-113287643D01*
X77037339Y-113283498D01*
X77012250Y-113278880D01*
X76987696Y-113273789D01*
X76963677Y-113268225D01*
X76940191Y-113262188D01*
X76917240Y-113255677D01*
X76894823Y-113248693D01*
X76872940Y-113241236D01*
X76855787Y-113252411D01*
X76837666Y-113261329D01*
X76828977Y-113264684D01*
X76809764Y-113269744D01*
X76790230Y-113272225D01*
X76781105Y-113272500D01*
X76761153Y-113271522D01*
X76738942Y-113267766D01*
X76718620Y-113261195D01*
X76700188Y-113251807D01*
X76683644Y-113239602D01*
X76676081Y-113232444D01*
X76662800Y-113215350D01*
X76652267Y-113194479D01*
X76645588Y-113174200D01*
X76640818Y-113151298D01*
X76638376Y-113131087D01*
X76637154Y-113109196D01*
X76637002Y-113097622D01*
X76637002Y-113009694D01*
X76637612Y-112986972D01*
X76639444Y-112965944D01*
X76642497Y-112946611D01*
X76648031Y-112924827D01*
X76655473Y-112905691D01*
X76666921Y-112886222D01*
X76676081Y-112875361D01*
X76691577Y-112861582D01*
X76708756Y-112850654D01*
X76727618Y-112842577D01*
X76748163Y-112837350D01*
X76770391Y-112834975D01*
X76778174Y-112834816D01*
X76799605Y-112835892D01*
X76819447Y-112839117D01*
X76840177Y-112845437D01*
X76858831Y-112854566D01*
X76863171Y-112857287D01*
X76879535Y-112870323D01*
X76893945Y-112887451D01*
X76904951Y-112905793D01*
X76913195Y-112924008D01*
X76916904Y-112933979D01*
X76933436Y-112944520D01*
X76950793Y-112954404D01*
X76968974Y-112963632D01*
X76987979Y-112972203D01*
X77007808Y-112980118D01*
X77028462Y-112987377D01*
X77049940Y-112993979D01*
X77072242Y-112999924D01*
X77095384Y-113005191D01*
X77119381Y-113009755D01*
X77144233Y-113013617D01*
X77169940Y-113016777D01*
X77189781Y-113018686D01*
X77210102Y-113020200D01*
X77230905Y-113021320D01*
X77252188Y-113022044D01*
X77273953Y-113022373D01*
X77281314Y-113022395D01*
X77305159Y-113022183D01*
X77328331Y-113021548D01*
X77350832Y-113020489D01*
X77372661Y-113019006D01*
X77393819Y-113017100D01*
X77414305Y-113014770D01*
X77434119Y-113012016D01*
X77462581Y-113007092D01*
X77489531Y-113001214D01*
X77514971Y-112994384D01*
X77538899Y-112986600D01*
X77561316Y-112977863D01*
X77582222Y-112968173D01*
X77599486Y-112957995D01*
X77615114Y-112945860D01*
X77628063Y-112929846D01*
X77633024Y-112911509D01*
X77629541Y-112890765D01*
X77619093Y-112871705D01*
X77604593Y-112856707D01*
X77588600Y-112845153D01*
X77569053Y-112834458D01*
X77560240Y-112830420D01*
X77539616Y-112822520D01*
X77514139Y-112814941D01*
X77491845Y-112809467D01*
X77466821Y-112804173D01*
X77439066Y-112799060D01*
X77419045Y-112795751D01*
X77397811Y-112792523D01*
X77375364Y-112789374D01*
X77351703Y-112786306D01*
X77326828Y-112783318D01*
X77300740Y-112780410D01*
X77273438Y-112777582D01*
X77259332Y-112776198D01*
X77238334Y-112774121D01*
X77217775Y-112771922D01*
X77197656Y-112769599D01*
X77177977Y-112767153D01*
X77139938Y-112761893D01*
X77103658Y-112756140D01*
X77069138Y-112749894D01*
X77036377Y-112743157D01*
X77005375Y-112735927D01*
X76976133Y-112728204D01*
X76948650Y-112719990D01*
X76922926Y-112711283D01*
X76898962Y-112702084D01*
X76876757Y-112692392D01*
X76856311Y-112682208D01*
X76837624Y-112671532D01*
X76820697Y-112660364D01*
X76805529Y-112648703D01*
X76785189Y-112630731D01*
X76766849Y-112611987D01*
X76750510Y-112592469D01*
X76736172Y-112572179D01*
X76723834Y-112551116D01*
X76713497Y-112529280D01*
X76705161Y-112506671D01*
X76698826Y-112483290D01*
X76694491Y-112459136D01*
X76692157Y-112434208D01*
X76691712Y-112417161D01*
X76692837Y-112391103D01*
X76696212Y-112365870D01*
X76701836Y-112341461D01*
X76709710Y-112317876D01*
X76719833Y-112295116D01*
X76732207Y-112273180D01*
X76746830Y-112252068D01*
X76763703Y-112231781D01*
X76782825Y-112212318D01*
X76804197Y-112193679D01*
X76819695Y-112181711D01*
X76841731Y-112166154D01*
X76864606Y-112151600D01*
X76888320Y-112138051D01*
X76912874Y-112125505D01*
X76938268Y-112113962D01*
X76964501Y-112103423D01*
X76991574Y-112093888D01*
X77019486Y-112085357D01*
X77048238Y-112077830D01*
X77077830Y-112071306D01*
X77108261Y-112065785D01*
X77139531Y-112061269D01*
X77171642Y-112057756D01*
X77204592Y-112055247D01*
X77238381Y-112053741D01*
X77273010Y-112053239D01*
X77297198Y-112053514D01*
X77321156Y-112054338D01*
X77344886Y-112055712D01*
X77368387Y-112057636D01*
X77391659Y-112060109D01*
X77414701Y-112063131D01*
X77437515Y-112066703D01*
X77460100Y-112070825D01*
X77482570Y-112075397D01*
X77504797Y-112080564D01*
X77526778Y-112086326D01*
X77548516Y-112092684D01*
X77570009Y-112099638D01*
X77591259Y-112107186D01*
X77612263Y-112115330D01*
X77633024Y-112124070D01*
X77650419Y-112111791D01*
X77668474Y-112101029D01*
X77681384Y-112094760D01*
X77700725Y-112087748D01*
X77720997Y-112084542D01*
X77723394Y-112084502D01*
X77744340Y-112085996D01*
X77763946Y-112090479D01*
X77782213Y-112097949D01*
X77799140Y-112108408D01*
X77814727Y-112121854D01*
X77819626Y-112127001D01*
X77832740Y-112144964D01*
X77841596Y-112163029D01*
X77848568Y-112183909D01*
X77853656Y-112207604D01*
X77856369Y-112228586D01*
X77857877Y-112251369D01*
X77858216Y-112269638D01*
X77858216Y-112337049D01*
X77857872Y-112358741D01*
X77856842Y-112378632D01*
X77854588Y-112400962D01*
X77851261Y-112420477D01*
X77845851Y-112440181D01*
X77837586Y-112458046D01*
X77836234Y-112460148D01*
X77821720Y-112478020D01*
X77805656Y-112492863D01*
X77788041Y-112504677D01*
X77768876Y-112513461D01*
X77748161Y-112519217D01*
X77725895Y-112521943D01*
X77716555Y-112522185D01*
X77694913Y-112520783D01*
X77674440Y-112516576D01*
X77655136Y-112509563D01*
X77637001Y-112499746D01*
X77627162Y-112492876D01*
X77611778Y-112478928D01*
X77598966Y-112463157D01*
X77588724Y-112445562D01*
X77581054Y-112426145D01*
X77577825Y-112414230D01*
G37*
G36*
X78980273Y-112053590D02*
G01*
X79004104Y-112054644D01*
X79027824Y-112056399D01*
X79051434Y-112058857D01*
X79074933Y-112062017D01*
X79098321Y-112065879D01*
X79121598Y-112070443D01*
X79144765Y-112075710D01*
X79167821Y-112081678D01*
X79190767Y-112088349D01*
X79213602Y-112095722D01*
X79236326Y-112103797D01*
X79258939Y-112112575D01*
X79281442Y-112122055D01*
X79303834Y-112132237D01*
X79326115Y-112143121D01*
X79348059Y-112154598D01*
X79369316Y-112166560D01*
X79389886Y-112179007D01*
X79409769Y-112191939D01*
X79428965Y-112205355D01*
X79447474Y-112219256D01*
X79465296Y-112233641D01*
X79482431Y-112248511D01*
X79498879Y-112263866D01*
X79514640Y-112279706D01*
X79529715Y-112296030D01*
X79544102Y-112312839D01*
X79557803Y-112330132D01*
X79570816Y-112347911D01*
X79583143Y-112366173D01*
X79594783Y-112384921D01*
X79605785Y-112403884D01*
X79616078Y-112422916D01*
X79625660Y-112442017D01*
X79634533Y-112461186D01*
X79642696Y-112480424D01*
X79650149Y-112499730D01*
X79656893Y-112519106D01*
X79662926Y-112538550D01*
X79668250Y-112558062D01*
X79672864Y-112577644D01*
X79676768Y-112597294D01*
X79679962Y-112617013D01*
X79682447Y-112636800D01*
X79684221Y-112656656D01*
X79685286Y-112676581D01*
X79685641Y-112696575D01*
X79684851Y-112725070D01*
X79682481Y-112753401D01*
X79678531Y-112781570D01*
X79673001Y-112809575D01*
X79665892Y-112837418D01*
X79657202Y-112865097D01*
X79646932Y-112892613D01*
X79639208Y-112910866D01*
X79630782Y-112929047D01*
X79621653Y-112947155D01*
X79611822Y-112965191D01*
X79601289Y-112983154D01*
X79595760Y-112992109D01*
X79584179Y-113009711D01*
X79571908Y-113026860D01*
X79558946Y-113043554D01*
X79545293Y-113059795D01*
X79530949Y-113075581D01*
X79515915Y-113090913D01*
X79500190Y-113105790D01*
X79483774Y-113120214D01*
X79466668Y-113134184D01*
X79448870Y-113147699D01*
X79430382Y-113160760D01*
X79411204Y-113173367D01*
X79391334Y-113185520D01*
X79370774Y-113197219D01*
X79349523Y-113208464D01*
X79327581Y-113219255D01*
X79305294Y-113229488D01*
X79282884Y-113239061D01*
X79260353Y-113247974D01*
X79237700Y-113256227D01*
X79214924Y-113263819D01*
X79192026Y-113270752D01*
X79169006Y-113277024D01*
X79145864Y-113282636D01*
X79122600Y-113287587D01*
X79099214Y-113291879D01*
X79075705Y-113295510D01*
X79052075Y-113298481D01*
X79028322Y-113300792D01*
X79004448Y-113302442D01*
X78980451Y-113303432D01*
X78956332Y-113303763D01*
X78932339Y-113303438D01*
X78908475Y-113302465D01*
X78884742Y-113300843D01*
X78861138Y-113298572D01*
X78837664Y-113295653D01*
X78814320Y-113292085D01*
X78791105Y-113287868D01*
X78768021Y-113283002D01*
X78745066Y-113277487D01*
X78722240Y-113271324D01*
X78699545Y-113264512D01*
X78676979Y-113257051D01*
X78654543Y-113248942D01*
X78632237Y-113240183D01*
X78610060Y-113230776D01*
X78588014Y-113220720D01*
X78566358Y-113210046D01*
X78545355Y-113198906D01*
X78525005Y-113187301D01*
X78505307Y-113175230D01*
X78486262Y-113162693D01*
X78467869Y-113149691D01*
X78450129Y-113136223D01*
X78433041Y-113122290D01*
X78416607Y-113107891D01*
X78400824Y-113093027D01*
X78385695Y-113077697D01*
X78371218Y-113061901D01*
X78357393Y-113045640D01*
X78344221Y-113028913D01*
X78331702Y-113011721D01*
X78319835Y-112994063D01*
X78308714Y-112976061D01*
X78298311Y-112957961D01*
X78288625Y-112939761D01*
X78279657Y-112921461D01*
X78271406Y-112903063D01*
X78263873Y-112884566D01*
X78257057Y-112865969D01*
X78250958Y-112847273D01*
X78245577Y-112828477D01*
X78238851Y-112800099D01*
X78233739Y-112771496D01*
X78230242Y-112742671D01*
X78228358Y-112713622D01*
X78228072Y-112698040D01*
X78509367Y-112698040D01*
X78510501Y-112720160D01*
X78513901Y-112742004D01*
X78519568Y-112763574D01*
X78527502Y-112784869D01*
X78537703Y-112805889D01*
X78550171Y-112826634D01*
X78564906Y-112847105D01*
X78581908Y-112867301D01*
X78601176Y-112887222D01*
X78622711Y-112906868D01*
X78638328Y-112919813D01*
X78654738Y-112932235D01*
X78671606Y-112943855D01*
X78688932Y-112954675D01*
X78706716Y-112964692D01*
X78724957Y-112973909D01*
X78743657Y-112982324D01*
X78762815Y-112989937D01*
X78782431Y-112996749D01*
X78802505Y-113002760D01*
X78823036Y-113007969D01*
X78844026Y-113012377D01*
X78865473Y-113015983D01*
X78887379Y-113018788D01*
X78909742Y-113020792D01*
X78932564Y-113021994D01*
X78955843Y-113022395D01*
X78979298Y-113021994D01*
X79002280Y-113020792D01*
X79024788Y-113018788D01*
X79046824Y-113015983D01*
X79068386Y-113012377D01*
X79089475Y-113007969D01*
X79110090Y-113002760D01*
X79130233Y-112996749D01*
X79149902Y-112989937D01*
X79169098Y-112982324D01*
X79187821Y-112973909D01*
X79206070Y-112964692D01*
X79223846Y-112954675D01*
X79241149Y-112943855D01*
X79257979Y-112932235D01*
X79274336Y-112919813D01*
X79290011Y-112906864D01*
X79304676Y-112893786D01*
X79324775Y-112873925D01*
X79342600Y-112853772D01*
X79358149Y-112833327D01*
X79371423Y-112812590D01*
X79382421Y-112791561D01*
X79391143Y-112770241D01*
X79397590Y-112748628D01*
X79401762Y-112726724D01*
X79403658Y-112704527D01*
X79403785Y-112697063D01*
X79402926Y-112674342D01*
X79400350Y-112651972D01*
X79396057Y-112629954D01*
X79390046Y-112608289D01*
X79382318Y-112586975D01*
X79372873Y-112566014D01*
X79361710Y-112545404D01*
X79348830Y-112525147D01*
X79334233Y-112505242D01*
X79317918Y-112485688D01*
X79306088Y-112472848D01*
X79289092Y-112456108D01*
X79271443Y-112440448D01*
X79253142Y-112425868D01*
X79234189Y-112412368D01*
X79214582Y-112399948D01*
X79194324Y-112388608D01*
X79173412Y-112378347D01*
X79151848Y-112369167D01*
X79129632Y-112361067D01*
X79106762Y-112354047D01*
X79083241Y-112348107D01*
X79059066Y-112343247D01*
X79034240Y-112339467D01*
X79008760Y-112336767D01*
X78982628Y-112335147D01*
X78955843Y-112334607D01*
X78932215Y-112335036D01*
X78909078Y-112336324D01*
X78886434Y-112338471D01*
X78864283Y-112341476D01*
X78842623Y-112345340D01*
X78821456Y-112350063D01*
X78800782Y-112355644D01*
X78780599Y-112362084D01*
X78760909Y-112369383D01*
X78741711Y-112377540D01*
X78723005Y-112386556D01*
X78704792Y-112396431D01*
X78687071Y-112407164D01*
X78669843Y-112418756D01*
X78653106Y-112431207D01*
X78636862Y-112444516D01*
X78621423Y-112458329D01*
X78606981Y-112472413D01*
X78593534Y-112486768D01*
X78575231Y-112508809D01*
X78559170Y-112531459D01*
X78545350Y-112554719D01*
X78533771Y-112578588D01*
X78524433Y-112603068D01*
X78517336Y-112628156D01*
X78512480Y-112653855D01*
X78509865Y-112680163D01*
X78509367Y-112698040D01*
X78228072Y-112698040D01*
X78228000Y-112694132D01*
X78228364Y-112674251D01*
X78229457Y-112654420D01*
X78231280Y-112634638D01*
X78233831Y-112614906D01*
X78237111Y-112595224D01*
X78241120Y-112575591D01*
X78245858Y-112556007D01*
X78251325Y-112536474D01*
X78257521Y-112516990D01*
X78264445Y-112497555D01*
X78272099Y-112478170D01*
X78280481Y-112458835D01*
X78289593Y-112439549D01*
X78299433Y-112420313D01*
X78310002Y-112401127D01*
X78321300Y-112381990D01*
X78333284Y-112363132D01*
X78345908Y-112344781D01*
X78359173Y-112326938D01*
X78373080Y-112309603D01*
X78387628Y-112292775D01*
X78402816Y-112276454D01*
X78418646Y-112260641D01*
X78435118Y-112245336D01*
X78452230Y-112230539D01*
X78469983Y-112216248D01*
X78488378Y-112202466D01*
X78507413Y-112189191D01*
X78527090Y-112176423D01*
X78547408Y-112164164D01*
X78568367Y-112152411D01*
X78589968Y-112141167D01*
X78611949Y-112130519D01*
X78634053Y-112120559D01*
X78656279Y-112111285D01*
X78678628Y-112102698D01*
X78701098Y-112094799D01*
X78723690Y-112087586D01*
X78746405Y-112081060D01*
X78769242Y-112075221D01*
X78792201Y-112070069D01*
X78815282Y-112065604D01*
X78838485Y-112061826D01*
X78861810Y-112058735D01*
X78885257Y-112056330D01*
X78908827Y-112054613D01*
X78932518Y-112053583D01*
X78956332Y-112053239D01*
X78980273Y-112053590D01*
G37*
D13*
%TO.C,REF\u002A\u002A*%
X75249005Y-107612500D02*
X76249005Y-107362500D01*
X75749005Y-106112500D02*
X76499005Y-105862500D01*
X76249005Y-105112500D02*
X77749005Y-105112500D01*
X76249005Y-107362500D02*
X75749005Y-106112500D01*
X76249005Y-108362500D02*
X76999005Y-108112500D01*
X76499005Y-105862500D02*
X76249005Y-105112500D01*
X76499005Y-110112500D02*
X75249005Y-107612500D01*
X76499005Y-110112500D02*
X76249005Y-108362500D01*
X76999005Y-108112500D02*
X76749005Y-106612500D01*
X77499005Y-106362500D02*
X76749005Y-106612500D01*
X77749005Y-105112500D02*
X77499005Y-106362500D01*
X71467742Y-107612500D02*
X72749005Y-107612500D01*
X72749005Y-107612500D02*
X72749005Y-108893763D01*
X72749005Y-108893763D02*
X71467742Y-108893763D01*
X71467742Y-108893763D02*
X71467742Y-107612500D01*
X71467742Y-109612500D02*
X72749005Y-109612500D01*
X72749005Y-109612500D02*
X72749005Y-110893763D01*
X72749005Y-110893763D02*
X71467742Y-110893763D01*
X71467742Y-110893763D02*
X71467742Y-109612500D01*
X73467742Y-107612500D02*
X74749005Y-107612500D01*
X74749005Y-107612500D02*
X74749005Y-108893763D01*
X74749005Y-108893763D02*
X73467742Y-108893763D01*
X73467742Y-108893763D02*
X73467742Y-107612500D01*
X73467742Y-109612500D02*
X74749005Y-109612500D01*
X74749005Y-109612500D02*
X74749005Y-110893763D01*
X74749005Y-110893763D02*
X73467742Y-110893763D01*
X73467742Y-110893763D02*
X73467742Y-109612500D01*
X77608373Y-107612500D02*
X78889636Y-107612500D01*
X78889636Y-107612500D02*
X78889636Y-108893763D01*
X78889636Y-108893763D02*
X77608373Y-108893763D01*
X77608373Y-108893763D02*
X77608373Y-107612500D01*
X77608373Y-109612500D02*
X78889636Y-109612500D01*
X78889636Y-109612500D02*
X78889636Y-110893763D01*
X78889636Y-110893763D02*
X77608373Y-110893763D01*
X77608373Y-110893763D02*
X77608373Y-109612500D01*
X79608373Y-107612500D02*
X80889636Y-107612500D01*
X80889636Y-107612500D02*
X80889636Y-108893763D01*
X80889636Y-108893763D02*
X79608373Y-108893763D01*
X79608373Y-108893763D02*
X79608373Y-107612500D01*
X79608373Y-109612500D02*
X80889636Y-109612500D01*
X80889636Y-109612500D02*
X80889636Y-110893763D01*
X80889636Y-110893763D02*
X79608373Y-110893763D01*
X79608373Y-110893763D02*
X79608373Y-109612500D01*
D12*
X77559490Y-114362501D02*
G75*
G03*
X81608375Y-110313617I4048884J0D01*
G01*
%TD*%
M02*
