%TF.GenerationSoftware,KiCad,Pcbnew,7.0.7*%
%TF.CreationDate,2024-04-21T22:40:55+02:00*%
%TF.ProjectId,isokey_left_frame,69736f6b-6579-45f6-9c65-66745f667261,rev?*%
%TF.SameCoordinates,Original*%
%TF.FileFunction,Drillmap*%
%TF.FilePolarity,Positive*%
%FSLAX45Y45*%
G04 Gerber Fmt 4.5, Leading zero omitted, Abs format (unit mm)*
G04 Created by KiCad (PCBNEW 7.0.7) date 2024-04-21 22:40:55*
%MOMM*%
%LPD*%
G01*
G04 APERTURE LIST*
%ADD10C,0.250000*%
%ADD11C,0.200000*%
G04 APERTURE END LIST*
D10*
X9562610Y-3927015D02*
X9562610Y-3627015D01*
X9040489Y-5267123D02*
X10440459Y-5267123D01*
X8802369Y-10982153D02*
X10202329Y-10982153D01*
X6260000Y-11610001D02*
G75*
G03*
X6862610Y-10727015I-52547J682986D01*
G01*
X5562610Y-4785027D02*
X5609239Y-4785027D01*
X7462610Y-15427015D02*
X10440434Y-15427015D01*
X5262610Y-3627015D02*
X5262610Y-4485027D01*
X5762605Y-13727015D02*
G75*
G03*
X6062610Y-14027015I300005J5D01*
G01*
X6659239Y-6381443D02*
X6659239Y-4981333D01*
X7044121Y-8829278D02*
G75*
G03*
X6939529Y-9471379I418489J-397737D01*
G01*
X10440459Y-5267123D02*
X10440459Y-6667123D01*
X8564099Y-7172153D02*
X9964209Y-7172153D01*
X6512125Y-3881313D02*
G75*
G03*
X5931293Y-3881313I-290416J0D01*
G01*
X7104689Y-8735329D02*
G75*
G03*
X6159427Y-7043040I-1151589J466899D01*
G01*
X6967724Y-9599683D02*
G75*
G03*
X6939529Y-9471379I-300004J1323D01*
G01*
X10202329Y-10982153D02*
X10202329Y-12382123D01*
X9562605Y-3927015D02*
G75*
G03*
X9862610Y-4227015I300005J5D01*
G01*
X9262610Y-3327015D02*
X5562610Y-3327015D01*
X8802369Y-13172963D02*
X10202329Y-13172963D01*
X10202329Y-12382123D02*
X8802369Y-12382123D01*
X6278079Y-13525063D02*
X6278079Y-12125083D01*
X9040489Y-6667123D02*
X9040489Y-5267123D01*
X10202329Y-14572923D02*
X8802369Y-14572923D01*
X8278419Y-10477123D02*
X8278419Y-9077163D01*
X8802369Y-14572923D02*
X8802369Y-13172963D01*
X9964209Y-7172153D02*
X9964209Y-8572123D01*
X5931293Y-3881313D02*
G75*
G03*
X6512125Y-3881313I290416J0D01*
G01*
X8278419Y-9077163D02*
X9678389Y-9077163D01*
X5909243Y-5085027D02*
G75*
G03*
X5609239Y-4785027I-300003J-3D01*
G01*
X8802369Y-12382123D02*
X8802369Y-10982153D01*
X10690425Y-4477015D02*
G75*
G03*
X10440434Y-4227015I-249995J5D01*
G01*
X8059189Y-6381443D02*
X6659239Y-6381443D01*
X5762610Y-12107390D02*
X5762610Y-13727015D01*
X10440459Y-6667123D02*
X9040489Y-6667123D01*
X10440434Y-4227015D02*
X9862610Y-4227015D01*
X7131301Y-3881313D02*
G75*
G03*
X7712127Y-3881313I290413J0D01*
G01*
X10202329Y-13172963D02*
X10202329Y-14572923D01*
X7678159Y-12125083D02*
X7678159Y-13525063D01*
X9964209Y-8572123D02*
X8564099Y-8572123D01*
X6862605Y-14827015D02*
G75*
G03*
X7462610Y-15427015I600005J5D01*
G01*
X10690459Y-5267123D02*
X10690459Y-6667123D01*
X5262613Y-4485027D02*
G75*
G03*
X5562610Y-4785027I299997J-3D01*
G01*
X6862605Y-14327015D02*
G75*
G03*
X6562610Y-14027015I-299995J5D01*
G01*
X6062610Y-14027015D02*
X6562610Y-14027015D01*
X9562605Y-3627015D02*
G75*
G03*
X9262610Y-3327015I-299995J5D01*
G01*
X5909235Y-6747204D02*
G75*
G03*
X6159427Y-7043040I300005J5D01*
G01*
X5909239Y-5085027D02*
X5909239Y-6747204D01*
X7044120Y-8829278D02*
G75*
G03*
X7104683Y-8735326I-217450J206668D01*
G01*
X7712127Y-3881313D02*
G75*
G03*
X7131301Y-3881313I-290413J0D01*
G01*
X6862610Y-14327015D02*
X6862610Y-14827015D01*
X8331293Y-3881313D02*
G75*
G03*
X8912125Y-3881313I290416J0D01*
G01*
X8059189Y-4981333D02*
X8059189Y-6381443D01*
X6862610Y-10727015D02*
G75*
G03*
X6967723Y-9599683I-1090487J670244D01*
G01*
X6278079Y-12125083D02*
X7678159Y-12125083D01*
X8564099Y-8572123D02*
X8564099Y-7172153D01*
X10440434Y-15427014D02*
G75*
G03*
X10690434Y-15177015I-4J250004D01*
G01*
X8912125Y-3881313D02*
G75*
G03*
X8331293Y-3881313I-290416J0D01*
G01*
X7678159Y-13525063D02*
X6278079Y-13525063D01*
X9678389Y-10477123D02*
X8278419Y-10477123D01*
X6659239Y-4981333D02*
X8059189Y-4981333D01*
X5562610Y-3327015D02*
G75*
G03*
X5262610Y-3627015I0J-300000D01*
G01*
X6260000Y-11610000D02*
G75*
G03*
X5762610Y-12107390I0J-497390D01*
G01*
X10690434Y-15177015D02*
X10690434Y-4477015D01*
X9678389Y-9077163D02*
X9678389Y-10477123D01*
D11*
D10*
X5437610Y-4352015D02*
X5687610Y-4602015D01*
X5687610Y-4352015D02*
X5437610Y-4602015D01*
X6837610Y-6902015D02*
X7087610Y-7152015D01*
X7087610Y-6902015D02*
X6837610Y-7152015D01*
X7237610Y-14802015D02*
X7487610Y-15052015D01*
X7487610Y-14802015D02*
X7237610Y-15052015D01*
X10315153Y-4347923D02*
X10565153Y-4597923D01*
X10565153Y-4347923D02*
X10315153Y-4597923D01*
X10322684Y-15059265D02*
X10572684Y-15309265D01*
X10572684Y-15059265D02*
X10322684Y-15309265D01*
D11*
X5510887Y-15750998D02*
X5510887Y-15550998D01*
X5510887Y-15550998D02*
X5558506Y-15550998D01*
X5558506Y-15550998D02*
X5587077Y-15560522D01*
X5587077Y-15560522D02*
X5606125Y-15579570D01*
X5606125Y-15579570D02*
X5615649Y-15598617D01*
X5615649Y-15598617D02*
X5625172Y-15636713D01*
X5625172Y-15636713D02*
X5625172Y-15665284D01*
X5625172Y-15665284D02*
X5615649Y-15703379D01*
X5615649Y-15703379D02*
X5606125Y-15722427D01*
X5606125Y-15722427D02*
X5587077Y-15741475D01*
X5587077Y-15741475D02*
X5558506Y-15750998D01*
X5558506Y-15750998D02*
X5510887Y-15750998D01*
X5710887Y-15750998D02*
X5710887Y-15617665D01*
X5710887Y-15655760D02*
X5720410Y-15636713D01*
X5720410Y-15636713D02*
X5729934Y-15627189D01*
X5729934Y-15627189D02*
X5748982Y-15617665D01*
X5748982Y-15617665D02*
X5768030Y-15617665D01*
X5834696Y-15750998D02*
X5834696Y-15617665D01*
X5834696Y-15550998D02*
X5825172Y-15560522D01*
X5825172Y-15560522D02*
X5834696Y-15570046D01*
X5834696Y-15570046D02*
X5844220Y-15560522D01*
X5844220Y-15560522D02*
X5834696Y-15550998D01*
X5834696Y-15550998D02*
X5834696Y-15570046D01*
X5958506Y-15750998D02*
X5939458Y-15741475D01*
X5939458Y-15741475D02*
X5929934Y-15722427D01*
X5929934Y-15722427D02*
X5929934Y-15550998D01*
X6063268Y-15750998D02*
X6044220Y-15741475D01*
X6044220Y-15741475D02*
X6034696Y-15722427D01*
X6034696Y-15722427D02*
X6034696Y-15550998D01*
X6291839Y-15750998D02*
X6291839Y-15550998D01*
X6291839Y-15550998D02*
X6358506Y-15693855D01*
X6358506Y-15693855D02*
X6425172Y-15550998D01*
X6425172Y-15550998D02*
X6425172Y-15750998D01*
X6606125Y-15750998D02*
X6606125Y-15646236D01*
X6606125Y-15646236D02*
X6596601Y-15627189D01*
X6596601Y-15627189D02*
X6577553Y-15617665D01*
X6577553Y-15617665D02*
X6539458Y-15617665D01*
X6539458Y-15617665D02*
X6520410Y-15627189D01*
X6606125Y-15741475D02*
X6587077Y-15750998D01*
X6587077Y-15750998D02*
X6539458Y-15750998D01*
X6539458Y-15750998D02*
X6520410Y-15741475D01*
X6520410Y-15741475D02*
X6510887Y-15722427D01*
X6510887Y-15722427D02*
X6510887Y-15703379D01*
X6510887Y-15703379D02*
X6520410Y-15684332D01*
X6520410Y-15684332D02*
X6539458Y-15674808D01*
X6539458Y-15674808D02*
X6587077Y-15674808D01*
X6587077Y-15674808D02*
X6606125Y-15665284D01*
X6701363Y-15617665D02*
X6701363Y-15817665D01*
X6701363Y-15627189D02*
X6720410Y-15617665D01*
X6720410Y-15617665D02*
X6758506Y-15617665D01*
X6758506Y-15617665D02*
X6777553Y-15627189D01*
X6777553Y-15627189D02*
X6787077Y-15636713D01*
X6787077Y-15636713D02*
X6796601Y-15655760D01*
X6796601Y-15655760D02*
X6796601Y-15712903D01*
X6796601Y-15712903D02*
X6787077Y-15731951D01*
X6787077Y-15731951D02*
X6777553Y-15741475D01*
X6777553Y-15741475D02*
X6758506Y-15750998D01*
X6758506Y-15750998D02*
X6720410Y-15750998D01*
X6720410Y-15750998D02*
X6701363Y-15741475D01*
X6882315Y-15731951D02*
X6891839Y-15741475D01*
X6891839Y-15741475D02*
X6882315Y-15750998D01*
X6882315Y-15750998D02*
X6872791Y-15741475D01*
X6872791Y-15741475D02*
X6882315Y-15731951D01*
X6882315Y-15731951D02*
X6882315Y-15750998D01*
X6882315Y-15627189D02*
X6891839Y-15636713D01*
X6891839Y-15636713D02*
X6882315Y-15646236D01*
X6882315Y-15646236D02*
X6872791Y-15636713D01*
X6872791Y-15636713D02*
X6882315Y-15627189D01*
X6882315Y-15627189D02*
X6882315Y-15646236D01*
X5050110Y-15979515D02*
X5250110Y-16179515D01*
X5250110Y-15979515D02*
X5050110Y-16179515D01*
X5501363Y-15990046D02*
X5510887Y-15980522D01*
X5510887Y-15980522D02*
X5529934Y-15970998D01*
X5529934Y-15970998D02*
X5577553Y-15970998D01*
X5577553Y-15970998D02*
X5596601Y-15980522D01*
X5596601Y-15980522D02*
X5606125Y-15990046D01*
X5606125Y-15990046D02*
X5615649Y-16009094D01*
X5615649Y-16009094D02*
X5615649Y-16028141D01*
X5615649Y-16028141D02*
X5606125Y-16056713D01*
X5606125Y-16056713D02*
X5491839Y-16170998D01*
X5491839Y-16170998D02*
X5615649Y-16170998D01*
X5701363Y-16151951D02*
X5710887Y-16161475D01*
X5710887Y-16161475D02*
X5701363Y-16170998D01*
X5701363Y-16170998D02*
X5691839Y-16161475D01*
X5691839Y-16161475D02*
X5701363Y-16151951D01*
X5701363Y-16151951D02*
X5701363Y-16170998D01*
X5891839Y-15970998D02*
X5796601Y-15970998D01*
X5796601Y-15970998D02*
X5787077Y-16066236D01*
X5787077Y-16066236D02*
X5796601Y-16056713D01*
X5796601Y-16056713D02*
X5815649Y-16047189D01*
X5815649Y-16047189D02*
X5863268Y-16047189D01*
X5863268Y-16047189D02*
X5882315Y-16056713D01*
X5882315Y-16056713D02*
X5891839Y-16066236D01*
X5891839Y-16066236D02*
X5901363Y-16085284D01*
X5901363Y-16085284D02*
X5901363Y-16132903D01*
X5901363Y-16132903D02*
X5891839Y-16151951D01*
X5891839Y-16151951D02*
X5882315Y-16161475D01*
X5882315Y-16161475D02*
X5863268Y-16170998D01*
X5863268Y-16170998D02*
X5815649Y-16170998D01*
X5815649Y-16170998D02*
X5796601Y-16161475D01*
X5796601Y-16161475D02*
X5787077Y-16151951D01*
X6025172Y-15970998D02*
X6044220Y-15970998D01*
X6044220Y-15970998D02*
X6063268Y-15980522D01*
X6063268Y-15980522D02*
X6072791Y-15990046D01*
X6072791Y-15990046D02*
X6082315Y-16009094D01*
X6082315Y-16009094D02*
X6091839Y-16047189D01*
X6091839Y-16047189D02*
X6091839Y-16094808D01*
X6091839Y-16094808D02*
X6082315Y-16132903D01*
X6082315Y-16132903D02*
X6072791Y-16151951D01*
X6072791Y-16151951D02*
X6063268Y-16161475D01*
X6063268Y-16161475D02*
X6044220Y-16170998D01*
X6044220Y-16170998D02*
X6025172Y-16170998D01*
X6025172Y-16170998D02*
X6006125Y-16161475D01*
X6006125Y-16161475D02*
X5996601Y-16151951D01*
X5996601Y-16151951D02*
X5987077Y-16132903D01*
X5987077Y-16132903D02*
X5977553Y-16094808D01*
X5977553Y-16094808D02*
X5977553Y-16047189D01*
X5977553Y-16047189D02*
X5987077Y-16009094D01*
X5987077Y-16009094D02*
X5996601Y-15990046D01*
X5996601Y-15990046D02*
X6006125Y-15980522D01*
X6006125Y-15980522D02*
X6025172Y-15970998D01*
X6215649Y-15970998D02*
X6234696Y-15970998D01*
X6234696Y-15970998D02*
X6253744Y-15980522D01*
X6253744Y-15980522D02*
X6263268Y-15990046D01*
X6263268Y-15990046D02*
X6272791Y-16009094D01*
X6272791Y-16009094D02*
X6282315Y-16047189D01*
X6282315Y-16047189D02*
X6282315Y-16094808D01*
X6282315Y-16094808D02*
X6272791Y-16132903D01*
X6272791Y-16132903D02*
X6263268Y-16151951D01*
X6263268Y-16151951D02*
X6253744Y-16161475D01*
X6253744Y-16161475D02*
X6234696Y-16170998D01*
X6234696Y-16170998D02*
X6215649Y-16170998D01*
X6215649Y-16170998D02*
X6196601Y-16161475D01*
X6196601Y-16161475D02*
X6187077Y-16151951D01*
X6187077Y-16151951D02*
X6177553Y-16132903D01*
X6177553Y-16132903D02*
X6168030Y-16094808D01*
X6168030Y-16094808D02*
X6168030Y-16047189D01*
X6168030Y-16047189D02*
X6177553Y-16009094D01*
X6177553Y-16009094D02*
X6187077Y-15990046D01*
X6187077Y-15990046D02*
X6196601Y-15980522D01*
X6196601Y-15980522D02*
X6215649Y-15970998D01*
X6368030Y-16170998D02*
X6368030Y-16037665D01*
X6368030Y-16056713D02*
X6377553Y-16047189D01*
X6377553Y-16047189D02*
X6396601Y-16037665D01*
X6396601Y-16037665D02*
X6425172Y-16037665D01*
X6425172Y-16037665D02*
X6444220Y-16047189D01*
X6444220Y-16047189D02*
X6453744Y-16066236D01*
X6453744Y-16066236D02*
X6453744Y-16170998D01*
X6453744Y-16066236D02*
X6463268Y-16047189D01*
X6463268Y-16047189D02*
X6482315Y-16037665D01*
X6482315Y-16037665D02*
X6510887Y-16037665D01*
X6510887Y-16037665D02*
X6529934Y-16047189D01*
X6529934Y-16047189D02*
X6539458Y-16066236D01*
X6539458Y-16066236D02*
X6539458Y-16170998D01*
X6634696Y-16170998D02*
X6634696Y-16037665D01*
X6634696Y-16056713D02*
X6644220Y-16047189D01*
X6644220Y-16047189D02*
X6663268Y-16037665D01*
X6663268Y-16037665D02*
X6691839Y-16037665D01*
X6691839Y-16037665D02*
X6710887Y-16047189D01*
X6710887Y-16047189D02*
X6720411Y-16066236D01*
X6720411Y-16066236D02*
X6720411Y-16170998D01*
X6720411Y-16066236D02*
X6729934Y-16047189D01*
X6729934Y-16047189D02*
X6748982Y-16037665D01*
X6748982Y-16037665D02*
X6777553Y-16037665D01*
X6777553Y-16037665D02*
X6796601Y-16047189D01*
X6796601Y-16047189D02*
X6806125Y-16066236D01*
X6806125Y-16066236D02*
X6806125Y-16170998D01*
X7196601Y-15961475D02*
X7025173Y-16218617D01*
X7453744Y-15970998D02*
X7472792Y-15970998D01*
X7472792Y-15970998D02*
X7491839Y-15980522D01*
X7491839Y-15980522D02*
X7501363Y-15990046D01*
X7501363Y-15990046D02*
X7510887Y-16009094D01*
X7510887Y-16009094D02*
X7520411Y-16047189D01*
X7520411Y-16047189D02*
X7520411Y-16094808D01*
X7520411Y-16094808D02*
X7510887Y-16132903D01*
X7510887Y-16132903D02*
X7501363Y-16151951D01*
X7501363Y-16151951D02*
X7491839Y-16161475D01*
X7491839Y-16161475D02*
X7472792Y-16170998D01*
X7472792Y-16170998D02*
X7453744Y-16170998D01*
X7453744Y-16170998D02*
X7434696Y-16161475D01*
X7434696Y-16161475D02*
X7425173Y-16151951D01*
X7425173Y-16151951D02*
X7415649Y-16132903D01*
X7415649Y-16132903D02*
X7406125Y-16094808D01*
X7406125Y-16094808D02*
X7406125Y-16047189D01*
X7406125Y-16047189D02*
X7415649Y-16009094D01*
X7415649Y-16009094D02*
X7425173Y-15990046D01*
X7425173Y-15990046D02*
X7434696Y-15980522D01*
X7434696Y-15980522D02*
X7453744Y-15970998D01*
X7606125Y-16151951D02*
X7615649Y-16161475D01*
X7615649Y-16161475D02*
X7606125Y-16170998D01*
X7606125Y-16170998D02*
X7596601Y-16161475D01*
X7596601Y-16161475D02*
X7606125Y-16151951D01*
X7606125Y-16151951D02*
X7606125Y-16170998D01*
X7739458Y-15970998D02*
X7758506Y-15970998D01*
X7758506Y-15970998D02*
X7777554Y-15980522D01*
X7777554Y-15980522D02*
X7787077Y-15990046D01*
X7787077Y-15990046D02*
X7796601Y-16009094D01*
X7796601Y-16009094D02*
X7806125Y-16047189D01*
X7806125Y-16047189D02*
X7806125Y-16094808D01*
X7806125Y-16094808D02*
X7796601Y-16132903D01*
X7796601Y-16132903D02*
X7787077Y-16151951D01*
X7787077Y-16151951D02*
X7777554Y-16161475D01*
X7777554Y-16161475D02*
X7758506Y-16170998D01*
X7758506Y-16170998D02*
X7739458Y-16170998D01*
X7739458Y-16170998D02*
X7720411Y-16161475D01*
X7720411Y-16161475D02*
X7710887Y-16151951D01*
X7710887Y-16151951D02*
X7701363Y-16132903D01*
X7701363Y-16132903D02*
X7691839Y-16094808D01*
X7691839Y-16094808D02*
X7691839Y-16047189D01*
X7691839Y-16047189D02*
X7701363Y-16009094D01*
X7701363Y-16009094D02*
X7710887Y-15990046D01*
X7710887Y-15990046D02*
X7720411Y-15980522D01*
X7720411Y-15980522D02*
X7739458Y-15970998D01*
X7901363Y-16170998D02*
X7939458Y-16170998D01*
X7939458Y-16170998D02*
X7958506Y-16161475D01*
X7958506Y-16161475D02*
X7968030Y-16151951D01*
X7968030Y-16151951D02*
X7987077Y-16123379D01*
X7987077Y-16123379D02*
X7996601Y-16085284D01*
X7996601Y-16085284D02*
X7996601Y-16009094D01*
X7996601Y-16009094D02*
X7987077Y-15990046D01*
X7987077Y-15990046D02*
X7977554Y-15980522D01*
X7977554Y-15980522D02*
X7958506Y-15970998D01*
X7958506Y-15970998D02*
X7920411Y-15970998D01*
X7920411Y-15970998D02*
X7901363Y-15980522D01*
X7901363Y-15980522D02*
X7891839Y-15990046D01*
X7891839Y-15990046D02*
X7882315Y-16009094D01*
X7882315Y-16009094D02*
X7882315Y-16056713D01*
X7882315Y-16056713D02*
X7891839Y-16075760D01*
X7891839Y-16075760D02*
X7901363Y-16085284D01*
X7901363Y-16085284D02*
X7920411Y-16094808D01*
X7920411Y-16094808D02*
X7958506Y-16094808D01*
X7958506Y-16094808D02*
X7977554Y-16085284D01*
X7977554Y-16085284D02*
X7987077Y-16075760D01*
X7987077Y-16075760D02*
X7996601Y-16056713D01*
X8110887Y-16056713D02*
X8091839Y-16047189D01*
X8091839Y-16047189D02*
X8082315Y-16037665D01*
X8082315Y-16037665D02*
X8072792Y-16018617D01*
X8072792Y-16018617D02*
X8072792Y-16009094D01*
X8072792Y-16009094D02*
X8082315Y-15990046D01*
X8082315Y-15990046D02*
X8091839Y-15980522D01*
X8091839Y-15980522D02*
X8110887Y-15970998D01*
X8110887Y-15970998D02*
X8148982Y-15970998D01*
X8148982Y-15970998D02*
X8168030Y-15980522D01*
X8168030Y-15980522D02*
X8177554Y-15990046D01*
X8177554Y-15990046D02*
X8187077Y-16009094D01*
X8187077Y-16009094D02*
X8187077Y-16018617D01*
X8187077Y-16018617D02*
X8177554Y-16037665D01*
X8177554Y-16037665D02*
X8168030Y-16047189D01*
X8168030Y-16047189D02*
X8148982Y-16056713D01*
X8148982Y-16056713D02*
X8110887Y-16056713D01*
X8110887Y-16056713D02*
X8091839Y-16066236D01*
X8091839Y-16066236D02*
X8082315Y-16075760D01*
X8082315Y-16075760D02*
X8072792Y-16094808D01*
X8072792Y-16094808D02*
X8072792Y-16132903D01*
X8072792Y-16132903D02*
X8082315Y-16151951D01*
X8082315Y-16151951D02*
X8091839Y-16161475D01*
X8091839Y-16161475D02*
X8110887Y-16170998D01*
X8110887Y-16170998D02*
X8148982Y-16170998D01*
X8148982Y-16170998D02*
X8168030Y-16161475D01*
X8168030Y-16161475D02*
X8177554Y-16151951D01*
X8177554Y-16151951D02*
X8187077Y-16132903D01*
X8187077Y-16132903D02*
X8187077Y-16094808D01*
X8187077Y-16094808D02*
X8177554Y-16075760D01*
X8177554Y-16075760D02*
X8168030Y-16066236D01*
X8168030Y-16066236D02*
X8148982Y-16056713D01*
X8358506Y-16037665D02*
X8358506Y-16170998D01*
X8310887Y-15961475D02*
X8263268Y-16104332D01*
X8263268Y-16104332D02*
X8387077Y-16104332D01*
X8453744Y-15970998D02*
X8453744Y-16009094D01*
X8529935Y-15970998D02*
X8529935Y-16009094D01*
X8825173Y-16247189D02*
X8815649Y-16237665D01*
X8815649Y-16237665D02*
X8796601Y-16209094D01*
X8796601Y-16209094D02*
X8787078Y-16190046D01*
X8787078Y-16190046D02*
X8777554Y-16161475D01*
X8777554Y-16161475D02*
X8768030Y-16113855D01*
X8768030Y-16113855D02*
X8768030Y-16075760D01*
X8768030Y-16075760D02*
X8777554Y-16028141D01*
X8777554Y-16028141D02*
X8787078Y-15999570D01*
X8787078Y-15999570D02*
X8796601Y-15980522D01*
X8796601Y-15980522D02*
X8815649Y-15951951D01*
X8815649Y-15951951D02*
X8825173Y-15942427D01*
X8996601Y-15970998D02*
X8901363Y-15970998D01*
X8901363Y-15970998D02*
X8891839Y-16066236D01*
X8891839Y-16066236D02*
X8901363Y-16056713D01*
X8901363Y-16056713D02*
X8920411Y-16047189D01*
X8920411Y-16047189D02*
X8968030Y-16047189D01*
X8968030Y-16047189D02*
X8987078Y-16056713D01*
X8987078Y-16056713D02*
X8996601Y-16066236D01*
X8996601Y-16066236D02*
X9006125Y-16085284D01*
X9006125Y-16085284D02*
X9006125Y-16132903D01*
X9006125Y-16132903D02*
X8996601Y-16151951D01*
X8996601Y-16151951D02*
X8987078Y-16161475D01*
X8987078Y-16161475D02*
X8968030Y-16170998D01*
X8968030Y-16170998D02*
X8920411Y-16170998D01*
X8920411Y-16170998D02*
X8901363Y-16161475D01*
X8901363Y-16161475D02*
X8891839Y-16151951D01*
X9244220Y-16170998D02*
X9244220Y-15970998D01*
X9329935Y-16170998D02*
X9329935Y-16066236D01*
X9329935Y-16066236D02*
X9320411Y-16047189D01*
X9320411Y-16047189D02*
X9301363Y-16037665D01*
X9301363Y-16037665D02*
X9272792Y-16037665D01*
X9272792Y-16037665D02*
X9253744Y-16047189D01*
X9253744Y-16047189D02*
X9244220Y-16056713D01*
X9453744Y-16170998D02*
X9434697Y-16161475D01*
X9434697Y-16161475D02*
X9425173Y-16151951D01*
X9425173Y-16151951D02*
X9415649Y-16132903D01*
X9415649Y-16132903D02*
X9415649Y-16075760D01*
X9415649Y-16075760D02*
X9425173Y-16056713D01*
X9425173Y-16056713D02*
X9434697Y-16047189D01*
X9434697Y-16047189D02*
X9453744Y-16037665D01*
X9453744Y-16037665D02*
X9482316Y-16037665D01*
X9482316Y-16037665D02*
X9501363Y-16047189D01*
X9501363Y-16047189D02*
X9510887Y-16056713D01*
X9510887Y-16056713D02*
X9520411Y-16075760D01*
X9520411Y-16075760D02*
X9520411Y-16132903D01*
X9520411Y-16132903D02*
X9510887Y-16151951D01*
X9510887Y-16151951D02*
X9501363Y-16161475D01*
X9501363Y-16161475D02*
X9482316Y-16170998D01*
X9482316Y-16170998D02*
X9453744Y-16170998D01*
X9634697Y-16170998D02*
X9615649Y-16161475D01*
X9615649Y-16161475D02*
X9606125Y-16142427D01*
X9606125Y-16142427D02*
X9606125Y-15970998D01*
X9787078Y-16161475D02*
X9768030Y-16170998D01*
X9768030Y-16170998D02*
X9729935Y-16170998D01*
X9729935Y-16170998D02*
X9710887Y-16161475D01*
X9710887Y-16161475D02*
X9701363Y-16142427D01*
X9701363Y-16142427D02*
X9701363Y-16066236D01*
X9701363Y-16066236D02*
X9710887Y-16047189D01*
X9710887Y-16047189D02*
X9729935Y-16037665D01*
X9729935Y-16037665D02*
X9768030Y-16037665D01*
X9768030Y-16037665D02*
X9787078Y-16047189D01*
X9787078Y-16047189D02*
X9796601Y-16066236D01*
X9796601Y-16066236D02*
X9796601Y-16085284D01*
X9796601Y-16085284D02*
X9701363Y-16104332D01*
X9872792Y-16161475D02*
X9891840Y-16170998D01*
X9891840Y-16170998D02*
X9929935Y-16170998D01*
X9929935Y-16170998D02*
X9948982Y-16161475D01*
X9948982Y-16161475D02*
X9958506Y-16142427D01*
X9958506Y-16142427D02*
X9958506Y-16132903D01*
X9958506Y-16132903D02*
X9948982Y-16113855D01*
X9948982Y-16113855D02*
X9929935Y-16104332D01*
X9929935Y-16104332D02*
X9901363Y-16104332D01*
X9901363Y-16104332D02*
X9882316Y-16094808D01*
X9882316Y-16094808D02*
X9872792Y-16075760D01*
X9872792Y-16075760D02*
X9872792Y-16066236D01*
X9872792Y-16066236D02*
X9882316Y-16047189D01*
X9882316Y-16047189D02*
X9901363Y-16037665D01*
X9901363Y-16037665D02*
X9929935Y-16037665D01*
X9929935Y-16037665D02*
X9948982Y-16047189D01*
X10025173Y-16247189D02*
X10034697Y-16237665D01*
X10034697Y-16237665D02*
X10053744Y-16209094D01*
X10053744Y-16209094D02*
X10063268Y-16190046D01*
X10063268Y-16190046D02*
X10072792Y-16161475D01*
X10072792Y-16161475D02*
X10082316Y-16113855D01*
X10082316Y-16113855D02*
X10082316Y-16075760D01*
X10082316Y-16075760D02*
X10072792Y-16028141D01*
X10072792Y-16028141D02*
X10063268Y-15999570D01*
X10063268Y-15999570D02*
X10053744Y-15980522D01*
X10053744Y-15980522D02*
X10034697Y-15951951D01*
X10034697Y-15951951D02*
X10025173Y-15942427D01*
M02*
