%TF.GenerationSoftware,KiCad,Pcbnew,7.0.7*%
%TF.CreationDate,2024-04-21T22:40:59+02:00*%
%TF.ProjectId,isokey_left_frame,69736f6b-6579-45f6-9c65-66745f667261,rev?*%
%TF.SameCoordinates,Original*%
%TF.FileFunction,Legend,Bot*%
%TF.FilePolarity,Positive*%
%FSLAX46Y46*%
G04 Gerber Fmt 4.6, Leading zero omitted, Abs format (unit mm)*
G04 Created by KiCad (PCBNEW 7.0.7) date 2024-04-21 22:40:59*
%MOMM*%
%LPD*%
G01*
G04 APERTURE LIST*
%ADD10C,0.300000*%
%ADD11C,0.500000*%
%ADD12C,0.600000*%
%ADD13C,0.350000*%
G04 APERTURE END LIST*
D10*
G36*
X75247191Y-43928335D02*
G01*
X75276171Y-43930552D01*
X75304378Y-43934668D01*
X75331813Y-43940684D01*
X75358474Y-43948600D01*
X75384363Y-43958415D01*
X75409479Y-43970131D01*
X75433822Y-43983746D01*
X75457393Y-43999261D01*
X75480190Y-44016676D01*
X75502215Y-44035990D01*
X75516235Y-44049655D01*
X75535745Y-44070734D01*
X75553430Y-44092510D01*
X75569290Y-44114984D01*
X75583326Y-44138155D01*
X75595537Y-44162024D01*
X75605923Y-44186591D01*
X75614485Y-44211855D01*
X75621221Y-44237818D01*
X75626134Y-44264477D01*
X75629221Y-44291835D01*
X75646662Y-44298017D01*
X75670753Y-44302235D01*
X75696141Y-44303552D01*
X75721423Y-44302826D01*
X75736870Y-44301356D01*
X75761291Y-44297077D01*
X75787216Y-44290308D01*
X75814643Y-44281049D01*
X75838647Y-44271431D01*
X75863695Y-44260083D01*
X75856978Y-44335799D01*
X75850719Y-44362551D01*
X75842934Y-44388463D01*
X75833622Y-44413536D01*
X75822784Y-44437770D01*
X75817734Y-44445245D01*
X75801527Y-44466697D01*
X75783731Y-44486690D01*
X75764347Y-44505223D01*
X75743374Y-44522296D01*
X75720812Y-44537909D01*
X75711119Y-44542937D01*
X75686218Y-44554088D01*
X75660362Y-44563212D01*
X75633553Y-44570307D01*
X75605789Y-44575376D01*
X75577072Y-44578417D01*
X75547400Y-44579431D01*
X75544364Y-44586277D01*
X75538354Y-44610415D01*
X75538664Y-44636580D01*
X75544347Y-44661863D01*
X75548867Y-44671976D01*
X75561511Y-44694988D01*
X75575352Y-44717161D01*
X75590007Y-44739143D01*
X75604187Y-44759560D01*
X75618459Y-44780114D01*
X75633972Y-44803126D01*
X75647725Y-44824335D01*
X75661545Y-44846800D01*
X75674406Y-44869469D01*
X75682564Y-44888551D01*
X75691231Y-44912402D01*
X75698199Y-44936254D01*
X75704317Y-44964877D01*
X75707987Y-44993499D01*
X75709211Y-45022121D01*
X75708960Y-45039423D01*
X75707646Y-45064714D01*
X75705204Y-45089211D01*
X75700195Y-45120639D01*
X75693182Y-45150654D01*
X75684167Y-45179257D01*
X75673147Y-45206448D01*
X75660124Y-45232227D01*
X75645097Y-45256594D01*
X75631797Y-45275208D01*
X75613402Y-45297161D01*
X75593038Y-45317652D01*
X75570707Y-45336683D01*
X75546408Y-45354253D01*
X75525552Y-45367257D01*
X75503436Y-45379326D01*
X75495749Y-45382918D01*
X75472028Y-45392836D01*
X75447320Y-45401465D01*
X75421625Y-45408807D01*
X75394941Y-45414861D01*
X75367271Y-45419626D01*
X75304378Y-45426953D01*
X74842149Y-45426953D01*
X74833664Y-45426880D01*
X74808508Y-45425770D01*
X74783804Y-45423330D01*
X74759550Y-45419559D01*
X74727913Y-45412461D01*
X74697077Y-45402997D01*
X74667043Y-45391166D01*
X74637810Y-45376970D01*
X74616411Y-45364769D01*
X74595464Y-45351238D01*
X74589873Y-45347182D01*
X74567891Y-45329980D01*
X74546520Y-45311214D01*
X74525759Y-45290882D01*
X74505609Y-45268986D01*
X74486069Y-45245526D01*
X74467141Y-45220500D01*
X74448822Y-45193910D01*
X74435484Y-45172941D01*
X74422108Y-45150482D01*
X74409152Y-45127069D01*
X74396616Y-45102702D01*
X74384499Y-45077381D01*
X74372802Y-45051106D01*
X74361525Y-45023876D01*
X74350667Y-44995693D01*
X74340230Y-44966556D01*
X74337119Y-44956070D01*
X74329511Y-44929607D01*
X74322141Y-44902785D01*
X74315009Y-44875606D01*
X74308116Y-44848069D01*
X74301461Y-44820175D01*
X74295045Y-44791922D01*
X74304204Y-44716207D01*
X74310347Y-44720624D01*
X74331909Y-44734648D01*
X74355141Y-44747600D01*
X74377477Y-44758339D01*
X74394491Y-44766036D01*
X74418462Y-44773177D01*
X74443902Y-44776750D01*
X74470812Y-44776755D01*
X74499191Y-44773192D01*
X74529039Y-44766060D01*
X74552390Y-44758370D01*
X74576566Y-44748672D01*
X74601570Y-44736967D01*
X74623697Y-44726329D01*
X74656861Y-44711410D01*
X74689993Y-44697736D01*
X74723093Y-44685307D01*
X74756161Y-44674123D01*
X74789196Y-44664184D01*
X74822199Y-44655490D01*
X74855170Y-44648041D01*
X74888109Y-44641837D01*
X74921016Y-44636878D01*
X74953890Y-44633164D01*
X74949196Y-44629570D01*
X74929656Y-44610469D01*
X74914200Y-44591185D01*
X74898058Y-44567650D01*
X74884080Y-44544791D01*
X74869626Y-44518981D01*
X74858607Y-44496779D01*
X74849056Y-44474139D01*
X74840975Y-44451060D01*
X74834364Y-44427542D01*
X74829221Y-44403585D01*
X74825548Y-44379190D01*
X74823344Y-44354355D01*
X74822609Y-44329082D01*
X74823468Y-44302015D01*
X74824456Y-44291835D01*
X75246981Y-44291835D01*
X75249605Y-44315889D01*
X75258552Y-44339732D01*
X75273848Y-44360833D01*
X75294051Y-44376825D01*
X75317716Y-44386178D01*
X75342236Y-44388921D01*
X75366613Y-44386178D01*
X75390672Y-44376825D01*
X75411845Y-44360833D01*
X75426657Y-44341764D01*
X75436614Y-44318170D01*
X75439933Y-44291835D01*
X75437190Y-44267959D01*
X75427837Y-44244726D01*
X75411845Y-44224668D01*
X75392835Y-44210500D01*
X75369445Y-44200976D01*
X75343457Y-44197801D01*
X75318031Y-44200425D01*
X75293919Y-44209372D01*
X75273848Y-44224668D01*
X75259680Y-44242509D01*
X75250156Y-44265440D01*
X75246981Y-44291835D01*
X74824456Y-44291835D01*
X74826044Y-44275463D01*
X74830337Y-44249426D01*
X74836348Y-44223905D01*
X74844076Y-44198898D01*
X74853521Y-44174407D01*
X74864684Y-44150432D01*
X74877564Y-44126971D01*
X74891761Y-44104254D01*
X74907178Y-44082816D01*
X74923818Y-44062657D01*
X74941678Y-44043776D01*
X74960759Y-44026173D01*
X74981062Y-44009849D01*
X75002586Y-43994803D01*
X75025331Y-43981036D01*
X75048925Y-43968585D01*
X75072996Y-43957795D01*
X75097545Y-43948664D01*
X75122570Y-43941194D01*
X75148073Y-43935383D01*
X75174052Y-43931233D01*
X75200508Y-43928743D01*
X75227442Y-43927913D01*
X75247191Y-43928335D01*
G37*
G36*
X80008426Y-44161625D02*
G01*
X79883496Y-44161625D01*
X79883496Y-45191475D01*
X79273866Y-45191475D01*
X79273866Y-45341685D01*
X80008426Y-45341685D01*
X80008426Y-44161625D01*
G37*
G36*
X78935362Y-44418314D02*
G01*
X78950103Y-44424840D01*
X78961947Y-44433976D01*
X78972348Y-44444825D01*
X79076029Y-44577815D01*
X79080494Y-44584919D01*
X79087638Y-44598337D01*
X79092829Y-44612174D01*
X79095080Y-44627274D01*
X79095080Y-45137986D01*
X79094713Y-45148144D01*
X79092601Y-45162832D01*
X79087980Y-45177058D01*
X79080059Y-45190010D01*
X78973447Y-45315673D01*
X78970580Y-45319536D01*
X78959303Y-45329668D01*
X78945378Y-45335579D01*
X78930582Y-45337288D01*
X78448080Y-45337288D01*
X78448080Y-45195872D01*
X78904570Y-45195872D01*
X78971615Y-45108311D01*
X78971615Y-44957369D01*
X78452477Y-44957369D01*
X78452477Y-44803129D01*
X78573743Y-44803129D01*
X78969417Y-44803129D01*
X78969417Y-44656584D01*
X78900540Y-44569389D01*
X78641521Y-44569389D01*
X78573743Y-44654385D01*
X78573743Y-44803129D01*
X78452477Y-44803129D01*
X78452477Y-44625076D01*
X78452628Y-44619599D01*
X78454898Y-44604211D01*
X78460616Y-44588948D01*
X78469696Y-44575617D01*
X78569713Y-44445191D01*
X78575864Y-44437064D01*
X78587926Y-44425907D01*
X78601263Y-44419213D01*
X78615875Y-44416981D01*
X78925087Y-44416981D01*
X78935362Y-44418314D01*
G37*
G36*
X77778367Y-44181043D02*
G01*
X77839916Y-44259811D01*
X77839916Y-44416981D01*
X77632920Y-44416981D01*
X77632920Y-44569389D01*
X77842114Y-44569389D01*
X77842114Y-45341685D01*
X77966678Y-45341685D01*
X77966678Y-44569389D01*
X78177704Y-44569389D01*
X78177704Y-44416981D01*
X77966678Y-44416981D01*
X77966678Y-44230502D01*
X77965670Y-44215458D01*
X77962128Y-44200231D01*
X77956036Y-44186800D01*
X77950558Y-44178845D01*
X77852372Y-44054281D01*
X77840870Y-44042946D01*
X77828209Y-44035321D01*
X77812782Y-44031200D01*
X77806210Y-44030833D01*
X77530704Y-44030833D01*
X77530704Y-44181043D01*
X77778367Y-44181043D01*
G37*
G36*
X76827651Y-45169860D02*
G01*
X76811165Y-45191475D01*
X76722138Y-45191475D01*
X76722138Y-45341685D01*
X76838276Y-45341685D01*
X76853116Y-45339395D01*
X76866955Y-45332526D01*
X76878554Y-45322428D01*
X76882240Y-45318237D01*
X76934996Y-45252658D01*
X76943851Y-45239833D01*
X76949808Y-45225675D01*
X76952867Y-45210183D01*
X76953314Y-45201001D01*
X76953314Y-44569389D01*
X77164340Y-44569389D01*
X77164340Y-44416981D01*
X76953314Y-44416981D01*
X76953314Y-44030833D01*
X76827651Y-44030833D01*
X76827651Y-44416981D01*
X76617725Y-44416981D01*
X76617725Y-44569389D01*
X76827651Y-44569389D01*
X76827651Y-45169860D01*
G37*
G36*
X80054727Y-42161625D02*
G01*
X79726099Y-42161625D01*
X79726099Y-42311835D01*
X79828681Y-42311835D01*
X79828681Y-43191475D01*
X79726099Y-43191475D01*
X79726099Y-43343883D01*
X80054727Y-43343883D01*
X80054727Y-43191475D01*
X79954344Y-43191475D01*
X79954344Y-42311835D01*
X80054727Y-42311835D01*
X80054727Y-42161625D01*
G37*
G36*
X78830338Y-42652187D02*
G01*
X78898848Y-42567191D01*
X79150174Y-42567191D01*
X79190108Y-42617749D01*
X78720795Y-43076803D01*
X78710857Y-43088596D01*
X78703759Y-43101625D01*
X78699500Y-43115890D01*
X78698080Y-43131392D01*
X78699225Y-43147672D01*
X78702660Y-43162441D01*
X78709261Y-43177250D01*
X78716399Y-43187445D01*
X78824110Y-43318237D01*
X78835525Y-43329572D01*
X78849363Y-43337815D01*
X78864419Y-43341479D01*
X78869173Y-43341685D01*
X79177285Y-43341685D01*
X79192705Y-43339395D01*
X79206909Y-43332526D01*
X79218652Y-43322428D01*
X79222348Y-43318237D01*
X79327861Y-43191475D01*
X79336184Y-43178653D01*
X79341784Y-43164093D01*
X79344659Y-43147793D01*
X79345080Y-43137986D01*
X79345080Y-43066912D01*
X79219417Y-43066912D01*
X79219417Y-43106479D01*
X79150540Y-43191475D01*
X78894818Y-43191475D01*
X78854152Y-43140917D01*
X79320900Y-42684427D01*
X79331025Y-42672485D01*
X79337874Y-42657760D01*
X79342161Y-42641508D01*
X79343981Y-42629839D01*
X79343981Y-42621779D01*
X79342706Y-42606548D01*
X79338298Y-42591121D01*
X79330741Y-42577268D01*
X79327861Y-42573419D01*
X79225279Y-42440429D01*
X79213806Y-42429094D01*
X79201232Y-42421469D01*
X79185969Y-42417348D01*
X79179483Y-42416981D01*
X78872470Y-42416981D01*
X78857629Y-42419271D01*
X78843790Y-42426140D01*
X78832192Y-42436238D01*
X78828506Y-42440429D01*
X78721894Y-42568656D01*
X78712862Y-42581807D01*
X78706786Y-42596116D01*
X78703666Y-42611585D01*
X78703210Y-42620680D01*
X78703210Y-42700181D01*
X78830338Y-42700181D01*
X78830338Y-42652187D01*
G37*
G36*
X78265366Y-42414859D02*
G01*
X78280500Y-42417514D01*
X78293702Y-42423961D01*
X78304972Y-42434200D01*
X78408653Y-42567557D01*
X78413118Y-42574575D01*
X78420262Y-42587856D01*
X78425452Y-42601592D01*
X78427704Y-42616650D01*
X78427704Y-43137986D01*
X78427274Y-43148575D01*
X78424801Y-43163842D01*
X78419392Y-43178554D01*
X78410118Y-43191842D01*
X78304605Y-43314574D01*
X78292426Y-43324427D01*
X78277873Y-43331051D01*
X78262107Y-43333258D01*
X77943370Y-43333258D01*
X77937142Y-43333258D01*
X77922452Y-43331326D01*
X77908854Y-43324738D01*
X77897941Y-43313475D01*
X77798656Y-43189277D01*
X77794449Y-43182625D01*
X77787033Y-43167910D01*
X77782457Y-43153542D01*
X77780704Y-43137986D01*
X77780704Y-43108311D01*
X77906367Y-43108311D01*
X77969382Y-43189277D01*
X78235362Y-43189277D01*
X78302041Y-43108311D01*
X78302041Y-42648157D01*
X78234996Y-42562794D01*
X77968283Y-42562794D01*
X77906367Y-42647791D01*
X77906367Y-43108311D01*
X77780704Y-43108311D01*
X77780704Y-42620680D01*
X77780856Y-42615848D01*
X77783546Y-42600392D01*
X77789600Y-42585938D01*
X77797923Y-42573785D01*
X77892812Y-42440795D01*
X77899085Y-42433301D01*
X77911415Y-42423013D01*
X77925077Y-42416841D01*
X77940073Y-42414783D01*
X78262107Y-42414783D01*
X78265366Y-42414859D01*
G37*
G36*
X77375139Y-43040533D02*
G01*
X77375139Y-43341685D01*
X77506297Y-43341685D01*
X77506297Y-42161625D01*
X77375139Y-42161625D01*
X77375139Y-42821081D01*
X76897400Y-42209619D01*
X76897400Y-42161625D01*
X76772470Y-42161625D01*
X76772470Y-42238928D01*
X76773948Y-42255012D01*
X76778382Y-42269879D01*
X76785772Y-42283529D01*
X76791154Y-42290586D01*
X77152390Y-42751838D01*
X76788956Y-43212725D01*
X76780633Y-43225402D01*
X76775033Y-43239528D01*
X76772157Y-43255103D01*
X76771737Y-43264382D01*
X76771737Y-43341685D01*
X76897400Y-43341685D01*
X76897400Y-43293691D01*
X77239951Y-42859549D01*
X77375139Y-43040533D01*
G37*
G36*
X76433234Y-42418314D02*
G01*
X76447974Y-42424840D01*
X76459818Y-42433976D01*
X76470219Y-42444825D01*
X76573900Y-42577815D01*
X76578365Y-42584919D01*
X76585510Y-42598337D01*
X76590700Y-42612174D01*
X76592951Y-42627274D01*
X76592951Y-43137986D01*
X76592585Y-43148144D01*
X76590472Y-43162832D01*
X76585852Y-43177058D01*
X76577930Y-43190010D01*
X76471318Y-43315673D01*
X76468452Y-43319536D01*
X76457174Y-43329668D01*
X76443250Y-43335579D01*
X76428454Y-43337288D01*
X75945952Y-43337288D01*
X75945952Y-43195872D01*
X76402442Y-43195872D01*
X76469487Y-43108311D01*
X76469487Y-42957369D01*
X75950348Y-42957369D01*
X75950348Y-42803129D01*
X76071615Y-42803129D01*
X76467288Y-42803129D01*
X76467288Y-42656584D01*
X76398412Y-42569389D01*
X76139392Y-42569389D01*
X76071615Y-42654385D01*
X76071615Y-42803129D01*
X75950348Y-42803129D01*
X75950348Y-42625076D01*
X75950500Y-42619599D01*
X75952770Y-42604211D01*
X75958487Y-42588948D01*
X75967568Y-42575617D01*
X76067585Y-42445191D01*
X76073735Y-42437064D01*
X76085797Y-42425907D01*
X76099135Y-42419213D01*
X76113747Y-42416981D01*
X76422958Y-42416981D01*
X76433234Y-42418314D01*
G37*
G36*
X75388712Y-43268778D02*
G01*
X75658356Y-42932090D01*
X75666680Y-42919412D01*
X75672279Y-42905286D01*
X75675155Y-42889711D01*
X75675575Y-42880432D01*
X75675575Y-42416981D01*
X75549912Y-42416981D01*
X75549912Y-42851123D01*
X75300785Y-43159235D01*
X75156437Y-42981915D01*
X75156437Y-42416981D01*
X75030774Y-42416981D01*
X75030774Y-43011224D01*
X75031850Y-43025856D01*
X75035634Y-43040948D01*
X75042141Y-43054591D01*
X75047993Y-43062882D01*
X75582519Y-43721971D01*
X75669347Y-43614626D01*
X75388712Y-43268778D01*
G37*
G36*
X73715160Y-42605659D02*
G01*
X73469330Y-43117103D01*
X73219469Y-42599431D01*
X73219469Y-42419180D01*
X73093440Y-42419180D01*
X73093440Y-42618848D01*
X73094710Y-42633494D01*
X73098519Y-42648262D01*
X73101133Y-42655118D01*
X73414375Y-43305415D01*
X73422112Y-43318488D01*
X73432635Y-43330321D01*
X73446637Y-43339337D01*
X73462746Y-43343545D01*
X73469330Y-43343883D01*
X73484231Y-43342042D01*
X73499286Y-43335430D01*
X73510732Y-43325701D01*
X73520564Y-43312289D01*
X73524284Y-43305415D01*
X73833496Y-42661346D01*
X73838240Y-42646523D01*
X73840565Y-42631821D01*
X73840823Y-42625076D01*
X73840823Y-42419180D01*
X73715160Y-42419180D01*
X73715160Y-42605659D01*
G37*
G36*
X72184856Y-42028635D02*
G01*
X72184856Y-42178845D01*
X72794487Y-42178845D01*
X72794487Y-42414783D01*
X72452669Y-42414783D01*
X72437406Y-42417073D01*
X72423216Y-42423942D01*
X72411364Y-42434040D01*
X72407606Y-42438230D01*
X72202442Y-42691388D01*
X72193168Y-42703989D01*
X72187759Y-42718083D01*
X72185286Y-42732801D01*
X72184856Y-42743046D01*
X72184856Y-43009026D01*
X72185933Y-43023658D01*
X72189716Y-43038750D01*
X72196224Y-43052393D01*
X72202076Y-43060683D01*
X72408339Y-43315673D01*
X72417944Y-43327184D01*
X72431811Y-43335556D01*
X72447168Y-43339115D01*
X72454867Y-43339487D01*
X72913921Y-43339487D01*
X72913921Y-43189277D01*
X72479413Y-43189277D01*
X72308321Y-42977519D01*
X72308321Y-42772721D01*
X72477215Y-42564993D01*
X72919417Y-42564993D01*
X72919417Y-42028635D01*
X72184856Y-42028635D01*
G37*
G36*
X70573953Y-42652187D02*
G01*
X70642463Y-42567191D01*
X70893789Y-42567191D01*
X70933722Y-42617749D01*
X70464410Y-43076803D01*
X70454472Y-43088596D01*
X70447374Y-43101625D01*
X70443115Y-43115890D01*
X70441695Y-43131392D01*
X70442840Y-43147672D01*
X70446275Y-43162441D01*
X70452876Y-43177250D01*
X70460013Y-43187445D01*
X70567725Y-43318237D01*
X70579139Y-43329572D01*
X70592978Y-43337815D01*
X70608034Y-43341479D01*
X70612787Y-43341685D01*
X70920900Y-43341685D01*
X70936320Y-43339395D01*
X70950524Y-43332526D01*
X70962267Y-43322428D01*
X70965963Y-43318237D01*
X71071475Y-43191475D01*
X71079799Y-43178653D01*
X71085399Y-43164093D01*
X71088274Y-43147793D01*
X71088695Y-43137986D01*
X71088695Y-43066912D01*
X70963032Y-43066912D01*
X70963032Y-43106479D01*
X70894155Y-43191475D01*
X70638433Y-43191475D01*
X70597766Y-43140917D01*
X71064514Y-42684427D01*
X71074640Y-42672485D01*
X71081489Y-42657760D01*
X71085776Y-42641508D01*
X71087595Y-42629839D01*
X71087595Y-42621779D01*
X71086320Y-42606548D01*
X71081913Y-42591121D01*
X71074356Y-42577268D01*
X71071475Y-42573419D01*
X70968893Y-42440429D01*
X70957421Y-42429094D01*
X70944846Y-42421469D01*
X70929584Y-42417348D01*
X70923098Y-42416981D01*
X70616085Y-42416981D01*
X70601244Y-42419271D01*
X70587405Y-42426140D01*
X70575807Y-42436238D01*
X70572121Y-42440429D01*
X70465509Y-42568656D01*
X70456477Y-42581807D01*
X70450401Y-42596116D01*
X70447280Y-42611585D01*
X70446824Y-42620680D01*
X70446824Y-42700181D01*
X70573953Y-42700181D01*
X70573953Y-42652187D01*
G37*
G36*
X70171318Y-43727833D02*
G01*
X70045655Y-43727833D01*
X70045655Y-43339487D01*
X69791399Y-43339487D01*
X69786350Y-43339277D01*
X69771008Y-43335556D01*
X69757956Y-43327184D01*
X69748168Y-43315673D01*
X69542637Y-43060683D01*
X69537360Y-43053626D01*
X69530115Y-43039977D01*
X69525768Y-43025110D01*
X69524319Y-43009026D01*
X69524319Y-42979717D01*
X69649249Y-42979717D01*
X69819242Y-43191475D01*
X70045655Y-43191475D01*
X70045655Y-42569389D01*
X69808618Y-42569389D01*
X69649249Y-42756235D01*
X69649249Y-42979717D01*
X69524319Y-42979717D01*
X69524319Y-42726193D01*
X69524757Y-42718855D01*
X69528264Y-42703427D01*
X69534417Y-42688686D01*
X69542271Y-42674902D01*
X69752564Y-42425774D01*
X69755941Y-42422080D01*
X69769508Y-42414755D01*
X69784071Y-42412951D01*
X70171318Y-42412951D01*
X70171318Y-43727833D01*
G37*
G36*
X68821266Y-43169860D02*
G01*
X68804780Y-43191475D01*
X68715753Y-43191475D01*
X68715753Y-43341685D01*
X68831891Y-43341685D01*
X68846731Y-43339395D01*
X68860570Y-43332526D01*
X68872169Y-43322428D01*
X68875854Y-43318237D01*
X68928611Y-43252658D01*
X68937466Y-43239833D01*
X68943423Y-43225675D01*
X68946482Y-43210183D01*
X68946929Y-43201001D01*
X68946929Y-42030833D01*
X68821266Y-42030833D01*
X68821266Y-43169860D01*
G37*
G36*
X68029553Y-42030833D02*
G01*
X67902791Y-42030833D01*
X67902791Y-42183241D01*
X68029553Y-42183241D01*
X68029553Y-42030833D01*
G37*
G36*
X68029553Y-42416981D02*
G01*
X67902791Y-42416981D01*
X67902791Y-43341685D01*
X68029553Y-43341685D01*
X68029553Y-42416981D01*
G37*
G36*
X66986514Y-43169860D02*
G01*
X66970027Y-43191475D01*
X66881001Y-43191475D01*
X66881001Y-43341685D01*
X66997138Y-43341685D01*
X67011979Y-43339395D01*
X67025818Y-43332526D01*
X67037416Y-43322428D01*
X67041102Y-43318237D01*
X67093859Y-43252658D01*
X67102714Y-43239833D01*
X67108671Y-43225675D01*
X67111730Y-43210183D01*
X67112177Y-43201001D01*
X67112177Y-42569389D01*
X67323203Y-42569389D01*
X67323203Y-42416981D01*
X67112177Y-42416981D01*
X67112177Y-42030833D01*
X66986514Y-42030833D01*
X66986514Y-42416981D01*
X66776587Y-42416981D01*
X66776587Y-42569389D01*
X66986514Y-42569389D01*
X66986514Y-43169860D01*
G37*
G36*
X98927930Y-153339487D02*
G01*
X98803000Y-153339487D01*
X98803000Y-152824745D01*
X98695655Y-152824745D01*
X98316834Y-153302117D01*
X98316834Y-153339487D01*
X98193370Y-153339487D01*
X98193370Y-153260352D01*
X98193790Y-153251073D01*
X98196665Y-153235498D01*
X98202265Y-153221372D01*
X98210589Y-153208695D01*
X98519067Y-152824745D01*
X98356768Y-152824745D01*
X98352076Y-152824539D01*
X98337136Y-152820875D01*
X98323268Y-152812632D01*
X98311705Y-152801297D01*
X98210589Y-152674535D01*
X98204737Y-152666245D01*
X98198229Y-152652602D01*
X98194446Y-152637510D01*
X98193370Y-152622878D01*
X98193370Y-152593569D01*
X98319032Y-152593569D01*
X98384612Y-152674535D01*
X98803000Y-152674535D01*
X98803000Y-152311835D01*
X98386443Y-152311835D01*
X98319032Y-152395000D01*
X98319032Y-152593569D01*
X98193370Y-152593569D01*
X98193370Y-152363492D01*
X98193790Y-152354213D01*
X98196665Y-152338638D01*
X98202265Y-152324512D01*
X98210589Y-152311835D01*
X98315002Y-152185073D01*
X98318698Y-152180882D01*
X98330441Y-152170785D01*
X98344645Y-152163915D01*
X98360065Y-152161625D01*
X98927930Y-152161625D01*
X98927930Y-153339487D01*
G37*
G36*
X97854866Y-152418314D02*
G01*
X97869607Y-152424840D01*
X97881451Y-152433976D01*
X97891852Y-152444825D01*
X97995533Y-152577815D01*
X97999998Y-152584919D01*
X98007142Y-152598337D01*
X98012333Y-152612174D01*
X98014584Y-152627274D01*
X98014584Y-153137986D01*
X98014217Y-153148144D01*
X98012105Y-153162832D01*
X98007484Y-153177058D01*
X97999563Y-153190010D01*
X97892951Y-153315673D01*
X97890084Y-153319536D01*
X97878807Y-153329668D01*
X97864882Y-153335579D01*
X97850086Y-153337288D01*
X97367584Y-153337288D01*
X97367584Y-153195872D01*
X97824074Y-153195872D01*
X97891119Y-153108311D01*
X97891119Y-152957369D01*
X97371981Y-152957369D01*
X97371981Y-152803129D01*
X97493247Y-152803129D01*
X97888921Y-152803129D01*
X97888921Y-152656584D01*
X97820044Y-152569389D01*
X97561025Y-152569389D01*
X97493247Y-152654385D01*
X97493247Y-152803129D01*
X97371981Y-152803129D01*
X97371981Y-152625076D01*
X97372132Y-152619599D01*
X97374402Y-152604211D01*
X97380120Y-152588948D01*
X97389200Y-152575617D01*
X97489217Y-152445191D01*
X97495368Y-152437064D01*
X97507430Y-152425907D01*
X97520767Y-152419213D01*
X97535379Y-152416981D01*
X97844591Y-152416981D01*
X97854866Y-152418314D01*
G37*
G36*
X96971545Y-152605659D02*
G01*
X96725714Y-153117103D01*
X96475854Y-152599431D01*
X96475854Y-152419180D01*
X96349824Y-152419180D01*
X96349824Y-152618848D01*
X96351094Y-152633494D01*
X96354904Y-152648262D01*
X96357518Y-152655118D01*
X96670760Y-153305415D01*
X96678496Y-153318488D01*
X96689020Y-153330321D01*
X96703022Y-153339337D01*
X96719130Y-153343545D01*
X96725714Y-153343883D01*
X96740616Y-153342042D01*
X96755671Y-153335430D01*
X96767116Y-153325701D01*
X96776949Y-153312289D01*
X96780669Y-153305415D01*
X97089880Y-152661346D01*
X97094624Y-152646523D01*
X97096950Y-152631821D01*
X97097208Y-152625076D01*
X97097208Y-152419180D01*
X96971545Y-152419180D01*
X96971545Y-152605659D01*
G37*
G36*
X95972103Y-153081933D02*
G01*
X95746056Y-153081933D01*
X95746056Y-153339487D01*
X95972103Y-153339487D01*
X95972103Y-153081933D01*
G37*
G36*
X94898994Y-152161835D02*
G01*
X94913706Y-152165556D01*
X94926772Y-152173928D01*
X94937124Y-152185439D01*
X95240107Y-152567557D01*
X95243381Y-152572471D01*
X95251270Y-152586826D01*
X95256636Y-152602095D01*
X95258425Y-152616650D01*
X95258425Y-153341685D01*
X95133495Y-153341685D01*
X95133495Y-152930258D01*
X94649528Y-152930258D01*
X94649528Y-153341685D01*
X94523865Y-153341685D01*
X94523865Y-152788475D01*
X94649528Y-152788475D01*
X95132396Y-152788475D01*
X95132396Y-152648157D01*
X94892061Y-152348471D01*
X94649528Y-152650355D01*
X94649528Y-152788475D01*
X94523865Y-152788475D01*
X94523865Y-152620680D01*
X94524117Y-152612740D01*
X94526525Y-152596424D01*
X94531484Y-152582253D01*
X94539985Y-152569023D01*
X94845899Y-152185073D01*
X94851813Y-152178318D01*
X94863991Y-152169044D01*
X94878140Y-152163480D01*
X94894259Y-152161625D01*
X94898994Y-152161835D01*
G37*
G36*
X98833774Y-150564993D02*
G01*
X98478767Y-150564993D01*
X98415020Y-150645959D01*
X98415020Y-150805327D01*
X98768195Y-150805327D01*
X98773332Y-150805514D01*
X98789246Y-150808834D01*
X98803299Y-150816305D01*
X98814357Y-150826577D01*
X98915107Y-150955903D01*
X98919057Y-150962229D01*
X98926019Y-150976503D01*
X98930314Y-150990835D01*
X98931960Y-151006828D01*
X98931960Y-151133590D01*
X98931539Y-151143255D01*
X98928664Y-151159165D01*
X98923064Y-151173163D01*
X98914741Y-151185247D01*
X98815822Y-151315307D01*
X98811666Y-151320974D01*
X98800725Y-151330962D01*
X98785984Y-151337574D01*
X98770393Y-151339487D01*
X98184577Y-151339487D01*
X98184577Y-151193674D01*
X98289357Y-151193674D01*
X98289357Y-150951140D01*
X98415020Y-150951140D01*
X98415020Y-151193674D01*
X98742550Y-151193674D01*
X98808495Y-151106479D01*
X98808495Y-151036503D01*
X98741450Y-150951140D01*
X98415020Y-150951140D01*
X98289357Y-150951140D01*
X98289357Y-150616650D01*
X98289508Y-150611173D01*
X98291778Y-150595784D01*
X98297496Y-150580522D01*
X98306576Y-150567191D01*
X98406594Y-150440795D01*
X98411874Y-150433935D01*
X98423183Y-150424516D01*
X98436810Y-150418865D01*
X98452755Y-150416981D01*
X98833774Y-150416981D01*
X98833774Y-150564993D01*
G37*
G36*
X97499842Y-150652187D02*
G01*
X97568352Y-150567191D01*
X97819678Y-150567191D01*
X97859612Y-150617749D01*
X97390299Y-151076803D01*
X97380361Y-151088596D01*
X97373263Y-151101625D01*
X97369004Y-151115890D01*
X97367584Y-151131392D01*
X97368729Y-151147672D01*
X97372164Y-151162441D01*
X97378765Y-151177250D01*
X97385903Y-151187445D01*
X97493614Y-151318237D01*
X97505029Y-151329572D01*
X97518867Y-151337815D01*
X97533923Y-151341479D01*
X97538677Y-151341685D01*
X97846789Y-151341685D01*
X97862209Y-151339395D01*
X97876413Y-151332526D01*
X97888156Y-151322428D01*
X97891852Y-151318237D01*
X97997365Y-151191475D01*
X98005688Y-151178653D01*
X98011288Y-151164093D01*
X98014163Y-151147793D01*
X98014584Y-151137986D01*
X98014584Y-151066912D01*
X97888921Y-151066912D01*
X97888921Y-151106479D01*
X97820044Y-151191475D01*
X97564322Y-151191475D01*
X97523656Y-151140917D01*
X97990404Y-150684427D01*
X98000529Y-150672485D01*
X98007378Y-150657760D01*
X98011665Y-150641508D01*
X98013485Y-150629839D01*
X98013485Y-150621779D01*
X98012210Y-150606548D01*
X98007802Y-150591121D01*
X98000245Y-150577268D01*
X97997365Y-150573419D01*
X97894783Y-150440429D01*
X97883310Y-150429094D01*
X97870736Y-150421469D01*
X97855473Y-150417348D01*
X97848987Y-150416981D01*
X97541974Y-150416981D01*
X97527133Y-150419271D01*
X97513294Y-150426140D01*
X97501696Y-150436238D01*
X97498010Y-150440429D01*
X97391398Y-150568656D01*
X97382366Y-150581807D01*
X97376290Y-150596116D01*
X97373170Y-150611585D01*
X97372714Y-150620680D01*
X97372714Y-150700181D01*
X97499842Y-150700181D01*
X97499842Y-150652187D01*
G37*
G36*
X96664531Y-151169860D02*
G01*
X96648045Y-151191475D01*
X96559018Y-151191475D01*
X96559018Y-151341685D01*
X96675156Y-151341685D01*
X96689997Y-151339395D01*
X96703835Y-151332526D01*
X96715434Y-151322428D01*
X96719120Y-151318237D01*
X96771876Y-151252658D01*
X96780731Y-151239833D01*
X96786688Y-151225675D01*
X96789747Y-151210183D01*
X96790194Y-151201001D01*
X96790194Y-150569389D01*
X97001220Y-150569389D01*
X97001220Y-150416981D01*
X96790194Y-150416981D01*
X96790194Y-150030833D01*
X96664531Y-150030833D01*
X96664531Y-150416981D01*
X96454605Y-150416981D01*
X96454605Y-150569389D01*
X96664531Y-150569389D01*
X96664531Y-151169860D01*
G37*
G36*
X96020114Y-150418314D02*
G01*
X96034855Y-150424840D01*
X96046698Y-150433976D01*
X96057099Y-150444825D01*
X96160781Y-150577815D01*
X96165246Y-150584919D01*
X96172390Y-150598337D01*
X96177580Y-150612174D01*
X96179831Y-150627274D01*
X96179831Y-151137986D01*
X96179465Y-151148144D01*
X96177352Y-151162832D01*
X96172732Y-151177058D01*
X96164811Y-151190010D01*
X96058199Y-151315673D01*
X96055332Y-151319536D01*
X96044055Y-151329668D01*
X96030130Y-151335579D01*
X96015334Y-151337288D01*
X95532832Y-151337288D01*
X95532832Y-151195872D01*
X95989322Y-151195872D01*
X96056367Y-151108311D01*
X96056367Y-150957369D01*
X95537229Y-150957369D01*
X95537229Y-150803129D01*
X95658495Y-150803129D01*
X96054169Y-150803129D01*
X96054169Y-150656584D01*
X95985292Y-150569389D01*
X95726273Y-150569389D01*
X95658495Y-150654385D01*
X95658495Y-150803129D01*
X95537229Y-150803129D01*
X95537229Y-150625076D01*
X95537380Y-150619599D01*
X95539650Y-150604211D01*
X95545367Y-150588948D01*
X95554448Y-150575617D01*
X95654465Y-150445191D01*
X95660615Y-150437064D01*
X95672677Y-150425907D01*
X95686015Y-150419213D01*
X95700627Y-150416981D01*
X96009838Y-150416981D01*
X96020114Y-150418314D01*
G37*
G36*
X95053261Y-150776751D02*
G01*
X95053261Y-151339487D01*
X95177092Y-151339487D01*
X95177092Y-150622878D01*
X95179050Y-150608315D01*
X95184924Y-150593752D01*
X95191014Y-150584043D01*
X95203098Y-150574555D01*
X95217638Y-150569518D01*
X95220323Y-150569389D01*
X95262455Y-150569389D01*
X95262455Y-150416981D01*
X95167567Y-150416981D01*
X95151195Y-150419775D01*
X95135855Y-150426802D01*
X95121954Y-150436231D01*
X95109837Y-150446488D01*
X95097238Y-150458928D01*
X95094661Y-150461678D01*
X95084958Y-150472955D01*
X95074648Y-150487341D01*
X95066360Y-150502049D01*
X95060094Y-150517080D01*
X95055849Y-150532432D01*
X95053625Y-150548106D01*
X95053261Y-150557665D01*
X95053261Y-150564260D01*
X94956175Y-150442627D01*
X94945253Y-150431407D01*
X94932691Y-150422616D01*
X94918395Y-150417607D01*
X94911112Y-150416981D01*
X94786548Y-150416981D01*
X94771105Y-150418865D01*
X94756393Y-150425377D01*
X94745355Y-150435214D01*
X94741119Y-150440795D01*
X94633774Y-150569023D01*
X94624919Y-150582170D01*
X94618962Y-150596882D01*
X94616100Y-150611273D01*
X94615456Y-150622878D01*
X94615456Y-150697983D01*
X94741119Y-150697983D01*
X94741119Y-150652554D01*
X94812194Y-150569389D01*
X94883268Y-150569389D01*
X95053261Y-150776751D01*
G37*
G36*
X94038066Y-150030833D02*
G01*
X93911304Y-150030833D01*
X93911304Y-150183241D01*
X94038066Y-150183241D01*
X94038066Y-150030833D01*
G37*
G36*
X94038066Y-150416981D02*
G01*
X93911304Y-150416981D01*
X93911304Y-151341685D01*
X94038066Y-151341685D01*
X94038066Y-150416981D01*
G37*
G36*
X93056210Y-150987777D02*
G01*
X93308268Y-151295889D01*
X93308268Y-151343883D01*
X93433931Y-151343883D01*
X93433931Y-151264382D01*
X93432855Y-151249750D01*
X93429072Y-151234658D01*
X93422564Y-151221015D01*
X93416712Y-151212725D01*
X93145236Y-150880432D01*
X93416712Y-150545942D01*
X93425036Y-150533091D01*
X93430635Y-150518443D01*
X93433326Y-150503914D01*
X93433931Y-150492086D01*
X93433931Y-150416981D01*
X93308268Y-150416981D01*
X93308268Y-150466441D01*
X93056210Y-150771256D01*
X92804151Y-150466441D01*
X92804151Y-150416981D01*
X92678488Y-150416981D01*
X92678488Y-150492086D01*
X92679633Y-150507405D01*
X92683658Y-150523160D01*
X92690581Y-150537351D01*
X92696806Y-150545942D01*
X92969381Y-150878234D01*
X92696806Y-151212725D01*
X92687951Y-151225698D01*
X92681994Y-151239888D01*
X92678935Y-151255296D01*
X92678488Y-151264382D01*
X92678488Y-151343883D01*
X92804151Y-151343883D01*
X92804151Y-151295889D01*
X93056210Y-150987777D01*
G37*
G36*
X92381367Y-150440429D02*
G01*
X92506297Y-150440429D01*
X92506297Y-150361294D01*
X92504819Y-150345803D01*
X92500385Y-150331065D01*
X92492995Y-150317080D01*
X92487612Y-150309637D01*
X92280983Y-150052083D01*
X92269568Y-150040748D01*
X92255729Y-150032505D01*
X92240674Y-150028841D01*
X92235920Y-150028635D01*
X91938432Y-150028635D01*
X91922382Y-150030925D01*
X91908121Y-150037794D01*
X91896816Y-150047892D01*
X91893370Y-150052083D01*
X91788956Y-150181043D01*
X91780632Y-150193720D01*
X91775032Y-150207846D01*
X91772157Y-150223421D01*
X91771737Y-150232700D01*
X91771737Y-150498314D01*
X91773099Y-150514250D01*
X91777185Y-150529085D01*
X91783995Y-150542818D01*
X91788956Y-150549972D01*
X92299301Y-151193674D01*
X91771737Y-151193674D01*
X91771737Y-151343883D01*
X92448045Y-151343883D01*
X92463465Y-151341593D01*
X92477669Y-151334724D01*
X92489412Y-151324626D01*
X92493108Y-151320436D01*
X92501432Y-151307759D01*
X92507031Y-151293632D01*
X92509907Y-151278057D01*
X92510327Y-151268778D01*
X92509251Y-151254147D01*
X92505467Y-151239054D01*
X92498960Y-151225411D01*
X92493108Y-151217121D01*
X91895201Y-150469005D01*
X91895201Y-150262009D01*
X91962979Y-150178845D01*
X92210275Y-150178845D01*
X92381367Y-150390603D01*
X92381367Y-150440429D01*
G37*
G36*
X91122545Y-150029013D02*
G01*
X91137901Y-150032626D01*
X91151768Y-150041127D01*
X91161374Y-150052815D01*
X91570236Y-150567191D01*
X91575619Y-150574248D01*
X91583009Y-150587897D01*
X91587443Y-150602764D01*
X91588921Y-150618848D01*
X91588921Y-150855153D01*
X91588474Y-150864160D01*
X91585415Y-150879606D01*
X91579458Y-150894067D01*
X91570603Y-150907543D01*
X91567032Y-150911602D01*
X91555507Y-150921385D01*
X91541275Y-150928039D01*
X91525540Y-150930258D01*
X91080041Y-150930258D01*
X91080041Y-151392243D01*
X90954378Y-151392243D01*
X90954378Y-150930258D01*
X90854360Y-150930258D01*
X90854360Y-150788475D01*
X90954378Y-150788475D01*
X90954378Y-150178845D01*
X91080041Y-150178845D01*
X91080041Y-150788475D01*
X91467288Y-150788475D01*
X91467288Y-150654385D01*
X91088467Y-150178845D01*
X91080041Y-150178845D01*
X90954378Y-150178845D01*
X90954378Y-150028635D01*
X91114845Y-150028635D01*
X91122545Y-150029013D01*
G37*
G36*
X90514463Y-150037634D02*
G01*
X90529053Y-150041550D01*
X90541846Y-150049175D01*
X90552843Y-150060509D01*
X90655058Y-150187271D01*
X90660661Y-150195115D01*
X90666892Y-150208475D01*
X90670514Y-150223747D01*
X90671545Y-150238928D01*
X90671545Y-151146413D01*
X90671287Y-151154192D01*
X90668824Y-151170315D01*
X90663752Y-151184525D01*
X90655058Y-151198070D01*
X90561269Y-151313841D01*
X90554995Y-151320596D01*
X90542666Y-151329870D01*
X90529004Y-151335434D01*
X90514008Y-151337288D01*
X89936984Y-151337288D01*
X89936984Y-151187445D01*
X90487630Y-151187445D01*
X90545515Y-151114905D01*
X90545515Y-150268237D01*
X90479203Y-150187271D01*
X90124929Y-150187271D01*
X90062647Y-150263841D01*
X90062647Y-150601995D01*
X90123097Y-150678565D01*
X90138485Y-150678565D01*
X90138485Y-150575617D01*
X90265247Y-150575617D01*
X90265247Y-150678565D01*
X90341817Y-150678565D01*
X90341817Y-150658782D01*
X90274406Y-150575617D01*
X90265247Y-150575617D01*
X90138485Y-150575617D01*
X90138485Y-150500512D01*
X90138941Y-150491462D01*
X90142061Y-150476299D01*
X90148137Y-150462585D01*
X90157169Y-150450321D01*
X90159490Y-150447836D01*
X90172041Y-150437818D01*
X90186166Y-150431808D01*
X90201866Y-150429804D01*
X90300784Y-150429804D01*
X90306615Y-150429972D01*
X90322371Y-150432483D01*
X90336818Y-150438809D01*
X90348045Y-150448855D01*
X90451360Y-150577449D01*
X90456963Y-150585516D01*
X90463193Y-150599018D01*
X90466816Y-150614200D01*
X90467846Y-150629106D01*
X90467846Y-150753670D01*
X90467399Y-150762677D01*
X90464340Y-150778124D01*
X90458383Y-150792585D01*
X90449528Y-150806060D01*
X90445967Y-150810120D01*
X90434587Y-150819902D01*
X90420720Y-150826557D01*
X90405564Y-150828775D01*
X90095254Y-150828775D01*
X90090251Y-150828569D01*
X90074738Y-150824905D01*
X90061013Y-150816662D01*
X90050191Y-150805327D01*
X89953104Y-150685160D01*
X89947626Y-150677204D01*
X89941534Y-150663774D01*
X89937992Y-150648546D01*
X89936984Y-150633503D01*
X89936984Y-150234532D01*
X89937236Y-150226833D01*
X89939645Y-150210807D01*
X89944604Y-150196577D01*
X89953104Y-150182875D01*
X90052389Y-150060509D01*
X90057369Y-150055013D01*
X90069496Y-150045328D01*
X90084465Y-150038916D01*
X90099284Y-150037062D01*
X90505582Y-150037062D01*
X90514463Y-150037634D01*
G37*
G36*
X89494798Y-150413145D02*
G01*
X89510422Y-150416043D01*
X89524246Y-150423341D01*
X89534350Y-150434933D01*
X89740979Y-150691755D01*
X89746831Y-150699809D01*
X89753339Y-150713243D01*
X89757122Y-150728299D01*
X89758199Y-150743046D01*
X89758199Y-150884462D01*
X89757769Y-150894813D01*
X89755296Y-150909662D01*
X89749887Y-150923849D01*
X89740613Y-150936486D01*
X89539479Y-151185247D01*
X89535784Y-151189438D01*
X89524040Y-151199535D01*
X89509836Y-151206405D01*
X89494416Y-151208695D01*
X89331751Y-151208695D01*
X89324309Y-151208322D01*
X89309407Y-151204764D01*
X89295840Y-151196392D01*
X89286321Y-151184881D01*
X89189601Y-151065446D01*
X89189601Y-151370261D01*
X89247853Y-151442801D01*
X89472068Y-151442801D01*
X89560728Y-151332159D01*
X89647557Y-151439504D01*
X89542410Y-151569197D01*
X89538724Y-151573387D01*
X89527126Y-151583485D01*
X89513287Y-151590355D01*
X89498446Y-151592644D01*
X89222208Y-151592644D01*
X89214766Y-151592272D01*
X89199864Y-151588714D01*
X89186297Y-151580342D01*
X89176778Y-151568831D01*
X89081157Y-151451228D01*
X89075181Y-151443049D01*
X89068535Y-151429477D01*
X89064671Y-151414339D01*
X89063572Y-151399570D01*
X89063572Y-150851123D01*
X89189601Y-150851123D01*
X89358495Y-151058485D01*
X89467672Y-151058485D01*
X89632536Y-150855153D01*
X89632536Y-150772721D01*
X89463642Y-150562794D01*
X89257012Y-150562794D01*
X89189601Y-150645959D01*
X89189601Y-150851123D01*
X89063572Y-150851123D01*
X89063572Y-150616650D01*
X89064010Y-150606290D01*
X89066535Y-150591390D01*
X89072057Y-150577090D01*
X89081524Y-150564260D01*
X89185571Y-150434200D01*
X89188903Y-150430403D01*
X89201497Y-150420442D01*
X89216380Y-150414632D01*
X89231733Y-150412951D01*
X89488921Y-150412951D01*
X89494798Y-150413145D01*
G37*
G36*
X88404849Y-150650355D02*
G01*
X88404849Y-151341685D01*
X88532710Y-151341685D01*
X88532710Y-150650355D01*
X88595358Y-150569389D01*
X88646283Y-150569389D01*
X88715159Y-150652554D01*
X88715159Y-151341685D01*
X88840822Y-151341685D01*
X88840822Y-150419180D01*
X88714060Y-150419180D01*
X88716991Y-150442260D01*
X88719189Y-150440429D01*
X88707862Y-150429094D01*
X88694323Y-150420851D01*
X88679783Y-150417187D01*
X88675226Y-150416981D01*
X88568614Y-150416981D01*
X88553618Y-150418836D01*
X88539956Y-150424400D01*
X88527626Y-150433674D01*
X88521353Y-150440429D01*
X88468963Y-150511137D01*
X88413275Y-150442627D01*
X88401712Y-150431292D01*
X88387845Y-150423049D01*
X88372904Y-150419386D01*
X88368212Y-150419180D01*
X88258303Y-150419180D01*
X88242883Y-150421469D01*
X88228679Y-150428339D01*
X88216936Y-150438437D01*
X88213240Y-150442627D01*
X88113223Y-150567191D01*
X88104191Y-150580164D01*
X88098115Y-150594355D01*
X88094995Y-150609762D01*
X88094538Y-150618848D01*
X88094538Y-151341685D01*
X88221667Y-151341685D01*
X88221667Y-150648157D01*
X88285048Y-150569389D01*
X88340369Y-150569389D01*
X88404849Y-150650355D01*
G37*
G36*
X87825261Y-150564993D02*
G01*
X87470254Y-150564993D01*
X87406506Y-150645959D01*
X87406506Y-150805327D01*
X87759681Y-150805327D01*
X87764818Y-150805514D01*
X87780732Y-150808834D01*
X87794786Y-150816305D01*
X87805843Y-150826577D01*
X87906594Y-150955903D01*
X87910543Y-150962229D01*
X87917505Y-150976503D01*
X87921800Y-150990835D01*
X87923446Y-151006828D01*
X87923446Y-151133590D01*
X87923026Y-151143255D01*
X87920150Y-151159165D01*
X87914551Y-151173163D01*
X87906227Y-151185247D01*
X87807309Y-151315307D01*
X87803153Y-151320974D01*
X87792211Y-151330962D01*
X87777471Y-151337574D01*
X87761880Y-151339487D01*
X87176063Y-151339487D01*
X87176063Y-151193674D01*
X87280843Y-151193674D01*
X87280843Y-150951140D01*
X87406506Y-150951140D01*
X87406506Y-151193674D01*
X87734036Y-151193674D01*
X87799982Y-151106479D01*
X87799982Y-151036503D01*
X87732937Y-150951140D01*
X87406506Y-150951140D01*
X87280843Y-150951140D01*
X87280843Y-150616650D01*
X87280995Y-150611173D01*
X87283265Y-150595784D01*
X87288982Y-150580522D01*
X87298062Y-150567191D01*
X87398080Y-150440795D01*
X87403361Y-150433935D01*
X87414669Y-150424516D01*
X87428296Y-150418865D01*
X87444242Y-150416981D01*
X87825261Y-150416981D01*
X87825261Y-150564993D01*
G37*
G36*
X86699057Y-150030833D02*
G01*
X86572295Y-150030833D01*
X86572295Y-150183241D01*
X86699057Y-150183241D01*
X86699057Y-150030833D01*
G37*
G36*
X86699057Y-150416981D02*
G01*
X86572295Y-150416981D01*
X86572295Y-151341685D01*
X86699057Y-151341685D01*
X86699057Y-150416981D01*
G37*
G36*
X85656018Y-151169860D02*
G01*
X85639531Y-151191475D01*
X85550505Y-151191475D01*
X85550505Y-151341685D01*
X85666642Y-151341685D01*
X85681483Y-151339395D01*
X85695322Y-151332526D01*
X85706920Y-151322428D01*
X85710606Y-151318237D01*
X85763363Y-151252658D01*
X85772218Y-151239833D01*
X85778175Y-151225675D01*
X85781234Y-151210183D01*
X85781681Y-151201001D01*
X85781681Y-150030833D01*
X85656018Y-150030833D01*
X85656018Y-151169860D01*
G37*
G36*
X84963589Y-151081933D02*
G01*
X84737543Y-151081933D01*
X84737543Y-151339487D01*
X84963589Y-151339487D01*
X84963589Y-151081933D01*
G37*
G36*
X83606942Y-150419180D02*
G01*
X83606942Y-150567191D01*
X83960484Y-150567191D01*
X84130477Y-150778949D01*
X84130477Y-150979351D01*
X83954988Y-151191475D01*
X83606942Y-151191475D01*
X83606942Y-151337288D01*
X83981733Y-151337288D01*
X83997275Y-151335249D01*
X84011386Y-151329131D01*
X84024065Y-151318934D01*
X84026430Y-151316406D01*
X84237089Y-151060317D01*
X84244462Y-151047632D01*
X84250239Y-151033251D01*
X84253349Y-151018755D01*
X84253942Y-151009026D01*
X84253942Y-150749640D01*
X84252866Y-150734436D01*
X84249082Y-150719083D01*
X84242574Y-150705585D01*
X84236723Y-150697616D01*
X84031192Y-150442993D01*
X84021403Y-150431482D01*
X84008352Y-150423110D01*
X83993010Y-150419389D01*
X83987961Y-150419180D01*
X83606942Y-150419180D01*
G37*
G36*
X83174228Y-150414859D02*
G01*
X83189362Y-150417514D01*
X83202564Y-150423961D01*
X83213834Y-150434200D01*
X83317515Y-150567557D01*
X83321980Y-150574575D01*
X83329124Y-150587856D01*
X83334314Y-150601592D01*
X83336566Y-150616650D01*
X83336566Y-151137986D01*
X83336136Y-151148575D01*
X83333663Y-151163842D01*
X83328254Y-151178554D01*
X83318980Y-151191842D01*
X83213467Y-151314574D01*
X83201288Y-151324427D01*
X83186735Y-151331051D01*
X83170969Y-151333258D01*
X82852232Y-151333258D01*
X82846004Y-151333258D01*
X82831313Y-151331326D01*
X82817716Y-151324738D01*
X82806803Y-151313475D01*
X82707518Y-151189277D01*
X82703311Y-151182625D01*
X82695895Y-151167910D01*
X82691319Y-151153542D01*
X82689566Y-151137986D01*
X82689566Y-151108311D01*
X82815229Y-151108311D01*
X82878244Y-151189277D01*
X83144224Y-151189277D01*
X83210903Y-151108311D01*
X83210903Y-150648157D01*
X83143858Y-150562794D01*
X82877145Y-150562794D01*
X82815229Y-150647791D01*
X82815229Y-151108311D01*
X82689566Y-151108311D01*
X82689566Y-150620680D01*
X82689718Y-150615848D01*
X82692408Y-150600392D01*
X82698462Y-150585938D01*
X82706785Y-150573785D01*
X82801674Y-150440795D01*
X82807947Y-150433301D01*
X82820277Y-150423013D01*
X82833939Y-150416841D01*
X82848935Y-150414783D01*
X83170969Y-150414783D01*
X83174228Y-150414859D01*
G37*
G36*
X81983216Y-150650355D02*
G01*
X81983216Y-151341685D01*
X82111077Y-151341685D01*
X82111077Y-150650355D01*
X82173725Y-150569389D01*
X82224650Y-150569389D01*
X82293527Y-150652554D01*
X82293527Y-151341685D01*
X82419189Y-151341685D01*
X82419189Y-150419180D01*
X82292427Y-150419180D01*
X82295358Y-150442260D01*
X82297557Y-150440429D01*
X82286229Y-150429094D01*
X82272690Y-150420851D01*
X82258150Y-150417187D01*
X82253593Y-150416981D01*
X82146981Y-150416981D01*
X82131985Y-150418836D01*
X82118323Y-150424400D01*
X82105993Y-150433674D01*
X82099720Y-150440429D01*
X82047330Y-150511137D01*
X81991642Y-150442627D01*
X81980079Y-150431292D01*
X81966212Y-150423049D01*
X81951271Y-150419386D01*
X81946580Y-150419180D01*
X81836670Y-150419180D01*
X81821250Y-150421469D01*
X81807046Y-150428339D01*
X81795303Y-150438437D01*
X81791607Y-150442627D01*
X81691590Y-150567191D01*
X81682558Y-150580164D01*
X81676482Y-150594355D01*
X81673362Y-150609762D01*
X81672905Y-150618848D01*
X81672905Y-151341685D01*
X81800034Y-151341685D01*
X81800034Y-150648157D01*
X81863415Y-150569389D01*
X81918736Y-150569389D01*
X81983216Y-150650355D01*
G37*
D11*
G36*
X79505775Y-111803030D02*
G01*
X79505775Y-112084398D01*
X79840876Y-112084398D01*
X79840876Y-111803030D01*
X79505775Y-111803030D01*
G37*
G36*
X79467184Y-112334502D02*
G01*
X79467184Y-113241132D01*
X79129152Y-113241132D01*
X79104667Y-113241742D01*
X79082013Y-113243574D01*
X79061192Y-113246627D01*
X79037741Y-113252161D01*
X79017152Y-113259603D01*
X78999425Y-113268953D01*
X78984560Y-113280211D01*
X78969786Y-113295541D01*
X78958068Y-113312588D01*
X78949407Y-113331353D01*
X78943802Y-113351835D01*
X78941255Y-113374034D01*
X78941085Y-113381816D01*
X78942614Y-113404605D01*
X78947199Y-113425711D01*
X78954841Y-113445134D01*
X78965540Y-113462874D01*
X78979296Y-113478931D01*
X78984560Y-113483909D01*
X79002741Y-113497024D01*
X79021040Y-113505880D01*
X79042202Y-113512852D01*
X79066225Y-113517940D01*
X79087505Y-113520653D01*
X79110616Y-113522160D01*
X79129152Y-113522500D01*
X80087073Y-113522500D01*
X80111566Y-113521897D01*
X80134242Y-113520088D01*
X80155102Y-113517073D01*
X80178622Y-113511608D01*
X80199304Y-113504260D01*
X80217148Y-113495026D01*
X80232153Y-113483909D01*
X80246762Y-113468413D01*
X80258348Y-113451234D01*
X80266912Y-113432372D01*
X80272453Y-113411827D01*
X80274972Y-113389599D01*
X80275140Y-113381816D01*
X80273628Y-113359044D01*
X80269095Y-113337989D01*
X80261538Y-113318652D01*
X80250960Y-113301032D01*
X80237358Y-113285130D01*
X80232153Y-113280211D01*
X80213806Y-113266930D01*
X80195395Y-113257962D01*
X80174145Y-113250901D01*
X80150057Y-113245749D01*
X80128743Y-113243002D01*
X80105613Y-113241475D01*
X80087073Y-113241132D01*
X79749041Y-113241132D01*
X79749041Y-112615870D01*
X79975698Y-112615870D01*
X79999855Y-112615267D01*
X80022257Y-112613458D01*
X80042903Y-112610443D01*
X80066242Y-112604979D01*
X80086838Y-112597630D01*
X80104691Y-112588397D01*
X80119801Y-112577280D01*
X80134742Y-112561784D01*
X80146592Y-112544605D01*
X80155350Y-112525743D01*
X80161017Y-112505198D01*
X80163593Y-112482970D01*
X80163765Y-112475186D01*
X80162254Y-112452414D01*
X80157720Y-112431360D01*
X80150164Y-112412023D01*
X80139585Y-112394403D01*
X80125984Y-112378500D01*
X80120778Y-112373581D01*
X80102431Y-112360300D01*
X80084020Y-112351332D01*
X80062770Y-112344272D01*
X80038683Y-112339120D01*
X80017369Y-112336372D01*
X79994238Y-112334846D01*
X79975698Y-112334502D01*
X79467184Y-112334502D01*
G37*
G36*
X77622174Y-112664230D02*
G01*
X77639500Y-112654644D01*
X77657040Y-112645668D01*
X77674793Y-112637302D01*
X77692760Y-112629548D01*
X77715519Y-112620713D01*
X77738613Y-112612832D01*
X77757328Y-112607215D01*
X77766766Y-112604635D01*
X77790441Y-112598865D01*
X77809622Y-112594953D01*
X77829016Y-112591668D01*
X77848624Y-112589008D01*
X77868446Y-112586974D01*
X77888482Y-112585565D01*
X77908731Y-112584783D01*
X77924058Y-112584607D01*
X77944250Y-112584794D01*
X77963915Y-112585355D01*
X77992426Y-112586898D01*
X78019752Y-112589282D01*
X78045892Y-112592508D01*
X78070848Y-112596575D01*
X78094619Y-112601484D01*
X78117204Y-112607234D01*
X78138605Y-112613825D01*
X78158821Y-112621259D01*
X78177852Y-112629533D01*
X78183932Y-112632479D01*
X78202525Y-112643225D01*
X78218296Y-112657346D01*
X78226265Y-112675297D01*
X78226431Y-112678396D01*
X78219620Y-112697759D01*
X78203915Y-112713430D01*
X78185395Y-112725511D01*
X78168789Y-112734084D01*
X78148490Y-112741377D01*
X78125750Y-112747402D01*
X78103745Y-112752187D01*
X78078352Y-112756942D01*
X78057083Y-112760489D01*
X78033907Y-112764018D01*
X78008826Y-112767530D01*
X77981838Y-112771024D01*
X77972418Y-112772185D01*
X77938035Y-112776465D01*
X77904984Y-112780757D01*
X77873265Y-112785060D01*
X77842878Y-112789374D01*
X77813822Y-112793700D01*
X77786099Y-112798037D01*
X77759707Y-112802386D01*
X77734648Y-112806746D01*
X77710920Y-112811117D01*
X77688524Y-112815500D01*
X77667460Y-112819895D01*
X77647728Y-112824301D01*
X77620627Y-112830931D01*
X77596523Y-112837587D01*
X77582118Y-112842039D01*
X77555678Y-112851418D01*
X77530398Y-112861605D01*
X77506276Y-112872599D01*
X77483314Y-112884400D01*
X77461511Y-112897008D01*
X77440867Y-112910423D01*
X77421383Y-112924645D01*
X77403057Y-112939675D01*
X77385891Y-112955512D01*
X77369884Y-112972155D01*
X77359857Y-112983700D01*
X77345802Y-113001284D01*
X77333130Y-113019048D01*
X77321840Y-113036993D01*
X77311932Y-113055118D01*
X77303407Y-113073423D01*
X77296264Y-113091909D01*
X77288891Y-113116837D01*
X77283976Y-113142086D01*
X77281518Y-113167655D01*
X77281211Y-113180560D01*
X77282383Y-113206621D01*
X77285899Y-113231868D01*
X77291760Y-113256298D01*
X77299964Y-113279913D01*
X77310513Y-113302712D01*
X77323406Y-113324695D01*
X77338643Y-113345863D01*
X77356224Y-113366215D01*
X77376149Y-113385751D01*
X77398419Y-113404471D01*
X77414567Y-113416498D01*
X77438889Y-113433120D01*
X77464103Y-113448669D01*
X77490210Y-113463147D01*
X77517210Y-113476551D01*
X77545104Y-113488884D01*
X77573890Y-113500144D01*
X77603569Y-113510331D01*
X77634142Y-113519446D01*
X77665607Y-113527489D01*
X77697965Y-113534460D01*
X77731217Y-113540358D01*
X77765361Y-113545184D01*
X77800399Y-113548937D01*
X77836329Y-113551618D01*
X77873152Y-113553226D01*
X77910869Y-113553763D01*
X77933608Y-113553621D01*
X77956029Y-113553196D01*
X77978133Y-113552487D01*
X77999918Y-113551496D01*
X78021386Y-113550221D01*
X78042537Y-113548662D01*
X78063369Y-113546820D01*
X78083884Y-113544695D01*
X78104082Y-113542287D01*
X78123961Y-113539595D01*
X78137038Y-113537643D01*
X78162660Y-113533498D01*
X78187749Y-113528880D01*
X78212303Y-113523789D01*
X78236322Y-113518225D01*
X78259808Y-113512188D01*
X78282759Y-113505677D01*
X78305176Y-113498693D01*
X78327059Y-113491236D01*
X78344212Y-113502411D01*
X78362333Y-113511329D01*
X78371022Y-113514684D01*
X78390235Y-113519744D01*
X78409769Y-113522225D01*
X78418894Y-113522500D01*
X78438846Y-113521522D01*
X78461057Y-113517766D01*
X78481379Y-113511195D01*
X78499811Y-113501807D01*
X78516355Y-113489602D01*
X78523918Y-113482444D01*
X78537199Y-113465350D01*
X78547732Y-113444479D01*
X78554411Y-113424200D01*
X78559181Y-113401298D01*
X78561623Y-113381087D01*
X78562845Y-113359196D01*
X78562997Y-113347622D01*
X78562997Y-113259694D01*
X78562387Y-113236972D01*
X78560555Y-113215944D01*
X78557502Y-113196611D01*
X78551968Y-113174827D01*
X78544526Y-113155691D01*
X78533078Y-113136222D01*
X78523918Y-113125361D01*
X78508422Y-113111582D01*
X78491243Y-113100654D01*
X78472381Y-113092577D01*
X78451836Y-113087350D01*
X78429608Y-113084975D01*
X78421825Y-113084816D01*
X78400394Y-113085892D01*
X78380552Y-113089117D01*
X78359822Y-113095437D01*
X78341168Y-113104566D01*
X78336828Y-113107287D01*
X78320464Y-113120323D01*
X78306054Y-113137451D01*
X78295048Y-113155793D01*
X78286804Y-113174008D01*
X78283095Y-113183979D01*
X78266563Y-113194520D01*
X78249206Y-113204404D01*
X78231025Y-113213632D01*
X78212020Y-113222203D01*
X78192191Y-113230118D01*
X78171537Y-113237377D01*
X78150059Y-113243979D01*
X78127757Y-113249924D01*
X78104615Y-113255191D01*
X78080618Y-113259755D01*
X78055766Y-113263617D01*
X78030059Y-113266777D01*
X78010218Y-113268686D01*
X77989897Y-113270200D01*
X77969094Y-113271320D01*
X77947811Y-113272044D01*
X77926046Y-113272373D01*
X77918685Y-113272395D01*
X77894840Y-113272183D01*
X77871668Y-113271548D01*
X77849167Y-113270489D01*
X77827338Y-113269006D01*
X77806180Y-113267100D01*
X77785694Y-113264770D01*
X77765880Y-113262016D01*
X77737418Y-113257092D01*
X77710468Y-113251214D01*
X77685028Y-113244384D01*
X77661100Y-113236600D01*
X77638683Y-113227863D01*
X77617777Y-113218173D01*
X77600513Y-113207995D01*
X77584885Y-113195860D01*
X77571936Y-113179846D01*
X77566975Y-113161509D01*
X77570458Y-113140765D01*
X77580906Y-113121705D01*
X77595406Y-113106707D01*
X77611399Y-113095153D01*
X77630946Y-113084458D01*
X77639759Y-113080420D01*
X77660383Y-113072520D01*
X77685860Y-113064941D01*
X77708154Y-113059467D01*
X77733178Y-113054173D01*
X77760933Y-113049060D01*
X77780954Y-113045751D01*
X77802188Y-113042523D01*
X77824635Y-113039374D01*
X77848296Y-113036306D01*
X77873171Y-113033318D01*
X77899259Y-113030410D01*
X77926561Y-113027582D01*
X77940667Y-113026198D01*
X77961665Y-113024121D01*
X77982224Y-113021922D01*
X78002343Y-113019599D01*
X78022022Y-113017153D01*
X78060061Y-113011893D01*
X78096341Y-113006140D01*
X78130861Y-112999894D01*
X78163622Y-112993157D01*
X78194624Y-112985927D01*
X78223866Y-112978204D01*
X78251349Y-112969990D01*
X78277073Y-112961283D01*
X78301037Y-112952084D01*
X78323242Y-112942392D01*
X78343688Y-112932208D01*
X78362375Y-112921532D01*
X78379302Y-112910364D01*
X78394470Y-112898703D01*
X78414810Y-112880731D01*
X78433150Y-112861987D01*
X78449489Y-112842469D01*
X78463827Y-112822179D01*
X78476165Y-112801116D01*
X78486502Y-112779280D01*
X78494838Y-112756671D01*
X78501173Y-112733290D01*
X78505508Y-112709136D01*
X78507842Y-112684208D01*
X78508287Y-112667161D01*
X78507162Y-112641103D01*
X78503787Y-112615870D01*
X78498163Y-112591461D01*
X78490289Y-112567876D01*
X78480166Y-112545116D01*
X78467792Y-112523180D01*
X78453169Y-112502068D01*
X78436296Y-112481781D01*
X78417174Y-112462318D01*
X78395802Y-112443679D01*
X78380304Y-112431711D01*
X78358268Y-112416154D01*
X78335393Y-112401600D01*
X78311679Y-112388051D01*
X78287125Y-112375505D01*
X78261731Y-112363962D01*
X78235498Y-112353423D01*
X78208425Y-112343888D01*
X78180513Y-112335357D01*
X78151761Y-112327830D01*
X78122169Y-112321306D01*
X78091738Y-112315785D01*
X78060468Y-112311269D01*
X78028357Y-112307756D01*
X77995407Y-112305247D01*
X77961618Y-112303741D01*
X77926989Y-112303239D01*
X77902801Y-112303514D01*
X77878843Y-112304338D01*
X77855113Y-112305712D01*
X77831612Y-112307636D01*
X77808340Y-112310109D01*
X77785298Y-112313131D01*
X77762484Y-112316703D01*
X77739899Y-112320825D01*
X77717429Y-112325397D01*
X77695202Y-112330564D01*
X77673221Y-112336326D01*
X77651483Y-112342684D01*
X77629990Y-112349638D01*
X77608740Y-112357186D01*
X77587736Y-112365330D01*
X77566975Y-112374070D01*
X77549580Y-112361791D01*
X77531525Y-112351029D01*
X77518615Y-112344760D01*
X77499274Y-112337748D01*
X77479002Y-112334542D01*
X77476605Y-112334502D01*
X77455659Y-112335996D01*
X77436053Y-112340479D01*
X77417786Y-112347949D01*
X77400859Y-112358408D01*
X77385272Y-112371854D01*
X77380373Y-112377001D01*
X77367259Y-112394964D01*
X77358403Y-112413029D01*
X77351431Y-112433909D01*
X77346343Y-112457604D01*
X77343630Y-112478586D01*
X77342122Y-112501369D01*
X77341783Y-112519638D01*
X77341783Y-112587049D01*
X77342127Y-112608741D01*
X77343157Y-112628632D01*
X77345411Y-112650962D01*
X77348738Y-112670477D01*
X77354148Y-112690181D01*
X77362413Y-112708046D01*
X77363765Y-112710148D01*
X77378279Y-112728020D01*
X77394343Y-112742863D01*
X77411958Y-112754677D01*
X77431123Y-112763461D01*
X77451838Y-112769217D01*
X77474104Y-112771943D01*
X77483444Y-112772185D01*
X77505086Y-112770783D01*
X77525559Y-112766576D01*
X77544863Y-112759563D01*
X77562998Y-112749746D01*
X77572837Y-112742876D01*
X77588221Y-112728928D01*
X77601033Y-112713157D01*
X77611275Y-112695562D01*
X77618945Y-112676145D01*
X77622174Y-112664230D01*
G37*
G36*
X76267481Y-112303583D02*
G01*
X76291172Y-112304613D01*
X76314742Y-112306330D01*
X76338189Y-112308735D01*
X76361514Y-112311826D01*
X76384717Y-112315604D01*
X76407798Y-112320069D01*
X76430757Y-112325221D01*
X76453594Y-112331060D01*
X76476309Y-112337586D01*
X76498901Y-112344799D01*
X76521371Y-112352698D01*
X76543720Y-112361285D01*
X76565946Y-112370559D01*
X76588050Y-112380519D01*
X76610031Y-112391167D01*
X76631632Y-112402411D01*
X76652591Y-112414164D01*
X76672909Y-112426423D01*
X76692586Y-112439191D01*
X76711621Y-112452466D01*
X76730016Y-112466248D01*
X76747769Y-112480539D01*
X76764881Y-112495336D01*
X76781353Y-112510641D01*
X76797183Y-112526454D01*
X76812371Y-112542775D01*
X76826919Y-112559603D01*
X76840826Y-112576938D01*
X76854091Y-112594781D01*
X76866715Y-112613132D01*
X76878699Y-112631990D01*
X76889997Y-112651127D01*
X76900566Y-112670313D01*
X76910406Y-112689549D01*
X76919518Y-112708835D01*
X76927900Y-112728170D01*
X76935554Y-112747555D01*
X76942478Y-112766990D01*
X76948674Y-112786474D01*
X76954141Y-112806007D01*
X76958879Y-112825591D01*
X76962888Y-112845224D01*
X76966168Y-112864906D01*
X76968719Y-112884638D01*
X76970542Y-112904420D01*
X76971635Y-112924251D01*
X76971999Y-112944132D01*
X76971641Y-112963622D01*
X76969757Y-112992671D01*
X76966260Y-113021496D01*
X76961148Y-113050099D01*
X76954422Y-113078477D01*
X76949041Y-113097273D01*
X76942942Y-113115969D01*
X76936126Y-113134566D01*
X76928593Y-113153063D01*
X76920342Y-113171461D01*
X76911374Y-113189761D01*
X76901688Y-113207961D01*
X76891285Y-113226061D01*
X76880164Y-113244063D01*
X76868297Y-113261721D01*
X76855778Y-113278913D01*
X76842606Y-113295640D01*
X76828781Y-113311901D01*
X76814304Y-113327697D01*
X76799175Y-113343027D01*
X76783392Y-113357891D01*
X76766958Y-113372290D01*
X76749870Y-113386223D01*
X76732130Y-113399691D01*
X76713737Y-113412693D01*
X76694692Y-113425230D01*
X76674994Y-113437301D01*
X76654644Y-113448906D01*
X76633641Y-113460046D01*
X76611985Y-113470720D01*
X76589939Y-113480776D01*
X76567762Y-113490183D01*
X76545456Y-113498942D01*
X76523020Y-113507051D01*
X76500454Y-113514512D01*
X76477759Y-113521324D01*
X76454933Y-113527487D01*
X76431978Y-113533002D01*
X76408894Y-113537868D01*
X76385679Y-113542085D01*
X76362335Y-113545653D01*
X76338861Y-113548572D01*
X76315257Y-113550843D01*
X76291524Y-113552465D01*
X76267660Y-113553438D01*
X76243667Y-113553763D01*
X76219548Y-113553432D01*
X76195551Y-113552442D01*
X76171677Y-113550792D01*
X76147924Y-113548481D01*
X76124294Y-113545510D01*
X76100785Y-113541879D01*
X76077399Y-113537587D01*
X76054135Y-113532636D01*
X76030993Y-113527024D01*
X76007973Y-113520752D01*
X75985075Y-113513819D01*
X75962299Y-113506227D01*
X75939646Y-113497974D01*
X75917115Y-113489061D01*
X75894705Y-113479488D01*
X75872418Y-113469255D01*
X75850476Y-113458464D01*
X75829225Y-113447219D01*
X75808665Y-113435520D01*
X75788795Y-113423367D01*
X75769617Y-113410760D01*
X75751129Y-113397699D01*
X75733331Y-113384184D01*
X75716225Y-113370214D01*
X75699809Y-113355790D01*
X75684084Y-113340913D01*
X75669050Y-113325581D01*
X75654706Y-113309795D01*
X75641053Y-113293554D01*
X75628091Y-113276860D01*
X75615820Y-113259711D01*
X75604239Y-113242109D01*
X75598710Y-113233154D01*
X75588177Y-113215191D01*
X75578346Y-113197155D01*
X75569217Y-113179047D01*
X75560791Y-113160866D01*
X75553067Y-113142613D01*
X75542797Y-113115097D01*
X75534107Y-113087418D01*
X75526998Y-113059575D01*
X75521468Y-113031570D01*
X75517518Y-113003401D01*
X75515148Y-112975070D01*
X75514372Y-112947063D01*
X75796214Y-112947063D01*
X75796341Y-112954527D01*
X75798237Y-112976724D01*
X75802409Y-112998628D01*
X75808856Y-113020241D01*
X75817578Y-113041561D01*
X75828576Y-113062590D01*
X75841850Y-113083327D01*
X75857399Y-113103772D01*
X75875224Y-113123925D01*
X75895323Y-113143786D01*
X75909988Y-113156864D01*
X75925663Y-113169813D01*
X75942020Y-113182235D01*
X75958850Y-113193855D01*
X75976153Y-113204675D01*
X75993929Y-113214692D01*
X76012178Y-113223909D01*
X76030901Y-113232324D01*
X76050097Y-113239937D01*
X76069766Y-113246749D01*
X76089909Y-113252760D01*
X76110524Y-113257969D01*
X76131613Y-113262377D01*
X76153175Y-113265983D01*
X76175211Y-113268788D01*
X76197719Y-113270792D01*
X76220701Y-113271994D01*
X76244156Y-113272395D01*
X76267435Y-113271994D01*
X76290257Y-113270792D01*
X76312620Y-113268788D01*
X76334526Y-113265983D01*
X76355973Y-113262377D01*
X76376963Y-113257969D01*
X76397494Y-113252760D01*
X76417568Y-113246749D01*
X76437184Y-113239937D01*
X76456342Y-113232324D01*
X76475042Y-113223909D01*
X76493283Y-113214692D01*
X76511067Y-113204675D01*
X76528393Y-113193855D01*
X76545261Y-113182235D01*
X76561671Y-113169813D01*
X76577288Y-113156868D01*
X76598823Y-113137222D01*
X76618091Y-113117301D01*
X76635093Y-113097105D01*
X76649828Y-113076634D01*
X76662296Y-113055889D01*
X76672497Y-113034869D01*
X76680431Y-113013574D01*
X76686098Y-112992004D01*
X76689498Y-112970160D01*
X76690632Y-112948040D01*
X76690134Y-112930163D01*
X76687519Y-112903855D01*
X76682663Y-112878156D01*
X76675566Y-112853068D01*
X76666228Y-112828588D01*
X76654649Y-112804719D01*
X76640829Y-112781459D01*
X76624768Y-112758809D01*
X76606465Y-112736768D01*
X76593018Y-112722413D01*
X76578576Y-112708329D01*
X76563137Y-112694516D01*
X76546893Y-112681207D01*
X76530156Y-112668756D01*
X76512928Y-112657164D01*
X76495207Y-112646431D01*
X76476994Y-112636556D01*
X76458288Y-112627540D01*
X76439090Y-112619383D01*
X76419400Y-112612084D01*
X76399217Y-112605644D01*
X76378543Y-112600063D01*
X76357376Y-112595340D01*
X76335716Y-112591476D01*
X76313565Y-112588471D01*
X76290921Y-112586324D01*
X76267784Y-112585036D01*
X76244156Y-112584607D01*
X76217371Y-112585147D01*
X76191239Y-112586767D01*
X76165759Y-112589467D01*
X76140933Y-112593247D01*
X76116758Y-112598107D01*
X76093237Y-112604047D01*
X76070367Y-112611067D01*
X76048151Y-112619167D01*
X76026587Y-112628347D01*
X76005675Y-112638608D01*
X75985417Y-112649948D01*
X75965810Y-112662368D01*
X75946857Y-112675868D01*
X75928556Y-112690448D01*
X75910907Y-112706108D01*
X75893911Y-112722848D01*
X75882081Y-112735688D01*
X75865766Y-112755242D01*
X75851169Y-112775147D01*
X75838289Y-112795404D01*
X75827126Y-112816014D01*
X75817681Y-112836975D01*
X75809953Y-112858289D01*
X75803942Y-112879954D01*
X75799649Y-112901972D01*
X75797073Y-112924342D01*
X75796214Y-112947063D01*
X75514372Y-112947063D01*
X75514358Y-112946575D01*
X75514713Y-112926581D01*
X75515778Y-112906656D01*
X75517552Y-112886800D01*
X75520037Y-112867013D01*
X75523231Y-112847294D01*
X75527135Y-112827644D01*
X75531749Y-112808062D01*
X75537073Y-112788550D01*
X75543106Y-112769106D01*
X75549850Y-112749730D01*
X75557303Y-112730424D01*
X75565466Y-112711186D01*
X75574339Y-112692017D01*
X75583921Y-112672916D01*
X75594214Y-112653884D01*
X75605216Y-112634921D01*
X75616856Y-112616173D01*
X75629183Y-112597911D01*
X75642196Y-112580132D01*
X75655897Y-112562839D01*
X75670284Y-112546030D01*
X75685359Y-112529706D01*
X75701120Y-112513866D01*
X75717568Y-112498511D01*
X75734703Y-112483641D01*
X75752525Y-112469256D01*
X75771034Y-112455355D01*
X75790230Y-112441939D01*
X75810113Y-112429007D01*
X75830683Y-112416560D01*
X75851940Y-112404598D01*
X75873884Y-112393121D01*
X75896165Y-112382237D01*
X75918557Y-112372055D01*
X75941060Y-112362575D01*
X75963673Y-112353797D01*
X75986397Y-112345722D01*
X76009232Y-112338349D01*
X76032178Y-112331678D01*
X76055234Y-112325710D01*
X76078401Y-112320443D01*
X76101678Y-112315879D01*
X76125066Y-112312017D01*
X76148565Y-112308857D01*
X76172175Y-112306399D01*
X76195895Y-112304644D01*
X76219726Y-112303590D01*
X76243667Y-112303239D01*
X76267481Y-112303583D01*
G37*
D12*
G36*
X73961218Y-114406589D02*
G01*
X73961218Y-115214422D01*
X73732607Y-115214422D01*
X73677514Y-115215796D01*
X73626544Y-115219918D01*
X73579695Y-115226787D01*
X73526930Y-115239237D01*
X73480605Y-115255981D01*
X73440720Y-115277019D01*
X73407275Y-115302349D01*
X73374032Y-115336842D01*
X73347666Y-115375199D01*
X73328179Y-115417419D01*
X73315569Y-115463504D01*
X73309838Y-115513453D01*
X73309456Y-115530961D01*
X73312895Y-115582236D01*
X73323212Y-115629725D01*
X73340406Y-115673426D01*
X73364479Y-115713341D01*
X73395430Y-115749470D01*
X73407275Y-115760671D01*
X73448182Y-115790179D01*
X73489355Y-115810106D01*
X73536968Y-115825792D01*
X73591021Y-115837240D01*
X73638900Y-115843345D01*
X73690901Y-115846736D01*
X73732607Y-115847500D01*
X74694313Y-115847500D01*
X74749422Y-115846143D01*
X74800444Y-115842073D01*
X74847379Y-115835289D01*
X74900299Y-115822994D01*
X74946834Y-115806460D01*
X74986982Y-115785685D01*
X75020743Y-115760671D01*
X75053613Y-115725805D01*
X75079682Y-115687152D01*
X75098951Y-115644713D01*
X75111418Y-115598486D01*
X75117086Y-115548473D01*
X75117463Y-115530961D01*
X75113986Y-115479724D01*
X75103553Y-115432352D01*
X75086165Y-115388843D01*
X75061822Y-115349198D01*
X75030523Y-115313418D01*
X75018545Y-115302349D01*
X74977007Y-115272468D01*
X74935603Y-115252289D01*
X74888028Y-115236404D01*
X74834281Y-115224812D01*
X74786839Y-115218630D01*
X74735448Y-115215195D01*
X74694313Y-115214422D01*
X74595394Y-115214422D01*
X74595394Y-112893138D01*
X74694313Y-112893138D01*
X74749422Y-112891781D01*
X74800444Y-112887711D01*
X74847379Y-112880928D01*
X74900299Y-112868633D01*
X74946834Y-112852098D01*
X74986982Y-112831324D01*
X75020743Y-112806310D01*
X75053613Y-112771444D01*
X75079682Y-112732791D01*
X75098951Y-112690351D01*
X75111418Y-112644125D01*
X75117086Y-112594112D01*
X75117463Y-112576599D01*
X75114063Y-112525363D01*
X75103862Y-112477990D01*
X75086861Y-112434481D01*
X75063058Y-112394837D01*
X75032455Y-112359056D01*
X75020743Y-112347988D01*
X74979463Y-112318106D01*
X74938038Y-112297928D01*
X74890226Y-112282042D01*
X74836028Y-112270450D01*
X74788072Y-112264268D01*
X74736028Y-112260833D01*
X74694313Y-112260061D01*
X73732607Y-112260061D01*
X73677514Y-112261434D01*
X73626544Y-112265556D01*
X73579695Y-112272425D01*
X73526930Y-112284876D01*
X73480605Y-112301620D01*
X73440720Y-112322657D01*
X73407275Y-112347988D01*
X73374032Y-112382481D01*
X73347666Y-112420837D01*
X73328179Y-112463058D01*
X73315569Y-112509142D01*
X73309838Y-112559091D01*
X73309456Y-112576599D01*
X73312895Y-112627875D01*
X73323212Y-112675363D01*
X73340406Y-112719065D01*
X73364479Y-112758980D01*
X73395430Y-112795108D01*
X73407275Y-112806310D01*
X73448182Y-112835818D01*
X73489355Y-112855744D01*
X73536968Y-112871431D01*
X73591021Y-112882878D01*
X73638900Y-112888983D01*
X73690901Y-112892375D01*
X73732607Y-112893138D01*
X73961218Y-112893138D01*
X73961218Y-113666899D01*
X72835747Y-112893138D01*
X72881359Y-112888810D01*
X72923477Y-112873596D01*
X72958854Y-112843843D01*
X72972034Y-112823895D01*
X72990098Y-112778677D01*
X73000061Y-112735693D01*
X73006447Y-112685872D01*
X73009075Y-112637727D01*
X73009403Y-112611770D01*
X73006003Y-112559915D01*
X72995802Y-112510688D01*
X72978801Y-112464088D01*
X72954998Y-112420116D01*
X72924395Y-112378771D01*
X72912683Y-112365573D01*
X72878922Y-112335177D01*
X72838774Y-112309932D01*
X72792239Y-112289839D01*
X72739319Y-112274898D01*
X72692384Y-112266655D01*
X72641362Y-112261709D01*
X72586253Y-112260061D01*
X71939986Y-112260061D01*
X71884877Y-112261434D01*
X71833855Y-112265556D01*
X71786920Y-112272425D01*
X71734000Y-112284876D01*
X71687465Y-112301620D01*
X71647317Y-112322657D01*
X71613556Y-112347988D01*
X71580312Y-112382481D01*
X71553947Y-112420837D01*
X71534460Y-112463058D01*
X71521850Y-112509142D01*
X71516118Y-112559091D01*
X71515736Y-112576599D01*
X71519175Y-112627875D01*
X71529492Y-112675363D01*
X71546687Y-112719065D01*
X71570760Y-112758980D01*
X71601710Y-112795108D01*
X71613556Y-112806310D01*
X71654063Y-112835818D01*
X71693664Y-112855744D01*
X71738577Y-112871431D01*
X71788804Y-112882878D01*
X71832811Y-112888983D01*
X71880218Y-112892375D01*
X71918004Y-112893138D01*
X73055565Y-113713061D01*
X73015878Y-113736902D01*
X72976499Y-113762263D01*
X72937430Y-113789143D01*
X72898670Y-113817544D01*
X72860219Y-113847464D01*
X72822077Y-113878904D01*
X72784244Y-113911864D01*
X72746720Y-113946344D01*
X72709506Y-113982343D01*
X72672600Y-114019863D01*
X72636004Y-114058902D01*
X72599717Y-114099461D01*
X72563738Y-114141540D01*
X72528069Y-114185139D01*
X72492710Y-114230257D01*
X72457659Y-114276896D01*
X72422874Y-114324865D01*
X72388588Y-114374251D01*
X72354799Y-114425054D01*
X72321509Y-114477274D01*
X72288716Y-114530911D01*
X72256422Y-114585964D01*
X72224625Y-114642434D01*
X72193327Y-114700321D01*
X72162527Y-114759625D01*
X72132224Y-114820346D01*
X72102420Y-114882483D01*
X72073114Y-114946037D01*
X72044305Y-115011008D01*
X72015995Y-115077396D01*
X71988183Y-115145201D01*
X71960869Y-115214422D01*
X71791609Y-115214422D01*
X71737032Y-115215796D01*
X71686508Y-115219918D01*
X71640037Y-115226787D01*
X71587647Y-115239237D01*
X71541591Y-115255981D01*
X71501867Y-115277019D01*
X71468475Y-115302349D01*
X71435232Y-115336842D01*
X71408867Y-115375199D01*
X71389379Y-115417419D01*
X71376770Y-115463504D01*
X71371038Y-115513453D01*
X71370656Y-115530961D01*
X71374056Y-115582236D01*
X71384257Y-115629725D01*
X71401259Y-115673426D01*
X71425061Y-115713341D01*
X71455664Y-115749470D01*
X71467376Y-115760671D01*
X71507910Y-115790179D01*
X71548830Y-115810106D01*
X71596245Y-115825792D01*
X71650153Y-115837240D01*
X71697955Y-115843345D01*
X71749913Y-115846736D01*
X71791609Y-115847500D01*
X72366434Y-115847500D01*
X72391310Y-115786122D01*
X72416477Y-115725088D01*
X72441937Y-115664398D01*
X72467688Y-115604050D01*
X72493731Y-115544047D01*
X72520067Y-115484387D01*
X72546694Y-115425070D01*
X72573613Y-115366097D01*
X72600824Y-115307467D01*
X72628327Y-115249181D01*
X72656122Y-115191238D01*
X72684209Y-115133639D01*
X72712588Y-115076383D01*
X72741259Y-115019470D01*
X72770222Y-114962902D01*
X72799477Y-114906676D01*
X72823305Y-114861974D01*
X72846978Y-114818817D01*
X72870497Y-114777206D01*
X72893861Y-114737141D01*
X72917071Y-114698621D01*
X72951596Y-114643740D01*
X72985773Y-114592336D01*
X73019602Y-114544409D01*
X73053084Y-114499960D01*
X73086218Y-114458989D01*
X73119004Y-114421495D01*
X73151442Y-114387479D01*
X73162177Y-114376913D01*
X73194915Y-114346375D01*
X73228831Y-114316996D01*
X73263926Y-114288776D01*
X73300199Y-114261715D01*
X73337651Y-114235813D01*
X73376281Y-114211071D01*
X73416090Y-114187487D01*
X73457078Y-114165063D01*
X73499244Y-114143798D01*
X73542588Y-114123693D01*
X73572139Y-114110933D01*
X73961218Y-114406589D01*
G37*
D13*
%TO.C,REF\u002A\u002A*%
X79950995Y-107862500D02*
X78950995Y-107612500D01*
X79450995Y-106362500D02*
X78700995Y-106112500D01*
X78950995Y-108612500D02*
X78200995Y-108362500D01*
X78950995Y-107612500D02*
X79450995Y-106362500D01*
X78950995Y-105362500D02*
X77450995Y-105362500D01*
X78700995Y-110362500D02*
X79950995Y-107862500D01*
X78700995Y-110362500D02*
X78950995Y-108612500D01*
X78700995Y-106112500D02*
X78950995Y-105362500D01*
X78200995Y-108362500D02*
X78450995Y-106862500D01*
X77700995Y-106612500D02*
X78450995Y-106862500D01*
X77450995Y-105362500D02*
X77700995Y-106612500D01*
X83732258Y-109862500D02*
X82450995Y-109862500D01*
X82450995Y-109862500D02*
X82450995Y-111143763D01*
X82450995Y-111143763D02*
X83732258Y-111143763D01*
X83732258Y-111143763D02*
X83732258Y-109862500D01*
X83732258Y-107862500D02*
X82450995Y-107862500D01*
X82450995Y-107862500D02*
X82450995Y-109143763D01*
X82450995Y-109143763D02*
X83732258Y-109143763D01*
X83732258Y-109143763D02*
X83732258Y-107862500D01*
X81732258Y-109862500D02*
X80450995Y-109862500D01*
X80450995Y-109862500D02*
X80450995Y-111143763D01*
X80450995Y-111143763D02*
X81732258Y-111143763D01*
X81732258Y-111143763D02*
X81732258Y-109862500D01*
X81732258Y-107862500D02*
X80450995Y-107862500D01*
X80450995Y-107862500D02*
X80450995Y-109143763D01*
X80450995Y-109143763D02*
X81732258Y-109143763D01*
X81732258Y-109143763D02*
X81732258Y-107862500D01*
X77591627Y-109862500D02*
X76310364Y-109862500D01*
X76310364Y-109862500D02*
X76310364Y-111143763D01*
X76310364Y-111143763D02*
X77591627Y-111143763D01*
X77591627Y-111143763D02*
X77591627Y-109862500D01*
X77591627Y-107862500D02*
X76310364Y-107862500D01*
X76310364Y-107862500D02*
X76310364Y-109143763D01*
X76310364Y-109143763D02*
X77591627Y-109143763D01*
X77591627Y-109143763D02*
X77591627Y-107862500D01*
X75591627Y-109862500D02*
X74310364Y-109862500D01*
X74310364Y-109862500D02*
X74310364Y-111143763D01*
X74310364Y-111143763D02*
X75591627Y-111143763D01*
X75591627Y-111143763D02*
X75591627Y-109862500D01*
X75591627Y-107862500D02*
X74310364Y-107862500D01*
X74310364Y-107862500D02*
X74310364Y-109143763D01*
X74310364Y-109143763D02*
X75591627Y-109143763D01*
X75591627Y-109143763D02*
X75591627Y-107862500D01*
D11*
X73591625Y-110563617D02*
G75*
G03*
X77640510Y-114612501I1J-4048884D01*
G01*
%TD*%
M02*
