%TF.GenerationSoftware,KiCad,Pcbnew,7.0.7*%
%TF.CreationDate,2024-04-21T22:40:55+02:00*%
%TF.ProjectId,isokey_left_frame,69736f6b-6579-45f6-9c65-66745f667261,rev?*%
%TF.SameCoordinates,Original*%
%TF.FileFunction,Drillmap*%
%TF.FilePolarity,Positive*%
%FSLAX45Y45*%
G04 Gerber Fmt 4.5, Leading zero omitted, Abs format (unit mm)*
G04 Created by KiCad (PCBNEW 7.0.7) date 2024-04-21 22:40:55*
%MOMM*%
%LPD*%
G01*
G04 APERTURE LIST*
%ADD10C,0.250000*%
%ADD11C,0.200000*%
G04 APERTURE END LIST*
D10*
X9562610Y-3927015D02*
X9562610Y-3627015D01*
X9040489Y-5267123D02*
X10440459Y-5267123D01*
X8802369Y-10982153D02*
X10202329Y-10982153D01*
X6260000Y-11610001D02*
G75*
G03*
X6862610Y-10727015I-52547J682986D01*
G01*
X5562610Y-4785027D02*
X5609239Y-4785027D01*
X7462610Y-15427015D02*
X10440434Y-15427015D01*
X5262610Y-3627015D02*
X5262610Y-4485027D01*
X5762605Y-13727015D02*
G75*
G03*
X6062610Y-14027015I300005J5D01*
G01*
X6659239Y-6381443D02*
X6659239Y-4981333D01*
X7044121Y-8829278D02*
G75*
G03*
X6939529Y-9471379I418489J-397737D01*
G01*
X10440459Y-5267123D02*
X10440459Y-6667123D01*
X8564099Y-7172153D02*
X9964209Y-7172153D01*
X6512125Y-3881313D02*
G75*
G03*
X5931293Y-3881313I-290416J0D01*
G01*
X7104689Y-8735329D02*
G75*
G03*
X6159427Y-7043040I-1151589J466899D01*
G01*
X6967724Y-9599683D02*
G75*
G03*
X6939529Y-9471379I-300004J1323D01*
G01*
X10202329Y-10982153D02*
X10202329Y-12382123D01*
X9562605Y-3927015D02*
G75*
G03*
X9862610Y-4227015I300005J5D01*
G01*
X9262610Y-3327015D02*
X5562610Y-3327015D01*
X8802369Y-13172963D02*
X10202329Y-13172963D01*
X10202329Y-12382123D02*
X8802369Y-12382123D01*
X6278079Y-13525063D02*
X6278079Y-12125083D01*
X9040489Y-6667123D02*
X9040489Y-5267123D01*
X10202329Y-14572923D02*
X8802369Y-14572923D01*
X8278419Y-10477123D02*
X8278419Y-9077163D01*
X8802369Y-14572923D02*
X8802369Y-13172963D01*
X9964209Y-7172153D02*
X9964209Y-8572123D01*
X5931293Y-3881313D02*
G75*
G03*
X6512125Y-3881313I290416J0D01*
G01*
X8278419Y-9077163D02*
X9678389Y-9077163D01*
X5909243Y-5085027D02*
G75*
G03*
X5609239Y-4785027I-300003J-3D01*
G01*
X8802369Y-12382123D02*
X8802369Y-10982153D01*
X10690425Y-4477015D02*
G75*
G03*
X10440434Y-4227015I-249995J5D01*
G01*
X8059189Y-6381443D02*
X6659239Y-6381443D01*
X5762610Y-12107390D02*
X5762610Y-13727015D01*
X10440459Y-6667123D02*
X9040489Y-6667123D01*
X10440434Y-4227015D02*
X9862610Y-4227015D01*
X7131301Y-3881313D02*
G75*
G03*
X7712127Y-3881313I290413J0D01*
G01*
X10202329Y-13172963D02*
X10202329Y-14572923D01*
X7678159Y-12125083D02*
X7678159Y-13525063D01*
X9964209Y-8572123D02*
X8564099Y-8572123D01*
X6862605Y-14827015D02*
G75*
G03*
X7462610Y-15427015I600005J5D01*
G01*
X10690459Y-5267123D02*
X10690459Y-6667123D01*
X5262613Y-4485027D02*
G75*
G03*
X5562610Y-4785027I299997J-3D01*
G01*
X6862605Y-14327015D02*
G75*
G03*
X6562610Y-14027015I-299995J5D01*
G01*
X6062610Y-14027015D02*
X6562610Y-14027015D01*
X9562605Y-3627015D02*
G75*
G03*
X9262610Y-3327015I-299995J5D01*
G01*
X5909235Y-6747204D02*
G75*
G03*
X6159427Y-7043040I300005J5D01*
G01*
X5909239Y-5085027D02*
X5909239Y-6747204D01*
X7044120Y-8829278D02*
G75*
G03*
X7104683Y-8735326I-217450J206668D01*
G01*
X7712127Y-3881313D02*
G75*
G03*
X7131301Y-3881313I-290413J0D01*
G01*
X6862610Y-14327015D02*
X6862610Y-14827015D01*
X8331293Y-3881313D02*
G75*
G03*
X8912125Y-3881313I290416J0D01*
G01*
X8059189Y-4981333D02*
X8059189Y-6381443D01*
X6862610Y-10727015D02*
G75*
G03*
X6967723Y-9599683I-1090487J670244D01*
G01*
X6278079Y-12125083D02*
X7678159Y-12125083D01*
X8564099Y-8572123D02*
X8564099Y-7172153D01*
X10440434Y-15427014D02*
G75*
G03*
X10690434Y-15177015I-4J250004D01*
G01*
X8912125Y-3881313D02*
G75*
G03*
X8331293Y-3881313I-290416J0D01*
G01*
X7678159Y-13525063D02*
X6278079Y-13525063D01*
X9678389Y-10477123D02*
X8278419Y-10477123D01*
X6659239Y-4981333D02*
X8059189Y-4981333D01*
X5562610Y-3327015D02*
G75*
G03*
X5262610Y-3627015I0J-300000D01*
G01*
X6260000Y-11610000D02*
G75*
G03*
X5762610Y-12107390I0J-497390D01*
G01*
X10690434Y-15177015D02*
X10690434Y-4477015D01*
X9678389Y-9077163D02*
X9678389Y-10477123D01*
D11*
X5510887Y-15750998D02*
X5510887Y-15550998D01*
X5510887Y-15550998D02*
X5558506Y-15550998D01*
X5558506Y-15550998D02*
X5587077Y-15560522D01*
X5587077Y-15560522D02*
X5606125Y-15579570D01*
X5606125Y-15579570D02*
X5615649Y-15598617D01*
X5615649Y-15598617D02*
X5625172Y-15636713D01*
X5625172Y-15636713D02*
X5625172Y-15665284D01*
X5625172Y-15665284D02*
X5615649Y-15703379D01*
X5615649Y-15703379D02*
X5606125Y-15722427D01*
X5606125Y-15722427D02*
X5587077Y-15741475D01*
X5587077Y-15741475D02*
X5558506Y-15750998D01*
X5558506Y-15750998D02*
X5510887Y-15750998D01*
X5710887Y-15750998D02*
X5710887Y-15617665D01*
X5710887Y-15655760D02*
X5720410Y-15636713D01*
X5720410Y-15636713D02*
X5729934Y-15627189D01*
X5729934Y-15627189D02*
X5748982Y-15617665D01*
X5748982Y-15617665D02*
X5768030Y-15617665D01*
X5834696Y-15750998D02*
X5834696Y-15617665D01*
X5834696Y-15550998D02*
X5825172Y-15560522D01*
X5825172Y-15560522D02*
X5834696Y-15570046D01*
X5834696Y-15570046D02*
X5844220Y-15560522D01*
X5844220Y-15560522D02*
X5834696Y-15550998D01*
X5834696Y-15550998D02*
X5834696Y-15570046D01*
X5958506Y-15750998D02*
X5939458Y-15741475D01*
X5939458Y-15741475D02*
X5929934Y-15722427D01*
X5929934Y-15722427D02*
X5929934Y-15550998D01*
X6063268Y-15750998D02*
X6044220Y-15741475D01*
X6044220Y-15741475D02*
X6034696Y-15722427D01*
X6034696Y-15722427D02*
X6034696Y-15550998D01*
X6291839Y-15750998D02*
X6291839Y-15550998D01*
X6291839Y-15550998D02*
X6358506Y-15693855D01*
X6358506Y-15693855D02*
X6425172Y-15550998D01*
X6425172Y-15550998D02*
X6425172Y-15750998D01*
X6606125Y-15750998D02*
X6606125Y-15646236D01*
X6606125Y-15646236D02*
X6596601Y-15627189D01*
X6596601Y-15627189D02*
X6577553Y-15617665D01*
X6577553Y-15617665D02*
X6539458Y-15617665D01*
X6539458Y-15617665D02*
X6520410Y-15627189D01*
X6606125Y-15741475D02*
X6587077Y-15750998D01*
X6587077Y-15750998D02*
X6539458Y-15750998D01*
X6539458Y-15750998D02*
X6520410Y-15741475D01*
X6520410Y-15741475D02*
X6510887Y-15722427D01*
X6510887Y-15722427D02*
X6510887Y-15703379D01*
X6510887Y-15703379D02*
X6520410Y-15684332D01*
X6520410Y-15684332D02*
X6539458Y-15674808D01*
X6539458Y-15674808D02*
X6587077Y-15674808D01*
X6587077Y-15674808D02*
X6606125Y-15665284D01*
X6701363Y-15617665D02*
X6701363Y-15817665D01*
X6701363Y-15627189D02*
X6720410Y-15617665D01*
X6720410Y-15617665D02*
X6758506Y-15617665D01*
X6758506Y-15617665D02*
X6777553Y-15627189D01*
X6777553Y-15627189D02*
X6787077Y-15636713D01*
X6787077Y-15636713D02*
X6796601Y-15655760D01*
X6796601Y-15655760D02*
X6796601Y-15712903D01*
X6796601Y-15712903D02*
X6787077Y-15731951D01*
X6787077Y-15731951D02*
X6777553Y-15741475D01*
X6777553Y-15741475D02*
X6758506Y-15750998D01*
X6758506Y-15750998D02*
X6720410Y-15750998D01*
X6720410Y-15750998D02*
X6701363Y-15741475D01*
X6882315Y-15731951D02*
X6891839Y-15741475D01*
X6891839Y-15741475D02*
X6882315Y-15750998D01*
X6882315Y-15750998D02*
X6872791Y-15741475D01*
X6872791Y-15741475D02*
X6882315Y-15731951D01*
X6882315Y-15731951D02*
X6882315Y-15750998D01*
X6882315Y-15627189D02*
X6891839Y-15636713D01*
X6891839Y-15636713D02*
X6882315Y-15646236D01*
X6882315Y-15646236D02*
X6872791Y-15636713D01*
X6872791Y-15636713D02*
X6882315Y-15627189D01*
X6882315Y-15627189D02*
X6882315Y-15646236D01*
M02*
