%TF.GenerationSoftware,KiCad,Pcbnew,7.0.7*%
%TF.CreationDate,2024-04-21T22:40:59+02:00*%
%TF.ProjectId,isokey_left_frame,69736f6b-6579-45f6-9c65-66745f667261,rev?*%
%TF.SameCoordinates,Original*%
%TF.FileFunction,Soldermask,Bot*%
%TF.FilePolarity,Negative*%
%FSLAX46Y46*%
G04 Gerber Fmt 4.6, Leading zero omitted, Abs format (unit mm)*
G04 Created by KiCad (PCBNEW 7.0.7) date 2024-04-21 22:40:59*
%MOMM*%
%LPD*%
G01*
G04 APERTURE LIST*
%ADD10C,0.550000*%
%ADD11C,2.900000*%
%ADD12C,5.000000*%
G04 APERTURE END LIST*
D10*
X88031300Y-146715350D02*
X102030900Y-146715350D01*
X61788400Y-121236950D02*
X61788400Y-135236750D01*
X102030900Y-130715750D02*
X88031300Y-130715750D01*
X105412200Y-66657350D02*
X105412200Y-52657350D01*
X103030900Y-145715350D02*
X103030900Y-131715750D01*
X82791800Y-105757350D02*
X96791500Y-105757350D01*
X99649700Y-70707650D02*
X85648600Y-70707650D01*
X84648600Y-71707650D02*
X84648600Y-85707350D01*
X97791500Y-90757750D02*
G75*
G03*
X96791500Y-89757750I-1000006J-6D01*
G01*
X62788400Y-120236950D02*
G75*
G03*
X61788400Y-121236950I-62J-999938D01*
G01*
X104412200Y-67657350D02*
G75*
G03*
X105412200Y-66657350I-61J1000061D01*
G01*
X85648600Y-86707350D02*
X99649700Y-86707350D01*
X90412500Y-51657350D02*
G75*
G03*
X89412500Y-52657350I-62J-999938D01*
G01*
X62788400Y-136236750D02*
X76789200Y-136236750D01*
X88031300Y-108807650D02*
G75*
G03*
X87031300Y-109807650I-62J-999938D01*
G01*
X103030900Y-109807650D02*
G75*
G03*
X102030900Y-108807650I-1000006J-6D01*
G01*
X80599500Y-48799450D02*
X66600000Y-48799450D01*
X85648600Y-70707650D02*
G75*
G03*
X84648600Y-71707650I-62J-999938D01*
G01*
X103030900Y-131715750D02*
G75*
G03*
X102030900Y-130715750I-1000006J-6D01*
G01*
X61788400Y-135236750D02*
G75*
G03*
X62788400Y-136236750I999992J-8D01*
G01*
X103030900Y-123807350D02*
X103030900Y-109807650D01*
X88031300Y-124807350D02*
X102030900Y-124807350D01*
X66600000Y-48799450D02*
G75*
G03*
X65600000Y-49799450I-62J-999938D01*
G01*
X80599500Y-64800550D02*
G75*
G03*
X81599500Y-63800550I-61J1000061D01*
G01*
X96791500Y-89757750D02*
X82791800Y-89757750D01*
X104412200Y-51657350D02*
X90412500Y-51657350D01*
X87031300Y-123807350D02*
G75*
G03*
X88031300Y-124807350I999992J-8D01*
G01*
X105412198Y-52657350D02*
G75*
G03*
X104412200Y-51657350I-999999J1D01*
G01*
X77789200Y-135236750D02*
X77789200Y-121236950D01*
X81599500Y-49799450D02*
G75*
G03*
X80599500Y-48799450I-1000006J-6D01*
G01*
X84648600Y-85707350D02*
G75*
G03*
X85648600Y-86707350I999992J-8D01*
G01*
X96791500Y-105757350D02*
G75*
G03*
X97791500Y-104757350I-61J1000061D01*
G01*
X76789200Y-120236950D02*
X62788400Y-120236950D01*
X88031300Y-130715750D02*
G75*
G03*
X87031300Y-131715750I-62J-999938D01*
G01*
X65600000Y-63800550D02*
G75*
G03*
X66600000Y-64800550I999992J-8D01*
G01*
X97791500Y-104757350D02*
X97791500Y-90757750D01*
X76789200Y-136236750D02*
G75*
G03*
X77789200Y-135236750I-61J1000061D01*
G01*
X89412500Y-52657350D02*
X89412500Y-66657350D01*
X89412500Y-66657350D02*
G75*
G03*
X90412500Y-67657350I999992J-8D01*
G01*
X81791800Y-90757750D02*
X81791800Y-104757350D01*
X99649700Y-86707350D02*
G75*
G03*
X100649700Y-85707350I-61J1000061D01*
G01*
X82791800Y-89757750D02*
G75*
G03*
X81791800Y-90757750I-62J-999938D01*
G01*
X100649700Y-71707650D02*
G75*
G03*
X99649700Y-70707650I-1000006J-6D01*
G01*
X81791800Y-104757350D02*
G75*
G03*
X82791800Y-105757350I999992J-8D01*
G01*
X87031300Y-145715350D02*
G75*
G03*
X88031300Y-146715350I999992J-8D01*
G01*
X102030900Y-108807650D02*
X88031300Y-108807650D01*
X87031300Y-109807650D02*
X87031300Y-123807350D01*
X87031300Y-131715750D02*
X87031300Y-145715350D01*
X90412500Y-67657350D02*
X104412200Y-67657350D01*
X66600000Y-64800550D02*
X80599500Y-64800550D01*
X65600000Y-49799450D02*
X65600000Y-63800550D01*
X81599500Y-63800550D02*
X81599500Y-49799450D01*
X102030900Y-146715350D02*
G75*
G03*
X103030900Y-145715350I-61J1000061D01*
G01*
X77789200Y-121236950D02*
G75*
G03*
X76789200Y-120236950I-1000006J-6D01*
G01*
X102030900Y-124807350D02*
G75*
G03*
X103030900Y-123807350I-61J1000061D01*
G01*
X100649700Y-85707350D02*
X100649700Y-71707650D01*
D11*
%TO.C,H1*%
X55626099Y-44770146D03*
D12*
X55626099Y-44770146D03*
%TD*%
D11*
%TO.C,H4*%
X73626099Y-149270146D03*
D12*
X73626099Y-149270146D03*
%TD*%
D11*
%TO.C,H5*%
X104476841Y-151842647D03*
D12*
X104476841Y-151842647D03*
%TD*%
D11*
%TO.C,H3*%
X69626099Y-70270146D03*
D12*
X69626099Y-70270146D03*
%TD*%
D11*
%TO.C,H2*%
X104401531Y-44729232D03*
D12*
X104401531Y-44729232D03*
%TD*%
M02*
