%TF.GenerationSoftware,KiCad,Pcbnew,7.0.7*%
%TF.CreationDate,2024-04-21T22:40:59+02:00*%
%TF.ProjectId,isokey_left_frame,69736f6b-6579-45f6-9c65-66745f667261,rev?*%
%TF.SameCoordinates,Original*%
%TF.FileFunction,Copper,L1,Top*%
%TF.FilePolarity,Positive*%
%FSLAX46Y46*%
G04 Gerber Fmt 4.6, Leading zero omitted, Abs format (unit mm)*
G04 Created by KiCad (PCBNEW 7.0.7) date 2024-04-21 22:40:59*
%MOMM*%
%LPD*%
G01*
G04 APERTURE LIST*
%TA.AperFunction,NonConductor*%
%ADD10C,0.250000*%
%TD*%
%TA.AperFunction,NonConductor*%
%ADD11C,0.550000*%
%TD*%
%TA.AperFunction,ComponentPad*%
%ADD12C,2.900000*%
%TD*%
%TA.AperFunction,ConnectorPad*%
%ADD13C,5.000000*%
%TD*%
G04 APERTURE END LIST*
D10*
X69126099Y-70270146D02*
G75*
G03*
X70126099Y-70270146I500000J0D01*
G01*
D11*
X102023290Y-124821190D02*
G75*
G03*
X103023290Y-123821232I10J999990D01*
G01*
X102023290Y-146729190D02*
G75*
G03*
X103023290Y-145729232I10J999990D01*
G01*
X96783890Y-105771232D02*
X82784190Y-105771232D01*
X102023290Y-124821232D02*
X88023690Y-124821232D01*
D10*
X76126099Y-149270146D02*
G75*
G03*
X76126099Y-149270146I-2500000J0D01*
G01*
D11*
X62780790Y-120250832D02*
X76781590Y-120250832D01*
X96783890Y-105771190D02*
G75*
G03*
X97783890Y-104771232I10J999990D01*
G01*
X97783890Y-90771632D02*
X97783890Y-104771232D01*
X103023290Y-131729632D02*
X103023290Y-145729232D01*
X87023690Y-123821232D02*
X87023690Y-109821532D01*
X103023290Y-109821532D02*
X103023290Y-123821232D01*
X61780768Y-135250632D02*
G75*
G03*
X62780790Y-136250632I1000032J32D01*
G01*
X84640990Y-85721232D02*
X84640990Y-71721532D01*
X100642090Y-71721532D02*
X100642090Y-85721232D01*
X82784190Y-89771632D02*
X96783890Y-89771632D01*
X88023690Y-130729632D02*
X102023290Y-130729632D01*
X105404568Y-52671232D02*
G75*
G03*
X104404590Y-51671232I-999968J32D01*
G01*
X76781590Y-136250590D02*
G75*
G03*
X77781590Y-135250632I10J999990D01*
G01*
X62780790Y-120250790D02*
G75*
G03*
X61780790Y-121250832I10J-1000010D01*
G01*
X105404590Y-52671232D02*
X105404590Y-66671232D01*
X102023290Y-146729232D02*
X88023690Y-146729232D01*
X97783868Y-90771632D02*
G75*
G03*
X96783890Y-89771632I-999968J32D01*
G01*
X99642090Y-86721232D02*
X85640990Y-86721232D01*
X66592390Y-48813332D02*
X80591890Y-48813332D01*
X80591890Y-64814432D02*
X66592390Y-64814432D01*
D10*
X70126099Y-70270146D02*
G75*
G03*
X69126099Y-70270146I-500000J0D01*
G01*
D11*
X81784168Y-104771232D02*
G75*
G03*
X82784190Y-105771232I1000032J32D01*
G01*
D10*
X103048260Y-151842647D02*
G75*
G03*
X105905422Y-151842647I1428581J0D01*
G01*
D11*
X85640990Y-70721532D02*
X99642090Y-70721532D01*
X66592390Y-48813290D02*
G75*
G03*
X65592390Y-49813332I10J-1000010D01*
G01*
X104404590Y-67671190D02*
G75*
G03*
X105404590Y-66671232I10J999990D01*
G01*
X61780790Y-135250632D02*
X61780790Y-121250832D01*
X76781590Y-136250632D02*
X62780790Y-136250632D01*
X90404890Y-51671190D02*
G75*
G03*
X89404890Y-52671232I10J-1000010D01*
G01*
X80591890Y-64814390D02*
G75*
G03*
X81591890Y-63814432I10J999990D01*
G01*
X103023268Y-131729632D02*
G75*
G03*
X102023290Y-130729632I-999968J32D01*
G01*
X85640990Y-70721490D02*
G75*
G03*
X84640990Y-71721532I10J-1000010D01*
G01*
X87023668Y-123821232D02*
G75*
G03*
X88023690Y-124821232I1000032J32D01*
G01*
X90404890Y-51671232D02*
X104404590Y-51671232D01*
X103023268Y-109821532D02*
G75*
G03*
X102023290Y-108821532I-999968J32D01*
G01*
X88023690Y-108821490D02*
G75*
G03*
X87023690Y-109821532I10J-1000010D01*
G01*
X81591890Y-49813332D02*
X81591890Y-63814432D01*
X65592390Y-63814432D02*
X65592390Y-49813332D01*
D10*
X56126099Y-44770146D02*
G75*
G03*
X55126099Y-44770146I-500000J0D01*
G01*
D11*
X84640968Y-85721232D02*
G75*
G03*
X85640990Y-86721232I1000032J32D01*
G01*
X81591868Y-49813332D02*
G75*
G03*
X80591890Y-48813332I-999968J32D01*
G01*
X77781590Y-121250832D02*
X77781590Y-135250632D01*
X104404590Y-67671232D02*
X90404890Y-67671232D01*
X87023690Y-145729232D02*
X87023690Y-131729632D01*
D10*
X55126099Y-44770146D02*
G75*
G03*
X56126099Y-44770146I500000J0D01*
G01*
D11*
X100642068Y-71721532D02*
G75*
G03*
X99642090Y-70721532I-999968J32D01*
G01*
X82784190Y-89771590D02*
G75*
G03*
X81784190Y-90771632I10J-1000010D01*
G01*
X99642090Y-86721190D02*
G75*
G03*
X100642090Y-85721232I10J999990D01*
G01*
X81784190Y-104771232D02*
X81784190Y-90771632D01*
X89404868Y-66671232D02*
G75*
G03*
X90404890Y-67671232I1000032J32D01*
G01*
D10*
X105905422Y-151842647D02*
G75*
G03*
X103048260Y-151842647I-1428581J0D01*
G01*
D11*
X89404890Y-66671232D02*
X89404890Y-52671232D01*
X77781568Y-121250832D02*
G75*
G03*
X76781590Y-120250832I-999968J32D01*
G01*
X65592368Y-63814432D02*
G75*
G03*
X66592390Y-64814432I1000032J32D01*
G01*
D10*
X58126099Y-44770146D02*
G75*
G03*
X58126099Y-44770146I-2500000J0D01*
G01*
D11*
X88023690Y-130729590D02*
G75*
G03*
X87023690Y-131729632I10J-1000010D01*
G01*
D10*
X72126099Y-70270146D02*
G75*
G03*
X72126099Y-70270146I-2500000J0D01*
G01*
D11*
X88023690Y-108821532D02*
X102023290Y-108821532D01*
X87023668Y-145729232D02*
G75*
G03*
X88023690Y-146729232I1000032J32D01*
G01*
D12*
%TO.P,H1,1,1*%
%TO.N,GND*%
X55626099Y-44770146D03*
D13*
X55626099Y-44770146D03*
%TD*%
D12*
%TO.P,H4,1,1*%
%TO.N,GND*%
X73626099Y-149270146D03*
D13*
X73626099Y-149270146D03*
%TD*%
D12*
%TO.P,H5,1,1*%
%TO.N,GND*%
X104476841Y-151842647D03*
D13*
X104476841Y-151842647D03*
%TD*%
D12*
%TO.P,H3,1,1*%
%TO.N,GND*%
X69626099Y-70270146D03*
D13*
X69626099Y-70270146D03*
%TD*%
D12*
%TO.P,H2,1,1*%
%TO.N,GND*%
X104401531Y-44729232D03*
D13*
X104401531Y-44729232D03*
%TD*%
M02*
