%TF.GenerationSoftware,KiCad,Pcbnew,7.0.7*%
%TF.CreationDate,2024-04-21T22:48:18+02:00*%
%TF.ProjectId,isokey_frame_right,69736f6b-6579-45f6-9672-616d655f7269,rev?*%
%TF.SameCoordinates,Original*%
%TF.FileFunction,Soldermask,Top*%
%TF.FilePolarity,Negative*%
%FSLAX46Y46*%
G04 Gerber Fmt 4.6, Leading zero omitted, Abs format (unit mm)*
G04 Created by KiCad (PCBNEW 7.0.7) date 2024-04-21 22:48:18*
%MOMM*%
%LPD*%
G01*
G04 APERTURE LIST*
%ADD10C,0.500000*%
%ADD11C,2.900000*%
%ADD12C,5.000000*%
G04 APERTURE END LIST*
D10*
X138525000Y-139914600D02*
G75*
G03*
X139525000Y-138914600I0J1000000D01*
G01*
X180436000Y-126579300D02*
G75*
G03*
X181436000Y-125579300I0J1000000D01*
G01*
X180436000Y-110579600D02*
X166436000Y-110579600D01*
X94475000Y-114150000D02*
X94475000Y-100150300D01*
X124525000Y-139914600D02*
X138525000Y-139914600D01*
X180436000Y-72529900D02*
X166436000Y-72529900D01*
X181436000Y-87529600D02*
X181436000Y-73529900D01*
X108093000Y-43000000D02*
G75*
G03*
X107093000Y-42000000I-1000000J0D01*
G01*
X158575000Y-124915100D02*
G75*
G03*
X157575000Y-123915100I-1000100J-100D01*
G01*
X112144000Y-42000000D02*
G75*
G03*
X111144000Y-43000000I0J-1000000D01*
G01*
X124525000Y-120864600D02*
X138525000Y-120864600D01*
X180436000Y-88529600D02*
G75*
G03*
X181436000Y-87529600I0J1000000D01*
G01*
X138525000Y-104865000D02*
X124525000Y-104865000D01*
X94475000Y-114150000D02*
G75*
G03*
X95475000Y-115150000I1000000J0D01*
G01*
X93094000Y-42000000D02*
X107093000Y-42000000D01*
X104475000Y-124915100D02*
X104475000Y-138914600D01*
X158575000Y-138914600D02*
X158575000Y-124915100D01*
X180436000Y-91529600D02*
X166436000Y-91529600D01*
X112144000Y-61050300D02*
G75*
G03*
X111144000Y-62050300I0J-1000000D01*
G01*
X108093000Y-62050300D02*
G75*
G03*
X107093000Y-61050300I-1000000J0D01*
G01*
X105475000Y-139914600D02*
X119475000Y-139914600D01*
X165436000Y-92529600D02*
X165436000Y-106529300D01*
X112144000Y-80100300D02*
G75*
G03*
X111144000Y-81100300I0J-1000000D01*
G01*
X92094000Y-95100000D02*
G75*
G03*
X93094000Y-96100000I1000000J0D01*
G01*
X157575000Y-123915100D02*
X143575000Y-123915100D01*
X139525000Y-105865000D02*
G75*
G03*
X138525000Y-104865000I-1000100J-100D01*
G01*
X165436000Y-73529900D02*
X165436000Y-87529600D01*
X107093000Y-77050000D02*
G75*
G03*
X108093000Y-76050000I0J1000000D01*
G01*
X139525000Y-124915100D02*
G75*
G03*
X138525000Y-123915100I-1000100J-100D01*
G01*
X166436000Y-107529300D02*
X180436000Y-107529300D01*
X126143000Y-42000000D02*
X112144000Y-42000000D01*
X109475000Y-115150000D02*
X95475000Y-115150000D01*
X142575000Y-138914600D02*
G75*
G03*
X143575000Y-139914600I999900J-100D01*
G01*
X119475000Y-123915100D02*
X105475000Y-123915100D01*
X120475000Y-124915100D02*
G75*
G03*
X119475000Y-123915100I-1000100J-100D01*
G01*
X138525000Y-120864600D02*
G75*
G03*
X139525000Y-119864600I0J1000000D01*
G01*
X104475000Y-138914600D02*
G75*
G03*
X105475000Y-139914600I1000000J0D01*
G01*
X157575000Y-139914600D02*
G75*
G03*
X158575000Y-138914600I0J1000000D01*
G01*
X126143000Y-96100000D02*
G75*
G03*
X127143000Y-95100000I0J1000000D01*
G01*
X166436000Y-72529900D02*
G75*
G03*
X165436000Y-73529900I0J-1000000D01*
G01*
X124525000Y-104865000D02*
G75*
G03*
X123525000Y-105865000I0J-1000000D01*
G01*
X107093000Y-96100000D02*
G75*
G03*
X108093000Y-95100000I0J1000000D01*
G01*
X181436000Y-106529300D02*
X181436000Y-92529600D01*
X127143000Y-43000000D02*
G75*
G03*
X126143000Y-42000000I-1000100J-100D01*
G01*
X165436000Y-106529300D02*
G75*
G03*
X166436000Y-107529300I999900J-100D01*
G01*
X138525000Y-123915100D02*
X124525000Y-123915100D01*
X92094000Y-57000000D02*
X92094000Y-43000000D01*
X119475000Y-139914600D02*
G75*
G03*
X120475000Y-138914600I0J1000000D01*
G01*
X139525000Y-119864600D02*
X139525000Y-105865000D01*
X180436000Y-107529300D02*
G75*
G03*
X181436000Y-106529300I0J1000000D01*
G01*
X127143000Y-57000000D02*
X127143000Y-43000000D01*
X92094000Y-76050000D02*
G75*
G03*
X93094000Y-77050000I1000000J0D01*
G01*
X111144000Y-57000000D02*
G75*
G03*
X112144000Y-58000000I999900J-100D01*
G01*
X124525000Y-123915100D02*
G75*
G03*
X123525000Y-124915100I0J-1000000D01*
G01*
X92094000Y-76050000D02*
X92094000Y-62050300D01*
X92094000Y-57000000D02*
G75*
G03*
X93094000Y-58000000I1000000J0D01*
G01*
X108093000Y-81100300D02*
X108093000Y-95100000D01*
X93094000Y-80100300D02*
X107093000Y-80100300D01*
X108093000Y-62050300D02*
X108093000Y-76050000D01*
X95475000Y-99150300D02*
G75*
G03*
X94475000Y-100150300I0J-1000000D01*
G01*
X112144000Y-77050000D02*
X126143000Y-77050000D01*
X127143000Y-76050000D02*
X127143000Y-62050300D01*
X93094000Y-61050300D02*
X107093000Y-61050300D01*
X107093000Y-77050000D02*
X93094000Y-77050000D01*
X107093000Y-96100000D02*
X93094000Y-96100000D01*
X108093000Y-43000000D02*
X108093000Y-57000000D01*
X112144000Y-96100000D02*
X126143000Y-96100000D01*
X127143000Y-62050300D02*
G75*
G03*
X126143000Y-61050300I-1000100J-100D01*
G01*
X120475000Y-138914600D02*
X120475000Y-124915100D01*
X92094000Y-95100000D02*
X92094000Y-81100300D01*
X142575000Y-124915100D02*
X142575000Y-138914600D01*
X166436000Y-110579600D02*
G75*
G03*
X165436000Y-111579600I0J-1000000D01*
G01*
X181436000Y-92529600D02*
G75*
G03*
X180436000Y-91529600I-1000100J-100D01*
G01*
X93094000Y-61050300D02*
G75*
G03*
X92094000Y-62050300I0J-1000000D01*
G01*
X111144000Y-43000000D02*
X111144000Y-57000000D01*
X111144000Y-76050000D02*
G75*
G03*
X112144000Y-77050000I999900J-100D01*
G01*
X166436000Y-126579300D02*
X180436000Y-126579300D01*
X123525000Y-105865000D02*
X123525000Y-119864600D01*
X110475000Y-100150300D02*
X110475000Y-114150000D01*
X107093000Y-58000000D02*
G75*
G03*
X108093000Y-57000000I0J1000000D01*
G01*
X111144000Y-62050300D02*
X111144000Y-76050000D01*
X181436000Y-111579600D02*
G75*
G03*
X180436000Y-110579600I-1000100J-100D01*
G01*
X126143000Y-61050300D02*
X112144000Y-61050300D01*
X127143000Y-95100000D02*
X127143000Y-81100300D01*
X165436000Y-111579600D02*
X165436000Y-125579300D01*
X111144000Y-95100000D02*
G75*
G03*
X112144000Y-96100000I999900J-100D01*
G01*
X181436000Y-73529900D02*
G75*
G03*
X180436000Y-72529900I-1000100J-100D01*
G01*
X143575000Y-139914600D02*
X157575000Y-139914600D01*
X93094000Y-80100300D02*
G75*
G03*
X92094000Y-81100300I0J-1000000D01*
G01*
X139525000Y-138914600D02*
X139525000Y-124915100D01*
X126143000Y-58000000D02*
G75*
G03*
X127143000Y-57000000I0J1000000D01*
G01*
X123525000Y-119864600D02*
G75*
G03*
X124525000Y-120864600I999900J-100D01*
G01*
X166436000Y-88529600D02*
X180436000Y-88529600D01*
X143575000Y-123915100D02*
G75*
G03*
X142575000Y-124915100I0J-1000000D01*
G01*
X108093000Y-81100300D02*
G75*
G03*
X107093000Y-80100300I-1000000J0D01*
G01*
X93094000Y-42000000D02*
G75*
G03*
X92094000Y-43000000I0J-1000000D01*
G01*
X109475000Y-115150000D02*
G75*
G03*
X110475000Y-114150000I0J1000000D01*
G01*
X112144000Y-58000000D02*
X126143000Y-58000000D01*
X181436000Y-125579300D02*
X181436000Y-111579600D01*
X95475000Y-99150300D02*
X109475000Y-99150300D01*
X111144000Y-81100300D02*
X111144000Y-95100000D01*
X107093000Y-58000000D02*
X93094000Y-58000000D01*
X110475000Y-100150300D02*
G75*
G03*
X109475000Y-99150300I-1000100J-100D01*
G01*
X127143000Y-81100300D02*
G75*
G03*
X126143000Y-80100300I-1000100J-100D01*
G01*
X105475000Y-123915100D02*
G75*
G03*
X104475000Y-124915100I0J-1000000D01*
G01*
X126143000Y-77050000D02*
G75*
G03*
X127143000Y-76050000I0J1000000D01*
G01*
X123525000Y-138914600D02*
G75*
G03*
X124525000Y-139914600I999900J-100D01*
G01*
X165436000Y-87529600D02*
G75*
G03*
X166436000Y-88529600I999900J-100D01*
G01*
X165436000Y-125579300D02*
G75*
G03*
X166436000Y-126579300I999900J-100D01*
G01*
X123525000Y-124915100D02*
X123525000Y-138914600D01*
X126143000Y-80100300D02*
X112144000Y-80100300D01*
X166436000Y-91529600D02*
G75*
G03*
X165436000Y-92529600I0J-1000000D01*
G01*
D11*
%TO.C,H5*%
X93000250Y-35098914D03*
D12*
X93000250Y-35098914D03*
%TD*%
D11*
%TO.C,H4*%
X165778491Y-37598914D03*
D12*
X165778491Y-37598914D03*
%TD*%
D11*
%TO.C,H4*%
X165778491Y-66598915D03*
D12*
X165778491Y-66598915D03*
%TD*%
D11*
%TO.C,H1*%
X93000000Y-142200000D03*
D12*
X93000000Y-142200000D03*
%TD*%
D11*
%TO.C,H2*%
X185342500Y-142098914D03*
D12*
X185342500Y-142098914D03*
%TD*%
M02*
