%TF.GenerationSoftware,KiCad,Pcbnew,7.0.7*%
%TF.CreationDate,2024-04-21T22:48:18+02:00*%
%TF.ProjectId,isokey_frame_right,69736f6b-6579-45f6-9672-616d655f7269,rev?*%
%TF.SameCoordinates,Original*%
%TF.FileFunction,Profile,NP*%
%FSLAX46Y46*%
G04 Gerber Fmt 4.6, Leading zero omitted, Abs format (unit mm)*
G04 Created by KiCad (PCBNEW 7.0.7) date 2024-04-21 22:48:18*
%MOMM*%
%LPD*%
G01*
G04 APERTURE LIST*
%TA.AperFunction,Profile*%
%ADD10C,0.250000*%
%TD*%
G04 APERTURE END LIST*
D10*
X166342500Y-125579301D02*
X180342500Y-125579301D01*
X163725500Y-50500001D02*
X163725500Y-47699001D01*
X151692500Y-68324501D02*
X151692500Y-65024301D01*
X93000500Y-62050301D02*
X106999500Y-62050301D01*
X147543500Y-94674201D02*
X147543500Y-93850101D01*
X137493500Y-65024301D02*
X137493500Y-68324501D01*
X140625500Y-47699001D02*
X139100500Y-47699001D01*
X137493500Y-88824401D02*
X137493500Y-92124701D01*
X168278491Y-37598914D02*
G75*
G03*
X168278491Y-37598914I-2500000J0D01*
G01*
X154624500Y-47699001D02*
X154624500Y-43000001D01*
X180342500Y-111579601D02*
X166342500Y-111579601D01*
X166342500Y-87529601D02*
X180342500Y-87529601D01*
X171667223Y-43339265D02*
X171667320Y-56999894D01*
X157874500Y-43550001D02*
X157874500Y-44469001D01*
X138472500Y-63300201D02*
X138472500Y-65024301D01*
X132350500Y-47699001D02*
X131524500Y-47699001D01*
X135000000Y-26307254D02*
G75*
G03*
X129307254Y-32000000I0J-5692746D01*
G01*
X140625500Y-52299201D02*
X140625500Y-57000001D01*
X90500185Y-142098915D02*
G75*
G03*
X93000250Y-144598915I2500015J15D01*
G01*
X138431500Y-124915101D02*
X124431500Y-124915101D01*
X105381500Y-138914601D02*
X119381500Y-138914601D01*
X180342500Y-92529601D02*
X166342500Y-92529601D01*
X137904163Y-32000000D02*
G75*
G03*
X132095837Y-32000000I-2904163J0D01*
G01*
X106999500Y-57000001D02*
X93000500Y-57000001D01*
X156150500Y-52299201D02*
X156150500Y-56769601D01*
X150773500Y-65024301D02*
X150773500Y-63300201D01*
X150773500Y-87100401D02*
X147543500Y-87100401D01*
X166342500Y-106529301D02*
X180342500Y-106529301D01*
X140625500Y-57000001D02*
X154624500Y-57000001D01*
X137493500Y-92124701D02*
X138472500Y-92124701D01*
X180342500Y-125579301D02*
X180342500Y-111579601D01*
X90500186Y-142098914D02*
G75*
G03*
X93000250Y-144598914I2500114J114D01*
G01*
X112050500Y-76050001D02*
X126049500Y-76050001D01*
X180342500Y-66029901D02*
X174384086Y-66029901D01*
X109381500Y-114150001D02*
X95381500Y-114150001D01*
X187842500Y-73529901D02*
X187842500Y-142098915D01*
X126049500Y-57000001D02*
X126049500Y-43000001D01*
X149904178Y-32000000D02*
G75*
G03*
X144095922Y-32000000I-2904128J-1D01*
G01*
X139100500Y-56769601D02*
X139100500Y-52299201D01*
X157481500Y-138914601D02*
X157481500Y-124915101D01*
X131524500Y-50500001D02*
X132350500Y-50500001D01*
X180342500Y-106529301D02*
X180342500Y-92529601D01*
X139100500Y-44469001D02*
X137374500Y-44469001D01*
X138431500Y-138914601D02*
X138431500Y-124915101D01*
X137374500Y-44469001D02*
X137374500Y-43550001D01*
X93000500Y-81100301D02*
X106999500Y-81100301D01*
X138472500Y-70049901D02*
X142943500Y-70049901D01*
X144095922Y-32000000D02*
G75*
G03*
X149904178Y-32000000I2904128J0D01*
G01*
X124431500Y-138914601D02*
X138431500Y-138914601D01*
X162899500Y-50500001D02*
X163725500Y-50500001D01*
X138472500Y-93850101D02*
X144743500Y-93850101D01*
X134075500Y-43550001D02*
X134075500Y-44469001D01*
X144743500Y-93850101D02*
X144743500Y-94674201D01*
X150773500Y-92124701D02*
X151692500Y-92124701D01*
X132095837Y-32000000D02*
G75*
G03*
X137904163Y-32000000I2904163J-1D01*
G01*
X151692500Y-65024301D02*
X150773500Y-65024301D01*
X126049500Y-76050001D02*
X126049500Y-62050301D01*
X147543500Y-70049901D02*
X150773500Y-70049901D01*
X124431500Y-119864601D02*
X138431500Y-119864601D01*
X156150500Y-56769601D02*
X157874500Y-56769601D01*
X163725500Y-47699001D02*
X162899500Y-47699001D01*
X144743500Y-63300201D02*
X138472500Y-63300201D01*
X152243500Y-71575301D02*
X147543500Y-71575301D01*
X152243500Y-85575001D02*
X152243500Y-71575301D01*
X138472500Y-92124701D02*
X138472500Y-93850101D01*
X106999500Y-43000001D02*
X106999500Y-57000001D01*
X129307254Y-32000000D02*
X129307254Y-33200000D01*
X140625500Y-43000001D02*
X140625500Y-47699001D01*
X138472500Y-88824401D02*
X137493500Y-88824401D01*
X137493500Y-68324501D02*
X138472500Y-68324501D01*
X165600000Y-26307254D02*
X135000000Y-26307254D01*
X185342500Y-144598900D02*
G75*
G03*
X187842500Y-142098915I0J2500000D01*
G01*
X142943500Y-87100401D02*
X138472500Y-87100401D01*
X157481500Y-124915101D02*
X143481500Y-124915101D01*
X138242500Y-85575001D02*
X142943500Y-85575001D01*
X147543500Y-71575301D02*
X147543500Y-70049901D01*
X106999500Y-62050301D02*
X106999500Y-76050001D01*
X93000500Y-43000001D02*
X106999500Y-43000001D01*
X187842499Y-73529901D02*
G75*
G03*
X180342500Y-66029901I-7499999J1D01*
G01*
X150773500Y-70049901D02*
X150773500Y-68324501D01*
X162899500Y-44469001D02*
X161174500Y-44469001D01*
X147543500Y-63300201D02*
X147543500Y-62474701D01*
X144743500Y-94674201D02*
X147543500Y-94674201D01*
X138242500Y-71575301D02*
X138242500Y-85575001D01*
X156150500Y-47699001D02*
X154624500Y-47699001D01*
X109381500Y-100150301D02*
X109381500Y-114150001D01*
X169196578Y-34671125D02*
G75*
G03*
X169285439Y-37510747I1451622J-1375775D01*
G01*
X127000000Y-35500000D02*
G75*
G03*
X129300000Y-33200000I0J2300000D01*
G01*
X112050500Y-43000001D02*
X112050500Y-57000001D01*
X143481500Y-138914601D02*
X157481500Y-138914601D01*
X93000250Y-144598915D02*
X185342500Y-144598915D01*
X112050500Y-57000001D02*
X126049500Y-57000001D01*
X119381500Y-124915101D02*
X105381500Y-124915101D01*
X157874500Y-56769601D02*
X157874500Y-57749601D01*
X157874500Y-44469001D02*
X156150500Y-44469001D01*
X138472500Y-68324501D02*
X138472500Y-70049901D01*
X161174500Y-44469001D02*
X161174500Y-43550001D01*
X157874500Y-57749601D02*
X161174500Y-57749601D01*
X134075500Y-56769601D02*
X134075500Y-57749601D01*
X137374500Y-56769601D02*
X139100500Y-56769601D01*
X95337107Y-34210634D02*
G75*
G03*
X97206611Y-35500001I1869493J710634D01*
G01*
X126049500Y-81100301D02*
X112050500Y-81100301D01*
X154624500Y-43000001D02*
X140625500Y-43000001D01*
X131524500Y-47699001D02*
X131524500Y-50500001D01*
X126049500Y-95100001D02*
X126049500Y-81100301D01*
X150773500Y-68324501D02*
X151692500Y-68324501D01*
X171667218Y-42660631D02*
X171667223Y-43339265D01*
X161904163Y-32000000D02*
G75*
G03*
X156095837Y-32000000I-2904163J0D01*
G01*
X138431500Y-119864601D02*
X138431500Y-105865001D01*
X180342500Y-73529901D02*
X166342500Y-73529901D01*
X138244200Y-59525200D02*
G75*
G03*
X137890400Y-59550301I-300J-2501700D01*
G01*
X138472500Y-87100401D02*
X138472500Y-88824401D01*
X126049500Y-62050301D02*
X112050500Y-62050301D01*
X162899500Y-56769601D02*
X162899500Y-50500001D01*
X142943500Y-71575301D02*
X138242500Y-71575301D01*
X112050500Y-81100301D02*
X112050500Y-95100001D01*
X147543500Y-85575001D02*
X152243500Y-85575001D01*
X154624500Y-57000001D02*
X154624500Y-52299201D01*
X90500250Y-35098915D02*
X90500250Y-142098915D01*
X151692500Y-88824401D02*
X150773500Y-88824401D01*
X170872935Y-60113686D02*
G75*
G03*
X171667320Y-56999848I-5705435J3113786D01*
G01*
X101778362Y-50000001D02*
G75*
G03*
X101778362Y-50000001I-1778362J0D01*
G01*
X156150500Y-44469001D02*
X156150500Y-47699001D01*
X147543500Y-62474701D02*
X144743500Y-62474701D01*
X112050500Y-62050301D02*
X112050500Y-76050001D01*
X150773500Y-63300201D02*
X147543500Y-63300201D01*
X137374500Y-57749601D02*
X137374500Y-56769601D01*
X156095837Y-32000000D02*
G75*
G03*
X161904163Y-32000000I2904163J-1D01*
G01*
X132350500Y-50500001D02*
X132350500Y-56769601D01*
X106999500Y-76050001D02*
X93000500Y-76050001D01*
X147543500Y-87100401D02*
X147543500Y-85575001D01*
X126049500Y-43000001D02*
X112050500Y-43000001D01*
X162899500Y-47699001D02*
X162899500Y-44469001D01*
X154624500Y-52299201D02*
X156150500Y-52299201D01*
X139100500Y-47699001D02*
X139100500Y-44469001D01*
X93000500Y-57000001D02*
X93000500Y-43000001D01*
X134075500Y-57749601D02*
X137374500Y-57749601D01*
X138431500Y-105865001D02*
X124431500Y-105865001D01*
X161174500Y-56769601D02*
X162899500Y-56769601D01*
X132350500Y-44469001D02*
X132350500Y-47699001D01*
X161174500Y-43550001D02*
X157874500Y-43550001D01*
X142943500Y-85575001D02*
X142943500Y-87100401D01*
X169196605Y-34671151D02*
G75*
G03*
X165600000Y-26307254I-3596605J3408651D01*
G01*
X170872874Y-60113653D02*
G75*
G03*
X174384086Y-66029901I3511126J-1916247D01*
G01*
X139100500Y-52299201D02*
X140625500Y-52299201D01*
X161174500Y-57749601D02*
X161174500Y-56769601D01*
X142943500Y-70049901D02*
X142943500Y-71575301D01*
X93000500Y-76050001D02*
X93000500Y-62050301D01*
X93000500Y-95100001D02*
X93000500Y-81100301D01*
X166342500Y-73529901D02*
X166342500Y-87529601D01*
X105381500Y-124915101D02*
X105381500Y-138914601D01*
X97206611Y-35500001D02*
X127000000Y-35500001D01*
X134075500Y-44469001D02*
X132350500Y-44469001D01*
X150773500Y-93850101D02*
X150773500Y-92124701D01*
X180342500Y-87529601D02*
X180342500Y-73529901D01*
X119381500Y-138914601D02*
X119381500Y-124915101D01*
X166342500Y-111579601D02*
X166342500Y-125579301D01*
X95337119Y-34210629D02*
G75*
G03*
X90500250Y-35098915I-2336869J-888281D01*
G01*
X185342500Y-144598900D02*
G75*
G03*
X187842500Y-142098914I0J2500000D01*
G01*
X166342500Y-92529601D02*
X166342500Y-106529301D01*
X138472500Y-65024301D02*
X137493500Y-65024301D01*
X95381500Y-100150301D02*
X109381500Y-100150301D01*
X95381500Y-114150001D02*
X95381500Y-100150301D01*
X171667190Y-43339263D02*
G75*
G03*
X169285439Y-37510747I-7492290J339263D01*
G01*
X132350500Y-56769601D02*
X134075500Y-56769601D01*
X151692500Y-92124701D02*
X151692500Y-88824401D01*
X124431500Y-105865001D02*
X124431500Y-119864601D01*
X147543500Y-93850101D02*
X150773500Y-93850101D01*
X106999500Y-81100301D02*
X106999500Y-95100001D01*
X150773500Y-88824401D02*
X150773500Y-87100401D01*
X106999500Y-95100001D02*
X93000500Y-95100001D01*
X137374500Y-43550001D02*
X134075500Y-43550001D01*
X124431500Y-124915101D02*
X124431500Y-138914601D01*
X143481500Y-124915101D02*
X143481500Y-138914601D01*
X144743500Y-62474701D02*
X144743500Y-63300201D01*
X112050500Y-95100001D02*
X126049500Y-95100001D01*
M02*
