%TF.GenerationSoftware,KiCad,Pcbnew,7.0.7*%
%TF.CreationDate,2024-04-21T22:48:15+02:00*%
%TF.ProjectId,isokey_frame_right,69736f6b-6579-45f6-9672-616d655f7269,rev?*%
%TF.SameCoordinates,Original*%
%TF.FileFunction,Drillmap*%
%TF.FilePolarity,Positive*%
%FSLAX45Y45*%
G04 Gerber Fmt 4.5, Leading zero omitted, Abs format (unit mm)*
G04 Created by KiCad (PCBNEW 7.0.7) date 2024-04-21 22:48:15*
%MOMM*%
%LPD*%
G01*
G04 APERTURE LIST*
%ADD10C,0.250000*%
%ADD11C,0.200000*%
G04 APERTURE END LIST*
D10*
X16634250Y-12557930D02*
X18034250Y-12557930D01*
X16372550Y-5050000D02*
X16372550Y-4769900D01*
X15169250Y-6832450D02*
X15169250Y-6502430D01*
X9300050Y-6205030D02*
X10699950Y-6205030D01*
X14754350Y-9467420D02*
X14754350Y-9385010D01*
X13749350Y-6502430D02*
X13749350Y-6832450D01*
X14062550Y-4769900D02*
X13910050Y-4769900D01*
X13749350Y-8882440D02*
X13749350Y-9212470D01*
X16827849Y-3759891D02*
G75*
G03*
X16827849Y-3759891I-250000J0D01*
G01*
X15462450Y-4769900D02*
X15462450Y-4300000D01*
X18034250Y-11157960D02*
X16634250Y-11157960D01*
X16634250Y-8752960D02*
X18034250Y-8752960D01*
X17166722Y-4333927D02*
X17166732Y-5699989D01*
X15787450Y-4355000D02*
X15787450Y-4446900D01*
X13847250Y-6330020D02*
X13847250Y-6502430D01*
X13235050Y-4769900D02*
X13152450Y-4769900D01*
X13500000Y-2630725D02*
G75*
G03*
X12930725Y-3200000I0J-569275D01*
G01*
X14062550Y-5229920D02*
X14062550Y-5700000D01*
X9050019Y-14209891D02*
G75*
G03*
X9300025Y-14459891I250002J2D01*
G01*
X13843150Y-12491510D02*
X12443150Y-12491510D01*
X10538150Y-13891460D02*
X11938150Y-13891460D01*
X18034250Y-9252960D02*
X16634250Y-9252960D01*
X13790416Y-3200000D02*
G75*
G03*
X13209584Y-3200000I-290416J0D01*
G01*
X10699950Y-5700000D02*
X9300050Y-5700000D01*
X15615050Y-5229920D02*
X15615050Y-5676960D01*
X15077350Y-6502430D02*
X15077350Y-6330020D01*
X15077350Y-8710040D02*
X14754350Y-8710040D01*
X16634250Y-10652930D02*
X18034250Y-10652930D01*
X14062550Y-5700000D02*
X15462450Y-5700000D01*
X13749350Y-9212470D02*
X13847250Y-9212470D01*
X18034250Y-12557930D02*
X18034250Y-11157960D01*
X9050019Y-14209891D02*
G75*
G03*
X9300025Y-14459891I250011J11D01*
G01*
X11205050Y-7605000D02*
X12604950Y-7605000D01*
X18034250Y-6602990D02*
X17438409Y-6602990D01*
X10938150Y-11415000D02*
X9538150Y-11415000D01*
X18784250Y-7352990D02*
X18784250Y-14209891D01*
X12604950Y-5700000D02*
X12604950Y-4300000D01*
X14990418Y-3200000D02*
G75*
G03*
X14409592Y-3200000I-290413J0D01*
G01*
X13910050Y-5676960D02*
X13910050Y-5229920D01*
X15748150Y-13891460D02*
X15748150Y-12491510D01*
X13152450Y-5050000D02*
X13235050Y-5050000D01*
X18034250Y-10652930D02*
X18034250Y-9252960D01*
X13910050Y-4446900D02*
X13737450Y-4446900D01*
X13843150Y-13891460D02*
X13843150Y-12491510D01*
X13737450Y-4446900D02*
X13737450Y-4355000D01*
X9300050Y-8110030D02*
X10699950Y-8110030D01*
X13847250Y-7004990D02*
X14294350Y-7004990D01*
X14409592Y-3200000D02*
G75*
G03*
X14990418Y-3200000I290413J0D01*
G01*
X12443150Y-13891460D02*
X13843150Y-13891460D01*
X16289950Y-5050000D02*
X16372550Y-5050000D01*
X13847250Y-9385010D02*
X14474350Y-9385010D01*
X13407550Y-4355000D02*
X13407550Y-4446900D01*
X14474350Y-9385010D02*
X14474350Y-9467420D01*
X15077350Y-9212470D02*
X15169250Y-9212470D01*
X13209584Y-3200000D02*
G75*
G03*
X13790416Y-3200000I290416J0D01*
G01*
X15169250Y-6502430D02*
X15077350Y-6502430D01*
X12604950Y-7605000D02*
X12604950Y-6205030D01*
X14754350Y-7004990D02*
X15077350Y-7004990D01*
X12443150Y-11986460D02*
X13843150Y-11986460D01*
X15615050Y-5676960D02*
X15787450Y-5676960D01*
X16372550Y-4769900D02*
X16289950Y-4769900D01*
X14474350Y-6330020D02*
X13847250Y-6330020D01*
X15224350Y-7157530D02*
X14754350Y-7157530D01*
X15224350Y-8557500D02*
X15224350Y-7157530D01*
X13847250Y-9212470D02*
X13847250Y-9385010D01*
X10699950Y-4300000D02*
X10699950Y-5700000D01*
X12930725Y-3200000D02*
X12930725Y-3320000D01*
X14062550Y-4300000D02*
X14062550Y-4769900D01*
X13847250Y-8882440D02*
X13749350Y-8882440D01*
X13749350Y-6832450D02*
X13847250Y-6832450D01*
X16560000Y-2630725D02*
X13500000Y-2630725D01*
X18534250Y-14459890D02*
G75*
G03*
X18784250Y-14209891I0J250000D01*
G01*
X14294350Y-8710040D02*
X13847250Y-8710040D01*
X15748150Y-12491510D02*
X14348150Y-12491510D01*
X13824250Y-8557500D02*
X14294350Y-8557500D01*
X14754350Y-7157530D02*
X14754350Y-7004990D01*
X10699950Y-6205030D02*
X10699950Y-7605000D01*
X9300050Y-4300000D02*
X10699950Y-4300000D01*
X18784250Y-7352990D02*
G75*
G03*
X18034250Y-6602990I-750000J0D01*
G01*
X15077350Y-7004990D02*
X15077350Y-6832450D01*
X16289950Y-4446900D02*
X16117450Y-4446900D01*
X14754350Y-6330020D02*
X14754350Y-6247470D01*
X14474350Y-9467420D02*
X14754350Y-9467420D01*
X13824250Y-7157530D02*
X13824250Y-8557500D01*
X15615050Y-4769900D02*
X15462450Y-4769900D01*
X10938150Y-10015030D02*
X10938150Y-11415000D01*
X16919658Y-3467112D02*
G75*
G03*
X16928544Y-3751075I145162J-137578D01*
G01*
X12700000Y-3550000D02*
G75*
G03*
X12930000Y-3320000I0J230000D01*
G01*
X11205050Y-4300000D02*
X11205050Y-5700000D01*
X14348150Y-13891460D02*
X15748150Y-13891460D01*
X9300025Y-14459891D02*
X18534250Y-14459891D01*
X11205050Y-5700000D02*
X12604950Y-5700000D01*
X11938150Y-12491510D02*
X10538150Y-12491510D01*
X15787450Y-5676960D02*
X15787450Y-5774960D01*
X15787450Y-4446900D02*
X15615050Y-4446900D01*
X13847250Y-6832450D02*
X13847250Y-7004990D01*
X16117450Y-4446900D02*
X16117450Y-4355000D01*
X15787450Y-5774960D02*
X16117450Y-5774960D01*
X13407550Y-5676960D02*
X13407550Y-5774960D01*
X13737450Y-5676960D02*
X13910050Y-5676960D01*
X9533711Y-3421063D02*
G75*
G03*
X9720661Y-3550000I186949J71063D01*
G01*
X12604950Y-8110030D02*
X11205050Y-8110030D01*
X15462450Y-4300000D02*
X14062550Y-4300000D01*
X13152450Y-4769900D02*
X13152450Y-5050000D01*
X12604950Y-9510000D02*
X12604950Y-8110030D01*
X15077350Y-6832450D02*
X15169250Y-6832450D01*
X17166722Y-4266063D02*
X17166722Y-4333927D01*
X16190416Y-3200000D02*
G75*
G03*
X15609584Y-3200000I-290416J0D01*
G01*
X13843150Y-11986460D02*
X13843150Y-10586500D01*
X18034250Y-7352990D02*
X16634250Y-7352990D01*
X13824420Y-5952520D02*
G75*
G03*
X13789040Y-5955030I-30J-250170D01*
G01*
X13847250Y-8710040D02*
X13847250Y-8882440D01*
X12604950Y-6205030D02*
X11205050Y-6205030D01*
X16289950Y-5676960D02*
X16289950Y-5050000D01*
X14294350Y-7157530D02*
X13824250Y-7157530D01*
X11205050Y-8110030D02*
X11205050Y-9510000D01*
X14754350Y-8557500D02*
X15224350Y-8557500D01*
X15462450Y-5700000D02*
X15462450Y-5229920D01*
X9050025Y-3509891D02*
X9050025Y-14209891D01*
X15169250Y-8882440D02*
X15077350Y-8882440D01*
X17087294Y-6011369D02*
G75*
G03*
X17166732Y-5699985I-570544J311379D01*
G01*
X10177836Y-5000000D02*
G75*
G03*
X10177836Y-5000000I-177836J0D01*
G01*
X15615050Y-4446900D02*
X15615050Y-4769900D01*
X14754350Y-6247470D02*
X14474350Y-6247470D01*
X11205050Y-6205030D02*
X11205050Y-7605000D01*
X15077350Y-6330020D02*
X14754350Y-6330020D01*
X13737450Y-5774960D02*
X13737450Y-5676960D01*
X15609584Y-3200000D02*
G75*
G03*
X16190416Y-3200000I290416J0D01*
G01*
X13235050Y-5050000D02*
X13235050Y-5676960D01*
X10699950Y-7605000D02*
X9300050Y-7605000D01*
X14754350Y-8710040D02*
X14754350Y-8557500D01*
X12604950Y-4300000D02*
X11205050Y-4300000D01*
X16289950Y-4769900D02*
X16289950Y-4446900D01*
X15462450Y-5229920D02*
X15615050Y-5229920D01*
X13910050Y-4769900D02*
X13910050Y-4446900D01*
X9300050Y-5700000D02*
X9300050Y-4300000D01*
X13407550Y-5774960D02*
X13737450Y-5774960D01*
X13843150Y-10586500D02*
X12443150Y-10586500D01*
X16117450Y-5676960D02*
X16289950Y-5676960D01*
X13235050Y-4446900D02*
X13235050Y-4769900D01*
X16117450Y-4355000D02*
X15787450Y-4355000D01*
X14294350Y-8557500D02*
X14294350Y-8710040D01*
X16919661Y-3467115D02*
G75*
G03*
X16560000Y-2630725I-359661J340865D01*
G01*
X17087287Y-6011365D02*
G75*
G03*
X17438409Y-6602990I351113J-191625D01*
G01*
X13910050Y-5229920D02*
X14062550Y-5229920D01*
X16117450Y-5774960D02*
X16117450Y-5676960D01*
X14294350Y-7004990D02*
X14294350Y-7157530D01*
X9300050Y-7605000D02*
X9300050Y-6205030D01*
X9300050Y-9510000D02*
X9300050Y-8110030D01*
X16634250Y-7352990D02*
X16634250Y-8752960D01*
X10538150Y-12491510D02*
X10538150Y-13891460D01*
X9720661Y-3550000D02*
X12700000Y-3550000D01*
X13407550Y-4446900D02*
X13235050Y-4446900D01*
X15077350Y-9385010D02*
X15077350Y-9212470D01*
X18034250Y-8752960D02*
X18034250Y-7352990D01*
X11938150Y-13891460D02*
X11938150Y-12491510D01*
X16634250Y-11157960D02*
X16634250Y-12557930D01*
X9533712Y-3421063D02*
G75*
G03*
X9050025Y-3509891I-233687J-88828D01*
G01*
X18534250Y-14459890D02*
G75*
G03*
X18784250Y-14209891I0J250000D01*
G01*
X16634250Y-9252960D02*
X16634250Y-10652930D01*
X13847250Y-6502430D02*
X13749350Y-6502430D01*
X9538150Y-10015030D02*
X10938150Y-10015030D01*
X9538150Y-11415000D02*
X9538150Y-10015030D01*
X17166719Y-4333926D02*
G75*
G03*
X16928544Y-3751075I-749229J33926D01*
G01*
X13235050Y-5676960D02*
X13407550Y-5676960D01*
X15169250Y-9212470D02*
X15169250Y-8882440D01*
X12443150Y-10586500D02*
X12443150Y-11986460D01*
X14754350Y-9385010D02*
X15077350Y-9385010D01*
X10699950Y-8110030D02*
X10699950Y-9510000D01*
X15077350Y-8882440D02*
X15077350Y-8710040D01*
X10699950Y-9510000D02*
X9300050Y-9510000D01*
X13737450Y-4355000D02*
X13407550Y-4355000D01*
X12443150Y-12491510D02*
X12443150Y-13891460D01*
X14348150Y-12491510D02*
X14348150Y-13891460D01*
X14474350Y-6247470D02*
X14474350Y-6330020D01*
X11205050Y-9510000D02*
X12604950Y-9510000D01*
D11*
X9298302Y-14783875D02*
X9298302Y-14583875D01*
X9298302Y-14583875D02*
X9345921Y-14583875D01*
X9345921Y-14583875D02*
X9374492Y-14593399D01*
X9374492Y-14593399D02*
X9393540Y-14612447D01*
X9393540Y-14612447D02*
X9403064Y-14631494D01*
X9403064Y-14631494D02*
X9412588Y-14669589D01*
X9412588Y-14669589D02*
X9412588Y-14698161D01*
X9412588Y-14698161D02*
X9403064Y-14736256D01*
X9403064Y-14736256D02*
X9393540Y-14755304D01*
X9393540Y-14755304D02*
X9374492Y-14774351D01*
X9374492Y-14774351D02*
X9345921Y-14783875D01*
X9345921Y-14783875D02*
X9298302Y-14783875D01*
X9498302Y-14783875D02*
X9498302Y-14650542D01*
X9498302Y-14688637D02*
X9507826Y-14669589D01*
X9507826Y-14669589D02*
X9517349Y-14660066D01*
X9517349Y-14660066D02*
X9536397Y-14650542D01*
X9536397Y-14650542D02*
X9555445Y-14650542D01*
X9622111Y-14783875D02*
X9622111Y-14650542D01*
X9622111Y-14583875D02*
X9612588Y-14593399D01*
X9612588Y-14593399D02*
X9622111Y-14602923D01*
X9622111Y-14602923D02*
X9631635Y-14593399D01*
X9631635Y-14593399D02*
X9622111Y-14583875D01*
X9622111Y-14583875D02*
X9622111Y-14602923D01*
X9745921Y-14783875D02*
X9726873Y-14774351D01*
X9726873Y-14774351D02*
X9717349Y-14755304D01*
X9717349Y-14755304D02*
X9717349Y-14583875D01*
X9850683Y-14783875D02*
X9831635Y-14774351D01*
X9831635Y-14774351D02*
X9822111Y-14755304D01*
X9822111Y-14755304D02*
X9822111Y-14583875D01*
X10079254Y-14783875D02*
X10079254Y-14583875D01*
X10079254Y-14583875D02*
X10145921Y-14726732D01*
X10145921Y-14726732D02*
X10212588Y-14583875D01*
X10212588Y-14583875D02*
X10212588Y-14783875D01*
X10393540Y-14783875D02*
X10393540Y-14679113D01*
X10393540Y-14679113D02*
X10384016Y-14660066D01*
X10384016Y-14660066D02*
X10364969Y-14650542D01*
X10364969Y-14650542D02*
X10326873Y-14650542D01*
X10326873Y-14650542D02*
X10307826Y-14660066D01*
X10393540Y-14774351D02*
X10374492Y-14783875D01*
X10374492Y-14783875D02*
X10326873Y-14783875D01*
X10326873Y-14783875D02*
X10307826Y-14774351D01*
X10307826Y-14774351D02*
X10298302Y-14755304D01*
X10298302Y-14755304D02*
X10298302Y-14736256D01*
X10298302Y-14736256D02*
X10307826Y-14717209D01*
X10307826Y-14717209D02*
X10326873Y-14707685D01*
X10326873Y-14707685D02*
X10374492Y-14707685D01*
X10374492Y-14707685D02*
X10393540Y-14698161D01*
X10488778Y-14650542D02*
X10488778Y-14850542D01*
X10488778Y-14660066D02*
X10507826Y-14650542D01*
X10507826Y-14650542D02*
X10545921Y-14650542D01*
X10545921Y-14650542D02*
X10564969Y-14660066D01*
X10564969Y-14660066D02*
X10574492Y-14669589D01*
X10574492Y-14669589D02*
X10584016Y-14688637D01*
X10584016Y-14688637D02*
X10584016Y-14745780D01*
X10584016Y-14745780D02*
X10574492Y-14764828D01*
X10574492Y-14764828D02*
X10564969Y-14774351D01*
X10564969Y-14774351D02*
X10545921Y-14783875D01*
X10545921Y-14783875D02*
X10507826Y-14783875D01*
X10507826Y-14783875D02*
X10488778Y-14774351D01*
X10669730Y-14764828D02*
X10679254Y-14774351D01*
X10679254Y-14774351D02*
X10669730Y-14783875D01*
X10669730Y-14783875D02*
X10660207Y-14774351D01*
X10660207Y-14774351D02*
X10669730Y-14764828D01*
X10669730Y-14764828D02*
X10669730Y-14783875D01*
X10669730Y-14660066D02*
X10679254Y-14669589D01*
X10679254Y-14669589D02*
X10669730Y-14679113D01*
X10669730Y-14679113D02*
X10660207Y-14669589D01*
X10660207Y-14669589D02*
X10669730Y-14660066D01*
X10669730Y-14660066D02*
X10669730Y-14679113D01*
M02*
