%TF.GenerationSoftware,KiCad,Pcbnew,7.0.7*%
%TF.CreationDate,2024-04-21T22:48:18+02:00*%
%TF.ProjectId,isokey_frame_right,69736f6b-6579-45f6-9672-616d655f7269,rev?*%
%TF.SameCoordinates,Original*%
%TF.FileFunction,Copper,L1,Top*%
%TF.FilePolarity,Positive*%
%FSLAX46Y46*%
G04 Gerber Fmt 4.6, Leading zero omitted, Abs format (unit mm)*
G04 Created by KiCad (PCBNEW 7.0.7) date 2024-04-21 22:48:18*
%MOMM*%
%LPD*%
G01*
G04 APERTURE LIST*
%TA.AperFunction,NonConductor*%
%ADD10C,0.500000*%
%TD*%
%TA.AperFunction,NonConductor*%
%ADD11C,0.250000*%
%TD*%
%TA.AperFunction,ComponentPad*%
%ADD12C,2.900000*%
%TD*%
%TA.AperFunction,ConnectorPad*%
%ADD13C,5.000000*%
%TD*%
G04 APERTURE END LIST*
D10*
X166342500Y-91529600D02*
G75*
G03*
X165342500Y-92529601I0J-1000000D01*
G01*
X126049500Y-80100301D02*
X112050500Y-80100301D01*
X180342500Y-126579300D02*
G75*
G03*
X181342500Y-125579301I0J1000000D01*
G01*
X138431500Y-139914600D02*
G75*
G03*
X139431500Y-138914601I0J1000000D01*
G01*
X107999499Y-43000001D02*
G75*
G03*
X106999500Y-42000001I-999999J1D01*
G01*
X181342500Y-87529601D02*
X181342500Y-73529901D01*
X180342500Y-72529901D02*
X166342500Y-72529901D01*
X124431500Y-139914601D02*
X138431500Y-139914601D01*
X94381500Y-114150001D02*
X94381500Y-100150301D01*
X180342500Y-110579601D02*
X166342500Y-110579601D01*
X123431500Y-124915101D02*
X123431500Y-138914601D01*
X165342499Y-125579301D02*
G75*
G03*
X166342500Y-126579301I999901J-99D01*
G01*
X165342499Y-87529601D02*
G75*
G03*
X166342500Y-88529601I999901J-99D01*
G01*
X123431499Y-138914601D02*
G75*
G03*
X124431500Y-139914601I999901J-99D01*
G01*
X126049500Y-77050000D02*
G75*
G03*
X127049500Y-76050001I0J1000000D01*
G01*
X105381500Y-123915100D02*
G75*
G03*
X104381500Y-124915101I0J-1000000D01*
G01*
X127049499Y-81100301D02*
G75*
G03*
X126049500Y-80100301I-1000099J-99D01*
G01*
X110381499Y-100150301D02*
G75*
G03*
X109381500Y-99150301I-1000099J-99D01*
G01*
X106999500Y-58000001D02*
X93000500Y-58000001D01*
D11*
X94300250Y-142098915D02*
G75*
G03*
X94300250Y-142098915I-1300000J0D01*
G01*
D10*
X111050500Y-81100301D02*
X111050500Y-95100001D01*
X95381500Y-99150301D02*
X109381500Y-99150301D01*
X181342500Y-125579301D02*
X181342500Y-111579601D01*
X112050500Y-58000001D02*
X126049500Y-58000001D01*
X109381500Y-115150000D02*
G75*
G03*
X110381500Y-114150001I0J1000000D01*
G01*
X93000500Y-42000000D02*
G75*
G03*
X92000500Y-43000001I0J-1000000D01*
G01*
X143481500Y-123915100D02*
G75*
G03*
X142481500Y-124915101I0J-1000000D01*
G01*
X166342500Y-88529601D02*
X180342500Y-88529601D01*
X123431499Y-119864601D02*
G75*
G03*
X124431500Y-120864601I999901J-99D01*
G01*
X126049500Y-58000000D02*
G75*
G03*
X127049500Y-57000001I0J1000000D01*
G01*
X139431500Y-138914601D02*
X139431500Y-124915101D01*
X93000500Y-80100300D02*
G75*
G03*
X92000500Y-81100301I0J-1000000D01*
G01*
X143481500Y-139914601D02*
X157481500Y-139914601D01*
X181342499Y-73529901D02*
G75*
G03*
X180342500Y-72529901I-1000099J-99D01*
G01*
D11*
X186842500Y-142098914D02*
G75*
G03*
X186842500Y-142098914I-1500000J0D01*
G01*
D10*
X111050499Y-95100001D02*
G75*
G03*
X112050500Y-96100001I999901J-99D01*
G01*
X165342500Y-111579601D02*
X165342500Y-125579301D01*
X127049500Y-95100001D02*
X127049500Y-81100301D01*
X126049500Y-61050301D02*
X112050500Y-61050301D01*
X181342499Y-111579601D02*
G75*
G03*
X180342500Y-110579601I-1000099J-99D01*
G01*
D11*
X94500250Y-142098914D02*
G75*
G03*
X94500250Y-142098914I-1500000J0D01*
G01*
D10*
X111050500Y-62050301D02*
X111050500Y-76050001D01*
X106999500Y-58000000D02*
G75*
G03*
X107999500Y-57000001I0J1000000D01*
G01*
X110381500Y-100150301D02*
X110381500Y-114150001D01*
X123431500Y-105865001D02*
X123431500Y-119864601D01*
D11*
X186642500Y-142098915D02*
G75*
G03*
X186642500Y-142098915I-1300000J0D01*
G01*
D10*
X166342500Y-126579301D02*
X180342500Y-126579301D01*
X111050499Y-76050001D02*
G75*
G03*
X112050500Y-77050001I999901J-99D01*
G01*
X111050500Y-43000001D02*
X111050500Y-57000001D01*
X93000500Y-61050300D02*
G75*
G03*
X92000500Y-62050301I0J-1000000D01*
G01*
X181342499Y-92529601D02*
G75*
G03*
X180342500Y-91529601I-1000099J-99D01*
G01*
X166342500Y-110579600D02*
G75*
G03*
X165342500Y-111579601I0J-1000000D01*
G01*
X142481500Y-124915101D02*
X142481500Y-138914601D01*
X92000500Y-95100001D02*
X92000500Y-81100301D01*
X120381500Y-138914601D02*
X120381500Y-124915101D01*
X127049499Y-62050301D02*
G75*
G03*
X126049500Y-61050301I-1000099J-99D01*
G01*
X112050500Y-96100001D02*
X126049500Y-96100001D01*
X107999500Y-43000001D02*
X107999500Y-57000001D01*
X107999499Y-81100301D02*
G75*
G03*
X106999500Y-80100301I-999999J1D01*
G01*
X106999500Y-96100001D02*
X93000500Y-96100001D01*
X106999500Y-77050001D02*
X93000500Y-77050001D01*
D11*
X94300250Y-35098915D02*
G75*
G03*
X94300250Y-35098915I-1300000J0D01*
G01*
D10*
X93000500Y-61050301D02*
X106999500Y-61050301D01*
X127049500Y-76050001D02*
X127049500Y-62050301D01*
X112050500Y-77050001D02*
X126049500Y-77050001D01*
X95381500Y-99150300D02*
G75*
G03*
X94381500Y-100150301I0J-1000000D01*
G01*
X107999500Y-62050301D02*
X107999500Y-76050001D01*
D11*
X168278491Y-37598915D02*
G75*
G03*
X168278491Y-37598915I-2500000J0D01*
G01*
D10*
X93000500Y-80100301D02*
X106999500Y-80100301D01*
X107999500Y-81100301D02*
X107999500Y-95100001D01*
X92000499Y-57000001D02*
G75*
G03*
X93000500Y-58000001I1000001J1D01*
G01*
X92000500Y-76050001D02*
X92000500Y-62050301D01*
X124431500Y-123915100D02*
G75*
G03*
X123431500Y-124915101I0J-1000000D01*
G01*
X111050499Y-57000001D02*
G75*
G03*
X112050500Y-58000001I999901J-99D01*
G01*
X92000499Y-76050001D02*
G75*
G03*
X93000500Y-77050001I1000001J1D01*
G01*
X127049500Y-57000001D02*
X127049500Y-43000001D01*
X180342500Y-107529300D02*
G75*
G03*
X181342500Y-106529301I0J1000000D01*
G01*
X139431500Y-119864601D02*
X139431500Y-105865001D01*
X119381500Y-139914600D02*
G75*
G03*
X120381500Y-138914601I0J1000000D01*
G01*
X92000500Y-57000001D02*
X92000500Y-43000001D01*
X138431500Y-123915101D02*
X124431500Y-123915101D01*
X165342499Y-106529301D02*
G75*
G03*
X166342500Y-107529301I999901J-99D01*
G01*
X127049499Y-43000001D02*
G75*
G03*
X126049500Y-42000001I-1000099J-99D01*
G01*
X181342500Y-106529301D02*
X181342500Y-92529601D01*
X106999500Y-96100000D02*
G75*
G03*
X107999500Y-95100001I0J1000000D01*
G01*
X124431500Y-104865000D02*
G75*
G03*
X123431500Y-105865001I0J-1000000D01*
G01*
X166342500Y-72529900D02*
G75*
G03*
X165342500Y-73529901I0J-1000000D01*
G01*
X126049500Y-96100000D02*
G75*
G03*
X127049500Y-95100001I0J1000000D01*
G01*
X157481500Y-139914600D02*
G75*
G03*
X158481500Y-138914601I0J1000000D01*
G01*
X104381499Y-138914601D02*
G75*
G03*
X105381500Y-139914601I1000001J1D01*
G01*
X138431500Y-120864600D02*
G75*
G03*
X139431500Y-119864601I0J1000000D01*
G01*
X120381499Y-124915101D02*
G75*
G03*
X119381500Y-123915101I-1000099J-99D01*
G01*
X119381500Y-123915101D02*
X105381500Y-123915101D01*
X142481499Y-138914601D02*
G75*
G03*
X143481500Y-139914601I999901J-99D01*
G01*
X109381500Y-115150001D02*
X95381500Y-115150001D01*
X126049500Y-42000001D02*
X112050500Y-42000001D01*
X166342500Y-107529301D02*
X180342500Y-107529301D01*
X139431499Y-124915101D02*
G75*
G03*
X138431500Y-123915101I-1000099J-99D01*
G01*
X106999500Y-77050000D02*
G75*
G03*
X107999500Y-76050001I0J1000000D01*
G01*
X165342500Y-73529901D02*
X165342500Y-87529601D01*
X139431499Y-105865001D02*
G75*
G03*
X138431500Y-104865001I-1000099J-99D01*
G01*
X157481500Y-123915101D02*
X143481500Y-123915101D01*
X92000499Y-95100001D02*
G75*
G03*
X93000500Y-96100001I1000001J1D01*
G01*
X112050500Y-80100300D02*
G75*
G03*
X111050500Y-81100301I0J-1000000D01*
G01*
X165342500Y-92529601D02*
X165342500Y-106529301D01*
X105381500Y-139914601D02*
X119381500Y-139914601D01*
X107999499Y-62050301D02*
G75*
G03*
X106999500Y-61050301I-999999J1D01*
G01*
D11*
X168278491Y-66598915D02*
G75*
G03*
X168278491Y-66598915I-2500000J0D01*
G01*
D10*
X112050500Y-61050300D02*
G75*
G03*
X111050500Y-62050301I0J-1000000D01*
G01*
X180342500Y-91529601D02*
X166342500Y-91529601D01*
X158481500Y-138914601D02*
X158481500Y-124915101D01*
X104381500Y-124915101D02*
X104381500Y-138914601D01*
D11*
X94300250Y-35098915D02*
G75*
G03*
X94300250Y-35098915I-1300000J0D01*
G01*
D10*
X93000500Y-42000001D02*
X106999500Y-42000001D01*
X94381499Y-114150001D02*
G75*
G03*
X95381500Y-115150001I1000001J1D01*
G01*
X138431500Y-104865001D02*
X124431500Y-104865001D01*
X180342500Y-88529600D02*
G75*
G03*
X181342500Y-87529601I0J1000000D01*
G01*
X124431500Y-120864601D02*
X138431500Y-120864601D01*
X112050500Y-42000000D02*
G75*
G03*
X111050500Y-43000001I0J-1000000D01*
G01*
X158481499Y-124915101D02*
G75*
G03*
X157481500Y-123915101I-1000099J-99D01*
G01*
D12*
%TO.P,H5,1,1*%
%TO.N,GND*%
X93000250Y-35098914D03*
D13*
X93000250Y-35098914D03*
%TD*%
D12*
%TO.P,H4,1,1*%
%TO.N,GND*%
X165778491Y-37598914D03*
D13*
X165778491Y-37598914D03*
%TD*%
D12*
%TO.P,H4,1,1*%
%TO.N,N/C*%
X165778491Y-66598915D03*
D13*
X165778491Y-66598915D03*
%TD*%
D12*
%TO.P,H1,1,1*%
%TO.N,GND*%
X93000000Y-142200000D03*
D13*
X93000000Y-142200000D03*
%TD*%
D12*
%TO.P,H2,1,1*%
%TO.N,GND*%
X185342500Y-142098914D03*
D13*
X185342500Y-142098914D03*
%TD*%
M02*
