%TF.GenerationSoftware,KiCad,Pcbnew,7.0.7*%
%TF.CreationDate,2023-12-22T23:49:32+01:00*%
%TF.ProjectId,isokey,69736f6b-6579-42e6-9b69-6361645f7063,A*%
%TF.SameCoordinates,Original*%
%TF.FileFunction,Soldermask,Top*%
%TF.FilePolarity,Negative*%
%FSLAX46Y46*%
G04 Gerber Fmt 4.6, Leading zero omitted, Abs format (unit mm)*
G04 Created by KiCad (PCBNEW 7.0.7) date 2023-12-22 23:49:32*
%MOMM*%
%LPD*%
G01*
G04 APERTURE LIST*
G04 Aperture macros list*
%AMRoundRect*
0 Rectangle with rounded corners*
0 $1 Rounding radius*
0 $2 $3 $4 $5 $6 $7 $8 $9 X,Y pos of 4 corners*
0 Add a 4 corners polygon primitive as box body*
4,1,4,$2,$3,$4,$5,$6,$7,$8,$9,$2,$3,0*
0 Add four circle primitives for the rounded corners*
1,1,$1+$1,$2,$3*
1,1,$1+$1,$4,$5*
1,1,$1+$1,$6,$7*
1,1,$1+$1,$8,$9*
0 Add four rect primitives between the rounded corners*
20,1,$1+$1,$2,$3,$4,$5,0*
20,1,$1+$1,$4,$5,$6,$7,0*
20,1,$1+$1,$6,$7,$8,$9,0*
20,1,$1+$1,$8,$9,$2,$3,0*%
%AMRotRect*
0 Rectangle, with rotation*
0 The origin of the aperture is its center*
0 $1 length*
0 $2 width*
0 $3 Rotation angle, in degrees counterclockwise*
0 Add horizontal line*
21,1,$1,$2,0,0,$3*%
G04 Aperture macros list end*
%ADD10C,1.701800*%
%ADD11C,3.000000*%
%ADD12C,3.987800*%
%ADD13RoundRect,0.526600X0.425000X0.425000X-0.425000X0.425000X-0.425000X-0.425000X0.425000X-0.425000X0*%
%ADD14C,2.082800*%
%ADD15C,1.903200*%
%ADD16RoundRect,0.526600X-0.425000X-0.514800X0.425000X-0.514800X0.425000X0.514800X-0.425000X0.514800X0*%
%ADD17C,3.048000*%
%ADD18RoundRect,0.237500X0.371231X-0.035355X-0.035355X0.371231X-0.371231X0.035355X0.035355X-0.371231X0*%
%ADD19RoundRect,0.237500X0.237500X-0.287500X0.237500X0.287500X-0.237500X0.287500X-0.237500X-0.287500X0*%
%ADD20RoundRect,0.075000X0.075000X-0.362500X0.075000X0.362500X-0.075000X0.362500X-0.075000X-0.362500X0*%
%ADD21RoundRect,0.075000X0.362500X-0.075000X0.362500X0.075000X-0.362500X0.075000X-0.362500X-0.075000X0*%
%ADD22R,2.450000X2.450000*%
%ADD23RoundRect,0.237500X0.035355X0.371231X-0.371231X-0.035355X-0.035355X-0.371231X0.371231X0.035355X0*%
%ADD24RoundRect,0.237500X0.274676X0.252221X-0.299536X0.222128X-0.274676X-0.252221X0.299536X-0.222128X0*%
%ADD25RoundRect,0.237500X0.287500X0.237500X-0.287500X0.237500X-0.287500X-0.237500X0.287500X-0.237500X0*%
%ADD26RoundRect,0.150000X-0.700000X0.150000X-0.700000X-0.150000X0.700000X-0.150000X0.700000X0.150000X0*%
%ADD27RoundRect,0.250000X-1.100000X0.250000X-1.100000X-0.250000X1.100000X-0.250000X1.100000X0.250000X0*%
%ADD28R,2.000000X2.000000*%
%ADD29C,2.000000*%
%ADD30C,2.800000*%
%ADD31RoundRect,0.150000X0.700000X-0.150000X0.700000X0.150000X-0.700000X0.150000X-0.700000X-0.150000X0*%
%ADD32RoundRect,0.250000X1.100000X-0.250000X1.100000X0.250000X-1.100000X0.250000X-1.100000X-0.250000X0*%
%ADD33C,1.524000*%
%ADD34RoundRect,0.075000X0.203293X0.309359X-0.309359X-0.203293X-0.203293X-0.309359X0.309359X0.203293X0*%
%ADD35RoundRect,0.075000X-0.203293X0.309359X-0.309359X0.203293X0.203293X-0.309359X0.309359X-0.203293X0*%
%ADD36RotRect,2.450000X2.450000X225.000000*%
%ADD37RoundRect,0.237500X-0.035355X-0.371231X0.371231X0.035355X0.035355X0.371231X-0.371231X-0.035355X0*%
G04 APERTURE END LIST*
D10*
%TO.C,SW2*%
X89048799Y-89562410D03*
D11*
X90318799Y-87022410D03*
D12*
X94128799Y-89562410D03*
D11*
X96668799Y-84482410D03*
D10*
X99208799Y-89562410D03*
%TD*%
D13*
%TO.C,U1*%
X359360000Y-68300000D03*
D14*
X356820000Y-68300000D03*
X354280000Y-68300000D03*
X351740000Y-68300000D03*
X349200000Y-68300000D03*
X346660000Y-68300000D03*
X344120000Y-68300000D03*
X341580000Y-68300000D03*
X339040000Y-68300000D03*
X336500000Y-68300000D03*
X333960000Y-68300000D03*
X331420000Y-68300000D03*
X328880000Y-68300000D03*
X326340000Y-68300000D03*
X323800000Y-68300000D03*
X321260000Y-68300000D03*
X318720000Y-68300000D03*
X316180000Y-68300000D03*
X313640000Y-68300000D03*
X311100000Y-68300000D03*
D15*
X311100000Y-83540000D03*
X313640000Y-83540000D03*
D14*
X316180000Y-83540000D03*
X318720000Y-83540000D03*
X321260000Y-83540000D03*
X323800000Y-83540000D03*
X326340000Y-83540000D03*
X328880000Y-83540000D03*
X331420000Y-83540000D03*
X333960000Y-83540000D03*
X336500000Y-83540000D03*
X339040000Y-83540000D03*
X341580000Y-83540000D03*
X344120000Y-83540000D03*
X346660000Y-83540000D03*
X349200000Y-83540000D03*
X351740000Y-83540000D03*
X354280000Y-83540000D03*
X356820000Y-83540000D03*
D16*
X359360000Y-83540000D03*
%TD*%
D10*
%TO.C,SW30*%
X315525981Y-132480301D03*
D11*
X316661307Y-129877315D03*
D12*
X320599019Y-132214434D03*
D11*
X322869671Y-127008463D03*
D10*
X325672057Y-131948567D03*
%TD*%
%TO.C,SW36*%
X148450406Y-155957459D03*
D11*
X149851599Y-153487407D03*
D12*
X153523444Y-156223326D03*
D11*
X156325830Y-151283221D03*
D10*
X158596482Y-156489193D03*
%TD*%
%TO.C,SW6*%
X112396621Y-115915674D03*
D11*
X113797814Y-113445622D03*
D12*
X117469659Y-116181541D03*
D11*
X120272045Y-111241436D03*
D10*
X122542697Y-116447408D03*
%TD*%
%TO.C,SW43*%
X297499088Y-152501193D03*
D11*
X298634414Y-149898207D03*
D12*
X302572126Y-152235326D03*
D11*
X304842778Y-147029355D03*
D10*
X307645164Y-151969459D03*
%TD*%
%TO.C,SW18*%
X65025566Y-133524764D03*
D11*
X66295566Y-130984764D03*
D12*
X70105566Y-133524764D03*
D11*
X72645566Y-128444764D03*
D10*
X75185566Y-133524764D03*
%TD*%
%TO.C,SW9*%
X169468299Y-118906674D03*
D11*
X170869492Y-116436622D03*
D12*
X174541337Y-119172541D03*
D11*
X177343723Y-114232436D03*
D10*
X179614375Y-119438408D03*
%TD*%
%TO.C,SW55*%
X241423906Y-174516012D03*
D11*
X242559232Y-171913026D03*
D12*
X246496944Y-174250145D03*
D11*
X248767596Y-169044174D03*
D10*
X251569982Y-173984278D03*
%TD*%
%TO.C,SW24*%
X201382126Y-138462327D03*
D11*
X202517452Y-135859341D03*
D12*
X206455164Y-138196460D03*
D11*
X208725816Y-132990489D03*
D10*
X211528202Y-137930593D03*
%TD*%
D17*
%TO.C,H2*%
X339612341Y-153041109D03*
D12*
X354852341Y-153041109D03*
D17*
X339612341Y-129241109D03*
D12*
X354852341Y-129241109D03*
%TD*%
D18*
%TO.C,D160*%
X181618718Y-208368718D03*
X180381282Y-207131282D03*
%TD*%
D10*
%TO.C,SW32*%
X62644266Y-152572614D03*
D11*
X63914266Y-150032614D03*
D12*
X67724266Y-152572614D03*
D11*
X70264266Y-147492614D03*
D10*
X72804266Y-152572614D03*
%TD*%
D19*
%TO.C,D159*%
X190000000Y-120475000D03*
X190000000Y-118725000D03*
%TD*%
D20*
%TO.C,U2*%
X305250000Y-91537500D03*
X305750000Y-91537500D03*
X306250000Y-91537500D03*
X306750000Y-91537500D03*
X307250000Y-91537500D03*
X307750000Y-91537500D03*
D21*
X308437500Y-90850000D03*
X308437500Y-90350000D03*
X308437500Y-89850000D03*
X308437500Y-89350000D03*
X308437500Y-88850000D03*
X308437500Y-88350000D03*
D20*
X307750000Y-87662500D03*
X307250000Y-87662500D03*
X306750000Y-87662500D03*
X306250000Y-87662500D03*
X305750000Y-87662500D03*
X305250000Y-87662500D03*
D21*
X304562500Y-88350000D03*
X304562500Y-88850000D03*
X304562500Y-89350000D03*
X304562500Y-89850000D03*
X304562500Y-90350000D03*
X304562500Y-90850000D03*
D22*
X306500000Y-89600000D03*
%TD*%
D10*
%TO.C,SW16*%
X314528981Y-113456408D03*
D11*
X315664307Y-110853422D03*
D12*
X319602019Y-113190541D03*
D11*
X321872671Y-107984570D03*
D10*
X324675057Y-112924674D03*
%TD*%
%TO.C,SW39*%
X221402020Y-156489272D03*
D11*
X222537346Y-153886286D03*
D12*
X226475058Y-156223405D03*
D11*
X228745710Y-151017434D03*
D10*
X231548096Y-155957538D03*
%TD*%
%TO.C,SW70*%
X317670791Y-196842097D03*
D11*
X318940791Y-194302097D03*
D12*
X322750791Y-196842097D03*
D11*
X325290791Y-191762097D03*
D10*
X327830791Y-196842097D03*
%TD*%
%TO.C,SW41*%
X259451303Y-154495193D03*
D11*
X260586629Y-151892207D03*
D12*
X264524341Y-154229326D03*
D11*
X266794993Y-149023355D03*
D10*
X269597379Y-153963459D03*
%TD*%
D19*
%TO.C,D165*%
X190000000Y-158475000D03*
X190000000Y-156725000D03*
%TD*%
D23*
%TO.C,D162*%
X199618718Y-207131282D03*
X198381282Y-208368718D03*
%TD*%
D24*
%TO.C,D75*%
X281473801Y-97154206D03*
X279726199Y-97245794D03*
%TD*%
D10*
%TO.C,SW42*%
X278475196Y-153498193D03*
D11*
X279610522Y-150895207D03*
D12*
X283548234Y-153232326D03*
D11*
X285818886Y-148026355D03*
D10*
X288621272Y-152966459D03*
%TD*%
D25*
%TO.C,D164*%
X190875000Y-211000000D03*
X189125000Y-211000000D03*
%TD*%
D10*
%TO.C,SW51*%
X147453406Y-174981352D03*
D11*
X148854599Y-172511300D03*
D12*
X152526444Y-175247219D03*
D11*
X155328830Y-170307114D03*
D10*
X157599482Y-175513086D03*
%TD*%
D26*
%TO.C,J1*%
X46850000Y-75366069D03*
X46850000Y-76616069D03*
X46850000Y-77866069D03*
X46850000Y-79116069D03*
X46850000Y-80366069D03*
X46850000Y-81616069D03*
X46850000Y-82866069D03*
X46850000Y-84116069D03*
X46850000Y-85366069D03*
X46850000Y-86616069D03*
X46850000Y-87866069D03*
X46850000Y-89116069D03*
X46850000Y-90366069D03*
X46850000Y-91616069D03*
D27*
X43650000Y-73516069D03*
X43650000Y-93466069D03*
%TD*%
D10*
%TO.C,SW69*%
X277243555Y-194572767D03*
D11*
X278378881Y-191969781D03*
D12*
X282316593Y-194306900D03*
D11*
X284587245Y-189100929D03*
D10*
X287389631Y-194041033D03*
%TD*%
%TO.C,SW53*%
X203376121Y-176510012D03*
D11*
X204511447Y-173907026D03*
D12*
X208449159Y-176244145D03*
D11*
X210719811Y-171038174D03*
D10*
X213522197Y-175978278D03*
%TD*%
%TO.C,SW7*%
X131420513Y-116912674D03*
D11*
X132821706Y-114442622D03*
D12*
X136493551Y-117178541D03*
D11*
X139295937Y-112238436D03*
D10*
X141566589Y-117444408D03*
%TD*%
%TO.C,SW48*%
X90381728Y-171990352D03*
D11*
X91782921Y-169520300D03*
D12*
X95454766Y-172256219D03*
D11*
X98257152Y-167316114D03*
D10*
X100527804Y-172522086D03*
%TD*%
%TO.C,SW62*%
X67406766Y-195069754D03*
D11*
X68676766Y-192529754D03*
D12*
X72486766Y-195069754D03*
D11*
X75026766Y-189989754D03*
D10*
X77566766Y-195069754D03*
%TD*%
D19*
%TO.C,D163*%
X190000000Y-139475000D03*
X190000000Y-137725000D03*
%TD*%
D10*
%TO.C,SW63*%
X92085586Y-195494455D03*
D11*
X93486779Y-193024403D03*
D12*
X97158624Y-195760322D03*
D11*
X99961010Y-190820217D03*
D10*
X102231662Y-196026189D03*
%TD*%
%TO.C,SW29*%
X296502088Y-133477301D03*
D11*
X297637414Y-130874315D03*
D12*
X301575126Y-133211434D03*
D11*
X303845778Y-128005463D03*
D10*
X306648164Y-132945567D03*
%TD*%
%TO.C,SW10*%
X200385126Y-119438434D03*
D11*
X201520452Y-116835448D03*
D12*
X205458164Y-119172567D03*
D11*
X207728816Y-113966596D03*
D10*
X210531202Y-118906700D03*
%TD*%
%TO.C,SW44*%
X316522981Y-151504193D03*
D11*
X317658307Y-148901207D03*
D12*
X321596019Y-151238326D03*
D11*
X323866671Y-146032355D03*
D10*
X326669057Y-150972459D03*
%TD*%
%TO.C,SW8*%
X150444406Y-117909674D03*
D11*
X151845599Y-115439622D03*
D12*
X155517444Y-118175541D03*
D11*
X158319830Y-113235436D03*
D10*
X160590482Y-118441408D03*
%TD*%
%TO.C,SW28*%
X277478195Y-134474301D03*
D11*
X278613521Y-131871315D03*
D12*
X282551233Y-134208434D03*
D11*
X284821885Y-129002463D03*
D10*
X287624271Y-133942567D03*
%TD*%
%TO.C,SW54*%
X222400013Y-175513012D03*
D11*
X223535339Y-172910026D03*
D12*
X227473051Y-175247145D03*
D11*
X229743703Y-170041174D03*
D10*
X232546089Y-174981278D03*
%TD*%
%TO.C,SW50*%
X128429514Y-173984352D03*
D11*
X129830707Y-171514300D03*
D12*
X133502552Y-174250219D03*
D11*
X136304938Y-169310114D03*
D10*
X138575590Y-174516086D03*
%TD*%
%TO.C,SW57*%
X279470693Y-172522065D03*
D11*
X280606019Y-169919079D03*
D12*
X284543731Y-172256198D03*
D11*
X286814383Y-167050227D03*
D10*
X289616769Y-171990331D03*
%TD*%
%TO.C,SW45*%
X342387291Y-141141109D03*
D11*
X343657291Y-138601109D03*
D12*
X347467291Y-141141109D03*
D11*
X350007291Y-136061109D03*
D10*
X352547291Y-141141109D03*
%TD*%
D18*
%TO.C,D167*%
X199618718Y-190368718D03*
X198381282Y-189131282D03*
%TD*%
D10*
%TO.C,SW27*%
X258452805Y-135471379D03*
D11*
X259588131Y-132868393D03*
D12*
X263525843Y-135205512D03*
D11*
X265796495Y-129999541D03*
D10*
X268598881Y-134939645D03*
%TD*%
D17*
%TO.C,H4*%
X146179792Y-189994890D03*
D12*
X145382192Y-205214004D03*
D17*
X169947175Y-191240486D03*
D12*
X169149575Y-206459600D03*
%TD*%
D10*
%TO.C,SW25*%
X220406018Y-137465327D03*
D11*
X221541344Y-134862341D03*
D12*
X225479056Y-137199460D03*
D11*
X227749708Y-131993489D03*
D10*
X230552094Y-136933593D03*
%TD*%
D19*
%TO.C,D155*%
X392900000Y-111475000D03*
X392900000Y-109725000D03*
%TD*%
%TO.C,D153*%
X371100000Y-111275000D03*
X371100000Y-109525000D03*
%TD*%
D10*
%TO.C,SW64*%
X116883500Y-196342103D03*
D11*
X118284693Y-193872051D03*
D12*
X121956538Y-196607970D03*
D11*
X124758924Y-191667865D03*
D10*
X127029576Y-196873837D03*
%TD*%
%TO.C,SW47*%
X67406766Y-171622164D03*
D11*
X68676766Y-169082164D03*
D12*
X72486766Y-171622164D03*
D11*
X75026766Y-166542164D03*
D10*
X77566766Y-171622164D03*
%TD*%
%TO.C,SW3*%
X45738066Y-108472964D03*
D11*
X47008066Y-105932964D03*
D12*
X50818066Y-108472964D03*
D11*
X53358066Y-103392964D03*
D10*
X55898066Y-108472964D03*
%TD*%
%TO.C,SW11*%
X219409018Y-118441434D03*
D11*
X220544344Y-115838448D03*
D12*
X224482056Y-118175567D03*
D11*
X226752708Y-112969596D03*
D10*
X229555094Y-117909700D03*
%TD*%
%TO.C,SW31*%
X368920000Y-134700000D03*
D11*
X370190000Y-132160000D03*
D12*
X374000000Y-134700000D03*
D11*
X376540000Y-129620000D03*
D10*
X379080000Y-134700000D03*
%TD*%
D24*
%TO.C,D74*%
X262423801Y-98154206D03*
X260676199Y-98245794D03*
%TD*%
D10*
%TO.C,SW13*%
X257455805Y-116447487D03*
D11*
X258591131Y-113844501D03*
D12*
X262528843Y-116181620D03*
D11*
X264799495Y-110975649D03*
D10*
X267601881Y-115915753D03*
%TD*%
%TO.C,SW35*%
X129426513Y-154960459D03*
D11*
X130827706Y-152490407D03*
D12*
X134499551Y-155226326D03*
D11*
X137301937Y-150286221D03*
D10*
X139572589Y-155492193D03*
%TD*%
D28*
%TO.C,SW73*%
X379500000Y-117822588D03*
D29*
X384500000Y-117822588D03*
X382000000Y-117822588D03*
D30*
X376400000Y-110322588D03*
X387600000Y-110322588D03*
D29*
X379500000Y-103322588D03*
X384500000Y-103322588D03*
%TD*%
D10*
%TO.C,SW59*%
X336720791Y-177792097D03*
D11*
X337990791Y-175252097D03*
D12*
X341800791Y-177792097D03*
D11*
X344340791Y-172712097D03*
D10*
X346880791Y-177792097D03*
%TD*%
D25*
%TO.C,D154*%
X382875000Y-121400000D03*
X381125000Y-121400000D03*
%TD*%
D10*
%TO.C,SW71*%
X336720791Y-196842097D03*
D11*
X337990791Y-194302097D03*
D12*
X341800791Y-196842097D03*
D11*
X344340791Y-191762097D03*
D10*
X346880791Y-196842097D03*
%TD*%
%TO.C,SW26*%
X239428912Y-136468379D03*
D11*
X240564238Y-133865393D03*
D12*
X244501950Y-136202512D03*
D11*
X246772602Y-130996541D03*
D10*
X249574988Y-135936645D03*
%TD*%
%TO.C,SW72*%
X355770791Y-196842097D03*
D11*
X357040791Y-194302097D03*
D12*
X360850791Y-196842097D03*
D11*
X363390791Y-191762097D03*
D10*
X365930791Y-196842097D03*
%TD*%
%TO.C,SW68*%
X253462143Y-195799057D03*
D11*
X254597469Y-193196071D03*
D12*
X258535181Y-195533190D03*
D11*
X260805833Y-190327219D03*
D10*
X263608219Y-195267323D03*
%TD*%
D17*
%TO.C,H3*%
X210347948Y-190677021D03*
D12*
X211145548Y-205896135D03*
D17*
X234115331Y-189431425D03*
D12*
X234912931Y-204650539D03*
%TD*%
D10*
%TO.C,SW21*%
X130423513Y-135936567D03*
D11*
X131824706Y-133466515D03*
D12*
X135496551Y-136202434D03*
D11*
X138298937Y-131262329D03*
D10*
X140569589Y-136468301D03*
%TD*%
%TO.C,SW56*%
X260446800Y-173519065D03*
D11*
X261582126Y-170916079D03*
D12*
X265519838Y-173253198D03*
D11*
X267790490Y-168047227D03*
D10*
X270592876Y-172987331D03*
%TD*%
D24*
%TO.C,D157*%
X205373801Y-101154206D03*
X203626199Y-101245794D03*
%TD*%
D10*
%TO.C,SW38*%
X202379126Y-157486219D03*
D11*
X203514452Y-154883233D03*
D12*
X207452164Y-157220352D03*
D11*
X209722816Y-152014381D03*
D10*
X212525202Y-156954485D03*
%TD*%
%TO.C,SW58*%
X300873820Y-171400374D03*
D11*
X302009146Y-168797388D03*
D12*
X305946858Y-171134507D03*
D11*
X308217510Y-165928536D03*
D10*
X311019896Y-170868640D03*
%TD*%
D31*
%TO.C,J2*%
X375395566Y-87875000D03*
X375395566Y-86625000D03*
X375395566Y-85375000D03*
X375395566Y-84125000D03*
X375395566Y-82875000D03*
X375395566Y-81625000D03*
X375395566Y-80375000D03*
X375395566Y-79125000D03*
X375395566Y-77875000D03*
X375395566Y-76625000D03*
X375395566Y-75375000D03*
X375395566Y-74125000D03*
X375395566Y-72875000D03*
X375395566Y-71625000D03*
D32*
X378595566Y-89725000D03*
X378595566Y-69775000D03*
%TD*%
D33*
%TO.C,U5*%
X118458591Y-86940000D03*
X118458591Y-89480000D03*
X118458591Y-92020000D03*
X118458591Y-94560000D03*
%TD*%
D10*
%TO.C,SW67*%
X217524168Y-197295517D03*
D11*
X218659494Y-194692531D03*
D12*
X222597206Y-197029650D03*
D11*
X224867858Y-191823679D03*
D10*
X227670244Y-196763783D03*
%TD*%
%TO.C,SW1*%
X69998799Y-89562410D03*
D11*
X71268799Y-87022410D03*
D12*
X75078799Y-89562410D03*
D11*
X77618799Y-84482410D03*
D10*
X80158799Y-89562410D03*
%TD*%
D34*
%TO.C,U3*%
X203753903Y-201213864D03*
X203400349Y-200860311D03*
X203046796Y-200506757D03*
X202693243Y-200153204D03*
X202339689Y-199799651D03*
X201986136Y-199446097D03*
D35*
X201013864Y-199446097D03*
X200660311Y-199799651D03*
X200306757Y-200153204D03*
X199953204Y-200506757D03*
X199599651Y-200860311D03*
X199246097Y-201213864D03*
D34*
X199246097Y-202186136D03*
X199599651Y-202539689D03*
X199953204Y-202893243D03*
X200306757Y-203246796D03*
X200660311Y-203600349D03*
X201013864Y-203953903D03*
D35*
X201986136Y-203953903D03*
X202339689Y-203600349D03*
X202693243Y-203246796D03*
X203046796Y-202893243D03*
X203400349Y-202539689D03*
X203753903Y-202186136D03*
D36*
X201500000Y-201700000D03*
%TD*%
D25*
%TO.C,D156*%
X383075000Y-99500000D03*
X381325000Y-99500000D03*
%TD*%
D19*
%TO.C,D166*%
X190000000Y-170475000D03*
X190000000Y-168725000D03*
%TD*%
D17*
%TO.C,H1*%
X337951791Y-105582409D03*
D12*
X337951791Y-120822409D03*
D17*
X361751791Y-105582409D03*
D12*
X361751791Y-120822409D03*
%TD*%
D10*
%TO.C,SW4*%
X69788066Y-114472964D03*
D11*
X71058066Y-111932964D03*
D12*
X74868066Y-114472964D03*
D11*
X77408066Y-109392964D03*
D10*
X79948066Y-114472964D03*
%TD*%
%TO.C,SW37*%
X167474299Y-156954459D03*
D11*
X168875492Y-154484407D03*
D12*
X172547337Y-157220326D03*
D11*
X175349723Y-152280221D03*
D10*
X177620375Y-157486193D03*
%TD*%
%TO.C,SW46*%
X368920000Y-153750000D03*
D11*
X370190000Y-151210000D03*
D12*
X374000000Y-153750000D03*
D11*
X376540000Y-148670000D03*
D10*
X379080000Y-153750000D03*
%TD*%
D28*
%TO.C,SW74*%
X187500000Y-206250000D03*
D29*
X192500000Y-206250000D03*
X190000000Y-206250000D03*
D30*
X184400000Y-198750000D03*
X195600000Y-198750000D03*
D29*
X187500000Y-191750000D03*
X192500000Y-191750000D03*
%TD*%
D10*
%TO.C,SW17*%
X344771791Y-112567409D03*
D11*
X346041791Y-110027409D03*
D12*
X349851791Y-112567409D03*
D11*
X352391791Y-107487409D03*
D10*
X354931791Y-112567409D03*
%TD*%
%TO.C,SW23*%
X168471299Y-137930567D03*
D11*
X169872492Y-135460515D03*
D12*
X173544337Y-138196434D03*
D11*
X176346723Y-133256329D03*
D10*
X178617375Y-138462301D03*
%TD*%
%TO.C,SW40*%
X240425913Y-155492272D03*
D11*
X241561239Y-152889286D03*
D12*
X245498951Y-155226405D03*
D11*
X247769603Y-150020434D03*
D10*
X250571989Y-154960538D03*
%TD*%
%TO.C,SW14*%
X276481195Y-115450408D03*
D11*
X277616521Y-112847422D03*
D12*
X281554233Y-115184541D03*
D11*
X283824885Y-109978570D03*
D10*
X286627271Y-114918674D03*
%TD*%
D24*
%TO.C,D73*%
X243373801Y-99154206D03*
X241626199Y-99245794D03*
%TD*%
D10*
%TO.C,SW15*%
X295505088Y-114453408D03*
D11*
X296640414Y-111850422D03*
D12*
X300578126Y-114187541D03*
D11*
X302848778Y-108981570D03*
D10*
X305651164Y-113921674D03*
%TD*%
%TO.C,SW65*%
X152624879Y-197327248D03*
D11*
X154026072Y-194857196D03*
D12*
X157697917Y-197593115D03*
D11*
X160500303Y-192653010D03*
D10*
X162770955Y-197858982D03*
%TD*%
%TO.C,SW22*%
X149447406Y-136933567D03*
D11*
X150848599Y-134463515D03*
D12*
X154520444Y-137199434D03*
D11*
X157322830Y-132259329D03*
D10*
X159593482Y-137465301D03*
%TD*%
%TO.C,SW12*%
X238431912Y-117444487D03*
D11*
X239567238Y-114841501D03*
D12*
X243504950Y-117178620D03*
D11*
X245775602Y-111972649D03*
D10*
X248577988Y-116912753D03*
%TD*%
%TO.C,SW49*%
X109405621Y-172987352D03*
D11*
X110806814Y-170517300D03*
D12*
X114478659Y-173253219D03*
D11*
X117281045Y-168313114D03*
D10*
X119551697Y-173519086D03*
%TD*%
%TO.C,SW20*%
X111399621Y-134939567D03*
D11*
X112800814Y-132469515D03*
D12*
X116472659Y-135205434D03*
D11*
X119275045Y-130265329D03*
D10*
X121545697Y-135471301D03*
%TD*%
%TO.C,SW34*%
X110402620Y-153963459D03*
D11*
X111803813Y-151493407D03*
D12*
X115475658Y-154229326D03*
D11*
X118278044Y-149289221D03*
D10*
X120548696Y-154495193D03*
%TD*%
%TO.C,SW60*%
X368920000Y-172799075D03*
D11*
X370190000Y-170259075D03*
D12*
X374000000Y-172799075D03*
D11*
X376540000Y-167719075D03*
D10*
X379080000Y-172799075D03*
%TD*%
D37*
%TO.C,D161*%
X180381282Y-190368718D03*
X181618718Y-189131282D03*
%TD*%
D10*
%TO.C,SW61*%
X43165566Y-183100164D03*
D11*
X44435566Y-180560164D03*
D12*
X48245566Y-183100164D03*
D11*
X50785566Y-178020164D03*
D10*
X53325566Y-183100164D03*
%TD*%
%TO.C,SW5*%
X93372728Y-114918674D03*
D11*
X94773921Y-112448622D03*
D12*
X98445766Y-115184541D03*
D11*
X101248152Y-110244436D03*
D10*
X103518804Y-115450408D03*
%TD*%
%TO.C,SW19*%
X92375728Y-133942567D03*
D11*
X93776921Y-131472515D03*
D12*
X97448766Y-134208434D03*
D11*
X100251152Y-129268329D03*
D10*
X102521804Y-134474301D03*
%TD*%
D24*
%TO.C,D158*%
X224373801Y-100154206D03*
X222626199Y-100245794D03*
%TD*%
D10*
%TO.C,SW33*%
X91378728Y-152966459D03*
D11*
X92779921Y-150496407D03*
D12*
X96451766Y-153232326D03*
D11*
X99254152Y-148292221D03*
D10*
X101524804Y-153498193D03*
%TD*%
%TO.C,SW52*%
X166477299Y-175978352D03*
D11*
X167878492Y-173508300D03*
D12*
X171550337Y-176244219D03*
D11*
X174352723Y-171304114D03*
D10*
X176623375Y-176510086D03*
%TD*%
M02*
