M48
; DRILL file {KiCad 7.0.7} date 2023 December 22, Friday 23:49:46
; FORMAT={-:-/ absolute / metric / decimal}
; #@! TF.CreationDate,2023-12-22T23:49:46+01:00
; #@! TF.GenerationSoftware,Kicad,Pcbnew,7.0.7
; #@! TF.FileFunction,NonPlated,1,2,NPTH
FMAT,2
METRIC
; #@! TA.AperFunction,NonPlated,NPTH,ComponentDrill
T1C1.702
; #@! TA.AperFunction,NonPlated,NPTH,ComponentDrill
T2C2.000
; #@! TA.AperFunction,NonPlated,NPTH,ComponentDrill
T3C3.000
; #@! TA.AperFunction,NonPlated,NPTH,ComponentDrill
T4C3.048
; #@! TA.AperFunction,NonPlated,NPTH,ComponentDrill
T5C3.988
%
G90
G05
T1
X43.166Y-183.1
X45.738Y-108.473
X53.326Y-183.1
X55.898Y-108.473
X62.644Y-152.573
X65.026Y-133.525
X67.407Y-171.622
X67.407Y-195.07
X69.788Y-114.473
X69.999Y-89.562
X72.804Y-152.573
X75.186Y-133.525
X77.567Y-171.622
X77.567Y-195.07
X79.948Y-114.473
X80.159Y-89.562
X89.049Y-89.562
X90.382Y-171.99
X91.379Y-152.966
X92.086Y-195.494
X92.376Y-133.943
X93.373Y-114.919
X99.209Y-89.562
X100.528Y-172.522
X101.525Y-153.498
X102.232Y-196.026
X102.522Y-134.474
X103.519Y-115.45
X109.406Y-172.987
X110.403Y-153.963
X111.4Y-134.94
X112.397Y-115.916
X116.883Y-196.342
X119.552Y-173.519
X120.549Y-154.495
X121.546Y-135.471
X122.543Y-116.447
X127.03Y-196.874
X128.43Y-173.984
X129.427Y-154.96
X130.424Y-135.937
X131.421Y-116.913
X138.576Y-174.516
X139.573Y-155.492
X140.57Y-136.468
X141.567Y-117.444
X147.453Y-174.981
X148.45Y-155.957
X149.447Y-136.934
X150.444Y-117.91
X152.625Y-197.327
X157.599Y-175.513
X158.596Y-156.489
X159.593Y-137.465
X160.59Y-118.441
X162.771Y-197.859
X166.477Y-175.978
X167.474Y-156.954
X168.471Y-137.931
X169.468Y-118.907
X176.623Y-176.51
X177.62Y-157.486
X178.617Y-138.462
X179.614Y-119.438
X200.385Y-119.438
X201.382Y-138.462
X202.379Y-157.486
X203.376Y-176.51
X210.531Y-118.907
X211.528Y-137.931
X212.525Y-156.954
X213.522Y-175.978
X217.524Y-197.296
X219.409Y-118.441
X220.406Y-137.465
X221.402Y-156.489
X222.4Y-175.513
X227.67Y-196.764
X229.555Y-117.91
X230.552Y-136.934
X231.548Y-155.958
X232.546Y-174.981
X238.432Y-117.444
X239.429Y-136.468
X240.426Y-155.492
X241.424Y-174.516
X248.578Y-116.913
X249.575Y-135.937
X250.572Y-154.961
X251.57Y-173.984
X253.462Y-195.799
X257.456Y-116.447
X258.453Y-135.471
X259.451Y-154.495
X260.447Y-173.519
X263.608Y-195.267
X267.602Y-115.916
X268.599Y-134.94
X269.597Y-153.963
X270.593Y-172.987
X276.481Y-115.45
X277.244Y-194.573
X277.478Y-134.474
X278.475Y-153.498
X279.471Y-172.522
X286.627Y-114.919
X287.39Y-194.041
X287.624Y-133.943
X288.621Y-152.966
X289.617Y-171.99
X295.505Y-114.453
X296.502Y-133.477
X297.499Y-152.501
X300.874Y-171.4
X305.651Y-113.922
X306.648Y-132.946
X307.645Y-151.969
X311.02Y-170.869
X314.529Y-113.456
X315.526Y-132.48
X316.523Y-151.504
X317.671Y-196.842
X324.675Y-112.925
X325.672Y-131.949
X326.669Y-150.972
X327.831Y-196.842
X336.721Y-177.792
X336.721Y-196.842
X342.387Y-141.141
X344.772Y-112.567
X346.881Y-177.792
X346.881Y-196.842
X352.547Y-141.141
X354.932Y-112.567
X355.771Y-196.842
X365.931Y-196.842
X368.92Y-134.7
X368.92Y-153.75
X368.92Y-172.799
X379.08Y-134.7
X379.08Y-153.75
X379.08Y-172.799
T3
X44.436Y-180.56
X47.008Y-105.933
X50.786Y-178.02
X53.358Y-103.393
X63.914Y-150.033
X66.296Y-130.985
X68.677Y-169.082
X68.677Y-192.53
X70.264Y-147.493
X71.058Y-111.933
X71.269Y-87.022
X72.646Y-128.445
X75.027Y-166.542
X75.027Y-189.99
X77.408Y-109.393
X77.619Y-84.482
X90.319Y-87.022
X91.783Y-169.52
X92.78Y-150.496
X93.487Y-193.024
X93.777Y-131.473
X94.774Y-112.449
X96.669Y-84.482
X98.257Y-167.316
X99.254Y-148.292
X99.961Y-190.82
X100.251Y-129.268
X101.248Y-110.244
X110.807Y-170.517
X111.804Y-151.493
X112.801Y-132.47
X113.798Y-113.446
X117.281Y-168.313
X118.278Y-149.289
X118.285Y-193.872
X119.275Y-130.265
X120.272Y-111.241
X124.759Y-191.668
X129.831Y-171.514
X130.828Y-152.49
X131.825Y-133.467
X132.822Y-114.443
X136.305Y-169.31
X137.302Y-150.286
X138.299Y-131.262
X139.296Y-112.238
X148.855Y-172.511
X149.852Y-153.487
X150.849Y-134.464
X151.846Y-115.44
X154.026Y-194.857
X155.329Y-170.307
X156.326Y-151.283
X157.323Y-132.259
X158.32Y-113.235
X160.5Y-192.653
X167.878Y-173.508
X168.875Y-154.484
X169.872Y-135.461
X170.869Y-116.437
X174.353Y-171.304
X175.35Y-152.28
X176.347Y-133.256
X177.344Y-114.232
X201.52Y-116.835
X202.517Y-135.859
X203.514Y-154.883
X204.511Y-173.907
X207.729Y-113.967
X208.726Y-132.99
X209.723Y-152.014
X210.72Y-171.038
X218.659Y-194.693
X220.544Y-115.838
X221.541Y-134.862
X222.537Y-153.886
X223.535Y-172.91
X224.868Y-191.824
X226.753Y-112.97
X227.75Y-131.993
X228.746Y-151.017
X229.744Y-170.041
X239.567Y-114.842
X240.564Y-133.865
X241.561Y-152.889
X242.559Y-171.913
X245.776Y-111.973
X246.773Y-130.997
X247.77Y-150.02
X248.768Y-169.044
X254.597Y-193.196
X258.591Y-113.845
X259.588Y-132.868
X260.587Y-151.892
X260.806Y-190.327
X261.582Y-170.916
X264.799Y-110.976
X265.796Y-130.0
X266.795Y-149.023
X267.79Y-168.047
X277.617Y-112.847
X278.379Y-191.97
X278.614Y-131.871
X279.611Y-150.895
X280.606Y-169.919
X283.825Y-109.979
X284.587Y-189.101
X284.822Y-129.002
X285.819Y-148.026
X286.814Y-167.05
X296.64Y-111.85
X297.637Y-130.874
X298.634Y-149.898
X302.009Y-168.797
X302.849Y-108.982
X303.846Y-128.005
X304.843Y-147.029
X308.218Y-165.929
X315.664Y-110.853
X316.661Y-129.877
X317.658Y-148.901
X318.941Y-194.302
X321.873Y-107.985
X322.87Y-127.008
X323.867Y-146.032
X325.291Y-191.762
X337.991Y-175.252
X337.991Y-194.302
X343.657Y-138.601
X344.341Y-172.712
X344.341Y-191.762
X346.042Y-110.027
X350.007Y-136.061
X352.392Y-107.487
X357.041Y-194.302
X363.391Y-191.762
X370.19Y-132.16
X370.19Y-151.21
X370.19Y-170.259
X376.54Y-129.62
X376.54Y-148.67
X376.54Y-167.719
T4
X146.18Y-189.995
X169.947Y-191.24
X210.348Y-190.677
X234.115Y-189.431
X337.952Y-105.582
X339.612Y-129.241
X339.612Y-153.041
X361.752Y-105.582
T5
X48.246Y-183.1
X50.818Y-108.473
X67.724Y-152.573
X70.106Y-133.525
X72.487Y-171.622
X72.487Y-195.07
X74.868Y-114.473
X75.079Y-89.562
X94.129Y-89.562
X95.455Y-172.256
X96.452Y-153.232
X97.159Y-195.76
X97.449Y-134.208
X98.446Y-115.185
X114.479Y-173.253
X115.476Y-154.229
X116.473Y-135.205
X117.47Y-116.182
X121.957Y-196.608
X133.503Y-174.25
X134.5Y-155.226
X135.497Y-136.202
X136.494Y-117.179
X145.382Y-205.214
X152.526Y-175.247
X153.523Y-156.223
X154.52Y-137.199
X155.517Y-118.176
X157.698Y-197.593
X169.15Y-206.46
X171.55Y-176.244
X172.547Y-157.22
X173.544Y-138.196
X174.541Y-119.173
X205.458Y-119.173
X206.455Y-138.196
X207.452Y-157.22
X208.449Y-176.244
X211.146Y-205.896
X222.597Y-197.03
X224.482Y-118.176
X225.479Y-137.199
X226.475Y-156.223
X227.473Y-175.247
X234.913Y-204.651
X243.505Y-117.179
X244.502Y-136.203
X245.499Y-155.226
X246.497Y-174.25
X258.535Y-195.533
X262.529Y-116.182
X263.526Y-135.206
X264.524Y-154.229
X265.52Y-173.253
X281.554Y-115.185
X282.317Y-194.307
X282.551Y-134.208
X283.548Y-153.232
X284.544Y-172.256
X300.578Y-114.188
X301.575Y-133.211
X302.572Y-152.235
X305.947Y-171.135
X319.602Y-113.191
X320.599Y-132.214
X321.596Y-151.238
X322.751Y-196.842
X337.952Y-120.822
X341.801Y-177.792
X341.801Y-196.842
X347.467Y-141.141
X349.852Y-112.567
X354.852Y-129.241
X354.852Y-153.041
X360.851Y-196.842
X361.752Y-120.822
X374.0Y-134.7
X374.0Y-153.75
X374.0Y-172.799
T2
G00X48.246Y-187.35
M15
G01X48.246Y-188.85
M16
G05
G00X50.818Y-112.723
M15
G01X50.818Y-114.223
M16
G05
G00X67.724Y-156.823
M15
G01X67.724Y-158.323
M16
G05
G00X70.106Y-137.775
M15
G01X70.106Y-139.275
M16
G05
G00X72.487Y-175.872
M15
G01X72.487Y-177.372
M16
G05
G00X72.487Y-199.32
M15
G01X72.487Y-200.82
M16
G05
G00X74.868Y-118.723
M15
G01X74.868Y-120.223
M16
G05
G00X75.079Y-93.812
M15
G01X75.079Y-95.312
M16
G05
G00X94.129Y-93.812
M15
G01X94.129Y-95.312
M16
G05
G00X95.232Y-176.5
M15
G01X95.154Y-177.998
M16
G05
G00X96.229Y-157.477
M15
G01X96.151Y-158.974
M16
G05
G00X96.936Y-200.004
M15
G01X96.858Y-201.502
M16
G05
G00X97.226Y-138.453
M15
G01X97.148Y-139.951
M16
G05
G00X98.223Y-119.429
M15
G01X98.145Y-120.927
M16
G05
G00X114.256Y-177.497
M15
G01X114.178Y-178.995
M16
G05
G00X115.253Y-158.474
M15
G01X115.175Y-159.971
M16
G05
G00X116.25Y-139.45
M15
G01X116.172Y-140.948
M16
G05
G00X117.247Y-120.426
M15
G01X117.169Y-121.924
M16
G05
G00X121.734Y-200.852
M15
G01X121.656Y-202.35
M16
G05
G00X133.28Y-178.494
M15
G01X133.202Y-179.992
M16
G05
G00X134.277Y-159.471
M15
G01X134.199Y-160.968
M16
G05
G00X135.274Y-140.447
M15
G01X135.196Y-141.945
M16
G05
G00X136.271Y-121.423
M15
G01X136.193Y-122.921
M16
G05
G00X152.304Y-179.491
M15
G01X152.226Y-180.989
M16
G05
G00X153.301Y-160.468
M15
G01X153.223Y-161.965
M16
G05
G00X154.298Y-141.444
M15
G01X154.22Y-142.942
M16
G05
G00X155.295Y-122.42
M15
G01X155.217Y-123.918
M16
G05
G00X157.475Y-201.837
M15
G01X157.397Y-203.335
M16
G05
G00X171.328Y-180.488
M15
G01X171.249Y-181.986
M16
G05
G00X172.325Y-161.465
M15
G01X172.246Y-162.962
M16
G05
G00X173.322Y-142.441
M15
G01X173.243Y-143.939
M16
G05
G00X174.319Y-123.417
M15
G01X174.24Y-124.915
M16
G05
G00X205.681Y-123.417
M15
G01X205.759Y-124.915
M16
G05
G00X206.678Y-142.441
M15
G01X206.756Y-143.939
M16
G05
G00X207.675Y-161.465
M15
G01X207.753Y-162.962
M16
G05
G00X208.672Y-180.488
M15
G01X208.75Y-181.986
M16
G05
G00X222.82Y-201.274
M15
G01X222.898Y-202.772
M16
G05
G00X224.704Y-122.42
M15
G01X224.783Y-123.918
M16
G05
G00X225.701Y-141.444
M15
G01X225.78Y-142.942
M16
G05
G00X226.697Y-160.468
M15
G01X226.776Y-161.966
M16
G05
G00X227.695Y-179.491
M15
G01X227.774Y-180.989
M16
G05
G00X243.727Y-121.423
M15
G01X243.806Y-122.921
M16
G05
G00X244.724Y-140.447
M15
G01X244.803Y-141.945
M16
G05
G00X245.721Y-159.471
M15
G01X245.8Y-160.969
M16
G05
G00X246.719Y-178.494
M15
G01X246.798Y-179.992
M16
G05
G00X258.758Y-199.777
M15
G01X258.836Y-201.275
M16
G05
G00X262.751Y-120.426
M15
G01X262.83Y-121.924
M16
G05
G00X263.748Y-139.45
M15
G01X263.827Y-140.948
M16
G05
G00X264.747Y-158.474
M15
G01X264.825Y-159.971
M16
G05
G00X265.742Y-177.497
M15
G01X265.821Y-178.995
M16
G05
G00X281.777Y-119.429
M15
G01X281.855Y-120.927
M16
G05
G00X282.539Y-198.551
M15
G01X282.618Y-200.049
M16
G05
G00X282.774Y-138.453
M15
G01X282.852Y-139.951
M16
G05
G00X283.771Y-157.477
M15
G01X283.849Y-158.974
M16
G05
G00X284.766Y-176.5
M15
G01X284.845Y-177.998
M16
G05
G00X300.801Y-118.432
M15
G01X300.879Y-119.93
M16
G05
G00X301.798Y-137.456
M15
G01X301.876Y-138.954
M16
G05
G00X302.795Y-156.48
M15
G01X302.873Y-157.977
M16
G05
G00X306.169Y-175.379
M15
G01X306.248Y-176.877
M16
G05
G00X319.824Y-117.435
M15
G01X319.903Y-118.933
M16
G05
G00X320.821Y-136.459
M15
G01X320.9Y-137.957
M16
G05
G00X321.818Y-155.483
M15
G01X321.897Y-156.98
M16
G05
G00X322.751Y-201.092
M15
G01X322.751Y-202.592
M16
G05
G00X341.801Y-182.042
M15
G01X341.801Y-183.542
M16
G05
G00X341.801Y-201.092
M15
G01X341.801Y-202.592
M16
G05
G00X347.467Y-145.391
M15
G01X347.467Y-146.891
M16
G05
G00X349.852Y-116.817
M15
G01X349.852Y-118.317
M16
G05
G00X360.851Y-201.092
M15
G01X360.851Y-202.592
M16
G05
G00X374.0Y-138.95
M15
G01X374.0Y-140.45
M16
G05
G00X374.0Y-158.0
M15
G01X374.0Y-159.5
M16
G05
G00X374.0Y-177.049
M15
G01X374.0Y-178.549
M16
G05
T0
M30
