%TF.GenerationSoftware,KiCad,Pcbnew,7.0.7*%
%TF.CreationDate,2023-12-22T23:49:33+01:00*%
%TF.ProjectId,isokey,69736f6b-6579-42e6-9b69-6361645f7063,A*%
%TF.SameCoordinates,Original*%
%TF.FileFunction,Profile,NP*%
%FSLAX46Y46*%
G04 Gerber Fmt 4.6, Leading zero omitted, Abs format (unit mm)*
G04 Created by KiCad (PCBNEW 7.0.7) date 2023-12-22 23:49:33*
%MOMM*%
%LPD*%
G01*
G04 APERTURE LIST*
%TA.AperFunction,Profile*%
%ADD10C,0.250000*%
%TD*%
%TA.AperFunction,Profile*%
%ADD11C,0.200000*%
%TD*%
G04 APERTURE END LIST*
D10*
X210941350Y-94735987D02*
G75*
G03*
X214784275Y-94006118I1843450J775687D01*
G01*
D11*
X305485170Y-202625924D02*
G75*
G03*
X305485170Y-202625924I-1600000J0D01*
G01*
D10*
X183639546Y-89863983D02*
G75*
G03*
X189469260Y-89037562I2181054J5589583D01*
G01*
X221988490Y-90568944D02*
G75*
G03*
X237912625Y-95540097I14668110J18995944D01*
G01*
X159004472Y-83533498D02*
G75*
G03*
X162312063Y-88895507I6000028J-2D01*
G01*
X31250000Y-81992770D02*
X31250000Y-102500000D01*
X391945603Y-118379376D02*
G75*
G03*
X391004434Y-120956899I3058597J-2577424D01*
G01*
X31250000Y-102500000D02*
X31250000Y-202045807D01*
X141004430Y-71179853D02*
G75*
G03*
X135111562Y-75617731I16566670J-28129547D01*
G01*
X383004434Y-213271534D02*
G75*
G03*
X391004434Y-205271457I-34J8000034D01*
G01*
X159004467Y-83533498D02*
X159004471Y-81992803D01*
X307755225Y-213271457D02*
X383004434Y-213271457D01*
X38981200Y-210041290D02*
X173566732Y-214565924D01*
X263573122Y-94195288D02*
X237912625Y-95540097D01*
X183639545Y-89863984D02*
G75*
G03*
X177312535Y-89548989I-3635145J-9315916D01*
G01*
X111548391Y-70588034D02*
G75*
G03*
X111098467Y-70456674I-13092991J-44008966D01*
G01*
X31249993Y-202045807D02*
G75*
G03*
X38981200Y-210041290I8000007J7D01*
G01*
D11*
X181600000Y-99759977D02*
G75*
G03*
X181600000Y-99759977I-1600000J0D01*
G01*
D10*
X206792554Y-214226248D02*
X303650553Y-209150135D01*
X221988417Y-90569039D02*
G75*
G03*
X214784277Y-94006118I-2733217J-3539661D01*
G01*
X391004469Y-99047997D02*
G75*
G03*
X391945610Y-101625515I3999831J-103D01*
G01*
X391004434Y-94179860D02*
X391004434Y-73179860D01*
X289690519Y-77551742D02*
G75*
G03*
X290080240Y-77119868I-109715119J99398142D01*
G01*
X111098471Y-70456661D02*
G75*
G03*
X107794156Y-69992770I-3304271J-11536139D01*
G01*
X107794156Y-69992770D02*
X43250000Y-69992770D01*
X274901254Y-84713584D02*
G75*
G03*
X286344777Y-80135706I-17085754J59301884D01*
G01*
X391004440Y-73179860D02*
G75*
G03*
X379004434Y-61179860I-12000040J-40D01*
G01*
X286344784Y-80135719D02*
G75*
G03*
X289690519Y-77551742I-5547184J10640519D01*
G01*
X159004472Y-81992770D02*
G75*
G03*
X141004434Y-71179861I-12329832J-136620D01*
G01*
D11*
X40845566Y-202625924D02*
G75*
G03*
X40845566Y-202625924I-1600000J0D01*
G01*
D10*
X179287484Y-216239426D02*
G75*
G03*
X173566732Y-214565925I-6123984J-10319674D01*
G01*
X304442948Y-58887612D02*
G75*
G03*
X314678803Y-61179860I10235952J21708012D01*
G01*
D11*
X191600000Y-216000000D02*
G75*
G03*
X191600000Y-216000000I-1600000J0D01*
G01*
X290420275Y-89191583D02*
G75*
G03*
X290420275Y-89191583I-1600000J0D01*
G01*
X191600000Y-125750000D02*
G75*
G03*
X191600000Y-125750000I-1600000J0D01*
G01*
X191600000Y-177759977D02*
G75*
G03*
X191600000Y-177759977I-1600000J0D01*
G01*
D10*
X274901244Y-84713550D02*
G75*
G03*
X268883054Y-90294256I2522656J-8755750D01*
G01*
X304442944Y-58887619D02*
G75*
G03*
X293027921Y-67352564I-3438504J-7292241D01*
G01*
X162312061Y-88895512D02*
G75*
G03*
X177312535Y-89548988I8506439J22770512D01*
G01*
D11*
X86203799Y-74822887D02*
G75*
G03*
X86203799Y-74822887I-1600000J0D01*
G01*
X40845566Y-124080117D02*
G75*
G03*
X40845566Y-124080117I-1600000J0D01*
G01*
X373600000Y-97866120D02*
G75*
G03*
X373600000Y-97866120I-1600000J0D01*
G01*
D10*
X305755204Y-211147394D02*
G75*
G03*
X303650553Y-209150136I-2000004J-6D01*
G01*
X305755225Y-211147394D02*
X305755225Y-211271457D01*
X43250000Y-69992770D02*
G75*
G03*
X31250000Y-81992770I0J-12000000D01*
G01*
X391004434Y-99047997D02*
X391004434Y-94179860D01*
X117451682Y-74537175D02*
G75*
G03*
X135111562Y-75617731I9325118J7552575D01*
G01*
X379004434Y-61179860D02*
X314678803Y-61179860D01*
X290080269Y-77119894D02*
G75*
G03*
X293027921Y-67352564I-8924669J8021794D01*
G01*
X117451643Y-74537207D02*
G75*
G03*
X111548391Y-70588034I-9325143J-7552593D01*
G01*
X263573123Y-94195309D02*
G75*
G03*
X268883052Y-90294256I-314123J5991909D01*
G01*
X179287494Y-216239411D02*
G75*
G03*
X201087440Y-216017096I10716936J18059551D01*
G01*
X391004434Y-205271457D02*
X391004434Y-120956899D01*
X206792554Y-214226241D02*
G75*
G03*
X201087440Y-216017096I628046J-11983559D01*
G01*
D11*
X385600000Y-205851574D02*
G75*
G03*
X385600000Y-205851574I-1600000J0D01*
G01*
D10*
X391945611Y-118379383D02*
G75*
G03*
X391945609Y-101625516I-9941151J8376933D01*
G01*
X305755143Y-211271457D02*
G75*
G03*
X307755225Y-213271457I2000057J57D01*
G01*
X210941359Y-94735984D02*
G75*
G03*
X189469260Y-89037562I-12936929J-5443876D01*
G01*
M02*
