%TF.GenerationSoftware,KiCad,Pcbnew,7.0.7*%
%TF.CreationDate,2023-12-22T23:49:32+01:00*%
%TF.ProjectId,isokey,69736f6b-6579-42e6-9b69-6361645f7063,A*%
%TF.SameCoordinates,Original*%
%TF.FileFunction,Paste,Top*%
%TF.FilePolarity,Positive*%
%FSLAX46Y46*%
G04 Gerber Fmt 4.6, Leading zero omitted, Abs format (unit mm)*
G04 Created by KiCad (PCBNEW 7.0.7) date 2023-12-22 23:49:32*
%MOMM*%
%LPD*%
G01*
G04 APERTURE LIST*
G04 Aperture macros list*
%AMRoundRect*
0 Rectangle with rounded corners*
0 $1 Rounding radius*
0 $2 $3 $4 $5 $6 $7 $8 $9 X,Y pos of 4 corners*
0 Add a 4 corners polygon primitive as box body*
4,1,4,$2,$3,$4,$5,$6,$7,$8,$9,$2,$3,0*
0 Add four circle primitives for the rounded corners*
1,1,$1+$1,$2,$3*
1,1,$1+$1,$4,$5*
1,1,$1+$1,$6,$7*
1,1,$1+$1,$8,$9*
0 Add four rect primitives between the rounded corners*
20,1,$1+$1,$2,$3,$4,$5,0*
20,1,$1+$1,$4,$5,$6,$7,0*
20,1,$1+$1,$6,$7,$8,$9,0*
20,1,$1+$1,$8,$9,$2,$3,0*%
G04 Aperture macros list end*
%ADD10RoundRect,0.237500X0.371231X-0.035355X-0.035355X0.371231X-0.371231X0.035355X0.035355X-0.371231X0*%
%ADD11RoundRect,0.237500X0.237500X-0.287500X0.237500X0.287500X-0.237500X0.287500X-0.237500X-0.287500X0*%
%ADD12RoundRect,0.250000X0.280000X-0.280000X0.280000X0.280000X-0.280000X0.280000X-0.280000X-0.280000X0*%
%ADD13RoundRect,0.075000X0.075000X-0.362500X0.075000X0.362500X-0.075000X0.362500X-0.075000X-0.362500X0*%
%ADD14RoundRect,0.075000X0.362500X-0.075000X0.362500X0.075000X-0.362500X0.075000X-0.362500X-0.075000X0*%
%ADD15RoundRect,0.237500X0.035355X0.371231X-0.371231X-0.035355X-0.035355X-0.371231X0.371231X0.035355X0*%
%ADD16RoundRect,0.237500X0.274676X0.252221X-0.299536X0.222128X-0.274676X-0.252221X0.299536X-0.222128X0*%
%ADD17RoundRect,0.237500X0.287500X0.237500X-0.287500X0.237500X-0.287500X-0.237500X0.287500X-0.237500X0*%
%ADD18RoundRect,0.150000X-0.700000X0.150000X-0.700000X-0.150000X0.700000X-0.150000X0.700000X0.150000X0*%
%ADD19RoundRect,0.250000X-1.100000X0.250000X-1.100000X-0.250000X1.100000X-0.250000X1.100000X0.250000X0*%
%ADD20RoundRect,0.150000X0.700000X-0.150000X0.700000X0.150000X-0.700000X0.150000X-0.700000X-0.150000X0*%
%ADD21RoundRect,0.250000X1.100000X-0.250000X1.100000X0.250000X-1.100000X0.250000X-1.100000X-0.250000X0*%
%ADD22RoundRect,0.250000X0.000000X0.395980X-0.395980X0.000000X0.000000X-0.395980X0.395980X0.000000X0*%
%ADD23RoundRect,0.075000X0.203293X0.309359X-0.309359X-0.203293X-0.203293X-0.309359X0.309359X0.203293X0*%
%ADD24RoundRect,0.075000X-0.203293X0.309359X-0.309359X0.203293X0.203293X-0.309359X0.309359X-0.203293X0*%
%ADD25RoundRect,0.237500X-0.035355X-0.371231X0.371231X0.035355X0.035355X0.371231X-0.371231X-0.035355X0*%
G04 APERTURE END LIST*
D10*
%TO.C,D160*%
X181618718Y-208368718D03*
X180381282Y-207131282D03*
%TD*%
D11*
%TO.C,D159*%
X190000000Y-120475000D03*
X190000000Y-118725000D03*
%TD*%
D12*
%TO.C,U2*%
X305890000Y-90210000D03*
X307110000Y-90210000D03*
X305890000Y-88990000D03*
X307110000Y-88990000D03*
D13*
X305250000Y-91537500D03*
X305750000Y-91537500D03*
X306250000Y-91537500D03*
X306750000Y-91537500D03*
X307250000Y-91537500D03*
X307750000Y-91537500D03*
D14*
X308437500Y-90850000D03*
X308437500Y-90350000D03*
X308437500Y-89850000D03*
X308437500Y-89350000D03*
X308437500Y-88850000D03*
X308437500Y-88350000D03*
D13*
X307750000Y-87662500D03*
X307250000Y-87662500D03*
X306750000Y-87662500D03*
X306250000Y-87662500D03*
X305750000Y-87662500D03*
X305250000Y-87662500D03*
D14*
X304562500Y-88350000D03*
X304562500Y-88850000D03*
X304562500Y-89350000D03*
X304562500Y-89850000D03*
X304562500Y-90350000D03*
X304562500Y-90850000D03*
%TD*%
D11*
%TO.C,D165*%
X190000000Y-158475000D03*
X190000000Y-156725000D03*
%TD*%
D15*
%TO.C,D162*%
X199618718Y-207131282D03*
X198381282Y-208368718D03*
%TD*%
D16*
%TO.C,D75*%
X281473801Y-97154206D03*
X279726199Y-97245794D03*
%TD*%
D17*
%TO.C,D164*%
X190875000Y-211000000D03*
X189125000Y-211000000D03*
%TD*%
D18*
%TO.C,J1*%
X46850000Y-75366069D03*
X46850000Y-76616069D03*
X46850000Y-77866069D03*
X46850000Y-79116069D03*
X46850000Y-80366069D03*
X46850000Y-81616069D03*
X46850000Y-82866069D03*
X46850000Y-84116069D03*
X46850000Y-85366069D03*
X46850000Y-86616069D03*
X46850000Y-87866069D03*
X46850000Y-89116069D03*
X46850000Y-90366069D03*
X46850000Y-91616069D03*
D19*
X43650000Y-73516069D03*
X43650000Y-93466069D03*
%TD*%
D11*
%TO.C,D163*%
X190000000Y-139475000D03*
X190000000Y-137725000D03*
%TD*%
D10*
%TO.C,D167*%
X199618718Y-190368718D03*
X198381282Y-189131282D03*
%TD*%
D11*
%TO.C,D155*%
X392900000Y-111475000D03*
X392900000Y-109725000D03*
%TD*%
%TO.C,D153*%
X371100000Y-111275000D03*
X371100000Y-109525000D03*
%TD*%
D16*
%TO.C,D74*%
X262423801Y-98154206D03*
X260676199Y-98245794D03*
%TD*%
D17*
%TO.C,D154*%
X382875000Y-121400000D03*
X381125000Y-121400000D03*
%TD*%
D16*
%TO.C,D157*%
X205373801Y-101154206D03*
X203626199Y-101245794D03*
%TD*%
D20*
%TO.C,J2*%
X375395566Y-87875000D03*
X375395566Y-86625000D03*
X375395566Y-85375000D03*
X375395566Y-84125000D03*
X375395566Y-82875000D03*
X375395566Y-81625000D03*
X375395566Y-80375000D03*
X375395566Y-79125000D03*
X375395566Y-77875000D03*
X375395566Y-76625000D03*
X375395566Y-75375000D03*
X375395566Y-74125000D03*
X375395566Y-72875000D03*
X375395566Y-71625000D03*
D21*
X378595566Y-89725000D03*
X378595566Y-69775000D03*
%TD*%
D22*
%TO.C,U3*%
X202362670Y-201700000D03*
X201500000Y-200837330D03*
X201500000Y-202562670D03*
X200637330Y-201700000D03*
D23*
X203753903Y-201213864D03*
X203400349Y-200860311D03*
X203046796Y-200506757D03*
X202693243Y-200153204D03*
X202339689Y-199799651D03*
X201986136Y-199446097D03*
D24*
X201013864Y-199446097D03*
X200660311Y-199799651D03*
X200306757Y-200153204D03*
X199953204Y-200506757D03*
X199599651Y-200860311D03*
X199246097Y-201213864D03*
D23*
X199246097Y-202186136D03*
X199599651Y-202539689D03*
X199953204Y-202893243D03*
X200306757Y-203246796D03*
X200660311Y-203600349D03*
X201013864Y-203953903D03*
D24*
X201986136Y-203953903D03*
X202339689Y-203600349D03*
X202693243Y-203246796D03*
X203046796Y-202893243D03*
X203400349Y-202539689D03*
X203753903Y-202186136D03*
%TD*%
D17*
%TO.C,D156*%
X383075000Y-99500000D03*
X381325000Y-99500000D03*
%TD*%
D11*
%TO.C,D166*%
X190000000Y-170475000D03*
X190000000Y-168725000D03*
%TD*%
D16*
%TO.C,D73*%
X243373801Y-99154206D03*
X241626199Y-99245794D03*
%TD*%
D25*
%TO.C,D161*%
X180381282Y-190368718D03*
X181618718Y-189131282D03*
%TD*%
D16*
%TO.C,D158*%
X224373801Y-100154206D03*
X222626199Y-100245794D03*
%TD*%
M02*
