%TF.GenerationSoftware,KiCad,Pcbnew,7.0.7*%
%TF.CreationDate,2023-12-22T23:49:47+01:00*%
%TF.ProjectId,isokey,69736f6b-6579-42e6-9b69-6361645f7063,A*%
%TF.SameCoordinates,Original*%
%TF.FileFunction,Drillmap*%
%TF.FilePolarity,Positive*%
%FSLAX45Y45*%
G04 Gerber Fmt 4.5, Leading zero omitted, Abs format (unit mm)*
G04 Created by KiCad (PCBNEW 7.0.7) date 2023-12-22 23:49:47*
%MOMM*%
%LPD*%
G01*
G04 APERTURE LIST*
%ADD10C,0.250000*%
%ADD11C,0.200000*%
%ADD12C,0.020000*%
%ADD13C,0.030000*%
%ADD14C,0.076200*%
%ADD15C,0.095000*%
%ADD16C,0.100000*%
%ADD17C,0.101600*%
%ADD18C,0.220000*%
G04 APERTURE END LIST*
D10*
X21094135Y-9473599D02*
G75*
G03*
X21478428Y-9400612I184345J77569D01*
G01*
D11*
X30548517Y-20262592D02*
G75*
G03*
X30548517Y-20262592I-160000J0D01*
G01*
D10*
X18363955Y-8986398D02*
G75*
G03*
X18946926Y-8903756I218105J558958D01*
G01*
X22198849Y-9056894D02*
G75*
G03*
X23791262Y-9554010I1466811J1899594D01*
G01*
X15900447Y-8353350D02*
G75*
G03*
X16231206Y-8889551I600003J0D01*
G01*
X3125000Y-8199277D02*
X3125000Y-10250000D01*
X39194560Y-11837938D02*
G75*
G03*
X39100443Y-12095690I305860J-257742D01*
G01*
X3125000Y-10250000D02*
X3125000Y-20204581D01*
X14100443Y-7117985D02*
G75*
G03*
X13511156Y-7561773I1656667J-2812955D01*
G01*
X38300443Y-21327153D02*
G75*
G03*
X39100443Y-20527146I-3J800003D01*
G01*
X15900447Y-8353350D02*
X15900447Y-8199280D01*
X30775522Y-21327146D02*
X38300443Y-21327146D01*
X3898120Y-21004129D02*
X17356673Y-21456592D01*
X26357312Y-9419529D02*
X23791262Y-9554010D01*
X18363955Y-8986398D02*
G75*
G03*
X17731254Y-8954899I-363515J-931592D01*
G01*
X11154839Y-7058803D02*
G75*
G03*
X11109847Y-7045667I-1309299J-4400897D01*
G01*
X3124999Y-20204581D02*
G75*
G03*
X3898120Y-21004129I800001J1D01*
G01*
D11*
X18160000Y-9975998D02*
G75*
G03*
X18160000Y-9975998I-160000J0D01*
G01*
D10*
X20679255Y-21422625D02*
X30365055Y-20915014D01*
X22198842Y-9056904D02*
G75*
G03*
X21478428Y-9400612I-273322J-353966D01*
G01*
X39100447Y-9904800D02*
G75*
G03*
X39194561Y-10162552I399983J-10D01*
G01*
X39100443Y-9417986D02*
X39100443Y-7317986D01*
X28969052Y-7755174D02*
G75*
G03*
X29008024Y-7711987I-10971512J9939814D01*
G01*
X11109847Y-7045666D02*
G75*
G03*
X10779416Y-6999277I-330427J-1153614D01*
G01*
X10779416Y-6999277D02*
X4325000Y-6999277D01*
X27490125Y-8471358D02*
G75*
G03*
X28634478Y-8013571I-1708575J5930188D01*
G01*
X39100444Y-7317986D02*
G75*
G03*
X37900443Y-6117986I-1200004J-4D01*
G01*
X28634478Y-8013572D02*
G75*
G03*
X28969052Y-7755174I-554718J1064052D01*
G01*
X15900447Y-8199277D02*
G75*
G03*
X14100443Y-7117986I-1232983J-13662D01*
G01*
D11*
X4084557Y-20262592D02*
G75*
G03*
X4084557Y-20262592I-160000J0D01*
G01*
D10*
X17928748Y-21623943D02*
G75*
G03*
X17356673Y-21456593I-612398J-1031967D01*
G01*
X30444295Y-5888761D02*
G75*
G03*
X31467880Y-6117986I1023595J2170801D01*
G01*
D11*
X19160000Y-21600000D02*
G75*
G03*
X19160000Y-21600000I-160000J0D01*
G01*
X29042027Y-8919158D02*
G75*
G03*
X29042027Y-8919158I-160000J0D01*
G01*
X19160000Y-12575000D02*
G75*
G03*
X19160000Y-12575000I-160000J0D01*
G01*
X19160000Y-17775998D02*
G75*
G03*
X19160000Y-17775998I-160000J0D01*
G01*
D10*
X27490124Y-8471355D02*
G75*
G03*
X26888305Y-9029426I252266J-875575D01*
G01*
X30444294Y-5888762D02*
G75*
G03*
X29302792Y-6735256I-343850J-729224D01*
G01*
X16231206Y-8889551D02*
G75*
G03*
X17731254Y-8954899I850644J2277051D01*
G01*
D11*
X8620380Y-7482289D02*
G75*
G03*
X8620380Y-7482289I-160000J0D01*
G01*
X4084557Y-12408012D02*
G75*
G03*
X4084557Y-12408012I-160000J0D01*
G01*
X37360000Y-9786612D02*
G75*
G03*
X37360000Y-9786612I-160000J0D01*
G01*
D10*
X30575520Y-21114739D02*
G75*
G03*
X30365055Y-20915014I-200000J-1D01*
G01*
X30575522Y-21114739D02*
X30575522Y-21127146D01*
X4325000Y-6999277D02*
G75*
G03*
X3125000Y-8199277I0J-1200000D01*
G01*
X39100443Y-9904800D02*
X39100443Y-9417986D01*
X11745168Y-7453717D02*
G75*
G03*
X13511156Y-7561773I932512J755258D01*
G01*
X37900443Y-6117986D02*
X31467880Y-6117986D01*
X29008027Y-7711989D02*
G75*
G03*
X29302792Y-6735256I-892467J802179D01*
G01*
X11745164Y-7453721D02*
G75*
G03*
X11154839Y-7058803I-932514J-755259D01*
G01*
X26357312Y-9419531D02*
G75*
G03*
X26888305Y-9029426I-31412J599191D01*
G01*
X17928749Y-21623941D02*
G75*
G03*
X20108744Y-21601710I1071694J1805955D01*
G01*
X39100443Y-20527146D02*
X39100443Y-12095690D01*
X20679255Y-21422624D02*
G75*
G03*
X20108744Y-21601710I62805J-1198356D01*
G01*
D11*
X38560000Y-20585157D02*
G75*
G03*
X38560000Y-20585157I-160000J0D01*
G01*
D10*
X39194561Y-11837938D02*
G75*
G03*
X39194561Y-10162552I-994115J837693D01*
G01*
X30575514Y-21127146D02*
G75*
G03*
X30775522Y-21327146I200006J6D01*
G01*
X21094136Y-9473598D02*
G75*
G03*
X18946926Y-8903756I-1293693J-544388D01*
G01*
D11*
D12*
X20002114Y-20160000D02*
X20022114Y-20180000D01*
X20022114Y-20160000D02*
X20002114Y-20180000D01*
X20071057Y-20091057D02*
X20091057Y-20111057D01*
X20091057Y-20091057D02*
X20071057Y-20111057D01*
X20071057Y-20228943D02*
X20091057Y-20248943D01*
X20091057Y-20228943D02*
X20071057Y-20248943D01*
X20140000Y-20022114D02*
X20160000Y-20042114D01*
X20160000Y-20022114D02*
X20140000Y-20042114D01*
X20140000Y-20160000D02*
X20160000Y-20180000D01*
X20160000Y-20160000D02*
X20140000Y-20180000D01*
X20140000Y-20297886D02*
X20160000Y-20317886D01*
X20160000Y-20297886D02*
X20140000Y-20317886D01*
X20208943Y-20091057D02*
X20228943Y-20111057D01*
X20228943Y-20091057D02*
X20208943Y-20111057D01*
X20208943Y-20228943D02*
X20228943Y-20248943D01*
X20228943Y-20228943D02*
X20208943Y-20248943D01*
X20277886Y-20160000D02*
X20297886Y-20180000D01*
X20297886Y-20160000D02*
X20277886Y-20180000D01*
X30542500Y-8852500D02*
X30562500Y-8872500D01*
X30562500Y-8852500D02*
X30542500Y-8872500D01*
X30542500Y-8950000D02*
X30562500Y-8970000D01*
X30562500Y-8950000D02*
X30542500Y-8970000D01*
X30542500Y-9047500D02*
X30562500Y-9067500D01*
X30562500Y-9047500D02*
X30542500Y-9067500D01*
X30640000Y-8852500D02*
X30660000Y-8872500D01*
X30660000Y-8852500D02*
X30640000Y-8872500D01*
X30640000Y-8950000D02*
X30660000Y-8970000D01*
X30660000Y-8950000D02*
X30640000Y-8970000D01*
X30640000Y-9047500D02*
X30660000Y-9067500D01*
X30660000Y-9047500D02*
X30640000Y-9067500D01*
X30737500Y-8852500D02*
X30757500Y-8872500D01*
X30757500Y-8852500D02*
X30737500Y-8872500D01*
X30737500Y-8950000D02*
X30757500Y-8970000D01*
X30757500Y-8950000D02*
X30737500Y-8970000D01*
X30737500Y-9047500D02*
X30757500Y-9067500D01*
X30757500Y-9047500D02*
X30737500Y-9067500D01*
D13*
X4195000Y-18600000D02*
G75*
G03*
X4195000Y-18600000I-15000J0D01*
G01*
X4509557Y-18718516D02*
G75*
G03*
X4509557Y-18718516I-15000J0D01*
G01*
X4515000Y-8294107D02*
G75*
G03*
X4515000Y-8294107I-15000J0D01*
G01*
X4515000Y-11400000D02*
G75*
G03*
X4515000Y-11400000I-15000J0D01*
G01*
X4565000Y-8034107D02*
G75*
G03*
X4565000Y-8034107I-15000J0D01*
G01*
X4565000Y-8154107D02*
G75*
G03*
X4565000Y-8154107I-15000J0D01*
G01*
X4575000Y-7664107D02*
G75*
G03*
X4575000Y-7664107I-15000J0D01*
G01*
X4575000Y-7784107D02*
G75*
G03*
X4575000Y-7784107I-15000J0D01*
G01*
X4575000Y-7904107D02*
G75*
G03*
X4575000Y-7904107I-15000J0D01*
G01*
X4635000Y-9690000D02*
G75*
G03*
X4635000Y-9690000I-15000J0D01*
G01*
X4665000Y-9600000D02*
G75*
G03*
X4665000Y-9600000I-15000J0D01*
G01*
X4765000Y-11252500D02*
G75*
G03*
X4765000Y-11252500I-15000J0D01*
G01*
X4875000Y-11780000D02*
G75*
G03*
X4875000Y-11780000I-15000J0D01*
G01*
X4890000Y-7525000D02*
G75*
G03*
X4890000Y-7525000I-15000J0D01*
G01*
X4940000Y-9249107D02*
G75*
G03*
X4940000Y-9249107I-15000J0D01*
G01*
X4940000Y-9349107D02*
G75*
G03*
X4940000Y-9349107I-15000J0D01*
G01*
X4940000Y-9449107D02*
G75*
G03*
X4940000Y-9449107I-15000J0D01*
G01*
X5015000Y-8540000D02*
G75*
G03*
X5015000Y-8540000I-15000J0D01*
G01*
X5090000Y-9225000D02*
G75*
G03*
X5090000Y-9225000I-15000J0D01*
G01*
X5175000Y-12230000D02*
G75*
G03*
X5175000Y-12230000I-15000J0D01*
G01*
X5255000Y-18940000D02*
G75*
G03*
X5255000Y-18940000I-15000J0D01*
G01*
X5315000Y-7425000D02*
G75*
G03*
X5315000Y-7425000I-15000J0D01*
G01*
X5315000Y-11800000D02*
G75*
G03*
X5315000Y-11800000I-15000J0D01*
G01*
X5345000Y-17550000D02*
G75*
G03*
X5345000Y-17550000I-15000J0D01*
G01*
X5495000Y-11380000D02*
G75*
G03*
X5495000Y-11380000I-15000J0D01*
G01*
X5515000Y-9225000D02*
G75*
G03*
X5515000Y-9225000I-15000J0D01*
G01*
X5585000Y-13940000D02*
G75*
G03*
X5585000Y-13940000I-15000J0D01*
G01*
X5585000Y-15810000D02*
G75*
G03*
X5585000Y-15810000I-15000J0D01*
G01*
X5745000Y-15890000D02*
G75*
G03*
X5745000Y-15890000I-15000J0D01*
G01*
X5805000Y-14020000D02*
G75*
G03*
X5805000Y-14020000I-15000J0D01*
G01*
X5865000Y-12740000D02*
G75*
G03*
X5865000Y-12740000I-15000J0D01*
G01*
X5940000Y-11160000D02*
G75*
G03*
X5940000Y-11160000I-15000J0D01*
G01*
X5955000Y-12140000D02*
G75*
G03*
X5955000Y-12140000I-15000J0D01*
G01*
X5965000Y-9700000D02*
G75*
G03*
X5965000Y-9700000I-15000J0D01*
G01*
X5995727Y-18540000D02*
G75*
G03*
X5995727Y-18540000I-15000J0D01*
G01*
X5999142Y-14350000D02*
G75*
G03*
X5999142Y-14350000I-15000J0D01*
G01*
X6015000Y-18160000D02*
G75*
G03*
X6015000Y-18160000I-15000J0D01*
G01*
X6035000Y-15600000D02*
G75*
G03*
X6035000Y-15600000I-15000J0D01*
G01*
X6045000Y-9780000D02*
G75*
G03*
X6045000Y-9780000I-15000J0D01*
G01*
X6055000Y-10140000D02*
G75*
G03*
X6055000Y-10140000I-15000J0D01*
G01*
X6055000Y-10560000D02*
G75*
G03*
X6055000Y-10560000I-15000J0D01*
G01*
X6135000Y-12460000D02*
G75*
G03*
X6135000Y-12460000I-15000J0D01*
G01*
X6135000Y-17790000D02*
G75*
G03*
X6135000Y-17790000I-15000J0D01*
G01*
X6140000Y-11850000D02*
G75*
G03*
X6140000Y-11850000I-15000J0D01*
G01*
X6195000Y-14340000D02*
G75*
G03*
X6195000Y-14340000I-15000J0D01*
G01*
X6215000Y-10560000D02*
G75*
G03*
X6215000Y-10560000I-15000J0D01*
G01*
X6255000Y-13720000D02*
G75*
G03*
X6255000Y-13720000I-15000J0D01*
G01*
X6255000Y-18160000D02*
G75*
G03*
X6255000Y-18160000I-15000J0D01*
G01*
X6365000Y-12025000D02*
G75*
G03*
X6365000Y-12025000I-15000J0D01*
G01*
X6390000Y-10149916D02*
G75*
G03*
X6390000Y-10149916I-15000J0D01*
G01*
X6455000Y-16260000D02*
G75*
G03*
X6455000Y-16260000I-15000J0D01*
G01*
X6457427Y-15665761D02*
G75*
G03*
X6457427Y-15665761I-15000J0D01*
G01*
X6495000Y-10560000D02*
G75*
G03*
X6495000Y-10560000I-15000J0D01*
G01*
X6515000Y-17520000D02*
G75*
G03*
X6515000Y-17520000I-15000J0D01*
G01*
X6515000Y-18160000D02*
G75*
G03*
X6515000Y-18160000I-15000J0D01*
G01*
X6515000Y-19820000D02*
G75*
G03*
X6515000Y-19820000I-15000J0D01*
G01*
X6535000Y-18540000D02*
G75*
G03*
X6535000Y-18540000I-15000J0D01*
G01*
X6695557Y-13760976D02*
G75*
G03*
X6695557Y-13760976I-15000J0D01*
G01*
X6715000Y-16260000D02*
G75*
G03*
X6715000Y-16260000I-15000J0D01*
G01*
X6824882Y-11707232D02*
G75*
G03*
X6824882Y-11707232I-15000J0D01*
G01*
X6915000Y-18520000D02*
G75*
G03*
X6915000Y-18520000I-15000J0D01*
G01*
X6933677Y-19915475D02*
G75*
G03*
X6933677Y-19915475I-15000J0D01*
G01*
X6955000Y-10560000D02*
G75*
G03*
X6955000Y-10560000I-15000J0D01*
G01*
X6960000Y-17575000D02*
G75*
G03*
X6960000Y-17575000I-15000J0D01*
G01*
X7115000Y-9280000D02*
G75*
G03*
X7115000Y-9280000I-15000J0D01*
G01*
X7135001Y-15820001D02*
G75*
G03*
X7135001Y-15820001I-15000J0D01*
G01*
X7171807Y-11855796D02*
G75*
G03*
X7171807Y-11855796I-15000J0D01*
G01*
X7275000Y-14360000D02*
G75*
G03*
X7275000Y-14360000I-15000J0D01*
G01*
X7335000Y-10560000D02*
G75*
G03*
X7335000Y-10560000I-15000J0D01*
G01*
X7340000Y-12450000D02*
G75*
G03*
X7340000Y-12450000I-15000J0D01*
G01*
X7375000Y-13900000D02*
G75*
G03*
X7375000Y-13900000I-15000J0D01*
G01*
X7395000Y-9720000D02*
G75*
G03*
X7395000Y-9720000I-15000J0D01*
G01*
X7440000Y-14975000D02*
G75*
G03*
X7440000Y-14975000I-15000J0D01*
G01*
X7475000Y-14340000D02*
G75*
G03*
X7475000Y-14340000I-15000J0D01*
G01*
X7555000Y-10560000D02*
G75*
G03*
X7555000Y-10560000I-15000J0D01*
G01*
X7584923Y-17711048D02*
G75*
G03*
X7584923Y-17711048I-15000J0D01*
G01*
X7635000Y-20040000D02*
G75*
G03*
X7635000Y-20040000I-15000J0D01*
G01*
X7665000Y-13075000D02*
G75*
G03*
X7665000Y-13075000I-15000J0D01*
G01*
X7687188Y-18173314D02*
G75*
G03*
X7687188Y-18173314I-15000J0D01*
G01*
X7726250Y-9660000D02*
G75*
G03*
X7726250Y-9660000I-15000J0D01*
G01*
X7875000Y-10140000D02*
G75*
G03*
X7875000Y-10140000I-15000J0D01*
G01*
X7888008Y-12000483D02*
G75*
G03*
X7888008Y-12000483I-15000J0D01*
G01*
X7890000Y-19200000D02*
G75*
G03*
X7890000Y-19200000I-15000J0D01*
G01*
X7965000Y-16950000D02*
G75*
G03*
X7965000Y-16950000I-15000J0D01*
G01*
X8215000Y-8700000D02*
G75*
G03*
X8215000Y-8700000I-15000J0D01*
G01*
X8215000Y-11200000D02*
G75*
G03*
X8215000Y-11200000I-15000J0D01*
G01*
X8255000Y-18180000D02*
G75*
G03*
X8255000Y-18180000I-15000J0D01*
G01*
X8635000Y-18200000D02*
G75*
G03*
X8635000Y-18200000I-15000J0D01*
G01*
X8735000Y-14372835D02*
G75*
G03*
X8735000Y-14372835I-15000J0D01*
G01*
X8735000Y-17440000D02*
G75*
G03*
X8735000Y-17440000I-15000J0D01*
G01*
X8835000Y-16280000D02*
G75*
G03*
X8835000Y-16280000I-15000J0D01*
G01*
X8875000Y-10620000D02*
G75*
G03*
X8875000Y-10620000I-15000J0D01*
G01*
X8875000Y-18580000D02*
G75*
G03*
X8875000Y-18580000I-15000J0D01*
G01*
X8895000Y-15640000D02*
G75*
G03*
X8895000Y-15640000I-15000J0D01*
G01*
X8955000Y-19880000D02*
G75*
G03*
X8955000Y-19880000I-15000J0D01*
G01*
X9015000Y-18180000D02*
G75*
G03*
X9015000Y-18180000I-15000J0D01*
G01*
X9055000Y-9320000D02*
G75*
G03*
X9055000Y-9320000I-15000J0D01*
G01*
X9095000Y-13640000D02*
G75*
G03*
X9095000Y-13640000I-15000J0D01*
G01*
X9175000Y-11740000D02*
G75*
G03*
X9175000Y-11740000I-15000J0D01*
G01*
X9195000Y-10620000D02*
G75*
G03*
X9195000Y-10620000I-15000J0D01*
G01*
X9209337Y-17624403D02*
G75*
G03*
X9209337Y-17624403I-15000J0D01*
G01*
X9215000Y-12500000D02*
G75*
G03*
X9215000Y-12500000I-15000J0D01*
G01*
X9215000Y-14380000D02*
G75*
G03*
X9215000Y-14380000I-15000J0D01*
G01*
X9255000Y-9740000D02*
G75*
G03*
X9255000Y-9740000I-15000J0D01*
G01*
X9309037Y-15722014D02*
G75*
G03*
X9309037Y-15722014I-15000J0D01*
G01*
X9379723Y-19974814D02*
G75*
G03*
X9379723Y-19974814I-15000J0D01*
G01*
X9408737Y-13819625D02*
G75*
G03*
X9408737Y-13819625I-15000J0D01*
G01*
X9415000Y-16318959D02*
G75*
G03*
X9415000Y-16318959I-15000J0D01*
G01*
X9508437Y-11917235D02*
G75*
G03*
X9508437Y-11917235I-15000J0D01*
G01*
X9515000Y-10240000D02*
G75*
G03*
X9515000Y-10240000I-15000J0D01*
G01*
X9595000Y-14417906D02*
G75*
G03*
X9595000Y-14417906I-15000J0D01*
G01*
X9615000Y-12525000D02*
G75*
G03*
X9615000Y-12525000I-15000J0D01*
G01*
X9626250Y-9660000D02*
G75*
G03*
X9626250Y-9660000I-15000J0D01*
G01*
X9850945Y-17782813D02*
G75*
G03*
X9850945Y-17782813I-15000J0D01*
G01*
X9953211Y-18245079D02*
G75*
G03*
X9953211Y-18245079I-15000J0D01*
G01*
X9986043Y-15845978D02*
G75*
G03*
X9986043Y-15845978I-15000J0D01*
G01*
X10095000Y-13980000D02*
G75*
G03*
X10095000Y-13980000I-15000J0D01*
G01*
X10135000Y-20220000D02*
G75*
G03*
X10135000Y-20220000I-15000J0D01*
G01*
X10140000Y-8725000D02*
G75*
G03*
X10140000Y-8725000I-15000J0D01*
G01*
X10195000Y-14440000D02*
G75*
G03*
X10195000Y-14440000I-15000J0D01*
G01*
X10215000Y-12080000D02*
G75*
G03*
X10215000Y-12080000I-15000J0D01*
G01*
X10215000Y-16950000D02*
G75*
G03*
X10215000Y-16950000I-15000J0D01*
G01*
X10365000Y-15100000D02*
G75*
G03*
X10365000Y-15100000I-15000J0D01*
G01*
X10440000Y-13200000D02*
G75*
G03*
X10440000Y-13200000I-15000J0D01*
G01*
X10440000Y-19350000D02*
G75*
G03*
X10440000Y-19350000I-15000J0D01*
G01*
X10475000Y-8800000D02*
G75*
G03*
X10475000Y-8800000I-15000J0D01*
G01*
X10535000Y-10701501D02*
G75*
G03*
X10535000Y-10701501I-15000J0D01*
G01*
X10575000Y-18280000D02*
G75*
G03*
X10575000Y-18280000I-15000J0D01*
G01*
X10590000Y-11325000D02*
G75*
G03*
X10590000Y-11325000I-15000J0D01*
G01*
X10675000Y-10550000D02*
G75*
G03*
X10675000Y-10550000I-15000J0D01*
G01*
X10675000Y-10720000D02*
G75*
G03*
X10675000Y-10720000I-15000J0D01*
G01*
X10675000Y-17600000D02*
G75*
G03*
X10675000Y-17600000I-15000J0D01*
G01*
X10795000Y-14500000D02*
G75*
G03*
X10795000Y-14500000I-15000J0D01*
G01*
X10795000Y-16380000D02*
G75*
G03*
X10795000Y-16380000I-15000J0D01*
G01*
X10835000Y-10890000D02*
G75*
G03*
X10835000Y-10890000I-15000J0D01*
G01*
X10888432Y-15645678D02*
G75*
G03*
X10888432Y-15645678I-15000J0D01*
G01*
X10895000Y-13800000D02*
G75*
G03*
X10895000Y-13800000I-15000J0D01*
G01*
X10915000Y-18280000D02*
G75*
G03*
X10915000Y-18280000I-15000J0D01*
G01*
X10979766Y-10111805D02*
G75*
G03*
X10979766Y-10111805I-15000J0D01*
G01*
X11025000Y-10026570D02*
G75*
G03*
X11025000Y-10026570I-15000J0D01*
G01*
X11045000Y-10216570D02*
G75*
G03*
X11045000Y-10216570I-15000J0D01*
G01*
X11087832Y-11840900D02*
G75*
G03*
X11087832Y-11840900I-15000J0D01*
G01*
X11095000Y-9976570D02*
G75*
G03*
X11095000Y-9976570I-15000J0D01*
G01*
X11095000Y-12600000D02*
G75*
G03*
X11095000Y-12600000I-15000J0D01*
G01*
X11111726Y-17724103D02*
G75*
G03*
X11111726Y-17724103I-15000J0D01*
G01*
X11115000Y-14480000D02*
G75*
G03*
X11115000Y-14480000I-15000J0D01*
G01*
X11135000Y-10500000D02*
G75*
G03*
X11135000Y-10500000I-15000J0D01*
G01*
X11135000Y-18320000D02*
G75*
G03*
X11135000Y-18320000I-15000J0D01*
G01*
X11211426Y-15821714D02*
G75*
G03*
X11211426Y-15821714I-15000J0D01*
G01*
X11311126Y-13919325D02*
G75*
G03*
X11311126Y-13919325I-15000J0D01*
G01*
X11335000Y-10512550D02*
G75*
G03*
X11335000Y-10512550I-15000J0D01*
G01*
X11355000Y-16420000D02*
G75*
G03*
X11355000Y-16420000I-15000J0D01*
G01*
X11375000Y-18700000D02*
G75*
G03*
X11375000Y-18700000I-15000J0D01*
G01*
X11410826Y-12016935D02*
G75*
G03*
X11410826Y-12016935I-15000J0D01*
G01*
X11415000Y-19980000D02*
G75*
G03*
X11415000Y-19980000I-15000J0D01*
G01*
X11475000Y-10510000D02*
G75*
G03*
X11475000Y-10510000I-15000J0D01*
G01*
X11615000Y-8906250D02*
G75*
G03*
X11615000Y-8906250I-15000J0D01*
G01*
X11640000Y-12625000D02*
G75*
G03*
X11640000Y-12625000I-15000J0D01*
G01*
X11753334Y-17882513D02*
G75*
G03*
X11753334Y-17882513I-15000J0D01*
G01*
X11855600Y-18344779D02*
G75*
G03*
X11855600Y-18344779I-15000J0D01*
G01*
X11859514Y-20059578D02*
G75*
G03*
X11859514Y-20059578I-15000J0D01*
G01*
X11888432Y-15945678D02*
G75*
G03*
X11888432Y-15945678I-15000J0D01*
G01*
X11952734Y-14077734D02*
G75*
G03*
X11952734Y-14077734I-15000J0D01*
G01*
X12055000Y-14540000D02*
G75*
G03*
X12055000Y-14540000I-15000J0D01*
G01*
X12087832Y-12140900D02*
G75*
G03*
X12087832Y-12140900I-15000J0D01*
G01*
X12139999Y-17074999D02*
G75*
G03*
X12139999Y-17074999I-15000J0D01*
G01*
X12240000Y-15175000D02*
G75*
G03*
X12240000Y-15175000I-15000J0D01*
G01*
X12315000Y-13300000D02*
G75*
G03*
X12315000Y-13300000I-15000J0D01*
G01*
X12465000Y-11400000D02*
G75*
G03*
X12465000Y-11400000I-15000J0D01*
G01*
X12595000Y-17700000D02*
G75*
G03*
X12595000Y-17700000I-15000J0D01*
G01*
X12595000Y-20180000D02*
G75*
G03*
X12595000Y-20180000I-15000J0D01*
G01*
X12715000Y-15820000D02*
G75*
G03*
X12715000Y-15820000I-15000J0D01*
G01*
X12755000Y-14580000D02*
G75*
G03*
X12755000Y-14580000I-15000J0D01*
G01*
X12795000Y-16480000D02*
G75*
G03*
X12795000Y-16480000I-15000J0D01*
G01*
X12815000Y-18380000D02*
G75*
G03*
X12815000Y-18380000I-15000J0D01*
G01*
X12890000Y-19450000D02*
G75*
G03*
X12890000Y-19450000I-15000J0D01*
G01*
X12895000Y-13840000D02*
G75*
G03*
X12895000Y-13840000I-15000J0D01*
G01*
X12955000Y-12700000D02*
G75*
G03*
X12955000Y-12700000I-15000J0D01*
G01*
X12990221Y-11940600D02*
G75*
G03*
X12990221Y-11940600I-15000J0D01*
G01*
X13014116Y-17823803D02*
G75*
G03*
X13014116Y-17823803I-15000J0D01*
G01*
X13015000Y-14580000D02*
G75*
G03*
X13015000Y-14580000I-15000J0D01*
G01*
X13113816Y-15921414D02*
G75*
G03*
X13113816Y-15921414I-15000J0D01*
G01*
X13155000Y-18420000D02*
G75*
G03*
X13155000Y-18420000I-15000J0D01*
G01*
X13213516Y-14019025D02*
G75*
G03*
X13213516Y-14019025I-15000J0D01*
G01*
X13235000Y-16500000D02*
G75*
G03*
X13235000Y-16500000I-15000J0D01*
G01*
X13313216Y-12116635D02*
G75*
G03*
X13313216Y-12116635I-15000J0D01*
G01*
X13355000Y-14620000D02*
G75*
G03*
X13355000Y-14620000I-15000J0D01*
G01*
X13515000Y-12725000D02*
G75*
G03*
X13515000Y-12725000I-15000J0D01*
G01*
X13655724Y-17982213D02*
G75*
G03*
X13655724Y-17982213I-15000J0D01*
G01*
X13757989Y-18444479D02*
G75*
G03*
X13757989Y-18444479I-15000J0D01*
G01*
X13790821Y-16045378D02*
G75*
G03*
X13790821Y-16045378I-15000J0D01*
G01*
X13855124Y-14177434D02*
G75*
G03*
X13855124Y-14177434I-15000J0D01*
G01*
X13957389Y-14639700D02*
G75*
G03*
X13957389Y-14639700I-15000J0D01*
G01*
X13990221Y-12240600D02*
G75*
G03*
X13990221Y-12240600I-15000J0D01*
G01*
X14042389Y-17174699D02*
G75*
G03*
X14042389Y-17174699I-15000J0D01*
G01*
X14142389Y-15274700D02*
G75*
G03*
X14142389Y-15274700I-15000J0D01*
G01*
X14217389Y-13399700D02*
G75*
G03*
X14217389Y-13399700I-15000J0D01*
G01*
X14367389Y-11499700D02*
G75*
G03*
X14367389Y-11499700I-15000J0D01*
G01*
X14495000Y-17820000D02*
G75*
G03*
X14495000Y-17820000I-15000J0D01*
G01*
X14693211Y-15845078D02*
G75*
G03*
X14693211Y-15845078I-15000J0D01*
G01*
X14695000Y-14700000D02*
G75*
G03*
X14695000Y-14700000I-15000J0D01*
G01*
X14695000Y-16600000D02*
G75*
G03*
X14695000Y-16600000I-15000J0D01*
G01*
X14715000Y-18480000D02*
G75*
G03*
X14715000Y-18480000I-15000J0D01*
G01*
X14795000Y-13940000D02*
G75*
G03*
X14795000Y-13940000I-15000J0D01*
G01*
X14892611Y-12040300D02*
G75*
G03*
X14892611Y-12040300I-15000J0D01*
G01*
X14915000Y-14680000D02*
G75*
G03*
X14915000Y-14680000I-15000J0D01*
G01*
X14916505Y-17923503D02*
G75*
G03*
X14916505Y-17923503I-15000J0D01*
G01*
X14935000Y-16608250D02*
G75*
G03*
X14935000Y-16608250I-15000J0D01*
G01*
X14995000Y-12800084D02*
G75*
G03*
X14995000Y-12800084I-15000J0D01*
G01*
X15016205Y-16021114D02*
G75*
G03*
X15016205Y-16021114I-15000J0D01*
G01*
X15095000Y-18520000D02*
G75*
G03*
X15095000Y-18520000I-15000J0D01*
G01*
X15105085Y-20014960D02*
G75*
G03*
X15105085Y-20014960I-15000J0D01*
G01*
X15115905Y-14118725D02*
G75*
G03*
X15115905Y-14118725I-15000J0D01*
G01*
X15215605Y-12216335D02*
G75*
G03*
X15215605Y-12216335I-15000J0D01*
G01*
X15235000Y-18740000D02*
G75*
G03*
X15235000Y-18740000I-15000J0D01*
G01*
X15315000Y-12800000D02*
G75*
G03*
X15315000Y-12800000I-15000J0D01*
G01*
X15433652Y-20158093D02*
G75*
G03*
X15433652Y-20158093I-15000J0D01*
G01*
X15465000Y-18550000D02*
G75*
G03*
X15465000Y-18550000I-15000J0D01*
G01*
X15558113Y-18081913D02*
G75*
G03*
X15558113Y-18081913I-15000J0D01*
G01*
X15660378Y-18544179D02*
G75*
G03*
X15660378Y-18544179I-15000J0D01*
G01*
X15693211Y-16145078D02*
G75*
G03*
X15693211Y-16145078I-15000J0D01*
G01*
X15757513Y-14277134D02*
G75*
G03*
X15757513Y-14277134I-15000J0D01*
G01*
X15859778Y-14739400D02*
G75*
G03*
X15859778Y-14739400I-15000J0D01*
G01*
X15892611Y-12340300D02*
G75*
G03*
X15892611Y-12340300I-15000J0D01*
G01*
X15944778Y-17274399D02*
G75*
G03*
X15944778Y-17274399I-15000J0D01*
G01*
X16044778Y-15374400D02*
G75*
G03*
X16044778Y-15374400I-15000J0D01*
G01*
X16090000Y-14750000D02*
G75*
G03*
X16090000Y-14750000I-15000J0D01*
G01*
X16119778Y-13499400D02*
G75*
G03*
X16119778Y-13499400I-15000J0D01*
G01*
X16125085Y-20314960D02*
G75*
G03*
X16125085Y-20314960I-15000J0D01*
G01*
X16269778Y-11599400D02*
G75*
G03*
X16269778Y-11599400I-15000J0D01*
G01*
X16490085Y-19519960D02*
G75*
G03*
X16490085Y-19519960I-15000J0D01*
G01*
X16495000Y-17865000D02*
G75*
G03*
X16495000Y-17865000I-15000J0D01*
G01*
X16515000Y-16000000D02*
G75*
G03*
X16515000Y-16000000I-15000J0D01*
G01*
X16555000Y-14780000D02*
G75*
G03*
X16555000Y-14780000I-15000J0D01*
G01*
X16595000Y-16680000D02*
G75*
G03*
X16595000Y-16680000I-15000J0D01*
G01*
X16615000Y-18605000D02*
G75*
G03*
X16615000Y-18605000I-15000J0D01*
G01*
X16695000Y-14040000D02*
G75*
G03*
X16695000Y-14040000I-15000J0D01*
G01*
X16795000Y-12140000D02*
G75*
G03*
X16795000Y-12140000I-15000J0D01*
G01*
X16815000Y-14780000D02*
G75*
G03*
X16815000Y-14780000I-15000J0D01*
G01*
X16815000Y-16706776D02*
G75*
G03*
X16815000Y-16706776I-15000J0D01*
G01*
X16818894Y-18023203D02*
G75*
G03*
X16818894Y-18023203I-15000J0D01*
G01*
X16895000Y-12900000D02*
G75*
G03*
X16895000Y-12900000I-15000J0D01*
G01*
X16918594Y-16120814D02*
G75*
G03*
X16918594Y-16120814I-15000J0D01*
G01*
X17018294Y-14218425D02*
G75*
G03*
X17018294Y-14218425I-15000J0D01*
G01*
X17117994Y-12316035D02*
G75*
G03*
X17117994Y-12316035I-15000J0D01*
G01*
X17235000Y-14820000D02*
G75*
G03*
X17235000Y-14820000I-15000J0D01*
G01*
X17290000Y-12925000D02*
G75*
G03*
X17290000Y-12925000I-15000J0D01*
G01*
X17460502Y-18181613D02*
G75*
G03*
X17460502Y-18181613I-15000J0D01*
G01*
X17562768Y-18643879D02*
G75*
G03*
X17562768Y-18643879I-15000J0D01*
G01*
X17595600Y-16244779D02*
G75*
G03*
X17595600Y-16244779I-15000J0D01*
G01*
X17659902Y-14376834D02*
G75*
G03*
X17659902Y-14376834I-15000J0D01*
G01*
X17695000Y-18860000D02*
G75*
G03*
X17695000Y-18860000I-15000J0D01*
G01*
X17762168Y-14839100D02*
G75*
G03*
X17762168Y-14839100I-15000J0D01*
G01*
X17795000Y-12440000D02*
G75*
G03*
X17795000Y-12440000I-15000J0D01*
G01*
X17847167Y-17374099D02*
G75*
G03*
X17847167Y-17374099I-15000J0D01*
G01*
X17925000Y-18880000D02*
G75*
G03*
X17925000Y-18880000I-15000J0D01*
G01*
X17947168Y-15474100D02*
G75*
G03*
X17947168Y-15474100I-15000J0D01*
G01*
X18022168Y-13599100D02*
G75*
G03*
X18022168Y-13599100I-15000J0D01*
G01*
X18172168Y-11699100D02*
G75*
G03*
X18172168Y-11699100I-15000J0D01*
G01*
X18285000Y-18790000D02*
G75*
G03*
X18285000Y-18790000I-15000J0D01*
G01*
X18415000Y-19390000D02*
G75*
G03*
X18415000Y-19390000I-15000J0D01*
G01*
X18665000Y-12250000D02*
G75*
G03*
X18665000Y-12250000I-15000J0D01*
G01*
X18665000Y-20070000D02*
G75*
G03*
X18665000Y-20070000I-15000J0D01*
G01*
X18675000Y-14200000D02*
G75*
G03*
X18675000Y-14200000I-15000J0D01*
G01*
X18675000Y-16100000D02*
G75*
G03*
X18675000Y-16100000I-15000J0D01*
G01*
X18835000Y-20130000D02*
G75*
G03*
X18835000Y-20130000I-15000J0D01*
G01*
X18845000Y-11160000D02*
G75*
G03*
X18845000Y-11160000I-15000J0D01*
G01*
X18845000Y-11280000D02*
G75*
G03*
X18845000Y-11280000I-15000J0D01*
G01*
X18845000Y-13020000D02*
G75*
G03*
X18845000Y-13020000I-15000J0D01*
G01*
X18845000Y-13140000D02*
G75*
G03*
X18845000Y-13140000I-15000J0D01*
G01*
X18845000Y-14990000D02*
G75*
G03*
X18845000Y-14990000I-15000J0D01*
G01*
X18845000Y-15110000D02*
G75*
G03*
X18845000Y-15110000I-15000J0D01*
G01*
X18845000Y-16840000D02*
G75*
G03*
X18845000Y-16840000I-15000J0D01*
G01*
X18845000Y-16960000D02*
G75*
G03*
X18845000Y-16960000I-15000J0D01*
G01*
X18845000Y-18750000D02*
G75*
G03*
X18845000Y-18750000I-15000J0D01*
G01*
X18845000Y-18870000D02*
G75*
G03*
X18845000Y-18870000I-15000J0D01*
G01*
X19015000Y-11760000D02*
G75*
G03*
X19015000Y-11760000I-15000J0D01*
G01*
X19015000Y-12210000D02*
G75*
G03*
X19015000Y-12210000I-15000J0D01*
G01*
X19015000Y-14080000D02*
G75*
G03*
X19015000Y-14080000I-15000J0D01*
G01*
X19015000Y-15980000D02*
G75*
G03*
X19015000Y-15980000I-15000J0D01*
G01*
X19085000Y-11010000D02*
G75*
G03*
X19085000Y-11010000I-15000J0D01*
G01*
X19185000Y-11160000D02*
G75*
G03*
X19185000Y-11160000I-15000J0D01*
G01*
X19185000Y-11280000D02*
G75*
G03*
X19185000Y-11280000I-15000J0D01*
G01*
X19185000Y-13090000D02*
G75*
G03*
X19185000Y-13090000I-15000J0D01*
G01*
X19185000Y-13210000D02*
G75*
G03*
X19185000Y-13210000I-15000J0D01*
G01*
X19185000Y-14990000D02*
G75*
G03*
X19185000Y-14990000I-15000J0D01*
G01*
X19185000Y-15110000D02*
G75*
G03*
X19185000Y-15110000I-15000J0D01*
G01*
X19185000Y-16910000D02*
G75*
G03*
X19185000Y-16910000I-15000J0D01*
G01*
X19185000Y-17030000D02*
G75*
G03*
X19185000Y-17030000I-15000J0D01*
G01*
X19185000Y-18750000D02*
G75*
G03*
X19185000Y-18750000I-15000J0D01*
G01*
X19185000Y-18870000D02*
G75*
G03*
X19185000Y-18870000I-15000J0D01*
G01*
X19265000Y-20140000D02*
G75*
G03*
X19265000Y-20140000I-15000J0D01*
G01*
X19315000Y-18320000D02*
G75*
G03*
X19315000Y-18320000I-15000J0D01*
G01*
X19315000Y-18420000D02*
G75*
G03*
X19315000Y-18420000I-15000J0D01*
G01*
X19365000Y-18875000D02*
G75*
G03*
X19365000Y-18875000I-15000J0D01*
G01*
X19452450Y-11800000D02*
G75*
G03*
X19452450Y-11800000I-15000J0D01*
G01*
X19465000Y-19125000D02*
G75*
G03*
X19465000Y-19125000I-15000J0D01*
G01*
X19515000Y-19300000D02*
G75*
G03*
X19515000Y-19300000I-15000J0D01*
G01*
X19605000Y-10830000D02*
G75*
G03*
X19605000Y-10830000I-15000J0D01*
G01*
X19675000Y-18621800D02*
G75*
G03*
X19675000Y-18621800I-15000J0D01*
G01*
X19785000Y-19470000D02*
G75*
G03*
X19785000Y-19470000I-15000J0D01*
G01*
X19815000Y-19350000D02*
G75*
G03*
X19815000Y-19350000I-15000J0D01*
G01*
X19875000Y-10220000D02*
G75*
G03*
X19875000Y-10220000I-15000J0D01*
G01*
X19875000Y-14180000D02*
G75*
G03*
X19875000Y-14180000I-15000J0D01*
G01*
X19885000Y-19840000D02*
G75*
G03*
X19885000Y-19840000I-15000J0D01*
G01*
X19915000Y-14860000D02*
G75*
G03*
X19915000Y-14860000I-15000J0D01*
G01*
X20035000Y-16100000D02*
G75*
G03*
X20035000Y-16100000I-15000J0D01*
G01*
X20065000Y-12200000D02*
G75*
G03*
X20065000Y-12200000I-15000J0D01*
G01*
X20095000Y-16740000D02*
G75*
G03*
X20095000Y-16740000I-15000J0D01*
G01*
X20115000Y-18000000D02*
G75*
G03*
X20115000Y-18000000I-15000J0D01*
G01*
X20235000Y-12950000D02*
G75*
G03*
X20235000Y-12950000I-15000J0D01*
G01*
X20235000Y-14840000D02*
G75*
G03*
X20235000Y-14840000I-15000J0D01*
G01*
X20245000Y-10100000D02*
G75*
G03*
X20245000Y-10100000I-15000J0D01*
G01*
X20245000Y-19830000D02*
G75*
G03*
X20245000Y-19830000I-15000J0D01*
G01*
X20252435Y-12334356D02*
G75*
G03*
X20252435Y-12334356I-15000J0D01*
G01*
X20290000Y-16725000D02*
G75*
G03*
X20290000Y-16725000I-15000J0D01*
G01*
X20352135Y-14236745D02*
G75*
G03*
X20352135Y-14236745I-15000J0D01*
G01*
X20355000Y-10800113D02*
G75*
G03*
X20355000Y-10800113I-15000J0D01*
G01*
X20427450Y-19900000D02*
G75*
G03*
X20427450Y-19900000I-15000J0D01*
G01*
X20451835Y-16139134D02*
G75*
G03*
X20451835Y-16139134I-15000J0D01*
G01*
X20457038Y-20414065D02*
G75*
G03*
X20457038Y-20414065I-15000J0D01*
G01*
X20465000Y-10850000D02*
G75*
G03*
X20465000Y-10850000I-15000J0D01*
G01*
X20490000Y-12900000D02*
G75*
G03*
X20490000Y-12900000I-15000J0D01*
G01*
X20551535Y-18041524D02*
G75*
G03*
X20551535Y-18041524I-15000J0D01*
G01*
X20565000Y-20130000D02*
G75*
G03*
X20565000Y-20130000I-15000J0D01*
G01*
X20655000Y-10040000D02*
G75*
G03*
X20655000Y-10040000I-15000J0D01*
G01*
X20665000Y-10850000D02*
G75*
G03*
X20665000Y-10850000I-15000J0D01*
G01*
X20695000Y-18600000D02*
G75*
G03*
X20695000Y-18600000I-15000J0D01*
G01*
X20855000Y-12900000D02*
G75*
G03*
X20855000Y-12900000I-15000J0D01*
G01*
X20895000Y-9890000D02*
G75*
G03*
X20895000Y-9890000I-15000J0D01*
G01*
X20950272Y-12435524D02*
G75*
G03*
X20950272Y-12435524I-15000J0D01*
G01*
X21040000Y-10975000D02*
G75*
G03*
X21040000Y-10975000I-15000J0D01*
G01*
X21075000Y-14320000D02*
G75*
G03*
X21075000Y-14320000I-15000J0D01*
G01*
X21135000Y-16220000D02*
G75*
G03*
X21135000Y-16220000I-15000J0D01*
G01*
X21215000Y-12900000D02*
G75*
G03*
X21215000Y-12900000I-15000J0D01*
G01*
X21240000Y-11600000D02*
G75*
G03*
X21240000Y-11600000I-15000J0D01*
G01*
X21255000Y-16680000D02*
G75*
G03*
X21255000Y-16680000I-15000J0D01*
G01*
X21275000Y-18160000D02*
G75*
G03*
X21275000Y-18160000I-15000J0D01*
G01*
X21315000Y-13500000D02*
G75*
G03*
X21315000Y-13500000I-15000J0D01*
G01*
X21390000Y-15400000D02*
G75*
G03*
X21390000Y-15400000I-15000J0D01*
G01*
X21515000Y-10930000D02*
G75*
G03*
X21515000Y-10930000I-15000J0D01*
G01*
X21515000Y-17350000D02*
G75*
G03*
X21515000Y-17350000I-15000J0D01*
G01*
X21535000Y-16680000D02*
G75*
G03*
X21535000Y-16680000I-15000J0D01*
G01*
X21575000Y-18580000D02*
G75*
G03*
X21575000Y-18580000I-15000J0D01*
G01*
X21604794Y-20012150D02*
G75*
G03*
X21604794Y-20012150I-15000J0D01*
G01*
X21695000Y-12860000D02*
G75*
G03*
X21695000Y-12860000I-15000J0D01*
G01*
X21695000Y-14780000D02*
G75*
G03*
X21695000Y-14780000I-15000J0D01*
G01*
X21745000Y-12200000D02*
G75*
G03*
X21745000Y-12200000I-15000J0D01*
G01*
X21835000Y-14100000D02*
G75*
G03*
X21835000Y-14100000I-15000J0D01*
G01*
X21845000Y-12840000D02*
G75*
G03*
X21845000Y-12840000I-15000J0D01*
G01*
X21935000Y-16660000D02*
G75*
G03*
X21935000Y-16660000I-15000J0D01*
G01*
X21955000Y-16020000D02*
G75*
G03*
X21955000Y-16020000I-15000J0D01*
G01*
X21966340Y-20120074D02*
G75*
G03*
X21966340Y-20120074I-15000J0D01*
G01*
X22075000Y-17920000D02*
G75*
G03*
X22075000Y-17920000I-15000J0D01*
G01*
X22135000Y-14720000D02*
G75*
G03*
X22135000Y-14720000I-15000J0D01*
G01*
X22135000Y-16620000D02*
G75*
G03*
X22135000Y-16620000I-15000J0D01*
G01*
X22154825Y-12234656D02*
G75*
G03*
X22154825Y-12234656I-15000J0D01*
G01*
X22175000Y-10030000D02*
G75*
G03*
X22175000Y-10030000I-15000J0D01*
G01*
X22254525Y-14137045D02*
G75*
G03*
X22254525Y-14137045I-15000J0D01*
G01*
X22315000Y-18520000D02*
G75*
G03*
X22315000Y-18520000I-15000J0D01*
G01*
X22354225Y-16039434D02*
G75*
G03*
X22354225Y-16039434I-15000J0D01*
G01*
X22453925Y-17941824D02*
G75*
G03*
X22453925Y-17941824I-15000J0D01*
G01*
X22684794Y-20252150D02*
G75*
G03*
X22684794Y-20252150I-15000J0D01*
G01*
X22735000Y-12780000D02*
G75*
G03*
X22735000Y-12780000I-15000J0D01*
G01*
X22765000Y-18975000D02*
G75*
G03*
X22765000Y-18975000I-15000J0D01*
G01*
X22837552Y-12292917D02*
G75*
G03*
X22837552Y-12292917I-15000J0D01*
G01*
X22955000Y-14260000D02*
G75*
G03*
X22955000Y-14260000I-15000J0D01*
G01*
X23055000Y-16140000D02*
G75*
G03*
X23055000Y-16140000I-15000J0D01*
G01*
X23115000Y-12800000D02*
G75*
G03*
X23115000Y-12800000I-15000J0D01*
G01*
X23135000Y-18060000D02*
G75*
G03*
X23135000Y-18060000I-15000J0D01*
G01*
X23140000Y-11500000D02*
G75*
G03*
X23140000Y-11500000I-15000J0D01*
G01*
X23175000Y-16580000D02*
G75*
G03*
X23175000Y-16580000I-15000J0D01*
G01*
X23215000Y-13400000D02*
G75*
G03*
X23215000Y-13400000I-15000J0D01*
G01*
X23290000Y-15300000D02*
G75*
G03*
X23290000Y-15300000I-15000J0D01*
G01*
X23415000Y-17250000D02*
G75*
G03*
X23415000Y-17250000I-15000J0D01*
G01*
X23425000Y-10850000D02*
G75*
G03*
X23425000Y-10850000I-15000J0D01*
G01*
X23585000Y-14660000D02*
G75*
G03*
X23585000Y-14660000I-15000J0D01*
G01*
X23615000Y-12090000D02*
G75*
G03*
X23615000Y-12090000I-15000J0D01*
G01*
X23775000Y-16560000D02*
G75*
G03*
X23775000Y-16560000I-15000J0D01*
G01*
X23795000Y-12730000D02*
G75*
G03*
X23795000Y-12730000I-15000J0D01*
G01*
X23835000Y-15910000D02*
G75*
G03*
X23835000Y-15910000I-15000J0D01*
G01*
X23945000Y-16540000D02*
G75*
G03*
X23945000Y-16540000I-15000J0D01*
G01*
X23955000Y-14630000D02*
G75*
G03*
X23955000Y-14630000I-15000J0D01*
G01*
X23955000Y-17810000D02*
G75*
G03*
X23955000Y-17810000I-15000J0D01*
G01*
X24057214Y-12134956D02*
G75*
G03*
X24057214Y-12134956I-15000J0D01*
G01*
X24075000Y-9930000D02*
G75*
G03*
X24075000Y-9930000I-15000J0D01*
G01*
X24156914Y-14037345D02*
G75*
G03*
X24156914Y-14037345I-15000J0D01*
G01*
X24195000Y-16540000D02*
G75*
G03*
X24195000Y-16540000I-15000J0D01*
G01*
X24205000Y-18440000D02*
G75*
G03*
X24205000Y-18440000I-15000J0D01*
G01*
X24256614Y-15939734D02*
G75*
G03*
X24256614Y-15939734I-15000J0D01*
G01*
X24356314Y-17842124D02*
G75*
G03*
X24356314Y-17842124I-15000J0D01*
G01*
X24645000Y-12700000D02*
G75*
G03*
X24645000Y-12700000I-15000J0D01*
G01*
X24745000Y-12220000D02*
G75*
G03*
X24745000Y-12220000I-15000J0D01*
G01*
X24865000Y-14130000D02*
G75*
G03*
X24865000Y-14130000I-15000J0D01*
G01*
X24895000Y-16030000D02*
G75*
G03*
X24895000Y-16030000I-15000J0D01*
G01*
X24995000Y-16492565D02*
G75*
G03*
X24995000Y-16492565I-15000J0D01*
G01*
X25015000Y-17940000D02*
G75*
G03*
X25015000Y-17940000I-15000J0D01*
G01*
X25040000Y-11375000D02*
G75*
G03*
X25040000Y-11375000I-15000J0D01*
G01*
X25085000Y-12679158D02*
G75*
G03*
X25085000Y-12679158I-15000J0D01*
G01*
X25095000Y-18670000D02*
G75*
G03*
X25095000Y-18670000I-15000J0D01*
G01*
X25115000Y-13275000D02*
G75*
G03*
X25115000Y-13275000I-15000J0D01*
G01*
X25135338Y-19919683D02*
G75*
G03*
X25135338Y-19919683I-15000J0D01*
G01*
X25190000Y-15175000D02*
G75*
G03*
X25190000Y-15175000I-15000J0D01*
G01*
X25315000Y-16475794D02*
G75*
G03*
X25315000Y-16475794I-15000J0D01*
G01*
X25315000Y-17125000D02*
G75*
G03*
X25315000Y-17125000I-15000J0D01*
G01*
X25335000Y-18380000D02*
G75*
G03*
X25335000Y-18380000I-15000J0D01*
G01*
X25345000Y-10720000D02*
G75*
G03*
X25345000Y-10720000I-15000J0D01*
G01*
X25365000Y-12660000D02*
G75*
G03*
X25365000Y-12660000I-15000J0D01*
G01*
X25555000Y-12010000D02*
G75*
G03*
X25555000Y-12010000I-15000J0D01*
G01*
X25560138Y-19970428D02*
G75*
G03*
X25560138Y-19970428I-15000J0D01*
G01*
X25605000Y-16460000D02*
G75*
G03*
X25605000Y-16460000I-15000J0D01*
G01*
X25655000Y-13910000D02*
G75*
G03*
X25655000Y-13910000I-15000J0D01*
G01*
X25735000Y-15810000D02*
G75*
G03*
X25735000Y-15810000I-15000J0D01*
G01*
X25785000Y-12630000D02*
G75*
G03*
X25785000Y-12630000I-15000J0D01*
G01*
X25825000Y-17710000D02*
G75*
G03*
X25825000Y-17710000I-15000J0D01*
G01*
X25855000Y-16450000D02*
G75*
G03*
X25855000Y-16450000I-15000J0D01*
G01*
X25959603Y-12035256D02*
G75*
G03*
X25959603Y-12035256I-15000J0D01*
G01*
X25965000Y-18600000D02*
G75*
G03*
X25965000Y-18600000I-15000J0D01*
G01*
X25975000Y-14550000D02*
G75*
G03*
X25975000Y-14550000I-15000J0D01*
G01*
X25995000Y-9820000D02*
G75*
G03*
X25995000Y-9820000I-15000J0D01*
G01*
X26059303Y-13937645D02*
G75*
G03*
X26059303Y-13937645I-15000J0D01*
G01*
X26125000Y-18330000D02*
G75*
G03*
X26125000Y-18330000I-15000J0D01*
G01*
X26159003Y-15840034D02*
G75*
G03*
X26159003Y-15840034I-15000J0D01*
G01*
X26175000Y-14521209D02*
G75*
G03*
X26175000Y-14521209I-15000J0D01*
G01*
X26258703Y-17742424D02*
G75*
G03*
X26258703Y-17742424I-15000J0D01*
G01*
X26265000Y-20090000D02*
G75*
G03*
X26265000Y-20090000I-15000J0D01*
G01*
X26565000Y-18750000D02*
G75*
G03*
X26565000Y-18750000I-15000J0D01*
G01*
X26575000Y-12590000D02*
G75*
G03*
X26575000Y-12590000I-15000J0D01*
G01*
X26635000Y-12120000D02*
G75*
G03*
X26635000Y-12120000I-15000J0D01*
G01*
X26705000Y-16400000D02*
G75*
G03*
X26705000Y-16400000I-15000J0D01*
G01*
X26735000Y-14050000D02*
G75*
G03*
X26735000Y-14050000I-15000J0D01*
G01*
X26845000Y-15900000D02*
G75*
G03*
X26845000Y-15900000I-15000J0D01*
G01*
X26875000Y-18580000D02*
G75*
G03*
X26875000Y-18580000I-15000J0D01*
G01*
X26940000Y-11300000D02*
G75*
G03*
X26940000Y-11300000I-15000J0D01*
G01*
X26945000Y-17820000D02*
G75*
G03*
X26945000Y-17820000I-15000J0D01*
G01*
X26965000Y-12600000D02*
G75*
G03*
X26965000Y-12600000I-15000J0D01*
G01*
X27015000Y-13200000D02*
G75*
G03*
X27015000Y-13200000I-15000J0D01*
G01*
X27090000Y-15100000D02*
G75*
G03*
X27090000Y-15100000I-15000J0D01*
G01*
X27095000Y-18590000D02*
G75*
G03*
X27095000Y-18590000I-15000J0D01*
G01*
X27185000Y-16380000D02*
G75*
G03*
X27185000Y-16380000I-15000J0D01*
G01*
X27215000Y-10690000D02*
G75*
G03*
X27215000Y-10690000I-15000J0D01*
G01*
X27215000Y-17050000D02*
G75*
G03*
X27215000Y-17050000I-15000J0D01*
G01*
X27315000Y-18270000D02*
G75*
G03*
X27315000Y-18270000I-15000J0D01*
G01*
X27365000Y-12540000D02*
G75*
G03*
X27365000Y-12540000I-15000J0D01*
G01*
X27455000Y-11920000D02*
G75*
G03*
X27455000Y-11920000I-15000J0D01*
G01*
X27535000Y-19780000D02*
G75*
G03*
X27535000Y-19780000I-15000J0D01*
G01*
X27545000Y-16360000D02*
G75*
G03*
X27545000Y-16360000I-15000J0D01*
G01*
X27565000Y-13800000D02*
G75*
G03*
X27565000Y-13800000I-15000J0D01*
G01*
X27625000Y-15710000D02*
G75*
G03*
X27625000Y-15710000I-15000J0D01*
G01*
X27725000Y-12540000D02*
G75*
G03*
X27725000Y-12540000I-15000J0D01*
G01*
X27735000Y-17620000D02*
G75*
G03*
X27735000Y-17620000I-15000J0D01*
G01*
X27845000Y-14430000D02*
G75*
G03*
X27845000Y-14430000I-15000J0D01*
G01*
X27861992Y-11935556D02*
G75*
G03*
X27861992Y-11935556I-15000J0D01*
G01*
X27875000Y-18520000D02*
G75*
G03*
X27875000Y-18520000I-15000J0D01*
G01*
X27895000Y-9730000D02*
G75*
G03*
X27895000Y-9730000I-15000J0D01*
G01*
X27905000Y-16330000D02*
G75*
G03*
X27905000Y-16330000I-15000J0D01*
G01*
X27938279Y-19847799D02*
G75*
G03*
X27938279Y-19847799I-15000J0D01*
G01*
X27961692Y-13837945D02*
G75*
G03*
X27961692Y-13837945I-15000J0D01*
G01*
X28035000Y-18232421D02*
G75*
G03*
X28035000Y-18232421I-15000J0D01*
G01*
X28061392Y-15740334D02*
G75*
G03*
X28061392Y-15740334I-15000J0D01*
G01*
X28105000Y-14410000D02*
G75*
G03*
X28105000Y-14410000I-15000J0D01*
G01*
X28161092Y-17642724D02*
G75*
G03*
X28161092Y-17642724I-15000J0D01*
G01*
X28425000Y-12500000D02*
G75*
G03*
X28425000Y-12500000I-15000J0D01*
G01*
X28455000Y-9720000D02*
G75*
G03*
X28455000Y-9720000I-15000J0D01*
G01*
X28525000Y-12010000D02*
G75*
G03*
X28525000Y-12010000I-15000J0D01*
G01*
X28595000Y-18470000D02*
G75*
G03*
X28595000Y-18470000I-15000J0D01*
G01*
X28615000Y-19980000D02*
G75*
G03*
X28615000Y-19980000I-15000J0D01*
G01*
X28655000Y-13950000D02*
G75*
G03*
X28655000Y-13950000I-15000J0D01*
G01*
X28655000Y-16290000D02*
G75*
G03*
X28655000Y-16290000I-15000J0D01*
G01*
X28745000Y-15830000D02*
G75*
G03*
X28745000Y-15830000I-15000J0D01*
G01*
X28843779Y-17738779D02*
G75*
G03*
X28843779Y-17738779I-15000J0D01*
G01*
X28855000Y-12490000D02*
G75*
G03*
X28855000Y-12490000I-15000J0D01*
G01*
X28865000Y-11225000D02*
G75*
G03*
X28865000Y-11225000I-15000J0D01*
G01*
X28915000Y-18650000D02*
G75*
G03*
X28915000Y-18650000I-15000J0D01*
G01*
X28940000Y-13125000D02*
G75*
G03*
X28940000Y-13125000I-15000J0D01*
G01*
X29015000Y-15025000D02*
G75*
G03*
X29015000Y-15025000I-15000J0D01*
G01*
X29125000Y-16290000D02*
G75*
G03*
X29125000Y-16290000I-15000J0D01*
G01*
X29140000Y-16975000D02*
G75*
G03*
X29140000Y-16975000I-15000J0D01*
G01*
X29155000Y-18470000D02*
G75*
G03*
X29155000Y-18470000I-15000J0D01*
G01*
X29275000Y-12450000D02*
G75*
G03*
X29275000Y-12450000I-15000J0D01*
G01*
X29345000Y-11810000D02*
G75*
G03*
X29345000Y-11810000I-15000J0D01*
G01*
X29375000Y-14360000D02*
G75*
G03*
X29375000Y-14360000I-15000J0D01*
G01*
X29435000Y-13720000D02*
G75*
G03*
X29435000Y-13720000I-15000J0D01*
G01*
X29465971Y-9652603D02*
G75*
G03*
X29465971Y-9652603I-15000J0D01*
G01*
X29495000Y-12450000D02*
G75*
G03*
X29495000Y-12450000I-15000J0D01*
G01*
X29555000Y-15590000D02*
G75*
G03*
X29555000Y-15590000I-15000J0D01*
G01*
X29595000Y-18430000D02*
G75*
G03*
X29595000Y-18430000I-15000J0D01*
G01*
X29625000Y-14340000D02*
G75*
G03*
X29625000Y-14340000I-15000J0D01*
G01*
X29675000Y-9763611D02*
G75*
G03*
X29675000Y-9763611I-15000J0D01*
G01*
X29695000Y-16240000D02*
G75*
G03*
X29695000Y-16240000I-15000J0D01*
G01*
X29764432Y-11835853D02*
G75*
G03*
X29764432Y-11835853I-15000J0D01*
G01*
X29864132Y-13738242D02*
G75*
G03*
X29864132Y-13738242I-15000J0D01*
G01*
X29875000Y-9400000D02*
G75*
G03*
X29875000Y-9400000I-15000J0D01*
G01*
X29905000Y-17500000D02*
G75*
G03*
X29905000Y-17500000I-15000J0D01*
G01*
X29963832Y-15640632D02*
G75*
G03*
X29963832Y-15640632I-15000J0D01*
G01*
X30105000Y-18110000D02*
G75*
G03*
X30105000Y-18110000I-15000J0D01*
G01*
X30245000Y-9540000D02*
G75*
G03*
X30245000Y-9540000I-15000J0D01*
G01*
X30301305Y-17530560D02*
G75*
G03*
X30301305Y-17530560I-15000J0D01*
G01*
X30395000Y-7370000D02*
G75*
G03*
X30395000Y-7370000I-15000J0D01*
G01*
X30395000Y-7460000D02*
G75*
G03*
X30395000Y-7460000I-15000J0D01*
G01*
X30395000Y-8320000D02*
G75*
G03*
X30395000Y-8320000I-15000J0D01*
G01*
X30395000Y-8410000D02*
G75*
G03*
X30395000Y-8410000I-15000J0D01*
G01*
X30395000Y-12400000D02*
G75*
G03*
X30395000Y-12400000I-15000J0D01*
G01*
X30435000Y-9360000D02*
G75*
G03*
X30435000Y-9360000I-15000J0D01*
G01*
X30475000Y-7660000D02*
G75*
G03*
X30475000Y-7660000I-15000J0D01*
G01*
X30495000Y-11910000D02*
G75*
G03*
X30495000Y-11910000I-15000J0D01*
G01*
X30495000Y-16204322D02*
G75*
G03*
X30495000Y-16204322I-15000J0D01*
G01*
X30555000Y-7570000D02*
G75*
G03*
X30555000Y-7570000I-15000J0D01*
G01*
X30555000Y-7660000D02*
G75*
G03*
X30555000Y-7660000I-15000J0D01*
G01*
X30555000Y-8270000D02*
G75*
G03*
X30555000Y-8270000I-15000J0D01*
G01*
X30555000Y-8360000D02*
G75*
G03*
X30555000Y-8360000I-15000J0D01*
G01*
X30555000Y-8450000D02*
G75*
G03*
X30555000Y-8450000I-15000J0D01*
G01*
X30605000Y-13850000D02*
G75*
G03*
X30605000Y-13850000I-15000J0D01*
G01*
X30620000Y-9375000D02*
G75*
G03*
X30620000Y-9375000I-15000J0D01*
G01*
X30635000Y-15720000D02*
G75*
G03*
X30635000Y-15720000I-15000J0D01*
G01*
X30635000Y-18380000D02*
G75*
G03*
X30635000Y-18380000I-15000J0D01*
G01*
X30665000Y-8270000D02*
G75*
G03*
X30665000Y-8270000I-15000J0D01*
G01*
X30665000Y-8360000D02*
G75*
G03*
X30665000Y-8360000I-15000J0D01*
G01*
X30665000Y-8450000D02*
G75*
G03*
X30665000Y-8450000I-15000J0D01*
G01*
X30725000Y-12400000D02*
G75*
G03*
X30725000Y-12400000I-15000J0D01*
G01*
X30740000Y-11100000D02*
G75*
G03*
X30740000Y-11100000I-15000J0D01*
G01*
X30745000Y-9300000D02*
G75*
G03*
X30745000Y-9300000I-15000J0D01*
G01*
X30775000Y-7410000D02*
G75*
G03*
X30775000Y-7410000I-15000J0D01*
G01*
X30805000Y-7580000D02*
G75*
G03*
X30805000Y-7580000I-15000J0D01*
G01*
X30815000Y-13000000D02*
G75*
G03*
X30815000Y-13000000I-15000J0D01*
G01*
X30865000Y-7410000D02*
G75*
G03*
X30865000Y-7410000I-15000J0D01*
G01*
X30875000Y-7680000D02*
G75*
G03*
X30875000Y-7680000I-15000J0D01*
G01*
X30890000Y-14900000D02*
G75*
G03*
X30890000Y-14900000I-15000J0D01*
G01*
X30970654Y-9049902D02*
G75*
G03*
X30970654Y-9049902I-15000J0D01*
G01*
X31005000Y-17640000D02*
G75*
G03*
X31005000Y-17640000I-15000J0D01*
G01*
X31067009Y-9154018D02*
G75*
G03*
X31067009Y-9154018I-15000J0D01*
G01*
X31085054Y-9249946D02*
G75*
G03*
X31085054Y-9249946I-15000J0D01*
G01*
X31115000Y-9010000D02*
G75*
G03*
X31115000Y-9010000I-15000J0D01*
G01*
X31155000Y-12350000D02*
G75*
G03*
X31155000Y-12350000I-15000J0D01*
G01*
X31249950Y-8980000D02*
G75*
G03*
X31249950Y-8980000I-15000J0D01*
G01*
X31255000Y-11700000D02*
G75*
G03*
X31255000Y-11700000I-15000J0D01*
G01*
X31265000Y-16800000D02*
G75*
G03*
X31265000Y-16800000I-15000J0D01*
G01*
X31335000Y-14250785D02*
G75*
G03*
X31335000Y-14250785I-15000J0D01*
G01*
X31345000Y-8630000D02*
G75*
G03*
X31345000Y-8630000I-15000J0D01*
G01*
X31345000Y-12360000D02*
G75*
G03*
X31345000Y-12360000I-15000J0D01*
G01*
X31345000Y-13610000D02*
G75*
G03*
X31345000Y-13610000I-15000J0D01*
G01*
X31360858Y-8720000D02*
G75*
G03*
X31360858Y-8720000I-15000J0D01*
G01*
X31365000Y-18375000D02*
G75*
G03*
X31365000Y-18375000I-15000J0D01*
G01*
X31375000Y-7270000D02*
G75*
G03*
X31375000Y-7270000I-15000J0D01*
G01*
X31375000Y-7410000D02*
G75*
G03*
X31375000Y-7410000I-15000J0D01*
G01*
X31375000Y-8800000D02*
G75*
G03*
X31375000Y-8800000I-15000J0D01*
G01*
X31375000Y-8930000D02*
G75*
G03*
X31375000Y-8930000I-15000J0D01*
G01*
X31455000Y-15510000D02*
G75*
G03*
X31455000Y-15510000I-15000J0D01*
G01*
X31540000Y-18100000D02*
G75*
G03*
X31540000Y-18100000I-15000J0D01*
G01*
X31540000Y-20050000D02*
G75*
G03*
X31540000Y-20050000I-15000J0D01*
G01*
X31565000Y-8850000D02*
G75*
G03*
X31565000Y-8850000I-15000J0D01*
G01*
X31585000Y-14230000D02*
G75*
G03*
X31585000Y-14230000I-15000J0D01*
G01*
X31615000Y-9250000D02*
G75*
G03*
X31615000Y-9250000I-15000J0D01*
G01*
X31665000Y-8780000D02*
G75*
G03*
X31665000Y-8780000I-15000J0D01*
G01*
X31666821Y-11736153D02*
G75*
G03*
X31666821Y-11736153I-15000J0D01*
G01*
X31685000Y-16120000D02*
G75*
G03*
X31685000Y-16120000I-15000J0D01*
G01*
X31735000Y-8955000D02*
G75*
G03*
X31735000Y-8955000I-15000J0D01*
G01*
X31766521Y-13638542D02*
G75*
G03*
X31766521Y-13638542I-15000J0D01*
G01*
X31866221Y-15540932D02*
G75*
G03*
X31866221Y-15540932I-15000J0D01*
G01*
X31890000Y-9325000D02*
G75*
G03*
X31890000Y-9325000I-15000J0D01*
G01*
X31915000Y-8950000D02*
G75*
G03*
X31915000Y-8950000I-15000J0D01*
G01*
X31925000Y-7510000D02*
G75*
G03*
X31925000Y-7510000I-15000J0D01*
G01*
X31925000Y-7750000D02*
G75*
G03*
X31925000Y-7750000I-15000J0D01*
G01*
X31960079Y-20092710D02*
G75*
G03*
X31960079Y-20092710I-15000J0D01*
G01*
X32040000Y-9325000D02*
G75*
G03*
X32040000Y-9325000I-15000J0D01*
G01*
X32090000Y-8950000D02*
G75*
G03*
X32090000Y-8950000I-15000J0D01*
G01*
X32095000Y-7510000D02*
G75*
G03*
X32095000Y-7510000I-15000J0D01*
G01*
X32095000Y-7820000D02*
G75*
G03*
X32095000Y-7820000I-15000J0D01*
G01*
X32190000Y-9325000D02*
G75*
G03*
X32190000Y-9325000I-15000J0D01*
G01*
X32265000Y-8950000D02*
G75*
G03*
X32265000Y-8950000I-15000J0D01*
G01*
X32305000Y-12290000D02*
G75*
G03*
X32305000Y-12290000I-15000J0D01*
G01*
X32335000Y-7401250D02*
G75*
G03*
X32335000Y-7401250I-15000J0D01*
G01*
X32335000Y-7680000D02*
G75*
G03*
X32335000Y-7680000I-15000J0D01*
G01*
X32395000Y-11840000D02*
G75*
G03*
X32395000Y-11840000I-15000J0D01*
G01*
X32440000Y-8950000D02*
G75*
G03*
X32440000Y-8950000I-15000J0D01*
G01*
X32440000Y-9325000D02*
G75*
G03*
X32440000Y-9325000I-15000J0D01*
G01*
X32475000Y-13750000D02*
G75*
G03*
X32475000Y-13750000I-15000J0D01*
G01*
X32475000Y-16100000D02*
G75*
G03*
X32475000Y-16100000I-15000J0D01*
G01*
X32505000Y-7890000D02*
G75*
G03*
X32505000Y-7890000I-15000J0D01*
G01*
X32525000Y-7015860D02*
G75*
G03*
X32525000Y-7015860I-15000J0D01*
G01*
X32555000Y-15660000D02*
G75*
G03*
X32555000Y-15660000I-15000J0D01*
G01*
X32615000Y-8950000D02*
G75*
G03*
X32615000Y-8950000I-15000J0D01*
G01*
X32615000Y-9350000D02*
G75*
G03*
X32615000Y-9350000I-15000J0D01*
G01*
X32635000Y-12290000D02*
G75*
G03*
X32635000Y-12290000I-15000J0D01*
G01*
X32640000Y-20225000D02*
G75*
G03*
X32640000Y-20225000I-15000J0D01*
G01*
X32665000Y-11025000D02*
G75*
G03*
X32665000Y-11025000I-15000J0D01*
G01*
X32685000Y-7401250D02*
G75*
G03*
X32685000Y-7401250I-15000J0D01*
G01*
X32685000Y-7630000D02*
G75*
G03*
X32685000Y-7630000I-15000J0D01*
G01*
X32740000Y-12925000D02*
G75*
G03*
X32740000Y-12925000I-15000J0D01*
G01*
X32765000Y-18875000D02*
G75*
G03*
X32765000Y-18875000I-15000J0D01*
G01*
X32815000Y-14825000D02*
G75*
G03*
X32815000Y-14825000I-15000J0D01*
G01*
X32855000Y-7820000D02*
G75*
G03*
X32855000Y-7820000I-15000J0D01*
G01*
X32935000Y-7520000D02*
G75*
G03*
X32935000Y-7520000I-15000J0D01*
G01*
X32995000Y-8500000D02*
G75*
G03*
X32995000Y-8500000I-15000J0D01*
G01*
X33055000Y-8570000D02*
G75*
G03*
X33055000Y-8570000I-15000J0D01*
G01*
X33065000Y-9100000D02*
G75*
G03*
X33065000Y-9100000I-15000J0D01*
G01*
X33065000Y-9282500D02*
G75*
G03*
X33065000Y-9282500I-15000J0D01*
G01*
X33065000Y-18600000D02*
G75*
G03*
X33065000Y-18600000I-15000J0D01*
G01*
X33140000Y-18875000D02*
G75*
G03*
X33140000Y-18875000I-15000J0D01*
G01*
X33140000Y-19150000D02*
G75*
G03*
X33140000Y-19150000I-15000J0D01*
G01*
X33240000Y-18600000D02*
G75*
G03*
X33240000Y-18600000I-15000J0D01*
G01*
X33265000Y-7170000D02*
G75*
G03*
X33265000Y-7170000I-15000J0D01*
G01*
X33265000Y-7520000D02*
G75*
G03*
X33265000Y-7520000I-15000J0D01*
G01*
X33290000Y-9100000D02*
G75*
G03*
X33290000Y-9100000I-15000J0D01*
G01*
X33290000Y-9282500D02*
G75*
G03*
X33290000Y-9282500I-15000J0D01*
G01*
X33305000Y-7840000D02*
G75*
G03*
X33305000Y-7840000I-15000J0D01*
G01*
X33317397Y-7262550D02*
G75*
G03*
X33317397Y-7262550I-15000J0D01*
G01*
X33440000Y-18125000D02*
G75*
G03*
X33440000Y-18125000I-15000J0D01*
G01*
X33465000Y-20025000D02*
G75*
G03*
X33465000Y-20025000I-15000J0D01*
G01*
X33485000Y-7015860D02*
G75*
G03*
X33485000Y-7015860I-15000J0D01*
G01*
X33485000Y-8170000D02*
G75*
G03*
X33485000Y-8170000I-15000J0D01*
G01*
X33515000Y-9100000D02*
G75*
G03*
X33515000Y-9100000I-15000J0D01*
G01*
X33515000Y-9282500D02*
G75*
G03*
X33515000Y-9282500I-15000J0D01*
G01*
X33565000Y-18875000D02*
G75*
G03*
X33565000Y-18875000I-15000J0D01*
G01*
X33735000Y-7840000D02*
G75*
G03*
X33735000Y-7840000I-15000J0D01*
G01*
X33740000Y-9100000D02*
G75*
G03*
X33740000Y-9100000I-15000J0D01*
G01*
X33740000Y-9282500D02*
G75*
G03*
X33740000Y-9282500I-15000J0D01*
G01*
X33865079Y-18187710D02*
G75*
G03*
X33865079Y-18187710I-15000J0D01*
G01*
X33865079Y-20092710D02*
G75*
G03*
X33865079Y-20092710I-15000J0D01*
G01*
X33955000Y-7520000D02*
G75*
G03*
X33955000Y-7520000I-15000J0D01*
G01*
X33965000Y-9100000D02*
G75*
G03*
X33965000Y-9100000I-15000J0D01*
G01*
X33965000Y-9282500D02*
G75*
G03*
X33965000Y-9282500I-15000J0D01*
G01*
X33990000Y-14475000D02*
G75*
G03*
X33990000Y-14475000I-15000J0D01*
G01*
X34015000Y-13525000D02*
G75*
G03*
X34015000Y-13525000I-15000J0D01*
G01*
X34190000Y-9100000D02*
G75*
G03*
X34190000Y-9100000I-15000J0D01*
G01*
X34190000Y-9282500D02*
G75*
G03*
X34190000Y-9282500I-15000J0D01*
G01*
X34195000Y-7530000D02*
G75*
G03*
X34195000Y-7530000I-15000J0D01*
G01*
X34240000Y-16100000D02*
G75*
G03*
X34240000Y-16100000I-15000J0D01*
G01*
X34275000Y-12510000D02*
G75*
G03*
X34275000Y-12510000I-15000J0D01*
G01*
X34340000Y-9325000D02*
G75*
G03*
X34340000Y-9325000I-15000J0D01*
G01*
X34365000Y-9142500D02*
G75*
G03*
X34365000Y-9142500I-15000J0D01*
G01*
X34415000Y-18850000D02*
G75*
G03*
X34415000Y-18850000I-15000J0D01*
G01*
X34425000Y-7620000D02*
G75*
G03*
X34425000Y-7620000I-15000J0D01*
G01*
X34431729Y-14522611D02*
G75*
G03*
X34431729Y-14522611I-15000J0D01*
G01*
X34435000Y-11760000D02*
G75*
G03*
X34435000Y-11760000I-15000J0D01*
G01*
X34565000Y-9125000D02*
G75*
G03*
X34565000Y-9125000I-15000J0D01*
G01*
X34565000Y-20225000D02*
G75*
G03*
X34565000Y-20225000I-15000J0D01*
G01*
X34585000Y-8700000D02*
G75*
G03*
X34585000Y-8700000I-15000J0D01*
G01*
X34590000Y-18400000D02*
G75*
G03*
X34590000Y-18400000I-15000J0D01*
G01*
X34615000Y-7700000D02*
G75*
G03*
X34615000Y-7700000I-15000J0D01*
G01*
X34640000Y-13525000D02*
G75*
G03*
X34640000Y-13525000I-15000J0D01*
G01*
X34665000Y-18850000D02*
G75*
G03*
X34665000Y-18850000I-15000J0D01*
G01*
X34710000Y-11650000D02*
G75*
G03*
X34710000Y-11650000I-15000J0D01*
G01*
X34765000Y-9100000D02*
G75*
G03*
X34765000Y-9100000I-15000J0D01*
G01*
X34765000Y-16075000D02*
G75*
G03*
X34765000Y-16075000I-15000J0D01*
G01*
X34790000Y-9325000D02*
G75*
G03*
X34790000Y-9325000I-15000J0D01*
G01*
X34855000Y-7770000D02*
G75*
G03*
X34855000Y-7770000I-15000J0D01*
G01*
X34890000Y-17500000D02*
G75*
G03*
X34890000Y-17500000I-15000J0D01*
G01*
X35005000Y-7032550D02*
G75*
G03*
X35005000Y-7032550I-15000J0D01*
G01*
X35040000Y-19175000D02*
G75*
G03*
X35040000Y-19175000I-15000J0D01*
G01*
X35065000Y-20217649D02*
G75*
G03*
X35065000Y-20217649I-15000J0D01*
G01*
X35090000Y-8900000D02*
G75*
G03*
X35090000Y-8900000I-15000J0D01*
G01*
X35115000Y-14650000D02*
G75*
G03*
X35115000Y-14650000I-15000J0D01*
G01*
X35125000Y-7237450D02*
G75*
G03*
X35125000Y-7237450I-15000J0D01*
G01*
X35140000Y-8998739D02*
G75*
G03*
X35140000Y-8998739I-15000J0D01*
G01*
X35190000Y-18875000D02*
G75*
G03*
X35190000Y-18875000I-15000J0D01*
G01*
X35295000Y-8490000D02*
G75*
G03*
X35295000Y-8490000I-15000J0D01*
G01*
X35335000Y-11880000D02*
G75*
G03*
X35335000Y-11880000I-15000J0D01*
G01*
X35340000Y-20025000D02*
G75*
G03*
X35340000Y-20025000I-15000J0D01*
G01*
X35355000Y-8550000D02*
G75*
G03*
X35355000Y-8550000I-15000J0D01*
G01*
X35445000Y-12520000D02*
G75*
G03*
X35445000Y-12520000I-15000J0D01*
G01*
X35465000Y-18825000D02*
G75*
G03*
X35465000Y-18825000I-15000J0D01*
G01*
X35490000Y-16225000D02*
G75*
G03*
X35490000Y-16225000I-15000J0D01*
G01*
X35540000Y-9400000D02*
G75*
G03*
X35540000Y-9400000I-15000J0D01*
G01*
X35540000Y-13900000D02*
G75*
G03*
X35540000Y-13900000I-15000J0D01*
G01*
X35640000Y-11000000D02*
G75*
G03*
X35640000Y-11000000I-15000J0D01*
G01*
X35665000Y-12125000D02*
G75*
G03*
X35665000Y-12125000I-15000J0D01*
G01*
X35715000Y-8975000D02*
G75*
G03*
X35715000Y-8975000I-15000J0D01*
G01*
X35770079Y-20092710D02*
G75*
G03*
X35770079Y-20092710I-15000J0D01*
G01*
X35790000Y-8975000D02*
G75*
G03*
X35790000Y-8975000I-15000J0D01*
G01*
X35815000Y-10125000D02*
G75*
G03*
X35815000Y-10125000I-15000J0D01*
G01*
X35865000Y-8975000D02*
G75*
G03*
X35865000Y-8975000I-15000J0D01*
G01*
X35990000Y-17850000D02*
G75*
G03*
X35990000Y-17850000I-15000J0D01*
G01*
X36015000Y-8832450D02*
G75*
G03*
X36015000Y-8832450I-15000J0D01*
G01*
X36077022Y-7965018D02*
G75*
G03*
X36077022Y-7965018I-15000J0D01*
G01*
X36105000Y-11480000D02*
G75*
G03*
X36105000Y-11480000I-15000J0D01*
G01*
X36140000Y-15975000D02*
G75*
G03*
X36140000Y-15975000I-15000J0D01*
G01*
X36165000Y-8850000D02*
G75*
G03*
X36165000Y-8850000I-15000J0D01*
G01*
X36185000Y-11370000D02*
G75*
G03*
X36185000Y-11370000I-15000J0D01*
G01*
X36210210Y-7972451D02*
G75*
G03*
X36210210Y-7972451I-15000J0D01*
G01*
X36240000Y-13960000D02*
G75*
G03*
X36240000Y-13960000I-15000J0D01*
G01*
X36305000Y-8540000D02*
G75*
G03*
X36305000Y-8540000I-15000J0D01*
G01*
X36325000Y-7865000D02*
G75*
G03*
X36325000Y-7865000I-15000J0D01*
G01*
X36365000Y-18250000D02*
G75*
G03*
X36365000Y-18250000I-15000J0D01*
G01*
X36375000Y-8457279D02*
G75*
G03*
X36375000Y-8457279I-15000J0D01*
G01*
X36415000Y-20300000D02*
G75*
G03*
X36415000Y-20300000I-15000J0D01*
G01*
X36455000Y-7780000D02*
G75*
G03*
X36455000Y-7780000I-15000J0D01*
G01*
X36465000Y-8493137D02*
G75*
G03*
X36465000Y-8493137I-15000J0D01*
G01*
X36490000Y-12550000D02*
G75*
G03*
X36490000Y-12550000I-15000J0D01*
G01*
X36490000Y-16400000D02*
G75*
G03*
X36490000Y-16400000I-15000J0D01*
G01*
X36513284Y-7841716D02*
G75*
G03*
X36513284Y-7841716I-15000J0D01*
G01*
X36535000Y-11260000D02*
G75*
G03*
X36535000Y-11260000I-15000J0D01*
G01*
X36565000Y-8570000D02*
G75*
G03*
X36565000Y-8570000I-15000J0D01*
G01*
X36590000Y-14325000D02*
G75*
G03*
X36590000Y-14325000I-15000J0D01*
G01*
X36595000Y-11180000D02*
G75*
G03*
X36595000Y-11180000I-15000J0D01*
G01*
X36597550Y-10950000D02*
G75*
G03*
X36597550Y-10950000I-15000J0D01*
G01*
X36602450Y-8390000D02*
G75*
G03*
X36602450Y-8390000I-15000J0D01*
G01*
X36644289Y-15729289D02*
G75*
G03*
X36644289Y-15729289I-15000J0D01*
G01*
X36665000Y-17625000D02*
G75*
G03*
X36665000Y-17625000I-15000J0D01*
G01*
X36695000Y-8670000D02*
G75*
G03*
X36695000Y-8670000I-15000J0D01*
G01*
X36740000Y-13700000D02*
G75*
G03*
X36740000Y-13700000I-15000J0D01*
G01*
X36765000Y-18225000D02*
G75*
G03*
X36765000Y-18225000I-15000J0D01*
G01*
X36790000Y-18025000D02*
G75*
G03*
X36790000Y-18025000I-15000J0D01*
G01*
X36815000Y-18950000D02*
G75*
G03*
X36815000Y-18950000I-15000J0D01*
G01*
X36885000Y-8611717D02*
G75*
G03*
X36885000Y-8611717I-15000J0D01*
G01*
X36925000Y-11650000D02*
G75*
G03*
X36925000Y-11650000I-15000J0D01*
G01*
X36955000Y-8680000D02*
G75*
G03*
X36955000Y-8680000I-15000J0D01*
G01*
X36965000Y-7150000D02*
G75*
G03*
X36965000Y-7150000I-15000J0D01*
G01*
X36965000Y-10450000D02*
G75*
G03*
X36965000Y-10450000I-15000J0D01*
G01*
X36975000Y-11810000D02*
G75*
G03*
X36975000Y-11810000I-15000J0D01*
G01*
X36990000Y-14325000D02*
G75*
G03*
X36990000Y-14325000I-15000J0D01*
G01*
X37022903Y-9291803D02*
G75*
G03*
X37022903Y-9291803I-15000J0D01*
G01*
X37085000Y-13878500D02*
G75*
G03*
X37085000Y-13878500I-15000J0D01*
G01*
X37085000Y-15783500D02*
G75*
G03*
X37085000Y-15783500I-15000J0D01*
G01*
X37085000Y-17688408D02*
G75*
G03*
X37085000Y-17688408I-15000J0D01*
G01*
X37093197Y-9251803D02*
G75*
G03*
X37093197Y-9251803I-15000J0D01*
G01*
X37093197Y-9331803D02*
G75*
G03*
X37093197Y-9331803I-15000J0D01*
G01*
X37125000Y-11250000D02*
G75*
G03*
X37125000Y-11250000I-15000J0D01*
G01*
X37140000Y-10450000D02*
G75*
G03*
X37140000Y-10450000I-15000J0D01*
G01*
X37163197Y-9291803D02*
G75*
G03*
X37163197Y-9291803I-15000J0D01*
G01*
X37225000Y-11290000D02*
G75*
G03*
X37225000Y-11290000I-15000J0D01*
G01*
X37315000Y-16400000D02*
G75*
G03*
X37315000Y-16400000I-15000J0D01*
G01*
X37315000Y-18225000D02*
G75*
G03*
X37315000Y-18225000I-15000J0D01*
G01*
X37340000Y-7150000D02*
G75*
G03*
X37340000Y-7150000I-15000J0D01*
G01*
X37615000Y-16050000D02*
G75*
G03*
X37615000Y-16050000I-15000J0D01*
G01*
X37615000Y-17950000D02*
G75*
G03*
X37615000Y-17950000I-15000J0D01*
G01*
X37740000Y-14025000D02*
G75*
G03*
X37740000Y-14025000I-15000J0D01*
G01*
X38040000Y-12525000D02*
G75*
G03*
X38040000Y-12525000I-15000J0D01*
G01*
X38115000Y-13175000D02*
G75*
G03*
X38115000Y-13175000I-15000J0D01*
G01*
X38115000Y-15100000D02*
G75*
G03*
X38115000Y-15100000I-15000J0D01*
G01*
X38143197Y-9291803D02*
G75*
G03*
X38143197Y-9291803I-15000J0D01*
G01*
X38152500Y-6977500D02*
G75*
G03*
X38152500Y-6977500I-15000J0D01*
G01*
X38152500Y-8972500D02*
G75*
G03*
X38152500Y-8972500I-15000J0D01*
G01*
X38190000Y-17100000D02*
G75*
G03*
X38190000Y-17100000I-15000J0D01*
G01*
X38245000Y-6975000D02*
G75*
G03*
X38245000Y-6975000I-15000J0D01*
G01*
X38245000Y-8970000D02*
G75*
G03*
X38245000Y-8970000I-15000J0D01*
G01*
X38277550Y-9520000D02*
G75*
G03*
X38277550Y-9520000I-15000J0D01*
G01*
X38285000Y-9840000D02*
G75*
G03*
X38285000Y-9840000I-15000J0D01*
G01*
X38285000Y-10590000D02*
G75*
G03*
X38285000Y-10590000I-15000J0D01*
G01*
X38285000Y-10930000D02*
G75*
G03*
X38285000Y-10930000I-15000J0D01*
G01*
X38305000Y-12040000D02*
G75*
G03*
X38305000Y-12040000I-15000J0D01*
G01*
X38325000Y-6975000D02*
G75*
G03*
X38325000Y-6975000I-15000J0D01*
G01*
X38325000Y-8970000D02*
G75*
G03*
X38325000Y-8970000I-15000J0D01*
G01*
X38345000Y-9620000D02*
G75*
G03*
X38345000Y-9620000I-15000J0D01*
G01*
X38415000Y-8820000D02*
G75*
G03*
X38415000Y-8820000I-15000J0D01*
G01*
X38535000Y-13850000D02*
G75*
G03*
X38535000Y-13850000I-15000J0D01*
G01*
X38535000Y-13970000D02*
G75*
G03*
X38535000Y-13970000I-15000J0D01*
G01*
X38815000Y-7910000D02*
G75*
G03*
X38815000Y-7910000I-15000J0D01*
G01*
X39093897Y-11079913D02*
G75*
G03*
X39093897Y-11079913I-15000J0D01*
G01*
D14*
X11845859Y-8655900D02*
X11845859Y-8732100D01*
X11807759Y-8694000D02*
X11883959Y-8694000D01*
X11845859Y-8909900D02*
X11845859Y-8986100D01*
X11807759Y-8948000D02*
X11883959Y-8948000D01*
X11845859Y-9163900D02*
X11845859Y-9240100D01*
X11807759Y-9202000D02*
X11883959Y-9202000D01*
X11845859Y-9417900D02*
X11845859Y-9494100D01*
X11807759Y-9456000D02*
X11883959Y-9456000D01*
D15*
X31143588Y-8387588D02*
X31143588Y-8320412D01*
X31076412Y-8320412D01*
X31076412Y-8387588D01*
X31143588Y-8387588D01*
X31397588Y-8387588D02*
X31397588Y-8320412D01*
X31330412Y-8320412D01*
X31330412Y-8387588D01*
X31397588Y-8387588D01*
X35969588Y-6863588D02*
X35969588Y-6796412D01*
X35902412Y-6796412D01*
X35902412Y-6863588D01*
X35969588Y-6863588D01*
X35969588Y-8387588D02*
X35969588Y-8320412D01*
X35902412Y-8320412D01*
X35902412Y-8387588D01*
X35969588Y-8387588D01*
D16*
X18750000Y-19225000D02*
X18800000Y-19175000D01*
X18750000Y-19125000D01*
X18700000Y-19175000D01*
X18750000Y-19225000D01*
X18750000Y-20675000D02*
X18800000Y-20625000D01*
X18750000Y-20575000D01*
X18700000Y-20625000D01*
X18750000Y-20675000D01*
X19000000Y-20675000D02*
X19050000Y-20625000D01*
X19000000Y-20575000D01*
X18950000Y-20625000D01*
X19000000Y-20675000D01*
X19250000Y-19225000D02*
X19300000Y-19175000D01*
X19250000Y-19125000D01*
X19200000Y-19175000D01*
X19250000Y-19225000D01*
X19250000Y-20675000D02*
X19300000Y-20625000D01*
X19250000Y-20575000D01*
X19200000Y-20625000D01*
X19250000Y-20675000D01*
X37950000Y-10382259D02*
X38000000Y-10332259D01*
X37950000Y-10282259D01*
X37900000Y-10332259D01*
X37950000Y-10382259D01*
X37950000Y-11832259D02*
X38000000Y-11782259D01*
X37950000Y-11732259D01*
X37900000Y-11782259D01*
X37950000Y-11832259D01*
X38200000Y-11832259D02*
X38250000Y-11782259D01*
X38200000Y-11732259D01*
X38150000Y-11782259D01*
X38200000Y-11832259D01*
X38450000Y-10382259D02*
X38500000Y-10332259D01*
X38450000Y-10282259D01*
X38400000Y-10332259D01*
X38450000Y-10382259D01*
X38450000Y-11832259D02*
X38500000Y-11782259D01*
X38450000Y-11732259D01*
X38400000Y-11782259D01*
X38450000Y-11832259D01*
D17*
X31059200Y-6779200D02*
X31160800Y-6880800D01*
X31160800Y-6779200D02*
X31059200Y-6880800D01*
X31160800Y-6830000D02*
G75*
G03*
X31160800Y-6830000I-50800J0D01*
G01*
X31313200Y-6779200D02*
X31414800Y-6880800D01*
X31414800Y-6779200D02*
X31313200Y-6880800D01*
X31414800Y-6830000D02*
G75*
G03*
X31414800Y-6830000I-50800J0D01*
G01*
X31567200Y-6779200D02*
X31668800Y-6880800D01*
X31668800Y-6779200D02*
X31567200Y-6880800D01*
X31668800Y-6830000D02*
G75*
G03*
X31668800Y-6830000I-50800J0D01*
G01*
X31567200Y-8303200D02*
X31668800Y-8404800D01*
X31668800Y-8303200D02*
X31567200Y-8404800D01*
X31668800Y-8354000D02*
G75*
G03*
X31668800Y-8354000I-50800J0D01*
G01*
X31821200Y-6779200D02*
X31922800Y-6880800D01*
X31922800Y-6779200D02*
X31821200Y-6880800D01*
X31922800Y-6830000D02*
G75*
G03*
X31922800Y-6830000I-50800J0D01*
G01*
X31821200Y-8303200D02*
X31922800Y-8404800D01*
X31922800Y-8303200D02*
X31821200Y-8404800D01*
X31922800Y-8354000D02*
G75*
G03*
X31922800Y-8354000I-50800J0D01*
G01*
X32075200Y-6779200D02*
X32176800Y-6880800D01*
X32176800Y-6779200D02*
X32075200Y-6880800D01*
X32176800Y-6830000D02*
G75*
G03*
X32176800Y-6830000I-50800J0D01*
G01*
X32075200Y-8303200D02*
X32176800Y-8404800D01*
X32176800Y-8303200D02*
X32075200Y-8404800D01*
X32176800Y-8354000D02*
G75*
G03*
X32176800Y-8354000I-50800J0D01*
G01*
X32329200Y-6779200D02*
X32430800Y-6880800D01*
X32430800Y-6779200D02*
X32329200Y-6880800D01*
X32430800Y-6830000D02*
G75*
G03*
X32430800Y-6830000I-50800J0D01*
G01*
X32329200Y-8303200D02*
X32430800Y-8404800D01*
X32430800Y-8303200D02*
X32329200Y-8404800D01*
X32430800Y-8354000D02*
G75*
G03*
X32430800Y-8354000I-50800J0D01*
G01*
X32583200Y-6779200D02*
X32684800Y-6880800D01*
X32684800Y-6779200D02*
X32583200Y-6880800D01*
X32684800Y-6830000D02*
G75*
G03*
X32684800Y-6830000I-50800J0D01*
G01*
X32583200Y-8303200D02*
X32684800Y-8404800D01*
X32684800Y-8303200D02*
X32583200Y-8404800D01*
X32684800Y-8354000D02*
G75*
G03*
X32684800Y-8354000I-50800J0D01*
G01*
X32837200Y-6779200D02*
X32938800Y-6880800D01*
X32938800Y-6779200D02*
X32837200Y-6880800D01*
X32938800Y-6830000D02*
G75*
G03*
X32938800Y-6830000I-50800J0D01*
G01*
X32837200Y-8303200D02*
X32938800Y-8404800D01*
X32938800Y-8303200D02*
X32837200Y-8404800D01*
X32938800Y-8354000D02*
G75*
G03*
X32938800Y-8354000I-50800J0D01*
G01*
X33091200Y-6779200D02*
X33192800Y-6880800D01*
X33192800Y-6779200D02*
X33091200Y-6880800D01*
X33192800Y-6830000D02*
G75*
G03*
X33192800Y-6830000I-50800J0D01*
G01*
X33091200Y-8303200D02*
X33192800Y-8404800D01*
X33192800Y-8303200D02*
X33091200Y-8404800D01*
X33192800Y-8354000D02*
G75*
G03*
X33192800Y-8354000I-50800J0D01*
G01*
X33345200Y-6779200D02*
X33446800Y-6880800D01*
X33446800Y-6779200D02*
X33345200Y-6880800D01*
X33446800Y-6830000D02*
G75*
G03*
X33446800Y-6830000I-50800J0D01*
G01*
X33345200Y-8303200D02*
X33446800Y-8404800D01*
X33446800Y-8303200D02*
X33345200Y-8404800D01*
X33446800Y-8354000D02*
G75*
G03*
X33446800Y-8354000I-50800J0D01*
G01*
X33599200Y-6779200D02*
X33700800Y-6880800D01*
X33700800Y-6779200D02*
X33599200Y-6880800D01*
X33700800Y-6830000D02*
G75*
G03*
X33700800Y-6830000I-50800J0D01*
G01*
X33599200Y-8303200D02*
X33700800Y-8404800D01*
X33700800Y-8303200D02*
X33599200Y-8404800D01*
X33700800Y-8354000D02*
G75*
G03*
X33700800Y-8354000I-50800J0D01*
G01*
X33853200Y-6779200D02*
X33954800Y-6880800D01*
X33954800Y-6779200D02*
X33853200Y-6880800D01*
X33954800Y-6830000D02*
G75*
G03*
X33954800Y-6830000I-50800J0D01*
G01*
X33853200Y-8303200D02*
X33954800Y-8404800D01*
X33954800Y-8303200D02*
X33853200Y-8404800D01*
X33954800Y-8354000D02*
G75*
G03*
X33954800Y-8354000I-50800J0D01*
G01*
X34107200Y-6779200D02*
X34208800Y-6880800D01*
X34208800Y-6779200D02*
X34107200Y-6880800D01*
X34208800Y-6830000D02*
G75*
G03*
X34208800Y-6830000I-50800J0D01*
G01*
X34107200Y-8303200D02*
X34208800Y-8404800D01*
X34208800Y-8303200D02*
X34107200Y-8404800D01*
X34208800Y-8354000D02*
G75*
G03*
X34208800Y-8354000I-50800J0D01*
G01*
X34361200Y-6779200D02*
X34462800Y-6880800D01*
X34462800Y-6779200D02*
X34361200Y-6880800D01*
X34462800Y-6830000D02*
G75*
G03*
X34462800Y-6830000I-50800J0D01*
G01*
X34361200Y-8303200D02*
X34462800Y-8404800D01*
X34462800Y-8303200D02*
X34361200Y-8404800D01*
X34462800Y-8354000D02*
G75*
G03*
X34462800Y-8354000I-50800J0D01*
G01*
X34615200Y-6779200D02*
X34716800Y-6880800D01*
X34716800Y-6779200D02*
X34615200Y-6880800D01*
X34716800Y-6830000D02*
G75*
G03*
X34716800Y-6830000I-50800J0D01*
G01*
X34615200Y-8303200D02*
X34716800Y-8404800D01*
X34716800Y-8303200D02*
X34615200Y-8404800D01*
X34716800Y-8354000D02*
G75*
G03*
X34716800Y-8354000I-50800J0D01*
G01*
X34869200Y-6779200D02*
X34970800Y-6880800D01*
X34970800Y-6779200D02*
X34869200Y-6880800D01*
X34970800Y-6830000D02*
G75*
G03*
X34970800Y-6830000I-50800J0D01*
G01*
X34869200Y-8303200D02*
X34970800Y-8404800D01*
X34970800Y-8303200D02*
X34869200Y-8404800D01*
X34970800Y-8354000D02*
G75*
G03*
X34970800Y-8354000I-50800J0D01*
G01*
X35123200Y-6779200D02*
X35224800Y-6880800D01*
X35224800Y-6779200D02*
X35123200Y-6880800D01*
X35224800Y-6830000D02*
G75*
G03*
X35224800Y-6830000I-50800J0D01*
G01*
X35123200Y-8303200D02*
X35224800Y-8404800D01*
X35224800Y-8303200D02*
X35123200Y-8404800D01*
X35224800Y-8354000D02*
G75*
G03*
X35224800Y-8354000I-50800J0D01*
G01*
X35377200Y-6779200D02*
X35478800Y-6880800D01*
X35478800Y-6779200D02*
X35377200Y-6880800D01*
X35478800Y-6830000D02*
G75*
G03*
X35478800Y-6830000I-50800J0D01*
G01*
X35377200Y-8303200D02*
X35478800Y-8404800D01*
X35478800Y-8303200D02*
X35377200Y-8404800D01*
X35478800Y-8354000D02*
G75*
G03*
X35478800Y-8354000I-50800J0D01*
G01*
X35631200Y-6779200D02*
X35732800Y-6880800D01*
X35732800Y-6779200D02*
X35631200Y-6880800D01*
X35732800Y-6830000D02*
G75*
G03*
X35732800Y-6830000I-50800J0D01*
G01*
X35631200Y-8303200D02*
X35732800Y-8404800D01*
X35732800Y-8303200D02*
X35631200Y-8404800D01*
X35732800Y-8354000D02*
G75*
G03*
X35732800Y-8354000I-50800J0D01*
G01*
D18*
X18330000Y-19765000D02*
X18550000Y-19985000D01*
X18550000Y-19765000D02*
X18330000Y-19985000D01*
X18440000Y-19765000D02*
X18440000Y-19985000D01*
X18330000Y-19875000D02*
X18550000Y-19875000D01*
X19450000Y-19765000D02*
X19670000Y-19985000D01*
X19670000Y-19765000D02*
X19450000Y-19985000D01*
X19560000Y-19765000D02*
X19560000Y-19985000D01*
X19450000Y-19875000D02*
X19670000Y-19875000D01*
X37530000Y-10922259D02*
X37750000Y-11142259D01*
X37750000Y-10922259D02*
X37530000Y-11142259D01*
X37640000Y-10922259D02*
X37640000Y-11142259D01*
X37530000Y-11032259D02*
X37750000Y-11032259D01*
X38650000Y-10922259D02*
X38870000Y-11142259D01*
X38870000Y-10922259D02*
X38650000Y-11142259D01*
X38760000Y-10922259D02*
X38760000Y-11142259D01*
X38650000Y-11032259D02*
X38870000Y-11032259D01*
D11*
X3373277Y-22241970D02*
X3373277Y-22041970D01*
X3373277Y-22041970D02*
X3420896Y-22041970D01*
X3420896Y-22041970D02*
X3449467Y-22051494D01*
X3449467Y-22051494D02*
X3468515Y-22070541D01*
X3468515Y-22070541D02*
X3478039Y-22089589D01*
X3478039Y-22089589D02*
X3487562Y-22127684D01*
X3487562Y-22127684D02*
X3487562Y-22156256D01*
X3487562Y-22156256D02*
X3478039Y-22194351D01*
X3478039Y-22194351D02*
X3468515Y-22213399D01*
X3468515Y-22213399D02*
X3449467Y-22232446D01*
X3449467Y-22232446D02*
X3420896Y-22241970D01*
X3420896Y-22241970D02*
X3373277Y-22241970D01*
X3573277Y-22241970D02*
X3573277Y-22108637D01*
X3573277Y-22146732D02*
X3582801Y-22127684D01*
X3582801Y-22127684D02*
X3592324Y-22118160D01*
X3592324Y-22118160D02*
X3611372Y-22108637D01*
X3611372Y-22108637D02*
X3630420Y-22108637D01*
X3697086Y-22241970D02*
X3697086Y-22108637D01*
X3697086Y-22041970D02*
X3687562Y-22051494D01*
X3687562Y-22051494D02*
X3697086Y-22061018D01*
X3697086Y-22061018D02*
X3706610Y-22051494D01*
X3706610Y-22051494D02*
X3697086Y-22041970D01*
X3697086Y-22041970D02*
X3697086Y-22061018D01*
X3820896Y-22241970D02*
X3801848Y-22232446D01*
X3801848Y-22232446D02*
X3792324Y-22213399D01*
X3792324Y-22213399D02*
X3792324Y-22041970D01*
X3925658Y-22241970D02*
X3906610Y-22232446D01*
X3906610Y-22232446D02*
X3897086Y-22213399D01*
X3897086Y-22213399D02*
X3897086Y-22041970D01*
X4154229Y-22241970D02*
X4154229Y-22041970D01*
X4154229Y-22041970D02*
X4220896Y-22184827D01*
X4220896Y-22184827D02*
X4287563Y-22041970D01*
X4287563Y-22041970D02*
X4287563Y-22241970D01*
X4468515Y-22241970D02*
X4468515Y-22137208D01*
X4468515Y-22137208D02*
X4458991Y-22118160D01*
X4458991Y-22118160D02*
X4439944Y-22108637D01*
X4439944Y-22108637D02*
X4401848Y-22108637D01*
X4401848Y-22108637D02*
X4382801Y-22118160D01*
X4468515Y-22232446D02*
X4449467Y-22241970D01*
X4449467Y-22241970D02*
X4401848Y-22241970D01*
X4401848Y-22241970D02*
X4382801Y-22232446D01*
X4382801Y-22232446D02*
X4373277Y-22213399D01*
X4373277Y-22213399D02*
X4373277Y-22194351D01*
X4373277Y-22194351D02*
X4382801Y-22175303D01*
X4382801Y-22175303D02*
X4401848Y-22165780D01*
X4401848Y-22165780D02*
X4449467Y-22165780D01*
X4449467Y-22165780D02*
X4468515Y-22156256D01*
X4563753Y-22108637D02*
X4563753Y-22308637D01*
X4563753Y-22118160D02*
X4582801Y-22108637D01*
X4582801Y-22108637D02*
X4620896Y-22108637D01*
X4620896Y-22108637D02*
X4639944Y-22118160D01*
X4639944Y-22118160D02*
X4649467Y-22127684D01*
X4649467Y-22127684D02*
X4658991Y-22146732D01*
X4658991Y-22146732D02*
X4658991Y-22203875D01*
X4658991Y-22203875D02*
X4649467Y-22222922D01*
X4649467Y-22222922D02*
X4639944Y-22232446D01*
X4639944Y-22232446D02*
X4620896Y-22241970D01*
X4620896Y-22241970D02*
X4582801Y-22241970D01*
X4582801Y-22241970D02*
X4563753Y-22232446D01*
X4744705Y-22222922D02*
X4754229Y-22232446D01*
X4754229Y-22232446D02*
X4744705Y-22241970D01*
X4744705Y-22241970D02*
X4735182Y-22232446D01*
X4735182Y-22232446D02*
X4744705Y-22222922D01*
X4744705Y-22222922D02*
X4744705Y-22241970D01*
X4744705Y-22118160D02*
X4754229Y-22127684D01*
X4754229Y-22127684D02*
X4744705Y-22137208D01*
X4744705Y-22137208D02*
X4735182Y-22127684D01*
X4735182Y-22127684D02*
X4744705Y-22118160D01*
X4744705Y-22118160D02*
X4744705Y-22137208D01*
D12*
X3092500Y-22560486D02*
X3112500Y-22580486D01*
X3112500Y-22560486D02*
X3092500Y-22580486D01*
D11*
X3411372Y-22461970D02*
X3430420Y-22461970D01*
X3430420Y-22461970D02*
X3449467Y-22471494D01*
X3449467Y-22471494D02*
X3458991Y-22481018D01*
X3458991Y-22481018D02*
X3468515Y-22500065D01*
X3468515Y-22500065D02*
X3478039Y-22538160D01*
X3478039Y-22538160D02*
X3478039Y-22585779D01*
X3478039Y-22585779D02*
X3468515Y-22623875D01*
X3468515Y-22623875D02*
X3458991Y-22642922D01*
X3458991Y-22642922D02*
X3449467Y-22652446D01*
X3449467Y-22652446D02*
X3430420Y-22661970D01*
X3430420Y-22661970D02*
X3411372Y-22661970D01*
X3411372Y-22661970D02*
X3392324Y-22652446D01*
X3392324Y-22652446D02*
X3382801Y-22642922D01*
X3382801Y-22642922D02*
X3373277Y-22623875D01*
X3373277Y-22623875D02*
X3363753Y-22585779D01*
X3363753Y-22585779D02*
X3363753Y-22538160D01*
X3363753Y-22538160D02*
X3373277Y-22500065D01*
X3373277Y-22500065D02*
X3382801Y-22481018D01*
X3382801Y-22481018D02*
X3392324Y-22471494D01*
X3392324Y-22471494D02*
X3411372Y-22461970D01*
X3563753Y-22642922D02*
X3573277Y-22652446D01*
X3573277Y-22652446D02*
X3563753Y-22661970D01*
X3563753Y-22661970D02*
X3554229Y-22652446D01*
X3554229Y-22652446D02*
X3563753Y-22642922D01*
X3563753Y-22642922D02*
X3563753Y-22661970D01*
X3649467Y-22481018D02*
X3658991Y-22471494D01*
X3658991Y-22471494D02*
X3678039Y-22461970D01*
X3678039Y-22461970D02*
X3725658Y-22461970D01*
X3725658Y-22461970D02*
X3744705Y-22471494D01*
X3744705Y-22471494D02*
X3754229Y-22481018D01*
X3754229Y-22481018D02*
X3763753Y-22500065D01*
X3763753Y-22500065D02*
X3763753Y-22519113D01*
X3763753Y-22519113D02*
X3754229Y-22547684D01*
X3754229Y-22547684D02*
X3639943Y-22661970D01*
X3639943Y-22661970D02*
X3763753Y-22661970D01*
X3887562Y-22461970D02*
X3906610Y-22461970D01*
X3906610Y-22461970D02*
X3925658Y-22471494D01*
X3925658Y-22471494D02*
X3935182Y-22481018D01*
X3935182Y-22481018D02*
X3944705Y-22500065D01*
X3944705Y-22500065D02*
X3954229Y-22538160D01*
X3954229Y-22538160D02*
X3954229Y-22585779D01*
X3954229Y-22585779D02*
X3944705Y-22623875D01*
X3944705Y-22623875D02*
X3935182Y-22642922D01*
X3935182Y-22642922D02*
X3925658Y-22652446D01*
X3925658Y-22652446D02*
X3906610Y-22661970D01*
X3906610Y-22661970D02*
X3887562Y-22661970D01*
X3887562Y-22661970D02*
X3868515Y-22652446D01*
X3868515Y-22652446D02*
X3858991Y-22642922D01*
X3858991Y-22642922D02*
X3849467Y-22623875D01*
X3849467Y-22623875D02*
X3839943Y-22585779D01*
X3839943Y-22585779D02*
X3839943Y-22538160D01*
X3839943Y-22538160D02*
X3849467Y-22500065D01*
X3849467Y-22500065D02*
X3858991Y-22481018D01*
X3858991Y-22481018D02*
X3868515Y-22471494D01*
X3868515Y-22471494D02*
X3887562Y-22461970D01*
X4078039Y-22461970D02*
X4097086Y-22461970D01*
X4097086Y-22461970D02*
X4116134Y-22471494D01*
X4116134Y-22471494D02*
X4125658Y-22481018D01*
X4125658Y-22481018D02*
X4135182Y-22500065D01*
X4135182Y-22500065D02*
X4144705Y-22538160D01*
X4144705Y-22538160D02*
X4144705Y-22585779D01*
X4144705Y-22585779D02*
X4135182Y-22623875D01*
X4135182Y-22623875D02*
X4125658Y-22642922D01*
X4125658Y-22642922D02*
X4116134Y-22652446D01*
X4116134Y-22652446D02*
X4097086Y-22661970D01*
X4097086Y-22661970D02*
X4078039Y-22661970D01*
X4078039Y-22661970D02*
X4058991Y-22652446D01*
X4058991Y-22652446D02*
X4049467Y-22642922D01*
X4049467Y-22642922D02*
X4039943Y-22623875D01*
X4039943Y-22623875D02*
X4030420Y-22585779D01*
X4030420Y-22585779D02*
X4030420Y-22538160D01*
X4030420Y-22538160D02*
X4039943Y-22500065D01*
X4039943Y-22500065D02*
X4049467Y-22481018D01*
X4049467Y-22481018D02*
X4058991Y-22471494D01*
X4058991Y-22471494D02*
X4078039Y-22461970D01*
X4230420Y-22661970D02*
X4230420Y-22528637D01*
X4230420Y-22547684D02*
X4239944Y-22538160D01*
X4239944Y-22538160D02*
X4258991Y-22528637D01*
X4258991Y-22528637D02*
X4287563Y-22528637D01*
X4287563Y-22528637D02*
X4306610Y-22538160D01*
X4306610Y-22538160D02*
X4316134Y-22557208D01*
X4316134Y-22557208D02*
X4316134Y-22661970D01*
X4316134Y-22557208D02*
X4325658Y-22538160D01*
X4325658Y-22538160D02*
X4344705Y-22528637D01*
X4344705Y-22528637D02*
X4373277Y-22528637D01*
X4373277Y-22528637D02*
X4392325Y-22538160D01*
X4392325Y-22538160D02*
X4401848Y-22557208D01*
X4401848Y-22557208D02*
X4401848Y-22661970D01*
X4497086Y-22661970D02*
X4497086Y-22528637D01*
X4497086Y-22547684D02*
X4506610Y-22538160D01*
X4506610Y-22538160D02*
X4525658Y-22528637D01*
X4525658Y-22528637D02*
X4554229Y-22528637D01*
X4554229Y-22528637D02*
X4573277Y-22538160D01*
X4573277Y-22538160D02*
X4582801Y-22557208D01*
X4582801Y-22557208D02*
X4582801Y-22661970D01*
X4582801Y-22557208D02*
X4592325Y-22538160D01*
X4592325Y-22538160D02*
X4611372Y-22528637D01*
X4611372Y-22528637D02*
X4639944Y-22528637D01*
X4639944Y-22528637D02*
X4658991Y-22538160D01*
X4658991Y-22538160D02*
X4668515Y-22557208D01*
X4668515Y-22557208D02*
X4668515Y-22661970D01*
X5058991Y-22452446D02*
X4887563Y-22709589D01*
X5316134Y-22461970D02*
X5335182Y-22461970D01*
X5335182Y-22461970D02*
X5354229Y-22471494D01*
X5354229Y-22471494D02*
X5363753Y-22481018D01*
X5363753Y-22481018D02*
X5373277Y-22500065D01*
X5373277Y-22500065D02*
X5382801Y-22538160D01*
X5382801Y-22538160D02*
X5382801Y-22585779D01*
X5382801Y-22585779D02*
X5373277Y-22623875D01*
X5373277Y-22623875D02*
X5363753Y-22642922D01*
X5363753Y-22642922D02*
X5354229Y-22652446D01*
X5354229Y-22652446D02*
X5335182Y-22661970D01*
X5335182Y-22661970D02*
X5316134Y-22661970D01*
X5316134Y-22661970D02*
X5297087Y-22652446D01*
X5297087Y-22652446D02*
X5287563Y-22642922D01*
X5287563Y-22642922D02*
X5278039Y-22623875D01*
X5278039Y-22623875D02*
X5268515Y-22585779D01*
X5268515Y-22585779D02*
X5268515Y-22538160D01*
X5268515Y-22538160D02*
X5278039Y-22500065D01*
X5278039Y-22500065D02*
X5287563Y-22481018D01*
X5287563Y-22481018D02*
X5297087Y-22471494D01*
X5297087Y-22471494D02*
X5316134Y-22461970D01*
X5468515Y-22642922D02*
X5478039Y-22652446D01*
X5478039Y-22652446D02*
X5468515Y-22661970D01*
X5468515Y-22661970D02*
X5458991Y-22652446D01*
X5458991Y-22652446D02*
X5468515Y-22642922D01*
X5468515Y-22642922D02*
X5468515Y-22661970D01*
X5601848Y-22461970D02*
X5620896Y-22461970D01*
X5620896Y-22461970D02*
X5639944Y-22471494D01*
X5639944Y-22471494D02*
X5649467Y-22481018D01*
X5649467Y-22481018D02*
X5658991Y-22500065D01*
X5658991Y-22500065D02*
X5668515Y-22538160D01*
X5668515Y-22538160D02*
X5668515Y-22585779D01*
X5668515Y-22585779D02*
X5658991Y-22623875D01*
X5658991Y-22623875D02*
X5649467Y-22642922D01*
X5649467Y-22642922D02*
X5639944Y-22652446D01*
X5639944Y-22652446D02*
X5620896Y-22661970D01*
X5620896Y-22661970D02*
X5601848Y-22661970D01*
X5601848Y-22661970D02*
X5582801Y-22652446D01*
X5582801Y-22652446D02*
X5573277Y-22642922D01*
X5573277Y-22642922D02*
X5563753Y-22623875D01*
X5563753Y-22623875D02*
X5554229Y-22585779D01*
X5554229Y-22585779D02*
X5554229Y-22538160D01*
X5554229Y-22538160D02*
X5563753Y-22500065D01*
X5563753Y-22500065D02*
X5573277Y-22481018D01*
X5573277Y-22481018D02*
X5582801Y-22471494D01*
X5582801Y-22471494D02*
X5601848Y-22461970D01*
X5792325Y-22461970D02*
X5811372Y-22461970D01*
X5811372Y-22461970D02*
X5830420Y-22471494D01*
X5830420Y-22471494D02*
X5839944Y-22481018D01*
X5839944Y-22481018D02*
X5849467Y-22500065D01*
X5849467Y-22500065D02*
X5858991Y-22538160D01*
X5858991Y-22538160D02*
X5858991Y-22585779D01*
X5858991Y-22585779D02*
X5849467Y-22623875D01*
X5849467Y-22623875D02*
X5839944Y-22642922D01*
X5839944Y-22642922D02*
X5830420Y-22652446D01*
X5830420Y-22652446D02*
X5811372Y-22661970D01*
X5811372Y-22661970D02*
X5792325Y-22661970D01*
X5792325Y-22661970D02*
X5773277Y-22652446D01*
X5773277Y-22652446D02*
X5763753Y-22642922D01*
X5763753Y-22642922D02*
X5754229Y-22623875D01*
X5754229Y-22623875D02*
X5744706Y-22585779D01*
X5744706Y-22585779D02*
X5744706Y-22538160D01*
X5744706Y-22538160D02*
X5754229Y-22500065D01*
X5754229Y-22500065D02*
X5763753Y-22481018D01*
X5763753Y-22481018D02*
X5773277Y-22471494D01*
X5773277Y-22471494D02*
X5792325Y-22461970D01*
X5925658Y-22461970D02*
X6058991Y-22461970D01*
X6058991Y-22461970D02*
X5973277Y-22661970D01*
X6144706Y-22661970D02*
X6182801Y-22661970D01*
X6182801Y-22661970D02*
X6201848Y-22652446D01*
X6201848Y-22652446D02*
X6211372Y-22642922D01*
X6211372Y-22642922D02*
X6230420Y-22614351D01*
X6230420Y-22614351D02*
X6239944Y-22576256D01*
X6239944Y-22576256D02*
X6239944Y-22500065D01*
X6239944Y-22500065D02*
X6230420Y-22481018D01*
X6230420Y-22481018D02*
X6220896Y-22471494D01*
X6220896Y-22471494D02*
X6201848Y-22461970D01*
X6201848Y-22461970D02*
X6163753Y-22461970D01*
X6163753Y-22461970D02*
X6144706Y-22471494D01*
X6144706Y-22471494D02*
X6135182Y-22481018D01*
X6135182Y-22481018D02*
X6125658Y-22500065D01*
X6125658Y-22500065D02*
X6125658Y-22547684D01*
X6125658Y-22547684D02*
X6135182Y-22566732D01*
X6135182Y-22566732D02*
X6144706Y-22576256D01*
X6144706Y-22576256D02*
X6163753Y-22585779D01*
X6163753Y-22585779D02*
X6201848Y-22585779D01*
X6201848Y-22585779D02*
X6220896Y-22576256D01*
X6220896Y-22576256D02*
X6230420Y-22566732D01*
X6230420Y-22566732D02*
X6239944Y-22547684D01*
X6316134Y-22461970D02*
X6316134Y-22500065D01*
X6392325Y-22461970D02*
X6392325Y-22500065D01*
X6687563Y-22738160D02*
X6678039Y-22728637D01*
X6678039Y-22728637D02*
X6658991Y-22700065D01*
X6658991Y-22700065D02*
X6649468Y-22681018D01*
X6649468Y-22681018D02*
X6639944Y-22652446D01*
X6639944Y-22652446D02*
X6630420Y-22604827D01*
X6630420Y-22604827D02*
X6630420Y-22566732D01*
X6630420Y-22566732D02*
X6639944Y-22519113D01*
X6639944Y-22519113D02*
X6649468Y-22490541D01*
X6649468Y-22490541D02*
X6658991Y-22471494D01*
X6658991Y-22471494D02*
X6678039Y-22442922D01*
X6678039Y-22442922D02*
X6687563Y-22433398D01*
X6868515Y-22661970D02*
X6754229Y-22661970D01*
X6811372Y-22661970D02*
X6811372Y-22461970D01*
X6811372Y-22461970D02*
X6792325Y-22490541D01*
X6792325Y-22490541D02*
X6773277Y-22509589D01*
X6773277Y-22509589D02*
X6754229Y-22519113D01*
X6982801Y-22547684D02*
X6963753Y-22538160D01*
X6963753Y-22538160D02*
X6954229Y-22528637D01*
X6954229Y-22528637D02*
X6944706Y-22509589D01*
X6944706Y-22509589D02*
X6944706Y-22500065D01*
X6944706Y-22500065D02*
X6954229Y-22481018D01*
X6954229Y-22481018D02*
X6963753Y-22471494D01*
X6963753Y-22471494D02*
X6982801Y-22461970D01*
X6982801Y-22461970D02*
X7020896Y-22461970D01*
X7020896Y-22461970D02*
X7039944Y-22471494D01*
X7039944Y-22471494D02*
X7049468Y-22481018D01*
X7049468Y-22481018D02*
X7058991Y-22500065D01*
X7058991Y-22500065D02*
X7058991Y-22509589D01*
X7058991Y-22509589D02*
X7049468Y-22528637D01*
X7049468Y-22528637D02*
X7039944Y-22538160D01*
X7039944Y-22538160D02*
X7020896Y-22547684D01*
X7020896Y-22547684D02*
X6982801Y-22547684D01*
X6982801Y-22547684D02*
X6963753Y-22557208D01*
X6963753Y-22557208D02*
X6954229Y-22566732D01*
X6954229Y-22566732D02*
X6944706Y-22585779D01*
X6944706Y-22585779D02*
X6944706Y-22623875D01*
X6944706Y-22623875D02*
X6954229Y-22642922D01*
X6954229Y-22642922D02*
X6963753Y-22652446D01*
X6963753Y-22652446D02*
X6982801Y-22661970D01*
X6982801Y-22661970D02*
X7020896Y-22661970D01*
X7020896Y-22661970D02*
X7039944Y-22652446D01*
X7039944Y-22652446D02*
X7049468Y-22642922D01*
X7049468Y-22642922D02*
X7058991Y-22623875D01*
X7058991Y-22623875D02*
X7058991Y-22585779D01*
X7058991Y-22585779D02*
X7049468Y-22566732D01*
X7049468Y-22566732D02*
X7039944Y-22557208D01*
X7039944Y-22557208D02*
X7020896Y-22547684D01*
X7297087Y-22661970D02*
X7297087Y-22461970D01*
X7382801Y-22661970D02*
X7382801Y-22557208D01*
X7382801Y-22557208D02*
X7373277Y-22538160D01*
X7373277Y-22538160D02*
X7354230Y-22528637D01*
X7354230Y-22528637D02*
X7325658Y-22528637D01*
X7325658Y-22528637D02*
X7306610Y-22538160D01*
X7306610Y-22538160D02*
X7297087Y-22547684D01*
X7506610Y-22661970D02*
X7487563Y-22652446D01*
X7487563Y-22652446D02*
X7478039Y-22642922D01*
X7478039Y-22642922D02*
X7468515Y-22623875D01*
X7468515Y-22623875D02*
X7468515Y-22566732D01*
X7468515Y-22566732D02*
X7478039Y-22547684D01*
X7478039Y-22547684D02*
X7487563Y-22538160D01*
X7487563Y-22538160D02*
X7506610Y-22528637D01*
X7506610Y-22528637D02*
X7535182Y-22528637D01*
X7535182Y-22528637D02*
X7554230Y-22538160D01*
X7554230Y-22538160D02*
X7563753Y-22547684D01*
X7563753Y-22547684D02*
X7573277Y-22566732D01*
X7573277Y-22566732D02*
X7573277Y-22623875D01*
X7573277Y-22623875D02*
X7563753Y-22642922D01*
X7563753Y-22642922D02*
X7554230Y-22652446D01*
X7554230Y-22652446D02*
X7535182Y-22661970D01*
X7535182Y-22661970D02*
X7506610Y-22661970D01*
X7687563Y-22661970D02*
X7668515Y-22652446D01*
X7668515Y-22652446D02*
X7658991Y-22633398D01*
X7658991Y-22633398D02*
X7658991Y-22461970D01*
X7839944Y-22652446D02*
X7820896Y-22661970D01*
X7820896Y-22661970D02*
X7782801Y-22661970D01*
X7782801Y-22661970D02*
X7763753Y-22652446D01*
X7763753Y-22652446D02*
X7754230Y-22633398D01*
X7754230Y-22633398D02*
X7754230Y-22557208D01*
X7754230Y-22557208D02*
X7763753Y-22538160D01*
X7763753Y-22538160D02*
X7782801Y-22528637D01*
X7782801Y-22528637D02*
X7820896Y-22528637D01*
X7820896Y-22528637D02*
X7839944Y-22538160D01*
X7839944Y-22538160D02*
X7849468Y-22557208D01*
X7849468Y-22557208D02*
X7849468Y-22576256D01*
X7849468Y-22576256D02*
X7754230Y-22595303D01*
X7925658Y-22652446D02*
X7944706Y-22661970D01*
X7944706Y-22661970D02*
X7982801Y-22661970D01*
X7982801Y-22661970D02*
X8001849Y-22652446D01*
X8001849Y-22652446D02*
X8011372Y-22633398D01*
X8011372Y-22633398D02*
X8011372Y-22623875D01*
X8011372Y-22623875D02*
X8001849Y-22604827D01*
X8001849Y-22604827D02*
X7982801Y-22595303D01*
X7982801Y-22595303D02*
X7954230Y-22595303D01*
X7954230Y-22595303D02*
X7935182Y-22585779D01*
X7935182Y-22585779D02*
X7925658Y-22566732D01*
X7925658Y-22566732D02*
X7925658Y-22557208D01*
X7925658Y-22557208D02*
X7935182Y-22538160D01*
X7935182Y-22538160D02*
X7954230Y-22528637D01*
X7954230Y-22528637D02*
X7982801Y-22528637D01*
X7982801Y-22528637D02*
X8001849Y-22538160D01*
X8078039Y-22738160D02*
X8087563Y-22728637D01*
X8087563Y-22728637D02*
X8106611Y-22700065D01*
X8106611Y-22700065D02*
X8116134Y-22681018D01*
X8116134Y-22681018D02*
X8125658Y-22652446D01*
X8125658Y-22652446D02*
X8135182Y-22604827D01*
X8135182Y-22604827D02*
X8135182Y-22566732D01*
X8135182Y-22566732D02*
X8125658Y-22519113D01*
X8125658Y-22519113D02*
X8116134Y-22490541D01*
X8116134Y-22490541D02*
X8106611Y-22471494D01*
X8106611Y-22471494D02*
X8087563Y-22442922D01*
X8087563Y-22442922D02*
X8078039Y-22433398D01*
D13*
X3112500Y-22834486D02*
G75*
G03*
X3112500Y-22834486I-15000J0D01*
G01*
D11*
X3411372Y-22725970D02*
X3430420Y-22725970D01*
X3430420Y-22725970D02*
X3449467Y-22735494D01*
X3449467Y-22735494D02*
X3458991Y-22745018D01*
X3458991Y-22745018D02*
X3468515Y-22764065D01*
X3468515Y-22764065D02*
X3478039Y-22802160D01*
X3478039Y-22802160D02*
X3478039Y-22849779D01*
X3478039Y-22849779D02*
X3468515Y-22887875D01*
X3468515Y-22887875D02*
X3458991Y-22906922D01*
X3458991Y-22906922D02*
X3449467Y-22916446D01*
X3449467Y-22916446D02*
X3430420Y-22925970D01*
X3430420Y-22925970D02*
X3411372Y-22925970D01*
X3411372Y-22925970D02*
X3392324Y-22916446D01*
X3392324Y-22916446D02*
X3382801Y-22906922D01*
X3382801Y-22906922D02*
X3373277Y-22887875D01*
X3373277Y-22887875D02*
X3363753Y-22849779D01*
X3363753Y-22849779D02*
X3363753Y-22802160D01*
X3363753Y-22802160D02*
X3373277Y-22764065D01*
X3373277Y-22764065D02*
X3382801Y-22745018D01*
X3382801Y-22745018D02*
X3392324Y-22735494D01*
X3392324Y-22735494D02*
X3411372Y-22725970D01*
X3563753Y-22906922D02*
X3573277Y-22916446D01*
X3573277Y-22916446D02*
X3563753Y-22925970D01*
X3563753Y-22925970D02*
X3554229Y-22916446D01*
X3554229Y-22916446D02*
X3563753Y-22906922D01*
X3563753Y-22906922D02*
X3563753Y-22925970D01*
X3639943Y-22725970D02*
X3763753Y-22725970D01*
X3763753Y-22725970D02*
X3697086Y-22802160D01*
X3697086Y-22802160D02*
X3725658Y-22802160D01*
X3725658Y-22802160D02*
X3744705Y-22811684D01*
X3744705Y-22811684D02*
X3754229Y-22821208D01*
X3754229Y-22821208D02*
X3763753Y-22840256D01*
X3763753Y-22840256D02*
X3763753Y-22887875D01*
X3763753Y-22887875D02*
X3754229Y-22906922D01*
X3754229Y-22906922D02*
X3744705Y-22916446D01*
X3744705Y-22916446D02*
X3725658Y-22925970D01*
X3725658Y-22925970D02*
X3668515Y-22925970D01*
X3668515Y-22925970D02*
X3649467Y-22916446D01*
X3649467Y-22916446D02*
X3639943Y-22906922D01*
X3887562Y-22725970D02*
X3906610Y-22725970D01*
X3906610Y-22725970D02*
X3925658Y-22735494D01*
X3925658Y-22735494D02*
X3935182Y-22745018D01*
X3935182Y-22745018D02*
X3944705Y-22764065D01*
X3944705Y-22764065D02*
X3954229Y-22802160D01*
X3954229Y-22802160D02*
X3954229Y-22849779D01*
X3954229Y-22849779D02*
X3944705Y-22887875D01*
X3944705Y-22887875D02*
X3935182Y-22906922D01*
X3935182Y-22906922D02*
X3925658Y-22916446D01*
X3925658Y-22916446D02*
X3906610Y-22925970D01*
X3906610Y-22925970D02*
X3887562Y-22925970D01*
X3887562Y-22925970D02*
X3868515Y-22916446D01*
X3868515Y-22916446D02*
X3858991Y-22906922D01*
X3858991Y-22906922D02*
X3849467Y-22887875D01*
X3849467Y-22887875D02*
X3839943Y-22849779D01*
X3839943Y-22849779D02*
X3839943Y-22802160D01*
X3839943Y-22802160D02*
X3849467Y-22764065D01*
X3849467Y-22764065D02*
X3858991Y-22745018D01*
X3858991Y-22745018D02*
X3868515Y-22735494D01*
X3868515Y-22735494D02*
X3887562Y-22725970D01*
X4078039Y-22725970D02*
X4097086Y-22725970D01*
X4097086Y-22725970D02*
X4116134Y-22735494D01*
X4116134Y-22735494D02*
X4125658Y-22745018D01*
X4125658Y-22745018D02*
X4135182Y-22764065D01*
X4135182Y-22764065D02*
X4144705Y-22802160D01*
X4144705Y-22802160D02*
X4144705Y-22849779D01*
X4144705Y-22849779D02*
X4135182Y-22887875D01*
X4135182Y-22887875D02*
X4125658Y-22906922D01*
X4125658Y-22906922D02*
X4116134Y-22916446D01*
X4116134Y-22916446D02*
X4097086Y-22925970D01*
X4097086Y-22925970D02*
X4078039Y-22925970D01*
X4078039Y-22925970D02*
X4058991Y-22916446D01*
X4058991Y-22916446D02*
X4049467Y-22906922D01*
X4049467Y-22906922D02*
X4039943Y-22887875D01*
X4039943Y-22887875D02*
X4030420Y-22849779D01*
X4030420Y-22849779D02*
X4030420Y-22802160D01*
X4030420Y-22802160D02*
X4039943Y-22764065D01*
X4039943Y-22764065D02*
X4049467Y-22745018D01*
X4049467Y-22745018D02*
X4058991Y-22735494D01*
X4058991Y-22735494D02*
X4078039Y-22725970D01*
X4230420Y-22925970D02*
X4230420Y-22792637D01*
X4230420Y-22811684D02*
X4239944Y-22802160D01*
X4239944Y-22802160D02*
X4258991Y-22792637D01*
X4258991Y-22792637D02*
X4287563Y-22792637D01*
X4287563Y-22792637D02*
X4306610Y-22802160D01*
X4306610Y-22802160D02*
X4316134Y-22821208D01*
X4316134Y-22821208D02*
X4316134Y-22925970D01*
X4316134Y-22821208D02*
X4325658Y-22802160D01*
X4325658Y-22802160D02*
X4344705Y-22792637D01*
X4344705Y-22792637D02*
X4373277Y-22792637D01*
X4373277Y-22792637D02*
X4392325Y-22802160D01*
X4392325Y-22802160D02*
X4401848Y-22821208D01*
X4401848Y-22821208D02*
X4401848Y-22925970D01*
X4497086Y-22925970D02*
X4497086Y-22792637D01*
X4497086Y-22811684D02*
X4506610Y-22802160D01*
X4506610Y-22802160D02*
X4525658Y-22792637D01*
X4525658Y-22792637D02*
X4554229Y-22792637D01*
X4554229Y-22792637D02*
X4573277Y-22802160D01*
X4573277Y-22802160D02*
X4582801Y-22821208D01*
X4582801Y-22821208D02*
X4582801Y-22925970D01*
X4582801Y-22821208D02*
X4592325Y-22802160D01*
X4592325Y-22802160D02*
X4611372Y-22792637D01*
X4611372Y-22792637D02*
X4639944Y-22792637D01*
X4639944Y-22792637D02*
X4658991Y-22802160D01*
X4658991Y-22802160D02*
X4668515Y-22821208D01*
X4668515Y-22821208D02*
X4668515Y-22925970D01*
X5058991Y-22716446D02*
X4887563Y-22973589D01*
X5316134Y-22725970D02*
X5335182Y-22725970D01*
X5335182Y-22725970D02*
X5354229Y-22735494D01*
X5354229Y-22735494D02*
X5363753Y-22745018D01*
X5363753Y-22745018D02*
X5373277Y-22764065D01*
X5373277Y-22764065D02*
X5382801Y-22802160D01*
X5382801Y-22802160D02*
X5382801Y-22849779D01*
X5382801Y-22849779D02*
X5373277Y-22887875D01*
X5373277Y-22887875D02*
X5363753Y-22906922D01*
X5363753Y-22906922D02*
X5354229Y-22916446D01*
X5354229Y-22916446D02*
X5335182Y-22925970D01*
X5335182Y-22925970D02*
X5316134Y-22925970D01*
X5316134Y-22925970D02*
X5297087Y-22916446D01*
X5297087Y-22916446D02*
X5287563Y-22906922D01*
X5287563Y-22906922D02*
X5278039Y-22887875D01*
X5278039Y-22887875D02*
X5268515Y-22849779D01*
X5268515Y-22849779D02*
X5268515Y-22802160D01*
X5268515Y-22802160D02*
X5278039Y-22764065D01*
X5278039Y-22764065D02*
X5287563Y-22745018D01*
X5287563Y-22745018D02*
X5297087Y-22735494D01*
X5297087Y-22735494D02*
X5316134Y-22725970D01*
X5468515Y-22906922D02*
X5478039Y-22916446D01*
X5478039Y-22916446D02*
X5468515Y-22925970D01*
X5468515Y-22925970D02*
X5458991Y-22916446D01*
X5458991Y-22916446D02*
X5468515Y-22906922D01*
X5468515Y-22906922D02*
X5468515Y-22925970D01*
X5601848Y-22725970D02*
X5620896Y-22725970D01*
X5620896Y-22725970D02*
X5639944Y-22735494D01*
X5639944Y-22735494D02*
X5649467Y-22745018D01*
X5649467Y-22745018D02*
X5658991Y-22764065D01*
X5658991Y-22764065D02*
X5668515Y-22802160D01*
X5668515Y-22802160D02*
X5668515Y-22849779D01*
X5668515Y-22849779D02*
X5658991Y-22887875D01*
X5658991Y-22887875D02*
X5649467Y-22906922D01*
X5649467Y-22906922D02*
X5639944Y-22916446D01*
X5639944Y-22916446D02*
X5620896Y-22925970D01*
X5620896Y-22925970D02*
X5601848Y-22925970D01*
X5601848Y-22925970D02*
X5582801Y-22916446D01*
X5582801Y-22916446D02*
X5573277Y-22906922D01*
X5573277Y-22906922D02*
X5563753Y-22887875D01*
X5563753Y-22887875D02*
X5554229Y-22849779D01*
X5554229Y-22849779D02*
X5554229Y-22802160D01*
X5554229Y-22802160D02*
X5563753Y-22764065D01*
X5563753Y-22764065D02*
X5573277Y-22745018D01*
X5573277Y-22745018D02*
X5582801Y-22735494D01*
X5582801Y-22735494D02*
X5601848Y-22725970D01*
X5858991Y-22925970D02*
X5744706Y-22925970D01*
X5801848Y-22925970D02*
X5801848Y-22725970D01*
X5801848Y-22725970D02*
X5782801Y-22754541D01*
X5782801Y-22754541D02*
X5763753Y-22773589D01*
X5763753Y-22773589D02*
X5744706Y-22783113D01*
X6049467Y-22925970D02*
X5935182Y-22925970D01*
X5992325Y-22925970D02*
X5992325Y-22725970D01*
X5992325Y-22725970D02*
X5973277Y-22754541D01*
X5973277Y-22754541D02*
X5954229Y-22773589D01*
X5954229Y-22773589D02*
X5935182Y-22783113D01*
X6163753Y-22811684D02*
X6144706Y-22802160D01*
X6144706Y-22802160D02*
X6135182Y-22792637D01*
X6135182Y-22792637D02*
X6125658Y-22773589D01*
X6125658Y-22773589D02*
X6125658Y-22764065D01*
X6125658Y-22764065D02*
X6135182Y-22745018D01*
X6135182Y-22745018D02*
X6144706Y-22735494D01*
X6144706Y-22735494D02*
X6163753Y-22725970D01*
X6163753Y-22725970D02*
X6201848Y-22725970D01*
X6201848Y-22725970D02*
X6220896Y-22735494D01*
X6220896Y-22735494D02*
X6230420Y-22745018D01*
X6230420Y-22745018D02*
X6239944Y-22764065D01*
X6239944Y-22764065D02*
X6239944Y-22773589D01*
X6239944Y-22773589D02*
X6230420Y-22792637D01*
X6230420Y-22792637D02*
X6220896Y-22802160D01*
X6220896Y-22802160D02*
X6201848Y-22811684D01*
X6201848Y-22811684D02*
X6163753Y-22811684D01*
X6163753Y-22811684D02*
X6144706Y-22821208D01*
X6144706Y-22821208D02*
X6135182Y-22830732D01*
X6135182Y-22830732D02*
X6125658Y-22849779D01*
X6125658Y-22849779D02*
X6125658Y-22887875D01*
X6125658Y-22887875D02*
X6135182Y-22906922D01*
X6135182Y-22906922D02*
X6144706Y-22916446D01*
X6144706Y-22916446D02*
X6163753Y-22925970D01*
X6163753Y-22925970D02*
X6201848Y-22925970D01*
X6201848Y-22925970D02*
X6220896Y-22916446D01*
X6220896Y-22916446D02*
X6230420Y-22906922D01*
X6230420Y-22906922D02*
X6239944Y-22887875D01*
X6239944Y-22887875D02*
X6239944Y-22849779D01*
X6239944Y-22849779D02*
X6230420Y-22830732D01*
X6230420Y-22830732D02*
X6220896Y-22821208D01*
X6220896Y-22821208D02*
X6201848Y-22811684D01*
X6316134Y-22725970D02*
X6316134Y-22764065D01*
X6392325Y-22725970D02*
X6392325Y-22764065D01*
X6687563Y-23002160D02*
X6678039Y-22992637D01*
X6678039Y-22992637D02*
X6658991Y-22964065D01*
X6658991Y-22964065D02*
X6649468Y-22945018D01*
X6649468Y-22945018D02*
X6639944Y-22916446D01*
X6639944Y-22916446D02*
X6630420Y-22868827D01*
X6630420Y-22868827D02*
X6630420Y-22830732D01*
X6630420Y-22830732D02*
X6639944Y-22783113D01*
X6639944Y-22783113D02*
X6649468Y-22754541D01*
X6649468Y-22754541D02*
X6658991Y-22735494D01*
X6658991Y-22735494D02*
X6678039Y-22706922D01*
X6678039Y-22706922D02*
X6687563Y-22697398D01*
X6744706Y-22725970D02*
X6878039Y-22725970D01*
X6878039Y-22725970D02*
X6792325Y-22925970D01*
X7039944Y-22792637D02*
X7039944Y-22925970D01*
X6992325Y-22716446D02*
X6944706Y-22859303D01*
X6944706Y-22859303D02*
X7068515Y-22859303D01*
X7154229Y-22925970D02*
X7192325Y-22925970D01*
X7192325Y-22925970D02*
X7211372Y-22916446D01*
X7211372Y-22916446D02*
X7220896Y-22906922D01*
X7220896Y-22906922D02*
X7239944Y-22878351D01*
X7239944Y-22878351D02*
X7249468Y-22840256D01*
X7249468Y-22840256D02*
X7249468Y-22764065D01*
X7249468Y-22764065D02*
X7239944Y-22745018D01*
X7239944Y-22745018D02*
X7230420Y-22735494D01*
X7230420Y-22735494D02*
X7211372Y-22725970D01*
X7211372Y-22725970D02*
X7173277Y-22725970D01*
X7173277Y-22725970D02*
X7154229Y-22735494D01*
X7154229Y-22735494D02*
X7144706Y-22745018D01*
X7144706Y-22745018D02*
X7135182Y-22764065D01*
X7135182Y-22764065D02*
X7135182Y-22811684D01*
X7135182Y-22811684D02*
X7144706Y-22830732D01*
X7144706Y-22830732D02*
X7154229Y-22840256D01*
X7154229Y-22840256D02*
X7173277Y-22849779D01*
X7173277Y-22849779D02*
X7211372Y-22849779D01*
X7211372Y-22849779D02*
X7230420Y-22840256D01*
X7230420Y-22840256D02*
X7239944Y-22830732D01*
X7239944Y-22830732D02*
X7249468Y-22811684D01*
X7487563Y-22925970D02*
X7487563Y-22725970D01*
X7573277Y-22925970D02*
X7573277Y-22821208D01*
X7573277Y-22821208D02*
X7563753Y-22802160D01*
X7563753Y-22802160D02*
X7544706Y-22792637D01*
X7544706Y-22792637D02*
X7516134Y-22792637D01*
X7516134Y-22792637D02*
X7497087Y-22802160D01*
X7497087Y-22802160D02*
X7487563Y-22811684D01*
X7697087Y-22925970D02*
X7678039Y-22916446D01*
X7678039Y-22916446D02*
X7668515Y-22906922D01*
X7668515Y-22906922D02*
X7658991Y-22887875D01*
X7658991Y-22887875D02*
X7658991Y-22830732D01*
X7658991Y-22830732D02*
X7668515Y-22811684D01*
X7668515Y-22811684D02*
X7678039Y-22802160D01*
X7678039Y-22802160D02*
X7697087Y-22792637D01*
X7697087Y-22792637D02*
X7725658Y-22792637D01*
X7725658Y-22792637D02*
X7744706Y-22802160D01*
X7744706Y-22802160D02*
X7754230Y-22811684D01*
X7754230Y-22811684D02*
X7763753Y-22830732D01*
X7763753Y-22830732D02*
X7763753Y-22887875D01*
X7763753Y-22887875D02*
X7754230Y-22906922D01*
X7754230Y-22906922D02*
X7744706Y-22916446D01*
X7744706Y-22916446D02*
X7725658Y-22925970D01*
X7725658Y-22925970D02*
X7697087Y-22925970D01*
X7878039Y-22925970D02*
X7858991Y-22916446D01*
X7858991Y-22916446D02*
X7849468Y-22897398D01*
X7849468Y-22897398D02*
X7849468Y-22725970D01*
X8030420Y-22916446D02*
X8011372Y-22925970D01*
X8011372Y-22925970D02*
X7973277Y-22925970D01*
X7973277Y-22925970D02*
X7954230Y-22916446D01*
X7954230Y-22916446D02*
X7944706Y-22897398D01*
X7944706Y-22897398D02*
X7944706Y-22821208D01*
X7944706Y-22821208D02*
X7954230Y-22802160D01*
X7954230Y-22802160D02*
X7973277Y-22792637D01*
X7973277Y-22792637D02*
X8011372Y-22792637D01*
X8011372Y-22792637D02*
X8030420Y-22802160D01*
X8030420Y-22802160D02*
X8039944Y-22821208D01*
X8039944Y-22821208D02*
X8039944Y-22840256D01*
X8039944Y-22840256D02*
X7944706Y-22859303D01*
X8116134Y-22916446D02*
X8135182Y-22925970D01*
X8135182Y-22925970D02*
X8173277Y-22925970D01*
X8173277Y-22925970D02*
X8192325Y-22916446D01*
X8192325Y-22916446D02*
X8201849Y-22897398D01*
X8201849Y-22897398D02*
X8201849Y-22887875D01*
X8201849Y-22887875D02*
X8192325Y-22868827D01*
X8192325Y-22868827D02*
X8173277Y-22859303D01*
X8173277Y-22859303D02*
X8144706Y-22859303D01*
X8144706Y-22859303D02*
X8125658Y-22849779D01*
X8125658Y-22849779D02*
X8116134Y-22830732D01*
X8116134Y-22830732D02*
X8116134Y-22821208D01*
X8116134Y-22821208D02*
X8125658Y-22802160D01*
X8125658Y-22802160D02*
X8144706Y-22792637D01*
X8144706Y-22792637D02*
X8173277Y-22792637D01*
X8173277Y-22792637D02*
X8192325Y-22802160D01*
X8268515Y-23002160D02*
X8278039Y-22992637D01*
X8278039Y-22992637D02*
X8297087Y-22964065D01*
X8297087Y-22964065D02*
X8306611Y-22945018D01*
X8306611Y-22945018D02*
X8316134Y-22916446D01*
X8316134Y-22916446D02*
X8325658Y-22868827D01*
X8325658Y-22868827D02*
X8325658Y-22830732D01*
X8325658Y-22830732D02*
X8316134Y-22783113D01*
X8316134Y-22783113D02*
X8306611Y-22754541D01*
X8306611Y-22754541D02*
X8297087Y-22735494D01*
X8297087Y-22735494D02*
X8278039Y-22706922D01*
X8278039Y-22706922D02*
X8268515Y-22697398D01*
D14*
X3074400Y-23060386D02*
X3074400Y-23136586D01*
X3036300Y-23098486D02*
X3112500Y-23098486D01*
D11*
X3411372Y-22989970D02*
X3430420Y-22989970D01*
X3430420Y-22989970D02*
X3449467Y-22999494D01*
X3449467Y-22999494D02*
X3458991Y-23009018D01*
X3458991Y-23009018D02*
X3468515Y-23028065D01*
X3468515Y-23028065D02*
X3478039Y-23066160D01*
X3478039Y-23066160D02*
X3478039Y-23113779D01*
X3478039Y-23113779D02*
X3468515Y-23151875D01*
X3468515Y-23151875D02*
X3458991Y-23170922D01*
X3458991Y-23170922D02*
X3449467Y-23180446D01*
X3449467Y-23180446D02*
X3430420Y-23189970D01*
X3430420Y-23189970D02*
X3411372Y-23189970D01*
X3411372Y-23189970D02*
X3392324Y-23180446D01*
X3392324Y-23180446D02*
X3382801Y-23170922D01*
X3382801Y-23170922D02*
X3373277Y-23151875D01*
X3373277Y-23151875D02*
X3363753Y-23113779D01*
X3363753Y-23113779D02*
X3363753Y-23066160D01*
X3363753Y-23066160D02*
X3373277Y-23028065D01*
X3373277Y-23028065D02*
X3382801Y-23009018D01*
X3382801Y-23009018D02*
X3392324Y-22999494D01*
X3392324Y-22999494D02*
X3411372Y-22989970D01*
X3563753Y-23170922D02*
X3573277Y-23180446D01*
X3573277Y-23180446D02*
X3563753Y-23189970D01*
X3563753Y-23189970D02*
X3554229Y-23180446D01*
X3554229Y-23180446D02*
X3563753Y-23170922D01*
X3563753Y-23170922D02*
X3563753Y-23189970D01*
X3639943Y-22989970D02*
X3773277Y-22989970D01*
X3773277Y-22989970D02*
X3687562Y-23189970D01*
X3935182Y-22989970D02*
X3897086Y-22989970D01*
X3897086Y-22989970D02*
X3878039Y-22999494D01*
X3878039Y-22999494D02*
X3868515Y-23009018D01*
X3868515Y-23009018D02*
X3849467Y-23037589D01*
X3849467Y-23037589D02*
X3839943Y-23075684D01*
X3839943Y-23075684D02*
X3839943Y-23151875D01*
X3839943Y-23151875D02*
X3849467Y-23170922D01*
X3849467Y-23170922D02*
X3858991Y-23180446D01*
X3858991Y-23180446D02*
X3878039Y-23189970D01*
X3878039Y-23189970D02*
X3916134Y-23189970D01*
X3916134Y-23189970D02*
X3935182Y-23180446D01*
X3935182Y-23180446D02*
X3944705Y-23170922D01*
X3944705Y-23170922D02*
X3954229Y-23151875D01*
X3954229Y-23151875D02*
X3954229Y-23104256D01*
X3954229Y-23104256D02*
X3944705Y-23085208D01*
X3944705Y-23085208D02*
X3935182Y-23075684D01*
X3935182Y-23075684D02*
X3916134Y-23066160D01*
X3916134Y-23066160D02*
X3878039Y-23066160D01*
X3878039Y-23066160D02*
X3858991Y-23075684D01*
X3858991Y-23075684D02*
X3849467Y-23085208D01*
X3849467Y-23085208D02*
X3839943Y-23104256D01*
X4030420Y-23009018D02*
X4039943Y-22999494D01*
X4039943Y-22999494D02*
X4058991Y-22989970D01*
X4058991Y-22989970D02*
X4106610Y-22989970D01*
X4106610Y-22989970D02*
X4125658Y-22999494D01*
X4125658Y-22999494D02*
X4135182Y-23009018D01*
X4135182Y-23009018D02*
X4144705Y-23028065D01*
X4144705Y-23028065D02*
X4144705Y-23047113D01*
X4144705Y-23047113D02*
X4135182Y-23075684D01*
X4135182Y-23075684D02*
X4020896Y-23189970D01*
X4020896Y-23189970D02*
X4144705Y-23189970D01*
X4230420Y-23189970D02*
X4230420Y-23056637D01*
X4230420Y-23075684D02*
X4239944Y-23066160D01*
X4239944Y-23066160D02*
X4258991Y-23056637D01*
X4258991Y-23056637D02*
X4287563Y-23056637D01*
X4287563Y-23056637D02*
X4306610Y-23066160D01*
X4306610Y-23066160D02*
X4316134Y-23085208D01*
X4316134Y-23085208D02*
X4316134Y-23189970D01*
X4316134Y-23085208D02*
X4325658Y-23066160D01*
X4325658Y-23066160D02*
X4344705Y-23056637D01*
X4344705Y-23056637D02*
X4373277Y-23056637D01*
X4373277Y-23056637D02*
X4392325Y-23066160D01*
X4392325Y-23066160D02*
X4401848Y-23085208D01*
X4401848Y-23085208D02*
X4401848Y-23189970D01*
X4497086Y-23189970D02*
X4497086Y-23056637D01*
X4497086Y-23075684D02*
X4506610Y-23066160D01*
X4506610Y-23066160D02*
X4525658Y-23056637D01*
X4525658Y-23056637D02*
X4554229Y-23056637D01*
X4554229Y-23056637D02*
X4573277Y-23066160D01*
X4573277Y-23066160D02*
X4582801Y-23085208D01*
X4582801Y-23085208D02*
X4582801Y-23189970D01*
X4582801Y-23085208D02*
X4592325Y-23066160D01*
X4592325Y-23066160D02*
X4611372Y-23056637D01*
X4611372Y-23056637D02*
X4639944Y-23056637D01*
X4639944Y-23056637D02*
X4658991Y-23066160D01*
X4658991Y-23066160D02*
X4668515Y-23085208D01*
X4668515Y-23085208D02*
X4668515Y-23189970D01*
X5058991Y-22980446D02*
X4887563Y-23237589D01*
X5316134Y-22989970D02*
X5335182Y-22989970D01*
X5335182Y-22989970D02*
X5354229Y-22999494D01*
X5354229Y-22999494D02*
X5363753Y-23009018D01*
X5363753Y-23009018D02*
X5373277Y-23028065D01*
X5373277Y-23028065D02*
X5382801Y-23066160D01*
X5382801Y-23066160D02*
X5382801Y-23113779D01*
X5382801Y-23113779D02*
X5373277Y-23151875D01*
X5373277Y-23151875D02*
X5363753Y-23170922D01*
X5363753Y-23170922D02*
X5354229Y-23180446D01*
X5354229Y-23180446D02*
X5335182Y-23189970D01*
X5335182Y-23189970D02*
X5316134Y-23189970D01*
X5316134Y-23189970D02*
X5297087Y-23180446D01*
X5297087Y-23180446D02*
X5287563Y-23170922D01*
X5287563Y-23170922D02*
X5278039Y-23151875D01*
X5278039Y-23151875D02*
X5268515Y-23113779D01*
X5268515Y-23113779D02*
X5268515Y-23066160D01*
X5268515Y-23066160D02*
X5278039Y-23028065D01*
X5278039Y-23028065D02*
X5287563Y-23009018D01*
X5287563Y-23009018D02*
X5297087Y-22999494D01*
X5297087Y-22999494D02*
X5316134Y-22989970D01*
X5468515Y-23170922D02*
X5478039Y-23180446D01*
X5478039Y-23180446D02*
X5468515Y-23189970D01*
X5468515Y-23189970D02*
X5458991Y-23180446D01*
X5458991Y-23180446D02*
X5468515Y-23170922D01*
X5468515Y-23170922D02*
X5468515Y-23189970D01*
X5601848Y-22989970D02*
X5620896Y-22989970D01*
X5620896Y-22989970D02*
X5639944Y-22999494D01*
X5639944Y-22999494D02*
X5649467Y-23009018D01*
X5649467Y-23009018D02*
X5658991Y-23028065D01*
X5658991Y-23028065D02*
X5668515Y-23066160D01*
X5668515Y-23066160D02*
X5668515Y-23113779D01*
X5668515Y-23113779D02*
X5658991Y-23151875D01*
X5658991Y-23151875D02*
X5649467Y-23170922D01*
X5649467Y-23170922D02*
X5639944Y-23180446D01*
X5639944Y-23180446D02*
X5620896Y-23189970D01*
X5620896Y-23189970D02*
X5601848Y-23189970D01*
X5601848Y-23189970D02*
X5582801Y-23180446D01*
X5582801Y-23180446D02*
X5573277Y-23170922D01*
X5573277Y-23170922D02*
X5563753Y-23151875D01*
X5563753Y-23151875D02*
X5554229Y-23113779D01*
X5554229Y-23113779D02*
X5554229Y-23066160D01*
X5554229Y-23066160D02*
X5563753Y-23028065D01*
X5563753Y-23028065D02*
X5573277Y-23009018D01*
X5573277Y-23009018D02*
X5582801Y-22999494D01*
X5582801Y-22999494D02*
X5601848Y-22989970D01*
X5735182Y-22989970D02*
X5858991Y-22989970D01*
X5858991Y-22989970D02*
X5792325Y-23066160D01*
X5792325Y-23066160D02*
X5820896Y-23066160D01*
X5820896Y-23066160D02*
X5839944Y-23075684D01*
X5839944Y-23075684D02*
X5849467Y-23085208D01*
X5849467Y-23085208D02*
X5858991Y-23104256D01*
X5858991Y-23104256D02*
X5858991Y-23151875D01*
X5858991Y-23151875D02*
X5849467Y-23170922D01*
X5849467Y-23170922D02*
X5839944Y-23180446D01*
X5839944Y-23180446D02*
X5820896Y-23189970D01*
X5820896Y-23189970D02*
X5763753Y-23189970D01*
X5763753Y-23189970D02*
X5744706Y-23180446D01*
X5744706Y-23180446D02*
X5735182Y-23170922D01*
X5982801Y-22989970D02*
X6001848Y-22989970D01*
X6001848Y-22989970D02*
X6020896Y-22999494D01*
X6020896Y-22999494D02*
X6030420Y-23009018D01*
X6030420Y-23009018D02*
X6039944Y-23028065D01*
X6039944Y-23028065D02*
X6049467Y-23066160D01*
X6049467Y-23066160D02*
X6049467Y-23113779D01*
X6049467Y-23113779D02*
X6039944Y-23151875D01*
X6039944Y-23151875D02*
X6030420Y-23170922D01*
X6030420Y-23170922D02*
X6020896Y-23180446D01*
X6020896Y-23180446D02*
X6001848Y-23189970D01*
X6001848Y-23189970D02*
X5982801Y-23189970D01*
X5982801Y-23189970D02*
X5963753Y-23180446D01*
X5963753Y-23180446D02*
X5954229Y-23170922D01*
X5954229Y-23170922D02*
X5944706Y-23151875D01*
X5944706Y-23151875D02*
X5935182Y-23113779D01*
X5935182Y-23113779D02*
X5935182Y-23066160D01*
X5935182Y-23066160D02*
X5944706Y-23028065D01*
X5944706Y-23028065D02*
X5954229Y-23009018D01*
X5954229Y-23009018D02*
X5963753Y-22999494D01*
X5963753Y-22999494D02*
X5982801Y-22989970D01*
X6173277Y-22989970D02*
X6192325Y-22989970D01*
X6192325Y-22989970D02*
X6211372Y-22999494D01*
X6211372Y-22999494D02*
X6220896Y-23009018D01*
X6220896Y-23009018D02*
X6230420Y-23028065D01*
X6230420Y-23028065D02*
X6239944Y-23066160D01*
X6239944Y-23066160D02*
X6239944Y-23113779D01*
X6239944Y-23113779D02*
X6230420Y-23151875D01*
X6230420Y-23151875D02*
X6220896Y-23170922D01*
X6220896Y-23170922D02*
X6211372Y-23180446D01*
X6211372Y-23180446D02*
X6192325Y-23189970D01*
X6192325Y-23189970D02*
X6173277Y-23189970D01*
X6173277Y-23189970D02*
X6154229Y-23180446D01*
X6154229Y-23180446D02*
X6144706Y-23170922D01*
X6144706Y-23170922D02*
X6135182Y-23151875D01*
X6135182Y-23151875D02*
X6125658Y-23113779D01*
X6125658Y-23113779D02*
X6125658Y-23066160D01*
X6125658Y-23066160D02*
X6135182Y-23028065D01*
X6135182Y-23028065D02*
X6144706Y-23009018D01*
X6144706Y-23009018D02*
X6154229Y-22999494D01*
X6154229Y-22999494D02*
X6173277Y-22989970D01*
X6316134Y-22989970D02*
X6316134Y-23028065D01*
X6392325Y-22989970D02*
X6392325Y-23028065D01*
X6687563Y-23266160D02*
X6678039Y-23256637D01*
X6678039Y-23256637D02*
X6658991Y-23228065D01*
X6658991Y-23228065D02*
X6649468Y-23209018D01*
X6649468Y-23209018D02*
X6639944Y-23180446D01*
X6639944Y-23180446D02*
X6630420Y-23132827D01*
X6630420Y-23132827D02*
X6630420Y-23094732D01*
X6630420Y-23094732D02*
X6639944Y-23047113D01*
X6639944Y-23047113D02*
X6649468Y-23018541D01*
X6649468Y-23018541D02*
X6658991Y-22999494D01*
X6658991Y-22999494D02*
X6678039Y-22970922D01*
X6678039Y-22970922D02*
X6687563Y-22961398D01*
X6849468Y-23056637D02*
X6849468Y-23189970D01*
X6801848Y-22980446D02*
X6754229Y-23123303D01*
X6754229Y-23123303D02*
X6878039Y-23123303D01*
X7106610Y-23189970D02*
X7106610Y-22989970D01*
X7192325Y-23189970D02*
X7192325Y-23085208D01*
X7192325Y-23085208D02*
X7182801Y-23066160D01*
X7182801Y-23066160D02*
X7163753Y-23056637D01*
X7163753Y-23056637D02*
X7135182Y-23056637D01*
X7135182Y-23056637D02*
X7116134Y-23066160D01*
X7116134Y-23066160D02*
X7106610Y-23075684D01*
X7316134Y-23189970D02*
X7297087Y-23180446D01*
X7297087Y-23180446D02*
X7287563Y-23170922D01*
X7287563Y-23170922D02*
X7278039Y-23151875D01*
X7278039Y-23151875D02*
X7278039Y-23094732D01*
X7278039Y-23094732D02*
X7287563Y-23075684D01*
X7287563Y-23075684D02*
X7297087Y-23066160D01*
X7297087Y-23066160D02*
X7316134Y-23056637D01*
X7316134Y-23056637D02*
X7344706Y-23056637D01*
X7344706Y-23056637D02*
X7363753Y-23066160D01*
X7363753Y-23066160D02*
X7373277Y-23075684D01*
X7373277Y-23075684D02*
X7382801Y-23094732D01*
X7382801Y-23094732D02*
X7382801Y-23151875D01*
X7382801Y-23151875D02*
X7373277Y-23170922D01*
X7373277Y-23170922D02*
X7363753Y-23180446D01*
X7363753Y-23180446D02*
X7344706Y-23189970D01*
X7344706Y-23189970D02*
X7316134Y-23189970D01*
X7497087Y-23189970D02*
X7478039Y-23180446D01*
X7478039Y-23180446D02*
X7468515Y-23161398D01*
X7468515Y-23161398D02*
X7468515Y-22989970D01*
X7649468Y-23180446D02*
X7630420Y-23189970D01*
X7630420Y-23189970D02*
X7592325Y-23189970D01*
X7592325Y-23189970D02*
X7573277Y-23180446D01*
X7573277Y-23180446D02*
X7563753Y-23161398D01*
X7563753Y-23161398D02*
X7563753Y-23085208D01*
X7563753Y-23085208D02*
X7573277Y-23066160D01*
X7573277Y-23066160D02*
X7592325Y-23056637D01*
X7592325Y-23056637D02*
X7630420Y-23056637D01*
X7630420Y-23056637D02*
X7649468Y-23066160D01*
X7649468Y-23066160D02*
X7658991Y-23085208D01*
X7658991Y-23085208D02*
X7658991Y-23104256D01*
X7658991Y-23104256D02*
X7563753Y-23123303D01*
X7735182Y-23180446D02*
X7754230Y-23189970D01*
X7754230Y-23189970D02*
X7792325Y-23189970D01*
X7792325Y-23189970D02*
X7811372Y-23180446D01*
X7811372Y-23180446D02*
X7820896Y-23161398D01*
X7820896Y-23161398D02*
X7820896Y-23151875D01*
X7820896Y-23151875D02*
X7811372Y-23132827D01*
X7811372Y-23132827D02*
X7792325Y-23123303D01*
X7792325Y-23123303D02*
X7763753Y-23123303D01*
X7763753Y-23123303D02*
X7744706Y-23113779D01*
X7744706Y-23113779D02*
X7735182Y-23094732D01*
X7735182Y-23094732D02*
X7735182Y-23085208D01*
X7735182Y-23085208D02*
X7744706Y-23066160D01*
X7744706Y-23066160D02*
X7763753Y-23056637D01*
X7763753Y-23056637D02*
X7792325Y-23056637D01*
X7792325Y-23056637D02*
X7811372Y-23066160D01*
X7887563Y-23266160D02*
X7897087Y-23256637D01*
X7897087Y-23256637D02*
X7916134Y-23228065D01*
X7916134Y-23228065D02*
X7925658Y-23209018D01*
X7925658Y-23209018D02*
X7935182Y-23180446D01*
X7935182Y-23180446D02*
X7944706Y-23132827D01*
X7944706Y-23132827D02*
X7944706Y-23094732D01*
X7944706Y-23094732D02*
X7935182Y-23047113D01*
X7935182Y-23047113D02*
X7925658Y-23018541D01*
X7925658Y-23018541D02*
X7916134Y-22999494D01*
X7916134Y-22999494D02*
X7897087Y-22970922D01*
X7897087Y-22970922D02*
X7887563Y-22961398D01*
D15*
X3098588Y-23396074D02*
X3098588Y-23328898D01*
X3031412Y-23328898D01*
X3031412Y-23396074D01*
X3098588Y-23396074D01*
D11*
X3411372Y-23253970D02*
X3430420Y-23253970D01*
X3430420Y-23253970D02*
X3449467Y-23263494D01*
X3449467Y-23263494D02*
X3458991Y-23273018D01*
X3458991Y-23273018D02*
X3468515Y-23292065D01*
X3468515Y-23292065D02*
X3478039Y-23330160D01*
X3478039Y-23330160D02*
X3478039Y-23377779D01*
X3478039Y-23377779D02*
X3468515Y-23415875D01*
X3468515Y-23415875D02*
X3458991Y-23434922D01*
X3458991Y-23434922D02*
X3449467Y-23444446D01*
X3449467Y-23444446D02*
X3430420Y-23453970D01*
X3430420Y-23453970D02*
X3411372Y-23453970D01*
X3411372Y-23453970D02*
X3392324Y-23444446D01*
X3392324Y-23444446D02*
X3382801Y-23434922D01*
X3382801Y-23434922D02*
X3373277Y-23415875D01*
X3373277Y-23415875D02*
X3363753Y-23377779D01*
X3363753Y-23377779D02*
X3363753Y-23330160D01*
X3363753Y-23330160D02*
X3373277Y-23292065D01*
X3373277Y-23292065D02*
X3382801Y-23273018D01*
X3382801Y-23273018D02*
X3392324Y-23263494D01*
X3392324Y-23263494D02*
X3411372Y-23253970D01*
X3563753Y-23434922D02*
X3573277Y-23444446D01*
X3573277Y-23444446D02*
X3563753Y-23453970D01*
X3563753Y-23453970D02*
X3554229Y-23444446D01*
X3554229Y-23444446D02*
X3563753Y-23434922D01*
X3563753Y-23434922D02*
X3563753Y-23453970D01*
X3668515Y-23453970D02*
X3706610Y-23453970D01*
X3706610Y-23453970D02*
X3725658Y-23444446D01*
X3725658Y-23444446D02*
X3735182Y-23434922D01*
X3735182Y-23434922D02*
X3754229Y-23406351D01*
X3754229Y-23406351D02*
X3763753Y-23368256D01*
X3763753Y-23368256D02*
X3763753Y-23292065D01*
X3763753Y-23292065D02*
X3754229Y-23273018D01*
X3754229Y-23273018D02*
X3744705Y-23263494D01*
X3744705Y-23263494D02*
X3725658Y-23253970D01*
X3725658Y-23253970D02*
X3687562Y-23253970D01*
X3687562Y-23253970D02*
X3668515Y-23263494D01*
X3668515Y-23263494D02*
X3658991Y-23273018D01*
X3658991Y-23273018D02*
X3649467Y-23292065D01*
X3649467Y-23292065D02*
X3649467Y-23339684D01*
X3649467Y-23339684D02*
X3658991Y-23358732D01*
X3658991Y-23358732D02*
X3668515Y-23368256D01*
X3668515Y-23368256D02*
X3687562Y-23377779D01*
X3687562Y-23377779D02*
X3725658Y-23377779D01*
X3725658Y-23377779D02*
X3744705Y-23368256D01*
X3744705Y-23368256D02*
X3754229Y-23358732D01*
X3754229Y-23358732D02*
X3763753Y-23339684D01*
X3944705Y-23253970D02*
X3849467Y-23253970D01*
X3849467Y-23253970D02*
X3839943Y-23349208D01*
X3839943Y-23349208D02*
X3849467Y-23339684D01*
X3849467Y-23339684D02*
X3868515Y-23330160D01*
X3868515Y-23330160D02*
X3916134Y-23330160D01*
X3916134Y-23330160D02*
X3935182Y-23339684D01*
X3935182Y-23339684D02*
X3944705Y-23349208D01*
X3944705Y-23349208D02*
X3954229Y-23368256D01*
X3954229Y-23368256D02*
X3954229Y-23415875D01*
X3954229Y-23415875D02*
X3944705Y-23434922D01*
X3944705Y-23434922D02*
X3935182Y-23444446D01*
X3935182Y-23444446D02*
X3916134Y-23453970D01*
X3916134Y-23453970D02*
X3868515Y-23453970D01*
X3868515Y-23453970D02*
X3849467Y-23444446D01*
X3849467Y-23444446D02*
X3839943Y-23434922D01*
X4078039Y-23253970D02*
X4097086Y-23253970D01*
X4097086Y-23253970D02*
X4116134Y-23263494D01*
X4116134Y-23263494D02*
X4125658Y-23273018D01*
X4125658Y-23273018D02*
X4135182Y-23292065D01*
X4135182Y-23292065D02*
X4144705Y-23330160D01*
X4144705Y-23330160D02*
X4144705Y-23377779D01*
X4144705Y-23377779D02*
X4135182Y-23415875D01*
X4135182Y-23415875D02*
X4125658Y-23434922D01*
X4125658Y-23434922D02*
X4116134Y-23444446D01*
X4116134Y-23444446D02*
X4097086Y-23453970D01*
X4097086Y-23453970D02*
X4078039Y-23453970D01*
X4078039Y-23453970D02*
X4058991Y-23444446D01*
X4058991Y-23444446D02*
X4049467Y-23434922D01*
X4049467Y-23434922D02*
X4039943Y-23415875D01*
X4039943Y-23415875D02*
X4030420Y-23377779D01*
X4030420Y-23377779D02*
X4030420Y-23330160D01*
X4030420Y-23330160D02*
X4039943Y-23292065D01*
X4039943Y-23292065D02*
X4049467Y-23273018D01*
X4049467Y-23273018D02*
X4058991Y-23263494D01*
X4058991Y-23263494D02*
X4078039Y-23253970D01*
X4230420Y-23453970D02*
X4230420Y-23320637D01*
X4230420Y-23339684D02*
X4239944Y-23330160D01*
X4239944Y-23330160D02*
X4258991Y-23320637D01*
X4258991Y-23320637D02*
X4287563Y-23320637D01*
X4287563Y-23320637D02*
X4306610Y-23330160D01*
X4306610Y-23330160D02*
X4316134Y-23349208D01*
X4316134Y-23349208D02*
X4316134Y-23453970D01*
X4316134Y-23349208D02*
X4325658Y-23330160D01*
X4325658Y-23330160D02*
X4344705Y-23320637D01*
X4344705Y-23320637D02*
X4373277Y-23320637D01*
X4373277Y-23320637D02*
X4392325Y-23330160D01*
X4392325Y-23330160D02*
X4401848Y-23349208D01*
X4401848Y-23349208D02*
X4401848Y-23453970D01*
X4497086Y-23453970D02*
X4497086Y-23320637D01*
X4497086Y-23339684D02*
X4506610Y-23330160D01*
X4506610Y-23330160D02*
X4525658Y-23320637D01*
X4525658Y-23320637D02*
X4554229Y-23320637D01*
X4554229Y-23320637D02*
X4573277Y-23330160D01*
X4573277Y-23330160D02*
X4582801Y-23349208D01*
X4582801Y-23349208D02*
X4582801Y-23453970D01*
X4582801Y-23349208D02*
X4592325Y-23330160D01*
X4592325Y-23330160D02*
X4611372Y-23320637D01*
X4611372Y-23320637D02*
X4639944Y-23320637D01*
X4639944Y-23320637D02*
X4658991Y-23330160D01*
X4658991Y-23330160D02*
X4668515Y-23349208D01*
X4668515Y-23349208D02*
X4668515Y-23453970D01*
X5058991Y-23244446D02*
X4887563Y-23501589D01*
X5316134Y-23253970D02*
X5335182Y-23253970D01*
X5335182Y-23253970D02*
X5354229Y-23263494D01*
X5354229Y-23263494D02*
X5363753Y-23273018D01*
X5363753Y-23273018D02*
X5373277Y-23292065D01*
X5373277Y-23292065D02*
X5382801Y-23330160D01*
X5382801Y-23330160D02*
X5382801Y-23377779D01*
X5382801Y-23377779D02*
X5373277Y-23415875D01*
X5373277Y-23415875D02*
X5363753Y-23434922D01*
X5363753Y-23434922D02*
X5354229Y-23444446D01*
X5354229Y-23444446D02*
X5335182Y-23453970D01*
X5335182Y-23453970D02*
X5316134Y-23453970D01*
X5316134Y-23453970D02*
X5297087Y-23444446D01*
X5297087Y-23444446D02*
X5287563Y-23434922D01*
X5287563Y-23434922D02*
X5278039Y-23415875D01*
X5278039Y-23415875D02*
X5268515Y-23377779D01*
X5268515Y-23377779D02*
X5268515Y-23330160D01*
X5268515Y-23330160D02*
X5278039Y-23292065D01*
X5278039Y-23292065D02*
X5287563Y-23273018D01*
X5287563Y-23273018D02*
X5297087Y-23263494D01*
X5297087Y-23263494D02*
X5316134Y-23253970D01*
X5468515Y-23434922D02*
X5478039Y-23444446D01*
X5478039Y-23444446D02*
X5468515Y-23453970D01*
X5468515Y-23453970D02*
X5458991Y-23444446D01*
X5458991Y-23444446D02*
X5468515Y-23434922D01*
X5468515Y-23434922D02*
X5468515Y-23453970D01*
X5601848Y-23253970D02*
X5620896Y-23253970D01*
X5620896Y-23253970D02*
X5639944Y-23263494D01*
X5639944Y-23263494D02*
X5649467Y-23273018D01*
X5649467Y-23273018D02*
X5658991Y-23292065D01*
X5658991Y-23292065D02*
X5668515Y-23330160D01*
X5668515Y-23330160D02*
X5668515Y-23377779D01*
X5668515Y-23377779D02*
X5658991Y-23415875D01*
X5658991Y-23415875D02*
X5649467Y-23434922D01*
X5649467Y-23434922D02*
X5639944Y-23444446D01*
X5639944Y-23444446D02*
X5620896Y-23453970D01*
X5620896Y-23453970D02*
X5601848Y-23453970D01*
X5601848Y-23453970D02*
X5582801Y-23444446D01*
X5582801Y-23444446D02*
X5573277Y-23434922D01*
X5573277Y-23434922D02*
X5563753Y-23415875D01*
X5563753Y-23415875D02*
X5554229Y-23377779D01*
X5554229Y-23377779D02*
X5554229Y-23330160D01*
X5554229Y-23330160D02*
X5563753Y-23292065D01*
X5563753Y-23292065D02*
X5573277Y-23273018D01*
X5573277Y-23273018D02*
X5582801Y-23263494D01*
X5582801Y-23263494D02*
X5601848Y-23253970D01*
X5735182Y-23253970D02*
X5858991Y-23253970D01*
X5858991Y-23253970D02*
X5792325Y-23330160D01*
X5792325Y-23330160D02*
X5820896Y-23330160D01*
X5820896Y-23330160D02*
X5839944Y-23339684D01*
X5839944Y-23339684D02*
X5849467Y-23349208D01*
X5849467Y-23349208D02*
X5858991Y-23368256D01*
X5858991Y-23368256D02*
X5858991Y-23415875D01*
X5858991Y-23415875D02*
X5849467Y-23434922D01*
X5849467Y-23434922D02*
X5839944Y-23444446D01*
X5839944Y-23444446D02*
X5820896Y-23453970D01*
X5820896Y-23453970D02*
X5763753Y-23453970D01*
X5763753Y-23453970D02*
X5744706Y-23444446D01*
X5744706Y-23444446D02*
X5735182Y-23434922D01*
X5925658Y-23253970D02*
X6058991Y-23253970D01*
X6058991Y-23253970D02*
X5973277Y-23453970D01*
X6220896Y-23320637D02*
X6220896Y-23453970D01*
X6173277Y-23244446D02*
X6125658Y-23387303D01*
X6125658Y-23387303D02*
X6249467Y-23387303D01*
X6316134Y-23253970D02*
X6316134Y-23292065D01*
X6392325Y-23253970D02*
X6392325Y-23292065D01*
X6687563Y-23530160D02*
X6678039Y-23520637D01*
X6678039Y-23520637D02*
X6658991Y-23492065D01*
X6658991Y-23492065D02*
X6649468Y-23473018D01*
X6649468Y-23473018D02*
X6639944Y-23444446D01*
X6639944Y-23444446D02*
X6630420Y-23396827D01*
X6630420Y-23396827D02*
X6630420Y-23358732D01*
X6630420Y-23358732D02*
X6639944Y-23311113D01*
X6639944Y-23311113D02*
X6649468Y-23282541D01*
X6649468Y-23282541D02*
X6658991Y-23263494D01*
X6658991Y-23263494D02*
X6678039Y-23234922D01*
X6678039Y-23234922D02*
X6687563Y-23225398D01*
X6849468Y-23320637D02*
X6849468Y-23453970D01*
X6801848Y-23244446D02*
X6754229Y-23387303D01*
X6754229Y-23387303D02*
X6878039Y-23387303D01*
X7106610Y-23453970D02*
X7106610Y-23253970D01*
X7192325Y-23453970D02*
X7192325Y-23349208D01*
X7192325Y-23349208D02*
X7182801Y-23330160D01*
X7182801Y-23330160D02*
X7163753Y-23320637D01*
X7163753Y-23320637D02*
X7135182Y-23320637D01*
X7135182Y-23320637D02*
X7116134Y-23330160D01*
X7116134Y-23330160D02*
X7106610Y-23339684D01*
X7316134Y-23453970D02*
X7297087Y-23444446D01*
X7297087Y-23444446D02*
X7287563Y-23434922D01*
X7287563Y-23434922D02*
X7278039Y-23415875D01*
X7278039Y-23415875D02*
X7278039Y-23358732D01*
X7278039Y-23358732D02*
X7287563Y-23339684D01*
X7287563Y-23339684D02*
X7297087Y-23330160D01*
X7297087Y-23330160D02*
X7316134Y-23320637D01*
X7316134Y-23320637D02*
X7344706Y-23320637D01*
X7344706Y-23320637D02*
X7363753Y-23330160D01*
X7363753Y-23330160D02*
X7373277Y-23339684D01*
X7373277Y-23339684D02*
X7382801Y-23358732D01*
X7382801Y-23358732D02*
X7382801Y-23415875D01*
X7382801Y-23415875D02*
X7373277Y-23434922D01*
X7373277Y-23434922D02*
X7363753Y-23444446D01*
X7363753Y-23444446D02*
X7344706Y-23453970D01*
X7344706Y-23453970D02*
X7316134Y-23453970D01*
X7497087Y-23453970D02*
X7478039Y-23444446D01*
X7478039Y-23444446D02*
X7468515Y-23425398D01*
X7468515Y-23425398D02*
X7468515Y-23253970D01*
X7649468Y-23444446D02*
X7630420Y-23453970D01*
X7630420Y-23453970D02*
X7592325Y-23453970D01*
X7592325Y-23453970D02*
X7573277Y-23444446D01*
X7573277Y-23444446D02*
X7563753Y-23425398D01*
X7563753Y-23425398D02*
X7563753Y-23349208D01*
X7563753Y-23349208D02*
X7573277Y-23330160D01*
X7573277Y-23330160D02*
X7592325Y-23320637D01*
X7592325Y-23320637D02*
X7630420Y-23320637D01*
X7630420Y-23320637D02*
X7649468Y-23330160D01*
X7649468Y-23330160D02*
X7658991Y-23349208D01*
X7658991Y-23349208D02*
X7658991Y-23368256D01*
X7658991Y-23368256D02*
X7563753Y-23387303D01*
X7735182Y-23444446D02*
X7754230Y-23453970D01*
X7754230Y-23453970D02*
X7792325Y-23453970D01*
X7792325Y-23453970D02*
X7811372Y-23444446D01*
X7811372Y-23444446D02*
X7820896Y-23425398D01*
X7820896Y-23425398D02*
X7820896Y-23415875D01*
X7820896Y-23415875D02*
X7811372Y-23396827D01*
X7811372Y-23396827D02*
X7792325Y-23387303D01*
X7792325Y-23387303D02*
X7763753Y-23387303D01*
X7763753Y-23387303D02*
X7744706Y-23377779D01*
X7744706Y-23377779D02*
X7735182Y-23358732D01*
X7735182Y-23358732D02*
X7735182Y-23349208D01*
X7735182Y-23349208D02*
X7744706Y-23330160D01*
X7744706Y-23330160D02*
X7763753Y-23320637D01*
X7763753Y-23320637D02*
X7792325Y-23320637D01*
X7792325Y-23320637D02*
X7811372Y-23330160D01*
X7887563Y-23530160D02*
X7897087Y-23520637D01*
X7897087Y-23520637D02*
X7916134Y-23492065D01*
X7916134Y-23492065D02*
X7925658Y-23473018D01*
X7925658Y-23473018D02*
X7935182Y-23444446D01*
X7935182Y-23444446D02*
X7944706Y-23396827D01*
X7944706Y-23396827D02*
X7944706Y-23358732D01*
X7944706Y-23358732D02*
X7935182Y-23311113D01*
X7935182Y-23311113D02*
X7925658Y-23282541D01*
X7925658Y-23282541D02*
X7916134Y-23263494D01*
X7916134Y-23263494D02*
X7897087Y-23234922D01*
X7897087Y-23234922D02*
X7887563Y-23225398D01*
D16*
X3062500Y-23676486D02*
X3112500Y-23626486D01*
X3062500Y-23576486D01*
X3012500Y-23626486D01*
X3062500Y-23676486D01*
D11*
X3478039Y-23717970D02*
X3363753Y-23717970D01*
X3420896Y-23717970D02*
X3420896Y-23517970D01*
X3420896Y-23517970D02*
X3401848Y-23546541D01*
X3401848Y-23546541D02*
X3382801Y-23565589D01*
X3382801Y-23565589D02*
X3363753Y-23575113D01*
X3563753Y-23698922D02*
X3573277Y-23708446D01*
X3573277Y-23708446D02*
X3563753Y-23717970D01*
X3563753Y-23717970D02*
X3554229Y-23708446D01*
X3554229Y-23708446D02*
X3563753Y-23698922D01*
X3563753Y-23698922D02*
X3563753Y-23717970D01*
X3697086Y-23517970D02*
X3716134Y-23517970D01*
X3716134Y-23517970D02*
X3735182Y-23527494D01*
X3735182Y-23527494D02*
X3744705Y-23537018D01*
X3744705Y-23537018D02*
X3754229Y-23556065D01*
X3754229Y-23556065D02*
X3763753Y-23594160D01*
X3763753Y-23594160D02*
X3763753Y-23641779D01*
X3763753Y-23641779D02*
X3754229Y-23679875D01*
X3754229Y-23679875D02*
X3744705Y-23698922D01*
X3744705Y-23698922D02*
X3735182Y-23708446D01*
X3735182Y-23708446D02*
X3716134Y-23717970D01*
X3716134Y-23717970D02*
X3697086Y-23717970D01*
X3697086Y-23717970D02*
X3678039Y-23708446D01*
X3678039Y-23708446D02*
X3668515Y-23698922D01*
X3668515Y-23698922D02*
X3658991Y-23679875D01*
X3658991Y-23679875D02*
X3649467Y-23641779D01*
X3649467Y-23641779D02*
X3649467Y-23594160D01*
X3649467Y-23594160D02*
X3658991Y-23556065D01*
X3658991Y-23556065D02*
X3668515Y-23537018D01*
X3668515Y-23537018D02*
X3678039Y-23527494D01*
X3678039Y-23527494D02*
X3697086Y-23517970D01*
X3887562Y-23517970D02*
X3906610Y-23517970D01*
X3906610Y-23517970D02*
X3925658Y-23527494D01*
X3925658Y-23527494D02*
X3935182Y-23537018D01*
X3935182Y-23537018D02*
X3944705Y-23556065D01*
X3944705Y-23556065D02*
X3954229Y-23594160D01*
X3954229Y-23594160D02*
X3954229Y-23641779D01*
X3954229Y-23641779D02*
X3944705Y-23679875D01*
X3944705Y-23679875D02*
X3935182Y-23698922D01*
X3935182Y-23698922D02*
X3925658Y-23708446D01*
X3925658Y-23708446D02*
X3906610Y-23717970D01*
X3906610Y-23717970D02*
X3887562Y-23717970D01*
X3887562Y-23717970D02*
X3868515Y-23708446D01*
X3868515Y-23708446D02*
X3858991Y-23698922D01*
X3858991Y-23698922D02*
X3849467Y-23679875D01*
X3849467Y-23679875D02*
X3839943Y-23641779D01*
X3839943Y-23641779D02*
X3839943Y-23594160D01*
X3839943Y-23594160D02*
X3849467Y-23556065D01*
X3849467Y-23556065D02*
X3858991Y-23537018D01*
X3858991Y-23537018D02*
X3868515Y-23527494D01*
X3868515Y-23527494D02*
X3887562Y-23517970D01*
X4078039Y-23517970D02*
X4097086Y-23517970D01*
X4097086Y-23517970D02*
X4116134Y-23527494D01*
X4116134Y-23527494D02*
X4125658Y-23537018D01*
X4125658Y-23537018D02*
X4135182Y-23556065D01*
X4135182Y-23556065D02*
X4144705Y-23594160D01*
X4144705Y-23594160D02*
X4144705Y-23641779D01*
X4144705Y-23641779D02*
X4135182Y-23679875D01*
X4135182Y-23679875D02*
X4125658Y-23698922D01*
X4125658Y-23698922D02*
X4116134Y-23708446D01*
X4116134Y-23708446D02*
X4097086Y-23717970D01*
X4097086Y-23717970D02*
X4078039Y-23717970D01*
X4078039Y-23717970D02*
X4058991Y-23708446D01*
X4058991Y-23708446D02*
X4049467Y-23698922D01*
X4049467Y-23698922D02*
X4039943Y-23679875D01*
X4039943Y-23679875D02*
X4030420Y-23641779D01*
X4030420Y-23641779D02*
X4030420Y-23594160D01*
X4030420Y-23594160D02*
X4039943Y-23556065D01*
X4039943Y-23556065D02*
X4049467Y-23537018D01*
X4049467Y-23537018D02*
X4058991Y-23527494D01*
X4058991Y-23527494D02*
X4078039Y-23517970D01*
X4230420Y-23717970D02*
X4230420Y-23584637D01*
X4230420Y-23603684D02*
X4239944Y-23594160D01*
X4239944Y-23594160D02*
X4258991Y-23584637D01*
X4258991Y-23584637D02*
X4287563Y-23584637D01*
X4287563Y-23584637D02*
X4306610Y-23594160D01*
X4306610Y-23594160D02*
X4316134Y-23613208D01*
X4316134Y-23613208D02*
X4316134Y-23717970D01*
X4316134Y-23613208D02*
X4325658Y-23594160D01*
X4325658Y-23594160D02*
X4344705Y-23584637D01*
X4344705Y-23584637D02*
X4373277Y-23584637D01*
X4373277Y-23584637D02*
X4392325Y-23594160D01*
X4392325Y-23594160D02*
X4401848Y-23613208D01*
X4401848Y-23613208D02*
X4401848Y-23717970D01*
X4497086Y-23717970D02*
X4497086Y-23584637D01*
X4497086Y-23603684D02*
X4506610Y-23594160D01*
X4506610Y-23594160D02*
X4525658Y-23584637D01*
X4525658Y-23584637D02*
X4554229Y-23584637D01*
X4554229Y-23584637D02*
X4573277Y-23594160D01*
X4573277Y-23594160D02*
X4582801Y-23613208D01*
X4582801Y-23613208D02*
X4582801Y-23717970D01*
X4582801Y-23613208D02*
X4592325Y-23594160D01*
X4592325Y-23594160D02*
X4611372Y-23584637D01*
X4611372Y-23584637D02*
X4639944Y-23584637D01*
X4639944Y-23584637D02*
X4658991Y-23594160D01*
X4658991Y-23594160D02*
X4668515Y-23613208D01*
X4668515Y-23613208D02*
X4668515Y-23717970D01*
X5058991Y-23508446D02*
X4887563Y-23765589D01*
X5316134Y-23517970D02*
X5335182Y-23517970D01*
X5335182Y-23517970D02*
X5354229Y-23527494D01*
X5354229Y-23527494D02*
X5363753Y-23537018D01*
X5363753Y-23537018D02*
X5373277Y-23556065D01*
X5373277Y-23556065D02*
X5382801Y-23594160D01*
X5382801Y-23594160D02*
X5382801Y-23641779D01*
X5382801Y-23641779D02*
X5373277Y-23679875D01*
X5373277Y-23679875D02*
X5363753Y-23698922D01*
X5363753Y-23698922D02*
X5354229Y-23708446D01*
X5354229Y-23708446D02*
X5335182Y-23717970D01*
X5335182Y-23717970D02*
X5316134Y-23717970D01*
X5316134Y-23717970D02*
X5297087Y-23708446D01*
X5297087Y-23708446D02*
X5287563Y-23698922D01*
X5287563Y-23698922D02*
X5278039Y-23679875D01*
X5278039Y-23679875D02*
X5268515Y-23641779D01*
X5268515Y-23641779D02*
X5268515Y-23594160D01*
X5268515Y-23594160D02*
X5278039Y-23556065D01*
X5278039Y-23556065D02*
X5287563Y-23537018D01*
X5287563Y-23537018D02*
X5297087Y-23527494D01*
X5297087Y-23527494D02*
X5316134Y-23517970D01*
X5468515Y-23698922D02*
X5478039Y-23708446D01*
X5478039Y-23708446D02*
X5468515Y-23717970D01*
X5468515Y-23717970D02*
X5458991Y-23708446D01*
X5458991Y-23708446D02*
X5468515Y-23698922D01*
X5468515Y-23698922D02*
X5468515Y-23717970D01*
X5601848Y-23517970D02*
X5620896Y-23517970D01*
X5620896Y-23517970D02*
X5639944Y-23527494D01*
X5639944Y-23527494D02*
X5649467Y-23537018D01*
X5649467Y-23537018D02*
X5658991Y-23556065D01*
X5658991Y-23556065D02*
X5668515Y-23594160D01*
X5668515Y-23594160D02*
X5668515Y-23641779D01*
X5668515Y-23641779D02*
X5658991Y-23679875D01*
X5658991Y-23679875D02*
X5649467Y-23698922D01*
X5649467Y-23698922D02*
X5639944Y-23708446D01*
X5639944Y-23708446D02*
X5620896Y-23717970D01*
X5620896Y-23717970D02*
X5601848Y-23717970D01*
X5601848Y-23717970D02*
X5582801Y-23708446D01*
X5582801Y-23708446D02*
X5573277Y-23698922D01*
X5573277Y-23698922D02*
X5563753Y-23679875D01*
X5563753Y-23679875D02*
X5554229Y-23641779D01*
X5554229Y-23641779D02*
X5554229Y-23594160D01*
X5554229Y-23594160D02*
X5563753Y-23556065D01*
X5563753Y-23556065D02*
X5573277Y-23537018D01*
X5573277Y-23537018D02*
X5582801Y-23527494D01*
X5582801Y-23527494D02*
X5601848Y-23517970D01*
X5735182Y-23517970D02*
X5858991Y-23517970D01*
X5858991Y-23517970D02*
X5792325Y-23594160D01*
X5792325Y-23594160D02*
X5820896Y-23594160D01*
X5820896Y-23594160D02*
X5839944Y-23603684D01*
X5839944Y-23603684D02*
X5849467Y-23613208D01*
X5849467Y-23613208D02*
X5858991Y-23632256D01*
X5858991Y-23632256D02*
X5858991Y-23679875D01*
X5858991Y-23679875D02*
X5849467Y-23698922D01*
X5849467Y-23698922D02*
X5839944Y-23708446D01*
X5839944Y-23708446D02*
X5820896Y-23717970D01*
X5820896Y-23717970D02*
X5763753Y-23717970D01*
X5763753Y-23717970D02*
X5744706Y-23708446D01*
X5744706Y-23708446D02*
X5735182Y-23698922D01*
X5954229Y-23717970D02*
X5992325Y-23717970D01*
X5992325Y-23717970D02*
X6011372Y-23708446D01*
X6011372Y-23708446D02*
X6020896Y-23698922D01*
X6020896Y-23698922D02*
X6039944Y-23670351D01*
X6039944Y-23670351D02*
X6049467Y-23632256D01*
X6049467Y-23632256D02*
X6049467Y-23556065D01*
X6049467Y-23556065D02*
X6039944Y-23537018D01*
X6039944Y-23537018D02*
X6030420Y-23527494D01*
X6030420Y-23527494D02*
X6011372Y-23517970D01*
X6011372Y-23517970D02*
X5973277Y-23517970D01*
X5973277Y-23517970D02*
X5954229Y-23527494D01*
X5954229Y-23527494D02*
X5944706Y-23537018D01*
X5944706Y-23537018D02*
X5935182Y-23556065D01*
X5935182Y-23556065D02*
X5935182Y-23603684D01*
X5935182Y-23603684D02*
X5944706Y-23622732D01*
X5944706Y-23622732D02*
X5954229Y-23632256D01*
X5954229Y-23632256D02*
X5973277Y-23641779D01*
X5973277Y-23641779D02*
X6011372Y-23641779D01*
X6011372Y-23641779D02*
X6030420Y-23632256D01*
X6030420Y-23632256D02*
X6039944Y-23622732D01*
X6039944Y-23622732D02*
X6049467Y-23603684D01*
X6220896Y-23584637D02*
X6220896Y-23717970D01*
X6173277Y-23508446D02*
X6125658Y-23651303D01*
X6125658Y-23651303D02*
X6249467Y-23651303D01*
X6316134Y-23517970D02*
X6316134Y-23556065D01*
X6392325Y-23517970D02*
X6392325Y-23556065D01*
X6687563Y-23794160D02*
X6678039Y-23784637D01*
X6678039Y-23784637D02*
X6658991Y-23756065D01*
X6658991Y-23756065D02*
X6649468Y-23737018D01*
X6649468Y-23737018D02*
X6639944Y-23708446D01*
X6639944Y-23708446D02*
X6630420Y-23660827D01*
X6630420Y-23660827D02*
X6630420Y-23622732D01*
X6630420Y-23622732D02*
X6639944Y-23575113D01*
X6639944Y-23575113D02*
X6649468Y-23546541D01*
X6649468Y-23546541D02*
X6658991Y-23527494D01*
X6658991Y-23527494D02*
X6678039Y-23498922D01*
X6678039Y-23498922D02*
X6687563Y-23489398D01*
X6868515Y-23717970D02*
X6754229Y-23717970D01*
X6811372Y-23717970D02*
X6811372Y-23517970D01*
X6811372Y-23517970D02*
X6792325Y-23546541D01*
X6792325Y-23546541D02*
X6773277Y-23565589D01*
X6773277Y-23565589D02*
X6754229Y-23575113D01*
X6992325Y-23517970D02*
X7011372Y-23517970D01*
X7011372Y-23517970D02*
X7030420Y-23527494D01*
X7030420Y-23527494D02*
X7039944Y-23537018D01*
X7039944Y-23537018D02*
X7049468Y-23556065D01*
X7049468Y-23556065D02*
X7058991Y-23594160D01*
X7058991Y-23594160D02*
X7058991Y-23641779D01*
X7058991Y-23641779D02*
X7049468Y-23679875D01*
X7049468Y-23679875D02*
X7039944Y-23698922D01*
X7039944Y-23698922D02*
X7030420Y-23708446D01*
X7030420Y-23708446D02*
X7011372Y-23717970D01*
X7011372Y-23717970D02*
X6992325Y-23717970D01*
X6992325Y-23717970D02*
X6973277Y-23708446D01*
X6973277Y-23708446D02*
X6963753Y-23698922D01*
X6963753Y-23698922D02*
X6954229Y-23679875D01*
X6954229Y-23679875D02*
X6944706Y-23641779D01*
X6944706Y-23641779D02*
X6944706Y-23594160D01*
X6944706Y-23594160D02*
X6954229Y-23556065D01*
X6954229Y-23556065D02*
X6963753Y-23537018D01*
X6963753Y-23537018D02*
X6973277Y-23527494D01*
X6973277Y-23527494D02*
X6992325Y-23517970D01*
X7297087Y-23717970D02*
X7297087Y-23517970D01*
X7382801Y-23717970D02*
X7382801Y-23613208D01*
X7382801Y-23613208D02*
X7373277Y-23594160D01*
X7373277Y-23594160D02*
X7354230Y-23584637D01*
X7354230Y-23584637D02*
X7325658Y-23584637D01*
X7325658Y-23584637D02*
X7306610Y-23594160D01*
X7306610Y-23594160D02*
X7297087Y-23603684D01*
X7506610Y-23717970D02*
X7487563Y-23708446D01*
X7487563Y-23708446D02*
X7478039Y-23698922D01*
X7478039Y-23698922D02*
X7468515Y-23679875D01*
X7468515Y-23679875D02*
X7468515Y-23622732D01*
X7468515Y-23622732D02*
X7478039Y-23603684D01*
X7478039Y-23603684D02*
X7487563Y-23594160D01*
X7487563Y-23594160D02*
X7506610Y-23584637D01*
X7506610Y-23584637D02*
X7535182Y-23584637D01*
X7535182Y-23584637D02*
X7554230Y-23594160D01*
X7554230Y-23594160D02*
X7563753Y-23603684D01*
X7563753Y-23603684D02*
X7573277Y-23622732D01*
X7573277Y-23622732D02*
X7573277Y-23679875D01*
X7573277Y-23679875D02*
X7563753Y-23698922D01*
X7563753Y-23698922D02*
X7554230Y-23708446D01*
X7554230Y-23708446D02*
X7535182Y-23717970D01*
X7535182Y-23717970D02*
X7506610Y-23717970D01*
X7687563Y-23717970D02*
X7668515Y-23708446D01*
X7668515Y-23708446D02*
X7658991Y-23689398D01*
X7658991Y-23689398D02*
X7658991Y-23517970D01*
X7839944Y-23708446D02*
X7820896Y-23717970D01*
X7820896Y-23717970D02*
X7782801Y-23717970D01*
X7782801Y-23717970D02*
X7763753Y-23708446D01*
X7763753Y-23708446D02*
X7754230Y-23689398D01*
X7754230Y-23689398D02*
X7754230Y-23613208D01*
X7754230Y-23613208D02*
X7763753Y-23594160D01*
X7763753Y-23594160D02*
X7782801Y-23584637D01*
X7782801Y-23584637D02*
X7820896Y-23584637D01*
X7820896Y-23584637D02*
X7839944Y-23594160D01*
X7839944Y-23594160D02*
X7849468Y-23613208D01*
X7849468Y-23613208D02*
X7849468Y-23632256D01*
X7849468Y-23632256D02*
X7754230Y-23651303D01*
X7925658Y-23708446D02*
X7944706Y-23717970D01*
X7944706Y-23717970D02*
X7982801Y-23717970D01*
X7982801Y-23717970D02*
X8001849Y-23708446D01*
X8001849Y-23708446D02*
X8011372Y-23689398D01*
X8011372Y-23689398D02*
X8011372Y-23679875D01*
X8011372Y-23679875D02*
X8001849Y-23660827D01*
X8001849Y-23660827D02*
X7982801Y-23651303D01*
X7982801Y-23651303D02*
X7954230Y-23651303D01*
X7954230Y-23651303D02*
X7935182Y-23641779D01*
X7935182Y-23641779D02*
X7925658Y-23622732D01*
X7925658Y-23622732D02*
X7925658Y-23613208D01*
X7925658Y-23613208D02*
X7935182Y-23594160D01*
X7935182Y-23594160D02*
X7954230Y-23584637D01*
X7954230Y-23584637D02*
X7982801Y-23584637D01*
X7982801Y-23584637D02*
X8001849Y-23594160D01*
X8078039Y-23794160D02*
X8087563Y-23784637D01*
X8087563Y-23784637D02*
X8106611Y-23756065D01*
X8106611Y-23756065D02*
X8116134Y-23737018D01*
X8116134Y-23737018D02*
X8125658Y-23708446D01*
X8125658Y-23708446D02*
X8135182Y-23660827D01*
X8135182Y-23660827D02*
X8135182Y-23622732D01*
X8135182Y-23622732D02*
X8125658Y-23575113D01*
X8125658Y-23575113D02*
X8116134Y-23546541D01*
X8116134Y-23546541D02*
X8106611Y-23527494D01*
X8106611Y-23527494D02*
X8087563Y-23498922D01*
X8087563Y-23498922D02*
X8078039Y-23489398D01*
D17*
X3010900Y-23839686D02*
X3112500Y-23941286D01*
X3112500Y-23839686D02*
X3010900Y-23941286D01*
X3112500Y-23890486D02*
G75*
G03*
X3112500Y-23890486I-50800J0D01*
G01*
D11*
X3478039Y-23981970D02*
X3363753Y-23981970D01*
X3420896Y-23981970D02*
X3420896Y-23781970D01*
X3420896Y-23781970D02*
X3401848Y-23810541D01*
X3401848Y-23810541D02*
X3382801Y-23829589D01*
X3382801Y-23829589D02*
X3363753Y-23839113D01*
X3563753Y-23962922D02*
X3573277Y-23972446D01*
X3573277Y-23972446D02*
X3563753Y-23981970D01*
X3563753Y-23981970D02*
X3554229Y-23972446D01*
X3554229Y-23972446D02*
X3563753Y-23962922D01*
X3563753Y-23962922D02*
X3563753Y-23981970D01*
X3697086Y-23781970D02*
X3716134Y-23781970D01*
X3716134Y-23781970D02*
X3735182Y-23791494D01*
X3735182Y-23791494D02*
X3744705Y-23801018D01*
X3744705Y-23801018D02*
X3754229Y-23820065D01*
X3754229Y-23820065D02*
X3763753Y-23858160D01*
X3763753Y-23858160D02*
X3763753Y-23905779D01*
X3763753Y-23905779D02*
X3754229Y-23943875D01*
X3754229Y-23943875D02*
X3744705Y-23962922D01*
X3744705Y-23962922D02*
X3735182Y-23972446D01*
X3735182Y-23972446D02*
X3716134Y-23981970D01*
X3716134Y-23981970D02*
X3697086Y-23981970D01*
X3697086Y-23981970D02*
X3678039Y-23972446D01*
X3678039Y-23972446D02*
X3668515Y-23962922D01*
X3668515Y-23962922D02*
X3658991Y-23943875D01*
X3658991Y-23943875D02*
X3649467Y-23905779D01*
X3649467Y-23905779D02*
X3649467Y-23858160D01*
X3649467Y-23858160D02*
X3658991Y-23820065D01*
X3658991Y-23820065D02*
X3668515Y-23801018D01*
X3668515Y-23801018D02*
X3678039Y-23791494D01*
X3678039Y-23791494D02*
X3697086Y-23781970D01*
X3954229Y-23981970D02*
X3839943Y-23981970D01*
X3897086Y-23981970D02*
X3897086Y-23781970D01*
X3897086Y-23781970D02*
X3878039Y-23810541D01*
X3878039Y-23810541D02*
X3858991Y-23829589D01*
X3858991Y-23829589D02*
X3839943Y-23839113D01*
X4125658Y-23781970D02*
X4087562Y-23781970D01*
X4087562Y-23781970D02*
X4068515Y-23791494D01*
X4068515Y-23791494D02*
X4058991Y-23801018D01*
X4058991Y-23801018D02*
X4039943Y-23829589D01*
X4039943Y-23829589D02*
X4030420Y-23867684D01*
X4030420Y-23867684D02*
X4030420Y-23943875D01*
X4030420Y-23943875D02*
X4039943Y-23962922D01*
X4039943Y-23962922D02*
X4049467Y-23972446D01*
X4049467Y-23972446D02*
X4068515Y-23981970D01*
X4068515Y-23981970D02*
X4106610Y-23981970D01*
X4106610Y-23981970D02*
X4125658Y-23972446D01*
X4125658Y-23972446D02*
X4135182Y-23962922D01*
X4135182Y-23962922D02*
X4144705Y-23943875D01*
X4144705Y-23943875D02*
X4144705Y-23896256D01*
X4144705Y-23896256D02*
X4135182Y-23877208D01*
X4135182Y-23877208D02*
X4125658Y-23867684D01*
X4125658Y-23867684D02*
X4106610Y-23858160D01*
X4106610Y-23858160D02*
X4068515Y-23858160D01*
X4068515Y-23858160D02*
X4049467Y-23867684D01*
X4049467Y-23867684D02*
X4039943Y-23877208D01*
X4039943Y-23877208D02*
X4030420Y-23896256D01*
X4230420Y-23981970D02*
X4230420Y-23848637D01*
X4230420Y-23867684D02*
X4239944Y-23858160D01*
X4239944Y-23858160D02*
X4258991Y-23848637D01*
X4258991Y-23848637D02*
X4287563Y-23848637D01*
X4287563Y-23848637D02*
X4306610Y-23858160D01*
X4306610Y-23858160D02*
X4316134Y-23877208D01*
X4316134Y-23877208D02*
X4316134Y-23981970D01*
X4316134Y-23877208D02*
X4325658Y-23858160D01*
X4325658Y-23858160D02*
X4344705Y-23848637D01*
X4344705Y-23848637D02*
X4373277Y-23848637D01*
X4373277Y-23848637D02*
X4392325Y-23858160D01*
X4392325Y-23858160D02*
X4401848Y-23877208D01*
X4401848Y-23877208D02*
X4401848Y-23981970D01*
X4497086Y-23981970D02*
X4497086Y-23848637D01*
X4497086Y-23867684D02*
X4506610Y-23858160D01*
X4506610Y-23858160D02*
X4525658Y-23848637D01*
X4525658Y-23848637D02*
X4554229Y-23848637D01*
X4554229Y-23848637D02*
X4573277Y-23858160D01*
X4573277Y-23858160D02*
X4582801Y-23877208D01*
X4582801Y-23877208D02*
X4582801Y-23981970D01*
X4582801Y-23877208D02*
X4592325Y-23858160D01*
X4592325Y-23858160D02*
X4611372Y-23848637D01*
X4611372Y-23848637D02*
X4639944Y-23848637D01*
X4639944Y-23848637D02*
X4658991Y-23858160D01*
X4658991Y-23858160D02*
X4668515Y-23877208D01*
X4668515Y-23877208D02*
X4668515Y-23981970D01*
X5058991Y-23772446D02*
X4887563Y-24029589D01*
X5316134Y-23781970D02*
X5335182Y-23781970D01*
X5335182Y-23781970D02*
X5354229Y-23791494D01*
X5354229Y-23791494D02*
X5363753Y-23801018D01*
X5363753Y-23801018D02*
X5373277Y-23820065D01*
X5373277Y-23820065D02*
X5382801Y-23858160D01*
X5382801Y-23858160D02*
X5382801Y-23905779D01*
X5382801Y-23905779D02*
X5373277Y-23943875D01*
X5373277Y-23943875D02*
X5363753Y-23962922D01*
X5363753Y-23962922D02*
X5354229Y-23972446D01*
X5354229Y-23972446D02*
X5335182Y-23981970D01*
X5335182Y-23981970D02*
X5316134Y-23981970D01*
X5316134Y-23981970D02*
X5297087Y-23972446D01*
X5297087Y-23972446D02*
X5287563Y-23962922D01*
X5287563Y-23962922D02*
X5278039Y-23943875D01*
X5278039Y-23943875D02*
X5268515Y-23905779D01*
X5268515Y-23905779D02*
X5268515Y-23858160D01*
X5268515Y-23858160D02*
X5278039Y-23820065D01*
X5278039Y-23820065D02*
X5287563Y-23801018D01*
X5287563Y-23801018D02*
X5297087Y-23791494D01*
X5297087Y-23791494D02*
X5316134Y-23781970D01*
X5468515Y-23962922D02*
X5478039Y-23972446D01*
X5478039Y-23972446D02*
X5468515Y-23981970D01*
X5468515Y-23981970D02*
X5458991Y-23972446D01*
X5458991Y-23972446D02*
X5468515Y-23962922D01*
X5468515Y-23962922D02*
X5468515Y-23981970D01*
X5601848Y-23781970D02*
X5620896Y-23781970D01*
X5620896Y-23781970D02*
X5639944Y-23791494D01*
X5639944Y-23791494D02*
X5649467Y-23801018D01*
X5649467Y-23801018D02*
X5658991Y-23820065D01*
X5658991Y-23820065D02*
X5668515Y-23858160D01*
X5668515Y-23858160D02*
X5668515Y-23905779D01*
X5668515Y-23905779D02*
X5658991Y-23943875D01*
X5658991Y-23943875D02*
X5649467Y-23962922D01*
X5649467Y-23962922D02*
X5639944Y-23972446D01*
X5639944Y-23972446D02*
X5620896Y-23981970D01*
X5620896Y-23981970D02*
X5601848Y-23981970D01*
X5601848Y-23981970D02*
X5582801Y-23972446D01*
X5582801Y-23972446D02*
X5573277Y-23962922D01*
X5573277Y-23962922D02*
X5563753Y-23943875D01*
X5563753Y-23943875D02*
X5554229Y-23905779D01*
X5554229Y-23905779D02*
X5554229Y-23858160D01*
X5554229Y-23858160D02*
X5563753Y-23820065D01*
X5563753Y-23820065D02*
X5573277Y-23801018D01*
X5573277Y-23801018D02*
X5582801Y-23791494D01*
X5582801Y-23791494D02*
X5601848Y-23781970D01*
X5839944Y-23848637D02*
X5839944Y-23981970D01*
X5792325Y-23772446D02*
X5744706Y-23915303D01*
X5744706Y-23915303D02*
X5868515Y-23915303D01*
X5982801Y-23781970D02*
X6001848Y-23781970D01*
X6001848Y-23781970D02*
X6020896Y-23791494D01*
X6020896Y-23791494D02*
X6030420Y-23801018D01*
X6030420Y-23801018D02*
X6039944Y-23820065D01*
X6039944Y-23820065D02*
X6049467Y-23858160D01*
X6049467Y-23858160D02*
X6049467Y-23905779D01*
X6049467Y-23905779D02*
X6039944Y-23943875D01*
X6039944Y-23943875D02*
X6030420Y-23962922D01*
X6030420Y-23962922D02*
X6020896Y-23972446D01*
X6020896Y-23972446D02*
X6001848Y-23981970D01*
X6001848Y-23981970D02*
X5982801Y-23981970D01*
X5982801Y-23981970D02*
X5963753Y-23972446D01*
X5963753Y-23972446D02*
X5954229Y-23962922D01*
X5954229Y-23962922D02*
X5944706Y-23943875D01*
X5944706Y-23943875D02*
X5935182Y-23905779D01*
X5935182Y-23905779D02*
X5935182Y-23858160D01*
X5935182Y-23858160D02*
X5944706Y-23820065D01*
X5944706Y-23820065D02*
X5954229Y-23801018D01*
X5954229Y-23801018D02*
X5963753Y-23791494D01*
X5963753Y-23791494D02*
X5982801Y-23781970D01*
X6173277Y-23781970D02*
X6192325Y-23781970D01*
X6192325Y-23781970D02*
X6211372Y-23791494D01*
X6211372Y-23791494D02*
X6220896Y-23801018D01*
X6220896Y-23801018D02*
X6230420Y-23820065D01*
X6230420Y-23820065D02*
X6239944Y-23858160D01*
X6239944Y-23858160D02*
X6239944Y-23905779D01*
X6239944Y-23905779D02*
X6230420Y-23943875D01*
X6230420Y-23943875D02*
X6220896Y-23962922D01*
X6220896Y-23962922D02*
X6211372Y-23972446D01*
X6211372Y-23972446D02*
X6192325Y-23981970D01*
X6192325Y-23981970D02*
X6173277Y-23981970D01*
X6173277Y-23981970D02*
X6154229Y-23972446D01*
X6154229Y-23972446D02*
X6144706Y-23962922D01*
X6144706Y-23962922D02*
X6135182Y-23943875D01*
X6135182Y-23943875D02*
X6125658Y-23905779D01*
X6125658Y-23905779D02*
X6125658Y-23858160D01*
X6125658Y-23858160D02*
X6135182Y-23820065D01*
X6135182Y-23820065D02*
X6144706Y-23801018D01*
X6144706Y-23801018D02*
X6154229Y-23791494D01*
X6154229Y-23791494D02*
X6173277Y-23781970D01*
X6316134Y-23781970D02*
X6316134Y-23820065D01*
X6392325Y-23781970D02*
X6392325Y-23820065D01*
X6687563Y-24058160D02*
X6678039Y-24048637D01*
X6678039Y-24048637D02*
X6658991Y-24020065D01*
X6658991Y-24020065D02*
X6649468Y-24001018D01*
X6649468Y-24001018D02*
X6639944Y-23972446D01*
X6639944Y-23972446D02*
X6630420Y-23924827D01*
X6630420Y-23924827D02*
X6630420Y-23886732D01*
X6630420Y-23886732D02*
X6639944Y-23839113D01*
X6639944Y-23839113D02*
X6649468Y-23810541D01*
X6649468Y-23810541D02*
X6658991Y-23791494D01*
X6658991Y-23791494D02*
X6678039Y-23762922D01*
X6678039Y-23762922D02*
X6687563Y-23753398D01*
X6744706Y-23781970D02*
X6868515Y-23781970D01*
X6868515Y-23781970D02*
X6801848Y-23858160D01*
X6801848Y-23858160D02*
X6830420Y-23858160D01*
X6830420Y-23858160D02*
X6849468Y-23867684D01*
X6849468Y-23867684D02*
X6858991Y-23877208D01*
X6858991Y-23877208D02*
X6868515Y-23896256D01*
X6868515Y-23896256D02*
X6868515Y-23943875D01*
X6868515Y-23943875D02*
X6858991Y-23962922D01*
X6858991Y-23962922D02*
X6849468Y-23972446D01*
X6849468Y-23972446D02*
X6830420Y-23981970D01*
X6830420Y-23981970D02*
X6773277Y-23981970D01*
X6773277Y-23981970D02*
X6754229Y-23972446D01*
X6754229Y-23972446D02*
X6744706Y-23962922D01*
X7039944Y-23781970D02*
X7001848Y-23781970D01*
X7001848Y-23781970D02*
X6982801Y-23791494D01*
X6982801Y-23791494D02*
X6973277Y-23801018D01*
X6973277Y-23801018D02*
X6954229Y-23829589D01*
X6954229Y-23829589D02*
X6944706Y-23867684D01*
X6944706Y-23867684D02*
X6944706Y-23943875D01*
X6944706Y-23943875D02*
X6954229Y-23962922D01*
X6954229Y-23962922D02*
X6963753Y-23972446D01*
X6963753Y-23972446D02*
X6982801Y-23981970D01*
X6982801Y-23981970D02*
X7020896Y-23981970D01*
X7020896Y-23981970D02*
X7039944Y-23972446D01*
X7039944Y-23972446D02*
X7049468Y-23962922D01*
X7049468Y-23962922D02*
X7058991Y-23943875D01*
X7058991Y-23943875D02*
X7058991Y-23896256D01*
X7058991Y-23896256D02*
X7049468Y-23877208D01*
X7049468Y-23877208D02*
X7039944Y-23867684D01*
X7039944Y-23867684D02*
X7020896Y-23858160D01*
X7020896Y-23858160D02*
X6982801Y-23858160D01*
X6982801Y-23858160D02*
X6963753Y-23867684D01*
X6963753Y-23867684D02*
X6954229Y-23877208D01*
X6954229Y-23877208D02*
X6944706Y-23896256D01*
X7297087Y-23981970D02*
X7297087Y-23781970D01*
X7382801Y-23981970D02*
X7382801Y-23877208D01*
X7382801Y-23877208D02*
X7373277Y-23858160D01*
X7373277Y-23858160D02*
X7354230Y-23848637D01*
X7354230Y-23848637D02*
X7325658Y-23848637D01*
X7325658Y-23848637D02*
X7306610Y-23858160D01*
X7306610Y-23858160D02*
X7297087Y-23867684D01*
X7506610Y-23981970D02*
X7487563Y-23972446D01*
X7487563Y-23972446D02*
X7478039Y-23962922D01*
X7478039Y-23962922D02*
X7468515Y-23943875D01*
X7468515Y-23943875D02*
X7468515Y-23886732D01*
X7468515Y-23886732D02*
X7478039Y-23867684D01*
X7478039Y-23867684D02*
X7487563Y-23858160D01*
X7487563Y-23858160D02*
X7506610Y-23848637D01*
X7506610Y-23848637D02*
X7535182Y-23848637D01*
X7535182Y-23848637D02*
X7554230Y-23858160D01*
X7554230Y-23858160D02*
X7563753Y-23867684D01*
X7563753Y-23867684D02*
X7573277Y-23886732D01*
X7573277Y-23886732D02*
X7573277Y-23943875D01*
X7573277Y-23943875D02*
X7563753Y-23962922D01*
X7563753Y-23962922D02*
X7554230Y-23972446D01*
X7554230Y-23972446D02*
X7535182Y-23981970D01*
X7535182Y-23981970D02*
X7506610Y-23981970D01*
X7687563Y-23981970D02*
X7668515Y-23972446D01*
X7668515Y-23972446D02*
X7658991Y-23953398D01*
X7658991Y-23953398D02*
X7658991Y-23781970D01*
X7839944Y-23972446D02*
X7820896Y-23981970D01*
X7820896Y-23981970D02*
X7782801Y-23981970D01*
X7782801Y-23981970D02*
X7763753Y-23972446D01*
X7763753Y-23972446D02*
X7754230Y-23953398D01*
X7754230Y-23953398D02*
X7754230Y-23877208D01*
X7754230Y-23877208D02*
X7763753Y-23858160D01*
X7763753Y-23858160D02*
X7782801Y-23848637D01*
X7782801Y-23848637D02*
X7820896Y-23848637D01*
X7820896Y-23848637D02*
X7839944Y-23858160D01*
X7839944Y-23858160D02*
X7849468Y-23877208D01*
X7849468Y-23877208D02*
X7849468Y-23896256D01*
X7849468Y-23896256D02*
X7754230Y-23915303D01*
X7925658Y-23972446D02*
X7944706Y-23981970D01*
X7944706Y-23981970D02*
X7982801Y-23981970D01*
X7982801Y-23981970D02*
X8001849Y-23972446D01*
X8001849Y-23972446D02*
X8011372Y-23953398D01*
X8011372Y-23953398D02*
X8011372Y-23943875D01*
X8011372Y-23943875D02*
X8001849Y-23924827D01*
X8001849Y-23924827D02*
X7982801Y-23915303D01*
X7982801Y-23915303D02*
X7954230Y-23915303D01*
X7954230Y-23915303D02*
X7935182Y-23905779D01*
X7935182Y-23905779D02*
X7925658Y-23886732D01*
X7925658Y-23886732D02*
X7925658Y-23877208D01*
X7925658Y-23877208D02*
X7935182Y-23858160D01*
X7935182Y-23858160D02*
X7954230Y-23848637D01*
X7954230Y-23848637D02*
X7982801Y-23848637D01*
X7982801Y-23848637D02*
X8001849Y-23858160D01*
X8078039Y-24058160D02*
X8087563Y-24048637D01*
X8087563Y-24048637D02*
X8106611Y-24020065D01*
X8106611Y-24020065D02*
X8116134Y-24001018D01*
X8116134Y-24001018D02*
X8125658Y-23972446D01*
X8125658Y-23972446D02*
X8135182Y-23924827D01*
X8135182Y-23924827D02*
X8135182Y-23886732D01*
X8135182Y-23886732D02*
X8125658Y-23839113D01*
X8125658Y-23839113D02*
X8116134Y-23810541D01*
X8116134Y-23810541D02*
X8106611Y-23791494D01*
X8106611Y-23791494D02*
X8087563Y-23762922D01*
X8087563Y-23762922D02*
X8078039Y-23753398D01*
X2912500Y-24054486D02*
X3112500Y-24254486D01*
X3112500Y-24054486D02*
X2912500Y-24254486D01*
X3012500Y-24054486D02*
X3012500Y-24254486D01*
X2912500Y-24154486D02*
X3112500Y-24154486D01*
X3363753Y-24065018D02*
X3373277Y-24055494D01*
X3373277Y-24055494D02*
X3392324Y-24045970D01*
X3392324Y-24045970D02*
X3439943Y-24045970D01*
X3439943Y-24045970D02*
X3458991Y-24055494D01*
X3458991Y-24055494D02*
X3468515Y-24065018D01*
X3468515Y-24065018D02*
X3478039Y-24084065D01*
X3478039Y-24084065D02*
X3478039Y-24103113D01*
X3478039Y-24103113D02*
X3468515Y-24131684D01*
X3468515Y-24131684D02*
X3354229Y-24245970D01*
X3354229Y-24245970D02*
X3478039Y-24245970D01*
X3563753Y-24226922D02*
X3573277Y-24236446D01*
X3573277Y-24236446D02*
X3563753Y-24245970D01*
X3563753Y-24245970D02*
X3554229Y-24236446D01*
X3554229Y-24236446D02*
X3563753Y-24226922D01*
X3563753Y-24226922D02*
X3563753Y-24245970D01*
X3649467Y-24065018D02*
X3658991Y-24055494D01*
X3658991Y-24055494D02*
X3678039Y-24045970D01*
X3678039Y-24045970D02*
X3725658Y-24045970D01*
X3725658Y-24045970D02*
X3744705Y-24055494D01*
X3744705Y-24055494D02*
X3754229Y-24065018D01*
X3754229Y-24065018D02*
X3763753Y-24084065D01*
X3763753Y-24084065D02*
X3763753Y-24103113D01*
X3763753Y-24103113D02*
X3754229Y-24131684D01*
X3754229Y-24131684D02*
X3639943Y-24245970D01*
X3639943Y-24245970D02*
X3763753Y-24245970D01*
X3887562Y-24045970D02*
X3906610Y-24045970D01*
X3906610Y-24045970D02*
X3925658Y-24055494D01*
X3925658Y-24055494D02*
X3935182Y-24065018D01*
X3935182Y-24065018D02*
X3944705Y-24084065D01*
X3944705Y-24084065D02*
X3954229Y-24122160D01*
X3954229Y-24122160D02*
X3954229Y-24169779D01*
X3954229Y-24169779D02*
X3944705Y-24207875D01*
X3944705Y-24207875D02*
X3935182Y-24226922D01*
X3935182Y-24226922D02*
X3925658Y-24236446D01*
X3925658Y-24236446D02*
X3906610Y-24245970D01*
X3906610Y-24245970D02*
X3887562Y-24245970D01*
X3887562Y-24245970D02*
X3868515Y-24236446D01*
X3868515Y-24236446D02*
X3858991Y-24226922D01*
X3858991Y-24226922D02*
X3849467Y-24207875D01*
X3849467Y-24207875D02*
X3839943Y-24169779D01*
X3839943Y-24169779D02*
X3839943Y-24122160D01*
X3839943Y-24122160D02*
X3849467Y-24084065D01*
X3849467Y-24084065D02*
X3858991Y-24065018D01*
X3858991Y-24065018D02*
X3868515Y-24055494D01*
X3868515Y-24055494D02*
X3887562Y-24045970D01*
X4078039Y-24045970D02*
X4097086Y-24045970D01*
X4097086Y-24045970D02*
X4116134Y-24055494D01*
X4116134Y-24055494D02*
X4125658Y-24065018D01*
X4125658Y-24065018D02*
X4135182Y-24084065D01*
X4135182Y-24084065D02*
X4144705Y-24122160D01*
X4144705Y-24122160D02*
X4144705Y-24169779D01*
X4144705Y-24169779D02*
X4135182Y-24207875D01*
X4135182Y-24207875D02*
X4125658Y-24226922D01*
X4125658Y-24226922D02*
X4116134Y-24236446D01*
X4116134Y-24236446D02*
X4097086Y-24245970D01*
X4097086Y-24245970D02*
X4078039Y-24245970D01*
X4078039Y-24245970D02*
X4058991Y-24236446D01*
X4058991Y-24236446D02*
X4049467Y-24226922D01*
X4049467Y-24226922D02*
X4039943Y-24207875D01*
X4039943Y-24207875D02*
X4030420Y-24169779D01*
X4030420Y-24169779D02*
X4030420Y-24122160D01*
X4030420Y-24122160D02*
X4039943Y-24084065D01*
X4039943Y-24084065D02*
X4049467Y-24065018D01*
X4049467Y-24065018D02*
X4058991Y-24055494D01*
X4058991Y-24055494D02*
X4078039Y-24045970D01*
X4230420Y-24245970D02*
X4230420Y-24112637D01*
X4230420Y-24131684D02*
X4239944Y-24122160D01*
X4239944Y-24122160D02*
X4258991Y-24112637D01*
X4258991Y-24112637D02*
X4287563Y-24112637D01*
X4287563Y-24112637D02*
X4306610Y-24122160D01*
X4306610Y-24122160D02*
X4316134Y-24141208D01*
X4316134Y-24141208D02*
X4316134Y-24245970D01*
X4316134Y-24141208D02*
X4325658Y-24122160D01*
X4325658Y-24122160D02*
X4344705Y-24112637D01*
X4344705Y-24112637D02*
X4373277Y-24112637D01*
X4373277Y-24112637D02*
X4392325Y-24122160D01*
X4392325Y-24122160D02*
X4401848Y-24141208D01*
X4401848Y-24141208D02*
X4401848Y-24245970D01*
X4497086Y-24245970D02*
X4497086Y-24112637D01*
X4497086Y-24131684D02*
X4506610Y-24122160D01*
X4506610Y-24122160D02*
X4525658Y-24112637D01*
X4525658Y-24112637D02*
X4554229Y-24112637D01*
X4554229Y-24112637D02*
X4573277Y-24122160D01*
X4573277Y-24122160D02*
X4582801Y-24141208D01*
X4582801Y-24141208D02*
X4582801Y-24245970D01*
X4582801Y-24141208D02*
X4592325Y-24122160D01*
X4592325Y-24122160D02*
X4611372Y-24112637D01*
X4611372Y-24112637D02*
X4639944Y-24112637D01*
X4639944Y-24112637D02*
X4658991Y-24122160D01*
X4658991Y-24122160D02*
X4668515Y-24141208D01*
X4668515Y-24141208D02*
X4668515Y-24245970D01*
X5058991Y-24036446D02*
X4887563Y-24293589D01*
X5316134Y-24045970D02*
X5335182Y-24045970D01*
X5335182Y-24045970D02*
X5354229Y-24055494D01*
X5354229Y-24055494D02*
X5363753Y-24065018D01*
X5363753Y-24065018D02*
X5373277Y-24084065D01*
X5373277Y-24084065D02*
X5382801Y-24122160D01*
X5382801Y-24122160D02*
X5382801Y-24169779D01*
X5382801Y-24169779D02*
X5373277Y-24207875D01*
X5373277Y-24207875D02*
X5363753Y-24226922D01*
X5363753Y-24226922D02*
X5354229Y-24236446D01*
X5354229Y-24236446D02*
X5335182Y-24245970D01*
X5335182Y-24245970D02*
X5316134Y-24245970D01*
X5316134Y-24245970D02*
X5297087Y-24236446D01*
X5297087Y-24236446D02*
X5287563Y-24226922D01*
X5287563Y-24226922D02*
X5278039Y-24207875D01*
X5278039Y-24207875D02*
X5268515Y-24169779D01*
X5268515Y-24169779D02*
X5268515Y-24122160D01*
X5268515Y-24122160D02*
X5278039Y-24084065D01*
X5278039Y-24084065D02*
X5287563Y-24065018D01*
X5287563Y-24065018D02*
X5297087Y-24055494D01*
X5297087Y-24055494D02*
X5316134Y-24045970D01*
X5468515Y-24226922D02*
X5478039Y-24236446D01*
X5478039Y-24236446D02*
X5468515Y-24245970D01*
X5468515Y-24245970D02*
X5458991Y-24236446D01*
X5458991Y-24236446D02*
X5468515Y-24226922D01*
X5468515Y-24226922D02*
X5468515Y-24245970D01*
X5601848Y-24045970D02*
X5620896Y-24045970D01*
X5620896Y-24045970D02*
X5639944Y-24055494D01*
X5639944Y-24055494D02*
X5649467Y-24065018D01*
X5649467Y-24065018D02*
X5658991Y-24084065D01*
X5658991Y-24084065D02*
X5668515Y-24122160D01*
X5668515Y-24122160D02*
X5668515Y-24169779D01*
X5668515Y-24169779D02*
X5658991Y-24207875D01*
X5658991Y-24207875D02*
X5649467Y-24226922D01*
X5649467Y-24226922D02*
X5639944Y-24236446D01*
X5639944Y-24236446D02*
X5620896Y-24245970D01*
X5620896Y-24245970D02*
X5601848Y-24245970D01*
X5601848Y-24245970D02*
X5582801Y-24236446D01*
X5582801Y-24236446D02*
X5573277Y-24226922D01*
X5573277Y-24226922D02*
X5563753Y-24207875D01*
X5563753Y-24207875D02*
X5554229Y-24169779D01*
X5554229Y-24169779D02*
X5554229Y-24122160D01*
X5554229Y-24122160D02*
X5563753Y-24084065D01*
X5563753Y-24084065D02*
X5573277Y-24065018D01*
X5573277Y-24065018D02*
X5582801Y-24055494D01*
X5582801Y-24055494D02*
X5601848Y-24045970D01*
X5782801Y-24131684D02*
X5763753Y-24122160D01*
X5763753Y-24122160D02*
X5754229Y-24112637D01*
X5754229Y-24112637D02*
X5744706Y-24093589D01*
X5744706Y-24093589D02*
X5744706Y-24084065D01*
X5744706Y-24084065D02*
X5754229Y-24065018D01*
X5754229Y-24065018D02*
X5763753Y-24055494D01*
X5763753Y-24055494D02*
X5782801Y-24045970D01*
X5782801Y-24045970D02*
X5820896Y-24045970D01*
X5820896Y-24045970D02*
X5839944Y-24055494D01*
X5839944Y-24055494D02*
X5849467Y-24065018D01*
X5849467Y-24065018D02*
X5858991Y-24084065D01*
X5858991Y-24084065D02*
X5858991Y-24093589D01*
X5858991Y-24093589D02*
X5849467Y-24112637D01*
X5849467Y-24112637D02*
X5839944Y-24122160D01*
X5839944Y-24122160D02*
X5820896Y-24131684D01*
X5820896Y-24131684D02*
X5782801Y-24131684D01*
X5782801Y-24131684D02*
X5763753Y-24141208D01*
X5763753Y-24141208D02*
X5754229Y-24150732D01*
X5754229Y-24150732D02*
X5744706Y-24169779D01*
X5744706Y-24169779D02*
X5744706Y-24207875D01*
X5744706Y-24207875D02*
X5754229Y-24226922D01*
X5754229Y-24226922D02*
X5763753Y-24236446D01*
X5763753Y-24236446D02*
X5782801Y-24245970D01*
X5782801Y-24245970D02*
X5820896Y-24245970D01*
X5820896Y-24245970D02*
X5839944Y-24236446D01*
X5839944Y-24236446D02*
X5849467Y-24226922D01*
X5849467Y-24226922D02*
X5858991Y-24207875D01*
X5858991Y-24207875D02*
X5858991Y-24169779D01*
X5858991Y-24169779D02*
X5849467Y-24150732D01*
X5849467Y-24150732D02*
X5839944Y-24141208D01*
X5839944Y-24141208D02*
X5820896Y-24131684D01*
X6030420Y-24045970D02*
X5992325Y-24045970D01*
X5992325Y-24045970D02*
X5973277Y-24055494D01*
X5973277Y-24055494D02*
X5963753Y-24065018D01*
X5963753Y-24065018D02*
X5944706Y-24093589D01*
X5944706Y-24093589D02*
X5935182Y-24131684D01*
X5935182Y-24131684D02*
X5935182Y-24207875D01*
X5935182Y-24207875D02*
X5944706Y-24226922D01*
X5944706Y-24226922D02*
X5954229Y-24236446D01*
X5954229Y-24236446D02*
X5973277Y-24245970D01*
X5973277Y-24245970D02*
X6011372Y-24245970D01*
X6011372Y-24245970D02*
X6030420Y-24236446D01*
X6030420Y-24236446D02*
X6039944Y-24226922D01*
X6039944Y-24226922D02*
X6049467Y-24207875D01*
X6049467Y-24207875D02*
X6049467Y-24160256D01*
X6049467Y-24160256D02*
X6039944Y-24141208D01*
X6039944Y-24141208D02*
X6030420Y-24131684D01*
X6030420Y-24131684D02*
X6011372Y-24122160D01*
X6011372Y-24122160D02*
X5973277Y-24122160D01*
X5973277Y-24122160D02*
X5954229Y-24131684D01*
X5954229Y-24131684D02*
X5944706Y-24141208D01*
X5944706Y-24141208D02*
X5935182Y-24160256D01*
X6220896Y-24045970D02*
X6182801Y-24045970D01*
X6182801Y-24045970D02*
X6163753Y-24055494D01*
X6163753Y-24055494D02*
X6154229Y-24065018D01*
X6154229Y-24065018D02*
X6135182Y-24093589D01*
X6135182Y-24093589D02*
X6125658Y-24131684D01*
X6125658Y-24131684D02*
X6125658Y-24207875D01*
X6125658Y-24207875D02*
X6135182Y-24226922D01*
X6135182Y-24226922D02*
X6144706Y-24236446D01*
X6144706Y-24236446D02*
X6163753Y-24245970D01*
X6163753Y-24245970D02*
X6201848Y-24245970D01*
X6201848Y-24245970D02*
X6220896Y-24236446D01*
X6220896Y-24236446D02*
X6230420Y-24226922D01*
X6230420Y-24226922D02*
X6239944Y-24207875D01*
X6239944Y-24207875D02*
X6239944Y-24160256D01*
X6239944Y-24160256D02*
X6230420Y-24141208D01*
X6230420Y-24141208D02*
X6220896Y-24131684D01*
X6220896Y-24131684D02*
X6201848Y-24122160D01*
X6201848Y-24122160D02*
X6163753Y-24122160D01*
X6163753Y-24122160D02*
X6144706Y-24131684D01*
X6144706Y-24131684D02*
X6135182Y-24141208D01*
X6135182Y-24141208D02*
X6125658Y-24160256D01*
X6316134Y-24045970D02*
X6316134Y-24084065D01*
X6392325Y-24045970D02*
X6392325Y-24084065D01*
X6687563Y-24322160D02*
X6678039Y-24312637D01*
X6678039Y-24312637D02*
X6658991Y-24284065D01*
X6658991Y-24284065D02*
X6649468Y-24265018D01*
X6649468Y-24265018D02*
X6639944Y-24236446D01*
X6639944Y-24236446D02*
X6630420Y-24188827D01*
X6630420Y-24188827D02*
X6630420Y-24150732D01*
X6630420Y-24150732D02*
X6639944Y-24103113D01*
X6639944Y-24103113D02*
X6649468Y-24074541D01*
X6649468Y-24074541D02*
X6658991Y-24055494D01*
X6658991Y-24055494D02*
X6678039Y-24026922D01*
X6678039Y-24026922D02*
X6687563Y-24017398D01*
X6849468Y-24112637D02*
X6849468Y-24245970D01*
X6801848Y-24036446D02*
X6754229Y-24179303D01*
X6754229Y-24179303D02*
X6878039Y-24179303D01*
X7106610Y-24245970D02*
X7106610Y-24045970D01*
X7192325Y-24245970D02*
X7192325Y-24141208D01*
X7192325Y-24141208D02*
X7182801Y-24122160D01*
X7182801Y-24122160D02*
X7163753Y-24112637D01*
X7163753Y-24112637D02*
X7135182Y-24112637D01*
X7135182Y-24112637D02*
X7116134Y-24122160D01*
X7116134Y-24122160D02*
X7106610Y-24131684D01*
X7316134Y-24245970D02*
X7297087Y-24236446D01*
X7297087Y-24236446D02*
X7287563Y-24226922D01*
X7287563Y-24226922D02*
X7278039Y-24207875D01*
X7278039Y-24207875D02*
X7278039Y-24150732D01*
X7278039Y-24150732D02*
X7287563Y-24131684D01*
X7287563Y-24131684D02*
X7297087Y-24122160D01*
X7297087Y-24122160D02*
X7316134Y-24112637D01*
X7316134Y-24112637D02*
X7344706Y-24112637D01*
X7344706Y-24112637D02*
X7363753Y-24122160D01*
X7363753Y-24122160D02*
X7373277Y-24131684D01*
X7373277Y-24131684D02*
X7382801Y-24150732D01*
X7382801Y-24150732D02*
X7382801Y-24207875D01*
X7382801Y-24207875D02*
X7373277Y-24226922D01*
X7373277Y-24226922D02*
X7363753Y-24236446D01*
X7363753Y-24236446D02*
X7344706Y-24245970D01*
X7344706Y-24245970D02*
X7316134Y-24245970D01*
X7497087Y-24245970D02*
X7478039Y-24236446D01*
X7478039Y-24236446D02*
X7468515Y-24217398D01*
X7468515Y-24217398D02*
X7468515Y-24045970D01*
X7649468Y-24236446D02*
X7630420Y-24245970D01*
X7630420Y-24245970D02*
X7592325Y-24245970D01*
X7592325Y-24245970D02*
X7573277Y-24236446D01*
X7573277Y-24236446D02*
X7563753Y-24217398D01*
X7563753Y-24217398D02*
X7563753Y-24141208D01*
X7563753Y-24141208D02*
X7573277Y-24122160D01*
X7573277Y-24122160D02*
X7592325Y-24112637D01*
X7592325Y-24112637D02*
X7630420Y-24112637D01*
X7630420Y-24112637D02*
X7649468Y-24122160D01*
X7649468Y-24122160D02*
X7658991Y-24141208D01*
X7658991Y-24141208D02*
X7658991Y-24160256D01*
X7658991Y-24160256D02*
X7563753Y-24179303D01*
X7735182Y-24236446D02*
X7754230Y-24245970D01*
X7754230Y-24245970D02*
X7792325Y-24245970D01*
X7792325Y-24245970D02*
X7811372Y-24236446D01*
X7811372Y-24236446D02*
X7820896Y-24217398D01*
X7820896Y-24217398D02*
X7820896Y-24207875D01*
X7820896Y-24207875D02*
X7811372Y-24188827D01*
X7811372Y-24188827D02*
X7792325Y-24179303D01*
X7792325Y-24179303D02*
X7763753Y-24179303D01*
X7763753Y-24179303D02*
X7744706Y-24169779D01*
X7744706Y-24169779D02*
X7735182Y-24150732D01*
X7735182Y-24150732D02*
X7735182Y-24141208D01*
X7735182Y-24141208D02*
X7744706Y-24122160D01*
X7744706Y-24122160D02*
X7763753Y-24112637D01*
X7763753Y-24112637D02*
X7792325Y-24112637D01*
X7792325Y-24112637D02*
X7811372Y-24122160D01*
X7887563Y-24322160D02*
X7897087Y-24312637D01*
X7897087Y-24312637D02*
X7916134Y-24284065D01*
X7916134Y-24284065D02*
X7925658Y-24265018D01*
X7925658Y-24265018D02*
X7935182Y-24236446D01*
X7935182Y-24236446D02*
X7944706Y-24188827D01*
X7944706Y-24188827D02*
X7944706Y-24150732D01*
X7944706Y-24150732D02*
X7935182Y-24103113D01*
X7935182Y-24103113D02*
X7925658Y-24074541D01*
X7925658Y-24074541D02*
X7916134Y-24055494D01*
X7916134Y-24055494D02*
X7897087Y-24026922D01*
X7897087Y-24026922D02*
X7887563Y-24017398D01*
M02*
