%TF.GenerationSoftware,KiCad,Pcbnew,7.0.7*%
%TF.CreationDate,2023-12-22T23:49:47+01:00*%
%TF.ProjectId,isokey,69736f6b-6579-42e6-9b69-6361645f7063,A*%
%TF.SameCoordinates,Original*%
%TF.FileFunction,Drillmap*%
%TF.FilePolarity,Positive*%
%FSLAX45Y45*%
G04 Gerber Fmt 4.5, Leading zero omitted, Abs format (unit mm)*
G04 Created by KiCad (PCBNEW 7.0.7) date 2023-12-22 23:49:47*
%MOMM*%
%LPD*%
G01*
G04 APERTURE LIST*
%ADD10C,0.250000*%
%ADD11C,0.200000*%
%ADD12C,0.170180*%
%ADD13C,0.300000*%
%ADD14C,0.304800*%
%ADD15C,0.398780*%
G04 APERTURE END LIST*
D10*
X21094135Y-9473599D02*
G75*
G03*
X21478428Y-9400612I184345J77569D01*
G01*
D11*
X30548517Y-20262592D02*
G75*
G03*
X30548517Y-20262592I-160000J0D01*
G01*
D10*
X18363955Y-8986398D02*
G75*
G03*
X18946926Y-8903756I218105J558958D01*
G01*
X22198849Y-9056894D02*
G75*
G03*
X23791262Y-9554010I1466811J1899594D01*
G01*
X15900447Y-8353350D02*
G75*
G03*
X16231206Y-8889551I600003J0D01*
G01*
X3125000Y-8199277D02*
X3125000Y-10250000D01*
X39194560Y-11837938D02*
G75*
G03*
X39100443Y-12095690I305860J-257742D01*
G01*
X3125000Y-10250000D02*
X3125000Y-20204581D01*
X14100443Y-7117985D02*
G75*
G03*
X13511156Y-7561773I1656667J-2812955D01*
G01*
X38300443Y-21327153D02*
G75*
G03*
X39100443Y-20527146I-3J800003D01*
G01*
X15900447Y-8353350D02*
X15900447Y-8199280D01*
X30775522Y-21327146D02*
X38300443Y-21327146D01*
X3898120Y-21004129D02*
X17356673Y-21456592D01*
X26357312Y-9419529D02*
X23791262Y-9554010D01*
X18363955Y-8986398D02*
G75*
G03*
X17731254Y-8954899I-363515J-931592D01*
G01*
X11154839Y-7058803D02*
G75*
G03*
X11109847Y-7045667I-1309299J-4400897D01*
G01*
X3124999Y-20204581D02*
G75*
G03*
X3898120Y-21004129I800001J1D01*
G01*
D11*
X18160000Y-9975998D02*
G75*
G03*
X18160000Y-9975998I-160000J0D01*
G01*
D10*
X20679255Y-21422625D02*
X30365055Y-20915014D01*
X22198842Y-9056904D02*
G75*
G03*
X21478428Y-9400612I-273322J-353966D01*
G01*
X39100447Y-9904800D02*
G75*
G03*
X39194561Y-10162552I399983J-10D01*
G01*
X39100443Y-9417986D02*
X39100443Y-7317986D01*
X28969052Y-7755174D02*
G75*
G03*
X29008024Y-7711987I-10971512J9939814D01*
G01*
X11109847Y-7045666D02*
G75*
G03*
X10779416Y-6999277I-330427J-1153614D01*
G01*
X10779416Y-6999277D02*
X4325000Y-6999277D01*
X27490125Y-8471358D02*
G75*
G03*
X28634478Y-8013571I-1708575J5930188D01*
G01*
X39100444Y-7317986D02*
G75*
G03*
X37900443Y-6117986I-1200004J-4D01*
G01*
X28634478Y-8013572D02*
G75*
G03*
X28969052Y-7755174I-554718J1064052D01*
G01*
X15900447Y-8199277D02*
G75*
G03*
X14100443Y-7117986I-1232983J-13662D01*
G01*
D11*
X4084557Y-20262592D02*
G75*
G03*
X4084557Y-20262592I-160000J0D01*
G01*
D10*
X17928748Y-21623943D02*
G75*
G03*
X17356673Y-21456593I-612398J-1031967D01*
G01*
X30444295Y-5888761D02*
G75*
G03*
X31467880Y-6117986I1023595J2170801D01*
G01*
D11*
X19160000Y-21600000D02*
G75*
G03*
X19160000Y-21600000I-160000J0D01*
G01*
X29042027Y-8919158D02*
G75*
G03*
X29042027Y-8919158I-160000J0D01*
G01*
X19160000Y-12575000D02*
G75*
G03*
X19160000Y-12575000I-160000J0D01*
G01*
X19160000Y-17775998D02*
G75*
G03*
X19160000Y-17775998I-160000J0D01*
G01*
D10*
X27490124Y-8471355D02*
G75*
G03*
X26888305Y-9029426I252266J-875575D01*
G01*
X30444294Y-5888762D02*
G75*
G03*
X29302792Y-6735256I-343850J-729224D01*
G01*
X16231206Y-8889551D02*
G75*
G03*
X17731254Y-8954899I850644J2277051D01*
G01*
D11*
X8620380Y-7482289D02*
G75*
G03*
X8620380Y-7482289I-160000J0D01*
G01*
X4084557Y-12408012D02*
G75*
G03*
X4084557Y-12408012I-160000J0D01*
G01*
X37360000Y-9786612D02*
G75*
G03*
X37360000Y-9786612I-160000J0D01*
G01*
D10*
X30575520Y-21114739D02*
G75*
G03*
X30365055Y-20915014I-200000J-1D01*
G01*
X30575522Y-21114739D02*
X30575522Y-21127146D01*
X4325000Y-6999277D02*
G75*
G03*
X3125000Y-8199277I0J-1200000D01*
G01*
X39100443Y-9904800D02*
X39100443Y-9417986D01*
X11745168Y-7453717D02*
G75*
G03*
X13511156Y-7561773I932512J755258D01*
G01*
X37900443Y-6117986D02*
X31467880Y-6117986D01*
X29008027Y-7711989D02*
G75*
G03*
X29302792Y-6735256I-892467J802179D01*
G01*
X11745164Y-7453721D02*
G75*
G03*
X11154839Y-7058803I-932514J-755259D01*
G01*
X26357312Y-9419531D02*
G75*
G03*
X26888305Y-9029426I-31412J599191D01*
G01*
X17928749Y-21623941D02*
G75*
G03*
X20108744Y-21601710I1071694J1805955D01*
G01*
X39100443Y-20527146D02*
X39100443Y-12095690D01*
X20679255Y-21422624D02*
G75*
G03*
X20108744Y-21601710I62805J-1198356D01*
G01*
D11*
X38560000Y-20585157D02*
G75*
G03*
X38560000Y-20585157I-160000J0D01*
G01*
D10*
X39194561Y-11837938D02*
G75*
G03*
X39194561Y-10162552I-994115J837693D01*
G01*
X30575514Y-21127146D02*
G75*
G03*
X30775522Y-21327146I200006J6D01*
G01*
X21094136Y-9473598D02*
G75*
G03*
X18946926Y-8903756I-1293693J-544388D01*
G01*
D11*
D12*
X4231467Y-18224926D02*
X4401647Y-18395106D01*
X4401647Y-18224926D02*
X4231467Y-18395106D01*
X4488717Y-10762206D02*
X4658897Y-10932386D01*
X4658897Y-10762206D02*
X4488717Y-10932386D01*
X5247467Y-18224926D02*
X5417647Y-18395106D01*
X5417647Y-18224926D02*
X5247467Y-18395106D01*
X5504717Y-10762206D02*
X5674897Y-10932386D01*
X5674897Y-10762206D02*
X5504717Y-10932386D01*
X6179337Y-15172171D02*
X6349517Y-15342351D01*
X6349517Y-15172171D02*
X6179337Y-15342351D01*
X6417467Y-13267386D02*
X6587647Y-13437566D01*
X6587647Y-13267386D02*
X6417467Y-13437566D01*
X6655587Y-17077126D02*
X6825767Y-17247306D01*
X6825767Y-17077126D02*
X6655587Y-17247306D01*
X6655587Y-19421885D02*
X6825767Y-19592065D01*
X6825767Y-19421885D02*
X6655587Y-19592065D01*
X6893717Y-11362206D02*
X7063897Y-11532386D01*
X7063897Y-11362206D02*
X6893717Y-11532386D01*
X6914790Y-8871151D02*
X7084970Y-9041331D01*
X7084970Y-8871151D02*
X6914790Y-9041331D01*
X7195337Y-15172171D02*
X7365517Y-15342351D01*
X7365517Y-15172171D02*
X7195337Y-15342351D01*
X7433467Y-13267386D02*
X7603647Y-13437566D01*
X7603647Y-13267386D02*
X7433467Y-13437566D01*
X7671587Y-17077126D02*
X7841767Y-17247306D01*
X7841767Y-17077126D02*
X7671587Y-17247306D01*
X7671587Y-19421885D02*
X7841767Y-19592065D01*
X7841767Y-19421885D02*
X7671587Y-19592065D01*
X7909717Y-11362206D02*
X8079897Y-11532386D01*
X8079897Y-11362206D02*
X7909717Y-11532386D01*
X7930790Y-8871151D02*
X8100970Y-9041331D01*
X8100970Y-8871151D02*
X7930790Y-9041331D01*
X8819790Y-8871151D02*
X8989970Y-9041331D01*
X8989970Y-8871151D02*
X8819790Y-9041331D01*
X8953083Y-17113945D02*
X9123263Y-17284125D01*
X9123263Y-17113945D02*
X8953083Y-17284125D01*
X9052783Y-15211556D02*
X9222963Y-15381736D01*
X9222963Y-15211556D02*
X9052783Y-15381736D01*
X9123469Y-19464356D02*
X9293649Y-19634536D01*
X9293649Y-19464356D02*
X9123469Y-19634536D01*
X9152483Y-13309167D02*
X9322663Y-13479347D01*
X9322663Y-13309167D02*
X9152483Y-13479347D01*
X9252183Y-11406777D02*
X9422363Y-11576957D01*
X9422363Y-11406777D02*
X9252183Y-11576957D01*
X9835790Y-8871151D02*
X10005970Y-9041331D01*
X10005970Y-8871151D02*
X9835790Y-9041331D01*
X9967690Y-17167119D02*
X10137870Y-17337299D01*
X10137870Y-17167119D02*
X9967690Y-17337299D01*
X10067390Y-15264729D02*
X10237570Y-15434909D01*
X10237570Y-15264729D02*
X10067390Y-15434909D01*
X10138076Y-19517529D02*
X10308256Y-19687709D01*
X10308256Y-19517529D02*
X10138076Y-19687709D01*
X10167090Y-13362340D02*
X10337270Y-13532520D01*
X10337270Y-13362340D02*
X10167090Y-13532520D01*
X10266790Y-11459951D02*
X10436970Y-11630131D01*
X10436970Y-11459951D02*
X10266790Y-11630131D01*
X10855472Y-17213645D02*
X11025652Y-17383825D01*
X11025652Y-17213645D02*
X10855472Y-17383825D01*
X10955172Y-15311256D02*
X11125352Y-15481436D01*
X11125352Y-15311256D02*
X10955172Y-15481436D01*
X11054872Y-13408867D02*
X11225052Y-13579047D01*
X11225052Y-13408867D02*
X11054872Y-13579047D01*
X11154572Y-11506477D02*
X11324752Y-11676657D01*
X11324752Y-11506477D02*
X11154572Y-11676657D01*
X11603260Y-19549120D02*
X11773440Y-19719300D01*
X11773440Y-19549120D02*
X11603260Y-19719300D01*
X11870080Y-17266819D02*
X12040260Y-17436999D01*
X12040260Y-17266819D02*
X11870080Y-17436999D01*
X11969780Y-15364429D02*
X12139960Y-15534609D01*
X12139960Y-15364429D02*
X11969780Y-15534609D01*
X12069480Y-13462040D02*
X12239660Y-13632220D01*
X12239660Y-13462040D02*
X12069480Y-13632220D01*
X12169180Y-11559651D02*
X12339360Y-11729831D01*
X12339360Y-11559651D02*
X12169180Y-11729831D01*
X12617868Y-19602294D02*
X12788048Y-19772474D01*
X12788048Y-19602294D02*
X12617868Y-19772474D01*
X12757861Y-17313345D02*
X12928041Y-17483525D01*
X12928041Y-17313345D02*
X12757861Y-17483525D01*
X12857561Y-15410956D02*
X13027741Y-15581136D01*
X13027741Y-15410956D02*
X12857561Y-15581136D01*
X12957261Y-13508567D02*
X13127441Y-13678747D01*
X13127441Y-13508567D02*
X12957261Y-13678747D01*
X13056961Y-11606177D02*
X13227141Y-11776357D01*
X13227141Y-11606177D02*
X13056961Y-11776357D01*
X13772469Y-17366519D02*
X13942649Y-17536699D01*
X13942649Y-17366519D02*
X13772469Y-17536699D01*
X13872169Y-15464129D02*
X14042349Y-15634309D01*
X14042349Y-15464129D02*
X13872169Y-15634309D01*
X13971869Y-13561740D02*
X14142049Y-13731920D01*
X14142049Y-13561740D02*
X13971869Y-13731920D01*
X14071569Y-11659351D02*
X14241749Y-11829531D01*
X14241749Y-11659351D02*
X14071569Y-11829531D01*
X14660251Y-17413045D02*
X14830431Y-17583225D01*
X14830431Y-17413045D02*
X14660251Y-17583225D01*
X14759951Y-15510656D02*
X14930131Y-15680836D01*
X14930131Y-15510656D02*
X14759951Y-15680836D01*
X14859651Y-13608267D02*
X15029831Y-13778447D01*
X15029831Y-13608267D02*
X14859651Y-13778447D01*
X14959351Y-11705877D02*
X15129531Y-11876057D01*
X15129531Y-11705877D02*
X14959351Y-11876057D01*
X15177398Y-19647635D02*
X15347578Y-19817815D01*
X15347578Y-19647635D02*
X15177398Y-19817815D01*
X15674858Y-17466219D02*
X15845038Y-17636399D01*
X15845038Y-17466219D02*
X15674858Y-17636399D01*
X15774558Y-15563829D02*
X15944738Y-15734009D01*
X15944738Y-15563829D02*
X15774558Y-15734009D01*
X15874258Y-13661440D02*
X16044438Y-13831620D01*
X16044438Y-13661440D02*
X15874258Y-13831620D01*
X15973958Y-11759051D02*
X16144138Y-11929231D01*
X16144138Y-11759051D02*
X15973958Y-11929231D01*
X16192005Y-19700808D02*
X16362185Y-19870988D01*
X16362185Y-19700808D02*
X16192005Y-19870988D01*
X16562640Y-17512745D02*
X16732820Y-17682925D01*
X16732820Y-17512745D02*
X16562640Y-17682925D01*
X16662340Y-15610356D02*
X16832520Y-15780536D01*
X16832520Y-15610356D02*
X16662340Y-15780536D01*
X16762040Y-13707967D02*
X16932220Y-13878147D01*
X16932220Y-13707967D02*
X16762040Y-13878147D01*
X16861740Y-11805577D02*
X17031920Y-11975757D01*
X17031920Y-11805577D02*
X16861740Y-11975757D01*
X17577248Y-17565919D02*
X17747428Y-17736099D01*
X17747428Y-17565919D02*
X17577248Y-17736099D01*
X17676948Y-15663529D02*
X17847128Y-15833709D01*
X17847128Y-15663529D02*
X17676948Y-15833709D01*
X17776648Y-13761140D02*
X17946828Y-13931320D01*
X17946828Y-13761140D02*
X17776648Y-13931320D01*
X17876348Y-11858751D02*
X18046528Y-12028931D01*
X18046528Y-11858751D02*
X17876348Y-12028931D01*
X19953423Y-11858753D02*
X20123603Y-12028933D01*
X20123603Y-11858753D02*
X19953423Y-12028933D01*
X20053123Y-13761143D02*
X20223303Y-13931323D01*
X20223303Y-13761143D02*
X20053123Y-13931323D01*
X20152823Y-15663532D02*
X20323003Y-15833712D01*
X20323003Y-15663532D02*
X20152823Y-15833712D01*
X20252522Y-17565911D02*
X20422702Y-17736091D01*
X20422702Y-17565911D02*
X20252522Y-17736091D01*
X20968030Y-11805580D02*
X21138210Y-11975760D01*
X21138210Y-11805580D02*
X20968030Y-11975760D01*
X21067730Y-13707969D02*
X21237910Y-13878149D01*
X21237910Y-13707969D02*
X21067730Y-13878149D01*
X21167430Y-15610358D02*
X21337610Y-15780538D01*
X21337610Y-15610358D02*
X21167430Y-15780538D01*
X21267130Y-17512738D02*
X21437310Y-17682918D01*
X21437310Y-17512738D02*
X21267130Y-17682918D01*
X21667327Y-19644462D02*
X21837507Y-19814642D01*
X21837507Y-19644462D02*
X21667327Y-19814642D01*
X21855812Y-11759053D02*
X22025992Y-11929233D01*
X22025992Y-11759053D02*
X21855812Y-11929233D01*
X21955512Y-13661443D02*
X22125692Y-13831623D01*
X22125692Y-13661443D02*
X21955512Y-13831623D01*
X22055112Y-15563837D02*
X22225292Y-15734017D01*
X22225292Y-15563837D02*
X22055112Y-15734017D01*
X22154911Y-17466211D02*
X22325091Y-17636391D01*
X22325091Y-17466211D02*
X22154911Y-17636391D01*
X22681934Y-19591288D02*
X22852114Y-19761468D01*
X22852114Y-19591288D02*
X22681934Y-19761468D01*
X22870419Y-11705880D02*
X23040599Y-11876060D01*
X23040599Y-11705880D02*
X22870419Y-11876060D01*
X22970119Y-13608269D02*
X23140299Y-13778449D01*
X23140299Y-13608269D02*
X22970119Y-13778449D01*
X23069720Y-15510664D02*
X23239900Y-15680844D01*
X23239900Y-15510664D02*
X23069720Y-15680844D01*
X23169519Y-17413038D02*
X23339699Y-17583218D01*
X23339699Y-17413038D02*
X23169519Y-17583218D01*
X23758101Y-11659359D02*
X23928281Y-11829539D01*
X23928281Y-11659359D02*
X23758101Y-11829539D01*
X23857801Y-13561748D02*
X24027981Y-13731928D01*
X24027981Y-13561748D02*
X23857801Y-13731928D01*
X23957501Y-15464137D02*
X24127681Y-15634317D01*
X24127681Y-15464137D02*
X23957501Y-15634317D01*
X24057301Y-17366511D02*
X24227481Y-17536691D01*
X24227481Y-17366511D02*
X24057301Y-17536691D01*
X24772709Y-11606185D02*
X24942889Y-11776365D01*
X24942889Y-11606185D02*
X24772709Y-11776365D01*
X24872409Y-13508574D02*
X25042589Y-13678754D01*
X25042589Y-13508574D02*
X24872409Y-13678754D01*
X24972109Y-15410964D02*
X25142289Y-15581144D01*
X25142289Y-15410964D02*
X24972109Y-15581144D01*
X25071908Y-17313338D02*
X25242088Y-17483518D01*
X25242088Y-17313338D02*
X25071908Y-17483518D01*
X25261124Y-19494816D02*
X25431304Y-19664996D01*
X25431304Y-19494816D02*
X25261124Y-19664996D01*
X25660490Y-11559659D02*
X25830670Y-11729839D01*
X25830670Y-11559659D02*
X25660490Y-11729839D01*
X25760190Y-13462048D02*
X25930370Y-13632228D01*
X25930370Y-13462048D02*
X25760190Y-13632228D01*
X25860040Y-15364429D02*
X26030220Y-15534609D01*
X26030220Y-15364429D02*
X25860040Y-15534609D01*
X25959590Y-17266817D02*
X26129770Y-17436997D01*
X26129770Y-17266817D02*
X25959590Y-17436997D01*
X26275732Y-19441642D02*
X26445912Y-19611822D01*
X26445912Y-19441642D02*
X26275732Y-19611822D01*
X26675098Y-11506485D02*
X26845278Y-11676665D01*
X26845278Y-11506485D02*
X26675098Y-11676665D01*
X26774798Y-13408874D02*
X26944978Y-13579054D01*
X26944978Y-13408874D02*
X26774798Y-13579054D01*
X26874648Y-15311256D02*
X27044828Y-15481436D01*
X27044828Y-15311256D02*
X26874648Y-15481436D01*
X26974198Y-17213643D02*
X27144378Y-17383823D01*
X27144378Y-17213643D02*
X26974198Y-17383823D01*
X27563029Y-11459951D02*
X27733209Y-11630131D01*
X27733209Y-11459951D02*
X27563029Y-11630131D01*
X27639265Y-19372187D02*
X27809445Y-19542367D01*
X27809445Y-19372187D02*
X27639265Y-19542367D01*
X27662729Y-13362340D02*
X27832909Y-13532520D01*
X27832909Y-13362340D02*
X27662729Y-13532520D01*
X27762430Y-15264729D02*
X27932610Y-15434909D01*
X27932610Y-15264729D02*
X27762430Y-15434909D01*
X27861979Y-17167117D02*
X28032159Y-17337297D01*
X28032159Y-17167117D02*
X27861979Y-17337297D01*
X28577637Y-11406777D02*
X28747817Y-11576957D01*
X28747817Y-11406777D02*
X28577637Y-11576957D01*
X28653873Y-19319013D02*
X28824053Y-19489193D01*
X28824053Y-19319013D02*
X28653873Y-19489193D01*
X28677337Y-13309167D02*
X28847517Y-13479347D01*
X28847517Y-13309167D02*
X28677337Y-13479347D01*
X28777037Y-15211556D02*
X28947217Y-15381736D01*
X28947217Y-15211556D02*
X28777037Y-15381736D01*
X28876587Y-17113943D02*
X29046767Y-17284123D01*
X29046767Y-17113943D02*
X28876587Y-17284123D01*
X29465419Y-11360251D02*
X29635599Y-11530431D01*
X29635599Y-11360251D02*
X29465419Y-11530431D01*
X29565119Y-13262640D02*
X29735299Y-13432820D01*
X29735299Y-13262640D02*
X29565119Y-13432820D01*
X29664819Y-15165029D02*
X29834999Y-15335209D01*
X29834999Y-15165029D02*
X29664819Y-15335209D01*
X30002292Y-17054947D02*
X30172472Y-17225127D01*
X30172472Y-17054947D02*
X30002292Y-17225127D01*
X30480026Y-11307077D02*
X30650206Y-11477257D01*
X30650206Y-11307077D02*
X30480026Y-11477257D01*
X30579726Y-13209467D02*
X30749906Y-13379647D01*
X30749906Y-13209467D02*
X30579726Y-13379647D01*
X30679426Y-15111856D02*
X30849606Y-15282036D01*
X30849606Y-15111856D02*
X30679426Y-15282036D01*
X31016900Y-17001774D02*
X31187080Y-17171954D01*
X31187080Y-17001774D02*
X31016900Y-17171954D01*
X31367808Y-11260551D02*
X31537988Y-11430731D01*
X31537988Y-11260551D02*
X31367808Y-11430731D01*
X31467508Y-13162940D02*
X31637688Y-13333120D01*
X31637688Y-13162940D02*
X31467508Y-13333120D01*
X31567208Y-15065329D02*
X31737388Y-15235509D01*
X31737388Y-15065329D02*
X31567208Y-15235509D01*
X31681989Y-19599120D02*
X31852169Y-19769300D01*
X31852169Y-19599120D02*
X31681989Y-19769300D01*
X32382416Y-11207377D02*
X32552596Y-11377557D01*
X32552596Y-11207377D02*
X32382416Y-11377557D01*
X32482116Y-13109767D02*
X32652296Y-13279947D01*
X32652296Y-13109767D02*
X32482116Y-13279947D01*
X32581816Y-15012156D02*
X32751996Y-15182336D01*
X32751996Y-15012156D02*
X32581816Y-15182336D01*
X32697989Y-19599120D02*
X32868169Y-19769300D01*
X32868169Y-19599120D02*
X32697989Y-19769300D01*
X33586989Y-17694120D02*
X33757169Y-17864300D01*
X33757169Y-17694120D02*
X33586989Y-17864300D01*
X33586989Y-19599120D02*
X33757169Y-19769300D01*
X33757169Y-19599120D02*
X33586989Y-19769300D01*
X34153639Y-14029021D02*
X34323819Y-14199201D01*
X34323819Y-14029021D02*
X34153639Y-14199201D01*
X34392089Y-11171651D02*
X34562269Y-11341831D01*
X34562269Y-11171651D02*
X34392089Y-11341831D01*
X34602989Y-17694120D02*
X34773169Y-17864300D01*
X34773169Y-17694120D02*
X34602989Y-17864300D01*
X34602989Y-19599120D02*
X34773169Y-19769300D01*
X34773169Y-19599120D02*
X34602989Y-19769300D01*
X35169639Y-14029021D02*
X35339819Y-14199201D01*
X35339819Y-14029021D02*
X35169639Y-14199201D01*
X35408089Y-11171651D02*
X35578269Y-11341831D01*
X35578269Y-11171651D02*
X35408089Y-11341831D01*
X35491989Y-19599120D02*
X35662169Y-19769300D01*
X35662169Y-19599120D02*
X35491989Y-19769300D01*
X36507989Y-19599120D02*
X36678169Y-19769300D01*
X36678169Y-19599120D02*
X36507989Y-19769300D01*
X36806910Y-13384910D02*
X36977090Y-13555090D01*
X36977090Y-13384910D02*
X36806910Y-13555090D01*
X36806910Y-15289910D02*
X36977090Y-15460090D01*
X36977090Y-15289910D02*
X36806910Y-15460090D01*
X36806910Y-17194818D02*
X36977090Y-17364998D01*
X36977090Y-17194818D02*
X36806910Y-17364998D01*
X37822910Y-13384910D02*
X37993090Y-13555090D01*
X37993090Y-13384910D02*
X37822910Y-13555090D01*
X37822910Y-15289910D02*
X37993090Y-15460090D01*
X37993090Y-15289910D02*
X37822910Y-15460090D01*
X37822910Y-17194818D02*
X37993090Y-17364998D01*
X37993090Y-17194818D02*
X37822910Y-17364998D01*
D11*
X4924557Y-18810016D02*
G75*
G03*
X4924557Y-18810016I-100000J0D01*
G01*
X4724557Y-18735016D02*
X4724557Y-18885016D01*
X4724557Y-18885016D02*
G75*
G03*
X4924557Y-18885016I100000J0D01*
G01*
X4924557Y-18885016D02*
X4924557Y-18735016D01*
X4924557Y-18735016D02*
G75*
G03*
X4724557Y-18735016I-100000J0D01*
G01*
X5181807Y-11347296D02*
G75*
G03*
X5181807Y-11347296I-100000J0D01*
G01*
X4981807Y-11272296D02*
X4981807Y-11422296D01*
X4981807Y-11422296D02*
G75*
G03*
X5181807Y-11422296I100000J0D01*
G01*
X5181807Y-11422296D02*
X5181807Y-11272296D01*
X5181807Y-11272296D02*
G75*
G03*
X4981807Y-11272296I-100000J0D01*
G01*
X6872427Y-15757261D02*
G75*
G03*
X6872427Y-15757261I-100000J0D01*
G01*
X6672427Y-15682261D02*
X6672427Y-15832261D01*
X6672427Y-15832261D02*
G75*
G03*
X6872427Y-15832261I100000J0D01*
G01*
X6872427Y-15832261D02*
X6872427Y-15682261D01*
X6872427Y-15682261D02*
G75*
G03*
X6672427Y-15682261I-100000J0D01*
G01*
X7110557Y-13852476D02*
G75*
G03*
X7110557Y-13852476I-100000J0D01*
G01*
X6910557Y-13777476D02*
X6910557Y-13927476D01*
X6910557Y-13927476D02*
G75*
G03*
X7110557Y-13927476I100000J0D01*
G01*
X7110557Y-13927476D02*
X7110557Y-13777476D01*
X7110557Y-13777476D02*
G75*
G03*
X6910557Y-13777476I-100000J0D01*
G01*
X7348677Y-17662216D02*
G75*
G03*
X7348677Y-17662216I-100000J0D01*
G01*
X7148677Y-17587216D02*
X7148677Y-17737216D01*
X7148677Y-17737216D02*
G75*
G03*
X7348677Y-17737216I100000J0D01*
G01*
X7348677Y-17737216D02*
X7348677Y-17587216D01*
X7348677Y-17587216D02*
G75*
G03*
X7148677Y-17587216I-100000J0D01*
G01*
X7348677Y-20006975D02*
G75*
G03*
X7348677Y-20006975I-100000J0D01*
G01*
X7148677Y-19931975D02*
X7148677Y-20081975D01*
X7148677Y-20081975D02*
G75*
G03*
X7348677Y-20081975I100000J0D01*
G01*
X7348677Y-20081975D02*
X7348677Y-19931975D01*
X7348677Y-19931975D02*
G75*
G03*
X7148677Y-19931975I-100000J0D01*
G01*
X7586807Y-11947296D02*
G75*
G03*
X7586807Y-11947296I-100000J0D01*
G01*
X7386807Y-11872296D02*
X7386807Y-12022296D01*
X7386807Y-12022296D02*
G75*
G03*
X7586807Y-12022296I100000J0D01*
G01*
X7586807Y-12022296D02*
X7586807Y-11872296D01*
X7586807Y-11872296D02*
G75*
G03*
X7386807Y-11872296I-100000J0D01*
G01*
X7607880Y-9456241D02*
G75*
G03*
X7607880Y-9456241I-100000J0D01*
G01*
X7407880Y-9381241D02*
X7407880Y-9531241D01*
X7407880Y-9531241D02*
G75*
G03*
X7607880Y-9531241I100000J0D01*
G01*
X7607880Y-9531241D02*
X7607880Y-9381241D01*
X7607880Y-9381241D02*
G75*
G03*
X7407880Y-9381241I-100000J0D01*
G01*
X9512880Y-9456241D02*
G75*
G03*
X9512880Y-9456241I-100000J0D01*
G01*
X9312880Y-9381241D02*
X9312880Y-9531241D01*
X9312880Y-9531241D02*
G75*
G03*
X9512880Y-9531241I100000J0D01*
G01*
X9512880Y-9531241D02*
X9512880Y-9381241D01*
X9512880Y-9381241D02*
G75*
G03*
X9312880Y-9381241I-100000J0D01*
G01*
X9619309Y-17724937D02*
G75*
G03*
X9619309Y-17724937I-100000J0D01*
G01*
X9423371Y-17644806D02*
X9415520Y-17794600D01*
X9415520Y-17794600D02*
G75*
G03*
X9615246Y-17805068I99863J-5234D01*
G01*
X9615246Y-17805068D02*
X9623097Y-17655273D01*
X9623097Y-17655273D02*
G75*
G03*
X9423371Y-17644806I-99863J5234D01*
G01*
X9719009Y-15822547D02*
G75*
G03*
X9719009Y-15822547I-100000J0D01*
G01*
X9523071Y-15742417D02*
X9515220Y-15892211D01*
X9515220Y-15892211D02*
G75*
G03*
X9714946Y-15902678I99863J-5234D01*
G01*
X9714946Y-15902678D02*
X9722797Y-15752884D01*
X9722797Y-15752884D02*
G75*
G03*
X9523071Y-15742417I-99863J5234D01*
G01*
X9789694Y-20075347D02*
G75*
G03*
X9789694Y-20075347I-100000J0D01*
G01*
X9593757Y-19995216D02*
X9585906Y-20145011D01*
X9585906Y-20145011D02*
G75*
G03*
X9785632Y-20155478I99863J-5234D01*
G01*
X9785632Y-20155478D02*
X9793483Y-20005683D01*
X9793483Y-20005683D02*
G75*
G03*
X9593757Y-19995216I-99863J5234D01*
G01*
X9818709Y-13920158D02*
G75*
G03*
X9818709Y-13920158I-100000J0D01*
G01*
X9622771Y-13840027D02*
X9614920Y-13989822D01*
X9614920Y-13989822D02*
G75*
G03*
X9814646Y-14000289I99863J-5234D01*
G01*
X9814646Y-14000289D02*
X9822497Y-13850495D01*
X9822497Y-13850495D02*
G75*
G03*
X9622771Y-13840027I-99863J5234D01*
G01*
X9918409Y-12017769D02*
G75*
G03*
X9918409Y-12017769I-100000J0D01*
G01*
X9722471Y-11937638D02*
X9714620Y-12087432D01*
X9714620Y-12087432D02*
G75*
G03*
X9914346Y-12097900I99863J-5234D01*
G01*
X9914346Y-12097900D02*
X9922197Y-11948105D01*
X9922197Y-11948105D02*
G75*
G03*
X9722471Y-11937638I-99863J5234D01*
G01*
X11521698Y-17824637D02*
G75*
G03*
X11521698Y-17824637I-100000J0D01*
G01*
X11325760Y-17744506D02*
X11317910Y-17894300D01*
X11317910Y-17894300D02*
G75*
G03*
X11517636Y-17904768I99863J-5234D01*
G01*
X11517636Y-17904768D02*
X11525486Y-17754973D01*
X11525486Y-17754973D02*
G75*
G03*
X11325760Y-17744506I-99863J5234D01*
G01*
X11621398Y-15922247D02*
G75*
G03*
X11621398Y-15922247I-100000J0D01*
G01*
X11425460Y-15842117D02*
X11417610Y-15991911D01*
X11417610Y-15991911D02*
G75*
G03*
X11617336Y-16002378I99863J-5234D01*
G01*
X11617336Y-16002378D02*
X11625186Y-15852584D01*
X11625186Y-15852584D02*
G75*
G03*
X11425460Y-15842117I-99863J5234D01*
G01*
X11721098Y-14019858D02*
G75*
G03*
X11721098Y-14019858I-100000J0D01*
G01*
X11525160Y-13939727D02*
X11517310Y-14089522D01*
X11517310Y-14089522D02*
G75*
G03*
X11717036Y-14099989I99863J-5234D01*
G01*
X11717036Y-14099989D02*
X11724886Y-13950195D01*
X11724886Y-13950195D02*
G75*
G03*
X11525160Y-13939727I-99863J5234D01*
G01*
X11820798Y-12117469D02*
G75*
G03*
X11820798Y-12117469I-100000J0D01*
G01*
X11624860Y-12037338D02*
X11617010Y-12187132D01*
X11617010Y-12187132D02*
G75*
G03*
X11816736Y-12197600I99863J-5234D01*
G01*
X11816736Y-12197600D02*
X11824586Y-12047805D01*
X11824586Y-12047805D02*
G75*
G03*
X11624860Y-12037338I-99863J5234D01*
G01*
X12269486Y-20160112D02*
G75*
G03*
X12269486Y-20160112I-100000J0D01*
G01*
X12073548Y-20079981D02*
X12065698Y-20229775D01*
X12065698Y-20229775D02*
G75*
G03*
X12265424Y-20240243I99863J-5234D01*
G01*
X12265424Y-20240243D02*
X12273274Y-20090448D01*
X12273274Y-20090448D02*
G75*
G03*
X12073548Y-20079981I-99863J5234D01*
G01*
X13424087Y-17924337D02*
G75*
G03*
X13424087Y-17924337I-100000J0D01*
G01*
X13228149Y-17844206D02*
X13220299Y-17994000D01*
X13220299Y-17994000D02*
G75*
G03*
X13420025Y-18004468I99863J-5234D01*
G01*
X13420025Y-18004468D02*
X13427875Y-17854673D01*
X13427875Y-17854673D02*
G75*
G03*
X13228149Y-17844206I-99863J5234D01*
G01*
X13523787Y-16021947D02*
G75*
G03*
X13523787Y-16021947I-100000J0D01*
G01*
X13327849Y-15941817D02*
X13319999Y-16091611D01*
X13319999Y-16091611D02*
G75*
G03*
X13519725Y-16102078I99863J-5234D01*
G01*
X13519725Y-16102078D02*
X13527575Y-15952284D01*
X13527575Y-15952284D02*
G75*
G03*
X13327849Y-15941817I-99863J5234D01*
G01*
X13623487Y-14119558D02*
G75*
G03*
X13623487Y-14119558I-100000J0D01*
G01*
X13427549Y-14039427D02*
X13419699Y-14189222D01*
X13419699Y-14189222D02*
G75*
G03*
X13619425Y-14199689I99863J-5234D01*
G01*
X13619425Y-14199689D02*
X13627275Y-14049895D01*
X13627275Y-14049895D02*
G75*
G03*
X13427549Y-14039427I-99863J5234D01*
G01*
X13723187Y-12217169D02*
G75*
G03*
X13723187Y-12217169I-100000J0D01*
G01*
X13527249Y-12137038D02*
X13519399Y-12286832D01*
X13519399Y-12286832D02*
G75*
G03*
X13719125Y-12297300I99863J-5234D01*
G01*
X13719125Y-12297300D02*
X13726975Y-12147505D01*
X13726975Y-12147505D02*
G75*
G03*
X13527249Y-12137038I-99863J5234D01*
G01*
X15326476Y-18024037D02*
G75*
G03*
X15326476Y-18024037I-100000J0D01*
G01*
X15130539Y-17943906D02*
X15122688Y-18093700D01*
X15122688Y-18093700D02*
G75*
G03*
X15322414Y-18104168I99863J-5234D01*
G01*
X15322414Y-18104168D02*
X15330265Y-17954373D01*
X15330265Y-17954373D02*
G75*
G03*
X15130539Y-17943906I-99863J5234D01*
G01*
X15426176Y-16121647D02*
G75*
G03*
X15426176Y-16121647I-100000J0D01*
G01*
X15230239Y-16041517D02*
X15222388Y-16191311D01*
X15222388Y-16191311D02*
G75*
G03*
X15422114Y-16201778I99863J-5234D01*
G01*
X15422114Y-16201778D02*
X15429965Y-16051984D01*
X15429965Y-16051984D02*
G75*
G03*
X15230239Y-16041517I-99863J5234D01*
G01*
X15525876Y-14219258D02*
G75*
G03*
X15525876Y-14219258I-100000J0D01*
G01*
X15329939Y-14139127D02*
X15322088Y-14288922D01*
X15322088Y-14288922D02*
G75*
G03*
X15521814Y-14299389I99863J-5234D01*
G01*
X15521814Y-14299389D02*
X15529665Y-14149595D01*
X15529665Y-14149595D02*
G75*
G03*
X15329939Y-14139127I-99863J5234D01*
G01*
X15625576Y-12316869D02*
G75*
G03*
X15625576Y-12316869I-100000J0D01*
G01*
X15429639Y-12236738D02*
X15421788Y-12386532D01*
X15421788Y-12386532D02*
G75*
G03*
X15621514Y-12397000I99863J-5234D01*
G01*
X15621514Y-12397000D02*
X15629365Y-12247205D01*
X15629365Y-12247205D02*
G75*
G03*
X15429639Y-12236738I-99863J5234D01*
G01*
X15843624Y-20258626D02*
G75*
G03*
X15843624Y-20258626I-100000J0D01*
G01*
X15647686Y-20178496D02*
X15639835Y-20328290D01*
X15639835Y-20328290D02*
G75*
G03*
X15839561Y-20338757I99863J-5234D01*
G01*
X15839561Y-20338757D02*
X15847412Y-20188963D01*
X15847412Y-20188963D02*
G75*
G03*
X15647686Y-20178496I-99863J5234D01*
G01*
X17228866Y-18123737D02*
G75*
G03*
X17228866Y-18123737I-100000J0D01*
G01*
X17032928Y-18043606D02*
X17025078Y-18193400D01*
X17025078Y-18193400D02*
G75*
G03*
X17224804Y-18203868I99863J-5234D01*
G01*
X17224804Y-18203868D02*
X17232654Y-18054073D01*
X17232654Y-18054073D02*
G75*
G03*
X17032928Y-18043606I-99863J5234D01*
G01*
X17328566Y-16221347D02*
G75*
G03*
X17328566Y-16221347I-100000J0D01*
G01*
X17132628Y-16141217D02*
X17124778Y-16291011D01*
X17124778Y-16291011D02*
G75*
G03*
X17324504Y-16301478I99863J-5234D01*
G01*
X17324504Y-16301478D02*
X17332354Y-16151684D01*
X17332354Y-16151684D02*
G75*
G03*
X17132628Y-16141217I-99863J5234D01*
G01*
X17428266Y-14318958D02*
G75*
G03*
X17428266Y-14318958I-100000J0D01*
G01*
X17232328Y-14238827D02*
X17224478Y-14388622D01*
X17224478Y-14388622D02*
G75*
G03*
X17424204Y-14399089I99863J-5234D01*
G01*
X17424204Y-14399089D02*
X17432054Y-14249295D01*
X17432054Y-14249295D02*
G75*
G03*
X17232328Y-14238827I-99863J5234D01*
G01*
X17527966Y-12416569D02*
G75*
G03*
X17527966Y-12416569I-100000J0D01*
G01*
X17332028Y-12336438D02*
X17324178Y-12486232D01*
X17324178Y-12486232D02*
G75*
G03*
X17523904Y-12496700I99863J-5234D01*
G01*
X17523904Y-12496700D02*
X17531754Y-12346905D01*
X17531754Y-12346905D02*
G75*
G03*
X17332028Y-12336438I-99863J5234D01*
G01*
X20671984Y-12416571D02*
G75*
G03*
X20671984Y-12416571I-100000J0D01*
G01*
X20468196Y-12346908D02*
X20476047Y-12496702D01*
X20476047Y-12496702D02*
G75*
G03*
X20675773Y-12486235I99863J5234D01*
G01*
X20675773Y-12486235D02*
X20667922Y-12336441D01*
X20667922Y-12336441D02*
G75*
G03*
X20468196Y-12346908I-99863J-5234D01*
G01*
X20771684Y-14318961D02*
G75*
G03*
X20771684Y-14318961I-100000J0D01*
G01*
X20567896Y-14249297D02*
X20575747Y-14399092D01*
X20575747Y-14399092D02*
G75*
G03*
X20775473Y-14388624I99863J5234D01*
G01*
X20775473Y-14388624D02*
X20767622Y-14238830D01*
X20767622Y-14238830D02*
G75*
G03*
X20567896Y-14249297I-99863J-5234D01*
G01*
X20871384Y-16221350D02*
G75*
G03*
X20871384Y-16221350I-100000J0D01*
G01*
X20667596Y-16151686D02*
X20675447Y-16301481D01*
X20675447Y-16301481D02*
G75*
G03*
X20875173Y-16291014I99863J5234D01*
G01*
X20875173Y-16291014D02*
X20867322Y-16141219D01*
X20867322Y-16141219D02*
G75*
G03*
X20667596Y-16151686I-99863J-5234D01*
G01*
X20971084Y-18123729D02*
G75*
G03*
X20971084Y-18123729I-100000J0D01*
G01*
X20767296Y-18054066D02*
X20775146Y-18203860D01*
X20775146Y-18203860D02*
G75*
G03*
X20974872Y-18193393I99863J5234D01*
G01*
X20974872Y-18193393D02*
X20967022Y-18043599D01*
X20967022Y-18043599D02*
G75*
G03*
X20767296Y-18054066I-99863J-5234D01*
G01*
X22385889Y-20202280D02*
G75*
G03*
X22385889Y-20202280I-100000J0D01*
G01*
X22182100Y-20132616D02*
X22189951Y-20282411D01*
X22189951Y-20282411D02*
G75*
G03*
X22389677Y-20271943I99863J5234D01*
G01*
X22389677Y-20271943D02*
X22381826Y-20122149D01*
X22381826Y-20122149D02*
G75*
G03*
X22182100Y-20132616I-99863J-5234D01*
G01*
X22574374Y-12316871D02*
G75*
G03*
X22574374Y-12316871I-100000J0D01*
G01*
X22370585Y-12247208D02*
X22378436Y-12397002D01*
X22378436Y-12397002D02*
G75*
G03*
X22578162Y-12386535I99863J5234D01*
G01*
X22578162Y-12386535D02*
X22570311Y-12236741D01*
X22570311Y-12236741D02*
G75*
G03*
X22370585Y-12247208I-99863J-5234D01*
G01*
X22674074Y-14219261D02*
G75*
G03*
X22674074Y-14219261I-100000J0D01*
G01*
X22470285Y-14149597D02*
X22478136Y-14299392D01*
X22478136Y-14299392D02*
G75*
G03*
X22677862Y-14288924I99863J5234D01*
G01*
X22677862Y-14288924D02*
X22670011Y-14139130D01*
X22670011Y-14139130D02*
G75*
G03*
X22470285Y-14149597I-99863J-5234D01*
G01*
X22773674Y-16121655D02*
G75*
G03*
X22773674Y-16121655I-100000J0D01*
G01*
X22569886Y-16051992D02*
X22577736Y-16201786D01*
X22577736Y-16201786D02*
G75*
G03*
X22777462Y-16191319I99863J5234D01*
G01*
X22777462Y-16191319D02*
X22769612Y-16041524D01*
X22769612Y-16041524D02*
G75*
G03*
X22569886Y-16051992I-99863J-5234D01*
G01*
X22873473Y-18024029D02*
G75*
G03*
X22873473Y-18024029I-100000J0D01*
G01*
X22669685Y-17954366D02*
X22677535Y-18104160D01*
X22677535Y-18104160D02*
G75*
G03*
X22877261Y-18093693I99863J5234D01*
G01*
X22877261Y-18093693D02*
X22869411Y-17943899D01*
X22869411Y-17943899D02*
G75*
G03*
X22669685Y-17954366I-99863J-5234D01*
G01*
X24476663Y-12217177D02*
G75*
G03*
X24476663Y-12217177I-100000J0D01*
G01*
X24272875Y-12147513D02*
X24280725Y-12297308D01*
X24280725Y-12297308D02*
G75*
G03*
X24480451Y-12286840I99863J5234D01*
G01*
X24480451Y-12286840D02*
X24472601Y-12137046D01*
X24472601Y-12137046D02*
G75*
G03*
X24272875Y-12147513I-99863J-5234D01*
G01*
X24576363Y-14119566D02*
G75*
G03*
X24576363Y-14119566I-100000J0D01*
G01*
X24372575Y-14049902D02*
X24380425Y-14199697D01*
X24380425Y-14199697D02*
G75*
G03*
X24580151Y-14189230I99863J5234D01*
G01*
X24580151Y-14189230D02*
X24572301Y-14039435D01*
X24572301Y-14039435D02*
G75*
G03*
X24372575Y-14049902I-99863J-5234D01*
G01*
X24676063Y-16021955D02*
G75*
G03*
X24676063Y-16021955I-100000J0D01*
G01*
X24472275Y-15952292D02*
X24480125Y-16102086D01*
X24480125Y-16102086D02*
G75*
G03*
X24679851Y-16091619I99863J5234D01*
G01*
X24679851Y-16091619D02*
X24672001Y-15941824D01*
X24672001Y-15941824D02*
G75*
G03*
X24472275Y-15952292I-99863J-5234D01*
G01*
X24775862Y-17924329D02*
G75*
G03*
X24775862Y-17924329I-100000J0D01*
G01*
X24572074Y-17854666D02*
X24579925Y-18004460D01*
X24579925Y-18004460D02*
G75*
G03*
X24779651Y-17993993I99863J5234D01*
G01*
X24779651Y-17993993D02*
X24771800Y-17844199D01*
X24771800Y-17844199D02*
G75*
G03*
X24572074Y-17854666I-99863J-5234D01*
G01*
X25979686Y-20052634D02*
G75*
G03*
X25979686Y-20052634I-100000J0D01*
G01*
X25775898Y-19982970D02*
X25783748Y-20132765D01*
X25783748Y-20132765D02*
G75*
G03*
X25983474Y-20122297I99863J5234D01*
G01*
X25983474Y-20122297D02*
X25975624Y-19972503D01*
X25975624Y-19972503D02*
G75*
G03*
X25775898Y-19982970I-99863J-5234D01*
G01*
X26379052Y-12117477D02*
G75*
G03*
X26379052Y-12117477I-100000J0D01*
G01*
X26175264Y-12047813D02*
X26183114Y-12197608D01*
X26183114Y-12197608D02*
G75*
G03*
X26382840Y-12187140I99863J5234D01*
G01*
X26382840Y-12187140D02*
X26374990Y-12037346D01*
X26374990Y-12037346D02*
G75*
G03*
X26175264Y-12047813I-99863J-5234D01*
G01*
X26478752Y-14019866D02*
G75*
G03*
X26478752Y-14019866I-100000J0D01*
G01*
X26274964Y-13950202D02*
X26282814Y-14099997D01*
X26282814Y-14099997D02*
G75*
G03*
X26482540Y-14089530I99863J5234D01*
G01*
X26482540Y-14089530D02*
X26474690Y-13939735D01*
X26474690Y-13939735D02*
G75*
G03*
X26274964Y-13950202I-99863J-5234D01*
G01*
X26578602Y-15922247D02*
G75*
G03*
X26578602Y-15922247I-100000J0D01*
G01*
X26374814Y-15852584D02*
X26382664Y-16002378D01*
X26382664Y-16002378D02*
G75*
G03*
X26582390Y-15991911I99863J5234D01*
G01*
X26582390Y-15991911D02*
X26574540Y-15842117D01*
X26574540Y-15842117D02*
G75*
G03*
X26374814Y-15852584I-99863J-5234D01*
G01*
X26678152Y-17824635D02*
G75*
G03*
X26678152Y-17824635I-100000J0D01*
G01*
X26474364Y-17754971D02*
X26482214Y-17904765D01*
X26482214Y-17904765D02*
G75*
G03*
X26681940Y-17894298I99863J5234D01*
G01*
X26681940Y-17894298D02*
X26674090Y-17744504D01*
X26674090Y-17744504D02*
G75*
G03*
X26474364Y-17754971I-99863J-5234D01*
G01*
X28281591Y-12017769D02*
G75*
G03*
X28281591Y-12017769I-100000J0D01*
G01*
X28077803Y-11948105D02*
X28085653Y-12097900D01*
X28085653Y-12097900D02*
G75*
G03*
X28285379Y-12087432I99863J5234D01*
G01*
X28285379Y-12087432D02*
X28277529Y-11937638D01*
X28277529Y-11937638D02*
G75*
G03*
X28077803Y-11948105I-99863J-5234D01*
G01*
X28357827Y-19930005D02*
G75*
G03*
X28357827Y-19930005I-100000J0D01*
G01*
X28154039Y-19860341D02*
X28161889Y-20010136D01*
X28161889Y-20010136D02*
G75*
G03*
X28361615Y-19999668I99863J5234D01*
G01*
X28361615Y-19999668D02*
X28353765Y-19849874D01*
X28353765Y-19849874D02*
G75*
G03*
X28154039Y-19860341I-99863J-5234D01*
G01*
X28381291Y-13920158D02*
G75*
G03*
X28381291Y-13920158I-100000J0D01*
G01*
X28177503Y-13850495D02*
X28185353Y-14000289D01*
X28185353Y-14000289D02*
G75*
G03*
X28385079Y-13989822I99863J5234D01*
G01*
X28385079Y-13989822D02*
X28377229Y-13840027D01*
X28377229Y-13840027D02*
G75*
G03*
X28177503Y-13850495I-99863J-5234D01*
G01*
X28480991Y-15822547D02*
G75*
G03*
X28480991Y-15822547I-100000J0D01*
G01*
X28277203Y-15752884D02*
X28285054Y-15902678D01*
X28285054Y-15902678D02*
G75*
G03*
X28484780Y-15892211I99863J5234D01*
G01*
X28484780Y-15892211D02*
X28476929Y-15742417D01*
X28476929Y-15742417D02*
G75*
G03*
X28277203Y-15752884I-99863J-5234D01*
G01*
X28580541Y-17724935D02*
G75*
G03*
X28580541Y-17724935I-100000J0D01*
G01*
X28376753Y-17655271D02*
X28384603Y-17805065D01*
X28384603Y-17805065D02*
G75*
G03*
X28584329Y-17794598I99863J5234D01*
G01*
X28584329Y-17794598D02*
X28576479Y-17644804D01*
X28576479Y-17644804D02*
G75*
G03*
X28376753Y-17655271I-99863J-5234D01*
G01*
X30183981Y-11918069D02*
G75*
G03*
X30183981Y-11918069I-100000J0D01*
G01*
X29980192Y-11848405D02*
X29988043Y-11998200D01*
X29988043Y-11998200D02*
G75*
G03*
X30187769Y-11987732I99863J5234D01*
G01*
X30187769Y-11987732D02*
X30179918Y-11837938D01*
X30179918Y-11837938D02*
G75*
G03*
X29980192Y-11848405I-99863J-5234D01*
G01*
X30283681Y-13820458D02*
G75*
G03*
X30283681Y-13820458I-100000J0D01*
G01*
X30079892Y-13750795D02*
X30087743Y-13900589D01*
X30087743Y-13900589D02*
G75*
G03*
X30287469Y-13890122I99863J5234D01*
G01*
X30287469Y-13890122D02*
X30279618Y-13740327D01*
X30279618Y-13740327D02*
G75*
G03*
X30079892Y-13750795I-99863J-5234D01*
G01*
X30383381Y-15722847D02*
G75*
G03*
X30383381Y-15722847I-100000J0D01*
G01*
X30179592Y-15653184D02*
X30187443Y-15802978D01*
X30187443Y-15802978D02*
G75*
G03*
X30387169Y-15792511I99863J5234D01*
G01*
X30387169Y-15792511D02*
X30379318Y-15642717D01*
X30379318Y-15642717D02*
G75*
G03*
X30179592Y-15653184I-99863J-5234D01*
G01*
X30720854Y-17612766D02*
G75*
G03*
X30720854Y-17612766I-100000J0D01*
G01*
X30517066Y-17543102D02*
X30524916Y-17692896D01*
X30524916Y-17692896D02*
G75*
G03*
X30724642Y-17682429I99863J5234D01*
G01*
X30724642Y-17682429D02*
X30716792Y-17532635D01*
X30716792Y-17532635D02*
G75*
G03*
X30517066Y-17543102I-99863J-5234D01*
G01*
X32086370Y-11818369D02*
G75*
G03*
X32086370Y-11818369I-100000J0D01*
G01*
X31882582Y-11748705D02*
X31890432Y-11898500D01*
X31890432Y-11898500D02*
G75*
G03*
X32090158Y-11888032I99863J5234D01*
G01*
X32090158Y-11888032D02*
X32082308Y-11738238D01*
X32082308Y-11738238D02*
G75*
G03*
X31882582Y-11748705I-99863J-5234D01*
G01*
X32186070Y-13720758D02*
G75*
G03*
X32186070Y-13720758I-100000J0D01*
G01*
X31982282Y-13651095D02*
X31990132Y-13800889D01*
X31990132Y-13800889D02*
G75*
G03*
X32189858Y-13790422I99863J5234D01*
G01*
X32189858Y-13790422D02*
X32182008Y-13640627D01*
X32182008Y-13640627D02*
G75*
G03*
X31982282Y-13651095I-99863J-5234D01*
G01*
X32285770Y-15623147D02*
G75*
G03*
X32285770Y-15623147I-100000J0D01*
G01*
X32081982Y-15553484D02*
X32089832Y-15703278D01*
X32089832Y-15703278D02*
G75*
G03*
X32289558Y-15692811I99863J5234D01*
G01*
X32289558Y-15692811D02*
X32281708Y-15543017D01*
X32281708Y-15543017D02*
G75*
G03*
X32081982Y-15553484I-99863J-5234D01*
G01*
X32375079Y-20184210D02*
G75*
G03*
X32375079Y-20184210I-100000J0D01*
G01*
X32175079Y-20109210D02*
X32175079Y-20259210D01*
X32175079Y-20259210D02*
G75*
G03*
X32375079Y-20259210I100000J0D01*
G01*
X32375079Y-20259210D02*
X32375079Y-20109210D01*
X32375079Y-20109210D02*
G75*
G03*
X32175079Y-20109210I-100000J0D01*
G01*
X34280079Y-18279210D02*
G75*
G03*
X34280079Y-18279210I-100000J0D01*
G01*
X34080079Y-18204210D02*
X34080079Y-18354210D01*
X34080079Y-18354210D02*
G75*
G03*
X34280079Y-18354210I100000J0D01*
G01*
X34280079Y-18354210D02*
X34280079Y-18204210D01*
X34280079Y-18204210D02*
G75*
G03*
X34080079Y-18204210I-100000J0D01*
G01*
X34280079Y-20184210D02*
G75*
G03*
X34280079Y-20184210I-100000J0D01*
G01*
X34080079Y-20109210D02*
X34080079Y-20259210D01*
X34080079Y-20259210D02*
G75*
G03*
X34280079Y-20259210I100000J0D01*
G01*
X34280079Y-20259210D02*
X34280079Y-20109210D01*
X34280079Y-20109210D02*
G75*
G03*
X34080079Y-20109210I-100000J0D01*
G01*
X34846729Y-14614111D02*
G75*
G03*
X34846729Y-14614111I-100000J0D01*
G01*
X34646729Y-14539111D02*
X34646729Y-14689111D01*
X34646729Y-14689111D02*
G75*
G03*
X34846729Y-14689111I100000J0D01*
G01*
X34846729Y-14689111D02*
X34846729Y-14539111D01*
X34846729Y-14539111D02*
G75*
G03*
X34646729Y-14539111I-100000J0D01*
G01*
X35085179Y-11756741D02*
G75*
G03*
X35085179Y-11756741I-100000J0D01*
G01*
X34885179Y-11681741D02*
X34885179Y-11831741D01*
X34885179Y-11831741D02*
G75*
G03*
X35085179Y-11831741I100000J0D01*
G01*
X35085179Y-11831741D02*
X35085179Y-11681741D01*
X35085179Y-11681741D02*
G75*
G03*
X34885179Y-11681741I-100000J0D01*
G01*
X36185079Y-20184210D02*
G75*
G03*
X36185079Y-20184210I-100000J0D01*
G01*
X35985079Y-20109210D02*
X35985079Y-20259210D01*
X35985079Y-20259210D02*
G75*
G03*
X36185079Y-20259210I100000J0D01*
G01*
X36185079Y-20259210D02*
X36185079Y-20109210D01*
X36185079Y-20109210D02*
G75*
G03*
X35985079Y-20109210I-100000J0D01*
G01*
X37500000Y-13970000D02*
G75*
G03*
X37500000Y-13970000I-100000J0D01*
G01*
X37300000Y-13895000D02*
X37300000Y-14045000D01*
X37300000Y-14045000D02*
G75*
G03*
X37500000Y-14045000I100000J0D01*
G01*
X37500000Y-14045000D02*
X37500000Y-13895000D01*
X37500000Y-13895000D02*
G75*
G03*
X37300000Y-13895000I-100000J0D01*
G01*
X37500000Y-15875000D02*
G75*
G03*
X37500000Y-15875000I-100000J0D01*
G01*
X37300000Y-15800000D02*
X37300000Y-15950000D01*
X37300000Y-15950000D02*
G75*
G03*
X37500000Y-15950000I100000J0D01*
G01*
X37500000Y-15950000D02*
X37500000Y-15800000D01*
X37500000Y-15800000D02*
G75*
G03*
X37300000Y-15800000I-100000J0D01*
G01*
X37500000Y-17779908D02*
G75*
G03*
X37500000Y-17779908I-100000J0D01*
G01*
X37300000Y-17704908D02*
X37300000Y-17854908D01*
X37300000Y-17854908D02*
G75*
G03*
X37500000Y-17854908I100000J0D01*
G01*
X37500000Y-17854908D02*
X37500000Y-17704908D01*
X37500000Y-17704908D02*
G75*
G03*
X37300000Y-17704908I-100000J0D01*
G01*
D13*
X4443557Y-17906016D02*
X4443557Y-18206016D01*
X4293557Y-18056016D02*
X4593557Y-18056016D01*
X4700807Y-10443296D02*
X4700807Y-10743296D01*
X4550807Y-10593296D02*
X4850807Y-10593296D01*
X5078557Y-17652016D02*
X5078557Y-17952016D01*
X4928557Y-17802016D02*
X5228557Y-17802016D01*
X5335807Y-10189296D02*
X5335807Y-10489296D01*
X5185807Y-10339296D02*
X5485807Y-10339296D01*
X6391427Y-14853261D02*
X6391427Y-15153261D01*
X6241427Y-15003261D02*
X6541427Y-15003261D01*
X6629557Y-12948476D02*
X6629557Y-13248476D01*
X6479557Y-13098476D02*
X6779557Y-13098476D01*
X6867677Y-16758216D02*
X6867677Y-17058216D01*
X6717677Y-16908216D02*
X7017677Y-16908216D01*
X6867677Y-19102975D02*
X6867677Y-19402975D01*
X6717677Y-19252975D02*
X7017677Y-19252975D01*
X7026427Y-14599261D02*
X7026427Y-14899261D01*
X6876427Y-14749261D02*
X7176427Y-14749261D01*
X7105807Y-11043296D02*
X7105807Y-11343296D01*
X6955807Y-11193296D02*
X7255807Y-11193296D01*
X7126880Y-8552241D02*
X7126880Y-8852241D01*
X6976880Y-8702241D02*
X7276880Y-8702241D01*
X7264557Y-12694476D02*
X7264557Y-12994476D01*
X7114557Y-12844476D02*
X7414557Y-12844476D01*
X7502677Y-16504216D02*
X7502677Y-16804216D01*
X7352677Y-16654216D02*
X7652677Y-16654216D01*
X7502677Y-18848975D02*
X7502677Y-19148975D01*
X7352677Y-18998975D02*
X7652677Y-18998975D01*
X7740807Y-10789296D02*
X7740807Y-11089296D01*
X7590807Y-10939296D02*
X7890807Y-10939296D01*
X7761880Y-8298241D02*
X7761880Y-8598241D01*
X7611880Y-8448241D02*
X7911880Y-8448241D01*
X9031880Y-8552241D02*
X9031880Y-8852241D01*
X8881880Y-8702241D02*
X9181880Y-8702241D01*
X9178292Y-16802030D02*
X9178292Y-17102030D01*
X9028292Y-16952030D02*
X9328292Y-16952030D01*
X9277992Y-14899641D02*
X9277992Y-15199641D01*
X9127992Y-15049641D02*
X9427992Y-15049641D01*
X9348678Y-19152440D02*
X9348678Y-19452440D01*
X9198678Y-19302440D02*
X9498678Y-19302440D01*
X9377692Y-12997251D02*
X9377692Y-13297251D01*
X9227692Y-13147251D02*
X9527692Y-13147251D01*
X9477392Y-11094862D02*
X9477392Y-11394862D01*
X9327392Y-11244862D02*
X9627392Y-11244862D01*
X9666880Y-8298241D02*
X9666880Y-8598241D01*
X9516880Y-8448241D02*
X9816880Y-8448241D01*
X9825715Y-16581611D02*
X9825715Y-16881611D01*
X9675715Y-16731611D02*
X9975715Y-16731611D01*
X9925415Y-14679222D02*
X9925415Y-14979222D01*
X9775415Y-14829222D02*
X10075415Y-14829222D01*
X9996101Y-18932022D02*
X9996101Y-19232022D01*
X9846101Y-19082022D02*
X10146101Y-19082022D01*
X10025115Y-12776833D02*
X10025115Y-13076833D01*
X9875115Y-12926833D02*
X10175115Y-12926833D01*
X10124815Y-10874444D02*
X10124815Y-11174444D01*
X9974815Y-11024444D02*
X10274815Y-11024444D01*
X11080681Y-16901730D02*
X11080681Y-17201730D01*
X10930681Y-17051730D02*
X11230681Y-17051730D01*
X11180381Y-14999341D02*
X11180381Y-15299341D01*
X11030381Y-15149341D02*
X11330381Y-15149341D01*
X11280081Y-13096951D02*
X11280081Y-13396951D01*
X11130081Y-13246951D02*
X11430081Y-13246951D01*
X11379781Y-11194562D02*
X11379781Y-11494562D01*
X11229781Y-11344562D02*
X11529781Y-11344562D01*
X11728104Y-16681311D02*
X11728104Y-16981311D01*
X11578104Y-16831311D02*
X11878104Y-16831311D01*
X11827804Y-14778922D02*
X11827804Y-15078922D01*
X11677804Y-14928922D02*
X11977804Y-14928922D01*
X11828469Y-19237205D02*
X11828469Y-19537205D01*
X11678469Y-19387205D02*
X11978469Y-19387205D01*
X11927504Y-12876533D02*
X11927504Y-13176533D01*
X11777504Y-13026533D02*
X12077504Y-13026533D01*
X12027204Y-10974144D02*
X12027204Y-11274144D01*
X11877204Y-11124144D02*
X12177204Y-11124144D01*
X12475892Y-19016787D02*
X12475892Y-19316787D01*
X12325892Y-19166787D02*
X12625892Y-19166787D01*
X12983071Y-17001430D02*
X12983071Y-17301430D01*
X12833071Y-17151430D02*
X13133071Y-17151430D01*
X13082771Y-15099041D02*
X13082771Y-15399041D01*
X12932771Y-15249041D02*
X13232771Y-15249041D01*
X13182471Y-13196651D02*
X13182471Y-13496651D01*
X13032471Y-13346651D02*
X13332471Y-13346651D01*
X13282171Y-11294262D02*
X13282171Y-11594262D01*
X13132171Y-11444262D02*
X13432171Y-11444262D01*
X13630494Y-16781011D02*
X13630494Y-17081011D01*
X13480494Y-16931011D02*
X13780494Y-16931011D01*
X13730194Y-14878622D02*
X13730194Y-15178622D01*
X13580194Y-15028622D02*
X13880194Y-15028622D01*
X13829894Y-12976233D02*
X13829894Y-13276233D01*
X13679894Y-13126233D02*
X13979894Y-13126233D01*
X13929594Y-11073844D02*
X13929594Y-11373844D01*
X13779594Y-11223844D02*
X14079594Y-11223844D01*
X14885460Y-17101130D02*
X14885460Y-17401130D01*
X14735460Y-17251130D02*
X15035460Y-17251130D01*
X14985160Y-15198741D02*
X14985160Y-15498741D01*
X14835160Y-15348741D02*
X15135160Y-15348741D01*
X15084860Y-13296351D02*
X15084860Y-13596351D01*
X14934860Y-13446351D02*
X15234860Y-13446351D01*
X15184560Y-11393962D02*
X15184560Y-11693962D01*
X15034560Y-11543962D02*
X15334560Y-11543962D01*
X15402607Y-19335720D02*
X15402607Y-19635720D01*
X15252607Y-19485720D02*
X15552607Y-19485720D01*
X15532883Y-16880711D02*
X15532883Y-17180711D01*
X15382883Y-17030711D02*
X15682883Y-17030711D01*
X15632583Y-14978322D02*
X15632583Y-15278322D01*
X15482583Y-15128322D02*
X15782583Y-15128322D01*
X15732283Y-13075933D02*
X15732283Y-13375933D01*
X15582283Y-13225933D02*
X15882283Y-13225933D01*
X15831983Y-11173544D02*
X15831983Y-11473544D01*
X15681983Y-11323544D02*
X15981983Y-11323544D01*
X16050030Y-19115301D02*
X16050030Y-19415301D01*
X15900030Y-19265301D02*
X16200030Y-19265301D01*
X16787849Y-17200830D02*
X16787849Y-17500830D01*
X16637849Y-17350830D02*
X16937849Y-17350830D01*
X16887549Y-15298441D02*
X16887549Y-15598441D01*
X16737549Y-15448441D02*
X17037549Y-15448441D01*
X16987249Y-13396051D02*
X16987249Y-13696051D01*
X16837249Y-13546051D02*
X17137249Y-13546051D01*
X17086949Y-11493662D02*
X17086949Y-11793662D01*
X16936949Y-11643662D02*
X17236949Y-11643662D01*
X17435272Y-16980411D02*
X17435272Y-17280411D01*
X17285272Y-17130411D02*
X17585272Y-17130411D01*
X17534972Y-15078022D02*
X17534972Y-15378022D01*
X17384972Y-15228022D02*
X17684972Y-15228022D01*
X17634672Y-13175633D02*
X17634672Y-13475633D01*
X17484672Y-13325633D02*
X17784672Y-13325633D01*
X17734372Y-11273244D02*
X17734372Y-11573244D01*
X17584372Y-11423244D02*
X17884372Y-11423244D01*
X20152045Y-11533545D02*
X20152045Y-11833545D01*
X20002045Y-11683545D02*
X20302045Y-11683545D01*
X20251745Y-13435934D02*
X20251745Y-13735934D01*
X20101745Y-13585934D02*
X20401745Y-13585934D01*
X20351445Y-15338323D02*
X20351445Y-15638323D01*
X20201445Y-15488323D02*
X20501445Y-15488323D01*
X20451145Y-17240703D02*
X20451145Y-17540703D01*
X20301145Y-17390703D02*
X20601145Y-17390703D01*
X20772882Y-11246660D02*
X20772882Y-11546660D01*
X20622882Y-11396660D02*
X20922882Y-11396660D01*
X20872582Y-13149049D02*
X20872582Y-13449049D01*
X20722582Y-13299049D02*
X21022582Y-13299049D01*
X20972282Y-15051438D02*
X20972282Y-15351438D01*
X20822282Y-15201438D02*
X21122282Y-15201438D01*
X21071981Y-16953817D02*
X21071981Y-17253817D01*
X20921981Y-17103817D02*
X21221981Y-17103817D01*
X21865949Y-19319253D02*
X21865949Y-19619253D01*
X21715949Y-19469253D02*
X22015949Y-19469253D01*
X22054434Y-11433845D02*
X22054434Y-11733845D01*
X21904434Y-11583845D02*
X22204434Y-11583845D01*
X22154134Y-13336234D02*
X22154134Y-13636234D01*
X22004134Y-13486234D02*
X22304134Y-13486234D01*
X22253735Y-15238629D02*
X22253735Y-15538629D01*
X22103735Y-15388629D02*
X22403735Y-15388629D01*
X22353534Y-17141003D02*
X22353534Y-17441003D01*
X22203534Y-17291003D02*
X22503534Y-17291003D01*
X22486786Y-19032368D02*
X22486786Y-19332368D01*
X22336786Y-19182368D02*
X22636786Y-19182368D01*
X22675271Y-11146960D02*
X22675271Y-11446960D01*
X22525271Y-11296960D02*
X22825271Y-11296960D01*
X22774971Y-13049349D02*
X22774971Y-13349349D01*
X22624971Y-13199349D02*
X22924971Y-13199349D01*
X22874571Y-14951743D02*
X22874571Y-15251743D01*
X22724571Y-15101743D02*
X23024571Y-15101743D01*
X22974370Y-16854117D02*
X22974370Y-17154117D01*
X22824370Y-17004117D02*
X23124370Y-17004117D01*
X23956724Y-11334150D02*
X23956724Y-11634150D01*
X23806724Y-11484150D02*
X24106724Y-11484150D01*
X24056424Y-13236539D02*
X24056424Y-13536539D01*
X23906424Y-13386539D02*
X24206424Y-13386539D01*
X24156124Y-15138929D02*
X24156124Y-15438929D01*
X24006124Y-15288929D02*
X24306124Y-15288929D01*
X24255923Y-17041303D02*
X24255923Y-17341303D01*
X24105923Y-17191303D02*
X24405923Y-17191303D01*
X24577560Y-11047265D02*
X24577560Y-11347265D01*
X24427560Y-11197265D02*
X24727560Y-11197265D01*
X24677260Y-12949654D02*
X24677260Y-13249654D01*
X24527260Y-13099654D02*
X24827260Y-13099654D01*
X24776960Y-14852043D02*
X24776960Y-15152043D01*
X24626960Y-15002043D02*
X24926960Y-15002043D01*
X24876760Y-16754417D02*
X24876760Y-17054417D01*
X24726760Y-16904417D02*
X25026760Y-16904417D01*
X25459747Y-19169607D02*
X25459747Y-19469607D01*
X25309747Y-19319607D02*
X25609747Y-19319607D01*
X25859113Y-11234450D02*
X25859113Y-11534450D01*
X25709113Y-11384450D02*
X26009113Y-11384450D01*
X25958813Y-13136839D02*
X25958813Y-13436839D01*
X25808813Y-13286839D02*
X26108813Y-13286839D01*
X26058663Y-15039221D02*
X26058663Y-15339221D01*
X25908663Y-15189221D02*
X26208663Y-15189221D01*
X26080583Y-18882722D02*
X26080583Y-19182722D01*
X25930583Y-19032722D02*
X26230583Y-19032722D01*
X26158213Y-16941608D02*
X26158213Y-17241608D01*
X26008213Y-17091608D02*
X26308213Y-17091608D01*
X26479949Y-10947565D02*
X26479949Y-11247565D01*
X26329949Y-11097565D02*
X26629949Y-11097565D01*
X26579649Y-12849954D02*
X26579649Y-13149954D01*
X26429649Y-12999954D02*
X26729649Y-12999954D01*
X26679499Y-14752335D02*
X26679499Y-15052335D01*
X26529499Y-14902335D02*
X26829499Y-14902335D01*
X26779049Y-16654723D02*
X26779049Y-16954723D01*
X26629049Y-16804723D02*
X26929049Y-16804723D01*
X27761652Y-11134742D02*
X27761652Y-11434742D01*
X27611652Y-11284742D02*
X27911652Y-11284742D01*
X27837888Y-19046978D02*
X27837888Y-19346978D01*
X27687888Y-19196978D02*
X27987888Y-19196978D01*
X27861352Y-13037131D02*
X27861352Y-13337131D01*
X27711352Y-13187131D02*
X28011352Y-13187131D01*
X27961052Y-14939521D02*
X27961052Y-15239521D01*
X27811052Y-15089521D02*
X28111052Y-15089521D01*
X28060602Y-16841908D02*
X28060602Y-17141908D01*
X27910602Y-16991908D02*
X28210602Y-16991908D01*
X28382488Y-10847857D02*
X28382488Y-11147857D01*
X28232488Y-10997857D02*
X28532488Y-10997857D01*
X28458724Y-18760093D02*
X28458724Y-19060093D01*
X28308724Y-18910093D02*
X28608724Y-18910093D01*
X28482188Y-12750246D02*
X28482188Y-13050246D01*
X28332188Y-12900246D02*
X28632188Y-12900246D01*
X28581889Y-14652635D02*
X28581889Y-14952635D01*
X28431889Y-14802635D02*
X28731889Y-14802635D01*
X28681438Y-16555023D02*
X28681438Y-16855023D01*
X28531438Y-16705023D02*
X28831438Y-16705023D01*
X29664041Y-11035042D02*
X29664041Y-11335042D01*
X29514041Y-11185042D02*
X29814041Y-11185042D01*
X29763741Y-12937431D02*
X29763741Y-13237431D01*
X29613741Y-13087431D02*
X29913741Y-13087431D01*
X29863441Y-14839821D02*
X29863441Y-15139821D01*
X29713441Y-14989821D02*
X30013441Y-14989821D01*
X30200915Y-16729739D02*
X30200915Y-17029739D01*
X30050915Y-16879739D02*
X30350915Y-16879739D01*
X30284878Y-10748157D02*
X30284878Y-11048157D01*
X30134878Y-10898157D02*
X30434878Y-10898157D01*
X30384578Y-12650546D02*
X30384578Y-12950546D01*
X30234578Y-12800546D02*
X30534578Y-12800546D01*
X30484278Y-14552935D02*
X30484278Y-14852935D01*
X30334278Y-14702935D02*
X30634278Y-14702935D01*
X30821751Y-16442854D02*
X30821751Y-16742854D01*
X30671751Y-16592854D02*
X30971751Y-16592854D01*
X31566431Y-10935342D02*
X31566431Y-11235342D01*
X31416431Y-11085342D02*
X31716431Y-11085342D01*
X31666131Y-12837731D02*
X31666131Y-13137731D01*
X31516131Y-12987731D02*
X31816131Y-12987731D01*
X31765831Y-14740121D02*
X31765831Y-15040121D01*
X31615831Y-14890121D02*
X31915831Y-14890121D01*
X31894079Y-19280210D02*
X31894079Y-19580210D01*
X31744079Y-19430210D02*
X32044079Y-19430210D01*
X32187267Y-10648457D02*
X32187267Y-10948457D01*
X32037267Y-10798457D02*
X32337267Y-10798457D01*
X32286967Y-12550846D02*
X32286967Y-12850846D01*
X32136967Y-12700846D02*
X32436967Y-12700846D01*
X32386667Y-14453235D02*
X32386667Y-14753235D01*
X32236667Y-14603235D02*
X32536667Y-14603235D01*
X32529079Y-19026210D02*
X32529079Y-19326210D01*
X32379079Y-19176210D02*
X32679079Y-19176210D01*
X33799079Y-17375210D02*
X33799079Y-17675210D01*
X33649079Y-17525210D02*
X33949079Y-17525210D01*
X33799079Y-19280210D02*
X33799079Y-19580210D01*
X33649079Y-19430210D02*
X33949079Y-19430210D01*
X34365729Y-13710111D02*
X34365729Y-14010111D01*
X34215729Y-13860111D02*
X34515729Y-13860111D01*
X34434079Y-17121210D02*
X34434079Y-17421210D01*
X34284079Y-17271210D02*
X34584079Y-17271210D01*
X34434079Y-19026210D02*
X34434079Y-19326210D01*
X34284079Y-19176210D02*
X34584079Y-19176210D01*
X34604179Y-10852741D02*
X34604179Y-11152741D01*
X34454179Y-11002741D02*
X34754179Y-11002741D01*
X35000729Y-13456111D02*
X35000729Y-13756111D01*
X34850729Y-13606111D02*
X35150729Y-13606111D01*
X35239179Y-10598741D02*
X35239179Y-10898741D01*
X35089179Y-10748741D02*
X35389179Y-10748741D01*
X35704079Y-19280210D02*
X35704079Y-19580210D01*
X35554079Y-19430210D02*
X35854079Y-19430210D01*
X36339079Y-19026210D02*
X36339079Y-19326210D01*
X36189079Y-19176210D02*
X36489079Y-19176210D01*
X37019000Y-13066000D02*
X37019000Y-13366000D01*
X36869000Y-13216000D02*
X37169000Y-13216000D01*
X37019000Y-14971000D02*
X37019000Y-15271000D01*
X36869000Y-15121000D02*
X37169000Y-15121000D01*
X37019000Y-16875908D02*
X37019000Y-17175908D01*
X36869000Y-17025908D02*
X37169000Y-17025908D01*
X37654000Y-12812000D02*
X37654000Y-13112000D01*
X37504000Y-12962000D02*
X37804000Y-12962000D01*
X37654000Y-14717000D02*
X37654000Y-15017000D01*
X37504000Y-14867000D02*
X37804000Y-14867000D01*
X37654000Y-16621907D02*
X37654000Y-16921908D01*
X37504000Y-16771907D02*
X37804000Y-16771907D01*
D14*
X14725743Y-19107253D02*
X14725743Y-18891725D01*
X14510215Y-18891725D01*
X14510215Y-19107253D01*
X14725743Y-19107253D01*
X17102482Y-19231813D02*
X17102482Y-19016285D01*
X16886953Y-19016285D01*
X16886953Y-19231813D01*
X17102482Y-19231813D01*
X21142559Y-19175466D02*
X21142559Y-18959938D01*
X20927031Y-18959938D01*
X20927031Y-19175466D01*
X21142559Y-19175466D01*
X23519297Y-19050907D02*
X23519297Y-18835378D01*
X23303769Y-18835378D01*
X23303769Y-19050907D01*
X23519297Y-19050907D01*
X33902943Y-10666005D02*
X33902943Y-10450477D01*
X33687415Y-10450477D01*
X33687415Y-10666005D01*
X33902943Y-10666005D01*
X34068998Y-13031875D02*
X34068998Y-12816347D01*
X33853470Y-12816347D01*
X33853470Y-13031875D01*
X34068998Y-13031875D01*
X34068998Y-15411875D02*
X34068998Y-15196347D01*
X33853470Y-15196347D01*
X33853470Y-15411875D01*
X34068998Y-15411875D01*
X36282943Y-10666005D02*
X36282943Y-10450477D01*
X36067415Y-10450477D01*
X36067415Y-10666005D01*
X36282943Y-10666005D01*
D15*
X4824557Y-18509406D02*
X5023947Y-18310016D01*
X4824557Y-18110626D01*
X4625167Y-18310016D01*
X4824557Y-18509406D01*
X5081807Y-11046686D02*
X5281197Y-10847296D01*
X5081807Y-10647906D01*
X4882417Y-10847296D01*
X5081807Y-11046686D01*
X6772427Y-15456651D02*
X6971817Y-15257261D01*
X6772427Y-15057871D01*
X6573037Y-15257261D01*
X6772427Y-15456651D01*
X7010557Y-13551866D02*
X7209947Y-13352476D01*
X7010557Y-13153086D01*
X6811167Y-13352476D01*
X7010557Y-13551866D01*
X7248677Y-17361606D02*
X7448067Y-17162216D01*
X7248677Y-16962826D01*
X7049287Y-17162216D01*
X7248677Y-17361606D01*
X7248677Y-19706365D02*
X7448067Y-19506975D01*
X7248677Y-19307585D01*
X7049287Y-19506975D01*
X7248677Y-19706365D01*
X7486807Y-11646686D02*
X7686197Y-11447296D01*
X7486807Y-11247906D01*
X7287417Y-11447296D01*
X7486807Y-11646686D01*
X7507880Y-9155631D02*
X7707270Y-8956241D01*
X7507880Y-8756851D01*
X7308490Y-8956241D01*
X7507880Y-9155631D01*
X9412880Y-9155631D02*
X9612270Y-8956241D01*
X9412880Y-8756851D01*
X9213490Y-8956241D01*
X9412880Y-9155631D01*
X9545477Y-17425012D02*
X9744867Y-17225622D01*
X9545477Y-17026232D01*
X9346087Y-17225622D01*
X9545477Y-17425012D01*
X9645177Y-15522623D02*
X9844567Y-15323233D01*
X9645177Y-15123843D01*
X9445787Y-15323233D01*
X9645177Y-15522623D01*
X9715862Y-19775422D02*
X9915252Y-19576032D01*
X9715862Y-19376642D01*
X9516472Y-19576032D01*
X9715862Y-19775422D01*
X9744877Y-13620233D02*
X9944267Y-13420843D01*
X9744877Y-13221453D01*
X9545487Y-13420843D01*
X9744877Y-13620233D01*
X9844577Y-11717844D02*
X10043967Y-11518454D01*
X9844577Y-11319064D01*
X9645187Y-11518454D01*
X9844577Y-11717844D01*
X11447866Y-17524712D02*
X11647256Y-17325322D01*
X11447866Y-17125932D01*
X11248476Y-17325322D01*
X11447866Y-17524712D01*
X11547566Y-15622323D02*
X11746956Y-15422933D01*
X11547566Y-15223543D01*
X11348176Y-15422933D01*
X11547566Y-15622323D01*
X11647266Y-13719933D02*
X11846656Y-13520543D01*
X11647266Y-13321153D01*
X11447876Y-13520543D01*
X11647266Y-13719933D01*
X11746966Y-11817544D02*
X11946356Y-11618154D01*
X11746966Y-11418764D01*
X11547576Y-11618154D01*
X11746966Y-11817544D01*
X12195654Y-19860187D02*
X12395044Y-19660797D01*
X12195654Y-19461407D01*
X11996264Y-19660797D01*
X12195654Y-19860187D01*
X13350255Y-17624412D02*
X13549645Y-17425022D01*
X13350255Y-17225632D01*
X13150865Y-17425022D01*
X13350255Y-17624412D01*
X13449955Y-15722023D02*
X13649345Y-15522633D01*
X13449955Y-15323243D01*
X13250565Y-15522633D01*
X13449955Y-15722023D01*
X13549655Y-13819633D02*
X13749045Y-13620243D01*
X13549655Y-13420853D01*
X13350265Y-13620243D01*
X13549655Y-13819633D01*
X13649355Y-11917244D02*
X13848745Y-11717854D01*
X13649355Y-11518464D01*
X13449965Y-11717854D01*
X13649355Y-11917244D01*
X14538219Y-20720790D02*
X14737609Y-20521400D01*
X14538219Y-20322010D01*
X14338829Y-20521400D01*
X14538219Y-20720790D01*
X15252644Y-17724112D02*
X15452034Y-17524722D01*
X15252644Y-17325332D01*
X15053254Y-17524722D01*
X15252644Y-17724112D01*
X15352344Y-15821723D02*
X15551734Y-15622333D01*
X15352344Y-15422943D01*
X15152954Y-15622333D01*
X15352344Y-15821723D01*
X15452044Y-13919333D02*
X15651434Y-13719943D01*
X15452044Y-13520553D01*
X15252654Y-13719943D01*
X15452044Y-13919333D01*
X15551744Y-12016944D02*
X15751134Y-11817554D01*
X15551744Y-11618164D01*
X15352354Y-11817554D01*
X15551744Y-12016944D01*
X15769792Y-19958702D02*
X15969182Y-19759312D01*
X15769792Y-19559922D01*
X15570402Y-19759312D01*
X15769792Y-19958702D01*
X16914958Y-20845350D02*
X17114348Y-20645960D01*
X16914958Y-20446570D01*
X16715567Y-20645960D01*
X16914958Y-20845350D01*
X17155034Y-17823812D02*
X17354424Y-17624422D01*
X17155034Y-17425032D01*
X16955644Y-17624422D01*
X17155034Y-17823812D01*
X17254734Y-15921423D02*
X17454124Y-15722033D01*
X17254734Y-15522643D01*
X17055344Y-15722033D01*
X17254734Y-15921423D01*
X17354434Y-14019033D02*
X17553824Y-13819643D01*
X17354434Y-13620253D01*
X17155044Y-13819643D01*
X17354434Y-14019033D01*
X17454134Y-12116644D02*
X17653524Y-11917254D01*
X17454134Y-11717864D01*
X17254744Y-11917254D01*
X17454134Y-12116644D01*
X20545816Y-12116647D02*
X20745206Y-11917257D01*
X20545816Y-11717867D01*
X20346426Y-11917257D01*
X20545816Y-12116647D01*
X20645516Y-14019036D02*
X20844906Y-13819646D01*
X20645516Y-13620256D01*
X20446126Y-13819646D01*
X20645516Y-14019036D01*
X20745216Y-15921425D02*
X20944606Y-15722035D01*
X20745216Y-15522645D01*
X20545826Y-15722035D01*
X20745216Y-15921425D01*
X20844916Y-17823805D02*
X21044306Y-17624415D01*
X20844916Y-17425025D01*
X20645526Y-17624415D01*
X20844916Y-17823805D01*
X21114555Y-20789004D02*
X21313945Y-20589614D01*
X21114555Y-20390224D01*
X20915165Y-20589614D01*
X21114555Y-20789004D01*
X22259721Y-19902355D02*
X22459111Y-19702965D01*
X22259721Y-19503575D01*
X22060331Y-19702965D01*
X22259721Y-19902355D01*
X22448206Y-12016947D02*
X22647596Y-11817557D01*
X22448206Y-11618167D01*
X22248816Y-11817557D01*
X22448206Y-12016947D01*
X22547906Y-13919336D02*
X22747296Y-13719946D01*
X22547906Y-13520556D01*
X22348516Y-13719946D01*
X22547906Y-13919336D01*
X22647506Y-15821730D02*
X22846896Y-15622340D01*
X22647506Y-15422950D01*
X22448116Y-15622340D01*
X22647506Y-15821730D01*
X22747305Y-17724105D02*
X22946695Y-17524715D01*
X22747305Y-17325325D01*
X22547915Y-17524715D01*
X22747305Y-17724105D01*
X23491293Y-20664444D02*
X23690683Y-20465054D01*
X23491293Y-20265664D01*
X23291903Y-20465054D01*
X23491293Y-20664444D01*
X24350495Y-11917252D02*
X24549885Y-11717862D01*
X24350495Y-11518472D01*
X24151105Y-11717862D01*
X24350495Y-11917252D01*
X24450195Y-13819641D02*
X24649585Y-13620251D01*
X24450195Y-13420861D01*
X24250805Y-13620251D01*
X24450195Y-13819641D01*
X24549895Y-15722030D02*
X24749285Y-15522640D01*
X24549895Y-15323250D01*
X24350505Y-15522640D01*
X24549895Y-15722030D01*
X24649694Y-17624405D02*
X24849084Y-17425015D01*
X24649694Y-17225625D01*
X24450304Y-17425015D01*
X24649694Y-17624405D01*
X25853518Y-19752709D02*
X26052908Y-19553319D01*
X25853518Y-19353929D01*
X25654128Y-19553319D01*
X25853518Y-19752709D01*
X26252884Y-11817552D02*
X26452274Y-11618162D01*
X26252884Y-11418772D01*
X26053494Y-11618162D01*
X26252884Y-11817552D01*
X26352584Y-13719941D02*
X26551974Y-13520551D01*
X26352584Y-13321161D01*
X26153194Y-13520551D01*
X26352584Y-13719941D01*
X26452434Y-15622323D02*
X26651824Y-15422933D01*
X26452434Y-15223543D01*
X26253044Y-15422933D01*
X26452434Y-15622323D01*
X26551984Y-17524710D02*
X26751374Y-17325320D01*
X26551984Y-17125930D01*
X26352594Y-17325320D01*
X26551984Y-17524710D01*
X28155423Y-11717844D02*
X28354813Y-11518454D01*
X28155423Y-11319064D01*
X27956033Y-11518454D01*
X28155423Y-11717844D01*
X28231659Y-19630080D02*
X28431049Y-19430690D01*
X28231659Y-19231300D01*
X28032269Y-19430690D01*
X28231659Y-19630080D01*
X28255123Y-13620233D02*
X28454513Y-13420843D01*
X28255123Y-13221453D01*
X28055733Y-13420843D01*
X28255123Y-13620233D01*
X28354823Y-15522623D02*
X28554213Y-15323233D01*
X28354823Y-15123843D01*
X28155433Y-15323233D01*
X28354823Y-15522623D01*
X28454373Y-17425010D02*
X28653763Y-17225620D01*
X28454373Y-17026230D01*
X28254983Y-17225620D01*
X28454373Y-17425010D01*
X30057813Y-11618144D02*
X30257203Y-11418754D01*
X30057813Y-11219364D01*
X29858423Y-11418754D01*
X30057813Y-11618144D01*
X30157513Y-13520533D02*
X30356903Y-13321143D01*
X30157513Y-13121753D01*
X29958123Y-13321143D01*
X30157513Y-13520533D01*
X30257213Y-15422923D02*
X30456603Y-15223533D01*
X30257213Y-15024143D01*
X30057823Y-15223533D01*
X30257213Y-15422923D01*
X30594686Y-17312841D02*
X30794076Y-17113451D01*
X30594686Y-16914061D01*
X30395296Y-17113451D01*
X30594686Y-17312841D01*
X31960202Y-11518444D02*
X32159592Y-11319054D01*
X31960202Y-11119664D01*
X31760812Y-11319054D01*
X31960202Y-11518444D01*
X32059902Y-13420833D02*
X32259292Y-13221443D01*
X32059902Y-13022053D01*
X31860512Y-13221443D01*
X32059902Y-13420833D01*
X32159602Y-15323223D02*
X32358992Y-15123833D01*
X32159602Y-14924443D01*
X31960212Y-15123833D01*
X32159602Y-15323223D01*
X32275079Y-19883600D02*
X32474469Y-19684210D01*
X32275079Y-19484820D01*
X32075689Y-19684210D01*
X32275079Y-19883600D01*
X33795179Y-12281631D02*
X33994569Y-12082241D01*
X33795179Y-11882851D01*
X33595789Y-12082241D01*
X33795179Y-12281631D01*
X34180079Y-17978600D02*
X34379469Y-17779210D01*
X34180079Y-17579820D01*
X33980689Y-17779210D01*
X34180079Y-17978600D01*
X34180079Y-19883600D02*
X34379469Y-19684210D01*
X34180079Y-19484820D01*
X33980689Y-19684210D01*
X34180079Y-19883600D01*
X34746729Y-14313501D02*
X34946119Y-14114111D01*
X34746729Y-13914721D01*
X34547339Y-14114111D01*
X34746729Y-14313501D01*
X34985179Y-11456131D02*
X35184569Y-11256741D01*
X34985179Y-11057351D01*
X34785789Y-11256741D01*
X34985179Y-11456131D01*
X35485234Y-13123501D02*
X35684624Y-12924111D01*
X35485234Y-12724721D01*
X35285844Y-12924111D01*
X35485234Y-13123501D01*
X35485234Y-15503501D02*
X35684624Y-15304111D01*
X35485234Y-15104721D01*
X35285844Y-15304111D01*
X35485234Y-15503501D01*
X36085079Y-19883600D02*
X36284469Y-19684210D01*
X36085079Y-19484820D01*
X35885689Y-19684210D01*
X36085079Y-19883600D01*
X36175179Y-12281631D02*
X36374569Y-12082241D01*
X36175179Y-11882851D01*
X35975789Y-12082241D01*
X36175179Y-12281631D01*
X37400000Y-13669390D02*
X37599390Y-13470000D01*
X37400000Y-13270610D01*
X37200610Y-13470000D01*
X37400000Y-13669390D01*
X37400000Y-15574390D02*
X37599390Y-15375000D01*
X37400000Y-15175610D01*
X37200610Y-15375000D01*
X37400000Y-15574390D01*
X37400000Y-17479298D02*
X37599390Y-17279908D01*
X37400000Y-17080518D01*
X37200610Y-17279908D01*
X37400000Y-17479298D01*
D11*
X3373277Y-22241970D02*
X3373277Y-22041970D01*
X3373277Y-22041970D02*
X3420896Y-22041970D01*
X3420896Y-22041970D02*
X3449467Y-22051494D01*
X3449467Y-22051494D02*
X3468515Y-22070541D01*
X3468515Y-22070541D02*
X3478039Y-22089589D01*
X3478039Y-22089589D02*
X3487562Y-22127684D01*
X3487562Y-22127684D02*
X3487562Y-22156256D01*
X3487562Y-22156256D02*
X3478039Y-22194351D01*
X3478039Y-22194351D02*
X3468515Y-22213399D01*
X3468515Y-22213399D02*
X3449467Y-22232446D01*
X3449467Y-22232446D02*
X3420896Y-22241970D01*
X3420896Y-22241970D02*
X3373277Y-22241970D01*
X3573277Y-22241970D02*
X3573277Y-22108637D01*
X3573277Y-22146732D02*
X3582801Y-22127684D01*
X3582801Y-22127684D02*
X3592324Y-22118160D01*
X3592324Y-22118160D02*
X3611372Y-22108637D01*
X3611372Y-22108637D02*
X3630420Y-22108637D01*
X3697086Y-22241970D02*
X3697086Y-22108637D01*
X3697086Y-22041970D02*
X3687562Y-22051494D01*
X3687562Y-22051494D02*
X3697086Y-22061018D01*
X3697086Y-22061018D02*
X3706610Y-22051494D01*
X3706610Y-22051494D02*
X3697086Y-22041970D01*
X3697086Y-22041970D02*
X3697086Y-22061018D01*
X3820896Y-22241970D02*
X3801848Y-22232446D01*
X3801848Y-22232446D02*
X3792324Y-22213399D01*
X3792324Y-22213399D02*
X3792324Y-22041970D01*
X3925658Y-22241970D02*
X3906610Y-22232446D01*
X3906610Y-22232446D02*
X3897086Y-22213399D01*
X3897086Y-22213399D02*
X3897086Y-22041970D01*
X4154229Y-22241970D02*
X4154229Y-22041970D01*
X4154229Y-22041970D02*
X4220896Y-22184827D01*
X4220896Y-22184827D02*
X4287563Y-22041970D01*
X4287563Y-22041970D02*
X4287563Y-22241970D01*
X4468515Y-22241970D02*
X4468515Y-22137208D01*
X4468515Y-22137208D02*
X4458991Y-22118160D01*
X4458991Y-22118160D02*
X4439944Y-22108637D01*
X4439944Y-22108637D02*
X4401848Y-22108637D01*
X4401848Y-22108637D02*
X4382801Y-22118160D01*
X4468515Y-22232446D02*
X4449467Y-22241970D01*
X4449467Y-22241970D02*
X4401848Y-22241970D01*
X4401848Y-22241970D02*
X4382801Y-22232446D01*
X4382801Y-22232446D02*
X4373277Y-22213399D01*
X4373277Y-22213399D02*
X4373277Y-22194351D01*
X4373277Y-22194351D02*
X4382801Y-22175303D01*
X4382801Y-22175303D02*
X4401848Y-22165780D01*
X4401848Y-22165780D02*
X4449467Y-22165780D01*
X4449467Y-22165780D02*
X4468515Y-22156256D01*
X4563753Y-22108637D02*
X4563753Y-22308637D01*
X4563753Y-22118160D02*
X4582801Y-22108637D01*
X4582801Y-22108637D02*
X4620896Y-22108637D01*
X4620896Y-22108637D02*
X4639944Y-22118160D01*
X4639944Y-22118160D02*
X4649467Y-22127684D01*
X4649467Y-22127684D02*
X4658991Y-22146732D01*
X4658991Y-22146732D02*
X4658991Y-22203875D01*
X4658991Y-22203875D02*
X4649467Y-22222922D01*
X4649467Y-22222922D02*
X4639944Y-22232446D01*
X4639944Y-22232446D02*
X4620896Y-22241970D01*
X4620896Y-22241970D02*
X4582801Y-22241970D01*
X4582801Y-22241970D02*
X4563753Y-22232446D01*
X4744705Y-22222922D02*
X4754229Y-22232446D01*
X4754229Y-22232446D02*
X4744705Y-22241970D01*
X4744705Y-22241970D02*
X4735182Y-22232446D01*
X4735182Y-22232446D02*
X4744705Y-22222922D01*
X4744705Y-22222922D02*
X4744705Y-22241970D01*
X4744705Y-22118160D02*
X4754229Y-22127684D01*
X4754229Y-22127684D02*
X4744705Y-22137208D01*
X4744705Y-22137208D02*
X4735182Y-22127684D01*
X4735182Y-22127684D02*
X4744705Y-22118160D01*
X4744705Y-22118160D02*
X4744705Y-22137208D01*
D12*
X2942320Y-22485396D02*
X3112500Y-22655576D01*
X3112500Y-22485396D02*
X2942320Y-22655576D01*
D11*
X3478039Y-22661970D02*
X3363753Y-22661970D01*
X3420896Y-22661970D02*
X3420896Y-22461970D01*
X3420896Y-22461970D02*
X3401848Y-22490541D01*
X3401848Y-22490541D02*
X3382801Y-22509589D01*
X3382801Y-22509589D02*
X3363753Y-22519113D01*
X3563753Y-22642922D02*
X3573277Y-22652446D01*
X3573277Y-22652446D02*
X3563753Y-22661970D01*
X3563753Y-22661970D02*
X3554229Y-22652446D01*
X3554229Y-22652446D02*
X3563753Y-22642922D01*
X3563753Y-22642922D02*
X3563753Y-22661970D01*
X3639943Y-22461970D02*
X3773277Y-22461970D01*
X3773277Y-22461970D02*
X3687562Y-22661970D01*
X3887562Y-22461970D02*
X3906610Y-22461970D01*
X3906610Y-22461970D02*
X3925658Y-22471494D01*
X3925658Y-22471494D02*
X3935182Y-22481018D01*
X3935182Y-22481018D02*
X3944705Y-22500065D01*
X3944705Y-22500065D02*
X3954229Y-22538160D01*
X3954229Y-22538160D02*
X3954229Y-22585779D01*
X3954229Y-22585779D02*
X3944705Y-22623875D01*
X3944705Y-22623875D02*
X3935182Y-22642922D01*
X3935182Y-22642922D02*
X3925658Y-22652446D01*
X3925658Y-22652446D02*
X3906610Y-22661970D01*
X3906610Y-22661970D02*
X3887562Y-22661970D01*
X3887562Y-22661970D02*
X3868515Y-22652446D01*
X3868515Y-22652446D02*
X3858991Y-22642922D01*
X3858991Y-22642922D02*
X3849467Y-22623875D01*
X3849467Y-22623875D02*
X3839943Y-22585779D01*
X3839943Y-22585779D02*
X3839943Y-22538160D01*
X3839943Y-22538160D02*
X3849467Y-22500065D01*
X3849467Y-22500065D02*
X3858991Y-22481018D01*
X3858991Y-22481018D02*
X3868515Y-22471494D01*
X3868515Y-22471494D02*
X3887562Y-22461970D01*
X4030420Y-22481018D02*
X4039943Y-22471494D01*
X4039943Y-22471494D02*
X4058991Y-22461970D01*
X4058991Y-22461970D02*
X4106610Y-22461970D01*
X4106610Y-22461970D02*
X4125658Y-22471494D01*
X4125658Y-22471494D02*
X4135182Y-22481018D01*
X4135182Y-22481018D02*
X4144705Y-22500065D01*
X4144705Y-22500065D02*
X4144705Y-22519113D01*
X4144705Y-22519113D02*
X4135182Y-22547684D01*
X4135182Y-22547684D02*
X4020896Y-22661970D01*
X4020896Y-22661970D02*
X4144705Y-22661970D01*
X4230420Y-22661970D02*
X4230420Y-22528637D01*
X4230420Y-22547684D02*
X4239944Y-22538160D01*
X4239944Y-22538160D02*
X4258991Y-22528637D01*
X4258991Y-22528637D02*
X4287563Y-22528637D01*
X4287563Y-22528637D02*
X4306610Y-22538160D01*
X4306610Y-22538160D02*
X4316134Y-22557208D01*
X4316134Y-22557208D02*
X4316134Y-22661970D01*
X4316134Y-22557208D02*
X4325658Y-22538160D01*
X4325658Y-22538160D02*
X4344705Y-22528637D01*
X4344705Y-22528637D02*
X4373277Y-22528637D01*
X4373277Y-22528637D02*
X4392325Y-22538160D01*
X4392325Y-22538160D02*
X4401848Y-22557208D01*
X4401848Y-22557208D02*
X4401848Y-22661970D01*
X4497086Y-22661970D02*
X4497086Y-22528637D01*
X4497086Y-22547684D02*
X4506610Y-22538160D01*
X4506610Y-22538160D02*
X4525658Y-22528637D01*
X4525658Y-22528637D02*
X4554229Y-22528637D01*
X4554229Y-22528637D02*
X4573277Y-22538160D01*
X4573277Y-22538160D02*
X4582801Y-22557208D01*
X4582801Y-22557208D02*
X4582801Y-22661970D01*
X4582801Y-22557208D02*
X4592325Y-22538160D01*
X4592325Y-22538160D02*
X4611372Y-22528637D01*
X4611372Y-22528637D02*
X4639944Y-22528637D01*
X4639944Y-22528637D02*
X4658991Y-22538160D01*
X4658991Y-22538160D02*
X4668515Y-22557208D01*
X4668515Y-22557208D02*
X4668515Y-22661970D01*
X5058991Y-22452446D02*
X4887563Y-22709589D01*
X5316134Y-22461970D02*
X5335182Y-22461970D01*
X5335182Y-22461970D02*
X5354229Y-22471494D01*
X5354229Y-22471494D02*
X5363753Y-22481018D01*
X5363753Y-22481018D02*
X5373277Y-22500065D01*
X5373277Y-22500065D02*
X5382801Y-22538160D01*
X5382801Y-22538160D02*
X5382801Y-22585779D01*
X5382801Y-22585779D02*
X5373277Y-22623875D01*
X5373277Y-22623875D02*
X5363753Y-22642922D01*
X5363753Y-22642922D02*
X5354229Y-22652446D01*
X5354229Y-22652446D02*
X5335182Y-22661970D01*
X5335182Y-22661970D02*
X5316134Y-22661970D01*
X5316134Y-22661970D02*
X5297087Y-22652446D01*
X5297087Y-22652446D02*
X5287563Y-22642922D01*
X5287563Y-22642922D02*
X5278039Y-22623875D01*
X5278039Y-22623875D02*
X5268515Y-22585779D01*
X5268515Y-22585779D02*
X5268515Y-22538160D01*
X5268515Y-22538160D02*
X5278039Y-22500065D01*
X5278039Y-22500065D02*
X5287563Y-22481018D01*
X5287563Y-22481018D02*
X5297087Y-22471494D01*
X5297087Y-22471494D02*
X5316134Y-22461970D01*
X5468515Y-22642922D02*
X5478039Y-22652446D01*
X5478039Y-22652446D02*
X5468515Y-22661970D01*
X5468515Y-22661970D02*
X5458991Y-22652446D01*
X5458991Y-22652446D02*
X5468515Y-22642922D01*
X5468515Y-22642922D02*
X5468515Y-22661970D01*
X5601848Y-22461970D02*
X5620896Y-22461970D01*
X5620896Y-22461970D02*
X5639944Y-22471494D01*
X5639944Y-22471494D02*
X5649467Y-22481018D01*
X5649467Y-22481018D02*
X5658991Y-22500065D01*
X5658991Y-22500065D02*
X5668515Y-22538160D01*
X5668515Y-22538160D02*
X5668515Y-22585779D01*
X5668515Y-22585779D02*
X5658991Y-22623875D01*
X5658991Y-22623875D02*
X5649467Y-22642922D01*
X5649467Y-22642922D02*
X5639944Y-22652446D01*
X5639944Y-22652446D02*
X5620896Y-22661970D01*
X5620896Y-22661970D02*
X5601848Y-22661970D01*
X5601848Y-22661970D02*
X5582801Y-22652446D01*
X5582801Y-22652446D02*
X5573277Y-22642922D01*
X5573277Y-22642922D02*
X5563753Y-22623875D01*
X5563753Y-22623875D02*
X5554229Y-22585779D01*
X5554229Y-22585779D02*
X5554229Y-22538160D01*
X5554229Y-22538160D02*
X5563753Y-22500065D01*
X5563753Y-22500065D02*
X5573277Y-22481018D01*
X5573277Y-22481018D02*
X5582801Y-22471494D01*
X5582801Y-22471494D02*
X5601848Y-22461970D01*
X5839944Y-22461970D02*
X5801848Y-22461970D01*
X5801848Y-22461970D02*
X5782801Y-22471494D01*
X5782801Y-22471494D02*
X5773277Y-22481018D01*
X5773277Y-22481018D02*
X5754229Y-22509589D01*
X5754229Y-22509589D02*
X5744706Y-22547684D01*
X5744706Y-22547684D02*
X5744706Y-22623875D01*
X5744706Y-22623875D02*
X5754229Y-22642922D01*
X5754229Y-22642922D02*
X5763753Y-22652446D01*
X5763753Y-22652446D02*
X5782801Y-22661970D01*
X5782801Y-22661970D02*
X5820896Y-22661970D01*
X5820896Y-22661970D02*
X5839944Y-22652446D01*
X5839944Y-22652446D02*
X5849467Y-22642922D01*
X5849467Y-22642922D02*
X5858991Y-22623875D01*
X5858991Y-22623875D02*
X5858991Y-22576256D01*
X5858991Y-22576256D02*
X5849467Y-22557208D01*
X5849467Y-22557208D02*
X5839944Y-22547684D01*
X5839944Y-22547684D02*
X5820896Y-22538160D01*
X5820896Y-22538160D02*
X5782801Y-22538160D01*
X5782801Y-22538160D02*
X5763753Y-22547684D01*
X5763753Y-22547684D02*
X5754229Y-22557208D01*
X5754229Y-22557208D02*
X5744706Y-22576256D01*
X5925658Y-22461970D02*
X6058991Y-22461970D01*
X6058991Y-22461970D02*
X5973277Y-22661970D01*
X6173277Y-22461970D02*
X6192325Y-22461970D01*
X6192325Y-22461970D02*
X6211372Y-22471494D01*
X6211372Y-22471494D02*
X6220896Y-22481018D01*
X6220896Y-22481018D02*
X6230420Y-22500065D01*
X6230420Y-22500065D02*
X6239944Y-22538160D01*
X6239944Y-22538160D02*
X6239944Y-22585779D01*
X6239944Y-22585779D02*
X6230420Y-22623875D01*
X6230420Y-22623875D02*
X6220896Y-22642922D01*
X6220896Y-22642922D02*
X6211372Y-22652446D01*
X6211372Y-22652446D02*
X6192325Y-22661970D01*
X6192325Y-22661970D02*
X6173277Y-22661970D01*
X6173277Y-22661970D02*
X6154229Y-22652446D01*
X6154229Y-22652446D02*
X6144706Y-22642922D01*
X6144706Y-22642922D02*
X6135182Y-22623875D01*
X6135182Y-22623875D02*
X6125658Y-22585779D01*
X6125658Y-22585779D02*
X6125658Y-22538160D01*
X6125658Y-22538160D02*
X6135182Y-22500065D01*
X6135182Y-22500065D02*
X6144706Y-22481018D01*
X6144706Y-22481018D02*
X6154229Y-22471494D01*
X6154229Y-22471494D02*
X6173277Y-22461970D01*
X6316134Y-22461970D02*
X6316134Y-22500065D01*
X6392325Y-22461970D02*
X6392325Y-22500065D01*
X6687563Y-22738160D02*
X6678039Y-22728637D01*
X6678039Y-22728637D02*
X6658991Y-22700065D01*
X6658991Y-22700065D02*
X6649468Y-22681018D01*
X6649468Y-22681018D02*
X6639944Y-22652446D01*
X6639944Y-22652446D02*
X6630420Y-22604827D01*
X6630420Y-22604827D02*
X6630420Y-22566732D01*
X6630420Y-22566732D02*
X6639944Y-22519113D01*
X6639944Y-22519113D02*
X6649468Y-22490541D01*
X6649468Y-22490541D02*
X6658991Y-22471494D01*
X6658991Y-22471494D02*
X6678039Y-22442922D01*
X6678039Y-22442922D02*
X6687563Y-22433398D01*
X6868515Y-22661970D02*
X6754229Y-22661970D01*
X6811372Y-22661970D02*
X6811372Y-22461970D01*
X6811372Y-22461970D02*
X6792325Y-22490541D01*
X6792325Y-22490541D02*
X6773277Y-22509589D01*
X6773277Y-22509589D02*
X6754229Y-22519113D01*
X7039944Y-22528637D02*
X7039944Y-22661970D01*
X6992325Y-22452446D02*
X6944706Y-22595303D01*
X6944706Y-22595303D02*
X7068515Y-22595303D01*
X7135182Y-22481018D02*
X7144706Y-22471494D01*
X7144706Y-22471494D02*
X7163753Y-22461970D01*
X7163753Y-22461970D02*
X7211372Y-22461970D01*
X7211372Y-22461970D02*
X7230420Y-22471494D01*
X7230420Y-22471494D02*
X7239944Y-22481018D01*
X7239944Y-22481018D02*
X7249468Y-22500065D01*
X7249468Y-22500065D02*
X7249468Y-22519113D01*
X7249468Y-22519113D02*
X7239944Y-22547684D01*
X7239944Y-22547684D02*
X7125658Y-22661970D01*
X7125658Y-22661970D02*
X7249468Y-22661970D01*
X7487563Y-22661970D02*
X7487563Y-22461970D01*
X7573277Y-22661970D02*
X7573277Y-22557208D01*
X7573277Y-22557208D02*
X7563753Y-22538160D01*
X7563753Y-22538160D02*
X7544706Y-22528637D01*
X7544706Y-22528637D02*
X7516134Y-22528637D01*
X7516134Y-22528637D02*
X7497087Y-22538160D01*
X7497087Y-22538160D02*
X7487563Y-22547684D01*
X7697087Y-22661970D02*
X7678039Y-22652446D01*
X7678039Y-22652446D02*
X7668515Y-22642922D01*
X7668515Y-22642922D02*
X7658991Y-22623875D01*
X7658991Y-22623875D02*
X7658991Y-22566732D01*
X7658991Y-22566732D02*
X7668515Y-22547684D01*
X7668515Y-22547684D02*
X7678039Y-22538160D01*
X7678039Y-22538160D02*
X7697087Y-22528637D01*
X7697087Y-22528637D02*
X7725658Y-22528637D01*
X7725658Y-22528637D02*
X7744706Y-22538160D01*
X7744706Y-22538160D02*
X7754230Y-22547684D01*
X7754230Y-22547684D02*
X7763753Y-22566732D01*
X7763753Y-22566732D02*
X7763753Y-22623875D01*
X7763753Y-22623875D02*
X7754230Y-22642922D01*
X7754230Y-22642922D02*
X7744706Y-22652446D01*
X7744706Y-22652446D02*
X7725658Y-22661970D01*
X7725658Y-22661970D02*
X7697087Y-22661970D01*
X7878039Y-22661970D02*
X7858991Y-22652446D01*
X7858991Y-22652446D02*
X7849468Y-22633398D01*
X7849468Y-22633398D02*
X7849468Y-22461970D01*
X8030420Y-22652446D02*
X8011372Y-22661970D01*
X8011372Y-22661970D02*
X7973277Y-22661970D01*
X7973277Y-22661970D02*
X7954230Y-22652446D01*
X7954230Y-22652446D02*
X7944706Y-22633398D01*
X7944706Y-22633398D02*
X7944706Y-22557208D01*
X7944706Y-22557208D02*
X7954230Y-22538160D01*
X7954230Y-22538160D02*
X7973277Y-22528637D01*
X7973277Y-22528637D02*
X8011372Y-22528637D01*
X8011372Y-22528637D02*
X8030420Y-22538160D01*
X8030420Y-22538160D02*
X8039944Y-22557208D01*
X8039944Y-22557208D02*
X8039944Y-22576256D01*
X8039944Y-22576256D02*
X7944706Y-22595303D01*
X8116134Y-22652446D02*
X8135182Y-22661970D01*
X8135182Y-22661970D02*
X8173277Y-22661970D01*
X8173277Y-22661970D02*
X8192325Y-22652446D01*
X8192325Y-22652446D02*
X8201849Y-22633398D01*
X8201849Y-22633398D02*
X8201849Y-22623875D01*
X8201849Y-22623875D02*
X8192325Y-22604827D01*
X8192325Y-22604827D02*
X8173277Y-22595303D01*
X8173277Y-22595303D02*
X8144706Y-22595303D01*
X8144706Y-22595303D02*
X8125658Y-22585779D01*
X8125658Y-22585779D02*
X8116134Y-22566732D01*
X8116134Y-22566732D02*
X8116134Y-22557208D01*
X8116134Y-22557208D02*
X8125658Y-22538160D01*
X8125658Y-22538160D02*
X8144706Y-22528637D01*
X8144706Y-22528637D02*
X8173277Y-22528637D01*
X8173277Y-22528637D02*
X8192325Y-22538160D01*
X8268515Y-22738160D02*
X8278039Y-22728637D01*
X8278039Y-22728637D02*
X8297087Y-22700065D01*
X8297087Y-22700065D02*
X8306611Y-22681018D01*
X8306611Y-22681018D02*
X8316134Y-22652446D01*
X8316134Y-22652446D02*
X8325658Y-22604827D01*
X8325658Y-22604827D02*
X8325658Y-22566732D01*
X8325658Y-22566732D02*
X8316134Y-22519113D01*
X8316134Y-22519113D02*
X8306611Y-22490541D01*
X8306611Y-22490541D02*
X8297087Y-22471494D01*
X8297087Y-22471494D02*
X8278039Y-22442922D01*
X8278039Y-22442922D02*
X8268515Y-22433398D01*
X8630420Y-22738160D02*
X8620896Y-22728637D01*
X8620896Y-22728637D02*
X8601849Y-22700065D01*
X8601849Y-22700065D02*
X8592325Y-22681018D01*
X8592325Y-22681018D02*
X8582801Y-22652446D01*
X8582801Y-22652446D02*
X8573277Y-22604827D01*
X8573277Y-22604827D02*
X8573277Y-22566732D01*
X8573277Y-22566732D02*
X8582801Y-22519113D01*
X8582801Y-22519113D02*
X8592325Y-22490541D01*
X8592325Y-22490541D02*
X8601849Y-22471494D01*
X8601849Y-22471494D02*
X8620896Y-22442922D01*
X8620896Y-22442922D02*
X8630420Y-22433398D01*
X8706611Y-22528637D02*
X8706611Y-22661970D01*
X8706611Y-22547684D02*
X8716134Y-22538160D01*
X8716134Y-22538160D02*
X8735182Y-22528637D01*
X8735182Y-22528637D02*
X8763754Y-22528637D01*
X8763754Y-22528637D02*
X8782801Y-22538160D01*
X8782801Y-22538160D02*
X8792325Y-22557208D01*
X8792325Y-22557208D02*
X8792325Y-22661970D01*
X8916134Y-22661970D02*
X8897087Y-22652446D01*
X8897087Y-22652446D02*
X8887563Y-22642922D01*
X8887563Y-22642922D02*
X8878039Y-22623875D01*
X8878039Y-22623875D02*
X8878039Y-22566732D01*
X8878039Y-22566732D02*
X8887563Y-22547684D01*
X8887563Y-22547684D02*
X8897087Y-22538160D01*
X8897087Y-22538160D02*
X8916134Y-22528637D01*
X8916134Y-22528637D02*
X8944706Y-22528637D01*
X8944706Y-22528637D02*
X8963754Y-22538160D01*
X8963754Y-22538160D02*
X8973277Y-22547684D01*
X8973277Y-22547684D02*
X8982801Y-22566732D01*
X8982801Y-22566732D02*
X8982801Y-22623875D01*
X8982801Y-22623875D02*
X8973277Y-22642922D01*
X8973277Y-22642922D02*
X8963754Y-22652446D01*
X8963754Y-22652446D02*
X8944706Y-22661970D01*
X8944706Y-22661970D02*
X8916134Y-22661970D01*
X9039944Y-22528637D02*
X9116134Y-22528637D01*
X9068515Y-22461970D02*
X9068515Y-22633398D01*
X9068515Y-22633398D02*
X9078039Y-22652446D01*
X9078039Y-22652446D02*
X9097087Y-22661970D01*
X9097087Y-22661970D02*
X9116134Y-22661970D01*
X9335182Y-22528637D02*
X9335182Y-22728637D01*
X9335182Y-22538160D02*
X9354230Y-22528637D01*
X9354230Y-22528637D02*
X9392325Y-22528637D01*
X9392325Y-22528637D02*
X9411373Y-22538160D01*
X9411373Y-22538160D02*
X9420896Y-22547684D01*
X9420896Y-22547684D02*
X9430420Y-22566732D01*
X9430420Y-22566732D02*
X9430420Y-22623875D01*
X9430420Y-22623875D02*
X9420896Y-22642922D01*
X9420896Y-22642922D02*
X9411373Y-22652446D01*
X9411373Y-22652446D02*
X9392325Y-22661970D01*
X9392325Y-22661970D02*
X9354230Y-22661970D01*
X9354230Y-22661970D02*
X9335182Y-22652446D01*
X9544706Y-22661970D02*
X9525658Y-22652446D01*
X9525658Y-22652446D02*
X9516135Y-22633398D01*
X9516135Y-22633398D02*
X9516135Y-22461970D01*
X9706611Y-22661970D02*
X9706611Y-22557208D01*
X9706611Y-22557208D02*
X9697087Y-22538160D01*
X9697087Y-22538160D02*
X9678039Y-22528637D01*
X9678039Y-22528637D02*
X9639944Y-22528637D01*
X9639944Y-22528637D02*
X9620896Y-22538160D01*
X9706611Y-22652446D02*
X9687563Y-22661970D01*
X9687563Y-22661970D02*
X9639944Y-22661970D01*
X9639944Y-22661970D02*
X9620896Y-22652446D01*
X9620896Y-22652446D02*
X9611373Y-22633398D01*
X9611373Y-22633398D02*
X9611373Y-22614351D01*
X9611373Y-22614351D02*
X9620896Y-22595303D01*
X9620896Y-22595303D02*
X9639944Y-22585779D01*
X9639944Y-22585779D02*
X9687563Y-22585779D01*
X9687563Y-22585779D02*
X9706611Y-22576256D01*
X9773277Y-22528637D02*
X9849468Y-22528637D01*
X9801849Y-22461970D02*
X9801849Y-22633398D01*
X9801849Y-22633398D02*
X9811373Y-22652446D01*
X9811373Y-22652446D02*
X9830420Y-22661970D01*
X9830420Y-22661970D02*
X9849468Y-22661970D01*
X9992325Y-22652446D02*
X9973277Y-22661970D01*
X9973277Y-22661970D02*
X9935182Y-22661970D01*
X9935182Y-22661970D02*
X9916135Y-22652446D01*
X9916135Y-22652446D02*
X9906611Y-22633398D01*
X9906611Y-22633398D02*
X9906611Y-22557208D01*
X9906611Y-22557208D02*
X9916135Y-22538160D01*
X9916135Y-22538160D02*
X9935182Y-22528637D01*
X9935182Y-22528637D02*
X9973277Y-22528637D01*
X9973277Y-22528637D02*
X9992325Y-22538160D01*
X9992325Y-22538160D02*
X10001849Y-22557208D01*
X10001849Y-22557208D02*
X10001849Y-22576256D01*
X10001849Y-22576256D02*
X9906611Y-22595303D01*
X10173277Y-22661970D02*
X10173277Y-22461970D01*
X10173277Y-22652446D02*
X10154230Y-22661970D01*
X10154230Y-22661970D02*
X10116135Y-22661970D01*
X10116135Y-22661970D02*
X10097087Y-22652446D01*
X10097087Y-22652446D02*
X10087563Y-22642922D01*
X10087563Y-22642922D02*
X10078039Y-22623875D01*
X10078039Y-22623875D02*
X10078039Y-22566732D01*
X10078039Y-22566732D02*
X10087563Y-22547684D01*
X10087563Y-22547684D02*
X10097087Y-22538160D01*
X10097087Y-22538160D02*
X10116135Y-22528637D01*
X10116135Y-22528637D02*
X10154230Y-22528637D01*
X10154230Y-22528637D02*
X10173277Y-22538160D01*
X10249468Y-22738160D02*
X10258992Y-22728637D01*
X10258992Y-22728637D02*
X10278039Y-22700065D01*
X10278039Y-22700065D02*
X10287563Y-22681018D01*
X10287563Y-22681018D02*
X10297087Y-22652446D01*
X10297087Y-22652446D02*
X10306611Y-22604827D01*
X10306611Y-22604827D02*
X10306611Y-22566732D01*
X10306611Y-22566732D02*
X10297087Y-22519113D01*
X10297087Y-22519113D02*
X10287563Y-22490541D01*
X10287563Y-22490541D02*
X10278039Y-22471494D01*
X10278039Y-22471494D02*
X10258992Y-22442922D01*
X10258992Y-22442922D02*
X10249468Y-22433398D01*
X3112500Y-22860666D02*
G75*
G03*
X3112500Y-22860666I-100000J0D01*
G01*
X3363753Y-22771198D02*
X3373277Y-22761674D01*
X3373277Y-22761674D02*
X3392324Y-22752150D01*
X3392324Y-22752150D02*
X3439943Y-22752150D01*
X3439943Y-22752150D02*
X3458991Y-22761674D01*
X3458991Y-22761674D02*
X3468515Y-22771198D01*
X3468515Y-22771198D02*
X3478039Y-22790245D01*
X3478039Y-22790245D02*
X3478039Y-22809293D01*
X3478039Y-22809293D02*
X3468515Y-22837864D01*
X3468515Y-22837864D02*
X3354229Y-22952150D01*
X3354229Y-22952150D02*
X3478039Y-22952150D01*
X3563753Y-22933102D02*
X3573277Y-22942626D01*
X3573277Y-22942626D02*
X3563753Y-22952150D01*
X3563753Y-22952150D02*
X3554229Y-22942626D01*
X3554229Y-22942626D02*
X3563753Y-22933102D01*
X3563753Y-22933102D02*
X3563753Y-22952150D01*
X3697086Y-22752150D02*
X3716134Y-22752150D01*
X3716134Y-22752150D02*
X3735182Y-22761674D01*
X3735182Y-22761674D02*
X3744705Y-22771198D01*
X3744705Y-22771198D02*
X3754229Y-22790245D01*
X3754229Y-22790245D02*
X3763753Y-22828340D01*
X3763753Y-22828340D02*
X3763753Y-22875959D01*
X3763753Y-22875959D02*
X3754229Y-22914055D01*
X3754229Y-22914055D02*
X3744705Y-22933102D01*
X3744705Y-22933102D02*
X3735182Y-22942626D01*
X3735182Y-22942626D02*
X3716134Y-22952150D01*
X3716134Y-22952150D02*
X3697086Y-22952150D01*
X3697086Y-22952150D02*
X3678039Y-22942626D01*
X3678039Y-22942626D02*
X3668515Y-22933102D01*
X3668515Y-22933102D02*
X3658991Y-22914055D01*
X3658991Y-22914055D02*
X3649467Y-22875959D01*
X3649467Y-22875959D02*
X3649467Y-22828340D01*
X3649467Y-22828340D02*
X3658991Y-22790245D01*
X3658991Y-22790245D02*
X3668515Y-22771198D01*
X3668515Y-22771198D02*
X3678039Y-22761674D01*
X3678039Y-22761674D02*
X3697086Y-22752150D01*
X3887562Y-22752150D02*
X3906610Y-22752150D01*
X3906610Y-22752150D02*
X3925658Y-22761674D01*
X3925658Y-22761674D02*
X3935182Y-22771198D01*
X3935182Y-22771198D02*
X3944705Y-22790245D01*
X3944705Y-22790245D02*
X3954229Y-22828340D01*
X3954229Y-22828340D02*
X3954229Y-22875959D01*
X3954229Y-22875959D02*
X3944705Y-22914055D01*
X3944705Y-22914055D02*
X3935182Y-22933102D01*
X3935182Y-22933102D02*
X3925658Y-22942626D01*
X3925658Y-22942626D02*
X3906610Y-22952150D01*
X3906610Y-22952150D02*
X3887562Y-22952150D01*
X3887562Y-22952150D02*
X3868515Y-22942626D01*
X3868515Y-22942626D02*
X3858991Y-22933102D01*
X3858991Y-22933102D02*
X3849467Y-22914055D01*
X3849467Y-22914055D02*
X3839943Y-22875959D01*
X3839943Y-22875959D02*
X3839943Y-22828340D01*
X3839943Y-22828340D02*
X3849467Y-22790245D01*
X3849467Y-22790245D02*
X3858991Y-22771198D01*
X3858991Y-22771198D02*
X3868515Y-22761674D01*
X3868515Y-22761674D02*
X3887562Y-22752150D01*
X4078039Y-22752150D02*
X4097086Y-22752150D01*
X4097086Y-22752150D02*
X4116134Y-22761674D01*
X4116134Y-22761674D02*
X4125658Y-22771198D01*
X4125658Y-22771198D02*
X4135182Y-22790245D01*
X4135182Y-22790245D02*
X4144705Y-22828340D01*
X4144705Y-22828340D02*
X4144705Y-22875959D01*
X4144705Y-22875959D02*
X4135182Y-22914055D01*
X4135182Y-22914055D02*
X4125658Y-22933102D01*
X4125658Y-22933102D02*
X4116134Y-22942626D01*
X4116134Y-22942626D02*
X4097086Y-22952150D01*
X4097086Y-22952150D02*
X4078039Y-22952150D01*
X4078039Y-22952150D02*
X4058991Y-22942626D01*
X4058991Y-22942626D02*
X4049467Y-22933102D01*
X4049467Y-22933102D02*
X4039943Y-22914055D01*
X4039943Y-22914055D02*
X4030420Y-22875959D01*
X4030420Y-22875959D02*
X4030420Y-22828340D01*
X4030420Y-22828340D02*
X4039943Y-22790245D01*
X4039943Y-22790245D02*
X4049467Y-22771198D01*
X4049467Y-22771198D02*
X4058991Y-22761674D01*
X4058991Y-22761674D02*
X4078039Y-22752150D01*
X4230420Y-22952150D02*
X4230420Y-22818817D01*
X4230420Y-22837864D02*
X4239944Y-22828340D01*
X4239944Y-22828340D02*
X4258991Y-22818817D01*
X4258991Y-22818817D02*
X4287563Y-22818817D01*
X4287563Y-22818817D02*
X4306610Y-22828340D01*
X4306610Y-22828340D02*
X4316134Y-22847388D01*
X4316134Y-22847388D02*
X4316134Y-22952150D01*
X4316134Y-22847388D02*
X4325658Y-22828340D01*
X4325658Y-22828340D02*
X4344705Y-22818817D01*
X4344705Y-22818817D02*
X4373277Y-22818817D01*
X4373277Y-22818817D02*
X4392325Y-22828340D01*
X4392325Y-22828340D02*
X4401848Y-22847388D01*
X4401848Y-22847388D02*
X4401848Y-22952150D01*
X4497086Y-22952150D02*
X4497086Y-22818817D01*
X4497086Y-22837864D02*
X4506610Y-22828340D01*
X4506610Y-22828340D02*
X4525658Y-22818817D01*
X4525658Y-22818817D02*
X4554229Y-22818817D01*
X4554229Y-22818817D02*
X4573277Y-22828340D01*
X4573277Y-22828340D02*
X4582801Y-22847388D01*
X4582801Y-22847388D02*
X4582801Y-22952150D01*
X4582801Y-22847388D02*
X4592325Y-22828340D01*
X4592325Y-22828340D02*
X4611372Y-22818817D01*
X4611372Y-22818817D02*
X4639944Y-22818817D01*
X4639944Y-22818817D02*
X4658991Y-22828340D01*
X4658991Y-22828340D02*
X4668515Y-22847388D01*
X4668515Y-22847388D02*
X4668515Y-22952150D01*
X5058991Y-22742626D02*
X4887563Y-22999769D01*
X5316134Y-22752150D02*
X5335182Y-22752150D01*
X5335182Y-22752150D02*
X5354229Y-22761674D01*
X5354229Y-22761674D02*
X5363753Y-22771198D01*
X5363753Y-22771198D02*
X5373277Y-22790245D01*
X5373277Y-22790245D02*
X5382801Y-22828340D01*
X5382801Y-22828340D02*
X5382801Y-22875959D01*
X5382801Y-22875959D02*
X5373277Y-22914055D01*
X5373277Y-22914055D02*
X5363753Y-22933102D01*
X5363753Y-22933102D02*
X5354229Y-22942626D01*
X5354229Y-22942626D02*
X5335182Y-22952150D01*
X5335182Y-22952150D02*
X5316134Y-22952150D01*
X5316134Y-22952150D02*
X5297087Y-22942626D01*
X5297087Y-22942626D02*
X5287563Y-22933102D01*
X5287563Y-22933102D02*
X5278039Y-22914055D01*
X5278039Y-22914055D02*
X5268515Y-22875959D01*
X5268515Y-22875959D02*
X5268515Y-22828340D01*
X5268515Y-22828340D02*
X5278039Y-22790245D01*
X5278039Y-22790245D02*
X5287563Y-22771198D01*
X5287563Y-22771198D02*
X5297087Y-22761674D01*
X5297087Y-22761674D02*
X5316134Y-22752150D01*
X5468515Y-22933102D02*
X5478039Y-22942626D01*
X5478039Y-22942626D02*
X5468515Y-22952150D01*
X5468515Y-22952150D02*
X5458991Y-22942626D01*
X5458991Y-22942626D02*
X5468515Y-22933102D01*
X5468515Y-22933102D02*
X5468515Y-22952150D01*
X5601848Y-22752150D02*
X5620896Y-22752150D01*
X5620896Y-22752150D02*
X5639944Y-22761674D01*
X5639944Y-22761674D02*
X5649467Y-22771198D01*
X5649467Y-22771198D02*
X5658991Y-22790245D01*
X5658991Y-22790245D02*
X5668515Y-22828340D01*
X5668515Y-22828340D02*
X5668515Y-22875959D01*
X5668515Y-22875959D02*
X5658991Y-22914055D01*
X5658991Y-22914055D02*
X5649467Y-22933102D01*
X5649467Y-22933102D02*
X5639944Y-22942626D01*
X5639944Y-22942626D02*
X5620896Y-22952150D01*
X5620896Y-22952150D02*
X5601848Y-22952150D01*
X5601848Y-22952150D02*
X5582801Y-22942626D01*
X5582801Y-22942626D02*
X5573277Y-22933102D01*
X5573277Y-22933102D02*
X5563753Y-22914055D01*
X5563753Y-22914055D02*
X5554229Y-22875959D01*
X5554229Y-22875959D02*
X5554229Y-22828340D01*
X5554229Y-22828340D02*
X5563753Y-22790245D01*
X5563753Y-22790245D02*
X5573277Y-22771198D01*
X5573277Y-22771198D02*
X5582801Y-22761674D01*
X5582801Y-22761674D02*
X5601848Y-22752150D01*
X5735182Y-22752150D02*
X5868515Y-22752150D01*
X5868515Y-22752150D02*
X5782801Y-22952150D01*
X5973277Y-22837864D02*
X5954229Y-22828340D01*
X5954229Y-22828340D02*
X5944706Y-22818817D01*
X5944706Y-22818817D02*
X5935182Y-22799769D01*
X5935182Y-22799769D02*
X5935182Y-22790245D01*
X5935182Y-22790245D02*
X5944706Y-22771198D01*
X5944706Y-22771198D02*
X5954229Y-22761674D01*
X5954229Y-22761674D02*
X5973277Y-22752150D01*
X5973277Y-22752150D02*
X6011372Y-22752150D01*
X6011372Y-22752150D02*
X6030420Y-22761674D01*
X6030420Y-22761674D02*
X6039944Y-22771198D01*
X6039944Y-22771198D02*
X6049467Y-22790245D01*
X6049467Y-22790245D02*
X6049467Y-22799769D01*
X6049467Y-22799769D02*
X6039944Y-22818817D01*
X6039944Y-22818817D02*
X6030420Y-22828340D01*
X6030420Y-22828340D02*
X6011372Y-22837864D01*
X6011372Y-22837864D02*
X5973277Y-22837864D01*
X5973277Y-22837864D02*
X5954229Y-22847388D01*
X5954229Y-22847388D02*
X5944706Y-22856912D01*
X5944706Y-22856912D02*
X5935182Y-22875959D01*
X5935182Y-22875959D02*
X5935182Y-22914055D01*
X5935182Y-22914055D02*
X5944706Y-22933102D01*
X5944706Y-22933102D02*
X5954229Y-22942626D01*
X5954229Y-22942626D02*
X5973277Y-22952150D01*
X5973277Y-22952150D02*
X6011372Y-22952150D01*
X6011372Y-22952150D02*
X6030420Y-22942626D01*
X6030420Y-22942626D02*
X6039944Y-22933102D01*
X6039944Y-22933102D02*
X6049467Y-22914055D01*
X6049467Y-22914055D02*
X6049467Y-22875959D01*
X6049467Y-22875959D02*
X6039944Y-22856912D01*
X6039944Y-22856912D02*
X6030420Y-22847388D01*
X6030420Y-22847388D02*
X6011372Y-22837864D01*
X6116134Y-22752150D02*
X6249467Y-22752150D01*
X6249467Y-22752150D02*
X6163753Y-22952150D01*
X6316134Y-22752150D02*
X6316134Y-22790245D01*
X6392325Y-22752150D02*
X6392325Y-22790245D01*
X6687563Y-23028340D02*
X6678039Y-23018817D01*
X6678039Y-23018817D02*
X6658991Y-22990245D01*
X6658991Y-22990245D02*
X6649468Y-22971198D01*
X6649468Y-22971198D02*
X6639944Y-22942626D01*
X6639944Y-22942626D02*
X6630420Y-22895007D01*
X6630420Y-22895007D02*
X6630420Y-22856912D01*
X6630420Y-22856912D02*
X6639944Y-22809293D01*
X6639944Y-22809293D02*
X6649468Y-22780721D01*
X6649468Y-22780721D02*
X6658991Y-22761674D01*
X6658991Y-22761674D02*
X6678039Y-22733102D01*
X6678039Y-22733102D02*
X6687563Y-22723578D01*
X6801848Y-22752150D02*
X6820896Y-22752150D01*
X6820896Y-22752150D02*
X6839944Y-22761674D01*
X6839944Y-22761674D02*
X6849468Y-22771198D01*
X6849468Y-22771198D02*
X6858991Y-22790245D01*
X6858991Y-22790245D02*
X6868515Y-22828340D01*
X6868515Y-22828340D02*
X6868515Y-22875959D01*
X6868515Y-22875959D02*
X6858991Y-22914055D01*
X6858991Y-22914055D02*
X6849468Y-22933102D01*
X6849468Y-22933102D02*
X6839944Y-22942626D01*
X6839944Y-22942626D02*
X6820896Y-22952150D01*
X6820896Y-22952150D02*
X6801848Y-22952150D01*
X6801848Y-22952150D02*
X6782801Y-22942626D01*
X6782801Y-22942626D02*
X6773277Y-22933102D01*
X6773277Y-22933102D02*
X6763753Y-22914055D01*
X6763753Y-22914055D02*
X6754229Y-22875959D01*
X6754229Y-22875959D02*
X6754229Y-22828340D01*
X6754229Y-22828340D02*
X6763753Y-22790245D01*
X6763753Y-22790245D02*
X6773277Y-22771198D01*
X6773277Y-22771198D02*
X6782801Y-22761674D01*
X6782801Y-22761674D02*
X6801848Y-22752150D01*
X7106610Y-22952150D02*
X7106610Y-22752150D01*
X7192325Y-22952150D02*
X7192325Y-22847388D01*
X7192325Y-22847388D02*
X7182801Y-22828340D01*
X7182801Y-22828340D02*
X7163753Y-22818817D01*
X7163753Y-22818817D02*
X7135182Y-22818817D01*
X7135182Y-22818817D02*
X7116134Y-22828340D01*
X7116134Y-22828340D02*
X7106610Y-22837864D01*
X7316134Y-22952150D02*
X7297087Y-22942626D01*
X7297087Y-22942626D02*
X7287563Y-22933102D01*
X7287563Y-22933102D02*
X7278039Y-22914055D01*
X7278039Y-22914055D02*
X7278039Y-22856912D01*
X7278039Y-22856912D02*
X7287563Y-22837864D01*
X7287563Y-22837864D02*
X7297087Y-22828340D01*
X7297087Y-22828340D02*
X7316134Y-22818817D01*
X7316134Y-22818817D02*
X7344706Y-22818817D01*
X7344706Y-22818817D02*
X7363753Y-22828340D01*
X7363753Y-22828340D02*
X7373277Y-22837864D01*
X7373277Y-22837864D02*
X7382801Y-22856912D01*
X7382801Y-22856912D02*
X7382801Y-22914055D01*
X7382801Y-22914055D02*
X7373277Y-22933102D01*
X7373277Y-22933102D02*
X7363753Y-22942626D01*
X7363753Y-22942626D02*
X7344706Y-22952150D01*
X7344706Y-22952150D02*
X7316134Y-22952150D01*
X7497087Y-22952150D02*
X7478039Y-22942626D01*
X7478039Y-22942626D02*
X7468515Y-22923578D01*
X7468515Y-22923578D02*
X7468515Y-22752150D01*
X7649468Y-22942626D02*
X7630420Y-22952150D01*
X7630420Y-22952150D02*
X7592325Y-22952150D01*
X7592325Y-22952150D02*
X7573277Y-22942626D01*
X7573277Y-22942626D02*
X7563753Y-22923578D01*
X7563753Y-22923578D02*
X7563753Y-22847388D01*
X7563753Y-22847388D02*
X7573277Y-22828340D01*
X7573277Y-22828340D02*
X7592325Y-22818817D01*
X7592325Y-22818817D02*
X7630420Y-22818817D01*
X7630420Y-22818817D02*
X7649468Y-22828340D01*
X7649468Y-22828340D02*
X7658991Y-22847388D01*
X7658991Y-22847388D02*
X7658991Y-22866436D01*
X7658991Y-22866436D02*
X7563753Y-22885483D01*
X7735182Y-22942626D02*
X7754230Y-22952150D01*
X7754230Y-22952150D02*
X7792325Y-22952150D01*
X7792325Y-22952150D02*
X7811372Y-22942626D01*
X7811372Y-22942626D02*
X7820896Y-22923578D01*
X7820896Y-22923578D02*
X7820896Y-22914055D01*
X7820896Y-22914055D02*
X7811372Y-22895007D01*
X7811372Y-22895007D02*
X7792325Y-22885483D01*
X7792325Y-22885483D02*
X7763753Y-22885483D01*
X7763753Y-22885483D02*
X7744706Y-22875959D01*
X7744706Y-22875959D02*
X7735182Y-22856912D01*
X7735182Y-22856912D02*
X7735182Y-22847388D01*
X7735182Y-22847388D02*
X7744706Y-22828340D01*
X7744706Y-22828340D02*
X7763753Y-22818817D01*
X7763753Y-22818817D02*
X7792325Y-22818817D01*
X7792325Y-22818817D02*
X7811372Y-22828340D01*
X8058992Y-22875959D02*
X8211373Y-22875959D01*
X8135182Y-22952150D02*
X8135182Y-22799769D01*
X8439944Y-22752150D02*
X8573277Y-22752150D01*
X8573277Y-22752150D02*
X8487563Y-22952150D01*
X8754230Y-22952150D02*
X8639944Y-22952150D01*
X8697087Y-22952150D02*
X8697087Y-22752150D01*
X8697087Y-22752150D02*
X8678039Y-22780721D01*
X8678039Y-22780721D02*
X8658992Y-22799769D01*
X8658992Y-22799769D02*
X8639944Y-22809293D01*
X8982801Y-22942626D02*
X9001849Y-22952150D01*
X9001849Y-22952150D02*
X9039944Y-22952150D01*
X9039944Y-22952150D02*
X9058992Y-22942626D01*
X9058992Y-22942626D02*
X9068516Y-22923578D01*
X9068516Y-22923578D02*
X9068516Y-22914055D01*
X9068516Y-22914055D02*
X9058992Y-22895007D01*
X9058992Y-22895007D02*
X9039944Y-22885483D01*
X9039944Y-22885483D02*
X9011373Y-22885483D01*
X9011373Y-22885483D02*
X8992325Y-22875959D01*
X8992325Y-22875959D02*
X8982801Y-22856912D01*
X8982801Y-22856912D02*
X8982801Y-22847388D01*
X8982801Y-22847388D02*
X8992325Y-22828340D01*
X8992325Y-22828340D02*
X9011373Y-22818817D01*
X9011373Y-22818817D02*
X9039944Y-22818817D01*
X9039944Y-22818817D02*
X9058992Y-22828340D01*
X9182801Y-22952150D02*
X9163754Y-22942626D01*
X9163754Y-22942626D02*
X9154230Y-22923578D01*
X9154230Y-22923578D02*
X9154230Y-22752150D01*
X9287563Y-22952150D02*
X9268516Y-22942626D01*
X9268516Y-22942626D02*
X9258992Y-22933102D01*
X9258992Y-22933102D02*
X9249468Y-22914055D01*
X9249468Y-22914055D02*
X9249468Y-22856912D01*
X9249468Y-22856912D02*
X9258992Y-22837864D01*
X9258992Y-22837864D02*
X9268516Y-22828340D01*
X9268516Y-22828340D02*
X9287563Y-22818817D01*
X9287563Y-22818817D02*
X9316135Y-22818817D01*
X9316135Y-22818817D02*
X9335182Y-22828340D01*
X9335182Y-22828340D02*
X9344706Y-22837864D01*
X9344706Y-22837864D02*
X9354230Y-22856912D01*
X9354230Y-22856912D02*
X9354230Y-22914055D01*
X9354230Y-22914055D02*
X9344706Y-22933102D01*
X9344706Y-22933102D02*
X9335182Y-22942626D01*
X9335182Y-22942626D02*
X9316135Y-22952150D01*
X9316135Y-22952150D02*
X9287563Y-22952150D01*
X9411373Y-22818817D02*
X9487563Y-22818817D01*
X9439944Y-22752150D02*
X9439944Y-22923578D01*
X9439944Y-22923578D02*
X9449468Y-22942626D01*
X9449468Y-22942626D02*
X9468516Y-22952150D01*
X9468516Y-22952150D02*
X9487563Y-22952150D01*
X9544706Y-22942626D02*
X9563754Y-22952150D01*
X9563754Y-22952150D02*
X9601849Y-22952150D01*
X9601849Y-22952150D02*
X9620897Y-22942626D01*
X9620897Y-22942626D02*
X9630420Y-22923578D01*
X9630420Y-22923578D02*
X9630420Y-22914055D01*
X9630420Y-22914055D02*
X9620897Y-22895007D01*
X9620897Y-22895007D02*
X9601849Y-22885483D01*
X9601849Y-22885483D02*
X9573277Y-22885483D01*
X9573277Y-22885483D02*
X9554230Y-22875959D01*
X9554230Y-22875959D02*
X9544706Y-22856912D01*
X9544706Y-22856912D02*
X9544706Y-22847388D01*
X9544706Y-22847388D02*
X9554230Y-22828340D01*
X9554230Y-22828340D02*
X9573277Y-22818817D01*
X9573277Y-22818817D02*
X9601849Y-22818817D01*
X9601849Y-22818817D02*
X9620897Y-22828340D01*
X9697087Y-23028340D02*
X9706611Y-23018817D01*
X9706611Y-23018817D02*
X9725658Y-22990245D01*
X9725658Y-22990245D02*
X9735182Y-22971198D01*
X9735182Y-22971198D02*
X9744706Y-22942626D01*
X9744706Y-22942626D02*
X9754230Y-22895007D01*
X9754230Y-22895007D02*
X9754230Y-22856912D01*
X9754230Y-22856912D02*
X9744706Y-22809293D01*
X9744706Y-22809293D02*
X9735182Y-22780721D01*
X9735182Y-22780721D02*
X9725658Y-22761674D01*
X9725658Y-22761674D02*
X9706611Y-22733102D01*
X9706611Y-22733102D02*
X9697087Y-22723578D01*
X10058992Y-23028340D02*
X10049468Y-23018817D01*
X10049468Y-23018817D02*
X10030420Y-22990245D01*
X10030420Y-22990245D02*
X10020897Y-22971198D01*
X10020897Y-22971198D02*
X10011373Y-22942626D01*
X10011373Y-22942626D02*
X10001849Y-22895007D01*
X10001849Y-22895007D02*
X10001849Y-22856912D01*
X10001849Y-22856912D02*
X10011373Y-22809293D01*
X10011373Y-22809293D02*
X10020897Y-22780721D01*
X10020897Y-22780721D02*
X10030420Y-22761674D01*
X10030420Y-22761674D02*
X10049468Y-22733102D01*
X10049468Y-22733102D02*
X10058992Y-22723578D01*
X10135182Y-22818817D02*
X10135182Y-22952150D01*
X10135182Y-22837864D02*
X10144706Y-22828340D01*
X10144706Y-22828340D02*
X10163754Y-22818817D01*
X10163754Y-22818817D02*
X10192325Y-22818817D01*
X10192325Y-22818817D02*
X10211373Y-22828340D01*
X10211373Y-22828340D02*
X10220897Y-22847388D01*
X10220897Y-22847388D02*
X10220897Y-22952150D01*
X10344706Y-22952150D02*
X10325658Y-22942626D01*
X10325658Y-22942626D02*
X10316135Y-22933102D01*
X10316135Y-22933102D02*
X10306611Y-22914055D01*
X10306611Y-22914055D02*
X10306611Y-22856912D01*
X10306611Y-22856912D02*
X10316135Y-22837864D01*
X10316135Y-22837864D02*
X10325658Y-22828340D01*
X10325658Y-22828340D02*
X10344706Y-22818817D01*
X10344706Y-22818817D02*
X10373278Y-22818817D01*
X10373278Y-22818817D02*
X10392325Y-22828340D01*
X10392325Y-22828340D02*
X10401849Y-22837864D01*
X10401849Y-22837864D02*
X10411373Y-22856912D01*
X10411373Y-22856912D02*
X10411373Y-22914055D01*
X10411373Y-22914055D02*
X10401849Y-22933102D01*
X10401849Y-22933102D02*
X10392325Y-22942626D01*
X10392325Y-22942626D02*
X10373278Y-22952150D01*
X10373278Y-22952150D02*
X10344706Y-22952150D01*
X10468516Y-22818817D02*
X10544706Y-22818817D01*
X10497087Y-22752150D02*
X10497087Y-22923578D01*
X10497087Y-22923578D02*
X10506611Y-22942626D01*
X10506611Y-22942626D02*
X10525658Y-22952150D01*
X10525658Y-22952150D02*
X10544706Y-22952150D01*
X10763754Y-22818817D02*
X10763754Y-23018817D01*
X10763754Y-22828340D02*
X10782801Y-22818817D01*
X10782801Y-22818817D02*
X10820897Y-22818817D01*
X10820897Y-22818817D02*
X10839944Y-22828340D01*
X10839944Y-22828340D02*
X10849468Y-22837864D01*
X10849468Y-22837864D02*
X10858992Y-22856912D01*
X10858992Y-22856912D02*
X10858992Y-22914055D01*
X10858992Y-22914055D02*
X10849468Y-22933102D01*
X10849468Y-22933102D02*
X10839944Y-22942626D01*
X10839944Y-22942626D02*
X10820897Y-22952150D01*
X10820897Y-22952150D02*
X10782801Y-22952150D01*
X10782801Y-22952150D02*
X10763754Y-22942626D01*
X10973278Y-22952150D02*
X10954230Y-22942626D01*
X10954230Y-22942626D02*
X10944706Y-22923578D01*
X10944706Y-22923578D02*
X10944706Y-22752150D01*
X11135182Y-22952150D02*
X11135182Y-22847388D01*
X11135182Y-22847388D02*
X11125659Y-22828340D01*
X11125659Y-22828340D02*
X11106611Y-22818817D01*
X11106611Y-22818817D02*
X11068516Y-22818817D01*
X11068516Y-22818817D02*
X11049468Y-22828340D01*
X11135182Y-22942626D02*
X11116135Y-22952150D01*
X11116135Y-22952150D02*
X11068516Y-22952150D01*
X11068516Y-22952150D02*
X11049468Y-22942626D01*
X11049468Y-22942626D02*
X11039944Y-22923578D01*
X11039944Y-22923578D02*
X11039944Y-22904531D01*
X11039944Y-22904531D02*
X11049468Y-22885483D01*
X11049468Y-22885483D02*
X11068516Y-22875959D01*
X11068516Y-22875959D02*
X11116135Y-22875959D01*
X11116135Y-22875959D02*
X11135182Y-22866436D01*
X11201849Y-22818817D02*
X11278039Y-22818817D01*
X11230420Y-22752150D02*
X11230420Y-22923578D01*
X11230420Y-22923578D02*
X11239944Y-22942626D01*
X11239944Y-22942626D02*
X11258992Y-22952150D01*
X11258992Y-22952150D02*
X11278039Y-22952150D01*
X11420897Y-22942626D02*
X11401849Y-22952150D01*
X11401849Y-22952150D02*
X11363754Y-22952150D01*
X11363754Y-22952150D02*
X11344706Y-22942626D01*
X11344706Y-22942626D02*
X11335182Y-22923578D01*
X11335182Y-22923578D02*
X11335182Y-22847388D01*
X11335182Y-22847388D02*
X11344706Y-22828340D01*
X11344706Y-22828340D02*
X11363754Y-22818817D01*
X11363754Y-22818817D02*
X11401849Y-22818817D01*
X11401849Y-22818817D02*
X11420897Y-22828340D01*
X11420897Y-22828340D02*
X11430420Y-22847388D01*
X11430420Y-22847388D02*
X11430420Y-22866436D01*
X11430420Y-22866436D02*
X11335182Y-22885483D01*
X11601849Y-22952150D02*
X11601849Y-22752150D01*
X11601849Y-22942626D02*
X11582801Y-22952150D01*
X11582801Y-22952150D02*
X11544706Y-22952150D01*
X11544706Y-22952150D02*
X11525658Y-22942626D01*
X11525658Y-22942626D02*
X11516135Y-22933102D01*
X11516135Y-22933102D02*
X11506611Y-22914055D01*
X11506611Y-22914055D02*
X11506611Y-22856912D01*
X11506611Y-22856912D02*
X11516135Y-22837864D01*
X11516135Y-22837864D02*
X11525658Y-22828340D01*
X11525658Y-22828340D02*
X11544706Y-22818817D01*
X11544706Y-22818817D02*
X11582801Y-22818817D01*
X11582801Y-22818817D02*
X11601849Y-22828340D01*
X11678039Y-23028340D02*
X11687563Y-23018817D01*
X11687563Y-23018817D02*
X11706611Y-22990245D01*
X11706611Y-22990245D02*
X11716135Y-22971198D01*
X11716135Y-22971198D02*
X11725658Y-22942626D01*
X11725658Y-22942626D02*
X11735182Y-22895007D01*
X11735182Y-22895007D02*
X11735182Y-22856912D01*
X11735182Y-22856912D02*
X11725658Y-22809293D01*
X11725658Y-22809293D02*
X11716135Y-22780721D01*
X11716135Y-22780721D02*
X11706611Y-22761674D01*
X11706611Y-22761674D02*
X11687563Y-22733102D01*
X11687563Y-22733102D02*
X11678039Y-22723578D01*
X3012500Y-23080666D02*
X3012500Y-23280666D01*
X2912500Y-23180666D02*
X3112500Y-23180666D01*
X3354229Y-23072150D02*
X3478039Y-23072150D01*
X3478039Y-23072150D02*
X3411372Y-23148340D01*
X3411372Y-23148340D02*
X3439943Y-23148340D01*
X3439943Y-23148340D02*
X3458991Y-23157864D01*
X3458991Y-23157864D02*
X3468515Y-23167388D01*
X3468515Y-23167388D02*
X3478039Y-23186436D01*
X3478039Y-23186436D02*
X3478039Y-23234055D01*
X3478039Y-23234055D02*
X3468515Y-23253102D01*
X3468515Y-23253102D02*
X3458991Y-23262626D01*
X3458991Y-23262626D02*
X3439943Y-23272150D01*
X3439943Y-23272150D02*
X3382801Y-23272150D01*
X3382801Y-23272150D02*
X3363753Y-23262626D01*
X3363753Y-23262626D02*
X3354229Y-23253102D01*
X3563753Y-23253102D02*
X3573277Y-23262626D01*
X3573277Y-23262626D02*
X3563753Y-23272150D01*
X3563753Y-23272150D02*
X3554229Y-23262626D01*
X3554229Y-23262626D02*
X3563753Y-23253102D01*
X3563753Y-23253102D02*
X3563753Y-23272150D01*
X3697086Y-23072150D02*
X3716134Y-23072150D01*
X3716134Y-23072150D02*
X3735182Y-23081674D01*
X3735182Y-23081674D02*
X3744705Y-23091198D01*
X3744705Y-23091198D02*
X3754229Y-23110245D01*
X3754229Y-23110245D02*
X3763753Y-23148340D01*
X3763753Y-23148340D02*
X3763753Y-23195959D01*
X3763753Y-23195959D02*
X3754229Y-23234055D01*
X3754229Y-23234055D02*
X3744705Y-23253102D01*
X3744705Y-23253102D02*
X3735182Y-23262626D01*
X3735182Y-23262626D02*
X3716134Y-23272150D01*
X3716134Y-23272150D02*
X3697086Y-23272150D01*
X3697086Y-23272150D02*
X3678039Y-23262626D01*
X3678039Y-23262626D02*
X3668515Y-23253102D01*
X3668515Y-23253102D02*
X3658991Y-23234055D01*
X3658991Y-23234055D02*
X3649467Y-23195959D01*
X3649467Y-23195959D02*
X3649467Y-23148340D01*
X3649467Y-23148340D02*
X3658991Y-23110245D01*
X3658991Y-23110245D02*
X3668515Y-23091198D01*
X3668515Y-23091198D02*
X3678039Y-23081674D01*
X3678039Y-23081674D02*
X3697086Y-23072150D01*
X3887562Y-23072150D02*
X3906610Y-23072150D01*
X3906610Y-23072150D02*
X3925658Y-23081674D01*
X3925658Y-23081674D02*
X3935182Y-23091198D01*
X3935182Y-23091198D02*
X3944705Y-23110245D01*
X3944705Y-23110245D02*
X3954229Y-23148340D01*
X3954229Y-23148340D02*
X3954229Y-23195959D01*
X3954229Y-23195959D02*
X3944705Y-23234055D01*
X3944705Y-23234055D02*
X3935182Y-23253102D01*
X3935182Y-23253102D02*
X3925658Y-23262626D01*
X3925658Y-23262626D02*
X3906610Y-23272150D01*
X3906610Y-23272150D02*
X3887562Y-23272150D01*
X3887562Y-23272150D02*
X3868515Y-23262626D01*
X3868515Y-23262626D02*
X3858991Y-23253102D01*
X3858991Y-23253102D02*
X3849467Y-23234055D01*
X3849467Y-23234055D02*
X3839943Y-23195959D01*
X3839943Y-23195959D02*
X3839943Y-23148340D01*
X3839943Y-23148340D02*
X3849467Y-23110245D01*
X3849467Y-23110245D02*
X3858991Y-23091198D01*
X3858991Y-23091198D02*
X3868515Y-23081674D01*
X3868515Y-23081674D02*
X3887562Y-23072150D01*
X4078039Y-23072150D02*
X4097086Y-23072150D01*
X4097086Y-23072150D02*
X4116134Y-23081674D01*
X4116134Y-23081674D02*
X4125658Y-23091198D01*
X4125658Y-23091198D02*
X4135182Y-23110245D01*
X4135182Y-23110245D02*
X4144705Y-23148340D01*
X4144705Y-23148340D02*
X4144705Y-23195959D01*
X4144705Y-23195959D02*
X4135182Y-23234055D01*
X4135182Y-23234055D02*
X4125658Y-23253102D01*
X4125658Y-23253102D02*
X4116134Y-23262626D01*
X4116134Y-23262626D02*
X4097086Y-23272150D01*
X4097086Y-23272150D02*
X4078039Y-23272150D01*
X4078039Y-23272150D02*
X4058991Y-23262626D01*
X4058991Y-23262626D02*
X4049467Y-23253102D01*
X4049467Y-23253102D02*
X4039943Y-23234055D01*
X4039943Y-23234055D02*
X4030420Y-23195959D01*
X4030420Y-23195959D02*
X4030420Y-23148340D01*
X4030420Y-23148340D02*
X4039943Y-23110245D01*
X4039943Y-23110245D02*
X4049467Y-23091198D01*
X4049467Y-23091198D02*
X4058991Y-23081674D01*
X4058991Y-23081674D02*
X4078039Y-23072150D01*
X4230420Y-23272150D02*
X4230420Y-23138817D01*
X4230420Y-23157864D02*
X4239944Y-23148340D01*
X4239944Y-23148340D02*
X4258991Y-23138817D01*
X4258991Y-23138817D02*
X4287563Y-23138817D01*
X4287563Y-23138817D02*
X4306610Y-23148340D01*
X4306610Y-23148340D02*
X4316134Y-23167388D01*
X4316134Y-23167388D02*
X4316134Y-23272150D01*
X4316134Y-23167388D02*
X4325658Y-23148340D01*
X4325658Y-23148340D02*
X4344705Y-23138817D01*
X4344705Y-23138817D02*
X4373277Y-23138817D01*
X4373277Y-23138817D02*
X4392325Y-23148340D01*
X4392325Y-23148340D02*
X4401848Y-23167388D01*
X4401848Y-23167388D02*
X4401848Y-23272150D01*
X4497086Y-23272150D02*
X4497086Y-23138817D01*
X4497086Y-23157864D02*
X4506610Y-23148340D01*
X4506610Y-23148340D02*
X4525658Y-23138817D01*
X4525658Y-23138817D02*
X4554229Y-23138817D01*
X4554229Y-23138817D02*
X4573277Y-23148340D01*
X4573277Y-23148340D02*
X4582801Y-23167388D01*
X4582801Y-23167388D02*
X4582801Y-23272150D01*
X4582801Y-23167388D02*
X4592325Y-23148340D01*
X4592325Y-23148340D02*
X4611372Y-23138817D01*
X4611372Y-23138817D02*
X4639944Y-23138817D01*
X4639944Y-23138817D02*
X4658991Y-23148340D01*
X4658991Y-23148340D02*
X4668515Y-23167388D01*
X4668515Y-23167388D02*
X4668515Y-23272150D01*
X5058991Y-23062626D02*
X4887563Y-23319769D01*
X5316134Y-23072150D02*
X5335182Y-23072150D01*
X5335182Y-23072150D02*
X5354229Y-23081674D01*
X5354229Y-23081674D02*
X5363753Y-23091198D01*
X5363753Y-23091198D02*
X5373277Y-23110245D01*
X5373277Y-23110245D02*
X5382801Y-23148340D01*
X5382801Y-23148340D02*
X5382801Y-23195959D01*
X5382801Y-23195959D02*
X5373277Y-23234055D01*
X5373277Y-23234055D02*
X5363753Y-23253102D01*
X5363753Y-23253102D02*
X5354229Y-23262626D01*
X5354229Y-23262626D02*
X5335182Y-23272150D01*
X5335182Y-23272150D02*
X5316134Y-23272150D01*
X5316134Y-23272150D02*
X5297087Y-23262626D01*
X5297087Y-23262626D02*
X5287563Y-23253102D01*
X5287563Y-23253102D02*
X5278039Y-23234055D01*
X5278039Y-23234055D02*
X5268515Y-23195959D01*
X5268515Y-23195959D02*
X5268515Y-23148340D01*
X5268515Y-23148340D02*
X5278039Y-23110245D01*
X5278039Y-23110245D02*
X5287563Y-23091198D01*
X5287563Y-23091198D02*
X5297087Y-23081674D01*
X5297087Y-23081674D02*
X5316134Y-23072150D01*
X5468515Y-23253102D02*
X5478039Y-23262626D01*
X5478039Y-23262626D02*
X5468515Y-23272150D01*
X5468515Y-23272150D02*
X5458991Y-23262626D01*
X5458991Y-23262626D02*
X5468515Y-23253102D01*
X5468515Y-23253102D02*
X5468515Y-23272150D01*
X5668515Y-23272150D02*
X5554229Y-23272150D01*
X5611372Y-23272150D02*
X5611372Y-23072150D01*
X5611372Y-23072150D02*
X5592325Y-23100721D01*
X5592325Y-23100721D02*
X5573277Y-23119769D01*
X5573277Y-23119769D02*
X5554229Y-23129293D01*
X5858991Y-23272150D02*
X5744706Y-23272150D01*
X5801848Y-23272150D02*
X5801848Y-23072150D01*
X5801848Y-23072150D02*
X5782801Y-23100721D01*
X5782801Y-23100721D02*
X5763753Y-23119769D01*
X5763753Y-23119769D02*
X5744706Y-23129293D01*
X5973277Y-23157864D02*
X5954229Y-23148340D01*
X5954229Y-23148340D02*
X5944706Y-23138817D01*
X5944706Y-23138817D02*
X5935182Y-23119769D01*
X5935182Y-23119769D02*
X5935182Y-23110245D01*
X5935182Y-23110245D02*
X5944706Y-23091198D01*
X5944706Y-23091198D02*
X5954229Y-23081674D01*
X5954229Y-23081674D02*
X5973277Y-23072150D01*
X5973277Y-23072150D02*
X6011372Y-23072150D01*
X6011372Y-23072150D02*
X6030420Y-23081674D01*
X6030420Y-23081674D02*
X6039944Y-23091198D01*
X6039944Y-23091198D02*
X6049467Y-23110245D01*
X6049467Y-23110245D02*
X6049467Y-23119769D01*
X6049467Y-23119769D02*
X6039944Y-23138817D01*
X6039944Y-23138817D02*
X6030420Y-23148340D01*
X6030420Y-23148340D02*
X6011372Y-23157864D01*
X6011372Y-23157864D02*
X5973277Y-23157864D01*
X5973277Y-23157864D02*
X5954229Y-23167388D01*
X5954229Y-23167388D02*
X5944706Y-23176912D01*
X5944706Y-23176912D02*
X5935182Y-23195959D01*
X5935182Y-23195959D02*
X5935182Y-23234055D01*
X5935182Y-23234055D02*
X5944706Y-23253102D01*
X5944706Y-23253102D02*
X5954229Y-23262626D01*
X5954229Y-23262626D02*
X5973277Y-23272150D01*
X5973277Y-23272150D02*
X6011372Y-23272150D01*
X6011372Y-23272150D02*
X6030420Y-23262626D01*
X6030420Y-23262626D02*
X6039944Y-23253102D01*
X6039944Y-23253102D02*
X6049467Y-23234055D01*
X6049467Y-23234055D02*
X6049467Y-23195959D01*
X6049467Y-23195959D02*
X6039944Y-23176912D01*
X6039944Y-23176912D02*
X6030420Y-23167388D01*
X6030420Y-23167388D02*
X6011372Y-23157864D01*
X6239944Y-23272150D02*
X6125658Y-23272150D01*
X6182801Y-23272150D02*
X6182801Y-23072150D01*
X6182801Y-23072150D02*
X6163753Y-23100721D01*
X6163753Y-23100721D02*
X6144706Y-23119769D01*
X6144706Y-23119769D02*
X6125658Y-23129293D01*
X6316134Y-23072150D02*
X6316134Y-23110245D01*
X6392325Y-23072150D02*
X6392325Y-23110245D01*
X6687563Y-23348340D02*
X6678039Y-23338817D01*
X6678039Y-23338817D02*
X6658991Y-23310245D01*
X6658991Y-23310245D02*
X6649468Y-23291198D01*
X6649468Y-23291198D02*
X6639944Y-23262626D01*
X6639944Y-23262626D02*
X6630420Y-23215007D01*
X6630420Y-23215007D02*
X6630420Y-23176912D01*
X6630420Y-23176912D02*
X6639944Y-23129293D01*
X6639944Y-23129293D02*
X6649468Y-23100721D01*
X6649468Y-23100721D02*
X6658991Y-23081674D01*
X6658991Y-23081674D02*
X6678039Y-23053102D01*
X6678039Y-23053102D02*
X6687563Y-23043578D01*
X6868515Y-23272150D02*
X6754229Y-23272150D01*
X6811372Y-23272150D02*
X6811372Y-23072150D01*
X6811372Y-23072150D02*
X6792325Y-23100721D01*
X6792325Y-23100721D02*
X6773277Y-23119769D01*
X6773277Y-23119769D02*
X6754229Y-23129293D01*
X7039944Y-23138817D02*
X7039944Y-23272150D01*
X6992325Y-23062626D02*
X6944706Y-23205483D01*
X6944706Y-23205483D02*
X7068515Y-23205483D01*
X7135182Y-23091198D02*
X7144706Y-23081674D01*
X7144706Y-23081674D02*
X7163753Y-23072150D01*
X7163753Y-23072150D02*
X7211372Y-23072150D01*
X7211372Y-23072150D02*
X7230420Y-23081674D01*
X7230420Y-23081674D02*
X7239944Y-23091198D01*
X7239944Y-23091198D02*
X7249468Y-23110245D01*
X7249468Y-23110245D02*
X7249468Y-23129293D01*
X7249468Y-23129293D02*
X7239944Y-23157864D01*
X7239944Y-23157864D02*
X7125658Y-23272150D01*
X7125658Y-23272150D02*
X7249468Y-23272150D01*
X7487563Y-23272150D02*
X7487563Y-23072150D01*
X7573277Y-23272150D02*
X7573277Y-23167388D01*
X7573277Y-23167388D02*
X7563753Y-23148340D01*
X7563753Y-23148340D02*
X7544706Y-23138817D01*
X7544706Y-23138817D02*
X7516134Y-23138817D01*
X7516134Y-23138817D02*
X7497087Y-23148340D01*
X7497087Y-23148340D02*
X7487563Y-23157864D01*
X7697087Y-23272150D02*
X7678039Y-23262626D01*
X7678039Y-23262626D02*
X7668515Y-23253102D01*
X7668515Y-23253102D02*
X7658991Y-23234055D01*
X7658991Y-23234055D02*
X7658991Y-23176912D01*
X7658991Y-23176912D02*
X7668515Y-23157864D01*
X7668515Y-23157864D02*
X7678039Y-23148340D01*
X7678039Y-23148340D02*
X7697087Y-23138817D01*
X7697087Y-23138817D02*
X7725658Y-23138817D01*
X7725658Y-23138817D02*
X7744706Y-23148340D01*
X7744706Y-23148340D02*
X7754230Y-23157864D01*
X7754230Y-23157864D02*
X7763753Y-23176912D01*
X7763753Y-23176912D02*
X7763753Y-23234055D01*
X7763753Y-23234055D02*
X7754230Y-23253102D01*
X7754230Y-23253102D02*
X7744706Y-23262626D01*
X7744706Y-23262626D02*
X7725658Y-23272150D01*
X7725658Y-23272150D02*
X7697087Y-23272150D01*
X7878039Y-23272150D02*
X7858991Y-23262626D01*
X7858991Y-23262626D02*
X7849468Y-23243578D01*
X7849468Y-23243578D02*
X7849468Y-23072150D01*
X8030420Y-23262626D02*
X8011372Y-23272150D01*
X8011372Y-23272150D02*
X7973277Y-23272150D01*
X7973277Y-23272150D02*
X7954230Y-23262626D01*
X7954230Y-23262626D02*
X7944706Y-23243578D01*
X7944706Y-23243578D02*
X7944706Y-23167388D01*
X7944706Y-23167388D02*
X7954230Y-23148340D01*
X7954230Y-23148340D02*
X7973277Y-23138817D01*
X7973277Y-23138817D02*
X8011372Y-23138817D01*
X8011372Y-23138817D02*
X8030420Y-23148340D01*
X8030420Y-23148340D02*
X8039944Y-23167388D01*
X8039944Y-23167388D02*
X8039944Y-23186436D01*
X8039944Y-23186436D02*
X7944706Y-23205483D01*
X8116134Y-23262626D02*
X8135182Y-23272150D01*
X8135182Y-23272150D02*
X8173277Y-23272150D01*
X8173277Y-23272150D02*
X8192325Y-23262626D01*
X8192325Y-23262626D02*
X8201849Y-23243578D01*
X8201849Y-23243578D02*
X8201849Y-23234055D01*
X8201849Y-23234055D02*
X8192325Y-23215007D01*
X8192325Y-23215007D02*
X8173277Y-23205483D01*
X8173277Y-23205483D02*
X8144706Y-23205483D01*
X8144706Y-23205483D02*
X8125658Y-23195959D01*
X8125658Y-23195959D02*
X8116134Y-23176912D01*
X8116134Y-23176912D02*
X8116134Y-23167388D01*
X8116134Y-23167388D02*
X8125658Y-23148340D01*
X8125658Y-23148340D02*
X8144706Y-23138817D01*
X8144706Y-23138817D02*
X8173277Y-23138817D01*
X8173277Y-23138817D02*
X8192325Y-23148340D01*
X8268515Y-23348340D02*
X8278039Y-23338817D01*
X8278039Y-23338817D02*
X8297087Y-23310245D01*
X8297087Y-23310245D02*
X8306611Y-23291198D01*
X8306611Y-23291198D02*
X8316134Y-23262626D01*
X8316134Y-23262626D02*
X8325658Y-23215007D01*
X8325658Y-23215007D02*
X8325658Y-23176912D01*
X8325658Y-23176912D02*
X8316134Y-23129293D01*
X8316134Y-23129293D02*
X8306611Y-23100721D01*
X8306611Y-23100721D02*
X8297087Y-23081674D01*
X8297087Y-23081674D02*
X8278039Y-23053102D01*
X8278039Y-23053102D02*
X8268515Y-23043578D01*
X8630420Y-23348340D02*
X8620896Y-23338817D01*
X8620896Y-23338817D02*
X8601849Y-23310245D01*
X8601849Y-23310245D02*
X8592325Y-23291198D01*
X8592325Y-23291198D02*
X8582801Y-23262626D01*
X8582801Y-23262626D02*
X8573277Y-23215007D01*
X8573277Y-23215007D02*
X8573277Y-23176912D01*
X8573277Y-23176912D02*
X8582801Y-23129293D01*
X8582801Y-23129293D02*
X8592325Y-23100721D01*
X8592325Y-23100721D02*
X8601849Y-23081674D01*
X8601849Y-23081674D02*
X8620896Y-23053102D01*
X8620896Y-23053102D02*
X8630420Y-23043578D01*
X8706611Y-23138817D02*
X8706611Y-23272150D01*
X8706611Y-23157864D02*
X8716134Y-23148340D01*
X8716134Y-23148340D02*
X8735182Y-23138817D01*
X8735182Y-23138817D02*
X8763754Y-23138817D01*
X8763754Y-23138817D02*
X8782801Y-23148340D01*
X8782801Y-23148340D02*
X8792325Y-23167388D01*
X8792325Y-23167388D02*
X8792325Y-23272150D01*
X8916134Y-23272150D02*
X8897087Y-23262626D01*
X8897087Y-23262626D02*
X8887563Y-23253102D01*
X8887563Y-23253102D02*
X8878039Y-23234055D01*
X8878039Y-23234055D02*
X8878039Y-23176912D01*
X8878039Y-23176912D02*
X8887563Y-23157864D01*
X8887563Y-23157864D02*
X8897087Y-23148340D01*
X8897087Y-23148340D02*
X8916134Y-23138817D01*
X8916134Y-23138817D02*
X8944706Y-23138817D01*
X8944706Y-23138817D02*
X8963754Y-23148340D01*
X8963754Y-23148340D02*
X8973277Y-23157864D01*
X8973277Y-23157864D02*
X8982801Y-23176912D01*
X8982801Y-23176912D02*
X8982801Y-23234055D01*
X8982801Y-23234055D02*
X8973277Y-23253102D01*
X8973277Y-23253102D02*
X8963754Y-23262626D01*
X8963754Y-23262626D02*
X8944706Y-23272150D01*
X8944706Y-23272150D02*
X8916134Y-23272150D01*
X9039944Y-23138817D02*
X9116134Y-23138817D01*
X9068515Y-23072150D02*
X9068515Y-23243578D01*
X9068515Y-23243578D02*
X9078039Y-23262626D01*
X9078039Y-23262626D02*
X9097087Y-23272150D01*
X9097087Y-23272150D02*
X9116134Y-23272150D01*
X9335182Y-23138817D02*
X9335182Y-23338817D01*
X9335182Y-23148340D02*
X9354230Y-23138817D01*
X9354230Y-23138817D02*
X9392325Y-23138817D01*
X9392325Y-23138817D02*
X9411373Y-23148340D01*
X9411373Y-23148340D02*
X9420896Y-23157864D01*
X9420896Y-23157864D02*
X9430420Y-23176912D01*
X9430420Y-23176912D02*
X9430420Y-23234055D01*
X9430420Y-23234055D02*
X9420896Y-23253102D01*
X9420896Y-23253102D02*
X9411373Y-23262626D01*
X9411373Y-23262626D02*
X9392325Y-23272150D01*
X9392325Y-23272150D02*
X9354230Y-23272150D01*
X9354230Y-23272150D02*
X9335182Y-23262626D01*
X9544706Y-23272150D02*
X9525658Y-23262626D01*
X9525658Y-23262626D02*
X9516135Y-23243578D01*
X9516135Y-23243578D02*
X9516135Y-23072150D01*
X9706611Y-23272150D02*
X9706611Y-23167388D01*
X9706611Y-23167388D02*
X9697087Y-23148340D01*
X9697087Y-23148340D02*
X9678039Y-23138817D01*
X9678039Y-23138817D02*
X9639944Y-23138817D01*
X9639944Y-23138817D02*
X9620896Y-23148340D01*
X9706611Y-23262626D02*
X9687563Y-23272150D01*
X9687563Y-23272150D02*
X9639944Y-23272150D01*
X9639944Y-23272150D02*
X9620896Y-23262626D01*
X9620896Y-23262626D02*
X9611373Y-23243578D01*
X9611373Y-23243578D02*
X9611373Y-23224531D01*
X9611373Y-23224531D02*
X9620896Y-23205483D01*
X9620896Y-23205483D02*
X9639944Y-23195959D01*
X9639944Y-23195959D02*
X9687563Y-23195959D01*
X9687563Y-23195959D02*
X9706611Y-23186436D01*
X9773277Y-23138817D02*
X9849468Y-23138817D01*
X9801849Y-23072150D02*
X9801849Y-23243578D01*
X9801849Y-23243578D02*
X9811373Y-23262626D01*
X9811373Y-23262626D02*
X9830420Y-23272150D01*
X9830420Y-23272150D02*
X9849468Y-23272150D01*
X9992325Y-23262626D02*
X9973277Y-23272150D01*
X9973277Y-23272150D02*
X9935182Y-23272150D01*
X9935182Y-23272150D02*
X9916135Y-23262626D01*
X9916135Y-23262626D02*
X9906611Y-23243578D01*
X9906611Y-23243578D02*
X9906611Y-23167388D01*
X9906611Y-23167388D02*
X9916135Y-23148340D01*
X9916135Y-23148340D02*
X9935182Y-23138817D01*
X9935182Y-23138817D02*
X9973277Y-23138817D01*
X9973277Y-23138817D02*
X9992325Y-23148340D01*
X9992325Y-23148340D02*
X10001849Y-23167388D01*
X10001849Y-23167388D02*
X10001849Y-23186436D01*
X10001849Y-23186436D02*
X9906611Y-23205483D01*
X10173277Y-23272150D02*
X10173277Y-23072150D01*
X10173277Y-23262626D02*
X10154230Y-23272150D01*
X10154230Y-23272150D02*
X10116135Y-23272150D01*
X10116135Y-23272150D02*
X10097087Y-23262626D01*
X10097087Y-23262626D02*
X10087563Y-23253102D01*
X10087563Y-23253102D02*
X10078039Y-23234055D01*
X10078039Y-23234055D02*
X10078039Y-23176912D01*
X10078039Y-23176912D02*
X10087563Y-23157864D01*
X10087563Y-23157864D02*
X10097087Y-23148340D01*
X10097087Y-23148340D02*
X10116135Y-23138817D01*
X10116135Y-23138817D02*
X10154230Y-23138817D01*
X10154230Y-23138817D02*
X10173277Y-23148340D01*
X10249468Y-23348340D02*
X10258992Y-23338817D01*
X10258992Y-23338817D02*
X10278039Y-23310245D01*
X10278039Y-23310245D02*
X10287563Y-23291198D01*
X10287563Y-23291198D02*
X10297087Y-23262626D01*
X10297087Y-23262626D02*
X10306611Y-23215007D01*
X10306611Y-23215007D02*
X10306611Y-23176912D01*
X10306611Y-23176912D02*
X10297087Y-23129293D01*
X10297087Y-23129293D02*
X10287563Y-23100721D01*
X10287563Y-23100721D02*
X10278039Y-23081674D01*
X10278039Y-23081674D02*
X10258992Y-23053102D01*
X10258992Y-23053102D02*
X10249468Y-23043578D01*
X3083211Y-23571378D02*
X3083211Y-23429955D01*
X2941789Y-23429955D01*
X2941789Y-23571378D01*
X3083211Y-23571378D01*
X3354229Y-23392150D02*
X3478039Y-23392150D01*
X3478039Y-23392150D02*
X3411372Y-23468340D01*
X3411372Y-23468340D02*
X3439943Y-23468340D01*
X3439943Y-23468340D02*
X3458991Y-23477864D01*
X3458991Y-23477864D02*
X3468515Y-23487388D01*
X3468515Y-23487388D02*
X3478039Y-23506436D01*
X3478039Y-23506436D02*
X3478039Y-23554055D01*
X3478039Y-23554055D02*
X3468515Y-23573102D01*
X3468515Y-23573102D02*
X3458991Y-23582626D01*
X3458991Y-23582626D02*
X3439943Y-23592150D01*
X3439943Y-23592150D02*
X3382801Y-23592150D01*
X3382801Y-23592150D02*
X3363753Y-23582626D01*
X3363753Y-23582626D02*
X3354229Y-23573102D01*
X3563753Y-23573102D02*
X3573277Y-23582626D01*
X3573277Y-23582626D02*
X3563753Y-23592150D01*
X3563753Y-23592150D02*
X3554229Y-23582626D01*
X3554229Y-23582626D02*
X3563753Y-23573102D01*
X3563753Y-23573102D02*
X3563753Y-23592150D01*
X3697086Y-23392150D02*
X3716134Y-23392150D01*
X3716134Y-23392150D02*
X3735182Y-23401674D01*
X3735182Y-23401674D02*
X3744705Y-23411198D01*
X3744705Y-23411198D02*
X3754229Y-23430245D01*
X3754229Y-23430245D02*
X3763753Y-23468340D01*
X3763753Y-23468340D02*
X3763753Y-23515959D01*
X3763753Y-23515959D02*
X3754229Y-23554055D01*
X3754229Y-23554055D02*
X3744705Y-23573102D01*
X3744705Y-23573102D02*
X3735182Y-23582626D01*
X3735182Y-23582626D02*
X3716134Y-23592150D01*
X3716134Y-23592150D02*
X3697086Y-23592150D01*
X3697086Y-23592150D02*
X3678039Y-23582626D01*
X3678039Y-23582626D02*
X3668515Y-23573102D01*
X3668515Y-23573102D02*
X3658991Y-23554055D01*
X3658991Y-23554055D02*
X3649467Y-23515959D01*
X3649467Y-23515959D02*
X3649467Y-23468340D01*
X3649467Y-23468340D02*
X3658991Y-23430245D01*
X3658991Y-23430245D02*
X3668515Y-23411198D01*
X3668515Y-23411198D02*
X3678039Y-23401674D01*
X3678039Y-23401674D02*
X3697086Y-23392150D01*
X3935182Y-23458817D02*
X3935182Y-23592150D01*
X3887562Y-23382626D02*
X3839943Y-23525483D01*
X3839943Y-23525483D02*
X3963753Y-23525483D01*
X4068515Y-23477864D02*
X4049467Y-23468340D01*
X4049467Y-23468340D02*
X4039943Y-23458817D01*
X4039943Y-23458817D02*
X4030420Y-23439769D01*
X4030420Y-23439769D02*
X4030420Y-23430245D01*
X4030420Y-23430245D02*
X4039943Y-23411198D01*
X4039943Y-23411198D02*
X4049467Y-23401674D01*
X4049467Y-23401674D02*
X4068515Y-23392150D01*
X4068515Y-23392150D02*
X4106610Y-23392150D01*
X4106610Y-23392150D02*
X4125658Y-23401674D01*
X4125658Y-23401674D02*
X4135182Y-23411198D01*
X4135182Y-23411198D02*
X4144705Y-23430245D01*
X4144705Y-23430245D02*
X4144705Y-23439769D01*
X4144705Y-23439769D02*
X4135182Y-23458817D01*
X4135182Y-23458817D02*
X4125658Y-23468340D01*
X4125658Y-23468340D02*
X4106610Y-23477864D01*
X4106610Y-23477864D02*
X4068515Y-23477864D01*
X4068515Y-23477864D02*
X4049467Y-23487388D01*
X4049467Y-23487388D02*
X4039943Y-23496912D01*
X4039943Y-23496912D02*
X4030420Y-23515959D01*
X4030420Y-23515959D02*
X4030420Y-23554055D01*
X4030420Y-23554055D02*
X4039943Y-23573102D01*
X4039943Y-23573102D02*
X4049467Y-23582626D01*
X4049467Y-23582626D02*
X4068515Y-23592150D01*
X4068515Y-23592150D02*
X4106610Y-23592150D01*
X4106610Y-23592150D02*
X4125658Y-23582626D01*
X4125658Y-23582626D02*
X4135182Y-23573102D01*
X4135182Y-23573102D02*
X4144705Y-23554055D01*
X4144705Y-23554055D02*
X4144705Y-23515959D01*
X4144705Y-23515959D02*
X4135182Y-23496912D01*
X4135182Y-23496912D02*
X4125658Y-23487388D01*
X4125658Y-23487388D02*
X4106610Y-23477864D01*
X4230420Y-23592150D02*
X4230420Y-23458817D01*
X4230420Y-23477864D02*
X4239944Y-23468340D01*
X4239944Y-23468340D02*
X4258991Y-23458817D01*
X4258991Y-23458817D02*
X4287563Y-23458817D01*
X4287563Y-23458817D02*
X4306610Y-23468340D01*
X4306610Y-23468340D02*
X4316134Y-23487388D01*
X4316134Y-23487388D02*
X4316134Y-23592150D01*
X4316134Y-23487388D02*
X4325658Y-23468340D01*
X4325658Y-23468340D02*
X4344705Y-23458817D01*
X4344705Y-23458817D02*
X4373277Y-23458817D01*
X4373277Y-23458817D02*
X4392325Y-23468340D01*
X4392325Y-23468340D02*
X4401848Y-23487388D01*
X4401848Y-23487388D02*
X4401848Y-23592150D01*
X4497086Y-23592150D02*
X4497086Y-23458817D01*
X4497086Y-23477864D02*
X4506610Y-23468340D01*
X4506610Y-23468340D02*
X4525658Y-23458817D01*
X4525658Y-23458817D02*
X4554229Y-23458817D01*
X4554229Y-23458817D02*
X4573277Y-23468340D01*
X4573277Y-23468340D02*
X4582801Y-23487388D01*
X4582801Y-23487388D02*
X4582801Y-23592150D01*
X4582801Y-23487388D02*
X4592325Y-23468340D01*
X4592325Y-23468340D02*
X4611372Y-23458817D01*
X4611372Y-23458817D02*
X4639944Y-23458817D01*
X4639944Y-23458817D02*
X4658991Y-23468340D01*
X4658991Y-23468340D02*
X4668515Y-23487388D01*
X4668515Y-23487388D02*
X4668515Y-23592150D01*
X5058991Y-23382626D02*
X4887563Y-23639769D01*
X5316134Y-23392150D02*
X5335182Y-23392150D01*
X5335182Y-23392150D02*
X5354229Y-23401674D01*
X5354229Y-23401674D02*
X5363753Y-23411198D01*
X5363753Y-23411198D02*
X5373277Y-23430245D01*
X5373277Y-23430245D02*
X5382801Y-23468340D01*
X5382801Y-23468340D02*
X5382801Y-23515959D01*
X5382801Y-23515959D02*
X5373277Y-23554055D01*
X5373277Y-23554055D02*
X5363753Y-23573102D01*
X5363753Y-23573102D02*
X5354229Y-23582626D01*
X5354229Y-23582626D02*
X5335182Y-23592150D01*
X5335182Y-23592150D02*
X5316134Y-23592150D01*
X5316134Y-23592150D02*
X5297087Y-23582626D01*
X5297087Y-23582626D02*
X5287563Y-23573102D01*
X5287563Y-23573102D02*
X5278039Y-23554055D01*
X5278039Y-23554055D02*
X5268515Y-23515959D01*
X5268515Y-23515959D02*
X5268515Y-23468340D01*
X5268515Y-23468340D02*
X5278039Y-23430245D01*
X5278039Y-23430245D02*
X5287563Y-23411198D01*
X5287563Y-23411198D02*
X5297087Y-23401674D01*
X5297087Y-23401674D02*
X5316134Y-23392150D01*
X5468515Y-23573102D02*
X5478039Y-23582626D01*
X5478039Y-23582626D02*
X5468515Y-23592150D01*
X5468515Y-23592150D02*
X5458991Y-23582626D01*
X5458991Y-23582626D02*
X5468515Y-23573102D01*
X5468515Y-23573102D02*
X5468515Y-23592150D01*
X5668515Y-23592150D02*
X5554229Y-23592150D01*
X5611372Y-23592150D02*
X5611372Y-23392150D01*
X5611372Y-23392150D02*
X5592325Y-23420721D01*
X5592325Y-23420721D02*
X5573277Y-23439769D01*
X5573277Y-23439769D02*
X5554229Y-23449293D01*
X5744706Y-23411198D02*
X5754229Y-23401674D01*
X5754229Y-23401674D02*
X5773277Y-23392150D01*
X5773277Y-23392150D02*
X5820896Y-23392150D01*
X5820896Y-23392150D02*
X5839944Y-23401674D01*
X5839944Y-23401674D02*
X5849467Y-23411198D01*
X5849467Y-23411198D02*
X5858991Y-23430245D01*
X5858991Y-23430245D02*
X5858991Y-23449293D01*
X5858991Y-23449293D02*
X5849467Y-23477864D01*
X5849467Y-23477864D02*
X5735182Y-23592150D01*
X5735182Y-23592150D02*
X5858991Y-23592150D01*
X5982801Y-23392150D02*
X6001848Y-23392150D01*
X6001848Y-23392150D02*
X6020896Y-23401674D01*
X6020896Y-23401674D02*
X6030420Y-23411198D01*
X6030420Y-23411198D02*
X6039944Y-23430245D01*
X6039944Y-23430245D02*
X6049467Y-23468340D01*
X6049467Y-23468340D02*
X6049467Y-23515959D01*
X6049467Y-23515959D02*
X6039944Y-23554055D01*
X6039944Y-23554055D02*
X6030420Y-23573102D01*
X6030420Y-23573102D02*
X6020896Y-23582626D01*
X6020896Y-23582626D02*
X6001848Y-23592150D01*
X6001848Y-23592150D02*
X5982801Y-23592150D01*
X5982801Y-23592150D02*
X5963753Y-23582626D01*
X5963753Y-23582626D02*
X5954229Y-23573102D01*
X5954229Y-23573102D02*
X5944706Y-23554055D01*
X5944706Y-23554055D02*
X5935182Y-23515959D01*
X5935182Y-23515959D02*
X5935182Y-23468340D01*
X5935182Y-23468340D02*
X5944706Y-23430245D01*
X5944706Y-23430245D02*
X5954229Y-23411198D01*
X5954229Y-23411198D02*
X5963753Y-23401674D01*
X5963753Y-23401674D02*
X5982801Y-23392150D01*
X6173277Y-23392150D02*
X6192325Y-23392150D01*
X6192325Y-23392150D02*
X6211372Y-23401674D01*
X6211372Y-23401674D02*
X6220896Y-23411198D01*
X6220896Y-23411198D02*
X6230420Y-23430245D01*
X6230420Y-23430245D02*
X6239944Y-23468340D01*
X6239944Y-23468340D02*
X6239944Y-23515959D01*
X6239944Y-23515959D02*
X6230420Y-23554055D01*
X6230420Y-23554055D02*
X6220896Y-23573102D01*
X6220896Y-23573102D02*
X6211372Y-23582626D01*
X6211372Y-23582626D02*
X6192325Y-23592150D01*
X6192325Y-23592150D02*
X6173277Y-23592150D01*
X6173277Y-23592150D02*
X6154229Y-23582626D01*
X6154229Y-23582626D02*
X6144706Y-23573102D01*
X6144706Y-23573102D02*
X6135182Y-23554055D01*
X6135182Y-23554055D02*
X6125658Y-23515959D01*
X6125658Y-23515959D02*
X6125658Y-23468340D01*
X6125658Y-23468340D02*
X6135182Y-23430245D01*
X6135182Y-23430245D02*
X6144706Y-23411198D01*
X6144706Y-23411198D02*
X6154229Y-23401674D01*
X6154229Y-23401674D02*
X6173277Y-23392150D01*
X6316134Y-23392150D02*
X6316134Y-23430245D01*
X6392325Y-23392150D02*
X6392325Y-23430245D01*
X6687563Y-23668340D02*
X6678039Y-23658817D01*
X6678039Y-23658817D02*
X6658991Y-23630245D01*
X6658991Y-23630245D02*
X6649468Y-23611198D01*
X6649468Y-23611198D02*
X6639944Y-23582626D01*
X6639944Y-23582626D02*
X6630420Y-23535007D01*
X6630420Y-23535007D02*
X6630420Y-23496912D01*
X6630420Y-23496912D02*
X6639944Y-23449293D01*
X6639944Y-23449293D02*
X6649468Y-23420721D01*
X6649468Y-23420721D02*
X6658991Y-23401674D01*
X6658991Y-23401674D02*
X6678039Y-23373102D01*
X6678039Y-23373102D02*
X6687563Y-23363578D01*
X6792325Y-23477864D02*
X6773277Y-23468340D01*
X6773277Y-23468340D02*
X6763753Y-23458817D01*
X6763753Y-23458817D02*
X6754229Y-23439769D01*
X6754229Y-23439769D02*
X6754229Y-23430245D01*
X6754229Y-23430245D02*
X6763753Y-23411198D01*
X6763753Y-23411198D02*
X6773277Y-23401674D01*
X6773277Y-23401674D02*
X6792325Y-23392150D01*
X6792325Y-23392150D02*
X6830420Y-23392150D01*
X6830420Y-23392150D02*
X6849468Y-23401674D01*
X6849468Y-23401674D02*
X6858991Y-23411198D01*
X6858991Y-23411198D02*
X6868515Y-23430245D01*
X6868515Y-23430245D02*
X6868515Y-23439769D01*
X6868515Y-23439769D02*
X6858991Y-23458817D01*
X6858991Y-23458817D02*
X6849468Y-23468340D01*
X6849468Y-23468340D02*
X6830420Y-23477864D01*
X6830420Y-23477864D02*
X6792325Y-23477864D01*
X6792325Y-23477864D02*
X6773277Y-23487388D01*
X6773277Y-23487388D02*
X6763753Y-23496912D01*
X6763753Y-23496912D02*
X6754229Y-23515959D01*
X6754229Y-23515959D02*
X6754229Y-23554055D01*
X6754229Y-23554055D02*
X6763753Y-23573102D01*
X6763753Y-23573102D02*
X6773277Y-23582626D01*
X6773277Y-23582626D02*
X6792325Y-23592150D01*
X6792325Y-23592150D02*
X6830420Y-23592150D01*
X6830420Y-23592150D02*
X6849468Y-23582626D01*
X6849468Y-23582626D02*
X6858991Y-23573102D01*
X6858991Y-23573102D02*
X6868515Y-23554055D01*
X6868515Y-23554055D02*
X6868515Y-23515959D01*
X6868515Y-23515959D02*
X6858991Y-23496912D01*
X6858991Y-23496912D02*
X6849468Y-23487388D01*
X6849468Y-23487388D02*
X6830420Y-23477864D01*
X7106610Y-23592150D02*
X7106610Y-23392150D01*
X7192325Y-23592150D02*
X7192325Y-23487388D01*
X7192325Y-23487388D02*
X7182801Y-23468340D01*
X7182801Y-23468340D02*
X7163753Y-23458817D01*
X7163753Y-23458817D02*
X7135182Y-23458817D01*
X7135182Y-23458817D02*
X7116134Y-23468340D01*
X7116134Y-23468340D02*
X7106610Y-23477864D01*
X7316134Y-23592150D02*
X7297087Y-23582626D01*
X7297087Y-23582626D02*
X7287563Y-23573102D01*
X7287563Y-23573102D02*
X7278039Y-23554055D01*
X7278039Y-23554055D02*
X7278039Y-23496912D01*
X7278039Y-23496912D02*
X7287563Y-23477864D01*
X7287563Y-23477864D02*
X7297087Y-23468340D01*
X7297087Y-23468340D02*
X7316134Y-23458817D01*
X7316134Y-23458817D02*
X7344706Y-23458817D01*
X7344706Y-23458817D02*
X7363753Y-23468340D01*
X7363753Y-23468340D02*
X7373277Y-23477864D01*
X7373277Y-23477864D02*
X7382801Y-23496912D01*
X7382801Y-23496912D02*
X7382801Y-23554055D01*
X7382801Y-23554055D02*
X7373277Y-23573102D01*
X7373277Y-23573102D02*
X7363753Y-23582626D01*
X7363753Y-23582626D02*
X7344706Y-23592150D01*
X7344706Y-23592150D02*
X7316134Y-23592150D01*
X7497087Y-23592150D02*
X7478039Y-23582626D01*
X7478039Y-23582626D02*
X7468515Y-23563578D01*
X7468515Y-23563578D02*
X7468515Y-23392150D01*
X7649468Y-23582626D02*
X7630420Y-23592150D01*
X7630420Y-23592150D02*
X7592325Y-23592150D01*
X7592325Y-23592150D02*
X7573277Y-23582626D01*
X7573277Y-23582626D02*
X7563753Y-23563578D01*
X7563753Y-23563578D02*
X7563753Y-23487388D01*
X7563753Y-23487388D02*
X7573277Y-23468340D01*
X7573277Y-23468340D02*
X7592325Y-23458817D01*
X7592325Y-23458817D02*
X7630420Y-23458817D01*
X7630420Y-23458817D02*
X7649468Y-23468340D01*
X7649468Y-23468340D02*
X7658991Y-23487388D01*
X7658991Y-23487388D02*
X7658991Y-23506436D01*
X7658991Y-23506436D02*
X7563753Y-23525483D01*
X7735182Y-23582626D02*
X7754230Y-23592150D01*
X7754230Y-23592150D02*
X7792325Y-23592150D01*
X7792325Y-23592150D02*
X7811372Y-23582626D01*
X7811372Y-23582626D02*
X7820896Y-23563578D01*
X7820896Y-23563578D02*
X7820896Y-23554055D01*
X7820896Y-23554055D02*
X7811372Y-23535007D01*
X7811372Y-23535007D02*
X7792325Y-23525483D01*
X7792325Y-23525483D02*
X7763753Y-23525483D01*
X7763753Y-23525483D02*
X7744706Y-23515959D01*
X7744706Y-23515959D02*
X7735182Y-23496912D01*
X7735182Y-23496912D02*
X7735182Y-23487388D01*
X7735182Y-23487388D02*
X7744706Y-23468340D01*
X7744706Y-23468340D02*
X7763753Y-23458817D01*
X7763753Y-23458817D02*
X7792325Y-23458817D01*
X7792325Y-23458817D02*
X7811372Y-23468340D01*
X7887563Y-23668340D02*
X7897087Y-23658817D01*
X7897087Y-23658817D02*
X7916134Y-23630245D01*
X7916134Y-23630245D02*
X7925658Y-23611198D01*
X7925658Y-23611198D02*
X7935182Y-23582626D01*
X7935182Y-23582626D02*
X7944706Y-23535007D01*
X7944706Y-23535007D02*
X7944706Y-23496912D01*
X7944706Y-23496912D02*
X7935182Y-23449293D01*
X7935182Y-23449293D02*
X7925658Y-23420721D01*
X7925658Y-23420721D02*
X7916134Y-23401674D01*
X7916134Y-23401674D02*
X7897087Y-23373102D01*
X7897087Y-23373102D02*
X7887563Y-23363578D01*
X8249468Y-23668340D02*
X8239944Y-23658817D01*
X8239944Y-23658817D02*
X8220896Y-23630245D01*
X8220896Y-23630245D02*
X8211372Y-23611198D01*
X8211372Y-23611198D02*
X8201849Y-23582626D01*
X8201849Y-23582626D02*
X8192325Y-23535007D01*
X8192325Y-23535007D02*
X8192325Y-23496912D01*
X8192325Y-23496912D02*
X8201849Y-23449293D01*
X8201849Y-23449293D02*
X8211372Y-23420721D01*
X8211372Y-23420721D02*
X8220896Y-23401674D01*
X8220896Y-23401674D02*
X8239944Y-23373102D01*
X8239944Y-23373102D02*
X8249468Y-23363578D01*
X8325658Y-23458817D02*
X8325658Y-23592150D01*
X8325658Y-23477864D02*
X8335182Y-23468340D01*
X8335182Y-23468340D02*
X8354230Y-23458817D01*
X8354230Y-23458817D02*
X8382801Y-23458817D01*
X8382801Y-23458817D02*
X8401849Y-23468340D01*
X8401849Y-23468340D02*
X8411373Y-23487388D01*
X8411373Y-23487388D02*
X8411373Y-23592150D01*
X8535182Y-23592150D02*
X8516134Y-23582626D01*
X8516134Y-23582626D02*
X8506611Y-23573102D01*
X8506611Y-23573102D02*
X8497087Y-23554055D01*
X8497087Y-23554055D02*
X8497087Y-23496912D01*
X8497087Y-23496912D02*
X8506611Y-23477864D01*
X8506611Y-23477864D02*
X8516134Y-23468340D01*
X8516134Y-23468340D02*
X8535182Y-23458817D01*
X8535182Y-23458817D02*
X8563754Y-23458817D01*
X8563754Y-23458817D02*
X8582801Y-23468340D01*
X8582801Y-23468340D02*
X8592325Y-23477864D01*
X8592325Y-23477864D02*
X8601849Y-23496912D01*
X8601849Y-23496912D02*
X8601849Y-23554055D01*
X8601849Y-23554055D02*
X8592325Y-23573102D01*
X8592325Y-23573102D02*
X8582801Y-23582626D01*
X8582801Y-23582626D02*
X8563754Y-23592150D01*
X8563754Y-23592150D02*
X8535182Y-23592150D01*
X8658992Y-23458817D02*
X8735182Y-23458817D01*
X8687563Y-23392150D02*
X8687563Y-23563578D01*
X8687563Y-23563578D02*
X8697087Y-23582626D01*
X8697087Y-23582626D02*
X8716134Y-23592150D01*
X8716134Y-23592150D02*
X8735182Y-23592150D01*
X8954230Y-23458817D02*
X8954230Y-23658817D01*
X8954230Y-23468340D02*
X8973277Y-23458817D01*
X8973277Y-23458817D02*
X9011373Y-23458817D01*
X9011373Y-23458817D02*
X9030420Y-23468340D01*
X9030420Y-23468340D02*
X9039944Y-23477864D01*
X9039944Y-23477864D02*
X9049468Y-23496912D01*
X9049468Y-23496912D02*
X9049468Y-23554055D01*
X9049468Y-23554055D02*
X9039944Y-23573102D01*
X9039944Y-23573102D02*
X9030420Y-23582626D01*
X9030420Y-23582626D02*
X9011373Y-23592150D01*
X9011373Y-23592150D02*
X8973277Y-23592150D01*
X8973277Y-23592150D02*
X8954230Y-23582626D01*
X9163754Y-23592150D02*
X9144706Y-23582626D01*
X9144706Y-23582626D02*
X9135182Y-23563578D01*
X9135182Y-23563578D02*
X9135182Y-23392150D01*
X9325658Y-23592150D02*
X9325658Y-23487388D01*
X9325658Y-23487388D02*
X9316135Y-23468340D01*
X9316135Y-23468340D02*
X9297087Y-23458817D01*
X9297087Y-23458817D02*
X9258992Y-23458817D01*
X9258992Y-23458817D02*
X9239944Y-23468340D01*
X9325658Y-23582626D02*
X9306611Y-23592150D01*
X9306611Y-23592150D02*
X9258992Y-23592150D01*
X9258992Y-23592150D02*
X9239944Y-23582626D01*
X9239944Y-23582626D02*
X9230420Y-23563578D01*
X9230420Y-23563578D02*
X9230420Y-23544531D01*
X9230420Y-23544531D02*
X9239944Y-23525483D01*
X9239944Y-23525483D02*
X9258992Y-23515959D01*
X9258992Y-23515959D02*
X9306611Y-23515959D01*
X9306611Y-23515959D02*
X9325658Y-23506436D01*
X9392325Y-23458817D02*
X9468515Y-23458817D01*
X9420896Y-23392150D02*
X9420896Y-23563578D01*
X9420896Y-23563578D02*
X9430420Y-23582626D01*
X9430420Y-23582626D02*
X9449468Y-23592150D01*
X9449468Y-23592150D02*
X9468515Y-23592150D01*
X9611373Y-23582626D02*
X9592325Y-23592150D01*
X9592325Y-23592150D02*
X9554230Y-23592150D01*
X9554230Y-23592150D02*
X9535182Y-23582626D01*
X9535182Y-23582626D02*
X9525658Y-23563578D01*
X9525658Y-23563578D02*
X9525658Y-23487388D01*
X9525658Y-23487388D02*
X9535182Y-23468340D01*
X9535182Y-23468340D02*
X9554230Y-23458817D01*
X9554230Y-23458817D02*
X9592325Y-23458817D01*
X9592325Y-23458817D02*
X9611373Y-23468340D01*
X9611373Y-23468340D02*
X9620896Y-23487388D01*
X9620896Y-23487388D02*
X9620896Y-23506436D01*
X9620896Y-23506436D02*
X9525658Y-23525483D01*
X9792325Y-23592150D02*
X9792325Y-23392150D01*
X9792325Y-23582626D02*
X9773277Y-23592150D01*
X9773277Y-23592150D02*
X9735182Y-23592150D01*
X9735182Y-23592150D02*
X9716135Y-23582626D01*
X9716135Y-23582626D02*
X9706611Y-23573102D01*
X9706611Y-23573102D02*
X9697087Y-23554055D01*
X9697087Y-23554055D02*
X9697087Y-23496912D01*
X9697087Y-23496912D02*
X9706611Y-23477864D01*
X9706611Y-23477864D02*
X9716135Y-23468340D01*
X9716135Y-23468340D02*
X9735182Y-23458817D01*
X9735182Y-23458817D02*
X9773277Y-23458817D01*
X9773277Y-23458817D02*
X9792325Y-23468340D01*
X9868516Y-23668340D02*
X9878039Y-23658817D01*
X9878039Y-23658817D02*
X9897087Y-23630245D01*
X9897087Y-23630245D02*
X9906611Y-23611198D01*
X9906611Y-23611198D02*
X9916135Y-23582626D01*
X9916135Y-23582626D02*
X9925658Y-23535007D01*
X9925658Y-23535007D02*
X9925658Y-23496912D01*
X9925658Y-23496912D02*
X9916135Y-23449293D01*
X9916135Y-23449293D02*
X9906611Y-23420721D01*
X9906611Y-23420721D02*
X9897087Y-23401674D01*
X9897087Y-23401674D02*
X9878039Y-23373102D01*
X9878039Y-23373102D02*
X9868516Y-23363578D01*
X3012500Y-23920666D02*
X3112500Y-23820666D01*
X3012500Y-23720666D01*
X2912500Y-23820666D01*
X3012500Y-23920666D01*
X3354229Y-23712150D02*
X3478039Y-23712150D01*
X3478039Y-23712150D02*
X3411372Y-23788340D01*
X3411372Y-23788340D02*
X3439943Y-23788340D01*
X3439943Y-23788340D02*
X3458991Y-23797864D01*
X3458991Y-23797864D02*
X3468515Y-23807388D01*
X3468515Y-23807388D02*
X3478039Y-23826436D01*
X3478039Y-23826436D02*
X3478039Y-23874055D01*
X3478039Y-23874055D02*
X3468515Y-23893102D01*
X3468515Y-23893102D02*
X3458991Y-23902626D01*
X3458991Y-23902626D02*
X3439943Y-23912150D01*
X3439943Y-23912150D02*
X3382801Y-23912150D01*
X3382801Y-23912150D02*
X3363753Y-23902626D01*
X3363753Y-23902626D02*
X3354229Y-23893102D01*
X3563753Y-23893102D02*
X3573277Y-23902626D01*
X3573277Y-23902626D02*
X3563753Y-23912150D01*
X3563753Y-23912150D02*
X3554229Y-23902626D01*
X3554229Y-23902626D02*
X3563753Y-23893102D01*
X3563753Y-23893102D02*
X3563753Y-23912150D01*
X3668515Y-23912150D02*
X3706610Y-23912150D01*
X3706610Y-23912150D02*
X3725658Y-23902626D01*
X3725658Y-23902626D02*
X3735182Y-23893102D01*
X3735182Y-23893102D02*
X3754229Y-23864531D01*
X3754229Y-23864531D02*
X3763753Y-23826436D01*
X3763753Y-23826436D02*
X3763753Y-23750245D01*
X3763753Y-23750245D02*
X3754229Y-23731198D01*
X3754229Y-23731198D02*
X3744705Y-23721674D01*
X3744705Y-23721674D02*
X3725658Y-23712150D01*
X3725658Y-23712150D02*
X3687562Y-23712150D01*
X3687562Y-23712150D02*
X3668515Y-23721674D01*
X3668515Y-23721674D02*
X3658991Y-23731198D01*
X3658991Y-23731198D02*
X3649467Y-23750245D01*
X3649467Y-23750245D02*
X3649467Y-23797864D01*
X3649467Y-23797864D02*
X3658991Y-23816912D01*
X3658991Y-23816912D02*
X3668515Y-23826436D01*
X3668515Y-23826436D02*
X3687562Y-23835959D01*
X3687562Y-23835959D02*
X3725658Y-23835959D01*
X3725658Y-23835959D02*
X3744705Y-23826436D01*
X3744705Y-23826436D02*
X3754229Y-23816912D01*
X3754229Y-23816912D02*
X3763753Y-23797864D01*
X3878039Y-23797864D02*
X3858991Y-23788340D01*
X3858991Y-23788340D02*
X3849467Y-23778817D01*
X3849467Y-23778817D02*
X3839943Y-23759769D01*
X3839943Y-23759769D02*
X3839943Y-23750245D01*
X3839943Y-23750245D02*
X3849467Y-23731198D01*
X3849467Y-23731198D02*
X3858991Y-23721674D01*
X3858991Y-23721674D02*
X3878039Y-23712150D01*
X3878039Y-23712150D02*
X3916134Y-23712150D01*
X3916134Y-23712150D02*
X3935182Y-23721674D01*
X3935182Y-23721674D02*
X3944705Y-23731198D01*
X3944705Y-23731198D02*
X3954229Y-23750245D01*
X3954229Y-23750245D02*
X3954229Y-23759769D01*
X3954229Y-23759769D02*
X3944705Y-23778817D01*
X3944705Y-23778817D02*
X3935182Y-23788340D01*
X3935182Y-23788340D02*
X3916134Y-23797864D01*
X3916134Y-23797864D02*
X3878039Y-23797864D01*
X3878039Y-23797864D02*
X3858991Y-23807388D01*
X3858991Y-23807388D02*
X3849467Y-23816912D01*
X3849467Y-23816912D02*
X3839943Y-23835959D01*
X3839943Y-23835959D02*
X3839943Y-23874055D01*
X3839943Y-23874055D02*
X3849467Y-23893102D01*
X3849467Y-23893102D02*
X3858991Y-23902626D01*
X3858991Y-23902626D02*
X3878039Y-23912150D01*
X3878039Y-23912150D02*
X3916134Y-23912150D01*
X3916134Y-23912150D02*
X3935182Y-23902626D01*
X3935182Y-23902626D02*
X3944705Y-23893102D01*
X3944705Y-23893102D02*
X3954229Y-23874055D01*
X3954229Y-23874055D02*
X3954229Y-23835959D01*
X3954229Y-23835959D02*
X3944705Y-23816912D01*
X3944705Y-23816912D02*
X3935182Y-23807388D01*
X3935182Y-23807388D02*
X3916134Y-23797864D01*
X4068515Y-23797864D02*
X4049467Y-23788340D01*
X4049467Y-23788340D02*
X4039943Y-23778817D01*
X4039943Y-23778817D02*
X4030420Y-23759769D01*
X4030420Y-23759769D02*
X4030420Y-23750245D01*
X4030420Y-23750245D02*
X4039943Y-23731198D01*
X4039943Y-23731198D02*
X4049467Y-23721674D01*
X4049467Y-23721674D02*
X4068515Y-23712150D01*
X4068515Y-23712150D02*
X4106610Y-23712150D01*
X4106610Y-23712150D02*
X4125658Y-23721674D01*
X4125658Y-23721674D02*
X4135182Y-23731198D01*
X4135182Y-23731198D02*
X4144705Y-23750245D01*
X4144705Y-23750245D02*
X4144705Y-23759769D01*
X4144705Y-23759769D02*
X4135182Y-23778817D01*
X4135182Y-23778817D02*
X4125658Y-23788340D01*
X4125658Y-23788340D02*
X4106610Y-23797864D01*
X4106610Y-23797864D02*
X4068515Y-23797864D01*
X4068515Y-23797864D02*
X4049467Y-23807388D01*
X4049467Y-23807388D02*
X4039943Y-23816912D01*
X4039943Y-23816912D02*
X4030420Y-23835959D01*
X4030420Y-23835959D02*
X4030420Y-23874055D01*
X4030420Y-23874055D02*
X4039943Y-23893102D01*
X4039943Y-23893102D02*
X4049467Y-23902626D01*
X4049467Y-23902626D02*
X4068515Y-23912150D01*
X4068515Y-23912150D02*
X4106610Y-23912150D01*
X4106610Y-23912150D02*
X4125658Y-23902626D01*
X4125658Y-23902626D02*
X4135182Y-23893102D01*
X4135182Y-23893102D02*
X4144705Y-23874055D01*
X4144705Y-23874055D02*
X4144705Y-23835959D01*
X4144705Y-23835959D02*
X4135182Y-23816912D01*
X4135182Y-23816912D02*
X4125658Y-23807388D01*
X4125658Y-23807388D02*
X4106610Y-23797864D01*
X4230420Y-23912150D02*
X4230420Y-23778817D01*
X4230420Y-23797864D02*
X4239944Y-23788340D01*
X4239944Y-23788340D02*
X4258991Y-23778817D01*
X4258991Y-23778817D02*
X4287563Y-23778817D01*
X4287563Y-23778817D02*
X4306610Y-23788340D01*
X4306610Y-23788340D02*
X4316134Y-23807388D01*
X4316134Y-23807388D02*
X4316134Y-23912150D01*
X4316134Y-23807388D02*
X4325658Y-23788340D01*
X4325658Y-23788340D02*
X4344705Y-23778817D01*
X4344705Y-23778817D02*
X4373277Y-23778817D01*
X4373277Y-23778817D02*
X4392325Y-23788340D01*
X4392325Y-23788340D02*
X4401848Y-23807388D01*
X4401848Y-23807388D02*
X4401848Y-23912150D01*
X4497086Y-23912150D02*
X4497086Y-23778817D01*
X4497086Y-23797864D02*
X4506610Y-23788340D01*
X4506610Y-23788340D02*
X4525658Y-23778817D01*
X4525658Y-23778817D02*
X4554229Y-23778817D01*
X4554229Y-23778817D02*
X4573277Y-23788340D01*
X4573277Y-23788340D02*
X4582801Y-23807388D01*
X4582801Y-23807388D02*
X4582801Y-23912150D01*
X4582801Y-23807388D02*
X4592325Y-23788340D01*
X4592325Y-23788340D02*
X4611372Y-23778817D01*
X4611372Y-23778817D02*
X4639944Y-23778817D01*
X4639944Y-23778817D02*
X4658991Y-23788340D01*
X4658991Y-23788340D02*
X4668515Y-23807388D01*
X4668515Y-23807388D02*
X4668515Y-23912150D01*
X5058991Y-23702626D02*
X4887563Y-23959769D01*
X5316134Y-23712150D02*
X5335182Y-23712150D01*
X5335182Y-23712150D02*
X5354229Y-23721674D01*
X5354229Y-23721674D02*
X5363753Y-23731198D01*
X5363753Y-23731198D02*
X5373277Y-23750245D01*
X5373277Y-23750245D02*
X5382801Y-23788340D01*
X5382801Y-23788340D02*
X5382801Y-23835959D01*
X5382801Y-23835959D02*
X5373277Y-23874055D01*
X5373277Y-23874055D02*
X5363753Y-23893102D01*
X5363753Y-23893102D02*
X5354229Y-23902626D01*
X5354229Y-23902626D02*
X5335182Y-23912150D01*
X5335182Y-23912150D02*
X5316134Y-23912150D01*
X5316134Y-23912150D02*
X5297087Y-23902626D01*
X5297087Y-23902626D02*
X5287563Y-23893102D01*
X5287563Y-23893102D02*
X5278039Y-23874055D01*
X5278039Y-23874055D02*
X5268515Y-23835959D01*
X5268515Y-23835959D02*
X5268515Y-23788340D01*
X5268515Y-23788340D02*
X5278039Y-23750245D01*
X5278039Y-23750245D02*
X5287563Y-23731198D01*
X5287563Y-23731198D02*
X5297087Y-23721674D01*
X5297087Y-23721674D02*
X5316134Y-23712150D01*
X5468515Y-23893102D02*
X5478039Y-23902626D01*
X5478039Y-23902626D02*
X5468515Y-23912150D01*
X5468515Y-23912150D02*
X5458991Y-23902626D01*
X5458991Y-23902626D02*
X5468515Y-23893102D01*
X5468515Y-23893102D02*
X5468515Y-23912150D01*
X5668515Y-23912150D02*
X5554229Y-23912150D01*
X5611372Y-23912150D02*
X5611372Y-23712150D01*
X5611372Y-23712150D02*
X5592325Y-23740721D01*
X5592325Y-23740721D02*
X5573277Y-23759769D01*
X5573277Y-23759769D02*
X5554229Y-23769293D01*
X5849467Y-23712150D02*
X5754229Y-23712150D01*
X5754229Y-23712150D02*
X5744706Y-23807388D01*
X5744706Y-23807388D02*
X5754229Y-23797864D01*
X5754229Y-23797864D02*
X5773277Y-23788340D01*
X5773277Y-23788340D02*
X5820896Y-23788340D01*
X5820896Y-23788340D02*
X5839944Y-23797864D01*
X5839944Y-23797864D02*
X5849467Y-23807388D01*
X5849467Y-23807388D02*
X5858991Y-23826436D01*
X5858991Y-23826436D02*
X5858991Y-23874055D01*
X5858991Y-23874055D02*
X5849467Y-23893102D01*
X5849467Y-23893102D02*
X5839944Y-23902626D01*
X5839944Y-23902626D02*
X5820896Y-23912150D01*
X5820896Y-23912150D02*
X5773277Y-23912150D01*
X5773277Y-23912150D02*
X5754229Y-23902626D01*
X5754229Y-23902626D02*
X5744706Y-23893102D01*
X5925658Y-23712150D02*
X6058991Y-23712150D01*
X6058991Y-23712150D02*
X5973277Y-23912150D01*
X6173277Y-23712150D02*
X6192325Y-23712150D01*
X6192325Y-23712150D02*
X6211372Y-23721674D01*
X6211372Y-23721674D02*
X6220896Y-23731198D01*
X6220896Y-23731198D02*
X6230420Y-23750245D01*
X6230420Y-23750245D02*
X6239944Y-23788340D01*
X6239944Y-23788340D02*
X6239944Y-23835959D01*
X6239944Y-23835959D02*
X6230420Y-23874055D01*
X6230420Y-23874055D02*
X6220896Y-23893102D01*
X6220896Y-23893102D02*
X6211372Y-23902626D01*
X6211372Y-23902626D02*
X6192325Y-23912150D01*
X6192325Y-23912150D02*
X6173277Y-23912150D01*
X6173277Y-23912150D02*
X6154229Y-23902626D01*
X6154229Y-23902626D02*
X6144706Y-23893102D01*
X6144706Y-23893102D02*
X6135182Y-23874055D01*
X6135182Y-23874055D02*
X6125658Y-23835959D01*
X6125658Y-23835959D02*
X6125658Y-23788340D01*
X6125658Y-23788340D02*
X6135182Y-23750245D01*
X6135182Y-23750245D02*
X6144706Y-23731198D01*
X6144706Y-23731198D02*
X6154229Y-23721674D01*
X6154229Y-23721674D02*
X6173277Y-23712150D01*
X6316134Y-23712150D02*
X6316134Y-23750245D01*
X6392325Y-23712150D02*
X6392325Y-23750245D01*
X6687563Y-23988340D02*
X6678039Y-23978817D01*
X6678039Y-23978817D02*
X6658991Y-23950245D01*
X6658991Y-23950245D02*
X6649468Y-23931198D01*
X6649468Y-23931198D02*
X6639944Y-23902626D01*
X6639944Y-23902626D02*
X6630420Y-23855007D01*
X6630420Y-23855007D02*
X6630420Y-23816912D01*
X6630420Y-23816912D02*
X6639944Y-23769293D01*
X6639944Y-23769293D02*
X6649468Y-23740721D01*
X6649468Y-23740721D02*
X6658991Y-23721674D01*
X6658991Y-23721674D02*
X6678039Y-23693102D01*
X6678039Y-23693102D02*
X6687563Y-23683578D01*
X6744706Y-23712150D02*
X6878039Y-23712150D01*
X6878039Y-23712150D02*
X6792325Y-23912150D01*
X6963753Y-23912150D02*
X7001848Y-23912150D01*
X7001848Y-23912150D02*
X7020896Y-23902626D01*
X7020896Y-23902626D02*
X7030420Y-23893102D01*
X7030420Y-23893102D02*
X7049468Y-23864531D01*
X7049468Y-23864531D02*
X7058991Y-23826436D01*
X7058991Y-23826436D02*
X7058991Y-23750245D01*
X7058991Y-23750245D02*
X7049468Y-23731198D01*
X7049468Y-23731198D02*
X7039944Y-23721674D01*
X7039944Y-23721674D02*
X7020896Y-23712150D01*
X7020896Y-23712150D02*
X6982801Y-23712150D01*
X6982801Y-23712150D02*
X6963753Y-23721674D01*
X6963753Y-23721674D02*
X6954229Y-23731198D01*
X6954229Y-23731198D02*
X6944706Y-23750245D01*
X6944706Y-23750245D02*
X6944706Y-23797864D01*
X6944706Y-23797864D02*
X6954229Y-23816912D01*
X6954229Y-23816912D02*
X6963753Y-23826436D01*
X6963753Y-23826436D02*
X6982801Y-23835959D01*
X6982801Y-23835959D02*
X7020896Y-23835959D01*
X7020896Y-23835959D02*
X7039944Y-23826436D01*
X7039944Y-23826436D02*
X7049468Y-23816912D01*
X7049468Y-23816912D02*
X7058991Y-23797864D01*
X7297087Y-23912150D02*
X7297087Y-23712150D01*
X7382801Y-23912150D02*
X7382801Y-23807388D01*
X7382801Y-23807388D02*
X7373277Y-23788340D01*
X7373277Y-23788340D02*
X7354230Y-23778817D01*
X7354230Y-23778817D02*
X7325658Y-23778817D01*
X7325658Y-23778817D02*
X7306610Y-23788340D01*
X7306610Y-23788340D02*
X7297087Y-23797864D01*
X7506610Y-23912150D02*
X7487563Y-23902626D01*
X7487563Y-23902626D02*
X7478039Y-23893102D01*
X7478039Y-23893102D02*
X7468515Y-23874055D01*
X7468515Y-23874055D02*
X7468515Y-23816912D01*
X7468515Y-23816912D02*
X7478039Y-23797864D01*
X7478039Y-23797864D02*
X7487563Y-23788340D01*
X7487563Y-23788340D02*
X7506610Y-23778817D01*
X7506610Y-23778817D02*
X7535182Y-23778817D01*
X7535182Y-23778817D02*
X7554230Y-23788340D01*
X7554230Y-23788340D02*
X7563753Y-23797864D01*
X7563753Y-23797864D02*
X7573277Y-23816912D01*
X7573277Y-23816912D02*
X7573277Y-23874055D01*
X7573277Y-23874055D02*
X7563753Y-23893102D01*
X7563753Y-23893102D02*
X7554230Y-23902626D01*
X7554230Y-23902626D02*
X7535182Y-23912150D01*
X7535182Y-23912150D02*
X7506610Y-23912150D01*
X7687563Y-23912150D02*
X7668515Y-23902626D01*
X7668515Y-23902626D02*
X7658991Y-23883578D01*
X7658991Y-23883578D02*
X7658991Y-23712150D01*
X7839944Y-23902626D02*
X7820896Y-23912150D01*
X7820896Y-23912150D02*
X7782801Y-23912150D01*
X7782801Y-23912150D02*
X7763753Y-23902626D01*
X7763753Y-23902626D02*
X7754230Y-23883578D01*
X7754230Y-23883578D02*
X7754230Y-23807388D01*
X7754230Y-23807388D02*
X7763753Y-23788340D01*
X7763753Y-23788340D02*
X7782801Y-23778817D01*
X7782801Y-23778817D02*
X7820896Y-23778817D01*
X7820896Y-23778817D02*
X7839944Y-23788340D01*
X7839944Y-23788340D02*
X7849468Y-23807388D01*
X7849468Y-23807388D02*
X7849468Y-23826436D01*
X7849468Y-23826436D02*
X7754230Y-23845483D01*
X7925658Y-23902626D02*
X7944706Y-23912150D01*
X7944706Y-23912150D02*
X7982801Y-23912150D01*
X7982801Y-23912150D02*
X8001849Y-23902626D01*
X8001849Y-23902626D02*
X8011372Y-23883578D01*
X8011372Y-23883578D02*
X8011372Y-23874055D01*
X8011372Y-23874055D02*
X8001849Y-23855007D01*
X8001849Y-23855007D02*
X7982801Y-23845483D01*
X7982801Y-23845483D02*
X7954230Y-23845483D01*
X7954230Y-23845483D02*
X7935182Y-23835959D01*
X7935182Y-23835959D02*
X7925658Y-23816912D01*
X7925658Y-23816912D02*
X7925658Y-23807388D01*
X7925658Y-23807388D02*
X7935182Y-23788340D01*
X7935182Y-23788340D02*
X7954230Y-23778817D01*
X7954230Y-23778817D02*
X7982801Y-23778817D01*
X7982801Y-23778817D02*
X8001849Y-23788340D01*
X8078039Y-23988340D02*
X8087563Y-23978817D01*
X8087563Y-23978817D02*
X8106611Y-23950245D01*
X8106611Y-23950245D02*
X8116134Y-23931198D01*
X8116134Y-23931198D02*
X8125658Y-23902626D01*
X8125658Y-23902626D02*
X8135182Y-23855007D01*
X8135182Y-23855007D02*
X8135182Y-23816912D01*
X8135182Y-23816912D02*
X8125658Y-23769293D01*
X8125658Y-23769293D02*
X8116134Y-23740721D01*
X8116134Y-23740721D02*
X8106611Y-23721674D01*
X8106611Y-23721674D02*
X8087563Y-23693102D01*
X8087563Y-23693102D02*
X8078039Y-23683578D01*
X8439944Y-23988340D02*
X8430420Y-23978817D01*
X8430420Y-23978817D02*
X8411373Y-23950245D01*
X8411373Y-23950245D02*
X8401849Y-23931198D01*
X8401849Y-23931198D02*
X8392325Y-23902626D01*
X8392325Y-23902626D02*
X8382801Y-23855007D01*
X8382801Y-23855007D02*
X8382801Y-23816912D01*
X8382801Y-23816912D02*
X8392325Y-23769293D01*
X8392325Y-23769293D02*
X8401849Y-23740721D01*
X8401849Y-23740721D02*
X8411373Y-23721674D01*
X8411373Y-23721674D02*
X8430420Y-23693102D01*
X8430420Y-23693102D02*
X8439944Y-23683578D01*
X8516134Y-23778817D02*
X8516134Y-23912150D01*
X8516134Y-23797864D02*
X8525658Y-23788340D01*
X8525658Y-23788340D02*
X8544706Y-23778817D01*
X8544706Y-23778817D02*
X8573277Y-23778817D01*
X8573277Y-23778817D02*
X8592325Y-23788340D01*
X8592325Y-23788340D02*
X8601849Y-23807388D01*
X8601849Y-23807388D02*
X8601849Y-23912150D01*
X8725658Y-23912150D02*
X8706611Y-23902626D01*
X8706611Y-23902626D02*
X8697087Y-23893102D01*
X8697087Y-23893102D02*
X8687563Y-23874055D01*
X8687563Y-23874055D02*
X8687563Y-23816912D01*
X8687563Y-23816912D02*
X8697087Y-23797864D01*
X8697087Y-23797864D02*
X8706611Y-23788340D01*
X8706611Y-23788340D02*
X8725658Y-23778817D01*
X8725658Y-23778817D02*
X8754230Y-23778817D01*
X8754230Y-23778817D02*
X8773277Y-23788340D01*
X8773277Y-23788340D02*
X8782801Y-23797864D01*
X8782801Y-23797864D02*
X8792325Y-23816912D01*
X8792325Y-23816912D02*
X8792325Y-23874055D01*
X8792325Y-23874055D02*
X8782801Y-23893102D01*
X8782801Y-23893102D02*
X8773277Y-23902626D01*
X8773277Y-23902626D02*
X8754230Y-23912150D01*
X8754230Y-23912150D02*
X8725658Y-23912150D01*
X8849468Y-23778817D02*
X8925658Y-23778817D01*
X8878039Y-23712150D02*
X8878039Y-23883578D01*
X8878039Y-23883578D02*
X8887563Y-23902626D01*
X8887563Y-23902626D02*
X8906611Y-23912150D01*
X8906611Y-23912150D02*
X8925658Y-23912150D01*
X9144706Y-23778817D02*
X9144706Y-23978817D01*
X9144706Y-23788340D02*
X9163754Y-23778817D01*
X9163754Y-23778817D02*
X9201849Y-23778817D01*
X9201849Y-23778817D02*
X9220896Y-23788340D01*
X9220896Y-23788340D02*
X9230420Y-23797864D01*
X9230420Y-23797864D02*
X9239944Y-23816912D01*
X9239944Y-23816912D02*
X9239944Y-23874055D01*
X9239944Y-23874055D02*
X9230420Y-23893102D01*
X9230420Y-23893102D02*
X9220896Y-23902626D01*
X9220896Y-23902626D02*
X9201849Y-23912150D01*
X9201849Y-23912150D02*
X9163754Y-23912150D01*
X9163754Y-23912150D02*
X9144706Y-23902626D01*
X9354230Y-23912150D02*
X9335182Y-23902626D01*
X9335182Y-23902626D02*
X9325658Y-23883578D01*
X9325658Y-23883578D02*
X9325658Y-23712150D01*
X9516135Y-23912150D02*
X9516135Y-23807388D01*
X9516135Y-23807388D02*
X9506611Y-23788340D01*
X9506611Y-23788340D02*
X9487563Y-23778817D01*
X9487563Y-23778817D02*
X9449468Y-23778817D01*
X9449468Y-23778817D02*
X9430420Y-23788340D01*
X9516135Y-23902626D02*
X9497087Y-23912150D01*
X9497087Y-23912150D02*
X9449468Y-23912150D01*
X9449468Y-23912150D02*
X9430420Y-23902626D01*
X9430420Y-23902626D02*
X9420896Y-23883578D01*
X9420896Y-23883578D02*
X9420896Y-23864531D01*
X9420896Y-23864531D02*
X9430420Y-23845483D01*
X9430420Y-23845483D02*
X9449468Y-23835959D01*
X9449468Y-23835959D02*
X9497087Y-23835959D01*
X9497087Y-23835959D02*
X9516135Y-23826436D01*
X9582801Y-23778817D02*
X9658992Y-23778817D01*
X9611373Y-23712150D02*
X9611373Y-23883578D01*
X9611373Y-23883578D02*
X9620896Y-23902626D01*
X9620896Y-23902626D02*
X9639944Y-23912150D01*
X9639944Y-23912150D02*
X9658992Y-23912150D01*
X9801849Y-23902626D02*
X9782801Y-23912150D01*
X9782801Y-23912150D02*
X9744706Y-23912150D01*
X9744706Y-23912150D02*
X9725658Y-23902626D01*
X9725658Y-23902626D02*
X9716135Y-23883578D01*
X9716135Y-23883578D02*
X9716135Y-23807388D01*
X9716135Y-23807388D02*
X9725658Y-23788340D01*
X9725658Y-23788340D02*
X9744706Y-23778817D01*
X9744706Y-23778817D02*
X9782801Y-23778817D01*
X9782801Y-23778817D02*
X9801849Y-23788340D01*
X9801849Y-23788340D02*
X9811373Y-23807388D01*
X9811373Y-23807388D02*
X9811373Y-23826436D01*
X9811373Y-23826436D02*
X9716135Y-23845483D01*
X9982801Y-23912150D02*
X9982801Y-23712150D01*
X9982801Y-23902626D02*
X9963754Y-23912150D01*
X9963754Y-23912150D02*
X9925658Y-23912150D01*
X9925658Y-23912150D02*
X9906611Y-23902626D01*
X9906611Y-23902626D02*
X9897087Y-23893102D01*
X9897087Y-23893102D02*
X9887563Y-23874055D01*
X9887563Y-23874055D02*
X9887563Y-23816912D01*
X9887563Y-23816912D02*
X9897087Y-23797864D01*
X9897087Y-23797864D02*
X9906611Y-23788340D01*
X9906611Y-23788340D02*
X9925658Y-23778817D01*
X9925658Y-23778817D02*
X9963754Y-23778817D01*
X9963754Y-23778817D02*
X9982801Y-23788340D01*
X10058992Y-23988340D02*
X10068516Y-23978817D01*
X10068516Y-23978817D02*
X10087563Y-23950245D01*
X10087563Y-23950245D02*
X10097087Y-23931198D01*
X10097087Y-23931198D02*
X10106611Y-23902626D01*
X10106611Y-23902626D02*
X10116135Y-23855007D01*
X10116135Y-23855007D02*
X10116135Y-23816912D01*
X10116135Y-23816912D02*
X10106611Y-23769293D01*
X10106611Y-23769293D02*
X10097087Y-23740721D01*
X10097087Y-23740721D02*
X10087563Y-23721674D01*
X10087563Y-23721674D02*
X10068516Y-23693102D01*
X10068516Y-23693102D02*
X10058992Y-23683578D01*
M02*
