M48
; DRILL file {KiCad 7.0.7} date 2023 December 22, Friday 23:49:46
; FORMAT={-:-/ absolute / metric / decimal}
; #@! TF.CreationDate,2023-12-22T23:49:46+01:00
; #@! TF.GenerationSoftware,Kicad,Pcbnew,7.0.7
; #@! TF.FileFunction,Plated,1,2,PTH
FMAT,2
METRIC
; #@! TA.AperFunction,Plated,PTH,ComponentDrill
T1C0.200
; #@! TA.AperFunction,Plated,PTH,ViaDrill
T2C0.300
; #@! TA.AperFunction,Plated,PTH,ComponentDrill
T3C0.762
; #@! TA.AperFunction,Plated,PTH,ComponentDrill
T4C0.950
; #@! TA.AperFunction,Plated,PTH,ComponentDrill
T5C1.000
; #@! TA.AperFunction,Plated,PTH,ComponentDrill
T6C1.016
; #@! TA.AperFunction,Plated,PTH,ComponentDrill
T7C2.200
%
G90
G05
T1
X200.121Y-201.7
X200.811Y-201.011
X200.811Y-202.389
X201.5Y-200.321
X201.5Y-201.7
X201.5Y-203.079
X202.189Y-201.011
X202.189Y-202.389
X202.879Y-201.7
X305.525Y-88.625
X305.525Y-89.6
X305.525Y-90.575
X306.5Y-88.625
X306.5Y-89.6
X306.5Y-90.575
X307.475Y-88.625
X307.475Y-89.6
X307.475Y-90.575
T2
X41.8Y-186.0
X44.946Y-187.185
X45.0Y-82.941
X45.0Y-114.0
X45.5Y-80.341
X45.5Y-81.541
X45.6Y-76.641
X45.6Y-77.841
X45.6Y-79.041
X46.2Y-96.9
X46.5Y-96.0
X47.5Y-112.525
X48.6Y-117.8
X48.75Y-75.25
X49.25Y-92.491
X49.25Y-93.491
X49.25Y-94.491
X50.0Y-85.4
X50.75Y-92.25
X51.6Y-122.3
X52.4Y-189.4
X53.0Y-74.25
X53.0Y-118.0
X53.3Y-175.5
X54.8Y-113.8
X55.0Y-92.25
X55.7Y-139.4
X55.7Y-158.1
X57.3Y-158.9
X57.9Y-140.2
X58.5Y-127.4
X59.25Y-111.6
X59.4Y-121.4
X59.5Y-97.0
X59.807Y-185.4
X59.841Y-143.5
X60.0Y-181.6
X60.2Y-156.0
X60.3Y-97.8
X60.4Y-101.4
X60.4Y-105.6
X61.2Y-124.6
X61.2Y-177.9
X61.25Y-118.5
X61.8Y-143.4
X62.0Y-105.6
X62.4Y-137.2
X62.4Y-181.6
X63.5Y-120.25
X63.75Y-101.499
X64.4Y-162.6
X64.424Y-156.658
X64.8Y-105.6
X65.0Y-175.2
X65.0Y-181.6
X65.0Y-198.2
X65.2Y-185.4
X66.806Y-137.61
X67.0Y-162.6
X68.099Y-117.072
X69.0Y-185.2
X69.187Y-199.155
X69.4Y-105.6
X69.45Y-175.75
X71.0Y-92.8
X71.2Y-158.2
X71.568Y-118.558
X72.6Y-143.6
X73.2Y-105.6
X73.25Y-124.5
X73.6Y-139.0
X73.8Y-97.2
X74.25Y-149.75
X74.6Y-143.4
X75.4Y-105.6
X75.699Y-177.11
X76.2Y-200.4
X76.5Y-130.75
X76.722Y-181.733
X77.112Y-96.6
X78.6Y-101.4
X78.73Y-120.005
X78.75Y-192.0
X79.5Y-169.5
X82.0Y-87.0
X82.0Y-112.0
X82.4Y-181.8
X86.2Y-182.0
X87.2Y-143.728
X87.2Y-174.4
X88.2Y-162.8
X88.6Y-106.2
X88.6Y-185.8
X88.8Y-156.4
X89.4Y-198.8
X90.0Y-181.8
X90.4Y-93.2
X90.8Y-136.4
X91.6Y-117.4
X91.8Y-106.2
X91.943Y-176.244
X92.0Y-125.0
X92.0Y-143.8
X92.4Y-97.4
X92.94Y-157.22
X93.647Y-199.748
X93.937Y-138.196
X94.0Y-163.19
X94.934Y-119.172
X95.0Y-102.4
X95.8Y-144.179
X96.0Y-125.25
X96.112Y-96.6
X98.359Y-177.828
X99.382Y-182.451
X99.71Y-158.46
X100.8Y-139.8
X101.2Y-202.2
X101.25Y-87.25
X101.8Y-144.4
X102.0Y-120.8
X102.0Y-169.5
X103.5Y-151.0
X104.25Y-132.0
X104.25Y-193.5
X104.6Y-88.0
X105.2Y-107.015
X105.6Y-182.8
X105.75Y-113.25
X106.6Y-105.5
X106.6Y-107.2
X106.6Y-176.0
X107.8Y-145.0
X107.8Y-163.8
X108.2Y-108.9
X108.734Y-156.457
X108.8Y-138.0
X109.0Y-182.8
X109.648Y-101.118
X110.1Y-100.266
X110.3Y-102.166
X110.728Y-118.409
X110.8Y-99.766
X110.8Y-126.0
X110.967Y-177.241
X111.0Y-144.8
X111.2Y-105.0
X111.2Y-183.2
X111.964Y-158.217
X112.961Y-139.193
X113.2Y-105.125
X113.4Y-164.2
X113.6Y-187.0
X113.958Y-120.169
X114.0Y-199.8
X114.6Y-105.1
X116.0Y-89.062
X116.25Y-126.25
X117.383Y-178.825
X118.406Y-183.448
X118.445Y-200.596
X118.734Y-159.457
X119.377Y-140.777
X120.4Y-145.4
X120.728Y-121.409
X121.25Y-170.75
X122.25Y-151.75
X123.0Y-133.0
X124.5Y-114.0
X125.8Y-177.0
X125.8Y-201.8
X127.0Y-158.2
X127.4Y-145.8
X127.8Y-164.8
X128.0Y-183.8
X128.75Y-194.5
X128.8Y-138.4
X129.4Y-127.0
X129.752Y-119.406
X129.991Y-178.238
X130.0Y-145.8
X130.988Y-159.214
X131.4Y-184.2
X131.985Y-140.19
X132.2Y-165.0
X132.982Y-121.166
X133.4Y-146.2
X135.0Y-127.25
X136.407Y-179.822
X137.43Y-184.445
X137.758Y-160.454
X138.401Y-141.774
X139.424Y-146.397
X139.752Y-122.406
X140.274Y-171.747
X141.274Y-152.747
X142.024Y-133.997
X143.524Y-114.997
X144.8Y-178.2
X146.782Y-158.451
X146.8Y-147.0
X146.8Y-166.0
X147.0Y-184.8
X147.8Y-139.4
X148.776Y-120.403
X149.0Y-146.8
X149.015Y-179.235
X149.2Y-166.082
X149.8Y-128.001
X150.012Y-160.211
X150.8Y-185.2
X150.901Y-200.15
X151.009Y-141.187
X152.006Y-122.163
X152.2Y-187.4
X153.0Y-128.0
X154.187Y-201.581
X154.5Y-185.5
X155.431Y-180.819
X156.454Y-185.442
X156.782Y-161.451
X157.425Y-142.771
X158.448Y-147.394
X158.776Y-123.403
X159.298Y-172.744
X160.298Y-153.744
X160.75Y-147.5
X161.048Y-134.994
X161.101Y-203.15
X162.548Y-115.994
X164.751Y-195.2
X164.8Y-178.65
X165.0Y-160.0
X165.4Y-147.8
X165.8Y-166.8
X166.0Y-186.05
X166.8Y-140.4
X167.8Y-121.4
X168.0Y-147.8
X168.0Y-167.068
X168.039Y-180.232
X168.8Y-129.0
X169.036Y-161.208
X170.033Y-142.184
X171.03Y-123.16
X172.2Y-148.2
X172.75Y-129.25
X174.455Y-181.816
X175.478Y-186.439
X175.806Y-162.448
X176.449Y-143.768
X176.8Y-188.6
X177.472Y-148.391
X177.8Y-124.4
X178.322Y-173.741
X179.1Y-188.8
X179.322Y-154.741
X180.072Y-135.991
X181.572Y-116.991
X182.7Y-187.9
X184.0Y-193.9
X186.5Y-122.5
X186.5Y-200.7
X186.6Y-142.0
X186.6Y-161.0
X188.2Y-201.3
X188.3Y-111.6
X188.3Y-112.8
X188.3Y-130.2
X188.3Y-131.4
X188.3Y-149.9
X188.3Y-151.1
X188.3Y-168.4
X188.3Y-169.6
X188.3Y-187.5
X188.3Y-188.7
X190.0Y-117.6
X190.0Y-122.1
X190.0Y-140.8
X190.0Y-159.8
X190.7Y-110.1
X191.7Y-111.6
X191.7Y-112.8
X191.7Y-130.9
X191.7Y-132.1
X191.7Y-149.9
X191.7Y-151.1
X191.7Y-169.1
X191.7Y-170.3
X191.7Y-187.5
X191.7Y-188.7
X192.5Y-201.4
X193.0Y-183.2
X193.0Y-184.2
X193.5Y-188.75
X194.374Y-118.0
X194.5Y-191.25
X195.0Y-193.0
X195.9Y-108.3
X196.6Y-186.218
X197.7Y-194.7
X198.0Y-193.5
X198.6Y-102.2
X198.6Y-141.8
X198.7Y-198.4
X199.0Y-148.6
X200.2Y-161.0
X200.5Y-122.0
X200.8Y-167.4
X201.0Y-180.0
X202.2Y-129.5
X202.2Y-148.4
X202.3Y-101.0
X202.3Y-198.3
X202.374Y-123.344
X202.75Y-167.25
X203.371Y-142.367
X203.4Y-108.001
X204.124Y-199.0
X204.368Y-161.391
X204.42Y-204.141
X204.5Y-108.5
X204.75Y-129.0
X205.365Y-180.415
X205.5Y-201.3
X206.4Y-100.4
X206.5Y-108.5
X206.8Y-186.0
X208.4Y-129.0
X208.8Y-98.9
X209.353Y-124.355
X210.25Y-109.75
X210.6Y-143.2
X211.2Y-162.2
X212.0Y-129.0
X212.25Y-116.0
X212.4Y-166.8
X212.6Y-181.6
X213.0Y-135.0
X213.75Y-154.0
X215.0Y-109.3
X215.0Y-173.5
X215.2Y-166.8
X215.6Y-185.8
X215.898Y-200.121
X216.8Y-128.6
X216.8Y-147.8
X217.3Y-122.0
X218.2Y-141.0
X218.3Y-128.4
X219.2Y-166.6
X219.4Y-160.2
X219.513Y-201.201
X220.6Y-179.2
X221.2Y-147.2
X221.2Y-166.2
X221.398Y-122.347
X221.6Y-100.3
X222.395Y-141.37
X223.0Y-185.2
X223.392Y-160.394
X224.389Y-179.418
X226.698Y-202.521
X227.2Y-127.8
X227.5Y-189.75
X228.226Y-122.929
X229.4Y-142.6
X230.4Y-161.4
X231.0Y-128.0
X231.2Y-180.6
X231.25Y-115.0
X231.6Y-165.8
X232.0Y-134.0
X232.75Y-153.0
X234.0Y-172.5
X234.1Y-108.5
X235.7Y-146.6
X236.0Y-120.9
X237.6Y-165.6
X237.8Y-127.3
X238.2Y-159.1
X239.3Y-165.4
X239.4Y-146.3
X239.4Y-178.1
X240.422Y-121.35
X240.6Y-99.3
X241.419Y-140.373
X241.8Y-165.4
X241.9Y-184.4
X242.416Y-159.397
X243.413Y-178.421
X246.3Y-127.0
X247.3Y-122.2
X248.5Y-141.3
X248.8Y-160.3
X249.8Y-164.926
X250.0Y-179.4
X250.25Y-113.75
X250.7Y-126.792
X250.8Y-186.7
X251.0Y-132.75
X251.203Y-199.197
X251.75Y-151.75
X253.0Y-164.758
X253.0Y-171.25
X253.2Y-183.8
X253.3Y-107.2
X253.5Y-126.6
X255.4Y-120.1
X255.451Y-199.704
X255.9Y-164.6
X256.4Y-139.1
X257.2Y-158.1
X257.7Y-126.3
X258.1Y-177.1
X258.4Y-164.5
X259.446Y-120.353
X259.5Y-186.0
X259.6Y-145.5
X259.8Y-98.2
X260.443Y-139.376
X261.1Y-183.3
X261.44Y-158.4
X261.6Y-145.212
X262.437Y-177.424
X262.5Y-200.9
X265.5Y-187.5
X265.6Y-125.9
X266.2Y-121.2
X266.9Y-164.0
X267.2Y-140.5
X268.3Y-159.0
X268.6Y-185.8
X269.25Y-113.0
X269.3Y-178.2
X269.5Y-126.0
X270.0Y-132.0
X270.75Y-151.0
X270.8Y-185.9
X271.7Y-163.8
X272.0Y-106.9
X272.0Y-170.5
X273.0Y-182.7
X273.5Y-125.4
X274.4Y-119.2
X275.2Y-197.8
X275.3Y-163.6
X275.5Y-138.0
X276.1Y-157.1
X277.1Y-125.4
X277.2Y-176.2
X278.3Y-144.3
X278.47Y-119.356
X278.6Y-185.2
X278.8Y-97.3
X278.9Y-163.3
X279.233Y-198.478
X279.467Y-138.379
X280.2Y-182.324
X280.464Y-157.403
X280.9Y-144.1
X281.461Y-176.427
X284.1Y-125.0
X284.4Y-97.2
X285.1Y-120.1
X285.8Y-184.7
X286.0Y-199.8
X286.4Y-139.5
X286.4Y-162.9
X287.3Y-158.3
X288.288Y-177.388
X288.4Y-124.9
X288.5Y-112.25
X289.0Y-186.5
X289.25Y-131.25
X290.0Y-150.25
X291.1Y-162.9
X291.25Y-169.75
X291.4Y-184.7
X292.6Y-124.5
X293.3Y-118.1
X293.6Y-143.6
X294.2Y-137.2
X294.51Y-96.526
X294.8Y-124.5
X295.4Y-155.9
X295.8Y-184.3
X296.1Y-143.4
X296.6Y-97.636
X296.8Y-162.4
X297.494Y-118.359
X298.491Y-137.382
X298.6Y-94.0
X298.9Y-175.0
X299.488Y-156.406
X300.9Y-181.1
X302.3Y-95.4
X302.863Y-175.306
X303.8Y-73.7
X303.8Y-74.6
X303.8Y-83.2
X303.8Y-84.1
X303.8Y-124.0
X304.2Y-93.6
X304.6Y-76.6
X304.8Y-119.1
X304.8Y-162.043
X305.4Y-75.7
X305.4Y-76.6
X305.4Y-82.7
X305.4Y-83.6
X305.4Y-84.5
X305.9Y-138.5
X306.05Y-93.75
X306.2Y-157.2
X306.2Y-183.8
X306.5Y-82.7
X306.5Y-83.6
X306.5Y-84.5
X307.1Y-124.0
X307.25Y-111.0
X307.3Y-93.0
X307.6Y-74.1
X307.9Y-75.8
X308.0Y-130.0
X308.5Y-74.1
X308.6Y-76.8
X308.75Y-149.0
X309.557Y-90.499
X309.9Y-176.4
X310.52Y-91.54
X310.701Y-92.499
X311.0Y-90.1
X311.4Y-123.5
X312.349Y-89.8
X312.4Y-117.0
X312.5Y-168.0
X313.2Y-142.508
X313.3Y-86.3
X313.3Y-123.6
X313.3Y-136.1
X313.459Y-87.2
X313.5Y-183.75
X313.6Y-72.7
X313.6Y-74.1
X313.6Y-88.0
X313.6Y-89.3
X314.4Y-155.1
X315.25Y-181.0
X315.25Y-200.5
X315.5Y-88.5
X315.7Y-142.3
X316.0Y-92.5
X316.5Y-87.8
X316.518Y-117.362
X316.7Y-161.2
X317.2Y-89.55
X317.515Y-136.385
X318.512Y-155.409
X318.75Y-93.25
X319.0Y-89.5
X319.1Y-75.1
X319.1Y-77.5
X319.451Y-200.927
X320.25Y-93.25
X320.75Y-89.5
X320.8Y-75.1
X320.8Y-78.2
X321.75Y-93.25
X322.5Y-89.5
X322.9Y-122.9
X323.2Y-74.013
X323.2Y-76.8
X323.8Y-118.4
X324.25Y-89.5
X324.25Y-93.25
X324.6Y-137.5
X324.6Y-161.0
X324.9Y-78.9
X325.1Y-70.159
X325.4Y-156.6
X326.0Y-89.5
X326.0Y-93.5
X326.2Y-122.9
X326.25Y-202.25
X326.5Y-110.25
X326.7Y-74.013
X326.7Y-76.3
X327.25Y-129.25
X327.5Y-188.75
X328.0Y-148.25
X328.4Y-78.2
X329.2Y-75.2
X329.8Y-85.0
X330.4Y-85.7
X330.5Y-91.0
X330.5Y-92.825
X330.5Y-186.0
X331.25Y-188.75
X331.25Y-191.5
X332.25Y-186.0
X332.5Y-71.7
X332.5Y-75.2
X332.75Y-91.0
X332.75Y-92.825
X332.9Y-78.4
X333.024Y-72.626
X334.25Y-181.25
X334.5Y-200.25
X334.7Y-70.159
X334.7Y-81.7
X335.0Y-91.0
X335.0Y-92.825
X335.5Y-188.75
X337.2Y-78.4
X337.25Y-91.0
X337.25Y-92.825
X338.501Y-181.877
X338.501Y-200.927
X339.4Y-75.2
X339.5Y-91.0
X339.5Y-92.825
X339.75Y-144.75
X340.0Y-135.25
X341.75Y-91.0
X341.75Y-92.825
X341.8Y-75.3
X342.25Y-161.0
X342.6Y-125.1
X343.25Y-93.25
X343.5Y-91.425
X344.0Y-188.5
X344.1Y-76.2
X344.167Y-145.226
X344.2Y-117.6
X345.5Y-91.25
X345.5Y-202.25
X345.7Y-87.0
X345.75Y-184.0
X346.0Y-77.0
X346.25Y-135.25
X346.5Y-188.5
X346.95Y-116.5
X347.5Y-91.0
X347.5Y-160.75
X347.75Y-93.25
X348.4Y-77.7
X348.75Y-175.0
X349.9Y-70.325
X350.25Y-191.75
X350.5Y-202.176
X350.75Y-89.0
X351.0Y-146.5
X351.1Y-72.374
X351.25Y-89.987
X351.75Y-188.75
X352.8Y-84.9
X353.2Y-118.8
X353.25Y-200.25
X353.4Y-85.5
X354.3Y-125.2
X354.5Y-188.25
X354.75Y-162.25
X355.25Y-94.0
X355.25Y-139.0
X356.25Y-110.0
X356.5Y-121.25
X357.0Y-89.75
X357.551Y-200.927
X357.75Y-89.75
X358.0Y-101.25
X358.5Y-89.75
X359.75Y-178.5
X360.0Y-88.325
X360.62Y-79.65
X360.9Y-114.8
X361.25Y-159.75
X361.5Y-88.5
X361.7Y-113.7
X361.952Y-79.725
X362.25Y-139.6
X362.9Y-85.4
X363.1Y-78.65
X363.5Y-182.5
X363.6Y-84.573
X364.0Y-203.0
X364.4Y-77.8
X364.5Y-84.931
X364.75Y-125.5
X364.75Y-164.0
X364.983Y-78.417
X365.2Y-112.6
X365.5Y-85.7
X365.75Y-143.25
X365.8Y-111.8
X365.825Y-109.5
X365.875Y-83.9
X366.293Y-157.293
X366.5Y-176.25
X366.8Y-86.7
X367.25Y-137.0
X367.5Y-182.25
X367.75Y-180.25
X368.0Y-189.5
X368.7Y-86.117
X369.1Y-116.5
X369.4Y-86.8
X369.5Y-71.5
X369.5Y-104.5
X369.6Y-118.1
X369.75Y-143.25
X370.079Y-92.918
X370.7Y-138.785
X370.7Y-157.835
X370.7Y-176.884
X370.782Y-92.518
X370.782Y-93.318
X371.1Y-112.5
X371.25Y-104.5
X371.482Y-92.918
X372.1Y-112.9
X373.0Y-164.0
X373.0Y-182.25
X373.25Y-71.5
X376.0Y-160.5
X376.0Y-179.5
X377.25Y-140.25
X380.25Y-125.25
X381.0Y-131.75
X381.0Y-151.0
X381.282Y-92.918
X381.375Y-69.775
X381.375Y-89.725
X381.75Y-171.0
X382.3Y-69.75
X382.3Y-89.7
X382.625Y-95.2
X382.7Y-98.4
X382.7Y-105.9
X382.7Y-109.3
X382.9Y-120.4
X383.1Y-69.75
X383.1Y-89.7
X383.3Y-96.2
X384.0Y-88.2
X385.2Y-138.5
X385.2Y-139.7
X388.0Y-79.1
X390.789Y-110.799
T3
X118.459Y-86.94
X118.459Y-89.48
X118.459Y-92.02
X118.459Y-94.56
T4
X311.1Y-83.54
X313.64Y-83.54
X359.36Y-68.3
X359.36Y-83.54
T5
X187.5Y-191.75
X187.5Y-206.25
X190.0Y-206.25
X192.5Y-191.75
X192.5Y-206.25
X379.5Y-103.323
X379.5Y-117.823
X382.0Y-117.823
X384.5Y-103.323
X384.5Y-117.823
T6
X311.1Y-68.3
X313.64Y-68.3
X316.18Y-68.3
X316.18Y-83.54
X318.72Y-68.3
X318.72Y-83.54
X321.26Y-68.3
X321.26Y-83.54
X323.8Y-68.3
X323.8Y-83.54
X326.34Y-68.3
X326.34Y-83.54
X328.88Y-68.3
X328.88Y-83.54
X331.42Y-68.3
X331.42Y-83.54
X333.96Y-68.3
X333.96Y-83.54
X336.5Y-68.3
X336.5Y-83.54
X339.04Y-68.3
X339.04Y-83.54
X341.58Y-68.3
X341.58Y-83.54
X344.12Y-68.3
X344.12Y-83.54
X346.66Y-68.3
X346.66Y-83.54
X349.2Y-68.3
X349.2Y-83.54
X351.74Y-68.3
X351.74Y-83.54
X354.28Y-68.3
X354.28Y-83.54
X356.82Y-68.3
X356.82Y-83.54
T7
X184.4Y-198.75
X195.6Y-198.75
X376.4Y-110.323
X387.6Y-110.323
T0
M30
