%TF.GenerationSoftware,KiCad,Pcbnew,7.0.7*%
%TF.CreationDate,2023-12-22T23:49:32+01:00*%
%TF.ProjectId,isokey,69736f6b-6579-42e6-9b69-6361645f7063,A*%
%TF.SameCoordinates,Original*%
%TF.FileFunction,Paste,Bot*%
%TF.FilePolarity,Positive*%
%FSLAX46Y46*%
G04 Gerber Fmt 4.6, Leading zero omitted, Abs format (unit mm)*
G04 Created by KiCad (PCBNEW 7.0.7) date 2023-12-22 23:49:32*
%MOMM*%
%LPD*%
G01*
G04 APERTURE LIST*
G04 Aperture macros list*
%AMRoundRect*
0 Rectangle with rounded corners*
0 $1 Rounding radius*
0 $2 $3 $4 $5 $6 $7 $8 $9 X,Y pos of 4 corners*
0 Add a 4 corners polygon primitive as box body*
4,1,4,$2,$3,$4,$5,$6,$7,$8,$9,$2,$3,0*
0 Add four circle primitives for the rounded corners*
1,1,$1+$1,$2,$3*
1,1,$1+$1,$4,$5*
1,1,$1+$1,$6,$7*
1,1,$1+$1,$8,$9*
0 Add four rect primitives between the rounded corners*
20,1,$1+$1,$2,$3,$4,$5,0*
20,1,$1+$1,$4,$5,$6,$7,0*
20,1,$1+$1,$6,$7,$8,$9,0*
20,1,$1+$1,$8,$9,$2,$3,0*%
%AMRotRect*
0 Rectangle, with rotation*
0 The origin of the aperture is its center*
0 $1 length*
0 $2 width*
0 $3 Rotation angle, in degrees counterclockwise*
0 Add horizontal line*
21,1,$1,$2,0,0,$3*%
G04 Aperture macros list end*
%ADD10R,2.550000X2.500000*%
%ADD11RotRect,2.550000X2.500000X3.000000*%
%ADD12RotRect,2.550000X2.500000X357.000000*%
%ADD13RoundRect,0.237500X0.287159X0.252875X-0.312019X0.221474X-0.287159X-0.252875X0.312019X-0.221474X0*%
%ADD14RotRect,1.300000X0.850000X183.000000*%
%ADD15RotRect,1.300000X0.850000X177.000000*%
%ADD16RoundRect,0.250000X0.475000X-0.250000X0.475000X0.250000X-0.475000X0.250000X-0.475000X-0.250000X0*%
%ADD17RoundRect,0.225000X-0.362710X0.244318X-0.386262X-0.205066X0.362710X-0.244318X0.386262X0.205066X0*%
%ADD18RoundRect,0.237500X0.300000X0.237500X-0.300000X0.237500X-0.300000X-0.237500X0.300000X-0.237500X0*%
%ADD19RoundRect,0.225000X-0.375000X0.225000X-0.375000X-0.225000X0.375000X-0.225000X0.375000X0.225000X0*%
%ADD20RoundRect,0.237500X-0.237500X0.250000X-0.237500X-0.250000X0.237500X-0.250000X0.237500X0.250000X0*%
%ADD21RoundRect,0.237500X0.312019X0.221474X-0.287159X0.252875X-0.312019X-0.221474X0.287159X-0.252875X0*%
%ADD22RoundRect,0.150000X-0.512500X-0.150000X0.512500X-0.150000X0.512500X0.150000X-0.512500X0.150000X0*%
%ADD23R,1.300000X0.850000*%
%ADD24RoundRect,0.250000X0.650000X-0.325000X0.650000X0.325000X-0.650000X0.325000X-0.650000X-0.325000X0*%
%ADD25RoundRect,0.237500X0.237500X-0.250000X0.237500X0.250000X-0.237500X0.250000X-0.237500X-0.250000X0*%
%ADD26RoundRect,0.237500X0.250000X0.237500X-0.250000X0.237500X-0.250000X-0.237500X0.250000X-0.237500X0*%
%ADD27RoundRect,0.237500X0.237500X-0.300000X0.237500X0.300000X-0.237500X0.300000X-0.237500X-0.300000X0*%
%ADD28RoundRect,0.250000X-0.224798X-0.487433X0.274517X-0.461265X0.224798X0.487433X-0.274517X0.461265X0*%
%ADD29RoundRect,0.237500X-0.237500X0.300000X-0.237500X-0.300000X0.237500X-0.300000X0.237500X0.300000X0*%
%ADD30RoundRect,0.225000X-0.386262X0.205066X-0.362710X-0.244318X0.386262X-0.205066X0.362710X0.244318X0*%
%ADD31RoundRect,0.250000X-0.159099X0.512652X-0.512652X0.159099X0.159099X-0.512652X0.512652X-0.159099X0*%
%ADD32RoundRect,0.237500X-0.250000X-0.237500X0.250000X-0.237500X0.250000X0.237500X-0.250000X0.237500X0*%
%ADD33RoundRect,0.150000X-0.150000X0.512500X-0.150000X-0.512500X0.150000X-0.512500X0.150000X0.512500X0*%
%ADD34RoundRect,0.250000X-0.475000X0.250000X-0.475000X-0.250000X0.475000X-0.250000X0.475000X0.250000X0*%
%ADD35RoundRect,0.250000X-0.250000X-0.475000X0.250000X-0.475000X0.250000X0.475000X-0.250000X0.475000X0*%
%ADD36RoundRect,0.250000X-0.650000X0.325000X-0.650000X-0.325000X0.650000X-0.325000X0.650000X0.325000X0*%
%ADD37RoundRect,0.250000X-0.325000X-0.650000X0.325000X-0.650000X0.325000X0.650000X-0.325000X0.650000X0*%
%ADD38RoundRect,0.225000X0.225000X0.375000X-0.225000X0.375000X-0.225000X-0.375000X0.225000X-0.375000X0*%
G04 APERTURE END LIST*
D10*
%TO.C,SW2*%
X100418799Y-84482410D03*
X86568799Y-87022410D03*
%TD*%
D11*
%TO.C,SW30*%
X326614532Y-126812203D03*
X312916446Y-130073575D03*
%TD*%
D12*
%TO.C,SW36*%
X160070690Y-151479481D03*
X146106738Y-153291147D03*
%TD*%
%TO.C,SW6*%
X124016905Y-111437696D03*
X110052953Y-113249362D03*
%TD*%
D11*
%TO.C,SW43*%
X308587639Y-146833095D03*
X294889553Y-150094467D03*
%TD*%
D10*
%TO.C,SW18*%
X76395566Y-128444764D03*
X62545566Y-130984764D03*
%TD*%
D12*
%TO.C,SW9*%
X181088583Y-114428696D03*
X167124631Y-116240362D03*
%TD*%
D11*
%TO.C,SW55*%
X252512457Y-168847914D03*
X238814371Y-172109286D03*
%TD*%
%TO.C,SW24*%
X212470677Y-132794229D03*
X198772591Y-136055601D03*
%TD*%
D10*
%TO.C,SW32*%
X74014266Y-147492614D03*
X60164266Y-150032614D03*
%TD*%
D11*
%TO.C,SW16*%
X325617532Y-107788310D03*
X311919446Y-111049682D03*
%TD*%
%TO.C,SW39*%
X232490571Y-150821174D03*
X218792485Y-154082546D03*
%TD*%
D10*
%TO.C,SW70*%
X329040791Y-191762097D03*
X315190791Y-194302097D03*
%TD*%
D11*
%TO.C,SW41*%
X270539854Y-148827095D03*
X256841768Y-152088467D03*
%TD*%
%TO.C,SW42*%
X289563747Y-147830095D03*
X275865661Y-151091467D03*
%TD*%
D12*
%TO.C,SW51*%
X159073690Y-170503374D03*
X145109738Y-172315040D03*
%TD*%
D11*
%TO.C,SW69*%
X288332106Y-188904669D03*
X274634020Y-192166041D03*
%TD*%
%TO.C,SW53*%
X214464672Y-170841914D03*
X200766586Y-174103286D03*
%TD*%
D12*
%TO.C,SW7*%
X143040797Y-112434696D03*
X129076845Y-114246362D03*
%TD*%
%TO.C,SW48*%
X102002012Y-167512374D03*
X88038060Y-169324040D03*
%TD*%
D10*
%TO.C,SW62*%
X78776766Y-189989754D03*
X64926766Y-192529754D03*
%TD*%
D12*
%TO.C,SW63*%
X103705870Y-191016477D03*
X89741918Y-192828143D03*
%TD*%
D11*
%TO.C,SW29*%
X307590639Y-127809203D03*
X293892553Y-131070575D03*
%TD*%
%TO.C,SW10*%
X211473677Y-113770336D03*
X197775591Y-117031708D03*
%TD*%
%TO.C,SW44*%
X327611532Y-145836095D03*
X313913446Y-149097467D03*
%TD*%
D12*
%TO.C,SW8*%
X162064690Y-113431696D03*
X148100738Y-115243362D03*
%TD*%
D11*
%TO.C,SW28*%
X288566746Y-128806203D03*
X274868660Y-132067575D03*
%TD*%
%TO.C,SW54*%
X233488564Y-169844914D03*
X219790478Y-173106286D03*
%TD*%
D12*
%TO.C,SW50*%
X140049798Y-169506374D03*
X126085846Y-171318040D03*
%TD*%
D11*
%TO.C,SW57*%
X290559244Y-166853967D03*
X276861158Y-170115339D03*
%TD*%
D10*
%TO.C,SW45*%
X353757291Y-136061109D03*
X339907291Y-138601109D03*
%TD*%
D11*
%TO.C,SW27*%
X269541356Y-129803281D03*
X255843270Y-133064653D03*
%TD*%
%TO.C,SW25*%
X231494569Y-131797229D03*
X217796483Y-135058601D03*
%TD*%
D12*
%TO.C,SW64*%
X128503784Y-191864125D03*
X114539832Y-193675791D03*
%TD*%
D10*
%TO.C,SW47*%
X78776766Y-166542164D03*
X64926766Y-169082164D03*
%TD*%
%TO.C,SW3*%
X57108066Y-103392964D03*
X43258066Y-105932964D03*
%TD*%
D11*
%TO.C,SW11*%
X230497569Y-112773336D03*
X216799483Y-116034708D03*
%TD*%
D10*
%TO.C,SW31*%
X380290000Y-129620000D03*
X366440000Y-132160000D03*
%TD*%
D11*
%TO.C,SW13*%
X268544356Y-110779389D03*
X254846270Y-114040761D03*
%TD*%
D12*
%TO.C,SW35*%
X141046797Y-150482481D03*
X127082845Y-152294147D03*
%TD*%
D10*
%TO.C,SW59*%
X348090791Y-172712097D03*
X334240791Y-175252097D03*
%TD*%
%TO.C,SW71*%
X348090791Y-191762097D03*
X334240791Y-194302097D03*
%TD*%
D11*
%TO.C,SW26*%
X250517463Y-130800281D03*
X236819377Y-134061653D03*
%TD*%
D10*
%TO.C,SW72*%
X367140791Y-191762097D03*
X353290791Y-194302097D03*
%TD*%
D11*
%TO.C,SW68*%
X264550694Y-190130959D03*
X250852608Y-193392331D03*
%TD*%
D12*
%TO.C,SW21*%
X142043797Y-131458589D03*
X128079845Y-133270255D03*
%TD*%
D11*
%TO.C,SW56*%
X271535351Y-167850967D03*
X257837265Y-171112339D03*
%TD*%
%TO.C,SW38*%
X213467677Y-151818121D03*
X199769591Y-155079493D03*
%TD*%
%TO.C,SW58*%
X311962371Y-165732276D03*
X298264285Y-168993648D03*
%TD*%
%TO.C,SW67*%
X228612719Y-191627419D03*
X214914633Y-194888791D03*
%TD*%
D10*
%TO.C,SW1*%
X81368799Y-84482410D03*
X67518799Y-87022410D03*
%TD*%
%TO.C,SW4*%
X81158066Y-109392964D03*
X67308066Y-111932964D03*
%TD*%
D12*
%TO.C,SW37*%
X179094583Y-152476481D03*
X165130631Y-154288147D03*
%TD*%
D10*
%TO.C,SW46*%
X380290000Y-148670000D03*
X366440000Y-151210000D03*
%TD*%
%TO.C,SW17*%
X356141791Y-107487409D03*
X342291791Y-110027409D03*
%TD*%
D12*
%TO.C,SW23*%
X180091583Y-133452589D03*
X166127631Y-135264255D03*
%TD*%
D11*
%TO.C,SW40*%
X251514464Y-149824174D03*
X237816378Y-153085546D03*
%TD*%
%TO.C,SW14*%
X287569746Y-109782310D03*
X273871660Y-113043682D03*
%TD*%
%TO.C,SW15*%
X306593639Y-108785310D03*
X292895553Y-112046682D03*
%TD*%
D12*
%TO.C,SW65*%
X164245163Y-192849270D03*
X150281211Y-194660936D03*
%TD*%
%TO.C,SW22*%
X161067690Y-132455589D03*
X147103738Y-134267255D03*
%TD*%
D11*
%TO.C,SW12*%
X249520463Y-111776389D03*
X235822377Y-115037761D03*
%TD*%
D12*
%TO.C,SW49*%
X121025905Y-168509374D03*
X107061953Y-170321040D03*
%TD*%
%TO.C,SW20*%
X123019905Y-130461589D03*
X109055953Y-132273255D03*
%TD*%
%TO.C,SW34*%
X122022904Y-149485481D03*
X108058952Y-151297147D03*
%TD*%
D10*
%TO.C,SW60*%
X380290000Y-167719075D03*
X366440000Y-170259075D03*
%TD*%
%TO.C,SW61*%
X54535566Y-178020164D03*
X40685566Y-180560164D03*
%TD*%
D12*
%TO.C,SW5*%
X104993012Y-110440696D03*
X91029060Y-112252362D03*
%TD*%
%TO.C,SW19*%
X103996012Y-129464589D03*
X90032060Y-131276255D03*
%TD*%
%TO.C,SW33*%
X102999012Y-148488481D03*
X89035060Y-150300147D03*
%TD*%
%TO.C,SW52*%
X178097583Y-171500374D03*
X164133631Y-173312040D03*
%TD*%
D13*
%TO.C,C9*%
X298361318Y-156454860D03*
X296638682Y-156545140D03*
%TD*%
D14*
%TO.C,D133*%
X308157915Y-175109337D03*
X308249503Y-176856939D03*
X304254985Y-177066283D03*
X304163397Y-175318681D03*
%TD*%
D15*
%TO.C,D109*%
X117259125Y-158413399D03*
X117167537Y-160161001D03*
X113173019Y-159951657D03*
X113264607Y-158204055D03*
%TD*%
D16*
%TO.C,C86*%
X362000000Y-93200000D03*
X362000000Y-91300000D03*
%TD*%
D17*
%TO.C,D21*%
X126086354Y-138102261D03*
X125913646Y-141397739D03*
%TD*%
D18*
%TO.C,C2*%
X345612500Y-116500000D03*
X343887500Y-116500000D03*
%TD*%
D19*
%TO.C,D47*%
X63250000Y-174600000D03*
X63250000Y-177900000D03*
%TD*%
D18*
%TO.C,C61*%
X43862500Y-187250000D03*
X42137500Y-187250000D03*
%TD*%
D20*
%TO.C,R28*%
X353500000Y-91337500D03*
X353500000Y-93162500D03*
%TD*%
%TO.C,R27*%
X324100000Y-72187500D03*
X324100000Y-74012500D03*
%TD*%
D21*
%TO.C,C51*%
X168861318Y-142045140D03*
X167138682Y-141954860D03*
%TD*%
D22*
%TO.C,U4*%
X355362500Y-93200000D03*
X355362500Y-92250000D03*
X355362500Y-91300000D03*
X357637500Y-91300000D03*
X357637500Y-93200000D03*
%TD*%
D15*
%TO.C,D108*%
X98235233Y-157416399D03*
X98143645Y-159164001D03*
X94149127Y-158954657D03*
X94240715Y-157207055D03*
%TD*%
D13*
%TO.C,C32*%
X202111318Y-142454860D03*
X200388682Y-142545140D03*
%TD*%
D14*
%TO.C,D129*%
X229684107Y-179221975D03*
X229775695Y-180969577D03*
X225781177Y-181178921D03*
X225689589Y-179431319D03*
%TD*%
D23*
%TO.C,D76*%
X92128799Y-95397410D03*
X92128799Y-93647410D03*
X96128799Y-93647410D03*
X96128799Y-95397410D03*
%TD*%
D19*
%TO.C,D61*%
X39250000Y-186100000D03*
X39250000Y-189400000D03*
%TD*%
D24*
%TO.C,C94*%
X375000000Y-92725000D03*
X375000000Y-89775000D03*
%TD*%
D18*
%TO.C,C59*%
X68112500Y-199000000D03*
X66387500Y-199000000D03*
%TD*%
D14*
%TO.C,D102*%
X265737893Y-139180189D03*
X265829481Y-140927791D03*
X261834963Y-141137135D03*
X261743375Y-139389533D03*
%TD*%
D15*
%TO.C,D80*%
X100229233Y-119368615D03*
X100137645Y-121116217D03*
X96143127Y-120906873D03*
X96234715Y-119159271D03*
%TD*%
D17*
%TO.C,D33*%
X87086354Y-155602261D03*
X86913646Y-158897739D03*
%TD*%
D13*
%TO.C,C8*%
X242361318Y-178454860D03*
X240638682Y-178545140D03*
%TD*%
D25*
%TO.C,R1*%
X320750000Y-92162500D03*
X320750000Y-90337500D03*
%TD*%
%TO.C,R15*%
X326000000Y-92162500D03*
X326000000Y-90337500D03*
%TD*%
D17*
%TO.C,D50*%
X124336354Y-176102261D03*
X124163646Y-179397739D03*
%TD*%
D26*
%TO.C,R46*%
X372162500Y-71500000D03*
X370337500Y-71500000D03*
%TD*%
D27*
%TO.C,C78*%
X201400000Y-199162500D03*
X201400000Y-197437500D03*
%TD*%
D20*
%TO.C,R26*%
X311700000Y-86887500D03*
X311700000Y-88712500D03*
%TD*%
D19*
%TO.C,D17*%
X340750000Y-113350000D03*
X340750000Y-116650000D03*
%TD*%
D17*
%TO.C,D9*%
X165181925Y-121352261D03*
X165009217Y-124647739D03*
%TD*%
D25*
%TO.C,R11*%
X336250000Y-92912500D03*
X336250000Y-91087500D03*
%TD*%
D28*
%TO.C,C82*%
X203551302Y-100749719D03*
X205448698Y-100650281D03*
%TD*%
D13*
%TO.C,C31*%
X317361318Y-155704860D03*
X315638682Y-155795140D03*
%TD*%
D29*
%TO.C,C96*%
X199250000Y-193887500D03*
X199250000Y-195612500D03*
%TD*%
D25*
%TO.C,R6*%
X341760000Y-74052500D03*
X341760000Y-72227500D03*
%TD*%
D23*
%TO.C,D106*%
X376000000Y-138785000D03*
X376000000Y-140535000D03*
X372000000Y-140535000D03*
X372000000Y-138785000D03*
%TD*%
D30*
%TO.C,D10*%
X196663646Y-122352261D03*
X196836354Y-125647739D03*
%TD*%
%TO.C,D25*%
X216413646Y-140602261D03*
X216586354Y-143897739D03*
%TD*%
D31*
%TO.C,C81*%
X204871751Y-202128249D03*
X203528249Y-203471751D03*
%TD*%
D25*
%TO.C,R18*%
X346500000Y-93162500D03*
X346500000Y-91337500D03*
%TD*%
D14*
%TO.C,D144*%
X284527650Y-198281729D03*
X284619238Y-200029331D03*
X280624720Y-200238675D03*
X280533132Y-198491073D03*
%TD*%
D25*
%TO.C,R36*%
X203100000Y-199212500D03*
X203100000Y-197387500D03*
%TD*%
D30*
%TO.C,D13*%
X253772423Y-119358261D03*
X253945131Y-122653739D03*
%TD*%
%TO.C,D68*%
X248913646Y-198102261D03*
X249086354Y-201397739D03*
%TD*%
D21*
%TO.C,C18*%
X148861318Y-160045140D03*
X147138682Y-159954860D03*
%TD*%
D18*
%TO.C,C3*%
X369612500Y-177000000D03*
X367887500Y-177000000D03*
%TD*%
%TO.C,C69*%
X337362500Y-182000000D03*
X335637500Y-182000000D03*
%TD*%
%TO.C,C5*%
X46362500Y-112500000D03*
X44637500Y-112500000D03*
%TD*%
D19*
%TO.C,D2*%
X85000000Y-92600000D03*
X85000000Y-95900000D03*
%TD*%
D32*
%TO.C,R60*%
X300675000Y-92300000D03*
X302500000Y-92300000D03*
%TD*%
D21*
%TO.C,C29*%
X130861318Y-140045140D03*
X129138682Y-139954860D03*
%TD*%
D17*
%TO.C,D51*%
X143086354Y-177102261D03*
X142913646Y-180397739D03*
%TD*%
D25*
%TO.C,R24*%
X331100000Y-74012500D03*
X331100000Y-72187500D03*
%TD*%
D13*
%TO.C,C35*%
X277361318Y-119454860D03*
X275638682Y-119545140D03*
%TD*%
D14*
%TO.C,D104*%
X303786178Y-137186163D03*
X303877766Y-138933765D03*
X299883248Y-139143109D03*
X299791660Y-137395507D03*
%TD*%
D17*
%TO.C,D7*%
X127134139Y-119596261D03*
X126961431Y-122891739D03*
%TD*%
D30*
%TO.C,D42*%
X274403123Y-156569427D03*
X274575831Y-159864905D03*
%TD*%
D21*
%TO.C,C36*%
X117361318Y-200545140D03*
X115638682Y-200454860D03*
%TD*%
%TO.C,C25*%
X153112164Y-201494740D03*
X151389528Y-201404460D03*
%TD*%
D33*
%TO.C,Q1*%
X300650000Y-88162500D03*
X302550000Y-88162500D03*
X301600000Y-90437500D03*
%TD*%
D34*
%TO.C,C89*%
X317300000Y-72200000D03*
X317300000Y-74100000D03*
%TD*%
D19*
%TO.C,D72*%
X351750000Y-198850000D03*
X351750000Y-202150000D03*
%TD*%
D25*
%TO.C,R7*%
X343960000Y-74052500D03*
X343960000Y-72227500D03*
%TD*%
D18*
%TO.C,C60*%
X65612500Y-137500000D03*
X63887500Y-137500000D03*
%TD*%
D21*
%TO.C,C37*%
X90861318Y-176045140D03*
X89138682Y-175954860D03*
%TD*%
D17*
%TO.C,D6*%
X108086354Y-118352261D03*
X107913646Y-121647739D03*
%TD*%
D16*
%TO.C,C85*%
X199500000Y-199250000D03*
X199500000Y-197350000D03*
%TD*%
D13*
%TO.C,C33*%
X297361318Y-137704860D03*
X295638682Y-137795140D03*
%TD*%
D14*
%TO.C,D88*%
X264740893Y-120156297D03*
X264832481Y-121903899D03*
X260837963Y-122113243D03*
X260746375Y-120365641D03*
%TD*%
D15*
%TO.C,D98*%
X175327803Y-142380507D03*
X175236215Y-144128109D03*
X171241697Y-143918765D03*
X171333285Y-142171163D03*
%TD*%
D20*
%TO.C,R66*%
X354660000Y-72227500D03*
X354660000Y-74052500D03*
%TD*%
D15*
%TO.C,D125*%
X135286018Y-178434292D03*
X135194430Y-180181894D03*
X131199912Y-179972550D03*
X131291500Y-178224948D03*
%TD*%
D30*
%TO.C,D43*%
X293814708Y-155412020D03*
X293987416Y-158707498D03*
%TD*%
D15*
%TO.C,D110*%
X136283018Y-159410399D03*
X136191430Y-161158001D03*
X132196912Y-160948657D03*
X132288500Y-159201055D03*
%TD*%
D13*
%TO.C,C43*%
X241361318Y-159454860D03*
X239638682Y-159545140D03*
%TD*%
D15*
%TO.C,D83*%
X157300911Y-122359615D03*
X157209323Y-124107217D03*
X153214805Y-123897873D03*
X153306393Y-122150271D03*
%TD*%
%TO.C,D140*%
X159481384Y-201777188D03*
X159389796Y-203524790D03*
X155395278Y-203315446D03*
X155486866Y-201567844D03*
%TD*%
D23*
%TO.C,D121*%
X376000000Y-157835000D03*
X376000000Y-159585000D03*
X372000000Y-159585000D03*
X372000000Y-157835000D03*
%TD*%
%TO.C,D92*%
X351851791Y-116652409D03*
X351851791Y-118402409D03*
X347851791Y-118402409D03*
X347851791Y-116652409D03*
%TD*%
D25*
%TO.C,R20*%
X320800000Y-74052500D03*
X320800000Y-72227500D03*
%TD*%
D34*
%TO.C,C88*%
X309800000Y-72150000D03*
X309800000Y-74050000D03*
%TD*%
D15*
%TO.C,D94*%
X99232233Y-138392507D03*
X99140645Y-140140109D03*
X95146127Y-139930765D03*
X95237715Y-138183163D03*
%TD*%
D30*
%TO.C,D16*%
X310844600Y-116367235D03*
X311017308Y-119662713D03*
%TD*%
D19*
%TO.C,D18*%
X61000000Y-136350000D03*
X61000000Y-139650000D03*
%TD*%
D30*
%TO.C,D54*%
X218715638Y-178423939D03*
X218888346Y-181719417D03*
%TD*%
D21*
%TO.C,C49*%
X112861318Y-120045140D03*
X111138682Y-119954860D03*
%TD*%
D25*
%TO.C,R14*%
X329500000Y-92912500D03*
X329500000Y-91087500D03*
%TD*%
D14*
%TO.C,D87*%
X245717001Y-121153297D03*
X245808589Y-122900899D03*
X241814071Y-123110243D03*
X241722483Y-121362641D03*
%TD*%
D23*
%TO.C,D137*%
X74486766Y-199154754D03*
X74486766Y-200904754D03*
X70486766Y-200904754D03*
X70486766Y-199154754D03*
%TD*%
D25*
%TO.C,R2*%
X319000000Y-92162500D03*
X319000000Y-90337500D03*
%TD*%
D15*
%TO.C,D123*%
X97238233Y-176440292D03*
X97146645Y-178187894D03*
X93152127Y-177978550D03*
X93243715Y-176230948D03*
%TD*%
D17*
%TO.C,D35*%
X125586354Y-157602261D03*
X125413646Y-160897739D03*
%TD*%
D21*
%TO.C,C73*%
X129861318Y-159045140D03*
X128138682Y-158954860D03*
%TD*%
D15*
%TO.C,D84*%
X176324803Y-123356614D03*
X176233215Y-125104216D03*
X172238697Y-124894872D03*
X172330285Y-123147270D03*
%TD*%
D13*
%TO.C,C1*%
X239250000Y-121500000D03*
X237527364Y-121590280D03*
%TD*%
D25*
%TO.C,R13*%
X331750000Y-92912500D03*
X331750000Y-91087500D03*
%TD*%
D23*
%TO.C,D146*%
X343800791Y-200927097D03*
X343800791Y-202677097D03*
X339800791Y-202677097D03*
X339800791Y-200927097D03*
%TD*%
D14*
%TO.C,D91*%
X321813070Y-117165271D03*
X321904658Y-118912873D03*
X317910140Y-119122217D03*
X317818552Y-117374615D03*
%TD*%
D17*
%TO.C,D23*%
X164336354Y-140102261D03*
X164163646Y-143397739D03*
%TD*%
D13*
%TO.C,C75*%
X223361318Y-179704860D03*
X221638682Y-179795140D03*
%TD*%
D21*
%TO.C,C4*%
X92861318Y-138045140D03*
X91138682Y-137954860D03*
%TD*%
D17*
%TO.C,D48*%
X85586354Y-174352261D03*
X85413646Y-177647739D03*
%TD*%
D14*
%TO.C,D115*%
X247711000Y-159201082D03*
X247802588Y-160948684D03*
X243808070Y-161158028D03*
X243716482Y-159410426D03*
%TD*%
D13*
%TO.C,C55*%
X259361318Y-139704860D03*
X257638682Y-139795140D03*
%TD*%
D21*
%TO.C,C7*%
X167861318Y-161045140D03*
X166138682Y-160954860D03*
%TD*%
D25*
%TO.C,R65*%
X201000000Y-192162500D03*
X201000000Y-190337500D03*
%TD*%
D32*
%TO.C,R63*%
X52087500Y-92241069D03*
X53912500Y-92241069D03*
%TD*%
D25*
%TO.C,R37*%
X344500000Y-93162500D03*
X344500000Y-91337500D03*
%TD*%
D32*
%TO.C,R59*%
X300687500Y-86300000D03*
X302512500Y-86300000D03*
%TD*%
D30*
%TO.C,D56*%
X256763423Y-176429939D03*
X256936131Y-179725417D03*
%TD*%
D19*
%TO.C,D46*%
X363750000Y-156450000D03*
X363750000Y-159750000D03*
%TD*%
D14*
%TO.C,D130*%
X248708000Y-178224975D03*
X248799588Y-179972577D03*
X244805070Y-180181921D03*
X244713482Y-178434319D03*
%TD*%
D18*
%TO.C,C17*%
X96112500Y-97750000D03*
X94387500Y-97750000D03*
%TD*%
D15*
%TO.C,D138*%
X98942090Y-199944395D03*
X98850502Y-201691997D03*
X94855984Y-201482653D03*
X94947572Y-199735051D03*
%TD*%
D18*
%TO.C,C79*%
X308262500Y-86900000D03*
X306537500Y-86900000D03*
%TD*%
%TO.C,C14*%
X369725000Y-158000000D03*
X368000000Y-158000000D03*
%TD*%
D19*
%TO.C,D71*%
X332750000Y-199100000D03*
X332750000Y-202400000D03*
%TD*%
D23*
%TO.C,D136*%
X50245566Y-187185164D03*
X50245566Y-188935164D03*
X46245566Y-188935164D03*
X46245566Y-187185164D03*
%TD*%
D15*
%TO.C,D95*%
X118256126Y-139389507D03*
X118164538Y-141137109D03*
X114170020Y-140927765D03*
X114261608Y-139180163D03*
%TD*%
D14*
%TO.C,D131*%
X267731893Y-177227975D03*
X267823481Y-178975577D03*
X263828963Y-179184921D03*
X263737375Y-177437319D03*
%TD*%
D13*
%TO.C,C21*%
X221361318Y-141704860D03*
X219638682Y-141795140D03*
%TD*%
D19*
%TO.C,D45*%
X337750000Y-143700000D03*
X337750000Y-147000000D03*
%TD*%
D18*
%TO.C,C16*%
X77112500Y-97750000D03*
X75387500Y-97750000D03*
%TD*%
D30*
%TO.C,D12*%
X234748531Y-120355261D03*
X234921239Y-123650739D03*
%TD*%
D23*
%TO.C,D107*%
X69724266Y-156657614D03*
X69724266Y-158407614D03*
X65724266Y-158407614D03*
X65724266Y-156657614D03*
%TD*%
D27*
%TO.C,C98*%
X114700000Y-88862500D03*
X114700000Y-87137500D03*
%TD*%
D15*
%TO.C,D96*%
X137280018Y-140386507D03*
X137188430Y-142134109D03*
X133193912Y-141924765D03*
X133285500Y-140177163D03*
%TD*%
D13*
%TO.C,C22*%
X316361318Y-136454860D03*
X314638682Y-136545140D03*
%TD*%
D30*
%TO.C,D30*%
X311841600Y-135391127D03*
X312014308Y-138686605D03*
%TD*%
D21*
%TO.C,C28*%
X150861318Y-122045140D03*
X149138682Y-121954860D03*
%TD*%
D14*
%TO.C,D101*%
X246714001Y-140177189D03*
X246805589Y-141924791D03*
X242811071Y-142134135D03*
X242719483Y-140386533D03*
%TD*%
D23*
%TO.C,D79*%
X76868066Y-118557964D03*
X76868066Y-120307964D03*
X72868066Y-120307964D03*
X72868066Y-118557964D03*
%TD*%
D25*
%TO.C,R64*%
X199250000Y-192162500D03*
X199250000Y-190337500D03*
%TD*%
%TO.C,R31*%
X369500000Y-103662500D03*
X369500000Y-101837500D03*
%TD*%
D13*
%TO.C,C42*%
X301861318Y-175454860D03*
X300138682Y-175545140D03*
%TD*%
D14*
%TO.C,D142*%
X224808263Y-201004480D03*
X224899851Y-202752082D03*
X220905333Y-202961426D03*
X220813745Y-201213824D03*
%TD*%
D15*
%TO.C,D112*%
X174330803Y-161404400D03*
X174239215Y-163152002D03*
X170244697Y-162942658D03*
X170336285Y-161195056D03*
%TD*%
D23*
%TO.C,D145*%
X324750791Y-200927097D03*
X324750791Y-202677097D03*
X320750791Y-202677097D03*
X320750791Y-200927097D03*
%TD*%
D19*
%TO.C,D66*%
X179250000Y-201350000D03*
X179250000Y-204650000D03*
%TD*%
D30*
%TO.C,D57*%
X275577292Y-175454522D03*
X275750000Y-178750000D03*
%TD*%
%TO.C,D58*%
X296413646Y-174352261D03*
X296586354Y-177647739D03*
%TD*%
D21*
%TO.C,C27*%
X169861318Y-123045140D03*
X168138682Y-122954860D03*
%TD*%
D15*
%TO.C,D127*%
X173333804Y-180428292D03*
X173242216Y-182175894D03*
X169247698Y-181966550D03*
X169339286Y-180218948D03*
%TD*%
D30*
%TO.C,D41*%
X255766423Y-157406046D03*
X255939131Y-160701524D03*
%TD*%
D14*
%TO.C,D143*%
X260746237Y-199508019D03*
X260837825Y-201255621D03*
X256843307Y-201464965D03*
X256751719Y-199717363D03*
%TD*%
D15*
%TO.C,D126*%
X154309911Y-179431292D03*
X154218323Y-181178894D03*
X150223805Y-180969550D03*
X150315393Y-179221948D03*
%TD*%
D21*
%TO.C,C71*%
X110861318Y-158045140D03*
X109138682Y-157954860D03*
%TD*%
D17*
%TO.C,D5*%
X89086354Y-117602261D03*
X88913646Y-120897739D03*
%TD*%
D23*
%TO.C,D120*%
X349467291Y-145226109D03*
X349467291Y-146976109D03*
X345467291Y-146976109D03*
X345467291Y-145226109D03*
%TD*%
%TO.C,D93*%
X72105566Y-137609764D03*
X72105566Y-139359764D03*
X68105566Y-139359764D03*
X68105566Y-137609764D03*
%TD*%
D30*
%TO.C,D28*%
X273513646Y-137352261D03*
X273686354Y-140647739D03*
%TD*%
D13*
%TO.C,C41*%
X278111318Y-198704860D03*
X276388682Y-198795140D03*
%TD*%
%TO.C,C20*%
X279361318Y-157704860D03*
X277638682Y-157795140D03*
%TD*%
D23*
%TO.C,D147*%
X362850791Y-200927097D03*
X362850791Y-202677097D03*
X358850791Y-202677097D03*
X358850791Y-200927097D03*
%TD*%
D25*
%TO.C,R9*%
X348360000Y-74052500D03*
X348360000Y-72227500D03*
%TD*%
D21*
%TO.C,C62*%
X149861318Y-141045140D03*
X148138682Y-140954860D03*
%TD*%
D30*
%TO.C,D38*%
X198475404Y-160602261D03*
X198648112Y-163897739D03*
%TD*%
D20*
%TO.C,R67*%
X352460000Y-72227500D03*
X352460000Y-74052500D03*
%TD*%
D25*
%TO.C,R3*%
X317200000Y-92212500D03*
X317200000Y-90387500D03*
%TD*%
D23*
%TO.C,D77*%
X73078799Y-95397410D03*
X73078799Y-93647410D03*
X77078799Y-93647410D03*
X77078799Y-95397410D03*
%TD*%
D15*
%TO.C,D111*%
X155306910Y-160407399D03*
X155215322Y-162155001D03*
X151220804Y-161945657D03*
X151312392Y-160198055D03*
%TD*%
D17*
%TO.C,D36*%
X144586354Y-158602261D03*
X144413646Y-161897739D03*
%TD*%
D14*
%TO.C,D85*%
X207669215Y-123147297D03*
X207760803Y-124894899D03*
X203766285Y-125104243D03*
X203674697Y-123356641D03*
%TD*%
D23*
%TO.C,D122*%
X74486766Y-175707164D03*
X74486766Y-177457164D03*
X70486766Y-177457164D03*
X70486766Y-175707164D03*
%TD*%
D14*
%TO.C,D128*%
X210660215Y-180218975D03*
X210751803Y-181966577D03*
X206757285Y-182175921D03*
X206665697Y-180428319D03*
%TD*%
D29*
%TO.C,C92*%
X369500000Y-105387500D03*
X369500000Y-107112500D03*
%TD*%
D15*
%TO.C,D97*%
X156303911Y-141383507D03*
X156212323Y-143131109D03*
X152217805Y-142921765D03*
X152309393Y-141174163D03*
%TD*%
D13*
%TO.C,C54*%
X222361318Y-160454860D03*
X220638682Y-160545140D03*
%TD*%
D21*
%TO.C,C39*%
X131861318Y-121045140D03*
X130138682Y-120954860D03*
%TD*%
D23*
%TO.C,D135*%
X376000000Y-176884075D03*
X376000000Y-178634075D03*
X372000000Y-178634075D03*
X372000000Y-176884075D03*
%TD*%
D20*
%TO.C,R30*%
X322400000Y-72227500D03*
X322400000Y-74052500D03*
%TD*%
D13*
%TO.C,C76*%
X203361318Y-161454860D03*
X201638682Y-161545140D03*
%TD*%
D30*
%TO.C,D67*%
X212911590Y-197773757D03*
X213084298Y-201069235D03*
%TD*%
%TO.C,D15*%
X291820708Y-117364235D03*
X291993416Y-120659713D03*
%TD*%
D15*
%TO.C,D82*%
X138277018Y-121362615D03*
X138185430Y-123110217D03*
X134190912Y-122900873D03*
X134282500Y-121153271D03*
%TD*%
D21*
%TO.C,C38*%
X166861318Y-180295140D03*
X165138682Y-180204860D03*
%TD*%
D13*
%TO.C,C64*%
X261361318Y-177454860D03*
X259638682Y-177545140D03*
%TD*%
D20*
%TO.C,R35*%
X310000000Y-86887500D03*
X310000000Y-88712500D03*
%TD*%
%TO.C,R29*%
X327500000Y-72187500D03*
X327500000Y-74012500D03*
%TD*%
D17*
%TO.C,D49*%
X105086354Y-175102261D03*
X104913646Y-178397739D03*
%TD*%
D13*
%TO.C,C12*%
X220361318Y-122454860D03*
X218638682Y-122545140D03*
%TD*%
D17*
%TO.C,D52*%
X162336354Y-178352261D03*
X162163646Y-181647739D03*
%TD*%
D19*
%TO.C,D31*%
X364250000Y-136350000D03*
X364250000Y-139650000D03*
%TD*%
D21*
%TO.C,C50*%
X93861318Y-119045140D03*
X92138682Y-118954860D03*
%TD*%
D30*
%TO.C,D69*%
X273163646Y-197102261D03*
X273336354Y-200397739D03*
%TD*%
D13*
%TO.C,C19*%
X218359262Y-201126356D03*
X216636626Y-201216636D03*
%TD*%
D35*
%TO.C,C80*%
X304250000Y-92300000D03*
X306150000Y-92300000D03*
%TD*%
D30*
%TO.C,D44*%
X312838600Y-154415020D03*
X313011308Y-157710498D03*
%TD*%
D18*
%TO.C,C72*%
X63362500Y-156750000D03*
X61637500Y-156750000D03*
%TD*%
D14*
%TO.C,D105*%
X322810070Y-136189163D03*
X322901658Y-137936765D03*
X318907140Y-138146109D03*
X318815552Y-136398507D03*
%TD*%
D20*
%TO.C,R22*%
X365500000Y-201087500D03*
X365500000Y-202912500D03*
%TD*%
D18*
%TO.C,C52*%
X318362500Y-201000000D03*
X316637500Y-201000000D03*
%TD*%
D23*
%TO.C,D134*%
X343800791Y-181877097D03*
X343800791Y-183627097D03*
X339800791Y-183627097D03*
X339800791Y-181877097D03*
%TD*%
D25*
%TO.C,R5*%
X339560000Y-74052500D03*
X339560000Y-72227500D03*
%TD*%
D15*
%TO.C,D139*%
X123740005Y-200792044D03*
X123648417Y-202539646D03*
X119653899Y-202330302D03*
X119745487Y-200582700D03*
%TD*%
%TO.C,D124*%
X116262125Y-177437292D03*
X116170537Y-179184894D03*
X112176019Y-178975550D03*
X112267607Y-177227948D03*
%TD*%
D17*
%TO.C,D63*%
X87086354Y-197602261D03*
X86913646Y-200897739D03*
%TD*%
D19*
%TO.C,D70*%
X313250000Y-199100000D03*
X313250000Y-202400000D03*
%TD*%
D29*
%TO.C,C93*%
X371250000Y-105387500D03*
X371250000Y-107112500D03*
%TD*%
D17*
%TO.C,D20*%
X107086354Y-137102261D03*
X106913646Y-140397739D03*
%TD*%
D30*
%TO.C,D53*%
X199163646Y-179602261D03*
X199336354Y-182897739D03*
%TD*%
D18*
%TO.C,C6*%
X70362500Y-118500000D03*
X68637500Y-118500000D03*
%TD*%
D25*
%TO.C,R16*%
X324250000Y-92162500D03*
X324250000Y-90337500D03*
%TD*%
D30*
%TO.C,D29*%
X292817708Y-136388127D03*
X292990416Y-139683605D03*
%TD*%
D19*
%TO.C,D1*%
X66200000Y-92600000D03*
X66200000Y-95900000D03*
%TD*%
D21*
%TO.C,C70*%
X92611318Y-199545140D03*
X90888682Y-199454860D03*
%TD*%
D19*
%TO.C,D3*%
X41750000Y-111350000D03*
X41750000Y-114650000D03*
%TD*%
D25*
%TO.C,R10*%
X338500000Y-92912500D03*
X338500000Y-91087500D03*
%TD*%
D18*
%TO.C,C11*%
X343112500Y-145250000D03*
X341387500Y-145250000D03*
%TD*%
D19*
%TO.C,D59*%
X332500000Y-180350000D03*
X332500000Y-183650000D03*
%TD*%
D17*
%TO.C,D64*%
X112250000Y-198250000D03*
X112077292Y-201545478D03*
%TD*%
D13*
%TO.C,C30*%
X254361318Y-199954860D03*
X252638682Y-200045140D03*
%TD*%
D21*
%TO.C,C26*%
X109861318Y-177045140D03*
X108138682Y-176954860D03*
%TD*%
D36*
%TO.C,C90*%
X315000000Y-71125000D03*
X315000000Y-74075000D03*
%TD*%
D21*
%TO.C,C63*%
X147861318Y-179045140D03*
X146138682Y-178954860D03*
%TD*%
D13*
%TO.C,C10*%
X260361318Y-158454860D03*
X258638682Y-158545140D03*
%TD*%
D32*
%TO.C,R21*%
X300687500Y-94000000D03*
X302512500Y-94000000D03*
%TD*%
D14*
%TO.C,D113*%
X209663215Y-161195082D03*
X209754803Y-162942684D03*
X205760285Y-163152028D03*
X205668697Y-161404426D03*
%TD*%
D25*
%TO.C,R23*%
X329200000Y-74012500D03*
X329200000Y-72187500D03*
%TD*%
D13*
%TO.C,C44*%
X278361318Y-138454860D03*
X276638682Y-138545140D03*
%TD*%
%TO.C,C46*%
X258361318Y-120454860D03*
X256638682Y-120545140D03*
%TD*%
%TO.C,C24*%
X296361318Y-118454860D03*
X294638682Y-118545140D03*
%TD*%
D23*
%TO.C,D78*%
X52800000Y-112525000D03*
X52800000Y-114275000D03*
X48800000Y-114275000D03*
X48800000Y-112525000D03*
%TD*%
D17*
%TO.C,D37*%
X163422708Y-159704522D03*
X163250000Y-163000000D03*
%TD*%
%TO.C,D34*%
X106336354Y-156602261D03*
X106163646Y-159897739D03*
%TD*%
D21*
%TO.C,C15*%
X91861318Y-157045140D03*
X90138682Y-156954860D03*
%TD*%
D19*
%TO.C,D4*%
X65750000Y-117350000D03*
X65750000Y-120650000D03*
%TD*%
D30*
%TO.C,D39*%
X217718638Y-159400046D03*
X217891346Y-162695524D03*
%TD*%
D20*
%TO.C,R33*%
X359260000Y-72227500D03*
X359260000Y-74052500D03*
%TD*%
D14*
%TO.C,D89*%
X283764786Y-119159297D03*
X283856374Y-120906899D03*
X279861856Y-121116243D03*
X279770268Y-119368641D03*
%TD*%
D17*
%TO.C,D19*%
X88336354Y-136602261D03*
X88163646Y-139897739D03*
%TD*%
D16*
%TO.C,C83*%
X190000000Y-116550000D03*
X190000000Y-114650000D03*
%TD*%
D18*
%TO.C,C48*%
X68112500Y-175750000D03*
X66387500Y-175750000D03*
%TD*%
D13*
%TO.C,C53*%
X280361318Y-176704860D03*
X278638682Y-176795140D03*
%TD*%
D20*
%TO.C,R25*%
X325800000Y-72187500D03*
X325800000Y-74012500D03*
%TD*%
D18*
%TO.C,C58*%
X337362500Y-201000000D03*
X335637500Y-201000000D03*
%TD*%
D13*
%TO.C,C13*%
X315361318Y-117454860D03*
X313638682Y-117545140D03*
%TD*%
D25*
%TO.C,R38*%
X340750000Y-92912500D03*
X340750000Y-91087500D03*
%TD*%
D14*
%TO.C,D90*%
X302789178Y-118162271D03*
X302880766Y-119909873D03*
X298886248Y-120119217D03*
X298794660Y-118371615D03*
%TD*%
D30*
%TO.C,D26*%
X235745531Y-139379153D03*
X235918239Y-142674631D03*
%TD*%
D17*
%TO.C,D22*%
X145336354Y-139102261D03*
X145163646Y-142397739D03*
%TD*%
D14*
%TO.C,D99*%
X208666215Y-142171189D03*
X208757803Y-143918791D03*
X204763285Y-144128135D03*
X204671697Y-142380533D03*
%TD*%
%TO.C,D119*%
X323807070Y-155213056D03*
X323898658Y-156960658D03*
X319904140Y-157170002D03*
X319812552Y-155422400D03*
%TD*%
%TO.C,D103*%
X284761786Y-138183189D03*
X284853374Y-139930791D03*
X280858856Y-140140135D03*
X280767268Y-138392533D03*
%TD*%
D20*
%TO.C,R34*%
X356960000Y-72227500D03*
X356960000Y-74052500D03*
%TD*%
D30*
%TO.C,D40*%
X236742531Y-158403046D03*
X236915239Y-161698524D03*
%TD*%
D25*
%TO.C,R8*%
X346160000Y-74052500D03*
X346160000Y-72227500D03*
%TD*%
D19*
%TO.C,D32*%
X58500000Y-155600000D03*
X58500000Y-158900000D03*
%TD*%
D25*
%TO.C,R4*%
X337260000Y-74052500D03*
X337260000Y-72227500D03*
%TD*%
%TO.C,R12*%
X334000000Y-92912500D03*
X334000000Y-91087500D03*
%TD*%
D29*
%TO.C,C97*%
X201000000Y-193887500D03*
X201000000Y-195612500D03*
%TD*%
D21*
%TO.C,C40*%
X111861318Y-139045140D03*
X110138682Y-138954860D03*
%TD*%
D37*
%TO.C,C95*%
X50050000Y-75666069D03*
X53000000Y-75666069D03*
%TD*%
D17*
%TO.C,D65*%
X148337200Y-197801861D03*
X148164492Y-201097339D03*
%TD*%
D16*
%TO.C,C84*%
X351500000Y-93200000D03*
X351500000Y-91300000D03*
%TD*%
D30*
%TO.C,D27*%
X254769423Y-138382153D03*
X254942131Y-141677631D03*
%TD*%
D18*
%TO.C,C67*%
X369612500Y-138750000D03*
X367887500Y-138750000D03*
%TD*%
D19*
%TO.C,D60*%
X364750000Y-175600000D03*
X364750000Y-178900000D03*
%TD*%
D25*
%TO.C,R17*%
X322500000Y-92162500D03*
X322500000Y-90337500D03*
%TD*%
D14*
%TO.C,D117*%
X285758786Y-157207082D03*
X285850374Y-158954684D03*
X281855856Y-159164028D03*
X281764268Y-157416426D03*
%TD*%
D16*
%TO.C,C87*%
X359750000Y-93200000D03*
X359750000Y-91300000D03*
%TD*%
D13*
%TO.C,C23*%
X201111318Y-123454860D03*
X199388682Y-123545140D03*
%TD*%
D18*
%TO.C,C47*%
X356362500Y-201000000D03*
X354637500Y-201000000D03*
%TD*%
D30*
%TO.C,D11*%
X215724638Y-121352261D03*
X215897346Y-124647739D03*
%TD*%
%TO.C,D55*%
X237739531Y-177426939D03*
X237912239Y-180722417D03*
%TD*%
D14*
%TO.C,D114*%
X228687108Y-160198082D03*
X228778696Y-161945684D03*
X224784178Y-162155028D03*
X224692590Y-160407426D03*
%TD*%
D17*
%TO.C,D8*%
X146158032Y-120593261D03*
X145985324Y-123888739D03*
%TD*%
D14*
%TO.C,D100*%
X227690108Y-141174189D03*
X227781696Y-142921791D03*
X223787178Y-143131135D03*
X223695590Y-141383533D03*
%TD*%
D25*
%TO.C,R19*%
X319160000Y-74052500D03*
X319160000Y-72227500D03*
%TD*%
D14*
%TO.C,D132*%
X286755786Y-176230975D03*
X286847374Y-177978577D03*
X282852856Y-178187921D03*
X282761268Y-176440319D03*
%TD*%
D30*
%TO.C,D24*%
X196910646Y-141376153D03*
X197083354Y-144671631D03*
%TD*%
D14*
%TO.C,D118*%
X304783178Y-156210056D03*
X304874766Y-157957658D03*
X300880248Y-158167002D03*
X300788660Y-156419400D03*
%TD*%
D15*
%TO.C,D81*%
X119253125Y-120365615D03*
X119161537Y-122113217D03*
X115167019Y-121903873D03*
X115258607Y-120156271D03*
%TD*%
D19*
%TO.C,D62*%
X63500000Y-198100000D03*
X63500000Y-201400000D03*
%TD*%
D14*
%TO.C,D116*%
X266734893Y-158204082D03*
X266826481Y-159951684D03*
X262831963Y-160161028D03*
X262740375Y-158413426D03*
%TD*%
D25*
%TO.C,R32*%
X371250000Y-103662500D03*
X371250000Y-101837500D03*
%TD*%
D21*
%TO.C,C74*%
X128861318Y-178045140D03*
X127138682Y-177954860D03*
%TD*%
D14*
%TO.C,D86*%
X226693108Y-122150297D03*
X226784696Y-123897899D03*
X222790178Y-124107243D03*
X222698590Y-122359641D03*
%TD*%
D26*
%TO.C,R61*%
X302612500Y-84600000D03*
X300787500Y-84600000D03*
%TD*%
D36*
%TO.C,C91*%
X312100000Y-71125000D03*
X312100000Y-74075000D03*
%TD*%
D30*
%TO.C,D14*%
X272796316Y-118361261D03*
X272969024Y-121656739D03*
%TD*%
D38*
%TO.C,D169*%
X383900000Y-98750000D03*
X380600000Y-98750000D03*
%TD*%
D13*
%TO.C,C65*%
X204361318Y-180704860D03*
X202638682Y-180795140D03*
%TD*%
M02*
