%TF.GenerationSoftware,KiCad,Pcbnew,7.0.7*%
%TF.CreationDate,2023-12-22T23:47:26+01:00*%
%TF.ProjectId,isokey_frame,69736f6b-6579-45f6-9672-616d652e6b69,A*%
%TF.SameCoordinates,Original*%
%TF.FileFunction,Legend,Top*%
%TF.FilePolarity,Positive*%
%FSLAX46Y46*%
G04 Gerber Fmt 4.6, Leading zero omitted, Abs format (unit mm)*
G04 Created by KiCad (PCBNEW 7.0.7) date 2023-12-22 23:47:26*
%MOMM*%
%LPD*%
G01*
G04 APERTURE LIST*
%ADD10C,0.200000*%
%ADD11C,0.450000*%
%ADD12C,0.500000*%
%ADD13C,0.300000*%
G04 APERTURE END LIST*
D10*
X51974266Y-142083441D02*
X53605566Y-142083441D01*
X310064852Y-103186431D02*
X331282051Y-102074485D01*
X312250791Y-205851574D02*
X312250791Y-187852574D01*
X76962291Y-205579231D02*
X61236766Y-205579231D01*
X363500023Y-181809477D02*
G75*
G03*
X365000000Y-183309477I1499977J-23D01*
G01*
X106050295Y-105079146D02*
X176938303Y-108794229D01*
X195921497Y-109168458D02*
G75*
G03*
X194502056Y-110744879I78503J-1497942D01*
G01*
X370851556Y-123080667D02*
X383000234Y-123082565D01*
X64578799Y-96483441D02*
X64578799Y-80572887D01*
X383000000Y-183309477D02*
X365000000Y-183309477D01*
X369850791Y-207351574D02*
X313750791Y-207351574D01*
X196983806Y-188260506D02*
G75*
G03*
X198481749Y-186681973I-6J1500006D01*
G01*
X181518280Y-186681975D02*
G75*
G03*
X183016194Y-188260477I1497920J-78525D01*
G01*
X371350826Y-187852574D02*
G75*
G03*
X369850791Y-186352574I-1500026J-26D01*
G01*
X185497970Y-110744880D02*
G75*
G03*
X184078504Y-109168432I-1497970J78480D01*
G01*
X40318059Y-117482441D02*
G75*
G03*
X41818066Y-118982441I1500041J41D01*
G01*
X104628813Y-80572887D02*
G75*
G03*
X103128799Y-79072887I-1500013J-13D01*
G01*
X106050295Y-105079146D02*
X176938303Y-108794229D01*
X51974266Y-142083466D02*
G75*
G03*
X50474266Y-143583441I34J-1500034D01*
G01*
X294163185Y-205893160D02*
X201727906Y-209162980D01*
X313750791Y-186352591D02*
G75*
G03*
X312250791Y-187852574I9J-1500009D01*
G01*
X319729840Y-161860095D02*
G75*
G03*
X318310396Y-163436463I78460J-1497905D01*
G01*
X332800791Y-167302574D02*
X350800791Y-167302574D01*
X59736769Y-204079231D02*
G75*
G03*
X61236766Y-205579231I1500131J131D01*
G01*
X363500064Y-162154736D02*
G75*
G03*
X362000000Y-160654736I-1500064J-64D01*
G01*
D11*
X387199971Y-194399940D02*
G75*
G03*
X380623528Y-187823528I-2111181J4465252D01*
G01*
D10*
X176938303Y-108794229D02*
X184078504Y-109168431D01*
X307085170Y-202625924D02*
G75*
G03*
X307085170Y-202625924I-3200000J0D01*
G01*
X292020275Y-89191583D02*
G75*
G03*
X292020275Y-89191583I-3200000J0D01*
G01*
X294163184Y-205893120D02*
G75*
G03*
X295608100Y-204315593I-52984J1499020D01*
G01*
X312250826Y-205851574D02*
G75*
G03*
X313750791Y-207351574I1499974J-26D01*
G01*
X193200000Y-216000000D02*
G75*
G03*
X193200000Y-216000000I-3200000J0D01*
G01*
X387200000Y-205851574D02*
G75*
G03*
X387200000Y-205851574I-3200000J0D01*
G01*
X87803799Y-74822887D02*
G75*
G03*
X87803799Y-74822887I-3200000J0D01*
G01*
X37745566Y-192109641D02*
X37745566Y-174110641D01*
X198481750Y-186681973D02*
X194502056Y-110744879D01*
D12*
X381000000Y-192750000D02*
X383000000Y-192750000D01*
X383000000Y-194750000D01*
X381000000Y-194750000D01*
X381000000Y-192750000D01*
D10*
X185497944Y-110744879D02*
X181518250Y-186681973D01*
X201727906Y-209162976D02*
G75*
G03*
X196429003Y-210608166I424294J-11992724D01*
G01*
X352300791Y-168802574D02*
X352300791Y-184852574D01*
X198481750Y-186681973D02*
X194502056Y-110744879D01*
X183570987Y-210608184D02*
G75*
G03*
X178272094Y-209162980I-5723087J-10547016D01*
G01*
X383000000Y-183309500D02*
G75*
G03*
X384500000Y-181809477I0J1500000D01*
G01*
X41818066Y-97983366D02*
G75*
G03*
X40318066Y-99483441I34J-1500034D01*
G01*
X390650000Y-134759979D02*
G75*
G03*
X390650000Y-134759979I-2900000J0D01*
G01*
X369351733Y-121580667D02*
G75*
G03*
X370851556Y-123080667I1500067J67D01*
G01*
X384500000Y-124582565D02*
X384500000Y-181809477D01*
X342727925Y-160654736D02*
X319729836Y-161860015D01*
X318310395Y-163436463D02*
X319150382Y-179464367D01*
X48974266Y-172610666D02*
G75*
G03*
X50474266Y-171110641I34J1499966D01*
G01*
X55105659Y-120482441D02*
G75*
G03*
X53605566Y-118982441I-1499959J41D01*
G01*
D12*
X384000000Y-192750000D02*
X386000000Y-192750000D01*
X386000000Y-194750000D01*
X384000000Y-194750000D01*
X384000000Y-192750000D01*
D10*
X53605566Y-142083466D02*
G75*
G03*
X55105566Y-140583441I34J1499966D01*
G01*
X53605566Y-118982441D02*
X41818066Y-118982441D01*
X331300791Y-184852574D02*
X331300791Y-168802574D01*
X58236766Y-193609641D02*
X39245566Y-193609641D01*
X183016194Y-188260477D02*
X196983806Y-188260477D01*
X40318066Y-117482441D02*
X40318066Y-99483441D01*
X41818066Y-97983441D02*
X63078799Y-97983441D01*
X317730942Y-181040816D02*
X295950203Y-182182296D01*
X195921496Y-109168431D02*
X313759781Y-102992788D01*
X352300826Y-184852574D02*
G75*
G03*
X353800791Y-186352574I1499974J-26D01*
G01*
X55105566Y-140583441D02*
X55105566Y-120482441D01*
D12*
X384000000Y-189750000D02*
X386000000Y-189750000D01*
X386000000Y-191750000D01*
X384000000Y-191750000D01*
X384000000Y-189750000D01*
D10*
X332800791Y-167302591D02*
G75*
G03*
X331300791Y-168802574I9J-1500009D01*
G01*
X369351802Y-103580198D02*
G75*
G03*
X367852025Y-102080198I-1500002J-2D01*
G01*
X371350791Y-187852574D02*
X371350791Y-205851574D01*
X39245566Y-172610636D02*
G75*
G03*
X37745566Y-174110641I-6J-1499994D01*
G01*
X294530762Y-183758744D02*
X295608101Y-204315593D01*
X291040959Y-104183431D02*
X309016291Y-103241384D01*
X37745559Y-192109641D02*
G75*
G03*
X39245566Y-193609641I1500041J41D01*
G01*
X50474266Y-171110641D02*
X50474266Y-143583441D01*
X59736766Y-204079231D02*
X59736766Y-195109641D01*
X183200000Y-99759977D02*
G75*
G03*
X183200000Y-99759977I-3200000J0D01*
G01*
X295950201Y-182182260D02*
G75*
G03*
X294530763Y-183758744I78499J-1497940D01*
G01*
X369351791Y-103580198D02*
X369351791Y-121580667D01*
X375200000Y-97866120D02*
G75*
G03*
X375200000Y-97866120I-3200000J0D01*
G01*
X193200000Y-177759977D02*
G75*
G03*
X193200000Y-177759977I-3200000J0D01*
G01*
X104628799Y-80572887D02*
X104628799Y-103581201D01*
X42445566Y-202625924D02*
G75*
G03*
X42445566Y-202625924I-3200000J0D01*
G01*
X63078799Y-97983399D02*
G75*
G03*
X64578799Y-96483441I101J1499899D01*
G01*
X331282051Y-102074485D02*
X367852025Y-102080198D01*
X104628799Y-103581201D02*
G75*
G03*
X106050295Y-105079145I1500001J1D01*
G01*
X329800791Y-186352591D02*
G75*
G03*
X331300791Y-184852574I9J1499991D01*
G01*
X183570997Y-210608166D02*
G75*
G03*
X196429003Y-210608166I6429003J11848187D01*
G01*
X363500000Y-181809477D02*
X363500000Y-162154736D01*
X66078799Y-79072887D02*
X103128799Y-79072887D01*
X39245566Y-172610641D02*
X48974266Y-172610641D01*
X317730940Y-181040775D02*
G75*
G03*
X319150381Y-179464367I-78540J1497975D01*
G01*
X178272094Y-209162980D02*
X76962291Y-205579231D01*
D12*
X381000000Y-189750000D02*
X383000000Y-189750000D01*
X383000000Y-191750000D01*
X381000000Y-191750000D01*
X381000000Y-189750000D01*
D10*
X352300826Y-168802574D02*
G75*
G03*
X350800791Y-167302574I-1500026J-26D01*
G01*
X147079280Y-107229384D02*
X165054611Y-108171431D01*
X59736859Y-195109641D02*
G75*
G03*
X58236766Y-193609641I-1499959J41D01*
G01*
X384500035Y-124582565D02*
G75*
G03*
X383000234Y-123082565I-1500035J-35D01*
G01*
X193200000Y-125759979D02*
G75*
G03*
X193200000Y-125759979I-3200000J0D01*
G01*
X42445566Y-124080117D02*
G75*
G03*
X42445566Y-124080117I-3200000J0D01*
G01*
X362000000Y-160654736D02*
X342727925Y-160654736D01*
X369850791Y-207351591D02*
G75*
G03*
X371350791Y-205851574I9J1499991D01*
G01*
X353800791Y-186352574D02*
X369850791Y-186352574D01*
X313750791Y-186352574D02*
X329800791Y-186352574D01*
X66078799Y-79072899D02*
G75*
G03*
X64578799Y-80572887I1J-1500001D01*
G01*
D13*
G36*
X376326517Y-196779392D02*
G01*
X376326517Y-197317948D01*
X376478925Y-197317948D01*
X376515653Y-197318864D01*
X376549633Y-197321612D01*
X376580866Y-197326191D01*
X376616042Y-197334491D01*
X376646926Y-197345654D01*
X376673516Y-197359679D01*
X376695812Y-197376566D01*
X376717975Y-197399561D01*
X376735552Y-197425132D01*
X376748543Y-197453279D01*
X376756950Y-197484002D01*
X376760771Y-197517302D01*
X376761025Y-197528974D01*
X376758733Y-197563157D01*
X376751855Y-197594816D01*
X376740392Y-197623951D01*
X376724343Y-197650561D01*
X376703709Y-197674646D01*
X376695812Y-197682114D01*
X376668541Y-197701786D01*
X376641093Y-197715070D01*
X376609351Y-197725528D01*
X376573315Y-197733160D01*
X376541396Y-197737230D01*
X376506728Y-197739491D01*
X376478925Y-197740000D01*
X375837787Y-197740000D01*
X375801048Y-197739095D01*
X375767033Y-197736382D01*
X375735743Y-197731859D01*
X375700463Y-197723663D01*
X375669440Y-197712640D01*
X375642675Y-197698790D01*
X375620167Y-197682114D01*
X375598254Y-197658870D01*
X375580874Y-197633101D01*
X375568029Y-197604808D01*
X375559717Y-197573991D01*
X375555939Y-197540649D01*
X375555687Y-197528974D01*
X375558005Y-197494816D01*
X375564960Y-197463234D01*
X375576552Y-197434228D01*
X375592781Y-197407799D01*
X375613647Y-197383945D01*
X375621632Y-197376566D01*
X375649324Y-197356645D01*
X375676927Y-197343193D01*
X375708644Y-197332602D01*
X375744475Y-197324874D01*
X375776103Y-197320753D01*
X375810364Y-197318463D01*
X375837787Y-197317948D01*
X375903733Y-197317948D01*
X375903733Y-195770425D01*
X375837787Y-195770425D01*
X375801048Y-195769521D01*
X375767033Y-195766807D01*
X375735743Y-195762285D01*
X375700463Y-195754088D01*
X375669440Y-195743065D01*
X375642675Y-195729216D01*
X375620167Y-195712540D01*
X375598254Y-195689296D01*
X375580874Y-195663527D01*
X375568029Y-195635234D01*
X375559717Y-195604416D01*
X375555939Y-195571074D01*
X375555687Y-195559399D01*
X375557954Y-195525242D01*
X375564754Y-195493660D01*
X375576089Y-195464654D01*
X375591957Y-195438224D01*
X375612359Y-195414371D01*
X375620167Y-195406992D01*
X375647687Y-195387071D01*
X375675304Y-195373618D01*
X375707178Y-195363028D01*
X375743310Y-195355300D01*
X375775281Y-195351179D01*
X375809977Y-195348889D01*
X375837787Y-195348374D01*
X376478925Y-195348374D01*
X376515653Y-195349289D01*
X376549633Y-195352037D01*
X376580866Y-195356617D01*
X376616042Y-195364917D01*
X376646926Y-195376080D01*
X376673516Y-195390105D01*
X376695812Y-195406992D01*
X376717975Y-195429987D01*
X376735552Y-195455558D01*
X376748543Y-195483705D01*
X376756950Y-195514428D01*
X376760771Y-195547727D01*
X376761025Y-195559399D01*
X376758733Y-195593583D01*
X376751855Y-195625242D01*
X376740392Y-195654376D01*
X376724343Y-195680987D01*
X376703709Y-195705072D01*
X376695812Y-195712540D01*
X376668541Y-195732212D01*
X376641093Y-195745496D01*
X376609351Y-195755954D01*
X376573315Y-195763585D01*
X376541396Y-195767655D01*
X376506728Y-195769916D01*
X376478925Y-195770425D01*
X376326517Y-195770425D01*
X376326517Y-196286266D01*
X377076831Y-195770425D01*
X377046423Y-195767540D01*
X377018345Y-195757397D01*
X376994760Y-195737562D01*
X376985973Y-195724263D01*
X376973930Y-195694118D01*
X376967288Y-195665462D01*
X376963031Y-195632248D01*
X376961279Y-195600151D01*
X376961060Y-195582847D01*
X376963327Y-195548277D01*
X376970128Y-195515459D01*
X376981462Y-195484392D01*
X376997330Y-195455077D01*
X377017732Y-195427514D01*
X377025540Y-195418715D01*
X377048048Y-195398451D01*
X377074813Y-195381621D01*
X377105836Y-195368226D01*
X377141117Y-195358265D01*
X377172407Y-195352770D01*
X377206421Y-195349473D01*
X377243161Y-195348374D01*
X377674005Y-195348374D01*
X377710745Y-195349289D01*
X377744759Y-195352037D01*
X377776049Y-195356617D01*
X377811329Y-195364917D01*
X377842352Y-195376080D01*
X377869118Y-195390105D01*
X377891625Y-195406992D01*
X377913788Y-195429987D01*
X377931365Y-195455558D01*
X377944356Y-195483705D01*
X377952762Y-195514428D01*
X377956584Y-195547727D01*
X377956838Y-195559399D01*
X377954546Y-195593583D01*
X377947668Y-195625242D01*
X377936205Y-195654376D01*
X377920156Y-195680987D01*
X377899522Y-195705072D01*
X377891625Y-195712540D01*
X377864620Y-195732212D01*
X377838220Y-195745496D01*
X377808278Y-195755954D01*
X377774793Y-195763585D01*
X377745455Y-195767655D01*
X377713851Y-195769916D01*
X377688660Y-195770425D01*
X376930286Y-196317041D01*
X376956744Y-196332935D01*
X376982996Y-196349842D01*
X377009042Y-196367762D01*
X377034883Y-196386696D01*
X377060517Y-196406642D01*
X377085945Y-196427603D01*
X377111167Y-196449576D01*
X377136182Y-196472562D01*
X377160992Y-196496562D01*
X377185596Y-196521575D01*
X377209993Y-196547601D01*
X377234185Y-196574641D01*
X377258170Y-196602693D01*
X377281950Y-196631759D01*
X377305523Y-196661838D01*
X377328890Y-196692930D01*
X377352080Y-196724910D01*
X377374937Y-196757834D01*
X377397463Y-196791703D01*
X377419657Y-196826516D01*
X377441518Y-196862274D01*
X377463048Y-196898976D01*
X377484246Y-196936623D01*
X377505111Y-196975214D01*
X377525645Y-197014750D01*
X377545846Y-197055230D01*
X377565716Y-197096655D01*
X377585253Y-197139025D01*
X377604459Y-197182339D01*
X377623332Y-197226597D01*
X377641874Y-197271800D01*
X377660083Y-197317948D01*
X377772923Y-197317948D01*
X377809308Y-197318864D01*
X377842991Y-197321612D01*
X377873971Y-197326191D01*
X377908898Y-197334491D01*
X377939602Y-197345654D01*
X377966085Y-197359679D01*
X377988346Y-197376566D01*
X378010508Y-197399561D01*
X378028085Y-197425132D01*
X378041076Y-197453279D01*
X378049483Y-197484002D01*
X378053304Y-197517302D01*
X378053558Y-197528974D01*
X378051292Y-197563157D01*
X378044491Y-197594816D01*
X378033157Y-197623951D01*
X378017288Y-197650561D01*
X377996886Y-197674646D01*
X377989078Y-197682114D01*
X377962056Y-197701786D01*
X377934776Y-197715070D01*
X377903166Y-197725528D01*
X377867227Y-197733160D01*
X377835359Y-197737230D01*
X377800721Y-197739491D01*
X377772923Y-197740000D01*
X377389706Y-197740000D01*
X377373123Y-197699081D01*
X377356344Y-197658392D01*
X377339371Y-197617932D01*
X377322204Y-197577700D01*
X377304842Y-197537698D01*
X377287285Y-197497924D01*
X377269533Y-197458380D01*
X377251587Y-197419064D01*
X377233446Y-197379978D01*
X377215111Y-197341120D01*
X377196581Y-197302492D01*
X377177856Y-197264092D01*
X377158937Y-197225922D01*
X377139823Y-197187980D01*
X377120515Y-197150268D01*
X377101011Y-197112784D01*
X377085126Y-197082982D01*
X377069344Y-197054211D01*
X377053665Y-197026471D01*
X377038088Y-196999760D01*
X377022615Y-196974081D01*
X376999599Y-196937493D01*
X376976814Y-196903224D01*
X376954261Y-196871273D01*
X376931940Y-196841640D01*
X376909851Y-196814326D01*
X376887993Y-196789330D01*
X376866368Y-196766653D01*
X376859211Y-196759609D01*
X376837386Y-196739250D01*
X376814775Y-196719664D01*
X376791378Y-196700850D01*
X376767196Y-196682810D01*
X376742228Y-196665542D01*
X376716475Y-196649047D01*
X376689936Y-196633325D01*
X376662611Y-196618375D01*
X376634500Y-196604199D01*
X376605604Y-196590795D01*
X376585903Y-196582288D01*
X376326517Y-196779392D01*
G37*
G36*
X379274762Y-195911441D02*
G01*
X379306421Y-195912437D01*
X379337754Y-195914097D01*
X379368760Y-195916421D01*
X379399441Y-195919410D01*
X379429794Y-195923062D01*
X379459822Y-195927378D01*
X379489523Y-195932358D01*
X379518898Y-195938002D01*
X379547947Y-195944311D01*
X379576669Y-195951283D01*
X379605065Y-195958920D01*
X379647048Y-195971619D01*
X379688296Y-195985813D01*
X379715387Y-195996106D01*
X379754806Y-196012027D01*
X379792280Y-196028194D01*
X379827810Y-196044605D01*
X379861394Y-196061261D01*
X379893034Y-196078162D01*
X379922729Y-196095307D01*
X379950479Y-196112697D01*
X379976284Y-196130332D01*
X380000144Y-196148212D01*
X380028932Y-196172432D01*
X380035589Y-196178555D01*
X380063021Y-196205800D01*
X380089539Y-196234231D01*
X380115142Y-196263846D01*
X380139831Y-196294647D01*
X380163606Y-196326632D01*
X380186465Y-196359802D01*
X380208411Y-196394157D01*
X380229442Y-196429698D01*
X380249558Y-196466423D01*
X380268760Y-196504333D01*
X380281053Y-196530265D01*
X380292838Y-196558148D01*
X380303464Y-196586842D01*
X380312931Y-196616348D01*
X380321239Y-196646665D01*
X380328387Y-196677794D01*
X380334376Y-196709735D01*
X380339206Y-196742486D01*
X380342877Y-196776049D01*
X380345389Y-196810424D01*
X380346741Y-196845610D01*
X380346999Y-196869518D01*
X380346999Y-197036580D01*
X378614096Y-197036580D01*
X378627356Y-197063699D01*
X378642406Y-197089826D01*
X378659247Y-197114961D01*
X378677878Y-197139105D01*
X378698299Y-197162257D01*
X378720510Y-197184417D01*
X378744512Y-197205585D01*
X378770304Y-197225761D01*
X378797887Y-197244946D01*
X378827260Y-197263139D01*
X378847836Y-197274717D01*
X378880341Y-197290823D01*
X378914932Y-197305346D01*
X378951610Y-197318283D01*
X378990375Y-197329637D01*
X379031226Y-197339407D01*
X379074163Y-197347592D01*
X379103948Y-197352169D01*
X379134659Y-197356041D01*
X379166298Y-197359210D01*
X379198865Y-197361674D01*
X379232358Y-197363434D01*
X379266779Y-197364490D01*
X379302128Y-197364842D01*
X379332133Y-197364453D01*
X379363345Y-197363285D01*
X379395765Y-197361339D01*
X379429394Y-197358614D01*
X379464230Y-197355111D01*
X379500274Y-197350829D01*
X379537526Y-197345769D01*
X379575985Y-197339930D01*
X379615653Y-197333312D01*
X379656528Y-197325916D01*
X379698611Y-197317742D01*
X379741902Y-197308789D01*
X379786401Y-197299057D01*
X379832108Y-197288547D01*
X379879023Y-197277259D01*
X379927145Y-197265191D01*
X379956364Y-197257858D01*
X379992617Y-197249203D01*
X380025778Y-197241830D01*
X380055849Y-197235739D01*
X380089090Y-197229929D01*
X380122604Y-197225601D01*
X380149162Y-197224159D01*
X380180057Y-197226271D01*
X380208994Y-197232608D01*
X380240279Y-197245340D01*
X380268900Y-197263823D01*
X380291311Y-197284242D01*
X380310983Y-197307581D01*
X380326585Y-197333083D01*
X380338117Y-197360750D01*
X380345579Y-197390580D01*
X380348971Y-197422573D01*
X380349197Y-197433719D01*
X380347033Y-197463618D01*
X380339039Y-197496286D01*
X380325154Y-197526569D01*
X380305379Y-197554469D01*
X380287648Y-197572937D01*
X380263250Y-197591874D01*
X380231457Y-197610581D01*
X380202758Y-197624462D01*
X380169899Y-197638213D01*
X380132880Y-197651836D01*
X380091700Y-197665330D01*
X380061936Y-197674254D01*
X380030323Y-197683121D01*
X379996860Y-197691931D01*
X379961549Y-197700684D01*
X379924389Y-197709379D01*
X379885380Y-197718018D01*
X379845543Y-197726358D01*
X379805902Y-197734161D01*
X379766455Y-197741425D01*
X379727202Y-197748151D01*
X379688144Y-197754339D01*
X379649281Y-197759989D01*
X379610612Y-197765101D01*
X379572138Y-197769675D01*
X379533859Y-197773711D01*
X379495774Y-197777208D01*
X379457884Y-197780168D01*
X379420189Y-197782589D01*
X379382688Y-197784473D01*
X379345382Y-197785818D01*
X379308270Y-197786625D01*
X379271353Y-197786894D01*
X379239906Y-197786632D01*
X379208854Y-197785844D01*
X379178197Y-197784531D01*
X379147934Y-197782692D01*
X379118067Y-197780329D01*
X379088595Y-197777440D01*
X379030835Y-197770087D01*
X378974655Y-197760633D01*
X378920056Y-197749078D01*
X378867036Y-197735423D01*
X378815596Y-197719666D01*
X378765736Y-197701809D01*
X378717456Y-197681851D01*
X378670756Y-197659791D01*
X378625636Y-197635631D01*
X378582096Y-197609371D01*
X378540136Y-197581009D01*
X378499756Y-197550546D01*
X378460956Y-197517983D01*
X378424133Y-197483794D01*
X378389686Y-197448637D01*
X378357615Y-197412513D01*
X378327920Y-197375421D01*
X378300600Y-197337362D01*
X378275655Y-197298336D01*
X378253087Y-197258342D01*
X378232894Y-197217381D01*
X378215076Y-197175452D01*
X378199635Y-197132556D01*
X378186569Y-197088693D01*
X378175878Y-197043862D01*
X378167564Y-196998063D01*
X378161624Y-196951297D01*
X378158061Y-196903564D01*
X378156873Y-196854863D01*
X378158155Y-196803175D01*
X378162002Y-196752705D01*
X378168414Y-196703455D01*
X378176269Y-196661423D01*
X378626552Y-196661423D01*
X379879518Y-196661423D01*
X379860855Y-196631245D01*
X379841136Y-196602536D01*
X379820360Y-196575295D01*
X379798529Y-196549522D01*
X379775641Y-196525217D01*
X379751697Y-196502381D01*
X379726697Y-196481013D01*
X379700641Y-196461113D01*
X379673528Y-196442682D01*
X379645360Y-196425719D01*
X379625994Y-196415226D01*
X379596072Y-196400560D01*
X379565106Y-196387337D01*
X379533097Y-196375556D01*
X379500045Y-196365218D01*
X379465949Y-196356322D01*
X379430810Y-196348869D01*
X379394628Y-196342858D01*
X379357403Y-196338290D01*
X379319135Y-196335164D01*
X379279823Y-196333481D01*
X379253035Y-196333161D01*
X379213421Y-196333882D01*
X379174811Y-196336046D01*
X379137205Y-196339652D01*
X379100605Y-196344701D01*
X379065009Y-196351193D01*
X379030417Y-196359127D01*
X378996831Y-196368503D01*
X378964248Y-196379323D01*
X378932671Y-196391584D01*
X378902098Y-196405289D01*
X378882274Y-196415226D01*
X378853382Y-196431210D01*
X378825508Y-196448663D01*
X378798651Y-196467583D01*
X378772812Y-196487973D01*
X378747990Y-196509830D01*
X378724185Y-196533156D01*
X378701399Y-196557950D01*
X378679629Y-196584212D01*
X378658877Y-196611942D01*
X378639143Y-196641141D01*
X378626552Y-196661423D01*
X378176269Y-196661423D01*
X378177390Y-196655424D01*
X378188930Y-196608612D01*
X378203035Y-196563020D01*
X378219705Y-196518647D01*
X378238939Y-196475493D01*
X378260737Y-196433559D01*
X378285101Y-196392844D01*
X378312028Y-196353348D01*
X378341521Y-196315071D01*
X378373578Y-196278014D01*
X378408199Y-196242176D01*
X378445385Y-196207558D01*
X378485136Y-196174159D01*
X378526649Y-196142305D01*
X378568941Y-196112506D01*
X378612012Y-196084763D01*
X378655861Y-196059074D01*
X378700489Y-196035441D01*
X378745895Y-196013863D01*
X378792080Y-195994340D01*
X378839043Y-195976871D01*
X378886785Y-195961458D01*
X378935306Y-195948100D01*
X378984605Y-195936797D01*
X379034682Y-195927550D01*
X379085538Y-195920357D01*
X379137172Y-195915219D01*
X379189585Y-195912137D01*
X379242777Y-195911109D01*
X379274762Y-195911441D01*
G37*
G36*
X381571388Y-197693105D02*
G01*
X380840125Y-196380055D01*
X380809056Y-196378642D01*
X380774984Y-196373215D01*
X380744415Y-196363718D01*
X380717350Y-196350152D01*
X380693788Y-196332515D01*
X380683321Y-196322170D01*
X380665143Y-196298926D01*
X380650726Y-196273157D01*
X380640070Y-196244864D01*
X380633175Y-196214047D01*
X380630041Y-196180705D01*
X380629832Y-196169030D01*
X380632099Y-196134872D01*
X380638900Y-196103290D01*
X380650234Y-196074284D01*
X380666102Y-196047855D01*
X380686504Y-196024001D01*
X380694312Y-196016622D01*
X380721832Y-195996701D01*
X380749449Y-195983248D01*
X380781324Y-195972658D01*
X380817456Y-195964930D01*
X380849427Y-195960809D01*
X380884122Y-195958519D01*
X380911933Y-195958004D01*
X381297348Y-195958004D01*
X381334087Y-195958920D01*
X381368102Y-195961667D01*
X381399392Y-195966247D01*
X381434672Y-195974547D01*
X381465695Y-195985710D01*
X381492460Y-195999735D01*
X381514968Y-196016622D01*
X381537130Y-196039617D01*
X381554707Y-196065188D01*
X381567699Y-196093335D01*
X381576105Y-196124058D01*
X381579926Y-196157357D01*
X381580181Y-196169030D01*
X381577888Y-196203213D01*
X381571010Y-196234872D01*
X381559547Y-196264007D01*
X381543499Y-196290617D01*
X381522865Y-196314702D01*
X381514968Y-196322170D01*
X381487886Y-196341842D01*
X381461303Y-196355126D01*
X381431071Y-196365584D01*
X381397189Y-196373215D01*
X381367456Y-196377285D01*
X381335388Y-196379547D01*
X381309804Y-196380055D01*
X381808792Y-197263726D01*
X382303384Y-196380055D01*
X382270423Y-196379151D01*
X382239682Y-196376437D01*
X382204381Y-196370502D01*
X382172549Y-196361740D01*
X382144188Y-196350152D01*
X382114736Y-196332515D01*
X382101884Y-196322170D01*
X382079970Y-196298926D01*
X382062591Y-196273157D01*
X382049745Y-196244864D01*
X382041434Y-196214047D01*
X382037655Y-196180705D01*
X382037404Y-196169030D01*
X382039670Y-196134872D01*
X382046471Y-196103290D01*
X382057805Y-196074284D01*
X382073674Y-196047855D01*
X382094076Y-196024001D01*
X382101884Y-196016622D01*
X382129404Y-195996701D01*
X382157021Y-195983248D01*
X382188895Y-195972658D01*
X382225027Y-195964930D01*
X382256998Y-195960809D01*
X382291694Y-195958519D01*
X382319504Y-195958004D01*
X382717376Y-195958004D01*
X382753600Y-195958920D01*
X382787168Y-195961667D01*
X382818080Y-195966247D01*
X382852985Y-195974547D01*
X382883739Y-195985710D01*
X382910344Y-195999735D01*
X382932798Y-196016622D01*
X382954960Y-196039617D01*
X382972537Y-196065188D01*
X382985529Y-196093335D01*
X382993935Y-196124058D01*
X382997756Y-196157357D01*
X382998011Y-196169030D01*
X382996053Y-196203213D01*
X382990180Y-196234872D01*
X382980391Y-196264007D01*
X382966687Y-196290617D01*
X382949067Y-196314702D01*
X382942323Y-196322170D01*
X382919560Y-196341842D01*
X382893036Y-196357444D01*
X382862751Y-196368976D01*
X382828705Y-196376437D01*
X382797460Y-196379547D01*
X382777459Y-196380055D01*
X381808792Y-198115157D01*
X381846665Y-198115157D01*
X381881149Y-198115157D01*
X381912244Y-198115157D01*
X381946348Y-198115157D01*
X381980282Y-198115157D01*
X382010235Y-198115157D01*
X382016887Y-198115157D01*
X382040071Y-198143939D01*
X382060164Y-198172035D01*
X382077166Y-198199443D01*
X382091076Y-198226165D01*
X382104117Y-198258601D01*
X382112328Y-198289964D01*
X382115709Y-198320253D01*
X382115806Y-198326182D01*
X382113513Y-198360340D01*
X382106635Y-198391922D01*
X382095172Y-198420928D01*
X382079123Y-198447357D01*
X382058490Y-198471211D01*
X382050593Y-198478590D01*
X382023296Y-198498511D01*
X381995786Y-198511963D01*
X381963948Y-198522554D01*
X381927780Y-198530282D01*
X381895729Y-198534403D01*
X381860907Y-198536693D01*
X381832972Y-198537208D01*
X380911933Y-198537208D01*
X380875193Y-198536292D01*
X380841178Y-198533545D01*
X380809889Y-198528965D01*
X380774608Y-198520665D01*
X380743585Y-198509502D01*
X380716820Y-198495477D01*
X380694312Y-198478590D01*
X380672399Y-198455595D01*
X380655020Y-198430024D01*
X380642174Y-198401877D01*
X380633862Y-198371154D01*
X380630084Y-198337854D01*
X380629832Y-198326182D01*
X380632099Y-198291999D01*
X380638900Y-198260340D01*
X380650234Y-198231205D01*
X380666102Y-198204595D01*
X380686504Y-198180510D01*
X380694312Y-198173042D01*
X380721832Y-198153370D01*
X380749449Y-198140086D01*
X380781324Y-198129628D01*
X380817456Y-198121997D01*
X380849427Y-198117926D01*
X380884122Y-198115665D01*
X380911933Y-198115157D01*
X381332519Y-198115157D01*
X381571388Y-197693105D01*
G37*
G36*
X50331803Y-196306680D02*
G01*
X50371631Y-196308226D01*
X50411144Y-196310802D01*
X50450342Y-196314408D01*
X50489225Y-196319045D01*
X50527794Y-196324712D01*
X50566047Y-196331410D01*
X50603986Y-196339138D01*
X50641610Y-196347896D01*
X50678919Y-196357685D01*
X50715913Y-196368504D01*
X50752592Y-196380354D01*
X50788957Y-196393234D01*
X50825007Y-196407144D01*
X50860741Y-196422085D01*
X50896161Y-196438056D01*
X50931235Y-196454789D01*
X50965748Y-196472197D01*
X50999699Y-196490280D01*
X51033090Y-196509039D01*
X51065920Y-196528474D01*
X51098188Y-196548584D01*
X51129896Y-196569369D01*
X51161043Y-196590830D01*
X51191628Y-196612966D01*
X51221653Y-196635778D01*
X51251117Y-196659266D01*
X51280020Y-196683428D01*
X51308361Y-196708267D01*
X51336142Y-196733781D01*
X51363362Y-196759970D01*
X51390020Y-196786835D01*
X51416138Y-196814232D01*
X51441552Y-196842202D01*
X51466261Y-196870744D01*
X51490267Y-196899858D01*
X51513568Y-196929545D01*
X51536165Y-196959805D01*
X51558059Y-196990636D01*
X51579248Y-197022041D01*
X51599732Y-197054017D01*
X51619513Y-197086567D01*
X51638590Y-197119688D01*
X51656963Y-197153382D01*
X51674631Y-197187649D01*
X51691595Y-197222488D01*
X51707856Y-197257899D01*
X51723412Y-197293883D01*
X51738141Y-197330256D01*
X51751920Y-197366835D01*
X51764748Y-197403621D01*
X51776626Y-197440612D01*
X51787554Y-197477809D01*
X51797532Y-197515213D01*
X51806559Y-197552822D01*
X51814637Y-197590638D01*
X51821764Y-197628660D01*
X51827940Y-197666888D01*
X51833167Y-197705321D01*
X51837443Y-197743961D01*
X51840769Y-197782808D01*
X51843144Y-197821860D01*
X51844570Y-197861118D01*
X51845045Y-197900582D01*
X51844578Y-197939603D01*
X51843179Y-197978446D01*
X51840846Y-198017112D01*
X51837580Y-198055600D01*
X51833381Y-198093911D01*
X51828249Y-198132044D01*
X51822184Y-198170000D01*
X51815186Y-198207779D01*
X51807255Y-198245380D01*
X51798391Y-198282803D01*
X51788593Y-198320049D01*
X51777863Y-198357118D01*
X51766199Y-198394009D01*
X51753603Y-198430723D01*
X51740073Y-198467259D01*
X51725610Y-198503618D01*
X51710320Y-198539524D01*
X51694309Y-198574887D01*
X51677576Y-198609706D01*
X51660122Y-198643981D01*
X51641947Y-198677712D01*
X51623051Y-198710900D01*
X51603433Y-198743543D01*
X51583094Y-198775643D01*
X51562034Y-198807199D01*
X51540253Y-198838211D01*
X51517750Y-198868680D01*
X51494526Y-198898604D01*
X51470581Y-198927985D01*
X51445914Y-198956822D01*
X51420526Y-198985115D01*
X51394417Y-199012864D01*
X51367758Y-199039995D01*
X51340538Y-199066433D01*
X51312758Y-199092179D01*
X51284416Y-199117232D01*
X51255513Y-199141593D01*
X51226050Y-199165260D01*
X51196025Y-199188235D01*
X51165439Y-199210518D01*
X51134292Y-199232107D01*
X51102585Y-199253004D01*
X51070316Y-199273209D01*
X51037486Y-199292721D01*
X51004096Y-199311540D01*
X50970144Y-199329666D01*
X50935631Y-199347100D01*
X50900558Y-199363841D01*
X50865121Y-199379724D01*
X50829334Y-199394581D01*
X50793199Y-199408414D01*
X50756714Y-199421223D01*
X50719880Y-199433007D01*
X50682697Y-199443766D01*
X50645165Y-199453500D01*
X50607283Y-199462210D01*
X50569052Y-199469895D01*
X50530473Y-199476555D01*
X50491544Y-199482191D01*
X50452265Y-199486802D01*
X50412638Y-199490388D01*
X50372661Y-199492950D01*
X50332335Y-199494487D01*
X50291660Y-199495000D01*
X49078262Y-199495000D01*
X49078262Y-197009584D01*
X49880600Y-197009584D01*
X49880600Y-198791580D01*
X50074773Y-198791580D01*
X50115570Y-198790988D01*
X50155530Y-198789210D01*
X50194653Y-198786248D01*
X50232939Y-198782100D01*
X50270388Y-198776768D01*
X50306999Y-198770251D01*
X50342773Y-198762549D01*
X50377710Y-198753661D01*
X50411810Y-198743589D01*
X50445073Y-198732332D01*
X50466782Y-198724169D01*
X50498592Y-198711085D01*
X50529448Y-198697113D01*
X50559351Y-198682251D01*
X50588301Y-198666501D01*
X50616298Y-198649862D01*
X50643341Y-198632335D01*
X50669432Y-198613918D01*
X50694569Y-198594614D01*
X50718754Y-198574420D01*
X50741985Y-198553337D01*
X50756943Y-198538789D01*
X50778704Y-198516146D01*
X50799473Y-198492730D01*
X50819250Y-198468541D01*
X50838035Y-198443580D01*
X50855829Y-198417846D01*
X50872631Y-198391339D01*
X50888441Y-198364059D01*
X50903260Y-198336006D01*
X50917086Y-198307181D01*
X50929921Y-198277582D01*
X50937927Y-198257421D01*
X50949188Y-198226644D01*
X50959342Y-198195314D01*
X50968388Y-198163429D01*
X50976326Y-198130991D01*
X50983157Y-198097999D01*
X50988880Y-198064453D01*
X50993496Y-198030353D01*
X50997003Y-197995700D01*
X50999403Y-197960492D01*
X51000695Y-197924731D01*
X51000942Y-197900582D01*
X51000375Y-197865218D01*
X50998675Y-197830292D01*
X50995841Y-197795803D01*
X50991874Y-197761753D01*
X50986774Y-197728141D01*
X50980540Y-197694966D01*
X50973172Y-197662229D01*
X50964672Y-197629931D01*
X50955037Y-197598070D01*
X50944270Y-197566647D01*
X50936461Y-197545942D01*
X50923895Y-197515442D01*
X50910375Y-197485766D01*
X50895902Y-197456915D01*
X50880476Y-197428888D01*
X50864097Y-197401686D01*
X50846765Y-197375307D01*
X50828480Y-197349754D01*
X50809241Y-197325024D01*
X50789050Y-197301119D01*
X50767905Y-197278038D01*
X50753279Y-197263108D01*
X50730553Y-197241433D01*
X50706886Y-197220647D01*
X50682278Y-197200750D01*
X50656731Y-197181741D01*
X50630243Y-197163621D01*
X50602815Y-197146390D01*
X50574447Y-197130047D01*
X50545139Y-197114593D01*
X50514890Y-197100028D01*
X50483701Y-197086352D01*
X50462386Y-197077728D01*
X50429720Y-197065550D01*
X50396295Y-197054570D01*
X50362109Y-197044787D01*
X50327163Y-197036203D01*
X50291458Y-197028816D01*
X50254992Y-197022627D01*
X50217767Y-197017636D01*
X50179782Y-197013843D01*
X50141037Y-197011248D01*
X50101532Y-197009850D01*
X50074773Y-197009584D01*
X49880600Y-197009584D01*
X49078262Y-197009584D01*
X49078262Y-196306165D01*
X50291660Y-196306165D01*
X50331803Y-196306680D01*
G37*
G36*
X53654982Y-196306998D02*
G01*
X53706931Y-196309497D01*
X53757243Y-196313661D01*
X53805918Y-196319491D01*
X53852956Y-196326988D01*
X53898356Y-196336150D01*
X53942120Y-196346977D01*
X53984246Y-196359471D01*
X54024735Y-196373630D01*
X54063587Y-196389456D01*
X54100801Y-196406947D01*
X54136379Y-196426103D01*
X54170319Y-196446926D01*
X54202622Y-196469415D01*
X54233288Y-196493569D01*
X54262316Y-196519389D01*
X54289734Y-196546775D01*
X54315382Y-196575626D01*
X54339261Y-196605942D01*
X54361372Y-196637725D01*
X54381714Y-196670972D01*
X54400287Y-196705685D01*
X54417091Y-196741864D01*
X54432126Y-196779508D01*
X54445393Y-196818617D01*
X54456890Y-196859192D01*
X54466619Y-196901232D01*
X54474579Y-196944738D01*
X54480770Y-196989709D01*
X54485192Y-197036146D01*
X54487845Y-197084048D01*
X54488729Y-197133415D01*
X54488403Y-197163409D01*
X54487424Y-197192755D01*
X54484732Y-197235562D01*
X54480572Y-197276913D01*
X54474944Y-197316809D01*
X54467847Y-197355249D01*
X54459281Y-197392234D01*
X54449248Y-197427763D01*
X54437746Y-197461837D01*
X54424776Y-197494456D01*
X54410338Y-197525619D01*
X54405198Y-197535683D01*
X54388901Y-197565202D01*
X54371058Y-197593858D01*
X54351669Y-197621651D01*
X54330735Y-197648581D01*
X54308255Y-197674648D01*
X54284229Y-197699852D01*
X54258658Y-197724193D01*
X54231542Y-197747671D01*
X54202879Y-197770286D01*
X54172672Y-197792038D01*
X54151674Y-197806060D01*
X54185263Y-197812820D01*
X54217886Y-197820185D01*
X54249543Y-197828156D01*
X54280234Y-197836732D01*
X54309959Y-197845913D01*
X54338718Y-197855700D01*
X54366510Y-197866092D01*
X54402065Y-197880889D01*
X54435902Y-197896763D01*
X54460153Y-197909375D01*
X54491283Y-197927098D01*
X54520924Y-197945828D01*
X54549077Y-197965566D01*
X54575741Y-197986311D01*
X54600917Y-198008064D01*
X54624605Y-198030825D01*
X54646804Y-198054593D01*
X54667515Y-198079368D01*
X54686772Y-198104876D01*
X54704610Y-198131209D01*
X54721027Y-198158365D01*
X54736025Y-198186346D01*
X54749604Y-198215152D01*
X54761762Y-198244781D01*
X54772501Y-198275235D01*
X54781821Y-198306514D01*
X54790064Y-198338273D01*
X54797208Y-198370536D01*
X54803253Y-198403303D01*
X54808199Y-198436573D01*
X54812046Y-198470347D01*
X54814794Y-198504625D01*
X54816442Y-198539407D01*
X54816992Y-198574692D01*
X54816303Y-198616020D01*
X54814236Y-198656472D01*
X54810790Y-198696048D01*
X54805967Y-198734748D01*
X54799765Y-198772572D01*
X54792185Y-198809521D01*
X54783227Y-198845593D01*
X54772891Y-198880790D01*
X54761176Y-198915111D01*
X54748084Y-198948556D01*
X54738590Y-198970366D01*
X54723329Y-199002169D01*
X54706948Y-199033006D01*
X54689446Y-199062876D01*
X54670824Y-199091781D01*
X54651081Y-199119720D01*
X54630218Y-199146693D01*
X54608234Y-199172700D01*
X54585129Y-199197741D01*
X54560904Y-199221816D01*
X54535558Y-199244924D01*
X54518039Y-199259794D01*
X54490845Y-199281267D01*
X54462569Y-199301722D01*
X54433211Y-199321160D01*
X54402771Y-199339581D01*
X54371250Y-199356984D01*
X54338646Y-199373369D01*
X54304961Y-199388737D01*
X54270193Y-199403088D01*
X54234344Y-199416421D01*
X54197413Y-199428736D01*
X54172191Y-199436381D01*
X54133553Y-199446857D01*
X54094026Y-199456302D01*
X54053611Y-199464717D01*
X54012307Y-199472102D01*
X53970114Y-199478456D01*
X53927033Y-199483780D01*
X53897818Y-199486756D01*
X53868209Y-199489275D01*
X53838204Y-199491336D01*
X53807804Y-199492939D01*
X53777010Y-199494084D01*
X53745820Y-199494771D01*
X53714235Y-199495000D01*
X52378471Y-199495000D01*
X52378471Y-198181950D01*
X53180809Y-198181950D01*
X53180809Y-198826751D01*
X53369120Y-198826751D01*
X53408885Y-198826453D01*
X53447213Y-198825560D01*
X53484104Y-198824072D01*
X53519559Y-198821988D01*
X53553576Y-198819309D01*
X53586157Y-198816035D01*
X53617301Y-198812165D01*
X53647008Y-198807700D01*
X53688874Y-198799886D01*
X53727507Y-198790733D01*
X53762908Y-198780240D01*
X53795076Y-198768408D01*
X53824011Y-198755236D01*
X53832937Y-198750547D01*
X53865738Y-198729871D01*
X53894166Y-198706309D01*
X53918220Y-198679862D01*
X53937901Y-198650530D01*
X53953208Y-198618313D01*
X53964142Y-198583210D01*
X53970702Y-198545223D01*
X53972752Y-198514839D01*
X53972889Y-198504351D01*
X53971659Y-198473557D01*
X53967968Y-198444373D01*
X53959221Y-198407965D01*
X53946101Y-198374420D01*
X53928607Y-198343737D01*
X53906740Y-198315916D01*
X53880499Y-198290958D01*
X53849885Y-198268861D01*
X53832937Y-198258886D01*
X53805080Y-198245137D01*
X53773990Y-198232740D01*
X53739667Y-198221695D01*
X53702111Y-198212003D01*
X53661322Y-198203663D01*
X53632334Y-198198855D01*
X53601908Y-198194647D01*
X53570046Y-198191041D01*
X53536747Y-198188036D01*
X53502011Y-198185631D01*
X53465838Y-198183828D01*
X53428229Y-198182626D01*
X53389182Y-198182025D01*
X53369120Y-198181950D01*
X53180809Y-198181950D01*
X52378471Y-198181950D01*
X52378471Y-196962690D01*
X53180809Y-196962690D01*
X53180809Y-197572320D01*
X53338346Y-197572320D01*
X53386792Y-197571129D01*
X53432112Y-197567557D01*
X53474307Y-197561604D01*
X53513376Y-197553269D01*
X53549320Y-197542553D01*
X53582138Y-197529455D01*
X53611831Y-197513976D01*
X53638398Y-197496116D01*
X53661840Y-197475874D01*
X53682156Y-197453251D01*
X53699346Y-197428247D01*
X53713411Y-197400861D01*
X53724350Y-197371094D01*
X53732164Y-197338946D01*
X53736853Y-197304416D01*
X53738415Y-197267505D01*
X53736853Y-197230594D01*
X53732164Y-197196064D01*
X53724350Y-197163915D01*
X53713411Y-197134148D01*
X53699346Y-197106762D01*
X53682156Y-197081758D01*
X53661840Y-197059135D01*
X53638398Y-197038893D01*
X53611831Y-197021033D01*
X53582138Y-197005554D01*
X53549320Y-196992457D01*
X53513376Y-196981741D01*
X53474307Y-196973406D01*
X53432112Y-196967452D01*
X53386792Y-196963880D01*
X53338346Y-196962690D01*
X53180809Y-196962690D01*
X52378471Y-196962690D01*
X52378471Y-196306165D01*
X53601395Y-196306165D01*
X53654982Y-196306998D01*
G37*
G36*
X374227913Y-192275425D02*
G01*
X374227913Y-193822948D01*
X374654361Y-193822948D01*
X374691089Y-193823864D01*
X374725069Y-193826612D01*
X374756302Y-193831191D01*
X374791479Y-193839491D01*
X374822362Y-193850654D01*
X374848952Y-193864679D01*
X374871249Y-193881566D01*
X374893411Y-193904561D01*
X374910988Y-193930132D01*
X374923979Y-193958279D01*
X374932386Y-193989002D01*
X374936207Y-194022302D01*
X374936461Y-194033974D01*
X374934169Y-194068157D01*
X374927291Y-194099816D01*
X374915828Y-194128951D01*
X374899779Y-194155561D01*
X374879145Y-194179646D01*
X374871249Y-194187114D01*
X374843977Y-194206786D01*
X374816529Y-194220070D01*
X374784787Y-194230528D01*
X374748751Y-194238160D01*
X374716832Y-194242230D01*
X374682165Y-194244491D01*
X374654361Y-194245000D01*
X373378681Y-194245000D01*
X373341941Y-194244095D01*
X373307926Y-194241382D01*
X373276637Y-194236859D01*
X373241356Y-194228663D01*
X373210333Y-194217640D01*
X373183568Y-194203790D01*
X373161060Y-194187114D01*
X373139147Y-194163870D01*
X373121768Y-194138101D01*
X373108922Y-194109808D01*
X373100610Y-194078991D01*
X373096832Y-194045649D01*
X373096580Y-194033974D01*
X373098847Y-193999816D01*
X373105648Y-193968234D01*
X373116982Y-193939228D01*
X373132850Y-193912799D01*
X373153252Y-193888945D01*
X373161060Y-193881566D01*
X373188580Y-193861645D01*
X373216197Y-193848193D01*
X373248072Y-193837602D01*
X373284204Y-193829874D01*
X373316175Y-193825753D01*
X373350871Y-193823463D01*
X373378681Y-193822948D01*
X373805129Y-193822948D01*
X373805129Y-192275425D01*
X373378681Y-192275425D01*
X373341941Y-192274521D01*
X373307926Y-192271807D01*
X373276637Y-192267285D01*
X373241356Y-192259088D01*
X373210333Y-192248065D01*
X373183568Y-192234216D01*
X373161060Y-192217540D01*
X373139147Y-192194296D01*
X373121768Y-192168527D01*
X373108922Y-192140234D01*
X373100610Y-192109416D01*
X373096832Y-192076074D01*
X373096580Y-192064399D01*
X373098847Y-192030242D01*
X373105648Y-191998660D01*
X373116982Y-191969654D01*
X373132850Y-191943224D01*
X373153252Y-191919371D01*
X373161060Y-191911992D01*
X373188580Y-191892071D01*
X373216197Y-191878618D01*
X373248072Y-191868028D01*
X373284204Y-191860300D01*
X373316175Y-191856179D01*
X373350871Y-191853889D01*
X373378681Y-191853374D01*
X374654361Y-191853374D01*
X374691089Y-191854289D01*
X374725069Y-191857037D01*
X374756302Y-191861617D01*
X374791479Y-191869917D01*
X374822362Y-191881080D01*
X374848952Y-191895105D01*
X374871249Y-191911992D01*
X374893411Y-191934987D01*
X374910988Y-191960558D01*
X374923979Y-191988705D01*
X374932386Y-192019428D01*
X374936207Y-192052727D01*
X374936461Y-192064399D01*
X374934169Y-192098583D01*
X374927291Y-192130242D01*
X374915828Y-192159376D01*
X374899779Y-192185987D01*
X374879145Y-192210072D01*
X374871249Y-192217540D01*
X374843977Y-192237212D01*
X374816529Y-192250496D01*
X374784787Y-192260954D01*
X374748751Y-192268585D01*
X374716832Y-192272655D01*
X374682165Y-192274916D01*
X374654361Y-192275425D01*
X374227913Y-192275425D01*
G37*
G36*
X376993230Y-192957595D02*
G01*
X376967242Y-192943216D01*
X376940932Y-192929752D01*
X376914302Y-192917204D01*
X376887351Y-192905572D01*
X376853212Y-192892320D01*
X376818572Y-192880499D01*
X376790499Y-192872072D01*
X376776343Y-192868203D01*
X376740830Y-192859548D01*
X376712059Y-192853680D01*
X376682967Y-192848752D01*
X376653555Y-192844762D01*
X376623822Y-192841711D01*
X376593769Y-192839598D01*
X376563395Y-192838425D01*
X376540404Y-192838161D01*
X376510116Y-192838441D01*
X376480618Y-192839283D01*
X376437852Y-192841597D01*
X376396864Y-192845173D01*
X376357653Y-192850012D01*
X376320219Y-192856113D01*
X376284563Y-192863476D01*
X376250685Y-192872101D01*
X376218583Y-192881988D01*
X376188259Y-192893138D01*
X376159713Y-192905550D01*
X376150593Y-192909968D01*
X376122703Y-192926088D01*
X376099047Y-192947269D01*
X376087094Y-192974196D01*
X376086845Y-192978845D01*
X376097062Y-193007889D01*
X376120619Y-193031395D01*
X376148399Y-193049517D01*
X376173307Y-193062376D01*
X376203756Y-193073315D01*
X376237866Y-193082353D01*
X376270873Y-193089531D01*
X376308964Y-193096664D01*
X376340867Y-193101983D01*
X376375630Y-193107277D01*
X376413253Y-193112545D01*
X376453735Y-193117787D01*
X376467864Y-193119528D01*
X376519438Y-193125948D01*
X376569015Y-193132386D01*
X376616594Y-193138840D01*
X376662175Y-193145311D01*
X376705758Y-193151800D01*
X376747343Y-193158306D01*
X376786930Y-193164829D01*
X376824520Y-193171369D01*
X376860111Y-193177926D01*
X376893705Y-193184501D01*
X376925301Y-193191093D01*
X376954900Y-193197701D01*
X376995551Y-193207647D01*
X377031707Y-193217631D01*
X377053314Y-193224309D01*
X377092974Y-193238378D01*
X377130895Y-193253658D01*
X377167077Y-193270149D01*
X377201520Y-193287850D01*
X377234224Y-193306762D01*
X377265190Y-193326885D01*
X377294417Y-193348218D01*
X377321905Y-193370763D01*
X377347654Y-193394518D01*
X377371665Y-193419483D01*
X377386706Y-193436800D01*
X377407788Y-193463176D01*
X377426797Y-193489823D01*
X377443732Y-193516740D01*
X377458593Y-193543927D01*
X377471381Y-193571385D01*
X377482095Y-193599114D01*
X377493155Y-193636506D01*
X377500528Y-193674379D01*
X377504214Y-193712732D01*
X377504675Y-193732090D01*
X377502917Y-193771182D01*
X377497643Y-193809052D01*
X377488852Y-193845698D01*
X377476545Y-193881120D01*
X377460722Y-193915318D01*
X377441383Y-193948293D01*
X377418527Y-193980044D01*
X377392155Y-194010572D01*
X377362267Y-194039876D01*
X377328863Y-194067957D01*
X377304640Y-194085997D01*
X377268158Y-194110930D01*
X377230337Y-194134254D01*
X377191176Y-194155970D01*
X377150676Y-194176077D01*
X377108836Y-194194576D01*
X377065656Y-194211466D01*
X377021137Y-194226747D01*
X376975279Y-194240420D01*
X376928081Y-194252484D01*
X376879543Y-194262940D01*
X376829666Y-194271787D01*
X376778449Y-194279026D01*
X376725893Y-194284656D01*
X376671998Y-194288677D01*
X376616763Y-194291090D01*
X376560188Y-194291894D01*
X376526080Y-194291682D01*
X376492448Y-194291044D01*
X376459292Y-194289981D01*
X376426614Y-194288494D01*
X376394412Y-194286581D01*
X376362686Y-194284243D01*
X376331437Y-194281481D01*
X376300665Y-194278293D01*
X376270369Y-194274680D01*
X376240549Y-194270642D01*
X376220935Y-194267714D01*
X376182501Y-194261497D01*
X376144868Y-194254571D01*
X376108037Y-194246934D01*
X376072008Y-194238588D01*
X376036779Y-194229532D01*
X376002353Y-194219766D01*
X375968727Y-194209290D01*
X375935903Y-194198105D01*
X375910173Y-194214867D01*
X375882992Y-194228244D01*
X375869958Y-194233276D01*
X375841139Y-194240866D01*
X375811837Y-194244587D01*
X375798150Y-194245000D01*
X375768222Y-194243533D01*
X375734906Y-194237900D01*
X375704423Y-194228042D01*
X375676774Y-194213960D01*
X375651959Y-194195653D01*
X375640614Y-194184916D01*
X375620693Y-194159276D01*
X375604893Y-194127969D01*
X375594875Y-194097551D01*
X375587720Y-194063197D01*
X375584056Y-194032880D01*
X375582224Y-194000045D01*
X375581995Y-193982683D01*
X375581995Y-193850792D01*
X375582911Y-193816708D01*
X375585659Y-193785167D01*
X375590239Y-193756167D01*
X375598539Y-193723491D01*
X375609702Y-193694786D01*
X375626875Y-193665583D01*
X375640614Y-193649291D01*
X375663858Y-193628623D01*
X375689626Y-193612231D01*
X375717919Y-193600115D01*
X375748737Y-193592276D01*
X375782079Y-193588712D01*
X375793754Y-193588475D01*
X375825901Y-193590088D01*
X375855664Y-193594926D01*
X375886759Y-193604406D01*
X375914740Y-193618099D01*
X375921249Y-193622180D01*
X375945795Y-193641735D01*
X375967411Y-193667426D01*
X375983920Y-193694940D01*
X375996285Y-193722263D01*
X376001849Y-193737219D01*
X376026647Y-193753030D01*
X376052682Y-193767856D01*
X376079953Y-193781698D01*
X376108461Y-193794555D01*
X376138205Y-193806427D01*
X376169186Y-193817315D01*
X376201403Y-193827218D01*
X376234856Y-193836137D01*
X376269569Y-193844037D01*
X376305565Y-193850883D01*
X376342842Y-193856676D01*
X376381402Y-193861416D01*
X376411164Y-193864280D01*
X376441646Y-193866551D01*
X376472850Y-193868230D01*
X376504775Y-193869316D01*
X376537422Y-193869810D01*
X376548464Y-193869842D01*
X376584231Y-193869525D01*
X376618989Y-193868572D01*
X376652741Y-193866983D01*
X376685484Y-193864759D01*
X376717221Y-193861900D01*
X376747950Y-193858405D01*
X376777671Y-193854275D01*
X376820364Y-193846888D01*
X376860790Y-193838072D01*
X376898949Y-193827826D01*
X376934841Y-193816150D01*
X376968467Y-193803045D01*
X376999825Y-193788510D01*
X377025722Y-193773243D01*
X377049164Y-193755040D01*
X377068587Y-193731019D01*
X377076029Y-193703513D01*
X377070805Y-193672398D01*
X377055132Y-193643807D01*
X377033382Y-193621310D01*
X377009393Y-193603979D01*
X376980073Y-193587937D01*
X376966852Y-193581880D01*
X376935917Y-193570031D01*
X376897701Y-193558662D01*
X376864260Y-193550451D01*
X376826724Y-193542510D01*
X376785091Y-193534840D01*
X376755061Y-193529877D01*
X376723210Y-193525034D01*
X376689539Y-193520312D01*
X376654047Y-193515709D01*
X376616735Y-193511227D01*
X376577603Y-193506865D01*
X376536650Y-193502623D01*
X376515491Y-193500547D01*
X376483993Y-193497432D01*
X376453155Y-193494133D01*
X376422977Y-193490649D01*
X376393458Y-193486980D01*
X376336399Y-193479089D01*
X376281980Y-193470460D01*
X376230200Y-193461092D01*
X376181058Y-193450985D01*
X376134556Y-193440140D01*
X376090692Y-193428557D01*
X376049468Y-193416235D01*
X376010882Y-193403175D01*
X375974935Y-193389376D01*
X375941628Y-193374839D01*
X375910959Y-193359563D01*
X375882929Y-193343549D01*
X375857538Y-193326796D01*
X375834787Y-193309305D01*
X375804276Y-193282347D01*
X375776767Y-193254230D01*
X375752258Y-193224954D01*
X375730751Y-193194519D01*
X375712244Y-193162924D01*
X375696739Y-193130170D01*
X375684235Y-193096257D01*
X375674731Y-193061185D01*
X375668229Y-193024954D01*
X375664728Y-192987563D01*
X375664061Y-192961992D01*
X375665748Y-192922905D01*
X375670810Y-192885055D01*
X375679246Y-192848442D01*
X375691057Y-192813065D01*
X375706243Y-192778924D01*
X375724803Y-192746020D01*
X375746738Y-192714352D01*
X375772047Y-192683921D01*
X375800731Y-192654727D01*
X375832789Y-192626769D01*
X375856036Y-192608817D01*
X375889089Y-192585481D01*
X375923401Y-192563651D01*
X375958973Y-192543326D01*
X375995804Y-192524507D01*
X376033894Y-192507194D01*
X376073244Y-192491385D01*
X376113853Y-192477083D01*
X376155722Y-192464286D01*
X376198850Y-192452995D01*
X376243237Y-192443209D01*
X376288884Y-192434928D01*
X376335790Y-192428153D01*
X376383955Y-192422884D01*
X376433380Y-192419120D01*
X376484064Y-192416862D01*
X376536008Y-192416109D01*
X376572289Y-192416521D01*
X376608227Y-192417758D01*
X376643822Y-192419818D01*
X376679073Y-192422704D01*
X376713981Y-192426413D01*
X376748545Y-192430947D01*
X376782766Y-192436305D01*
X376816643Y-192442487D01*
X376850348Y-192449345D01*
X376883688Y-192457096D01*
X376916660Y-192465740D01*
X376949267Y-192475277D01*
X376981507Y-192485707D01*
X377013381Y-192497030D01*
X377044888Y-192509246D01*
X377076029Y-192522355D01*
X377102122Y-192503936D01*
X377129204Y-192487793D01*
X377148569Y-192478391D01*
X377177580Y-192467872D01*
X377207989Y-192463064D01*
X377211584Y-192463004D01*
X377243002Y-192465245D01*
X377272412Y-192471968D01*
X377299812Y-192483174D01*
X377325202Y-192498862D01*
X377348584Y-192519032D01*
X377355931Y-192526751D01*
X377375603Y-192553696D01*
X377388887Y-192580794D01*
X377399345Y-192612114D01*
X377406977Y-192647656D01*
X377411047Y-192679129D01*
X377413308Y-192713303D01*
X377413817Y-192740708D01*
X377413817Y-192841824D01*
X377413301Y-192874362D01*
X377411756Y-192904198D01*
X377408375Y-192937693D01*
X377403384Y-192966966D01*
X377395269Y-192996522D01*
X377382872Y-193023319D01*
X377380844Y-193026472D01*
X377359073Y-193053280D01*
X377334977Y-193075545D01*
X377308555Y-193093265D01*
X377279807Y-193106442D01*
X377248735Y-193115076D01*
X377215336Y-193119165D01*
X377201325Y-193119528D01*
X377168863Y-193117425D01*
X377138153Y-193111114D01*
X377109197Y-193100595D01*
X377081994Y-193085869D01*
X377067236Y-193075565D01*
X377044160Y-193054643D01*
X377024941Y-193030986D01*
X377009579Y-193004594D01*
X376998073Y-192975467D01*
X376993230Y-192957595D01*
G37*
G36*
X379096903Y-192416636D02*
G01*
X379132649Y-192418216D01*
X379168229Y-192420849D01*
X379203644Y-192424535D01*
X379238892Y-192429275D01*
X379273974Y-192435068D01*
X379308890Y-192441915D01*
X379343640Y-192449815D01*
X379378225Y-192458768D01*
X379412643Y-192468774D01*
X379446895Y-192479834D01*
X379480981Y-192491946D01*
X379514901Y-192505113D01*
X379548656Y-192519332D01*
X379582244Y-192534605D01*
X379615666Y-192550931D01*
X379648581Y-192568147D01*
X379680467Y-192586091D01*
X379711321Y-192604761D01*
X379741146Y-192624158D01*
X379769940Y-192644282D01*
X379797703Y-192665134D01*
X379824436Y-192686712D01*
X379850139Y-192709017D01*
X379874811Y-192732050D01*
X379898453Y-192755809D01*
X379921065Y-192780295D01*
X379942646Y-192805508D01*
X379963197Y-192831449D01*
X379982717Y-192858116D01*
X380001207Y-192885510D01*
X380018667Y-192913632D01*
X380035170Y-192942076D01*
X380050609Y-192970624D01*
X380064983Y-192999275D01*
X380078292Y-193028029D01*
X380090537Y-193056886D01*
X380101717Y-193085846D01*
X380111832Y-193114909D01*
X380120882Y-193144075D01*
X380128868Y-193173344D01*
X380135789Y-193202716D01*
X380141645Y-193232191D01*
X380146436Y-193261769D01*
X380150163Y-193291451D01*
X380152825Y-193321235D01*
X380154422Y-193351122D01*
X380154954Y-193381113D01*
X380153769Y-193423855D01*
X380150214Y-193466352D01*
X380144290Y-193508605D01*
X380135995Y-193550613D01*
X380125330Y-193592377D01*
X380112296Y-193633895D01*
X380096891Y-193675169D01*
X380085305Y-193702549D01*
X380072665Y-193729820D01*
X380058972Y-193756983D01*
X380044226Y-193784037D01*
X380028427Y-193810982D01*
X380020132Y-193824413D01*
X380002761Y-193850817D01*
X379984354Y-193876540D01*
X379964911Y-193901582D01*
X379944432Y-193925942D01*
X379922917Y-193949621D01*
X379900365Y-193972619D01*
X379876778Y-193994936D01*
X379852154Y-194016571D01*
X379826494Y-194037526D01*
X379799798Y-194057799D01*
X379772066Y-194077391D01*
X379743298Y-194096301D01*
X379713494Y-194114531D01*
X379682653Y-194132079D01*
X379650777Y-194148946D01*
X379617864Y-194165132D01*
X379584433Y-194180482D01*
X379550819Y-194194842D01*
X379517022Y-194208211D01*
X379483042Y-194220590D01*
X379448879Y-194231979D01*
X379414532Y-194242378D01*
X379380002Y-194251786D01*
X379345289Y-194260204D01*
X379310393Y-194267631D01*
X379275314Y-194274068D01*
X379240051Y-194279515D01*
X379204605Y-194283971D01*
X379168976Y-194287438D01*
X379133164Y-194289913D01*
X379097169Y-194291399D01*
X379060990Y-194291894D01*
X379025001Y-194291408D01*
X378989206Y-194289948D01*
X378953606Y-194287515D01*
X378918200Y-194284109D01*
X378882989Y-194279730D01*
X378847973Y-194274377D01*
X378813151Y-194268052D01*
X378778524Y-194260753D01*
X378744091Y-194252481D01*
X378709853Y-194243236D01*
X378675810Y-194233018D01*
X378641961Y-194221827D01*
X378608307Y-194209663D01*
X378574848Y-194196525D01*
X378541583Y-194182414D01*
X378508513Y-194167330D01*
X378476030Y-194151319D01*
X378444525Y-194134609D01*
X378414000Y-194117201D01*
X378384453Y-194099095D01*
X378355885Y-194080290D01*
X378328296Y-194060787D01*
X378301686Y-194040585D01*
X378276055Y-194019685D01*
X378251403Y-193998087D01*
X378227729Y-193975790D01*
X378205035Y-193952795D01*
X378183319Y-193929102D01*
X378162582Y-193904710D01*
X378142824Y-193879620D01*
X378124045Y-193853831D01*
X378106245Y-193827344D01*
X378089564Y-193800342D01*
X378073959Y-193773191D01*
X378059431Y-193745891D01*
X378045978Y-193718442D01*
X378033602Y-193690845D01*
X378022302Y-193663099D01*
X378012078Y-193635203D01*
X378002930Y-193607159D01*
X377994859Y-193578966D01*
X377984770Y-193536398D01*
X377977102Y-193493495D01*
X377971855Y-193450257D01*
X377969030Y-193406684D01*
X377968600Y-193383311D01*
X378390544Y-193383311D01*
X378392244Y-193416490D01*
X378397344Y-193449256D01*
X378405845Y-193481611D01*
X378417746Y-193513553D01*
X378433048Y-193545083D01*
X378451750Y-193576202D01*
X378473852Y-193606907D01*
X378499354Y-193637201D01*
X378528257Y-193667083D01*
X378560560Y-193696552D01*
X378583984Y-193715969D01*
X378608599Y-193734603D01*
X378633901Y-193752033D01*
X378659890Y-193768262D01*
X378686566Y-193783289D01*
X378713929Y-193797113D01*
X378741979Y-193809736D01*
X378770715Y-193821156D01*
X378800139Y-193831374D01*
X378830250Y-193840390D01*
X378861047Y-193848204D01*
X378892532Y-193854816D01*
X378924703Y-193860225D01*
X378957561Y-193864433D01*
X378991106Y-193867438D01*
X379025339Y-193869241D01*
X379060258Y-193869842D01*
X379095440Y-193869241D01*
X379129913Y-193867438D01*
X379163675Y-193864433D01*
X379196728Y-193860225D01*
X379229071Y-193854816D01*
X379260705Y-193848204D01*
X379291628Y-193840390D01*
X379321842Y-193831374D01*
X379351346Y-193821156D01*
X379380140Y-193809736D01*
X379408224Y-193797113D01*
X379435598Y-193783289D01*
X379462262Y-193768262D01*
X379488217Y-193752033D01*
X379513462Y-193734603D01*
X379537997Y-193715969D01*
X379561510Y-193696546D01*
X379583506Y-193676929D01*
X379613656Y-193647137D01*
X379640393Y-193616908D01*
X379663716Y-193586241D01*
X379683627Y-193555136D01*
X379700124Y-193523592D01*
X379713208Y-193491611D01*
X379722878Y-193459193D01*
X379729136Y-193426336D01*
X379731980Y-193393041D01*
X379732170Y-193381845D01*
X379730882Y-193347763D01*
X379727018Y-193314208D01*
X379720578Y-193281182D01*
X379711562Y-193248683D01*
X379699970Y-193216713D01*
X379685802Y-193185271D01*
X379669058Y-193154357D01*
X379649738Y-193123971D01*
X379627842Y-193094113D01*
X379603370Y-193064783D01*
X379585624Y-193045523D01*
X379560130Y-193020413D01*
X379533658Y-192996922D01*
X379506206Y-192975052D01*
X379477776Y-192954802D01*
X379448366Y-192936172D01*
X379417978Y-192919162D01*
X379386611Y-192903771D01*
X379354265Y-192890001D01*
X379320940Y-192877851D01*
X379286636Y-192867321D01*
X379251354Y-192858411D01*
X379215092Y-192851121D01*
X379177852Y-192845451D01*
X379139633Y-192841401D01*
X379100435Y-192838971D01*
X379060258Y-192838161D01*
X379024815Y-192838805D01*
X378990110Y-192840737D01*
X378956144Y-192843957D01*
X378922917Y-192848465D01*
X378890428Y-192854261D01*
X378858677Y-192861345D01*
X378827665Y-192869717D01*
X378797391Y-192879377D01*
X378767856Y-192890325D01*
X378739059Y-192902561D01*
X378711001Y-192916085D01*
X378683681Y-192930897D01*
X378657100Y-192946997D01*
X378631257Y-192964385D01*
X378606152Y-192983061D01*
X378581786Y-193003025D01*
X378558628Y-193023744D01*
X378536964Y-193044870D01*
X378516794Y-193066403D01*
X378489340Y-193099464D01*
X378465248Y-193133439D01*
X378444517Y-193168329D01*
X378427149Y-193204133D01*
X378413142Y-193240852D01*
X378402496Y-193278485D01*
X378395213Y-193317032D01*
X378391291Y-193356495D01*
X378390544Y-193383311D01*
X377968600Y-193383311D01*
X377968492Y-193377449D01*
X377969039Y-193347627D01*
X377970679Y-193317880D01*
X377973412Y-193288208D01*
X377977239Y-193258609D01*
X377982159Y-193229086D01*
X377988173Y-193199636D01*
X377995280Y-193170261D01*
X378003480Y-193140961D01*
X378012774Y-193111735D01*
X378023161Y-193082583D01*
X378034641Y-193053506D01*
X378047215Y-193024503D01*
X378060882Y-192995574D01*
X378075642Y-192966720D01*
X378091496Y-192937941D01*
X378108443Y-192909235D01*
X378126418Y-192880948D01*
X378145355Y-192853422D01*
X378165253Y-192826657D01*
X378186113Y-192800654D01*
X378207934Y-192775412D01*
X378230717Y-192750932D01*
X378254462Y-192727212D01*
X378279169Y-192704255D01*
X378304837Y-192682058D01*
X378331468Y-192660623D01*
X378359059Y-192639949D01*
X378387613Y-192620037D01*
X378417128Y-192600885D01*
X378447605Y-192582496D01*
X378479044Y-192564867D01*
X378511444Y-192548000D01*
X378544417Y-192532029D01*
X378577573Y-192517088D01*
X378610912Y-192503178D01*
X378644434Y-192490298D01*
X378678140Y-192478448D01*
X378712028Y-192467629D01*
X378746100Y-192457840D01*
X378780355Y-192449082D01*
X378814794Y-192441354D01*
X378849415Y-192434656D01*
X378884220Y-192428989D01*
X378919207Y-192424352D01*
X378954378Y-192420746D01*
X378989733Y-192418170D01*
X379025270Y-192416624D01*
X379060990Y-192416109D01*
X379096903Y-192416636D01*
G37*
G36*
X374143196Y-201513447D02*
G01*
X373567271Y-200360865D01*
X373553315Y-200333694D01*
X373533282Y-200295459D01*
X373514331Y-200260252D01*
X373496462Y-200228071D01*
X373479676Y-200198917D01*
X373463971Y-200172790D01*
X373444714Y-200142663D01*
X373427380Y-200117916D01*
X373408418Y-200094549D01*
X373401674Y-200087557D01*
X373376635Y-200067572D01*
X373347037Y-200052495D01*
X373318040Y-200043479D01*
X373285694Y-200038069D01*
X373256181Y-200036316D01*
X373250000Y-200036266D01*
X373250000Y-199810586D01*
X374328576Y-199810586D01*
X374328576Y-200036266D01*
X374295054Y-200036981D01*
X374264829Y-200039125D01*
X374229658Y-200044209D01*
X374200348Y-200051834D01*
X374171955Y-200064939D01*
X374149973Y-200085908D01*
X374140997Y-200117599D01*
X374149583Y-200146966D01*
X374163402Y-200177660D01*
X374178034Y-200206993D01*
X374193021Y-200235568D01*
X374558653Y-200948513D01*
X374944068Y-200206992D01*
X374956891Y-200179377D01*
X374967767Y-200150655D01*
X374973377Y-200121263D01*
X374967195Y-200092377D01*
X374948647Y-200069468D01*
X374917735Y-200052535D01*
X374882530Y-200042989D01*
X374848183Y-200038341D01*
X374818817Y-200036598D01*
X374797522Y-200036266D01*
X374797522Y-199810586D01*
X375454047Y-199810586D01*
X375454047Y-200036266D01*
X375423944Y-200037608D01*
X375390559Y-200042760D01*
X375360162Y-200051776D01*
X375332753Y-200064656D01*
X375308333Y-200081400D01*
X375297243Y-200091221D01*
X375277501Y-200113743D01*
X375258667Y-200139463D01*
X375237132Y-200172029D01*
X375219207Y-200200947D01*
X375199763Y-200233716D01*
X375178799Y-200270336D01*
X375163978Y-200296888D01*
X375148482Y-200325153D01*
X375132310Y-200355129D01*
X375115463Y-200386817D01*
X375097941Y-200420216D01*
X374524214Y-201513447D01*
X374143196Y-201513447D01*
G37*
G36*
X375468702Y-201208632D02*
G01*
X375470419Y-201170839D01*
X375475571Y-201134397D01*
X375484158Y-201099306D01*
X375496179Y-201065566D01*
X375511635Y-201033178D01*
X375530525Y-201002140D01*
X375552851Y-200972453D01*
X375578611Y-200944117D01*
X375606809Y-200918185D01*
X375636451Y-200895711D01*
X375667534Y-200876694D01*
X375700061Y-200861135D01*
X375734029Y-200849034D01*
X375769441Y-200840390D01*
X375806295Y-200835204D01*
X375844591Y-200833475D01*
X375882705Y-200835204D01*
X375919375Y-200840390D01*
X375954604Y-200849034D01*
X375988389Y-200861135D01*
X376020732Y-200876694D01*
X376051633Y-200895711D01*
X376081091Y-200918185D01*
X376109106Y-200944117D01*
X376134866Y-200972453D01*
X376157192Y-201002140D01*
X376176082Y-201033178D01*
X376191538Y-201065566D01*
X376203560Y-201099306D01*
X376212146Y-201134397D01*
X376217298Y-201170839D01*
X376219016Y-201208632D01*
X376217287Y-201246757D01*
X376212100Y-201283462D01*
X376203457Y-201318747D01*
X376191355Y-201352613D01*
X376175796Y-201385059D01*
X376156779Y-201416086D01*
X376134305Y-201445692D01*
X376108374Y-201473879D01*
X376080049Y-201499639D01*
X376050396Y-201521965D01*
X376019416Y-201540855D01*
X375987107Y-201556311D01*
X375953470Y-201568333D01*
X375918505Y-201576919D01*
X375882212Y-201582071D01*
X375844591Y-201583789D01*
X375806627Y-201582071D01*
X375770036Y-201576919D01*
X375734819Y-201568333D01*
X375700976Y-201556311D01*
X375668507Y-201540855D01*
X375637412Y-201521965D01*
X375607691Y-201499639D01*
X375579344Y-201473879D01*
X375553412Y-201445692D01*
X375530938Y-201416086D01*
X375511921Y-201385059D01*
X375496362Y-201352613D01*
X375484261Y-201318747D01*
X375475617Y-201283462D01*
X375470430Y-201246757D01*
X375468702Y-201208632D01*
G37*
G36*
X378024459Y-200223845D02*
G01*
X378399616Y-200223845D01*
X378399616Y-200505212D01*
X378024459Y-200505212D01*
X378024459Y-200933859D01*
X378024688Y-200969980D01*
X378025375Y-201002872D01*
X378026519Y-201032536D01*
X378028595Y-201065076D01*
X378032029Y-201097465D01*
X378038212Y-201129350D01*
X378039113Y-201132428D01*
X378053739Y-201161265D01*
X378075468Y-201185627D01*
X378101594Y-201206018D01*
X378121179Y-201218157D01*
X378147669Y-201230857D01*
X378176580Y-201240929D01*
X378207913Y-201248374D01*
X378241667Y-201253191D01*
X378271645Y-201255198D01*
X378290439Y-201255526D01*
X378399616Y-201255526D01*
X378399616Y-201481207D01*
X376992777Y-201481207D01*
X376992777Y-201255526D01*
X377098290Y-201255526D01*
X377129385Y-201254977D01*
X377165034Y-201252744D01*
X377197105Y-201248794D01*
X377230868Y-201241788D01*
X377259479Y-201232308D01*
X377282937Y-201220355D01*
X377308491Y-201202266D01*
X377330890Y-201180711D01*
X377347891Y-201155266D01*
X377353279Y-201141953D01*
X377360363Y-201109225D01*
X377363798Y-201078519D01*
X377365873Y-201047500D01*
X377367233Y-201011544D01*
X377367805Y-200979223D01*
X377367934Y-200952909D01*
X377367934Y-200505212D01*
X376430041Y-200505212D01*
X376430041Y-200223845D01*
X376690160Y-200223845D01*
X377367934Y-200223845D01*
X377367934Y-199412714D01*
X376690160Y-200223845D01*
X376430041Y-200223845D01*
X376430041Y-200199665D01*
X377674214Y-198676322D01*
X378024459Y-198676322D01*
X378024459Y-200223845D01*
G37*
G36*
X50093177Y-200572599D02*
G01*
X50133423Y-200575321D01*
X50172656Y-200579858D01*
X50210875Y-200586209D01*
X50248081Y-200594375D01*
X50284274Y-200604355D01*
X50319453Y-200616151D01*
X50353620Y-200629760D01*
X50386773Y-200645185D01*
X50418913Y-200662424D01*
X50450039Y-200681478D01*
X50480153Y-200702346D01*
X50509253Y-200725030D01*
X50537340Y-200749527D01*
X50564414Y-200775840D01*
X50590474Y-200803967D01*
X50611142Y-200831624D01*
X50625099Y-200857467D01*
X50636086Y-200885849D01*
X50644104Y-200916772D01*
X50649152Y-200950235D01*
X50651231Y-200986238D01*
X50651290Y-200993743D01*
X50649897Y-201033457D01*
X50645715Y-201075111D01*
X50638745Y-201118705D01*
X50628988Y-201164240D01*
X50616443Y-201211716D01*
X50601110Y-201261132D01*
X50582989Y-201312489D01*
X50562081Y-201365786D01*
X50550581Y-201393163D01*
X50538384Y-201421024D01*
X50525491Y-201449371D01*
X50511900Y-201478203D01*
X50497613Y-201507520D01*
X50482628Y-201537322D01*
X50466947Y-201567609D01*
X50450569Y-201598382D01*
X50433493Y-201629639D01*
X50415721Y-201661382D01*
X50397252Y-201693610D01*
X50378086Y-201726323D01*
X50358223Y-201759521D01*
X50337663Y-201793205D01*
X50316406Y-201827373D01*
X50294452Y-201862027D01*
X50273341Y-201894456D01*
X50252231Y-201926438D01*
X50231123Y-201957974D01*
X50210016Y-201989064D01*
X50188911Y-202019706D01*
X50167807Y-202049903D01*
X50146705Y-202079653D01*
X50125604Y-202108956D01*
X50104504Y-202137813D01*
X50083406Y-202166224D01*
X50062309Y-202194187D01*
X50041214Y-202221705D01*
X50020120Y-202248776D01*
X49999028Y-202275400D01*
X49977937Y-202301578D01*
X49956847Y-202327309D01*
X49935759Y-202352594D01*
X49914672Y-202377433D01*
X49893587Y-202401824D01*
X49872503Y-202425770D01*
X49851421Y-202449269D01*
X49830340Y-202472321D01*
X49809260Y-202494927D01*
X49788182Y-202517086D01*
X49767105Y-202538799D01*
X49746030Y-202560065D01*
X49724956Y-202580885D01*
X49703884Y-202601258D01*
X49661743Y-202640665D01*
X49619609Y-202678286D01*
X50680600Y-203410282D01*
X50710722Y-203425257D01*
X50739755Y-203439039D01*
X50769963Y-203453258D01*
X50796691Y-203465786D01*
X50826910Y-203479911D01*
X50860619Y-203495634D01*
X50885031Y-203507002D01*
X50915359Y-203522412D01*
X50942596Y-203539334D01*
X50966742Y-203557767D01*
X50992577Y-203582933D01*
X51013582Y-203610460D01*
X51029757Y-203640349D01*
X51041102Y-203672599D01*
X51045249Y-203702300D01*
X51046231Y-203723157D01*
X51043793Y-203757023D01*
X51036477Y-203789378D01*
X51024284Y-203820221D01*
X51007213Y-203849553D01*
X50985266Y-203877374D01*
X50958441Y-203903683D01*
X50935122Y-203922424D01*
X50909059Y-203940314D01*
X50890160Y-203951769D01*
X50860937Y-203967875D01*
X50831522Y-203982397D01*
X50801913Y-203995335D01*
X50772111Y-204006689D01*
X50742115Y-204016458D01*
X50711927Y-204024644D01*
X50681545Y-204031245D01*
X50650970Y-204036261D01*
X50620202Y-204039694D01*
X50589240Y-204041542D01*
X50568492Y-204041894D01*
X50537348Y-204040910D01*
X50508028Y-204037959D01*
X50475252Y-204031819D01*
X50445105Y-204022846D01*
X50417584Y-204011039D01*
X50400697Y-204001594D01*
X50375124Y-203982100D01*
X50354436Y-203959031D01*
X50337912Y-203934412D01*
X50322860Y-203905656D01*
X50320830Y-203901210D01*
X50307045Y-203872249D01*
X50291292Y-203845161D01*
X50271600Y-203820317D01*
X50257815Y-203808886D01*
X49370481Y-203230031D01*
X49403454Y-203565621D01*
X49415863Y-203595685D01*
X49430359Y-203621491D01*
X49447137Y-203648968D01*
X49464189Y-203675644D01*
X49467934Y-203681392D01*
X49485665Y-203709706D01*
X49500391Y-203736947D01*
X49514096Y-203768220D01*
X49523472Y-203797947D01*
X49528942Y-203830675D01*
X49529483Y-203844057D01*
X49526370Y-203876143D01*
X49517032Y-203907370D01*
X49501469Y-203937738D01*
X49479680Y-203967247D01*
X49457767Y-203990237D01*
X49431870Y-204012677D01*
X49401988Y-204034567D01*
X49376769Y-204050187D01*
X49349653Y-204063160D01*
X49320640Y-204073486D01*
X49289732Y-204081164D01*
X49256927Y-204086194D01*
X49222227Y-204088577D01*
X49207815Y-204088789D01*
X49177652Y-204088029D01*
X49147889Y-204085749D01*
X49118525Y-204081949D01*
X49089560Y-204076630D01*
X49060994Y-204069791D01*
X49032828Y-204061432D01*
X49005061Y-204051553D01*
X48977693Y-204040154D01*
X48950724Y-204027235D01*
X48924155Y-204012797D01*
X48906664Y-204002327D01*
X48878495Y-203985246D01*
X48852516Y-203967250D01*
X48828727Y-203948340D01*
X48807127Y-203928516D01*
X48781734Y-203900661D01*
X48760233Y-203871180D01*
X48742624Y-203840073D01*
X48728908Y-203807341D01*
X48719085Y-203772983D01*
X48714803Y-203743630D01*
X48713956Y-203726821D01*
X48716656Y-203697594D01*
X48726353Y-203667197D01*
X48743103Y-203640006D01*
X48763544Y-203618844D01*
X48770376Y-203613248D01*
X48795381Y-203592457D01*
X48816590Y-203569817D01*
X48827529Y-203544371D01*
X48754581Y-202249640D01*
X49303803Y-202249640D01*
X49330876Y-202219535D01*
X49357876Y-202188572D01*
X49384801Y-202156750D01*
X49411651Y-202124069D01*
X49438427Y-202090529D01*
X49465129Y-202056131D01*
X49491756Y-202020874D01*
X49518309Y-201984759D01*
X49544787Y-201947785D01*
X49571191Y-201909952D01*
X49597521Y-201871260D01*
X49623776Y-201831710D01*
X49649957Y-201791301D01*
X49676063Y-201750034D01*
X49702095Y-201707908D01*
X49728053Y-201664923D01*
X49753252Y-201622301D01*
X49776825Y-201581266D01*
X49798772Y-201541816D01*
X49819094Y-201503951D01*
X49837790Y-201467673D01*
X49854860Y-201432980D01*
X49870305Y-201399872D01*
X49884124Y-201368351D01*
X49896317Y-201338415D01*
X49906884Y-201310065D01*
X49919687Y-201270512D01*
X49928832Y-201234528D01*
X49934318Y-201202111D01*
X49936147Y-201173262D01*
X49931926Y-201143509D01*
X49911830Y-201120368D01*
X49892916Y-201116842D01*
X49857651Y-201122870D01*
X49829762Y-201133586D01*
X49798369Y-201149660D01*
X49772525Y-201165232D01*
X49744711Y-201183818D01*
X49714926Y-201205418D01*
X49683170Y-201230031D01*
X49649444Y-201257659D01*
X49625865Y-201277752D01*
X49613747Y-201288300D01*
X49590383Y-201308238D01*
X49566248Y-201329946D01*
X49543655Y-201350644D01*
X49517210Y-201375129D01*
X49486914Y-201403400D01*
X49464577Y-201424352D01*
X49440529Y-201446986D01*
X49414769Y-201471304D01*
X49387297Y-201497304D01*
X49358114Y-201524987D01*
X49327219Y-201554354D01*
X49311130Y-201569668D01*
X49303803Y-202249640D01*
X48754581Y-202249640D01*
X48693440Y-201164469D01*
X48688307Y-201133254D01*
X48680068Y-201104569D01*
X48670047Y-201076911D01*
X48657296Y-201046420D01*
X48647278Y-201024518D01*
X48635035Y-200997409D01*
X48623082Y-200967665D01*
X48612914Y-200936805D01*
X48606274Y-200906603D01*
X48604780Y-200887498D01*
X48607218Y-200857502D01*
X48614534Y-200829063D01*
X48626727Y-200802181D01*
X48643797Y-200776856D01*
X48665745Y-200753088D01*
X48692570Y-200730877D01*
X48724272Y-200710223D01*
X48751249Y-200695755D01*
X48760851Y-200691127D01*
X48791522Y-200676873D01*
X48822354Y-200664519D01*
X48853346Y-200654066D01*
X48884499Y-200645514D01*
X48915811Y-200638862D01*
X48947284Y-200634111D01*
X48978918Y-200631260D01*
X49010711Y-200630310D01*
X49041640Y-200631212D01*
X49071230Y-200633916D01*
X49104058Y-200639351D01*
X49135063Y-200647240D01*
X49160188Y-200655956D01*
X49189955Y-200669740D01*
X49216655Y-200688422D01*
X49236168Y-200710467D01*
X49245184Y-200727030D01*
X49259636Y-200752895D01*
X49283332Y-200771750D01*
X49289148Y-200772459D01*
X49320919Y-200767926D01*
X49354532Y-200755575D01*
X49390052Y-200741264D01*
X49421726Y-200727946D01*
X49457715Y-200712413D01*
X49498019Y-200694664D01*
X49527285Y-200681601D01*
X49564282Y-200668292D01*
X49600718Y-200655841D01*
X49636593Y-200644249D01*
X49671907Y-200633516D01*
X49706660Y-200623641D01*
X49740852Y-200614625D01*
X49774483Y-200606468D01*
X49807554Y-200599169D01*
X49840063Y-200592729D01*
X49872011Y-200587148D01*
X49903398Y-200582425D01*
X49934224Y-200578561D01*
X49964489Y-200575556D01*
X49994193Y-200573409D01*
X50037698Y-200571799D01*
X50051919Y-200571692D01*
X50093177Y-200572599D01*
G37*
G36*
X51998642Y-201557091D02*
G01*
X52029831Y-201558926D01*
X52060105Y-201561985D01*
X52089465Y-201566268D01*
X52145441Y-201578504D01*
X52197760Y-201595634D01*
X52246420Y-201617659D01*
X52291423Y-201644578D01*
X52332768Y-201676392D01*
X52370455Y-201713100D01*
X52404484Y-201754702D01*
X52434855Y-201801199D01*
X52461568Y-201852590D01*
X52473553Y-201880121D01*
X52484623Y-201908876D01*
X52494779Y-201938854D01*
X52504020Y-201970056D01*
X52512347Y-202002481D01*
X52519760Y-202036130D01*
X52526258Y-202071002D01*
X52531841Y-202107099D01*
X52536510Y-202144418D01*
X52540265Y-202182962D01*
X52542383Y-202219421D01*
X52542325Y-202256258D01*
X52540093Y-202293472D01*
X52535685Y-202331065D01*
X52529102Y-202369035D01*
X52520344Y-202407383D01*
X52509410Y-202446109D01*
X52496301Y-202485212D01*
X52481017Y-202524694D01*
X52463557Y-202564553D01*
X52443922Y-202604790D01*
X52422112Y-202645405D01*
X52398127Y-202686398D01*
X52371966Y-202727768D01*
X52343630Y-202769517D01*
X52313119Y-202811643D01*
X52278437Y-202857184D01*
X52242720Y-202900933D01*
X52205966Y-202942890D01*
X52168176Y-202983056D01*
X52129350Y-203021429D01*
X52089488Y-203058011D01*
X52048590Y-203092802D01*
X52006655Y-203125800D01*
X51963685Y-203157007D01*
X51919678Y-203186422D01*
X51874635Y-203214045D01*
X51828556Y-203239877D01*
X51781441Y-203263917D01*
X51733290Y-203286165D01*
X51684103Y-203306621D01*
X51633879Y-203325286D01*
X51643531Y-203359873D01*
X51652701Y-203391460D01*
X51661391Y-203420048D01*
X51671577Y-203451565D01*
X51682808Y-203483198D01*
X51694544Y-203511573D01*
X51697627Y-203517993D01*
X51714725Y-203544590D01*
X51737463Y-203570556D01*
X51762621Y-203590031D01*
X51790202Y-203603014D01*
X51820204Y-203609506D01*
X51836113Y-203610317D01*
X51870124Y-203607818D01*
X51899215Y-203601919D01*
X51928986Y-203592548D01*
X51959436Y-203579708D01*
X51990567Y-203563397D01*
X52015960Y-203547849D01*
X52028820Y-203539242D01*
X52054992Y-203520466D01*
X52078551Y-203501690D01*
X52103375Y-203479159D01*
X52124438Y-203456627D01*
X52144259Y-203430341D01*
X52151186Y-203419075D01*
X52165291Y-203392697D01*
X52174030Y-203360471D01*
X52181228Y-203326751D01*
X52189789Y-203295873D01*
X52202832Y-203268087D01*
X52220357Y-203243392D01*
X52242365Y-203221788D01*
X52268855Y-203203275D01*
X52278681Y-203197791D01*
X52307291Y-203186771D01*
X52336872Y-203182064D01*
X52349023Y-203181671D01*
X52383383Y-203184283D01*
X52417315Y-203192118D01*
X52450817Y-203205177D01*
X52477310Y-203219385D01*
X52503528Y-203236936D01*
X52529471Y-203257830D01*
X52555140Y-203282068D01*
X52561514Y-203288649D01*
X52585179Y-203315543D01*
X52604882Y-203342734D01*
X52620624Y-203370222D01*
X52632405Y-203398009D01*
X52641561Y-203433161D01*
X52644527Y-203468777D01*
X52641303Y-203504859D01*
X52639916Y-203512131D01*
X52632035Y-203543604D01*
X52621308Y-203575372D01*
X52607735Y-203607437D01*
X52591315Y-203639798D01*
X52572049Y-203672455D01*
X52549936Y-203705409D01*
X52524977Y-203738658D01*
X52497171Y-203772204D01*
X52477053Y-203794733D01*
X52455669Y-203817393D01*
X52433020Y-203840185D01*
X52409106Y-203863108D01*
X52386551Y-203886310D01*
X52360094Y-203904599D01*
X52332719Y-203920261D01*
X52299827Y-203936839D01*
X52271536Y-203949874D01*
X52240141Y-203963423D01*
X52205642Y-203977488D01*
X52168039Y-203992069D01*
X52138792Y-204002845D01*
X52110039Y-204012825D01*
X52081777Y-204022010D01*
X52040308Y-204034296D01*
X51999946Y-204044791D01*
X51960692Y-204053495D01*
X51922546Y-204060410D01*
X51885507Y-204065534D01*
X51849576Y-204068868D01*
X51814753Y-204070411D01*
X51781038Y-204070164D01*
X51759176Y-204069005D01*
X51718699Y-204064969D01*
X51679332Y-204058358D01*
X51641075Y-204049170D01*
X51603929Y-204037406D01*
X51567894Y-204023066D01*
X51532969Y-204006151D01*
X51499155Y-203986659D01*
X51466451Y-203964591D01*
X51434858Y-203939948D01*
X51404375Y-203912728D01*
X51375003Y-203882932D01*
X51346741Y-203850560D01*
X51319590Y-203815613D01*
X51293550Y-203778089D01*
X51268620Y-203737989D01*
X51244801Y-203695314D01*
X51224570Y-203654727D01*
X51205645Y-203613019D01*
X51188026Y-203570189D01*
X51171711Y-203526236D01*
X51156701Y-203481162D01*
X51142997Y-203434966D01*
X51130598Y-203387648D01*
X51119504Y-203339207D01*
X51109715Y-203289645D01*
X51101232Y-203238961D01*
X51094053Y-203187155D01*
X51088180Y-203134227D01*
X51083612Y-203080176D01*
X51080349Y-203025004D01*
X51078391Y-202968710D01*
X51077739Y-202911294D01*
X51077921Y-202880134D01*
X51078468Y-202849212D01*
X51079320Y-202820573D01*
X51589813Y-202820573D01*
X51590714Y-202855458D01*
X51592847Y-202890045D01*
X51623222Y-202878908D01*
X51653623Y-202864731D01*
X51684050Y-202847515D01*
X51714503Y-202827259D01*
X51744981Y-202803964D01*
X51775485Y-202777628D01*
X51806015Y-202748253D01*
X51826382Y-202726981D01*
X51846761Y-202704358D01*
X51867152Y-202680384D01*
X51887554Y-202655059D01*
X51907967Y-202628383D01*
X51918178Y-202614539D01*
X51937965Y-202586621D01*
X51956475Y-202559103D01*
X51973708Y-202531987D01*
X51989665Y-202505271D01*
X52004345Y-202478956D01*
X52023972Y-202440234D01*
X52040727Y-202402414D01*
X52054609Y-202365496D01*
X52065620Y-202329479D01*
X52073758Y-202294364D01*
X52079024Y-202260150D01*
X52081417Y-202226838D01*
X52081577Y-202215935D01*
X52079653Y-202182962D01*
X52071839Y-202147928D01*
X52058015Y-202119764D01*
X52033491Y-202095034D01*
X52006443Y-202081983D01*
X51973385Y-202075800D01*
X51958478Y-202075251D01*
X51921040Y-202078777D01*
X51885297Y-202089356D01*
X51851248Y-202106987D01*
X51826823Y-202124839D01*
X51803352Y-202146657D01*
X51780833Y-202172443D01*
X51759268Y-202202196D01*
X51738655Y-202235916D01*
X51718996Y-202273603D01*
X51706420Y-202300931D01*
X51690091Y-202339983D01*
X51674992Y-202378738D01*
X51661125Y-202417195D01*
X51648488Y-202455354D01*
X51637082Y-202493215D01*
X51626907Y-202530779D01*
X51617963Y-202568045D01*
X51610249Y-202605013D01*
X51603766Y-202641684D01*
X51598514Y-202678057D01*
X51594492Y-202714133D01*
X51591702Y-202749911D01*
X51590142Y-202785391D01*
X51589813Y-202820573D01*
X51079320Y-202820573D01*
X51079381Y-202818528D01*
X51080658Y-202788081D01*
X51082300Y-202757872D01*
X51084307Y-202727900D01*
X51086679Y-202698166D01*
X51089416Y-202668669D01*
X51092518Y-202639410D01*
X51099817Y-202581605D01*
X51108575Y-202524750D01*
X51118793Y-202468845D01*
X51130471Y-202413890D01*
X51143609Y-202359886D01*
X51158206Y-202306832D01*
X51174263Y-202254728D01*
X51191780Y-202203574D01*
X51210757Y-202153371D01*
X51231193Y-202104118D01*
X51253089Y-202055815D01*
X51264584Y-202032020D01*
X51291627Y-201980617D01*
X51319814Y-201932105D01*
X51349146Y-201886484D01*
X51379623Y-201843754D01*
X51411244Y-201803915D01*
X51444011Y-201766967D01*
X51477923Y-201732909D01*
X51512979Y-201701742D01*
X51549181Y-201673466D01*
X51586527Y-201648081D01*
X51625018Y-201625587D01*
X51664654Y-201605984D01*
X51705435Y-201589271D01*
X51747361Y-201575450D01*
X51790432Y-201564519D01*
X51834647Y-201556479D01*
X51864500Y-201556479D01*
X51897931Y-201556479D01*
X51930629Y-201556479D01*
X51962594Y-201556479D01*
X51966538Y-201556479D01*
X51998642Y-201557091D01*
G37*
G36*
X54730390Y-201700094D02*
G01*
X54744175Y-201730090D01*
X54754021Y-201760727D01*
X54759928Y-201792005D01*
X54761898Y-201823925D01*
X54759270Y-201859190D01*
X54753066Y-201890821D01*
X54743213Y-201924492D01*
X54732703Y-201952897D01*
X54719857Y-201982606D01*
X54704676Y-202013621D01*
X54687159Y-202045942D01*
X54669209Y-202076053D01*
X54652727Y-202104013D01*
X54637713Y-202129823D01*
X54619979Y-202160889D01*
X54604855Y-202188132D01*
X54589621Y-202216808D01*
X54576723Y-202243332D01*
X54571388Y-202256235D01*
X54559745Y-202289613D01*
X54547898Y-202323528D01*
X54535846Y-202357980D01*
X54523589Y-202392969D01*
X54511128Y-202428494D01*
X54498462Y-202464556D01*
X54485591Y-202501154D01*
X54472516Y-202538289D01*
X54459236Y-202575961D01*
X54445751Y-202614170D01*
X54432062Y-202652915D01*
X54418168Y-202692197D01*
X54404069Y-202732015D01*
X54389766Y-202772370D01*
X54375258Y-202813262D01*
X54360546Y-202854691D01*
X54345628Y-202896656D01*
X54330507Y-202939158D01*
X54315180Y-202982196D01*
X54299649Y-203025771D01*
X54283913Y-203069883D01*
X54267973Y-203114532D01*
X54251828Y-203159717D01*
X54235478Y-203205439D01*
X54218924Y-203251697D01*
X54202165Y-203298492D01*
X54185201Y-203345824D01*
X54168033Y-203393693D01*
X54150660Y-203442098D01*
X54133082Y-203491040D01*
X54115300Y-203540518D01*
X54097313Y-203590533D01*
X54090318Y-203624989D01*
X54083070Y-203658196D01*
X54075571Y-203690156D01*
X54067821Y-203720867D01*
X54059818Y-203750331D01*
X54051563Y-203778547D01*
X54038709Y-203818531D01*
X54025288Y-203855707D01*
X54011300Y-203890075D01*
X53996746Y-203921635D01*
X53981625Y-203950387D01*
X53965937Y-203976332D01*
X53955163Y-203992069D01*
X53933328Y-204022463D01*
X53909585Y-204049625D01*
X53883937Y-204073554D01*
X53856383Y-204094250D01*
X53826922Y-204111713D01*
X53795555Y-204125943D01*
X53762281Y-204136941D01*
X53727102Y-204144705D01*
X53690016Y-204149237D01*
X53651024Y-204150535D01*
X53623970Y-204149605D01*
X53586524Y-204146480D01*
X53551396Y-204142324D01*
X53518586Y-204137137D01*
X53488095Y-204130921D01*
X53451046Y-204121029D01*
X53418119Y-204109305D01*
X53389314Y-204095750D01*
X53359103Y-204076229D01*
X53344068Y-204063143D01*
X53324645Y-204039453D01*
X53309240Y-204011795D01*
X53297854Y-203980170D01*
X53291436Y-203950786D01*
X53287808Y-203918647D01*
X53286915Y-203890952D01*
X53286915Y-203860291D01*
X53286915Y-203844790D01*
X53286915Y-203815315D01*
X53286915Y-203802292D01*
X53286354Y-203771748D01*
X53284339Y-203739760D01*
X53280321Y-203707495D01*
X53275191Y-203682124D01*
X52846545Y-202144860D01*
X52833871Y-202114618D01*
X52818209Y-202088789D01*
X52800750Y-202063802D01*
X52779283Y-202035666D01*
X52759225Y-202010891D01*
X52742498Y-201990987D01*
X52722199Y-201966784D01*
X52701559Y-201936981D01*
X52686178Y-201907679D01*
X52676056Y-201878878D01*
X52670853Y-201844978D01*
X52673223Y-201811799D01*
X52674354Y-201806339D01*
X52684894Y-201770067D01*
X52699479Y-201737363D01*
X52718107Y-201708226D01*
X52740780Y-201682657D01*
X52767498Y-201660656D01*
X52798260Y-201642222D01*
X52833066Y-201627357D01*
X52871916Y-201616059D01*
X52914811Y-201608329D01*
X52945654Y-201605157D01*
X52978295Y-201603572D01*
X52995289Y-201603374D01*
X53026742Y-201604127D01*
X53056804Y-201606387D01*
X53088575Y-201610666D01*
X53100802Y-201612899D01*
X53133934Y-201624072D01*
X53166833Y-201644403D01*
X53199501Y-201673892D01*
X53221151Y-201698639D01*
X53242698Y-201727456D01*
X53264142Y-201760343D01*
X53285483Y-201797300D01*
X53306720Y-201838327D01*
X53327855Y-201883424D01*
X53348886Y-201932591D01*
X53369815Y-201985829D01*
X53380241Y-202013973D01*
X53390641Y-202043136D01*
X53401015Y-202073316D01*
X53411363Y-202104513D01*
X53421686Y-202136728D01*
X53431982Y-202169961D01*
X53442254Y-202204211D01*
X53450389Y-202235914D01*
X53458491Y-202267457D01*
X53466560Y-202298842D01*
X53474597Y-202330069D01*
X53482600Y-202361136D01*
X53490571Y-202392044D01*
X53498508Y-202422794D01*
X53506413Y-202453384D01*
X53514285Y-202483816D01*
X53522124Y-202514089D01*
X53529930Y-202544203D01*
X53537703Y-202574159D01*
X53545443Y-202603955D01*
X53553150Y-202633593D01*
X53560825Y-202663071D01*
X53568466Y-202692391D01*
X53576075Y-202721552D01*
X53583650Y-202750555D01*
X53591193Y-202779398D01*
X53598703Y-202808082D01*
X53606179Y-202836608D01*
X53613623Y-202864975D01*
X53628412Y-202921232D01*
X53643070Y-202976853D01*
X53657596Y-203031839D01*
X53671990Y-203086190D01*
X53686252Y-203139905D01*
X54098778Y-201871552D01*
X54109236Y-201840823D01*
X54119086Y-201813206D01*
X54130102Y-201784174D01*
X54141848Y-201755969D01*
X54155198Y-201728670D01*
X54171522Y-201702515D01*
X54190266Y-201677906D01*
X54211432Y-201654842D01*
X54235020Y-201633324D01*
X54261029Y-201613351D01*
X54270237Y-201607037D01*
X54299423Y-201589855D01*
X54330927Y-201576228D01*
X54358952Y-201567588D01*
X54388587Y-201561416D01*
X54419831Y-201557713D01*
X54452686Y-201556479D01*
X54490487Y-201557741D01*
X54525853Y-201561528D01*
X54558785Y-201567839D01*
X54589283Y-201576675D01*
X54617346Y-201588035D01*
X54650977Y-201607109D01*
X54680281Y-201630671D01*
X54705256Y-201658720D01*
X54725904Y-201691258D01*
X54730390Y-201700094D01*
G37*
G36*
X55371528Y-203485753D02*
G01*
X55374683Y-203518056D01*
X55373790Y-203549106D01*
X55369417Y-203582353D01*
X55362735Y-203613248D01*
X55352953Y-203643666D01*
X55343199Y-203674029D01*
X55333559Y-203704093D01*
X55326099Y-203727554D01*
X55323763Y-203760252D01*
X55321494Y-203790215D01*
X55319015Y-203821440D01*
X55316325Y-203853928D01*
X55315108Y-203868237D01*
X55310329Y-203900530D01*
X55301764Y-203930087D01*
X55289412Y-203956910D01*
X55270659Y-203984215D01*
X55262351Y-203993534D01*
X55238228Y-204012377D01*
X55211301Y-204024845D01*
X55178603Y-204033913D01*
X55146946Y-204038872D01*
X55111283Y-204041469D01*
X55087962Y-204041894D01*
X55057668Y-204041150D01*
X55028336Y-204038917D01*
X54993023Y-204034034D01*
X54959213Y-204026825D01*
X54926906Y-204017290D01*
X54896101Y-204005429D01*
X54872540Y-203994267D01*
X54844822Y-203979452D01*
X54815166Y-203958937D01*
X54791055Y-203936204D01*
X54772490Y-203911252D01*
X54759470Y-203884083D01*
X54751996Y-203854695D01*
X54750174Y-203835997D01*
X54752945Y-203804891D01*
X54760272Y-203774208D01*
X54770782Y-203744635D01*
X54773621Y-203737812D01*
X54785419Y-203708806D01*
X54796061Y-203679651D01*
X54802930Y-203655746D01*
X54805748Y-203625836D01*
X54806279Y-203594540D01*
X54805953Y-203560125D01*
X54805130Y-203526093D01*
X54804396Y-203503339D01*
X54805738Y-203471250D01*
X54809763Y-203441844D01*
X54818135Y-203410099D01*
X54830371Y-203382218D01*
X54849530Y-203354574D01*
X54859351Y-203344337D01*
X54886519Y-203323780D01*
X54914271Y-203310179D01*
X54946144Y-203300287D01*
X54975854Y-203294877D01*
X55008426Y-203292044D01*
X55029344Y-203291580D01*
X55065025Y-203292850D01*
X55100169Y-203296661D01*
X55134777Y-203303011D01*
X55168848Y-203311902D01*
X55202383Y-203323333D01*
X55235381Y-203337304D01*
X55248429Y-203343604D01*
X55278869Y-203360598D01*
X55305159Y-203379525D01*
X55327298Y-203400383D01*
X55348387Y-203427963D01*
X55363499Y-203458326D01*
X55371528Y-203485753D01*
G37*
G36*
X56704814Y-200525293D02*
G01*
X56737222Y-200526781D01*
X56768613Y-200529260D01*
X56798986Y-200532731D01*
X56828342Y-200537194D01*
X56865900Y-200544687D01*
X56901649Y-200553944D01*
X56935589Y-200564963D01*
X56967720Y-200577746D01*
X56975471Y-200581217D01*
X57004803Y-200597326D01*
X57031250Y-200614877D01*
X57054811Y-200633871D01*
X57081739Y-200661440D01*
X57103538Y-200691573D01*
X57120207Y-200724271D01*
X57131748Y-200759534D01*
X57138159Y-200797361D01*
X57139602Y-200827414D01*
X57138434Y-200863089D01*
X57134931Y-200897573D01*
X57129092Y-200930866D01*
X57120917Y-200962969D01*
X57110407Y-200993881D01*
X57097561Y-201023602D01*
X57082380Y-201052133D01*
X57064863Y-201079473D01*
X57069984Y-201123362D01*
X57075454Y-201167652D01*
X57081273Y-201212343D01*
X57087441Y-201257434D01*
X57093958Y-201302926D01*
X57100824Y-201348819D01*
X57108040Y-201395113D01*
X57115605Y-201441807D01*
X57123519Y-201488902D01*
X57131782Y-201536398D01*
X57140395Y-201584294D01*
X57149356Y-201632591D01*
X57158667Y-201681289D01*
X57168327Y-201730387D01*
X57178336Y-201779887D01*
X57188695Y-201829787D01*
X57199402Y-201880087D01*
X57210459Y-201930789D01*
X57221865Y-201981891D01*
X57233620Y-202033394D01*
X57245724Y-202085297D01*
X57258178Y-202137601D01*
X57270981Y-202190306D01*
X57284132Y-202243412D01*
X57297634Y-202296918D01*
X57311484Y-202350825D01*
X57325683Y-202405133D01*
X57340232Y-202459842D01*
X57355130Y-202514951D01*
X57370377Y-202570461D01*
X57385973Y-202626371D01*
X57401919Y-202682683D01*
X57432333Y-202675530D01*
X57462025Y-202668085D01*
X57494404Y-202659874D01*
X57525305Y-202651992D01*
X57551395Y-202645314D01*
X57583775Y-202636349D01*
X57613322Y-202629239D01*
X57644212Y-202623289D01*
X57674792Y-202619579D01*
X57691346Y-202618935D01*
X57721388Y-202620859D01*
X57751682Y-202627621D01*
X57780991Y-202640844D01*
X57793928Y-202649710D01*
X57821820Y-202672456D01*
X57846968Y-202696181D01*
X57869373Y-202720885D01*
X57889034Y-202746567D01*
X57905952Y-202773229D01*
X57920127Y-202800870D01*
X57931557Y-202829489D01*
X57940245Y-202859087D01*
X57946189Y-202889664D01*
X57949390Y-202921220D01*
X57950000Y-202942801D01*
X57948801Y-202972089D01*
X57944198Y-203006573D01*
X57936144Y-203040336D01*
X57924638Y-203073377D01*
X57912413Y-203100361D01*
X57900907Y-203121587D01*
X57881768Y-203147378D01*
X57855125Y-203168330D01*
X57826317Y-203182438D01*
X57798099Y-203191479D01*
X57766053Y-203198051D01*
X57752163Y-203199989D01*
X57721931Y-203201198D01*
X57687019Y-203202851D01*
X57654096Y-203204461D01*
X57622966Y-203206007D01*
X57596824Y-203207316D01*
X57602887Y-203237722D01*
X57611731Y-203270136D01*
X57623357Y-203304560D01*
X57637766Y-203340993D01*
X57654956Y-203379436D01*
X57667962Y-203406181D01*
X57682204Y-203433818D01*
X57697683Y-203462349D01*
X57714399Y-203491772D01*
X57732351Y-203522089D01*
X57751539Y-203553299D01*
X57771964Y-203585401D01*
X57793625Y-203618397D01*
X57804919Y-203635230D01*
X57832053Y-203657189D01*
X57855569Y-203680934D01*
X57875467Y-203706465D01*
X57891748Y-203733782D01*
X57904410Y-203762885D01*
X57913455Y-203793774D01*
X57918881Y-203826449D01*
X57920690Y-203860910D01*
X57918269Y-203901635D01*
X57911005Y-203938353D01*
X57898897Y-203971066D01*
X57881947Y-203999774D01*
X57860154Y-204024475D01*
X57833519Y-204045171D01*
X57802040Y-204061862D01*
X57765718Y-204074546D01*
X57724554Y-204083225D01*
X57694420Y-204086786D01*
X57662134Y-204088566D01*
X57645184Y-204088789D01*
X57614464Y-204088308D01*
X57584952Y-204086865D01*
X57542948Y-204082898D01*
X57503662Y-204076767D01*
X57467093Y-204068473D01*
X57433243Y-204058014D01*
X57402110Y-204045392D01*
X57373694Y-204030606D01*
X57347996Y-204013655D01*
X57325016Y-203994542D01*
X57304754Y-203973264D01*
X57298604Y-203965690D01*
X57283629Y-203940228D01*
X57271676Y-203910736D01*
X57263697Y-203881624D01*
X57258032Y-203849427D01*
X57256838Y-203839661D01*
X57256405Y-203808200D01*
X57255107Y-203778298D01*
X57253175Y-203752466D01*
X57234756Y-203725161D01*
X57216667Y-203691272D01*
X57200050Y-203657621D01*
X57180818Y-203616912D01*
X57166544Y-203585851D01*
X57151108Y-203551653D01*
X57134510Y-203514318D01*
X57116750Y-203473846D01*
X57097828Y-203430238D01*
X57077743Y-203383492D01*
X57056497Y-203333609D01*
X57034089Y-203280589D01*
X56992690Y-203286706D01*
X56950008Y-203293149D01*
X56906045Y-203299918D01*
X56860799Y-203307013D01*
X56814270Y-203314435D01*
X56766460Y-203322183D01*
X56717367Y-203330257D01*
X56666992Y-203338658D01*
X56615334Y-203347385D01*
X56562395Y-203356438D01*
X56508173Y-203365818D01*
X56452669Y-203375523D01*
X56395882Y-203385555D01*
X56367008Y-203390694D01*
X56337814Y-203395914D01*
X56308298Y-203401215D01*
X56278463Y-203406598D01*
X56248306Y-203412063D01*
X56217829Y-203417609D01*
X56206300Y-203446701D01*
X56194428Y-203479388D01*
X56182212Y-203515669D01*
X56172824Y-203545239D01*
X56163244Y-203576832D01*
X56153470Y-203610447D01*
X56143503Y-203646083D01*
X56133343Y-203683742D01*
X56122990Y-203723423D01*
X56115980Y-203751001D01*
X56120445Y-203780333D01*
X56122849Y-203810077D01*
X56123307Y-203830136D01*
X56122002Y-203860372D01*
X56116700Y-203895624D01*
X56107319Y-203928049D01*
X56093859Y-203957648D01*
X56076321Y-203984421D01*
X56054704Y-204008367D01*
X56039776Y-204021378D01*
X56013150Y-204040798D01*
X55985022Y-204056927D01*
X55955391Y-204069764D01*
X55924257Y-204079309D01*
X55891620Y-204085563D01*
X55857481Y-204088525D01*
X55843405Y-204088789D01*
X55812172Y-204087312D01*
X55781489Y-204082881D01*
X55751356Y-204075497D01*
X55721772Y-204065158D01*
X55692738Y-204051866D01*
X55664253Y-204035620D01*
X55636318Y-204016420D01*
X55608932Y-203994267D01*
X55583687Y-203970098D01*
X55561808Y-203944853D01*
X55543295Y-203918532D01*
X55528148Y-203891135D01*
X55516368Y-203862662D01*
X55507953Y-203833112D01*
X55502904Y-203802487D01*
X55501221Y-203770785D01*
X55503636Y-203735128D01*
X55510881Y-203700975D01*
X55522956Y-203668324D01*
X55539861Y-203637176D01*
X55561596Y-203607531D01*
X55582461Y-203584896D01*
X55600139Y-203568551D01*
X55619826Y-203469166D01*
X55639778Y-203370861D01*
X55659995Y-203273636D01*
X55680476Y-203177492D01*
X55701222Y-203082428D01*
X55722233Y-202988445D01*
X55743508Y-202895542D01*
X55750814Y-202864399D01*
X56320411Y-202864399D01*
X56843579Y-202773541D01*
X56835130Y-202741971D01*
X56826086Y-202706977D01*
X56816446Y-202668560D01*
X56806210Y-202626721D01*
X56795380Y-202581457D01*
X56783954Y-202532771D01*
X56771932Y-202480661D01*
X56759316Y-202425129D01*
X56752784Y-202396078D01*
X56746104Y-202366173D01*
X56739274Y-202335411D01*
X56732296Y-202303793D01*
X56725169Y-202271320D01*
X56717894Y-202237991D01*
X56710469Y-202203806D01*
X56702896Y-202168765D01*
X56695173Y-202132869D01*
X56687302Y-202096116D01*
X56679282Y-202058508D01*
X56671113Y-202020044D01*
X56662796Y-201980724D01*
X56654329Y-201940549D01*
X56645714Y-201899518D01*
X56636950Y-201857630D01*
X56620492Y-201893661D01*
X56604458Y-201929398D01*
X56588847Y-201964839D01*
X56573661Y-201999986D01*
X56558897Y-202034838D01*
X56544557Y-202069395D01*
X56530641Y-202103657D01*
X56517149Y-202137624D01*
X56504080Y-202171297D01*
X56491435Y-202204675D01*
X56479213Y-202237758D01*
X56467415Y-202270546D01*
X56456040Y-202303039D01*
X56445090Y-202335238D01*
X56434562Y-202367141D01*
X56424459Y-202398750D01*
X56414779Y-202430064D01*
X56405522Y-202461084D01*
X56396689Y-202491808D01*
X56388280Y-202522238D01*
X56380295Y-202552373D01*
X56372733Y-202582213D01*
X56365594Y-202611758D01*
X56358879Y-202641009D01*
X56352588Y-202669964D01*
X56341277Y-202726991D01*
X56331660Y-202782839D01*
X56323737Y-202837507D01*
X56320411Y-202864399D01*
X55750814Y-202864399D01*
X55765049Y-202803720D01*
X55786854Y-202712979D01*
X55808924Y-202623317D01*
X55831258Y-202534737D01*
X55853858Y-202447236D01*
X55876722Y-202360817D01*
X55899851Y-202275477D01*
X55923244Y-202191219D01*
X55946903Y-202108040D01*
X55970826Y-202025943D01*
X55995014Y-201944925D01*
X56019467Y-201864988D01*
X56044184Y-201786132D01*
X56069166Y-201708356D01*
X56094413Y-201631661D01*
X56119925Y-201556046D01*
X56145701Y-201481512D01*
X56171742Y-201408058D01*
X56198048Y-201335684D01*
X56224619Y-201264391D01*
X56251455Y-201194179D01*
X56278555Y-201125047D01*
X56305920Y-201056996D01*
X56333550Y-200990025D01*
X56361444Y-200924134D01*
X56357194Y-200895025D01*
X56354517Y-200864485D01*
X56353415Y-200832514D01*
X56353384Y-200825949D01*
X56354801Y-200785078D01*
X56359051Y-200746822D01*
X56366135Y-200711181D01*
X56376053Y-200678155D01*
X56388804Y-200647743D01*
X56404389Y-200619946D01*
X56422807Y-200594763D01*
X56444059Y-200572196D01*
X56468145Y-200552242D01*
X56495064Y-200534904D01*
X56514584Y-200524797D01*
X56548290Y-200524797D01*
X56580787Y-200524797D01*
X56610875Y-200524797D01*
X56643024Y-200524797D01*
X56671388Y-200524797D01*
X56704814Y-200525293D01*
G37*
M02*
