%TF.GenerationSoftware,KiCad,Pcbnew,7.0.7*%
%TF.CreationDate,2024-04-14T23:27:05+02:00*%
%TF.ProjectId,isokey,69736f6b-6579-42e6-9b69-6361645f7063,A*%
%TF.SameCoordinates,Original*%
%TF.FileFunction,Soldermask,Bot*%
%TF.FilePolarity,Negative*%
%FSLAX46Y46*%
G04 Gerber Fmt 4.6, Leading zero omitted, Abs format (unit mm)*
G04 Created by KiCad (PCBNEW 7.0.7) date 2024-04-14 23:27:05*
%MOMM*%
%LPD*%
G01*
G04 APERTURE LIST*
G04 Aperture macros list*
%AMRoundRect*
0 Rectangle with rounded corners*
0 $1 Rounding radius*
0 $2 $3 $4 $5 $6 $7 $8 $9 X,Y pos of 4 corners*
0 Add a 4 corners polygon primitive as box body*
4,1,4,$2,$3,$4,$5,$6,$7,$8,$9,$2,$3,0*
0 Add four circle primitives for the rounded corners*
1,1,$1+$1,$2,$3*
1,1,$1+$1,$4,$5*
1,1,$1+$1,$6,$7*
1,1,$1+$1,$8,$9*
0 Add four rect primitives between the rounded corners*
20,1,$1+$1,$2,$3,$4,$5,0*
20,1,$1+$1,$4,$5,$6,$7,0*
20,1,$1+$1,$6,$7,$8,$9,0*
20,1,$1+$1,$8,$9,$2,$3,0*%
%AMRotRect*
0 Rectangle, with rotation*
0 The origin of the aperture is its center*
0 $1 length*
0 $2 width*
0 $3 Rotation angle, in degrees counterclockwise*
0 Add horizontal line*
21,1,$1,$2,0,0,$3*%
%AMFreePoly0*
4,1,6,1.000000,0.000000,0.500000,-0.750000,-0.500000,-0.750000,-0.500000,0.750000,0.500000,0.750000,1.000000,0.000000,1.000000,0.000000,$1*%
G04 Aperture macros list end*
%ADD10C,1.701800*%
%ADD11C,3.000000*%
%ADD12C,3.987800*%
%ADD13R,2.550000X2.500000*%
%ADD14C,2.900000*%
%ADD15C,5.000000*%
%ADD16RoundRect,0.100000X-0.900000X-0.400000X0.900000X-0.400000X0.900000X0.400000X-0.900000X0.400000X0*%
%ADD17RoundRect,0.526600X-0.425000X0.425000X-0.425000X-0.425000X0.425000X-0.425000X0.425000X0.425000X0*%
%ADD18C,2.082800*%
%ADD19C,1.903200*%
%ADD20RoundRect,0.526600X0.514800X-0.425000X0.514800X0.425000X-0.514800X0.425000X-0.514800X-0.425000X0*%
%ADD21C,3.048000*%
%ADD22C,1.524000*%
%ADD23C,1.200000*%
%ADD24O,2.000000X1.400000*%
%ADD25R,2.000000X1.400000*%
%ADD26RotRect,2.000000X2.000000X300.000000*%
%ADD27C,2.000000*%
%ADD28C,2.800000*%
%ADD29RotRect,2.550000X2.500000X15.000000*%
%ADD30C,1.750000*%
%ADD31C,2.300000*%
%ADD32RotRect,2.550000X2.500000X300.000000*%
%ADD33RoundRect,0.237500X0.250000X0.237500X-0.250000X0.237500X-0.250000X-0.237500X0.250000X-0.237500X0*%
%ADD34R,1.500000X1.500000*%
%ADD35FreePoly0,0.000000*%
%ADD36FreePoly0,180.000000*%
%ADD37R,1.500000X0.850000*%
%ADD38RoundRect,0.237500X0.300000X0.237500X-0.300000X0.237500X-0.300000X-0.237500X0.300000X-0.237500X0*%
%ADD39RoundRect,0.250000X0.020994X-0.536362X0.454006X-0.286362X-0.020994X0.536362X-0.454006X0.286362X0*%
%ADD40RoundRect,0.237500X-0.237500X0.300000X-0.237500X-0.300000X0.237500X-0.300000X0.237500X0.300000X0*%
%ADD41RoundRect,0.237500X0.330681X-0.097756X0.080681X0.335256X-0.330681X0.097756X-0.080681X-0.335256X0*%
%ADD42RoundRect,0.250000X0.650000X-0.325000X0.650000X0.325000X-0.650000X0.325000X-0.650000X-0.325000X0*%
%ADD43RotRect,1.500000X1.500000X120.000000*%
%ADD44FreePoly0,120.000000*%
%ADD45FreePoly0,300.000000*%
%ADD46RoundRect,0.225000X0.007356X0.437260X-0.382356X0.212260X-0.007356X-0.437260X0.382356X-0.212260X0*%
%ADD47RoundRect,0.225000X-0.420456X0.120276X-0.303988X-0.314390X0.420456X-0.120276X0.303988X0.314390X0*%
%ADD48RoundRect,0.237500X0.237500X-0.250000X0.237500X0.250000X-0.237500X0.250000X-0.237500X-0.250000X0*%
%ADD49RoundRect,0.250000X-0.650000X0.325000X-0.650000X-0.325000X0.650000X-0.325000X0.650000X0.325000X0*%
%ADD50RoundRect,0.225000X-0.375000X0.225000X-0.375000X-0.225000X0.375000X-0.225000X0.375000X0.225000X0*%
%ADD51RoundRect,0.237500X0.237500X-0.287500X0.237500X0.287500X-0.237500X0.287500X-0.237500X-0.287500X0*%
%ADD52RoundRect,0.237500X0.355681X-0.141058X0.055681X0.378558X-0.355681X0.141058X-0.055681X-0.378558X0*%
%ADD53RoundRect,0.237500X-0.339173X-0.154997X0.216234X-0.303818X0.339173X0.154997X-0.216234X0.303818X0*%
%ADD54RoundRect,0.250000X0.250000X0.475000X-0.250000X0.475000X-0.250000X-0.475000X0.250000X-0.475000X0*%
%ADD55RoundRect,0.237500X-0.130232X-0.349431X0.367732X-0.061931X0.130232X0.349431X-0.367732X0.061931X0*%
%ADD56RoundRect,0.250000X-0.020994X0.536362X-0.454006X0.286362X0.020994X-0.536362X0.454006X-0.286362X0*%
%ADD57RotRect,1.500000X0.850000X195.000000*%
%ADD58RoundRect,0.237500X0.097756X0.330681X-0.335256X0.080681X-0.097756X-0.330681X0.335256X-0.080681X0*%
%ADD59RotRect,1.500000X1.500000X300.000000*%
%ADD60RoundRect,0.250000X-0.325000X-0.650000X0.325000X-0.650000X0.325000X0.650000X-0.325000X0.650000X0*%
%ADD61RoundRect,0.250000X0.325000X0.650000X-0.325000X0.650000X-0.325000X-0.650000X0.325000X-0.650000X0*%
%ADD62RoundRect,0.150000X0.368838X0.386154X-0.518838X-0.126346X-0.368838X-0.386154X0.518838X0.126346X0*%
%ADD63RoundRect,0.237500X-0.330681X0.097756X-0.080681X-0.335256X0.330681X-0.097756X0.080681X0.335256X0*%
%ADD64RoundRect,0.150000X-0.512500X-0.150000X0.512500X-0.150000X0.512500X0.150000X-0.512500X0.150000X0*%
%ADD65RotRect,1.500000X0.850000X120.000000*%
%ADD66RoundRect,0.225000X-0.007356X-0.437260X0.382356X-0.212260X0.007356X0.437260X-0.382356X0.212260X0*%
%ADD67RoundRect,0.075000X0.276434X0.246202X-0.351434X-0.116298X-0.276434X-0.246202X0.351434X0.116298X0*%
%ADD68RoundRect,0.075000X-0.116298X0.351434X-0.246202X0.276434X0.116298X-0.351434X0.246202X-0.276434X0*%
%ADD69RotRect,2.450000X2.450000X210.000000*%
%ADD70RoundRect,0.237500X0.228308X0.307053X-0.351247X0.151762X-0.228308X-0.307053X0.351247X-0.151762X0*%
%ADD71RoundRect,0.237500X-0.349431X0.130232X-0.061931X-0.367732X0.349431X-0.130232X0.061931X0.367732X0*%
%ADD72RoundRect,0.237500X-0.250000X-0.237500X0.250000X-0.237500X0.250000X0.237500X-0.250000X0.237500X0*%
%ADD73RoundRect,0.237500X0.154997X-0.339173X0.303818X0.216234X-0.154997X0.339173X-0.303818X-0.216234X0*%
%ADD74RoundRect,0.237500X-0.355681X0.141058X-0.055681X-0.378558X0.355681X-0.141058X0.055681X0.378558X0*%
%ADD75RoundRect,0.250000X0.475000X-0.250000X0.475000X0.250000X-0.475000X0.250000X-0.475000X-0.250000X0*%
G04 APERTURE END LIST*
D10*
%TO.C,SW27*%
X190401653Y-145400300D03*
D11*
X191671653Y-142860300D03*
D12*
X195481653Y-145400300D03*
D11*
X198021653Y-140320300D03*
D10*
X200561653Y-145400300D03*
D13*
X201771653Y-140320300D03*
X187921653Y-142860300D03*
%TD*%
D10*
%TO.C,SW11*%
X133251653Y-126350150D03*
D11*
X134521653Y-123810150D03*
D12*
X138331653Y-126350150D03*
D11*
X140871653Y-121270150D03*
D10*
X143411653Y-126350150D03*
D13*
X144621653Y-121270150D03*
X130771653Y-123810150D03*
%TD*%
D14*
%TO.C,H3*%
X74309144Y-196898914D03*
D15*
X74309144Y-196898914D03*
%TD*%
D16*
%TO.C,TP7*%
X222883165Y-182800023D03*
%TD*%
%TO.C,TP10*%
X222883165Y-117550023D03*
%TD*%
D14*
%TO.C,H6*%
X91309144Y-104898914D03*
D15*
X91309144Y-104898914D03*
%TD*%
D10*
%TO.C,SW37*%
X190401653Y-164450450D03*
D11*
X191671653Y-161910450D03*
D12*
X195481653Y-164450450D03*
D11*
X198021653Y-159370450D03*
D10*
X200561653Y-164450450D03*
D13*
X201771653Y-159370450D03*
X187921653Y-161910450D03*
%TD*%
D10*
%TO.C,SW1*%
X133251653Y-107300000D03*
D11*
X134521653Y-104760000D03*
D12*
X138331653Y-107300000D03*
D11*
X140871653Y-102220000D03*
D10*
X143411653Y-107300000D03*
D13*
X144621653Y-102220000D03*
X130771653Y-104760000D03*
%TD*%
D16*
%TO.C,TP6*%
X222950565Y-136473123D03*
%TD*%
D10*
%TO.C,SW45*%
X168420827Y-186357950D03*
D11*
X169690827Y-183817950D03*
D12*
X173500827Y-186357950D03*
D11*
X176040827Y-181277950D03*
D10*
X178580827Y-186357950D03*
D13*
X179790827Y-181277950D03*
X165940827Y-183817950D03*
%TD*%
D10*
%TO.C,SW17*%
X190401653Y-126350150D03*
D11*
X191671653Y-123810150D03*
D12*
X195481653Y-126350150D03*
D11*
X198021653Y-121270150D03*
D10*
X200561653Y-126350150D03*
D13*
X201771653Y-121270150D03*
X187921653Y-123810150D03*
%TD*%
D10*
%TO.C,SW31*%
X133251653Y-164450450D03*
D11*
X134521653Y-161910450D03*
D12*
X138331653Y-164450450D03*
D11*
X140871653Y-159370450D03*
D10*
X143411653Y-164450450D03*
D13*
X144621653Y-159370450D03*
X130771653Y-161910450D03*
%TD*%
D17*
%TO.C,U1*%
X102121653Y-107260000D03*
D18*
X102121653Y-109800000D03*
X102121653Y-112340000D03*
X102121653Y-114880000D03*
X102121653Y-117420000D03*
X102121653Y-119960000D03*
X102121653Y-122500000D03*
X102121653Y-125040000D03*
X102121653Y-127580000D03*
X102121653Y-130120000D03*
X102121653Y-132660000D03*
X102121653Y-135200000D03*
X102121653Y-137740000D03*
X102121653Y-140280000D03*
X102121653Y-142820000D03*
X102121653Y-145360000D03*
X102121653Y-147900000D03*
X102121653Y-150440000D03*
X102121653Y-152980000D03*
X102121653Y-155520000D03*
D19*
X117361653Y-155520000D03*
X117361653Y-152980000D03*
D18*
X117361653Y-150440000D03*
X117361653Y-147900000D03*
X117361653Y-145360000D03*
X117361653Y-142820000D03*
X117361653Y-140280000D03*
X117361653Y-137740000D03*
X117361653Y-135200000D03*
X117361653Y-132660000D03*
X117361653Y-130120000D03*
X117361653Y-127580000D03*
X117361653Y-125040000D03*
X117361653Y-122500000D03*
X117361653Y-119960000D03*
X117361653Y-117420000D03*
X117361653Y-114880000D03*
X117361653Y-112340000D03*
X117361653Y-109800000D03*
D20*
X117361653Y-107260000D03*
%TD*%
D16*
%TO.C,TP11*%
X222883165Y-186300023D03*
%TD*%
%TO.C,TP5*%
X222881653Y-116116500D03*
%TD*%
D10*
%TO.C,SW29*%
X209451653Y-145400300D03*
D11*
X210721653Y-142860300D03*
D12*
X214531653Y-145400300D03*
D11*
X217071653Y-140320300D03*
D10*
X219611653Y-145400300D03*
D13*
X220821653Y-140320300D03*
X206971653Y-142860300D03*
%TD*%
D14*
%TO.C,H2*%
X98309144Y-220898914D03*
D15*
X98309144Y-220898914D03*
%TD*%
D16*
%TO.C,TP3*%
X222883153Y-179800012D03*
%TD*%
D10*
%TO.C,SW13*%
X152301653Y-126350150D03*
D11*
X153571653Y-123810150D03*
D12*
X157381653Y-126350150D03*
D11*
X159921653Y-121270150D03*
D10*
X162461653Y-126350150D03*
D13*
X163671653Y-121270150D03*
X149821653Y-123810150D03*
%TD*%
D14*
%TO.C,H7*%
X221530903Y-92398914D03*
D15*
X221530903Y-92398914D03*
%TD*%
D10*
%TO.C,SW47*%
X192301827Y-186357950D03*
D11*
X193571827Y-183817950D03*
D12*
X197381827Y-186357950D03*
D11*
X199921827Y-181277950D03*
D10*
X202461827Y-186357950D03*
D13*
X203671827Y-181277950D03*
X189821827Y-183817950D03*
%TD*%
D21*
%TO.C,H4*%
X121268151Y-176288918D03*
D12*
X108069924Y-183908918D03*
D21*
X133168151Y-196900322D03*
D12*
X119969924Y-204520322D03*
%TD*%
D22*
%TO.C,U2*%
X75730000Y-180300295D03*
X77000000Y-182500000D03*
X78270000Y-184699704D03*
X79540000Y-186899409D03*
%TD*%
D16*
%TO.C,TP14*%
X222950565Y-191300323D03*
%TD*%
%TO.C,TP15*%
X222950565Y-192800323D03*
%TD*%
%TO.C,TP17*%
X222833165Y-97074998D03*
%TD*%
D10*
%TO.C,SW3*%
X152301653Y-107300000D03*
D11*
X153571653Y-104760000D03*
D12*
X157381653Y-107300000D03*
D11*
X159921653Y-102220000D03*
D10*
X162461653Y-107300000D03*
D13*
X163671653Y-102220000D03*
X149821653Y-104760000D03*
%TD*%
D10*
%TO.C,SW35*%
X171351653Y-164450450D03*
D11*
X172621653Y-161910450D03*
D12*
X176431653Y-164450450D03*
D11*
X178971653Y-159370450D03*
D10*
X181511653Y-164450450D03*
D13*
X182721653Y-159370450D03*
X168871653Y-161910450D03*
%TD*%
D16*
%TO.C,TP1*%
X222883153Y-176800012D03*
%TD*%
D23*
%TO.C,J1*%
X104131653Y-98800000D03*
X111131653Y-98800000D03*
D24*
X105831653Y-101100000D03*
X102831653Y-101100000D03*
X111331653Y-96600000D03*
D25*
X109831653Y-101100000D03*
%TD*%
D14*
%TO.C,H1*%
X221530903Y-199398914D03*
D15*
X221530903Y-199398914D03*
%TD*%
D10*
%TO.C,SW19*%
X209451653Y-126350150D03*
D11*
X210721653Y-123810150D03*
D12*
X214531653Y-126350150D03*
D11*
X217071653Y-121270150D03*
D10*
X219611653Y-126350150D03*
D13*
X220821653Y-121270150D03*
X206971653Y-123810150D03*
%TD*%
D10*
%TO.C,SW9*%
X209451653Y-107300000D03*
D11*
X210721653Y-104760000D03*
D12*
X214531653Y-107300000D03*
D11*
X217071653Y-102220000D03*
D10*
X219611653Y-107300000D03*
D13*
X220821653Y-102220000D03*
X206971653Y-104760000D03*
%TD*%
D14*
%TO.C,H5*%
X90309144Y-163898914D03*
D15*
X90309144Y-163898914D03*
%TD*%
D16*
%TO.C,TP16*%
X222950565Y-194300323D03*
%TD*%
%TO.C,TP18*%
X222900565Y-98525298D03*
%TD*%
%TO.C,TP8*%
X222883165Y-184800023D03*
%TD*%
D10*
%TO.C,SW39*%
X209451653Y-164450450D03*
D11*
X210721653Y-161910450D03*
D12*
X214531653Y-164450450D03*
D11*
X217071653Y-159370450D03*
D10*
X219611653Y-164450450D03*
D13*
X220821653Y-159370450D03*
X206971653Y-161910450D03*
%TD*%
D16*
%TO.C,TP13*%
X222883165Y-189800023D03*
%TD*%
D26*
%TO.C,RSW1*%
X97584028Y-192358429D03*
D27*
X93253900Y-194858429D03*
X95418964Y-193608429D03*
D28*
X104018706Y-197303620D03*
X94319222Y-202903620D03*
D27*
X104834028Y-204915798D03*
X100503900Y-207415798D03*
%TD*%
D10*
%TO.C,SW15*%
X171351653Y-126350150D03*
D11*
X172621653Y-123810150D03*
D12*
X176431653Y-126350150D03*
D11*
X178971653Y-121270150D03*
D10*
X181511653Y-126350150D03*
D13*
X182721653Y-121270150D03*
X168871653Y-123810150D03*
%TD*%
D16*
%TO.C,TP4*%
X222883153Y-181300012D03*
%TD*%
%TO.C,TP12*%
X222883165Y-188300023D03*
%TD*%
D10*
%TO.C,SW23*%
X152301653Y-145400300D03*
D11*
X153571653Y-142860300D03*
D12*
X157381653Y-145400300D03*
D11*
X159921653Y-140320300D03*
D10*
X162461653Y-145400300D03*
D13*
X163671653Y-140320300D03*
X149821653Y-142860300D03*
%TD*%
D10*
%TO.C,SW33*%
X152301653Y-164450450D03*
D11*
X153571653Y-161910450D03*
D12*
X157381653Y-164450450D03*
D11*
X159921653Y-159370450D03*
D10*
X162461653Y-164450450D03*
D13*
X163671653Y-159370450D03*
X149821653Y-161910450D03*
%TD*%
D10*
%TO.C,SW21*%
X133251653Y-145400300D03*
D11*
X134521653Y-142860300D03*
D12*
X138331653Y-145400300D03*
D11*
X140871653Y-140320300D03*
D10*
X143411653Y-145400300D03*
D13*
X144621653Y-140320300D03*
X130771653Y-142860300D03*
%TD*%
D10*
%TO.C,SW7*%
X190401653Y-107300000D03*
D11*
X191671653Y-104760000D03*
D12*
X195481653Y-107300000D03*
D11*
X198021653Y-102220000D03*
D10*
X200561653Y-107300000D03*
D13*
X201771653Y-102220000D03*
X187921653Y-104760000D03*
%TD*%
D10*
%TO.C,SW25*%
X171351653Y-145400300D03*
D11*
X172621653Y-142860300D03*
D12*
X176431653Y-145400300D03*
D11*
X178971653Y-140320300D03*
D10*
X181511653Y-145400300D03*
D13*
X182721653Y-140320300D03*
X168871653Y-142860300D03*
%TD*%
D10*
%TO.C,SW43*%
X142924250Y-190455103D03*
D11*
X143493575Y-187672951D03*
D12*
X147831153Y-189140302D03*
D11*
X148969804Y-183575998D03*
D10*
X152738056Y-187825501D03*
D29*
X152592026Y-182605427D03*
X139871353Y-188643522D03*
%TD*%
D16*
%TO.C,TP2*%
X222883153Y-178300012D03*
%TD*%
D30*
%TO.C,U6*%
X89757941Y-209203251D03*
X86582941Y-203703989D03*
X94157350Y-206663251D03*
X90982350Y-201163989D03*
X109237782Y-197223325D03*
X107967782Y-195023620D03*
X106697782Y-192823915D03*
D31*
X97204740Y-210036484D03*
X108753188Y-203368984D03*
X89584740Y-196838256D03*
X101133188Y-190170756D03*
D30*
X102049259Y-210172438D03*
X104248964Y-208902438D03*
X106448669Y-207632438D03*
%TD*%
D16*
%TO.C,TP9*%
X222950565Y-135050323D03*
%TD*%
D10*
%TO.C,SW41*%
X118628964Y-185687711D03*
D11*
X121463669Y-185517563D03*
D12*
X121168964Y-190087120D03*
D11*
X126838373Y-189746825D03*
D10*
X123708964Y-194486529D03*
D32*
X128713373Y-192994420D03*
X119588669Y-182269968D03*
%TD*%
D10*
%TO.C,SW5*%
X171351653Y-107300000D03*
D11*
X172621653Y-104760000D03*
D12*
X176431653Y-107300000D03*
D11*
X178971653Y-102220000D03*
D10*
X181511653Y-107300000D03*
D13*
X182721653Y-102220000D03*
X168871653Y-104760000D03*
%TD*%
D33*
%TO.C,R30*%
X123544153Y-134565600D03*
X121719153Y-134565600D03*
%TD*%
D34*
%TO.C,JP34*%
X110763653Y-122500000D03*
X113163653Y-122500000D03*
D35*
X109963653Y-122500000D03*
D36*
X113963653Y-122500000D03*
%TD*%
D34*
%TO.C,JP39*%
X110763653Y-109800000D03*
X113163653Y-109800000D03*
D35*
X109963653Y-109800000D03*
D36*
X113963653Y-109800000D03*
%TD*%
D37*
%TO.C,D68*%
X154531653Y-170241950D03*
X154531653Y-168691950D03*
X160231653Y-168691950D03*
X160231653Y-170241950D03*
%TD*%
D38*
%TO.C,C18*%
X208194153Y-111516500D03*
X206469153Y-111516500D03*
%TD*%
D39*
%TO.C,C89*%
X108608929Y-210575000D03*
X110254377Y-209625000D03*
%TD*%
D40*
%TO.C,C56*%
X182437992Y-168666950D03*
X182437992Y-170391950D03*
%TD*%
D37*
%TO.C,D54*%
X217381653Y-149641800D03*
X217381653Y-151191800D03*
X211681653Y-151191800D03*
X211681653Y-149641800D03*
%TD*%
D41*
%TO.C,R40*%
X99337903Y-187040248D03*
X98425403Y-185459752D03*
%TD*%
D10*
%TO.C,SW36*%
X181511653Y-164450450D03*
D11*
X180241653Y-161910450D03*
D12*
X176431653Y-164450450D03*
D11*
X173891653Y-159370450D03*
D10*
X171351653Y-164450450D03*
%TD*%
D42*
%TO.C,C63*%
X105400000Y-162075000D03*
X105400000Y-159125000D03*
%TD*%
D33*
%TO.C,R22*%
X123544153Y-132915600D03*
X121719153Y-132915600D03*
%TD*%
D34*
%TO.C,JP36*%
X110763653Y-117420000D03*
X113163653Y-117420000D03*
D35*
X109963653Y-117420000D03*
D36*
X113963653Y-117420000D03*
%TD*%
D40*
%TO.C,C21*%
X182631503Y-130566650D03*
X182631503Y-132291650D03*
%TD*%
D37*
%TO.C,D32*%
X160231653Y-111541500D03*
X160231653Y-113091500D03*
X154531653Y-113091500D03*
X154531653Y-111541500D03*
%TD*%
D38*
%TO.C,C15*%
X151194153Y-111516500D03*
X149469153Y-111516500D03*
%TD*%
D37*
%TO.C,D48*%
X154531653Y-132141650D03*
X154531653Y-130591650D03*
X160231653Y-130591650D03*
X160231653Y-132141650D03*
%TD*%
D10*
%TO.C,SW8*%
X200561653Y-107300000D03*
D11*
X199291653Y-104760000D03*
D12*
X195481653Y-107300000D03*
D11*
X192941653Y-102220000D03*
D10*
X190401653Y-107300000D03*
%TD*%
D43*
%TO.C,JP44*%
X104931653Y-189807179D03*
X103731653Y-187728719D03*
D44*
X105331653Y-190500000D03*
D45*
X103331653Y-187035898D03*
%TD*%
D37*
%TO.C,D52*%
X179281653Y-149641800D03*
X179281653Y-151191800D03*
X173581653Y-151191800D03*
X173581653Y-149641800D03*
%TD*%
D46*
%TO.C,D131*%
X121931653Y-198016500D03*
X119073769Y-199666500D03*
%TD*%
D10*
%TO.C,SW42*%
X123708964Y-194486529D03*
D11*
X125273669Y-192116677D03*
D12*
X121168964Y-190087120D03*
D11*
X124298373Y-185347415D03*
D10*
X118628964Y-185687711D03*
%TD*%
D39*
%TO.C,C87*%
X107108929Y-168175000D03*
X108754377Y-167225000D03*
%TD*%
D47*
%TO.C,D133*%
X156031653Y-190216500D03*
X156885755Y-193404056D03*
%TD*%
D10*
%TO.C,SW38*%
X200561653Y-164450450D03*
D11*
X199291653Y-161910450D03*
D12*
X195481653Y-164450450D03*
D11*
X192941653Y-159370450D03*
D10*
X190401653Y-164450450D03*
%TD*%
D34*
%TO.C,JP38*%
X110763653Y-112340000D03*
X113163653Y-112340000D03*
D35*
X109963653Y-112340000D03*
D36*
X113963653Y-112340000D03*
%TD*%
D48*
%TO.C,R61*%
X100331653Y-161212500D03*
X100331653Y-159387500D03*
%TD*%
D40*
%TO.C,C55*%
X163475403Y-168754361D03*
X163475403Y-170479361D03*
%TD*%
D48*
%TO.C,R21*%
X121400000Y-157412500D03*
X121400000Y-155587500D03*
%TD*%
%TO.C,R56*%
X122828891Y-150112500D03*
X122828891Y-148287500D03*
%TD*%
D37*
%TO.C,D58*%
X198331653Y-149641800D03*
X198331653Y-151191800D03*
X192631653Y-151191800D03*
X192631653Y-149641800D03*
%TD*%
D38*
%TO.C,C16*%
X170094153Y-111516500D03*
X168369153Y-111516500D03*
%TD*%
D49*
%TO.C,C65*%
X207331653Y-134075000D03*
X207331653Y-137025000D03*
%TD*%
D38*
%TO.C,C24*%
X131994153Y-149616800D03*
X130269153Y-149616800D03*
%TD*%
D34*
%TO.C,JP24*%
X110763653Y-147900000D03*
X113163653Y-147900000D03*
D35*
X109963653Y-147900000D03*
D36*
X113963653Y-147900000D03*
%TD*%
D33*
%TO.C,R8*%
X219744153Y-186300000D03*
X217919153Y-186300000D03*
%TD*%
D50*
%TO.C,D17*%
X203862964Y-129481270D03*
X203862964Y-132781270D03*
%TD*%
D51*
%TO.C,D114*%
X95431653Y-114475000D03*
X95431653Y-112725000D03*
%TD*%
D41*
%TO.C,R18*%
X115987903Y-172390248D03*
X115075403Y-170809752D03*
%TD*%
%TO.C,R46*%
X108656653Y-175143301D03*
X107744153Y-173562805D03*
%TD*%
D52*
%TO.C,C8*%
X87419153Y-192837195D03*
X86556653Y-191343301D03*
%TD*%
D10*
%TO.C,SW20*%
X219611653Y-126350150D03*
D11*
X218341653Y-123810150D03*
D12*
X214531653Y-126350150D03*
D11*
X211991653Y-121270150D03*
D10*
X209451653Y-126350150D03*
%TD*%
D48*
%TO.C,R10*%
X122000000Y-153612500D03*
X122000000Y-151787500D03*
%TD*%
D50*
%TO.C,D129*%
X222081653Y-167581570D03*
X222081653Y-170881570D03*
%TD*%
D34*
%TO.C,JP47*%
X114906653Y-96400000D03*
X117306653Y-96400000D03*
D35*
X114106653Y-96400000D03*
D36*
X118106653Y-96400000D03*
%TD*%
D50*
%TO.C,D127*%
X203862964Y-167581570D03*
X203862964Y-170881570D03*
%TD*%
D10*
%TO.C,SW16*%
X181511653Y-126350150D03*
D11*
X180241653Y-123810150D03*
D12*
X176431653Y-126350150D03*
D11*
X173891653Y-121270150D03*
D10*
X171351653Y-126350150D03*
%TD*%
D33*
%TO.C,R34*%
X123544153Y-114600000D03*
X121719153Y-114600000D03*
%TD*%
D34*
%TO.C,JP29*%
X110763653Y-135200000D03*
X113163653Y-135200000D03*
D35*
X109963653Y-135200000D03*
D36*
X113963653Y-135200000D03*
%TD*%
D37*
%TO.C,D64*%
X135481653Y-170241950D03*
X135481653Y-168691950D03*
X141181653Y-168691950D03*
X141181653Y-170241950D03*
%TD*%
D34*
%TO.C,JP23*%
X110763653Y-150440000D03*
X113163653Y-150440000D03*
D35*
X109963653Y-150440000D03*
D36*
X113963653Y-150440000D03*
%TD*%
D33*
%TO.C,R9*%
X123544153Y-136500000D03*
X121719153Y-136500000D03*
%TD*%
D53*
%TO.C,D116*%
X95186468Y-213973533D03*
X96876838Y-214426467D03*
%TD*%
D54*
%TO.C,C64*%
X117881653Y-98800000D03*
X115981653Y-98800000D03*
%TD*%
D33*
%TO.C,R25*%
X123544153Y-119850000D03*
X121719153Y-119850000D03*
%TD*%
D52*
%TO.C,C69*%
X97862903Y-187846947D03*
X97000403Y-186353053D03*
%TD*%
D40*
%TO.C,C33*%
X219837992Y-168666950D03*
X219837992Y-170391950D03*
%TD*%
D38*
%TO.C,C42*%
X189144153Y-111516500D03*
X187419153Y-111516500D03*
%TD*%
D50*
%TO.C,D125*%
X184812964Y-167581570D03*
X184812964Y-170881570D03*
%TD*%
D48*
%TO.C,R63*%
X102031653Y-161212500D03*
X102031653Y-159387500D03*
%TD*%
D10*
%TO.C,SW4*%
X162461653Y-107300000D03*
D11*
X161191653Y-104760000D03*
D12*
X157381653Y-107300000D03*
D11*
X154841653Y-102220000D03*
D10*
X152301653Y-107300000D03*
%TD*%
D52*
%TO.C,C7*%
X74883348Y-188747095D03*
X74020848Y-187253201D03*
%TD*%
D37*
%TO.C,D56*%
X160231653Y-149641800D03*
X160231653Y-151191800D03*
X154531653Y-151191800D03*
X154531653Y-149641800D03*
%TD*%
D50*
%TO.C,D11*%
X146712964Y-129481270D03*
X146712964Y-132781270D03*
%TD*%
D55*
%TO.C,D115*%
X105173881Y-212537500D03*
X106689425Y-211662500D03*
%TD*%
D56*
%TO.C,C75*%
X110954377Y-170825000D03*
X109308929Y-171775000D03*
%TD*%
D10*
%TO.C,SW46*%
X178580827Y-186357950D03*
D11*
X177310827Y-183817950D03*
D12*
X173500827Y-186357950D03*
D11*
X170960827Y-181277950D03*
D10*
X168420827Y-186357950D03*
%TD*%
D51*
%TO.C,D112*%
X95431653Y-139875000D03*
X95431653Y-138125000D03*
%TD*%
D57*
%TO.C,D76*%
X151681823Y-192499642D03*
X152082992Y-193996827D03*
X146577215Y-195472096D03*
X146176046Y-193974911D03*
%TD*%
D41*
%TO.C,R39*%
X88887903Y-192090248D03*
X87975403Y-190509752D03*
%TD*%
D10*
%TO.C,SW26*%
X181511653Y-145400300D03*
D11*
X180241653Y-142860300D03*
D12*
X176431653Y-145400300D03*
D11*
X173891653Y-140320300D03*
D10*
X171351653Y-145400300D03*
%TD*%
D50*
%TO.C,D19*%
X222081653Y-129481270D03*
X222081653Y-132781270D03*
%TD*%
D10*
%TO.C,SW44*%
X152738056Y-187825501D03*
D11*
X150853930Y-185700750D03*
D12*
X147831153Y-189140302D03*
D11*
X144062901Y-184890799D03*
D10*
X142924250Y-190455103D03*
%TD*%
D37*
%TO.C,D34*%
X179281653Y-111541500D03*
X179281653Y-113091500D03*
X173581653Y-113091500D03*
X173581653Y-111541500D03*
%TD*%
D34*
%TO.C,JP35*%
X110763653Y-119960000D03*
X113163653Y-119960000D03*
D35*
X109963653Y-119960000D03*
D36*
X113963653Y-119960000D03*
%TD*%
D37*
%TO.C,D41*%
X192631653Y-132141650D03*
X192631653Y-130591650D03*
X198331653Y-130591650D03*
X198331653Y-132141650D03*
%TD*%
D33*
%TO.C,R31*%
X123544153Y-116350000D03*
X121719153Y-116350000D03*
%TD*%
D58*
%TO.C,R47*%
X109921901Y-169143750D03*
X108341405Y-170056250D03*
%TD*%
D55*
%TO.C,D110*%
X91473881Y-188537500D03*
X92989425Y-187662500D03*
%TD*%
D34*
%TO.C,JP25*%
X110763653Y-145360000D03*
X113163653Y-145360000D03*
D35*
X109963653Y-145360000D03*
D36*
X113963653Y-145360000D03*
%TD*%
D34*
%TO.C,JP28*%
X110763653Y-137740000D03*
X113163653Y-137740000D03*
D35*
X109963653Y-137740000D03*
D36*
X113963653Y-137740000D03*
%TD*%
D33*
%TO.C,R27*%
X123544153Y-118100000D03*
X121719153Y-118100000D03*
%TD*%
D52*
%TO.C,C59*%
X113331653Y-188216500D03*
X112469153Y-186722606D03*
%TD*%
D59*
%TO.C,JP41*%
X75352098Y-184692969D03*
X76552098Y-186771429D03*
D45*
X74952098Y-184000148D03*
D44*
X76952098Y-187464250D03*
%TD*%
D37*
%TO.C,D66*%
X192631653Y-170241950D03*
X192631653Y-168691950D03*
X198331653Y-168691950D03*
X198331653Y-170241950D03*
%TD*%
D40*
%TO.C,C48*%
X144581653Y-130516500D03*
X144581653Y-132241500D03*
%TD*%
D10*
%TO.C,SW30*%
X219611653Y-145400300D03*
D11*
X218341653Y-142860300D03*
D12*
X214531653Y-145400300D03*
D11*
X211991653Y-140320300D03*
D10*
X209451653Y-145400300D03*
%TD*%
D50*
%TO.C,D3*%
X165762964Y-110431120D03*
X165762964Y-113731120D03*
%TD*%
D34*
%TO.C,JP27*%
X110763653Y-140280000D03*
X113163653Y-140280000D03*
D35*
X109963653Y-140280000D03*
D36*
X113963653Y-140280000D03*
%TD*%
D41*
%TO.C,R60*%
X83087903Y-181390248D03*
X82175403Y-179809752D03*
%TD*%
D51*
%TO.C,D113*%
X95431653Y-127175000D03*
X95431653Y-125425000D03*
%TD*%
D33*
%TO.C,R51*%
X123494153Y-141600000D03*
X121669153Y-141600000D03*
%TD*%
D40*
%TO.C,C45*%
X201731653Y-130516500D03*
X201731653Y-132241500D03*
%TD*%
D50*
%TO.C,D123*%
X165762964Y-167581570D03*
X165762964Y-170881570D03*
%TD*%
D38*
%TO.C,C52*%
X189144153Y-149616800D03*
X187419153Y-149616800D03*
%TD*%
D60*
%TO.C,C6*%
X120456653Y-98800000D03*
X123406653Y-98800000D03*
%TD*%
D50*
%TO.C,D28*%
X203862964Y-148531420D03*
X203862964Y-151831420D03*
%TD*%
D48*
%TO.C,R28*%
X125131653Y-129203100D03*
X125131653Y-127378100D03*
%TD*%
D33*
%TO.C,R53*%
X123512500Y-144100000D03*
X121687500Y-144100000D03*
%TD*%
D34*
%TO.C,JP37*%
X110763653Y-114880000D03*
X113163653Y-114880000D03*
D35*
X109963653Y-114880000D03*
D36*
X113963653Y-114880000D03*
%TD*%
D61*
%TO.C,C5*%
X131881653Y-179500000D03*
X128931653Y-179500000D03*
%TD*%
D37*
%TO.C,D42*%
X173581653Y-132141650D03*
X173581653Y-130591650D03*
X179281653Y-130591650D03*
X179281653Y-132141650D03*
%TD*%
D34*
%TO.C,JP40*%
X113163653Y-107260000D03*
X110763653Y-107260000D03*
D36*
X113963653Y-107260000D03*
D35*
X109963653Y-107260000D03*
%TD*%
D38*
%TO.C,C39*%
X131994153Y-111516500D03*
X130269153Y-111516500D03*
%TD*%
D33*
%TO.C,R49*%
X123494153Y-139100000D03*
X121669153Y-139100000D03*
%TD*%
D34*
%TO.C,JP33*%
X110763653Y-125040000D03*
X113163653Y-125040000D03*
D35*
X109963653Y-125040000D03*
D36*
X113963653Y-125040000D03*
%TD*%
D62*
%TO.C,U3*%
X113341757Y-171808526D03*
X113816757Y-172631250D03*
X114291757Y-173453974D03*
X112321549Y-174591474D03*
X111371549Y-172946026D03*
%TD*%
D10*
%TO.C,SW6*%
X181511653Y-107300000D03*
D11*
X180241653Y-104760000D03*
D12*
X176431653Y-107300000D03*
D11*
X173891653Y-102220000D03*
D10*
X171351653Y-107300000D03*
%TD*%
D33*
%TO.C,R2*%
X123544153Y-121600000D03*
X121719153Y-121600000D03*
%TD*%
D34*
%TO.C,JP30*%
X110763653Y-132660000D03*
X113163653Y-132660000D03*
D35*
X109963653Y-132660000D03*
D36*
X113963653Y-132660000D03*
%TD*%
D50*
%TO.C,D121*%
X146712964Y-167581570D03*
X146712964Y-170881570D03*
%TD*%
%TO.C,D21*%
X146712964Y-148531420D03*
X146712964Y-151831420D03*
%TD*%
D63*
%TO.C,R16*%
X83675403Y-178909752D03*
X84587903Y-180490248D03*
%TD*%
D50*
%TO.C,D15*%
X184812964Y-129481270D03*
X184812964Y-132781270D03*
%TD*%
D64*
%TO.C,Q2*%
X120906653Y-131065600D03*
X120906653Y-129165600D03*
X123181653Y-130115600D03*
%TD*%
D34*
%TO.C,JP32*%
X110763653Y-127580000D03*
X113163653Y-127580000D03*
D35*
X109963653Y-127580000D03*
D36*
X113963653Y-127580000D03*
%TD*%
D65*
%TO.C,D75*%
X118920718Y-194676042D03*
X117578378Y-195451042D03*
X114728378Y-190514698D03*
X116070718Y-189739698D03*
%TD*%
D37*
%TO.C,D44*%
X135481653Y-132141650D03*
X135481653Y-130591650D03*
X141181653Y-130591650D03*
X141181653Y-132141650D03*
%TD*%
%TO.C,D40*%
X211681653Y-132141650D03*
X211681653Y-130591650D03*
X217381653Y-130591650D03*
X217381653Y-132141650D03*
%TD*%
D66*
%TO.C,D25*%
X112602711Y-207025000D03*
X115460595Y-205375000D03*
%TD*%
D34*
%TO.C,JP22*%
X110763653Y-152980000D03*
X113163653Y-152980000D03*
D35*
X109963653Y-152980000D03*
D36*
X113963653Y-152980000D03*
%TD*%
D37*
%TO.C,D36*%
X198331653Y-111541500D03*
X198331653Y-113091500D03*
X192631653Y-113091500D03*
X192631653Y-111541500D03*
%TD*%
%TO.C,D72*%
X176350827Y-190599450D03*
X176350827Y-192149450D03*
X170650827Y-192149450D03*
X170650827Y-190599450D03*
%TD*%
%TO.C,D78*%
X200231827Y-190599450D03*
X200231827Y-192149450D03*
X194531827Y-192149450D03*
X194531827Y-190599450D03*
%TD*%
%TO.C,D50*%
X141181653Y-149641800D03*
X141181653Y-151191800D03*
X135481653Y-151191800D03*
X135481653Y-149641800D03*
%TD*%
D33*
%TO.C,R5*%
X123544153Y-125000000D03*
X121719153Y-125000000D03*
%TD*%
D10*
%TO.C,SW2*%
X143411653Y-107300000D03*
D11*
X142141653Y-104760000D03*
D12*
X138331653Y-107300000D03*
D11*
X135791653Y-102220000D03*
D10*
X133251653Y-107300000D03*
%TD*%
D33*
%TO.C,R55*%
X123512500Y-146600000D03*
X121687500Y-146600000D03*
%TD*%
D40*
%TO.C,C22*%
X163556503Y-130591650D03*
X163556503Y-132316650D03*
%TD*%
D67*
%TO.C,U5*%
X105084577Y-168590139D03*
X105334577Y-169023152D03*
X105584577Y-169456165D03*
X105834577Y-169889177D03*
X106084577Y-170322190D03*
X106334577Y-170755203D03*
D68*
X106082935Y-171694345D03*
X105649922Y-171944345D03*
X105216909Y-172194345D03*
X104783897Y-172444345D03*
X104350884Y-172694345D03*
X103917871Y-172944345D03*
D67*
X102978729Y-172692703D03*
X102728729Y-172259690D03*
X102478729Y-171826677D03*
X102228729Y-171393665D03*
X101978729Y-170960652D03*
X101728729Y-170527639D03*
D68*
X101980371Y-169588497D03*
X102413384Y-169338497D03*
X102846397Y-169088497D03*
X103279409Y-168838497D03*
X103712422Y-168588497D03*
X104145435Y-168338497D03*
D69*
X104031653Y-170641421D03*
%TD*%
D10*
%TO.C,SW34*%
X162461653Y-164450450D03*
D11*
X161191653Y-161910450D03*
D12*
X157381653Y-164450450D03*
D11*
X154841653Y-159370450D03*
D10*
X152301653Y-164450450D03*
%TD*%
D50*
%TO.C,D9*%
X221131653Y-110431120D03*
X221131653Y-113731120D03*
%TD*%
D10*
%TO.C,SW24*%
X162461653Y-145400300D03*
D11*
X161191653Y-142860300D03*
D12*
X157381653Y-145400300D03*
D11*
X154841653Y-140320300D03*
D10*
X152301653Y-145400300D03*
%TD*%
D38*
%TO.C,C61*%
X167163327Y-190574450D03*
X165438327Y-190574450D03*
%TD*%
D70*
%TO.C,C60*%
X143031653Y-194716500D03*
X141365431Y-195162962D03*
%TD*%
D63*
%TO.C,R14*%
X85275403Y-178009752D03*
X86187903Y-179590248D03*
%TD*%
D34*
%TO.C,JP26*%
X110763653Y-142820000D03*
X113163653Y-142820000D03*
D35*
X109963653Y-142820000D03*
D36*
X113963653Y-142820000D03*
%TD*%
D10*
%TO.C,SW48*%
X202461827Y-186357950D03*
D11*
X201191827Y-183817950D03*
D12*
X197381827Y-186357950D03*
D11*
X194841827Y-181277950D03*
D10*
X192301827Y-186357950D03*
%TD*%
%TO.C,SW14*%
X162461653Y-126350150D03*
D11*
X161191653Y-123810150D03*
D12*
X157381653Y-126350150D03*
D11*
X154841653Y-121270150D03*
D10*
X152301653Y-126350150D03*
%TD*%
D71*
%TO.C,D117*%
X84194153Y-207942228D03*
X85069153Y-209457772D03*
%TD*%
D23*
%TO.C,J2*%
X111131653Y-98800000D03*
X104131653Y-98800000D03*
D24*
X105831653Y-96500000D03*
X102831653Y-96500000D03*
X111331653Y-101000000D03*
D25*
X109831653Y-96500000D03*
%TD*%
D72*
%TO.C,R20*%
X120769153Y-127415600D03*
X122594153Y-127415600D03*
%TD*%
D50*
%TO.C,D26*%
X184812964Y-148531420D03*
X184812964Y-151831420D03*
%TD*%
D10*
%TO.C,SW40*%
X219611653Y-164450450D03*
D11*
X218341653Y-161910450D03*
D12*
X214531653Y-164450450D03*
D11*
X211991653Y-159370450D03*
D10*
X209451653Y-164450450D03*
%TD*%
D38*
%TO.C,C28*%
X208194153Y-149616800D03*
X206469153Y-149616800D03*
%TD*%
D50*
%TO.C,D23*%
X165762964Y-148531420D03*
X165762964Y-151831420D03*
%TD*%
D37*
%TO.C,D62*%
X173581653Y-170241950D03*
X173581653Y-168691950D03*
X179281653Y-168691950D03*
X179281653Y-170241950D03*
%TD*%
D73*
%TO.C,D118*%
X84105186Y-197045185D03*
X84558120Y-195354815D03*
%TD*%
D74*
%TO.C,C88*%
X106269153Y-174506106D03*
X107131653Y-176000000D03*
%TD*%
D41*
%TO.C,R58*%
X87687903Y-178790248D03*
X86775403Y-177209752D03*
%TD*%
D38*
%TO.C,C51*%
X170094153Y-149616800D03*
X168369153Y-149616800D03*
%TD*%
D40*
%TO.C,C54*%
X144337992Y-168666950D03*
X144337992Y-170391950D03*
%TD*%
D33*
%TO.C,R43*%
X123544153Y-112850000D03*
X121719153Y-112850000D03*
%TD*%
D56*
%TO.C,C10*%
X114054377Y-169025000D03*
X112408929Y-169975000D03*
%TD*%
D10*
%TO.C,SW28*%
X200561653Y-145400300D03*
D11*
X199291653Y-142860300D03*
D12*
X195481653Y-145400300D03*
D11*
X192941653Y-140320300D03*
D10*
X190401653Y-145400300D03*
%TD*%
D75*
%TO.C,C38*%
X107700000Y-162150000D03*
X107700000Y-160250000D03*
%TD*%
D50*
%TO.C,D119*%
X221131653Y-148531420D03*
X221131653Y-151831420D03*
%TD*%
D40*
%TO.C,C19*%
X219812992Y-130654061D03*
X219812992Y-132379061D03*
%TD*%
D50*
%TO.C,D135*%
X181882138Y-189489070D03*
X181882138Y-192789070D03*
%TD*%
%TO.C,D13*%
X165762964Y-129481270D03*
X165762964Y-132781270D03*
%TD*%
D40*
%TO.C,C32*%
X201487992Y-168666950D03*
X201487992Y-170391950D03*
%TD*%
D38*
%TO.C,C25*%
X151044153Y-149616800D03*
X149319153Y-149616800D03*
%TD*%
D37*
%TO.C,D38*%
X217381653Y-111541500D03*
X217381653Y-113091500D03*
X211681653Y-113091500D03*
X211681653Y-111541500D03*
%TD*%
D34*
%TO.C,JP31*%
X110763653Y-130120000D03*
X113163653Y-130120000D03*
D35*
X109963653Y-130120000D03*
D36*
X113963653Y-130120000D03*
%TD*%
D38*
%TO.C,C62*%
X191044327Y-190574450D03*
X189319327Y-190574450D03*
%TD*%
D51*
%TO.C,D111*%
X95431653Y-152575000D03*
X95431653Y-150825000D03*
%TD*%
D34*
%TO.C,JP21*%
X110763653Y-155520000D03*
X113163653Y-155520000D03*
D35*
X109963653Y-155520000D03*
D36*
X113963653Y-155520000D03*
%TD*%
D50*
%TO.C,D7*%
X203862964Y-110431120D03*
X203862964Y-113731120D03*
%TD*%
D30*
%TO.C,U7*%
X86582941Y-203703989D03*
X89757941Y-209203251D03*
X90982350Y-201163989D03*
X94157350Y-206663251D03*
X106697782Y-192823915D03*
X107967782Y-195023620D03*
X109237782Y-197223325D03*
D31*
X101133188Y-190170756D03*
X89584740Y-196838256D03*
X108753188Y-203368984D03*
X97204740Y-210036484D03*
D30*
X91889259Y-192574802D03*
X94088964Y-191304802D03*
X96288669Y-190034802D03*
%TD*%
D10*
%TO.C,SW22*%
X143411653Y-145400300D03*
D11*
X142141653Y-142860300D03*
D12*
X138331653Y-145400300D03*
D11*
X135791653Y-140320300D03*
D10*
X133251653Y-145400300D03*
%TD*%
D50*
%TO.C,D137*%
X205763138Y-189489070D03*
X205763138Y-192789070D03*
%TD*%
%TO.C,D5*%
X184812964Y-110431120D03*
X184812964Y-113731120D03*
%TD*%
D10*
%TO.C,SW32*%
X143411653Y-164450450D03*
D11*
X142141653Y-161910450D03*
D12*
X138331653Y-164450450D03*
D11*
X135791653Y-159370450D03*
D10*
X133251653Y-164450450D03*
%TD*%
D37*
%TO.C,D60*%
X211681653Y-170241950D03*
X211681653Y-168691950D03*
X217381653Y-168691950D03*
X217381653Y-170241950D03*
%TD*%
D33*
%TO.C,R15*%
X123544153Y-123300000D03*
X121719153Y-123300000D03*
%TD*%
D10*
%TO.C,SW12*%
X143411653Y-126350150D03*
D11*
X142141653Y-123810150D03*
D12*
X138331653Y-126350150D03*
D11*
X135791653Y-121270150D03*
D10*
X133251653Y-126350150D03*
%TD*%
%TO.C,SW10*%
X219611653Y-107300000D03*
D11*
X218341653Y-104760000D03*
D12*
X214531653Y-107300000D03*
D11*
X211991653Y-102220000D03*
D10*
X209451653Y-107300000D03*
%TD*%
D43*
%TO.C,JP45*%
X81802098Y-184039378D03*
X80602098Y-181960918D03*
D44*
X82202098Y-184732199D03*
D45*
X80202098Y-181268097D03*
%TD*%
D34*
%TO.C,JP48*%
X114906653Y-101200000D03*
X117306653Y-101200000D03*
D35*
X114106653Y-101200000D03*
D36*
X118106653Y-101200000D03*
%TD*%
D50*
%TO.C,D1*%
X146712964Y-110431120D03*
X146712964Y-113731120D03*
%TD*%
D10*
%TO.C,SW18*%
X200561653Y-126350150D03*
D11*
X199291653Y-123810150D03*
D12*
X195481653Y-126350150D03*
D11*
X192941653Y-121270150D03*
D10*
X190401653Y-126350150D03*
%TD*%
D37*
%TO.C,D30*%
X141181653Y-111541500D03*
X141181653Y-113091500D03*
X135481653Y-113091500D03*
X135481653Y-111541500D03*
%TD*%
M02*
