%TF.GenerationSoftware,KiCad,Pcbnew,7.0.7*%
%TF.CreationDate,2024-04-14T23:27:05+02:00*%
%TF.ProjectId,isokey,69736f6b-6579-42e6-9b69-6361645f7063,A*%
%TF.SameCoordinates,Original*%
%TF.FileFunction,Paste,Top*%
%TF.FilePolarity,Positive*%
%FSLAX46Y46*%
G04 Gerber Fmt 4.6, Leading zero omitted, Abs format (unit mm)*
G04 Created by KiCad (PCBNEW 7.0.7) date 2024-04-14 23:27:05*
%MOMM*%
%LPD*%
G01*
G04 APERTURE LIST*
G04 Aperture macros list*
%AMRoundRect*
0 Rectangle with rounded corners*
0 $1 Rounding radius*
0 $2 $3 $4 $5 $6 $7 $8 $9 X,Y pos of 4 corners*
0 Add a 4 corners polygon primitive as box body*
4,1,4,$2,$3,$4,$5,$6,$7,$8,$9,$2,$3,0*
0 Add four circle primitives for the rounded corners*
1,1,$1+$1,$2,$3*
1,1,$1+$1,$4,$5*
1,1,$1+$1,$6,$7*
1,1,$1+$1,$8,$9*
0 Add four rect primitives between the rounded corners*
20,1,$1+$1,$2,$3,$4,$5,0*
20,1,$1+$1,$4,$5,$6,$7,0*
20,1,$1+$1,$6,$7,$8,$9,0*
20,1,$1+$1,$8,$9,$2,$3,0*%
%AMRotRect*
0 Rectangle, with rotation*
0 The origin of the aperture is its center*
0 $1 length*
0 $2 width*
0 $3 Rotation angle, in degrees counterclockwise*
0 Add horizontal line*
21,1,$1,$2,0,0,$3*%
G04 Aperture macros list end*
%ADD10RoundRect,0.237500X0.250000X0.237500X-0.250000X0.237500X-0.250000X-0.237500X0.250000X-0.237500X0*%
%ADD11RoundRect,0.237500X0.355681X-0.141058X0.055681X0.378558X-0.355681X0.141058X-0.055681X-0.378558X0*%
%ADD12RoundRect,0.237500X0.237500X-0.250000X0.237500X0.250000X-0.237500X0.250000X-0.237500X-0.250000X0*%
%ADD13RoundRect,0.250000X-0.650000X0.325000X-0.650000X-0.325000X0.650000X-0.325000X0.650000X0.325000X0*%
%ADD14RoundRect,0.100000X-0.900000X-0.400000X0.900000X-0.400000X0.900000X0.400000X-0.900000X0.400000X0*%
%ADD15R,1.500000X0.850000*%
%ADD16RoundRect,0.250000X0.020994X-0.536362X0.454006X-0.286362X-0.020994X0.536362X-0.454006X0.286362X0*%
%ADD17RoundRect,0.225000X-0.375000X0.225000X-0.375000X-0.225000X0.375000X-0.225000X0.375000X0.225000X0*%
%ADD18RoundRect,0.250000X0.650000X-0.325000X0.650000X0.325000X-0.650000X0.325000X-0.650000X-0.325000X0*%
%ADD19RotRect,1.500000X0.850000X195.000000*%
%ADD20RoundRect,0.237500X0.300000X0.237500X-0.300000X0.237500X-0.300000X-0.237500X0.300000X-0.237500X0*%
%ADD21RoundRect,0.237500X-0.130232X-0.349431X0.367732X-0.061931X0.130232X0.349431X-0.367732X0.061931X0*%
%ADD22RoundRect,0.250000X0.250000X0.475000X-0.250000X0.475000X-0.250000X-0.475000X0.250000X-0.475000X0*%
%ADD23RoundRect,0.250000X-0.020994X0.536362X-0.454006X0.286362X0.020994X-0.536362X0.454006X-0.286362X0*%
%ADD24RoundRect,0.237500X0.237500X-0.287500X0.237500X0.287500X-0.237500X0.287500X-0.237500X-0.287500X0*%
%ADD25RoundRect,0.150000X-0.512500X-0.150000X0.512500X-0.150000X0.512500X0.150000X-0.512500X0.150000X0*%
%ADD26RoundRect,0.250000X0.475000X-0.250000X0.475000X0.250000X-0.475000X0.250000X-0.475000X-0.250000X0*%
%ADD27RoundRect,0.237500X-0.237500X0.300000X-0.237500X-0.300000X0.237500X-0.300000X0.237500X0.300000X0*%
%ADD28RoundRect,0.237500X-0.097756X-0.330681X0.335256X-0.080681X0.097756X0.330681X-0.335256X0.080681X0*%
%ADD29RoundRect,0.237500X0.330681X-0.097756X0.080681X0.335256X-0.330681X0.097756X-0.080681X-0.335256X0*%
%ADD30RoundRect,0.237500X-0.339173X-0.154997X0.216234X-0.303818X0.339173X0.154997X-0.216234X0.303818X0*%
%ADD31RoundRect,0.237500X0.228308X0.307053X-0.351247X0.151762X-0.228308X-0.307053X0.351247X-0.151762X0*%
%ADD32RoundRect,0.225000X-0.420456X0.120276X-0.303988X-0.314390X0.420456X-0.120276X0.303988X0.314390X0*%
%ADD33RoundRect,0.237500X-0.355681X0.141058X-0.055681X-0.378558X0.355681X-0.141058X0.055681X0.378558X0*%
%ADD34RoundRect,0.237500X-0.349431X0.130232X-0.061931X-0.367732X0.349431X-0.130232X0.061931X0.367732X0*%
%ADD35RotRect,1.500000X0.850000X120.000000*%
%ADD36RoundRect,0.225000X0.007356X0.437260X-0.382356X0.212260X-0.007356X-0.437260X0.382356X-0.212260X0*%
%ADD37RoundRect,0.250000X0.325000X0.650000X-0.325000X0.650000X-0.325000X-0.650000X0.325000X-0.650000X0*%
%ADD38RoundRect,0.237500X-0.330681X0.097756X-0.080681X-0.335256X0.330681X-0.097756X0.080681X0.335256X0*%
%ADD39RoundRect,0.250000X-0.325000X-0.650000X0.325000X-0.650000X0.325000X0.650000X-0.325000X0.650000X0*%
%ADD40RoundRect,0.237500X-0.250000X-0.237500X0.250000X-0.237500X0.250000X0.237500X-0.250000X0.237500X0*%
%ADD41RoundRect,0.250000X-0.102487X-0.382487X0.382487X-0.102487X0.102487X0.382487X-0.382487X0.102487X0*%
%ADD42RoundRect,0.075000X-0.276434X-0.246202X0.351434X0.116298X0.276434X0.246202X-0.351434X-0.116298X0*%
%ADD43RoundRect,0.075000X0.116298X-0.351434X0.246202X-0.276434X-0.116298X0.351434X-0.246202X0.276434X0*%
%ADD44RoundRect,0.150000X-0.368838X-0.386154X0.518838X0.126346X0.368838X0.386154X-0.518838X-0.126346X0*%
%ADD45RoundRect,0.225000X-0.007356X-0.437260X0.382356X-0.212260X0.007356X0.437260X-0.382356X0.212260X0*%
%ADD46RoundRect,0.237500X0.154997X-0.339173X0.303818X0.216234X-0.154997X0.339173X-0.303818X-0.216234X0*%
%ADD47R,2.550000X2.500000*%
%ADD48RotRect,2.550000X2.500000X120.000000*%
%ADD49RotRect,2.550000X2.500000X195.000000*%
G04 APERTURE END LIST*
D10*
%TO.C,R50*%
X123494153Y-141600000D03*
X121669153Y-141600000D03*
%TD*%
D11*
%TO.C,C34*%
X113331653Y-188216500D03*
X112469153Y-186722606D03*
%TD*%
D12*
%TO.C,R44*%
X125131653Y-129203100D03*
X125131653Y-127378100D03*
%TD*%
D13*
%TO.C,C4*%
X207331653Y-134075000D03*
X207331653Y-137025000D03*
%TD*%
D14*
%TO.C,TP7*%
X222883165Y-182800023D03*
%TD*%
%TO.C,TP10*%
X222883165Y-117550023D03*
%TD*%
D15*
%TO.C,D33*%
X160231653Y-113091500D03*
X160231653Y-111541500D03*
X154531653Y-111541500D03*
X154531653Y-113091500D03*
%TD*%
D16*
%TO.C,C73*%
X108608929Y-210575000D03*
X110254377Y-209625000D03*
%TD*%
D17*
%TO.C,D20*%
X222081653Y-129481270D03*
X222081653Y-132781270D03*
%TD*%
D18*
%TO.C,C2*%
X105400000Y-162075000D03*
X105400000Y-159125000D03*
%TD*%
D19*
%TO.C,D71*%
X152082992Y-193996827D03*
X151681823Y-192499642D03*
X146176046Y-193974911D03*
X146577215Y-195472096D03*
%TD*%
D15*
%TO.C,D31*%
X141181653Y-113091500D03*
X141181653Y-111541500D03*
X135481653Y-111541500D03*
X135481653Y-113091500D03*
%TD*%
D20*
%TO.C,C50*%
X151044153Y-149616800D03*
X149319153Y-149616800D03*
%TD*%
D17*
%TO.C,D120*%
X221131653Y-148531420D03*
X221131653Y-151831420D03*
%TD*%
D12*
%TO.C,R19*%
X121400000Y-157412500D03*
X121400000Y-155587500D03*
%TD*%
D21*
%TO.C,D79*%
X91473881Y-188537500D03*
X92989425Y-187662500D03*
%TD*%
D14*
%TO.C,TP6*%
X222950565Y-136473123D03*
%TD*%
D22*
%TO.C,C3*%
X117881653Y-98800000D03*
X115981653Y-98800000D03*
%TD*%
D15*
%TO.C,D67*%
X173581653Y-168691950D03*
X173581653Y-170241950D03*
X179281653Y-170241950D03*
X179281653Y-168691950D03*
%TD*%
D20*
%TO.C,C27*%
X189144153Y-149616800D03*
X187419153Y-149616800D03*
%TD*%
%TO.C,C36*%
X167163327Y-190574450D03*
X165438327Y-190574450D03*
%TD*%
D15*
%TO.C,D45*%
X211681653Y-130591650D03*
X211681653Y-132141650D03*
X217381653Y-132141650D03*
X217381653Y-130591650D03*
%TD*%
D23*
%TO.C,C71*%
X92854377Y-176225000D03*
X91208929Y-177175000D03*
%TD*%
D15*
%TO.C,D59*%
X217381653Y-151191800D03*
X217381653Y-149641800D03*
X211681653Y-149641800D03*
X211681653Y-151191800D03*
%TD*%
D24*
%TO.C,D83*%
X95431653Y-114475000D03*
X95431653Y-112725000D03*
%TD*%
D20*
%TO.C,C14*%
X131994153Y-111516500D03*
X130269153Y-111516500D03*
%TD*%
D10*
%TO.C,R7*%
X123544153Y-125000000D03*
X121719153Y-125000000D03*
%TD*%
D17*
%TO.C,D124*%
X165762964Y-167581570D03*
X165762964Y-170881570D03*
%TD*%
D25*
%TO.C,Q3*%
X120906653Y-129165600D03*
X120906653Y-131065600D03*
X123181653Y-130115600D03*
%TD*%
D26*
%TO.C,C1*%
X107700000Y-162150000D03*
X107700000Y-160250000D03*
%TD*%
D15*
%TO.C,D46*%
X192631653Y-130591650D03*
X192631653Y-132141650D03*
X198331653Y-132141650D03*
X198331653Y-130591650D03*
%TD*%
D14*
%TO.C,TP11*%
X222883165Y-186300023D03*
%TD*%
D27*
%TO.C,C23*%
X144581653Y-130516500D03*
X144581653Y-132241500D03*
%TD*%
%TO.C,C58*%
X219837992Y-168666950D03*
X219837992Y-170391950D03*
%TD*%
D10*
%TO.C,R23*%
X123544153Y-119850000D03*
X121719153Y-119850000D03*
%TD*%
D17*
%TO.C,D130*%
X222081653Y-167581570D03*
X222081653Y-170881570D03*
%TD*%
D12*
%TO.C,R62*%
X100331653Y-161212500D03*
X100331653Y-159387500D03*
%TD*%
D28*
%TO.C,R26*%
X92441405Y-179256250D03*
X94021901Y-178343750D03*
%TD*%
D17*
%TO.C,D138*%
X205763138Y-189489070D03*
X205763138Y-192789070D03*
%TD*%
D20*
%TO.C,C41*%
X170094153Y-111516500D03*
X168369153Y-111516500D03*
%TD*%
D17*
%TO.C,D128*%
X203862964Y-167581570D03*
X203862964Y-170881570D03*
%TD*%
D29*
%TO.C,R38*%
X88887903Y-192090248D03*
X87975403Y-190509752D03*
%TD*%
D14*
%TO.C,TP5*%
X222881653Y-116116500D03*
%TD*%
D16*
%TO.C,C74*%
X90108929Y-182875000D03*
X91754377Y-181925000D03*
%TD*%
D27*
%TO.C,C44*%
X219812992Y-130654061D03*
X219812992Y-132379061D03*
%TD*%
%TO.C,C31*%
X182437992Y-168666950D03*
X182437992Y-170391950D03*
%TD*%
D10*
%TO.C,R13*%
X123544153Y-136500000D03*
X121719153Y-136500000D03*
%TD*%
%TO.C,R54*%
X123512500Y-146600000D03*
X121687500Y-146600000D03*
%TD*%
D17*
%TO.C,D126*%
X184812964Y-167581570D03*
X184812964Y-170881570D03*
%TD*%
D14*
%TO.C,TP3*%
X222883153Y-179800012D03*
%TD*%
D10*
%TO.C,R35*%
X123544153Y-112850000D03*
X121719153Y-112850000D03*
%TD*%
D27*
%TO.C,C29*%
X144337992Y-168666950D03*
X144337992Y-170391950D03*
%TD*%
D30*
%TO.C,D85*%
X95186468Y-213973533D03*
X96876838Y-214426467D03*
%TD*%
D15*
%TO.C,D37*%
X198331653Y-113091500D03*
X198331653Y-111541500D03*
X192631653Y-111541500D03*
X192631653Y-113091500D03*
%TD*%
D27*
%TO.C,C30*%
X163475403Y-168754361D03*
X163475403Y-170479361D03*
%TD*%
D17*
%TO.C,D2*%
X146712964Y-110431120D03*
X146712964Y-113731120D03*
%TD*%
D20*
%TO.C,C40*%
X151194153Y-111516500D03*
X149469153Y-111516500D03*
%TD*%
D12*
%TO.C,R57*%
X122828891Y-150112500D03*
X122828891Y-148287500D03*
%TD*%
D31*
%TO.C,C35*%
X143031653Y-194716500D03*
X141365431Y-195162962D03*
%TD*%
D17*
%TO.C,D122*%
X146712964Y-167581570D03*
X146712964Y-170881570D03*
%TD*%
D27*
%TO.C,C46*%
X182631503Y-130566650D03*
X182631503Y-132291650D03*
%TD*%
D10*
%TO.C,R48*%
X123494153Y-139100000D03*
X121669153Y-139100000D03*
%TD*%
%TO.C,R3*%
X123544153Y-132915600D03*
X121719153Y-132915600D03*
%TD*%
D20*
%TO.C,C43*%
X208194153Y-111516500D03*
X206469153Y-111516500D03*
%TD*%
D14*
%TO.C,TP14*%
X222950565Y-191300323D03*
%TD*%
D24*
%TO.C,D81*%
X95431653Y-139875000D03*
X95431653Y-138125000D03*
%TD*%
D27*
%TO.C,C47*%
X163556503Y-130591650D03*
X163556503Y-132316650D03*
%TD*%
D14*
%TO.C,TP15*%
X222950565Y-192800323D03*
%TD*%
D10*
%TO.C,R52*%
X123512500Y-144100000D03*
X121687500Y-144100000D03*
%TD*%
D15*
%TO.C,D65*%
X211681653Y-168691950D03*
X211681653Y-170241950D03*
X217381653Y-170241950D03*
X217381653Y-168691950D03*
%TD*%
D14*
%TO.C,TP17*%
X222833165Y-97074998D03*
%TD*%
D21*
%TO.C,D84*%
X105173881Y-212537500D03*
X106689425Y-211662500D03*
%TD*%
D17*
%TO.C,D27*%
X184812964Y-148531420D03*
X184812964Y-151831420D03*
%TD*%
D32*
%TO.C,D134*%
X156031653Y-190216500D03*
X156885755Y-193404056D03*
%TD*%
D33*
%TO.C,C72*%
X99531653Y-178800000D03*
X100394153Y-180293894D03*
%TD*%
D14*
%TO.C,TP1*%
X222883153Y-176800012D03*
%TD*%
D20*
%TO.C,C17*%
X189144153Y-111516500D03*
X187419153Y-111516500D03*
%TD*%
D15*
%TO.C,D43*%
X154531653Y-130591650D03*
X154531653Y-132141650D03*
X160231653Y-132141650D03*
X160231653Y-130591650D03*
%TD*%
D27*
%TO.C,C20*%
X201731653Y-130516500D03*
X201731653Y-132241500D03*
%TD*%
D15*
%TO.C,D61*%
X192631653Y-168691950D03*
X192631653Y-170241950D03*
X198331653Y-170241950D03*
X198331653Y-168691950D03*
%TD*%
D10*
%TO.C,R33*%
X123544153Y-114600000D03*
X121719153Y-114600000D03*
%TD*%
D34*
%TO.C,D86*%
X84194153Y-207942228D03*
X85069153Y-209457772D03*
%TD*%
D17*
%TO.C,D136*%
X181882138Y-189489070D03*
X181882138Y-192789070D03*
%TD*%
D35*
%TO.C,D70*%
X117578378Y-195451042D03*
X118920718Y-194676042D03*
X116070718Y-189739698D03*
X114728378Y-190514698D03*
%TD*%
D17*
%TO.C,D10*%
X221131653Y-110431120D03*
X221131653Y-113731120D03*
%TD*%
D12*
%TO.C,R64*%
X102031653Y-161212500D03*
X102031653Y-159387500D03*
%TD*%
D17*
%TO.C,D29*%
X203862964Y-148531420D03*
X203862964Y-151831420D03*
%TD*%
D10*
%TO.C,R32*%
X123544153Y-116350000D03*
X121719153Y-116350000D03*
%TD*%
D15*
%TO.C,D35*%
X179281653Y-113091500D03*
X179281653Y-111541500D03*
X173581653Y-111541500D03*
X173581653Y-113091500D03*
%TD*%
D24*
%TO.C,D80*%
X95431653Y-152575000D03*
X95431653Y-150825000D03*
%TD*%
D15*
%TO.C,D63*%
X154531653Y-168691950D03*
X154531653Y-170241950D03*
X160231653Y-170241950D03*
X160231653Y-168691950D03*
%TD*%
D20*
%TO.C,C26*%
X170094153Y-149616800D03*
X168369153Y-149616800D03*
%TD*%
D14*
%TO.C,TP16*%
X222950565Y-194300323D03*
%TD*%
%TO.C,TP18*%
X222900565Y-98525298D03*
%TD*%
D36*
%TO.C,D132*%
X121931653Y-198016500D03*
X119073769Y-199666500D03*
%TD*%
D14*
%TO.C,TP8*%
X222883165Y-184800023D03*
%TD*%
D15*
%TO.C,D49*%
X135481653Y-130591650D03*
X135481653Y-132141650D03*
X141181653Y-132141650D03*
X141181653Y-130591650D03*
%TD*%
D37*
%TO.C,C66*%
X131881653Y-179500000D03*
X128931653Y-179500000D03*
%TD*%
D17*
%TO.C,D8*%
X203862964Y-110431120D03*
X203862964Y-113731120D03*
%TD*%
D14*
%TO.C,TP13*%
X222883165Y-189800023D03*
%TD*%
D15*
%TO.C,D69*%
X135481653Y-168691950D03*
X135481653Y-170241950D03*
X141181653Y-170241950D03*
X141181653Y-168691950D03*
%TD*%
D11*
%TO.C,C70*%
X74883348Y-188747095D03*
X74020848Y-187253201D03*
%TD*%
D17*
%TO.C,D6*%
X184812964Y-110431120D03*
X184812964Y-113731120D03*
%TD*%
D10*
%TO.C,R6*%
X123544153Y-134565600D03*
X121719153Y-134565600D03*
%TD*%
D20*
%TO.C,C49*%
X131994153Y-149616800D03*
X130269153Y-149616800D03*
%TD*%
D16*
%TO.C,C11*%
X93308929Y-180975000D03*
X94954377Y-180025000D03*
%TD*%
D15*
%TO.C,D53*%
X198331653Y-151191800D03*
X198331653Y-149641800D03*
X192631653Y-149641800D03*
X192631653Y-151191800D03*
%TD*%
D17*
%TO.C,D14*%
X165762964Y-129481270D03*
X165762964Y-132781270D03*
%TD*%
D14*
%TO.C,TP4*%
X222883153Y-181300012D03*
%TD*%
D38*
%TO.C,R36*%
X85275403Y-178009752D03*
X86187903Y-179590248D03*
%TD*%
D10*
%TO.C,R12*%
X219744153Y-186300000D03*
X217919153Y-186300000D03*
%TD*%
D17*
%TO.C,D18*%
X203862964Y-129481270D03*
X203862964Y-132781270D03*
%TD*%
D14*
%TO.C,TP12*%
X222883165Y-188300023D03*
%TD*%
D29*
%TO.C,R65*%
X93687903Y-185090248D03*
X92775403Y-183509752D03*
%TD*%
D39*
%TO.C,C67*%
X120456653Y-98800000D03*
X123406653Y-98800000D03*
%TD*%
D17*
%TO.C,D24*%
X165762964Y-148531420D03*
X165762964Y-151831420D03*
%TD*%
D11*
%TO.C,C9*%
X87419153Y-192837195D03*
X86556653Y-191343301D03*
%TD*%
D40*
%TO.C,R1*%
X120769153Y-127415600D03*
X122594153Y-127415600D03*
%TD*%
D15*
%TO.C,D73*%
X200231827Y-192149450D03*
X200231827Y-190599450D03*
X194531827Y-190599450D03*
X194531827Y-192149450D03*
%TD*%
D12*
%TO.C,R11*%
X122000000Y-153612500D03*
X122000000Y-151787500D03*
%TD*%
D17*
%TO.C,D4*%
X165762964Y-110431120D03*
X165762964Y-113731120D03*
%TD*%
D27*
%TO.C,C57*%
X201487992Y-168666950D03*
X201487992Y-170391950D03*
%TD*%
D38*
%TO.C,R37*%
X83675403Y-178909752D03*
X84587903Y-180490248D03*
%TD*%
D41*
%TO.C,U8*%
X96298378Y-174276725D03*
X96908378Y-175333275D03*
X97354928Y-173666725D03*
X97964928Y-174723275D03*
D42*
X94828729Y-174386218D03*
X95078729Y-174819231D03*
X95328729Y-175252244D03*
X95578729Y-175685256D03*
X95828729Y-176118269D03*
X96078729Y-176551282D03*
D43*
X97017871Y-176802924D03*
X97450884Y-176552924D03*
X97883897Y-176302924D03*
X98316909Y-176052924D03*
X98749922Y-175802924D03*
X99182935Y-175552924D03*
D42*
X99434577Y-174613782D03*
X99184577Y-174180769D03*
X98934577Y-173747756D03*
X98684577Y-173314744D03*
X98434577Y-172881731D03*
X98184577Y-172448718D03*
D43*
X97245435Y-172197076D03*
X96812422Y-172447076D03*
X96379409Y-172697076D03*
X95946397Y-172947076D03*
X95513384Y-173197076D03*
X95080371Y-173447076D03*
%TD*%
D17*
%TO.C,D16*%
X184812964Y-129481270D03*
X184812964Y-132781270D03*
%TD*%
D11*
%TO.C,C68*%
X97862903Y-187846947D03*
X97000403Y-186353053D03*
%TD*%
D20*
%TO.C,C37*%
X191044327Y-190574450D03*
X189319327Y-190574450D03*
%TD*%
D29*
%TO.C,R42*%
X87687903Y-178790248D03*
X86775403Y-177209752D03*
%TD*%
%TO.C,R41*%
X99337903Y-187040248D03*
X98425403Y-185459752D03*
%TD*%
D15*
%TO.C,D55*%
X141181653Y-151191800D03*
X141181653Y-149641800D03*
X135481653Y-149641800D03*
X135481653Y-151191800D03*
%TD*%
D17*
%TO.C,D12*%
X146712964Y-129481270D03*
X146712964Y-132781270D03*
%TD*%
D10*
%TO.C,R17*%
X123544153Y-123300000D03*
X121719153Y-123300000D03*
%TD*%
D15*
%TO.C,D47*%
X173581653Y-130591650D03*
X173581653Y-132141650D03*
X179281653Y-132141650D03*
X179281653Y-130591650D03*
%TD*%
D10*
%TO.C,R29*%
X123544153Y-118100000D03*
X121719153Y-118100000D03*
%TD*%
D15*
%TO.C,D57*%
X179281653Y-151191800D03*
X179281653Y-149641800D03*
X173581653Y-149641800D03*
X173581653Y-151191800D03*
%TD*%
D10*
%TO.C,R4*%
X123544153Y-121600000D03*
X121719153Y-121600000D03*
%TD*%
D20*
%TO.C,C53*%
X208194153Y-149616800D03*
X206469153Y-149616800D03*
%TD*%
D44*
%TO.C,U9*%
X94371549Y-182546026D03*
X94846549Y-183368750D03*
X95321549Y-184191474D03*
X97291757Y-183053974D03*
X96341757Y-181408526D03*
%TD*%
D24*
%TO.C,D82*%
X95431653Y-127175000D03*
X95431653Y-125425000D03*
%TD*%
D14*
%TO.C,TP2*%
X222883153Y-178300012D03*
%TD*%
D45*
%TO.C,D74*%
X112602711Y-207025000D03*
X115460595Y-205375000D03*
%TD*%
D15*
%TO.C,D39*%
X217381653Y-113091500D03*
X217381653Y-111541500D03*
X211681653Y-111541500D03*
X211681653Y-113091500D03*
%TD*%
%TO.C,D77*%
X176350827Y-192149450D03*
X176350827Y-190599450D03*
X170650827Y-190599450D03*
X170650827Y-192149450D03*
%TD*%
D46*
%TO.C,D87*%
X84105186Y-197045185D03*
X84558120Y-195354815D03*
%TD*%
D17*
%TO.C,D22*%
X146712964Y-148531420D03*
X146712964Y-151831420D03*
%TD*%
D29*
%TO.C,R59*%
X83087903Y-181390248D03*
X82175403Y-179809752D03*
%TD*%
D14*
%TO.C,TP9*%
X222950565Y-135050323D03*
%TD*%
D29*
%TO.C,R24*%
X98819153Y-181237195D03*
X97906653Y-179656699D03*
%TD*%
D15*
%TO.C,D51*%
X160231653Y-151191800D03*
X160231653Y-149641800D03*
X154531653Y-149641800D03*
X154531653Y-151191800D03*
%TD*%
D47*
%TO.C,SW36*%
X170141653Y-159370450D03*
X183991653Y-161910450D03*
%TD*%
%TO.C,SW8*%
X189191653Y-102220000D03*
X203041653Y-104760000D03*
%TD*%
D48*
%TO.C,SW42*%
X122423373Y-182099820D03*
X127148669Y-195364272D03*
%TD*%
D47*
%TO.C,SW38*%
X189191653Y-159370450D03*
X203041653Y-161910450D03*
%TD*%
%TO.C,SW20*%
X208241653Y-121270150D03*
X222091653Y-123810150D03*
%TD*%
%TO.C,SW16*%
X170141653Y-121270150D03*
X183991653Y-123810150D03*
%TD*%
%TO.C,SW4*%
X151091653Y-102220000D03*
X164941653Y-104760000D03*
%TD*%
%TO.C,SW46*%
X167210827Y-181277950D03*
X181060827Y-183817950D03*
%TD*%
%TO.C,SW26*%
X170141653Y-140320300D03*
X183991653Y-142860300D03*
%TD*%
D49*
%TO.C,SW44*%
X140440679Y-185861371D03*
X154476152Y-184730178D03*
%TD*%
D47*
%TO.C,SW30*%
X208241653Y-140320300D03*
X222091653Y-142860300D03*
%TD*%
%TO.C,SW6*%
X170141653Y-102220000D03*
X183991653Y-104760000D03*
%TD*%
%TO.C,SW2*%
X132041653Y-102220000D03*
X145891653Y-104760000D03*
%TD*%
%TO.C,SW34*%
X151091653Y-159370450D03*
X164941653Y-161910450D03*
%TD*%
%TO.C,SW24*%
X151091653Y-140320300D03*
X164941653Y-142860300D03*
%TD*%
%TO.C,SW48*%
X191091827Y-181277950D03*
X204941827Y-183817950D03*
%TD*%
%TO.C,SW14*%
X151091653Y-121270150D03*
X164941653Y-123810150D03*
%TD*%
%TO.C,SW40*%
X208241653Y-159370450D03*
X222091653Y-161910450D03*
%TD*%
%TO.C,SW28*%
X189191653Y-140320300D03*
X203041653Y-142860300D03*
%TD*%
%TO.C,SW22*%
X132041653Y-140320300D03*
X145891653Y-142860300D03*
%TD*%
%TO.C,SW32*%
X132041653Y-159370450D03*
X145891653Y-161910450D03*
%TD*%
%TO.C,SW12*%
X132041653Y-121270150D03*
X145891653Y-123810150D03*
%TD*%
%TO.C,SW10*%
X208241653Y-102220000D03*
X222091653Y-104760000D03*
%TD*%
%TO.C,SW18*%
X189191653Y-121270150D03*
X203041653Y-123810150D03*
%TD*%
M02*
