%TF.GenerationSoftware,KiCad,Pcbnew,7.0.7*%
%TF.CreationDate,2024-04-21T22:42:07+02:00*%
%TF.ProjectId,isokey_right,69736f6b-6579-45f7-9269-6768742e6b69,rev?*%
%TF.SameCoordinates,Original*%
%TF.FileFunction,Profile,NP*%
%FSLAX46Y46*%
G04 Gerber Fmt 4.6, Leading zero omitted, Abs format (unit mm)*
G04 Created by KiCad (PCBNEW 7.0.7) date 2024-04-21 22:42:07*
%MOMM*%
%LPD*%
G01*
G04 APERTURE LIST*
%TA.AperFunction,Profile*%
%ADD10C,0.250000*%
%TD*%
%TA.AperFunction,Profile*%
%ADD11C,0.150000*%
%TD*%
G04 APERTURE END LIST*
D10*
X90500186Y-142098914D02*
G75*
G03*
X93000250Y-144598914I2500114J114D01*
G01*
X169196582Y-34671128D02*
G75*
G03*
X169285440Y-37510746I1451718J-1375772D01*
G01*
X170872926Y-60113680D02*
G75*
G03*
X171667321Y-56999847I-5705326J3113780D01*
G01*
X180342500Y-66029900D02*
X174384086Y-66029900D01*
X171667321Y-56999847D02*
X171667218Y-42660630D01*
X171667200Y-42660630D02*
G75*
G03*
X169285440Y-37510746I-6758400J30D01*
G01*
X126999999Y-35499999D02*
G75*
G03*
X129299999Y-33199999I1J2299999D01*
G01*
X187842500Y-142098914D02*
X187842500Y-73529900D01*
X95337114Y-34210630D02*
G75*
G03*
X90500250Y-35098914I-2336874J-888240D01*
G01*
X95337108Y-34210633D02*
G75*
G03*
X97206612Y-35500000I1869492J710633D01*
G01*
X134999999Y-26307253D02*
G75*
G03*
X129307253Y-31999999I1J-5692747D01*
G01*
X129307253Y-31999999D02*
X129307253Y-33199999D01*
X90500250Y-35098914D02*
X90500250Y-142098914D01*
X169196606Y-34671151D02*
G75*
G03*
X165600000Y-26307253I-3596606J3408651D01*
G01*
X170872952Y-60113695D02*
G75*
G03*
X174384086Y-66029900I3511148J-1916205D01*
G01*
X93000250Y-144598914D02*
X185342500Y-144598914D01*
X187842500Y-73529900D02*
G75*
G03*
X180342500Y-66029900I-7500000J0D01*
G01*
X165600000Y-26307253D02*
X135000000Y-26307253D01*
X185342500Y-144598900D02*
G75*
G03*
X187842500Y-142098914I0J2500000D01*
G01*
X127000000Y-35500000D02*
X97206612Y-35500000D01*
D11*
%TO.C,D8*%
X120750000Y-56716500D02*
X117350000Y-56716500D01*
X117350000Y-56716500D02*
X117350000Y-53316500D01*
X117350000Y-53316500D02*
X120750000Y-53316500D01*
X120750000Y-53316500D02*
X120750000Y-56716500D01*
%TO.C,D70*%
X133300000Y-30300000D02*
X136700000Y-30300000D01*
X136700000Y-30300000D02*
X136700000Y-33700000D01*
X136700000Y-33700000D02*
X133300000Y-33700000D01*
X133300000Y-33700000D02*
X133300000Y-30300000D01*
%TO.C,D62*%
X133131000Y-138631350D02*
X129731000Y-138631350D01*
X129731000Y-138631350D02*
X129731000Y-135231350D01*
X129731000Y-135231350D02*
X133131000Y-135231350D01*
X133131000Y-135231350D02*
X133131000Y-138631350D01*
%TO.C,D58*%
X171643000Y-121895950D02*
X175043000Y-121895950D01*
X175043000Y-121895950D02*
X175043000Y-125295950D01*
X175043000Y-125295950D02*
X171643000Y-125295950D01*
X171643000Y-125295950D02*
X171643000Y-121895950D01*
%TO.C,D56*%
X114081000Y-138631350D02*
X110681000Y-138631350D01*
X110681000Y-138631350D02*
X110681000Y-135231350D01*
X110681000Y-135231350D02*
X114081000Y-135231350D01*
X114081000Y-135231350D02*
X114081000Y-138631350D01*
%TO.C,D65*%
X157300000Y-30300000D02*
X160700000Y-30300000D01*
X160700000Y-30300000D02*
X160700000Y-33700000D01*
X160700000Y-33700000D02*
X157300000Y-33700000D01*
X157300000Y-33700000D02*
X157300000Y-30300000D01*
%TO.C,D36*%
X143544000Y-81891650D02*
X146944000Y-81891650D01*
X146944000Y-81891650D02*
X146944000Y-85291650D01*
X146944000Y-85291650D02*
X143544000Y-85291650D01*
X143544000Y-85291650D02*
X143544000Y-81891650D01*
%TO.C,D59*%
X129731000Y-116181300D02*
X133131000Y-116181300D01*
X133131000Y-116181300D02*
X133131000Y-119581300D01*
X133131000Y-119581300D02*
X129731000Y-119581300D01*
X129731000Y-119581300D02*
X129731000Y-116181300D01*
%TO.C,D55*%
X100682000Y-110466650D02*
X104082000Y-110466650D01*
X104082000Y-110466650D02*
X104082000Y-113866650D01*
X104082000Y-113866650D02*
X100682000Y-113866650D01*
X100682000Y-113866650D02*
X100682000Y-110466650D01*
%TO.C,D19*%
X149325000Y-56716500D02*
X145925000Y-56716500D01*
X145925000Y-56716500D02*
X145925000Y-53316500D01*
X145925000Y-53316500D02*
X149325000Y-53316500D01*
X149325000Y-53316500D02*
X149325000Y-56716500D01*
%TO.C,D47*%
X175043000Y-106245950D02*
X171643000Y-106245950D01*
X171643000Y-106245950D02*
X171643000Y-102845950D01*
X171643000Y-102845950D02*
X175043000Y-102845950D01*
X175043000Y-102845950D02*
X175043000Y-106245950D01*
%TO.C,D48*%
X117350000Y-72366650D02*
X120750000Y-72366650D01*
X120750000Y-72366650D02*
X120750000Y-75766650D01*
X120750000Y-75766650D02*
X117350000Y-75766650D01*
X117350000Y-75766650D02*
X117350000Y-72366650D01*
%TO.C,D41*%
X101700000Y-94816800D02*
X98300000Y-94816800D01*
X98300000Y-94816800D02*
X98300000Y-91416800D01*
X98300000Y-91416800D02*
X101700000Y-91416800D01*
X101700000Y-91416800D02*
X101700000Y-94816800D01*
%TO.C,D67*%
X145300000Y-30300000D02*
X148700000Y-30300000D01*
X148700000Y-30300000D02*
X148700000Y-33700000D01*
X148700000Y-33700000D02*
X145300000Y-33700000D01*
X145300000Y-33700000D02*
X145300000Y-30300000D01*
%TO.C,D49*%
X98300000Y-72366650D02*
X101700000Y-72366650D01*
X101700000Y-72366650D02*
X101700000Y-75766650D01*
X101700000Y-75766650D02*
X98300000Y-75766650D01*
X98300000Y-75766650D02*
X98300000Y-72366650D01*
%TO.C,D51*%
X120750000Y-94816800D02*
X117350000Y-94816800D01*
X117350000Y-94816800D02*
X117350000Y-91416800D01*
X117350000Y-91416800D02*
X120750000Y-91416800D01*
X120750000Y-91416800D02*
X120750000Y-94816800D01*
%TO.C,D26*%
X101700000Y-56716500D02*
X98300000Y-56716500D01*
X98300000Y-56716500D02*
X98300000Y-53316500D01*
X98300000Y-53316500D02*
X101700000Y-53316500D01*
X101700000Y-53316500D02*
X101700000Y-56716500D01*
%TO.C,D35*%
X171643000Y-83846250D02*
X175043000Y-83846250D01*
X175043000Y-83846250D02*
X175043000Y-87246250D01*
X175043000Y-87246250D02*
X171643000Y-87246250D01*
X171643000Y-87246250D02*
X171643000Y-83846250D01*
%TO.C,D68*%
X152181000Y-138631350D02*
X148781000Y-138631350D01*
X148781000Y-138631350D02*
X148781000Y-135231350D01*
X148781000Y-135231350D02*
X152181000Y-135231350D01*
X152181000Y-135231350D02*
X152181000Y-138631350D01*
%TO.C,D61*%
X114081000Y-135231350D02*
X110681000Y-135231350D01*
X110681000Y-135231350D02*
X110681000Y-138631350D01*
X110681000Y-138631350D02*
X114081000Y-138631350D01*
X114081000Y-138631350D02*
X114081000Y-135231350D01*
%TO.C,D69*%
X133300000Y-33700000D02*
X136700000Y-33700000D01*
X136700000Y-33700000D02*
X136700000Y-30300000D01*
X136700000Y-30300000D02*
X133300000Y-30300000D01*
X133300000Y-30300000D02*
X133300000Y-33700000D01*
%TO.C,D57*%
X133131000Y-135231350D02*
X129731000Y-135231350D01*
X129731000Y-135231350D02*
X129731000Y-138631350D01*
X129731000Y-138631350D02*
X133131000Y-138631350D01*
X133131000Y-138631350D02*
X133131000Y-135231350D01*
%TO.C,D60*%
X100682000Y-113866650D02*
X104082000Y-113866650D01*
X104082000Y-113866650D02*
X104082000Y-110466650D01*
X104082000Y-110466650D02*
X100682000Y-110466650D01*
X100682000Y-110466650D02*
X100682000Y-113866650D01*
%TO.C,D63*%
X152181000Y-135231350D02*
X148781000Y-135231350D01*
X148781000Y-135231350D02*
X148781000Y-138631350D01*
X148781000Y-138631350D02*
X152181000Y-138631350D01*
X152181000Y-138631350D02*
X152181000Y-135231350D01*
%TO.C,D40*%
X98300000Y-75766650D02*
X101700000Y-75766650D01*
X101700000Y-75766650D02*
X101700000Y-72366650D01*
X101700000Y-72366650D02*
X98300000Y-72366650D01*
X98300000Y-72366650D02*
X98300000Y-75766650D01*
%TO.C,D30*%
X149325000Y-53316500D02*
X145925000Y-53316500D01*
X145925000Y-53316500D02*
X145925000Y-56716500D01*
X145925000Y-56716500D02*
X149325000Y-56716500D01*
X149325000Y-56716500D02*
X149325000Y-53316500D01*
%TO.C,D20*%
X171643000Y-87246250D02*
X175043000Y-87246250D01*
X175043000Y-87246250D02*
X175043000Y-83846250D01*
X175043000Y-83846250D02*
X171643000Y-83846250D01*
X171643000Y-83846250D02*
X171643000Y-87246250D01*
%TO.C,D66*%
X145300000Y-33700000D02*
X148700000Y-33700000D01*
X148700000Y-33700000D02*
X148700000Y-30300000D01*
X148700000Y-30300000D02*
X145300000Y-30300000D01*
X145300000Y-30300000D02*
X145300000Y-33700000D01*
%TO.C,D29*%
X120750000Y-53316500D02*
X117350000Y-53316500D01*
X117350000Y-53316500D02*
X117350000Y-56716500D01*
X117350000Y-56716500D02*
X120750000Y-56716500D01*
X120750000Y-56716500D02*
X120750000Y-53316500D01*
%TO.C,D25*%
X143544000Y-85291650D02*
X146944000Y-85291650D01*
X146944000Y-85291650D02*
X146944000Y-81891650D01*
X146944000Y-81891650D02*
X143544000Y-81891650D01*
X143544000Y-81891650D02*
X143544000Y-85291650D01*
%TO.C,D39*%
X117350000Y-75766650D02*
X120750000Y-75766650D01*
X120750000Y-75766650D02*
X120750000Y-72366650D01*
X120750000Y-72366650D02*
X117350000Y-72366650D01*
X117350000Y-72366650D02*
X117350000Y-75766650D01*
%TO.C,D53*%
X171643000Y-125295950D02*
X175043000Y-125295950D01*
X175043000Y-125295950D02*
X175043000Y-121895950D01*
X175043000Y-121895950D02*
X171643000Y-121895950D01*
X171643000Y-121895950D02*
X171643000Y-125295950D01*
%TO.C,D7*%
X101700000Y-53316500D02*
X98300000Y-53316500D01*
X98300000Y-53316500D02*
X98300000Y-56716500D01*
X98300000Y-56716500D02*
X101700000Y-56716500D01*
X101700000Y-56716500D02*
X101700000Y-53316500D01*
%TO.C,D64*%
X157300000Y-33700000D02*
X160700000Y-33700000D01*
X160700000Y-33700000D02*
X160700000Y-30300000D01*
X160700000Y-30300000D02*
X157300000Y-30300000D01*
X157300000Y-30300000D02*
X157300000Y-33700000D01*
%TO.C,D50*%
X101700000Y-91416800D02*
X98300000Y-91416800D01*
X98300000Y-91416800D02*
X98300000Y-94816800D01*
X98300000Y-94816800D02*
X101700000Y-94816800D01*
X101700000Y-94816800D02*
X101700000Y-91416800D01*
%TO.C,D42*%
X120750000Y-91416800D02*
X117350000Y-91416800D01*
X117350000Y-91416800D02*
X117350000Y-94816800D01*
X117350000Y-94816800D02*
X120750000Y-94816800D01*
X120750000Y-94816800D02*
X120750000Y-91416800D01*
%TO.C,D54*%
X129731000Y-119581300D02*
X133131000Y-119581300D01*
X133131000Y-119581300D02*
X133131000Y-116181300D01*
X133131000Y-116181300D02*
X129731000Y-116181300D01*
X129731000Y-116181300D02*
X129731000Y-119581300D01*
%TO.C,D52*%
X175043000Y-102845950D02*
X171643000Y-102845950D01*
X171643000Y-102845950D02*
X171643000Y-106245950D01*
X171643000Y-106245950D02*
X175043000Y-106245950D01*
X175043000Y-106245950D02*
X175043000Y-102845950D01*
%TD*%
M02*
