M48
; DRILL file {KiCad 7.0.7} date 2024 April 21, Sunday 22:41:55
; FORMAT={-:-/ absolute / metric / decimal}
; #@! TF.CreationDate,2024-04-21T22:41:55+02:00
; #@! TF.GenerationSoftware,Kicad,Pcbnew,7.0.7
; #@! TF.FileFunction,Plated,1,2,PTH
FMAT,2
METRIC
; #@! TA.AperFunction,Plated,PTH,ViaDrill
T1C0.300
; #@! TA.AperFunction,Plated,PTH,ComponentDrill
T2C2.500
%
G90
G05
T1
X91.7Y-44.75
X91.7Y-63.8
X92.3Y-102.0
X92.325Y-81.2
X92.8Y-87.7
X93.1Y-77.75
X93.1Y-119.5
X93.1Y-121.0
X93.1Y-122.5
X93.1Y-124.0
X93.1Y-125.5
X93.1Y-131.0
X93.1Y-132.5
X93.1Y-134.0
X93.1Y-135.5
X93.1Y-137.0
X93.2Y-54.8
X93.3Y-60.6
X93.3Y-79.2
X93.3Y-127.5
X93.3Y-129.0
X93.5Y-59.2
X94.082Y-101.9
X94.612Y-55.0
X94.612Y-93.1
X94.822Y-119.5
X95.5Y-54.5
X95.5Y-92.6
X95.5Y-126.75
X95.8Y-74.8
X96.2Y-128.1
X97.1Y-113.0
X97.1Y-116.3
X97.15Y-76.2
X97.6Y-137.0
X97.8Y-112.0
X97.8Y-135.3
X100.4Y-120.0
X100.4Y-130.0
X101.3Y-118.9
X101.3Y-131.3
X102.2Y-117.8
X102.2Y-133.0
X102.9Y-77.5
X103.0Y-117.0
X103.0Y-134.3
X104.081Y-126.665
X104.3Y-74.3
X104.5Y-137.7
X104.7Y-54.25
X104.7Y-58.25
X104.7Y-71.7
X104.7Y-92.35
X104.7Y-96.35
X105.2Y-115.5
X105.631Y-140.165
X106.6Y-53.4
X106.6Y-91.5
X106.8Y-74.9
X106.8Y-78.3
X106.9Y-73.1
X106.9Y-112.2
X106.993Y-136.915
X107.6Y-77.5
X107.6Y-111.4
X107.881Y-136.415
X108.2Y-109.6
X108.5Y-55.0
X108.5Y-59.1
X108.5Y-74.05
X108.5Y-76.6
X108.5Y-93.1
X108.5Y-97.2
X108.5Y-114.2
X108.5Y-116.3
X109.6Y-98.6
X109.6Y-115.5
X110.75Y-44.75
X110.75Y-63.8
X110.75Y-82.85
X110.882Y-112.15
X110.9Y-117.0
X111.6Y-97.2
X112.0Y-54.75
X112.0Y-58.25
X112.0Y-92.85
X112.0Y-96.35
X113.0Y-107.5
X113.3Y-74.9
X113.3Y-78.3
X114.0Y-117.8
X114.4Y-57.5
X114.4Y-95.6
X114.6Y-74.2
X114.8Y-55.0
X114.8Y-93.1
X116.7Y-122.5
X117.081Y-136.165
X117.081Y-140.165
X118.4Y-105.4
X118.981Y-135.315
X120.881Y-136.8
X120.881Y-141.015
X121.9Y-124.3
X122.0Y-77.5
X123.131Y-107.615
X123.131Y-126.665
X123.3Y-74.3
X123.75Y-54.25
X123.75Y-58.25
X123.75Y-92.35
X123.75Y-96.35
X124.1Y-73.292
X124.1Y-77.5
X124.381Y-136.665
X124.381Y-140.165
X124.7Y-71.7
X124.75Y-53.5
X124.75Y-91.6
X125.1Y-75.9
X125.1Y-78.3
X125.3Y-121.5
X126.3Y-117.1
X126.781Y-139.415
X127.181Y-136.915
X127.55Y-54.655
X127.55Y-59.1
X127.55Y-74.05
X127.55Y-93.1
X127.55Y-97.2
X127.6Y-76.6
X128.6Y-119.581
X128.6Y-121.5
X128.8Y-37.6
X130.4Y-60.2
X130.6Y-32.0
X131.6Y-37.6
X131.6Y-61.5
X134.3Y-120.6
X135.1Y-59.1
X135.8Y-93.0
X136.1Y-118.0
X136.131Y-136.165
X136.131Y-140.165
X136.944Y-73.325
X137.131Y-135.415
X137.6Y-34.0
X137.6Y-115.6
X137.6Y-121.5
X137.9Y-93.0
X138.9Y-118.8
X139.325Y-44.75
X139.5Y-56.0
X139.5Y-58.25
X139.6Y-84.6
X139.6Y-88.5
X139.8Y-104.8
X139.931Y-117.865
X139.931Y-136.915
X139.931Y-141.015
X140.0Y-122.3
X140.2Y-29.2
X140.4Y-32.8
X140.7Y-83.8
X141.4Y-120.6
X141.6Y-35.9
X142.181Y-126.665
X142.292Y-57.492
X142.798Y-30.997
X142.9Y-32.8
X143.1Y-123.9
X143.2Y-55.0
X143.637Y-138.7
X143.7Y-140.165
X145.3Y-139.415
X146.2Y-136.825
X148.1Y-87.4
X149.6Y-84.4
X149.8Y-34.0
X150.5Y-58.25
X150.5Y-81.3
X151.2Y-85.5
X151.2Y-88.5
X152.2Y-29.2
X152.2Y-32.775
X152.5Y-83.2
X152.5Y-87.4
X152.7Y-54.9
X152.8Y-57.5
X152.8Y-60.227
X153.6Y-35.9
X153.7Y-83.6
X153.7Y-86.3
X154.4Y-54.1
X154.4Y-58.2
X154.6Y-31.0
X154.6Y-60.7
X154.8Y-32.8
X154.8Y-137.0
X155.4Y-87.4
X155.4Y-95.6
X155.5Y-89.6
X155.5Y-136.1
X155.5Y-140.165
X156.125Y-55.0
X156.125Y-59.1
X156.9Y-120.6
X156.9Y-120.6
X157.0Y-55.8
X157.0Y-66.6
X157.0Y-83.8
X157.0Y-88.5
X157.0Y-90.8
X157.0Y-96.35
X158.2Y-89.4
X158.5Y-121.5
X158.981Y-136.915
X159.0Y-141.015
X159.3Y-97.5
X160.2Y-108.6
X160.5Y-96.7
X160.698Y-139.4
X161.2Y-107.8
X161.3Y-35.0
X161.5Y-95.9
X161.8Y-123.1
X161.9Y-140.1
X162.175Y-123.85
X162.2Y-107.0
X163.0Y-29.2
X163.0Y-134.4
X163.1Y-92.741
X163.1Y-103.6
X163.8Y-33.0
X163.9Y-88.141
X165.043Y-75.28
X165.043Y-94.279
X165.043Y-113.329
X165.6Y-32.4
X166.387Y-107.77
X166.4Y-104.5
X168.1Y-104.5
X168.1Y-107.0
X168.4Y-124.3
X168.4Y-128.3
X169.0Y-86.3
X169.0Y-90.4
X169.1Y-123.5
X169.2Y-104.6
X170.5Y-87.4
X176.2Y-89.3
X176.2Y-107.8
X176.2Y-127.1
X177.7Y-104.5
X177.7Y-107.8
X177.8Y-86.0
X177.8Y-91.3
X177.8Y-123.6
X178.5Y-124.4
X178.7Y-105.3
X179.5Y-121.6
X180.4Y-84.6
X180.5Y-86.7
X180.5Y-90.4
X180.5Y-128.3
X181.3Y-89.3
X181.843Y-85.53
X181.843Y-104.529
X181.843Y-123.579
X181.9Y-108.6
X181.9Y-129.1
X182.3Y-88.2
T2
X93.0Y-142.2
X93.0Y-35.099
X165.778Y-37.599
X165.778Y-66.599
X185.343Y-142.099
T0
M30
