%TF.GenerationSoftware,KiCad,Pcbnew,7.0.7*%
%TF.CreationDate,2024-04-21T22:42:07+02:00*%
%TF.ProjectId,isokey_right,69736f6b-6579-45f7-9269-6768742e6b69,rev?*%
%TF.SameCoordinates,Original*%
%TF.FileFunction,Soldermask,Bot*%
%TF.FilePolarity,Negative*%
%FSLAX46Y46*%
G04 Gerber Fmt 4.6, Leading zero omitted, Abs format (unit mm)*
G04 Created by KiCad (PCBNEW 7.0.7) date 2024-04-21 22:42:07*
%MOMM*%
%LPD*%
G01*
G04 APERTURE LIST*
G04 Aperture macros list*
%AMRoundRect*
0 Rectangle with rounded corners*
0 $1 Rounding radius*
0 $2 $3 $4 $5 $6 $7 $8 $9 X,Y pos of 4 corners*
0 Add a 4 corners polygon primitive as box body*
4,1,4,$2,$3,$4,$5,$6,$7,$8,$9,$2,$3,0*
0 Add four circle primitives for the rounded corners*
1,1,$1+$1,$2,$3*
1,1,$1+$1,$4,$5*
1,1,$1+$1,$6,$7*
1,1,$1+$1,$8,$9*
0 Add four rect primitives between the rounded corners*
20,1,$1+$1,$2,$3,$4,$5,0*
20,1,$1+$1,$4,$5,$6,$7,0*
20,1,$1+$1,$6,$7,$8,$9,0*
20,1,$1+$1,$8,$9,$2,$3,0*%
G04 Aperture macros list end*
%ADD10C,1.701800*%
%ADD11C,3.000000*%
%ADD12C,3.987800*%
%ADD13R,2.550000X2.500000*%
%ADD14RoundRect,0.100000X-0.900000X-0.400000X0.900000X-0.400000X0.900000X0.400000X-0.900000X0.400000X0*%
%ADD15C,2.900000*%
%ADD16C,5.000000*%
%ADD17RoundRect,0.237500X-0.237500X0.300000X-0.237500X-0.300000X0.237500X-0.300000X0.237500X0.300000X0*%
%ADD18R,1.500000X0.850000*%
%ADD19RoundRect,0.237500X0.300000X0.237500X-0.300000X0.237500X-0.300000X-0.237500X0.300000X-0.237500X0*%
%ADD20RoundRect,0.237500X-0.250000X-0.237500X0.250000X-0.237500X0.250000X0.237500X-0.250000X0.237500X0*%
%ADD21RoundRect,0.225000X-0.375000X0.225000X-0.375000X-0.225000X0.375000X-0.225000X0.375000X0.225000X0*%
%ADD22RoundRect,0.237500X-0.300000X-0.237500X0.300000X-0.237500X0.300000X0.237500X-0.300000X0.237500X0*%
%ADD23RoundRect,0.237500X0.237500X-0.300000X0.237500X0.300000X-0.237500X0.300000X-0.237500X-0.300000X0*%
G04 APERTURE END LIST*
D10*
%TO.C,SW3*%
X113970000Y-50000000D03*
D11*
X115240000Y-47460000D03*
D12*
X119050000Y-50000000D03*
D11*
X121590000Y-44920000D03*
D10*
X124130000Y-50000000D03*
D13*
X125340000Y-44920000D03*
X111490000Y-47460000D03*
%TD*%
D10*
%TO.C,SW13*%
X113970000Y-69050150D03*
D11*
X115240000Y-66510150D03*
D12*
X119050000Y-69050150D03*
D11*
X121590000Y-63970150D03*
D10*
X124130000Y-69050150D03*
D13*
X125340000Y-63970150D03*
X111490000Y-66510150D03*
%TD*%
D10*
%TO.C,SW33*%
X126351000Y-112864800D03*
D11*
X127621000Y-110324800D03*
D12*
X131431000Y-112864800D03*
D11*
X133971000Y-107784800D03*
D10*
X136511000Y-112864800D03*
D13*
X137721000Y-107784800D03*
X123871000Y-110324800D03*
%TD*%
D14*
%TO.C,TP10*%
X91600000Y-131000000D03*
%TD*%
%TO.C,TP14*%
X91600000Y-137000000D03*
%TD*%
D10*
%TO.C,SW27*%
X168263000Y-99529450D03*
D11*
X169533000Y-96989450D03*
D12*
X173343000Y-99529450D03*
D11*
X175883000Y-94449450D03*
D10*
X178423000Y-99529450D03*
D13*
X179633000Y-94449450D03*
X165783000Y-96989450D03*
%TD*%
D15*
%TO.C,H5*%
X93000250Y-35098914D03*
D16*
X93000250Y-35098914D03*
%TD*%
D14*
%TO.C,TP1*%
X91600000Y-127500000D03*
%TD*%
D10*
%TO.C,SW31*%
X97302000Y-107150150D03*
D11*
X98572000Y-104610150D03*
D12*
X102382000Y-107150150D03*
D11*
X104922000Y-102070150D03*
D10*
X107462000Y-107150150D03*
D13*
X108672000Y-102070150D03*
X94822000Y-104610150D03*
%TD*%
D14*
%TO.C,TP2*%
X91600000Y-129000000D03*
%TD*%
D10*
%TO.C,SW1*%
X94920000Y-50000000D03*
D11*
X96190000Y-47460000D03*
D12*
X100000000Y-50000000D03*
D11*
X102540000Y-44920000D03*
D10*
X105080000Y-50000000D03*
D13*
X106290000Y-44920000D03*
X92440000Y-47460000D03*
%TD*%
D14*
%TO.C,TP15*%
X91700000Y-60250000D03*
%TD*%
D10*
%TO.C,SW41*%
X126351000Y-131914850D03*
D11*
X127621000Y-129374850D03*
D12*
X131431000Y-131914850D03*
D11*
X133971000Y-126834850D03*
D10*
X136511000Y-131914850D03*
D13*
X137721000Y-126834850D03*
X123871000Y-129374850D03*
%TD*%
D15*
%TO.C,H4*%
X165778491Y-37598914D03*
D16*
X165778491Y-37598914D03*
%TD*%
D10*
%TO.C,SW17*%
X168263000Y-80529750D03*
D11*
X169533000Y-77989750D03*
D12*
X173343000Y-80529750D03*
D11*
X175883000Y-75449750D03*
D10*
X178423000Y-80529750D03*
D13*
X179633000Y-75449750D03*
X165783000Y-77989750D03*
%TD*%
D14*
%TO.C,TP9*%
X91600000Y-125500000D03*
%TD*%
D10*
%TO.C,SW23*%
X113970000Y-88100300D03*
D11*
X115240000Y-85560300D03*
D12*
X119050000Y-88100300D03*
D11*
X121590000Y-83020300D03*
D10*
X124130000Y-88100300D03*
D13*
X125340000Y-83020300D03*
X111490000Y-85560300D03*
%TD*%
D14*
%TO.C,TP6*%
X91600000Y-121000000D03*
%TD*%
D15*
%TO.C,H1*%
X93000000Y-142200000D03*
D16*
X93000000Y-142200000D03*
%TD*%
D14*
%TO.C,TP13*%
X91600000Y-135500000D03*
%TD*%
%TO.C,TP16*%
X91700000Y-79172839D03*
%TD*%
%TO.C,TP11*%
X91600000Y-132500000D03*
%TD*%
D10*
%TO.C,SW21*%
X94920000Y-88100300D03*
D11*
X96190000Y-85560300D03*
D12*
X100000000Y-88100300D03*
D11*
X102540000Y-83020300D03*
D10*
X105080000Y-88100300D03*
D13*
X106290000Y-83020300D03*
X92440000Y-85560300D03*
%TD*%
D10*
%TO.C,SW9*%
X107301000Y-131914850D03*
D11*
X108571000Y-129374850D03*
D12*
X112381000Y-131914850D03*
D11*
X114921000Y-126834850D03*
D10*
X117461000Y-131914850D03*
D13*
X118671000Y-126834850D03*
X104821000Y-129374850D03*
%TD*%
D15*
%TO.C,H2*%
X185342500Y-142098914D03*
D16*
X185342500Y-142098914D03*
%TD*%
D10*
%TO.C,SW15*%
X140164000Y-78575150D03*
D11*
X141434000Y-76035150D03*
D12*
X145244000Y-78575150D03*
D11*
X147784000Y-73495150D03*
D10*
X150324000Y-78575150D03*
D13*
X151534000Y-73495150D03*
X137684000Y-76035150D03*
%TD*%
D10*
%TO.C,SW43*%
X145401000Y-131914850D03*
D11*
X146671000Y-129374850D03*
D12*
X150481000Y-131914850D03*
D11*
X153021000Y-126834850D03*
D10*
X155561000Y-131914850D03*
D13*
X156771000Y-126834850D03*
X142921000Y-129374850D03*
%TD*%
D10*
%TO.C,SW11*%
X94920000Y-69050150D03*
D11*
X96190000Y-66510150D03*
D12*
X100000000Y-69050150D03*
D11*
X102540000Y-63970150D03*
D10*
X105080000Y-69050150D03*
D13*
X106290000Y-63970150D03*
X92440000Y-66510150D03*
%TD*%
D14*
%TO.C,TP3*%
X91700000Y-77750000D03*
%TD*%
D10*
%TO.C,SW5*%
X142545000Y-50000000D03*
D11*
X143815000Y-47460000D03*
D12*
X147625000Y-50000000D03*
D11*
X150165000Y-44920000D03*
D10*
X152705000Y-50000000D03*
D13*
X153915000Y-44920000D03*
X140065000Y-47460000D03*
%TD*%
D14*
%TO.C,TP5*%
X91600000Y-119500000D03*
%TD*%
%TO.C,TP4*%
X91700000Y-58800000D03*
%TD*%
D15*
%TO.C,H3*%
X165778491Y-66598914D03*
D16*
X165778491Y-66598914D03*
%TD*%
D14*
%TO.C,TP7*%
X91600000Y-122500000D03*
%TD*%
%TO.C,TP8*%
X91600000Y-124000000D03*
%TD*%
D10*
%TO.C,SW37*%
X168263000Y-118579450D03*
D11*
X169533000Y-116039450D03*
D12*
X173343000Y-118579450D03*
D11*
X175883000Y-113499450D03*
D10*
X178423000Y-118579450D03*
D13*
X179633000Y-113499450D03*
X165783000Y-116039450D03*
%TD*%
D14*
%TO.C,TP12*%
X91600000Y-134000000D03*
%TD*%
D17*
%TO.C,C1*%
X108500000Y-111300000D03*
X108500000Y-113025000D03*
%TD*%
D18*
%TO.C,D61*%
X115231000Y-136156350D03*
X115231000Y-137706350D03*
X109531000Y-137706350D03*
X109531000Y-136156350D03*
%TD*%
D19*
%TO.C,C33*%
X94612500Y-56000000D03*
X92887500Y-56000000D03*
%TD*%
D20*
%TO.C,R4*%
X94400000Y-129000000D03*
X96225000Y-129000000D03*
%TD*%
D19*
%TO.C,C17*%
X113862500Y-55750000D03*
X112137500Y-55750000D03*
%TD*%
%TO.C,C27*%
X142362500Y-56000000D03*
X140637500Y-56000000D03*
%TD*%
D18*
%TO.C,D69*%
X132150000Y-32775000D03*
X132150000Y-31225000D03*
X137850000Y-31225000D03*
X137850000Y-32775000D03*
%TD*%
D21*
%TO.C,D43*%
X139931000Y-132514850D03*
X139931000Y-135814850D03*
%TD*%
D22*
%TO.C,C37*%
X163887500Y-31250000D03*
X165612500Y-31250000D03*
%TD*%
D23*
%TO.C,C15*%
X179500000Y-124362500D03*
X179500000Y-122637500D03*
%TD*%
D10*
%TO.C,SW12*%
X105080000Y-69050150D03*
D11*
X103810000Y-66510150D03*
D12*
X100000000Y-69050150D03*
D11*
X97460000Y-63970150D03*
D10*
X94920000Y-69050150D03*
%TD*%
D21*
%TO.C,D5*%
X156125000Y-50600000D03*
X156125000Y-53900000D03*
%TD*%
D18*
%TO.C,D57*%
X134281000Y-136156350D03*
X134281000Y-137706350D03*
X128581000Y-137706350D03*
X128581000Y-136156350D03*
%TD*%
%TO.C,D60*%
X99532000Y-112941650D03*
X99532000Y-111391650D03*
X105232000Y-111391650D03*
X105232000Y-112941650D03*
%TD*%
D21*
%TO.C,D33*%
X139931000Y-113464800D03*
X139931000Y-116764800D03*
%TD*%
D18*
%TO.C,D63*%
X153331000Y-136156350D03*
X153331000Y-137706350D03*
X147631000Y-137706350D03*
X147631000Y-136156350D03*
%TD*%
D17*
%TO.C,C19*%
X105750000Y-73137500D03*
X105750000Y-74862500D03*
%TD*%
D10*
%TO.C,SW16*%
X150324000Y-78575150D03*
D11*
X149054000Y-76035150D03*
D12*
X145244000Y-78575150D03*
D11*
X142704000Y-73495150D03*
D10*
X140164000Y-78575150D03*
%TD*%
D17*
%TO.C,C21*%
X125100000Y-73237500D03*
X125100000Y-74962500D03*
%TD*%
D18*
%TO.C,D40*%
X97150000Y-74841650D03*
X97150000Y-73291650D03*
X102850000Y-73291650D03*
X102850000Y-74841650D03*
%TD*%
D21*
%TO.C,D17*%
X181843000Y-81129750D03*
X181843000Y-84429750D03*
%TD*%
D10*
%TO.C,SW38*%
X178423000Y-118579450D03*
D11*
X177153000Y-116039450D03*
D12*
X173343000Y-118579450D03*
D11*
X170803000Y-113499450D03*
D10*
X168263000Y-118579450D03*
%TD*%
%TO.C,SW6*%
X152705000Y-50000000D03*
D11*
X151435000Y-47460000D03*
D12*
X147625000Y-50000000D03*
D11*
X145085000Y-44920000D03*
D10*
X142545000Y-50000000D03*
%TD*%
D21*
%TO.C,D27*%
X181843000Y-100129450D03*
X181843000Y-103429450D03*
%TD*%
D10*
%TO.C,SW34*%
X136511000Y-112864800D03*
D11*
X135241000Y-110324800D03*
D12*
X131431000Y-112864800D03*
D11*
X128891000Y-107784800D03*
D10*
X126351000Y-112864800D03*
%TD*%
D17*
%TO.C,C13*%
X179250000Y-84637500D03*
X179250000Y-86362500D03*
%TD*%
D18*
%TO.C,D30*%
X150475000Y-54241500D03*
X150475000Y-55791500D03*
X144775000Y-55791500D03*
X144775000Y-54241500D03*
%TD*%
D21*
%TO.C,D3*%
X127550000Y-50255411D03*
X127550000Y-53555411D03*
%TD*%
D10*
%TO.C,SW44*%
X155561000Y-131914850D03*
D11*
X154291000Y-129374850D03*
D12*
X150481000Y-131914850D03*
D11*
X147941000Y-126834850D03*
D10*
X145401000Y-131914850D03*
%TD*%
%TO.C,SW32*%
X107462000Y-107150150D03*
D11*
X106192000Y-104610150D03*
D12*
X102382000Y-107150150D03*
D11*
X99842000Y-102070150D03*
D10*
X97302000Y-107150150D03*
%TD*%
D18*
%TO.C,D20*%
X170493000Y-86321250D03*
X170493000Y-84771250D03*
X176193000Y-84771250D03*
X176193000Y-86321250D03*
%TD*%
D19*
%TO.C,C7*%
X113975000Y-94000000D03*
X112250000Y-94000000D03*
%TD*%
D10*
%TO.C,SW4*%
X124130000Y-50000000D03*
D11*
X122860000Y-47460000D03*
D12*
X119050000Y-50000000D03*
D11*
X116510000Y-44920000D03*
D10*
X113970000Y-50000000D03*
%TD*%
%TO.C,SW18*%
X178423000Y-80529750D03*
D11*
X177153000Y-77989750D03*
D12*
X173343000Y-80529750D03*
D11*
X170803000Y-75449750D03*
D10*
X168263000Y-80529750D03*
%TD*%
D22*
%TO.C,C34*%
X139887500Y-31250000D03*
X141612500Y-31250000D03*
%TD*%
D10*
%TO.C,SW42*%
X136511000Y-131914850D03*
D11*
X135241000Y-129374850D03*
D12*
X131431000Y-131914850D03*
D11*
X128891000Y-126834850D03*
D10*
X126351000Y-131914850D03*
%TD*%
D21*
%TO.C,D31*%
X110882000Y-107750150D03*
X110882000Y-111050150D03*
%TD*%
D19*
%TO.C,C11*%
X126362500Y-137750000D03*
X124637500Y-137750000D03*
%TD*%
D18*
%TO.C,D66*%
X144150000Y-32775000D03*
X144150000Y-31225000D03*
X149850000Y-31225000D03*
X149850000Y-32775000D03*
%TD*%
D17*
%TO.C,C30*%
X151250000Y-82637500D03*
X151250000Y-84362500D03*
%TD*%
D18*
%TO.C,D29*%
X121900000Y-54241500D03*
X121900000Y-55791500D03*
X116200000Y-55791500D03*
X116200000Y-54241500D03*
%TD*%
D19*
%TO.C,C5*%
X107362500Y-137750000D03*
X105637500Y-137750000D03*
%TD*%
D17*
%TO.C,C3*%
X137600000Y-116837500D03*
X137600000Y-118562500D03*
%TD*%
D21*
%TO.C,D15*%
X153744000Y-79175150D03*
X153744000Y-82475150D03*
%TD*%
%TO.C,D21*%
X108500000Y-88700300D03*
X108500000Y-92000300D03*
%TD*%
D18*
%TO.C,D25*%
X142394000Y-84366650D03*
X142394000Y-82816650D03*
X148094000Y-82816650D03*
X148094000Y-84366650D03*
%TD*%
D10*
%TO.C,SW24*%
X124130000Y-88100300D03*
D11*
X122860000Y-85560300D03*
D12*
X119050000Y-88100300D03*
D11*
X116510000Y-83020300D03*
D10*
X113970000Y-88100300D03*
%TD*%
D21*
%TO.C,D45*%
X158981000Y-132514850D03*
X158981000Y-135814850D03*
%TD*%
D18*
%TO.C,D39*%
X116200000Y-74841650D03*
X116200000Y-73291650D03*
X121900000Y-73291650D03*
X121900000Y-74841650D03*
%TD*%
D19*
%TO.C,C9*%
X145362500Y-137750000D03*
X143637500Y-137750000D03*
%TD*%
D18*
%TO.C,D53*%
X170493000Y-124370950D03*
X170493000Y-122820950D03*
X176193000Y-122820950D03*
X176193000Y-124370950D03*
%TD*%
%TO.C,D7*%
X102850000Y-54241500D03*
X102850000Y-55791500D03*
X97150000Y-55791500D03*
X97150000Y-54241500D03*
%TD*%
D21*
%TO.C,D1*%
X108500000Y-50600000D03*
X108500000Y-53900000D03*
%TD*%
D10*
%TO.C,SW14*%
X124130000Y-69050150D03*
D11*
X122860000Y-66510150D03*
D12*
X119050000Y-69050150D03*
D11*
X116510000Y-63970150D03*
D10*
X113970000Y-69050150D03*
%TD*%
D22*
%TO.C,C31*%
X151887500Y-31250000D03*
X153612500Y-31250000D03*
%TD*%
D10*
%TO.C,SW22*%
X105080000Y-88100300D03*
D11*
X103810000Y-85560300D03*
D12*
X100000000Y-88100300D03*
D11*
X97460000Y-83020300D03*
D10*
X94920000Y-88100300D03*
%TD*%
D21*
%TO.C,D37*%
X181843000Y-119179450D03*
X181843000Y-122479450D03*
%TD*%
%TO.C,D13*%
X127550000Y-69650150D03*
X127550000Y-72950150D03*
%TD*%
D10*
%TO.C,SW2*%
X105080000Y-50000000D03*
D11*
X103810000Y-47460000D03*
D12*
X100000000Y-50000000D03*
D11*
X97460000Y-44920000D03*
D10*
X94920000Y-50000000D03*
%TD*%
D18*
%TO.C,D64*%
X156150000Y-32775000D03*
X156150000Y-31225000D03*
X161850000Y-31225000D03*
X161850000Y-32775000D03*
%TD*%
%TO.C,D50*%
X102850000Y-92341800D03*
X102850000Y-93891800D03*
X97150000Y-93891800D03*
X97150000Y-92341800D03*
%TD*%
%TO.C,D42*%
X121900000Y-92341800D03*
X121900000Y-93891800D03*
X116200000Y-93891800D03*
X116200000Y-92341800D03*
%TD*%
D21*
%TO.C,D23*%
X127550000Y-88700300D03*
X127550000Y-92000300D03*
%TD*%
D18*
%TO.C,D54*%
X128581000Y-118656300D03*
X128581000Y-117106300D03*
X134281000Y-117106300D03*
X134281000Y-118656300D03*
%TD*%
D10*
%TO.C,SW28*%
X178423000Y-99529450D03*
D11*
X177153000Y-96989450D03*
D12*
X173343000Y-99529450D03*
D11*
X170803000Y-94449450D03*
D10*
X168263000Y-99529450D03*
%TD*%
%TO.C,SW10*%
X117461000Y-131914850D03*
D11*
X116191000Y-129374850D03*
D12*
X112381000Y-131914850D03*
D11*
X109841000Y-126834850D03*
D10*
X107301000Y-131914850D03*
%TD*%
D17*
%TO.C,C25*%
X94200000Y-77637500D03*
X94200000Y-79362500D03*
%TD*%
D18*
%TO.C,D52*%
X176193000Y-103770950D03*
X176193000Y-105320950D03*
X170493000Y-105320950D03*
X170493000Y-103770950D03*
%TD*%
D21*
%TO.C,D11*%
X108500000Y-69650150D03*
X108500000Y-72950150D03*
%TD*%
D19*
%TO.C,C23*%
X168112500Y-105500000D03*
X166387500Y-105500000D03*
%TD*%
D21*
%TO.C,D9*%
X120881000Y-132514850D03*
X120881000Y-135814850D03*
%TD*%
M02*
