M48
; DRILL file {KiCad 7.0.7} date 2024 April 21, Sunday 22:41:55
; FORMAT={-:-/ absolute / metric / decimal}
; #@! TF.CreationDate,2024-04-21T22:41:55+02:00
; #@! TF.GenerationSoftware,Kicad,Pcbnew,7.0.7
; #@! TF.FileFunction,NonPlated,1,2,NPTH
FMAT,2
METRIC
; #@! TA.AperFunction,NonPlated,NPTH,ComponentDrill
T1C1.702
; #@! TA.AperFunction,NonPlated,NPTH,ComponentDrill
T2C3.000
; #@! TA.AperFunction,NonPlated,NPTH,ComponentDrill
T3C3.988
%
G90
G05
T1
X94.92Y-50.0
X94.92Y-50.0
X94.92Y-69.05
X94.92Y-69.05
X94.92Y-88.1
X94.92Y-88.1
X97.302Y-107.15
X97.302Y-107.15
X105.08Y-50.0
X105.08Y-50.0
X105.08Y-69.05
X105.08Y-69.05
X105.08Y-88.1
X105.08Y-88.1
X107.301Y-131.915
X107.301Y-131.915
X107.462Y-107.15
X107.462Y-107.15
X113.97Y-50.0
X113.97Y-50.0
X113.97Y-69.05
X113.97Y-69.05
X113.97Y-88.1
X113.97Y-88.1
X117.461Y-131.915
X117.461Y-131.915
X124.13Y-50.0
X124.13Y-50.0
X124.13Y-69.05
X124.13Y-69.05
X124.13Y-88.1
X124.13Y-88.1
X126.351Y-112.865
X126.351Y-112.865
X126.351Y-131.915
X126.351Y-131.915
X136.511Y-112.865
X136.511Y-112.865
X136.511Y-131.915
X136.511Y-131.915
X140.164Y-78.575
X140.164Y-78.575
X142.545Y-50.0
X142.545Y-50.0
X145.401Y-131.915
X145.401Y-131.915
X150.324Y-78.575
X150.324Y-78.575
X152.705Y-50.0
X152.705Y-50.0
X155.561Y-131.915
X155.561Y-131.915
X168.263Y-80.53
X168.263Y-80.53
X168.263Y-99.529
X168.263Y-99.529
X168.263Y-118.579
X168.263Y-118.579
X178.423Y-80.53
X178.423Y-80.53
X178.423Y-99.529
X178.423Y-99.529
X178.423Y-118.579
X178.423Y-118.579
T2
X96.19Y-47.46
X96.19Y-66.51
X96.19Y-85.56
X97.46Y-44.92
X97.46Y-63.97
X97.46Y-83.02
X98.572Y-104.61
X99.842Y-102.07
X102.54Y-44.92
X102.54Y-63.97
X102.54Y-83.02
X103.81Y-47.46
X103.81Y-66.51
X103.81Y-85.56
X104.922Y-102.07
X106.192Y-104.61
X108.571Y-129.375
X109.841Y-126.835
X114.921Y-126.835
X115.24Y-47.46
X115.24Y-66.51
X115.24Y-85.56
X116.191Y-129.375
X116.51Y-44.92
X116.51Y-63.97
X116.51Y-83.02
X121.59Y-44.92
X121.59Y-63.97
X121.59Y-83.02
X122.86Y-47.46
X122.86Y-66.51
X122.86Y-85.56
X127.621Y-110.325
X127.621Y-129.375
X128.891Y-107.785
X128.891Y-126.835
X133.971Y-107.785
X133.971Y-126.835
X135.241Y-110.325
X135.241Y-129.375
X141.434Y-76.035
X142.704Y-73.495
X143.815Y-47.46
X145.085Y-44.92
X146.671Y-129.375
X147.784Y-73.495
X147.941Y-126.835
X149.054Y-76.035
X150.165Y-44.92
X151.435Y-47.46
X153.021Y-126.835
X154.291Y-129.375
X169.533Y-77.99
X169.533Y-96.989
X169.533Y-116.039
X170.803Y-75.45
X170.803Y-94.449
X170.803Y-113.499
X175.883Y-75.45
X175.883Y-94.449
X175.883Y-113.499
X177.153Y-77.99
X177.153Y-96.989
X177.153Y-116.039
T3
X100.0Y-50.0
X100.0Y-50.0
X100.0Y-69.05
X100.0Y-69.05
X100.0Y-88.1
X100.0Y-88.1
X102.382Y-107.15
X102.382Y-107.15
X112.381Y-131.915
X112.381Y-131.915
X119.05Y-50.0
X119.05Y-50.0
X119.05Y-69.05
X119.05Y-69.05
X119.05Y-88.1
X119.05Y-88.1
X131.431Y-112.865
X131.431Y-112.865
X131.431Y-131.915
X131.431Y-131.915
X145.244Y-78.575
X145.244Y-78.575
X147.625Y-50.0
X147.625Y-50.0
X150.481Y-131.915
X150.481Y-131.915
X173.343Y-80.53
X173.343Y-80.53
X173.343Y-99.529
X173.343Y-99.529
X173.343Y-118.579
X173.343Y-118.579
T0
M30
