%TF.GenerationSoftware,KiCad,Pcbnew,7.0.7*%
%TF.CreationDate,2024-04-21T22:41:54+02:00*%
%TF.ProjectId,isokey_right,69736f6b-6579-45f7-9269-6768742e6b69,rev?*%
%TF.SameCoordinates,Original*%
%TF.FileFunction,Drillmap*%
%TF.FilePolarity,Positive*%
%FSLAX45Y45*%
G04 Gerber Fmt 4.5, Leading zero omitted, Abs format (unit mm)*
G04 Created by KiCad (PCBNEW 7.0.7) date 2024-04-21 22:41:54*
%MOMM*%
%LPD*%
G01*
G04 APERTURE LIST*
%ADD10C,0.250000*%
%ADD11C,0.200000*%
%ADD12C,0.030000*%
G04 APERTURE END LIST*
D10*
X9050019Y-14209891D02*
G75*
G03*
X9300025Y-14459891I250011J11D01*
G01*
X16919658Y-3467113D02*
G75*
G03*
X16928544Y-3751075I145172J-137577D01*
G01*
X17087293Y-6011368D02*
G75*
G03*
X17166732Y-5699985I-570533J311378D01*
G01*
X18034250Y-6602990D02*
X17438409Y-6602990D01*
X17166732Y-5699985D02*
X17166722Y-4266063D01*
X17166720Y-4266063D02*
G75*
G03*
X16928544Y-3751075I-675840J3D01*
G01*
X12700000Y-3550000D02*
G75*
G03*
X12930000Y-3320000I0J230000D01*
G01*
X18784250Y-14209891D02*
X18784250Y-7352990D01*
X9533711Y-3421063D02*
G75*
G03*
X9050025Y-3509891I-233687J-88824D01*
G01*
X9533711Y-3421063D02*
G75*
G03*
X9720661Y-3550000I186949J71063D01*
G01*
X13500000Y-2630725D02*
G75*
G03*
X12930725Y-3200000I0J-569275D01*
G01*
X12930725Y-3200000D02*
X12930725Y-3320000D01*
X9050025Y-3509891D02*
X9050025Y-14209891D01*
X16919661Y-3467115D02*
G75*
G03*
X16560000Y-2630725I-359661J340865D01*
G01*
X17087295Y-6011369D02*
G75*
G03*
X17438409Y-6602990I351115J-191621D01*
G01*
X9300025Y-14459891D02*
X18534250Y-14459891D01*
X18784250Y-7352990D02*
G75*
G03*
X18034250Y-6602990I-750000J0D01*
G01*
X16560000Y-2630725D02*
X13500000Y-2630725D01*
X18534250Y-14459890D02*
G75*
G03*
X18784250Y-14209891I0J250000D01*
G01*
X12700000Y-3550000D02*
X9720661Y-3550000D01*
D11*
D12*
X9155000Y-4460000D02*
X9185000Y-4490000D01*
X9185000Y-4460000D02*
X9155000Y-4490000D01*
X9155000Y-6365015D02*
X9185000Y-6395015D01*
X9185000Y-6365015D02*
X9155000Y-6395015D01*
X9215000Y-10185000D02*
X9245000Y-10215000D01*
X9245000Y-10185000D02*
X9215000Y-10215000D01*
X9217450Y-8105000D02*
X9247450Y-8135000D01*
X9247450Y-8105000D02*
X9217450Y-8135000D01*
X9265000Y-8755000D02*
X9295000Y-8785000D01*
X9295000Y-8755000D02*
X9265000Y-8785000D01*
X9295000Y-7760000D02*
X9325000Y-7790000D01*
X9325000Y-7760000D02*
X9295000Y-7790000D01*
X9295000Y-11935000D02*
X9325000Y-11965000D01*
X9325000Y-11935000D02*
X9295000Y-11965000D01*
X9295000Y-12085000D02*
X9325000Y-12115000D01*
X9325000Y-12085000D02*
X9295000Y-12115000D01*
X9295000Y-12235000D02*
X9325000Y-12265000D01*
X9325000Y-12235000D02*
X9295000Y-12265000D01*
X9295000Y-12385000D02*
X9325000Y-12415000D01*
X9325000Y-12385000D02*
X9295000Y-12415000D01*
X9295000Y-12535000D02*
X9325000Y-12565000D01*
X9325000Y-12535000D02*
X9295000Y-12565000D01*
X9295000Y-13085000D02*
X9325000Y-13115000D01*
X9325000Y-13085000D02*
X9295000Y-13115000D01*
X9295000Y-13235000D02*
X9325000Y-13265000D01*
X9325000Y-13235000D02*
X9295000Y-13265000D01*
X9295000Y-13385000D02*
X9325000Y-13415000D01*
X9325000Y-13385000D02*
X9295000Y-13415000D01*
X9295000Y-13535000D02*
X9325000Y-13565000D01*
X9325000Y-13535000D02*
X9295000Y-13565000D01*
X9295000Y-13685000D02*
X9325000Y-13715000D01*
X9325000Y-13685000D02*
X9295000Y-13715000D01*
X9305000Y-5465000D02*
X9335000Y-5495000D01*
X9335000Y-5465000D02*
X9305000Y-5495000D01*
X9315000Y-6045000D02*
X9345000Y-6075000D01*
X9345000Y-6045000D02*
X9315000Y-6075000D01*
X9315000Y-7905000D02*
X9345000Y-7935000D01*
X9345000Y-7905000D02*
X9315000Y-7935000D01*
X9315000Y-12735000D02*
X9345000Y-12765000D01*
X9345000Y-12735000D02*
X9315000Y-12765000D01*
X9315000Y-12885000D02*
X9345000Y-12915000D01*
X9345000Y-12885000D02*
X9315000Y-12915000D01*
X9335000Y-5905000D02*
X9365000Y-5935000D01*
X9365000Y-5905000D02*
X9335000Y-5935000D01*
X9393200Y-10175015D02*
X9423200Y-10205015D01*
X9423200Y-10175015D02*
X9393200Y-10205015D01*
X9446250Y-5485000D02*
X9476250Y-5515000D01*
X9476250Y-5485000D02*
X9446250Y-5515000D01*
X9446250Y-9295030D02*
X9476250Y-9325030D01*
X9476250Y-9295030D02*
X9446250Y-9325030D01*
X9467200Y-11935000D02*
X9497200Y-11965000D01*
X9497200Y-11935000D02*
X9467200Y-11965000D01*
X9535000Y-5435000D02*
X9565000Y-5465000D01*
X9565000Y-5435000D02*
X9535000Y-5465000D01*
X9535000Y-9245030D02*
X9565000Y-9275030D01*
X9565000Y-9245030D02*
X9535000Y-9275030D01*
X9535000Y-12660000D02*
X9565000Y-12690000D01*
X9565000Y-12660000D02*
X9535000Y-12690000D01*
X9565000Y-7465000D02*
X9595000Y-7495000D01*
X9595000Y-7465000D02*
X9565000Y-7495000D01*
X9605000Y-12795000D02*
X9635000Y-12825000D01*
X9635000Y-12795000D02*
X9605000Y-12825000D01*
X9695000Y-11285000D02*
X9725000Y-11315000D01*
X9725000Y-11285000D02*
X9695000Y-11315000D01*
X9695000Y-11615000D02*
X9725000Y-11645000D01*
X9725000Y-11615000D02*
X9695000Y-11645000D01*
X9700000Y-7605000D02*
X9730000Y-7635000D01*
X9730000Y-7605000D02*
X9700000Y-7635000D01*
X9745000Y-13685000D02*
X9775000Y-13715000D01*
X9775000Y-13685000D02*
X9745000Y-13715000D01*
X9765000Y-11185000D02*
X9795000Y-11215000D01*
X9795000Y-11185000D02*
X9765000Y-11215000D01*
X9765000Y-13515000D02*
X9795000Y-13545000D01*
X9795000Y-13515000D02*
X9765000Y-13545000D01*
X10025000Y-11985000D02*
X10055000Y-12015000D01*
X10055000Y-11985000D02*
X10025000Y-12015000D01*
X10025000Y-12985000D02*
X10055000Y-13015000D01*
X10055000Y-12985000D02*
X10025000Y-13015000D01*
X10115000Y-11875000D02*
X10145000Y-11905000D01*
X10145000Y-11875000D02*
X10115000Y-11905000D01*
X10115000Y-13115000D02*
X10145000Y-13145000D01*
X10145000Y-13115000D02*
X10115000Y-13145000D01*
X10205000Y-11765000D02*
X10235000Y-11795000D01*
X10235000Y-11765000D02*
X10205000Y-11795000D01*
X10205000Y-13285000D02*
X10235000Y-13315000D01*
X10235000Y-13285000D02*
X10205000Y-13315000D01*
X10275000Y-7735000D02*
X10305000Y-7765000D01*
X10305000Y-7735000D02*
X10275000Y-7765000D01*
X10285000Y-11685000D02*
X10315000Y-11715000D01*
X10315000Y-11685000D02*
X10285000Y-11715000D01*
X10285000Y-13415000D02*
X10315000Y-13445000D01*
X10315000Y-13415000D02*
X10285000Y-13445000D01*
X10393100Y-12651485D02*
X10423100Y-12681485D01*
X10423100Y-12651485D02*
X10393100Y-12681485D01*
X10415000Y-7415000D02*
X10445000Y-7445000D01*
X10445000Y-7415000D02*
X10415000Y-7445000D01*
X10435000Y-13755000D02*
X10465000Y-13785000D01*
X10465000Y-13755000D02*
X10435000Y-13785000D01*
X10455000Y-5410000D02*
X10485000Y-5440000D01*
X10485000Y-5410000D02*
X10455000Y-5440000D01*
X10455000Y-5810000D02*
X10485000Y-5840000D01*
X10485000Y-5810000D02*
X10455000Y-5840000D01*
X10455000Y-7155000D02*
X10485000Y-7185000D01*
X10485000Y-7155000D02*
X10455000Y-7185000D01*
X10455000Y-9220030D02*
X10485000Y-9250030D01*
X10485000Y-9220030D02*
X10455000Y-9250030D01*
X10455000Y-9620030D02*
X10485000Y-9650030D01*
X10485000Y-9620030D02*
X10455000Y-9650030D01*
X10505000Y-11535000D02*
X10535000Y-11565000D01*
X10535000Y-11535000D02*
X10505000Y-11565000D01*
X10548100Y-14001485D02*
X10578100Y-14031485D01*
X10578100Y-14001485D02*
X10548100Y-14031485D01*
X10645000Y-5325000D02*
X10675000Y-5355000D01*
X10675000Y-5325000D02*
X10645000Y-5355000D01*
X10645000Y-9135030D02*
X10675000Y-9165030D01*
X10675000Y-9135030D02*
X10645000Y-9165030D01*
X10665000Y-7475000D02*
X10695000Y-7505000D01*
X10695000Y-7475000D02*
X10665000Y-7505000D01*
X10665000Y-7815000D02*
X10695000Y-7845000D01*
X10695000Y-7815000D02*
X10665000Y-7845000D01*
X10675000Y-7295000D02*
X10705000Y-7325000D01*
X10705000Y-7295000D02*
X10675000Y-7325000D01*
X10675000Y-11205000D02*
X10705000Y-11235000D01*
X10705000Y-11205000D02*
X10675000Y-11235000D01*
X10684350Y-13676485D02*
X10714350Y-13706485D01*
X10714350Y-13676485D02*
X10684350Y-13706485D01*
X10745000Y-7735000D02*
X10775000Y-7765000D01*
X10775000Y-7735000D02*
X10745000Y-7765000D01*
X10745000Y-11125000D02*
X10775000Y-11155000D01*
X10775000Y-11125000D02*
X10745000Y-11155000D01*
X10773100Y-13626485D02*
X10803100Y-13656485D01*
X10803100Y-13626485D02*
X10773100Y-13656485D01*
X10805000Y-10945000D02*
X10835000Y-10975000D01*
X10835000Y-10945000D02*
X10805000Y-10975000D01*
X10835000Y-5485000D02*
X10865000Y-5515000D01*
X10865000Y-5485000D02*
X10835000Y-5515000D01*
X10835000Y-5895000D02*
X10865000Y-5925000D01*
X10865000Y-5895000D02*
X10835000Y-5925000D01*
X10835000Y-7390015D02*
X10865000Y-7420015D01*
X10865000Y-7390015D02*
X10835000Y-7420015D01*
X10835000Y-7645000D02*
X10865000Y-7675000D01*
X10865000Y-7645000D02*
X10835000Y-7675000D01*
X10835000Y-9295030D02*
X10865000Y-9325030D01*
X10865000Y-9295030D02*
X10835000Y-9325030D01*
X10835000Y-9705030D02*
X10865000Y-9735030D01*
X10865000Y-9705030D02*
X10835000Y-9735030D01*
X10835000Y-11405000D02*
X10865000Y-11435000D01*
X10865000Y-11405000D02*
X10835000Y-11435000D01*
X10835000Y-11615000D02*
X10865000Y-11645000D01*
X10865000Y-11615000D02*
X10835000Y-11645000D01*
X10945000Y-9845000D02*
X10975000Y-9875000D01*
X10975000Y-9845000D02*
X10945000Y-9875000D01*
X10945000Y-11535000D02*
X10975000Y-11565000D01*
X10975000Y-11535000D02*
X10945000Y-11565000D01*
X11060000Y-4460000D02*
X11090000Y-4490000D01*
X11090000Y-4460000D02*
X11060000Y-4490000D01*
X11060000Y-6365015D02*
X11090000Y-6395015D01*
X11090000Y-6365015D02*
X11060000Y-6395015D01*
X11060000Y-8270030D02*
X11090000Y-8300030D01*
X11090000Y-8270030D02*
X11060000Y-8300030D01*
X11073200Y-11200015D02*
X11103200Y-11230015D01*
X11103200Y-11200015D02*
X11073200Y-11230015D01*
X11075000Y-11685000D02*
X11105000Y-11715000D01*
X11105000Y-11685000D02*
X11075000Y-11715000D01*
X11145000Y-9705000D02*
X11175000Y-9735000D01*
X11175000Y-9705000D02*
X11145000Y-9735000D01*
X11185000Y-5460000D02*
X11215000Y-5490000D01*
X11215000Y-5460000D02*
X11185000Y-5490000D01*
X11185000Y-5810000D02*
X11215000Y-5840000D01*
X11215000Y-5810000D02*
X11185000Y-5840000D01*
X11185000Y-9270030D02*
X11215000Y-9300030D01*
X11215000Y-9270030D02*
X11185000Y-9300030D01*
X11185000Y-9620030D02*
X11215000Y-9650030D01*
X11215000Y-9620030D02*
X11185000Y-9650030D01*
X11285000Y-10735000D02*
X11315000Y-10765000D01*
X11315000Y-10735000D02*
X11285000Y-10765000D01*
X11315000Y-7475000D02*
X11345000Y-7505000D01*
X11345000Y-7475000D02*
X11315000Y-7505000D01*
X11315000Y-7815000D02*
X11345000Y-7845000D01*
X11345000Y-7815000D02*
X11315000Y-7845000D01*
X11385000Y-11765000D02*
X11415000Y-11795000D01*
X11415000Y-11765000D02*
X11385000Y-11795000D01*
X11425000Y-5735000D02*
X11455000Y-5765000D01*
X11455000Y-5735000D02*
X11425000Y-5765000D01*
X11425000Y-9545030D02*
X11455000Y-9575030D01*
X11455000Y-9545030D02*
X11425000Y-9575030D01*
X11445000Y-7405000D02*
X11475000Y-7435000D01*
X11475000Y-7405000D02*
X11445000Y-7435000D01*
X11465000Y-5485000D02*
X11495000Y-5515000D01*
X11495000Y-5485000D02*
X11465000Y-5515000D01*
X11465000Y-9295030D02*
X11495000Y-9325030D01*
X11495000Y-9295030D02*
X11465000Y-9325030D01*
X11655000Y-12235000D02*
X11685000Y-12265000D01*
X11685000Y-12235000D02*
X11655000Y-12265000D01*
X11693100Y-13601485D02*
X11723100Y-13631485D01*
X11723100Y-13601485D02*
X11693100Y-13631485D01*
X11693100Y-14001485D02*
X11723100Y-14031485D01*
X11723100Y-14001485D02*
X11693100Y-14031485D01*
X11825000Y-10525000D02*
X11855000Y-10555000D01*
X11855000Y-10525000D02*
X11825000Y-10555000D01*
X11883100Y-13516485D02*
X11913100Y-13546485D01*
X11913100Y-13516485D02*
X11883100Y-13546485D01*
X12073100Y-13665000D02*
X12103100Y-13695000D01*
X12103100Y-13665000D02*
X12073100Y-13695000D01*
X12073100Y-14086485D02*
X12103100Y-14116485D01*
X12103100Y-14086485D02*
X12073100Y-14116485D01*
X12175000Y-12415000D02*
X12205000Y-12445000D01*
X12205000Y-12415000D02*
X12175000Y-12445000D01*
X12185000Y-7735000D02*
X12215000Y-7765000D01*
X12215000Y-7735000D02*
X12185000Y-7765000D01*
X12298100Y-10746480D02*
X12328100Y-10776480D01*
X12328100Y-10746480D02*
X12298100Y-10776480D01*
X12298100Y-12651485D02*
X12328100Y-12681485D01*
X12328100Y-12651485D02*
X12298100Y-12681485D01*
X12315000Y-7415000D02*
X12345000Y-7445000D01*
X12345000Y-7415000D02*
X12315000Y-7445000D01*
X12360000Y-5410000D02*
X12390000Y-5440000D01*
X12390000Y-5410000D02*
X12360000Y-5440000D01*
X12360000Y-5810000D02*
X12390000Y-5840000D01*
X12390000Y-5810000D02*
X12360000Y-5840000D01*
X12360000Y-9220030D02*
X12390000Y-9250030D01*
X12390000Y-9220030D02*
X12360000Y-9250030D01*
X12360000Y-9620030D02*
X12390000Y-9650030D01*
X12390000Y-9620030D02*
X12360000Y-9650030D01*
X12395000Y-7314165D02*
X12425000Y-7344165D01*
X12425000Y-7314165D02*
X12395000Y-7344165D01*
X12395000Y-7735000D02*
X12425000Y-7765000D01*
X12425000Y-7735000D02*
X12395000Y-7765000D01*
X12423100Y-13651485D02*
X12453100Y-13681485D01*
X12453100Y-13651485D02*
X12423100Y-13681485D01*
X12423100Y-14001485D02*
X12453100Y-14031485D01*
X12453100Y-14001485D02*
X12423100Y-14031485D01*
X12455000Y-7155000D02*
X12485000Y-7185000D01*
X12485000Y-7155000D02*
X12455000Y-7185000D01*
X12460000Y-5335000D02*
X12490000Y-5365000D01*
X12490000Y-5335000D02*
X12460000Y-5365000D01*
X12460000Y-9145030D02*
X12490000Y-9175030D01*
X12490000Y-9145030D02*
X12460000Y-9175030D01*
X12495000Y-7575000D02*
X12525000Y-7605000D01*
X12525000Y-7575000D02*
X12495000Y-7605000D01*
X12495000Y-7815000D02*
X12525000Y-7845000D01*
X12525000Y-7815000D02*
X12495000Y-7845000D01*
X12515000Y-12135000D02*
X12545000Y-12165000D01*
X12545000Y-12135000D02*
X12515000Y-12165000D01*
X12615000Y-11695000D02*
X12645000Y-11725000D01*
X12645000Y-11695000D02*
X12615000Y-11725000D01*
X12663100Y-13926485D02*
X12693100Y-13956485D01*
X12693100Y-13926485D02*
X12663100Y-13956485D01*
X12703100Y-13676485D02*
X12733100Y-13706485D01*
X12733100Y-13676485D02*
X12703100Y-13706485D01*
X12740000Y-5450541D02*
X12770000Y-5480541D01*
X12770000Y-5450541D02*
X12740000Y-5480541D01*
X12740000Y-5895000D02*
X12770000Y-5925000D01*
X12770000Y-5895000D02*
X12740000Y-5925000D01*
X12740000Y-7390015D02*
X12770000Y-7420015D01*
X12770000Y-7390015D02*
X12740000Y-7420015D01*
X12740000Y-9295000D02*
X12770000Y-9325000D01*
X12770000Y-9295000D02*
X12740000Y-9325000D01*
X12740000Y-9705030D02*
X12770000Y-9735030D01*
X12770000Y-9705030D02*
X12740000Y-9735030D01*
X12745000Y-7645000D02*
X12775000Y-7675000D01*
X12775000Y-7645000D02*
X12745000Y-7675000D01*
X12845000Y-11943080D02*
X12875000Y-11973080D01*
X12875000Y-11943080D02*
X12845000Y-11973080D01*
X12845000Y-12135000D02*
X12875000Y-12165000D01*
X12875000Y-12135000D02*
X12845000Y-12165000D01*
X12865000Y-3745000D02*
X12895000Y-3775000D01*
X12895000Y-3745000D02*
X12865000Y-3775000D01*
X13025000Y-6005000D02*
X13055000Y-6035000D01*
X13055000Y-6005000D02*
X13025000Y-6035000D01*
X13045000Y-3185000D02*
X13075000Y-3215000D01*
X13075000Y-3185000D02*
X13045000Y-3215000D01*
X13145000Y-3745000D02*
X13175000Y-3775000D01*
X13175000Y-3745000D02*
X13145000Y-3775000D01*
X13145000Y-6135000D02*
X13175000Y-6165000D01*
X13175000Y-6135000D02*
X13145000Y-6165000D01*
X13415000Y-12045000D02*
X13445000Y-12075000D01*
X13445000Y-12045000D02*
X13415000Y-12075000D01*
X13495000Y-5895000D02*
X13525000Y-5925000D01*
X13525000Y-5895000D02*
X13495000Y-5925000D01*
X13565000Y-9285000D02*
X13595000Y-9315000D01*
X13595000Y-9285000D02*
X13565000Y-9315000D01*
X13595000Y-11785000D02*
X13625000Y-11815000D01*
X13625000Y-11785000D02*
X13595000Y-11815000D01*
X13598100Y-13601485D02*
X13628100Y-13631485D01*
X13628100Y-13601485D02*
X13598100Y-13631485D01*
X13598100Y-14001485D02*
X13628100Y-14031485D01*
X13628100Y-14001485D02*
X13598100Y-14031485D01*
X13679400Y-7317515D02*
X13709400Y-7347515D01*
X13709400Y-7317515D02*
X13679400Y-7347515D01*
X13698100Y-13526485D02*
X13728100Y-13556485D01*
X13728100Y-13526485D02*
X13698100Y-13556485D01*
X13745000Y-3385000D02*
X13775000Y-3415000D01*
X13775000Y-3385000D02*
X13745000Y-3415000D01*
X13745000Y-11545000D02*
X13775000Y-11575000D01*
X13775000Y-11545000D02*
X13745000Y-11575000D01*
X13745000Y-12135000D02*
X13775000Y-12165000D01*
X13775000Y-12135000D02*
X13745000Y-12165000D01*
X13775000Y-9285000D02*
X13805000Y-9315000D01*
X13805000Y-9285000D02*
X13775000Y-9315000D01*
X13875000Y-11865000D02*
X13905000Y-11895000D01*
X13905000Y-11865000D02*
X13875000Y-11895000D01*
X13917500Y-4460000D02*
X13947500Y-4490000D01*
X13947500Y-4460000D02*
X13917500Y-4490000D01*
X13935000Y-5585000D02*
X13965000Y-5615000D01*
X13965000Y-5585000D02*
X13935000Y-5615000D01*
X13935000Y-5810000D02*
X13965000Y-5840000D01*
X13965000Y-5810000D02*
X13935000Y-5840000D01*
X13945000Y-8445000D02*
X13975000Y-8475000D01*
X13975000Y-8445000D02*
X13945000Y-8475000D01*
X13945000Y-8835000D02*
X13975000Y-8865000D01*
X13975000Y-8835000D02*
X13945000Y-8865000D01*
X13965000Y-10465000D02*
X13995000Y-10495000D01*
X13995000Y-10465000D02*
X13965000Y-10495000D01*
X13978100Y-11771480D02*
X14008100Y-11801480D01*
X14008100Y-11771480D02*
X13978100Y-11801480D01*
X13978100Y-13676485D02*
X14008100Y-13706485D01*
X14008100Y-13676485D02*
X13978100Y-13706485D01*
X13978100Y-14086485D02*
X14008100Y-14116485D01*
X14008100Y-14086485D02*
X13978100Y-14116485D01*
X13985000Y-12215000D02*
X14015000Y-12245000D01*
X14015000Y-12215000D02*
X13985000Y-12245000D01*
X14005000Y-2905000D02*
X14035000Y-2935000D01*
X14035000Y-2905000D02*
X14005000Y-2935000D01*
X14025000Y-3265000D02*
X14055000Y-3295000D01*
X14055000Y-3265000D02*
X14025000Y-3295000D01*
X14055000Y-8365000D02*
X14085000Y-8395000D01*
X14085000Y-8365000D02*
X14055000Y-8395000D01*
X14125000Y-12045000D02*
X14155000Y-12075000D01*
X14155000Y-12045000D02*
X14125000Y-12075000D01*
X14145000Y-3575000D02*
X14175000Y-3605000D01*
X14175000Y-3575000D02*
X14145000Y-3605000D01*
X14203100Y-12651485D02*
X14233100Y-12681485D01*
X14233100Y-12651485D02*
X14203100Y-12681485D01*
X14214190Y-5734190D02*
X14244190Y-5764190D01*
X14244190Y-5734190D02*
X14214190Y-5764190D01*
X14264824Y-3084693D02*
X14294824Y-3114693D01*
X14294824Y-3084693D02*
X14264824Y-3114693D01*
X14275050Y-3265000D02*
X14305050Y-3295000D01*
X14305050Y-3265000D02*
X14275050Y-3295000D01*
X14295000Y-12375000D02*
X14325000Y-12405000D01*
X14325000Y-12375000D02*
X14295000Y-12405000D01*
X14305000Y-5485000D02*
X14335000Y-5515000D01*
X14335000Y-5485000D02*
X14305000Y-5515000D01*
X14348750Y-13855000D02*
X14378750Y-13885000D01*
X14378750Y-13855000D02*
X14348750Y-13885000D01*
X14355000Y-14001485D02*
X14385000Y-14031485D01*
X14385000Y-14001485D02*
X14355000Y-14031485D01*
X14515000Y-13926485D02*
X14545000Y-13956485D01*
X14545000Y-13926485D02*
X14515000Y-13956485D01*
X14605000Y-13667450D02*
X14635000Y-13697450D01*
X14635000Y-13667450D02*
X14605000Y-13697450D01*
X14795000Y-8725000D02*
X14825000Y-8755000D01*
X14825000Y-8725000D02*
X14795000Y-8755000D01*
X14945000Y-8425000D02*
X14975000Y-8455000D01*
X14975000Y-8425000D02*
X14945000Y-8455000D01*
X14965000Y-3385000D02*
X14995000Y-3415000D01*
X14995000Y-3385000D02*
X14965000Y-3415000D01*
X15035000Y-5810000D02*
X15065000Y-5840000D01*
X15065000Y-5810000D02*
X15035000Y-5840000D01*
X15035000Y-8115000D02*
X15065000Y-8145000D01*
X15065000Y-8115000D02*
X15035000Y-8145000D01*
X15105000Y-8535000D02*
X15135000Y-8565000D01*
X15135000Y-8535000D02*
X15105000Y-8565000D01*
X15105000Y-8835000D02*
X15135000Y-8865000D01*
X15135000Y-8835000D02*
X15105000Y-8865000D01*
X15205000Y-2905000D02*
X15235000Y-2935000D01*
X15235000Y-2905000D02*
X15205000Y-2935000D01*
X15205000Y-3262500D02*
X15235000Y-3292500D01*
X15235000Y-3262500D02*
X15205000Y-3292500D01*
X15235000Y-8305000D02*
X15265000Y-8335000D01*
X15265000Y-8305000D02*
X15235000Y-8335000D01*
X15235000Y-8725000D02*
X15265000Y-8755000D01*
X15265000Y-8725000D02*
X15235000Y-8755000D01*
X15255000Y-5475000D02*
X15285000Y-5505000D01*
X15285000Y-5475000D02*
X15255000Y-5505000D01*
X15265000Y-5735000D02*
X15295000Y-5765000D01*
X15295000Y-5735000D02*
X15265000Y-5765000D01*
X15265000Y-6007721D02*
X15295000Y-6037721D01*
X15295000Y-6007721D02*
X15265000Y-6037721D01*
X15345000Y-3575000D02*
X15375000Y-3605000D01*
X15375000Y-3575000D02*
X15345000Y-3605000D01*
X15355000Y-8345000D02*
X15385000Y-8375000D01*
X15385000Y-8345000D02*
X15355000Y-8375000D01*
X15355000Y-8615000D02*
X15385000Y-8645000D01*
X15385000Y-8615000D02*
X15355000Y-8645000D01*
X15425000Y-5395000D02*
X15455000Y-5425000D01*
X15455000Y-5395000D02*
X15425000Y-5425000D01*
X15425000Y-5805000D02*
X15455000Y-5835000D01*
X15455000Y-5805000D02*
X15425000Y-5835000D01*
X15445000Y-3085000D02*
X15475000Y-3115000D01*
X15475000Y-3085000D02*
X15445000Y-3115000D01*
X15445000Y-6055000D02*
X15475000Y-6085000D01*
X15475000Y-6055000D02*
X15445000Y-6085000D01*
X15465000Y-3265000D02*
X15495000Y-3295000D01*
X15495000Y-3265000D02*
X15465000Y-3295000D01*
X15465000Y-13685000D02*
X15495000Y-13715000D01*
X15495000Y-13685000D02*
X15465000Y-13715000D01*
X15525000Y-8725000D02*
X15555000Y-8755000D01*
X15555000Y-8725000D02*
X15525000Y-8755000D01*
X15525000Y-9545000D02*
X15555000Y-9575000D01*
X15555000Y-9545000D02*
X15525000Y-9575000D01*
X15535000Y-8945000D02*
X15565000Y-8975000D01*
X15565000Y-8945000D02*
X15535000Y-8975000D01*
X15535000Y-13595000D02*
X15565000Y-13625000D01*
X15565000Y-13595000D02*
X15535000Y-13625000D01*
X15535000Y-14001485D02*
X15565000Y-14031485D01*
X15565000Y-14001485D02*
X15535000Y-14031485D01*
X15597500Y-5485000D02*
X15627500Y-5515000D01*
X15627500Y-5485000D02*
X15597500Y-5515000D01*
X15597500Y-5895000D02*
X15627500Y-5925000D01*
X15627500Y-5895000D02*
X15597500Y-5925000D01*
X15675000Y-12045000D02*
X15705000Y-12075000D01*
X15705000Y-12045000D02*
X15675000Y-12075000D01*
X15675000Y-12045000D02*
X15705000Y-12075000D01*
X15705000Y-12045000D02*
X15675000Y-12075000D01*
X15685000Y-5565000D02*
X15715000Y-5595000D01*
X15715000Y-5565000D02*
X15685000Y-5595000D01*
X15685000Y-6645000D02*
X15715000Y-6675000D01*
X15715000Y-6645000D02*
X15685000Y-6675000D01*
X15685000Y-8365000D02*
X15715000Y-8395000D01*
X15715000Y-8365000D02*
X15685000Y-8395000D01*
X15685000Y-8835000D02*
X15715000Y-8865000D01*
X15715000Y-8835000D02*
X15685000Y-8865000D01*
X15685000Y-9065000D02*
X15715000Y-9095000D01*
X15715000Y-9065000D02*
X15685000Y-9095000D01*
X15685000Y-9620030D02*
X15715000Y-9650030D01*
X15715000Y-9620030D02*
X15685000Y-9650030D01*
X15805000Y-8925000D02*
X15835000Y-8955000D01*
X15835000Y-8925000D02*
X15805000Y-8955000D01*
X15835000Y-12135000D02*
X15865000Y-12165000D01*
X15865000Y-12135000D02*
X15835000Y-12165000D01*
X15883100Y-13676485D02*
X15913100Y-13706485D01*
X15913100Y-13676485D02*
X15883100Y-13706485D01*
X15885000Y-14086485D02*
X15915000Y-14116485D01*
X15915000Y-14086485D02*
X15885000Y-14116485D01*
X15915000Y-9735000D02*
X15945000Y-9765000D01*
X15945000Y-9735000D02*
X15915000Y-9765000D01*
X16005000Y-10845000D02*
X16035000Y-10875000D01*
X16035000Y-10845000D02*
X16005000Y-10875000D01*
X16035000Y-9655000D02*
X16065000Y-9685000D01*
X16065000Y-9655000D02*
X16035000Y-9685000D01*
X16054785Y-13925000D02*
X16084785Y-13955000D01*
X16084785Y-13925000D02*
X16054785Y-13955000D01*
X16105000Y-10765000D02*
X16135000Y-10795000D01*
X16135000Y-10765000D02*
X16105000Y-10795000D01*
X16115000Y-3485000D02*
X16145000Y-3515000D01*
X16145000Y-3485000D02*
X16115000Y-3515000D01*
X16135000Y-9575000D02*
X16165000Y-9605000D01*
X16165000Y-9575000D02*
X16135000Y-9605000D01*
X16165000Y-12295000D02*
X16195000Y-12325000D01*
X16195000Y-12295000D02*
X16165000Y-12325000D01*
X16175000Y-13995000D02*
X16205000Y-14025000D01*
X16205000Y-13995000D02*
X16175000Y-14025000D01*
X16202550Y-12370000D02*
X16232550Y-12400000D01*
X16232550Y-12370000D02*
X16202550Y-12400000D01*
X16205000Y-10685000D02*
X16235000Y-10715000D01*
X16235000Y-10685000D02*
X16205000Y-10715000D01*
X16285000Y-2905000D02*
X16315000Y-2935000D01*
X16315000Y-2905000D02*
X16285000Y-2935000D01*
X16285000Y-13425000D02*
X16315000Y-13455000D01*
X16315000Y-13425000D02*
X16285000Y-13455000D01*
X16295000Y-9259142D02*
X16325000Y-9289142D01*
X16325000Y-9259142D02*
X16295000Y-9289142D01*
X16295000Y-10345000D02*
X16325000Y-10375000D01*
X16325000Y-10345000D02*
X16295000Y-10375000D01*
X16365000Y-3285000D02*
X16395000Y-3315000D01*
X16395000Y-3285000D02*
X16365000Y-3315000D01*
X16375000Y-8799055D02*
X16405000Y-8829055D01*
X16405000Y-8799055D02*
X16375000Y-8829055D01*
X16489300Y-7512975D02*
X16519300Y-7542975D01*
X16519300Y-7512975D02*
X16489300Y-7542975D01*
X16489300Y-9412945D02*
X16519300Y-9442945D01*
X16519300Y-9412945D02*
X16489300Y-9442945D01*
X16489300Y-11317945D02*
X16519300Y-11347945D01*
X16519300Y-11317945D02*
X16489300Y-11347945D01*
X16545000Y-3225000D02*
X16575000Y-3255000D01*
X16575000Y-3225000D02*
X16545000Y-3255000D01*
X16623750Y-10761982D02*
X16653750Y-10791982D01*
X16653750Y-10761982D02*
X16623750Y-10791982D01*
X16625000Y-10435000D02*
X16655000Y-10465000D01*
X16655000Y-10435000D02*
X16625000Y-10465000D01*
X16795000Y-10435000D02*
X16825000Y-10465000D01*
X16825000Y-10435000D02*
X16795000Y-10465000D01*
X16795000Y-10685000D02*
X16825000Y-10715000D01*
X16825000Y-10685000D02*
X16795000Y-10715000D01*
X16825000Y-12415000D02*
X16855000Y-12445000D01*
X16855000Y-12415000D02*
X16825000Y-12445000D01*
X16825000Y-12815000D02*
X16855000Y-12845000D01*
X16855000Y-12815000D02*
X16825000Y-12845000D01*
X16885000Y-8615000D02*
X16915000Y-8645000D01*
X16915000Y-8615000D02*
X16885000Y-8645000D01*
X16885000Y-9025000D02*
X16915000Y-9055000D01*
X16915000Y-9025000D02*
X16885000Y-9055000D01*
X16895000Y-12335000D02*
X16925000Y-12365000D01*
X16925000Y-12335000D02*
X16895000Y-12365000D01*
X16905000Y-10445000D02*
X16935000Y-10475000D01*
X16935000Y-10445000D02*
X16905000Y-10475000D01*
X17035000Y-8725000D02*
X17065000Y-8755000D01*
X17065000Y-8725000D02*
X17035000Y-8755000D01*
X17605000Y-8915000D02*
X17635000Y-8945000D01*
X17635000Y-8915000D02*
X17605000Y-8945000D01*
X17605000Y-10765000D02*
X17635000Y-10795000D01*
X17635000Y-10765000D02*
X17605000Y-10795000D01*
X17605000Y-12695000D02*
X17635000Y-12725000D01*
X17635000Y-12695000D02*
X17605000Y-12725000D01*
X17755000Y-10435000D02*
X17785000Y-10465000D01*
X17785000Y-10435000D02*
X17755000Y-10465000D01*
X17755000Y-10765000D02*
X17785000Y-10795000D01*
X17785000Y-10765000D02*
X17755000Y-10795000D01*
X17765000Y-8585000D02*
X17795000Y-8615000D01*
X17795000Y-8585000D02*
X17765000Y-8615000D01*
X17765000Y-9115000D02*
X17795000Y-9145000D01*
X17795000Y-9115000D02*
X17765000Y-9145000D01*
X17765000Y-12345000D02*
X17795000Y-12375000D01*
X17795000Y-12345000D02*
X17765000Y-12375000D01*
X17835000Y-12425000D02*
X17865000Y-12455000D01*
X17865000Y-12425000D02*
X17835000Y-12455000D01*
X17855000Y-10515000D02*
X17885000Y-10545000D01*
X17885000Y-10515000D02*
X17855000Y-10545000D01*
X17935000Y-12145000D02*
X17965000Y-12175000D01*
X17965000Y-12145000D02*
X17935000Y-12175000D01*
X18025000Y-8445000D02*
X18055000Y-8475000D01*
X18055000Y-8445000D02*
X18025000Y-8475000D01*
X18035000Y-8655000D02*
X18065000Y-8685000D01*
X18065000Y-8655000D02*
X18035000Y-8685000D01*
X18035000Y-9025000D02*
X18065000Y-9055000D01*
X18065000Y-9025000D02*
X18035000Y-9055000D01*
X18035000Y-12815000D02*
X18065000Y-12845000D01*
X18065000Y-12815000D02*
X18035000Y-12845000D01*
X18115000Y-8915000D02*
X18145000Y-8945000D01*
X18145000Y-8915000D02*
X18115000Y-8945000D01*
X18169300Y-8537975D02*
X18199300Y-8567975D01*
X18199300Y-8537975D02*
X18169300Y-8567975D01*
X18169300Y-10437945D02*
X18199300Y-10467945D01*
X18199300Y-10437945D02*
X18169300Y-10467945D01*
X18169300Y-12342945D02*
X18199300Y-12372945D01*
X18199300Y-12342945D02*
X18169300Y-12372945D01*
X18175000Y-10845000D02*
X18205000Y-10875000D01*
X18205000Y-10845000D02*
X18175000Y-10875000D01*
X18175000Y-12895000D02*
X18205000Y-12925000D01*
X18205000Y-12895000D02*
X18175000Y-12925000D01*
X18215000Y-8805000D02*
X18245000Y-8835000D01*
X18245000Y-8805000D02*
X18215000Y-8835000D01*
D10*
X9425000Y-14220000D02*
G75*
G03*
X9425000Y-14220000I-125000J0D01*
G01*
X9425025Y-3509891D02*
G75*
G03*
X9425025Y-3509891I-125000J0D01*
G01*
X16702849Y-3759891D02*
G75*
G03*
X16702849Y-3759891I-125000J0D01*
G01*
X16702849Y-6659891D02*
G75*
G03*
X16702849Y-6659891I-125000J0D01*
G01*
X18659250Y-14209891D02*
G75*
G03*
X18659250Y-14209891I-125000J0D01*
G01*
D11*
X9298302Y-14783875D02*
X9298302Y-14583875D01*
X9298302Y-14583875D02*
X9345921Y-14583875D01*
X9345921Y-14583875D02*
X9374492Y-14593399D01*
X9374492Y-14593399D02*
X9393540Y-14612447D01*
X9393540Y-14612447D02*
X9403064Y-14631494D01*
X9403064Y-14631494D02*
X9412588Y-14669589D01*
X9412588Y-14669589D02*
X9412588Y-14698161D01*
X9412588Y-14698161D02*
X9403064Y-14736256D01*
X9403064Y-14736256D02*
X9393540Y-14755304D01*
X9393540Y-14755304D02*
X9374492Y-14774351D01*
X9374492Y-14774351D02*
X9345921Y-14783875D01*
X9345921Y-14783875D02*
X9298302Y-14783875D01*
X9498302Y-14783875D02*
X9498302Y-14650542D01*
X9498302Y-14688637D02*
X9507826Y-14669589D01*
X9507826Y-14669589D02*
X9517349Y-14660066D01*
X9517349Y-14660066D02*
X9536397Y-14650542D01*
X9536397Y-14650542D02*
X9555445Y-14650542D01*
X9622111Y-14783875D02*
X9622111Y-14650542D01*
X9622111Y-14583875D02*
X9612588Y-14593399D01*
X9612588Y-14593399D02*
X9622111Y-14602923D01*
X9622111Y-14602923D02*
X9631635Y-14593399D01*
X9631635Y-14593399D02*
X9622111Y-14583875D01*
X9622111Y-14583875D02*
X9622111Y-14602923D01*
X9745921Y-14783875D02*
X9726873Y-14774351D01*
X9726873Y-14774351D02*
X9717349Y-14755304D01*
X9717349Y-14755304D02*
X9717349Y-14583875D01*
X9850683Y-14783875D02*
X9831635Y-14774351D01*
X9831635Y-14774351D02*
X9822111Y-14755304D01*
X9822111Y-14755304D02*
X9822111Y-14583875D01*
X10079254Y-14783875D02*
X10079254Y-14583875D01*
X10079254Y-14583875D02*
X10145921Y-14726732D01*
X10145921Y-14726732D02*
X10212588Y-14583875D01*
X10212588Y-14583875D02*
X10212588Y-14783875D01*
X10393540Y-14783875D02*
X10393540Y-14679113D01*
X10393540Y-14679113D02*
X10384016Y-14660066D01*
X10384016Y-14660066D02*
X10364969Y-14650542D01*
X10364969Y-14650542D02*
X10326873Y-14650542D01*
X10326873Y-14650542D02*
X10307826Y-14660066D01*
X10393540Y-14774351D02*
X10374492Y-14783875D01*
X10374492Y-14783875D02*
X10326873Y-14783875D01*
X10326873Y-14783875D02*
X10307826Y-14774351D01*
X10307826Y-14774351D02*
X10298302Y-14755304D01*
X10298302Y-14755304D02*
X10298302Y-14736256D01*
X10298302Y-14736256D02*
X10307826Y-14717208D01*
X10307826Y-14717208D02*
X10326873Y-14707685D01*
X10326873Y-14707685D02*
X10374492Y-14707685D01*
X10374492Y-14707685D02*
X10393540Y-14698161D01*
X10488778Y-14650542D02*
X10488778Y-14850542D01*
X10488778Y-14660066D02*
X10507826Y-14650542D01*
X10507826Y-14650542D02*
X10545921Y-14650542D01*
X10545921Y-14650542D02*
X10564969Y-14660066D01*
X10564969Y-14660066D02*
X10574492Y-14669589D01*
X10574492Y-14669589D02*
X10584016Y-14688637D01*
X10584016Y-14688637D02*
X10584016Y-14745780D01*
X10584016Y-14745780D02*
X10574492Y-14764827D01*
X10574492Y-14764827D02*
X10564969Y-14774351D01*
X10564969Y-14774351D02*
X10545921Y-14783875D01*
X10545921Y-14783875D02*
X10507826Y-14783875D01*
X10507826Y-14783875D02*
X10488778Y-14774351D01*
X10669730Y-14764827D02*
X10679254Y-14774351D01*
X10679254Y-14774351D02*
X10669730Y-14783875D01*
X10669730Y-14783875D02*
X10660207Y-14774351D01*
X10660207Y-14774351D02*
X10669730Y-14764827D01*
X10669730Y-14764827D02*
X10669730Y-14783875D01*
X10669730Y-14660066D02*
X10679254Y-14669589D01*
X10679254Y-14669589D02*
X10669730Y-14679113D01*
X10669730Y-14679113D02*
X10660207Y-14669589D01*
X10660207Y-14669589D02*
X10669730Y-14660066D01*
X10669730Y-14660066D02*
X10669730Y-14679113D01*
D12*
X9007525Y-15097391D02*
X9037525Y-15127391D01*
X9037525Y-15097391D02*
X9007525Y-15127391D01*
D11*
X9336397Y-15003875D02*
X9355445Y-15003875D01*
X9355445Y-15003875D02*
X9374492Y-15013399D01*
X9374492Y-15013399D02*
X9384016Y-15022923D01*
X9384016Y-15022923D02*
X9393540Y-15041970D01*
X9393540Y-15041970D02*
X9403064Y-15080066D01*
X9403064Y-15080066D02*
X9403064Y-15127685D01*
X9403064Y-15127685D02*
X9393540Y-15165780D01*
X9393540Y-15165780D02*
X9384016Y-15184827D01*
X9384016Y-15184827D02*
X9374492Y-15194351D01*
X9374492Y-15194351D02*
X9355445Y-15203875D01*
X9355445Y-15203875D02*
X9336397Y-15203875D01*
X9336397Y-15203875D02*
X9317349Y-15194351D01*
X9317349Y-15194351D02*
X9307826Y-15184827D01*
X9307826Y-15184827D02*
X9298302Y-15165780D01*
X9298302Y-15165780D02*
X9288778Y-15127685D01*
X9288778Y-15127685D02*
X9288778Y-15080066D01*
X9288778Y-15080066D02*
X9298302Y-15041970D01*
X9298302Y-15041970D02*
X9307826Y-15022923D01*
X9307826Y-15022923D02*
X9317349Y-15013399D01*
X9317349Y-15013399D02*
X9336397Y-15003875D01*
X9488778Y-15184827D02*
X9498302Y-15194351D01*
X9498302Y-15194351D02*
X9488778Y-15203875D01*
X9488778Y-15203875D02*
X9479254Y-15194351D01*
X9479254Y-15194351D02*
X9488778Y-15184827D01*
X9488778Y-15184827D02*
X9488778Y-15203875D01*
X9564969Y-15003875D02*
X9688778Y-15003875D01*
X9688778Y-15003875D02*
X9622111Y-15080066D01*
X9622111Y-15080066D02*
X9650683Y-15080066D01*
X9650683Y-15080066D02*
X9669730Y-15089589D01*
X9669730Y-15089589D02*
X9679254Y-15099113D01*
X9679254Y-15099113D02*
X9688778Y-15118161D01*
X9688778Y-15118161D02*
X9688778Y-15165780D01*
X9688778Y-15165780D02*
X9679254Y-15184827D01*
X9679254Y-15184827D02*
X9669730Y-15194351D01*
X9669730Y-15194351D02*
X9650683Y-15203875D01*
X9650683Y-15203875D02*
X9593540Y-15203875D01*
X9593540Y-15203875D02*
X9574492Y-15194351D01*
X9574492Y-15194351D02*
X9564969Y-15184827D01*
X9812588Y-15003875D02*
X9831635Y-15003875D01*
X9831635Y-15003875D02*
X9850683Y-15013399D01*
X9850683Y-15013399D02*
X9860207Y-15022923D01*
X9860207Y-15022923D02*
X9869730Y-15041970D01*
X9869730Y-15041970D02*
X9879254Y-15080066D01*
X9879254Y-15080066D02*
X9879254Y-15127685D01*
X9879254Y-15127685D02*
X9869730Y-15165780D01*
X9869730Y-15165780D02*
X9860207Y-15184827D01*
X9860207Y-15184827D02*
X9850683Y-15194351D01*
X9850683Y-15194351D02*
X9831635Y-15203875D01*
X9831635Y-15203875D02*
X9812588Y-15203875D01*
X9812588Y-15203875D02*
X9793540Y-15194351D01*
X9793540Y-15194351D02*
X9784016Y-15184827D01*
X9784016Y-15184827D02*
X9774492Y-15165780D01*
X9774492Y-15165780D02*
X9764969Y-15127685D01*
X9764969Y-15127685D02*
X9764969Y-15080066D01*
X9764969Y-15080066D02*
X9774492Y-15041970D01*
X9774492Y-15041970D02*
X9784016Y-15022923D01*
X9784016Y-15022923D02*
X9793540Y-15013399D01*
X9793540Y-15013399D02*
X9812588Y-15003875D01*
X10003064Y-15003875D02*
X10022111Y-15003875D01*
X10022111Y-15003875D02*
X10041159Y-15013399D01*
X10041159Y-15013399D02*
X10050683Y-15022923D01*
X10050683Y-15022923D02*
X10060207Y-15041970D01*
X10060207Y-15041970D02*
X10069730Y-15080066D01*
X10069730Y-15080066D02*
X10069730Y-15127685D01*
X10069730Y-15127685D02*
X10060207Y-15165780D01*
X10060207Y-15165780D02*
X10050683Y-15184827D01*
X10050683Y-15184827D02*
X10041159Y-15194351D01*
X10041159Y-15194351D02*
X10022111Y-15203875D01*
X10022111Y-15203875D02*
X10003064Y-15203875D01*
X10003064Y-15203875D02*
X9984016Y-15194351D01*
X9984016Y-15194351D02*
X9974492Y-15184827D01*
X9974492Y-15184827D02*
X9964969Y-15165780D01*
X9964969Y-15165780D02*
X9955445Y-15127685D01*
X9955445Y-15127685D02*
X9955445Y-15080066D01*
X9955445Y-15080066D02*
X9964969Y-15041970D01*
X9964969Y-15041970D02*
X9974492Y-15022923D01*
X9974492Y-15022923D02*
X9984016Y-15013399D01*
X9984016Y-15013399D02*
X10003064Y-15003875D01*
X10155445Y-15203875D02*
X10155445Y-15070542D01*
X10155445Y-15089589D02*
X10164969Y-15080066D01*
X10164969Y-15080066D02*
X10184016Y-15070542D01*
X10184016Y-15070542D02*
X10212588Y-15070542D01*
X10212588Y-15070542D02*
X10231635Y-15080066D01*
X10231635Y-15080066D02*
X10241159Y-15099113D01*
X10241159Y-15099113D02*
X10241159Y-15203875D01*
X10241159Y-15099113D02*
X10250683Y-15080066D01*
X10250683Y-15080066D02*
X10269730Y-15070542D01*
X10269730Y-15070542D02*
X10298302Y-15070542D01*
X10298302Y-15070542D02*
X10317350Y-15080066D01*
X10317350Y-15080066D02*
X10326873Y-15099113D01*
X10326873Y-15099113D02*
X10326873Y-15203875D01*
X10422111Y-15203875D02*
X10422111Y-15070542D01*
X10422111Y-15089589D02*
X10431635Y-15080066D01*
X10431635Y-15080066D02*
X10450683Y-15070542D01*
X10450683Y-15070542D02*
X10479254Y-15070542D01*
X10479254Y-15070542D02*
X10498302Y-15080066D01*
X10498302Y-15080066D02*
X10507826Y-15099113D01*
X10507826Y-15099113D02*
X10507826Y-15203875D01*
X10507826Y-15099113D02*
X10517350Y-15080066D01*
X10517350Y-15080066D02*
X10536397Y-15070542D01*
X10536397Y-15070542D02*
X10564969Y-15070542D01*
X10564969Y-15070542D02*
X10584016Y-15080066D01*
X10584016Y-15080066D02*
X10593540Y-15099113D01*
X10593540Y-15099113D02*
X10593540Y-15203875D01*
X10984016Y-14994351D02*
X10812588Y-15251494D01*
X11241159Y-15003875D02*
X11260207Y-15003875D01*
X11260207Y-15003875D02*
X11279254Y-15013399D01*
X11279254Y-15013399D02*
X11288778Y-15022923D01*
X11288778Y-15022923D02*
X11298302Y-15041970D01*
X11298302Y-15041970D02*
X11307826Y-15080066D01*
X11307826Y-15080066D02*
X11307826Y-15127685D01*
X11307826Y-15127685D02*
X11298302Y-15165780D01*
X11298302Y-15165780D02*
X11288778Y-15184827D01*
X11288778Y-15184827D02*
X11279254Y-15194351D01*
X11279254Y-15194351D02*
X11260207Y-15203875D01*
X11260207Y-15203875D02*
X11241159Y-15203875D01*
X11241159Y-15203875D02*
X11222111Y-15194351D01*
X11222111Y-15194351D02*
X11212588Y-15184827D01*
X11212588Y-15184827D02*
X11203064Y-15165780D01*
X11203064Y-15165780D02*
X11193540Y-15127685D01*
X11193540Y-15127685D02*
X11193540Y-15080066D01*
X11193540Y-15080066D02*
X11203064Y-15041970D01*
X11203064Y-15041970D02*
X11212588Y-15022923D01*
X11212588Y-15022923D02*
X11222111Y-15013399D01*
X11222111Y-15013399D02*
X11241159Y-15003875D01*
X11393540Y-15184827D02*
X11403064Y-15194351D01*
X11403064Y-15194351D02*
X11393540Y-15203875D01*
X11393540Y-15203875D02*
X11384016Y-15194351D01*
X11384016Y-15194351D02*
X11393540Y-15184827D01*
X11393540Y-15184827D02*
X11393540Y-15203875D01*
X11526873Y-15003875D02*
X11545921Y-15003875D01*
X11545921Y-15003875D02*
X11564969Y-15013399D01*
X11564969Y-15013399D02*
X11574492Y-15022923D01*
X11574492Y-15022923D02*
X11584016Y-15041970D01*
X11584016Y-15041970D02*
X11593540Y-15080066D01*
X11593540Y-15080066D02*
X11593540Y-15127685D01*
X11593540Y-15127685D02*
X11584016Y-15165780D01*
X11584016Y-15165780D02*
X11574492Y-15184827D01*
X11574492Y-15184827D02*
X11564969Y-15194351D01*
X11564969Y-15194351D02*
X11545921Y-15203875D01*
X11545921Y-15203875D02*
X11526873Y-15203875D01*
X11526873Y-15203875D02*
X11507826Y-15194351D01*
X11507826Y-15194351D02*
X11498302Y-15184827D01*
X11498302Y-15184827D02*
X11488778Y-15165780D01*
X11488778Y-15165780D02*
X11479254Y-15127685D01*
X11479254Y-15127685D02*
X11479254Y-15080066D01*
X11479254Y-15080066D02*
X11488778Y-15041970D01*
X11488778Y-15041970D02*
X11498302Y-15022923D01*
X11498302Y-15022923D02*
X11507826Y-15013399D01*
X11507826Y-15013399D02*
X11526873Y-15003875D01*
X11784016Y-15203875D02*
X11669731Y-15203875D01*
X11726873Y-15203875D02*
X11726873Y-15003875D01*
X11726873Y-15003875D02*
X11707826Y-15032447D01*
X11707826Y-15032447D02*
X11688778Y-15051494D01*
X11688778Y-15051494D02*
X11669731Y-15061018D01*
X11974492Y-15203875D02*
X11860207Y-15203875D01*
X11917350Y-15203875D02*
X11917350Y-15003875D01*
X11917350Y-15003875D02*
X11898302Y-15032447D01*
X11898302Y-15032447D02*
X11879254Y-15051494D01*
X11879254Y-15051494D02*
X11860207Y-15061018D01*
X12088778Y-15089589D02*
X12069731Y-15080066D01*
X12069731Y-15080066D02*
X12060207Y-15070542D01*
X12060207Y-15070542D02*
X12050683Y-15051494D01*
X12050683Y-15051494D02*
X12050683Y-15041970D01*
X12050683Y-15041970D02*
X12060207Y-15022923D01*
X12060207Y-15022923D02*
X12069731Y-15013399D01*
X12069731Y-15013399D02*
X12088778Y-15003875D01*
X12088778Y-15003875D02*
X12126873Y-15003875D01*
X12126873Y-15003875D02*
X12145921Y-15013399D01*
X12145921Y-15013399D02*
X12155445Y-15022923D01*
X12155445Y-15022923D02*
X12164969Y-15041970D01*
X12164969Y-15041970D02*
X12164969Y-15051494D01*
X12164969Y-15051494D02*
X12155445Y-15070542D01*
X12155445Y-15070542D02*
X12145921Y-15080066D01*
X12145921Y-15080066D02*
X12126873Y-15089589D01*
X12126873Y-15089589D02*
X12088778Y-15089589D01*
X12088778Y-15089589D02*
X12069731Y-15099113D01*
X12069731Y-15099113D02*
X12060207Y-15108637D01*
X12060207Y-15108637D02*
X12050683Y-15127685D01*
X12050683Y-15127685D02*
X12050683Y-15165780D01*
X12050683Y-15165780D02*
X12060207Y-15184827D01*
X12060207Y-15184827D02*
X12069731Y-15194351D01*
X12069731Y-15194351D02*
X12088778Y-15203875D01*
X12088778Y-15203875D02*
X12126873Y-15203875D01*
X12126873Y-15203875D02*
X12145921Y-15194351D01*
X12145921Y-15194351D02*
X12155445Y-15184827D01*
X12155445Y-15184827D02*
X12164969Y-15165780D01*
X12164969Y-15165780D02*
X12164969Y-15127685D01*
X12164969Y-15127685D02*
X12155445Y-15108637D01*
X12155445Y-15108637D02*
X12145921Y-15099113D01*
X12145921Y-15099113D02*
X12126873Y-15089589D01*
X12241159Y-15003875D02*
X12241159Y-15041970D01*
X12317350Y-15003875D02*
X12317350Y-15041970D01*
X12612588Y-15280066D02*
X12603064Y-15270542D01*
X12603064Y-15270542D02*
X12584016Y-15241970D01*
X12584016Y-15241970D02*
X12574493Y-15222923D01*
X12574493Y-15222923D02*
X12564969Y-15194351D01*
X12564969Y-15194351D02*
X12555445Y-15146732D01*
X12555445Y-15146732D02*
X12555445Y-15108637D01*
X12555445Y-15108637D02*
X12564969Y-15061018D01*
X12564969Y-15061018D02*
X12574493Y-15032447D01*
X12574493Y-15032447D02*
X12584016Y-15013399D01*
X12584016Y-15013399D02*
X12603064Y-14984827D01*
X12603064Y-14984827D02*
X12612588Y-14975304D01*
X12679254Y-15022923D02*
X12688778Y-15013399D01*
X12688778Y-15013399D02*
X12707826Y-15003875D01*
X12707826Y-15003875D02*
X12755445Y-15003875D01*
X12755445Y-15003875D02*
X12774493Y-15013399D01*
X12774493Y-15013399D02*
X12784016Y-15022923D01*
X12784016Y-15022923D02*
X12793540Y-15041970D01*
X12793540Y-15041970D02*
X12793540Y-15061018D01*
X12793540Y-15061018D02*
X12784016Y-15089589D01*
X12784016Y-15089589D02*
X12669731Y-15203875D01*
X12669731Y-15203875D02*
X12793540Y-15203875D01*
X12860207Y-15003875D02*
X12993540Y-15003875D01*
X12993540Y-15003875D02*
X12907826Y-15203875D01*
X13060207Y-15022923D02*
X13069731Y-15013399D01*
X13069731Y-15013399D02*
X13088778Y-15003875D01*
X13088778Y-15003875D02*
X13136397Y-15003875D01*
X13136397Y-15003875D02*
X13155445Y-15013399D01*
X13155445Y-15013399D02*
X13164969Y-15022923D01*
X13164969Y-15022923D02*
X13174493Y-15041970D01*
X13174493Y-15041970D02*
X13174493Y-15061018D01*
X13174493Y-15061018D02*
X13164969Y-15089589D01*
X13164969Y-15089589D02*
X13050683Y-15203875D01*
X13050683Y-15203875D02*
X13174493Y-15203875D01*
X13412588Y-15203875D02*
X13412588Y-15003875D01*
X13498302Y-15203875D02*
X13498302Y-15099113D01*
X13498302Y-15099113D02*
X13488778Y-15080066D01*
X13488778Y-15080066D02*
X13469731Y-15070542D01*
X13469731Y-15070542D02*
X13441159Y-15070542D01*
X13441159Y-15070542D02*
X13422112Y-15080066D01*
X13422112Y-15080066D02*
X13412588Y-15089589D01*
X13622112Y-15203875D02*
X13603064Y-15194351D01*
X13603064Y-15194351D02*
X13593540Y-15184827D01*
X13593540Y-15184827D02*
X13584016Y-15165780D01*
X13584016Y-15165780D02*
X13584016Y-15108637D01*
X13584016Y-15108637D02*
X13593540Y-15089589D01*
X13593540Y-15089589D02*
X13603064Y-15080066D01*
X13603064Y-15080066D02*
X13622112Y-15070542D01*
X13622112Y-15070542D02*
X13650683Y-15070542D01*
X13650683Y-15070542D02*
X13669731Y-15080066D01*
X13669731Y-15080066D02*
X13679255Y-15089589D01*
X13679255Y-15089589D02*
X13688778Y-15108637D01*
X13688778Y-15108637D02*
X13688778Y-15165780D01*
X13688778Y-15165780D02*
X13679255Y-15184827D01*
X13679255Y-15184827D02*
X13669731Y-15194351D01*
X13669731Y-15194351D02*
X13650683Y-15203875D01*
X13650683Y-15203875D02*
X13622112Y-15203875D01*
X13803064Y-15203875D02*
X13784016Y-15194351D01*
X13784016Y-15194351D02*
X13774493Y-15175304D01*
X13774493Y-15175304D02*
X13774493Y-15003875D01*
X13955445Y-15194351D02*
X13936397Y-15203875D01*
X13936397Y-15203875D02*
X13898302Y-15203875D01*
X13898302Y-15203875D02*
X13879255Y-15194351D01*
X13879255Y-15194351D02*
X13869731Y-15175304D01*
X13869731Y-15175304D02*
X13869731Y-15099113D01*
X13869731Y-15099113D02*
X13879255Y-15080066D01*
X13879255Y-15080066D02*
X13898302Y-15070542D01*
X13898302Y-15070542D02*
X13936397Y-15070542D01*
X13936397Y-15070542D02*
X13955445Y-15080066D01*
X13955445Y-15080066D02*
X13964969Y-15099113D01*
X13964969Y-15099113D02*
X13964969Y-15118161D01*
X13964969Y-15118161D02*
X13869731Y-15137208D01*
X14041159Y-15194351D02*
X14060207Y-15203875D01*
X14060207Y-15203875D02*
X14098302Y-15203875D01*
X14098302Y-15203875D02*
X14117350Y-15194351D01*
X14117350Y-15194351D02*
X14126874Y-15175304D01*
X14126874Y-15175304D02*
X14126874Y-15165780D01*
X14126874Y-15165780D02*
X14117350Y-15146732D01*
X14117350Y-15146732D02*
X14098302Y-15137208D01*
X14098302Y-15137208D02*
X14069731Y-15137208D01*
X14069731Y-15137208D02*
X14050683Y-15127685D01*
X14050683Y-15127685D02*
X14041159Y-15108637D01*
X14041159Y-15108637D02*
X14041159Y-15099113D01*
X14041159Y-15099113D02*
X14050683Y-15080066D01*
X14050683Y-15080066D02*
X14069731Y-15070542D01*
X14069731Y-15070542D02*
X14098302Y-15070542D01*
X14098302Y-15070542D02*
X14117350Y-15080066D01*
X14193540Y-15280066D02*
X14203064Y-15270542D01*
X14203064Y-15270542D02*
X14222112Y-15241970D01*
X14222112Y-15241970D02*
X14231636Y-15222923D01*
X14231636Y-15222923D02*
X14241159Y-15194351D01*
X14241159Y-15194351D02*
X14250683Y-15146732D01*
X14250683Y-15146732D02*
X14250683Y-15108637D01*
X14250683Y-15108637D02*
X14241159Y-15061018D01*
X14241159Y-15061018D02*
X14231636Y-15032447D01*
X14231636Y-15032447D02*
X14222112Y-15013399D01*
X14222112Y-15013399D02*
X14203064Y-14984827D01*
X14203064Y-14984827D02*
X14193540Y-14975304D01*
X9037525Y-15376391D02*
G75*
G03*
X9037525Y-15376391I-100000J0D01*
G01*
X9288778Y-15286923D02*
X9298302Y-15277399D01*
X9298302Y-15277399D02*
X9317349Y-15267875D01*
X9317349Y-15267875D02*
X9364969Y-15267875D01*
X9364969Y-15267875D02*
X9384016Y-15277399D01*
X9384016Y-15277399D02*
X9393540Y-15286923D01*
X9393540Y-15286923D02*
X9403064Y-15305970D01*
X9403064Y-15305970D02*
X9403064Y-15325018D01*
X9403064Y-15325018D02*
X9393540Y-15353589D01*
X9393540Y-15353589D02*
X9279254Y-15467875D01*
X9279254Y-15467875D02*
X9403064Y-15467875D01*
X9488778Y-15448827D02*
X9498302Y-15458351D01*
X9498302Y-15458351D02*
X9488778Y-15467875D01*
X9488778Y-15467875D02*
X9479254Y-15458351D01*
X9479254Y-15458351D02*
X9488778Y-15448827D01*
X9488778Y-15448827D02*
X9488778Y-15467875D01*
X9679254Y-15267875D02*
X9584016Y-15267875D01*
X9584016Y-15267875D02*
X9574492Y-15363113D01*
X9574492Y-15363113D02*
X9584016Y-15353589D01*
X9584016Y-15353589D02*
X9603064Y-15344066D01*
X9603064Y-15344066D02*
X9650683Y-15344066D01*
X9650683Y-15344066D02*
X9669730Y-15353589D01*
X9669730Y-15353589D02*
X9679254Y-15363113D01*
X9679254Y-15363113D02*
X9688778Y-15382161D01*
X9688778Y-15382161D02*
X9688778Y-15429780D01*
X9688778Y-15429780D02*
X9679254Y-15448827D01*
X9679254Y-15448827D02*
X9669730Y-15458351D01*
X9669730Y-15458351D02*
X9650683Y-15467875D01*
X9650683Y-15467875D02*
X9603064Y-15467875D01*
X9603064Y-15467875D02*
X9584016Y-15458351D01*
X9584016Y-15458351D02*
X9574492Y-15448827D01*
X9812588Y-15267875D02*
X9831635Y-15267875D01*
X9831635Y-15267875D02*
X9850683Y-15277399D01*
X9850683Y-15277399D02*
X9860207Y-15286923D01*
X9860207Y-15286923D02*
X9869730Y-15305970D01*
X9869730Y-15305970D02*
X9879254Y-15344066D01*
X9879254Y-15344066D02*
X9879254Y-15391685D01*
X9879254Y-15391685D02*
X9869730Y-15429780D01*
X9869730Y-15429780D02*
X9860207Y-15448827D01*
X9860207Y-15448827D02*
X9850683Y-15458351D01*
X9850683Y-15458351D02*
X9831635Y-15467875D01*
X9831635Y-15467875D02*
X9812588Y-15467875D01*
X9812588Y-15467875D02*
X9793540Y-15458351D01*
X9793540Y-15458351D02*
X9784016Y-15448827D01*
X9784016Y-15448827D02*
X9774492Y-15429780D01*
X9774492Y-15429780D02*
X9764969Y-15391685D01*
X9764969Y-15391685D02*
X9764969Y-15344066D01*
X9764969Y-15344066D02*
X9774492Y-15305970D01*
X9774492Y-15305970D02*
X9784016Y-15286923D01*
X9784016Y-15286923D02*
X9793540Y-15277399D01*
X9793540Y-15277399D02*
X9812588Y-15267875D01*
X10003064Y-15267875D02*
X10022111Y-15267875D01*
X10022111Y-15267875D02*
X10041159Y-15277399D01*
X10041159Y-15277399D02*
X10050683Y-15286923D01*
X10050683Y-15286923D02*
X10060207Y-15305970D01*
X10060207Y-15305970D02*
X10069730Y-15344066D01*
X10069730Y-15344066D02*
X10069730Y-15391685D01*
X10069730Y-15391685D02*
X10060207Y-15429780D01*
X10060207Y-15429780D02*
X10050683Y-15448827D01*
X10050683Y-15448827D02*
X10041159Y-15458351D01*
X10041159Y-15458351D02*
X10022111Y-15467875D01*
X10022111Y-15467875D02*
X10003064Y-15467875D01*
X10003064Y-15467875D02*
X9984016Y-15458351D01*
X9984016Y-15458351D02*
X9974492Y-15448827D01*
X9974492Y-15448827D02*
X9964969Y-15429780D01*
X9964969Y-15429780D02*
X9955445Y-15391685D01*
X9955445Y-15391685D02*
X9955445Y-15344066D01*
X9955445Y-15344066D02*
X9964969Y-15305970D01*
X9964969Y-15305970D02*
X9974492Y-15286923D01*
X9974492Y-15286923D02*
X9984016Y-15277399D01*
X9984016Y-15277399D02*
X10003064Y-15267875D01*
X10155445Y-15467875D02*
X10155445Y-15334542D01*
X10155445Y-15353589D02*
X10164969Y-15344066D01*
X10164969Y-15344066D02*
X10184016Y-15334542D01*
X10184016Y-15334542D02*
X10212588Y-15334542D01*
X10212588Y-15334542D02*
X10231635Y-15344066D01*
X10231635Y-15344066D02*
X10241159Y-15363113D01*
X10241159Y-15363113D02*
X10241159Y-15467875D01*
X10241159Y-15363113D02*
X10250683Y-15344066D01*
X10250683Y-15344066D02*
X10269730Y-15334542D01*
X10269730Y-15334542D02*
X10298302Y-15334542D01*
X10298302Y-15334542D02*
X10317350Y-15344066D01*
X10317350Y-15344066D02*
X10326873Y-15363113D01*
X10326873Y-15363113D02*
X10326873Y-15467875D01*
X10422111Y-15467875D02*
X10422111Y-15334542D01*
X10422111Y-15353589D02*
X10431635Y-15344066D01*
X10431635Y-15344066D02*
X10450683Y-15334542D01*
X10450683Y-15334542D02*
X10479254Y-15334542D01*
X10479254Y-15334542D02*
X10498302Y-15344066D01*
X10498302Y-15344066D02*
X10507826Y-15363113D01*
X10507826Y-15363113D02*
X10507826Y-15467875D01*
X10507826Y-15363113D02*
X10517350Y-15344066D01*
X10517350Y-15344066D02*
X10536397Y-15334542D01*
X10536397Y-15334542D02*
X10564969Y-15334542D01*
X10564969Y-15334542D02*
X10584016Y-15344066D01*
X10584016Y-15344066D02*
X10593540Y-15363113D01*
X10593540Y-15363113D02*
X10593540Y-15467875D01*
X10984016Y-15258351D02*
X10812588Y-15515494D01*
X11241159Y-15267875D02*
X11260207Y-15267875D01*
X11260207Y-15267875D02*
X11279254Y-15277399D01*
X11279254Y-15277399D02*
X11288778Y-15286923D01*
X11288778Y-15286923D02*
X11298302Y-15305970D01*
X11298302Y-15305970D02*
X11307826Y-15344066D01*
X11307826Y-15344066D02*
X11307826Y-15391685D01*
X11307826Y-15391685D02*
X11298302Y-15429780D01*
X11298302Y-15429780D02*
X11288778Y-15448827D01*
X11288778Y-15448827D02*
X11279254Y-15458351D01*
X11279254Y-15458351D02*
X11260207Y-15467875D01*
X11260207Y-15467875D02*
X11241159Y-15467875D01*
X11241159Y-15467875D02*
X11222111Y-15458351D01*
X11222111Y-15458351D02*
X11212588Y-15448827D01*
X11212588Y-15448827D02*
X11203064Y-15429780D01*
X11203064Y-15429780D02*
X11193540Y-15391685D01*
X11193540Y-15391685D02*
X11193540Y-15344066D01*
X11193540Y-15344066D02*
X11203064Y-15305970D01*
X11203064Y-15305970D02*
X11212588Y-15286923D01*
X11212588Y-15286923D02*
X11222111Y-15277399D01*
X11222111Y-15277399D02*
X11241159Y-15267875D01*
X11393540Y-15448827D02*
X11403064Y-15458351D01*
X11403064Y-15458351D02*
X11393540Y-15467875D01*
X11393540Y-15467875D02*
X11384016Y-15458351D01*
X11384016Y-15458351D02*
X11393540Y-15448827D01*
X11393540Y-15448827D02*
X11393540Y-15467875D01*
X11526873Y-15267875D02*
X11545921Y-15267875D01*
X11545921Y-15267875D02*
X11564969Y-15277399D01*
X11564969Y-15277399D02*
X11574492Y-15286923D01*
X11574492Y-15286923D02*
X11584016Y-15305970D01*
X11584016Y-15305970D02*
X11593540Y-15344066D01*
X11593540Y-15344066D02*
X11593540Y-15391685D01*
X11593540Y-15391685D02*
X11584016Y-15429780D01*
X11584016Y-15429780D02*
X11574492Y-15448827D01*
X11574492Y-15448827D02*
X11564969Y-15458351D01*
X11564969Y-15458351D02*
X11545921Y-15467875D01*
X11545921Y-15467875D02*
X11526873Y-15467875D01*
X11526873Y-15467875D02*
X11507826Y-15458351D01*
X11507826Y-15458351D02*
X11498302Y-15448827D01*
X11498302Y-15448827D02*
X11488778Y-15429780D01*
X11488778Y-15429780D02*
X11479254Y-15391685D01*
X11479254Y-15391685D02*
X11479254Y-15344066D01*
X11479254Y-15344066D02*
X11488778Y-15305970D01*
X11488778Y-15305970D02*
X11498302Y-15286923D01*
X11498302Y-15286923D02*
X11507826Y-15277399D01*
X11507826Y-15277399D02*
X11526873Y-15267875D01*
X11688778Y-15467875D02*
X11726873Y-15467875D01*
X11726873Y-15467875D02*
X11745921Y-15458351D01*
X11745921Y-15458351D02*
X11755445Y-15448827D01*
X11755445Y-15448827D02*
X11774492Y-15420256D01*
X11774492Y-15420256D02*
X11784016Y-15382161D01*
X11784016Y-15382161D02*
X11784016Y-15305970D01*
X11784016Y-15305970D02*
X11774492Y-15286923D01*
X11774492Y-15286923D02*
X11764969Y-15277399D01*
X11764969Y-15277399D02*
X11745921Y-15267875D01*
X11745921Y-15267875D02*
X11707826Y-15267875D01*
X11707826Y-15267875D02*
X11688778Y-15277399D01*
X11688778Y-15277399D02*
X11679254Y-15286923D01*
X11679254Y-15286923D02*
X11669731Y-15305970D01*
X11669731Y-15305970D02*
X11669731Y-15353589D01*
X11669731Y-15353589D02*
X11679254Y-15372637D01*
X11679254Y-15372637D02*
X11688778Y-15382161D01*
X11688778Y-15382161D02*
X11707826Y-15391685D01*
X11707826Y-15391685D02*
X11745921Y-15391685D01*
X11745921Y-15391685D02*
X11764969Y-15382161D01*
X11764969Y-15382161D02*
X11774492Y-15372637D01*
X11774492Y-15372637D02*
X11784016Y-15353589D01*
X11898302Y-15353589D02*
X11879254Y-15344066D01*
X11879254Y-15344066D02*
X11869731Y-15334542D01*
X11869731Y-15334542D02*
X11860207Y-15315494D01*
X11860207Y-15315494D02*
X11860207Y-15305970D01*
X11860207Y-15305970D02*
X11869731Y-15286923D01*
X11869731Y-15286923D02*
X11879254Y-15277399D01*
X11879254Y-15277399D02*
X11898302Y-15267875D01*
X11898302Y-15267875D02*
X11936397Y-15267875D01*
X11936397Y-15267875D02*
X11955445Y-15277399D01*
X11955445Y-15277399D02*
X11964969Y-15286923D01*
X11964969Y-15286923D02*
X11974492Y-15305970D01*
X11974492Y-15305970D02*
X11974492Y-15315494D01*
X11974492Y-15315494D02*
X11964969Y-15334542D01*
X11964969Y-15334542D02*
X11955445Y-15344066D01*
X11955445Y-15344066D02*
X11936397Y-15353589D01*
X11936397Y-15353589D02*
X11898302Y-15353589D01*
X11898302Y-15353589D02*
X11879254Y-15363113D01*
X11879254Y-15363113D02*
X11869731Y-15372637D01*
X11869731Y-15372637D02*
X11860207Y-15391685D01*
X11860207Y-15391685D02*
X11860207Y-15429780D01*
X11860207Y-15429780D02*
X11869731Y-15448827D01*
X11869731Y-15448827D02*
X11879254Y-15458351D01*
X11879254Y-15458351D02*
X11898302Y-15467875D01*
X11898302Y-15467875D02*
X11936397Y-15467875D01*
X11936397Y-15467875D02*
X11955445Y-15458351D01*
X11955445Y-15458351D02*
X11964969Y-15448827D01*
X11964969Y-15448827D02*
X11974492Y-15429780D01*
X11974492Y-15429780D02*
X11974492Y-15391685D01*
X11974492Y-15391685D02*
X11964969Y-15372637D01*
X11964969Y-15372637D02*
X11955445Y-15363113D01*
X11955445Y-15363113D02*
X11936397Y-15353589D01*
X12145921Y-15334542D02*
X12145921Y-15467875D01*
X12098302Y-15258351D02*
X12050683Y-15401208D01*
X12050683Y-15401208D02*
X12174492Y-15401208D01*
X12241159Y-15267875D02*
X12241159Y-15305970D01*
X12317350Y-15267875D02*
X12317350Y-15305970D01*
X12612588Y-15544066D02*
X12603064Y-15534542D01*
X12603064Y-15534542D02*
X12584016Y-15505970D01*
X12584016Y-15505970D02*
X12574493Y-15486923D01*
X12574493Y-15486923D02*
X12564969Y-15458351D01*
X12564969Y-15458351D02*
X12555445Y-15410732D01*
X12555445Y-15410732D02*
X12555445Y-15372637D01*
X12555445Y-15372637D02*
X12564969Y-15325018D01*
X12564969Y-15325018D02*
X12574493Y-15296447D01*
X12574493Y-15296447D02*
X12584016Y-15277399D01*
X12584016Y-15277399D02*
X12603064Y-15248827D01*
X12603064Y-15248827D02*
X12612588Y-15239304D01*
X12784016Y-15267875D02*
X12688778Y-15267875D01*
X12688778Y-15267875D02*
X12679254Y-15363113D01*
X12679254Y-15363113D02*
X12688778Y-15353589D01*
X12688778Y-15353589D02*
X12707826Y-15344066D01*
X12707826Y-15344066D02*
X12755445Y-15344066D01*
X12755445Y-15344066D02*
X12774493Y-15353589D01*
X12774493Y-15353589D02*
X12784016Y-15363113D01*
X12784016Y-15363113D02*
X12793540Y-15382161D01*
X12793540Y-15382161D02*
X12793540Y-15429780D01*
X12793540Y-15429780D02*
X12784016Y-15448827D01*
X12784016Y-15448827D02*
X12774493Y-15458351D01*
X12774493Y-15458351D02*
X12755445Y-15467875D01*
X12755445Y-15467875D02*
X12707826Y-15467875D01*
X12707826Y-15467875D02*
X12688778Y-15458351D01*
X12688778Y-15458351D02*
X12679254Y-15448827D01*
X13031635Y-15467875D02*
X13031635Y-15267875D01*
X13117350Y-15467875D02*
X13117350Y-15363113D01*
X13117350Y-15363113D02*
X13107826Y-15344066D01*
X13107826Y-15344066D02*
X13088778Y-15334542D01*
X13088778Y-15334542D02*
X13060207Y-15334542D01*
X13060207Y-15334542D02*
X13041159Y-15344066D01*
X13041159Y-15344066D02*
X13031635Y-15353589D01*
X13241159Y-15467875D02*
X13222112Y-15458351D01*
X13222112Y-15458351D02*
X13212588Y-15448827D01*
X13212588Y-15448827D02*
X13203064Y-15429780D01*
X13203064Y-15429780D02*
X13203064Y-15372637D01*
X13203064Y-15372637D02*
X13212588Y-15353589D01*
X13212588Y-15353589D02*
X13222112Y-15344066D01*
X13222112Y-15344066D02*
X13241159Y-15334542D01*
X13241159Y-15334542D02*
X13269731Y-15334542D01*
X13269731Y-15334542D02*
X13288778Y-15344066D01*
X13288778Y-15344066D02*
X13298302Y-15353589D01*
X13298302Y-15353589D02*
X13307826Y-15372637D01*
X13307826Y-15372637D02*
X13307826Y-15429780D01*
X13307826Y-15429780D02*
X13298302Y-15448827D01*
X13298302Y-15448827D02*
X13288778Y-15458351D01*
X13288778Y-15458351D02*
X13269731Y-15467875D01*
X13269731Y-15467875D02*
X13241159Y-15467875D01*
X13422112Y-15467875D02*
X13403064Y-15458351D01*
X13403064Y-15458351D02*
X13393540Y-15439304D01*
X13393540Y-15439304D02*
X13393540Y-15267875D01*
X13574493Y-15458351D02*
X13555445Y-15467875D01*
X13555445Y-15467875D02*
X13517350Y-15467875D01*
X13517350Y-15467875D02*
X13498302Y-15458351D01*
X13498302Y-15458351D02*
X13488778Y-15439304D01*
X13488778Y-15439304D02*
X13488778Y-15363113D01*
X13488778Y-15363113D02*
X13498302Y-15344066D01*
X13498302Y-15344066D02*
X13517350Y-15334542D01*
X13517350Y-15334542D02*
X13555445Y-15334542D01*
X13555445Y-15334542D02*
X13574493Y-15344066D01*
X13574493Y-15344066D02*
X13584016Y-15363113D01*
X13584016Y-15363113D02*
X13584016Y-15382161D01*
X13584016Y-15382161D02*
X13488778Y-15401208D01*
X13660207Y-15458351D02*
X13679255Y-15467875D01*
X13679255Y-15467875D02*
X13717350Y-15467875D01*
X13717350Y-15467875D02*
X13736397Y-15458351D01*
X13736397Y-15458351D02*
X13745921Y-15439304D01*
X13745921Y-15439304D02*
X13745921Y-15429780D01*
X13745921Y-15429780D02*
X13736397Y-15410732D01*
X13736397Y-15410732D02*
X13717350Y-15401208D01*
X13717350Y-15401208D02*
X13688778Y-15401208D01*
X13688778Y-15401208D02*
X13669731Y-15391685D01*
X13669731Y-15391685D02*
X13660207Y-15372637D01*
X13660207Y-15372637D02*
X13660207Y-15363113D01*
X13660207Y-15363113D02*
X13669731Y-15344066D01*
X13669731Y-15344066D02*
X13688778Y-15334542D01*
X13688778Y-15334542D02*
X13717350Y-15334542D01*
X13717350Y-15334542D02*
X13736397Y-15344066D01*
X13812588Y-15544066D02*
X13822112Y-15534542D01*
X13822112Y-15534542D02*
X13841159Y-15505970D01*
X13841159Y-15505970D02*
X13850683Y-15486923D01*
X13850683Y-15486923D02*
X13860207Y-15458351D01*
X13860207Y-15458351D02*
X13869731Y-15410732D01*
X13869731Y-15410732D02*
X13869731Y-15372637D01*
X13869731Y-15372637D02*
X13860207Y-15325018D01*
X13860207Y-15325018D02*
X13850683Y-15296447D01*
X13850683Y-15296447D02*
X13841159Y-15277399D01*
X13841159Y-15277399D02*
X13822112Y-15248827D01*
X13822112Y-15248827D02*
X13812588Y-15239304D01*
M02*
