%TF.GenerationSoftware,KiCad,Pcbnew,7.0.7*%
%TF.CreationDate,2024-04-21T22:41:54+02:00*%
%TF.ProjectId,isokey_right,69736f6b-6579-45f7-9269-6768742e6b69,rev?*%
%TF.SameCoordinates,Original*%
%TF.FileFunction,Drillmap*%
%TF.FilePolarity,Positive*%
%FSLAX45Y45*%
G04 Gerber Fmt 4.5, Leading zero omitted, Abs format (unit mm)*
G04 Created by KiCad (PCBNEW 7.0.7) date 2024-04-21 22:41:54*
%MOMM*%
%LPD*%
G01*
G04 APERTURE LIST*
%ADD10C,0.250000*%
%ADD11C,0.200000*%
%ADD12C,0.170180*%
%ADD13C,0.300000*%
%ADD14C,0.398780*%
G04 APERTURE END LIST*
D10*
X9050019Y-14209891D02*
G75*
G03*
X9300025Y-14459891I250011J11D01*
G01*
X16919658Y-3467113D02*
G75*
G03*
X16928544Y-3751075I145172J-137577D01*
G01*
X17087293Y-6011368D02*
G75*
G03*
X17166732Y-5699985I-570533J311378D01*
G01*
X18034250Y-6602990D02*
X17438409Y-6602990D01*
X17166732Y-5699985D02*
X17166722Y-4266063D01*
X17166720Y-4266063D02*
G75*
G03*
X16928544Y-3751075I-675840J3D01*
G01*
X12700000Y-3550000D02*
G75*
G03*
X12930000Y-3320000I0J230000D01*
G01*
X18784250Y-14209891D02*
X18784250Y-7352990D01*
X9533711Y-3421063D02*
G75*
G03*
X9050025Y-3509891I-233687J-88824D01*
G01*
X9533711Y-3421063D02*
G75*
G03*
X9720661Y-3550000I186949J71063D01*
G01*
X13500000Y-2630725D02*
G75*
G03*
X12930725Y-3200000I0J-569275D01*
G01*
X12930725Y-3200000D02*
X12930725Y-3320000D01*
X9050025Y-3509891D02*
X9050025Y-14209891D01*
X16919661Y-3467115D02*
G75*
G03*
X16560000Y-2630725I-359661J340865D01*
G01*
X17087295Y-6011369D02*
G75*
G03*
X17438409Y-6602990I351115J-191621D01*
G01*
X9300025Y-14459891D02*
X18534250Y-14459891D01*
X18784250Y-7352990D02*
G75*
G03*
X18034250Y-6602990I-750000J0D01*
G01*
X16560000Y-2630725D02*
X13500000Y-2630725D01*
X18534250Y-14459890D02*
G75*
G03*
X18784250Y-14209891I0J250000D01*
G01*
X12700000Y-3550000D02*
X9720661Y-3550000D01*
D11*
D12*
X9406910Y-4914910D02*
X9577090Y-5085090D01*
X9577090Y-4914910D02*
X9406910Y-5085090D01*
X9406910Y-4914910D02*
X9577090Y-5085090D01*
X9577090Y-4914910D02*
X9406910Y-5085090D01*
X9406910Y-6819925D02*
X9577090Y-6990105D01*
X9577090Y-6819925D02*
X9406910Y-6990105D01*
X9406910Y-6819925D02*
X9577090Y-6990105D01*
X9577090Y-6819925D02*
X9406910Y-6990105D01*
X9406910Y-8724940D02*
X9577090Y-8895120D01*
X9577090Y-8724940D02*
X9406910Y-8895120D01*
X9406910Y-8724940D02*
X9577090Y-8895120D01*
X9577090Y-8724940D02*
X9406910Y-8895120D01*
X9645110Y-10629925D02*
X9815290Y-10800105D01*
X9815290Y-10629925D02*
X9645110Y-10800105D01*
X9645110Y-10629925D02*
X9815290Y-10800105D01*
X9815290Y-10629925D02*
X9645110Y-10800105D01*
X10422910Y-4914910D02*
X10593090Y-5085090D01*
X10593090Y-4914910D02*
X10422910Y-5085090D01*
X10422910Y-4914910D02*
X10593090Y-5085090D01*
X10593090Y-4914910D02*
X10422910Y-5085090D01*
X10422910Y-6819925D02*
X10593090Y-6990105D01*
X10593090Y-6819925D02*
X10422910Y-6990105D01*
X10422910Y-6819925D02*
X10593090Y-6990105D01*
X10593090Y-6819925D02*
X10422910Y-6990105D01*
X10422910Y-8724940D02*
X10593090Y-8895120D01*
X10593090Y-8724940D02*
X10422910Y-8895120D01*
X10422910Y-8724940D02*
X10593090Y-8895120D01*
X10593090Y-8724940D02*
X10422910Y-8895120D01*
X10645010Y-13106395D02*
X10815190Y-13276575D01*
X10815190Y-13106395D02*
X10645010Y-13276575D01*
X10645010Y-13106395D02*
X10815190Y-13276575D01*
X10815190Y-13106395D02*
X10645010Y-13276575D01*
X10661110Y-10629925D02*
X10831290Y-10800105D01*
X10831290Y-10629925D02*
X10661110Y-10800105D01*
X10661110Y-10629925D02*
X10831290Y-10800105D01*
X10831290Y-10629925D02*
X10661110Y-10800105D01*
X11311910Y-4914910D02*
X11482090Y-5085090D01*
X11482090Y-4914910D02*
X11311910Y-5085090D01*
X11311910Y-4914910D02*
X11482090Y-5085090D01*
X11482090Y-4914910D02*
X11311910Y-5085090D01*
X11311910Y-6819925D02*
X11482090Y-6990105D01*
X11482090Y-6819925D02*
X11311910Y-6990105D01*
X11311910Y-6819925D02*
X11482090Y-6990105D01*
X11482090Y-6819925D02*
X11311910Y-6990105D01*
X11311910Y-8724940D02*
X11482090Y-8895120D01*
X11482090Y-8724940D02*
X11311910Y-8895120D01*
X11311910Y-8724940D02*
X11482090Y-8895120D01*
X11482090Y-8724940D02*
X11311910Y-8895120D01*
X11661010Y-13106395D02*
X11831190Y-13276575D01*
X11831190Y-13106395D02*
X11661010Y-13276575D01*
X11661010Y-13106395D02*
X11831190Y-13276575D01*
X11831190Y-13106395D02*
X11661010Y-13276575D01*
X12327910Y-4914910D02*
X12498090Y-5085090D01*
X12498090Y-4914910D02*
X12327910Y-5085090D01*
X12327910Y-4914910D02*
X12498090Y-5085090D01*
X12498090Y-4914910D02*
X12327910Y-5085090D01*
X12327910Y-6819925D02*
X12498090Y-6990105D01*
X12498090Y-6819925D02*
X12327910Y-6990105D01*
X12327910Y-6819925D02*
X12498090Y-6990105D01*
X12498090Y-6819925D02*
X12327910Y-6990105D01*
X12327910Y-8724940D02*
X12498090Y-8895120D01*
X12498090Y-8724940D02*
X12327910Y-8895120D01*
X12327910Y-8724940D02*
X12498090Y-8895120D01*
X12498090Y-8724940D02*
X12327910Y-8895120D01*
X12550010Y-11201390D02*
X12720190Y-11371570D01*
X12720190Y-11201390D02*
X12550010Y-11371570D01*
X12550010Y-11201390D02*
X12720190Y-11371570D01*
X12720190Y-11201390D02*
X12550010Y-11371570D01*
X12550010Y-13106395D02*
X12720190Y-13276575D01*
X12720190Y-13106395D02*
X12550010Y-13276575D01*
X12550010Y-13106395D02*
X12720190Y-13276575D01*
X12720190Y-13106395D02*
X12550010Y-13276575D01*
X13566010Y-11201390D02*
X13736190Y-11371570D01*
X13736190Y-11201390D02*
X13566010Y-11371570D01*
X13566010Y-11201390D02*
X13736190Y-11371570D01*
X13736190Y-11201390D02*
X13566010Y-11371570D01*
X13566010Y-13106395D02*
X13736190Y-13276575D01*
X13736190Y-13106395D02*
X13566010Y-13276575D01*
X13566010Y-13106395D02*
X13736190Y-13276575D01*
X13736190Y-13106395D02*
X13566010Y-13276575D01*
X13931310Y-7772425D02*
X14101490Y-7942605D01*
X14101490Y-7772425D02*
X13931310Y-7942605D01*
X13931310Y-7772425D02*
X14101490Y-7942605D01*
X14101490Y-7772425D02*
X13931310Y-7942605D01*
X14169410Y-4914910D02*
X14339590Y-5085090D01*
X14339590Y-4914910D02*
X14169410Y-5085090D01*
X14169410Y-4914910D02*
X14339590Y-5085090D01*
X14339590Y-4914910D02*
X14169410Y-5085090D01*
X14455010Y-13106395D02*
X14625190Y-13276575D01*
X14625190Y-13106395D02*
X14455010Y-13276575D01*
X14455010Y-13106395D02*
X14625190Y-13276575D01*
X14625190Y-13106395D02*
X14455010Y-13276575D01*
X14947310Y-7772425D02*
X15117490Y-7942605D01*
X15117490Y-7772425D02*
X14947310Y-7942605D01*
X14947310Y-7772425D02*
X15117490Y-7942605D01*
X15117490Y-7772425D02*
X14947310Y-7942605D01*
X15185410Y-4914910D02*
X15355590Y-5085090D01*
X15355590Y-4914910D02*
X15185410Y-5085090D01*
X15185410Y-4914910D02*
X15355590Y-5085090D01*
X15355590Y-4914910D02*
X15185410Y-5085090D01*
X15471010Y-13106395D02*
X15641190Y-13276575D01*
X15641190Y-13106395D02*
X15471010Y-13276575D01*
X15471010Y-13106395D02*
X15641190Y-13276575D01*
X15641190Y-13106395D02*
X15471010Y-13276575D01*
X16741210Y-7967885D02*
X16911390Y-8138065D01*
X16911390Y-7967885D02*
X16741210Y-8138065D01*
X16741210Y-7967885D02*
X16911390Y-8138065D01*
X16911390Y-7967885D02*
X16741210Y-8138065D01*
X16741210Y-9867855D02*
X16911390Y-10038035D01*
X16911390Y-9867855D02*
X16741210Y-10038035D01*
X16741210Y-9867855D02*
X16911390Y-10038035D01*
X16911390Y-9867855D02*
X16741210Y-10038035D01*
X16741210Y-11772855D02*
X16911390Y-11943035D01*
X16911390Y-11772855D02*
X16741210Y-11943035D01*
X16741210Y-11772855D02*
X16911390Y-11943035D01*
X16911390Y-11772855D02*
X16741210Y-11943035D01*
X17757210Y-7967885D02*
X17927390Y-8138065D01*
X17927390Y-7967885D02*
X17757210Y-8138065D01*
X17757210Y-7967885D02*
X17927390Y-8138065D01*
X17927390Y-7967885D02*
X17757210Y-8138065D01*
X17757210Y-9867855D02*
X17927390Y-10038035D01*
X17927390Y-9867855D02*
X17757210Y-10038035D01*
X17757210Y-9867855D02*
X17927390Y-10038035D01*
X17927390Y-9867855D02*
X17757210Y-10038035D01*
X17757210Y-11772855D02*
X17927390Y-11943035D01*
X17927390Y-11772855D02*
X17757210Y-11943035D01*
X17757210Y-11772855D02*
X17927390Y-11943035D01*
X17927390Y-11772855D02*
X17757210Y-11943035D01*
D13*
X9769000Y-4746000D02*
G75*
G03*
X9769000Y-4746000I-150000J0D01*
G01*
X9769000Y-6651015D02*
G75*
G03*
X9769000Y-6651015I-150000J0D01*
G01*
X9769000Y-8556030D02*
G75*
G03*
X9769000Y-8556030I-150000J0D01*
G01*
X9896000Y-4492000D02*
G75*
G03*
X9896000Y-4492000I-150000J0D01*
G01*
X9896000Y-6397015D02*
G75*
G03*
X9896000Y-6397015I-150000J0D01*
G01*
X9896000Y-8302030D02*
G75*
G03*
X9896000Y-8302030I-150000J0D01*
G01*
X10007200Y-10461015D02*
G75*
G03*
X10007200Y-10461015I-150000J0D01*
G01*
X10134200Y-10207015D02*
G75*
G03*
X10134200Y-10207015I-150000J0D01*
G01*
X10404000Y-4492000D02*
G75*
G03*
X10404000Y-4492000I-150000J0D01*
G01*
X10404000Y-6397015D02*
G75*
G03*
X10404000Y-6397015I-150000J0D01*
G01*
X10404000Y-8302030D02*
G75*
G03*
X10404000Y-8302030I-150000J0D01*
G01*
X10531000Y-4746000D02*
G75*
G03*
X10531000Y-4746000I-150000J0D01*
G01*
X10531000Y-6651015D02*
G75*
G03*
X10531000Y-6651015I-150000J0D01*
G01*
X10531000Y-8556030D02*
G75*
G03*
X10531000Y-8556030I-150000J0D01*
G01*
X10642200Y-10207015D02*
G75*
G03*
X10642200Y-10207015I-150000J0D01*
G01*
X10769200Y-10461015D02*
G75*
G03*
X10769200Y-10461015I-150000J0D01*
G01*
X11007100Y-12937485D02*
G75*
G03*
X11007100Y-12937485I-150000J0D01*
G01*
X11134100Y-12683485D02*
G75*
G03*
X11134100Y-12683485I-150000J0D01*
G01*
X11642100Y-12683485D02*
G75*
G03*
X11642100Y-12683485I-150000J0D01*
G01*
X11674000Y-4746000D02*
G75*
G03*
X11674000Y-4746000I-150000J0D01*
G01*
X11674000Y-6651015D02*
G75*
G03*
X11674000Y-6651015I-150000J0D01*
G01*
X11674000Y-8556030D02*
G75*
G03*
X11674000Y-8556030I-150000J0D01*
G01*
X11769100Y-12937485D02*
G75*
G03*
X11769100Y-12937485I-150000J0D01*
G01*
X11801000Y-4492000D02*
G75*
G03*
X11801000Y-4492000I-150000J0D01*
G01*
X11801000Y-6397015D02*
G75*
G03*
X11801000Y-6397015I-150000J0D01*
G01*
X11801000Y-8302030D02*
G75*
G03*
X11801000Y-8302030I-150000J0D01*
G01*
X12309000Y-4492000D02*
G75*
G03*
X12309000Y-4492000I-150000J0D01*
G01*
X12309000Y-6397015D02*
G75*
G03*
X12309000Y-6397015I-150000J0D01*
G01*
X12309000Y-8302030D02*
G75*
G03*
X12309000Y-8302030I-150000J0D01*
G01*
X12436000Y-4746000D02*
G75*
G03*
X12436000Y-4746000I-150000J0D01*
G01*
X12436000Y-6651015D02*
G75*
G03*
X12436000Y-6651015I-150000J0D01*
G01*
X12436000Y-8556030D02*
G75*
G03*
X12436000Y-8556030I-150000J0D01*
G01*
X12912100Y-11032480D02*
G75*
G03*
X12912100Y-11032480I-150000J0D01*
G01*
X12912100Y-12937485D02*
G75*
G03*
X12912100Y-12937485I-150000J0D01*
G01*
X13039100Y-10778480D02*
G75*
G03*
X13039100Y-10778480I-150000J0D01*
G01*
X13039100Y-12683485D02*
G75*
G03*
X13039100Y-12683485I-150000J0D01*
G01*
X13547100Y-10778480D02*
G75*
G03*
X13547100Y-10778480I-150000J0D01*
G01*
X13547100Y-12683485D02*
G75*
G03*
X13547100Y-12683485I-150000J0D01*
G01*
X13674100Y-11032480D02*
G75*
G03*
X13674100Y-11032480I-150000J0D01*
G01*
X13674100Y-12937485D02*
G75*
G03*
X13674100Y-12937485I-150000J0D01*
G01*
X14293400Y-7603515D02*
G75*
G03*
X14293400Y-7603515I-150000J0D01*
G01*
X14420400Y-7349515D02*
G75*
G03*
X14420400Y-7349515I-150000J0D01*
G01*
X14531500Y-4746000D02*
G75*
G03*
X14531500Y-4746000I-150000J0D01*
G01*
X14658500Y-4492000D02*
G75*
G03*
X14658500Y-4492000I-150000J0D01*
G01*
X14817100Y-12937485D02*
G75*
G03*
X14817100Y-12937485I-150000J0D01*
G01*
X14928400Y-7349515D02*
G75*
G03*
X14928400Y-7349515I-150000J0D01*
G01*
X14944100Y-12683485D02*
G75*
G03*
X14944100Y-12683485I-150000J0D01*
G01*
X15055400Y-7603515D02*
G75*
G03*
X15055400Y-7603515I-150000J0D01*
G01*
X15166500Y-4492000D02*
G75*
G03*
X15166500Y-4492000I-150000J0D01*
G01*
X15293500Y-4746000D02*
G75*
G03*
X15293500Y-4746000I-150000J0D01*
G01*
X15452100Y-12683485D02*
G75*
G03*
X15452100Y-12683485I-150000J0D01*
G01*
X15579100Y-12937485D02*
G75*
G03*
X15579100Y-12937485I-150000J0D01*
G01*
X17103300Y-7798975D02*
G75*
G03*
X17103300Y-7798975I-150000J0D01*
G01*
X17103300Y-9698945D02*
G75*
G03*
X17103300Y-9698945I-150000J0D01*
G01*
X17103300Y-11603945D02*
G75*
G03*
X17103300Y-11603945I-150000J0D01*
G01*
X17230300Y-7544975D02*
G75*
G03*
X17230300Y-7544975I-150000J0D01*
G01*
X17230300Y-9444945D02*
G75*
G03*
X17230300Y-9444945I-150000J0D01*
G01*
X17230300Y-11349945D02*
G75*
G03*
X17230300Y-11349945I-150000J0D01*
G01*
X17738300Y-7544975D02*
G75*
G03*
X17738300Y-7544975I-150000J0D01*
G01*
X17738300Y-9444945D02*
G75*
G03*
X17738300Y-9444945I-150000J0D01*
G01*
X17738300Y-11349945D02*
G75*
G03*
X17738300Y-11349945I-150000J0D01*
G01*
X17865300Y-7798975D02*
G75*
G03*
X17865300Y-7798975I-150000J0D01*
G01*
X17865300Y-9698945D02*
G75*
G03*
X17865300Y-9698945I-150000J0D01*
G01*
X17865300Y-11603945D02*
G75*
G03*
X17865300Y-11603945I-150000J0D01*
G01*
D14*
X10000000Y-4800610D02*
X10000000Y-5199390D01*
X9800610Y-5000000D02*
X10199390Y-5000000D01*
X10000000Y-4800610D02*
X10000000Y-5199390D01*
X9800610Y-5000000D02*
X10199390Y-5000000D01*
X10000000Y-6705625D02*
X10000000Y-7104405D01*
X9800610Y-6905015D02*
X10199390Y-6905015D01*
X10000000Y-6705625D02*
X10000000Y-7104405D01*
X9800610Y-6905015D02*
X10199390Y-6905015D01*
X10000000Y-8610640D02*
X10000000Y-9009420D01*
X9800610Y-8810030D02*
X10199390Y-8810030D01*
X10000000Y-8610640D02*
X10000000Y-9009420D01*
X9800610Y-8810030D02*
X10199390Y-8810030D01*
X10238200Y-10515625D02*
X10238200Y-10914405D01*
X10038810Y-10715015D02*
X10437590Y-10715015D01*
X10238200Y-10515625D02*
X10238200Y-10914405D01*
X10038810Y-10715015D02*
X10437590Y-10715015D01*
X11238100Y-12992095D02*
X11238100Y-13390875D01*
X11038710Y-13191485D02*
X11437490Y-13191485D01*
X11238100Y-12992095D02*
X11238100Y-13390875D01*
X11038710Y-13191485D02*
X11437490Y-13191485D01*
X11905000Y-4800610D02*
X11905000Y-5199390D01*
X11705610Y-5000000D02*
X12104390Y-5000000D01*
X11905000Y-4800610D02*
X11905000Y-5199390D01*
X11705610Y-5000000D02*
X12104390Y-5000000D01*
X11905000Y-6705625D02*
X11905000Y-7104405D01*
X11705610Y-6905015D02*
X12104390Y-6905015D01*
X11905000Y-6705625D02*
X11905000Y-7104405D01*
X11705610Y-6905015D02*
X12104390Y-6905015D01*
X11905000Y-8610640D02*
X11905000Y-9009420D01*
X11705610Y-8810030D02*
X12104390Y-8810030D01*
X11905000Y-8610640D02*
X11905000Y-9009420D01*
X11705610Y-8810030D02*
X12104390Y-8810030D01*
X13143100Y-11087090D02*
X13143100Y-11485870D01*
X12943710Y-11286480D02*
X13342490Y-11286480D01*
X13143100Y-11087090D02*
X13143100Y-11485870D01*
X12943710Y-11286480D02*
X13342490Y-11286480D01*
X13143100Y-12992095D02*
X13143100Y-13390875D01*
X12943710Y-13191485D02*
X13342490Y-13191485D01*
X13143100Y-12992095D02*
X13143100Y-13390875D01*
X12943710Y-13191485D02*
X13342490Y-13191485D01*
X14524400Y-7658125D02*
X14524400Y-8056905D01*
X14325010Y-7857515D02*
X14723790Y-7857515D01*
X14524400Y-7658125D02*
X14524400Y-8056905D01*
X14325010Y-7857515D02*
X14723790Y-7857515D01*
X14762500Y-4800610D02*
X14762500Y-5199390D01*
X14563110Y-5000000D02*
X14961890Y-5000000D01*
X14762500Y-4800610D02*
X14762500Y-5199390D01*
X14563110Y-5000000D02*
X14961890Y-5000000D01*
X15048100Y-12992095D02*
X15048100Y-13390875D01*
X14848710Y-13191485D02*
X15247490Y-13191485D01*
X15048100Y-12992095D02*
X15048100Y-13390875D01*
X14848710Y-13191485D02*
X15247490Y-13191485D01*
X17334300Y-7853585D02*
X17334300Y-8252365D01*
X17134910Y-8052975D02*
X17533690Y-8052975D01*
X17334300Y-7853585D02*
X17334300Y-8252365D01*
X17134910Y-8052975D02*
X17533690Y-8052975D01*
X17334300Y-9753555D02*
X17334300Y-10152335D01*
X17134910Y-9952945D02*
X17533690Y-9952945D01*
X17334300Y-9753555D02*
X17334300Y-10152335D01*
X17134910Y-9952945D02*
X17533690Y-9952945D01*
X17334300Y-11658555D02*
X17334300Y-12057335D01*
X17134910Y-11857945D02*
X17533690Y-11857945D01*
X17334300Y-11658555D02*
X17334300Y-12057335D01*
X17134910Y-11857945D02*
X17533690Y-11857945D01*
D11*
X9298302Y-14783875D02*
X9298302Y-14583875D01*
X9298302Y-14583875D02*
X9345921Y-14583875D01*
X9345921Y-14583875D02*
X9374492Y-14593399D01*
X9374492Y-14593399D02*
X9393540Y-14612447D01*
X9393540Y-14612447D02*
X9403064Y-14631494D01*
X9403064Y-14631494D02*
X9412588Y-14669589D01*
X9412588Y-14669589D02*
X9412588Y-14698161D01*
X9412588Y-14698161D02*
X9403064Y-14736256D01*
X9403064Y-14736256D02*
X9393540Y-14755304D01*
X9393540Y-14755304D02*
X9374492Y-14774351D01*
X9374492Y-14774351D02*
X9345921Y-14783875D01*
X9345921Y-14783875D02*
X9298302Y-14783875D01*
X9498302Y-14783875D02*
X9498302Y-14650542D01*
X9498302Y-14688637D02*
X9507826Y-14669589D01*
X9507826Y-14669589D02*
X9517349Y-14660066D01*
X9517349Y-14660066D02*
X9536397Y-14650542D01*
X9536397Y-14650542D02*
X9555445Y-14650542D01*
X9622111Y-14783875D02*
X9622111Y-14650542D01*
X9622111Y-14583875D02*
X9612588Y-14593399D01*
X9612588Y-14593399D02*
X9622111Y-14602923D01*
X9622111Y-14602923D02*
X9631635Y-14593399D01*
X9631635Y-14593399D02*
X9622111Y-14583875D01*
X9622111Y-14583875D02*
X9622111Y-14602923D01*
X9745921Y-14783875D02*
X9726873Y-14774351D01*
X9726873Y-14774351D02*
X9717349Y-14755304D01*
X9717349Y-14755304D02*
X9717349Y-14583875D01*
X9850683Y-14783875D02*
X9831635Y-14774351D01*
X9831635Y-14774351D02*
X9822111Y-14755304D01*
X9822111Y-14755304D02*
X9822111Y-14583875D01*
X10079254Y-14783875D02*
X10079254Y-14583875D01*
X10079254Y-14583875D02*
X10145921Y-14726732D01*
X10145921Y-14726732D02*
X10212588Y-14583875D01*
X10212588Y-14583875D02*
X10212588Y-14783875D01*
X10393540Y-14783875D02*
X10393540Y-14679113D01*
X10393540Y-14679113D02*
X10384016Y-14660066D01*
X10384016Y-14660066D02*
X10364969Y-14650542D01*
X10364969Y-14650542D02*
X10326873Y-14650542D01*
X10326873Y-14650542D02*
X10307826Y-14660066D01*
X10393540Y-14774351D02*
X10374492Y-14783875D01*
X10374492Y-14783875D02*
X10326873Y-14783875D01*
X10326873Y-14783875D02*
X10307826Y-14774351D01*
X10307826Y-14774351D02*
X10298302Y-14755304D01*
X10298302Y-14755304D02*
X10298302Y-14736256D01*
X10298302Y-14736256D02*
X10307826Y-14717208D01*
X10307826Y-14717208D02*
X10326873Y-14707685D01*
X10326873Y-14707685D02*
X10374492Y-14707685D01*
X10374492Y-14707685D02*
X10393540Y-14698161D01*
X10488778Y-14650542D02*
X10488778Y-14850542D01*
X10488778Y-14660066D02*
X10507826Y-14650542D01*
X10507826Y-14650542D02*
X10545921Y-14650542D01*
X10545921Y-14650542D02*
X10564969Y-14660066D01*
X10564969Y-14660066D02*
X10574492Y-14669589D01*
X10574492Y-14669589D02*
X10584016Y-14688637D01*
X10584016Y-14688637D02*
X10584016Y-14745780D01*
X10584016Y-14745780D02*
X10574492Y-14764827D01*
X10574492Y-14764827D02*
X10564969Y-14774351D01*
X10564969Y-14774351D02*
X10545921Y-14783875D01*
X10545921Y-14783875D02*
X10507826Y-14783875D01*
X10507826Y-14783875D02*
X10488778Y-14774351D01*
X10669730Y-14764827D02*
X10679254Y-14774351D01*
X10679254Y-14774351D02*
X10669730Y-14783875D01*
X10669730Y-14783875D02*
X10660207Y-14774351D01*
X10660207Y-14774351D02*
X10669730Y-14764827D01*
X10669730Y-14764827D02*
X10669730Y-14783875D01*
X10669730Y-14660066D02*
X10679254Y-14669589D01*
X10679254Y-14669589D02*
X10669730Y-14679113D01*
X10669730Y-14679113D02*
X10660207Y-14669589D01*
X10660207Y-14669589D02*
X10669730Y-14660066D01*
X10669730Y-14660066D02*
X10669730Y-14679113D01*
D12*
X8867345Y-15027301D02*
X9037525Y-15197481D01*
X9037525Y-15027301D02*
X8867345Y-15197481D01*
D11*
X9403064Y-15203875D02*
X9288778Y-15203875D01*
X9345921Y-15203875D02*
X9345921Y-15003875D01*
X9345921Y-15003875D02*
X9326873Y-15032447D01*
X9326873Y-15032447D02*
X9307826Y-15051494D01*
X9307826Y-15051494D02*
X9288778Y-15061018D01*
X9488778Y-15184827D02*
X9498302Y-15194351D01*
X9498302Y-15194351D02*
X9488778Y-15203875D01*
X9488778Y-15203875D02*
X9479254Y-15194351D01*
X9479254Y-15194351D02*
X9488778Y-15184827D01*
X9488778Y-15184827D02*
X9488778Y-15203875D01*
X9564969Y-15003875D02*
X9698302Y-15003875D01*
X9698302Y-15003875D02*
X9612588Y-15203875D01*
X9812588Y-15003875D02*
X9831635Y-15003875D01*
X9831635Y-15003875D02*
X9850683Y-15013399D01*
X9850683Y-15013399D02*
X9860207Y-15022923D01*
X9860207Y-15022923D02*
X9869730Y-15041970D01*
X9869730Y-15041970D02*
X9879254Y-15080066D01*
X9879254Y-15080066D02*
X9879254Y-15127685D01*
X9879254Y-15127685D02*
X9869730Y-15165780D01*
X9869730Y-15165780D02*
X9860207Y-15184827D01*
X9860207Y-15184827D02*
X9850683Y-15194351D01*
X9850683Y-15194351D02*
X9831635Y-15203875D01*
X9831635Y-15203875D02*
X9812588Y-15203875D01*
X9812588Y-15203875D02*
X9793540Y-15194351D01*
X9793540Y-15194351D02*
X9784016Y-15184827D01*
X9784016Y-15184827D02*
X9774492Y-15165780D01*
X9774492Y-15165780D02*
X9764969Y-15127685D01*
X9764969Y-15127685D02*
X9764969Y-15080066D01*
X9764969Y-15080066D02*
X9774492Y-15041970D01*
X9774492Y-15041970D02*
X9784016Y-15022923D01*
X9784016Y-15022923D02*
X9793540Y-15013399D01*
X9793540Y-15013399D02*
X9812588Y-15003875D01*
X9955445Y-15022923D02*
X9964969Y-15013399D01*
X9964969Y-15013399D02*
X9984016Y-15003875D01*
X9984016Y-15003875D02*
X10031635Y-15003875D01*
X10031635Y-15003875D02*
X10050683Y-15013399D01*
X10050683Y-15013399D02*
X10060207Y-15022923D01*
X10060207Y-15022923D02*
X10069730Y-15041970D01*
X10069730Y-15041970D02*
X10069730Y-15061018D01*
X10069730Y-15061018D02*
X10060207Y-15089589D01*
X10060207Y-15089589D02*
X9945921Y-15203875D01*
X9945921Y-15203875D02*
X10069730Y-15203875D01*
X10155445Y-15203875D02*
X10155445Y-15070542D01*
X10155445Y-15089589D02*
X10164969Y-15080066D01*
X10164969Y-15080066D02*
X10184016Y-15070542D01*
X10184016Y-15070542D02*
X10212588Y-15070542D01*
X10212588Y-15070542D02*
X10231635Y-15080066D01*
X10231635Y-15080066D02*
X10241159Y-15099113D01*
X10241159Y-15099113D02*
X10241159Y-15203875D01*
X10241159Y-15099113D02*
X10250683Y-15080066D01*
X10250683Y-15080066D02*
X10269730Y-15070542D01*
X10269730Y-15070542D02*
X10298302Y-15070542D01*
X10298302Y-15070542D02*
X10317350Y-15080066D01*
X10317350Y-15080066D02*
X10326873Y-15099113D01*
X10326873Y-15099113D02*
X10326873Y-15203875D01*
X10422111Y-15203875D02*
X10422111Y-15070542D01*
X10422111Y-15089589D02*
X10431635Y-15080066D01*
X10431635Y-15080066D02*
X10450683Y-15070542D01*
X10450683Y-15070542D02*
X10479254Y-15070542D01*
X10479254Y-15070542D02*
X10498302Y-15080066D01*
X10498302Y-15080066D02*
X10507826Y-15099113D01*
X10507826Y-15099113D02*
X10507826Y-15203875D01*
X10507826Y-15099113D02*
X10517350Y-15080066D01*
X10517350Y-15080066D02*
X10536397Y-15070542D01*
X10536397Y-15070542D02*
X10564969Y-15070542D01*
X10564969Y-15070542D02*
X10584016Y-15080066D01*
X10584016Y-15080066D02*
X10593540Y-15099113D01*
X10593540Y-15099113D02*
X10593540Y-15203875D01*
X10984016Y-14994351D02*
X10812588Y-15251494D01*
X11241159Y-15003875D02*
X11260207Y-15003875D01*
X11260207Y-15003875D02*
X11279254Y-15013399D01*
X11279254Y-15013399D02*
X11288778Y-15022923D01*
X11288778Y-15022923D02*
X11298302Y-15041970D01*
X11298302Y-15041970D02*
X11307826Y-15080066D01*
X11307826Y-15080066D02*
X11307826Y-15127685D01*
X11307826Y-15127685D02*
X11298302Y-15165780D01*
X11298302Y-15165780D02*
X11288778Y-15184827D01*
X11288778Y-15184827D02*
X11279254Y-15194351D01*
X11279254Y-15194351D02*
X11260207Y-15203875D01*
X11260207Y-15203875D02*
X11241159Y-15203875D01*
X11241159Y-15203875D02*
X11222111Y-15194351D01*
X11222111Y-15194351D02*
X11212588Y-15184827D01*
X11212588Y-15184827D02*
X11203064Y-15165780D01*
X11203064Y-15165780D02*
X11193540Y-15127685D01*
X11193540Y-15127685D02*
X11193540Y-15080066D01*
X11193540Y-15080066D02*
X11203064Y-15041970D01*
X11203064Y-15041970D02*
X11212588Y-15022923D01*
X11212588Y-15022923D02*
X11222111Y-15013399D01*
X11222111Y-15013399D02*
X11241159Y-15003875D01*
X11393540Y-15184827D02*
X11403064Y-15194351D01*
X11403064Y-15194351D02*
X11393540Y-15203875D01*
X11393540Y-15203875D02*
X11384016Y-15194351D01*
X11384016Y-15194351D02*
X11393540Y-15184827D01*
X11393540Y-15184827D02*
X11393540Y-15203875D01*
X11526873Y-15003875D02*
X11545921Y-15003875D01*
X11545921Y-15003875D02*
X11564969Y-15013399D01*
X11564969Y-15013399D02*
X11574492Y-15022923D01*
X11574492Y-15022923D02*
X11584016Y-15041970D01*
X11584016Y-15041970D02*
X11593540Y-15080066D01*
X11593540Y-15080066D02*
X11593540Y-15127685D01*
X11593540Y-15127685D02*
X11584016Y-15165780D01*
X11584016Y-15165780D02*
X11574492Y-15184827D01*
X11574492Y-15184827D02*
X11564969Y-15194351D01*
X11564969Y-15194351D02*
X11545921Y-15203875D01*
X11545921Y-15203875D02*
X11526873Y-15203875D01*
X11526873Y-15203875D02*
X11507826Y-15194351D01*
X11507826Y-15194351D02*
X11498302Y-15184827D01*
X11498302Y-15184827D02*
X11488778Y-15165780D01*
X11488778Y-15165780D02*
X11479254Y-15127685D01*
X11479254Y-15127685D02*
X11479254Y-15080066D01*
X11479254Y-15080066D02*
X11488778Y-15041970D01*
X11488778Y-15041970D02*
X11498302Y-15022923D01*
X11498302Y-15022923D02*
X11507826Y-15013399D01*
X11507826Y-15013399D02*
X11526873Y-15003875D01*
X11764969Y-15003875D02*
X11726873Y-15003875D01*
X11726873Y-15003875D02*
X11707826Y-15013399D01*
X11707826Y-15013399D02*
X11698302Y-15022923D01*
X11698302Y-15022923D02*
X11679254Y-15051494D01*
X11679254Y-15051494D02*
X11669731Y-15089589D01*
X11669731Y-15089589D02*
X11669731Y-15165780D01*
X11669731Y-15165780D02*
X11679254Y-15184827D01*
X11679254Y-15184827D02*
X11688778Y-15194351D01*
X11688778Y-15194351D02*
X11707826Y-15203875D01*
X11707826Y-15203875D02*
X11745921Y-15203875D01*
X11745921Y-15203875D02*
X11764969Y-15194351D01*
X11764969Y-15194351D02*
X11774492Y-15184827D01*
X11774492Y-15184827D02*
X11784016Y-15165780D01*
X11784016Y-15165780D02*
X11784016Y-15118161D01*
X11784016Y-15118161D02*
X11774492Y-15099113D01*
X11774492Y-15099113D02*
X11764969Y-15089589D01*
X11764969Y-15089589D02*
X11745921Y-15080066D01*
X11745921Y-15080066D02*
X11707826Y-15080066D01*
X11707826Y-15080066D02*
X11688778Y-15089589D01*
X11688778Y-15089589D02*
X11679254Y-15099113D01*
X11679254Y-15099113D02*
X11669731Y-15118161D01*
X11850683Y-15003875D02*
X11984016Y-15003875D01*
X11984016Y-15003875D02*
X11898302Y-15203875D01*
X12098302Y-15003875D02*
X12117350Y-15003875D01*
X12117350Y-15003875D02*
X12136397Y-15013399D01*
X12136397Y-15013399D02*
X12145921Y-15022923D01*
X12145921Y-15022923D02*
X12155445Y-15041970D01*
X12155445Y-15041970D02*
X12164969Y-15080066D01*
X12164969Y-15080066D02*
X12164969Y-15127685D01*
X12164969Y-15127685D02*
X12155445Y-15165780D01*
X12155445Y-15165780D02*
X12145921Y-15184827D01*
X12145921Y-15184827D02*
X12136397Y-15194351D01*
X12136397Y-15194351D02*
X12117350Y-15203875D01*
X12117350Y-15203875D02*
X12098302Y-15203875D01*
X12098302Y-15203875D02*
X12079254Y-15194351D01*
X12079254Y-15194351D02*
X12069731Y-15184827D01*
X12069731Y-15184827D02*
X12060207Y-15165780D01*
X12060207Y-15165780D02*
X12050683Y-15127685D01*
X12050683Y-15127685D02*
X12050683Y-15080066D01*
X12050683Y-15080066D02*
X12060207Y-15041970D01*
X12060207Y-15041970D02*
X12069731Y-15022923D01*
X12069731Y-15022923D02*
X12079254Y-15013399D01*
X12079254Y-15013399D02*
X12098302Y-15003875D01*
X12241159Y-15003875D02*
X12241159Y-15041970D01*
X12317350Y-15003875D02*
X12317350Y-15041970D01*
X12612588Y-15280066D02*
X12603064Y-15270542D01*
X12603064Y-15270542D02*
X12584016Y-15241970D01*
X12584016Y-15241970D02*
X12574493Y-15222923D01*
X12574493Y-15222923D02*
X12564969Y-15194351D01*
X12564969Y-15194351D02*
X12555445Y-15146732D01*
X12555445Y-15146732D02*
X12555445Y-15108637D01*
X12555445Y-15108637D02*
X12564969Y-15061018D01*
X12564969Y-15061018D02*
X12574493Y-15032447D01*
X12574493Y-15032447D02*
X12584016Y-15013399D01*
X12584016Y-15013399D02*
X12603064Y-14984827D01*
X12603064Y-14984827D02*
X12612588Y-14975304D01*
X12774493Y-15003875D02*
X12736397Y-15003875D01*
X12736397Y-15003875D02*
X12717350Y-15013399D01*
X12717350Y-15013399D02*
X12707826Y-15022923D01*
X12707826Y-15022923D02*
X12688778Y-15051494D01*
X12688778Y-15051494D02*
X12679254Y-15089589D01*
X12679254Y-15089589D02*
X12679254Y-15165780D01*
X12679254Y-15165780D02*
X12688778Y-15184827D01*
X12688778Y-15184827D02*
X12698302Y-15194351D01*
X12698302Y-15194351D02*
X12717350Y-15203875D01*
X12717350Y-15203875D02*
X12755445Y-15203875D01*
X12755445Y-15203875D02*
X12774493Y-15194351D01*
X12774493Y-15194351D02*
X12784016Y-15184827D01*
X12784016Y-15184827D02*
X12793540Y-15165780D01*
X12793540Y-15165780D02*
X12793540Y-15118161D01*
X12793540Y-15118161D02*
X12784016Y-15099113D01*
X12784016Y-15099113D02*
X12774493Y-15089589D01*
X12774493Y-15089589D02*
X12755445Y-15080066D01*
X12755445Y-15080066D02*
X12717350Y-15080066D01*
X12717350Y-15080066D02*
X12698302Y-15089589D01*
X12698302Y-15089589D02*
X12688778Y-15099113D01*
X12688778Y-15099113D02*
X12679254Y-15118161D01*
X12964969Y-15070542D02*
X12964969Y-15203875D01*
X12917350Y-14994351D02*
X12869731Y-15137208D01*
X12869731Y-15137208D02*
X12993540Y-15137208D01*
X13222112Y-15203875D02*
X13222112Y-15003875D01*
X13307826Y-15203875D02*
X13307826Y-15099113D01*
X13307826Y-15099113D02*
X13298302Y-15080066D01*
X13298302Y-15080066D02*
X13279255Y-15070542D01*
X13279255Y-15070542D02*
X13250683Y-15070542D01*
X13250683Y-15070542D02*
X13231635Y-15080066D01*
X13231635Y-15080066D02*
X13222112Y-15089589D01*
X13431635Y-15203875D02*
X13412588Y-15194351D01*
X13412588Y-15194351D02*
X13403064Y-15184827D01*
X13403064Y-15184827D02*
X13393540Y-15165780D01*
X13393540Y-15165780D02*
X13393540Y-15108637D01*
X13393540Y-15108637D02*
X13403064Y-15089589D01*
X13403064Y-15089589D02*
X13412588Y-15080066D01*
X13412588Y-15080066D02*
X13431635Y-15070542D01*
X13431635Y-15070542D02*
X13460207Y-15070542D01*
X13460207Y-15070542D02*
X13479255Y-15080066D01*
X13479255Y-15080066D02*
X13488778Y-15089589D01*
X13488778Y-15089589D02*
X13498302Y-15108637D01*
X13498302Y-15108637D02*
X13498302Y-15165780D01*
X13498302Y-15165780D02*
X13488778Y-15184827D01*
X13488778Y-15184827D02*
X13479255Y-15194351D01*
X13479255Y-15194351D02*
X13460207Y-15203875D01*
X13460207Y-15203875D02*
X13431635Y-15203875D01*
X13612588Y-15203875D02*
X13593540Y-15194351D01*
X13593540Y-15194351D02*
X13584016Y-15175304D01*
X13584016Y-15175304D02*
X13584016Y-15003875D01*
X13764969Y-15194351D02*
X13745921Y-15203875D01*
X13745921Y-15203875D02*
X13707826Y-15203875D01*
X13707826Y-15203875D02*
X13688778Y-15194351D01*
X13688778Y-15194351D02*
X13679255Y-15175304D01*
X13679255Y-15175304D02*
X13679255Y-15099113D01*
X13679255Y-15099113D02*
X13688778Y-15080066D01*
X13688778Y-15080066D02*
X13707826Y-15070542D01*
X13707826Y-15070542D02*
X13745921Y-15070542D01*
X13745921Y-15070542D02*
X13764969Y-15080066D01*
X13764969Y-15080066D02*
X13774493Y-15099113D01*
X13774493Y-15099113D02*
X13774493Y-15118161D01*
X13774493Y-15118161D02*
X13679255Y-15137208D01*
X13850683Y-15194351D02*
X13869731Y-15203875D01*
X13869731Y-15203875D02*
X13907826Y-15203875D01*
X13907826Y-15203875D02*
X13926874Y-15194351D01*
X13926874Y-15194351D02*
X13936397Y-15175304D01*
X13936397Y-15175304D02*
X13936397Y-15165780D01*
X13936397Y-15165780D02*
X13926874Y-15146732D01*
X13926874Y-15146732D02*
X13907826Y-15137208D01*
X13907826Y-15137208D02*
X13879255Y-15137208D01*
X13879255Y-15137208D02*
X13860207Y-15127685D01*
X13860207Y-15127685D02*
X13850683Y-15108637D01*
X13850683Y-15108637D02*
X13850683Y-15099113D01*
X13850683Y-15099113D02*
X13860207Y-15080066D01*
X13860207Y-15080066D02*
X13879255Y-15070542D01*
X13879255Y-15070542D02*
X13907826Y-15070542D01*
X13907826Y-15070542D02*
X13926874Y-15080066D01*
X14003064Y-15280066D02*
X14012588Y-15270542D01*
X14012588Y-15270542D02*
X14031636Y-15241970D01*
X14031636Y-15241970D02*
X14041159Y-15222923D01*
X14041159Y-15222923D02*
X14050683Y-15194351D01*
X14050683Y-15194351D02*
X14060207Y-15146732D01*
X14060207Y-15146732D02*
X14060207Y-15108637D01*
X14060207Y-15108637D02*
X14050683Y-15061018D01*
X14050683Y-15061018D02*
X14041159Y-15032447D01*
X14041159Y-15032447D02*
X14031636Y-15013399D01*
X14031636Y-15013399D02*
X14012588Y-14984827D01*
X14012588Y-14984827D02*
X14003064Y-14975304D01*
X14364969Y-15280066D02*
X14355445Y-15270542D01*
X14355445Y-15270542D02*
X14336397Y-15241970D01*
X14336397Y-15241970D02*
X14326874Y-15222923D01*
X14326874Y-15222923D02*
X14317350Y-15194351D01*
X14317350Y-15194351D02*
X14307826Y-15146732D01*
X14307826Y-15146732D02*
X14307826Y-15108637D01*
X14307826Y-15108637D02*
X14317350Y-15061018D01*
X14317350Y-15061018D02*
X14326874Y-15032447D01*
X14326874Y-15032447D02*
X14336397Y-15013399D01*
X14336397Y-15013399D02*
X14355445Y-14984827D01*
X14355445Y-14984827D02*
X14364969Y-14975304D01*
X14441159Y-15070542D02*
X14441159Y-15203875D01*
X14441159Y-15089589D02*
X14450683Y-15080066D01*
X14450683Y-15080066D02*
X14469731Y-15070542D01*
X14469731Y-15070542D02*
X14498302Y-15070542D01*
X14498302Y-15070542D02*
X14517350Y-15080066D01*
X14517350Y-15080066D02*
X14526874Y-15099113D01*
X14526874Y-15099113D02*
X14526874Y-15203875D01*
X14650683Y-15203875D02*
X14631636Y-15194351D01*
X14631636Y-15194351D02*
X14622112Y-15184827D01*
X14622112Y-15184827D02*
X14612588Y-15165780D01*
X14612588Y-15165780D02*
X14612588Y-15108637D01*
X14612588Y-15108637D02*
X14622112Y-15089589D01*
X14622112Y-15089589D02*
X14631636Y-15080066D01*
X14631636Y-15080066D02*
X14650683Y-15070542D01*
X14650683Y-15070542D02*
X14679255Y-15070542D01*
X14679255Y-15070542D02*
X14698302Y-15080066D01*
X14698302Y-15080066D02*
X14707826Y-15089589D01*
X14707826Y-15089589D02*
X14717350Y-15108637D01*
X14717350Y-15108637D02*
X14717350Y-15165780D01*
X14717350Y-15165780D02*
X14707826Y-15184827D01*
X14707826Y-15184827D02*
X14698302Y-15194351D01*
X14698302Y-15194351D02*
X14679255Y-15203875D01*
X14679255Y-15203875D02*
X14650683Y-15203875D01*
X14774493Y-15070542D02*
X14850683Y-15070542D01*
X14803064Y-15003875D02*
X14803064Y-15175304D01*
X14803064Y-15175304D02*
X14812588Y-15194351D01*
X14812588Y-15194351D02*
X14831636Y-15203875D01*
X14831636Y-15203875D02*
X14850683Y-15203875D01*
X15069731Y-15070542D02*
X15069731Y-15270542D01*
X15069731Y-15080066D02*
X15088778Y-15070542D01*
X15088778Y-15070542D02*
X15126874Y-15070542D01*
X15126874Y-15070542D02*
X15145921Y-15080066D01*
X15145921Y-15080066D02*
X15155445Y-15089589D01*
X15155445Y-15089589D02*
X15164969Y-15108637D01*
X15164969Y-15108637D02*
X15164969Y-15165780D01*
X15164969Y-15165780D02*
X15155445Y-15184827D01*
X15155445Y-15184827D02*
X15145921Y-15194351D01*
X15145921Y-15194351D02*
X15126874Y-15203875D01*
X15126874Y-15203875D02*
X15088778Y-15203875D01*
X15088778Y-15203875D02*
X15069731Y-15194351D01*
X15279255Y-15203875D02*
X15260207Y-15194351D01*
X15260207Y-15194351D02*
X15250683Y-15175304D01*
X15250683Y-15175304D02*
X15250683Y-15003875D01*
X15441159Y-15203875D02*
X15441159Y-15099113D01*
X15441159Y-15099113D02*
X15431636Y-15080066D01*
X15431636Y-15080066D02*
X15412588Y-15070542D01*
X15412588Y-15070542D02*
X15374493Y-15070542D01*
X15374493Y-15070542D02*
X15355445Y-15080066D01*
X15441159Y-15194351D02*
X15422112Y-15203875D01*
X15422112Y-15203875D02*
X15374493Y-15203875D01*
X15374493Y-15203875D02*
X15355445Y-15194351D01*
X15355445Y-15194351D02*
X15345921Y-15175304D01*
X15345921Y-15175304D02*
X15345921Y-15156256D01*
X15345921Y-15156256D02*
X15355445Y-15137208D01*
X15355445Y-15137208D02*
X15374493Y-15127685D01*
X15374493Y-15127685D02*
X15422112Y-15127685D01*
X15422112Y-15127685D02*
X15441159Y-15118161D01*
X15507826Y-15070542D02*
X15584017Y-15070542D01*
X15536398Y-15003875D02*
X15536398Y-15175304D01*
X15536398Y-15175304D02*
X15545921Y-15194351D01*
X15545921Y-15194351D02*
X15564969Y-15203875D01*
X15564969Y-15203875D02*
X15584017Y-15203875D01*
X15726874Y-15194351D02*
X15707826Y-15203875D01*
X15707826Y-15203875D02*
X15669731Y-15203875D01*
X15669731Y-15203875D02*
X15650683Y-15194351D01*
X15650683Y-15194351D02*
X15641159Y-15175304D01*
X15641159Y-15175304D02*
X15641159Y-15099113D01*
X15641159Y-15099113D02*
X15650683Y-15080066D01*
X15650683Y-15080066D02*
X15669731Y-15070542D01*
X15669731Y-15070542D02*
X15707826Y-15070542D01*
X15707826Y-15070542D02*
X15726874Y-15080066D01*
X15726874Y-15080066D02*
X15736398Y-15099113D01*
X15736398Y-15099113D02*
X15736398Y-15118161D01*
X15736398Y-15118161D02*
X15641159Y-15137208D01*
X15907826Y-15203875D02*
X15907826Y-15003875D01*
X15907826Y-15194351D02*
X15888779Y-15203875D01*
X15888779Y-15203875D02*
X15850683Y-15203875D01*
X15850683Y-15203875D02*
X15831636Y-15194351D01*
X15831636Y-15194351D02*
X15822112Y-15184827D01*
X15822112Y-15184827D02*
X15812588Y-15165780D01*
X15812588Y-15165780D02*
X15812588Y-15108637D01*
X15812588Y-15108637D02*
X15822112Y-15089589D01*
X15822112Y-15089589D02*
X15831636Y-15080066D01*
X15831636Y-15080066D02*
X15850683Y-15070542D01*
X15850683Y-15070542D02*
X15888779Y-15070542D01*
X15888779Y-15070542D02*
X15907826Y-15080066D01*
X15984017Y-15280066D02*
X15993540Y-15270542D01*
X15993540Y-15270542D02*
X16012588Y-15241970D01*
X16012588Y-15241970D02*
X16022112Y-15222923D01*
X16022112Y-15222923D02*
X16031636Y-15194351D01*
X16031636Y-15194351D02*
X16041159Y-15146732D01*
X16041159Y-15146732D02*
X16041159Y-15108637D01*
X16041159Y-15108637D02*
X16031636Y-15061018D01*
X16031636Y-15061018D02*
X16022112Y-15032447D01*
X16022112Y-15032447D02*
X16012588Y-15013399D01*
X16012588Y-15013399D02*
X15993540Y-14984827D01*
X15993540Y-14984827D02*
X15984017Y-14975304D01*
X9037525Y-15402571D02*
G75*
G03*
X9037525Y-15402571I-100000J0D01*
G01*
X9279254Y-15294055D02*
X9403064Y-15294055D01*
X9403064Y-15294055D02*
X9336397Y-15370246D01*
X9336397Y-15370246D02*
X9364969Y-15370246D01*
X9364969Y-15370246D02*
X9384016Y-15379769D01*
X9384016Y-15379769D02*
X9393540Y-15389293D01*
X9393540Y-15389293D02*
X9403064Y-15408341D01*
X9403064Y-15408341D02*
X9403064Y-15455960D01*
X9403064Y-15455960D02*
X9393540Y-15475007D01*
X9393540Y-15475007D02*
X9384016Y-15484531D01*
X9384016Y-15484531D02*
X9364969Y-15494055D01*
X9364969Y-15494055D02*
X9307826Y-15494055D01*
X9307826Y-15494055D02*
X9288778Y-15484531D01*
X9288778Y-15484531D02*
X9279254Y-15475007D01*
X9488778Y-15475007D02*
X9498302Y-15484531D01*
X9498302Y-15484531D02*
X9488778Y-15494055D01*
X9488778Y-15494055D02*
X9479254Y-15484531D01*
X9479254Y-15484531D02*
X9488778Y-15475007D01*
X9488778Y-15475007D02*
X9488778Y-15494055D01*
X9622111Y-15294055D02*
X9641159Y-15294055D01*
X9641159Y-15294055D02*
X9660207Y-15303579D01*
X9660207Y-15303579D02*
X9669730Y-15313103D01*
X9669730Y-15313103D02*
X9679254Y-15332150D01*
X9679254Y-15332150D02*
X9688778Y-15370246D01*
X9688778Y-15370246D02*
X9688778Y-15417865D01*
X9688778Y-15417865D02*
X9679254Y-15455960D01*
X9679254Y-15455960D02*
X9669730Y-15475007D01*
X9669730Y-15475007D02*
X9660207Y-15484531D01*
X9660207Y-15484531D02*
X9641159Y-15494055D01*
X9641159Y-15494055D02*
X9622111Y-15494055D01*
X9622111Y-15494055D02*
X9603064Y-15484531D01*
X9603064Y-15484531D02*
X9593540Y-15475007D01*
X9593540Y-15475007D02*
X9584016Y-15455960D01*
X9584016Y-15455960D02*
X9574492Y-15417865D01*
X9574492Y-15417865D02*
X9574492Y-15370246D01*
X9574492Y-15370246D02*
X9584016Y-15332150D01*
X9584016Y-15332150D02*
X9593540Y-15313103D01*
X9593540Y-15313103D02*
X9603064Y-15303579D01*
X9603064Y-15303579D02*
X9622111Y-15294055D01*
X9812588Y-15294055D02*
X9831635Y-15294055D01*
X9831635Y-15294055D02*
X9850683Y-15303579D01*
X9850683Y-15303579D02*
X9860207Y-15313103D01*
X9860207Y-15313103D02*
X9869730Y-15332150D01*
X9869730Y-15332150D02*
X9879254Y-15370246D01*
X9879254Y-15370246D02*
X9879254Y-15417865D01*
X9879254Y-15417865D02*
X9869730Y-15455960D01*
X9869730Y-15455960D02*
X9860207Y-15475007D01*
X9860207Y-15475007D02*
X9850683Y-15484531D01*
X9850683Y-15484531D02*
X9831635Y-15494055D01*
X9831635Y-15494055D02*
X9812588Y-15494055D01*
X9812588Y-15494055D02*
X9793540Y-15484531D01*
X9793540Y-15484531D02*
X9784016Y-15475007D01*
X9784016Y-15475007D02*
X9774492Y-15455960D01*
X9774492Y-15455960D02*
X9764969Y-15417865D01*
X9764969Y-15417865D02*
X9764969Y-15370246D01*
X9764969Y-15370246D02*
X9774492Y-15332150D01*
X9774492Y-15332150D02*
X9784016Y-15313103D01*
X9784016Y-15313103D02*
X9793540Y-15303579D01*
X9793540Y-15303579D02*
X9812588Y-15294055D01*
X10003064Y-15294055D02*
X10022111Y-15294055D01*
X10022111Y-15294055D02*
X10041159Y-15303579D01*
X10041159Y-15303579D02*
X10050683Y-15313103D01*
X10050683Y-15313103D02*
X10060207Y-15332150D01*
X10060207Y-15332150D02*
X10069730Y-15370246D01*
X10069730Y-15370246D02*
X10069730Y-15417865D01*
X10069730Y-15417865D02*
X10060207Y-15455960D01*
X10060207Y-15455960D02*
X10050683Y-15475007D01*
X10050683Y-15475007D02*
X10041159Y-15484531D01*
X10041159Y-15484531D02*
X10022111Y-15494055D01*
X10022111Y-15494055D02*
X10003064Y-15494055D01*
X10003064Y-15494055D02*
X9984016Y-15484531D01*
X9984016Y-15484531D02*
X9974492Y-15475007D01*
X9974492Y-15475007D02*
X9964969Y-15455960D01*
X9964969Y-15455960D02*
X9955445Y-15417865D01*
X9955445Y-15417865D02*
X9955445Y-15370246D01*
X9955445Y-15370246D02*
X9964969Y-15332150D01*
X9964969Y-15332150D02*
X9974492Y-15313103D01*
X9974492Y-15313103D02*
X9984016Y-15303579D01*
X9984016Y-15303579D02*
X10003064Y-15294055D01*
X10155445Y-15494055D02*
X10155445Y-15360722D01*
X10155445Y-15379769D02*
X10164969Y-15370246D01*
X10164969Y-15370246D02*
X10184016Y-15360722D01*
X10184016Y-15360722D02*
X10212588Y-15360722D01*
X10212588Y-15360722D02*
X10231635Y-15370246D01*
X10231635Y-15370246D02*
X10241159Y-15389293D01*
X10241159Y-15389293D02*
X10241159Y-15494055D01*
X10241159Y-15389293D02*
X10250683Y-15370246D01*
X10250683Y-15370246D02*
X10269730Y-15360722D01*
X10269730Y-15360722D02*
X10298302Y-15360722D01*
X10298302Y-15360722D02*
X10317350Y-15370246D01*
X10317350Y-15370246D02*
X10326873Y-15389293D01*
X10326873Y-15389293D02*
X10326873Y-15494055D01*
X10422111Y-15494055D02*
X10422111Y-15360722D01*
X10422111Y-15379769D02*
X10431635Y-15370246D01*
X10431635Y-15370246D02*
X10450683Y-15360722D01*
X10450683Y-15360722D02*
X10479254Y-15360722D01*
X10479254Y-15360722D02*
X10498302Y-15370246D01*
X10498302Y-15370246D02*
X10507826Y-15389293D01*
X10507826Y-15389293D02*
X10507826Y-15494055D01*
X10507826Y-15389293D02*
X10517350Y-15370246D01*
X10517350Y-15370246D02*
X10536397Y-15360722D01*
X10536397Y-15360722D02*
X10564969Y-15360722D01*
X10564969Y-15360722D02*
X10584016Y-15370246D01*
X10584016Y-15370246D02*
X10593540Y-15389293D01*
X10593540Y-15389293D02*
X10593540Y-15494055D01*
X10984016Y-15284531D02*
X10812588Y-15541674D01*
X11241159Y-15294055D02*
X11260207Y-15294055D01*
X11260207Y-15294055D02*
X11279254Y-15303579D01*
X11279254Y-15303579D02*
X11288778Y-15313103D01*
X11288778Y-15313103D02*
X11298302Y-15332150D01*
X11298302Y-15332150D02*
X11307826Y-15370246D01*
X11307826Y-15370246D02*
X11307826Y-15417865D01*
X11307826Y-15417865D02*
X11298302Y-15455960D01*
X11298302Y-15455960D02*
X11288778Y-15475007D01*
X11288778Y-15475007D02*
X11279254Y-15484531D01*
X11279254Y-15484531D02*
X11260207Y-15494055D01*
X11260207Y-15494055D02*
X11241159Y-15494055D01*
X11241159Y-15494055D02*
X11222111Y-15484531D01*
X11222111Y-15484531D02*
X11212588Y-15475007D01*
X11212588Y-15475007D02*
X11203064Y-15455960D01*
X11203064Y-15455960D02*
X11193540Y-15417865D01*
X11193540Y-15417865D02*
X11193540Y-15370246D01*
X11193540Y-15370246D02*
X11203064Y-15332150D01*
X11203064Y-15332150D02*
X11212588Y-15313103D01*
X11212588Y-15313103D02*
X11222111Y-15303579D01*
X11222111Y-15303579D02*
X11241159Y-15294055D01*
X11393540Y-15475007D02*
X11403064Y-15484531D01*
X11403064Y-15484531D02*
X11393540Y-15494055D01*
X11393540Y-15494055D02*
X11384016Y-15484531D01*
X11384016Y-15484531D02*
X11393540Y-15475007D01*
X11393540Y-15475007D02*
X11393540Y-15494055D01*
X11593540Y-15494055D02*
X11479254Y-15494055D01*
X11536397Y-15494055D02*
X11536397Y-15294055D01*
X11536397Y-15294055D02*
X11517350Y-15322627D01*
X11517350Y-15322627D02*
X11498302Y-15341674D01*
X11498302Y-15341674D02*
X11479254Y-15351198D01*
X11784016Y-15494055D02*
X11669731Y-15494055D01*
X11726873Y-15494055D02*
X11726873Y-15294055D01*
X11726873Y-15294055D02*
X11707826Y-15322627D01*
X11707826Y-15322627D02*
X11688778Y-15341674D01*
X11688778Y-15341674D02*
X11669731Y-15351198D01*
X11898302Y-15379769D02*
X11879254Y-15370246D01*
X11879254Y-15370246D02*
X11869731Y-15360722D01*
X11869731Y-15360722D02*
X11860207Y-15341674D01*
X11860207Y-15341674D02*
X11860207Y-15332150D01*
X11860207Y-15332150D02*
X11869731Y-15313103D01*
X11869731Y-15313103D02*
X11879254Y-15303579D01*
X11879254Y-15303579D02*
X11898302Y-15294055D01*
X11898302Y-15294055D02*
X11936397Y-15294055D01*
X11936397Y-15294055D02*
X11955445Y-15303579D01*
X11955445Y-15303579D02*
X11964969Y-15313103D01*
X11964969Y-15313103D02*
X11974492Y-15332150D01*
X11974492Y-15332150D02*
X11974492Y-15341674D01*
X11974492Y-15341674D02*
X11964969Y-15360722D01*
X11964969Y-15360722D02*
X11955445Y-15370246D01*
X11955445Y-15370246D02*
X11936397Y-15379769D01*
X11936397Y-15379769D02*
X11898302Y-15379769D01*
X11898302Y-15379769D02*
X11879254Y-15389293D01*
X11879254Y-15389293D02*
X11869731Y-15398817D01*
X11869731Y-15398817D02*
X11860207Y-15417865D01*
X11860207Y-15417865D02*
X11860207Y-15455960D01*
X11860207Y-15455960D02*
X11869731Y-15475007D01*
X11869731Y-15475007D02*
X11879254Y-15484531D01*
X11879254Y-15484531D02*
X11898302Y-15494055D01*
X11898302Y-15494055D02*
X11936397Y-15494055D01*
X11936397Y-15494055D02*
X11955445Y-15484531D01*
X11955445Y-15484531D02*
X11964969Y-15475007D01*
X11964969Y-15475007D02*
X11974492Y-15455960D01*
X11974492Y-15455960D02*
X11974492Y-15417865D01*
X11974492Y-15417865D02*
X11964969Y-15398817D01*
X11964969Y-15398817D02*
X11955445Y-15389293D01*
X11955445Y-15389293D02*
X11936397Y-15379769D01*
X12164969Y-15494055D02*
X12050683Y-15494055D01*
X12107826Y-15494055D02*
X12107826Y-15294055D01*
X12107826Y-15294055D02*
X12088778Y-15322627D01*
X12088778Y-15322627D02*
X12069731Y-15341674D01*
X12069731Y-15341674D02*
X12050683Y-15351198D01*
X12241159Y-15294055D02*
X12241159Y-15332150D01*
X12317350Y-15294055D02*
X12317350Y-15332150D01*
X12612588Y-15570246D02*
X12603064Y-15560722D01*
X12603064Y-15560722D02*
X12584016Y-15532150D01*
X12584016Y-15532150D02*
X12574493Y-15513103D01*
X12574493Y-15513103D02*
X12564969Y-15484531D01*
X12564969Y-15484531D02*
X12555445Y-15436912D01*
X12555445Y-15436912D02*
X12555445Y-15398817D01*
X12555445Y-15398817D02*
X12564969Y-15351198D01*
X12564969Y-15351198D02*
X12574493Y-15322627D01*
X12574493Y-15322627D02*
X12584016Y-15303579D01*
X12584016Y-15303579D02*
X12603064Y-15275007D01*
X12603064Y-15275007D02*
X12612588Y-15265484D01*
X12774493Y-15294055D02*
X12736397Y-15294055D01*
X12736397Y-15294055D02*
X12717350Y-15303579D01*
X12717350Y-15303579D02*
X12707826Y-15313103D01*
X12707826Y-15313103D02*
X12688778Y-15341674D01*
X12688778Y-15341674D02*
X12679254Y-15379769D01*
X12679254Y-15379769D02*
X12679254Y-15455960D01*
X12679254Y-15455960D02*
X12688778Y-15475007D01*
X12688778Y-15475007D02*
X12698302Y-15484531D01*
X12698302Y-15484531D02*
X12717350Y-15494055D01*
X12717350Y-15494055D02*
X12755445Y-15494055D01*
X12755445Y-15494055D02*
X12774493Y-15484531D01*
X12774493Y-15484531D02*
X12784016Y-15475007D01*
X12784016Y-15475007D02*
X12793540Y-15455960D01*
X12793540Y-15455960D02*
X12793540Y-15408341D01*
X12793540Y-15408341D02*
X12784016Y-15389293D01*
X12784016Y-15389293D02*
X12774493Y-15379769D01*
X12774493Y-15379769D02*
X12755445Y-15370246D01*
X12755445Y-15370246D02*
X12717350Y-15370246D01*
X12717350Y-15370246D02*
X12698302Y-15379769D01*
X12698302Y-15379769D02*
X12688778Y-15389293D01*
X12688778Y-15389293D02*
X12679254Y-15408341D01*
X12964969Y-15360722D02*
X12964969Y-15494055D01*
X12917350Y-15284531D02*
X12869731Y-15427388D01*
X12869731Y-15427388D02*
X12993540Y-15427388D01*
X13222112Y-15494055D02*
X13222112Y-15294055D01*
X13307826Y-15494055D02*
X13307826Y-15389293D01*
X13307826Y-15389293D02*
X13298302Y-15370246D01*
X13298302Y-15370246D02*
X13279255Y-15360722D01*
X13279255Y-15360722D02*
X13250683Y-15360722D01*
X13250683Y-15360722D02*
X13231635Y-15370246D01*
X13231635Y-15370246D02*
X13222112Y-15379769D01*
X13431635Y-15494055D02*
X13412588Y-15484531D01*
X13412588Y-15484531D02*
X13403064Y-15475007D01*
X13403064Y-15475007D02*
X13393540Y-15455960D01*
X13393540Y-15455960D02*
X13393540Y-15398817D01*
X13393540Y-15398817D02*
X13403064Y-15379769D01*
X13403064Y-15379769D02*
X13412588Y-15370246D01*
X13412588Y-15370246D02*
X13431635Y-15360722D01*
X13431635Y-15360722D02*
X13460207Y-15360722D01*
X13460207Y-15360722D02*
X13479255Y-15370246D01*
X13479255Y-15370246D02*
X13488778Y-15379769D01*
X13488778Y-15379769D02*
X13498302Y-15398817D01*
X13498302Y-15398817D02*
X13498302Y-15455960D01*
X13498302Y-15455960D02*
X13488778Y-15475007D01*
X13488778Y-15475007D02*
X13479255Y-15484531D01*
X13479255Y-15484531D02*
X13460207Y-15494055D01*
X13460207Y-15494055D02*
X13431635Y-15494055D01*
X13612588Y-15494055D02*
X13593540Y-15484531D01*
X13593540Y-15484531D02*
X13584016Y-15465484D01*
X13584016Y-15465484D02*
X13584016Y-15294055D01*
X13764969Y-15484531D02*
X13745921Y-15494055D01*
X13745921Y-15494055D02*
X13707826Y-15494055D01*
X13707826Y-15494055D02*
X13688778Y-15484531D01*
X13688778Y-15484531D02*
X13679255Y-15465484D01*
X13679255Y-15465484D02*
X13679255Y-15389293D01*
X13679255Y-15389293D02*
X13688778Y-15370246D01*
X13688778Y-15370246D02*
X13707826Y-15360722D01*
X13707826Y-15360722D02*
X13745921Y-15360722D01*
X13745921Y-15360722D02*
X13764969Y-15370246D01*
X13764969Y-15370246D02*
X13774493Y-15389293D01*
X13774493Y-15389293D02*
X13774493Y-15408341D01*
X13774493Y-15408341D02*
X13679255Y-15427388D01*
X13850683Y-15484531D02*
X13869731Y-15494055D01*
X13869731Y-15494055D02*
X13907826Y-15494055D01*
X13907826Y-15494055D02*
X13926874Y-15484531D01*
X13926874Y-15484531D02*
X13936397Y-15465484D01*
X13936397Y-15465484D02*
X13936397Y-15455960D01*
X13936397Y-15455960D02*
X13926874Y-15436912D01*
X13926874Y-15436912D02*
X13907826Y-15427388D01*
X13907826Y-15427388D02*
X13879255Y-15427388D01*
X13879255Y-15427388D02*
X13860207Y-15417865D01*
X13860207Y-15417865D02*
X13850683Y-15398817D01*
X13850683Y-15398817D02*
X13850683Y-15389293D01*
X13850683Y-15389293D02*
X13860207Y-15370246D01*
X13860207Y-15370246D02*
X13879255Y-15360722D01*
X13879255Y-15360722D02*
X13907826Y-15360722D01*
X13907826Y-15360722D02*
X13926874Y-15370246D01*
X14003064Y-15570246D02*
X14012588Y-15560722D01*
X14012588Y-15560722D02*
X14031636Y-15532150D01*
X14031636Y-15532150D02*
X14041159Y-15513103D01*
X14041159Y-15513103D02*
X14050683Y-15484531D01*
X14050683Y-15484531D02*
X14060207Y-15436912D01*
X14060207Y-15436912D02*
X14060207Y-15398817D01*
X14060207Y-15398817D02*
X14050683Y-15351198D01*
X14050683Y-15351198D02*
X14041159Y-15322627D01*
X14041159Y-15322627D02*
X14031636Y-15303579D01*
X14031636Y-15303579D02*
X14012588Y-15275007D01*
X14012588Y-15275007D02*
X14003064Y-15265484D01*
X14364969Y-15570246D02*
X14355445Y-15560722D01*
X14355445Y-15560722D02*
X14336397Y-15532150D01*
X14336397Y-15532150D02*
X14326874Y-15513103D01*
X14326874Y-15513103D02*
X14317350Y-15484531D01*
X14317350Y-15484531D02*
X14307826Y-15436912D01*
X14307826Y-15436912D02*
X14307826Y-15398817D01*
X14307826Y-15398817D02*
X14317350Y-15351198D01*
X14317350Y-15351198D02*
X14326874Y-15322627D01*
X14326874Y-15322627D02*
X14336397Y-15303579D01*
X14336397Y-15303579D02*
X14355445Y-15275007D01*
X14355445Y-15275007D02*
X14364969Y-15265484D01*
X14441159Y-15360722D02*
X14441159Y-15494055D01*
X14441159Y-15379769D02*
X14450683Y-15370246D01*
X14450683Y-15370246D02*
X14469731Y-15360722D01*
X14469731Y-15360722D02*
X14498302Y-15360722D01*
X14498302Y-15360722D02*
X14517350Y-15370246D01*
X14517350Y-15370246D02*
X14526874Y-15389293D01*
X14526874Y-15389293D02*
X14526874Y-15494055D01*
X14650683Y-15494055D02*
X14631636Y-15484531D01*
X14631636Y-15484531D02*
X14622112Y-15475007D01*
X14622112Y-15475007D02*
X14612588Y-15455960D01*
X14612588Y-15455960D02*
X14612588Y-15398817D01*
X14612588Y-15398817D02*
X14622112Y-15379769D01*
X14622112Y-15379769D02*
X14631636Y-15370246D01*
X14631636Y-15370246D02*
X14650683Y-15360722D01*
X14650683Y-15360722D02*
X14679255Y-15360722D01*
X14679255Y-15360722D02*
X14698302Y-15370246D01*
X14698302Y-15370246D02*
X14707826Y-15379769D01*
X14707826Y-15379769D02*
X14717350Y-15398817D01*
X14717350Y-15398817D02*
X14717350Y-15455960D01*
X14717350Y-15455960D02*
X14707826Y-15475007D01*
X14707826Y-15475007D02*
X14698302Y-15484531D01*
X14698302Y-15484531D02*
X14679255Y-15494055D01*
X14679255Y-15494055D02*
X14650683Y-15494055D01*
X14774493Y-15360722D02*
X14850683Y-15360722D01*
X14803064Y-15294055D02*
X14803064Y-15465484D01*
X14803064Y-15465484D02*
X14812588Y-15484531D01*
X14812588Y-15484531D02*
X14831636Y-15494055D01*
X14831636Y-15494055D02*
X14850683Y-15494055D01*
X15069731Y-15360722D02*
X15069731Y-15560722D01*
X15069731Y-15370246D02*
X15088778Y-15360722D01*
X15088778Y-15360722D02*
X15126874Y-15360722D01*
X15126874Y-15360722D02*
X15145921Y-15370246D01*
X15145921Y-15370246D02*
X15155445Y-15379769D01*
X15155445Y-15379769D02*
X15164969Y-15398817D01*
X15164969Y-15398817D02*
X15164969Y-15455960D01*
X15164969Y-15455960D02*
X15155445Y-15475007D01*
X15155445Y-15475007D02*
X15145921Y-15484531D01*
X15145921Y-15484531D02*
X15126874Y-15494055D01*
X15126874Y-15494055D02*
X15088778Y-15494055D01*
X15088778Y-15494055D02*
X15069731Y-15484531D01*
X15279255Y-15494055D02*
X15260207Y-15484531D01*
X15260207Y-15484531D02*
X15250683Y-15465484D01*
X15250683Y-15465484D02*
X15250683Y-15294055D01*
X15441159Y-15494055D02*
X15441159Y-15389293D01*
X15441159Y-15389293D02*
X15431636Y-15370246D01*
X15431636Y-15370246D02*
X15412588Y-15360722D01*
X15412588Y-15360722D02*
X15374493Y-15360722D01*
X15374493Y-15360722D02*
X15355445Y-15370246D01*
X15441159Y-15484531D02*
X15422112Y-15494055D01*
X15422112Y-15494055D02*
X15374493Y-15494055D01*
X15374493Y-15494055D02*
X15355445Y-15484531D01*
X15355445Y-15484531D02*
X15345921Y-15465484D01*
X15345921Y-15465484D02*
X15345921Y-15446436D01*
X15345921Y-15446436D02*
X15355445Y-15427388D01*
X15355445Y-15427388D02*
X15374493Y-15417865D01*
X15374493Y-15417865D02*
X15422112Y-15417865D01*
X15422112Y-15417865D02*
X15441159Y-15408341D01*
X15507826Y-15360722D02*
X15584017Y-15360722D01*
X15536398Y-15294055D02*
X15536398Y-15465484D01*
X15536398Y-15465484D02*
X15545921Y-15484531D01*
X15545921Y-15484531D02*
X15564969Y-15494055D01*
X15564969Y-15494055D02*
X15584017Y-15494055D01*
X15726874Y-15484531D02*
X15707826Y-15494055D01*
X15707826Y-15494055D02*
X15669731Y-15494055D01*
X15669731Y-15494055D02*
X15650683Y-15484531D01*
X15650683Y-15484531D02*
X15641159Y-15465484D01*
X15641159Y-15465484D02*
X15641159Y-15389293D01*
X15641159Y-15389293D02*
X15650683Y-15370246D01*
X15650683Y-15370246D02*
X15669731Y-15360722D01*
X15669731Y-15360722D02*
X15707826Y-15360722D01*
X15707826Y-15360722D02*
X15726874Y-15370246D01*
X15726874Y-15370246D02*
X15736398Y-15389293D01*
X15736398Y-15389293D02*
X15736398Y-15408341D01*
X15736398Y-15408341D02*
X15641159Y-15427388D01*
X15907826Y-15494055D02*
X15907826Y-15294055D01*
X15907826Y-15484531D02*
X15888779Y-15494055D01*
X15888779Y-15494055D02*
X15850683Y-15494055D01*
X15850683Y-15494055D02*
X15831636Y-15484531D01*
X15831636Y-15484531D02*
X15822112Y-15475007D01*
X15822112Y-15475007D02*
X15812588Y-15455960D01*
X15812588Y-15455960D02*
X15812588Y-15398817D01*
X15812588Y-15398817D02*
X15822112Y-15379769D01*
X15822112Y-15379769D02*
X15831636Y-15370246D01*
X15831636Y-15370246D02*
X15850683Y-15360722D01*
X15850683Y-15360722D02*
X15888779Y-15360722D01*
X15888779Y-15360722D02*
X15907826Y-15370246D01*
X15984017Y-15570246D02*
X15993540Y-15560722D01*
X15993540Y-15560722D02*
X16012588Y-15532150D01*
X16012588Y-15532150D02*
X16022112Y-15513103D01*
X16022112Y-15513103D02*
X16031636Y-15484531D01*
X16031636Y-15484531D02*
X16041159Y-15436912D01*
X16041159Y-15436912D02*
X16041159Y-15398817D01*
X16041159Y-15398817D02*
X16031636Y-15351198D01*
X16031636Y-15351198D02*
X16022112Y-15322627D01*
X16022112Y-15322627D02*
X16012588Y-15303579D01*
X16012588Y-15303579D02*
X15993540Y-15275007D01*
X15993540Y-15275007D02*
X15984017Y-15265484D01*
X8937525Y-15622571D02*
X8937525Y-15822571D01*
X8837525Y-15722571D02*
X9037525Y-15722571D01*
X9279254Y-15614055D02*
X9403064Y-15614055D01*
X9403064Y-15614055D02*
X9336397Y-15690246D01*
X9336397Y-15690246D02*
X9364969Y-15690246D01*
X9364969Y-15690246D02*
X9384016Y-15699769D01*
X9384016Y-15699769D02*
X9393540Y-15709293D01*
X9393540Y-15709293D02*
X9403064Y-15728341D01*
X9403064Y-15728341D02*
X9403064Y-15775960D01*
X9403064Y-15775960D02*
X9393540Y-15795007D01*
X9393540Y-15795007D02*
X9384016Y-15804531D01*
X9384016Y-15804531D02*
X9364969Y-15814055D01*
X9364969Y-15814055D02*
X9307826Y-15814055D01*
X9307826Y-15814055D02*
X9288778Y-15804531D01*
X9288778Y-15804531D02*
X9279254Y-15795007D01*
X9488778Y-15795007D02*
X9498302Y-15804531D01*
X9498302Y-15804531D02*
X9488778Y-15814055D01*
X9488778Y-15814055D02*
X9479254Y-15804531D01*
X9479254Y-15804531D02*
X9488778Y-15795007D01*
X9488778Y-15795007D02*
X9488778Y-15814055D01*
X9593540Y-15814055D02*
X9631635Y-15814055D01*
X9631635Y-15814055D02*
X9650683Y-15804531D01*
X9650683Y-15804531D02*
X9660207Y-15795007D01*
X9660207Y-15795007D02*
X9679254Y-15766436D01*
X9679254Y-15766436D02*
X9688778Y-15728341D01*
X9688778Y-15728341D02*
X9688778Y-15652150D01*
X9688778Y-15652150D02*
X9679254Y-15633103D01*
X9679254Y-15633103D02*
X9669730Y-15623579D01*
X9669730Y-15623579D02*
X9650683Y-15614055D01*
X9650683Y-15614055D02*
X9612588Y-15614055D01*
X9612588Y-15614055D02*
X9593540Y-15623579D01*
X9593540Y-15623579D02*
X9584016Y-15633103D01*
X9584016Y-15633103D02*
X9574492Y-15652150D01*
X9574492Y-15652150D02*
X9574492Y-15699769D01*
X9574492Y-15699769D02*
X9584016Y-15718817D01*
X9584016Y-15718817D02*
X9593540Y-15728341D01*
X9593540Y-15728341D02*
X9612588Y-15737865D01*
X9612588Y-15737865D02*
X9650683Y-15737865D01*
X9650683Y-15737865D02*
X9669730Y-15728341D01*
X9669730Y-15728341D02*
X9679254Y-15718817D01*
X9679254Y-15718817D02*
X9688778Y-15699769D01*
X9803064Y-15699769D02*
X9784016Y-15690246D01*
X9784016Y-15690246D02*
X9774492Y-15680722D01*
X9774492Y-15680722D02*
X9764969Y-15661674D01*
X9764969Y-15661674D02*
X9764969Y-15652150D01*
X9764969Y-15652150D02*
X9774492Y-15633103D01*
X9774492Y-15633103D02*
X9784016Y-15623579D01*
X9784016Y-15623579D02*
X9803064Y-15614055D01*
X9803064Y-15614055D02*
X9841159Y-15614055D01*
X9841159Y-15614055D02*
X9860207Y-15623579D01*
X9860207Y-15623579D02*
X9869730Y-15633103D01*
X9869730Y-15633103D02*
X9879254Y-15652150D01*
X9879254Y-15652150D02*
X9879254Y-15661674D01*
X9879254Y-15661674D02*
X9869730Y-15680722D01*
X9869730Y-15680722D02*
X9860207Y-15690246D01*
X9860207Y-15690246D02*
X9841159Y-15699769D01*
X9841159Y-15699769D02*
X9803064Y-15699769D01*
X9803064Y-15699769D02*
X9784016Y-15709293D01*
X9784016Y-15709293D02*
X9774492Y-15718817D01*
X9774492Y-15718817D02*
X9764969Y-15737865D01*
X9764969Y-15737865D02*
X9764969Y-15775960D01*
X9764969Y-15775960D02*
X9774492Y-15795007D01*
X9774492Y-15795007D02*
X9784016Y-15804531D01*
X9784016Y-15804531D02*
X9803064Y-15814055D01*
X9803064Y-15814055D02*
X9841159Y-15814055D01*
X9841159Y-15814055D02*
X9860207Y-15804531D01*
X9860207Y-15804531D02*
X9869730Y-15795007D01*
X9869730Y-15795007D02*
X9879254Y-15775960D01*
X9879254Y-15775960D02*
X9879254Y-15737865D01*
X9879254Y-15737865D02*
X9869730Y-15718817D01*
X9869730Y-15718817D02*
X9860207Y-15709293D01*
X9860207Y-15709293D02*
X9841159Y-15699769D01*
X9993540Y-15699769D02*
X9974492Y-15690246D01*
X9974492Y-15690246D02*
X9964969Y-15680722D01*
X9964969Y-15680722D02*
X9955445Y-15661674D01*
X9955445Y-15661674D02*
X9955445Y-15652150D01*
X9955445Y-15652150D02*
X9964969Y-15633103D01*
X9964969Y-15633103D02*
X9974492Y-15623579D01*
X9974492Y-15623579D02*
X9993540Y-15614055D01*
X9993540Y-15614055D02*
X10031635Y-15614055D01*
X10031635Y-15614055D02*
X10050683Y-15623579D01*
X10050683Y-15623579D02*
X10060207Y-15633103D01*
X10060207Y-15633103D02*
X10069730Y-15652150D01*
X10069730Y-15652150D02*
X10069730Y-15661674D01*
X10069730Y-15661674D02*
X10060207Y-15680722D01*
X10060207Y-15680722D02*
X10050683Y-15690246D01*
X10050683Y-15690246D02*
X10031635Y-15699769D01*
X10031635Y-15699769D02*
X9993540Y-15699769D01*
X9993540Y-15699769D02*
X9974492Y-15709293D01*
X9974492Y-15709293D02*
X9964969Y-15718817D01*
X9964969Y-15718817D02*
X9955445Y-15737865D01*
X9955445Y-15737865D02*
X9955445Y-15775960D01*
X9955445Y-15775960D02*
X9964969Y-15795007D01*
X9964969Y-15795007D02*
X9974492Y-15804531D01*
X9974492Y-15804531D02*
X9993540Y-15814055D01*
X9993540Y-15814055D02*
X10031635Y-15814055D01*
X10031635Y-15814055D02*
X10050683Y-15804531D01*
X10050683Y-15804531D02*
X10060207Y-15795007D01*
X10060207Y-15795007D02*
X10069730Y-15775960D01*
X10069730Y-15775960D02*
X10069730Y-15737865D01*
X10069730Y-15737865D02*
X10060207Y-15718817D01*
X10060207Y-15718817D02*
X10050683Y-15709293D01*
X10050683Y-15709293D02*
X10031635Y-15699769D01*
X10155445Y-15814055D02*
X10155445Y-15680722D01*
X10155445Y-15699769D02*
X10164969Y-15690246D01*
X10164969Y-15690246D02*
X10184016Y-15680722D01*
X10184016Y-15680722D02*
X10212588Y-15680722D01*
X10212588Y-15680722D02*
X10231635Y-15690246D01*
X10231635Y-15690246D02*
X10241159Y-15709293D01*
X10241159Y-15709293D02*
X10241159Y-15814055D01*
X10241159Y-15709293D02*
X10250683Y-15690246D01*
X10250683Y-15690246D02*
X10269730Y-15680722D01*
X10269730Y-15680722D02*
X10298302Y-15680722D01*
X10298302Y-15680722D02*
X10317350Y-15690246D01*
X10317350Y-15690246D02*
X10326873Y-15709293D01*
X10326873Y-15709293D02*
X10326873Y-15814055D01*
X10422111Y-15814055D02*
X10422111Y-15680722D01*
X10422111Y-15699769D02*
X10431635Y-15690246D01*
X10431635Y-15690246D02*
X10450683Y-15680722D01*
X10450683Y-15680722D02*
X10479254Y-15680722D01*
X10479254Y-15680722D02*
X10498302Y-15690246D01*
X10498302Y-15690246D02*
X10507826Y-15709293D01*
X10507826Y-15709293D02*
X10507826Y-15814055D01*
X10507826Y-15709293D02*
X10517350Y-15690246D01*
X10517350Y-15690246D02*
X10536397Y-15680722D01*
X10536397Y-15680722D02*
X10564969Y-15680722D01*
X10564969Y-15680722D02*
X10584016Y-15690246D01*
X10584016Y-15690246D02*
X10593540Y-15709293D01*
X10593540Y-15709293D02*
X10593540Y-15814055D01*
X10984016Y-15604531D02*
X10812588Y-15861674D01*
X11241159Y-15614055D02*
X11260207Y-15614055D01*
X11260207Y-15614055D02*
X11279254Y-15623579D01*
X11279254Y-15623579D02*
X11288778Y-15633103D01*
X11288778Y-15633103D02*
X11298302Y-15652150D01*
X11298302Y-15652150D02*
X11307826Y-15690246D01*
X11307826Y-15690246D02*
X11307826Y-15737865D01*
X11307826Y-15737865D02*
X11298302Y-15775960D01*
X11298302Y-15775960D02*
X11288778Y-15795007D01*
X11288778Y-15795007D02*
X11279254Y-15804531D01*
X11279254Y-15804531D02*
X11260207Y-15814055D01*
X11260207Y-15814055D02*
X11241159Y-15814055D01*
X11241159Y-15814055D02*
X11222111Y-15804531D01*
X11222111Y-15804531D02*
X11212588Y-15795007D01*
X11212588Y-15795007D02*
X11203064Y-15775960D01*
X11203064Y-15775960D02*
X11193540Y-15737865D01*
X11193540Y-15737865D02*
X11193540Y-15690246D01*
X11193540Y-15690246D02*
X11203064Y-15652150D01*
X11203064Y-15652150D02*
X11212588Y-15633103D01*
X11212588Y-15633103D02*
X11222111Y-15623579D01*
X11222111Y-15623579D02*
X11241159Y-15614055D01*
X11393540Y-15795007D02*
X11403064Y-15804531D01*
X11403064Y-15804531D02*
X11393540Y-15814055D01*
X11393540Y-15814055D02*
X11384016Y-15804531D01*
X11384016Y-15804531D02*
X11393540Y-15795007D01*
X11393540Y-15795007D02*
X11393540Y-15814055D01*
X11593540Y-15814055D02*
X11479254Y-15814055D01*
X11536397Y-15814055D02*
X11536397Y-15614055D01*
X11536397Y-15614055D02*
X11517350Y-15642627D01*
X11517350Y-15642627D02*
X11498302Y-15661674D01*
X11498302Y-15661674D02*
X11479254Y-15671198D01*
X11774492Y-15614055D02*
X11679254Y-15614055D01*
X11679254Y-15614055D02*
X11669731Y-15709293D01*
X11669731Y-15709293D02*
X11679254Y-15699769D01*
X11679254Y-15699769D02*
X11698302Y-15690246D01*
X11698302Y-15690246D02*
X11745921Y-15690246D01*
X11745921Y-15690246D02*
X11764969Y-15699769D01*
X11764969Y-15699769D02*
X11774492Y-15709293D01*
X11774492Y-15709293D02*
X11784016Y-15728341D01*
X11784016Y-15728341D02*
X11784016Y-15775960D01*
X11784016Y-15775960D02*
X11774492Y-15795007D01*
X11774492Y-15795007D02*
X11764969Y-15804531D01*
X11764969Y-15804531D02*
X11745921Y-15814055D01*
X11745921Y-15814055D02*
X11698302Y-15814055D01*
X11698302Y-15814055D02*
X11679254Y-15804531D01*
X11679254Y-15804531D02*
X11669731Y-15795007D01*
X11850683Y-15614055D02*
X11984016Y-15614055D01*
X11984016Y-15614055D02*
X11898302Y-15814055D01*
X12098302Y-15614055D02*
X12117350Y-15614055D01*
X12117350Y-15614055D02*
X12136397Y-15623579D01*
X12136397Y-15623579D02*
X12145921Y-15633103D01*
X12145921Y-15633103D02*
X12155445Y-15652150D01*
X12155445Y-15652150D02*
X12164969Y-15690246D01*
X12164969Y-15690246D02*
X12164969Y-15737865D01*
X12164969Y-15737865D02*
X12155445Y-15775960D01*
X12155445Y-15775960D02*
X12145921Y-15795007D01*
X12145921Y-15795007D02*
X12136397Y-15804531D01*
X12136397Y-15804531D02*
X12117350Y-15814055D01*
X12117350Y-15814055D02*
X12098302Y-15814055D01*
X12098302Y-15814055D02*
X12079254Y-15804531D01*
X12079254Y-15804531D02*
X12069731Y-15795007D01*
X12069731Y-15795007D02*
X12060207Y-15775960D01*
X12060207Y-15775960D02*
X12050683Y-15737865D01*
X12050683Y-15737865D02*
X12050683Y-15690246D01*
X12050683Y-15690246D02*
X12060207Y-15652150D01*
X12060207Y-15652150D02*
X12069731Y-15633103D01*
X12069731Y-15633103D02*
X12079254Y-15623579D01*
X12079254Y-15623579D02*
X12098302Y-15614055D01*
X12241159Y-15614055D02*
X12241159Y-15652150D01*
X12317350Y-15614055D02*
X12317350Y-15652150D01*
X12612588Y-15890246D02*
X12603064Y-15880722D01*
X12603064Y-15880722D02*
X12584016Y-15852150D01*
X12584016Y-15852150D02*
X12574493Y-15833103D01*
X12574493Y-15833103D02*
X12564969Y-15804531D01*
X12564969Y-15804531D02*
X12555445Y-15756912D01*
X12555445Y-15756912D02*
X12555445Y-15718817D01*
X12555445Y-15718817D02*
X12564969Y-15671198D01*
X12564969Y-15671198D02*
X12574493Y-15642627D01*
X12574493Y-15642627D02*
X12584016Y-15623579D01*
X12584016Y-15623579D02*
X12603064Y-15595007D01*
X12603064Y-15595007D02*
X12612588Y-15585484D01*
X12669731Y-15614055D02*
X12793540Y-15614055D01*
X12793540Y-15614055D02*
X12726873Y-15690246D01*
X12726873Y-15690246D02*
X12755445Y-15690246D01*
X12755445Y-15690246D02*
X12774493Y-15699769D01*
X12774493Y-15699769D02*
X12784016Y-15709293D01*
X12784016Y-15709293D02*
X12793540Y-15728341D01*
X12793540Y-15728341D02*
X12793540Y-15775960D01*
X12793540Y-15775960D02*
X12784016Y-15795007D01*
X12784016Y-15795007D02*
X12774493Y-15804531D01*
X12774493Y-15804531D02*
X12755445Y-15814055D01*
X12755445Y-15814055D02*
X12698302Y-15814055D01*
X12698302Y-15814055D02*
X12679254Y-15804531D01*
X12679254Y-15804531D02*
X12669731Y-15795007D01*
X12869731Y-15633103D02*
X12879254Y-15623579D01*
X12879254Y-15623579D02*
X12898302Y-15614055D01*
X12898302Y-15614055D02*
X12945921Y-15614055D01*
X12945921Y-15614055D02*
X12964969Y-15623579D01*
X12964969Y-15623579D02*
X12974493Y-15633103D01*
X12974493Y-15633103D02*
X12984016Y-15652150D01*
X12984016Y-15652150D02*
X12984016Y-15671198D01*
X12984016Y-15671198D02*
X12974493Y-15699769D01*
X12974493Y-15699769D02*
X12860207Y-15814055D01*
X12860207Y-15814055D02*
X12984016Y-15814055D01*
X13222112Y-15814055D02*
X13222112Y-15614055D01*
X13307826Y-15814055D02*
X13307826Y-15709293D01*
X13307826Y-15709293D02*
X13298302Y-15690246D01*
X13298302Y-15690246D02*
X13279255Y-15680722D01*
X13279255Y-15680722D02*
X13250683Y-15680722D01*
X13250683Y-15680722D02*
X13231635Y-15690246D01*
X13231635Y-15690246D02*
X13222112Y-15699769D01*
X13431635Y-15814055D02*
X13412588Y-15804531D01*
X13412588Y-15804531D02*
X13403064Y-15795007D01*
X13403064Y-15795007D02*
X13393540Y-15775960D01*
X13393540Y-15775960D02*
X13393540Y-15718817D01*
X13393540Y-15718817D02*
X13403064Y-15699769D01*
X13403064Y-15699769D02*
X13412588Y-15690246D01*
X13412588Y-15690246D02*
X13431635Y-15680722D01*
X13431635Y-15680722D02*
X13460207Y-15680722D01*
X13460207Y-15680722D02*
X13479255Y-15690246D01*
X13479255Y-15690246D02*
X13488778Y-15699769D01*
X13488778Y-15699769D02*
X13498302Y-15718817D01*
X13498302Y-15718817D02*
X13498302Y-15775960D01*
X13498302Y-15775960D02*
X13488778Y-15795007D01*
X13488778Y-15795007D02*
X13479255Y-15804531D01*
X13479255Y-15804531D02*
X13460207Y-15814055D01*
X13460207Y-15814055D02*
X13431635Y-15814055D01*
X13612588Y-15814055D02*
X13593540Y-15804531D01*
X13593540Y-15804531D02*
X13584016Y-15785484D01*
X13584016Y-15785484D02*
X13584016Y-15614055D01*
X13764969Y-15804531D02*
X13745921Y-15814055D01*
X13745921Y-15814055D02*
X13707826Y-15814055D01*
X13707826Y-15814055D02*
X13688778Y-15804531D01*
X13688778Y-15804531D02*
X13679255Y-15785484D01*
X13679255Y-15785484D02*
X13679255Y-15709293D01*
X13679255Y-15709293D02*
X13688778Y-15690246D01*
X13688778Y-15690246D02*
X13707826Y-15680722D01*
X13707826Y-15680722D02*
X13745921Y-15680722D01*
X13745921Y-15680722D02*
X13764969Y-15690246D01*
X13764969Y-15690246D02*
X13774493Y-15709293D01*
X13774493Y-15709293D02*
X13774493Y-15728341D01*
X13774493Y-15728341D02*
X13679255Y-15747388D01*
X13850683Y-15804531D02*
X13869731Y-15814055D01*
X13869731Y-15814055D02*
X13907826Y-15814055D01*
X13907826Y-15814055D02*
X13926874Y-15804531D01*
X13926874Y-15804531D02*
X13936397Y-15785484D01*
X13936397Y-15785484D02*
X13936397Y-15775960D01*
X13936397Y-15775960D02*
X13926874Y-15756912D01*
X13926874Y-15756912D02*
X13907826Y-15747388D01*
X13907826Y-15747388D02*
X13879255Y-15747388D01*
X13879255Y-15747388D02*
X13860207Y-15737865D01*
X13860207Y-15737865D02*
X13850683Y-15718817D01*
X13850683Y-15718817D02*
X13850683Y-15709293D01*
X13850683Y-15709293D02*
X13860207Y-15690246D01*
X13860207Y-15690246D02*
X13879255Y-15680722D01*
X13879255Y-15680722D02*
X13907826Y-15680722D01*
X13907826Y-15680722D02*
X13926874Y-15690246D01*
X14003064Y-15890246D02*
X14012588Y-15880722D01*
X14012588Y-15880722D02*
X14031636Y-15852150D01*
X14031636Y-15852150D02*
X14041159Y-15833103D01*
X14041159Y-15833103D02*
X14050683Y-15804531D01*
X14050683Y-15804531D02*
X14060207Y-15756912D01*
X14060207Y-15756912D02*
X14060207Y-15718817D01*
X14060207Y-15718817D02*
X14050683Y-15671198D01*
X14050683Y-15671198D02*
X14041159Y-15642627D01*
X14041159Y-15642627D02*
X14031636Y-15623579D01*
X14031636Y-15623579D02*
X14012588Y-15595007D01*
X14012588Y-15595007D02*
X14003064Y-15585484D01*
X14364969Y-15890246D02*
X14355445Y-15880722D01*
X14355445Y-15880722D02*
X14336397Y-15852150D01*
X14336397Y-15852150D02*
X14326874Y-15833103D01*
X14326874Y-15833103D02*
X14317350Y-15804531D01*
X14317350Y-15804531D02*
X14307826Y-15756912D01*
X14307826Y-15756912D02*
X14307826Y-15718817D01*
X14307826Y-15718817D02*
X14317350Y-15671198D01*
X14317350Y-15671198D02*
X14326874Y-15642627D01*
X14326874Y-15642627D02*
X14336397Y-15623579D01*
X14336397Y-15623579D02*
X14355445Y-15595007D01*
X14355445Y-15595007D02*
X14364969Y-15585484D01*
X14441159Y-15680722D02*
X14441159Y-15814055D01*
X14441159Y-15699769D02*
X14450683Y-15690246D01*
X14450683Y-15690246D02*
X14469731Y-15680722D01*
X14469731Y-15680722D02*
X14498302Y-15680722D01*
X14498302Y-15680722D02*
X14517350Y-15690246D01*
X14517350Y-15690246D02*
X14526874Y-15709293D01*
X14526874Y-15709293D02*
X14526874Y-15814055D01*
X14650683Y-15814055D02*
X14631636Y-15804531D01*
X14631636Y-15804531D02*
X14622112Y-15795007D01*
X14622112Y-15795007D02*
X14612588Y-15775960D01*
X14612588Y-15775960D02*
X14612588Y-15718817D01*
X14612588Y-15718817D02*
X14622112Y-15699769D01*
X14622112Y-15699769D02*
X14631636Y-15690246D01*
X14631636Y-15690246D02*
X14650683Y-15680722D01*
X14650683Y-15680722D02*
X14679255Y-15680722D01*
X14679255Y-15680722D02*
X14698302Y-15690246D01*
X14698302Y-15690246D02*
X14707826Y-15699769D01*
X14707826Y-15699769D02*
X14717350Y-15718817D01*
X14717350Y-15718817D02*
X14717350Y-15775960D01*
X14717350Y-15775960D02*
X14707826Y-15795007D01*
X14707826Y-15795007D02*
X14698302Y-15804531D01*
X14698302Y-15804531D02*
X14679255Y-15814055D01*
X14679255Y-15814055D02*
X14650683Y-15814055D01*
X14774493Y-15680722D02*
X14850683Y-15680722D01*
X14803064Y-15614055D02*
X14803064Y-15785484D01*
X14803064Y-15785484D02*
X14812588Y-15804531D01*
X14812588Y-15804531D02*
X14831636Y-15814055D01*
X14831636Y-15814055D02*
X14850683Y-15814055D01*
X15069731Y-15680722D02*
X15069731Y-15880722D01*
X15069731Y-15690246D02*
X15088778Y-15680722D01*
X15088778Y-15680722D02*
X15126874Y-15680722D01*
X15126874Y-15680722D02*
X15145921Y-15690246D01*
X15145921Y-15690246D02*
X15155445Y-15699769D01*
X15155445Y-15699769D02*
X15164969Y-15718817D01*
X15164969Y-15718817D02*
X15164969Y-15775960D01*
X15164969Y-15775960D02*
X15155445Y-15795007D01*
X15155445Y-15795007D02*
X15145921Y-15804531D01*
X15145921Y-15804531D02*
X15126874Y-15814055D01*
X15126874Y-15814055D02*
X15088778Y-15814055D01*
X15088778Y-15814055D02*
X15069731Y-15804531D01*
X15279255Y-15814055D02*
X15260207Y-15804531D01*
X15260207Y-15804531D02*
X15250683Y-15785484D01*
X15250683Y-15785484D02*
X15250683Y-15614055D01*
X15441159Y-15814055D02*
X15441159Y-15709293D01*
X15441159Y-15709293D02*
X15431636Y-15690246D01*
X15431636Y-15690246D02*
X15412588Y-15680722D01*
X15412588Y-15680722D02*
X15374493Y-15680722D01*
X15374493Y-15680722D02*
X15355445Y-15690246D01*
X15441159Y-15804531D02*
X15422112Y-15814055D01*
X15422112Y-15814055D02*
X15374493Y-15814055D01*
X15374493Y-15814055D02*
X15355445Y-15804531D01*
X15355445Y-15804531D02*
X15345921Y-15785484D01*
X15345921Y-15785484D02*
X15345921Y-15766436D01*
X15345921Y-15766436D02*
X15355445Y-15747388D01*
X15355445Y-15747388D02*
X15374493Y-15737865D01*
X15374493Y-15737865D02*
X15422112Y-15737865D01*
X15422112Y-15737865D02*
X15441159Y-15728341D01*
X15507826Y-15680722D02*
X15584017Y-15680722D01*
X15536398Y-15614055D02*
X15536398Y-15785484D01*
X15536398Y-15785484D02*
X15545921Y-15804531D01*
X15545921Y-15804531D02*
X15564969Y-15814055D01*
X15564969Y-15814055D02*
X15584017Y-15814055D01*
X15726874Y-15804531D02*
X15707826Y-15814055D01*
X15707826Y-15814055D02*
X15669731Y-15814055D01*
X15669731Y-15814055D02*
X15650683Y-15804531D01*
X15650683Y-15804531D02*
X15641159Y-15785484D01*
X15641159Y-15785484D02*
X15641159Y-15709293D01*
X15641159Y-15709293D02*
X15650683Y-15690246D01*
X15650683Y-15690246D02*
X15669731Y-15680722D01*
X15669731Y-15680722D02*
X15707826Y-15680722D01*
X15707826Y-15680722D02*
X15726874Y-15690246D01*
X15726874Y-15690246D02*
X15736398Y-15709293D01*
X15736398Y-15709293D02*
X15736398Y-15728341D01*
X15736398Y-15728341D02*
X15641159Y-15747388D01*
X15907826Y-15814055D02*
X15907826Y-15614055D01*
X15907826Y-15804531D02*
X15888779Y-15814055D01*
X15888779Y-15814055D02*
X15850683Y-15814055D01*
X15850683Y-15814055D02*
X15831636Y-15804531D01*
X15831636Y-15804531D02*
X15822112Y-15795007D01*
X15822112Y-15795007D02*
X15812588Y-15775960D01*
X15812588Y-15775960D02*
X15812588Y-15718817D01*
X15812588Y-15718817D02*
X15822112Y-15699769D01*
X15822112Y-15699769D02*
X15831636Y-15690246D01*
X15831636Y-15690246D02*
X15850683Y-15680722D01*
X15850683Y-15680722D02*
X15888779Y-15680722D01*
X15888779Y-15680722D02*
X15907826Y-15690246D01*
X15984017Y-15890246D02*
X15993540Y-15880722D01*
X15993540Y-15880722D02*
X16012588Y-15852150D01*
X16012588Y-15852150D02*
X16022112Y-15833103D01*
X16022112Y-15833103D02*
X16031636Y-15804531D01*
X16031636Y-15804531D02*
X16041159Y-15756912D01*
X16041159Y-15756912D02*
X16041159Y-15718817D01*
X16041159Y-15718817D02*
X16031636Y-15671198D01*
X16031636Y-15671198D02*
X16022112Y-15642627D01*
X16022112Y-15642627D02*
X16012588Y-15623579D01*
X16012588Y-15623579D02*
X15993540Y-15595007D01*
X15993540Y-15595007D02*
X15984017Y-15585484D01*
M02*
