  0
SECTION
  2
HEADER
  9
$ACADVER
  1
AC1027
  9
$ACADMAINTVER
 70
   105
  9
$DWGCODEPAGE
  3
ANSI_1252
  9
$LASTSAVEDBY
  1
asterix
  9
$REQUIREDVERSIONS
160
                 0
  9
$INSBASE
 10
0.0
 20
0.0
 30
0.0
  9
$EXTMIN
 10
-33.62999999999997
 20
-21.68000000000001
 30
0.0
  9
$EXTMAX
 10
102.8621887880283
 20
92.2871195427158
 30
0.0
  9
$LIMMIN
 10
0.0
 20
0.0
  9
$LIMMAX
 10
12.0
 20
9.0
  9
$ORTHOMODE
 70
     0
  9
$REGENMODE
 70
     1
  9
$FILLMODE
 70
     1
  9
$QTEXTMODE
 70
     0
  9
$MIRRTEXT
 70
     0
  9
$LTSCALE
 40
1.0
  9
$ATTMODE
 70
     1
  9
$TEXTSIZE
 40
0.2
  9
$TRACEWID
 40
0.05
  9
$TEXTSTYLE
  7
Standard
  9
$CLAYER
  8
livello 2
  9
$CELTYPE
  6
ByLayer
  9
$CECOLOR
 62
   256
  9
$CELTSCALE
 40
1.0
  9
$DISPSILH
 70
     0
  9
$DIMSCALE
 40
1.0
  9
$DIMASZ
 40
2.5
  9
$DIMEXO
 40
0.625
  9
$DIMDLI
 40
5.0
  9
$DIMRND
 40
0.0
  9
$DIMDLE
 40
0.0
  9
$DIMEXE
 40
1.25
  9
$DIMTP
 40
0.0
  9
$DIMTM
 40
0.0
  9
$DIMTXT
 40
2.5
  9
$DIMCEN
 40
0.09
  9
$DIMTSZ
 40
0.0
  9
$DIMTOL
 70
     0
  9
$DIMLIM
 70
     0
  9
$DIMTIH
 70
     1
  9
$DIMTOH
 70
     1
  9
$DIMSE1
 70
     0
  9
$DIMSE2
 70
     0
  9
$DIMTAD
 70
     0
  9
$DIMZIN
 70
     8
  9
$DIMBLK
  1

  9
$DIMASO
 70
     1
  9
$DIMSHO
 70
     1
  9
$DIMPOST
  1

  9
$DIMAPOST
  1

  9
$DIMALT
 70
     0
  9
$DIMALTD
 70
     2
  9
$DIMALTF
 40
25.4
  9
$DIMLFAC
 40
1.0
  9
$DIMTOFL
 70
     0
  9
$DIMTVP
 40
0.0
  9
$DIMTIX
 70
     0
  9
$DIMSOXD
 70
     0
  9
$DIMSAH
 70
     0
  9
$DIMBLK1
  1

  9
$DIMBLK2
  1

  9
$DIMSTYLE
  2
Standard
  9
$DIMCLRD
 70
     0
  9
$DIMCLRE
 70
     0
  9
$DIMCLRT
 70
     0
  9
$DIMTFAC
 40
1.0
  9
$DIMGAP
 40
0.625
  9
$DIMJUST
 70
     0
  9
$DIMSD1
 70
     0
  9
$DIMSD2
 70
     0
  9
$DIMTOLJ
 70
     1
  9
$DIMTZIN
 70
     0
  9
$DIMALTZ
 70
     0
  9
$DIMALTTZ
 70
     0
  9
$DIMUPT
 70
     0
  9
$DIMDEC
 70
     4
  9
$DIMTDEC
 70
     4
  9
$DIMALTU
 70
     2
  9
$DIMALTTD
 70
     2
  9
$DIMTXSTY
  7
Standard
  9
$DIMAUNIT
 70
     0
  9
$DIMADEC
 70
     0
  9
$DIMALTRND
 40
0.0
  9
$DIMAZIN
 70
     2
  9
$DIMDSEP
 70
    46
  9
$DIMATFIT
 70
     3
  9
$DIMFRAC
 70
     0
  9
$DIMLDRBLK
  1

  9
$DIMLUNIT
 70
     2
  9
$DIMLWD
 70
    -2
  9
$DIMLWE
 70
    -2
  9
$DIMTMOVE
 70
     0
  9
$DIMFXL
 40
1.0
  9
$DIMFXLON
 70
     0
  9
$DIMJOGANG
 40
0.7853981633974483
  9
$DIMTFILL
 70
     0
  9
$DIMTFILLCLR
 70
     0
  9
$DIMARCSYM
 70
     0
  9
$DIMLTYPE
  6

  9
$DIMLTEX1
  6

  9
$DIMLTEX2
  6

  9
$DIMTXTDIRECTION
 70
     0
  9
$LUNITS
 70
     2
  9
$LUPREC
 70
     4
  9
$SKETCHINC
 40
0.1
  9
$FILLETRAD
 40
0.0
  9
$AUNITS
 70
     0
  9
$AUPREC
 70
     0
  9
$MENU
  1
.
  9
$ELEVATION
 40
0.0
  9
$PELEVATION
 40
0.0
  9
$THICKNESS
 40
0.0
  9
$LIMCHECK
 70
     0
  9
$CHAMFERA
 40
0.0
  9
$CHAMFERB
 40
0.0
  9
$CHAMFERC
 40
0.0
  9
$CHAMFERD
 40
0.0
  9
$SKPOLY
 70
     0
  9
$TDCREATE
 40
2460334.942976655
  9
$TDUCREATE
 40
2460334.901309988
  9
$TDUPDATE
 40
2460334.942976736
  9
$TDUUPDATE
 40
2460334.901310069
  9
$TDINDWG
 40
0.0000000116
  9
$TDUSRTIMER
 40
0.0000000116
  9
$USRTIMER
 70
     1
  9
$ANGBASE
 50
0.0
  9
$ANGDIR
 70
     0
  9
$PDMODE
 70
     0
  9
$PDSIZE
 40
0.0
  9
$PLINEWID
 40
0.0
  9
$SPLFRAME
 70
     0
  9
$SPLINETYPE
 70
     6
  9
$SPLINESEGS
 70
     8
  9
$HANDSEED
  5
548E
  9
$SURFTAB1
 70
     6
  9
$SURFTAB2
 70
     6
  9
$SURFTYPE
 70
     6
  9
$SURFU
 70
     6
  9
$SURFV
 70
     6
  9
$UCSBASE
  2

  9
$UCSNAME
  2

  9
$UCSORG
 10
0.0
 20
0.0
 30
0.0
  9
$UCSXDIR
 10
1.0
 20
0.0
 30
0.0
  9
$UCSYDIR
 10
0.0
 20
1.0
 30
0.0
  9
$UCSORTHOREF
  2

  9
$UCSORTHOVIEW
 70
     0
  9
$UCSORGTOP
 10
0.0
 20
0.0
 30
0.0
  9
$UCSORGBOTTOM
 10
0.0
 20
0.0
 30
0.0
  9
$UCSORGLEFT
 10
0.0
 20
0.0
 30
0.0
  9
$UCSORGRIGHT
 10
0.0
 20
0.0
 30
0.0
  9
$UCSORGFRONT
 10
0.0
 20
0.0
 30
0.0
  9
$UCSORGBACK
 10
0.0
 20
0.0
 30
0.0
  9
$PUCSBASE
  2

  9
$PUCSNAME
  2

  9
$PUCSORG
 10
0.0
 20
0.0
 30
0.0
  9
$PUCSXDIR
 10
1.0
 20
0.0
 30
0.0
  9
$PUCSYDIR
 10
0.0
 20
1.0
 30
0.0
  9
$PUCSORTHOREF
  2

  9
$PUCSORTHOVIEW
 70
     0
  9
$PUCSORGTOP
 10
0.0
 20
0.0
 30
0.0
  9
$PUCSORGBOTTOM
 10
0.0
 20
0.0
 30
0.0
  9
$PUCSORGLEFT
 10
0.0
 20
0.0
 30
0.0
  9
$PUCSORGRIGHT
 10
0.0
 20
0.0
 30
0.0
  9
$PUCSORGFRONT
 10
0.0
 20
0.0
 30
0.0
  9
$PUCSORGBACK
 10
0.0
 20
0.0
 30
0.0
  9
$USERI1
 70
     0
  9
$USERI2
 70
     0
  9
$USERI3
 70
     0
  9
$USERI4
 70
     0
  9
$USERI5
 70
     0
  9
$USERR1
 40
0.0
  9
$USERR2
 40
0.0
  9
$USERR3
 40
0.0
  9
$USERR4
 40
0.0
  9
$USERR5
 40
0.0
  9
$WORLDVIEW
 70
     1
  9
$SHADEDGE
 70
     3
  9
$SHADEDIF
 70
    70
  9
$TILEMODE
 70
     1
  9
$MAXACTVP
 70
    64
  9
$PINSBASE
 10
0.0
 20
0.0
 30
0.0
  9
$PLIMCHECK
 70
     0
  9
$PEXTMIN
 10
0.0
 20
0.0
 30
0.0
  9
$PEXTMAX
 10
0.0
 20
0.0
 30
0.0
  9
$PLIMMIN
 10
-20.0
 20
-7.5
  9
$PLIMMAX
 10
277.0
 20
202.5
  9
$UNITMODE
 70
     0
  9
$VISRETAIN
 70
     1
  9
$PLINEGEN
 70
     0
  9
$PSLTSCALE
 70
     1
  9
$TREEDEPTH
 70
  3020
  9
$CMLSTYLE
  2
Standard
  9
$CMLJUST
 70
     0
  9
$CMLSCALE
 40
1.0
  9
$PROXYGRAPHICS
 70
     1
  9
$MEASUREMENT
 70
     1
  9
$CELWEIGHT
370
    -1
  9
$ENDCAPS
280
     0
  9
$JOINSTYLE
280
     0
  9
$LWDISPLAY
290
     0
  9
$INSUNITS
 70
     4
  9
$HYPERLINKBASE
  1

  9
$STYLESHEET
  1

  9
$XEDIT
290
     1
  9
$CEPSNTYPE
380
     0
  9
$PSTYLEMODE
290
     1
  9
$FINGERPRINTGUID
  2
{31d25e80-2c7e-b548-9f61-08656168360a}
  9
$VERSIONGUID
  2
{FAEB1C32-E019-11D5-929B-00C0DF256EC4}
  9
$EXTNAMES
290
     1
  9
$PSVPSCALE
 40
0.0
  9
$OLESTARTUP
290
     0
  9
$SORTENTS
280
   127
  9
$INDEXCTL
280
     0
  9
$HIDETEXT
280
     1
  9
$XCLIPFRAME
280
     2
  9
$HALOGAP
280
     0
  9
$OBSCOLOR
 70
   257
  9
$OBSLTYPE
280
     0
  9
$INTERSECTIONDISPLAY
280
     0
  9
$INTERSECTIONCOLOR
 70
   257
  9
$DIMASSOC
280
     2
  9
$PROJECTNAME
  1

  9
$CAMERADISPLAY
290
     0
  9
$LENSLENGTH
 40
50.0
  9
$CAMERAHEIGHT
 40
0.0
  9
$STEPSPERSEC
 40
2.0
  9
$STEPSIZE
 40
6.0
  9
$3DDWFPREC
 40
2.0
  9
$PSOLWIDTH
 40
0.25
  9
$PSOLHEIGHT
 40
4.0
  9
$LOFTANG1
 40
1.570796326794897
  9
$LOFTANG2
 40
1.570796326794897
  9
$LOFTMAG1
 40
0.0
  9
$LOFTMAG2
 40
0.0
  9
$LOFTPARAM
 70
     7
  9
$LOFTNORMALS
280
     1
  9
$LATITUDE
 40
37.795
  9
$LONGITUDE
 40
-122.394
  9
$NORTHDIRECTION
 40
0.0
  9
$TIMEZONE
 70
 -8000
  9
$LIGHTGLYPHDISPLAY
280
     1
  9
$TILEMODELIGHTSYNCH
280
     1
  9
$CMATERIAL
347
53F1
  9
$SOLIDHIST
280
     0
  9
$SHOWHIST
280
     1
  9
$DWFFRAME
280
     2
  9
$DGNFRAME
280
     2
  9
$REALWORLDSCALE
290
     1
  9
$INTERFERECOLOR
 62
   256
  9
$CSHADOW
280
     0
  9
$SHADOWPLANELOCATION
 40
0.0
  0
ENDSEC
  0
SECTION
  2
CLASSES
  0
CLASS
  1
ACDBDICTIONARYWDFLT
  2
AcDbDictionaryWithDefault
  3
ObjectDBX Classes
 90
        0
 91
        3
280
     0
281
     0
  0
CLASS
  1
VISUALSTYLE
  2
AcDbVisualStyle
  3
ObjectDBX Classes
 90
     4095
 91
        3
280
     0
281
     0
  0
CLASS
  1
MATERIAL
  2
AcDbMaterial
  3
ObjectDBX Classes
 90
     1153
 91
        3
280
     0
281
     0
  0
CLASS
  1
SCALE
  2
AcDbScale
  3
ObjectDBX Classes
 90
     1153
 91
        3
280
     0
281
     0
  0
CLASS
  1
TABLESTYLE
  2
AcDbTableStyle
  3
ObjectDBX Classes
 90
     4095
 91
        3
280
     0
281
     0
  0
CLASS
  1
MLEADERSTYLE
  2
AcDbMLeaderStyle
  3
ACDB_MLEADERSTYLE_CLASS
 90
     4095
 91
        3
280
     0
281
     0
  0
CLASS
  1
SUN
  2
AcDbSun
  3
SCENEOE
 90
     1153
 91
        3
280
     0
281
     0
  0
CLASS
  1
DICTIONARYVAR
  2
AcDbDictionaryVar
  3
ObjectDBX Classes
 90
        0
 91
        3
280
     0
281
     0
  0
CLASS
  1
CELLSTYLEMAP
  2
AcDbCellStyleMap
  3
ObjectDBX Classes
 90
     1152
 91
        3
280
     0
281
     0
  0
ENDSEC
  0
SECTION
  2
TABLES
  0
TABLE
  2
VPORT
  5
53B6
330
0
100
AcDbSymbolTable
 70
     1
  0
VPORT
  5
53D6
330
53B6
100
AcDbSymbolTableRecord
100
AcDbViewportTableRecord
  2
*Active
 70
     0
 10
0.0
 20
0.0
 11
1.0
 21
1.0
 12
25.44295113157207
 22
81.19082009613341
 13
0.0
 23
0.0
 14
0.5
 24
0.5
 15
0.5
 25
0.5
 16
0.0
 26
0.0
 36
1.0
 17
0.0
 27
0.0
 37
0.0
 40
205.8982860774776
 41
2.025316455696203
 42
50.0
 43
0.0
 44
0.0
 50
0.0
 51
0.0
 71
     0
 72
   100
 73
     1
 74
     3
 75
     0
 76
     0
 77
     0
 78
     0
281
     0
 65
     1
110
0.0
120
0.0
130
0.0
111
1.0
121
0.0
131
0.0
112
0.0
122
1.0
132
0.0
 79
     0
146
0.0
348
53DC
 60
     3
 61
     5
292
     1
282
     1
141
0.0
142
0.0
 63
   250
361
540A
  0
ENDTAB
  0
TABLE
  2
LTYPE
  5
53B3
330
0
100
AcDbSymbolTable
 70
    48
  0
LTYPE
  5
53C1
330
53B3
100
AcDbSymbolTableRecord
100
AcDbLinetypeTableRecord
  2
ByBlock
 70
     0
  3

 72
    65
 73
     0
 40
0.0
  0
LTYPE
  5
53C2
330
53B3
100
AcDbSymbolTableRecord
100
AcDbLinetypeTableRecord
  2
ByLayer
 70
     0
  3

 72
    65
 73
     0
 40
0.0
  0
LTYPE
  5
53C3
330
53B3
100
AcDbSymbolTableRecord
100
AcDbLinetypeTableRecord
  2
Continuous
 70
     0
  3
Solid line
 72
    65
 73
     0
 40
0.0
  0
LTYPE
  5
5445
330
53B3
100
AcDbSymbolTableRecord
100
AcDbLinetypeTableRecord
  2
ACAD_ISO05W100
 70
     0
  3
ISO long-dash double-dot ____ .. ____ .. ____ . 
 72
    65
 73
     6
 40
33.0
 49
24.0
 74
     0
 49
-3.0
 74
     0
 49
0.0
 74
     0
 49
-3.0
 74
     0
 49
0.0
 74
     0
 49
-3.0
 74
     0
  0
LTYPE
  5
5446
330
53B3
100
AcDbSymbolTableRecord
100
AcDbLinetypeTableRecord
  2
ACAD_ISO02W100
 70
     0
  3
ISO dash __ __ __ __ __ __ __ __ __ __ __ __ __
 72
    65
 73
     2
 40
15.0
 49
12.0
 74
     0
 49
-3.0
 74
     0
  0
LTYPE
  5
5447
330
53B3
100
AcDbSymbolTableRecord
100
AcDbLinetypeTableRecord
  2
ACAD_ISO03W100
 70
     0
  3
ISO dash space __    __    __    __    __    __
 72
    65
 73
     2
 40
30.0
 49
12.0
 74
     0
 49
-18.0
 74
     0
  0
LTYPE
  5
5448
330
53B3
100
AcDbSymbolTableRecord
100
AcDbLinetypeTableRecord
  2
ACAD_ISO08W100
 70
     0
  3
ISO long-dash short-dash ____ __ ____ __ ____ _
 72
    65
 73
     4
 40
36.0
 49
24.0
 74
     0
 49
-3.0
 74
     0
 49
6.0
 74
     0
 49
-3.0
 74
     0
  0
LTYPE
  5
5449
330
53B3
100
AcDbSymbolTableRecord
100
AcDbLinetypeTableRecord
  2
ACAD_ISO09W100
 70
     0
  3
ISO long-dash double-short-dash ____ __ __ ____
 72
    65
 73
     6
 40
45.0
 49
24.0
 74
     0
 49
-3.0
 74
     0
 49
6.0
 74
     0
 49
-3.0
 74
     0
 49
6.0
 74
     0
 49
-3.0
 74
     0
  0
LTYPE
  5
544A
330
53B3
100
AcDbSymbolTableRecord
100
AcDbLinetypeTableRecord
  2
ACAD_ISO06W100
 70
     0
  3
ISO long-dash triple-dot ____ ... ____ ... ____
 72
    65
 73
     8
 40
36.0
 49
24.0
 74
     0
 49
-3.0
 74
     0
 49
0.0
 74
     0
 49
-3.0
 74
     0
 49
0.0
 74
     0
 49
-3.0
 74
     0
 49
0.0
 74
     0
 49
-3.0
 74
     0
  0
LTYPE
  5
544B
330
53B3
100
AcDbSymbolTableRecord
100
AcDbLinetypeTableRecord
  2
ACAD_ISO07W100
 70
     0
  3
ISO dot . . . . . . . . . . . . . . . . . . . . 
 72
    65
 73
     2
 40
3.0
 49
0.0
 74
     0
 49
-3.0
 74
     0
  0
LTYPE
  5
544C
330
53B3
100
AcDbSymbolTableRecord
100
AcDbLinetypeTableRecord
  2
PHANTOM
 70
     0
  3
Phantom ______  __  __  ______  __  __  ______ 
 72
    65
 73
     6
 40
63.50000000000001
 49
31.75
 74
     0
 49
-6.35
 74
     0
 49
6.35
 74
     0
 49
-6.35
 74
     0
 49
6.35
 74
     0
 49
-6.35
 74
     0
  0
LTYPE
  5
544D
330
53B3
100
AcDbSymbolTableRecord
100
AcDbLinetypeTableRecord
  2
PHANTOM2
 70
     0
  3
Phantom (.5x) ___ _ _ ___ _ _ ___ _ _ ___ _ _
 72
    65
 73
     6
 40
31.75
 49
15.875
 74
     0
 49
-3.175
 74
     0
 49
3.175
 74
     0
 49
-3.175
 74
     0
 49
3.175
 74
     0
 49
-3.175
 74
     0
  0
LTYPE
  5
544E
330
53B3
100
AcDbSymbolTableRecord
100
AcDbLinetypeTableRecord
  2
HIDDENX2
 70
     0
  3
Hidden (2x) ____ ____ ____ ____ ____ ____ ____ 
 72
    65
 73
     2
 40
19.05
 49
12.7
 74
     0
 49
-6.35
 74
     0
  0
LTYPE
  5
5450
330
53B3
100
AcDbSymbolTableRecord
100
AcDbLinetypeTableRecord
  2
HOT_WATER_SUPPLY
 70
     0
  3
Hot water supply ---- HW ---- HW ---- HW ----
 72
    65
 73
     3
 40
22.86
 49
12.7
 74
     0
 49
-5.08
 74
     2
 75
     0
340
544F
 46
2.54
 50
0.0
 44
-2.54
 45
-1.27
  9
HW
 49
-5.08
 74
     0
  0
LTYPE
  5
5453
330
53B3
100
AcDbSymbolTableRecord
100
AcDbLinetypeTableRecord
  2
ZIGZAG
 70
     0
  3
Zig zag /\/\/\/\/\/\/\/\/\/\/\/\/\/\/\/\/\/\/\/\/\/\/\/
 72
    65
 73
     4
 40
20.32254
 49
0.00254
 74
     0
 49
-5.08
 74
     2
 75
     0
340
5451
 46
5.08
 50
0.0
 44
-5.08
 45
0.0
  9
ZIG
 49
-10.16
 74
     2
 75
     0
340
5452
 46
5.08
 50
180.0
 44
5.08
 45
0.0
  9
ZIG
 49
-5.08
 74
     0
  0
LTYPE
  5
5454
330
53B3
100
AcDbSymbolTableRecord
100
AcDbLinetypeTableRecord
  2
PHANTOMX2
 70
     0
  3
Phantom (2x) ____________    ____    ____   _
 72
    65
 73
     6
 40
127.0
 49
63.5
 74
     0
 49
-12.7
 74
     0
 49
12.7
 74
     0
 49
-12.7
 74
     0
 49
12.7
 74
     0
 49
-12.7
 74
     0
  0
LTYPE
  5
5456
330
53B3
100
AcDbSymbolTableRecord
100
AcDbLinetypeTableRecord
  2
TRACKS
 70
     0
  3
Tracks -|-|-|-|-|-|-|-|-|-|-|-|-|-|-|-|-|-|-|-|-|-|-|-|-
 72
    65
 73
     2
 40
7.62
 49
3.81
 74
     2
 75
     0
340
5455
 46
6.35
 50
0.0
 44
0.0
 45
0.0
  9
TRACK1
 49
3.81
 74
     0
  0
LTYPE
  5
5458
330
53B3
100
AcDbSymbolTableRecord
100
AcDbLinetypeTableRecord
  2
DRAINAGE2
 70
     0
  3
Drainage reversed----<----<----<----
 72
    65
 73
     2
 40
10.16
 49
5.08
 74
     2
 75
     0
340
5457
 46
2.54
 50
0.0
 44
0.0
 45
0.0
  9
RIGHT_ARROW
 49
5.08
 74
     0
  0
LTYPE
  5
545A
330
53B3
100
AcDbSymbolTableRecord
100
AcDbLinetypeTableRecord
  2
FENCELINE1
 70
     0
  3
Fenceline circle ----0-----0----0-----0----0-----0--
 72
    65
 73
     4
 40
36.83
 49
6.35
 74
     0
 49
-2.54
 74
     2
 75
     0
340
5459
 46
2.54
 50
0.0
 44
-2.54
 45
0.0
  9
CIRC1
 49
-2.54
 74
     0
 49
25.4
 74
     0
  0
LTYPE
  5
545B
330
53B3
100
AcDbSymbolTableRecord
100
AcDbLinetypeTableRecord
  2
DOTX2
 70
     0
  3
Dot (2x) .  .  .  .  .  .  .  .  .  .  .  .  .  .
 72
    65
 73
     2
 40
12.7
 49
0.0
 74
     0
 49
-12.7
 74
     0
  0
LTYPE
  5
545D
330
53B3
100
AcDbSymbolTableRecord
100
AcDbLinetypeTableRecord
  2
DRAINAGE
 70
     0
  3
Drainage ---->---->---->----
 72
    65
 73
     2
 40
10.16
 49
5.08
 74
     2
 75
     0
340
545C
 46
2.54
 50
180.0
 44
0.0
 45
0.0
  9
RIGHT_ARROW
 49
5.08
 74
     0
  0
LTYPE
  5
545E
330
53B3
100
AcDbSymbolTableRecord
100
AcDbLinetypeTableRecord
  2
HIDDEN
 70
     0
  3
Hidden __ __ __ __ __ __ __ __ __ __ __ __ __ __
 72
    65
 73
     2
 40
9.524999999999999
 49
6.35
 74
     0
 49
-3.175
 74
     0
  0
LTYPE
  5
545F
330
53B3
100
AcDbSymbolTableRecord
100
AcDbLinetypeTableRecord
  2
HIDDEN2
 70
     0
  3
Hidden (.5x) _ _ _ _ _ _ _ _ _ _ _ _ _ _ _ _ _ 
 72
    65
 73
     2
 40
4.762499999999999
 49
3.175
 74
     0
 49
-1.5875
 74
     0
  0
LTYPE
  5
5461
330
53B3
100
AcDbSymbolTableRecord
100
AcDbLinetypeTableRecord
  2
FENCELINE2
 70
     0
  3
Fenceline square ----[]-----[]----[]-----[]----[]---
 72
    65
 73
     4
 40
36.83
 49
6.35
 74
     0
 49
-2.54
 74
     2
 75
     0
340
5460
 46
2.54
 50
0.0
 44
-2.54
 45
0.0
  9
BOX
 49
-2.54
 74
     0
 49
25.4
 74
     0
  0
LTYPE
  5
5463
330
53B3
100
AcDbSymbolTableRecord
100
AcDbLinetypeTableRecord
  2
GAS_LINE
 70
     0
  3
Gas line ----GAS----GAS----GAS----GAS----GAS----GAS--
 72
    65
 73
     3
 40
24.13
 49
12.7
 74
     0
 49
-5.08
 74
     2
 75
     0
340
5462
 46
2.54
 50
0.0
 44
-2.54
 45
-1.27
  9
GAS
 49
-6.35
 74
     0
  0
LTYPE
  5
5464
330
53B3
100
AcDbSymbolTableRecord
100
AcDbLinetypeTableRecord
  2
DASHEDX2
 70
     0
  3
Dashed (2x) ____  ____  ____  ____  ____  ___
 72
    65
 73
     2
 40
38.09999999999999
 49
25.4
 74
     0
 49
-12.7
 74
     0
  0
LTYPE
  5
5465
330
53B3
100
AcDbSymbolTableRecord
100
AcDbLinetypeTableRecord
  2
DIVIDE
 70
     0
  3
Divide ____ . . ____ . . ____ . . ____ . . ____
 72
    65
 73
     6
 40
31.75
 49
12.7
 74
     0
 49
-6.35
 74
     0
 49
0.0
 74
     0
 49
-6.35
 74
     0
 49
0.0
 74
     0
 49
-6.35
 74
     0
  0
LTYPE
  5
5466
330
53B3
100
AcDbSymbolTableRecord
100
AcDbLinetypeTableRecord
  2
DASHED
 70
     0
  3
Dashed __ __ __ __ __ __ __ __ __ __ __ __ __ _
 72
    65
 73
     2
 40
19.05
 49
12.7
 74
     0
 49
-6.35
 74
     0
  0
LTYPE
  5
5467
330
53B3
100
AcDbSymbolTableRecord
100
AcDbLinetypeTableRecord
  2
DASHED2
 70
     0
  3
Dashed (.5x) _ _ _ _ _ _ _ _ _ _ _ _ _ _ _ _ _ 
 72
    65
 73
     2
 40
9.524999999999999
 49
6.35
 74
     0
 49
-3.175
 74
     0
  0
LTYPE
  5
5468
330
53B3
100
AcDbSymbolTableRecord
100
AcDbLinetypeTableRecord
  2
DOT
 70
     0
  3
Dot . . . . . . . . . . . . . . . . . . . . . . . .
 72
    65
 73
     2
 40
6.35
 49
0.0
 74
     0
 49
-6.35
 74
     0
  0
LTYPE
  5
5469
330
53B3
100
AcDbSymbolTableRecord
100
AcDbLinetypeTableRecord
  2
DOT2
 70
     0
  3
Dot (.5x) ........................................
 72
    65
 73
     2
 40
3.175
 49
0.0
 74
     0
 49
-3.175
 74
     0
  0
LTYPE
  5
546A
330
53B3
100
AcDbSymbolTableRecord
100
AcDbLinetypeTableRecord
  2
DIVIDE2
 70
     0
  3
Divide (.5x) __..__..__..__..__..__..__..__.._
 72
    65
 73
     6
 40
15.875
 49
6.35
 74
     0
 49
-3.175
 74
     0
 49
0.0
 74
     0
 49
-3.175
 74
     0
 49
0.0
 74
     0
 49
-3.175
 74
     0
  0
LTYPE
  5
546B
330
53B3
100
AcDbSymbolTableRecord
100
AcDbLinetypeTableRecord
  2
DIVIDEX2
 70
     0
  3
Divide (2x) ________  .  .  ________  .  .  _
 72
    65
 73
     6
 40
63.5
 49
25.4
 74
     0
 49
-12.7
 74
     0
 49
0.0
 74
     0
 49
-12.7
 74
     0
 49
0.0
 74
     0
 49
-12.7
 74
     0
  0
LTYPE
  5
546C
330
53B3
100
AcDbSymbolTableRecord
100
AcDbLinetypeTableRecord
  2
CENTER
 70
     0
  3
Center ____ _ ____ _ ____ _ ____ _ ____ _ ____
 72
    65
 73
     4
 40
50.8
 49
31.75
 74
     0
 49
-6.35
 74
     0
 49
6.35
 74
     0
 49
-6.35
 74
     0
  0
LTYPE
  5
546D
330
53B3
100
AcDbSymbolTableRecord
100
AcDbLinetypeTableRecord
  2
CENTER2
 70
     0
  3
Center (.5x) ___ _ ___ _ ___ _ ___ _ ___ _ ___
 72
    65
 73
     4
 40
28.575
 49
19.05
 74
     0
 49
-3.175
 74
     0
 49
3.175
 74
     0
 49
-3.175
 74
     0
  0
LTYPE
  5
546E
330
53B3
100
AcDbSymbolTableRecord
100
AcDbLinetypeTableRecord
  2
BORDER2
 70
     0
  3
Border (.5x) __.__.__.__.__.__.__.__.__.__.__.
 72
    65
 73
     6
 40
22.225
 49
6.35
 74
     0
 49
-3.175
 74
     0
 49
6.35
 74
     0
 49
-3.175
 74
     0
 49
0.0
 74
     0
 49
-3.175
 74
     0
  0
LTYPE
  5
546F
330
53B3
100
AcDbSymbolTableRecord
100
AcDbLinetypeTableRecord
  2
BORDERX2
 70
     0
  3
Border (2x) ____  ____  .  ____  ____  .  ___
 72
    65
 73
     6
 40
88.89999999999999
 49
25.4
 74
     0
 49
-12.7
 74
     0
 49
25.4
 74
     0
 49
-12.7
 74
     0
 49
0.0
 74
     0
 49
-12.7
 74
     0
  0
LTYPE
  5
5470
330
53B3
100
AcDbSymbolTableRecord
100
AcDbLinetypeTableRecord
  2
DASHDOT2
 70
     0
  3
Dash dot (.5x) _._._._._._._._._._._._._._._.
 72
    65
 73
     4
 40
12.7
 49
6.35
 74
     0
 49
-3.175
 74
     0
 49
0.0
 74
     0
 49
-3.175
 74
     0
  0
LTYPE
  5
5471
330
53B3
100
AcDbSymbolTableRecord
100
AcDbLinetypeTableRecord
  2
DASHDOTX2
 70
     0
  3
Dash dot (2x) ____  .  ____  .  ____  .  ___
 72
    65
 73
     4
 40
50.8
 49
25.4
 74
     0
 49
-12.7
 74
     0
 49
0.0
 74
     0
 49
-12.7
 74
     0
  0
LTYPE
  5
5472
330
53B3
100
AcDbSymbolTableRecord
100
AcDbLinetypeTableRecord
  2
CENTERX2
 70
     0
  3
Center (2x) ________  __  ________  __  _____
 72
    65
 73
     4
 40
101.6
 49
63.5
 74
     0
 49
-12.7
 74
     0
 49
12.7
 74
     0
 49
-12.7
 74
     0
  0
LTYPE
  5
5473
330
53B3
100
AcDbSymbolTableRecord
100
AcDbLinetypeTableRecord
  2
DASHDOT
 70
     0
  3
Dash dot __ . __ . __ . __ . __ . __ . __ . __
 72
    65
 73
     4
 40
25.4
 49
12.7
 74
     0
 49
-6.35
 74
     0
 49
0.0
 74
     0
 49
-6.35
 74
     0
  0
LTYPE
  5
5474
330
53B3
100
AcDbSymbolTableRecord
100
AcDbLinetypeTableRecord
  2
ACAD_ISO12W100
 70
     0
  3
ISO dash double-dot __ . . __ . . __ . . __ . . 
 72
    65
 73
     6
 40
21.0
 49
12.0
 74
     0
 49
-3.0
 74
     0
 49
0.0
 74
     0
 49
-3.0
 74
     0
 49
0.0
 74
     0
 49
-3.0
 74
     0
  0
LTYPE
  5
5475
330
53B3
100
AcDbSymbolTableRecord
100
AcDbLinetypeTableRecord
  2
ACAD_ISO13W100
 70
     0
  3
ISO double-dash double-dot __ __ . . __ __ . . _
 72
    65
 73
     8
 40
36.0
 49
12.0
 74
     0
 49
-3.0
 74
     0
 49
12.0
 74
     0
 49
-3.0
 74
     0
 49
0.0
 74
     0
 49
-3.0
 74
     0
 49
0.0
 74
     0
 49
-3.0
 74
     0
  0
LTYPE
  5
5476
330
53B3
100
AcDbSymbolTableRecord
100
AcDbLinetypeTableRecord
  2
ACAD_ISO10W100
 70
     0
  3
ISO dash dot __ . __ . __ . __ . __ . __ . __ . 
 72
    65
 73
     4
 40
18.0
 49
12.0
 74
     0
 49
-3.0
 74
     0
 49
0.0
 74
     0
 49
-3.0
 74
     0
  0
LTYPE
  5
5477
330
53B3
100
AcDbSymbolTableRecord
100
AcDbLinetypeTableRecord
  2
ACAD_ISO11W100
 70
     0
  3
ISO double-dash dot __ __ . __ __ . __ __ . __ _
 72
    65
 73
     6
 40
33.0
 49
12.0
 74
     0
 49
-3.0
 74
     0
 49
12.0
 74
     0
 49
-3.0
 74
     0
 49
0.0
 74
     0
 49
-3.0
 74
     0
  0
LTYPE
  5
547A
330
53B3
100
AcDbSymbolTableRecord
100
AcDbLinetypeTableRecord
  2
BATTING
 70
     0
  3
Batting SSSSSSSSSSSSSSSSSSSSSSSSSSSSSSSSSSSSSSSSSSSSSSS
 72
    65
 73
     4
 40
10.16254
 49
0.00254
 74
     0
 49
-2.54
 74
     2
 75
     0
340
5478
 46
2.54
 50
0.0
 44
-2.54
 45
0.0
  9
BAT
 49
-5.08
 74
     2
 75
     0
340
5479
 46
2.54
 50
180.0
 44
2.54
 45
0.0
  9
BAT
 49
-2.54
 74
     0
  0
LTYPE
  5
547B
330
53B3
100
AcDbSymbolTableRecord
100
AcDbLinetypeTableRecord
  2
BORDER
 70
     0
  3
Border __ __ . __ __ . __ __ . __ __ . __ __ .
 72
    65
 73
     6
 40
44.45
 49
12.7
 74
     0
 49
-6.35
 74
     0
 49
12.7
 74
     0
 49
-6.35
 74
     0
 49
0.0
 74
     0
 49
-6.35
 74
     0
  0
LTYPE
  5
547C
330
53B3
100
AcDbSymbolTableRecord
100
AcDbLinetypeTableRecord
  2
ACAD_ISO14W100
 70
     0
  3
ISO dash triple-dot __ . . . __ . . . __ . . . _
 72
    65
 73
     8
 40
24.0
 49
12.0
 74
     0
 49
-3.0
 74
     0
 49
0.0
 74
     0
 49
-3.0
 74
     0
 49
0.0
 74
     0
 49
-3.0
 74
     0
 49
0.0
 74
     0
 49
-3.0
 74
     0
  0
LTYPE
  5
547D
330
53B3
100
AcDbSymbolTableRecord
100
AcDbLinetypeTableRecord
  2
ACAD_ISO15W100
 70
     0
  3
ISO double-dash triple-dot __ __ . . . __ __ . .
 72
    65
 73
    10
 40
39.0
 49
12.0
 74
     0
 49
-3.0
 74
     0
 49
12.0
 74
     0
 49
-3.0
 74
     0
 49
0.0
 74
     0
 49
-3.0
 74
     0
 49
0.0
 74
     0
 49
-3.0
 74
     0
 49
0.0
 74
     0
 49
-3.0
 74
     0
  0
LTYPE
  5
547E
330
53B3
100
AcDbSymbolTableRecord
100
AcDbLinetypeTableRecord
  2
ACAD_ISO04W100
 70
     0
  3
ISO long-dash dot ____ . ____ . ____ . ____ . _
 72
    65
 73
     4
 40
30.0
 49
24.0
 74
     0
 49
-3.0
 74
     0
 49
0.0
 74
     0
 49
-3.0
 74
     0
  0
ENDTAB
  0
TABLE
  2
LAYER
  5
53B1
330
0
100
AcDbSymbolTable
 70
     5
  0
LAYER
  5
53BE
330
53B1
100
AcDbSymbolTableRecord
100
AcDbLayerTableRecord
  2
0
 70
     0
 62
     4
420
    65535
  6
Continuous
370
    25
390
53BD
347
53F3
348
0
  0
LAYER
  5
547F
330
53B1
100
AcDbSymbolTableRecord
100
AcDbLayerTableRecord
  2
keycap
 70
     0
 62
    56
420
  8421376
  6
Continuous
370
    25
390
53BD
347
53F3
348
0
  0
LAYER
  5
5480
330
53B1
100
AcDbSymbolTableRecord
100
AcDbLayerTableRecord
  2
livello 1
 70
     0
 62
     1
420
 16711680
  6
Continuous
370
    25
390
53BD
347
53F3
348
0
  0
LAYER
  5
5481
330
53B1
100
AcDbSymbolTableRecord
100
AcDbLayerTableRecord
  2
livello 2
 70
     0
 62
     3
420
    65280
  6
Continuous
370
    25
390
53BD
347
53F3
348
0
  0
LAYER
  5
5482
330
53B1
100
AcDbSymbolTableRecord
100
AcDbLayerTableRecord
  2
livello 3
 70
     0
 62
     6
420
 16711935
  6
Continuous
370
    25
390
53BD
347
53F3
348
0
  0
ENDTAB
  0
TABLE
  2
STYLE
  5
53B2
330
0
100
AcDbSymbolTable
 70
    13
  0
STYLE
  5
53BF
330
53B2
100
AcDbSymbolTableRecord
100
AcDbTextStyleTableRecord
  2
Standard
 70
     0
 40
0.0
 41
1.0
 50
0.0
 71
     0
 42
0.2
  3
txt
  4

  0
STYLE
  5
5443
330
53B2
100
AcDbSymbolTableRecord
100
AcDbTextStyleTableRecord
  2
QCADDimTextStyle
 70
     0
 40
0.0
 41
1.0
 50
0.0
 71
     0
 42
0.2
  3
txt
  4

  0
STYLE
  5
544F
330
53B2
100
AcDbSymbolTableRecord
100
AcDbTextStyleTableRecord
  2
textstyle0
 70
     0
 40
0.0
 41
1.0
 50
0.0
 71
     0
 42
0.2
  3
STANDARD
  4

  0
STYLE
  5
5451
330
53B2
100
AcDbSymbolTableRecord
100
AcDbTextStyleTableRecord
  2
textstyle1
 70
     0
 40
0.0
 41
1.0
 50
0.0
 71
     0
 42
0.2
  3
ltypeshp.shx
  4

  0
STYLE
  5
5452
330
53B2
100
AcDbSymbolTableRecord
100
AcDbTextStyleTableRecord
  2
textstyle2
 70
     0
 40
0.0
 41
1.0
 50
0.0
 71
     0
 42
0.2
  3
ltypeshp.shx
  4

  0
STYLE
  5
5455
330
53B2
100
AcDbSymbolTableRecord
100
AcDbTextStyleTableRecord
  2
textstyle3
 70
     0
 40
0.0
 41
1.0
 50
0.0
 71
     0
 42
0.2
  3
ltypeshp.shx
  4

  0
STYLE
  5
5457
330
53B2
100
AcDbSymbolTableRecord
100
AcDbTextStyleTableRecord
  2
textstyle4
 70
     0
 40
0.0
 41
1.0
 50
0.0
 71
     0
 42
0.2
  3
qcadshp.shx
  4

  0
STYLE
  5
5459
330
53B2
100
AcDbSymbolTableRecord
100
AcDbTextStyleTableRecord
  2
textstyle5
 70
     0
 40
0.0
 41
1.0
 50
0.0
 71
     0
 42
0.2
  3
ltypeshp.shx
  4

  0
STYLE
  5
545C
330
53B2
100
AcDbSymbolTableRecord
100
AcDbTextStyleTableRecord
  2
textstyle6
 70
     0
 40
0.0
 41
1.0
 50
0.0
 71
     0
 42
0.2
  3
qcadshp.shx
  4

  0
STYLE
  5
5460
330
53B2
100
AcDbSymbolTableRecord
100
AcDbTextStyleTableRecord
  2
textstyle7
 70
     0
 40
0.0
 41
1.0
 50
0.0
 71
     0
 42
0.2
  3
ltypeshp.shx
  4

  0
STYLE
  5
5462
330
53B2
100
AcDbSymbolTableRecord
100
AcDbTextStyleTableRecord
  2
textstyle8
 70
     0
 40
0.0
 41
1.0
 50
0.0
 71
     0
 42
0.2
  3
STANDARD
  4

  0
STYLE
  5
5478
330
53B2
100
AcDbSymbolTableRecord
100
AcDbTextStyleTableRecord
  2
textstyle9
 70
     0
 40
0.0
 41
1.0
 50
0.0
 71
     0
 42
0.2
  3
ltypeshp.shx
  4

  0
STYLE
  5
5479
330
53B2
100
AcDbSymbolTableRecord
100
AcDbTextStyleTableRecord
  2
textstyle10
 70
     0
 40
0.0
 41
1.0
 50
0.0
 71
     0
 42
0.2
  3
ltypeshp.shx
  4

  0
ENDTAB
  0
TABLE
  2
VIEW
  5
53B4
330
0
100
AcDbSymbolTable
 70
     0
  0
ENDTAB
  0
TABLE
  2
UCS
  5
53B5
330
0
100
AcDbSymbolTable
 70
     0
  0
ENDTAB
  0
TABLE
  2
APPID
  5
53B7
330
0
100
AcDbSymbolTable
 70
     2
  0
APPID
  5
53C0
330
53B7
100
AcDbSymbolTableRecord
100
AcDbRegAppTableRecord
  2
ACAD
 70
     0
  0
APPID
  5
540B
330
53B7
100
AcDbSymbolTableRecord
100
AcDbRegAppTableRecord
  2
QCAD
 70
     0
  0
ENDTAB
  0
TABLE
  2
DIMSTYLE
  5
53B8
330
0
100
AcDbSymbolTable
 70
     2
100
AcDbDimStyleTable
  0
DIMSTYLE
105
53D4
330
53B8
100
AcDbSymbolTableRecord
100
AcDbDimStyleTableRecord
  2
Standard
 70
     0
178
     0
340
53BF
  0
DIMSTYLE
105
5444
330
53B8
100
AcDbSymbolTableRecord
100
AcDbDimStyleTableRecord
  2
QCADDimStyle
 70
     0
 41
2.5
 42
0.625
 44
1.25
 73
     0
 77
     1
140
2.5
147
0.625
178
     0
340
5443
  0
ENDTAB
  0
TABLE
  2
BLOCK_RECORD
  5
53B0
330
0
100
AcDbSymbolTable
 70
     0
  0
BLOCK_RECORD
  5
53CC
330
53B0
100
AcDbSymbolTableRecord
100
AcDbBlockTableRecord
  2
*Model_Space
340
53CF
 70
     0
280
     1
281
     0
  0
BLOCK_RECORD
  5
53C8
330
53B0
100
AcDbSymbolTableRecord
100
AcDbBlockTableRecord
  2
*Paper_Space
340
53CB
 70
     0
280
     1
281
     0
  0
ENDTAB
  0
ENDSEC
  0
SECTION
  2
BLOCKS
  0
BLOCK
  5
53CD
330
53CC
100
AcDbEntity
  8
0
100
AcDbBlockBegin
  2
*Model_Space
 70
     0
 10
0.0
 20
0.0
 30
0.0
  3
*Model_Space
  1

  0
ENDBLK
  5
53CE
330
53CC
100
AcDbEntity
  8
0
100
AcDbBlockEnd
  0
BLOCK
  5
53C9
330
53C8
100
AcDbEntity
 67
     1
  8
0
100
AcDbBlockBegin
  2
*Paper_Space
 70
     0
 10
0.0
 20
0.0
 30
0.0
  3
*Paper_Space
  1

  0
ENDBLK
  5
53CA
330
53C8
100
AcDbEntity
 67
     1
  8
0
100
AcDbBlockEnd
  0
ENDSEC
  0
SECTION
  2
ENTITIES
  0
LWPOLYLINE
  5
5037
330
53CC
100
AcDbEntity
  8
livello 3
 62
     6
420
 16721634
100
AcDbPolyline
 90
        2
 70
   128
 43
0.0
 10
-17.87397975491192
 20
90.4369695427157
 10
-17.87397975491195
 20
37.03696954271584
  0
LWPOLYLINE
  5
5038
330
53CC
100
AcDbEntity
  8
livello 3
 62
     6
420
 16721634
100
AcDbPolyline
 90
        2
 70
   128
 43
0.0
 10
-17.87397975491195
 20
37.03696954271584
 10
3.326020245088117
 20
37.03696954271584
  0
LWPOLYLINE
  5
5039
330
53CC
100
AcDbEntity
  8
livello 3
 62
     6
420
 16721634
100
AcDbPolyline
 90
        2
 70
   128
 43
0.0
 10
3.326020245088117
 20
37.03696954271584
 10
3.326020245088131
 20
90.4369695427157
  0
LWPOLYLINE
  5
503A
330
53CC
100
AcDbEntity
  8
livello 3
 62
     6
420
 16721634
100
AcDbPolyline
 90
        2
 70
   128
 43
0.0
 10
3.326020245088131
 20
90.4369695427157
 10
-17.87397975491192
 20
90.4369695427157
  0
LINE
  5
503B
330
53CC
100
AcDbEntity
  8
0
 62
     0
100
AcDbLine
 10
-2.562047906057082
 20
-9.562102830945037
 30
0.0
 11
1.507492064781708
 21
-7.212552823870169
 31
0.0
  0
LINE
  5
503C
330
53CC
100
AcDbEntity
  8
0
 62
     0
100
AcDbLine
 10
1.507492064781708
 20
-7.212552823870169
 30
0.0
 11
2.269992067077645
 21
-8.533241563315869
 31
0.0
  0
LINE
  5
503D
330
53CC
100
AcDbEntity
  8
0
 62
     0
100
AcDbLine
 10
2.269992067077645
 20
-8.533241563315869
 30
0.0
 11
-0.5273565868786747
 21
-10.14829156817905
 31
0.0
  0
LINE
  5
503E
330
53CC
100
AcDbEntity
  8
0
 62
     0
100
AcDbLine
 10
-0.5273565868786747
 20
-10.14829156817905
 30
0.0
 11
0.3346434157169327
 21
-11.64131936280467
 31
0.0
  0
LINE
  5
503F
330
53CC
100
AcDbEntity
  8
0
 62
     0
100
AcDbLine
 10
0.3346434157169327
 20
-11.64131936280467
 30
0.0
 11
-0.4613205321024694
 21
-12.1008693641885
 31
0.0
  0
LINE
  5
5040
330
53CC
100
AcDbEntity
  8
0
 62
     0
100
AcDbLine
 10
-0.4613205321024694
 20
-12.1008693641885
 30
0.0
 11
1.18917947286743
 21
-14.95961921921162
 31
0.0
  0
LINE
  5
5041
330
53CC
100
AcDbEntity
  8
0
 62
     0
100
AcDbLine
 10
1.18917947286743
 20
-14.95961921921162
 30
0.0
 11
1.985143420686832
 21
-14.5000692178279
 31
0.0
  0
LINE
  5
5042
330
53CC
100
AcDbEntity
  8
0
 62
     0
100
AcDbLine
 10
1.985143420686832
 20
-14.5000692178279
 30
0.0
 11
2.847643423283934
 21
-15.99396303785659
 31
0.0
  0
LINE
  5
5043
330
53CC
100
AcDbEntity
  8
0
 62
     0
100
AcDbLine
 10
2.847643423283934
 20
-15.99396303785659
 30
0.0
 11
5.64499207724031
 21
-14.37891303299341
 31
0.0
  0
LINE
  5
5044
330
53CC
100
AcDbEntity
  8
0
 62
     0
100
AcDbLine
 10
5.64499207724031
 20
-14.37891303299341
 30
0.0
 11
6.056992078480839
 21
-15.09251796499552
 31
0.0
  0
LINE
  5
5045
330
53CC
100
AcDbEntity
  8
0
 62
     0
100
AcDbLine
 10
6.056992078480839
 20
-15.09251796499552
 30
0.0
 11
8.482036411724046
 21
-13.69241796077961
 31
0.0
  0
LINE
  5
5046
330
53CC
100
AcDbEntity
  8
0
 62
     0
100
AcDbLine
 10
8.482036411724046
 20
-13.69241796077961
 30
0.0
 11
8.07003641048346
 21
-12.97881302877738
 31
0.0
  0
LINE
  5
5047
330
53CC
100
AcDbEntity
  8
0
 62
     0
100
AcDbLine
 10
8.07003641048346
 20
-12.97881302877738
 30
0.0
 11
13.50010228930201
 21
-9.843763019337416
 31
0.0
  0
LINE
  5
5048
330
53CC
100
AcDbEntity
  8
0
 62
     0
100
AcDbLine
 10
13.50010228930201
 20
-9.843763019337416
 30
0.0
 11
12.63760228670493
 21
-8.349869199308614
 31
0.0
  0
LINE
  5
5049
330
53CC
100
AcDbEntity
  8
0
 62
     0
100
AcDbLine
 10
12.63760228670493
 20
-8.349869199308614
 30
0.0
 11
13.48613397648119
 21
-7.859969197833607
 31
0.0
  0
LINE
  5
504A
330
53CC
100
AcDbEntity
  8
0
 62
     0
100
AcDbLine
 10
13.48613397648119
 20
-7.859969197833607
 30
0.0
 11
11.83563397151126
 21
-5.0012193428106
 31
0.0
  0
LINE
  5
504B
330
53CC
100
AcDbEntity
  8
0
 62
     0
100
AcDbLine
 10
11.83563397151126
 20
-5.0012193428106
 30
0.0
 11
10.98710228173505
 21
-5.491119344285607
 31
0.0
  0
LINE
  5
504C
330
53CC
100
AcDbEntity
  8
0
 62
     0
100
AcDbLine
 10
10.98710228173505
 20
-5.491119344285607
 30
0.0
 11
10.1251022791394
 21
-3.998091549659875
 31
0.0
  0
LINE
  5
504D
330
53CC
100
AcDbEntity
  8
0
 62
     0
100
AcDbLine
 10
10.1251022791394
 20
-3.998091549659875
 30
0.0
 11
6.253622317947269
 21
-6.233291556390441
 31
0.0
  0
LINE
  5
504E
330
53CC
100
AcDbEntity
  8
0
 62
     0
100
AcDbLine
 10
6.253622317947269
 20
-6.233291556390441
 30
0.0
 11
5.491122315651346
 21
-4.912602816944741
 31
0.0
  0
LINE
  5
504F
330
53CC
100
AcDbEntity
  8
0
 62
     0
100
AcDbLine
 10
5.491122315651346
 20
-4.912602816944741
 30
0.0
 11
9.561874722056608
 21
-2.562352809858794
 31
0.0
  0
LINE
  5
5050
330
53CC
100
AcDbEntity
  8
0
 62
     0
100
AcDbLine
 10
9.561874722056608
 20
-2.562352809858794
 30
0.0
 11
2.56187470097624
 21
9.562002830944948
 31
0.0
  0
LINE
  5
5051
330
53CC
100
AcDbEntity
  8
0
 62
     0
100
AcDbLine
 10
2.56187470097624
 20
9.562002830944948
 30
0.0
 11
-1.508877705426649
 21
7.211752823868096
 31
0.0
  0
LINE
  5
5052
330
53CC
100
AcDbEntity
  8
0
 62
     0
100
AcDbLine
 10
-1.508877705426649
 20
7.211752823868096
 30
0.0
 11
-2.271377707722642
 21
8.532441563313682
 31
0.0
  0
LINE
  5
5053
330
53CC
100
AcDbEntity
  8
0
 62
     0
100
AcDbLine
 10
-2.271377707722642
 20
8.532441563313682
 30
0.0
 11
1.600102253469494
 21
10.76764157004425
 31
0.0
  0
LINE
  5
5054
330
53CC
100
AcDbEntity
  8
0
 62
     0
100
AcDbLine
 10
1.600102253469494
 20
10.76764157004425
 30
0.0
 11
0.7371022508708549
 21
12.26240141547589
 31
0.0
  0
LINE
  5
5055
330
53CC
100
AcDbEntity
  8
0
 62
     0
100
AcDbLine
 10
0.7371022508708549
 20
12.26240141547589
 30
0.0
 11
1.585633940647135
 21
12.75230141695101
 31
0.0
  0
LINE
  5
5056
330
53CC
100
AcDbEntity
  8
0
 62
     0
100
AcDbLine
 10
1.585633940647135
 20
12.75230141695101
 30
0.0
 11
-0.0643660643212414
 21
15.61018524657118
 31
0.0
  0
LINE
  5
5057
330
53CC
100
AcDbEntity
  8
0
 62
     0
100
AcDbLine
 10
-0.0643660643212414
 20
15.61018524657118
 30
0.0
 11
-0.9128977540975072
 21
15.12028524509594
 31
0.0
  0
LINE
  5
5058
330
53CC
100
AcDbEntity
  8
0
 62
     0
100
AcDbLine
 10
-0.9128977540975072
 20
15.12028524509594
 30
0.0
 11
-1.7748977566931
 21
16.6133130397219
 31
0.0
  0
LINE
  5
5059
330
53CC
100
AcDbEntity
  8
0
 62
     0
100
AcDbLine
 10
-1.7748977566931
 20
16.6133130397219
 30
0.0
 11
-7.204963635511696
 21
13.47826303028182
 31
0.0
  0
LINE
  5
505A
330
53CC
100
AcDbEntity
  8
0
 62
     0
100
AcDbLine
 10
-7.204963635511696
 20
13.47826303028182
 30
0.0
 11
-7.617463636753804
 21
14.19273398768678
 31
0.0
  0
LINE
  5
505B
330
53CC
100
AcDbEntity
  8
0
 62
     0
100
AcDbLine
 10
-7.617463636753804
 20
14.19273398768678
 30
0.0
 11
-10.04250796999694
 21
12.79263398347086
 31
0.0
  0
LINE
  5
505C
330
53CC
100
AcDbEntity
  8
0
 62
     0
100
AcDbLine
 10
-10.04250796999694
 20
12.79263398347086
 30
0.0
 11
-9.630007968754875
 21
12.07816302606579
 31
0.0
  0
LINE
  5
505D
330
53CC
100
AcDbEntity
  8
0
 62
     0
100
AcDbLine
 10
-9.630007968754875
 20
12.07816302606579
 30
0.0
 11
-12.42735662271122
 21
10.46311302120284
 31
0.0
  0
LINE
  5
505E
330
53CC
100
AcDbEntity
  8
0
 62
     0
100
AcDbLine
 10
-12.42735662271122
 20
10.46311302120284
 30
0.0
 11
-11.56535662011564
 21
8.970085226576998
 31
0.0
  0
LINE
  5
505F
330
53CC
100
AcDbEntity
  8
0
 62
     0
100
AcDbLine
 10
-11.56535662011564
 20
8.970085226576998
 30
0.0
 11
-12.36132056793503
 21
8.510535225193166
 31
0.0
  0
LINE
  5
5060
330
53CC
100
AcDbEntity
  8
0
 62
     0
100
AcDbLine
 10
-12.36132056793503
 20
8.510535225193166
 30
0.0
 11
-10.71132056296661
 21
5.652651395572889
 31
0.0
  0
LINE
  5
5061
330
53CC
100
AcDbEntity
  8
0
 62
     0
100
AcDbLine
 10
-10.71132056296661
 20
5.652651395572889
 30
0.0
 11
-9.915356615147225
 21
6.112201396956721
 31
0.0
  0
LINE
  5
5062
330
53CC
100
AcDbEntity
  8
0
 62
     0
100
AcDbLine
 10
-9.915356615147225
 20
6.112201396956721
 30
0.0
 11
-9.052356612548657
 21
4.617441551525076
 31
0.0
  0
LINE
  5
5063
330
53CC
100
AcDbEntity
  8
0
 62
     0
100
AcDbLine
 10
-9.052356612548657
 20
4.617441551525076
 30
0.0
 11
-6.255007958592252
 21
6.232491556388254
 31
0.0
  0
LINE
  5
5064
330
53CC
100
AcDbEntity
  8
0
 62
     0
100
AcDbLine
 10
-6.255007958592252
 20
6.232491556388254
 30
0.0
 11
-5.492507956296272
 21
4.911802816942554
 31
0.0
  0
LINE
  5
5065
330
53CC
100
AcDbEntity
  8
0
 62
     0
100
AcDbLine
 10
-5.492507956296272
 20
4.911802816942554
 30
0.0
 11
-9.562047927114158
 21
2.562252809945676
 31
0.0
  0
LINE
  5
5066
330
53CC
100
AcDbEntity
  8
0
 62
     0
100
AcDbLine
 10
-9.562047927114158
 20
2.562252809945676
 30
0.0
 11
-2.562047906057082
 21
-9.562102830945037
 31
0.0
  0
LWPOLYLINE
  5
5398
330
53CC
100
AcDbEntity
  8
livello 3
 62
     6
420
 16721634
100
AcDbPolyline
 90
        2
 70
   128
 43
0.0
 10
-11.82999999999996
 20
-11.79999999999998
 10
-11.82999999999996
 20
-8.5
  0
LWPOLYLINE
  5
5399
330
53CC
100
AcDbEntity
  8
livello 3
 62
     6
420
 16721634
100
AcDbPolyline
 90
        2
 70
   128
 43
0.0
 10
-10.37000000000006
 20
-11.79999999999998
 10
-11.82999999999996
 20
-11.79999999999998
  0
LWPOLYLINE
  5
539A
330
53CC
100
AcDbEntity
  8
livello 3
 62
     6
420
 16721634
100
AcDbPolyline
 90
        2
 70
   128
 43
0.0
 10
-11.82999999999996
 20
-8.5
 10
-10.37000000000006
 20
-8.5
  0
LWPOLYLINE
  5
539B
330
53CC
100
AcDbEntity
  8
livello 3
 62
     6
420
 16721634
100
AcDbPolyline
 90
        2
 70
   128
 43
0.0
 10
-10.37000000000006
 20
-8.5
 10
-10.37000000000006
 20
-11.79999999999998
  0
LWPOLYLINE
  5
539C
330
53CC
100
AcDbEntity
  8
livello 3
 62
     6
420
 16721634
100
AcDbPolyline
 90
        2
 70
   128
 43
0.0
 10
-33.62999999999997
 20
-11.59999999999991
 10
-33.62999999999997
 20
-8.299999999999983
  0
LWPOLYLINE
  5
539D
330
53CC
100
AcDbEntity
  8
livello 3
 62
     6
420
 16721634
100
AcDbPolyline
 90
        2
 70
   128
 43
0.0
 10
-32.16999999999985
 20
-11.59999999999991
 10
-33.62999999999997
 20
-11.59999999999991
  0
LWPOLYLINE
  5
539E
330
53CC
100
AcDbEntity
  8
livello 3
 62
     6
420
 16721634
100
AcDbPolyline
 90
        2
 70
   128
 43
0.0
 10
-33.62999999999997
 20
-8.299999999999983
 10
-32.16999999999985
 20
-8.299999999999983
  0
LWPOLYLINE
  5
539F
330
53CC
100
AcDbEntity
  8
livello 3
 62
     6
420
 16721634
100
AcDbPolyline
 90
        2
 70
   128
 43
0.0
 10
-32.16999999999985
 20
-8.299999999999983
 10
-32.16999999999985
 20
-11.59999999999991
  0
LINE
  5
5067
330
53CC
100
AcDbEntity
  8
0
 62
     0
100
AcDbLine
 10
45.33236316520753
 20
10.7290195427156
 30
0.0
 11
59.3313631651812
 21
10.72901954274198
 31
0.0
  0
LINE
  5
5068
330
53CC
100
AcDbEntity
  8
0
 62
     0
100
AcDbLine
 10
69.21336316520761
 20
10.72901954271572
 30
0.0
 11
83.21236316518127
 21
10.72901954274198
 31
0.0
  0
LINE
  5
5069
330
53CC
100
AcDbEntity
  8
0
 62
     0
100
AcDbLine
 10
59.3313631651812
 20
10.72901954274198
 30
0.0
 11
59.33136316520756
 21
-3.270480457284407
 31
0.0
  0
LINE
  5
506A
330
53CC
100
AcDbEntity
  8
0
 62
     0
100
AcDbLine
 10
83.21236316518127
 20
10.72901954274198
 30
0.0
 11
83.21236316520763
 21
-3.270480457284293
 31
0.0
  0
LINE
  5
506B
330
53CC
100
AcDbEntity
  8
0
 62
     0
100
AcDbLine
 10
59.33136316520756
 20
-3.270480457284407
 30
0.0
 11
45.33236316516118
 21
-3.270480457238023
 31
0.0
  0
LINE
  5
506C
330
53CC
100
AcDbEntity
  8
0
 62
     0
100
AcDbLine
 10
83.21236316520763
 20
-3.270480457284293
 30
0.0
 11
69.21336316516124
 21
-3.270480457237909
 31
0.0
  0
LINE
  5
506D
330
53CC
100
AcDbEntity
  8
0
 62
     0
100
AcDbLine
 10
45.33236316516118
 20
-3.270480457238023
 30
0.0
 11
45.33236316520753
 21
10.7290195427156
 31
0.0
  0
LINE
  5
506E
330
53CC
100
AcDbEntity
  8
0
 62
     0
100
AcDbLine
 10
69.21336316516124
 20
-3.270480457237909
 30
0.0
 11
69.21336316520761
 21
10.72901954271572
 31
0.0
  0
LINE
  5
506F
330
53CC
100
AcDbEntity
  8
0
 62
     0
100
AcDbLine
 10
18.08901351114391
 20
5.896421064068477
 30
0.0
 11
31.61197507919086
 21
9.519887695503712
 31
0.0
  0
LINE
  5
5070
330
53CC
100
AcDbEntity
  8
0
 62
     0
100
AcDbLine
 10
31.61197507919086
 20
9.519887695503712
 30
0.0
 11
35.2353123011036
 21
-4.002590909630044
 31
0.0
  0
LINE
  5
5071
330
53CC
100
AcDbEntity
  8
0
 62
     0
100
AcDbLine
 10
35.2353123011036
 20
-4.002590909630044
 30
0.0
 11
21.71235073305665
 21
-7.626057541065393
 31
0.0
  0
LINE
  5
5072
330
53CC
100
AcDbEntity
  8
0
 62
     0
100
AcDbLine
 10
21.71235073305665
 20
-7.626057541065393
 30
0.0
 11
18.08901351114391
 21
5.896421064068477
 31
0.0
  0
LWPOLYLINE
  5
53A0
330
53CC
100
AcDbEntity
  8
livello 3
 62
     6
420
 16721634
100
AcDbPolyline
 90
        2
 70
   128
 43
0.0
 10
-29.49999999999986
 20
-18.87260000000001
 10
-14.49999999999986
 20
-18.87260000000001
  0
LWPOLYLINE
  5
53A1
330
53CC
100
AcDbEntity
  8
livello 3
 62
     6
420
 16721634
100
AcDbPolyline
 90
        2
 70
   128
 43
0.0
 10
-29.49999999999986
 20
-18.87260000000001
 10
-29.49999999999986
 20
-1.372600000000006
  0
LWPOLYLINE
  5
53A2
330
53CC
100
AcDbEntity
  8
livello 3
 62
     6
420
 16721634
100
AcDbPolyline
 90
        2
 70
   128
 43
0.0
 10
-14.49999999999986
 20
-1.372600000000006
 10
-14.49999999999986
 20
-18.87260000000001
  0
LWPOLYLINE
  5
53A3
330
53CC
100
AcDbEntity
  8
livello 3
 62
     6
420
 16721634
100
AcDbPolyline
 90
        2
 70
   128
 43
0.0
 10
-14.49999999999986
 20
-1.372600000000006
 10
-29.49999999999986
 20
-1.372600000000006
  0
LWPOLYLINE
  5
53A4
330
53CC
100
AcDbEntity
  8
livello 3
 62
     6
420
 16721634
100
AcDbPolyline
 90
        2
 70
   128
 43
0.0
 10
-20.35000000000005
 20
-21.68000000000001
 10
-23.65000000000006
 20
-21.68000000000001
  0
LWPOLYLINE
  5
53A5
330
53CC
100
AcDbEntity
  8
livello 3
 62
     6
420
 16721634
100
AcDbPolyline
 90
        2
 70
   128
 43
0.0
 10
-20.35000000000005
 20
-20.21999999999989
 10
-20.35000000000005
 20
-21.68000000000001
  0
LWPOLYLINE
  5
53A6
330
53CC
100
AcDbEntity
  8
livello 3
 62
     6
420
 16721634
100
AcDbPolyline
 90
        2
 70
   128
 43
0.0
 10
-23.65000000000006
 20
-21.68000000000001
 10
-23.65000000000006
 20
-20.21999999999989
  0
LWPOLYLINE
  5
53A7
330
53CC
100
AcDbEntity
  8
livello 3
 62
     6
420
 16721634
100
AcDbPolyline
 90
        2
 70
   128
 43
0.0
 10
-23.65000000000006
 20
-20.21999999999989
 10
-20.35000000000005
 20
-20.21999999999989
  0
LINE
  5
5073
330
53CC
100
AcDbEntity
  8
0
 62
     0
100
AcDbLine
 10
10.16318878802831
 20
32.63681954271578
 30
0.0
 11
24.16218878802831
 21
32.63681954271578
 31
0.0
  0
LINE
  5
5074
330
53CC
100
AcDbEntity
  8
0
 62
     0
100
AcDbLine
 10
24.16218878802831
 20
32.63681954271578
 30
0.0
 11
24.16218878802831
 21
18.63711954271582
 31
0.0
  0
LINE
  5
5075
330
53CC
100
AcDbEntity
  8
0
 62
     0
100
AcDbLine
 10
24.16218878802831
 20
18.63711954271582
 30
0.0
 11
10.16318878802831
 21
18.63711954271582
 31
0.0
  0
LINE
  5
5076
330
53CC
100
AcDbEntity
  8
0
 62
     0
100
AcDbLine
 10
10.16318878802831
 20
18.63711954271582
 30
0.0
 11
10.16318878802831
 21
32.63681954271578
 31
0.0
  0
LINE
  5
5077
330
53CC
100
AcDbEntity
  8
0
 62
     0
100
AcDbLine
 10
29.21318878802833
 20
32.63681954271578
 30
0.0
 11
43.21218878802831
 21
32.63681954271578
 31
0.0
  0
LINE
  5
5078
330
53CC
100
AcDbEntity
  8
0
 62
     0
100
AcDbLine
 10
43.21218878802831
 20
32.63681954271578
 30
0.0
 11
43.21218878802831
 21
18.63711954271582
 31
0.0
  0
LINE
  5
5079
330
53CC
100
AcDbEntity
  8
0
 62
     0
100
AcDbLine
 10
43.21218878802831
 20
18.63711954271582
 30
0.0
 11
29.21318878802833
 21
18.63711954271582
 31
0.0
  0
LINE
  5
507A
330
53CC
100
AcDbEntity
  8
0
 62
     0
100
AcDbLine
 10
29.21318878802833
 20
18.63711954271582
 30
0.0
 11
29.21318878802833
 21
32.63681954271578
 31
0.0
  0
LINE
  5
507B
330
53CC
100
AcDbEntity
  8
0
 62
     0
100
AcDbLine
 10
48.26318878802831
 20
32.63681954271578
 30
0.0
 11
62.2621887880283
 21
32.63681954271578
 31
0.0
  0
LINE
  5
507C
330
53CC
100
AcDbEntity
  8
0
 62
     0
100
AcDbLine
 10
62.2621887880283
 20
32.63681954271578
 30
0.0
 11
62.2621887880283
 21
18.63711954271582
 31
0.0
  0
LINE
  5
507D
330
53CC
100
AcDbEntity
  8
0
 62
     0
100
AcDbLine
 10
62.2621887880283
 20
18.63711954271582
 30
0.0
 11
48.26318878802831
 21
18.63711954271582
 31
0.0
  0
LINE
  5
507E
330
53CC
100
AcDbEntity
  8
0
 62
     0
100
AcDbLine
 10
48.26318878802831
 20
18.63711954271582
 30
0.0
 11
48.26318878802831
 21
32.63681954271578
 31
0.0
  0
LWPOLYLINE
  5
53A8
330
53CC
100
AcDbEntity
  8
livello 3
 62
     6
420
 16721634
100
AcDbPolyline
 90
        2
 70
   128
 43
0.0
 10
-20.15000000000006
 20
0.2200000000001125
 10
-23.44999999999996
 20
0.2200000000001125
  0
LINE
  5
507F
330
53CC
100
AcDbEntity
  8
0
 62
     0
100
AcDbLine
 10
67.31318878802833
 20
32.63681954271578
 30
0.0
 11
81.31218878802832
 21
32.63681954271578
 31
0.0
  0
LINE
  5
5080
330
53CC
100
AcDbEntity
  8
0
 62
     0
100
AcDbLine
 10
81.31218878802832
 20
32.63681954271578
 30
0.0
 11
81.31218878802832
 21
18.63711954271582
 31
0.0
  0
LWPOLYLINE
  5
53A9
330
53CC
100
AcDbEntity
  8
livello 3
 62
     6
420
 16721634
100
AcDbPolyline
 90
        2
 70
   128
 43
0.0
 10
-20.15000000000006
 20
1.680000000000007
 10
-20.15000000000006
 20
0.2200000000001125
  0
LINE
  5
5081
330
53CC
100
AcDbEntity
  8
0
 62
     0
100
AcDbLine
 10
81.31218878802832
 20
18.63711954271582
 30
0.0
 11
67.31318878802833
 21
18.63711954271582
 31
0.0
  0
LWPOLYLINE
  5
53AA
330
53CC
100
AcDbEntity
  8
livello 3
 62
     6
420
 16721634
100
AcDbPolyline
 90
        2
 70
   128
 43
0.0
 10
-23.44999999999996
 20
0.2200000000001125
 10
-23.44999999999996
 20
1.680000000000007
  0
LINE
  5
5082
330
53CC
100
AcDbEntity
  8
0
 62
     0
100
AcDbLine
 10
67.31318878802833
 20
18.63711954271582
 30
0.0
 11
67.31318878802833
 21
32.63681954271578
 31
0.0
  0
LINE
  5
5083
330
53CC
100
AcDbEntity
  8
0
 62
     0
100
AcDbLine
 10
86.36318878802831
 20
32.63681954271578
 30
0.0
 11
100.3621887880283
 21
32.63681954271578
 31
0.0
  0
LWPOLYLINE
  5
53AB
330
53CC
100
AcDbEntity
  8
livello 3
 62
     6
420
 16721634
100
AcDbPolyline
 90
        2
 70
   128
 43
0.0
 10
-23.44999999999996
 20
1.680000000000007
 10
-20.15000000000006
 20
1.680000000000007
  0
LINE
  5
5084
330
53CC
100
AcDbEntity
  8
0
 62
     0
100
AcDbLine
 10
100.3621887880283
 20
32.63681954271578
 30
0.0
 11
100.3621887880283
 21
18.63711954271582
 31
0.0
  0
LINE
  5
5085
330
53CC
100
AcDbEntity
  8
0
 62
     0
100
AcDbLine
 10
100.3621887880283
 20
18.63711954271582
 30
0.0
 11
86.36318878802831
 21
18.63711954271582
 31
0.0
  0
LINE
  5
5086
330
53CC
100
AcDbEntity
  8
0
 62
     0
100
AcDbLine
 10
86.36318878802831
 20
18.63711954271582
 30
0.0
 11
86.36318878802831
 21
32.63681954271578
 31
0.0
  0
LINE
  5
5087
330
53CC
100
AcDbEntity
  8
0
 62
     0
100
AcDbLine
 10
10.16318878802831
 20
51.68681954271585
 30
0.0
 11
24.16218878802831
 21
51.68681954271585
 31
0.0
  0
LINE
  5
5088
330
53CC
100
AcDbEntity
  8
0
 62
     0
100
AcDbLine
 10
24.16218878802831
 20
51.68681954271585
 30
0.0
 11
24.16218878802831
 21
37.68711954271578
 31
0.0
  0
LINE
  5
5089
330
53CC
100
AcDbEntity
  8
0
 62
     0
100
AcDbLine
 10
24.16218878802831
 20
37.68711954271578
 30
0.0
 11
10.16318878802831
 21
37.68711954271578
 31
0.0
  0
LINE
  5
508A
330
53CC
100
AcDbEntity
  8
0
 62
     0
100
AcDbLine
 10
10.16318878802831
 20
37.68711954271578
 30
0.0
 11
10.16318878802831
 21
51.68681954271585
 31
0.0
  0
LINE
  5
508B
330
53CC
100
AcDbEntity
  8
0
 62
     0
100
AcDbLine
 10
29.21318878802833
 20
51.68681954271585
 30
0.0
 11
43.21218878802831
 21
51.68681954271585
 31
0.0
  0
LINE
  5
508C
330
53CC
100
AcDbEntity
  8
0
 62
     0
100
AcDbLine
 10
43.21218878802831
 20
51.68681954271585
 30
0.0
 11
43.21218878802831
 21
37.68711954271578
 31
0.0
  0
LINE
  5
508D
330
53CC
100
AcDbEntity
  8
0
 62
     0
100
AcDbLine
 10
43.21218878802831
 20
37.68711954271578
 30
0.0
 11
29.21318878802833
 21
37.68711954271578
 31
0.0
  0
LINE
  5
508E
330
53CC
100
AcDbEntity
  8
0
 62
     0
100
AcDbLine
 10
29.21318878802833
 20
37.68711954271578
 30
0.0
 11
29.21318878802833
 21
51.68681954271585
 31
0.0
  0
LINE
  5
508F
330
53CC
100
AcDbEntity
  8
0
 62
     0
100
AcDbLine
 10
48.26318878802831
 20
51.68681954271585
 30
0.0
 11
62.2621887880283
 21
51.68681954271585
 31
0.0
  0
LINE
  5
5090
330
53CC
100
AcDbEntity
  8
0
 62
     0
100
AcDbLine
 10
62.2621887880283
 20
51.68681954271585
 30
0.0
 11
62.2621887880283
 21
37.68711954271578
 31
0.0
  0
LINE
  5
5091
330
53CC
100
AcDbEntity
  8
0
 62
     0
100
AcDbLine
 10
62.2621887880283
 20
37.68711954271578
 30
0.0
 11
48.26318878802831
 21
37.68711954271578
 31
0.0
  0
LINE
  5
5092
330
53CC
100
AcDbEntity
  8
0
 62
     0
100
AcDbLine
 10
48.26318878802831
 20
37.68711954271578
 30
0.0
 11
48.26318878802831
 21
51.68681954271585
 31
0.0
  0
LINE
  5
5093
330
53CC
100
AcDbEntity
  8
0
 62
     0
100
AcDbLine
 10
67.31318878802833
 20
51.68681954271585
 30
0.0
 11
81.31218878802832
 21
51.68681954271585
 31
0.0
  0
LINE
  5
5094
330
53CC
100
AcDbEntity
  8
0
 62
     0
100
AcDbLine
 10
81.31218878802832
 20
51.68681954271585
 30
0.0
 11
81.31218878802832
 21
37.68711954271578
 31
0.0
  0
LINE
  5
5095
330
53CC
100
AcDbEntity
  8
0
 62
     0
100
AcDbLine
 10
81.31218878802832
 20
37.68711954271578
 30
0.0
 11
67.31318878802833
 21
37.68711954271578
 31
0.0
  0
LINE
  5
5096
330
53CC
100
AcDbEntity
  8
0
 62
     0
100
AcDbLine
 10
67.31318878802833
 20
37.68711954271578
 30
0.0
 11
67.31318878802833
 21
51.68681954271585
 31
0.0
  0
LINE
  5
5097
330
53CC
100
AcDbEntity
  8
0
 62
     0
100
AcDbLine
 10
86.36318878802831
 20
51.68681954271585
 30
0.0
 11
100.3621887880283
 21
51.68681954271585
 31
0.0
  0
LINE
  5
5098
330
53CC
100
AcDbEntity
  8
0
 62
     0
100
AcDbLine
 10
100.3621887880283
 20
51.68681954271585
 30
0.0
 11
100.3621887880283
 21
37.68711954271578
 31
0.0
  0
LINE
  5
5099
330
53CC
100
AcDbEntity
  8
0
 62
     0
100
AcDbLine
 10
100.3621887880283
 20
37.68711954271578
 30
0.0
 11
86.36318878802831
 21
37.68711954271578
 31
0.0
  0
LINE
  5
509A
330
53CC
100
AcDbEntity
  8
0
 62
     0
100
AcDbLine
 10
86.36318878802831
 20
37.68711954271578
 30
0.0
 11
86.36318878802831
 21
51.68681954271585
 31
0.0
  0
LINE
  5
509B
330
53CC
100
AcDbEntity
  8
0
 62
     0
100
AcDbLine
 10
10.16318878802831
 20
70.7368195427158
 30
0.0
 11
24.16218878802831
 21
70.7368195427158
 31
0.0
  0
LINE
  5
509C
330
53CC
100
AcDbEntity
  8
0
 62
     0
100
AcDbLine
 10
24.16218878802831
 20
70.7368195427158
 30
0.0
 11
24.16218878802831
 21
56.73711954271573
 31
0.0
  0
LINE
  5
509D
330
53CC
100
AcDbEntity
  8
0
 62
     0
100
AcDbLine
 10
24.16218878802831
 20
56.73711954271573
 30
0.0
 11
10.16318878802831
 21
56.73711954271573
 31
0.0
  0
LINE
  5
509E
330
53CC
100
AcDbEntity
  8
0
 62
     0
100
AcDbLine
 10
10.16318878802831
 20
56.73711954271573
 30
0.0
 11
10.16318878802831
 21
70.7368195427158
 31
0.0
  0
LINE
  5
509F
330
53CC
100
AcDbEntity
  8
0
 62
     0
100
AcDbLine
 10
29.21318878802833
 20
70.7368195427158
 30
0.0
 11
43.21218878802831
 21
70.7368195427158
 31
0.0
  0
LINE
  5
50A0
330
53CC
100
AcDbEntity
  8
0
 62
     0
100
AcDbLine
 10
43.21218878802831
 20
70.7368195427158
 30
0.0
 11
43.21218878802831
 21
56.73711954271573
 31
0.0
  0
LINE
  5
50A1
330
53CC
100
AcDbEntity
  8
0
 62
     0
100
AcDbLine
 10
43.21218878802831
 20
56.73711954271573
 30
0.0
 11
29.21318878802833
 21
56.73711954271573
 31
0.0
  0
LINE
  5
50A2
330
53CC
100
AcDbEntity
  8
0
 62
     0
100
AcDbLine
 10
29.21318878802833
 20
56.73711954271573
 30
0.0
 11
29.21318878802833
 21
70.7368195427158
 31
0.0
  0
LINE
  5
50A3
330
53CC
100
AcDbEntity
  8
0
 62
     0
100
AcDbLine
 10
48.26318878802831
 20
70.7368195427158
 30
0.0
 11
62.2621887880283
 21
70.7368195427158
 31
0.0
  0
LINE
  5
50A4
330
53CC
100
AcDbEntity
  8
0
 62
     0
100
AcDbLine
 10
62.2621887880283
 20
70.7368195427158
 30
0.0
 11
62.2621887880283
 21
56.73711954271573
 31
0.0
  0
LINE
  5
50A5
330
53CC
100
AcDbEntity
  8
0
 62
     0
100
AcDbLine
 10
62.2621887880283
 20
56.73711954271573
 30
0.0
 11
48.26318878802831
 21
56.73711954271573
 31
0.0
  0
LINE
  5
50A6
330
53CC
100
AcDbEntity
  8
0
 62
     0
100
AcDbLine
 10
48.26318878802831
 20
56.73711954271573
 30
0.0
 11
48.26318878802831
 21
70.7368195427158
 31
0.0
  0
LINE
  5
50A7
330
53CC
100
AcDbEntity
  8
0
 62
     0
100
AcDbLine
 10
67.31318878802833
 20
70.7368195427158
 30
0.0
 11
81.31218878802832
 21
70.7368195427158
 31
0.0
  0
LINE
  5
50A8
330
53CC
100
AcDbEntity
  8
0
 62
     0
100
AcDbLine
 10
81.31218878802832
 20
70.7368195427158
 30
0.0
 11
81.31218878802832
 21
56.73711954271573
 31
0.0
  0
LINE
  5
50A9
330
53CC
100
AcDbEntity
  8
0
 62
     0
100
AcDbLine
 10
81.31218878802832
 20
56.73711954271573
 30
0.0
 11
67.31318878802833
 21
56.73711954271573
 31
0.0
  0
LINE
  5
50AA
330
53CC
100
AcDbEntity
  8
0
 62
     0
100
AcDbLine
 10
67.31318878802833
 20
56.73711954271573
 30
0.0
 11
67.31318878802833
 21
70.7368195427158
 31
0.0
  0
LINE
  5
50AB
330
53CC
100
AcDbEntity
  8
0
 62
     0
100
AcDbLine
 10
86.36318878802831
 20
70.7368195427158
 30
0.0
 11
100.3621887880283
 21
70.7368195427158
 31
0.0
  0
LINE
  5
50AC
330
53CC
100
AcDbEntity
  8
0
 62
     0
100
AcDbLine
 10
100.3621887880283
 20
70.7368195427158
 30
0.0
 11
100.3621887880283
 21
56.73711954271573
 31
0.0
  0
LINE
  5
50AD
330
53CC
100
AcDbEntity
  8
0
 62
     0
100
AcDbLine
 10
100.3621887880283
 20
56.73711954271573
 30
0.0
 11
86.36318878802831
 21
56.73711954271573
 31
0.0
  0
LINE
  5
50AE
330
53CC
100
AcDbEntity
  8
0
 62
     0
100
AcDbLine
 10
86.36318878802831
 20
56.73711954271573
 30
0.0
 11
86.36318878802831
 21
70.7368195427158
 31
0.0
  0
LINE
  5
50AF
330
53CC
100
AcDbEntity
  8
0
 62
     0
100
AcDbLine
 10
10.16318878802831
 20
89.7871195427158
 30
0.0
 11
24.16218878802831
 21
89.7871195427158
 31
0.0
  0
LINE
  5
50B0
330
53CC
100
AcDbEntity
  8
0
 62
     0
100
AcDbLine
 10
24.16218878802831
 20
89.7871195427158
 30
0.0
 11
24.16218878802831
 21
75.7871195427158
 31
0.0
  0
LINE
  5
50B1
330
53CC
100
AcDbEntity
  8
0
 62
     0
100
AcDbLine
 10
24.16218878802831
 20
75.7871195427158
 30
0.0
 11
10.16318878802831
 21
75.7871195427158
 31
0.0
  0
LINE
  5
50B2
330
53CC
100
AcDbEntity
  8
0
 62
     0
100
AcDbLine
 10
10.16318878802831
 20
75.7871195427158
 30
0.0
 11
10.16318878802831
 21
89.7871195427158
 31
0.0
  0
LINE
  5
50B3
330
53CC
100
AcDbEntity
  8
0
 62
     0
100
AcDbLine
 10
29.21318878802833
 20
89.7871195427158
 30
0.0
 11
43.21218878802831
 21
89.7871195427158
 31
0.0
  0
LINE
  5
50B4
330
53CC
100
AcDbEntity
  8
0
 62
     0
100
AcDbLine
 10
43.21218878802831
 20
89.7871195427158
 30
0.0
 11
43.21218878802831
 21
75.7871195427158
 31
0.0
  0
LINE
  5
50B5
330
53CC
100
AcDbEntity
  8
0
 62
     0
100
AcDbLine
 10
43.21218878802831
 20
75.7871195427158
 30
0.0
 11
29.21318878802833
 21
75.7871195427158
 31
0.0
  0
LINE
  5
50B6
330
53CC
100
AcDbEntity
  8
0
 62
     0
100
AcDbLine
 10
29.21318878802833
 20
75.7871195427158
 30
0.0
 11
29.21318878802833
 21
89.7871195427158
 31
0.0
  0
LINE
  5
50B7
330
53CC
100
AcDbEntity
  8
0
 62
     0
100
AcDbLine
 10
48.2621887880283
 20
89.7871195427158
 30
0.0
 11
62.2611887880283
 21
89.7871195427158
 31
0.0
  0
LINE
  5
50B8
330
53CC
100
AcDbEntity
  8
0
 62
     0
100
AcDbLine
 10
62.2611887880283
 20
89.7871195427158
 30
0.0
 11
62.2611887880283
 21
75.7871195427158
 31
0.0
  0
LINE
  5
50B9
330
53CC
100
AcDbEntity
  8
0
 62
     0
100
AcDbLine
 10
62.2611887880283
 20
75.7871195427158
 30
0.0
 11
48.2621887880283
 21
75.7871195427158
 31
0.0
  0
LINE
  5
50BA
330
53CC
100
AcDbEntity
  8
0
 62
     0
100
AcDbLine
 10
48.2621887880283
 20
75.7871195427158
 30
0.0
 11
48.2621887880283
 21
89.7871195427158
 31
0.0
  0
LINE
  5
50BB
330
53CC
100
AcDbEntity
  8
0
 62
     0
100
AcDbLine
 10
67.31318878802833
 20
89.7871195427158
 30
0.0
 11
81.31218878802832
 21
89.7871195427158
 31
0.0
  0
LINE
  5
50BC
330
53CC
100
AcDbEntity
  8
0
 62
     0
100
AcDbLine
 10
81.31218878802832
 20
89.7871195427158
 30
0.0
 11
81.31218878802832
 21
75.7871195427158
 31
0.0
  0
LINE
  5
50BD
330
53CC
100
AcDbEntity
  8
0
 62
     0
100
AcDbLine
 10
81.31218878802832
 20
75.7871195427158
 30
0.0
 11
67.31318878802833
 21
75.7871195427158
 31
0.0
  0
LINE
  5
50BE
330
53CC
100
AcDbEntity
  8
0
 62
     0
100
AcDbLine
 10
67.31318878802833
 20
75.7871195427158
 30
0.0
 11
67.31318878802833
 21
89.7871195427158
 31
0.0
  0
LINE
  5
50BF
330
53CC
100
AcDbEntity
  8
0
 62
     0
100
AcDbLine
 10
86.36318878802831
 20
89.7871195427158
 30
0.0
 11
100.3621887880283
 21
89.7871195427158
 31
0.0
  0
LINE
  5
50C0
330
53CC
100
AcDbEntity
  8
0
 62
     0
100
AcDbLine
 10
100.3621887880283
 20
89.7871195427158
 30
0.0
 11
100.3621887880283
 21
75.7871195427158
 31
0.0
  0
LINE
  5
50C1
330
53CC
100
AcDbEntity
  8
0
 62
     0
100
AcDbLine
 10
100.3621887880283
 20
75.7871195427158
 30
0.0
 11
86.36318878802831
 21
75.7871195427158
 31
0.0
  0
LINE
  5
50C2
330
53CC
100
AcDbEntity
  8
0
 62
     0
100
AcDbLine
 10
86.36318878802831
 20
75.7871195427158
 30
0.0
 11
86.36318878802831
 21
89.7871195427158
 31
0.0
  0
LWPOLYLINE
  5
50C3
330
53CC
100
AcDbEntity
  8
keycap
100
AcDbPolyline
 90
        8
 70
   129
 43
0.0
 10
24.16218878802831
 20
92.2871195427158
 42
-0.4142135623730951
 10
26.66218878802831
 20
89.7871195427158
 10
26.66218878802831
 20
75.7871195427158
 42
-0.4142135623730951
 10
24.16218878802831
 20
73.2871195427158
 10
10.16318878802831
 20
73.2871195427158
 42
-0.4142135623730951
 10
7.663188788028314
 20
75.7871195427158
 10
7.663188788028314
 20
89.7871195427158
 42
-0.4142135623730951
 10
10.16318878802831
 20
92.2871195427158
  0
LWPOLYLINE
  5
50C4
330
53CC
100
AcDbEntity
  8
keycap
100
AcDbPolyline
 90
        8
 70
   129
 43
0.0
 10
43.21218878802831
 20
92.2871195427158
 42
-0.4142135623730951
 10
45.71218878802831
 20
89.7871195427158
 10
45.71218878802831
 20
75.7871195427158
 42
-0.4142135623730951
 10
43.21218878802831
 20
73.2871195427158
 10
29.21318878802833
 20
73.2871195427158
 42
-0.4142135623730951
 10
26.71318878802833
 20
75.7871195427158
 10
26.71318878802833
 20
89.7871195427158
 42
-0.4142135623730951
 10
29.21318878802833
 20
92.2871195427158
  0
LWPOLYLINE
  5
50C5
330
53CC
100
AcDbEntity
  8
keycap
100
AcDbPolyline
 90
        8
 70
   129
 43
0.0
 10
62.2611887880283
 20
92.2871195427158
 42
-0.4142135623730951
 10
64.7611887880283
 20
89.7871195427158
 10
64.7611887880283
 20
75.7871195427158
 42
-0.4142135623730951
 10
62.2611887880283
 20
73.2871195427158
 10
48.2621887880283
 20
73.2871195427158
 42
-0.4142135623730951
 10
45.7621887880283
 20
75.7871195427158
 10
45.7621887880283
 20
89.7871195427158
 42
-0.4142135623730951
 10
48.2621887880283
 20
92.2871195427158
  0
LWPOLYLINE
  5
50C6
330
53CC
100
AcDbEntity
  8
keycap
100
AcDbPolyline
 90
        8
 70
   129
 43
0.0
 10
81.31218878802832
 20
92.2871195427158
 42
-0.4142135623730951
 10
83.81218878802832
 20
89.7871195427158
 10
83.81218878802832
 20
75.7871195427158
 42
-0.4142135623730951
 10
81.31218878802832
 20
73.2871195427158
 10
67.31318878802833
 20
73.2871195427158
 42
-0.4142135623730951
 10
64.81318878802833
 20
75.7871195427158
 10
64.81318878802833
 20
89.7871195427158
 42
-0.4142135623730951
 10
67.31318878802833
 20
92.2871195427158
  0
LWPOLYLINE
  5
50C7
330
53CC
100
AcDbEntity
  8
keycap
100
AcDbPolyline
 90
        8
 70
   129
 43
0.0
 10
100.3621887880283
 20
92.2871195427158
 42
-0.4142135623730951
 10
102.8621887880283
 20
89.7871195427158
 10
102.8621887880283
 20
75.7871195427158
 42
-0.4142135623730951
 10
100.3621887880283
 20
73.2871195427158
 10
86.36318878802831
 20
73.2871195427158
 42
-0.4142135623730951
 10
83.86318878802831
 20
75.7871195427158
 10
83.86318878802831
 20
89.7871195427158
 42
-0.4142135623730951
 10
86.36318878802831
 20
92.2871195427158
  0
LWPOLYLINE
  5
50C8
330
53CC
100
AcDbEntity
  8
keycap
100
AcDbPolyline
 90
        8
 70
   129
 43
0.0
 10
102.8621887880283
 20
56.73711954271573
 42
-0.4142135623730951
 10
100.3621887880283
 20
54.23711954271573
 10
86.36318878802831
 20
54.23711954271573
 42
-0.4142135623730951
 10
83.86318878802831
 20
56.73711954271573
 10
83.86318878802831
 20
70.7368195427158
 42
-0.4142135623730951
 10
86.36318878802831
 20
73.2368195427158
 10
100.3621887880283
 20
73.2368195427158
 42
-0.4142135623730951
 10
102.8621887880283
 20
70.7368195427158
  0
LWPOLYLINE
  5
50C9
330
53CC
100
AcDbEntity
  8
keycap
100
AcDbPolyline
 90
        8
 70
   129
 43
0.0
 10
67.31318878802833
 20
54.23711954271573
 42
-0.4142135623730951
 10
64.81318878802833
 20
56.73711954271573
 10
64.81318878802833
 20
70.7368195427158
 42
-0.4142135623730951
 10
67.31318878802833
 20
73.2368195427158
 10
81.31218878802832
 20
73.2368195427158
 42
-0.4142135623730951
 10
83.81218878802832
 20
70.7368195427158
 10
83.81218878802832
 20
56.73711954271573
 42
-0.4142135623730951
 10
81.31218878802832
 20
54.23711954271573
  0
LWPOLYLINE
  5
50CA
330
53CC
100
AcDbEntity
  8
keycap
100
AcDbPolyline
 90
        8
 70
   129
 43
0.0
 10
48.26318878802831
 20
54.23711954271573
 42
-0.4142135623730951
 10
45.76318878802831
 20
56.73711954271573
 10
45.76318878802831
 20
70.7368195427158
 42
-0.4142135623730951
 10
48.26318878802831
 20
73.2368195427158
 10
62.2621887880283
 20
73.2368195427158
 42
-0.4142135623730951
 10
64.76218878802831
 20
70.7368195427158
 10
64.76218878802831
 20
56.73711954271573
 42
-0.4142135623730951
 10
62.2621887880283
 20
54.23711954271573
  0
LWPOLYLINE
  5
50CB
330
53CC
100
AcDbEntity
  8
keycap
100
AcDbPolyline
 90
        8
 70
   129
 43
0.0
 10
43.21218878802831
 20
54.18681954271585
 42
-0.4142135623730951
 10
45.71218878802831
 20
51.68681954271585
 10
45.71218878802831
 20
37.68711954271578
 42
-0.4142135623730951
 10
43.21218878802831
 20
35.18711954271578
 10
29.21318878802833
 20
35.18711954271578
 42
-0.4142135623730951
 10
26.71318878802833
 20
37.68711954271578
 10
26.71318878802833
 20
51.68681954271585
 42
-0.4142135623730951
 10
29.21318878802833
 20
54.18681954271585
  0
LWPOLYLINE
  5
50CC
330
53CC
100
AcDbEntity
  8
keycap
100
AcDbPolyline
 90
        8
 70
   129
 43
0.0
 10
26.71318878802833
 20
70.7368195427158
 42
-0.4142135623730951
 10
29.21318878802833
 20
73.2368195427158
 10
43.21218878802831
 20
73.2368195427158
 42
-0.4142135623730951
 10
45.71218878802831
 20
70.7368195427158
 10
45.71218878802831
 20
56.73711954271573
 42
-0.4142135623730951
 10
43.21218878802831
 20
54.23711954271573
 10
29.21318878802833
 20
54.23711954271573
 42
-0.4142135623730951
 10
26.71318878802833
 20
56.73711954271573
  0
LWPOLYLINE
  5
50CD
330
53CC
100
AcDbEntity
  8
keycap
100
AcDbPolyline
 90
        8
 70
   129
 43
0.0
 10
26.66218878802831
 20
56.73711954271573
 42
-0.4142135623730951
 10
24.16218878802831
 20
54.23711954271573
 10
10.16318878802831
 20
54.23711954271573
 42
-0.4142135623730951
 10
7.663188788028314
 20
56.73711954271573
 10
7.663188788028314
 20
70.7368195427158
 42
-0.4142135623730951
 10
10.16318878802831
 20
73.2368195427158
 10
24.16218878802831
 20
73.2368195427158
 42
-0.4142135623730951
 10
26.66218878802831
 20
70.7368195427158
  0
LWPOLYLINE
  5
50CE
330
53CC
100
AcDbEntity
  8
keycap
100
AcDbPolyline
 90
        8
 70
   129
 43
0.0
 10
26.66218878802831
 20
37.68711954271578
 42
-0.4142135623730951
 10
24.16218878802831
 20
35.18711954271578
 10
10.16318878802831
 20
35.18711954271578
 42
-0.4142135623730951
 10
7.663188788028314
 20
37.68711954271578
 10
7.663188788028314
 20
51.68681954271585
 42
-0.4142135623730951
 10
10.16318878802831
 20
54.18681954271585
 10
24.16218878802831
 20
54.18681954271585
 42
-0.4142135623730951
 10
26.66218878802831
 20
51.68681954271585
  0
LWPOLYLINE
  5
50CF
330
53CC
100
AcDbEntity
  8
keycap
100
AcDbPolyline
 90
        8
 70
   129
 43
0.0
 10
26.71318878802833
 20
32.63681954271578
 42
-0.4142135623730951
 10
29.21318878802833
 20
35.13681954271578
 10
43.21218878802831
 20
35.13681954271578
 42
-0.4142135623730951
 10
45.71218878802831
 20
32.63681954271578
 10
45.71218878802831
 20
18.63711954271582
 42
-0.4142135623730951
 10
43.21218878802831
 20
16.13711954271582
 10
29.21318878802833
 20
16.13711954271582
 42
-0.4142135623730951
 10
26.71318878802833
 20
18.63711954271582
  0
LWPOLYLINE
  5
50D0
330
53CC
100
AcDbEntity
  8
keycap
100
AcDbPolyline
 90
        8
 70
   129
 43
0.0
 10
26.66218878802831
 20
18.63711954271582
 42
-0.4142135623730951
 10
24.16218878802831
 20
16.13711954271582
 10
10.16318878802831
 20
16.13711954271582
 42
-0.4142135623730951
 10
7.663188788028314
 20
18.63711954271582
 10
7.663188788028314
 20
32.63681954271578
 42
-0.4142135623730951
 10
10.16318878802831
 20
35.13681954271578
 10
24.16218878802831
 20
35.13681954271578
 42
-0.4142135623730951
 10
26.66218878802831
 20
32.63681954271578
  0
LWPOLYLINE
  5
50D1
330
53CC
100
AcDbEntity
  8
keycap
100
AcDbPolyline
 90
        8
 70
   129
 43
0.0
 10
45.76318878802831
 20
32.63681954271578
 42
-0.4142135623730951
 10
48.26318878802831
 20
35.13681954271578
 10
62.2621887880283
 20
35.13681954271578
 42
-0.4142135623730951
 10
64.76218878802831
 20
32.63681954271578
 10
64.76218878802831
 20
18.63711954271582
 42
-0.4142135623730951
 10
62.2621887880283
 20
16.13711954271582
 10
48.26318878802831
 20
16.13711954271582
 42
-0.4142135623730951
 10
45.76318878802831
 20
18.63711954271582
  0
LWPOLYLINE
  5
50D2
330
53CC
100
AcDbEntity
  8
keycap
100
AcDbPolyline
 90
        8
 70
   129
 43
0.0
 10
45.76318878802831
 20
51.68681954271585
 42
-0.4142135623730951
 10
48.26318878802831
 20
54.18681954271585
 10
62.2621887880283
 20
54.18681954271585
 42
-0.4142135623730951
 10
64.76218878802831
 20
51.68681954271585
 10
64.76218878802831
 20
37.68711954271578
 42
-0.4142135623730951
 10
62.2621887880283
 20
35.18711954271578
 10
48.26318878802831
 20
35.18711954271578
 42
-0.4142135623730951
 10
45.76318878802831
 20
37.68711954271578
  0
LWPOLYLINE
  5
50D3
330
53CC
100
AcDbEntity
  8
keycap
100
AcDbPolyline
 90
        8
 70
   129
 43
0.0
 10
64.81318878802833
 20
51.68681954271585
 42
-0.4142135623730951
 10
67.31318878802833
 20
54.18681954271585
 10
81.31218878802832
 20
54.18681954271585
 42
-0.4142135623730951
 10
83.81218878802832
 20
51.68681954271585
 10
83.81218878802832
 20
37.68711954271578
 42
-0.4142135623730951
 10
81.31218878802832
 20
35.18711954271578
 10
67.31318878802833
 20
35.18711954271578
 42
-0.4142135623730951
 10
64.81318878802833
 20
37.68711954271578
  0
LWPOLYLINE
  5
50D4
330
53CC
100
AcDbEntity
  8
keycap
100
AcDbPolyline
 90
        8
 70
   129
 43
0.0
 10
64.81318878802833
 20
32.63681954271578
 42
-0.4142135623730951
 10
67.31318878802833
 20
35.13681954271578
 10
81.31218878802832
 20
35.13681954271578
 42
-0.4142135623730951
 10
83.81218878802832
 20
32.63681954271578
 10
83.81218878802832
 20
18.63711954271582
 42
-0.4142135623730951
 10
81.31218878802832
 20
16.13711954271582
 10
67.31318878802833
 20
16.13711954271582
 42
-0.4142135623730951
 10
64.81318878802833
 20
18.63711954271582
  0
LWPOLYLINE
  5
50D5
330
53CC
100
AcDbEntity
  8
keycap
100
AcDbPolyline
 90
        2
 70
   128
 43
0.0
 10
-6.062047922680726
 20
-3.499924999999962
 10
6.062047922680286
 20
3.499924999999962
  0
LWPOLYLINE
  5
50D6
330
53CC
100
AcDbEntity
  8
keycap
100
AcDbPolyline
 90
        5
 70
   128
 43
0.0
 10
6.951611420042944
 20
6.959155817139617
 10
16.47661144872409
 20
-9.53862810839496
 42
-0.4142135623730951
 10
15.56154794520001
 20
-12.953691619447
 10
3.437452112008124
 20
-19.95354164052446
 42
-0.4142135623730951
 10
0.022388600956198
 20
-19.03847813700042
  0
LWPOLYLINE
  5
50D7
330
53CC
100
AcDbEntity
  8
keycap
100
AcDbPolyline
 90
        8
 70
   129
 43
0.0
 10
83.86318878802831
 20
32.63681954271578
 42
-0.4142135623730951
 10
86.36318878802831
 20
35.13681954271578
 10
100.3621887880283
 20
35.13681954271578
 42
-0.4142135623730951
 10
102.8621887880283
 20
32.63681954271578
 10
102.8621887880283
 20
18.63711954271582
 42
-0.4142135623730951
 10
100.3621887880283
 20
16.13711954271582
 10
86.36318878802831
 20
16.13711954271582
 42
-0.4142135623730951
 10
83.86318878802831
 20
18.63711954271582
  0
LWPOLYLINE
  5
50D8
330
53CC
100
AcDbEntity
  8
keycap
100
AcDbPolyline
 90
        6
 70
   128
 43
0.0
 10
0.022388600956198
 20
-19.03847813700042
 10
-16.50211144880137
 20
9.582795403944033
 42
-0.4142135623730951
 10
-15.5870479452773
 20
12.99785891499585
 10
-3.462952112085439
 20
19.99770893607354
 42
-0.4142135623730951
 10
-0.0478886010334989
 20
19.08264543254938
 10
6.625009118457221
 20
7.52484759508377
  0
LWPOLYLINE
  5
50D9
330
53CC
100
AcDbEntity
  8
keycap
100
AcDbPolyline
 90
        2
 70
   128
 43
0.0
 10
6.625009118457221
 20
7.52484759508377
 10
6.951611420042944
 20
6.959155817139617
  0
LWPOLYLINE
  5
50DA
330
53CC
100
AcDbEntity
  8
keycap
100
AcDbPolyline
 90
        6
 70
   128
 43
0.0
 10
56.94936316520745
 20
-5.770680457284357
 10
42.95036316520733
 20
-5.770680457284243
 42
-0.4142135623730951
 10
40.45036316520746
 20
-3.270680457284357
 10
40.45036316520744
 20
10.7290195427156
 42
-0.4142135623730951
 10
42.95036316520746
 20
13.2290195427156
 10
56.94936316520747
 20
13.2290195427156
  0
LWPOLYLINE
  5
50DB
330
53CC
100
AcDbEntity
  8
keycap
100
AcDbPolyline
 90
        6
 70
   128
 43
0.0
 10
80.83036316520753
 20
-5.770680457284243
 10
66.8313631652074
 20
-5.770680457284129
 42
-0.4142135623730951
 10
64.33136316520753
 20
-3.270680457284243
 10
64.33136316520752
 20
10.7290195427156
 42
-0.4142135623730951
 10
66.83136316520753
 20
13.2290195427156
 10
80.83036316520754
 20
13.2290195427156
  0
LWPOLYLINE
  5
50DC
330
53CC
100
AcDbEntity
  8
keycap
100
AcDbPolyline
 90
        6
 70
   128
 43
0.0
 10
47.83236316520754
 20
13.2290195427156
 10
61.83136316522805
 20
13.22901954269514
 42
-0.4142135623730951
 10
64.33136316520752
 20
10.7290195427156
 10
64.33136316520753
 20
-3.270680457284357
 42
-0.4142135623730951
 10
61.83136316520753
 20
-5.770680457284357
 10
47.83236316520752
 20
-5.770680457284243
 42
-0.4142135623730951
  0
LWPOLYLINE
  5
50DD
330
53CC
100
AcDbEntity
  8
keycap
100
AcDbPolyline
 90
        6
 70
   128
 43
0.0
 10
71.71336316520761
 20
13.22901954271572
 10
85.71236316522813
 20
13.22901954269514
 42
-0.4142135623730951
 10
88.21236316520759
 20
10.72901954271572
 10
88.2123631652076
 20
-3.270680457284243
 42
-0.4142135623730951
 10
85.7123631652076
 20
-5.770680457284243
 10
71.7133631652076
 20
-5.770680457284243
 42
-0.4142135623730951
  0
LWPOLYLINE
  5
50DE
330
53CC
100
AcDbEntity
  8
keycap
100
AcDbPolyline
 90
        6
 70
   128
 43
0.0
 10
33.58109339653522
 20
-7.034235035474694
 10
20.05909775431454
 20
-10.6574428478649
 42
-0.4142135623730951
 10
16.99723557583558
 20
-8.889675894898573
 10
13.37384659011384
 20
4.632995895400541
 42
-0.4142135623730951
 10
15.1416135430802
 20
7.694858073879459
 10
28.66360918530086
 20
11.31806588626966
  0
LWPOLYLINE
  5
50DF
330
53CC
100
AcDbEntity
  8
keycap
100
AcDbPolyline
 90
        6
 70
   128
 43
0.0
 10
19.85726342702343
 20
8.958412652070024
 10
33.3792590692441
 20
12.58162046446012
 42
-0.4142135623730951
 10
36.44112124772307
 20
10.81385351149379
 10
40.06451023344481
 20
-2.708818278805211
 42
-0.4142135623730951
 10
38.29674328047845
 20
-5.770680457284243
 10
24.77474763825779
 20
-9.393888269674335
 42
-0.4142135623730951
  0
LWPOLYLINE
  5
50E0
330
53CC
100
AcDbEntity
  8
keycap
100
AcDbPolyline
 90
        8
 70
   129
 43
0.0
 10
83.86318878802831
 20
51.68681954271585
 42
-0.4142135623730951
 10
86.36318878802831
 20
54.18681954271585
 10
100.3621887880283
 20
54.18681954271585
 42
-0.4142135623730951
 10
102.8621887880283
 20
51.68681954271585
 10
102.8621887880283
 20
37.68711954271578
 42
-0.4142135623730951
 10
100.3621887880283
 20
35.18711954271578
 10
86.36318878802831
 20
35.18711954271578
 42
-0.4142135623730951
 10
83.86318878802831
 20
37.68711954271578
  0
LWPOLYLINE
  5
50E1
330
53CC
100
AcDbEntity
  8
livello 1
100
AcDbPolyline
 90
        2
 70
   128
 43
0.0
 10
10.16318878802831
 20
82.7871195427158
 10
24.16218878802831
 20
82.7871195427158
  0
LWPOLYLINE
  5
50E2
330
53CC
100
AcDbEntity
  8
livello 1
100
AcDbPolyline
 90
        2
 70
   128
 43
0.0
 10
29.21318878802834
 20
82.7871195427158
 10
43.21218878802831
 20
82.7871195427158
  0
LWPOLYLINE
  5
50E3
330
53CC
100
AcDbEntity
  8
livello 1
100
AcDbPolyline
 90
        2
 70
   128
 43
0.0
 10
48.26318878802841
 20
82.7871195427158
 10
62.2621887880283
 20
82.7871195427158
  0
LWPOLYLINE
  5
50E4
330
53CC
100
AcDbEntity
  8
livello 1
100
AcDbPolyline
 90
        2
 70
   128
 43
0.0
 10
67.31318878802841
 20
82.7871195427158
 10
81.31218878802841
 20
82.7871195427158
  0
LWPOLYLINE
  5
50E5
330
53CC
100
AcDbEntity
  8
livello 1
100
AcDbPolyline
 90
        2
 70
   128
 43
0.0
 10
86.36318878802842
 20
82.7871195427158
 10
100.3621887880284
 20
82.7871195427158
  0
LWPOLYLINE
  5
50E6
330
53CC
100
AcDbEntity
  8
livello 1
100
AcDbPolyline
 90
        2
 70
   128
 43
0.0
 10
10.16318878802831
 20
63.73696954271577
 10
24.16218878802831
 20
63.73696954271577
  0
LWPOLYLINE
  5
50E7
330
53CC
100
AcDbEntity
  8
livello 1
100
AcDbPolyline
 90
        2
 70
   128
 43
0.0
 10
29.21318878802834
 20
63.73696954271577
 10
43.21218878802831
 20
63.73696954271577
  0
LWPOLYLINE
  5
50E8
330
53CC
100
AcDbEntity
  8
livello 1
100
AcDbPolyline
 90
        2
 70
   128
 43
0.0
 10
48.26318878802841
 20
63.73696954271577
 10
62.2621887880283
 20
63.73696954271577
  0
LWPOLYLINE
  5
50E9
330
53CC
100
AcDbEntity
  8
livello 1
100
AcDbPolyline
 90
        2
 70
   128
 43
0.0
 10
67.31318878802841
 20
63.73696954271577
 10
81.31218878802841
 20
63.73696954271577
  0
LWPOLYLINE
  5
50EA
330
53CC
100
AcDbEntity
  8
livello 1
100
AcDbPolyline
 90
        2
 70
   128
 43
0.0
 10
86.36318878802842
 20
63.73696954271577
 10
100.3621887880284
 20
63.73696954271577
  0
LWPOLYLINE
  5
50EB
330
53CC
100
AcDbEntity
  8
livello 1
100
AcDbPolyline
 90
        2
 70
   128
 43
0.0
 10
10.16318878802831
 20
44.68681954271585
 10
24.16218878802831
 20
44.68681954271585
  0
LWPOLYLINE
  5
50EC
330
53CC
100
AcDbEntity
  8
livello 1
100
AcDbPolyline
 90
        2
 70
   128
 43
0.0
 10
29.21318878802834
 20
44.68681954271585
 10
43.21218878802831
 20
44.68681954271585
  0
LWPOLYLINE
  5
50ED
330
53CC
100
AcDbEntity
  8
livello 1
100
AcDbPolyline
 90
        2
 70
   128
 43
0.0
 10
48.26318878802841
 20
44.68681954271585
 10
62.2621887880283
 20
44.68681954271585
  0
LWPOLYLINE
  5
50EE
330
53CC
100
AcDbEntity
  8
livello 1
100
AcDbPolyline
 90
        2
 70
   128
 43
0.0
 10
67.31318878802841
 20
44.68681954271585
 10
81.31218878802841
 20
44.68681954271585
  0
LWPOLYLINE
  5
50EF
330
53CC
100
AcDbEntity
  8
livello 1
100
AcDbPolyline
 90
        2
 70
   128
 43
0.0
 10
86.36318878802842
 20
44.68681954271585
 10
100.3621887880284
 20
44.68681954271585
  0
LWPOLYLINE
  5
50F0
330
53CC
100
AcDbEntity
  8
livello 1
100
AcDbPolyline
 90
        2
 70
   128
 43
0.0
 10
10.16318878802831
 20
25.63666954271582
 10
24.16218878802831
 20
25.63666954271582
  0
LWPOLYLINE
  5
50F1
330
53CC
100
AcDbEntity
  8
livello 1
100
AcDbPolyline
 90
        2
 70
   128
 43
0.0
 10
29.21318878802834
 20
25.63666954271582
 10
43.21218878802831
 20
25.63666954271582
  0
LWPOLYLINE
  5
50F2
330
53CC
100
AcDbEntity
  8
livello 1
100
AcDbPolyline
 90
        2
 70
   128
 43
0.0
 10
48.26318878802841
 20
25.63666954271582
 10
62.2621887880283
 20
25.63666954271582
  0
LWPOLYLINE
  5
50F3
330
53CC
100
AcDbEntity
  8
livello 1
100
AcDbPolyline
 90
        2
 70
   128
 43
0.0
 10
67.31318878802841
 20
25.63666954271582
 10
81.31218878802841
 20
25.63666954271582
  0
LWPOLYLINE
  5
50F4
330
53CC
100
AcDbEntity
  8
livello 1
100
AcDbPolyline
 90
        2
 70
   128
 43
0.0
 10
86.36318878802842
 20
25.63666954271582
 10
100.3621887880284
 20
25.63666954271582
  0
LWPOLYLINE
  5
50F5
330
53CC
100
AcDbEntity
  8
livello 1
100
AcDbPolyline
 90
        2
 70
   128
 43
0.0
 10
3.499750010538101
 20
-6.061744807704599
 10
-3.499750010538342
 20
6.061744807705054
  0
LWPOLYLINE
  5
50F6
330
53CC
100
AcDbEntity
  8
livello 1
100
AcDbPolyline
 90
        2
 70
   128
 43
0.0
 10
45.33236316520756
 20
3.729169542715567
 10
59.33136316520752
 20
3.729169542715681
  0
LWPOLYLINE
  5
50F7
330
53CC
100
AcDbEntity
  8
livello 1
100
AcDbPolyline
 90
        2
 70
   128
 43
0.0
 10
69.21336316520764
 20
3.729169542715681
 10
83.21236316520759
 20
3.729169542715681
  0
LWPOLYLINE
  5
50F8
330
53CC
100
AcDbEntity
  8
livello 1
100
AcDbPolyline
 90
        2
 70
   128
 43
0.0
 10
19.90119096691799
 20
-0.8647854215586221
 10
33.42318660913865
 20
2.75842239083147
  0
LWPOLYLINE
  5
50F9
330
53CC
100
AcDbEntity
  8
livello 1
100
AcDbPolyline
 90
        2
 70
   128
 43
0.0
 10
17.16268878802831
 20
89.7871195427158
 10
17.16268878802831
 20
75.7871195427158
  0
LWPOLYLINE
  5
50FA
330
53CC
100
AcDbEntity
  8
livello 1
100
AcDbPolyline
 90
        2
 70
   128
 43
0.0
 10
36.21268878802831
 20
89.7871195427158
 10
36.21268878802831
 20
75.7871195427158
  0
LWPOLYLINE
  5
50FB
330
53CC
100
AcDbEntity
  8
livello 1
100
AcDbPolyline
 90
        2
 70
   128
 43
0.0
 10
55.26268878802841
 20
89.7871195427158
 10
55.26268878802841
 20
75.7871195427158
  0
LWPOLYLINE
  5
50FC
330
53CC
100
AcDbEntity
  8
livello 1
100
AcDbPolyline
 90
        2
 70
   128
 43
0.0
 10
74.31268878802842
 20
89.7871195427158
 10
74.31268878802842
 20
75.7871195427158
  0
LWPOLYLINE
  5
50FD
330
53CC
100
AcDbEntity
  8
livello 1
100
AcDbPolyline
 90
        2
 70
   128
 43
0.0
 10
93.36268878802841
 20
89.7871195427158
 10
93.36268878802841
 20
75.7871195427158
  0
LWPOLYLINE
  5
50FE
330
53CC
100
AcDbEntity
  8
livello 1
100
AcDbPolyline
 90
        2
 70
   128
 43
0.0
 10
17.16268878802831
 20
70.73696954271577
 10
17.16268878802831
 20
56.73696954271577
  0
LWPOLYLINE
  5
50FF
330
53CC
100
AcDbEntity
  8
livello 1
100
AcDbPolyline
 90
        2
 70
   128
 43
0.0
 10
36.21268878802831
 20
70.73696954271577
 10
36.21268878802831
 20
56.73696954271577
  0
LWPOLYLINE
  5
5100
330
53CC
100
AcDbEntity
  8
livello 1
100
AcDbPolyline
 90
        2
 70
   128
 43
0.0
 10
55.26268878802841
 20
70.73696954271577
 10
55.26268878802841
 20
56.73696954271577
  0
LWPOLYLINE
  5
5101
330
53CC
100
AcDbEntity
  8
livello 1
100
AcDbPolyline
 90
        2
 70
   128
 43
0.0
 10
74.31268878802842
 20
70.73696954271577
 10
74.31268878802842
 20
56.73696954271577
  0
LWPOLYLINE
  5
5102
330
53CC
100
AcDbEntity
  8
livello 1
100
AcDbPolyline
 90
        2
 70
   128
 43
0.0
 10
93.36268878802841
 20
70.73696954271577
 10
93.36268878802841
 20
56.73696954271577
  0
LWPOLYLINE
  5
5103
330
53CC
100
AcDbEntity
  8
livello 1
100
AcDbPolyline
 90
        2
 70
   128
 43
0.0
 10
17.16268878802831
 20
51.68681954271585
 10
17.16268878802831
 20
37.68681954271585
  0
LWPOLYLINE
  5
5104
330
53CC
100
AcDbEntity
  8
livello 1
100
AcDbPolyline
 90
        2
 70
   128
 43
0.0
 10
36.21268878802831
 20
51.68681954271585
 10
36.21268878802831
 20
37.68681954271585
  0
LWPOLYLINE
  5
5105
330
53CC
100
AcDbEntity
  8
livello 1
100
AcDbPolyline
 90
        2
 70
   128
 43
0.0
 10
55.26268878802841
 20
51.68681954271585
 10
55.26268878802841
 20
37.68681954271585
  0
LWPOLYLINE
  5
5106
330
53CC
100
AcDbEntity
  8
livello 1
100
AcDbPolyline
 90
        2
 70
   128
 43
0.0
 10
74.31268878802842
 20
51.68681954271585
 10
74.31268878802842
 20
37.68681954271585
  0
LWPOLYLINE
  5
5107
330
53CC
100
AcDbEntity
  8
livello 1
100
AcDbPolyline
 90
        2
 70
   128
 43
0.0
 10
93.36268878802841
 20
51.68681954271585
 10
93.36268878802841
 20
37.68681954271585
  0
LWPOLYLINE
  5
5108
330
53CC
100
AcDbEntity
  8
livello 1
100
AcDbPolyline
 90
        2
 70
   128
 43
0.0
 10
17.16268878802831
 20
32.63666954271582
 10
17.16268878802831
 20
18.63666954271582
  0
LWPOLYLINE
  5
5109
330
53CC
100
AcDbEntity
  8
livello 1
100
AcDbPolyline
 90
        2
 70
   128
 43
0.0
 10
36.21268878802831
 20
32.63666954271582
 10
36.21268878802831
 20
18.63666954271582
  0
LWPOLYLINE
  5
510A
330
53CC
100
AcDbEntity
  8
livello 1
100
AcDbPolyline
 90
        2
 70
   128
 43
0.0
 10
55.26268878802841
 20
32.63666954271582
 10
55.26268878802841
 20
18.63666954271582
  0
LWPOLYLINE
  5
510B
330
53CC
100
AcDbEntity
  8
livello 1
100
AcDbPolyline
 90
        2
 70
   128
 43
0.0
 10
74.31268878802842
 20
32.63666954271582
 10
74.31268878802842
 20
18.63666954271582
  0
LWPOLYLINE
  5
510C
330
53CC
100
AcDbEntity
  8
livello 1
100
AcDbPolyline
 90
        2
 70
   128
 43
0.0
 10
93.36268878802841
 20
32.63666954271582
 10
93.36268878802841
 20
18.63666954271582
  0
LWPOLYLINE
  5
510D
330
53CC
100
AcDbEntity
  8
livello 1
100
AcDbPolyline
 90
        2
 70
   128
 43
0.0
 10
-6.062177826491144
 20
-3.499999999999886
 10
6.062177826490988
 20
3.500000000000114
  0
LWPOLYLINE
  5
510E
330
53CC
100
AcDbEntity
  8
livello 1
100
AcDbPolyline
 90
        2
 70
   128
 43
0.0
 10
52.33186316520754
 20
10.72916954271557
 10
52.33186316520752
 20
-3.270830457284319
  0
LWPOLYLINE
  5
510F
330
53CC
100
AcDbEntity
  8
livello 1
100
AcDbPolyline
 90
        2
 70
   128
 43
0.0
 10
76.21286316520761
 20
10.72916954271568
 10
76.2128631652076
 20
-3.270830457284319
  0
LWPOLYLINE
  5
5110
330
53CC
100
AcDbEntity
  8
livello 1
100
AcDbPolyline
 90
        2
 70
   128
 43
0.0
 10
24.85045547231063
 20
7.708299268659971
 10
28.47392210374591
 20
-5.814662299386896
  0
CIRCLE
  5
5111
330
53CC
100
AcDbEntity
  8
livello 2
100
AcDbCircle
 10
17.1626887880283
 20
82.7871195427158
 30
0.0
 40
4.311381581349546
  0
CIRCLE
  5
53AD
330
53CC
100
AcDbEntity
  8
livello 2
100
AcDbCircle
 10
-7.273979754911906
 20
63.73696954271577
 30
0.0
 40
4.311381581349546
  0
CIRCLE
  5
5112
330
53CC
100
AcDbEntity
  8
livello 2
100
AcDbCircle
 10
36.21268878802831
 20
82.7871195427158
 30
0.0
 40
4.311381581349546
  0
CIRCLE
  5
5113
330
53CC
100
AcDbEntity
  8
livello 2
100
AcDbCircle
 10
55.26268878802831
 20
82.7871195427158
 30
0.0
 40
4.311381581349546
  0
CIRCLE
  5
5114
330
53CC
100
AcDbEntity
  8
livello 2
100
AcDbCircle
 10
74.31268878802842
 20
82.7871195427158
 30
0.0
 40
4.311381581349546
  0
CIRCLE
  5
5115
330
53CC
100
AcDbEntity
  8
livello 2
100
AcDbCircle
 10
93.36268878802841
 20
82.7871195427158
 30
0.0
 40
4.311381581349546
  0
CIRCLE
  5
5116
330
53CC
100
AcDbEntity
  8
livello 2
100
AcDbCircle
 10
17.1626887880283
 20
63.73696954271577
 30
0.0
 40
4.311381581349546
  0
CIRCLE
  5
5117
330
53CC
100
AcDbEntity
  8
livello 2
100
AcDbCircle
 10
36.21268878802831
 20
63.73696954271577
 30
0.0
 40
4.311381581349546
  0
CIRCLE
  5
5118
330
53CC
100
AcDbEntity
  8
livello 2
100
AcDbCircle
 10
55.26268878802831
 20
63.73696954271577
 30
0.0
 40
4.311381581349546
  0
CIRCLE
  5
5119
330
53CC
100
AcDbEntity
  8
livello 2
100
AcDbCircle
 10
74.31268878802842
 20
63.73696954271577
 30
0.0
 40
4.311381581349546
  0
CIRCLE
  5
511A
330
53CC
100
AcDbEntity
  8
livello 2
100
AcDbCircle
 10
93.36268878802841
 20
63.73696954271577
 30
0.0
 40
4.311381581349546
  0
CIRCLE
  5
511B
330
53CC
100
AcDbEntity
  8
livello 2
100
AcDbCircle
 10
17.1626887880283
 20
44.68681954271585
 30
0.0
 40
4.311381581349546
  0
CIRCLE
  5
511C
330
53CC
100
AcDbEntity
  8
livello 2
100
AcDbCircle
 10
36.21268878802831
 20
44.68681954271585
 30
0.0
 40
4.311381581349546
  0
CIRCLE
  5
511D
330
53CC
100
AcDbEntity
  8
livello 2
100
AcDbCircle
 10
55.26268878802831
 20
44.68681954271585
 30
0.0
 40
4.311381581349546
  0
CIRCLE
  5
511E
330
53CC
100
AcDbEntity
  8
livello 2
100
AcDbCircle
 10
74.31268878802842
 20
44.68681954271585
 30
0.0
 40
4.311381581349546
  0
CIRCLE
  5
511F
330
53CC
100
AcDbEntity
  8
livello 2
100
AcDbCircle
 10
93.36268878802841
 20
44.68681954271585
 30
0.0
 40
4.311381581349546
  0
CIRCLE
  5
5120
330
53CC
100
AcDbEntity
  8
livello 2
100
AcDbCircle
 10
17.1626887880283
 20
25.63666954271582
 30
0.0
 40
4.311381581349546
  0
CIRCLE
  5
5121
330
53CC
100
AcDbEntity
  8
livello 2
100
AcDbCircle
 10
36.21268878802831
 20
25.63666954271582
 30
0.0
 40
4.311381581349546
  0
CIRCLE
  5
5122
330
53CC
100
AcDbEntity
  8
livello 2
100
AcDbCircle
 10
55.26268878802831
 20
25.63666954271582
 30
0.0
 40
4.311381581349546
  0
CIRCLE
  5
5123
330
53CC
100
AcDbEntity
  8
livello 2
100
AcDbCircle
 10
74.31268878802842
 20
25.63666954271582
 30
0.0
 40
4.311381581349546
  0
CIRCLE
  5
5124
330
53CC
100
AcDbEntity
  8
livello 2
100
AcDbCircle
 10
93.36268878802841
 20
25.63666954271582
 30
0.0
 40
4.311381581349546
  0
CIRCLE
  5
5125
330
53CC
100
AcDbEntity
  8
livello 2
100
AcDbCircle
 10
0.000000030769236
 20
0.0000000177647053
 30
0.0
 40
4.311381581349546
  0
CIRCLE
  5
5126
330
53CC
100
AcDbEntity
  8
livello 2
100
AcDbCircle
 10
52.33186316520753
 20
3.729169542715681
 30
0.0
 40
4.311381581349546
  0
CIRCLE
  5
5127
330
53CC
100
AcDbEntity
  8
livello 2
100
AcDbCircle
 10
76.21286316520761
 20
3.729169542715681
 30
0.0
 40
4.311381581349546
  0
CIRCLE
  5
5128
330
53CC
100
AcDbEntity
  8
livello 2
100
AcDbCircle
 10
26.66218878802842
 20
0.9468184846364238
 30
0.0
 40
4.311381581349546
  0
CIRCLE
  5
53AC
330
53CC
100
AcDbEntity
  8
livello 2
100
AcDbCircle
 10
-22.0
 20
-10.0
 30
0.0
 40
3.0
  0
LWPOLYLINE
  5
53AE
330
53CC
100
AcDbEntity
  8
livello 2
100
AcDbPolyline
 90
        2
 70
 13952
 43
0.0
 10
-7.273979754911895
 20
90.4369695427157
 10
-7.273979754911917
 20
37.03696954271584
  0
VIEWPORT
  5
5483
330
53C8
100
AcDbEntity
 67
     1
  8
0
100
AcDbViewport
 10
128.5
 20
97.5
 30
0.0
 40
314.226
 41
222.18
 68
     1
 69
     1
 12
128.5
 22
97.5
 13
0.0
 23
0.0
 14
10.0
 24
10.0
 15
10.0
 25
10.0
 16
0.0
 26
0.0
 36
1.0
 17
0.0
 27
0.0
 37
0.0
 42
50.0
 43
0.0
 44
0.0
 45
222.18
 50
0.0
 51
0.0
 72
   100
 90
   557152
  1

281
     0
 71
     1
 74
     0
110
0.0
120
0.0
130
0.0
111
1.0
121
0.0
131
0.0
112
0.0
122
1.0
132
0.0
 79
     0
146
0.0
170
     0
 61
     5
348
53DC
292
     1
282
     1
141
0.0
142
0.0
 63
   256
361
5484
  0
ENDSEC
  0
SECTION
  2
OBJECTS
  0
DICTIONARY
  5
53BA
330
0
100
AcDbDictionary
281
     1
  3
ACAD_DETAILVIEWSTYLE
350
548C
  3
ACAD_GROUP
350
53BB
  3
ACAD_LAYOUT
350
53C7
  3
ACAD_MATERIAL
350
53F0
  3
ACAD_MLEADERSTYLE
350
5408
  3
ACAD_MLINESTYLE
350
53C4
  3
ACAD_PLOTSETTINGS
350
53C6
  3
ACAD_PLOTSTYLENAME
350
53BC
  3
ACAD_SCALELIST
350
53F4
  3
ACAD_SECTIONVIEWSTYLE
350
548D
  3
ACAD_TABLESTYLE
350
5406
  3
ACAD_VISUALSTYLE
350
53D7
  3
AcDbVariableDictionary
350
5485
  3
ACDB_RECOMPOSE_DATA
350
5489
  3
QCAD_OBJECTS
350
540C
  0
SUN
  5
540A
330
53D6
100
AcDbSun
 90
        1
290
     0
 63
     7
421
 16777215
 40
1.0
291
     1
 91
  2455826
 92
 54000000
292
     0
 70
     2
 71
   256
280
     1
  0
SUN
  5
5484
330
5483
100
AcDbSun
 90
        1
290
     0
 63
     7
421
 16777215
 40
1.0
291
     1
 91
  2455826
 92
 54000000
292
     0
 70
     2
 71
   256
280
     1
  0
DICTIONARY
  5
548C
102
{ACAD_REACTORS
330
53BA
102
}
330
53BA
100
AcDbDictionary
281
     1
  0
DICTIONARY
  5
53BB
102
{ACAD_REACTORS
330
53BA
102
}
330
53BA
100
AcDbDictionary
281
     1
  0
DICTIONARY
  5
53C7
102
{ACAD_REACTORS
330
53BA
102
}
330
53BA
100
AcDbDictionary
281
     1
  3
Layout1
350
53CB
  3
Model
350
53CF
  0
DICTIONARY
  5
53F0
102
{ACAD_REACTORS
330
53BA
102
}
330
53BA
100
AcDbDictionary
281
     1
  3
ByBlock
350
53F2
  3
ByLayer
350
53F1
  3
Global
350
53F3
  0
DICTIONARY
  5
5408
102
{ACAD_REACTORS
330
53BA
102
}
330
53BA
100
AcDbDictionary
281
     1
  3
Standard
350
5409
  0
DICTIONARY
  5
53C4
102
{ACAD_REACTORS
330
53BA
102
}
330
53BA
100
AcDbDictionary
281
     1
  3
Standard
350
53C5
  0
DICTIONARY
  5
53C6
102
{ACAD_REACTORS
330
53BA
102
}
330
53BA
100
AcDbDictionary
281
     1
  0
ACDBDICTIONARYWDFLT
  5
53BC
102
{ACAD_REACTORS
330
53BA
102
}
330
53BA
100
AcDbDictionary
281
     1
  3
Normal
350
53BD
100
AcDbDictionaryWithDefault
340
53BD
  0
DICTIONARY
  5
53F4
102
{ACAD_REACTORS
330
53BA
102
}
330
53BA
100
AcDbDictionary
281
     1
  3
A0
350
53F5
  3
A1
350
53F6
  3
A2
350
53F7
  3
A3
350
53F8
  3
A4
350
53F9
  3
A5
350
53FA
  3
A6
350
53FB
  3
A7
350
53FC
  3
A8
350
53FD
  3
A9
350
53FE
  3
B1
350
53FF
  3
B2
350
5400
  3
B3
350
5401
  3
B4
350
5402
  3
B5
350
5403
  3
B6
350
5404
  3
B7
350
5405
  0
DICTIONARY
  5
548D
102
{ACAD_REACTORS
330
53BA
102
}
330
53BA
100
AcDbDictionary
281
     1
  0
DICTIONARY
  5
5406
102
{ACAD_REACTORS
330
53BA
102
}
330
53BA
100
AcDbDictionary
281
     1
  3
Standard
350
5407
  0
DICTIONARY
  5
53D7
102
{ACAD_REACTORS
330
53BA
102
}
330
53BA
100
AcDbDictionary
281
     1
  3
2dWireframe
350
53DC
  3
Basic
350
53DF
  3
Brighten
350
53E3
  3
ColorChange
350
53E7
  3
Conceptual
350
53E1
  3
Dim
350
53E2
  3
EdgeColorOff
350
53EA
  3
Facepattern
350
53E6
  3
Flat
350
53D8
  3
FlatWithEdges
350
53D9
  3
Gouraud
350
53DA
  3
GouraudWithEdges
350
53DB
  3
Hidden
350
53DE
  3
JitterOff
350
53E8
  3
Linepattern
350
53E5
  3
OverhangOff
350
53E9
  3
Realistic
350
53E0
  3
Shaded
350
53EF
  3
Shaded with edges
350
53EE
  3
Shades of Gray
350
53EB
  3
Sketchy
350
53EC
  3
Thicken
350
53E4
  3
Wireframe
350
53DD
  3
X-Ray
350
53ED
  0
DICTIONARY
  5
5485
102
{ACAD_REACTORS
330
53BA
102
}
330
53BA
100
AcDbDictionary
281
     1
  3
CANNOSCALE
350
5486
  3
CMLEADERSTYLE
350
548B
  3
CTABLESTYLE
350
548A
  0
XRECORD
  5
5489
102
{ACAD_REACTORS
330
53BA
102
}
330
53BA
100
AcDbXrecord
280
     1
 90
        1
330
5407
  0
DICTIONARY
  5
540C
102
{ACAD_REACTORS
330
53BA
102
}
330
53BA
100
AcDbDictionary
281
     1
  3
ColorSettings/BackgroundColor
350
540E
  3
ColorSettings/ColorMode
350
540F
  3
Grid/DisplayGrid00
350
5410
  3
Grid/DisplayGrid01
350
5411
  3
Grid/DisplayGrid02
350
5412
  3
Grid/DisplayGrid03
350
5413
  3
Grid/GridSpacingX00
350
5414
  3
Grid/GridSpacingX01
350
5415
  3
Grid/GridSpacingX02
350
5416
  3
Grid/GridSpacingX03
350
5417
  3
Grid/GridSpacingY00
350
5418
  3
Grid/GridSpacingY01
350
5419
  3
Grid/GridSpacingY02
350
541A
  3
Grid/GridSpacingY03
350
541B
  3
Grid/IsometricGrid00
350
541C
  3
Grid/IsometricGrid01
350
541D
  3
Grid/IsometricGrid02
350
541E
  3
Grid/IsometricGrid03
350
541F
  3
Grid/IsometricProjection00
350
5420
  3
Grid/IsometricProjection01
350
5421
  3
Grid/IsometricProjection02
350
5422
  3
Grid/IsometricProjection03
350
5423
  3
Grid/MetaGridSpacingX00
350
5424
  3
Grid/MetaGridSpacingX01
350
5425
  3
Grid/MetaGridSpacingX02
350
5426
  3
Grid/MetaGridSpacingX03
350
5427
  3
Grid/MetaGridSpacingY00
350
5428
  3
Grid/MetaGridSpacingY01
350
5429
  3
Grid/MetaGridSpacingY02
350
542A
  3
Grid/MetaGridSpacingY03
350
542B
  3
MultiPageSettings/Columns
350
542C
  3
MultiPageSettings/GlueMarginsBottom
350
542D
  3
MultiPageSettings/GlueMarginsLeft
350
542E
  3
MultiPageSettings/GlueMarginsRight
350
542F
  3
MultiPageSettings/GlueMarginsTop
350
5430
  3
MultiPageSettings/PrintCropMarks
350
5431
  3
MultiPageSettings/Rows
350
5432
  3
PageSettings/OffsetX
350
5433
  3
PageSettings/OffsetY
350
5434
  3
PageSettings/PageOrientation
350
5435
  3
PageSettings/PaperHeight
350
5436
  3
PageSettings/PaperWidth
350
5437
  3
PageSettings/Scale
350
5438
  3
PageSettings/ShowPaperBorders
350
5439
  3
PageTagSettings/EnablePageTags
350
543A
  3
PageTagSettings/TagAlignment
350
543B
  3
PageTagSettings/TagFont
350
543C
  3
PageTagSettings/TagPosition
350
543D
  3
QCADVersion
350
543E
  3
UnitSettings/PaperUnit
350
543F
  3
ViewportCenter
350
5440
  3
ViewportHeight
350
5441
  3
ViewportWidth
350
5442
  0
LAYOUT
  5
53CB
102
{ACAD_REACTORS
330
53C7
102
}
330
53C7
100
AcDbPlotSettings
  1

  2
none_device
  4
ISO_A4_(210.00_x_297.00_MM)
  6

 40
7.5
 41
20.0
 42
7.5
 43
20.0
 44
210.0
 45
297.0
 46
0.0
 47
0.0
 48
0.0
 49
0.0
140
0.0
141
0.0
142
1.0
143
1.0
 70
   688
 72
     1
 73
     1
 74
     5
  7

 75
     0
 76
     0
 77
     2
 78
   300
147
1.0
148
0.0
149
0.0
100
AcDbLayout
  1
Layout1
 70
     1
 71
     0
 10
-20.0
 20
-7.5
 11
277.0
 21
202.5
 12
0.0
 22
0.0
 32
0.0
 14
0.0
 24
0.0
 34
0.0
 15
0.0
 25
0.0
 35
0.0
146
0.0
 13
0.0
 23
0.0
 33
0.0
 16
1.0
 26
0.0
 36
0.0
 17
0.0
 27
1.0
 37
0.0
 76
     0
330
53C8
331
5483
  0
LAYOUT
  5
53CF
102
{ACAD_REACTORS
330
53C7
102
}
330
53C7
100
AcDbPlotSettings
  1

  2
none_device
  4
Letter_(8.50_x_11.00_Inches)
  6

 40
6.35
 41
6.35
 42
6.35000508
 43
6.35000508
 44
215.9
 45
279.4
 46
0.0
 47
0.0
 48
0.0
 49
0.0
140
0.0
141
0.0
142
1.0
143
1.0
 70
  1712
 72
     0
 73
     0
 74
     0
  7

 75
     0
 76
     0
 77
     2
 78
   300
147
1.0
148
0.0
149
0.0
100
AcDbLayout
  1
Model
 70
     1
 71
     0
 10
0.0
 20
0.0
 11
12.0
 21
9.0
 12
0.0
 22
0.0
 32
0.0
 14
-33.62999999999997
 24
-21.68000000000001
 34
0.0
 15
102.8621887880283
 25
92.2871195427158
 35
0.0
146
0.0
 13
0.0
 23
0.0
 33
0.0
 16
1.0
 26
0.0
 36
0.0
 17
0.0
 27
1.0
 37
0.0
 76
     0
330
53CC
331
53D6
  0
MATERIAL
  5
53F2
102
{ACAD_REACTORS
330
53F0
102
}
330
53F0
100
AcDbMaterial
  1
ByBlock
 72
     1
 94
      127
  0
MATERIAL
  5
53F1
102
{ACAD_REACTORS
330
53F0
102
}
330
53F0
100
AcDbMaterial
  1
ByLayer
 72
     1
 94
      127
  0
MATERIAL
  5
53F3
102
{ACAD_REACTORS
330
53F0
102
}
330
53F0
100
AcDbMaterial
  1
Global
 72
     1
 94
      127
  0
MLEADERSTYLE
  5
5409
102
{ACAD_REACTORS
330
5408
102
}
330
5408
100
AcDbMLeaderStyle
179
     2
170
     2
171
     1
172
     0
 90
        2
 40
0.0
 41
0.0
173
     1
 91
-1056964608
340
53C1
 92
       -2
290
     1
 42
0.09
291
     1
 43
0.36
  3
Standard
341
0
 44
0.18
300

342
53BF
174
     1
178
     6
175
     1
176
     0
 93
-1056964608
 45
0.18
292
     0
297
     0
 46
0.18
343
0
 94
-1056964608
 47
1.0
 49
1.0
140
1.0
293
     1
141
0.0
294
     1
177
     0
142
1.0
295
     0
296
     0
143
0.125
271
     0
272
     9
273
     9
298
     0
  0
MLINESTYLE
  5
53C5
102
{ACAD_REACTORS
330
53C4
102
}
330
53C4
100
AcDbMlineStyle
  2
Standard
 70
     0
  3

 62
   256
 51
90.0
 52
90.0
 71
     2
 49
0.5
 62
   256
  6
BYLAYER
 49
-0.5
 62
   256
  6
BYLAYER
  0
ACDBPLACEHOLDER
  5
53BD
102
{ACAD_REACTORS
330
53BC
102
}
330
53BC
  0
SCALE
  5
53F5
102
{ACAD_REACTORS
330
53F4
102
}
330
53F4
100
AcDbScale
 70
     0
300
1:1
140
1.0
141
1.0
290
     1
  0
SCALE
  5
53F6
102
{ACAD_REACTORS
330
53F4
102
}
330
53F4
100
AcDbScale
 70
     0
300
1/128" = 1'-0"
140
0.0078125
141
12.0
290
     0
  0
SCALE
  5
53F7
102
{ACAD_REACTORS
330
53F4
102
}
330
53F4
100
AcDbScale
 70
     0
300
1/64" = 1'-0"
140
0.015625
141
12.0
290
     0
  0
SCALE
  5
53F8
102
{ACAD_REACTORS
330
53F4
102
}
330
53F4
100
AcDbScale
 70
     0
300
1/32" = 1'-0"
140
0.03125
141
12.0
290
     0
  0
SCALE
  5
53F9
102
{ACAD_REACTORS
330
53F4
102
}
330
53F4
100
AcDbScale
 70
     0
300
1/16" = 1'-0"
140
0.0625
141
12.0
290
     0
  0
SCALE
  5
53FA
102
{ACAD_REACTORS
330
53F4
102
}
330
53F4
100
AcDbScale
 70
     0
300
3/32" = 1'-0"
140
0.09375
141
12.0
290
     0
  0
SCALE
  5
53FB
102
{ACAD_REACTORS
330
53F4
102
}
330
53F4
100
AcDbScale
 70
     0
300
1/8" = 1'-0"
140
0.125
141
12.0
290
     0
  0
SCALE
  5
53FC
102
{ACAD_REACTORS
330
53F4
102
}
330
53F4
100
AcDbScale
 70
     0
300
3/16" = 1'-0"
140
0.1875
141
12.0
290
     0
  0
SCALE
  5
53FD
102
{ACAD_REACTORS
330
53F4
102
}
330
53F4
100
AcDbScale
 70
     0
300
1/4" = 1'-0"
140
0.25
141
12.0
290
     0
  0
SCALE
  5
53FE
102
{ACAD_REACTORS
330
53F4
102
}
330
53F4
100
AcDbScale
 70
     0
300
3/8" = 1'-0"
140
0.375
141
12.0
290
     0
  0
SCALE
  5
53FF
102
{ACAD_REACTORS
330
53F4
102
}
330
53F4
100
AcDbScale
 70
     0
300
1/2" = 1'-0"
140
0.5
141
12.0
290
     0
  0
SCALE
  5
5400
102
{ACAD_REACTORS
330
53F4
102
}
330
53F4
100
AcDbScale
 70
     0
300
3/4" = 1'-0"
140
0.75
141
12.0
290
     0
  0
SCALE
  5
5401
102
{ACAD_REACTORS
330
53F4
102
}
330
53F4
100
AcDbScale
 70
     0
300
1" = 1'-0"
140
1.0
141
12.0
290
     0
  0
SCALE
  5
5402
102
{ACAD_REACTORS
330
53F4
102
}
330
53F4
100
AcDbScale
 70
     0
300
1-1/2" = 1'-0"
140
1.5
141
12.0
290
     0
  0
SCALE
  5
5403
102
{ACAD_REACTORS
330
53F4
102
}
330
53F4
100
AcDbScale
 70
     0
300
3" = 1'-0"
140
3.0
141
12.0
290
     0
  0
SCALE
  5
5404
102
{ACAD_REACTORS
330
53F4
102
}
330
53F4
100
AcDbScale
 70
     0
300
6" = 1'-0"
140
6.0
141
12.0
290
     0
  0
SCALE
  5
5405
102
{ACAD_REACTORS
330
53F4
102
}
330
53F4
100
AcDbScale
 70
     0
300
1'-0" = 1'-0"
140
12.0
141
12.0
290
     0
  0
TABLESTYLE
  5
5407
102
{ACAD_REACTORS
330
5406
102
}
102
{ACAD_XDICTIONARY
360
5487
102
}
330
5406
100
AcDbTableStyle
  3
Standard
 70
     0
 71
     0
 40
0.06
 41
0.06
280
     0
281
     0
  7
Standard
140
0.18
170
     2
 62
     0
 63
   257
283
     0
 90
        4
 91
        0
  1

274
    -2
284
     1
 64
     0
275
    -2
285
     1
 65
     0
276
    -2
286
     1
 66
     0
277
    -2
287
     1
 67
     0
278
    -2
288
     1
 68
     0
279
    -2
289
     1
 69
     0
  7
Standard
140
0.25
170
     5
 62
     0
 63
   257
283
     0
 90
        4
 91
        0
  1

274
    -2
284
     1
 64
     0
275
    -2
285
     1
 65
     0
276
    -2
286
     1
 66
     0
277
    -2
287
     1
 67
     0
278
    -2
288
     1
 68
     0
279
    -2
289
     1
 69
     0
  7
Standard
140
0.18
170
     5
 62
     0
 63
   257
283
     0
 90
        4
 91
        0
  1

274
    -2
284
     1
 64
     0
275
    -2
285
     1
 65
     0
276
    -2
286
     1
 66
     0
277
    -2
287
     1
 67
     0
278
    -2
288
     1
 68
     0
279
    -2
289
     1
 69
     0
  0
VISUALSTYLE
  5
53DC
102
{ACAD_REACTORS
330
53D7
102
}
330
53D7
100
AcDbVisualStyle
  2
2dWireframe
 70
     4
177
     3
291
     0
 70
    58
 90
        0
176
     1
 90
        2
176
     1
 90
        0
176
     1
 90
        0
176
     1
 40
0.6
176
     1
 40
30.0
176
     1
 62
     7
420
 16777215
176
     1
 90
        1
176
     1
 90
        4
176
     1
 62
     7
176
     1
 62
   257
176
     1
 90
        1
176
     1
 90
        1
176
     1
 40
1.0
176
     1
 90
        0
176
     1
 62
   257
176
     1
 40
1.0
176
     1
 90
        1
176
     1
 90
        6
176
     1
 90
        2
176
     1
 62
     7
176
     1
 90
        5
176
     1
 90
        0
176
     1
 90
        0
176
     1
290
     0
176
     1
 90
        1
176
     1
 40
0.0
176
     1
 90
        0
176
     1
290
     1
176
     1
290
     1
176
     1
290
     0
176
     1
290
     0
176
     1
290
     0
176
     1
290
     0
176
     1
290
     0
176
     1
290
     0
176
     1
290
     0
176
     1
 90
       50
176
     1
 40
0.0
176
     1
 40
1.0
176
     1
 90
        0
176
     1
 62
    18
420
        0
176
     1
 90
       50
176
     1
 90
        3
176
     1
 62
     5
420
      255
176
     1
290
     0
176
     1
 90
       50
176
     1
 90
       50
176
     1
 90
       50
176
     1
290
     0
176
     1
 90
       50
176
     1
 62
   256
176
     0
 40
1.0
176
     0
 90
        2
176
     1
  1
strokes_ogs.tif
176
     1
290
     0
176
     1
 40
1.0
176
     1
 40
1.0
176
     1
  0
VISUALSTYLE
  5
53DF
102
{ACAD_REACTORS
330
53D7
102
}
330
53D7
100
AcDbVisualStyle
  2
Basic
 70
     7
177
     3
291
     1
 70
    58
 90
        1
176
     1
 90
        0
176
     1
 90
        1
176
     1
 90
        0
176
     1
 40
0.6
176
     1
 40
30.0
176
     1
 62
     7
420
 16777215
176
     1
 90
        0
176
     1
 90
        4
176
     1
 62
     7
176
     1
 62
   257
176
     1
 90
        1
176
     1
 90
        1
176
     1
 40
1.0
176
     1
 90
        8
176
     1
 62
     7
176
     1
 40
1.0
176
     1
 90
        1
176
     1
 90
        6
176
     1
 90
        2
176
     1
 62
     7
176
     1
 90
        5
176
     1
 90
        0
176
     1
 90
        0
176
     1
290
     0
176
     1
 90
        1
176
     1
 40
0.0
176
     1
 90
        0
176
     1
290
     0
176
     1
290
     1
176
     1
290
     1
176
     1
290
     0
176
     1
290
     0
176
     1
290
     0
176
     1
290
     0
176
     1
290
     0
176
     1
290
     0
176
     1
 90
       50
176
     1
 40
0.0
176
     1
 40
1.0
176
     1
 90
        0
176
     1
 62
    18
420
        0
176
     1
 90
       50
176
     1
 90
        3
176
     1
 62
     5
420
      255
176
     1
290
     0
176
     1
 90
       50
176
     1
 90
       50
176
     1
 90
       50
176
     1
290
     0
176
     1
 90
       50
176
     1
 62
   256
176
     0
 40
1.0
176
     0
 90
        2
176
     1
  1
strokes_ogs.tif
176
     1
290
     0
176
     1
 40
1.0
176
     1
 40
1.0
176
     1
  0
VISUALSTYLE
  5
53E3
102
{ACAD_REACTORS
330
53D7
102
}
330
53D7
100
AcDbVisualStyle
  2
Brighten
 70
    12
177
     3
291
     1
 70
    58
 90
        2
176
     1
 90
        2
176
     1
 90
        0
176
     1
 90
        0
176
     1
 40
0.6
176
     1
 40
30.0
176
     1
 62
     7
420
 16777215
176
     1
 90
        1
176
     1
 90
        4
176
     1
 62
     7
176
     1
 62
   257
176
     1
 90
        1
176
     1
 90
        1
176
     1
 40
1.0
176
     1
 90
        8
176
     1
 62
     7
176
     1
 40
1.0
176
     1
 90
        1
176
     1
 90
        6
176
     1
 90
        2
176
     1
 62
     7
176
     1
 90
        5
176
     1
 90
        0
176
     1
 90
        0
176
     1
290
     0
176
     1
 90
        1
176
     1
 40
50.0
176
     1
 90
        0
176
     1
290
     0
176
     1
290
     1
176
     1
290
     1
176
     1
290
     0
176
     1
290
     0
176
     1
290
     0
176
     1
290
     0
176
     1
290
     0
176
     1
290
     0
176
     1
 90
       50
176
     1
 40
0.0
176
     1
 40
1.0
176
     1
 90
        0
176
     1
 62
    18
420
        0
176
     1
 90
       50
176
     1
 90
        3
176
     1
 62
     5
420
      255
176
     1
290
     0
176
     1
 90
       50
176
     1
 90
       50
176
     1
 90
       50
176
     1
290
     0
176
     1
 90
       50
176
     1
 62
   256
176
     0
 40
1.0
176
     0
 90
        2
176
     1
  1
strokes_ogs.tif
176
     1
290
     0
176
     1
 40
1.0
176
     1
 40
1.0
176
     1
  0
VISUALSTYLE
  5
53E7
102
{ACAD_REACTORS
330
53D7
102
}
330
53D7
100
AcDbVisualStyle
  2
ColorChange
 70
    16
177
     3
291
     1
 70
    58
 90
        2
176
     1
 90
        2
176
     1
 90
        3
176
     1
 90
        0
176
     1
 40
0.6
176
     1
 40
30.0
176
     1
 62
     8
420
  8421504
176
     1
 90
        1
176
     1
 90
        4
176
     1
 62
     7
176
     1
 62
   257
176
     1
 90
        1
176
     1
 90
        1
176
     1
 40
1.0
176
     1
 90
        8
176
     1
 62
     8
420
  8421504
176
     1
 40
1.0
176
     1
 90
        1
176
     1
 90
        6
176
     1
 90
        2
176
     1
 62
     7
176
     1
 90
        5
176
     1
 90
        0
176
     1
 90
        0
176
     1
290
     0
176
     1
 90
        1
176
     1
 40
0.0
176
     1
 90
        0
176
     1
290
     0
176
     1
290
     1
176
     1
290
     1
176
     1
290
     0
176
     1
290
     0
176
     1
290
     0
176
     1
290
     0
176
     1
290
     0
176
     1
290
     0
176
     1
 90
       50
176
     1
 40
0.0
176
     1
 40
1.0
176
     1
 90
        0
176
     1
 62
    18
420
        0
176
     1
 90
       50
176
     1
 90
        3
176
     1
 62
     5
420
      255
176
     1
290
     0
176
     1
 90
       50
176
     1
 90
       50
176
     1
 90
       50
176
     1
290
     0
176
     1
 90
       50
176
     1
 62
   256
176
     0
 40
1.0
176
     0
 90
        2
176
     1
  1
strokes_ogs.tif
176
     1
290
     0
176
     1
 40
1.0
176
     1
 40
1.0
176
     1
  0
VISUALSTYLE
  5
53E1
102
{ACAD_REACTORS
330
53D7
102
}
330
53D7
100
AcDbVisualStyle
  2
Conceptual
 70
     9
177
     3
291
     0
 70
    58
 90
        3
176
     1
 90
        2
176
     1
 90
        0
176
     1
 90
        0
176
     1
 40
0.6
176
     1
 40
30.0
176
     1
 62
     7
420
 16777215
176
     1
 90
        2
176
     1
 90
        2
176
     1
 62
     7
176
     1
 62
   257
176
     1
 90
        1
176
     1
 90
        1
176
     1
 40
179.0
176
     1
 90
        8
176
     1
 62
     7
176
     1
 40
1.0
176
     1
 90
        1
176
     1
 90
        6
176
     1
 90
        2
176
     1
 62
     7
176
     1
 90
        3
176
     1
 90
        0
176
     1
 90
        0
176
     1
290
     0
176
     1
 90
        1
176
     1
 40
0.0
176
     1
 90
        0
176
     1
290
     0
176
     1
290
     1
176
     1
290
     1
176
     1
290
     0
176
     1
290
     0
176
     1
290
     0
176
     1
290
     0
176
     1
290
     0
176
     1
290
     0
176
     1
 90
       50
176
     1
 40
0.0
176
     1
 40
1.0
176
     1
 90
        0
176
     1
 62
    18
420
        0
176
     1
 90
       50
176
     1
 90
        3
176
     1
 62
     5
420
      255
176
     1
290
     0
176
     1
 90
       50
176
     1
 90
       50
176
     1
 90
       50
176
     1
290
     0
176
     1
 90
       50
176
     1
 62
   256
176
     0
 40
1.0
176
     0
 90
        2
176
     1
  1
strokes_ogs.tif
176
     1
290
     0
176
     1
 40
1.0
176
     1
 40
1.0
176
     1
  0
VISUALSTYLE
  5
53E2
102
{ACAD_REACTORS
330
53D7
102
}
330
53D7
100
AcDbVisualStyle
  2
Dim
 70
    11
177
     3
291
     1
 70
    58
 90
        2
176
     1
 90
        2
176
     1
 90
        0
176
     1
 90
        0
176
     1
 40
0.6
176
     1
 40
30.0
176
     1
 62
     7
420
 16777215
176
     1
 90
        1
176
     1
 90
        4
176
     1
 62
     7
176
     1
 62
   257
176
     1
 90
        1
176
     1
 90
        1
176
     1
 40
1.0
176
     1
 90
        8
176
     1
 62
     7
176
     1
 40
1.0
176
     1
 90
        1
176
     1
 90
        6
176
     1
 90
        2
176
     1
 62
     7
176
     1
 90
        5
176
     1
 90
        0
176
     1
 90
        0
176
     1
290
     0
176
     1
 90
        1
176
     1
 40
-50.0
176
     1
 90
        0
176
     1
290
     0
176
     1
290
     1
176
     1
290
     1
176
     1
290
     0
176
     1
290
     0
176
     1
290
     0
176
     1
290
     0
176
     1
290
     0
176
     1
290
     0
176
     1
 90
       50
176
     1
 40
0.0
176
     1
 40
1.0
176
     1
 90
        0
176
     1
 62
    18
420
        0
176
     1
 90
       50
176
     1
 90
        3
176
     1
 62
     5
420
      255
176
     1
290
     0
176
     1
 90
       50
176
     1
 90
       50
176
     1
 90
       50
176
     1
290
     0
176
     1
 90
       50
176
     1
 62
   256
176
     0
 40
1.0
176
     0
 90
        2
176
     1
  1
strokes_ogs.tif
176
     1
290
     0
176
     1
 40
1.0
176
     1
 40
1.0
176
     1
  0
VISUALSTYLE
  5
53EA
102
{ACAD_REACTORS
330
53D7
102
}
330
53D7
100
AcDbVisualStyle
  2
EdgeColorOff
 70
    22
177
     3
291
     1
 70
    58
 90
        2
176
     0
 90
        2
176
     0
 90
        0
176
     0
 90
        0
176
     0
 40
0.6
176
     0
 40
30.0
176
     0
 62
     7
420
 16777215
176
     0
 90
        1
176
     0
 90
        4
176
     0
 62
     7
176
     0
 62
   257
176
     0
 90
        1
176
     0
 90
        1
176
     0
 40
1.0
176
     0
 90
        8
176
     2
 62
     7
176
     0
 40
1.0
176
     0
 90
        1
176
     0
 90
        6
176
     0
 90
        2
176
     0
 62
     7
176
     0
 90
        5
176
     0
 90
        0
176
     0
 90
        0
176
     0
290
     0
176
     0
 90
        1
176
     0
 40
0.0
176
     0
 90
        0
176
     0
290
     0
176
     0
290
     1
176
     0
290
     1
176
     0
290
     0
176
     0
290
     0
176
     0
290
     0
176
     0
290
     0
176
     0
290
     0
176
     0
290
     0
176
     0
 90
       50
176
     0
 40
0.0
176
     0
 40
1.0
176
     0
 90
        0
176
     0
 62
    18
420
        0
176
     0
 90
       50
176
     0
 90
        3
176
     0
 62
     5
420
      255
176
     0
290
     0
176
     0
 90
       50
176
     0
 90
       50
176
     0
 90
       50
176
     0
290
     0
176
     0
 90
       50
176
     0
 62
   256
176
     0
 40
1.0
176
     0
 90
        2
176
     0
  1
strokes_ogs.tif
176
     0
290
     0
176
     0
 40
1.0
176
     0
 40
1.0
176
     0
  0
VISUALSTYLE
  5
53E6
102
{ACAD_REACTORS
330
53D7
102
}
330
53D7
100
AcDbVisualStyle
  2
Facepattern
 70
    15
177
     3
291
     1
 70
    58
 90
        2
176
     1
 90
        2
176
     1
 90
        0
176
     1
 90
        0
176
     1
 40
0.6
176
     1
 40
30.0
176
     1
 62
     7
420
 16777215
176
     1
 90
        1
176
     1
 90
        4
176
     1
 62
     7
176
     1
 62
   257
176
     1
 90
        1
176
     1
 90
        1
176
     1
 40
1.0
176
     1
 90
        8
176
     1
 62
     7
176
     1
 40
1.0
176
     1
 90
        1
176
     1
 90
        6
176
     1
 90
        2
176
     1
 62
     7
176
     1
 90
        5
176
     1
 90
        0
176
     1
 90
        0
176
     1
290
     0
176
     1
 90
        1
176
     1
 40
0.0
176
     1
 90
        0
176
     1
290
     0
176
     1
290
     1
176
     1
290
     1
176
     1
290
     0
176
     1
290
     0
176
     1
290
     0
176
     1
290
     0
176
     1
290
     0
176
     1
290
     0
176
     1
 90
       50
176
     1
 40
0.0
176
     1
 40
1.0
176
     1
 90
        0
176
     1
 62
    18
420
        0
176
     1
 90
       50
176
     1
 90
        3
176
     1
 62
     5
420
      255
176
     1
290
     0
176
     1
 90
       50
176
     1
 90
       50
176
     1
 90
       50
176
     1
290
     0
176
     1
 90
       50
176
     1
 62
   256
176
     0
 40
1.0
176
     0
 90
        2
176
     1
  1
strokes_ogs.tif
176
     1
290
     0
176
     1
 40
1.0
176
     1
 40
1.0
176
     1
  0
VISUALSTYLE
  5
53D8
102
{ACAD_REACTORS
330
53D7
102
}
330
53D7
100
AcDbVisualStyle
  2
Flat
 70
     0
177
     3
291
     1
 70
    58
 90
        2
176
     1
 90
        1
176
     1
 90
        1
176
     1
 90
        2
176
     1
 40
0.6
176
     1
 40
30.0
176
     1
 62
     7
420
 16777215
176
     1
 90
        0
176
     1
 90
        0
176
     1
 62
     7
176
     1
 62
   257
176
     1
 90
        1
176
     1
 90
        1
176
     1
 40
1.0
176
     1
 90
        8
176
     1
 62
     7
176
     1
 40
1.0
176
     1
 90
        1
176
     1
 90
        6
176
     1
 90
        2
176
     1
 62
     7
176
     1
 90
        5
176
     1
 90
        0
176
     1
 90
        0
176
     1
290
     0
176
     1
 90
       13
176
     1
 40
0.0
176
     1
 90
        0
176
     1
290
     0
176
     1
290
     1
176
     1
290
     1
176
     1
290
     0
176
     1
290
     0
176
     1
290
     0
176
     1
290
     0
176
     1
290
     0
176
     1
290
     0
176
     1
 90
       50
176
     1
 40
0.0
176
     1
 40
1.0
176
     1
 90
        0
176
     1
 62
    18
420
        0
176
     1
 90
       50
176
     1
 90
        3
176
     1
 62
     5
420
      255
176
     1
290
     0
176
     1
 90
       50
176
     1
 90
       50
176
     1
 90
       50
176
     1
290
     0
176
     1
 90
       50
176
     1
 62
   256
176
     0
 40
1.0
176
     0
 90
        2
176
     1
  1
strokes_ogs.tif
176
     1
290
     0
176
     1
 40
1.0
176
     1
 40
1.0
176
     1
  0
VISUALSTYLE
  5
53D9
102
{ACAD_REACTORS
330
53D7
102
}
330
53D7
100
AcDbVisualStyle
  2
FlatWithEdges
 70
     1
177
     3
291
     1
 70
    58
 90
        2
176
     1
 90
        1
176
     1
 90
        1
176
     1
 90
        2
176
     1
 40
0.6
176
     1
 40
30.0
176
     1
 62
     7
420
 16777215
176
     1
 90
        1
176
     1
 90
        0
176
     1
 62
     7
176
     1
 62
   257
176
     1
 90
        1
176
     1
 90
        1
176
     1
 40
1.0
176
     1
 90
        0
176
     1
 62
   257
176
     1
 40
1.0
176
     1
 90
        1
176
     1
 90
        6
176
     1
 90
        2
176
     1
 62
     7
176
     1
 90
        5
176
     1
 90
        0
176
     1
 90
        0
176
     1
290
     0
176
     1
 90
       13
176
     1
 40
0.0
176
     1
 90
        0
176
     1
290
     0
176
     1
290
     1
176
     1
290
     1
176
     1
290
     0
176
     1
290
     0
176
     1
290
     0
176
     1
290
     0
176
     1
290
     0
176
     1
290
     0
176
     1
 90
       50
176
     1
 40
0.0
176
     1
 40
1.0
176
     1
 90
        0
176
     1
 62
    18
420
        0
176
     1
 90
       50
176
     1
 90
        3
176
     1
 62
     5
420
      255
176
     1
290
     0
176
     1
 90
       50
176
     1
 90
       50
176
     1
 90
       50
176
     1
290
     0
176
     1
 90
       50
176
     1
 62
   256
176
     0
 40
1.0
176
     0
 90
        2
176
     1
  1
strokes_ogs.tif
176
     1
290
     0
176
     1
 40
1.0
176
     1
 40
1.0
176
     1
  0
VISUALSTYLE
  5
53DA
102
{ACAD_REACTORS
330
53D7
102
}
330
53D7
100
AcDbVisualStyle
  2
Gouraud
 70
     2
177
     3
291
     1
 70
    58
 90
        2
176
     1
 90
        2
176
     1
 90
        1
176
     1
 90
        2
176
     1
 40
0.6
176
     1
 40
30.0
176
     1
 62
     7
420
 16777215
176
     1
 90
        0
176
     1
 90
        0
176
     1
 62
     7
176
     1
 62
   257
176
     1
 90
        1
176
     1
 90
        1
176
     1
 40
1.0
176
     1
 90
        0
176
     1
 62
     7
176
     1
 40
1.0
176
     1
 90
        1
176
     1
 90
        6
176
     1
 90
        2
176
     1
 62
     7
176
     1
 90
        5
176
     1
 90
        0
176
     1
 90
        0
176
     1
290
     0
176
     1
 90
       13
176
     1
 40
0.0
176
     1
 90
        0
176
     1
290
     0
176
     1
290
     1
176
     1
290
     1
176
     1
290
     0
176
     1
290
     0
176
     1
290
     0
176
     1
290
     0
176
     1
290
     0
176
     1
290
     0
176
     1
 90
       50
176
     1
 40
0.0
176
     1
 40
1.0
176
     1
 90
        0
176
     1
 62
    18
420
        0
176
     1
 90
       50
176
     1
 90
        3
176
     1
 62
     5
420
      255
176
     1
290
     0
176
     1
 90
       50
176
     1
 90
       50
176
     1
 90
       50
176
     1
290
     0
176
     1
 90
       50
176
     1
 62
   256
176
     0
 40
1.0
176
     0
 90
        2
176
     1
  1
strokes_ogs.tif
176
     1
290
     0
176
     1
 40
1.0
176
     1
 40
1.0
176
     1
  0
VISUALSTYLE
  5
53DB
102
{ACAD_REACTORS
330
53D7
102
}
330
53D7
100
AcDbVisualStyle
  2
GouraudWithEdges
 70
     3
177
     3
291
     1
 70
    58
 90
        2
176
     1
 90
        2
176
     1
 90
        1
176
     1
 90
        2
176
     1
 40
0.6
176
     1
 40
30.0
176
     1
 62
     7
420
 16777215
176
     1
 90
        1
176
     1
 90
        0
176
     1
 62
     7
176
     1
 62
   257
176
     1
 90
        1
176
     1
 90
        1
176
     1
 40
1.0
176
     1
 90
        0
176
     1
 62
   257
176
     1
 40
1.0
176
     1
 90
        1
176
     1
 90
        6
176
     1
 90
        2
176
     1
 62
     7
176
     1
 90
        5
176
     1
 90
        0
176
     1
 90
        0
176
     1
290
     0
176
     1
 90
       13
176
     1
 40
0.0
176
     1
 90
        0
176
     1
290
     0
176
     1
290
     1
176
     1
290
     1
176
     1
290
     0
176
     1
290
     0
176
     1
290
     0
176
     1
290
     0
176
     1
290
     0
176
     1
290
     0
176
     1
 90
       50
176
     1
 40
0.0
176
     1
 40
1.0
176
     1
 90
        0
176
     1
 62
    18
420
        0
176
     1
 90
       50
176
     1
 90
        3
176
     1
 62
     5
420
      255
176
     1
290
     0
176
     1
 90
       50
176
     1
 90
       50
176
     1
 90
       50
176
     1
290
     0
176
     1
 90
       50
176
     1
 62
   256
176
     0
 40
1.0
176
     0
 90
        2
176
     1
  1
strokes_ogs.tif
176
     1
290
     0
176
     1
 40
1.0
176
     1
 40
1.0
176
     1
  0
VISUALSTYLE
  5
53DE
102
{ACAD_REACTORS
330
53D7
102
}
330
53D7
100
AcDbVisualStyle
  2
Hidden
 70
     6
177
     3
291
     0
 70
    58
 90
        1
176
     1
 90
        2
176
     1
 90
        2
176
     1
 90
        0
176
     1
 40
0.6
176
     1
 40
30.0
176
     1
 62
     7
420
 16777215
176
     1
 90
        2
176
     1
 90
        2
176
     1
 62
     7
176
     1
 62
   257
176
     1
 90
        2
176
     1
 90
        1
176
     1
 40
40.0
176
     1
 90
        0
176
     1
 62
   257
176
     1
 40
1.0
176
     1
 90
        1
176
     1
 90
        6
176
     1
 90
        2
176
     1
 62
     7
176
     1
 90
        3
176
     1
 90
        0
176
     1
 90
        0
176
     1
290
     0
176
     1
 90
        1
176
     1
 40
0.0
176
     1
 90
        0
176
     1
290
     0
176
     1
290
     1
176
     1
290
     1
176
     1
290
     0
176
     1
290
     0
176
     1
290
     0
176
     1
290
     0
176
     1
290
     0
176
     1
290
     0
176
     1
 90
       50
176
     1
 40
0.0
176
     1
 40
1.0
176
     1
 90
        0
176
     1
 62
    18
420
        0
176
     1
 90
       50
176
     1
 90
        3
176
     1
 62
     5
420
      255
176
     1
290
     0
176
     1
 90
       50
176
     1
 90
       50
176
     1
 90
       50
176
     1
290
     0
176
     1
 90
       50
176
     1
 62
   256
176
     0
 40
1.0
176
     0
 90
        2
176
     1
  1
strokes_ogs.tif
176
     1
290
     0
176
     1
 40
1.0
176
     1
 40
1.0
176
     1
  0
VISUALSTYLE
  5
53E8
102
{ACAD_REACTORS
330
53D7
102
}
330
53D7
100
AcDbVisualStyle
  2
JitterOff
 70
    20
177
     3
291
     1
 70
    58
 90
        2
176
     0
 90
        2
176
     0
 90
        0
176
     0
 90
        0
176
     0
 40
0.6
176
     0
 40
30.0
176
     0
 62
     7
420
 16777215
176
     0
 90
        1
176
     0
 90
        4
176
     0
 62
     7
176
     0
 62
   257
176
     0
 90
        1
176
     0
 90
        1
176
     0
 40
1.0
176
     0
 90
       10
176
     2
 62
     7
176
     0
 40
1.0
176
     0
 90
        1
176
     0
 90
        6
176
     0
 90
        2
176
     0
 62
     7
176
     0
 90
        5
176
     0
 90
        0
176
     0
 90
        0
176
     0
290
     0
176
     0
 90
        1
176
     0
 40
0.0
176
     0
 90
        0
176
     0
290
     0
176
     0
290
     1
176
     0
290
     1
176
     0
290
     0
176
     0
290
     0
176
     0
290
     0
176
     0
290
     0
176
     0
290
     0
176
     0
290
     0
176
     0
 90
       50
176
     0
 40
0.0
176
     0
 40
1.0
176
     0
 90
        0
176
     0
 62
    18
420
        0
176
     0
 90
       50
176
     0
 90
        3
176
     0
 62
     5
420
      255
176
     0
290
     0
176
     0
 90
       50
176
     0
 90
       50
176
     0
 90
       50
176
     0
290
     0
176
     0
 90
       50
176
     0
 62
   256
176
     0
 40
1.0
176
     0
 90
        2
176
     0
  1
strokes_ogs.tif
176
     0
290
     0
176
     0
 40
1.0
176
     0
 40
1.0
176
     0
  0
VISUALSTYLE
  5
53E5
102
{ACAD_REACTORS
330
53D7
102
}
330
53D7
100
AcDbVisualStyle
  2
Linepattern
 70
    14
177
     3
291
     1
 70
    58
 90
        2
176
     1
 90
        2
176
     1
 90
        0
176
     1
 90
        0
176
     1
 40
0.6
176
     1
 40
30.0
176
     1
 62
     7
420
 16777215
176
     1
 90
        1
176
     1
 90
        4
176
     1
 62
     7
176
     1
 62
   257
176
     1
 90
        7
176
     1
 90
        7
176
     1
 40
1.0
176
     1
 90
        8
176
     1
 62
     7
176
     1
 40
1.0
176
     1
 90
        1
176
     1
 90
        6
176
     1
 90
        2
176
     1
 62
     7
176
     1
 90
        5
176
     1
 90
        0
176
     1
 90
        0
176
     1
290
     0
176
     1
 90
        1
176
     1
 40
0.0
176
     1
 90
        0
176
     1
290
     0
176
     1
290
     1
176
     1
290
     1
176
     1
290
     0
176
     1
290
     0
176
     1
290
     0
176
     1
290
     0
176
     1
290
     0
176
     1
290
     0
176
     1
 90
       50
176
     1
 40
0.0
176
     1
 40
1.0
176
     1
 90
        0
176
     1
 62
    18
420
        0
176
     1
 90
       50
176
     1
 90
        3
176
     1
 62
     5
420
      255
176
     1
290
     0
176
     1
 90
       50
176
     1
 90
       50
176
     1
 90
       50
176
     1
290
     0
176
     1
 90
       50
176
     1
 62
   256
176
     0
 40
1.0
176
     0
 90
        2
176
     1
  1
strokes_ogs.tif
176
     1
290
     0
176
     1
 40
1.0
176
     1
 40
1.0
176
     1
  0
VISUALSTYLE
  5
53E9
102
{ACAD_REACTORS
330
53D7
102
}
330
53D7
100
AcDbVisualStyle
  2
OverhangOff
 70
    21
177
     3
291
     1
 70
    58
 90
        2
176
     0
 90
        2
176
     0
 90
        0
176
     0
 90
        0
176
     0
 40
0.6
176
     0
 40
30.0
176
     0
 62
     7
420
 16777215
176
     0
 90
        1
176
     0
 90
        4
176
     0
 62
     7
176
     0
 62
   257
176
     0
 90
        1
176
     0
 90
        1
176
     0
 40
1.0
176
     0
 90
        9
176
     2
 62
     7
176
     0
 40
1.0
176
     0
 90
        1
176
     0
 90
        6
176
     0
 90
        2
176
     0
 62
     7
176
     0
 90
        5
176
     0
 90
        0
176
     0
 90
        0
176
     0
290
     0
176
     0
 90
        1
176
     0
 40
0.0
176
     0
 90
        0
176
     0
290
     0
176
     0
290
     1
176
     0
290
     1
176
     0
290
     0
176
     0
290
     0
176
     0
290
     0
176
     0
290
     0
176
     0
290
     0
176
     0
290
     0
176
     0
 90
       50
176
     0
 40
0.0
176
     0
 40
1.0
176
     0
 90
        0
176
     0
 62
    18
420
        0
176
     0
 90
       50
176
     0
 90
        3
176
     0
 62
     5
420
      255
176
     0
290
     0
176
     0
 90
       50
176
     0
 90
       50
176
     0
 90
       50
176
     0
290
     0
176
     0
 90
       50
176
     0
 62
   256
176
     0
 40
1.0
176
     0
 90
        2
176
     0
  1
strokes_ogs.tif
176
     0
290
     0
176
     0
 40
1.0
176
     0
 40
1.0
176
     0
  0
VISUALSTYLE
  5
53E0
102
{ACAD_REACTORS
330
53D7
102
}
330
53D7
100
AcDbVisualStyle
  2
Realistic
 70
     8
177
     3
291
     0
 70
    58
 90
        2
176
     1
 90
        3
176
     1
 90
        0
176
     1
 90
        2
176
     1
 40
0.6
176
     1
 40
30.0
176
     1
 62
     7
420
 16777215
176
     1
 90
        0
176
     1
 90
        0
176
     1
 62
     7
176
     1
 62
   257
176
     1
 90
        1
176
     1
 90
        1
176
     1
 40
1.0
176
     1
 90
        8
176
     1
 62
   257
176
     1
 40
1.0
176
     1
 90
        1
176
     1
 90
        6
176
     1
 90
        2
176
     1
 62
     7
176
     1
 90
        3
176
     1
 90
        0
176
     1
 90
        0
176
     1
290
     0
176
     1
 90
       13
176
     1
 40
0.0
176
     1
 90
        0
176
     1
290
     0
176
     1
290
     1
176
     1
290
     1
176
     1
290
     0
176
     1
290
     0
176
     1
290
     0
176
     1
290
     0
176
     1
290
     0
176
     1
290
     0
176
     1
 90
       50
176
     1
 40
0.0
176
     1
 40
1.0
176
     1
 90
        0
176
     1
 62
    18
420
        0
176
     1
 90
       50
176
     1
 90
        3
176
     1
 62
     5
420
      255
176
     1
290
     0
176
     1
 90
       50
176
     1
 90
       50
176
     1
 90
       50
176
     1
290
     0
176
     1
 90
       50
176
     1
 62
   256
176
     0
 40
1.0
176
     0
 90
        2
176
     1
  1
strokes_ogs.tif
176
     1
290
     0
176
     1
 40
1.0
176
     1
 40
1.0
176
     1
  0
VISUALSTYLE
  5
53EF
102
{ACAD_REACTORS
330
53D7
102
}
330
53D7
100
AcDbVisualStyle
  2
Shaded
 70
    27
177
     3
291
     0
 70
    58
 90
        2
176
     1
 90
        2
176
     1
 90
        1
176
     1
 90
        2
176
     1
 40
0.6
176
     1
 40
30.0
176
     1
 62
     7
420
 16777215
176
     1
 90
        0
176
     1
 90
        4
176
     1
 62
     7
176
     1
 62
   257
176
     1
 90
        1
176
     1
 90
        1
176
     1
 40
1.0
176
     1
 90
        8
176
     1
 62
   257
176
     1
 40
1.0
176
     1
 90
        1
176
     1
 90
        6
176
     1
 90
        2
176
     1
 62
     8
420
  7895160
176
     1
 90
        3
176
     1
 90
        0
176
     1
 90
        0
176
     1
290
     0
176
     1
 90
        5
176
     1
 40
0.0
176
     1
 90
        0
176
     1
290
     0
176
     1
290
     1
176
     1
290
     1
176
     1
290
     0
176
     1
290
     0
176
     1
290
     0
176
     1
290
     0
176
     1
290
     0
176
     1
290
     0
176
     1
 90
       50
176
     1
 40
0.0
176
     1
 40
1.0
176
     1
 90
        0
176
     1
 62
    18
420
        0
176
     1
 90
       50
176
     1
 90
        3
176
     1
 62
     5
420
      255
176
     1
290
     0
176
     1
 90
       50
176
     1
 90
       50
176
     1
 90
       50
176
     1
290
     0
176
     1
 90
       50
176
     1
 62
   256
176
     0
 40
1.0
176
     0
 90
        2
176
     1
  1
strokes_ogs.tif
176
     1
290
     0
176
     1
 40
1.0
176
     1
 40
1.0
176
     1
  0
VISUALSTYLE
  5
53EE
102
{ACAD_REACTORS
330
53D7
102
}
330
53D7
100
AcDbVisualStyle
  2
Shaded with edges
 70
    26
177
     3
291
     0
 70
    58
 90
        2
176
     1
 90
        2
176
     1
 90
        1
176
     1
 90
        2
176
     1
 40
0.6
176
     1
 40
30.0
176
     1
 62
     7
420
 16777215
176
     1
 90
        1
176
     1
 90
       10
176
     1
 62
     7
176
     1
 62
   257
176
     1
 90
        2
176
     1
 90
        1
176
     1
 40
1.0
176
     1
 90
        8
176
     1
 62
   257
176
     1
 40
1.0
176
     1
 90
        1
176
     1
 90
        6
176
     1
 90
        2
176
     1
 62
     7
176
     1
 90
        3
176
     1
 90
        0
176
     1
 90
        0
176
     1
290
     0
176
     1
 90
        5
176
     1
 40
0.0
176
     1
 90
        0
176
     1
290
     0
176
     1
290
     1
176
     1
290
     1
176
     1
290
     0
176
     1
290
     0
176
     1
290
     0
176
     1
290
     0
176
     1
290
     0
176
     1
290
     0
176
     1
 90
       50
176
     1
 40
0.0
176
     1
 40
1.0
176
     1
 90
        0
176
     1
 62
    18
420
        0
176
     1
 90
       50
176
     1
 90
        3
176
     1
 62
     5
420
      255
176
     1
290
     0
176
     1
 90
       50
176
     1
 90
       50
176
     1
 90
       50
176
     1
290
     0
176
     1
 90
       50
176
     1
 62
   256
176
     0
 40
1.0
176
     0
 90
        2
176
     1
  1
strokes_ogs.tif
176
     1
290
     0
176
     1
 40
1.0
176
     1
 40
1.0
176
     1
  0
VISUALSTYLE
  5
53EB
102
{ACAD_REACTORS
330
53D7
102
}
330
53D7
100
AcDbVisualStyle
  2
Shades of Gray
 70
    23
177
     3
291
     0
 70
    58
 90
        2
176
     1
 90
        2
176
     1
 90
        3
176
     1
 90
        0
176
     1
 40
0.6
176
     1
 40
30.0
176
     1
 62
     7
420
 16777215
176
     1
 90
        2
176
     1
 90
        2
176
     1
 62
     7
176
     1
 62
     7
176
     1
 90
        1
176
     1
 90
        1
176
     1
 40
40.0
176
     1
 90
        8
176
     1
 62
     7
176
     1
 40
1.0
176
     1
 90
        1
176
     1
 90
        6
176
     1
 90
        2
176
     1
 62
     7
176
     1
 90
        3
176
     1
 90
        0
176
     1
 90
        0
176
     1
290
     0
176
     1
 90
        1
176
     1
 40
0.0
176
     1
 90
        0
176
     1
290
     0
176
     1
290
     1
176
     1
290
     1
176
     1
290
     0
176
     1
290
     0
176
     1
290
     0
176
     1
290
     0
176
     1
290
     0
176
     1
290
     0
176
     1
 90
       50
176
     1
 40
0.0
176
     1
 40
1.0
176
     1
 90
        0
176
     1
 62
    18
420
        0
176
     1
 90
       50
176
     1
 90
        3
176
     1
 62
     5
420
      255
176
     1
290
     0
176
     1
 90
       50
176
     1
 90
       50
176
     1
 90
       50
176
     1
290
     0
176
     1
 90
       50
176
     1
 62
   256
176
     0
 40
1.0
176
     0
 90
        2
176
     1
  1
strokes_ogs.tif
176
     1
290
     0
176
     1
 40
1.0
176
     1
 40
1.0
176
     1
  0
VISUALSTYLE
  5
53EC
102
{ACAD_REACTORS
330
53D7
102
}
330
53D7
100
AcDbVisualStyle
  2
Sketchy
 70
    24
177
     3
291
     0
 70
    58
 90
        1
176
     1
 90
        2
176
     1
 90
        2
176
     1
 90
        0
176
     1
 40
0.6
176
     1
 40
30.0
176
     1
 62
     7
420
 16777215
176
     1
 90
        2
176
     1
 90
        2
176
     1
 62
     7
176
     1
 62
     7
176
     1
 90
        1
176
     1
 90
        1
176
     1
 40
40.0
176
     1
 90
       11
176
     1
 62
     7
176
     1
 40
1.0
176
     1
 90
        1
176
     1
 90
        6
176
     1
 90
        2
176
     1
 62
     7
176
     1
 90
        6
176
     1
 90
        0
176
     1
 90
        0
176
     1
290
     0
176
     1
 90
        1
176
     1
 40
0.0
176
     1
 90
        0
176
     1
290
     0
176
     1
290
     1
176
     1
290
     1
176
     1
290
     0
176
     1
290
     0
176
     1
290
     0
176
     1
290
     0
176
     1
290
     0
176
     1
290
     0
176
     1
 90
       50
176
     1
 40
0.0
176
     1
 40
1.0
176
     1
 90
        0
176
     1
 62
    18
420
        0
176
     1
 90
       50
176
     1
 90
        3
176
     1
 62
     5
420
      255
176
     1
290
     0
176
     1
 90
       50
176
     1
 90
       50
176
     1
 90
       50
176
     1
290
     0
176
     1
 90
       50
176
     1
 62
   256
176
     0
 40
1.0
176
     0
 90
        2
176
     1
  1
strokes_ogs.tif
176
     1
290
     0
176
     1
 40
1.0
176
     1
 40
1.0
176
     1
  0
VISUALSTYLE
  5
53E4
102
{ACAD_REACTORS
330
53D7
102
}
330
53D7
100
AcDbVisualStyle
  2
Thicken
 70
    13
177
     3
291
     1
 70
    58
 90
        2
176
     1
 90
        2
176
     1
 90
        0
176
     1
 90
        0
176
     1
 40
0.6
176
     1
 40
30.0
176
     1
 62
     7
420
 16777215
176
     1
 90
        1
176
     1
 90
        4
176
     1
 62
     7
176
     1
 62
   257
176
     1
 90
        1
176
     1
 90
        1
176
     1
 40
1.0
176
     1
 90
       12
176
     1
 62
     7
176
     1
 40
1.0
176
     1
 90
        1
176
     1
 90
        6
176
     1
 90
        2
176
     1
 62
     7
176
     1
 90
        5
176
     1
 90
        0
176
     1
 90
        0
176
     1
290
     0
176
     1
 90
        1
176
     1
 40
0.0
176
     1
 90
        0
176
     1
290
     0
176
     1
290
     1
176
     1
290
     1
176
     1
290
     0
176
     1
290
     0
176
     1
290
     0
176
     1
290
     0
176
     1
290
     0
176
     1
290
     0
176
     1
 90
       50
176
     1
 40
0.0
176
     1
 40
1.0
176
     1
 90
        0
176
     1
 62
    18
420
        0
176
     1
 90
       50
176
     1
 90
        3
176
     1
 62
     5
420
      255
176
     1
290
     0
176
     1
 90
       50
176
     1
 90
       50
176
     1
 90
       50
176
     1
290
     0
176
     1
 90
       50
176
     1
 62
   256
176
     0
 40
1.0
176
     0
 90
        2
176
     1
  1
strokes_ogs.tif
176
     1
290
     0
176
     1
 40
1.0
176
     1
 40
1.0
176
     1
  0
VISUALSTYLE
  5
53DD
102
{ACAD_REACTORS
330
53D7
102
}
330
53D7
100
AcDbVisualStyle
  2
Wireframe
 70
     5
177
     3
291
     0
 70
    58
 90
        0
176
     1
 90
        2
176
     1
 90
        0
176
     1
 90
        0
176
     1
 40
0.6
176
     1
 40
30.0
176
     1
 62
     7
420
 16777215
176
     1
 90
        1
176
     1
 90
        4
176
     1
 62
     7
176
     1
 62
   257
176
     1
 90
        1
176
     1
 90
        1
176
     1
 40
1.0
176
     1
 90
        0
176
     1
 62
   257
176
     1
 40
1.0
176
     1
 90
        1
176
     1
 90
        6
176
     1
 90
        2
176
     1
 62
     7
176
     1
 90
        3
176
     1
 90
        0
176
     1
 90
        0
176
     1
290
     0
176
     1
 90
        1
176
     1
 40
0.0
176
     1
 90
        0
176
     1
290
     0
176
     1
290
     1
176
     1
290
     1
176
     1
290
     0
176
     1
290
     0
176
     1
290
     0
176
     1
290
     0
176
     1
290
     0
176
     1
290
     0
176
     1
 90
       50
176
     1
 40
0.0
176
     1
 40
1.0
176
     1
 90
        0
176
     1
 62
    18
420
        0
176
     1
 90
       50
176
     1
 90
        3
176
     1
 62
     5
420
      255
176
     1
290
     0
176
     1
 90
       50
176
     1
 90
       50
176
     1
 90
       50
176
     1
290
     0
176
     1
 90
       50
176
     1
 62
   256
176
     0
 40
1.0
176
     0
 90
        2
176
     1
  1
strokes_ogs.tif
176
     1
290
     0
176
     1
 40
1.0
176
     1
 40
1.0
176
     1
  0
VISUALSTYLE
  5
53ED
102
{ACAD_REACTORS
330
53D7
102
}
330
53D7
100
AcDbVisualStyle
  2
X-Ray
 70
    25
177
     3
291
     0
 70
    58
 90
        2
176
     1
 90
        2
176
     1
 90
        1
176
     1
 90
        1
176
     1
 40
0.5
176
     1
 40
30.0
176
     1
 62
     7
420
 16777215
176
     1
 90
        1
176
     1
 90
        0
176
     1
 62
     7
176
     1
 62
   257
176
     1
 90
        1
176
     1
 90
        1
176
     1
 40
1.0
176
     1
 90
        8
176
     1
 62
     7
176
     1
 40
1.0
176
     1
 90
        1
176
     1
 90
        6
176
     1
 90
        2
176
     1
 62
     7
176
     1
 90
        3
176
     1
 90
        0
176
     1
 90
        0
176
     1
290
     0
176
     1
 90
       13
176
     1
 40
0.0
176
     1
 90
        0
176
     1
290
     0
176
     1
290
     1
176
     1
290
     1
176
     1
290
     0
176
     1
290
     0
176
     1
290
     0
176
     1
290
     0
176
     1
290
     0
176
     1
290
     0
176
     1
 90
       50
176
     1
 40
0.0
176
     1
 40
1.0
176
     1
 90
        0
176
     1
 62
    18
420
        0
176
     1
 90
       50
176
     1
 90
        3
176
     1
 62
     5
420
      255
176
     1
290
     0
176
     1
 90
       50
176
     1
 90
       50
176
     1
 90
       50
176
     1
290
     0
176
     1
 90
       50
176
     1
 62
   256
176
     0
 40
1.0
176
     0
 90
        2
176
     1
  1
strokes_ogs.tif
176
     1
290
     0
176
     1
 40
1.0
176
     1
 40
1.0
176
     1
  0
DICTIONARYVAR
  5
5486
102
{ACAD_REACTORS
330
5485
102
}
330
5485
100
DictionaryVariables
280
     0
  1
1:1
  0
DICTIONARYVAR
  5
548B
102
{ACAD_REACTORS
330
5485
102
}
330
5485
100
DictionaryVariables
280
     0
  1
Standard
  0
DICTIONARYVAR
  5
548A
102
{ACAD_REACTORS
330
5485
102
}
330
5485
100
DictionaryVariables
280
     0
  1
Standard
  0
XRECORD
  5
540E
102
{ACAD_REACTORS
330
540C
102
}
330
540C
100
AcDbXrecord
280
     1
1000
#ffffff
  0
XRECORD
  5
540F
102
{ACAD_REACTORS
330
540C
102
}
330
540C
100
AcDbXrecord
280
     1
1000
FullColor
  0
XRECORD
  5
5410
102
{ACAD_REACTORS
330
540C
102
}
330
540C
100
AcDbXrecord
280
     1
290
     1
  0
XRECORD
  5
5411
102
{ACAD_REACTORS
330
540C
102
}
330
540C
100
AcDbXrecord
280
     1
290
     1
  0
XRECORD
  5
5412
102
{ACAD_REACTORS
330
540C
102
}
330
540C
100
AcDbXrecord
280
     1
290
     1
  0
XRECORD
  5
5413
102
{ACAD_REACTORS
330
540C
102
}
330
540C
100
AcDbXrecord
280
     1
290
     1
  0
XRECORD
  5
5414
102
{ACAD_REACTORS
330
540C
102
}
330
540C
100
AcDbXrecord
280
     1
1000
auto
  0
XRECORD
  5
5415
102
{ACAD_REACTORS
330
540C
102
}
330
540C
100
AcDbXrecord
280
     1
1000
auto
  0
XRECORD
  5
5416
102
{ACAD_REACTORS
330
540C
102
}
330
540C
100
AcDbXrecord
280
     1
1000
auto
  0
XRECORD
  5
5417
102
{ACAD_REACTORS
330
540C
102
}
330
540C
100
AcDbXrecord
280
     1
1000
auto
  0
XRECORD
  5
5418
102
{ACAD_REACTORS
330
540C
102
}
330
540C
100
AcDbXrecord
280
     1
1000
auto
  0
XRECORD
  5
5419
102
{ACAD_REACTORS
330
540C
102
}
330
540C
100
AcDbXrecord
280
     1
1000
auto
  0
XRECORD
  5
541A
102
{ACAD_REACTORS
330
540C
102
}
330
540C
100
AcDbXrecord
280
     1
1000
auto
  0
XRECORD
  5
541B
102
{ACAD_REACTORS
330
540C
102
}
330
540C
100
AcDbXrecord
280
     1
1000
auto
  0
XRECORD
  5
541C
102
{ACAD_REACTORS
330
540C
102
}
330
540C
100
AcDbXrecord
280
     1
290
     0
  0
XRECORD
  5
541D
102
{ACAD_REACTORS
330
540C
102
}
330
540C
100
AcDbXrecord
280
     1
290
     0
  0
XRECORD
  5
541E
102
{ACAD_REACTORS
330
540C
102
}
330
540C
100
AcDbXrecord
280
     1
290
     0
  0
XRECORD
  5
541F
102
{ACAD_REACTORS
330
540C
102
}
330
540C
100
AcDbXrecord
280
     1
290
     0
  0
XRECORD
  5
5420
102
{ACAD_REACTORS
330
540C
102
}
330
540C
100
AcDbXrecord
280
     1
 90
    65537
  0
XRECORD
  5
5421
102
{ACAD_REACTORS
330
540C
102
}
330
540C
100
AcDbXrecord
280
     1
 90
    65537
  0
XRECORD
  5
5422
102
{ACAD_REACTORS
330
540C
102
}
330
540C
100
AcDbXrecord
280
     1
 90
    65537
  0
XRECORD
  5
5423
102
{ACAD_REACTORS
330
540C
102
}
330
540C
100
AcDbXrecord
280
     1
 90
    65537
  0
XRECORD
  5
5424
102
{ACAD_REACTORS
330
540C
102
}
330
540C
100
AcDbXrecord
280
     1
1000
auto
  0
XRECORD
  5
5425
102
{ACAD_REACTORS
330
540C
102
}
330
540C
100
AcDbXrecord
280
     1
1000
auto
  0
XRECORD
  5
5426
102
{ACAD_REACTORS
330
540C
102
}
330
540C
100
AcDbXrecord
280
     1
1000
auto
  0
XRECORD
  5
5427
102
{ACAD_REACTORS
330
540C
102
}
330
540C
100
AcDbXrecord
280
     1
1000
auto
  0
XRECORD
  5
5428
102
{ACAD_REACTORS
330
540C
102
}
330
540C
100
AcDbXrecord
280
     1
1000
auto
  0
XRECORD
  5
5429
102
{ACAD_REACTORS
330
540C
102
}
330
540C
100
AcDbXrecord
280
     1
1000
auto
  0
XRECORD
  5
542A
102
{ACAD_REACTORS
330
540C
102
}
330
540C
100
AcDbXrecord
280
     1
1000
auto
  0
XRECORD
  5
542B
102
{ACAD_REACTORS
330
540C
102
}
330
540C
100
AcDbXrecord
280
     1
1000
auto
  0
XRECORD
  5
542C
102
{ACAD_REACTORS
330
540C
102
}
330
540C
100
AcDbXrecord
280
     1
 90
        1
  0
XRECORD
  5
542D
102
{ACAD_REACTORS
330
540C
102
}
330
540C
100
AcDbXrecord
280
     1
 40
10.0
  0
XRECORD
  5
542E
102
{ACAD_REACTORS
330
540C
102
}
330
540C
100
AcDbXrecord
280
     1
 40
10.0
  0
XRECORD
  5
542F
102
{ACAD_REACTORS
330
540C
102
}
330
540C
100
AcDbXrecord
280
     1
 40
10.0
  0
XRECORD
  5
5430
102
{ACAD_REACTORS
330
540C
102
}
330
540C
100
AcDbXrecord
280
     1
 40
10.0
  0
XRECORD
  5
5431
102
{ACAD_REACTORS
330
540C
102
}
330
540C
100
AcDbXrecord
280
     1
290
     0
  0
XRECORD
  5
5432
102
{ACAD_REACTORS
330
540C
102
}
330
540C
100
AcDbXrecord
280
     1
 90
        1
  0
XRECORD
  5
5433
102
{ACAD_REACTORS
330
540C
102
}
330
540C
100
AcDbXrecord
280
     1
 40
0.0
  0
XRECORD
  5
5434
102
{ACAD_REACTORS
330
540C
102
}
330
540C
100
AcDbXrecord
280
     1
 40
0.0
  0
XRECORD
  5
5435
102
{ACAD_REACTORS
330
540C
102
}
330
540C
100
AcDbXrecord
280
     1
1000
Portrait
  0
XRECORD
  5
5436
102
{ACAD_REACTORS
330
540C
102
}
330
540C
100
AcDbXrecord
280
     1
 40
297.0
  0
XRECORD
  5
5437
102
{ACAD_REACTORS
330
540C
102
}
330
540C
100
AcDbXrecord
280
     1
 40
210.0
  0
XRECORD
  5
5438
102
{ACAD_REACTORS
330
540C
102
}
330
540C
100
AcDbXrecord
280
     1
1000
1:1
  0
XRECORD
  5
5439
102
{ACAD_REACTORS
330
540C
102
}
330
540C
100
AcDbXrecord
280
     1
290
     1
  0
XRECORD
  5
543A
102
{ACAD_REACTORS
330
540C
102
}
330
540C
100
AcDbXrecord
280
     1
290
     0
  0
XRECORD
  5
543B
102
{ACAD_REACTORS
330
540C
102
}
330
540C
100
AcDbXrecord
280
     1
1000
Inside
  0
XRECORD
  5
543C
102
{ACAD_REACTORS
330
540C
102
}
330
540C
100
AcDbXrecord
280
     1
1000
Arial,10,-1,5,50,0,0,0,0,0
  0
XRECORD
  5
543D
102
{ACAD_REACTORS
330
540C
102
}
330
540C
100
AcDbXrecord
280
     1
1000
TopLeft
  0
XRECORD
  5
543E
102
{ACAD_REACTORS
330
540C
102
}
330
540C
100
AcDbXrecord
280
     1
1000
3.26.4
  0
XRECORD
  5
543F
102
{ACAD_REACTORS
330
540C
102
}
330
540C
100
AcDbXrecord
280
     1
 90
        4
  0
XRECORD
  5
5440
102
{ACAD_REACTORS
330
540C
102
}
330
540C
100
AcDbXrecord
280
     1
  0
XRECORD
  5
5441
102
{ACAD_REACTORS
330
540C
102
}
330
540C
100
AcDbXrecord
280
     1
 40
205.8982860774776
  0
XRECORD
  5
5442
102
{ACAD_REACTORS
330
540C
102
}
330
540C
100
AcDbXrecord
280
     1
 40
417.0091869923597
  0
DICTIONARY
  5
5487
330
5407
100
AcDbDictionary
280
     1
281
     1
  3
ACAD_ROUNDTRIP_2008_TABLESTYLE_CELLSTYLEMAP
360
5488
  0
CELLSTYLEMAP
  5
5488
102
{ACAD_REACTORS
330
5487
102
}
330
5487
100
AcDbCellStyleMap
 90
        3
300
CELLSTYLE
  1
TABLEFORMAT_BEGIN
 90
        5
170
     1
 91
        0
 92
    32768
 62
   257
 93
        1
300
CONTENTFORMAT
  1
CONTENTFORMAT_BEGIN
 90
        0
 91
        0
 92
        4
 93
        0
300

 40
0.0
140
1.0
 94
        5
 62
     0
340
53BF
144
0.25
309
CONTENTFORMAT_END
171
     1
301
MARGIN
  1
CELLMARGIN_BEGIN
 40
0.06
 40
0.06
 40
0.06
 40
0.06
 40
0.06
 40
0.06
309
CELLMARGIN_END
 94
        6
 95
        1
302
GRIDFORMAT
  1
GRIDFORMAT_BEGIN
 90
        0
 91
        1
 62
     0
 92
       -2
340
53C1
 93
        0
 40
0.045
309
GRIDFORMAT_END
 95
        2
302
GRIDFORMAT
  1
GRIDFORMAT_BEGIN
 90
        0
 91
        1
 62
     0
 92
       -2
340
53C1
 93
        0
 40
0.045
309
GRIDFORMAT_END
 95
        4
302
GRIDFORMAT
  1
GRIDFORMAT_BEGIN
 90
        0
 91
        1
 62
     0
 92
       -2
340
53C1
 93
        0
 40
0.045
309
GRIDFORMAT_END
 95
        8
302
GRIDFORMAT
  1
GRIDFORMAT_BEGIN
 90
        0
 91
        1
 62
     0
 92
       -2
340
53C1
 93
        0
 40
0.045
309
GRIDFORMAT_END
 95
       16
302
GRIDFORMAT
  1
GRIDFORMAT_BEGIN
 90
        0
 91
        1
 62
     0
 92
       -2
340
53C1
 93
        0
 40
0.045
309
GRIDFORMAT_END
 95
       32
302
GRIDFORMAT
  1
GRIDFORMAT_BEGIN
 90
        0
 91
        1
 62
     0
 92
       -2
340
53C1
 93
        0
 40
0.045
309
GRIDFORMAT_END
309
TABLEFORMAT_END
  1
CELLSTYLE_BEGIN
 90
        1
 91
        1
300
_TITLE
309
CELLSTYLE_END
300
CELLSTYLE
  1
TABLEFORMAT_BEGIN
 90
        5
170
     1
 91
        0
 92
        0
 62
   257
 93
        1
300
CONTENTFORMAT
  1
CONTENTFORMAT_BEGIN
 90
        0
 91
        0
 92
        4
 93
        0
300

 40
0.0
140
1.0
 94
        5
 62
     0
340
53BF
144
0.18
309
CONTENTFORMAT_END
171
     1
301
MARGIN
  1
CELLMARGIN_BEGIN
 40
0.06
 40
0.06
 40
0.06
 40
0.06
 40
0.06
 40
0.06
309
CELLMARGIN_END
 94
        6
 95
        1
302
GRIDFORMAT
  1
GRIDFORMAT_BEGIN
 90
        0
 91
        1
 62
     0
 92
       -2
340
53C1
 93
        0
 40
0.045
309
GRIDFORMAT_END
 95
        2
302
GRIDFORMAT
  1
GRIDFORMAT_BEGIN
 90
        0
 91
        1
 62
     0
 92
       -2
340
53C1
 93
        0
 40
0.045
309
GRIDFORMAT_END
 95
        4
302
GRIDFORMAT
  1
GRIDFORMAT_BEGIN
 90
        0
 91
        1
 62
     0
 92
       -2
340
53C1
 93
        0
 40
0.045
309
GRIDFORMAT_END
 95
        8
302
GRIDFORMAT
  1
GRIDFORMAT_BEGIN
 90
        0
 91
        1
 62
     0
 92
       -2
340
53C1
 93
        0
 40
0.045
309
GRIDFORMAT_END
 95
       16
302
GRIDFORMAT
  1
GRIDFORMAT_BEGIN
 90
        0
 91
        1
 62
     0
 92
       -2
340
53C1
 93
        0
 40
0.045
309
GRIDFORMAT_END
 95
       32
302
GRIDFORMAT
  1
GRIDFORMAT_BEGIN
 90
        0
 91
        1
 62
     0
 92
       -2
340
53C1
 93
        0
 40
0.045
309
GRIDFORMAT_END
309
TABLEFORMAT_END
  1
CELLSTYLE_BEGIN
 90
        2
 91
        1
300
_HEADER
309
CELLSTYLE_END
300
CELLSTYLE
  1
TABLEFORMAT_BEGIN
 90
        5
170
     1
 91
        0
 92
        0
 62
   257
 93
        1
300
CONTENTFORMAT
  1
CONTENTFORMAT_BEGIN
 90
        0
 91
        0
 92
        4
 93
        0
300

 40
0.0
140
1.0
 94
        2
 62
     0
340
53BF
144
0.18
309
CONTENTFORMAT_END
171
     1
301
MARGIN
  1
CELLMARGIN_BEGIN
 40
0.06
 40
0.06
 40
0.06
 40
0.06
 40
0.06
 40
0.06
309
CELLMARGIN_END
 94
        6
 95
        1
302
GRIDFORMAT
  1
GRIDFORMAT_BEGIN
 90
        0
 91
        1
 62
     0
 92
       -2
340
53C1
 93
        0
 40
0.045
309
GRIDFORMAT_END
 95
        2
302
GRIDFORMAT
  1
GRIDFORMAT_BEGIN
 90
        0
 91
        1
 62
     0
 92
       -2
340
53C1
 93
        0
 40
0.045
309
GRIDFORMAT_END
 95
        4
302
GRIDFORMAT
  1
GRIDFORMAT_BEGIN
 90
        0
 91
        1
 62
     0
 92
       -2
340
53C1
 93
        0
 40
0.045
309
GRIDFORMAT_END
 95
        8
302
GRIDFORMAT
  1
GRIDFORMAT_BEGIN
 90
        0
 91
        1
 62
     0
 92
       -2
340
53C1
 93
        0
 40
0.045
309
GRIDFORMAT_END
 95
       16
302
GRIDFORMAT
  1
GRIDFORMAT_BEGIN
 90
        0
 91
        1
 62
     0
 92
       -2
340
53C1
 93
        0
 40
0.045
309
GRIDFORMAT_END
 95
       32
302
GRIDFORMAT
  1
GRIDFORMAT_BEGIN
 90
        0
 91
        1
 62
     0
 92
       -2
340
53C1
 93
        0
 40
0.045
309
GRIDFORMAT_END
309
TABLEFORMAT_END
  1
CELLSTYLE_BEGIN
 90
        3
 91
        2
300
_DATA
309
CELLSTYLE_END
  0
ENDSEC
  0
EOF
