M48
; DRILL file {KiCad 7.0.7} date 2024 April 21, Sunday 22:29:11
; FORMAT={-:-/ absolute / metric / decimal}
; #@! TF.CreationDate,2024-04-21T22:29:11+02:00
; #@! TF.GenerationSoftware,Kicad,Pcbnew,7.0.7
; #@! TF.FileFunction,Plated,1,2,PTH
FMAT,2
METRIC
; #@! TA.AperFunction,Plated,PTH,ComponentDrill
T1C0.200
; #@! TA.AperFunction,Plated,PTH,ViaDrill
T2C0.300
; #@! TA.AperFunction,Plated,PTH,ComponentDrill
T3C0.600
; #@! TA.AperFunction,Plated,PTH,ComponentDrill
T4C0.762
; #@! TA.AperFunction,Plated,PTH,ComponentDrill
T5C0.900
; #@! TA.AperFunction,Plated,PTH,ComponentDrill
T6C0.950
; #@! TA.AperFunction,Plated,PTH,ComponentDrill
T7C1.000
; #@! TA.AperFunction,Plated,PTH,ComponentDrill
T8C1.016
; #@! TA.AperFunction,Plated,PTH,ComponentDrill
T9C1.400
; #@! TA.AperFunction,Plated,PTH,ComponentDrill
T10C2.200
; #@! TA.AperFunction,Plated,PTH,ComponentDrill
T11C2.500
%
G90
G05
T1
X95.8Y-174.143
X96.287Y-174.987
X96.644Y-173.656
X96.775Y-175.832
X97.132Y-174.5
X97.489Y-173.168
X97.619Y-175.344
X97.976Y-174.012
X98.464Y-174.857
X102.7Y-170.285
X103.187Y-171.129
X103.544Y-169.797
X103.675Y-171.973
X104.032Y-170.641
X104.389Y-169.31
X104.519Y-171.486
X104.876Y-170.154
X105.364Y-170.998
T2
X73.032Y-188.0
X75.952Y-185.732
X76.952Y-187.464
X79.782Y-174.35
X80.112Y-175.712
X80.202Y-181.268
X80.8Y-190.9
X81.202Y-183.0
X81.632Y-178.6
X81.832Y-174.7
X82.932Y-196.6
X83.582Y-194.8
X83.732Y-206.9
X83.932Y-181.1
X84.4Y-170.9
X84.532Y-178.7
X85.232Y-185.9
X85.3Y-171.9
X85.332Y-192.3
X86.186Y-208.946
X86.232Y-176.2
X86.732Y-171.9
X86.932Y-180.8
X87.032Y-179.3
X87.932Y-176.4
X88.332Y-200.0
X88.723Y-190.2
X88.932Y-193.5
X89.448Y-176.6
X89.478Y-181.7
X90.032Y-189.3
X90.832Y-187.5
X90.932Y-186.1
X92.731Y-186.601
X93.032Y-177.8
X93.399Y-169.199
X93.9Y-175.1
X93.932Y-213.5
X94.7Y-169.6
X95.432Y-141.5
X95.457Y-115.675
X95.457Y-128.375
X95.457Y-153.775
X95.932Y-178.7
X95.993Y-171.507
X96.132Y-177.4
X96.332Y-187.6
X96.632Y-102.9
X96.632Y-104.0
X96.632Y-112.7
X96.632Y-125.4
X96.632Y-138.1
X96.632Y-150.8
X96.632Y-165.8
X96.732Y-184.1
X97.132Y-178.2
X97.289Y-213.3
X97.6Y-166.9
X97.732Y-160.7
X97.832Y-104.0
X97.832Y-164.7
X97.987Y-177.568
X98.832Y-177.6
X99.032Y-105.6
X99.032Y-106.5
X99.032Y-163.5
X99.382Y-188.45
X99.632Y-184.833
X99.932Y-107.6
X100.132Y-171.8
X100.332Y-162.2
X100.432Y-171.0
X100.632Y-106.5
X100.832Y-169.9
X100.932Y-172.8
X100.932Y-184.0
X101.032Y-178.2
X101.132Y-158.6
X101.332Y-168.8
X101.332Y-177.4
X101.632Y-174.0
X102.132Y-165.8
X102.4Y-184.0
X102.832Y-167.4
X102.932Y-174.7
X103.032Y-159.4
X103.032Y-161.2
X103.132Y-151.7
X103.432Y-156.8
X103.532Y-175.4
X103.532Y-202.2
X103.8Y-104.892
X104.132Y-176.0
X104.132Y-213.2
X104.832Y-176.6
X104.932Y-144.3
X105.3Y-167.3
X105.4Y-157.9
X105.632Y-211.3
X105.754Y-109.4
X105.754Y-114.48
X105.754Y-119.56
X105.754Y-124.64
X105.754Y-129.72
X105.754Y-134.8
X105.754Y-139.88
X105.754Y-144.96
X105.754Y-150.04
X106.08Y-173.179
X106.1Y-163.5
X106.632Y-172.5
X106.932Y-165.8
X107.532Y-210.9
X107.632Y-172.5
X107.632Y-178.5
X107.7Y-159.1
X107.7Y-163.5
X107.9Y-171.1
X107.964Y-107.26
X107.964Y-109.8
X107.964Y-112.34
X107.964Y-114.88
X107.964Y-117.42
X107.964Y-119.96
X107.964Y-122.5
X107.964Y-125.04
X107.964Y-127.58
X107.964Y-130.12
X107.964Y-132.66
X107.964Y-135.2
X107.964Y-137.74
X107.964Y-140.28
X107.964Y-142.82
X107.964Y-145.36
X107.964Y-147.9
X107.964Y-150.44
X107.964Y-152.98
X107.964Y-155.52
X109.532Y-164.7
X109.532Y-166.8
X109.582Y-174.45
X109.964Y-107.26
X109.964Y-109.8
X109.964Y-112.34
X109.964Y-114.88
X109.964Y-117.42
X109.964Y-119.96
X109.964Y-122.5
X109.964Y-125.04
X109.964Y-127.58
X109.964Y-130.12
X109.964Y-132.66
X109.964Y-135.2
X109.964Y-137.74
X109.964Y-140.28
X109.964Y-142.82
X109.964Y-145.36
X109.964Y-147.9
X109.964Y-150.44
X109.964Y-152.98
X109.964Y-155.52
X111.232Y-209.0
X111.332Y-207.025
X111.532Y-187.5
X111.7Y-163.5
X111.732Y-164.7
X111.732Y-168.7
X111.964Y-107.26
X111.964Y-109.8
X111.964Y-112.34
X111.964Y-114.88
X111.964Y-117.42
X111.964Y-119.96
X111.964Y-122.5
X111.964Y-125.04
X111.964Y-127.58
X111.964Y-130.12
X111.964Y-132.66
X111.964Y-135.2
X111.964Y-137.74
X111.964Y-140.28
X111.964Y-142.82
X111.964Y-145.36
X111.964Y-147.9
X111.964Y-150.44
X111.964Y-152.98
X111.964Y-155.52
X112.432Y-173.4
X113.964Y-106.9
X113.964Y-111.98
X113.964Y-117.06
X113.964Y-122.14
X113.964Y-127.22
X113.964Y-132.3
X113.964Y-137.38
X113.964Y-142.46
X113.964Y-147.54
X113.964Y-152.62
X114.09Y-163.5
X114.133Y-155.001
X114.232Y-187.5
X114.3Y-189.1
X114.632Y-205.9
X115.205Y-197.027
X115.232Y-141.2
X115.232Y-144.1
X115.432Y-151.6
X115.532Y-149.1
X115.632Y-124.1
X115.632Y-154.1
X115.832Y-188.2
X116.034Y-202.9
X116.107Y-97.649
X116.532Y-200.4
X117.732Y-200.3
X118.107Y-97.649
X118.107Y-99.95
X119.132Y-98.4
X119.132Y-99.1
X119.332Y-196.2
X120.005Y-129.836
X120.377Y-197.0
X120.7Y-144.1
X120.7Y-146.6
X120.782Y-134.566
X120.8Y-151.68
X120.8Y-170.7
X120.832Y-139.1
X120.832Y-141.6
X120.882Y-112.85
X120.882Y-114.6
X120.882Y-116.35
X120.882Y-118.1
X120.882Y-119.85
X120.882Y-121.6
X120.882Y-123.3
X120.882Y-125.0
X120.882Y-130.266
X120.882Y-136.5
X120.907Y-154.2
X121.4Y-158.5
X121.713Y-148.287
X121.9Y-173.5
X121.932Y-130.066
X122.069Y-129.216
X122.082Y-172.1
X122.6Y-154.8
X122.632Y-131.066
X122.7Y-145.5
X123.232Y-151.3
X123.432Y-199.992
X123.544Y-132.066
X123.632Y-127.4
X123.8Y-145.2
X124.182Y-129.203
X124.332Y-98.8
X124.332Y-139.1
X124.332Y-141.6
X124.382Y-112.85
X124.382Y-114.6
X124.382Y-116.35
X124.382Y-118.1
X124.382Y-119.85
X124.382Y-121.6
X124.382Y-123.3
X124.382Y-125.0
X124.382Y-136.5
X124.732Y-182.117
X124.932Y-109.6
X125.132Y-98.8
X125.132Y-128.2
X125.166Y-119.693
X125.166Y-125.4
X125.615Y-108.762
X125.732Y-118.4
X125.832Y-179.05
X126.3Y-106.9
X126.332Y-132.8
X126.332Y-172.19
X126.332Y-175.3
X126.332Y-176.3
X126.332Y-177.3
X126.332Y-178.1
X126.332Y-180.8
X126.407Y-131.066
X127.232Y-116.116
X127.232Y-126.2
X127.232Y-135.062
X127.232Y-154.117
X127.232Y-180.2
X127.259Y-173.19
X128.332Y-106.9
X128.332Y-117.516
X128.332Y-136.517
X128.332Y-155.516
X128.332Y-174.617
X129.77Y-159.463
X129.882Y-121.316
X129.882Y-140.367
X130.082Y-178.9
X130.232Y-117.516
X130.232Y-155.539
X130.269Y-112.516
X130.269Y-150.7
X130.42Y-145.063
X130.432Y-201.241
X130.532Y-106.916
X130.532Y-125.967
X130.532Y-164.067
X132.032Y-116.116
X132.032Y-154.139
X132.541Y-186.259
X133.032Y-178.9
X133.332Y-111.516
X133.332Y-130.567
X133.332Y-149.617
X133.357Y-168.667
X133.632Y-171.565
X134.107Y-131.342
X134.132Y-112.316
X134.132Y-150.417
X134.157Y-169.467
X134.7Y-183.2
X135.532Y-148.516
X135.632Y-133.216
X135.632Y-136.489
X135.657Y-171.317
X135.657Y-174.59
X137.532Y-200.3
X137.6Y-180.3
X137.732Y-201.05
X138.332Y-194.8
X138.532Y-186.516
X139.232Y-202.0
X140.032Y-201.783
X140.882Y-173.19
X140.932Y-155.516
X141.007Y-135.117
X141.132Y-117.516
X141.732Y-196.2
X142.507Y-150.392
X142.532Y-112.316
X142.532Y-131.367
X142.532Y-169.467
X143.032Y-200.9
X143.282Y-149.617
X143.3Y-170.9
X143.307Y-130.592
X143.332Y-111.516
X143.332Y-168.667
X143.4Y-132.8
X144.032Y-194.416
X144.032Y-199.3
X144.332Y-174.617
X144.638Y-136.517
X144.932Y-195.0
X146.713Y-134.089
X146.713Y-153.139
X146.713Y-172.19
X146.732Y-115.116
X148.332Y-179.416
X148.82Y-140.413
X148.932Y-121.316
X148.932Y-159.417
X149.338Y-150.816
X149.375Y-155.516
X149.47Y-126.013
X149.532Y-112.716
X149.532Y-117.516
X149.582Y-106.916
X149.582Y-145.017
X149.582Y-164.067
X151.132Y-154.117
X151.332Y-116.116
X152.107Y-151.592
X152.132Y-113.516
X152.132Y-132.567
X152.132Y-170.667
X152.382Y-111.516
X152.382Y-130.567
X152.382Y-149.617
X152.407Y-168.692
X153.157Y-150.392
X153.182Y-112.316
X153.182Y-131.367
X153.182Y-169.467
X153.232Y-192.8
X153.332Y-198.1
X154.432Y-192.816
X154.682Y-133.216
X154.682Y-136.489
X154.682Y-171.317
X154.682Y-174.59
X157.332Y-194.555
X159.932Y-155.516
X159.932Y-173.19
X160.057Y-135.117
X160.132Y-117.516
X161.557Y-150.392
X161.582Y-112.316
X161.582Y-131.367
X161.582Y-169.467
X162.357Y-130.592
X162.357Y-149.642
X162.382Y-111.516
X162.382Y-168.667
X162.4Y-132.8
X162.5Y-170.9
X163.532Y-174.59
X163.613Y-136.427
X164.5Y-197.8
X164.581Y-178.799
X164.851Y-181.216
X165.432Y-196.7
X165.438Y-191.7
X165.713Y-134.089
X165.713Y-153.139
X165.713Y-172.19
X165.732Y-115.116
X167.232Y-195.15
X167.982Y-140.367
X167.982Y-159.417
X168.094Y-121.27
X168.226Y-192.549
X168.332Y-117.516
X168.369Y-112.566
X168.388Y-150.816
X168.432Y-155.539
X168.501Y-190.574
X168.632Y-125.967
X168.632Y-145.017
X168.632Y-164.067
X168.744Y-106.87
X169.276Y-191.349
X170.132Y-116.116
X170.132Y-154.117
X171.157Y-151.592
X171.182Y-113.516
X171.182Y-132.567
X171.182Y-170.667
X171.432Y-111.516
X171.432Y-130.567
X171.432Y-149.617
X171.457Y-168.692
X172.207Y-150.392
X172.232Y-112.316
X172.232Y-131.367
X172.232Y-169.467
X173.732Y-133.216
X173.732Y-136.489
X173.757Y-171.342
X173.757Y-174.615
X176.132Y-196.7
X177.701Y-191.374
X178.476Y-190.599
X178.982Y-173.19
X179.032Y-155.516
X179.132Y-117.516
X179.132Y-135.091
X180.632Y-112.316
X180.632Y-131.367
X180.632Y-150.417
X180.632Y-169.467
X181.407Y-149.642
X181.432Y-111.516
X181.432Y-130.567
X181.432Y-168.667
X181.5Y-170.9
X181.6Y-132.8
X181.932Y-194.012
X182.582Y-174.59
X182.632Y-136.346
X184.813Y-134.089
X184.813Y-153.139
X184.813Y-172.19
X184.832Y-115.116
X185.1Y-179.8
X186.432Y-178.916
X187.032Y-140.367
X187.032Y-159.417
X187.144Y-121.27
X187.313Y-155.539
X187.332Y-112.628
X187.332Y-117.516
X187.332Y-150.816
X187.682Y-125.967
X187.682Y-145.017
X187.682Y-164.067
X187.794Y-106.87
X188.732Y-181.216
X189.113Y-154.139
X189.132Y-116.116
X189.319Y-191.57
X189.332Y-196.68
X190.232Y-113.516
X190.232Y-132.567
X190.232Y-151.617
X190.232Y-170.667
X190.482Y-111.516
X190.482Y-130.567
X190.482Y-149.617
X190.507Y-168.692
X190.963Y-195.097
X191.282Y-112.316
X191.282Y-131.367
X191.282Y-150.417
X191.282Y-169.467
X192.107Y-192.549
X192.382Y-190.574
X192.782Y-133.216
X192.782Y-136.489
X192.782Y-171.317
X192.782Y-174.59
X193.157Y-191.349
X198.032Y-173.19
X198.132Y-117.516
X198.157Y-135.117
X198.157Y-155.592
X199.657Y-150.392
X199.682Y-112.316
X199.682Y-131.367
X199.682Y-169.467
X200.132Y-196.7
X200.457Y-130.592
X200.457Y-149.642
X200.482Y-111.516
X200.482Y-168.667
X200.55Y-170.9
X200.6Y-132.8
X201.582Y-191.374
X201.632Y-174.59
X201.732Y-136.489
X202.357Y-190.599
X203.844Y-134.012
X203.844Y-153.062
X203.844Y-172.112
X203.863Y-115.039
X205.594Y-178.878
X205.832Y-194.1
X206.194Y-121.27
X206.194Y-140.32
X206.194Y-159.37
X206.3Y-172.19
X206.488Y-150.816
X206.513Y-155.539
X206.532Y-112.628
X206.532Y-117.516
X206.844Y-106.87
X206.844Y-125.92
X206.844Y-144.97
X206.844Y-164.021
X207.1Y-192.1
X207.332Y-134.962
X207.9Y-192.8
X208.113Y-154.139
X208.132Y-116.116
X208.832Y-136.5
X209.257Y-151.592
X209.282Y-113.516
X209.282Y-132.567
X209.282Y-170.667
X209.532Y-111.516
X209.532Y-149.617
X209.557Y-168.692
X209.682Y-130.567
X210.307Y-150.392
X210.332Y-112.316
X210.332Y-131.367
X210.332Y-169.467
X211.832Y-133.216
X211.832Y-136.489
X211.832Y-171.317
X211.832Y-174.59
X213.0Y-180.3
X214.3Y-178.9
X214.3Y-189.8
X214.3Y-195.8
X214.3Y-188.3
X216.932Y-186.3
X217.082Y-173.19
X217.113Y-155.539
X217.132Y-117.516
X217.232Y-135.089
X217.832Y-114.316
X217.832Y-152.417
X218.582Y-131.367
X218.582Y-169.467
X218.707Y-150.442
X218.732Y-112.316
X219.507Y-149.642
X219.532Y-111.516
X219.832Y-171.517
X219.832Y-174.59
X219.857Y-136.489
X219.869Y-133.416
X220.732Y-130.616
X220.732Y-135.089
X220.732Y-168.716
X220.732Y-173.19
X220.732Y-186.3
X220.9Y-97.1
X220.932Y-182.4
X221.1Y-194.3
X221.132Y-153.139
X221.132Y-176.8
X221.132Y-184.1
X221.15Y-115.116
X221.2Y-116.116
X221.2Y-117.516
X221.2Y-188.3
X221.2Y-191.3
X221.2Y-192.8
X221.332Y-178.3
X221.371Y-179.816
X221.432Y-181.3
X221.442Y-136.489
X222.082Y-133.7
X222.082Y-172.19
X223.2Y-100.3
T4
X75.73Y-180.3
X77.0Y-182.5
X78.27Y-184.7
X79.54Y-186.899
T5
X86.583Y-203.704
X86.583Y-203.704
X89.758Y-209.203
X89.758Y-209.203
X90.982Y-201.164
X90.982Y-201.164
X91.889Y-192.575
X94.089Y-191.305
X94.157Y-206.663
X94.157Y-206.663
X96.289Y-190.035
X102.049Y-210.172
X104.249Y-208.902
X106.449Y-207.632
X106.698Y-192.824
X106.698Y-192.824
X107.968Y-195.024
X107.968Y-195.024
X109.238Y-197.223
X109.238Y-197.223
T6
X102.122Y-107.26
X117.362Y-107.26
X117.362Y-152.98
X117.362Y-155.52
T7
X93.254Y-194.858
X95.419Y-193.608
X97.584Y-192.358
X100.504Y-207.416
X104.834Y-204.916
T8
X102.122Y-109.8
X102.122Y-112.34
X102.122Y-114.88
X102.122Y-117.42
X102.122Y-119.96
X102.122Y-122.5
X102.122Y-125.04
X102.122Y-127.58
X102.122Y-130.12
X102.122Y-132.66
X102.122Y-135.2
X102.122Y-137.74
X102.122Y-140.28
X102.122Y-142.82
X102.122Y-145.36
X102.122Y-147.9
X102.122Y-150.44
X102.122Y-152.98
X102.122Y-155.52
X117.362Y-109.8
X117.362Y-112.34
X117.362Y-114.88
X117.362Y-117.42
X117.362Y-119.96
X117.362Y-122.5
X117.362Y-125.04
X117.362Y-127.58
X117.362Y-130.12
X117.362Y-132.66
X117.362Y-135.2
X117.362Y-137.74
X117.362Y-140.28
X117.362Y-142.82
X117.362Y-145.36
X117.362Y-147.9
X117.362Y-150.44
T9
X89.585Y-196.838
X89.585Y-196.838
X97.205Y-210.036
X97.205Y-210.036
X101.133Y-190.171
X101.133Y-190.171
X108.753Y-203.369
X108.753Y-203.369
T10
X94.319Y-202.904
X104.019Y-197.304
T11
X74.309Y-196.899
X90.309Y-163.899
X91.309Y-104.899
X98.309Y-220.899
X221.531Y-92.399
X221.531Y-199.399
T3
G00X102.532Y-96.5
M15
G01X103.132Y-96.5
M16
G05
G00X102.532Y-101.1
M15
G01X103.132Y-101.1
M16
G05
G00X105.532Y-96.5
M15
G01X106.132Y-96.5
M16
G05
G00X105.532Y-101.1
M15
G01X106.132Y-101.1
M16
G05
G00X109.532Y-96.5
M15
G01X110.132Y-96.5
M16
G05
G00X109.532Y-101.1
M15
G01X110.132Y-101.1
M16
G05
G00X111.032Y-96.6
M15
G01X111.632Y-96.6
M16
G05
G00X111.032Y-101.0
M15
G01X111.632Y-101.0
M16
G05
T0
M30
