M48
; DRILL file {KiCad 7.0.7} date 2024 April 21, Sunday 22:29:11
; FORMAT={-:-/ absolute / metric / decimal}
; #@! TF.CreationDate,2024-04-21T22:29:11+02:00
; #@! TF.GenerationSoftware,Kicad,Pcbnew,7.0.7
; #@! TF.FileFunction,NonPlated,1,2,NPTH
FMAT,2
METRIC
; #@! TA.AperFunction,NonPlated,NPTH,ComponentDrill
T1C1.200
; #@! TA.AperFunction,NonPlated,NPTH,ComponentDrill
T2C1.702
; #@! TA.AperFunction,NonPlated,NPTH,ComponentDrill
T3C3.000
; #@! TA.AperFunction,NonPlated,NPTH,ComponentDrill
T4C3.048
; #@! TA.AperFunction,NonPlated,NPTH,ComponentDrill
T5C3.988
%
G90
G05
T1
X104.132Y-98.8
X104.132Y-98.8
X111.132Y-98.8
X111.132Y-98.8
T2
X118.629Y-185.688
X118.629Y-185.688
X123.709Y-194.487
X123.709Y-194.487
X133.252Y-107.3
X133.252Y-107.3
X133.252Y-126.35
X133.252Y-126.35
X133.252Y-145.4
X133.252Y-145.4
X133.252Y-164.45
X133.252Y-164.45
X142.924Y-190.455
X142.924Y-190.455
X143.412Y-107.3
X143.412Y-107.3
X143.412Y-126.35
X143.412Y-126.35
X143.412Y-145.4
X143.412Y-145.4
X143.412Y-164.45
X143.412Y-164.45
X152.302Y-107.3
X152.302Y-107.3
X152.302Y-126.35
X152.302Y-126.35
X152.302Y-145.4
X152.302Y-145.4
X152.302Y-164.45
X152.302Y-164.45
X152.738Y-187.826
X152.738Y-187.826
X162.462Y-107.3
X162.462Y-107.3
X162.462Y-126.35
X162.462Y-126.35
X162.462Y-145.4
X162.462Y-145.4
X162.462Y-164.45
X162.462Y-164.45
X168.421Y-186.358
X168.421Y-186.358
X171.352Y-107.3
X171.352Y-107.3
X171.352Y-126.35
X171.352Y-126.35
X171.352Y-145.4
X171.352Y-145.4
X171.352Y-164.45
X171.352Y-164.45
X178.581Y-186.358
X178.581Y-186.358
X181.512Y-107.3
X181.512Y-107.3
X181.512Y-126.35
X181.512Y-126.35
X181.512Y-145.4
X181.512Y-145.4
X181.512Y-164.45
X181.512Y-164.45
X190.402Y-107.3
X190.402Y-107.3
X190.402Y-126.35
X190.402Y-126.35
X190.402Y-145.4
X190.402Y-145.4
X190.402Y-164.45
X190.402Y-164.45
X192.302Y-186.358
X192.302Y-186.358
X200.562Y-107.3
X200.562Y-107.3
X200.562Y-126.35
X200.562Y-126.35
X200.562Y-145.4
X200.562Y-145.4
X200.562Y-164.45
X200.562Y-164.45
X202.462Y-186.358
X202.462Y-186.358
X209.452Y-107.3
X209.452Y-107.3
X209.452Y-126.35
X209.452Y-126.35
X209.452Y-145.4
X209.452Y-145.4
X209.452Y-164.45
X209.452Y-164.45
X219.612Y-107.3
X219.612Y-107.3
X219.612Y-126.35
X219.612Y-126.35
X219.612Y-145.4
X219.612Y-145.4
X219.612Y-164.45
X219.612Y-164.45
T3
X121.464Y-185.518
X124.298Y-185.347
X125.274Y-192.117
X126.838Y-189.747
X134.522Y-104.76
X134.522Y-123.81
X134.522Y-142.86
X134.522Y-161.91
X135.792Y-102.22
X135.792Y-121.27
X135.792Y-140.32
X135.792Y-159.37
X140.872Y-102.22
X140.872Y-121.27
X140.872Y-140.32
X140.872Y-159.37
X142.142Y-104.76
X142.142Y-123.81
X142.142Y-142.86
X142.142Y-161.91
X143.494Y-187.673
X144.063Y-184.891
X148.97Y-183.576
X150.854Y-185.701
X153.572Y-104.76
X153.572Y-123.81
X153.572Y-142.86
X153.572Y-161.91
X154.842Y-102.22
X154.842Y-121.27
X154.842Y-140.32
X154.842Y-159.37
X159.922Y-102.22
X159.922Y-121.27
X159.922Y-140.32
X159.922Y-159.37
X161.192Y-104.76
X161.192Y-123.81
X161.192Y-142.86
X161.192Y-161.91
X169.691Y-183.818
X170.961Y-181.278
X172.622Y-104.76
X172.622Y-123.81
X172.622Y-142.86
X172.622Y-161.91
X173.892Y-102.22
X173.892Y-121.27
X173.892Y-140.32
X173.892Y-159.37
X176.041Y-181.278
X177.311Y-183.818
X178.972Y-102.22
X178.972Y-121.27
X178.972Y-140.32
X178.972Y-159.37
X180.242Y-104.76
X180.242Y-123.81
X180.242Y-142.86
X180.242Y-161.91
X191.672Y-104.76
X191.672Y-123.81
X191.672Y-142.86
X191.672Y-161.91
X192.942Y-102.22
X192.942Y-121.27
X192.942Y-140.32
X192.942Y-159.37
X193.572Y-183.818
X194.842Y-181.278
X198.022Y-102.22
X198.022Y-121.27
X198.022Y-140.32
X198.022Y-159.37
X199.292Y-104.76
X199.292Y-123.81
X199.292Y-142.86
X199.292Y-161.91
X199.922Y-181.278
X201.192Y-183.818
X210.722Y-104.76
X210.722Y-123.81
X210.722Y-142.86
X210.722Y-161.91
X211.992Y-102.22
X211.992Y-121.27
X211.992Y-140.32
X211.992Y-159.37
X217.072Y-102.22
X217.072Y-121.27
X217.072Y-140.32
X217.072Y-159.37
X218.342Y-104.76
X218.342Y-123.81
X218.342Y-142.86
X218.342Y-161.91
T4
X121.268Y-176.289
X133.168Y-196.9
T5
X108.07Y-183.909
X119.97Y-204.52
X121.169Y-190.087
X121.169Y-190.087
X138.332Y-107.3
X138.332Y-107.3
X138.332Y-126.35
X138.332Y-126.35
X138.332Y-145.4
X138.332Y-145.4
X138.332Y-164.45
X138.332Y-164.45
X147.831Y-189.14
X147.831Y-189.14
X157.382Y-107.3
X157.382Y-107.3
X157.382Y-126.35
X157.382Y-126.35
X157.382Y-145.4
X157.382Y-145.4
X157.382Y-164.45
X157.382Y-164.45
X173.501Y-186.358
X173.501Y-186.358
X176.432Y-107.3
X176.432Y-107.3
X176.432Y-126.35
X176.432Y-126.35
X176.432Y-145.4
X176.432Y-145.4
X176.432Y-164.45
X176.432Y-164.45
X195.482Y-107.3
X195.482Y-107.3
X195.482Y-126.35
X195.482Y-126.35
X195.482Y-145.4
X195.482Y-145.4
X195.482Y-164.45
X195.482Y-164.45
X197.382Y-186.358
X197.382Y-186.358
X214.532Y-107.3
X214.532Y-107.3
X214.532Y-126.35
X214.532Y-126.35
X214.532Y-145.4
X214.532Y-145.4
X214.532Y-164.45
X214.532Y-164.45
T0
M30
