%TF.GenerationSoftware,KiCad,Pcbnew,7.0.7*%
%TF.CreationDate,2024-04-21T22:29:29+02:00*%
%TF.ProjectId,isokey,69736f6b-6579-42e6-9b69-6361645f7063,A*%
%TF.SameCoordinates,Original*%
%TF.FileFunction,Profile,NP*%
%FSLAX46Y46*%
G04 Gerber Fmt 4.6, Leading zero omitted, Abs format (unit mm)*
G04 Created by KiCad (PCBNEW 7.0.7) date 2024-04-21 22:29:29*
%MOMM*%
%LPD*%
G01*
G04 APERTURE LIST*
%TA.AperFunction,Profile*%
%ADD10C,0.250000*%
%TD*%
%TA.AperFunction,Profile*%
%ADD11C,0.150000*%
%TD*%
G04 APERTURE END LIST*
D10*
X200960838Y-95620044D02*
G75*
G03*
X213837509Y-92456508I2964062J15723244D01*
G01*
X73598785Y-173309039D02*
G75*
G03*
X67742419Y-195165419I8000035J-13856381D01*
G01*
X90684746Y-109095343D02*
G75*
G03*
X90185970Y-107680727I-873246J487343D01*
G01*
X90309133Y-123898912D02*
G75*
G03*
X91309144Y-135445188I20973067J-3999988D01*
G01*
X91309144Y-135445188D02*
X91309144Y-156670498D01*
X90309142Y-123898914D02*
G75*
G03*
X90368732Y-111175514I-29499982J6500004D01*
G01*
X91309144Y-101898908D02*
G75*
G03*
X90185970Y-107680726I-4J-3000002D01*
G01*
X128924305Y-94997555D02*
G75*
G03*
X130021463Y-94322471I-443605J1950055D01*
G01*
X221128419Y-201850492D02*
G75*
G03*
X224030903Y-199383105I402481J2467392D01*
G01*
X123132608Y-93861875D02*
G75*
G03*
X121985243Y-93500000I-1147408J-1638125D01*
G01*
X198309144Y-94898914D02*
G75*
G03*
X200960830Y-95620084I5868256J16341514D01*
G01*
X80309177Y-169434751D02*
G75*
G03*
X85642559Y-164422591I-7999877J13856251D01*
G01*
X90684764Y-109095353D02*
G75*
G03*
X90368734Y-111175514I2619436J-1462047D01*
G01*
X94309144Y-101898914D02*
X91309144Y-101898914D01*
X97309144Y-96500000D02*
X97309144Y-98898914D01*
X94309144Y-101898944D02*
G75*
G03*
X97309144Y-98898914I-44J3000044D01*
G01*
X224030886Y-92398914D02*
G75*
G03*
X221530903Y-89898914I-2499886J114D01*
G01*
X174847936Y-95363695D02*
G75*
G03*
X175691562Y-95177044I-36J1999995D01*
G01*
X82187675Y-220185347D02*
G75*
G03*
X104616545Y-225695086I13856405J7999977D01*
G01*
X221128419Y-201850490D02*
G75*
G03*
X104616545Y-225695087I-26920819J-165035110D01*
G01*
X136866140Y-92859791D02*
G75*
G03*
X130021464Y-94322472I-2497340J-5059909D01*
G01*
X89109134Y-159561827D02*
G75*
G03*
X91309144Y-156670498I-799934J2891327D01*
G01*
X100309144Y-93499944D02*
G75*
G03*
X97309144Y-96500000I56J-3000056D01*
G01*
X224030903Y-199383105D02*
X224030903Y-92398914D01*
X220857643Y-201806542D02*
G75*
G03*
X224030891Y-199391009I673257J2407642D01*
G01*
X85642563Y-164422594D02*
G75*
G03*
X85809207Y-163875117I-833463J552794D01*
G01*
X198309143Y-94898917D02*
G75*
G03*
X175691562Y-95177044I-11000003J-25250003D01*
G01*
X67742418Y-195165419D02*
X82187669Y-220185351D01*
X174847936Y-95363678D02*
X146624690Y-95363678D01*
X136866135Y-92859801D02*
G75*
G03*
X146624690Y-95363678I9758465J17764101D01*
G01*
X224030886Y-92398914D02*
G75*
G03*
X221530903Y-89898914I-2499886J114D01*
G01*
X123132601Y-93861885D02*
G75*
G03*
X128924313Y-94997592I4176499J5962985D01*
G01*
X89109149Y-159561883D02*
G75*
G03*
X85809208Y-163875117I1199951J-4337017D01*
G01*
X80309185Y-169434765D02*
X73598787Y-173309042D01*
X121985243Y-93500000D02*
X100309144Y-93500000D01*
X221530903Y-89898898D02*
G75*
G03*
X213837509Y-92456508I-312803J-11908902D01*
G01*
D11*
%TO.C,D33*%
X159081653Y-114016500D02*
X155681653Y-114016500D01*
X155681653Y-114016500D02*
X155681653Y-110616500D01*
X155681653Y-110616500D02*
X159081653Y-110616500D01*
X159081653Y-110616500D02*
X159081653Y-114016500D01*
%TO.C,D71*%
X151211585Y-195187951D02*
X147927437Y-196067935D01*
X147927437Y-196067935D02*
X147047453Y-192783787D01*
X147047453Y-192783787D02*
X150331601Y-191903803D01*
X150331601Y-191903803D02*
X151211585Y-195187951D01*
%TO.C,D31*%
X140031653Y-114016500D02*
X136631653Y-114016500D01*
X136631653Y-114016500D02*
X136631653Y-110616500D01*
X136631653Y-110616500D02*
X140031653Y-110616500D01*
X140031653Y-110616500D02*
X140031653Y-114016500D01*
%TO.C,D67*%
X174731653Y-167766950D02*
X178131653Y-167766950D01*
X178131653Y-167766950D02*
X178131653Y-171166950D01*
X178131653Y-171166950D02*
X174731653Y-171166950D01*
X174731653Y-171166950D02*
X174731653Y-167766950D01*
%TO.C,D45*%
X212831653Y-129666650D02*
X216231653Y-129666650D01*
X216231653Y-129666650D02*
X216231653Y-133066650D01*
X216231653Y-133066650D02*
X212831653Y-133066650D01*
X212831653Y-133066650D02*
X212831653Y-129666650D01*
%TO.C,D59*%
X216231653Y-152116800D02*
X212831653Y-152116800D01*
X212831653Y-152116800D02*
X212831653Y-148716800D01*
X212831653Y-148716800D02*
X216231653Y-148716800D01*
X216231653Y-148716800D02*
X216231653Y-152116800D01*
%TO.C,D46*%
X193781653Y-129666650D02*
X197181653Y-129666650D01*
X197181653Y-129666650D02*
X197181653Y-133066650D01*
X197181653Y-133066650D02*
X193781653Y-133066650D01*
X193781653Y-133066650D02*
X193781653Y-129666650D01*
%TO.C,D37*%
X197181653Y-114016500D02*
X193781653Y-114016500D01*
X193781653Y-114016500D02*
X193781653Y-110616500D01*
X193781653Y-110616500D02*
X197181653Y-110616500D01*
X197181653Y-110616500D02*
X197181653Y-114016500D01*
%TO.C,D65*%
X212831653Y-167766950D02*
X216231653Y-167766950D01*
X216231653Y-167766950D02*
X216231653Y-171166950D01*
X216231653Y-171166950D02*
X212831653Y-171166950D01*
X212831653Y-171166950D02*
X212831653Y-167766950D01*
%TO.C,D43*%
X155681653Y-129666650D02*
X159081653Y-129666650D01*
X159081653Y-129666650D02*
X159081653Y-133066650D01*
X159081653Y-133066650D02*
X155681653Y-133066650D01*
X155681653Y-133066650D02*
X155681653Y-129666650D01*
%TO.C,D61*%
X193781653Y-167766950D02*
X197181653Y-167766950D01*
X197181653Y-167766950D02*
X197181653Y-171166950D01*
X197181653Y-171166950D02*
X193781653Y-171166950D01*
X193781653Y-171166950D02*
X193781653Y-167766950D01*
%TO.C,D70*%
X116202305Y-194917613D02*
X114502305Y-191973127D01*
X114502305Y-191973127D02*
X117446791Y-190273127D01*
X117446791Y-190273127D02*
X119146791Y-193217613D01*
X119146791Y-193217613D02*
X116202305Y-194917613D01*
%TO.C,D35*%
X178131653Y-114016500D02*
X174731653Y-114016500D01*
X174731653Y-114016500D02*
X174731653Y-110616500D01*
X174731653Y-110616500D02*
X178131653Y-110616500D01*
X178131653Y-110616500D02*
X178131653Y-114016500D01*
%TO.C,D63*%
X155681653Y-167766950D02*
X159081653Y-167766950D01*
X159081653Y-167766950D02*
X159081653Y-171166950D01*
X159081653Y-171166950D02*
X155681653Y-171166950D01*
X155681653Y-171166950D02*
X155681653Y-167766950D01*
%TO.C,D49*%
X136631653Y-129666650D02*
X140031653Y-129666650D01*
X140031653Y-129666650D02*
X140031653Y-133066650D01*
X140031653Y-133066650D02*
X136631653Y-133066650D01*
X136631653Y-133066650D02*
X136631653Y-129666650D01*
%TO.C,D69*%
X136631653Y-167766950D02*
X140031653Y-167766950D01*
X140031653Y-167766950D02*
X140031653Y-171166950D01*
X140031653Y-171166950D02*
X136631653Y-171166950D01*
X136631653Y-171166950D02*
X136631653Y-167766950D01*
%TO.C,D53*%
X197181653Y-152116800D02*
X193781653Y-152116800D01*
X193781653Y-152116800D02*
X193781653Y-148716800D01*
X193781653Y-148716800D02*
X197181653Y-148716800D01*
X197181653Y-148716800D02*
X197181653Y-152116800D01*
%TO.C,D73*%
X199081827Y-193074450D02*
X195681827Y-193074450D01*
X195681827Y-193074450D02*
X195681827Y-189674450D01*
X195681827Y-189674450D02*
X199081827Y-189674450D01*
X199081827Y-189674450D02*
X199081827Y-193074450D01*
%TO.C,D55*%
X140031653Y-152116800D02*
X136631653Y-152116800D01*
X136631653Y-152116800D02*
X136631653Y-148716800D01*
X136631653Y-148716800D02*
X140031653Y-148716800D01*
X140031653Y-148716800D02*
X140031653Y-152116800D01*
%TO.C,D47*%
X174731653Y-129666650D02*
X178131653Y-129666650D01*
X178131653Y-129666650D02*
X178131653Y-133066650D01*
X178131653Y-133066650D02*
X174731653Y-133066650D01*
X174731653Y-133066650D02*
X174731653Y-129666650D01*
%TO.C,D57*%
X178131653Y-152116800D02*
X174731653Y-152116800D01*
X174731653Y-152116800D02*
X174731653Y-148716800D01*
X174731653Y-148716800D02*
X178131653Y-148716800D01*
X178131653Y-148716800D02*
X178131653Y-152116800D01*
%TO.C,D39*%
X216231653Y-114016500D02*
X212831653Y-114016500D01*
X212831653Y-114016500D02*
X212831653Y-110616500D01*
X212831653Y-110616500D02*
X216231653Y-110616500D01*
X216231653Y-110616500D02*
X216231653Y-114016500D01*
%TO.C,D77*%
X175200827Y-193074450D02*
X171800827Y-193074450D01*
X171800827Y-193074450D02*
X171800827Y-189674450D01*
X171800827Y-189674450D02*
X175200827Y-189674450D01*
X175200827Y-189674450D02*
X175200827Y-193074450D01*
%TO.C,D51*%
X159081653Y-152116800D02*
X155681653Y-152116800D01*
X155681653Y-152116800D02*
X155681653Y-148716800D01*
X155681653Y-148716800D02*
X159081653Y-148716800D01*
X159081653Y-148716800D02*
X159081653Y-152116800D01*
%TO.C,D68*%
X155681653Y-171166950D02*
X159081653Y-171166950D01*
X159081653Y-171166950D02*
X159081653Y-167766950D01*
X159081653Y-167766950D02*
X155681653Y-167766950D01*
X155681653Y-167766950D02*
X155681653Y-171166950D01*
%TO.C,D54*%
X216231653Y-148716800D02*
X212831653Y-148716800D01*
X212831653Y-148716800D02*
X212831653Y-152116800D01*
X212831653Y-152116800D02*
X216231653Y-152116800D01*
X216231653Y-152116800D02*
X216231653Y-148716800D01*
%TO.C,D32*%
X159081653Y-110616500D02*
X155681653Y-110616500D01*
X155681653Y-110616500D02*
X155681653Y-114016500D01*
X155681653Y-114016500D02*
X159081653Y-114016500D01*
X159081653Y-114016500D02*
X159081653Y-110616500D01*
%TO.C,D48*%
X155681653Y-133066650D02*
X159081653Y-133066650D01*
X159081653Y-133066650D02*
X159081653Y-129666650D01*
X159081653Y-129666650D02*
X155681653Y-129666650D01*
X155681653Y-129666650D02*
X155681653Y-133066650D01*
%TO.C,D52*%
X178131653Y-148716800D02*
X174731653Y-148716800D01*
X174731653Y-148716800D02*
X174731653Y-152116800D01*
X174731653Y-152116800D02*
X178131653Y-152116800D01*
X178131653Y-152116800D02*
X178131653Y-148716800D01*
%TO.C,D58*%
X197181653Y-148716800D02*
X193781653Y-148716800D01*
X193781653Y-148716800D02*
X193781653Y-152116800D01*
X193781653Y-152116800D02*
X197181653Y-152116800D01*
X197181653Y-152116800D02*
X197181653Y-148716800D01*
%TO.C,D64*%
X136631653Y-171166950D02*
X140031653Y-171166950D01*
X140031653Y-171166950D02*
X140031653Y-167766950D01*
X140031653Y-167766950D02*
X136631653Y-167766950D01*
X136631653Y-167766950D02*
X136631653Y-171166950D01*
%TO.C,D56*%
X159081653Y-148716800D02*
X155681653Y-148716800D01*
X155681653Y-148716800D02*
X155681653Y-152116800D01*
X155681653Y-152116800D02*
X159081653Y-152116800D01*
X159081653Y-152116800D02*
X159081653Y-148716800D01*
%TO.C,D76*%
X150331601Y-191903803D02*
X147047453Y-192783787D01*
X147047453Y-192783787D02*
X147927437Y-196067935D01*
X147927437Y-196067935D02*
X151211585Y-195187951D01*
X151211585Y-195187951D02*
X150331601Y-191903803D01*
%TO.C,D34*%
X178131653Y-110616500D02*
X174731653Y-110616500D01*
X174731653Y-110616500D02*
X174731653Y-114016500D01*
X174731653Y-114016500D02*
X178131653Y-114016500D01*
X178131653Y-114016500D02*
X178131653Y-110616500D01*
%TO.C,D41*%
X193781653Y-133066650D02*
X197181653Y-133066650D01*
X197181653Y-133066650D02*
X197181653Y-129666650D01*
X197181653Y-129666650D02*
X193781653Y-129666650D01*
X193781653Y-129666650D02*
X193781653Y-133066650D01*
%TO.C,D66*%
X193781653Y-171166950D02*
X197181653Y-171166950D01*
X197181653Y-171166950D02*
X197181653Y-167766950D01*
X197181653Y-167766950D02*
X193781653Y-167766950D01*
X193781653Y-167766950D02*
X193781653Y-171166950D01*
%TO.C,D42*%
X174731653Y-133066650D02*
X178131653Y-133066650D01*
X178131653Y-133066650D02*
X178131653Y-129666650D01*
X178131653Y-129666650D02*
X174731653Y-129666650D01*
X174731653Y-129666650D02*
X174731653Y-133066650D01*
%TO.C,D75*%
X119146791Y-193217613D02*
X117446791Y-190273127D01*
X117446791Y-190273127D02*
X114502305Y-191973127D01*
X114502305Y-191973127D02*
X116202305Y-194917613D01*
X116202305Y-194917613D02*
X119146791Y-193217613D01*
%TO.C,D44*%
X136631653Y-133066650D02*
X140031653Y-133066650D01*
X140031653Y-133066650D02*
X140031653Y-129666650D01*
X140031653Y-129666650D02*
X136631653Y-129666650D01*
X136631653Y-129666650D02*
X136631653Y-133066650D01*
%TO.C,D40*%
X212831653Y-133066650D02*
X216231653Y-133066650D01*
X216231653Y-133066650D02*
X216231653Y-129666650D01*
X216231653Y-129666650D02*
X212831653Y-129666650D01*
X212831653Y-129666650D02*
X212831653Y-133066650D01*
%TO.C,D36*%
X197181653Y-110616500D02*
X193781653Y-110616500D01*
X193781653Y-110616500D02*
X193781653Y-114016500D01*
X193781653Y-114016500D02*
X197181653Y-114016500D01*
X197181653Y-114016500D02*
X197181653Y-110616500D01*
%TO.C,D72*%
X175200827Y-189674450D02*
X171800827Y-189674450D01*
X171800827Y-189674450D02*
X171800827Y-193074450D01*
X171800827Y-193074450D02*
X175200827Y-193074450D01*
X175200827Y-193074450D02*
X175200827Y-189674450D01*
%TO.C,D78*%
X199081827Y-189674450D02*
X195681827Y-189674450D01*
X195681827Y-189674450D02*
X195681827Y-193074450D01*
X195681827Y-193074450D02*
X199081827Y-193074450D01*
X199081827Y-193074450D02*
X199081827Y-189674450D01*
%TO.C,D50*%
X140031653Y-148716800D02*
X136631653Y-148716800D01*
X136631653Y-148716800D02*
X136631653Y-152116800D01*
X136631653Y-152116800D02*
X140031653Y-152116800D01*
X140031653Y-152116800D02*
X140031653Y-148716800D01*
%TO.C,D62*%
X174731653Y-171166950D02*
X178131653Y-171166950D01*
X178131653Y-171166950D02*
X178131653Y-167766950D01*
X178131653Y-167766950D02*
X174731653Y-167766950D01*
X174731653Y-167766950D02*
X174731653Y-171166950D01*
%TO.C,D38*%
X216231653Y-110616500D02*
X212831653Y-110616500D01*
X212831653Y-110616500D02*
X212831653Y-114016500D01*
X212831653Y-114016500D02*
X216231653Y-114016500D01*
X216231653Y-114016500D02*
X216231653Y-110616500D01*
%TO.C,D60*%
X212831653Y-171166950D02*
X216231653Y-171166950D01*
X216231653Y-171166950D02*
X216231653Y-167766950D01*
X216231653Y-167766950D02*
X212831653Y-167766950D01*
X212831653Y-167766950D02*
X212831653Y-171166950D01*
%TO.C,D30*%
X140031653Y-110616500D02*
X136631653Y-110616500D01*
X136631653Y-110616500D02*
X136631653Y-114016500D01*
X136631653Y-114016500D02*
X140031653Y-114016500D01*
X140031653Y-114016500D02*
X140031653Y-110616500D01*
%TD*%
M02*
