%TF.GenerationSoftware,KiCad,Pcbnew,7.0.7*%
%TF.CreationDate,2024-04-21T22:37:26+02:00*%
%TF.ProjectId,isokey_left,69736f6b-6579-45f6-9c65-66742e6b6963,rev?*%
%TF.SameCoordinates,Original*%
%TF.FileFunction,Legend,Bot*%
%TF.FilePolarity,Positive*%
%FSLAX46Y46*%
G04 Gerber Fmt 4.6, Leading zero omitted, Abs format (unit mm)*
G04 Created by KiCad (PCBNEW 7.0.7) date 2024-04-21 22:37:26*
%MOMM*%
%LPD*%
G01*
G04 APERTURE LIST*
%ADD10C,0.300000*%
%ADD11C,0.150000*%
%ADD12C,0.200000*%
%ADD13C,0.500000*%
%ADD14C,0.600000*%
%ADD15C,0.120000*%
%ADD16C,0.250000*%
%ADD17C,0.350000*%
G04 APERTURE END LIST*
D10*
G36*
X75247191Y-44028335D02*
G01*
X75276171Y-44030552D01*
X75304378Y-44034668D01*
X75331813Y-44040684D01*
X75358474Y-44048600D01*
X75384363Y-44058415D01*
X75409479Y-44070131D01*
X75433822Y-44083746D01*
X75457393Y-44099261D01*
X75480190Y-44116676D01*
X75502215Y-44135990D01*
X75516235Y-44149655D01*
X75535745Y-44170734D01*
X75553430Y-44192510D01*
X75569290Y-44214984D01*
X75583326Y-44238155D01*
X75595537Y-44262024D01*
X75605923Y-44286591D01*
X75614485Y-44311855D01*
X75621221Y-44337818D01*
X75626134Y-44364477D01*
X75629221Y-44391835D01*
X75646662Y-44398017D01*
X75670753Y-44402235D01*
X75696141Y-44403552D01*
X75721423Y-44402826D01*
X75736870Y-44401356D01*
X75761291Y-44397077D01*
X75787216Y-44390308D01*
X75814643Y-44381049D01*
X75838647Y-44371431D01*
X75863695Y-44360083D01*
X75856978Y-44435799D01*
X75850719Y-44462551D01*
X75842934Y-44488463D01*
X75833622Y-44513536D01*
X75822784Y-44537770D01*
X75817734Y-44545245D01*
X75801527Y-44566697D01*
X75783731Y-44586690D01*
X75764347Y-44605223D01*
X75743374Y-44622296D01*
X75720812Y-44637909D01*
X75711119Y-44642937D01*
X75686218Y-44654088D01*
X75660362Y-44663212D01*
X75633553Y-44670307D01*
X75605789Y-44675376D01*
X75577072Y-44678417D01*
X75547400Y-44679431D01*
X75544364Y-44686277D01*
X75538354Y-44710415D01*
X75538664Y-44736580D01*
X75544347Y-44761863D01*
X75548867Y-44771976D01*
X75561511Y-44794988D01*
X75575352Y-44817161D01*
X75590007Y-44839143D01*
X75604187Y-44859560D01*
X75618459Y-44880114D01*
X75633972Y-44903126D01*
X75647725Y-44924335D01*
X75661545Y-44946800D01*
X75674406Y-44969469D01*
X75682564Y-44988551D01*
X75691231Y-45012402D01*
X75698199Y-45036254D01*
X75704317Y-45064877D01*
X75707987Y-45093499D01*
X75709211Y-45122121D01*
X75708960Y-45139423D01*
X75707646Y-45164714D01*
X75705204Y-45189211D01*
X75700195Y-45220639D01*
X75693182Y-45250654D01*
X75684167Y-45279257D01*
X75673147Y-45306448D01*
X75660124Y-45332227D01*
X75645097Y-45356594D01*
X75631797Y-45375208D01*
X75613402Y-45397161D01*
X75593038Y-45417652D01*
X75570707Y-45436683D01*
X75546408Y-45454253D01*
X75525552Y-45467257D01*
X75503436Y-45479326D01*
X75495749Y-45482918D01*
X75472028Y-45492836D01*
X75447320Y-45501465D01*
X75421625Y-45508807D01*
X75394941Y-45514861D01*
X75367271Y-45519626D01*
X75304378Y-45526953D01*
X74842149Y-45526953D01*
X74833664Y-45526880D01*
X74808508Y-45525770D01*
X74783804Y-45523330D01*
X74759550Y-45519559D01*
X74727913Y-45512461D01*
X74697077Y-45502997D01*
X74667043Y-45491166D01*
X74637810Y-45476970D01*
X74616411Y-45464769D01*
X74595464Y-45451238D01*
X74589873Y-45447182D01*
X74567891Y-45429980D01*
X74546520Y-45411214D01*
X74525759Y-45390882D01*
X74505609Y-45368986D01*
X74486069Y-45345526D01*
X74467141Y-45320500D01*
X74448822Y-45293910D01*
X74435484Y-45272941D01*
X74422108Y-45250482D01*
X74409152Y-45227069D01*
X74396616Y-45202702D01*
X74384499Y-45177381D01*
X74372802Y-45151106D01*
X74361525Y-45123876D01*
X74350667Y-45095693D01*
X74340230Y-45066556D01*
X74337119Y-45056070D01*
X74329511Y-45029607D01*
X74322141Y-45002785D01*
X74315009Y-44975606D01*
X74308116Y-44948069D01*
X74301461Y-44920175D01*
X74295045Y-44891922D01*
X74304204Y-44816207D01*
X74310347Y-44820624D01*
X74331909Y-44834648D01*
X74355141Y-44847600D01*
X74377477Y-44858339D01*
X74394491Y-44866036D01*
X74418462Y-44873177D01*
X74443902Y-44876750D01*
X74470812Y-44876755D01*
X74499191Y-44873192D01*
X74529039Y-44866060D01*
X74552390Y-44858370D01*
X74576566Y-44848672D01*
X74601570Y-44836967D01*
X74623697Y-44826329D01*
X74656861Y-44811410D01*
X74689993Y-44797736D01*
X74723093Y-44785307D01*
X74756161Y-44774123D01*
X74789196Y-44764184D01*
X74822199Y-44755490D01*
X74855170Y-44748041D01*
X74888109Y-44741837D01*
X74921016Y-44736878D01*
X74953890Y-44733164D01*
X74949196Y-44729570D01*
X74929656Y-44710469D01*
X74914200Y-44691185D01*
X74898058Y-44667650D01*
X74884080Y-44644791D01*
X74869626Y-44618981D01*
X74858607Y-44596779D01*
X74849056Y-44574139D01*
X74840975Y-44551060D01*
X74834364Y-44527542D01*
X74829221Y-44503585D01*
X74825548Y-44479190D01*
X74823344Y-44454355D01*
X74822609Y-44429082D01*
X74823468Y-44402015D01*
X74824456Y-44391835D01*
X75246981Y-44391835D01*
X75249605Y-44415889D01*
X75258552Y-44439732D01*
X75273848Y-44460833D01*
X75294051Y-44476825D01*
X75317716Y-44486178D01*
X75342236Y-44488921D01*
X75366613Y-44486178D01*
X75390672Y-44476825D01*
X75411845Y-44460833D01*
X75426657Y-44441764D01*
X75436614Y-44418170D01*
X75439933Y-44391835D01*
X75437190Y-44367959D01*
X75427837Y-44344726D01*
X75411845Y-44324668D01*
X75392835Y-44310500D01*
X75369445Y-44300976D01*
X75343457Y-44297801D01*
X75318031Y-44300425D01*
X75293919Y-44309372D01*
X75273848Y-44324668D01*
X75259680Y-44342509D01*
X75250156Y-44365440D01*
X75246981Y-44391835D01*
X74824456Y-44391835D01*
X74826044Y-44375463D01*
X74830337Y-44349426D01*
X74836348Y-44323905D01*
X74844076Y-44298898D01*
X74853521Y-44274407D01*
X74864684Y-44250432D01*
X74877564Y-44226971D01*
X74891761Y-44204254D01*
X74907178Y-44182816D01*
X74923818Y-44162657D01*
X74941678Y-44143776D01*
X74960759Y-44126173D01*
X74981062Y-44109849D01*
X75002586Y-44094803D01*
X75025331Y-44081036D01*
X75048925Y-44068585D01*
X75072996Y-44057795D01*
X75097545Y-44048664D01*
X75122570Y-44041194D01*
X75148073Y-44035383D01*
X75174052Y-44031233D01*
X75200508Y-44028743D01*
X75227442Y-44027913D01*
X75247191Y-44028335D01*
G37*
G36*
X99127930Y-153239487D02*
G01*
X99003000Y-153239487D01*
X99003000Y-152724745D01*
X98895655Y-152724745D01*
X98516834Y-153202117D01*
X98516834Y-153239487D01*
X98393370Y-153239487D01*
X98393370Y-153160352D01*
X98393790Y-153151073D01*
X98396665Y-153135498D01*
X98402265Y-153121372D01*
X98410589Y-153108695D01*
X98719067Y-152724745D01*
X98556768Y-152724745D01*
X98552076Y-152724539D01*
X98537136Y-152720875D01*
X98523268Y-152712632D01*
X98511705Y-152701297D01*
X98410589Y-152574535D01*
X98404737Y-152566245D01*
X98398229Y-152552602D01*
X98394446Y-152537510D01*
X98393370Y-152522878D01*
X98393370Y-152493569D01*
X98519032Y-152493569D01*
X98584612Y-152574535D01*
X99003000Y-152574535D01*
X99003000Y-152211835D01*
X98586443Y-152211835D01*
X98519032Y-152295000D01*
X98519032Y-152493569D01*
X98393370Y-152493569D01*
X98393370Y-152263492D01*
X98393790Y-152254213D01*
X98396665Y-152238638D01*
X98402265Y-152224512D01*
X98410589Y-152211835D01*
X98515002Y-152085073D01*
X98518698Y-152080882D01*
X98530441Y-152070785D01*
X98544645Y-152063915D01*
X98560065Y-152061625D01*
X99127930Y-152061625D01*
X99127930Y-153239487D01*
G37*
G36*
X98054866Y-152318314D02*
G01*
X98069607Y-152324840D01*
X98081451Y-152333976D01*
X98091852Y-152344825D01*
X98195533Y-152477815D01*
X98199998Y-152484919D01*
X98207142Y-152498337D01*
X98212333Y-152512174D01*
X98214584Y-152527274D01*
X98214584Y-153037986D01*
X98214217Y-153048144D01*
X98212105Y-153062832D01*
X98207484Y-153077058D01*
X98199563Y-153090010D01*
X98092951Y-153215673D01*
X98090084Y-153219536D01*
X98078807Y-153229668D01*
X98064882Y-153235579D01*
X98050086Y-153237288D01*
X97567584Y-153237288D01*
X97567584Y-153095872D01*
X98024074Y-153095872D01*
X98091119Y-153008311D01*
X98091119Y-152857369D01*
X97571981Y-152857369D01*
X97571981Y-152703129D01*
X97693247Y-152703129D01*
X98088921Y-152703129D01*
X98088921Y-152556584D01*
X98020044Y-152469389D01*
X97761025Y-152469389D01*
X97693247Y-152554385D01*
X97693247Y-152703129D01*
X97571981Y-152703129D01*
X97571981Y-152525076D01*
X97572132Y-152519599D01*
X97574402Y-152504211D01*
X97580120Y-152488948D01*
X97589200Y-152475617D01*
X97689217Y-152345191D01*
X97695368Y-152337064D01*
X97707430Y-152325907D01*
X97720767Y-152319213D01*
X97735379Y-152316981D01*
X98044591Y-152316981D01*
X98054866Y-152318314D01*
G37*
G36*
X97171545Y-152505659D02*
G01*
X96925714Y-153017103D01*
X96675854Y-152499431D01*
X96675854Y-152319180D01*
X96549824Y-152319180D01*
X96549824Y-152518848D01*
X96551094Y-152533494D01*
X96554904Y-152548262D01*
X96557518Y-152555118D01*
X96870760Y-153205415D01*
X96878496Y-153218488D01*
X96889020Y-153230321D01*
X96903022Y-153239337D01*
X96919130Y-153243545D01*
X96925714Y-153243883D01*
X96940616Y-153242042D01*
X96955671Y-153235430D01*
X96967116Y-153225701D01*
X96976949Y-153212289D01*
X96980669Y-153205415D01*
X97289880Y-152561346D01*
X97294624Y-152546523D01*
X97296950Y-152531821D01*
X97297208Y-152525076D01*
X97297208Y-152319180D01*
X97171545Y-152319180D01*
X97171545Y-152505659D01*
G37*
G36*
X96172103Y-152981933D02*
G01*
X95946056Y-152981933D01*
X95946056Y-153239487D01*
X96172103Y-153239487D01*
X96172103Y-152981933D01*
G37*
G36*
X95098994Y-152061835D02*
G01*
X95113706Y-152065556D01*
X95126772Y-152073928D01*
X95137124Y-152085439D01*
X95440107Y-152467557D01*
X95443381Y-152472471D01*
X95451270Y-152486826D01*
X95456636Y-152502095D01*
X95458425Y-152516650D01*
X95458425Y-153241685D01*
X95333495Y-153241685D01*
X95333495Y-152830258D01*
X94849528Y-152830258D01*
X94849528Y-153241685D01*
X94723865Y-153241685D01*
X94723865Y-152688475D01*
X94849528Y-152688475D01*
X95332396Y-152688475D01*
X95332396Y-152548157D01*
X95092061Y-152248471D01*
X94849528Y-152550355D01*
X94849528Y-152688475D01*
X94723865Y-152688475D01*
X94723865Y-152520680D01*
X94724117Y-152512740D01*
X94726525Y-152496424D01*
X94731484Y-152482253D01*
X94739985Y-152469023D01*
X95045899Y-152085073D01*
X95051813Y-152078318D01*
X95063991Y-152069044D01*
X95078140Y-152063480D01*
X95094259Y-152061625D01*
X95098994Y-152061835D01*
G37*
G36*
X99033774Y-150464993D02*
G01*
X98678767Y-150464993D01*
X98615020Y-150545959D01*
X98615020Y-150705327D01*
X98968195Y-150705327D01*
X98973332Y-150705514D01*
X98989246Y-150708834D01*
X99003299Y-150716305D01*
X99014357Y-150726577D01*
X99115107Y-150855903D01*
X99119057Y-150862229D01*
X99126019Y-150876503D01*
X99130314Y-150890835D01*
X99131960Y-150906828D01*
X99131960Y-151033590D01*
X99131539Y-151043255D01*
X99128664Y-151059165D01*
X99123064Y-151073163D01*
X99114741Y-151085247D01*
X99015822Y-151215307D01*
X99011666Y-151220974D01*
X99000725Y-151230962D01*
X98985984Y-151237574D01*
X98970393Y-151239487D01*
X98384577Y-151239487D01*
X98384577Y-151093674D01*
X98489357Y-151093674D01*
X98489357Y-150851140D01*
X98615020Y-150851140D01*
X98615020Y-151093674D01*
X98942550Y-151093674D01*
X99008495Y-151006479D01*
X99008495Y-150936503D01*
X98941450Y-150851140D01*
X98615020Y-150851140D01*
X98489357Y-150851140D01*
X98489357Y-150516650D01*
X98489508Y-150511173D01*
X98491778Y-150495784D01*
X98497496Y-150480522D01*
X98506576Y-150467191D01*
X98606594Y-150340795D01*
X98611874Y-150333935D01*
X98623183Y-150324516D01*
X98636810Y-150318865D01*
X98652755Y-150316981D01*
X99033774Y-150316981D01*
X99033774Y-150464993D01*
G37*
G36*
X97699842Y-150552187D02*
G01*
X97768352Y-150467191D01*
X98019678Y-150467191D01*
X98059612Y-150517749D01*
X97590299Y-150976803D01*
X97580361Y-150988596D01*
X97573263Y-151001625D01*
X97569004Y-151015890D01*
X97567584Y-151031392D01*
X97568729Y-151047672D01*
X97572164Y-151062441D01*
X97578765Y-151077250D01*
X97585903Y-151087445D01*
X97693614Y-151218237D01*
X97705029Y-151229572D01*
X97718867Y-151237815D01*
X97733923Y-151241479D01*
X97738677Y-151241685D01*
X98046789Y-151241685D01*
X98062209Y-151239395D01*
X98076413Y-151232526D01*
X98088156Y-151222428D01*
X98091852Y-151218237D01*
X98197365Y-151091475D01*
X98205688Y-151078653D01*
X98211288Y-151064093D01*
X98214163Y-151047793D01*
X98214584Y-151037986D01*
X98214584Y-150966912D01*
X98088921Y-150966912D01*
X98088921Y-151006479D01*
X98020044Y-151091475D01*
X97764322Y-151091475D01*
X97723656Y-151040917D01*
X98190404Y-150584427D01*
X98200529Y-150572485D01*
X98207378Y-150557760D01*
X98211665Y-150541508D01*
X98213485Y-150529839D01*
X98213485Y-150521779D01*
X98212210Y-150506548D01*
X98207802Y-150491121D01*
X98200245Y-150477268D01*
X98197365Y-150473419D01*
X98094783Y-150340429D01*
X98083310Y-150329094D01*
X98070736Y-150321469D01*
X98055473Y-150317348D01*
X98048987Y-150316981D01*
X97741974Y-150316981D01*
X97727133Y-150319271D01*
X97713294Y-150326140D01*
X97701696Y-150336238D01*
X97698010Y-150340429D01*
X97591398Y-150468656D01*
X97582366Y-150481807D01*
X97576290Y-150496116D01*
X97573170Y-150511585D01*
X97572714Y-150520680D01*
X97572714Y-150600181D01*
X97699842Y-150600181D01*
X97699842Y-150552187D01*
G37*
G36*
X96864531Y-151069860D02*
G01*
X96848045Y-151091475D01*
X96759018Y-151091475D01*
X96759018Y-151241685D01*
X96875156Y-151241685D01*
X96889997Y-151239395D01*
X96903835Y-151232526D01*
X96915434Y-151222428D01*
X96919120Y-151218237D01*
X96971876Y-151152658D01*
X96980731Y-151139833D01*
X96986688Y-151125675D01*
X96989747Y-151110183D01*
X96990194Y-151101001D01*
X96990194Y-150469389D01*
X97201220Y-150469389D01*
X97201220Y-150316981D01*
X96990194Y-150316981D01*
X96990194Y-149930833D01*
X96864531Y-149930833D01*
X96864531Y-150316981D01*
X96654605Y-150316981D01*
X96654605Y-150469389D01*
X96864531Y-150469389D01*
X96864531Y-151069860D01*
G37*
G36*
X96220114Y-150318314D02*
G01*
X96234855Y-150324840D01*
X96246698Y-150333976D01*
X96257099Y-150344825D01*
X96360781Y-150477815D01*
X96365246Y-150484919D01*
X96372390Y-150498337D01*
X96377580Y-150512174D01*
X96379831Y-150527274D01*
X96379831Y-151037986D01*
X96379465Y-151048144D01*
X96377352Y-151062832D01*
X96372732Y-151077058D01*
X96364811Y-151090010D01*
X96258199Y-151215673D01*
X96255332Y-151219536D01*
X96244055Y-151229668D01*
X96230130Y-151235579D01*
X96215334Y-151237288D01*
X95732832Y-151237288D01*
X95732832Y-151095872D01*
X96189322Y-151095872D01*
X96256367Y-151008311D01*
X96256367Y-150857369D01*
X95737229Y-150857369D01*
X95737229Y-150703129D01*
X95858495Y-150703129D01*
X96254169Y-150703129D01*
X96254169Y-150556584D01*
X96185292Y-150469389D01*
X95926273Y-150469389D01*
X95858495Y-150554385D01*
X95858495Y-150703129D01*
X95737229Y-150703129D01*
X95737229Y-150525076D01*
X95737380Y-150519599D01*
X95739650Y-150504211D01*
X95745367Y-150488948D01*
X95754448Y-150475617D01*
X95854465Y-150345191D01*
X95860615Y-150337064D01*
X95872677Y-150325907D01*
X95886015Y-150319213D01*
X95900627Y-150316981D01*
X96209838Y-150316981D01*
X96220114Y-150318314D01*
G37*
G36*
X95253261Y-150676751D02*
G01*
X95253261Y-151239487D01*
X95377092Y-151239487D01*
X95377092Y-150522878D01*
X95379050Y-150508315D01*
X95384924Y-150493752D01*
X95391014Y-150484043D01*
X95403098Y-150474555D01*
X95417638Y-150469518D01*
X95420323Y-150469389D01*
X95462455Y-150469389D01*
X95462455Y-150316981D01*
X95367567Y-150316981D01*
X95351195Y-150319775D01*
X95335855Y-150326802D01*
X95321954Y-150336231D01*
X95309837Y-150346488D01*
X95297238Y-150358928D01*
X95294661Y-150361678D01*
X95284958Y-150372955D01*
X95274648Y-150387341D01*
X95266360Y-150402049D01*
X95260094Y-150417080D01*
X95255849Y-150432432D01*
X95253625Y-150448106D01*
X95253261Y-150457665D01*
X95253261Y-150464260D01*
X95156175Y-150342627D01*
X95145253Y-150331407D01*
X95132691Y-150322616D01*
X95118395Y-150317607D01*
X95111112Y-150316981D01*
X94986548Y-150316981D01*
X94971105Y-150318865D01*
X94956393Y-150325377D01*
X94945355Y-150335214D01*
X94941119Y-150340795D01*
X94833774Y-150469023D01*
X94824919Y-150482170D01*
X94818962Y-150496882D01*
X94816100Y-150511273D01*
X94815456Y-150522878D01*
X94815456Y-150597983D01*
X94941119Y-150597983D01*
X94941119Y-150552554D01*
X95012194Y-150469389D01*
X95083268Y-150469389D01*
X95253261Y-150676751D01*
G37*
G36*
X94238066Y-149930833D02*
G01*
X94111304Y-149930833D01*
X94111304Y-150083241D01*
X94238066Y-150083241D01*
X94238066Y-149930833D01*
G37*
G36*
X94238066Y-150316981D02*
G01*
X94111304Y-150316981D01*
X94111304Y-151241685D01*
X94238066Y-151241685D01*
X94238066Y-150316981D01*
G37*
G36*
X93256210Y-150887777D02*
G01*
X93508268Y-151195889D01*
X93508268Y-151243883D01*
X93633931Y-151243883D01*
X93633931Y-151164382D01*
X93632855Y-151149750D01*
X93629072Y-151134658D01*
X93622564Y-151121015D01*
X93616712Y-151112725D01*
X93345236Y-150780432D01*
X93616712Y-150445942D01*
X93625036Y-150433091D01*
X93630635Y-150418443D01*
X93633326Y-150403914D01*
X93633931Y-150392086D01*
X93633931Y-150316981D01*
X93508268Y-150316981D01*
X93508268Y-150366441D01*
X93256210Y-150671256D01*
X93004151Y-150366441D01*
X93004151Y-150316981D01*
X92878488Y-150316981D01*
X92878488Y-150392086D01*
X92879633Y-150407405D01*
X92883658Y-150423160D01*
X92890581Y-150437351D01*
X92896806Y-150445942D01*
X93169381Y-150778234D01*
X92896806Y-151112725D01*
X92887951Y-151125698D01*
X92881994Y-151139888D01*
X92878935Y-151155296D01*
X92878488Y-151164382D01*
X92878488Y-151243883D01*
X93004151Y-151243883D01*
X93004151Y-151195889D01*
X93256210Y-150887777D01*
G37*
G36*
X92581367Y-150340429D02*
G01*
X92706297Y-150340429D01*
X92706297Y-150261294D01*
X92704819Y-150245803D01*
X92700385Y-150231065D01*
X92692995Y-150217080D01*
X92687612Y-150209637D01*
X92480983Y-149952083D01*
X92469568Y-149940748D01*
X92455729Y-149932505D01*
X92440674Y-149928841D01*
X92435920Y-149928635D01*
X92138432Y-149928635D01*
X92122382Y-149930925D01*
X92108121Y-149937794D01*
X92096816Y-149947892D01*
X92093370Y-149952083D01*
X91988956Y-150081043D01*
X91980632Y-150093720D01*
X91975032Y-150107846D01*
X91972157Y-150123421D01*
X91971737Y-150132700D01*
X91971737Y-150398314D01*
X91973099Y-150414250D01*
X91977185Y-150429085D01*
X91983995Y-150442818D01*
X91988956Y-150449972D01*
X92499301Y-151093674D01*
X91971737Y-151093674D01*
X91971737Y-151243883D01*
X92648045Y-151243883D01*
X92663465Y-151241593D01*
X92677669Y-151234724D01*
X92689412Y-151224626D01*
X92693108Y-151220436D01*
X92701432Y-151207759D01*
X92707031Y-151193632D01*
X92709907Y-151178057D01*
X92710327Y-151168778D01*
X92709251Y-151154147D01*
X92705467Y-151139054D01*
X92698960Y-151125411D01*
X92693108Y-151117121D01*
X92095201Y-150369005D01*
X92095201Y-150162009D01*
X92162979Y-150078845D01*
X92410275Y-150078845D01*
X92581367Y-150290603D01*
X92581367Y-150340429D01*
G37*
G36*
X91322545Y-149929013D02*
G01*
X91337901Y-149932626D01*
X91351768Y-149941127D01*
X91361374Y-149952815D01*
X91770236Y-150467191D01*
X91775619Y-150474248D01*
X91783009Y-150487897D01*
X91787443Y-150502764D01*
X91788921Y-150518848D01*
X91788921Y-150755153D01*
X91788474Y-150764160D01*
X91785415Y-150779606D01*
X91779458Y-150794067D01*
X91770603Y-150807543D01*
X91767032Y-150811602D01*
X91755507Y-150821385D01*
X91741275Y-150828039D01*
X91725540Y-150830258D01*
X91280041Y-150830258D01*
X91280041Y-151292243D01*
X91154378Y-151292243D01*
X91154378Y-150830258D01*
X91054360Y-150830258D01*
X91054360Y-150688475D01*
X91154378Y-150688475D01*
X91154378Y-150078845D01*
X91280041Y-150078845D01*
X91280041Y-150688475D01*
X91667288Y-150688475D01*
X91667288Y-150554385D01*
X91288467Y-150078845D01*
X91280041Y-150078845D01*
X91154378Y-150078845D01*
X91154378Y-149928635D01*
X91314845Y-149928635D01*
X91322545Y-149929013D01*
G37*
G36*
X90714463Y-149937634D02*
G01*
X90729053Y-149941550D01*
X90741846Y-149949175D01*
X90752843Y-149960509D01*
X90855058Y-150087271D01*
X90860661Y-150095115D01*
X90866892Y-150108475D01*
X90870514Y-150123747D01*
X90871545Y-150138928D01*
X90871545Y-151046413D01*
X90871287Y-151054192D01*
X90868824Y-151070315D01*
X90863752Y-151084525D01*
X90855058Y-151098070D01*
X90761269Y-151213841D01*
X90754995Y-151220596D01*
X90742666Y-151229870D01*
X90729004Y-151235434D01*
X90714008Y-151237288D01*
X90136984Y-151237288D01*
X90136984Y-151087445D01*
X90687630Y-151087445D01*
X90745515Y-151014905D01*
X90745515Y-150168237D01*
X90679203Y-150087271D01*
X90324929Y-150087271D01*
X90262647Y-150163841D01*
X90262647Y-150501995D01*
X90323097Y-150578565D01*
X90338485Y-150578565D01*
X90338485Y-150475617D01*
X90465247Y-150475617D01*
X90465247Y-150578565D01*
X90541817Y-150578565D01*
X90541817Y-150558782D01*
X90474406Y-150475617D01*
X90465247Y-150475617D01*
X90338485Y-150475617D01*
X90338485Y-150400512D01*
X90338941Y-150391462D01*
X90342061Y-150376299D01*
X90348137Y-150362585D01*
X90357169Y-150350321D01*
X90359490Y-150347836D01*
X90372041Y-150337818D01*
X90386166Y-150331808D01*
X90401866Y-150329804D01*
X90500784Y-150329804D01*
X90506615Y-150329972D01*
X90522371Y-150332483D01*
X90536818Y-150338809D01*
X90548045Y-150348855D01*
X90651360Y-150477449D01*
X90656963Y-150485516D01*
X90663193Y-150499018D01*
X90666816Y-150514200D01*
X90667846Y-150529106D01*
X90667846Y-150653670D01*
X90667399Y-150662677D01*
X90664340Y-150678124D01*
X90658383Y-150692585D01*
X90649528Y-150706060D01*
X90645967Y-150710120D01*
X90634587Y-150719902D01*
X90620720Y-150726557D01*
X90605564Y-150728775D01*
X90295254Y-150728775D01*
X90290251Y-150728569D01*
X90274738Y-150724905D01*
X90261013Y-150716662D01*
X90250191Y-150705327D01*
X90153104Y-150585160D01*
X90147626Y-150577204D01*
X90141534Y-150563774D01*
X90137992Y-150548546D01*
X90136984Y-150533503D01*
X90136984Y-150134532D01*
X90137236Y-150126833D01*
X90139645Y-150110807D01*
X90144604Y-150096577D01*
X90153104Y-150082875D01*
X90252389Y-149960509D01*
X90257369Y-149955013D01*
X90269496Y-149945328D01*
X90284465Y-149938916D01*
X90299284Y-149937062D01*
X90705582Y-149937062D01*
X90714463Y-149937634D01*
G37*
G36*
X89694798Y-150313145D02*
G01*
X89710422Y-150316043D01*
X89724246Y-150323341D01*
X89734350Y-150334933D01*
X89940979Y-150591755D01*
X89946831Y-150599809D01*
X89953339Y-150613243D01*
X89957122Y-150628299D01*
X89958199Y-150643046D01*
X89958199Y-150784462D01*
X89957769Y-150794813D01*
X89955296Y-150809662D01*
X89949887Y-150823849D01*
X89940613Y-150836486D01*
X89739479Y-151085247D01*
X89735784Y-151089438D01*
X89724040Y-151099535D01*
X89709836Y-151106405D01*
X89694416Y-151108695D01*
X89531751Y-151108695D01*
X89524309Y-151108322D01*
X89509407Y-151104764D01*
X89495840Y-151096392D01*
X89486321Y-151084881D01*
X89389601Y-150965446D01*
X89389601Y-151270261D01*
X89447853Y-151342801D01*
X89672068Y-151342801D01*
X89760728Y-151232159D01*
X89847557Y-151339504D01*
X89742410Y-151469197D01*
X89738724Y-151473387D01*
X89727126Y-151483485D01*
X89713287Y-151490355D01*
X89698446Y-151492644D01*
X89422208Y-151492644D01*
X89414766Y-151492272D01*
X89399864Y-151488714D01*
X89386297Y-151480342D01*
X89376778Y-151468831D01*
X89281157Y-151351228D01*
X89275181Y-151343049D01*
X89268535Y-151329477D01*
X89264671Y-151314339D01*
X89263572Y-151299570D01*
X89263572Y-150751123D01*
X89389601Y-150751123D01*
X89558495Y-150958485D01*
X89667672Y-150958485D01*
X89832536Y-150755153D01*
X89832536Y-150672721D01*
X89663642Y-150462794D01*
X89457012Y-150462794D01*
X89389601Y-150545959D01*
X89389601Y-150751123D01*
X89263572Y-150751123D01*
X89263572Y-150516650D01*
X89264010Y-150506290D01*
X89266535Y-150491390D01*
X89272057Y-150477090D01*
X89281524Y-150464260D01*
X89385571Y-150334200D01*
X89388903Y-150330403D01*
X89401497Y-150320442D01*
X89416380Y-150314632D01*
X89431733Y-150312951D01*
X89688921Y-150312951D01*
X89694798Y-150313145D01*
G37*
G36*
X88604849Y-150550355D02*
G01*
X88604849Y-151241685D01*
X88732710Y-151241685D01*
X88732710Y-150550355D01*
X88795358Y-150469389D01*
X88846283Y-150469389D01*
X88915159Y-150552554D01*
X88915159Y-151241685D01*
X89040822Y-151241685D01*
X89040822Y-150319180D01*
X88914060Y-150319180D01*
X88916991Y-150342260D01*
X88919189Y-150340429D01*
X88907862Y-150329094D01*
X88894323Y-150320851D01*
X88879783Y-150317187D01*
X88875226Y-150316981D01*
X88768614Y-150316981D01*
X88753618Y-150318836D01*
X88739956Y-150324400D01*
X88727626Y-150333674D01*
X88721353Y-150340429D01*
X88668963Y-150411137D01*
X88613275Y-150342627D01*
X88601712Y-150331292D01*
X88587845Y-150323049D01*
X88572904Y-150319386D01*
X88568212Y-150319180D01*
X88458303Y-150319180D01*
X88442883Y-150321469D01*
X88428679Y-150328339D01*
X88416936Y-150338437D01*
X88413240Y-150342627D01*
X88313223Y-150467191D01*
X88304191Y-150480164D01*
X88298115Y-150494355D01*
X88294995Y-150509762D01*
X88294538Y-150518848D01*
X88294538Y-151241685D01*
X88421667Y-151241685D01*
X88421667Y-150548157D01*
X88485048Y-150469389D01*
X88540369Y-150469389D01*
X88604849Y-150550355D01*
G37*
G36*
X88025261Y-150464993D02*
G01*
X87670254Y-150464993D01*
X87606506Y-150545959D01*
X87606506Y-150705327D01*
X87959681Y-150705327D01*
X87964818Y-150705514D01*
X87980732Y-150708834D01*
X87994786Y-150716305D01*
X88005843Y-150726577D01*
X88106594Y-150855903D01*
X88110543Y-150862229D01*
X88117505Y-150876503D01*
X88121800Y-150890835D01*
X88123446Y-150906828D01*
X88123446Y-151033590D01*
X88123026Y-151043255D01*
X88120150Y-151059165D01*
X88114551Y-151073163D01*
X88106227Y-151085247D01*
X88007309Y-151215307D01*
X88003153Y-151220974D01*
X87992211Y-151230962D01*
X87977471Y-151237574D01*
X87961880Y-151239487D01*
X87376063Y-151239487D01*
X87376063Y-151093674D01*
X87480843Y-151093674D01*
X87480843Y-150851140D01*
X87606506Y-150851140D01*
X87606506Y-151093674D01*
X87934036Y-151093674D01*
X87999982Y-151006479D01*
X87999982Y-150936503D01*
X87932937Y-150851140D01*
X87606506Y-150851140D01*
X87480843Y-150851140D01*
X87480843Y-150516650D01*
X87480995Y-150511173D01*
X87483265Y-150495784D01*
X87488982Y-150480522D01*
X87498062Y-150467191D01*
X87598080Y-150340795D01*
X87603361Y-150333935D01*
X87614669Y-150324516D01*
X87628296Y-150318865D01*
X87644242Y-150316981D01*
X88025261Y-150316981D01*
X88025261Y-150464993D01*
G37*
G36*
X86899057Y-149930833D02*
G01*
X86772295Y-149930833D01*
X86772295Y-150083241D01*
X86899057Y-150083241D01*
X86899057Y-149930833D01*
G37*
G36*
X86899057Y-150316981D02*
G01*
X86772295Y-150316981D01*
X86772295Y-151241685D01*
X86899057Y-151241685D01*
X86899057Y-150316981D01*
G37*
G36*
X85856018Y-151069860D02*
G01*
X85839531Y-151091475D01*
X85750505Y-151091475D01*
X85750505Y-151241685D01*
X85866642Y-151241685D01*
X85881483Y-151239395D01*
X85895322Y-151232526D01*
X85906920Y-151222428D01*
X85910606Y-151218237D01*
X85963363Y-151152658D01*
X85972218Y-151139833D01*
X85978175Y-151125675D01*
X85981234Y-151110183D01*
X85981681Y-151101001D01*
X85981681Y-149930833D01*
X85856018Y-149930833D01*
X85856018Y-151069860D01*
G37*
G36*
X85163589Y-150981933D02*
G01*
X84937543Y-150981933D01*
X84937543Y-151239487D01*
X85163589Y-151239487D01*
X85163589Y-150981933D01*
G37*
G36*
X83806942Y-150319180D02*
G01*
X83806942Y-150467191D01*
X84160484Y-150467191D01*
X84330477Y-150678949D01*
X84330477Y-150879351D01*
X84154988Y-151091475D01*
X83806942Y-151091475D01*
X83806942Y-151237288D01*
X84181733Y-151237288D01*
X84197275Y-151235249D01*
X84211386Y-151229131D01*
X84224065Y-151218934D01*
X84226430Y-151216406D01*
X84437089Y-150960317D01*
X84444462Y-150947632D01*
X84450239Y-150933251D01*
X84453349Y-150918755D01*
X84453942Y-150909026D01*
X84453942Y-150649640D01*
X84452866Y-150634436D01*
X84449082Y-150619083D01*
X84442574Y-150605585D01*
X84436723Y-150597616D01*
X84231192Y-150342993D01*
X84221403Y-150331482D01*
X84208352Y-150323110D01*
X84193010Y-150319389D01*
X84187961Y-150319180D01*
X83806942Y-150319180D01*
G37*
G36*
X83374228Y-150314859D02*
G01*
X83389362Y-150317514D01*
X83402564Y-150323961D01*
X83413834Y-150334200D01*
X83517515Y-150467557D01*
X83521980Y-150474575D01*
X83529124Y-150487856D01*
X83534314Y-150501592D01*
X83536566Y-150516650D01*
X83536566Y-151037986D01*
X83536136Y-151048575D01*
X83533663Y-151063842D01*
X83528254Y-151078554D01*
X83518980Y-151091842D01*
X83413467Y-151214574D01*
X83401288Y-151224427D01*
X83386735Y-151231051D01*
X83370969Y-151233258D01*
X83052232Y-151233258D01*
X83046004Y-151233258D01*
X83031313Y-151231326D01*
X83017716Y-151224738D01*
X83006803Y-151213475D01*
X82907518Y-151089277D01*
X82903311Y-151082625D01*
X82895895Y-151067910D01*
X82891319Y-151053542D01*
X82889566Y-151037986D01*
X82889566Y-151008311D01*
X83015229Y-151008311D01*
X83078244Y-151089277D01*
X83344224Y-151089277D01*
X83410903Y-151008311D01*
X83410903Y-150548157D01*
X83343858Y-150462794D01*
X83077145Y-150462794D01*
X83015229Y-150547791D01*
X83015229Y-151008311D01*
X82889566Y-151008311D01*
X82889566Y-150520680D01*
X82889718Y-150515848D01*
X82892408Y-150500392D01*
X82898462Y-150485938D01*
X82906785Y-150473785D01*
X83001674Y-150340795D01*
X83007947Y-150333301D01*
X83020277Y-150323013D01*
X83033939Y-150316841D01*
X83048935Y-150314783D01*
X83370969Y-150314783D01*
X83374228Y-150314859D01*
G37*
G36*
X82183216Y-150550355D02*
G01*
X82183216Y-151241685D01*
X82311077Y-151241685D01*
X82311077Y-150550355D01*
X82373725Y-150469389D01*
X82424650Y-150469389D01*
X82493527Y-150552554D01*
X82493527Y-151241685D01*
X82619189Y-151241685D01*
X82619189Y-150319180D01*
X82492427Y-150319180D01*
X82495358Y-150342260D01*
X82497557Y-150340429D01*
X82486229Y-150329094D01*
X82472690Y-150320851D01*
X82458150Y-150317187D01*
X82453593Y-150316981D01*
X82346981Y-150316981D01*
X82331985Y-150318836D01*
X82318323Y-150324400D01*
X82305993Y-150333674D01*
X82299720Y-150340429D01*
X82247330Y-150411137D01*
X82191642Y-150342627D01*
X82180079Y-150331292D01*
X82166212Y-150323049D01*
X82151271Y-150319386D01*
X82146580Y-150319180D01*
X82036670Y-150319180D01*
X82021250Y-150321469D01*
X82007046Y-150328339D01*
X81995303Y-150338437D01*
X81991607Y-150342627D01*
X81891590Y-150467191D01*
X81882558Y-150480164D01*
X81876482Y-150494355D01*
X81873362Y-150509762D01*
X81872905Y-150518848D01*
X81872905Y-151241685D01*
X82000034Y-151241685D01*
X82000034Y-150548157D01*
X82063415Y-150469389D01*
X82118736Y-150469389D01*
X82183216Y-150550355D01*
G37*
G36*
X80008426Y-44261625D02*
G01*
X79883496Y-44261625D01*
X79883496Y-45291475D01*
X79273866Y-45291475D01*
X79273866Y-45441685D01*
X80008426Y-45441685D01*
X80008426Y-44261625D01*
G37*
G36*
X78935362Y-44518314D02*
G01*
X78950103Y-44524840D01*
X78961947Y-44533976D01*
X78972348Y-44544825D01*
X79076029Y-44677815D01*
X79080494Y-44684919D01*
X79087638Y-44698337D01*
X79092829Y-44712174D01*
X79095080Y-44727274D01*
X79095080Y-45237986D01*
X79094713Y-45248144D01*
X79092601Y-45262832D01*
X79087980Y-45277058D01*
X79080059Y-45290010D01*
X78973447Y-45415673D01*
X78970580Y-45419536D01*
X78959303Y-45429668D01*
X78945378Y-45435579D01*
X78930582Y-45437288D01*
X78448080Y-45437288D01*
X78448080Y-45295872D01*
X78904570Y-45295872D01*
X78971615Y-45208311D01*
X78971615Y-45057369D01*
X78452477Y-45057369D01*
X78452477Y-44903129D01*
X78573743Y-44903129D01*
X78969417Y-44903129D01*
X78969417Y-44756584D01*
X78900540Y-44669389D01*
X78641521Y-44669389D01*
X78573743Y-44754385D01*
X78573743Y-44903129D01*
X78452477Y-44903129D01*
X78452477Y-44725076D01*
X78452628Y-44719599D01*
X78454898Y-44704211D01*
X78460616Y-44688948D01*
X78469696Y-44675617D01*
X78569713Y-44545191D01*
X78575864Y-44537064D01*
X78587926Y-44525907D01*
X78601263Y-44519213D01*
X78615875Y-44516981D01*
X78925087Y-44516981D01*
X78935362Y-44518314D01*
G37*
G36*
X77778367Y-44281043D02*
G01*
X77839916Y-44359811D01*
X77839916Y-44516981D01*
X77632920Y-44516981D01*
X77632920Y-44669389D01*
X77842114Y-44669389D01*
X77842114Y-45441685D01*
X77966678Y-45441685D01*
X77966678Y-44669389D01*
X78177704Y-44669389D01*
X78177704Y-44516981D01*
X77966678Y-44516981D01*
X77966678Y-44330502D01*
X77965670Y-44315458D01*
X77962128Y-44300231D01*
X77956036Y-44286800D01*
X77950558Y-44278845D01*
X77852372Y-44154281D01*
X77840870Y-44142946D01*
X77828209Y-44135321D01*
X77812782Y-44131200D01*
X77806210Y-44130833D01*
X77530704Y-44130833D01*
X77530704Y-44281043D01*
X77778367Y-44281043D01*
G37*
G36*
X76827651Y-45269860D02*
G01*
X76811165Y-45291475D01*
X76722138Y-45291475D01*
X76722138Y-45441685D01*
X76838276Y-45441685D01*
X76853116Y-45439395D01*
X76866955Y-45432526D01*
X76878554Y-45422428D01*
X76882240Y-45418237D01*
X76934996Y-45352658D01*
X76943851Y-45339833D01*
X76949808Y-45325675D01*
X76952867Y-45310183D01*
X76953314Y-45301001D01*
X76953314Y-44669389D01*
X77164340Y-44669389D01*
X77164340Y-44516981D01*
X76953314Y-44516981D01*
X76953314Y-44130833D01*
X76827651Y-44130833D01*
X76827651Y-44516981D01*
X76617725Y-44516981D01*
X76617725Y-44669389D01*
X76827651Y-44669389D01*
X76827651Y-45269860D01*
G37*
G36*
X80054727Y-42261625D02*
G01*
X79726099Y-42261625D01*
X79726099Y-42411835D01*
X79828681Y-42411835D01*
X79828681Y-43291475D01*
X79726099Y-43291475D01*
X79726099Y-43443883D01*
X80054727Y-43443883D01*
X80054727Y-43291475D01*
X79954344Y-43291475D01*
X79954344Y-42411835D01*
X80054727Y-42411835D01*
X80054727Y-42261625D01*
G37*
G36*
X78830338Y-42752187D02*
G01*
X78898848Y-42667191D01*
X79150174Y-42667191D01*
X79190108Y-42717749D01*
X78720795Y-43176803D01*
X78710857Y-43188596D01*
X78703759Y-43201625D01*
X78699500Y-43215890D01*
X78698080Y-43231392D01*
X78699225Y-43247672D01*
X78702660Y-43262441D01*
X78709261Y-43277250D01*
X78716399Y-43287445D01*
X78824110Y-43418237D01*
X78835525Y-43429572D01*
X78849363Y-43437815D01*
X78864419Y-43441479D01*
X78869173Y-43441685D01*
X79177285Y-43441685D01*
X79192705Y-43439395D01*
X79206909Y-43432526D01*
X79218652Y-43422428D01*
X79222348Y-43418237D01*
X79327861Y-43291475D01*
X79336184Y-43278653D01*
X79341784Y-43264093D01*
X79344659Y-43247793D01*
X79345080Y-43237986D01*
X79345080Y-43166912D01*
X79219417Y-43166912D01*
X79219417Y-43206479D01*
X79150540Y-43291475D01*
X78894818Y-43291475D01*
X78854152Y-43240917D01*
X79320900Y-42784427D01*
X79331025Y-42772485D01*
X79337874Y-42757760D01*
X79342161Y-42741508D01*
X79343981Y-42729839D01*
X79343981Y-42721779D01*
X79342706Y-42706548D01*
X79338298Y-42691121D01*
X79330741Y-42677268D01*
X79327861Y-42673419D01*
X79225279Y-42540429D01*
X79213806Y-42529094D01*
X79201232Y-42521469D01*
X79185969Y-42517348D01*
X79179483Y-42516981D01*
X78872470Y-42516981D01*
X78857629Y-42519271D01*
X78843790Y-42526140D01*
X78832192Y-42536238D01*
X78828506Y-42540429D01*
X78721894Y-42668656D01*
X78712862Y-42681807D01*
X78706786Y-42696116D01*
X78703666Y-42711585D01*
X78703210Y-42720680D01*
X78703210Y-42800181D01*
X78830338Y-42800181D01*
X78830338Y-42752187D01*
G37*
G36*
X78265366Y-42514859D02*
G01*
X78280500Y-42517514D01*
X78293702Y-42523961D01*
X78304972Y-42534200D01*
X78408653Y-42667557D01*
X78413118Y-42674575D01*
X78420262Y-42687856D01*
X78425452Y-42701592D01*
X78427704Y-42716650D01*
X78427704Y-43237986D01*
X78427274Y-43248575D01*
X78424801Y-43263842D01*
X78419392Y-43278554D01*
X78410118Y-43291842D01*
X78304605Y-43414574D01*
X78292426Y-43424427D01*
X78277873Y-43431051D01*
X78262107Y-43433258D01*
X77943370Y-43433258D01*
X77937142Y-43433258D01*
X77922452Y-43431326D01*
X77908854Y-43424738D01*
X77897941Y-43413475D01*
X77798656Y-43289277D01*
X77794449Y-43282625D01*
X77787033Y-43267910D01*
X77782457Y-43253542D01*
X77780704Y-43237986D01*
X77780704Y-43208311D01*
X77906367Y-43208311D01*
X77969382Y-43289277D01*
X78235362Y-43289277D01*
X78302041Y-43208311D01*
X78302041Y-42748157D01*
X78234996Y-42662794D01*
X77968283Y-42662794D01*
X77906367Y-42747791D01*
X77906367Y-43208311D01*
X77780704Y-43208311D01*
X77780704Y-42720680D01*
X77780856Y-42715848D01*
X77783546Y-42700392D01*
X77789600Y-42685938D01*
X77797923Y-42673785D01*
X77892812Y-42540795D01*
X77899085Y-42533301D01*
X77911415Y-42523013D01*
X77925077Y-42516841D01*
X77940073Y-42514783D01*
X78262107Y-42514783D01*
X78265366Y-42514859D01*
G37*
G36*
X77375139Y-43140533D02*
G01*
X77375139Y-43441685D01*
X77506297Y-43441685D01*
X77506297Y-42261625D01*
X77375139Y-42261625D01*
X77375139Y-42921081D01*
X76897400Y-42309619D01*
X76897400Y-42261625D01*
X76772470Y-42261625D01*
X76772470Y-42338928D01*
X76773948Y-42355012D01*
X76778382Y-42369879D01*
X76785772Y-42383529D01*
X76791154Y-42390586D01*
X77152390Y-42851838D01*
X76788956Y-43312725D01*
X76780633Y-43325402D01*
X76775033Y-43339528D01*
X76772157Y-43355103D01*
X76771737Y-43364382D01*
X76771737Y-43441685D01*
X76897400Y-43441685D01*
X76897400Y-43393691D01*
X77239951Y-42959549D01*
X77375139Y-43140533D01*
G37*
G36*
X76433234Y-42518314D02*
G01*
X76447974Y-42524840D01*
X76459818Y-42533976D01*
X76470219Y-42544825D01*
X76573900Y-42677815D01*
X76578365Y-42684919D01*
X76585510Y-42698337D01*
X76590700Y-42712174D01*
X76592951Y-42727274D01*
X76592951Y-43237986D01*
X76592585Y-43248144D01*
X76590472Y-43262832D01*
X76585852Y-43277058D01*
X76577930Y-43290010D01*
X76471318Y-43415673D01*
X76468452Y-43419536D01*
X76457174Y-43429668D01*
X76443250Y-43435579D01*
X76428454Y-43437288D01*
X75945952Y-43437288D01*
X75945952Y-43295872D01*
X76402442Y-43295872D01*
X76469487Y-43208311D01*
X76469487Y-43057369D01*
X75950348Y-43057369D01*
X75950348Y-42903129D01*
X76071615Y-42903129D01*
X76467288Y-42903129D01*
X76467288Y-42756584D01*
X76398412Y-42669389D01*
X76139392Y-42669389D01*
X76071615Y-42754385D01*
X76071615Y-42903129D01*
X75950348Y-42903129D01*
X75950348Y-42725076D01*
X75950500Y-42719599D01*
X75952770Y-42704211D01*
X75958487Y-42688948D01*
X75967568Y-42675617D01*
X76067585Y-42545191D01*
X76073735Y-42537064D01*
X76085797Y-42525907D01*
X76099135Y-42519213D01*
X76113747Y-42516981D01*
X76422958Y-42516981D01*
X76433234Y-42518314D01*
G37*
G36*
X75388712Y-43368778D02*
G01*
X75658356Y-43032090D01*
X75666680Y-43019412D01*
X75672279Y-43005286D01*
X75675155Y-42989711D01*
X75675575Y-42980432D01*
X75675575Y-42516981D01*
X75549912Y-42516981D01*
X75549912Y-42951123D01*
X75300785Y-43259235D01*
X75156437Y-43081915D01*
X75156437Y-42516981D01*
X75030774Y-42516981D01*
X75030774Y-43111224D01*
X75031850Y-43125856D01*
X75035634Y-43140948D01*
X75042141Y-43154591D01*
X75047993Y-43162882D01*
X75582519Y-43821971D01*
X75669347Y-43714626D01*
X75388712Y-43368778D01*
G37*
G36*
X73715160Y-42705659D02*
G01*
X73469330Y-43217103D01*
X73219469Y-42699431D01*
X73219469Y-42519180D01*
X73093440Y-42519180D01*
X73093440Y-42718848D01*
X73094710Y-42733494D01*
X73098519Y-42748262D01*
X73101133Y-42755118D01*
X73414375Y-43405415D01*
X73422112Y-43418488D01*
X73432635Y-43430321D01*
X73446637Y-43439337D01*
X73462746Y-43443545D01*
X73469330Y-43443883D01*
X73484231Y-43442042D01*
X73499286Y-43435430D01*
X73510732Y-43425701D01*
X73520564Y-43412289D01*
X73524284Y-43405415D01*
X73833496Y-42761346D01*
X73838240Y-42746523D01*
X73840565Y-42731821D01*
X73840823Y-42725076D01*
X73840823Y-42519180D01*
X73715160Y-42519180D01*
X73715160Y-42705659D01*
G37*
G36*
X72184856Y-42128635D02*
G01*
X72184856Y-42278845D01*
X72794487Y-42278845D01*
X72794487Y-42514783D01*
X72452669Y-42514783D01*
X72437406Y-42517073D01*
X72423216Y-42523942D01*
X72411364Y-42534040D01*
X72407606Y-42538230D01*
X72202442Y-42791388D01*
X72193168Y-42803989D01*
X72187759Y-42818083D01*
X72185286Y-42832801D01*
X72184856Y-42843046D01*
X72184856Y-43109026D01*
X72185933Y-43123658D01*
X72189716Y-43138750D01*
X72196224Y-43152393D01*
X72202076Y-43160683D01*
X72408339Y-43415673D01*
X72417944Y-43427184D01*
X72431811Y-43435556D01*
X72447168Y-43439115D01*
X72454867Y-43439487D01*
X72913921Y-43439487D01*
X72913921Y-43289277D01*
X72479413Y-43289277D01*
X72308321Y-43077519D01*
X72308321Y-42872721D01*
X72477215Y-42664993D01*
X72919417Y-42664993D01*
X72919417Y-42128635D01*
X72184856Y-42128635D01*
G37*
G36*
X70573953Y-42752187D02*
G01*
X70642463Y-42667191D01*
X70893789Y-42667191D01*
X70933722Y-42717749D01*
X70464410Y-43176803D01*
X70454472Y-43188596D01*
X70447374Y-43201625D01*
X70443115Y-43215890D01*
X70441695Y-43231392D01*
X70442840Y-43247672D01*
X70446275Y-43262441D01*
X70452876Y-43277250D01*
X70460013Y-43287445D01*
X70567725Y-43418237D01*
X70579139Y-43429572D01*
X70592978Y-43437815D01*
X70608034Y-43441479D01*
X70612787Y-43441685D01*
X70920900Y-43441685D01*
X70936320Y-43439395D01*
X70950524Y-43432526D01*
X70962267Y-43422428D01*
X70965963Y-43418237D01*
X71071475Y-43291475D01*
X71079799Y-43278653D01*
X71085399Y-43264093D01*
X71088274Y-43247793D01*
X71088695Y-43237986D01*
X71088695Y-43166912D01*
X70963032Y-43166912D01*
X70963032Y-43206479D01*
X70894155Y-43291475D01*
X70638433Y-43291475D01*
X70597766Y-43240917D01*
X71064514Y-42784427D01*
X71074640Y-42772485D01*
X71081489Y-42757760D01*
X71085776Y-42741508D01*
X71087595Y-42729839D01*
X71087595Y-42721779D01*
X71086320Y-42706548D01*
X71081913Y-42691121D01*
X71074356Y-42677268D01*
X71071475Y-42673419D01*
X70968893Y-42540429D01*
X70957421Y-42529094D01*
X70944846Y-42521469D01*
X70929584Y-42517348D01*
X70923098Y-42516981D01*
X70616085Y-42516981D01*
X70601244Y-42519271D01*
X70587405Y-42526140D01*
X70575807Y-42536238D01*
X70572121Y-42540429D01*
X70465509Y-42668656D01*
X70456477Y-42681807D01*
X70450401Y-42696116D01*
X70447280Y-42711585D01*
X70446824Y-42720680D01*
X70446824Y-42800181D01*
X70573953Y-42800181D01*
X70573953Y-42752187D01*
G37*
G36*
X70171318Y-43827833D02*
G01*
X70045655Y-43827833D01*
X70045655Y-43439487D01*
X69791399Y-43439487D01*
X69786350Y-43439277D01*
X69771008Y-43435556D01*
X69757956Y-43427184D01*
X69748168Y-43415673D01*
X69542637Y-43160683D01*
X69537360Y-43153626D01*
X69530115Y-43139977D01*
X69525768Y-43125110D01*
X69524319Y-43109026D01*
X69524319Y-43079717D01*
X69649249Y-43079717D01*
X69819242Y-43291475D01*
X70045655Y-43291475D01*
X70045655Y-42669389D01*
X69808618Y-42669389D01*
X69649249Y-42856235D01*
X69649249Y-43079717D01*
X69524319Y-43079717D01*
X69524319Y-42826193D01*
X69524757Y-42818855D01*
X69528264Y-42803427D01*
X69534417Y-42788686D01*
X69542271Y-42774902D01*
X69752564Y-42525774D01*
X69755941Y-42522080D01*
X69769508Y-42514755D01*
X69784071Y-42512951D01*
X70171318Y-42512951D01*
X70171318Y-43827833D01*
G37*
G36*
X68821266Y-43269860D02*
G01*
X68804780Y-43291475D01*
X68715753Y-43291475D01*
X68715753Y-43441685D01*
X68831891Y-43441685D01*
X68846731Y-43439395D01*
X68860570Y-43432526D01*
X68872169Y-43422428D01*
X68875854Y-43418237D01*
X68928611Y-43352658D01*
X68937466Y-43339833D01*
X68943423Y-43325675D01*
X68946482Y-43310183D01*
X68946929Y-43301001D01*
X68946929Y-42130833D01*
X68821266Y-42130833D01*
X68821266Y-43269860D01*
G37*
G36*
X68029553Y-42130833D02*
G01*
X67902791Y-42130833D01*
X67902791Y-42283241D01*
X68029553Y-42283241D01*
X68029553Y-42130833D01*
G37*
G36*
X68029553Y-42516981D02*
G01*
X67902791Y-42516981D01*
X67902791Y-43441685D01*
X68029553Y-43441685D01*
X68029553Y-42516981D01*
G37*
G36*
X66986514Y-43269860D02*
G01*
X66970027Y-43291475D01*
X66881001Y-43291475D01*
X66881001Y-43441685D01*
X66997138Y-43441685D01*
X67011979Y-43439395D01*
X67025818Y-43432526D01*
X67037416Y-43422428D01*
X67041102Y-43418237D01*
X67093859Y-43352658D01*
X67102714Y-43339833D01*
X67108671Y-43325675D01*
X67111730Y-43310183D01*
X67112177Y-43301001D01*
X67112177Y-42669389D01*
X67323203Y-42669389D01*
X67323203Y-42516981D01*
X67112177Y-42516981D01*
X67112177Y-42130833D01*
X66986514Y-42130833D01*
X66986514Y-42516981D01*
X66776587Y-42516981D01*
X66776587Y-42669389D01*
X66986514Y-42669389D01*
X66986514Y-43269860D01*
G37*
D11*
X98752282Y-51817200D02*
X98609425Y-51864819D01*
X98609425Y-51864819D02*
X98371330Y-51864819D01*
X98371330Y-51864819D02*
X98276092Y-51817200D01*
X98276092Y-51817200D02*
X98228473Y-51769580D01*
X98228473Y-51769580D02*
X98180854Y-51674342D01*
X98180854Y-51674342D02*
X98180854Y-51579104D01*
X98180854Y-51579104D02*
X98228473Y-51483866D01*
X98228473Y-51483866D02*
X98276092Y-51436247D01*
X98276092Y-51436247D02*
X98371330Y-51388628D01*
X98371330Y-51388628D02*
X98561806Y-51341009D01*
X98561806Y-51341009D02*
X98657044Y-51293390D01*
X98657044Y-51293390D02*
X98704663Y-51245771D01*
X98704663Y-51245771D02*
X98752282Y-51150533D01*
X98752282Y-51150533D02*
X98752282Y-51055295D01*
X98752282Y-51055295D02*
X98704663Y-50960057D01*
X98704663Y-50960057D02*
X98657044Y-50912438D01*
X98657044Y-50912438D02*
X98561806Y-50864819D01*
X98561806Y-50864819D02*
X98323711Y-50864819D01*
X98323711Y-50864819D02*
X98180854Y-50912438D01*
X97847520Y-50864819D02*
X97609425Y-51864819D01*
X97609425Y-51864819D02*
X97418949Y-51150533D01*
X97418949Y-51150533D02*
X97228473Y-51864819D01*
X97228473Y-51864819D02*
X96990378Y-50864819D01*
X96704663Y-50864819D02*
X96085616Y-50864819D01*
X96085616Y-50864819D02*
X96418949Y-51245771D01*
X96418949Y-51245771D02*
X96276092Y-51245771D01*
X96276092Y-51245771D02*
X96180854Y-51293390D01*
X96180854Y-51293390D02*
X96133235Y-51341009D01*
X96133235Y-51341009D02*
X96085616Y-51436247D01*
X96085616Y-51436247D02*
X96085616Y-51674342D01*
X96085616Y-51674342D02*
X96133235Y-51769580D01*
X96133235Y-51769580D02*
X96180854Y-51817200D01*
X96180854Y-51817200D02*
X96276092Y-51864819D01*
X96276092Y-51864819D02*
X96561806Y-51864819D01*
X96561806Y-51864819D02*
X96657044Y-51817200D01*
X96657044Y-51817200D02*
X96704663Y-51769580D01*
D12*
X101165248Y-140911980D02*
X101498581Y-140388171D01*
X101736676Y-140911980D02*
X101736676Y-139811980D01*
X101736676Y-139811980D02*
X101355724Y-139811980D01*
X101355724Y-139811980D02*
X101260486Y-139864361D01*
X101260486Y-139864361D02*
X101212867Y-139916742D01*
X101212867Y-139916742D02*
X101165248Y-140021504D01*
X101165248Y-140021504D02*
X101165248Y-140178647D01*
X101165248Y-140178647D02*
X101212867Y-140283409D01*
X101212867Y-140283409D02*
X101260486Y-140335790D01*
X101260486Y-140335790D02*
X101355724Y-140388171D01*
X101355724Y-140388171D02*
X101736676Y-140388171D01*
X100546200Y-139811980D02*
X100450962Y-139811980D01*
X100450962Y-139811980D02*
X100355724Y-139864361D01*
X100355724Y-139864361D02*
X100308105Y-139916742D01*
X100308105Y-139916742D02*
X100260486Y-140021504D01*
X100260486Y-140021504D02*
X100212867Y-140231028D01*
X100212867Y-140231028D02*
X100212867Y-140492933D01*
X100212867Y-140492933D02*
X100260486Y-140702457D01*
X100260486Y-140702457D02*
X100308105Y-140807219D01*
X100308105Y-140807219D02*
X100355724Y-140859600D01*
X100355724Y-140859600D02*
X100450962Y-140911980D01*
X100450962Y-140911980D02*
X100546200Y-140911980D01*
X100546200Y-140911980D02*
X100641438Y-140859600D01*
X100641438Y-140859600D02*
X100689057Y-140807219D01*
X100689057Y-140807219D02*
X100736676Y-140702457D01*
X100736676Y-140702457D02*
X100784295Y-140492933D01*
X100784295Y-140492933D02*
X100784295Y-140231028D01*
X100784295Y-140231028D02*
X100736676Y-140021504D01*
X100736676Y-140021504D02*
X100689057Y-139916742D01*
X100689057Y-139916742D02*
X100641438Y-139864361D01*
X100641438Y-139864361D02*
X100546200Y-139811980D01*
X103165248Y-146661980D02*
X103498581Y-146138171D01*
X103736676Y-146661980D02*
X103736676Y-145561980D01*
X103736676Y-145561980D02*
X103355724Y-145561980D01*
X103355724Y-145561980D02*
X103260486Y-145614361D01*
X103260486Y-145614361D02*
X103212867Y-145666742D01*
X103212867Y-145666742D02*
X103165248Y-145771504D01*
X103165248Y-145771504D02*
X103165248Y-145928647D01*
X103165248Y-145928647D02*
X103212867Y-146033409D01*
X103212867Y-146033409D02*
X103260486Y-146085790D01*
X103260486Y-146085790D02*
X103355724Y-146138171D01*
X103355724Y-146138171D02*
X103736676Y-146138171D01*
X102308105Y-145928647D02*
X102308105Y-146661980D01*
X102546200Y-145509600D02*
X102784295Y-146295314D01*
X102784295Y-146295314D02*
X102165248Y-146295314D01*
D11*
X94465273Y-70867500D02*
X94322416Y-70915119D01*
X94322416Y-70915119D02*
X94084321Y-70915119D01*
X94084321Y-70915119D02*
X93989083Y-70867500D01*
X93989083Y-70867500D02*
X93941464Y-70819880D01*
X93941464Y-70819880D02*
X93893845Y-70724642D01*
X93893845Y-70724642D02*
X93893845Y-70629404D01*
X93893845Y-70629404D02*
X93941464Y-70534166D01*
X93941464Y-70534166D02*
X93989083Y-70486547D01*
X93989083Y-70486547D02*
X94084321Y-70438928D01*
X94084321Y-70438928D02*
X94274797Y-70391309D01*
X94274797Y-70391309D02*
X94370035Y-70343690D01*
X94370035Y-70343690D02*
X94417654Y-70296071D01*
X94417654Y-70296071D02*
X94465273Y-70200833D01*
X94465273Y-70200833D02*
X94465273Y-70105595D01*
X94465273Y-70105595D02*
X94417654Y-70010357D01*
X94417654Y-70010357D02*
X94370035Y-69962738D01*
X94370035Y-69962738D02*
X94274797Y-69915119D01*
X94274797Y-69915119D02*
X94036702Y-69915119D01*
X94036702Y-69915119D02*
X93893845Y-69962738D01*
X93560511Y-69915119D02*
X93322416Y-70915119D01*
X93322416Y-70915119D02*
X93131940Y-70200833D01*
X93131940Y-70200833D02*
X92941464Y-70915119D01*
X92941464Y-70915119D02*
X92703369Y-69915119D01*
X91798607Y-70915119D02*
X92370035Y-70915119D01*
X92084321Y-70915119D02*
X92084321Y-69915119D01*
X92084321Y-69915119D02*
X92179559Y-70057976D01*
X92179559Y-70057976D02*
X92274797Y-70153214D01*
X92274797Y-70153214D02*
X92370035Y-70200833D01*
X91465273Y-69915119D02*
X90846226Y-69915119D01*
X90846226Y-69915119D02*
X91179559Y-70296071D01*
X91179559Y-70296071D02*
X91036702Y-70296071D01*
X91036702Y-70296071D02*
X90941464Y-70343690D01*
X90941464Y-70343690D02*
X90893845Y-70391309D01*
X90893845Y-70391309D02*
X90846226Y-70486547D01*
X90846226Y-70486547D02*
X90846226Y-70724642D01*
X90846226Y-70724642D02*
X90893845Y-70819880D01*
X90893845Y-70819880D02*
X90941464Y-70867500D01*
X90941464Y-70867500D02*
X91036702Y-70915119D01*
X91036702Y-70915119D02*
X91322416Y-70915119D01*
X91322416Y-70915119D02*
X91417654Y-70867500D01*
X91417654Y-70867500D02*
X91465273Y-70819880D01*
X91607773Y-89917500D02*
X91464916Y-89965119D01*
X91464916Y-89965119D02*
X91226821Y-89965119D01*
X91226821Y-89965119D02*
X91131583Y-89917500D01*
X91131583Y-89917500D02*
X91083964Y-89869880D01*
X91083964Y-89869880D02*
X91036345Y-89774642D01*
X91036345Y-89774642D02*
X91036345Y-89679404D01*
X91036345Y-89679404D02*
X91083964Y-89584166D01*
X91083964Y-89584166D02*
X91131583Y-89536547D01*
X91131583Y-89536547D02*
X91226821Y-89488928D01*
X91226821Y-89488928D02*
X91417297Y-89441309D01*
X91417297Y-89441309D02*
X91512535Y-89393690D01*
X91512535Y-89393690D02*
X91560154Y-89346071D01*
X91560154Y-89346071D02*
X91607773Y-89250833D01*
X91607773Y-89250833D02*
X91607773Y-89155595D01*
X91607773Y-89155595D02*
X91560154Y-89060357D01*
X91560154Y-89060357D02*
X91512535Y-89012738D01*
X91512535Y-89012738D02*
X91417297Y-88965119D01*
X91417297Y-88965119D02*
X91179202Y-88965119D01*
X91179202Y-88965119D02*
X91036345Y-89012738D01*
X90703011Y-88965119D02*
X90464916Y-89965119D01*
X90464916Y-89965119D02*
X90274440Y-89250833D01*
X90274440Y-89250833D02*
X90083964Y-89965119D01*
X90083964Y-89965119D02*
X89845869Y-88965119D01*
X89512535Y-89060357D02*
X89464916Y-89012738D01*
X89464916Y-89012738D02*
X89369678Y-88965119D01*
X89369678Y-88965119D02*
X89131583Y-88965119D01*
X89131583Y-88965119D02*
X89036345Y-89012738D01*
X89036345Y-89012738D02*
X88988726Y-89060357D01*
X88988726Y-89060357D02*
X88941107Y-89155595D01*
X88941107Y-89155595D02*
X88941107Y-89250833D01*
X88941107Y-89250833D02*
X88988726Y-89393690D01*
X88988726Y-89393690D02*
X89560154Y-89965119D01*
X89560154Y-89965119D02*
X88941107Y-89965119D01*
X88607773Y-88965119D02*
X87988726Y-88965119D01*
X87988726Y-88965119D02*
X88322059Y-89346071D01*
X88322059Y-89346071D02*
X88179202Y-89346071D01*
X88179202Y-89346071D02*
X88083964Y-89393690D01*
X88083964Y-89393690D02*
X88036345Y-89441309D01*
X88036345Y-89441309D02*
X87988726Y-89536547D01*
X87988726Y-89536547D02*
X87988726Y-89774642D01*
X87988726Y-89774642D02*
X88036345Y-89869880D01*
X88036345Y-89869880D02*
X88083964Y-89917500D01*
X88083964Y-89917500D02*
X88179202Y-89965119D01*
X88179202Y-89965119D02*
X88464916Y-89965119D01*
X88464916Y-89965119D02*
X88560154Y-89917500D01*
X88560154Y-89917500D02*
X88607773Y-89869880D01*
D12*
X104081914Y-136561980D02*
X103843819Y-137661980D01*
X103843819Y-137661980D02*
X103653343Y-136876266D01*
X103653343Y-136876266D02*
X103462867Y-137661980D01*
X103462867Y-137661980D02*
X103224772Y-136561980D01*
X102320010Y-137661980D02*
X102891438Y-137661980D01*
X102605724Y-137661980D02*
X102605724Y-136561980D01*
X102605724Y-136561980D02*
X102700962Y-136719123D01*
X102700962Y-136719123D02*
X102796200Y-136823885D01*
X102796200Y-136823885D02*
X102891438Y-136876266D01*
X104486676Y-139161980D02*
X104486676Y-138061980D01*
X104010486Y-139161980D02*
X104010486Y-138061980D01*
X104010486Y-138061980D02*
X103772391Y-138061980D01*
X103772391Y-138061980D02*
X103629534Y-138114361D01*
X103629534Y-138114361D02*
X103534296Y-138219123D01*
X103534296Y-138219123D02*
X103486677Y-138323885D01*
X103486677Y-138323885D02*
X103439058Y-138533409D01*
X103439058Y-138533409D02*
X103439058Y-138690552D01*
X103439058Y-138690552D02*
X103486677Y-138900076D01*
X103486677Y-138900076D02*
X103534296Y-139004838D01*
X103534296Y-139004838D02*
X103629534Y-139109600D01*
X103629534Y-139109600D02*
X103772391Y-139161980D01*
X103772391Y-139161980D02*
X104010486Y-139161980D01*
D11*
X74939682Y-48959200D02*
X74796825Y-49006819D01*
X74796825Y-49006819D02*
X74558730Y-49006819D01*
X74558730Y-49006819D02*
X74463492Y-48959200D01*
X74463492Y-48959200D02*
X74415873Y-48911580D01*
X74415873Y-48911580D02*
X74368254Y-48816342D01*
X74368254Y-48816342D02*
X74368254Y-48721104D01*
X74368254Y-48721104D02*
X74415873Y-48625866D01*
X74415873Y-48625866D02*
X74463492Y-48578247D01*
X74463492Y-48578247D02*
X74558730Y-48530628D01*
X74558730Y-48530628D02*
X74749206Y-48483009D01*
X74749206Y-48483009D02*
X74844444Y-48435390D01*
X74844444Y-48435390D02*
X74892063Y-48387771D01*
X74892063Y-48387771D02*
X74939682Y-48292533D01*
X74939682Y-48292533D02*
X74939682Y-48197295D01*
X74939682Y-48197295D02*
X74892063Y-48102057D01*
X74892063Y-48102057D02*
X74844444Y-48054438D01*
X74844444Y-48054438D02*
X74749206Y-48006819D01*
X74749206Y-48006819D02*
X74511111Y-48006819D01*
X74511111Y-48006819D02*
X74368254Y-48054438D01*
X74034920Y-48006819D02*
X73796825Y-49006819D01*
X73796825Y-49006819D02*
X73606349Y-48292533D01*
X73606349Y-48292533D02*
X73415873Y-49006819D01*
X73415873Y-49006819D02*
X73177778Y-48006819D01*
X72273016Y-49006819D02*
X72844444Y-49006819D01*
X72558730Y-49006819D02*
X72558730Y-48006819D01*
X72558730Y-48006819D02*
X72653968Y-48149676D01*
X72653968Y-48149676D02*
X72749206Y-48244914D01*
X72749206Y-48244914D02*
X72844444Y-48292533D01*
D12*
X103212867Y-69064361D02*
X103308105Y-69011980D01*
X103308105Y-69011980D02*
X103450962Y-69011980D01*
X103450962Y-69011980D02*
X103593819Y-69064361D01*
X103593819Y-69064361D02*
X103689057Y-69169123D01*
X103689057Y-69169123D02*
X103736676Y-69273885D01*
X103736676Y-69273885D02*
X103784295Y-69483409D01*
X103784295Y-69483409D02*
X103784295Y-69640552D01*
X103784295Y-69640552D02*
X103736676Y-69850076D01*
X103736676Y-69850076D02*
X103689057Y-69954838D01*
X103689057Y-69954838D02*
X103593819Y-70059600D01*
X103593819Y-70059600D02*
X103450962Y-70111980D01*
X103450962Y-70111980D02*
X103355724Y-70111980D01*
X103355724Y-70111980D02*
X103212867Y-70059600D01*
X103212867Y-70059600D02*
X103165248Y-70007219D01*
X103165248Y-70007219D02*
X103165248Y-69640552D01*
X103165248Y-69640552D02*
X103355724Y-69640552D01*
X102736676Y-70111980D02*
X102736676Y-69011980D01*
X102736676Y-69011980D02*
X102165248Y-70111980D01*
X102165248Y-70111980D02*
X102165248Y-69011980D01*
X101689057Y-70111980D02*
X101689057Y-69011980D01*
X101689057Y-69011980D02*
X101450962Y-69011980D01*
X101450962Y-69011980D02*
X101308105Y-69064361D01*
X101308105Y-69064361D02*
X101212867Y-69169123D01*
X101212867Y-69169123D02*
X101165248Y-69273885D01*
X101165248Y-69273885D02*
X101117629Y-69483409D01*
X101117629Y-69483409D02*
X101117629Y-69640552D01*
X101117629Y-69640552D02*
X101165248Y-69850076D01*
X101165248Y-69850076D02*
X101212867Y-69954838D01*
X101212867Y-69954838D02*
X101308105Y-70059600D01*
X101308105Y-70059600D02*
X101450962Y-70111980D01*
X101450962Y-70111980D02*
X101689057Y-70111980D01*
D11*
X96847223Y-130875600D02*
X96704366Y-130923219D01*
X96704366Y-130923219D02*
X96466271Y-130923219D01*
X96466271Y-130923219D02*
X96371033Y-130875600D01*
X96371033Y-130875600D02*
X96323414Y-130827980D01*
X96323414Y-130827980D02*
X96275795Y-130732742D01*
X96275795Y-130732742D02*
X96275795Y-130637504D01*
X96275795Y-130637504D02*
X96323414Y-130542266D01*
X96323414Y-130542266D02*
X96371033Y-130494647D01*
X96371033Y-130494647D02*
X96466271Y-130447028D01*
X96466271Y-130447028D02*
X96656747Y-130399409D01*
X96656747Y-130399409D02*
X96751985Y-130351790D01*
X96751985Y-130351790D02*
X96799604Y-130304171D01*
X96799604Y-130304171D02*
X96847223Y-130208933D01*
X96847223Y-130208933D02*
X96847223Y-130113695D01*
X96847223Y-130113695D02*
X96799604Y-130018457D01*
X96799604Y-130018457D02*
X96751985Y-129970838D01*
X96751985Y-129970838D02*
X96656747Y-129923219D01*
X96656747Y-129923219D02*
X96418652Y-129923219D01*
X96418652Y-129923219D02*
X96275795Y-129970838D01*
X95942461Y-129923219D02*
X95704366Y-130923219D01*
X95704366Y-130923219D02*
X95513890Y-130208933D01*
X95513890Y-130208933D02*
X95323414Y-130923219D01*
X95323414Y-130923219D02*
X95085319Y-129923219D01*
X94275795Y-130256552D02*
X94275795Y-130923219D01*
X94513890Y-129875600D02*
X94751985Y-130589885D01*
X94751985Y-130589885D02*
X94132938Y-130589885D01*
X93228176Y-130923219D02*
X93799604Y-130923219D01*
X93513890Y-130923219D02*
X93513890Y-129923219D01*
X93513890Y-129923219D02*
X93609128Y-130066076D01*
X93609128Y-130066076D02*
X93704366Y-130161314D01*
X93704366Y-130161314D02*
X93799604Y-130208933D01*
X96847223Y-108967500D02*
X96704366Y-109015119D01*
X96704366Y-109015119D02*
X96466271Y-109015119D01*
X96466271Y-109015119D02*
X96371033Y-108967500D01*
X96371033Y-108967500D02*
X96323414Y-108919880D01*
X96323414Y-108919880D02*
X96275795Y-108824642D01*
X96275795Y-108824642D02*
X96275795Y-108729404D01*
X96275795Y-108729404D02*
X96323414Y-108634166D01*
X96323414Y-108634166D02*
X96371033Y-108586547D01*
X96371033Y-108586547D02*
X96466271Y-108538928D01*
X96466271Y-108538928D02*
X96656747Y-108491309D01*
X96656747Y-108491309D02*
X96751985Y-108443690D01*
X96751985Y-108443690D02*
X96799604Y-108396071D01*
X96799604Y-108396071D02*
X96847223Y-108300833D01*
X96847223Y-108300833D02*
X96847223Y-108205595D01*
X96847223Y-108205595D02*
X96799604Y-108110357D01*
X96799604Y-108110357D02*
X96751985Y-108062738D01*
X96751985Y-108062738D02*
X96656747Y-108015119D01*
X96656747Y-108015119D02*
X96418652Y-108015119D01*
X96418652Y-108015119D02*
X96275795Y-108062738D01*
X95942461Y-108015119D02*
X95704366Y-109015119D01*
X95704366Y-109015119D02*
X95513890Y-108300833D01*
X95513890Y-108300833D02*
X95323414Y-109015119D01*
X95323414Y-109015119D02*
X95085319Y-108015119D01*
X94799604Y-108015119D02*
X94180557Y-108015119D01*
X94180557Y-108015119D02*
X94513890Y-108396071D01*
X94513890Y-108396071D02*
X94371033Y-108396071D01*
X94371033Y-108396071D02*
X94275795Y-108443690D01*
X94275795Y-108443690D02*
X94228176Y-108491309D01*
X94228176Y-108491309D02*
X94180557Y-108586547D01*
X94180557Y-108586547D02*
X94180557Y-108824642D01*
X94180557Y-108824642D02*
X94228176Y-108919880D01*
X94228176Y-108919880D02*
X94275795Y-108967500D01*
X94275795Y-108967500D02*
X94371033Y-109015119D01*
X94371033Y-109015119D02*
X94656747Y-109015119D01*
X94656747Y-109015119D02*
X94751985Y-108967500D01*
X94751985Y-108967500D02*
X94799604Y-108919880D01*
X93847223Y-108015119D02*
X93228176Y-108015119D01*
X93228176Y-108015119D02*
X93561509Y-108396071D01*
X93561509Y-108396071D02*
X93418652Y-108396071D01*
X93418652Y-108396071D02*
X93323414Y-108443690D01*
X93323414Y-108443690D02*
X93275795Y-108491309D01*
X93275795Y-108491309D02*
X93228176Y-108586547D01*
X93228176Y-108586547D02*
X93228176Y-108824642D01*
X93228176Y-108824642D02*
X93275795Y-108919880D01*
X93275795Y-108919880D02*
X93323414Y-108967500D01*
X93323414Y-108967500D02*
X93418652Y-109015119D01*
X93418652Y-109015119D02*
X93704366Y-109015119D01*
X93704366Y-109015119D02*
X93799604Y-108967500D01*
X93799604Y-108967500D02*
X93847223Y-108919880D01*
D12*
X103665248Y-136057219D02*
X103712867Y-136109600D01*
X103712867Y-136109600D02*
X103855724Y-136161980D01*
X103855724Y-136161980D02*
X103950962Y-136161980D01*
X103950962Y-136161980D02*
X104093819Y-136109600D01*
X104093819Y-136109600D02*
X104189057Y-136004838D01*
X104189057Y-136004838D02*
X104236676Y-135900076D01*
X104236676Y-135900076D02*
X104284295Y-135690552D01*
X104284295Y-135690552D02*
X104284295Y-135533409D01*
X104284295Y-135533409D02*
X104236676Y-135323885D01*
X104236676Y-135323885D02*
X104189057Y-135219123D01*
X104189057Y-135219123D02*
X104093819Y-135114361D01*
X104093819Y-135114361D02*
X103950962Y-135061980D01*
X103950962Y-135061980D02*
X103855724Y-135061980D01*
X103855724Y-135061980D02*
X103712867Y-135114361D01*
X103712867Y-135114361D02*
X103665248Y-135166742D01*
X102760486Y-136161980D02*
X103236676Y-136161980D01*
X103236676Y-136161980D02*
X103236676Y-135061980D01*
X101903343Y-136161980D02*
X102474771Y-136161980D01*
X102189057Y-136161980D02*
X102189057Y-135061980D01*
X102189057Y-135061980D02*
X102284295Y-135219123D01*
X102284295Y-135219123D02*
X102379533Y-135323885D01*
X102379533Y-135323885D02*
X102474771Y-135376266D01*
X101284295Y-135061980D02*
X101189057Y-135061980D01*
X101189057Y-135061980D02*
X101093819Y-135114361D01*
X101093819Y-135114361D02*
X101046200Y-135166742D01*
X101046200Y-135166742D02*
X100998581Y-135271504D01*
X100998581Y-135271504D02*
X100950962Y-135481028D01*
X100950962Y-135481028D02*
X100950962Y-135742933D01*
X100950962Y-135742933D02*
X100998581Y-135952457D01*
X100998581Y-135952457D02*
X101046200Y-136057219D01*
X101046200Y-136057219D02*
X101093819Y-136109600D01*
X101093819Y-136109600D02*
X101189057Y-136161980D01*
X101189057Y-136161980D02*
X101284295Y-136161980D01*
X101284295Y-136161980D02*
X101379533Y-136109600D01*
X101379533Y-136109600D02*
X101427152Y-136057219D01*
X101427152Y-136057219D02*
X101474771Y-135952457D01*
X101474771Y-135952457D02*
X101522390Y-135742933D01*
X101522390Y-135742933D02*
X101522390Y-135481028D01*
X101522390Y-135481028D02*
X101474771Y-135271504D01*
X101474771Y-135271504D02*
X101427152Y-135166742D01*
X101427152Y-135166742D02*
X101379533Y-135114361D01*
X101379533Y-135114361D02*
X101284295Y-135061980D01*
X103165248Y-129807219D02*
X103212867Y-129859600D01*
X103212867Y-129859600D02*
X103355724Y-129911980D01*
X103355724Y-129911980D02*
X103450962Y-129911980D01*
X103450962Y-129911980D02*
X103593819Y-129859600D01*
X103593819Y-129859600D02*
X103689057Y-129754838D01*
X103689057Y-129754838D02*
X103736676Y-129650076D01*
X103736676Y-129650076D02*
X103784295Y-129440552D01*
X103784295Y-129440552D02*
X103784295Y-129283409D01*
X103784295Y-129283409D02*
X103736676Y-129073885D01*
X103736676Y-129073885D02*
X103689057Y-128969123D01*
X103689057Y-128969123D02*
X103593819Y-128864361D01*
X103593819Y-128864361D02*
X103450962Y-128811980D01*
X103450962Y-128811980D02*
X103355724Y-128811980D01*
X103355724Y-128811980D02*
X103212867Y-128864361D01*
X103212867Y-128864361D02*
X103165248Y-128916742D01*
X102260486Y-129911980D02*
X102736676Y-129911980D01*
X102736676Y-129911980D02*
X102736676Y-128811980D01*
X102022390Y-128811980D02*
X101355724Y-128811980D01*
X101355724Y-128811980D02*
X101784295Y-129911980D01*
X103165248Y-145161980D02*
X103498581Y-144638171D01*
X103736676Y-145161980D02*
X103736676Y-144061980D01*
X103736676Y-144061980D02*
X103355724Y-144061980D01*
X103355724Y-144061980D02*
X103260486Y-144114361D01*
X103260486Y-144114361D02*
X103212867Y-144166742D01*
X103212867Y-144166742D02*
X103165248Y-144271504D01*
X103165248Y-144271504D02*
X103165248Y-144428647D01*
X103165248Y-144428647D02*
X103212867Y-144533409D01*
X103212867Y-144533409D02*
X103260486Y-144585790D01*
X103260486Y-144585790D02*
X103355724Y-144638171D01*
X103355724Y-144638171D02*
X103736676Y-144638171D01*
X102831914Y-144061980D02*
X102212867Y-144061980D01*
X102212867Y-144061980D02*
X102546200Y-144481028D01*
X102546200Y-144481028D02*
X102403343Y-144481028D01*
X102403343Y-144481028D02*
X102308105Y-144533409D01*
X102308105Y-144533409D02*
X102260486Y-144585790D01*
X102260486Y-144585790D02*
X102212867Y-144690552D01*
X102212867Y-144690552D02*
X102212867Y-144952457D01*
X102212867Y-144952457D02*
X102260486Y-145057219D01*
X102260486Y-145057219D02*
X102308105Y-145109600D01*
X102308105Y-145109600D02*
X102403343Y-145161980D01*
X102403343Y-145161980D02*
X102689057Y-145161980D01*
X102689057Y-145161980D02*
X102784295Y-145109600D01*
X102784295Y-145109600D02*
X102831914Y-145057219D01*
X103212867Y-87987200D02*
X103308105Y-87934819D01*
X103308105Y-87934819D02*
X103450962Y-87934819D01*
X103450962Y-87934819D02*
X103593819Y-87987200D01*
X103593819Y-87987200D02*
X103689057Y-88091962D01*
X103689057Y-88091962D02*
X103736676Y-88196724D01*
X103736676Y-88196724D02*
X103784295Y-88406248D01*
X103784295Y-88406248D02*
X103784295Y-88563391D01*
X103784295Y-88563391D02*
X103736676Y-88772915D01*
X103736676Y-88772915D02*
X103689057Y-88877677D01*
X103689057Y-88877677D02*
X103593819Y-88982439D01*
X103593819Y-88982439D02*
X103450962Y-89034819D01*
X103450962Y-89034819D02*
X103355724Y-89034819D01*
X103355724Y-89034819D02*
X103212867Y-88982439D01*
X103212867Y-88982439D02*
X103165248Y-88930058D01*
X103165248Y-88930058D02*
X103165248Y-88563391D01*
X103165248Y-88563391D02*
X103355724Y-88563391D01*
X102736676Y-89034819D02*
X102736676Y-87934819D01*
X102736676Y-87934819D02*
X102165248Y-89034819D01*
X102165248Y-89034819D02*
X102165248Y-87934819D01*
X101689057Y-89034819D02*
X101689057Y-87934819D01*
X101689057Y-87934819D02*
X101450962Y-87934819D01*
X101450962Y-87934819D02*
X101308105Y-87987200D01*
X101308105Y-87987200D02*
X101212867Y-88091962D01*
X101212867Y-88091962D02*
X101165248Y-88196724D01*
X101165248Y-88196724D02*
X101117629Y-88406248D01*
X101117629Y-88406248D02*
X101117629Y-88563391D01*
X101117629Y-88563391D02*
X101165248Y-88772915D01*
X101165248Y-88772915D02*
X101212867Y-88877677D01*
X101212867Y-88877677D02*
X101308105Y-88982439D01*
X101308105Y-88982439D02*
X101450962Y-89034819D01*
X101450962Y-89034819D02*
X101689057Y-89034819D01*
X103165248Y-142161980D02*
X103498581Y-141638171D01*
X103736676Y-142161980D02*
X103736676Y-141061980D01*
X103736676Y-141061980D02*
X103355724Y-141061980D01*
X103355724Y-141061980D02*
X103260486Y-141114361D01*
X103260486Y-141114361D02*
X103212867Y-141166742D01*
X103212867Y-141166742D02*
X103165248Y-141271504D01*
X103165248Y-141271504D02*
X103165248Y-141428647D01*
X103165248Y-141428647D02*
X103212867Y-141533409D01*
X103212867Y-141533409D02*
X103260486Y-141585790D01*
X103260486Y-141585790D02*
X103355724Y-141638171D01*
X103355724Y-141638171D02*
X103736676Y-141638171D01*
X102212867Y-142161980D02*
X102784295Y-142161980D01*
X102498581Y-142161980D02*
X102498581Y-141061980D01*
X102498581Y-141061980D02*
X102593819Y-141219123D01*
X102593819Y-141219123D02*
X102689057Y-141323885D01*
X102689057Y-141323885D02*
X102784295Y-141376266D01*
X103986676Y-50692933D02*
X103224772Y-50692933D01*
X103605724Y-51111980D02*
X103605724Y-50273885D01*
X102272391Y-50011980D02*
X102748581Y-50011980D01*
X102748581Y-50011980D02*
X102796200Y-50535790D01*
X102796200Y-50535790D02*
X102748581Y-50483409D01*
X102748581Y-50483409D02*
X102653343Y-50431028D01*
X102653343Y-50431028D02*
X102415248Y-50431028D01*
X102415248Y-50431028D02*
X102320010Y-50483409D01*
X102320010Y-50483409D02*
X102272391Y-50535790D01*
X102272391Y-50535790D02*
X102224772Y-50640552D01*
X102224772Y-50640552D02*
X102224772Y-50902457D01*
X102224772Y-50902457D02*
X102272391Y-51007219D01*
X102272391Y-51007219D02*
X102320010Y-51059600D01*
X102320010Y-51059600D02*
X102415248Y-51111980D01*
X102415248Y-51111980D02*
X102653343Y-51111980D01*
X102653343Y-51111980D02*
X102748581Y-51059600D01*
X102748581Y-51059600D02*
X102796200Y-51007219D01*
X101939057Y-50011980D02*
X101605724Y-51111980D01*
X101605724Y-51111980D02*
X101272391Y-50011980D01*
D11*
X71128732Y-120396800D02*
X70985875Y-120444419D01*
X70985875Y-120444419D02*
X70747780Y-120444419D01*
X70747780Y-120444419D02*
X70652542Y-120396800D01*
X70652542Y-120396800D02*
X70604923Y-120349180D01*
X70604923Y-120349180D02*
X70557304Y-120253942D01*
X70557304Y-120253942D02*
X70557304Y-120158704D01*
X70557304Y-120158704D02*
X70604923Y-120063466D01*
X70604923Y-120063466D02*
X70652542Y-120015847D01*
X70652542Y-120015847D02*
X70747780Y-119968228D01*
X70747780Y-119968228D02*
X70938256Y-119920609D01*
X70938256Y-119920609D02*
X71033494Y-119872990D01*
X71033494Y-119872990D02*
X71081113Y-119825371D01*
X71081113Y-119825371D02*
X71128732Y-119730133D01*
X71128732Y-119730133D02*
X71128732Y-119634895D01*
X71128732Y-119634895D02*
X71081113Y-119539657D01*
X71081113Y-119539657D02*
X71033494Y-119492038D01*
X71033494Y-119492038D02*
X70938256Y-119444419D01*
X70938256Y-119444419D02*
X70700161Y-119444419D01*
X70700161Y-119444419D02*
X70557304Y-119492038D01*
X70223970Y-119444419D02*
X69985875Y-120444419D01*
X69985875Y-120444419D02*
X69795399Y-119730133D01*
X69795399Y-119730133D02*
X69604923Y-120444419D01*
X69604923Y-120444419D02*
X69366828Y-119444419D01*
X68938256Y-120444419D02*
X68747780Y-120444419D01*
X68747780Y-120444419D02*
X68652542Y-120396800D01*
X68652542Y-120396800D02*
X68604923Y-120349180D01*
X68604923Y-120349180D02*
X68509685Y-120206323D01*
X68509685Y-120206323D02*
X68462066Y-120015847D01*
X68462066Y-120015847D02*
X68462066Y-119634895D01*
X68462066Y-119634895D02*
X68509685Y-119539657D01*
X68509685Y-119539657D02*
X68557304Y-119492038D01*
X68557304Y-119492038D02*
X68652542Y-119444419D01*
X68652542Y-119444419D02*
X68843018Y-119444419D01*
X68843018Y-119444419D02*
X68938256Y-119492038D01*
X68938256Y-119492038D02*
X68985875Y-119539657D01*
X68985875Y-119539657D02*
X69033494Y-119634895D01*
X69033494Y-119634895D02*
X69033494Y-119872990D01*
X69033494Y-119872990D02*
X68985875Y-119968228D01*
X68985875Y-119968228D02*
X68938256Y-120015847D01*
X68938256Y-120015847D02*
X68843018Y-120063466D01*
X68843018Y-120063466D02*
X68652542Y-120063466D01*
X68652542Y-120063466D02*
X68557304Y-120015847D01*
X68557304Y-120015847D02*
X68509685Y-119968228D01*
X68509685Y-119968228D02*
X68462066Y-119872990D01*
D12*
X103736676Y-87192933D02*
X102974772Y-87192933D01*
X103355724Y-87611980D02*
X103355724Y-86773885D01*
X102022391Y-86511980D02*
X102498581Y-86511980D01*
X102498581Y-86511980D02*
X102546200Y-87035790D01*
X102546200Y-87035790D02*
X102498581Y-86983409D01*
X102498581Y-86983409D02*
X102403343Y-86931028D01*
X102403343Y-86931028D02*
X102165248Y-86931028D01*
X102165248Y-86931028D02*
X102070010Y-86983409D01*
X102070010Y-86983409D02*
X102022391Y-87035790D01*
X102022391Y-87035790D02*
X101974772Y-87140552D01*
X101974772Y-87140552D02*
X101974772Y-87402457D01*
X101974772Y-87402457D02*
X102022391Y-87507219D01*
X102022391Y-87507219D02*
X102070010Y-87559600D01*
X102070010Y-87559600D02*
X102165248Y-87611980D01*
X102165248Y-87611980D02*
X102403343Y-87611980D01*
X102403343Y-87611980D02*
X102498581Y-87559600D01*
X102498581Y-87559600D02*
X102546200Y-87507219D01*
X101689057Y-86511980D02*
X101355724Y-87611980D01*
X101355724Y-87611980D02*
X101022391Y-86511980D01*
X103165248Y-128057219D02*
X103212867Y-128109600D01*
X103212867Y-128109600D02*
X103355724Y-128161980D01*
X103355724Y-128161980D02*
X103450962Y-128161980D01*
X103450962Y-128161980D02*
X103593819Y-128109600D01*
X103593819Y-128109600D02*
X103689057Y-128004838D01*
X103689057Y-128004838D02*
X103736676Y-127900076D01*
X103736676Y-127900076D02*
X103784295Y-127690552D01*
X103784295Y-127690552D02*
X103784295Y-127533409D01*
X103784295Y-127533409D02*
X103736676Y-127323885D01*
X103736676Y-127323885D02*
X103689057Y-127219123D01*
X103689057Y-127219123D02*
X103593819Y-127114361D01*
X103593819Y-127114361D02*
X103450962Y-127061980D01*
X103450962Y-127061980D02*
X103355724Y-127061980D01*
X103355724Y-127061980D02*
X103212867Y-127114361D01*
X103212867Y-127114361D02*
X103165248Y-127166742D01*
X102260486Y-128161980D02*
X102736676Y-128161980D01*
X102736676Y-128161980D02*
X102736676Y-127061980D01*
X101498581Y-127061980D02*
X101689057Y-127061980D01*
X101689057Y-127061980D02*
X101784295Y-127114361D01*
X101784295Y-127114361D02*
X101831914Y-127166742D01*
X101831914Y-127166742D02*
X101927152Y-127323885D01*
X101927152Y-127323885D02*
X101974771Y-127533409D01*
X101974771Y-127533409D02*
X101974771Y-127952457D01*
X101974771Y-127952457D02*
X101927152Y-128057219D01*
X101927152Y-128057219D02*
X101879533Y-128109600D01*
X101879533Y-128109600D02*
X101784295Y-128161980D01*
X101784295Y-128161980D02*
X101593819Y-128161980D01*
X101593819Y-128161980D02*
X101498581Y-128109600D01*
X101498581Y-128109600D02*
X101450962Y-128057219D01*
X101450962Y-128057219D02*
X101403343Y-127952457D01*
X101403343Y-127952457D02*
X101403343Y-127690552D01*
X101403343Y-127690552D02*
X101450962Y-127585790D01*
X101450962Y-127585790D02*
X101498581Y-127533409D01*
X101498581Y-127533409D02*
X101593819Y-127481028D01*
X101593819Y-127481028D02*
X101784295Y-127481028D01*
X101784295Y-127481028D02*
X101879533Y-127533409D01*
X101879533Y-127533409D02*
X101927152Y-127585790D01*
X101927152Y-127585790D02*
X101974771Y-127690552D01*
X103736676Y-68242933D02*
X102974772Y-68242933D01*
X103355724Y-68661980D02*
X103355724Y-67823885D01*
X102022391Y-67561980D02*
X102498581Y-67561980D01*
X102498581Y-67561980D02*
X102546200Y-68085790D01*
X102546200Y-68085790D02*
X102498581Y-68033409D01*
X102498581Y-68033409D02*
X102403343Y-67981028D01*
X102403343Y-67981028D02*
X102165248Y-67981028D01*
X102165248Y-67981028D02*
X102070010Y-68033409D01*
X102070010Y-68033409D02*
X102022391Y-68085790D01*
X102022391Y-68085790D02*
X101974772Y-68190552D01*
X101974772Y-68190552D02*
X101974772Y-68452457D01*
X101974772Y-68452457D02*
X102022391Y-68557219D01*
X102022391Y-68557219D02*
X102070010Y-68609600D01*
X102070010Y-68609600D02*
X102165248Y-68661980D01*
X102165248Y-68661980D02*
X102403343Y-68661980D01*
X102403343Y-68661980D02*
X102498581Y-68609600D01*
X102498581Y-68609600D02*
X102546200Y-68557219D01*
X101689057Y-67561980D02*
X101355724Y-68661980D01*
X101355724Y-68661980D02*
X101022391Y-67561980D01*
X103462867Y-48614361D02*
X103558105Y-48561980D01*
X103558105Y-48561980D02*
X103700962Y-48561980D01*
X103700962Y-48561980D02*
X103843819Y-48614361D01*
X103843819Y-48614361D02*
X103939057Y-48719123D01*
X103939057Y-48719123D02*
X103986676Y-48823885D01*
X103986676Y-48823885D02*
X104034295Y-49033409D01*
X104034295Y-49033409D02*
X104034295Y-49190552D01*
X104034295Y-49190552D02*
X103986676Y-49400076D01*
X103986676Y-49400076D02*
X103939057Y-49504838D01*
X103939057Y-49504838D02*
X103843819Y-49609600D01*
X103843819Y-49609600D02*
X103700962Y-49661980D01*
X103700962Y-49661980D02*
X103605724Y-49661980D01*
X103605724Y-49661980D02*
X103462867Y-49609600D01*
X103462867Y-49609600D02*
X103415248Y-49557219D01*
X103415248Y-49557219D02*
X103415248Y-49190552D01*
X103415248Y-49190552D02*
X103605724Y-49190552D01*
X102986676Y-49661980D02*
X102986676Y-48561980D01*
X102986676Y-48561980D02*
X102415248Y-49661980D01*
X102415248Y-49661980D02*
X102415248Y-48561980D01*
X101939057Y-49661980D02*
X101939057Y-48561980D01*
X101939057Y-48561980D02*
X101700962Y-48561980D01*
X101700962Y-48561980D02*
X101558105Y-48614361D01*
X101558105Y-48614361D02*
X101462867Y-48719123D01*
X101462867Y-48719123D02*
X101415248Y-48823885D01*
X101415248Y-48823885D02*
X101367629Y-49033409D01*
X101367629Y-49033409D02*
X101367629Y-49190552D01*
X101367629Y-49190552D02*
X101415248Y-49400076D01*
X101415248Y-49400076D02*
X101462867Y-49504838D01*
X101462867Y-49504838D02*
X101558105Y-49609600D01*
X101558105Y-49609600D02*
X101700962Y-49661980D01*
X101700962Y-49661980D02*
X101939057Y-49661980D01*
X103165248Y-131307219D02*
X103212867Y-131359600D01*
X103212867Y-131359600D02*
X103355724Y-131411980D01*
X103355724Y-131411980D02*
X103450962Y-131411980D01*
X103450962Y-131411980D02*
X103593819Y-131359600D01*
X103593819Y-131359600D02*
X103689057Y-131254838D01*
X103689057Y-131254838D02*
X103736676Y-131150076D01*
X103736676Y-131150076D02*
X103784295Y-130940552D01*
X103784295Y-130940552D02*
X103784295Y-130783409D01*
X103784295Y-130783409D02*
X103736676Y-130573885D01*
X103736676Y-130573885D02*
X103689057Y-130469123D01*
X103689057Y-130469123D02*
X103593819Y-130364361D01*
X103593819Y-130364361D02*
X103450962Y-130311980D01*
X103450962Y-130311980D02*
X103355724Y-130311980D01*
X103355724Y-130311980D02*
X103212867Y-130364361D01*
X103212867Y-130364361D02*
X103165248Y-130416742D01*
X102260486Y-131411980D02*
X102736676Y-131411980D01*
X102736676Y-131411980D02*
X102736676Y-130311980D01*
X101784295Y-130783409D02*
X101879533Y-130731028D01*
X101879533Y-130731028D02*
X101927152Y-130678647D01*
X101927152Y-130678647D02*
X101974771Y-130573885D01*
X101974771Y-130573885D02*
X101974771Y-130521504D01*
X101974771Y-130521504D02*
X101927152Y-130416742D01*
X101927152Y-130416742D02*
X101879533Y-130364361D01*
X101879533Y-130364361D02*
X101784295Y-130311980D01*
X101784295Y-130311980D02*
X101593819Y-130311980D01*
X101593819Y-130311980D02*
X101498581Y-130364361D01*
X101498581Y-130364361D02*
X101450962Y-130416742D01*
X101450962Y-130416742D02*
X101403343Y-130521504D01*
X101403343Y-130521504D02*
X101403343Y-130573885D01*
X101403343Y-130573885D02*
X101450962Y-130678647D01*
X101450962Y-130678647D02*
X101498581Y-130731028D01*
X101498581Y-130731028D02*
X101593819Y-130783409D01*
X101593819Y-130783409D02*
X101784295Y-130783409D01*
X101784295Y-130783409D02*
X101879533Y-130835790D01*
X101879533Y-130835790D02*
X101927152Y-130888171D01*
X101927152Y-130888171D02*
X101974771Y-130992933D01*
X101974771Y-130992933D02*
X101974771Y-131202457D01*
X101974771Y-131202457D02*
X101927152Y-131307219D01*
X101927152Y-131307219D02*
X101879533Y-131359600D01*
X101879533Y-131359600D02*
X101784295Y-131411980D01*
X101784295Y-131411980D02*
X101593819Y-131411980D01*
X101593819Y-131411980D02*
X101498581Y-131359600D01*
X101498581Y-131359600D02*
X101450962Y-131307219D01*
X101450962Y-131307219D02*
X101403343Y-131202457D01*
X101403343Y-131202457D02*
X101403343Y-130992933D01*
X101403343Y-130992933D02*
X101450962Y-130888171D01*
X101450962Y-130888171D02*
X101498581Y-130835790D01*
X101498581Y-130835790D02*
X101593819Y-130783409D01*
X104106569Y-132748101D02*
X104158950Y-132700482D01*
X104158950Y-132700482D02*
X104211330Y-132557625D01*
X104211330Y-132557625D02*
X104211330Y-132462387D01*
X104211330Y-132462387D02*
X104158950Y-132319530D01*
X104158950Y-132319530D02*
X104054188Y-132224292D01*
X104054188Y-132224292D02*
X103949426Y-132176673D01*
X103949426Y-132176673D02*
X103739902Y-132129054D01*
X103739902Y-132129054D02*
X103582759Y-132129054D01*
X103582759Y-132129054D02*
X103373235Y-132176673D01*
X103373235Y-132176673D02*
X103268473Y-132224292D01*
X103268473Y-132224292D02*
X103163711Y-132319530D01*
X103163711Y-132319530D02*
X103111330Y-132462387D01*
X103111330Y-132462387D02*
X103111330Y-132557625D01*
X103111330Y-132557625D02*
X103163711Y-132700482D01*
X103163711Y-132700482D02*
X103216092Y-132748101D01*
X104211330Y-133652863D02*
X104211330Y-133176673D01*
X104211330Y-133176673D02*
X103111330Y-133176673D01*
X104211330Y-134033816D02*
X104211330Y-134224292D01*
X104211330Y-134224292D02*
X104158950Y-134319530D01*
X104158950Y-134319530D02*
X104106569Y-134367149D01*
X104106569Y-134367149D02*
X103949426Y-134462387D01*
X103949426Y-134462387D02*
X103739902Y-134510006D01*
X103739902Y-134510006D02*
X103320854Y-134510006D01*
X103320854Y-134510006D02*
X103216092Y-134462387D01*
X103216092Y-134462387D02*
X103163711Y-134414768D01*
X103163711Y-134414768D02*
X103111330Y-134319530D01*
X103111330Y-134319530D02*
X103111330Y-134129054D01*
X103111330Y-134129054D02*
X103163711Y-134033816D01*
X103163711Y-134033816D02*
X103216092Y-133986197D01*
X103216092Y-133986197D02*
X103320854Y-133938578D01*
X103320854Y-133938578D02*
X103582759Y-133938578D01*
X103582759Y-133938578D02*
X103687521Y-133986197D01*
X103687521Y-133986197D02*
X103739902Y-134033816D01*
X103739902Y-134033816D02*
X103792283Y-134129054D01*
X103792283Y-134129054D02*
X103792283Y-134319530D01*
X103792283Y-134319530D02*
X103739902Y-134414768D01*
X103739902Y-134414768D02*
X103687521Y-134462387D01*
X103687521Y-134462387D02*
X103582759Y-134510006D01*
X103165248Y-143661980D02*
X103498581Y-143138171D01*
X103736676Y-143661980D02*
X103736676Y-142561980D01*
X103736676Y-142561980D02*
X103355724Y-142561980D01*
X103355724Y-142561980D02*
X103260486Y-142614361D01*
X103260486Y-142614361D02*
X103212867Y-142666742D01*
X103212867Y-142666742D02*
X103165248Y-142771504D01*
X103165248Y-142771504D02*
X103165248Y-142928647D01*
X103165248Y-142928647D02*
X103212867Y-143033409D01*
X103212867Y-143033409D02*
X103260486Y-143085790D01*
X103260486Y-143085790D02*
X103355724Y-143138171D01*
X103355724Y-143138171D02*
X103736676Y-143138171D01*
X102784295Y-142666742D02*
X102736676Y-142614361D01*
X102736676Y-142614361D02*
X102641438Y-142561980D01*
X102641438Y-142561980D02*
X102403343Y-142561980D01*
X102403343Y-142561980D02*
X102308105Y-142614361D01*
X102308105Y-142614361D02*
X102260486Y-142666742D01*
X102260486Y-142666742D02*
X102212867Y-142771504D01*
X102212867Y-142771504D02*
X102212867Y-142876266D01*
X102212867Y-142876266D02*
X102260486Y-143033409D01*
X102260486Y-143033409D02*
X102831914Y-143661980D01*
X102831914Y-143661980D02*
X102212867Y-143661980D01*
D13*
G36*
X78655775Y-110853030D02*
G01*
X78655775Y-111134398D01*
X78990876Y-111134398D01*
X78990876Y-110853030D01*
X78655775Y-110853030D01*
G37*
G36*
X78617184Y-111384502D02*
G01*
X78617184Y-112291132D01*
X78279152Y-112291132D01*
X78254667Y-112291742D01*
X78232013Y-112293574D01*
X78211192Y-112296627D01*
X78187741Y-112302161D01*
X78167152Y-112309603D01*
X78149425Y-112318953D01*
X78134560Y-112330211D01*
X78119786Y-112345541D01*
X78108068Y-112362588D01*
X78099407Y-112381353D01*
X78093802Y-112401835D01*
X78091255Y-112424034D01*
X78091085Y-112431816D01*
X78092614Y-112454605D01*
X78097199Y-112475711D01*
X78104841Y-112495134D01*
X78115540Y-112512874D01*
X78129296Y-112528931D01*
X78134560Y-112533909D01*
X78152741Y-112547024D01*
X78171040Y-112555880D01*
X78192202Y-112562852D01*
X78216225Y-112567940D01*
X78237505Y-112570653D01*
X78260616Y-112572160D01*
X78279152Y-112572500D01*
X79237073Y-112572500D01*
X79261566Y-112571897D01*
X79284242Y-112570088D01*
X79305102Y-112567073D01*
X79328622Y-112561608D01*
X79349304Y-112554260D01*
X79367148Y-112545026D01*
X79382153Y-112533909D01*
X79396762Y-112518413D01*
X79408348Y-112501234D01*
X79416912Y-112482372D01*
X79422453Y-112461827D01*
X79424972Y-112439599D01*
X79425140Y-112431816D01*
X79423628Y-112409044D01*
X79419095Y-112387989D01*
X79411538Y-112368652D01*
X79400960Y-112351032D01*
X79387358Y-112335130D01*
X79382153Y-112330211D01*
X79363806Y-112316930D01*
X79345395Y-112307962D01*
X79324145Y-112300901D01*
X79300057Y-112295749D01*
X79278743Y-112293002D01*
X79255613Y-112291475D01*
X79237073Y-112291132D01*
X78899041Y-112291132D01*
X78899041Y-111665870D01*
X79125698Y-111665870D01*
X79149855Y-111665267D01*
X79172257Y-111663458D01*
X79192903Y-111660443D01*
X79216242Y-111654979D01*
X79236838Y-111647630D01*
X79254691Y-111638397D01*
X79269801Y-111627280D01*
X79284742Y-111611784D01*
X79296592Y-111594605D01*
X79305350Y-111575743D01*
X79311017Y-111555198D01*
X79313593Y-111532970D01*
X79313765Y-111525186D01*
X79312254Y-111502414D01*
X79307720Y-111481360D01*
X79300164Y-111462023D01*
X79289585Y-111444403D01*
X79275984Y-111428500D01*
X79270778Y-111423581D01*
X79252431Y-111410300D01*
X79234020Y-111401332D01*
X79212770Y-111394272D01*
X79188683Y-111389120D01*
X79167369Y-111386372D01*
X79144238Y-111384846D01*
X79125698Y-111384502D01*
X78617184Y-111384502D01*
G37*
G36*
X76772174Y-111714230D02*
G01*
X76789500Y-111704644D01*
X76807040Y-111695668D01*
X76824793Y-111687302D01*
X76842760Y-111679548D01*
X76865519Y-111670713D01*
X76888613Y-111662832D01*
X76907328Y-111657215D01*
X76916766Y-111654635D01*
X76940441Y-111648865D01*
X76959622Y-111644953D01*
X76979016Y-111641668D01*
X76998624Y-111639008D01*
X77018446Y-111636974D01*
X77038482Y-111635565D01*
X77058731Y-111634783D01*
X77074058Y-111634607D01*
X77094250Y-111634794D01*
X77113915Y-111635355D01*
X77142426Y-111636898D01*
X77169752Y-111639282D01*
X77195892Y-111642508D01*
X77220848Y-111646575D01*
X77244619Y-111651484D01*
X77267204Y-111657234D01*
X77288605Y-111663825D01*
X77308821Y-111671259D01*
X77327852Y-111679533D01*
X77333932Y-111682479D01*
X77352525Y-111693225D01*
X77368296Y-111707346D01*
X77376265Y-111725297D01*
X77376431Y-111728396D01*
X77369620Y-111747759D01*
X77353915Y-111763430D01*
X77335395Y-111775511D01*
X77318789Y-111784084D01*
X77298490Y-111791377D01*
X77275750Y-111797402D01*
X77253745Y-111802187D01*
X77228352Y-111806942D01*
X77207083Y-111810489D01*
X77183907Y-111814018D01*
X77158826Y-111817530D01*
X77131838Y-111821024D01*
X77122418Y-111822185D01*
X77088035Y-111826465D01*
X77054984Y-111830757D01*
X77023265Y-111835060D01*
X76992878Y-111839374D01*
X76963822Y-111843700D01*
X76936099Y-111848037D01*
X76909707Y-111852386D01*
X76884648Y-111856746D01*
X76860920Y-111861117D01*
X76838524Y-111865500D01*
X76817460Y-111869895D01*
X76797728Y-111874301D01*
X76770627Y-111880931D01*
X76746523Y-111887587D01*
X76732118Y-111892039D01*
X76705678Y-111901418D01*
X76680398Y-111911605D01*
X76656276Y-111922599D01*
X76633314Y-111934400D01*
X76611511Y-111947008D01*
X76590867Y-111960423D01*
X76571383Y-111974645D01*
X76553057Y-111989675D01*
X76535891Y-112005512D01*
X76519884Y-112022155D01*
X76509857Y-112033700D01*
X76495802Y-112051284D01*
X76483130Y-112069048D01*
X76471840Y-112086993D01*
X76461932Y-112105118D01*
X76453407Y-112123423D01*
X76446264Y-112141909D01*
X76438891Y-112166837D01*
X76433976Y-112192086D01*
X76431518Y-112217655D01*
X76431211Y-112230560D01*
X76432383Y-112256621D01*
X76435899Y-112281868D01*
X76441760Y-112306298D01*
X76449964Y-112329913D01*
X76460513Y-112352712D01*
X76473406Y-112374695D01*
X76488643Y-112395863D01*
X76506224Y-112416215D01*
X76526149Y-112435751D01*
X76548419Y-112454471D01*
X76564567Y-112466498D01*
X76588889Y-112483120D01*
X76614103Y-112498669D01*
X76640210Y-112513147D01*
X76667210Y-112526551D01*
X76695104Y-112538884D01*
X76723890Y-112550144D01*
X76753569Y-112560331D01*
X76784142Y-112569446D01*
X76815607Y-112577489D01*
X76847965Y-112584460D01*
X76881217Y-112590358D01*
X76915361Y-112595184D01*
X76950399Y-112598937D01*
X76986329Y-112601618D01*
X77023152Y-112603226D01*
X77060869Y-112603763D01*
X77083608Y-112603621D01*
X77106029Y-112603196D01*
X77128133Y-112602487D01*
X77149918Y-112601496D01*
X77171386Y-112600221D01*
X77192537Y-112598662D01*
X77213369Y-112596820D01*
X77233884Y-112594695D01*
X77254082Y-112592287D01*
X77273961Y-112589595D01*
X77287038Y-112587643D01*
X77312660Y-112583498D01*
X77337749Y-112578880D01*
X77362303Y-112573789D01*
X77386322Y-112568225D01*
X77409808Y-112562188D01*
X77432759Y-112555677D01*
X77455176Y-112548693D01*
X77477059Y-112541236D01*
X77494212Y-112552411D01*
X77512333Y-112561329D01*
X77521022Y-112564684D01*
X77540235Y-112569744D01*
X77559769Y-112572225D01*
X77568894Y-112572500D01*
X77588846Y-112571522D01*
X77611057Y-112567766D01*
X77631379Y-112561195D01*
X77649811Y-112551807D01*
X77666355Y-112539602D01*
X77673918Y-112532444D01*
X77687199Y-112515350D01*
X77697732Y-112494479D01*
X77704411Y-112474200D01*
X77709181Y-112451298D01*
X77711623Y-112431087D01*
X77712845Y-112409196D01*
X77712997Y-112397622D01*
X77712997Y-112309694D01*
X77712387Y-112286972D01*
X77710555Y-112265944D01*
X77707502Y-112246611D01*
X77701968Y-112224827D01*
X77694526Y-112205691D01*
X77683078Y-112186222D01*
X77673918Y-112175361D01*
X77658422Y-112161582D01*
X77641243Y-112150654D01*
X77622381Y-112142577D01*
X77601836Y-112137350D01*
X77579608Y-112134975D01*
X77571825Y-112134816D01*
X77550394Y-112135892D01*
X77530552Y-112139117D01*
X77509822Y-112145437D01*
X77491168Y-112154566D01*
X77486828Y-112157287D01*
X77470464Y-112170323D01*
X77456054Y-112187451D01*
X77445048Y-112205793D01*
X77436804Y-112224008D01*
X77433095Y-112233979D01*
X77416563Y-112244520D01*
X77399206Y-112254404D01*
X77381025Y-112263632D01*
X77362020Y-112272203D01*
X77342191Y-112280118D01*
X77321537Y-112287377D01*
X77300059Y-112293979D01*
X77277757Y-112299924D01*
X77254615Y-112305191D01*
X77230618Y-112309755D01*
X77205766Y-112313617D01*
X77180059Y-112316777D01*
X77160218Y-112318686D01*
X77139897Y-112320200D01*
X77119094Y-112321320D01*
X77097811Y-112322044D01*
X77076046Y-112322373D01*
X77068685Y-112322395D01*
X77044840Y-112322183D01*
X77021668Y-112321548D01*
X76999167Y-112320489D01*
X76977338Y-112319006D01*
X76956180Y-112317100D01*
X76935694Y-112314770D01*
X76915880Y-112312016D01*
X76887418Y-112307092D01*
X76860468Y-112301214D01*
X76835028Y-112294384D01*
X76811100Y-112286600D01*
X76788683Y-112277863D01*
X76767777Y-112268173D01*
X76750513Y-112257995D01*
X76734885Y-112245860D01*
X76721936Y-112229846D01*
X76716975Y-112211509D01*
X76720458Y-112190765D01*
X76730906Y-112171705D01*
X76745406Y-112156707D01*
X76761399Y-112145153D01*
X76780946Y-112134458D01*
X76789759Y-112130420D01*
X76810383Y-112122520D01*
X76835860Y-112114941D01*
X76858154Y-112109467D01*
X76883178Y-112104173D01*
X76910933Y-112099060D01*
X76930954Y-112095751D01*
X76952188Y-112092523D01*
X76974635Y-112089374D01*
X76998296Y-112086306D01*
X77023171Y-112083318D01*
X77049259Y-112080410D01*
X77076561Y-112077582D01*
X77090667Y-112076198D01*
X77111665Y-112074121D01*
X77132224Y-112071922D01*
X77152343Y-112069599D01*
X77172022Y-112067153D01*
X77210061Y-112061893D01*
X77246341Y-112056140D01*
X77280861Y-112049894D01*
X77313622Y-112043157D01*
X77344624Y-112035927D01*
X77373866Y-112028204D01*
X77401349Y-112019990D01*
X77427073Y-112011283D01*
X77451037Y-112002084D01*
X77473242Y-111992392D01*
X77493688Y-111982208D01*
X77512375Y-111971532D01*
X77529302Y-111960364D01*
X77544470Y-111948703D01*
X77564810Y-111930731D01*
X77583150Y-111911987D01*
X77599489Y-111892469D01*
X77613827Y-111872179D01*
X77626165Y-111851116D01*
X77636502Y-111829280D01*
X77644838Y-111806671D01*
X77651173Y-111783290D01*
X77655508Y-111759136D01*
X77657842Y-111734208D01*
X77658287Y-111717161D01*
X77657162Y-111691103D01*
X77653787Y-111665870D01*
X77648163Y-111641461D01*
X77640289Y-111617876D01*
X77630166Y-111595116D01*
X77617792Y-111573180D01*
X77603169Y-111552068D01*
X77586296Y-111531781D01*
X77567174Y-111512318D01*
X77545802Y-111493679D01*
X77530304Y-111481711D01*
X77508268Y-111466154D01*
X77485393Y-111451600D01*
X77461679Y-111438051D01*
X77437125Y-111425505D01*
X77411731Y-111413962D01*
X77385498Y-111403423D01*
X77358425Y-111393888D01*
X77330513Y-111385357D01*
X77301761Y-111377830D01*
X77272169Y-111371306D01*
X77241738Y-111365785D01*
X77210468Y-111361269D01*
X77178357Y-111357756D01*
X77145407Y-111355247D01*
X77111618Y-111353741D01*
X77076989Y-111353239D01*
X77052801Y-111353514D01*
X77028843Y-111354338D01*
X77005113Y-111355712D01*
X76981612Y-111357636D01*
X76958340Y-111360109D01*
X76935298Y-111363131D01*
X76912484Y-111366703D01*
X76889899Y-111370825D01*
X76867429Y-111375397D01*
X76845202Y-111380564D01*
X76823221Y-111386326D01*
X76801483Y-111392684D01*
X76779990Y-111399638D01*
X76758740Y-111407186D01*
X76737736Y-111415330D01*
X76716975Y-111424070D01*
X76699580Y-111411791D01*
X76681525Y-111401029D01*
X76668615Y-111394760D01*
X76649274Y-111387748D01*
X76629002Y-111384542D01*
X76626605Y-111384502D01*
X76605659Y-111385996D01*
X76586053Y-111390479D01*
X76567786Y-111397949D01*
X76550859Y-111408408D01*
X76535272Y-111421854D01*
X76530373Y-111427001D01*
X76517259Y-111444964D01*
X76508403Y-111463029D01*
X76501431Y-111483909D01*
X76496343Y-111507604D01*
X76493630Y-111528586D01*
X76492122Y-111551369D01*
X76491783Y-111569638D01*
X76491783Y-111637049D01*
X76492127Y-111658741D01*
X76493157Y-111678632D01*
X76495411Y-111700962D01*
X76498738Y-111720477D01*
X76504148Y-111740181D01*
X76512413Y-111758046D01*
X76513765Y-111760148D01*
X76528279Y-111778020D01*
X76544343Y-111792863D01*
X76561958Y-111804677D01*
X76581123Y-111813461D01*
X76601838Y-111819217D01*
X76624104Y-111821943D01*
X76633444Y-111822185D01*
X76655086Y-111820783D01*
X76675559Y-111816576D01*
X76694863Y-111809563D01*
X76712998Y-111799746D01*
X76722837Y-111792876D01*
X76738221Y-111778928D01*
X76751033Y-111763157D01*
X76761275Y-111745562D01*
X76768945Y-111726145D01*
X76772174Y-111714230D01*
G37*
G36*
X75417481Y-111353583D02*
G01*
X75441172Y-111354613D01*
X75464742Y-111356330D01*
X75488189Y-111358735D01*
X75511514Y-111361826D01*
X75534717Y-111365604D01*
X75557798Y-111370069D01*
X75580757Y-111375221D01*
X75603594Y-111381060D01*
X75626309Y-111387586D01*
X75648901Y-111394799D01*
X75671371Y-111402698D01*
X75693720Y-111411285D01*
X75715946Y-111420559D01*
X75738050Y-111430519D01*
X75760031Y-111441167D01*
X75781632Y-111452411D01*
X75802591Y-111464164D01*
X75822909Y-111476423D01*
X75842586Y-111489191D01*
X75861621Y-111502466D01*
X75880016Y-111516248D01*
X75897769Y-111530539D01*
X75914881Y-111545336D01*
X75931353Y-111560641D01*
X75947183Y-111576454D01*
X75962371Y-111592775D01*
X75976919Y-111609603D01*
X75990826Y-111626938D01*
X76004091Y-111644781D01*
X76016715Y-111663132D01*
X76028699Y-111681990D01*
X76039997Y-111701127D01*
X76050566Y-111720313D01*
X76060406Y-111739549D01*
X76069518Y-111758835D01*
X76077900Y-111778170D01*
X76085554Y-111797555D01*
X76092478Y-111816990D01*
X76098674Y-111836474D01*
X76104141Y-111856007D01*
X76108879Y-111875591D01*
X76112888Y-111895224D01*
X76116168Y-111914906D01*
X76118719Y-111934638D01*
X76120542Y-111954420D01*
X76121635Y-111974251D01*
X76121999Y-111994132D01*
X76121641Y-112013622D01*
X76119757Y-112042671D01*
X76116260Y-112071496D01*
X76111148Y-112100099D01*
X76104422Y-112128477D01*
X76099041Y-112147273D01*
X76092942Y-112165969D01*
X76086126Y-112184566D01*
X76078593Y-112203063D01*
X76070342Y-112221461D01*
X76061374Y-112239761D01*
X76051688Y-112257961D01*
X76041285Y-112276061D01*
X76030164Y-112294063D01*
X76018297Y-112311721D01*
X76005778Y-112328913D01*
X75992606Y-112345640D01*
X75978781Y-112361901D01*
X75964304Y-112377697D01*
X75949175Y-112393027D01*
X75933392Y-112407891D01*
X75916958Y-112422290D01*
X75899870Y-112436223D01*
X75882130Y-112449691D01*
X75863737Y-112462693D01*
X75844692Y-112475230D01*
X75824994Y-112487301D01*
X75804644Y-112498906D01*
X75783641Y-112510046D01*
X75761985Y-112520720D01*
X75739939Y-112530776D01*
X75717762Y-112540183D01*
X75695456Y-112548942D01*
X75673020Y-112557051D01*
X75650454Y-112564512D01*
X75627759Y-112571324D01*
X75604933Y-112577487D01*
X75581978Y-112583002D01*
X75558894Y-112587868D01*
X75535679Y-112592085D01*
X75512335Y-112595653D01*
X75488861Y-112598572D01*
X75465257Y-112600843D01*
X75441524Y-112602465D01*
X75417660Y-112603438D01*
X75393667Y-112603763D01*
X75369548Y-112603432D01*
X75345551Y-112602442D01*
X75321677Y-112600792D01*
X75297924Y-112598481D01*
X75274294Y-112595510D01*
X75250785Y-112591879D01*
X75227399Y-112587587D01*
X75204135Y-112582636D01*
X75180993Y-112577024D01*
X75157973Y-112570752D01*
X75135075Y-112563819D01*
X75112299Y-112556227D01*
X75089646Y-112547974D01*
X75067115Y-112539061D01*
X75044705Y-112529488D01*
X75022418Y-112519255D01*
X75000476Y-112508464D01*
X74979225Y-112497219D01*
X74958665Y-112485520D01*
X74938795Y-112473367D01*
X74919617Y-112460760D01*
X74901129Y-112447699D01*
X74883331Y-112434184D01*
X74866225Y-112420214D01*
X74849809Y-112405790D01*
X74834084Y-112390913D01*
X74819050Y-112375581D01*
X74804706Y-112359795D01*
X74791053Y-112343554D01*
X74778091Y-112326860D01*
X74765820Y-112309711D01*
X74754239Y-112292109D01*
X74748710Y-112283154D01*
X74738177Y-112265191D01*
X74728346Y-112247155D01*
X74719217Y-112229047D01*
X74710791Y-112210866D01*
X74703067Y-112192613D01*
X74692797Y-112165097D01*
X74684107Y-112137418D01*
X74676998Y-112109575D01*
X74671468Y-112081570D01*
X74667518Y-112053401D01*
X74665148Y-112025070D01*
X74664372Y-111997063D01*
X74946214Y-111997063D01*
X74946341Y-112004527D01*
X74948237Y-112026724D01*
X74952409Y-112048628D01*
X74958856Y-112070241D01*
X74967578Y-112091561D01*
X74978576Y-112112590D01*
X74991850Y-112133327D01*
X75007399Y-112153772D01*
X75025224Y-112173925D01*
X75045323Y-112193786D01*
X75059988Y-112206864D01*
X75075663Y-112219813D01*
X75092020Y-112232235D01*
X75108850Y-112243855D01*
X75126153Y-112254675D01*
X75143929Y-112264692D01*
X75162178Y-112273909D01*
X75180901Y-112282324D01*
X75200097Y-112289937D01*
X75219766Y-112296749D01*
X75239909Y-112302760D01*
X75260524Y-112307969D01*
X75281613Y-112312377D01*
X75303175Y-112315983D01*
X75325211Y-112318788D01*
X75347719Y-112320792D01*
X75370701Y-112321994D01*
X75394156Y-112322395D01*
X75417435Y-112321994D01*
X75440257Y-112320792D01*
X75462620Y-112318788D01*
X75484526Y-112315983D01*
X75505973Y-112312377D01*
X75526963Y-112307969D01*
X75547494Y-112302760D01*
X75567568Y-112296749D01*
X75587184Y-112289937D01*
X75606342Y-112282324D01*
X75625042Y-112273909D01*
X75643283Y-112264692D01*
X75661067Y-112254675D01*
X75678393Y-112243855D01*
X75695261Y-112232235D01*
X75711671Y-112219813D01*
X75727288Y-112206868D01*
X75748823Y-112187222D01*
X75768091Y-112167301D01*
X75785093Y-112147105D01*
X75799828Y-112126634D01*
X75812296Y-112105889D01*
X75822497Y-112084869D01*
X75830431Y-112063574D01*
X75836098Y-112042004D01*
X75839498Y-112020160D01*
X75840632Y-111998040D01*
X75840134Y-111980163D01*
X75837519Y-111953855D01*
X75832663Y-111928156D01*
X75825566Y-111903068D01*
X75816228Y-111878588D01*
X75804649Y-111854719D01*
X75790829Y-111831459D01*
X75774768Y-111808809D01*
X75756465Y-111786768D01*
X75743018Y-111772413D01*
X75728576Y-111758329D01*
X75713137Y-111744516D01*
X75696893Y-111731207D01*
X75680156Y-111718756D01*
X75662928Y-111707164D01*
X75645207Y-111696431D01*
X75626994Y-111686556D01*
X75608288Y-111677540D01*
X75589090Y-111669383D01*
X75569400Y-111662084D01*
X75549217Y-111655644D01*
X75528543Y-111650063D01*
X75507376Y-111645340D01*
X75485716Y-111641476D01*
X75463565Y-111638471D01*
X75440921Y-111636324D01*
X75417784Y-111635036D01*
X75394156Y-111634607D01*
X75367371Y-111635147D01*
X75341239Y-111636767D01*
X75315759Y-111639467D01*
X75290933Y-111643247D01*
X75266758Y-111648107D01*
X75243237Y-111654047D01*
X75220367Y-111661067D01*
X75198151Y-111669167D01*
X75176587Y-111678347D01*
X75155675Y-111688608D01*
X75135417Y-111699948D01*
X75115810Y-111712368D01*
X75096857Y-111725868D01*
X75078556Y-111740448D01*
X75060907Y-111756108D01*
X75043911Y-111772848D01*
X75032081Y-111785688D01*
X75015766Y-111805242D01*
X75001169Y-111825147D01*
X74988289Y-111845404D01*
X74977126Y-111866014D01*
X74967681Y-111886975D01*
X74959953Y-111908289D01*
X74953942Y-111929954D01*
X74949649Y-111951972D01*
X74947073Y-111974342D01*
X74946214Y-111997063D01*
X74664372Y-111997063D01*
X74664358Y-111996575D01*
X74664713Y-111976581D01*
X74665778Y-111956656D01*
X74667552Y-111936800D01*
X74670037Y-111917013D01*
X74673231Y-111897294D01*
X74677135Y-111877644D01*
X74681749Y-111858062D01*
X74687073Y-111838550D01*
X74693106Y-111819106D01*
X74699850Y-111799730D01*
X74707303Y-111780424D01*
X74715466Y-111761186D01*
X74724339Y-111742017D01*
X74733921Y-111722916D01*
X74744214Y-111703884D01*
X74755216Y-111684921D01*
X74766856Y-111666173D01*
X74779183Y-111647911D01*
X74792196Y-111630132D01*
X74805897Y-111612839D01*
X74820284Y-111596030D01*
X74835359Y-111579706D01*
X74851120Y-111563866D01*
X74867568Y-111548511D01*
X74884703Y-111533641D01*
X74902525Y-111519256D01*
X74921034Y-111505355D01*
X74940230Y-111491939D01*
X74960113Y-111479007D01*
X74980683Y-111466560D01*
X75001940Y-111454598D01*
X75023884Y-111443121D01*
X75046165Y-111432237D01*
X75068557Y-111422055D01*
X75091060Y-111412575D01*
X75113673Y-111403797D01*
X75136397Y-111395722D01*
X75159232Y-111388349D01*
X75182178Y-111381678D01*
X75205234Y-111375710D01*
X75228401Y-111370443D01*
X75251678Y-111365879D01*
X75275066Y-111362017D01*
X75298565Y-111358857D01*
X75322175Y-111356399D01*
X75345895Y-111354644D01*
X75369726Y-111353590D01*
X75393667Y-111353239D01*
X75417481Y-111353583D01*
G37*
D14*
G36*
X73111218Y-113456589D02*
G01*
X73111218Y-114264422D01*
X72882607Y-114264422D01*
X72827514Y-114265796D01*
X72776544Y-114269918D01*
X72729695Y-114276787D01*
X72676930Y-114289237D01*
X72630605Y-114305981D01*
X72590720Y-114327019D01*
X72557275Y-114352349D01*
X72524032Y-114386842D01*
X72497666Y-114425199D01*
X72478179Y-114467419D01*
X72465569Y-114513504D01*
X72459838Y-114563453D01*
X72459456Y-114580961D01*
X72462895Y-114632236D01*
X72473212Y-114679725D01*
X72490406Y-114723426D01*
X72514479Y-114763341D01*
X72545430Y-114799470D01*
X72557275Y-114810671D01*
X72598182Y-114840179D01*
X72639355Y-114860106D01*
X72686968Y-114875792D01*
X72741021Y-114887240D01*
X72788900Y-114893345D01*
X72840901Y-114896736D01*
X72882607Y-114897500D01*
X73844313Y-114897500D01*
X73899422Y-114896143D01*
X73950444Y-114892073D01*
X73997379Y-114885289D01*
X74050299Y-114872994D01*
X74096834Y-114856460D01*
X74136982Y-114835685D01*
X74170743Y-114810671D01*
X74203613Y-114775805D01*
X74229682Y-114737152D01*
X74248951Y-114694713D01*
X74261418Y-114648486D01*
X74267086Y-114598473D01*
X74267463Y-114580961D01*
X74263986Y-114529724D01*
X74253553Y-114482352D01*
X74236165Y-114438843D01*
X74211822Y-114399198D01*
X74180523Y-114363418D01*
X74168545Y-114352349D01*
X74127007Y-114322468D01*
X74085603Y-114302289D01*
X74038028Y-114286404D01*
X73984281Y-114274812D01*
X73936839Y-114268630D01*
X73885448Y-114265195D01*
X73844313Y-114264422D01*
X73745394Y-114264422D01*
X73745394Y-111943138D01*
X73844313Y-111943138D01*
X73899422Y-111941781D01*
X73950444Y-111937711D01*
X73997379Y-111930928D01*
X74050299Y-111918633D01*
X74096834Y-111902098D01*
X74136982Y-111881324D01*
X74170743Y-111856310D01*
X74203613Y-111821444D01*
X74229682Y-111782791D01*
X74248951Y-111740351D01*
X74261418Y-111694125D01*
X74267086Y-111644112D01*
X74267463Y-111626599D01*
X74264063Y-111575363D01*
X74253862Y-111527990D01*
X74236861Y-111484481D01*
X74213058Y-111444837D01*
X74182455Y-111409056D01*
X74170743Y-111397988D01*
X74129463Y-111368106D01*
X74088038Y-111347928D01*
X74040226Y-111332042D01*
X73986028Y-111320450D01*
X73938072Y-111314268D01*
X73886028Y-111310833D01*
X73844313Y-111310061D01*
X72882607Y-111310061D01*
X72827514Y-111311434D01*
X72776544Y-111315556D01*
X72729695Y-111322425D01*
X72676930Y-111334876D01*
X72630605Y-111351620D01*
X72590720Y-111372657D01*
X72557275Y-111397988D01*
X72524032Y-111432481D01*
X72497666Y-111470837D01*
X72478179Y-111513058D01*
X72465569Y-111559142D01*
X72459838Y-111609091D01*
X72459456Y-111626599D01*
X72462895Y-111677875D01*
X72473212Y-111725363D01*
X72490406Y-111769065D01*
X72514479Y-111808980D01*
X72545430Y-111845108D01*
X72557275Y-111856310D01*
X72598182Y-111885818D01*
X72639355Y-111905744D01*
X72686968Y-111921431D01*
X72741021Y-111932878D01*
X72788900Y-111938983D01*
X72840901Y-111942375D01*
X72882607Y-111943138D01*
X73111218Y-111943138D01*
X73111218Y-112716899D01*
X71985747Y-111943138D01*
X72031359Y-111938810D01*
X72073477Y-111923596D01*
X72108854Y-111893843D01*
X72122034Y-111873895D01*
X72140098Y-111828677D01*
X72150061Y-111785693D01*
X72156447Y-111735872D01*
X72159075Y-111687727D01*
X72159403Y-111661770D01*
X72156003Y-111609915D01*
X72145802Y-111560688D01*
X72128801Y-111514088D01*
X72104998Y-111470116D01*
X72074395Y-111428771D01*
X72062683Y-111415573D01*
X72028922Y-111385177D01*
X71988774Y-111359932D01*
X71942239Y-111339839D01*
X71889319Y-111324898D01*
X71842384Y-111316655D01*
X71791362Y-111311709D01*
X71736253Y-111310061D01*
X71089986Y-111310061D01*
X71034877Y-111311434D01*
X70983855Y-111315556D01*
X70936920Y-111322425D01*
X70884000Y-111334876D01*
X70837465Y-111351620D01*
X70797317Y-111372657D01*
X70763556Y-111397988D01*
X70730312Y-111432481D01*
X70703947Y-111470837D01*
X70684460Y-111513058D01*
X70671850Y-111559142D01*
X70666118Y-111609091D01*
X70665736Y-111626599D01*
X70669175Y-111677875D01*
X70679492Y-111725363D01*
X70696687Y-111769065D01*
X70720760Y-111808980D01*
X70751710Y-111845108D01*
X70763556Y-111856310D01*
X70804063Y-111885818D01*
X70843664Y-111905744D01*
X70888577Y-111921431D01*
X70938804Y-111932878D01*
X70982811Y-111938983D01*
X71030218Y-111942375D01*
X71068004Y-111943138D01*
X72205565Y-112763061D01*
X72165878Y-112786902D01*
X72126499Y-112812263D01*
X72087430Y-112839143D01*
X72048670Y-112867544D01*
X72010219Y-112897464D01*
X71972077Y-112928904D01*
X71934244Y-112961864D01*
X71896720Y-112996344D01*
X71859506Y-113032343D01*
X71822600Y-113069863D01*
X71786004Y-113108902D01*
X71749717Y-113149461D01*
X71713738Y-113191540D01*
X71678069Y-113235139D01*
X71642710Y-113280257D01*
X71607659Y-113326896D01*
X71572874Y-113374865D01*
X71538588Y-113424251D01*
X71504799Y-113475054D01*
X71471509Y-113527274D01*
X71438716Y-113580911D01*
X71406422Y-113635964D01*
X71374625Y-113692434D01*
X71343327Y-113750321D01*
X71312527Y-113809625D01*
X71282224Y-113870346D01*
X71252420Y-113932483D01*
X71223114Y-113996037D01*
X71194305Y-114061008D01*
X71165995Y-114127396D01*
X71138183Y-114195201D01*
X71110869Y-114264422D01*
X70941609Y-114264422D01*
X70887032Y-114265796D01*
X70836508Y-114269918D01*
X70790037Y-114276787D01*
X70737647Y-114289237D01*
X70691591Y-114305981D01*
X70651867Y-114327019D01*
X70618475Y-114352349D01*
X70585232Y-114386842D01*
X70558867Y-114425199D01*
X70539379Y-114467419D01*
X70526770Y-114513504D01*
X70521038Y-114563453D01*
X70520656Y-114580961D01*
X70524056Y-114632236D01*
X70534257Y-114679725D01*
X70551259Y-114723426D01*
X70575061Y-114763341D01*
X70605664Y-114799470D01*
X70617376Y-114810671D01*
X70657910Y-114840179D01*
X70698830Y-114860106D01*
X70746245Y-114875792D01*
X70800153Y-114887240D01*
X70847955Y-114893345D01*
X70899913Y-114896736D01*
X70941609Y-114897500D01*
X71516434Y-114897500D01*
X71541310Y-114836122D01*
X71566477Y-114775088D01*
X71591937Y-114714398D01*
X71617688Y-114654050D01*
X71643731Y-114594047D01*
X71670067Y-114534387D01*
X71696694Y-114475070D01*
X71723613Y-114416097D01*
X71750824Y-114357467D01*
X71778327Y-114299181D01*
X71806122Y-114241238D01*
X71834209Y-114183639D01*
X71862588Y-114126383D01*
X71891259Y-114069470D01*
X71920222Y-114012902D01*
X71949477Y-113956676D01*
X71973305Y-113911974D01*
X71996978Y-113868817D01*
X72020497Y-113827206D01*
X72043861Y-113787141D01*
X72067071Y-113748621D01*
X72101596Y-113693740D01*
X72135773Y-113642336D01*
X72169602Y-113594409D01*
X72203084Y-113549960D01*
X72236218Y-113508989D01*
X72269004Y-113471495D01*
X72301442Y-113437479D01*
X72312177Y-113426913D01*
X72344915Y-113396375D01*
X72378831Y-113366996D01*
X72413926Y-113338776D01*
X72450199Y-113311715D01*
X72487651Y-113285813D01*
X72526281Y-113261071D01*
X72566090Y-113237487D01*
X72607078Y-113215063D01*
X72649244Y-113193798D01*
X72692588Y-113173693D01*
X72722139Y-113160933D01*
X73111218Y-113456589D01*
G37*
D11*
%TO.C,SW3*%
X91068950Y-55220000D02*
X91068950Y-55601000D01*
X93608950Y-52680000D02*
X102498950Y-52680000D01*
X102498950Y-52680000D02*
X102498950Y-53061000D01*
X93608950Y-52680000D02*
G75*
G03*
X91068950Y-55220000I1J-2540001D01*
G01*
%TO.C,SW13*%
X86305750Y-74270300D02*
X86305750Y-74651300D01*
X88845750Y-71730300D02*
X97735750Y-71730300D01*
X97735750Y-71730300D02*
X97735750Y-72111300D01*
X88845750Y-71730300D02*
G75*
G03*
X86305750Y-74270300I1J-2540001D01*
G01*
%TO.C,SW23*%
X83448250Y-93320300D02*
X83448250Y-93701300D01*
X85988250Y-90780300D02*
X94878250Y-90780300D01*
X94878250Y-90780300D02*
X94878250Y-91161300D01*
X85988250Y-90780300D02*
G75*
G03*
X83448250Y-93320300I1J-2540001D01*
G01*
%TO.C,SW1*%
X67256350Y-52362000D02*
X67256350Y-52743000D01*
X69796350Y-49822000D02*
X78686350Y-49822000D01*
X78686350Y-49822000D02*
X78686350Y-50203000D01*
X69796350Y-49822000D02*
G75*
G03*
X67256350Y-52362000I1J-2540001D01*
G01*
%TO.C,SW41*%
X88687700Y-134278400D02*
X88687700Y-134659400D01*
X91227700Y-131738400D02*
X100117700Y-131738400D01*
X100117700Y-131738400D02*
X100117700Y-132119400D01*
X91227700Y-131738400D02*
G75*
G03*
X88687700Y-134278400I1J-2540001D01*
G01*
%TO.C,SW33*%
X88687700Y-112370300D02*
X88687700Y-112751300D01*
X91227700Y-109830300D02*
X100117700Y-109830300D01*
X100117700Y-109830300D02*
X100117700Y-110211300D01*
X91227700Y-109830300D02*
G75*
G03*
X88687700Y-112370300I1J-2540001D01*
G01*
%TO.C,SW9*%
X63445400Y-123799600D02*
X63445400Y-124180600D01*
X65985400Y-121259600D02*
X74875400Y-121259600D01*
X74875400Y-121259600D02*
X74875400Y-121640600D01*
X65985400Y-121259600D02*
G75*
G03*
X63445400Y-123799600I1J-2540001D01*
G01*
D15*
%TO.C,C1*%
X89252617Y-145067000D02*
X88960083Y-145067000D01*
X89252617Y-144047000D02*
X88960083Y-144047000D01*
%TO.C,R4*%
X103228850Y-139264776D02*
X103228850Y-139774224D01*
X102183850Y-139264776D02*
X102183850Y-139774224D01*
%TO.C,C17*%
X91002617Y-65925000D02*
X90710083Y-65925000D01*
X91002617Y-64905000D02*
X90710083Y-64905000D01*
D12*
%TO.C,D43*%
X100606350Y-142357000D02*
X101506350Y-143257000D01*
X99606350Y-142357000D02*
X101606350Y-142357000D01*
X101506350Y-143257000D02*
X99706350Y-143257000D01*
X100606350Y-143257000D02*
X100606350Y-143857000D01*
X99706350Y-143257000D02*
X100606350Y-142357000D01*
D15*
%TO.C,C15*%
X98097583Y-85547000D02*
X98390117Y-85547000D01*
X98097583Y-86567000D02*
X98390117Y-86567000D01*
%TO.C,C19*%
X68002617Y-60067000D02*
X67710083Y-60067000D01*
X68002617Y-59047000D02*
X67710083Y-59047000D01*
D16*
%TO.C,D40*%
X93198250Y-101281800D02*
X93198250Y-101081800D01*
X93198250Y-101281800D02*
X91848250Y-101281800D01*
X93198250Y-101081800D02*
X91848250Y-101081800D01*
X91848250Y-101281800D02*
X91848250Y-101081800D01*
D15*
%TO.C,C13*%
X91560083Y-36797000D02*
X91852617Y-36797000D01*
X91560083Y-37817000D02*
X91852617Y-37817000D01*
D16*
%TO.C,D30*%
X58831350Y-40307000D02*
X58831350Y-40507000D01*
X58831350Y-40307000D02*
X60181350Y-40307000D01*
X58831350Y-40507000D02*
X60181350Y-40507000D01*
X60181350Y-40307000D02*
X60181350Y-40507000D01*
D12*
%TO.C,D3*%
X105918950Y-61015000D02*
X106818950Y-61915000D01*
X104918950Y-61015000D02*
X106918950Y-61015000D01*
X106818950Y-61915000D02*
X105018950Y-61915000D01*
X105918950Y-61915000D02*
X105918950Y-62515000D01*
X105018950Y-61915000D02*
X105918950Y-61015000D01*
D16*
%TO.C,D20*%
X77006350Y-60323500D02*
X77006350Y-60123500D01*
X77006350Y-60323500D02*
X75656350Y-60323500D01*
X77006350Y-60123500D02*
X75656350Y-60123500D01*
X75656350Y-60323500D02*
X75656350Y-60123500D01*
D15*
%TO.C,C7*%
X63752617Y-133067000D02*
X63460083Y-133067000D01*
X63752617Y-132047000D02*
X63460083Y-132047000D01*
%TO.C,C11*%
X80060083Y-36597000D02*
X80352617Y-36597000D01*
X80060083Y-37617000D02*
X80352617Y-37617000D01*
D12*
%TO.C,D33*%
X103606350Y-118157000D02*
X104506350Y-119057000D01*
X102606350Y-118157000D02*
X104606350Y-118157000D01*
X104506350Y-119057000D02*
X102706350Y-119057000D01*
X103606350Y-119057000D02*
X103606350Y-119657000D01*
X102706350Y-119057000D02*
X103606350Y-118157000D01*
D16*
%TO.C,D29*%
X70831350Y-40307000D02*
X70831350Y-40507000D01*
X70831350Y-40307000D02*
X72181350Y-40307000D01*
X70831350Y-40507000D02*
X72181350Y-40507000D01*
X72181350Y-40307000D02*
X72181350Y-40507000D01*
D15*
%TO.C,C5*%
X100572583Y-123547000D02*
X100865117Y-123547000D01*
X100572583Y-124567000D02*
X100865117Y-124567000D01*
%TO.C,C3*%
X86140117Y-106067000D02*
X85847583Y-106067000D01*
X86140117Y-105047000D02*
X85847583Y-105047000D01*
D16*
%TO.C,D25*%
X100818950Y-63181500D02*
X100818950Y-62981500D01*
X100818950Y-63181500D02*
X99468950Y-63181500D01*
X100818950Y-62981500D02*
X99468950Y-62981500D01*
X99468950Y-63181500D02*
X99468950Y-62981500D01*
%TO.C,D39*%
X89255750Y-85231800D02*
X89255750Y-85431800D01*
X89255750Y-85231800D02*
X90605750Y-85231800D01*
X89255750Y-85431800D02*
X90605750Y-85431800D01*
X90605750Y-85231800D02*
X90605750Y-85431800D01*
D12*
%TO.C,D23*%
X98298250Y-99115300D02*
X99198250Y-100015300D01*
X97298250Y-99115300D02*
X99298250Y-99115300D01*
X99198250Y-100015300D02*
X97398250Y-100015300D01*
X98298250Y-100015300D02*
X98298250Y-100615300D01*
X97398250Y-100015300D02*
X98298250Y-99115300D01*
D16*
%TO.C,D7*%
X82831350Y-40307000D02*
X82831350Y-40507000D01*
X82831350Y-40307000D02*
X84181350Y-40307000D01*
X82831350Y-40507000D02*
X84181350Y-40507000D01*
X84181350Y-40307000D02*
X84181350Y-40507000D01*
D12*
%TO.C,D1*%
X82106350Y-58157000D02*
X83006350Y-59057000D01*
X81106350Y-58157000D02*
X83106350Y-58157000D01*
X83006350Y-59057000D02*
X81206350Y-59057000D01*
X82106350Y-59057000D02*
X82106350Y-59657000D01*
X81206350Y-59057000D02*
X82106350Y-58157000D01*
D16*
%TO.C,D50*%
X91637700Y-123331800D02*
X91637700Y-123531800D01*
X91637700Y-123331800D02*
X92987700Y-123331800D01*
X91637700Y-123531800D02*
X92987700Y-123531800D01*
X92987700Y-123331800D02*
X92987700Y-123531800D01*
%TO.C,D42*%
X73195400Y-131761100D02*
X73195400Y-131561100D01*
X73195400Y-131761100D02*
X71845400Y-131761100D01*
X73195400Y-131561100D02*
X71845400Y-131561100D01*
X71845400Y-131761100D02*
X71845400Y-131561100D01*
D17*
%TO.C,REF\u002A\u002A*%
X79100995Y-106912500D02*
X78100995Y-106662500D01*
X78600995Y-105412500D02*
X77850995Y-105162500D01*
X78100995Y-107662500D02*
X77350995Y-107412500D01*
X78100995Y-106662500D02*
X78600995Y-105412500D01*
X78100995Y-104412500D02*
X76600995Y-104412500D01*
X77850995Y-109412500D02*
X79100995Y-106912500D01*
X77850995Y-109412500D02*
X78100995Y-107662500D01*
X77850995Y-105162500D02*
X78100995Y-104412500D01*
X77350995Y-107412500D02*
X77600995Y-105912500D01*
X76850995Y-105662500D02*
X77600995Y-105912500D01*
X76600995Y-104412500D02*
X76850995Y-105662500D01*
X82882258Y-108912500D02*
X81600995Y-108912500D01*
X81600995Y-108912500D02*
X81600995Y-110193763D01*
X81600995Y-110193763D02*
X82882258Y-110193763D01*
X82882258Y-110193763D02*
X82882258Y-108912500D01*
X82882258Y-106912500D02*
X81600995Y-106912500D01*
X81600995Y-106912500D02*
X81600995Y-108193763D01*
X81600995Y-108193763D02*
X82882258Y-108193763D01*
X82882258Y-108193763D02*
X82882258Y-106912500D01*
X80882258Y-108912500D02*
X79600995Y-108912500D01*
X79600995Y-108912500D02*
X79600995Y-110193763D01*
X79600995Y-110193763D02*
X80882258Y-110193763D01*
X80882258Y-110193763D02*
X80882258Y-108912500D01*
X80882258Y-106912500D02*
X79600995Y-106912500D01*
X79600995Y-106912500D02*
X79600995Y-108193763D01*
X79600995Y-108193763D02*
X80882258Y-108193763D01*
X80882258Y-108193763D02*
X80882258Y-106912500D01*
X76741627Y-108912500D02*
X75460364Y-108912500D01*
X75460364Y-108912500D02*
X75460364Y-110193763D01*
X75460364Y-110193763D02*
X76741627Y-110193763D01*
X76741627Y-110193763D02*
X76741627Y-108912500D01*
X76741627Y-106912500D02*
X75460364Y-106912500D01*
X75460364Y-106912500D02*
X75460364Y-108193763D01*
X75460364Y-108193763D02*
X76741627Y-108193763D01*
X76741627Y-108193763D02*
X76741627Y-106912500D01*
X74741627Y-108912500D02*
X73460364Y-108912500D01*
X73460364Y-108912500D02*
X73460364Y-110193763D01*
X73460364Y-110193763D02*
X74741627Y-110193763D01*
X74741627Y-110193763D02*
X74741627Y-108912500D01*
X74741627Y-106912500D02*
X73460364Y-106912500D01*
X73460364Y-106912500D02*
X73460364Y-108193763D01*
X73460364Y-108193763D02*
X74741627Y-108193763D01*
X74741627Y-108193763D02*
X74741627Y-106912500D01*
D13*
X72741625Y-109613617D02*
G75*
G03*
X76790510Y-113662501I1J-4048884D01*
G01*
D15*
%TO.C,C10*%
X68160083Y-36397000D02*
X68452617Y-36397000D01*
X68160083Y-37417000D02*
X68452617Y-37417000D01*
D12*
%TO.C,D13*%
X101155750Y-80065300D02*
X102055750Y-80965300D01*
X100155750Y-80065300D02*
X102155750Y-80065300D01*
X102055750Y-80965300D02*
X100255750Y-80965300D01*
X101155750Y-80965300D02*
X101155750Y-81565300D01*
X100255750Y-80965300D02*
X101155750Y-80065300D01*
D16*
%TO.C,D52*%
X98437700Y-142239900D02*
X98437700Y-142039900D01*
X98437700Y-142239900D02*
X97087700Y-142239900D01*
X98437700Y-142039900D02*
X97087700Y-142039900D01*
X97087700Y-142239900D02*
X97087700Y-142039900D01*
D12*
%TO.C,D9*%
X78295400Y-129594600D02*
X79195400Y-130494600D01*
X77295400Y-129594600D02*
X79295400Y-129594600D01*
X79195400Y-130494600D02*
X77395400Y-130494600D01*
X78295400Y-130494600D02*
X78295400Y-131094600D01*
X77395400Y-130494600D02*
X78295400Y-129594600D01*
%TD*%
M02*
