M48
; DRILL file {KiCad 7.0.7} date 2024 April 21, Sunday 22:37:21
; FORMAT={-:-/ absolute / metric / decimal}
; #@! TF.CreationDate,2024-04-21T22:37:21+02:00
; #@! TF.GenerationSoftware,Kicad,Pcbnew,7.0.7
; #@! TF.FileFunction,NonPlated,1,2,NPTH
FMAT,2
METRIC
; #@! TA.AperFunction,NonPlated,NPTH,ComponentDrill
T1C1.702
; #@! TA.AperFunction,NonPlated,NPTH,ComponentDrill
T2C3.000
; #@! TA.AperFunction,NonPlated,NPTH,ComponentDrill
T3C3.988
%
G90
G05
T1
X64.715Y-128.245
X64.715Y-128.245
X68.526Y-56.807
X68.526Y-56.807
X74.875Y-128.245
X74.875Y-128.245
X78.686Y-56.807
X78.686Y-56.807
X84.718Y-97.765
X84.718Y-97.765
X87.576Y-78.715
X87.576Y-78.715
X89.958Y-116.815
X89.958Y-116.815
X89.958Y-138.723
X89.958Y-138.723
X92.339Y-59.665
X92.339Y-59.665
X94.878Y-97.765
X94.878Y-97.765
X97.736Y-78.715
X97.736Y-78.715
X100.118Y-116.815
X100.118Y-116.815
X100.118Y-138.723
X100.118Y-138.723
X102.499Y-59.665
X102.499Y-59.665
T2
X65.985Y-125.705
X67.255Y-123.165
X69.796Y-54.267
X71.066Y-51.727
X72.335Y-123.165
X73.605Y-125.705
X76.146Y-51.727
X77.416Y-54.267
X85.988Y-95.225
X87.258Y-92.685
X88.846Y-76.175
X90.116Y-73.635
X91.228Y-114.275
X91.228Y-136.183
X92.338Y-92.685
X92.498Y-111.735
X92.498Y-133.643
X93.608Y-95.225
X93.609Y-57.125
X94.879Y-54.585
X95.196Y-73.635
X96.466Y-76.175
X97.578Y-111.735
X97.578Y-133.643
X98.848Y-114.275
X98.848Y-136.183
X99.959Y-54.585
X101.229Y-57.125
T3
X69.795Y-128.245
X69.795Y-128.245
X73.606Y-56.807
X73.606Y-56.807
X89.798Y-97.765
X89.798Y-97.765
X92.656Y-78.715
X92.656Y-78.715
X95.038Y-116.815
X95.038Y-116.815
X95.038Y-138.723
X95.038Y-138.723
X97.419Y-59.665
X97.419Y-59.665
T0
M30
