%TF.GenerationSoftware,KiCad,Pcbnew,7.0.7*%
%TF.CreationDate,2024-04-21T22:37:26+02:00*%
%TF.ProjectId,isokey_left,69736f6b-6579-45f6-9c65-66742e6b6963,rev?*%
%TF.SameCoordinates,Original*%
%TF.FileFunction,Soldermask,Bot*%
%TF.FilePolarity,Negative*%
%FSLAX46Y46*%
G04 Gerber Fmt 4.6, Leading zero omitted, Abs format (unit mm)*
G04 Created by KiCad (PCBNEW 7.0.7) date 2024-04-21 22:37:26*
%MOMM*%
%LPD*%
G01*
G04 APERTURE LIST*
G04 Aperture macros list*
%AMRoundRect*
0 Rectangle with rounded corners*
0 $1 Rounding radius*
0 $2 $3 $4 $5 $6 $7 $8 $9 X,Y pos of 4 corners*
0 Add a 4 corners polygon primitive as box body*
4,1,4,$2,$3,$4,$5,$6,$7,$8,$9,$2,$3,0*
0 Add four circle primitives for the rounded corners*
1,1,$1+$1,$2,$3*
1,1,$1+$1,$4,$5*
1,1,$1+$1,$6,$7*
1,1,$1+$1,$8,$9*
0 Add four rect primitives between the rounded corners*
20,1,$1+$1,$2,$3,$4,$5,0*
20,1,$1+$1,$4,$5,$6,$7,0*
20,1,$1+$1,$6,$7,$8,$9,0*
20,1,$1+$1,$8,$9,$2,$3,0*%
G04 Aperture macros list end*
%ADD10C,1.701800*%
%ADD11C,3.000000*%
%ADD12C,3.987800*%
%ADD13R,2.550000X2.500000*%
%ADD14C,2.900000*%
%ADD15C,5.000000*%
%ADD16RoundRect,0.100000X-0.900000X-0.400000X0.900000X-0.400000X0.900000X0.400000X-0.900000X0.400000X0*%
%ADD17RoundRect,0.237500X0.300000X0.237500X-0.300000X0.237500X-0.300000X-0.237500X0.300000X-0.237500X0*%
%ADD18RoundRect,0.237500X-0.237500X0.250000X-0.237500X-0.250000X0.237500X-0.250000X0.237500X0.250000X0*%
%ADD19RoundRect,0.225000X-0.375000X0.225000X-0.375000X-0.225000X0.375000X-0.225000X0.375000X0.225000X0*%
%ADD20RoundRect,0.237500X-0.300000X-0.237500X0.300000X-0.237500X0.300000X0.237500X-0.300000X0.237500X0*%
%ADD21R,1.500000X0.850000*%
G04 APERTURE END LIST*
D10*
%TO.C,SW3*%
X92338950Y-59665000D03*
D11*
X93608950Y-57125000D03*
D12*
X97418950Y-59665000D03*
D11*
X99958950Y-54585000D03*
D10*
X102498950Y-59665000D03*
D13*
X103708950Y-54585000D03*
X89858950Y-57125000D03*
%TD*%
D14*
%TO.C,H1*%
X55640309Y-44764014D03*
D15*
X55640309Y-44764014D03*
%TD*%
D16*
%TO.C,TP10*%
X105819300Y-140665188D03*
%TD*%
%TO.C,TP14*%
X105819300Y-146665188D03*
%TD*%
D10*
%TO.C,SW13*%
X87575750Y-78715300D03*
D11*
X88845750Y-76175300D03*
D12*
X92655750Y-78715300D03*
D11*
X95195750Y-73635300D03*
D10*
X97735750Y-78715300D03*
D13*
X98945750Y-73635300D03*
X85095750Y-76175300D03*
%TD*%
D14*
%TO.C,H4*%
X73640309Y-149264014D03*
D15*
X73640309Y-149264014D03*
%TD*%
D10*
%TO.C,SW23*%
X84718250Y-97765300D03*
D11*
X85988250Y-95225300D03*
D12*
X89798250Y-97765300D03*
D11*
X92338250Y-92685300D03*
D10*
X94878250Y-97765300D03*
D13*
X96088250Y-92685300D03*
X82238250Y-95225300D03*
%TD*%
D16*
%TO.C,TP1*%
X105819300Y-137165188D03*
%TD*%
D14*
%TO.C,H5*%
X104418550Y-151764014D03*
D15*
X104418550Y-151764014D03*
%TD*%
D16*
%TO.C,TP2*%
X105819300Y-138665188D03*
%TD*%
D10*
%TO.C,SW1*%
X68526350Y-56807000D03*
D11*
X69796350Y-54267000D03*
D12*
X73606350Y-56807000D03*
D11*
X76146350Y-51727000D03*
D10*
X78686350Y-56807000D03*
D13*
X79896350Y-51727000D03*
X66046350Y-54267000D03*
%TD*%
D16*
%TO.C,TP15*%
X105819288Y-69915199D03*
%TD*%
D10*
%TO.C,SW41*%
X89957700Y-138723400D03*
D11*
X91227700Y-136183400D03*
D12*
X95037700Y-138723400D03*
D11*
X97577700Y-133643400D03*
D10*
X100117700Y-138723400D03*
D13*
X101327700Y-133643400D03*
X87477700Y-136183400D03*
%TD*%
D10*
%TO.C,SW33*%
X89957700Y-116815300D03*
D11*
X91227700Y-114275300D03*
D12*
X95037700Y-116815300D03*
D11*
X97577700Y-111735300D03*
D10*
X100117700Y-116815300D03*
D13*
X101327700Y-111735300D03*
X87477700Y-114275300D03*
%TD*%
D16*
%TO.C,TP9*%
X105819300Y-135165188D03*
%TD*%
%TO.C,TP6*%
X105819300Y-130665188D03*
%TD*%
%TO.C,TP13*%
X105819300Y-145165188D03*
%TD*%
%TO.C,TP16*%
X105819288Y-88838038D03*
%TD*%
%TO.C,TP11*%
X105819300Y-142165188D03*
%TD*%
%TO.C,TP17*%
X105869288Y-50890175D03*
%TD*%
D10*
%TO.C,SW9*%
X64715400Y-128244600D03*
D11*
X65985400Y-125704600D03*
D12*
X69795400Y-128244600D03*
D11*
X72335400Y-123164600D03*
D10*
X74875400Y-128244600D03*
D13*
X76085400Y-123164600D03*
X62235400Y-125704600D03*
%TD*%
D16*
%TO.C,TP3*%
X105819288Y-87415199D03*
%TD*%
D14*
%TO.C,H3*%
X69640309Y-70264014D03*
D15*
X69640309Y-70264014D03*
%TD*%
D16*
%TO.C,TP5*%
X105819300Y-129165188D03*
%TD*%
%TO.C,TP4*%
X105819288Y-68465199D03*
%TD*%
D14*
%TO.C,H2*%
X104418550Y-44764014D03*
D15*
X104418550Y-44764014D03*
%TD*%
D16*
%TO.C,TP18*%
X105869288Y-49440175D03*
%TD*%
%TO.C,TP7*%
X105819300Y-132165188D03*
%TD*%
%TO.C,TP8*%
X105819300Y-133665188D03*
%TD*%
%TO.C,TP12*%
X105819300Y-143665188D03*
%TD*%
D17*
%TO.C,C1*%
X89968850Y-144557000D03*
X88243850Y-144557000D03*
%TD*%
D18*
%TO.C,R4*%
X102706350Y-138607000D03*
X102706350Y-140432000D03*
%TD*%
D17*
%TO.C,C17*%
X91718850Y-65415000D03*
X89993850Y-65415000D03*
%TD*%
D19*
%TO.C,D43*%
X100606350Y-141607000D03*
X100606350Y-144907000D03*
%TD*%
D20*
%TO.C,C15*%
X97381350Y-86057000D03*
X99106350Y-86057000D03*
%TD*%
D17*
%TO.C,C19*%
X68718850Y-59557000D03*
X66993850Y-59557000D03*
%TD*%
D10*
%TO.C,SW14*%
X97735750Y-78715300D03*
D11*
X96465750Y-76175300D03*
D12*
X92655750Y-78715300D03*
D11*
X90115750Y-73635300D03*
D10*
X87575750Y-78715300D03*
%TD*%
D21*
%TO.C,D40*%
X92648250Y-102006800D03*
X92648250Y-103556800D03*
X86948250Y-103556800D03*
X86948250Y-102006800D03*
%TD*%
D20*
%TO.C,C13*%
X90843850Y-37307000D03*
X92568850Y-37307000D03*
%TD*%
D21*
%TO.C,D30*%
X59381350Y-39582000D03*
X59381350Y-38032000D03*
X65081350Y-38032000D03*
X65081350Y-39582000D03*
%TD*%
D19*
%TO.C,D3*%
X105918950Y-60265000D03*
X105918950Y-63565000D03*
%TD*%
D21*
%TO.C,D20*%
X76456350Y-61048500D03*
X76456350Y-62598500D03*
X70756350Y-62598500D03*
X70756350Y-61048500D03*
%TD*%
D17*
%TO.C,C7*%
X64468850Y-132557000D03*
X62743850Y-132557000D03*
%TD*%
D10*
%TO.C,SW4*%
X102498950Y-59665000D03*
D11*
X101228950Y-57125000D03*
D12*
X97418950Y-59665000D03*
D11*
X94878950Y-54585000D03*
D10*
X92338950Y-59665000D03*
%TD*%
%TO.C,SW42*%
X100117700Y-138723400D03*
D11*
X98847700Y-136183400D03*
D12*
X95037700Y-138723400D03*
D11*
X92497700Y-133643400D03*
D10*
X89957700Y-138723400D03*
%TD*%
D20*
%TO.C,C11*%
X79343850Y-37107000D03*
X81068850Y-37107000D03*
%TD*%
D19*
%TO.C,D33*%
X103606350Y-117407000D03*
X103606350Y-120707000D03*
%TD*%
D21*
%TO.C,D29*%
X71381350Y-39582000D03*
X71381350Y-38032000D03*
X77081350Y-38032000D03*
X77081350Y-39582000D03*
%TD*%
D20*
%TO.C,C5*%
X99856350Y-124057000D03*
X101581350Y-124057000D03*
%TD*%
D17*
%TO.C,C3*%
X86856350Y-105557000D03*
X85131350Y-105557000D03*
%TD*%
D21*
%TO.C,D25*%
X100268950Y-63906500D03*
X100268950Y-65456500D03*
X94568950Y-65456500D03*
X94568950Y-63906500D03*
%TD*%
%TO.C,D39*%
X89805750Y-84506800D03*
X89805750Y-82956800D03*
X95505750Y-82956800D03*
X95505750Y-84506800D03*
%TD*%
D19*
%TO.C,D23*%
X98298250Y-98365300D03*
X98298250Y-101665300D03*
%TD*%
D21*
%TO.C,D7*%
X83381350Y-39582000D03*
X83381350Y-38032000D03*
X89081350Y-38032000D03*
X89081350Y-39582000D03*
%TD*%
D19*
%TO.C,D1*%
X82106350Y-57407000D03*
X82106350Y-60707000D03*
%TD*%
D10*
%TO.C,SW34*%
X100117700Y-116815300D03*
D11*
X98847700Y-114275300D03*
D12*
X95037700Y-116815300D03*
D11*
X92497700Y-111735300D03*
D10*
X89957700Y-116815300D03*
%TD*%
%TO.C,SW24*%
X94878250Y-97765300D03*
D11*
X93608250Y-95225300D03*
D12*
X89798250Y-97765300D03*
D11*
X87258250Y-92685300D03*
D10*
X84718250Y-97765300D03*
%TD*%
%TO.C,SW2*%
X78686350Y-56807000D03*
D11*
X77416350Y-54267000D03*
D12*
X73606350Y-56807000D03*
D11*
X71066350Y-51727000D03*
D10*
X68526350Y-56807000D03*
%TD*%
D21*
%TO.C,D50*%
X92187700Y-122606800D03*
X92187700Y-121056800D03*
X97887700Y-121056800D03*
X97887700Y-122606800D03*
%TD*%
%TO.C,D42*%
X72645400Y-132486100D03*
X72645400Y-134036100D03*
X66945400Y-134036100D03*
X66945400Y-132486100D03*
%TD*%
D20*
%TO.C,C10*%
X67443850Y-36907000D03*
X69168850Y-36907000D03*
%TD*%
D19*
%TO.C,D13*%
X101155750Y-79315300D03*
X101155750Y-82615300D03*
%TD*%
D10*
%TO.C,SW10*%
X74875400Y-128244600D03*
D11*
X73605400Y-125704600D03*
D12*
X69795400Y-128244600D03*
D11*
X67255400Y-123164600D03*
D10*
X64715400Y-128244600D03*
%TD*%
D21*
%TO.C,D52*%
X97887700Y-142964900D03*
X97887700Y-144514900D03*
X92187700Y-144514900D03*
X92187700Y-142964900D03*
%TD*%
D19*
%TO.C,D9*%
X78295400Y-128844600D03*
X78295400Y-132144600D03*
%TD*%
M02*
