%TF.GenerationSoftware,KiCad,Pcbnew,7.0.7*%
%TF.CreationDate,2024-04-21T22:37:26+02:00*%
%TF.ProjectId,isokey_left,69736f6b-6579-45f6-9c65-66742e6b6963,rev?*%
%TF.SameCoordinates,Original*%
%TF.FileFunction,Profile,NP*%
%FSLAX46Y46*%
G04 Gerber Fmt 4.6, Leading zero omitted, Abs format (unit mm)*
G04 Created by KiCad (PCBNEW 7.0.7) date 2024-04-21 22:37:26*
%MOMM*%
%LPD*%
G01*
G04 APERTURE LIST*
%TA.AperFunction,Profile*%
%ADD10C,0.250000*%
%TD*%
%TA.AperFunction,Profile*%
%ADD11C,0.150000*%
%TD*%
G04 APERTURE END LIST*
D10*
X106918550Y-44764014D02*
X106918550Y-151764014D01*
X68640286Y-143264014D02*
G75*
G03*
X65640309Y-140264014I-2999986J14D01*
G01*
X98640309Y-42264014D02*
X104418550Y-42264014D01*
X62614210Y-116093865D02*
G75*
G03*
X68640309Y-107264014I-525470J6829855D01*
G01*
X95640309Y-36264014D02*
X95640309Y-39264014D01*
X70455410Y-88286644D02*
G75*
G03*
X69409498Y-94707662I4184900J-3977366D01*
G01*
X52640309Y-36264014D02*
X52640309Y-44844136D01*
X55640309Y-47844136D02*
X56106600Y-47844136D01*
X92640309Y-33264014D02*
X55640309Y-33264014D01*
X95640286Y-39264014D02*
G75*
G03*
X98640309Y-42264014I3000014J14D01*
G01*
X95640286Y-36264014D02*
G75*
G03*
X92640309Y-33264014I-2999986J14D01*
G01*
X71061004Y-87347117D02*
G75*
G03*
X61608478Y-70424270I-11515804J4669017D01*
G01*
X59106587Y-67465913D02*
G75*
G03*
X61608478Y-70424270I3000013J13D01*
G01*
X70455399Y-88286634D02*
G75*
G03*
X71061041Y-87347132I-2174499J2066734D01*
G01*
X68640309Y-107264014D02*
G75*
G03*
X69691437Y-95990700I-10904869J6702434D01*
G01*
X52640264Y-44844136D02*
G75*
G03*
X55640309Y-47844136I3000036J36D01*
G01*
X59106600Y-67465913D02*
X59106600Y-50844136D01*
X104418550Y-154263950D02*
G75*
G03*
X106918550Y-151764014I50J2499950D01*
G01*
X69691419Y-95990700D02*
G75*
G03*
X69409497Y-94707662I-3000019J13300D01*
G01*
X55640309Y-33264009D02*
G75*
G03*
X52640309Y-36264014I-9J-2999991D01*
G01*
X106918586Y-44764014D02*
G75*
G03*
X104418550Y-42264014I-2499986J14D01*
G01*
X104418550Y-154264014D02*
X74640309Y-154264014D01*
X68640286Y-148264014D02*
G75*
G03*
X74640309Y-154264014I6000014J14D01*
G01*
X60640309Y-140264014D02*
X65640309Y-140264014D01*
X68640309Y-143264014D02*
X68640309Y-148264014D01*
X62614210Y-116093869D02*
G75*
G03*
X57640309Y-121067769I0J-4973901D01*
G01*
X57640309Y-137264014D02*
X57640309Y-121067769D01*
X59106564Y-50844136D02*
G75*
G03*
X56106600Y-47844136I-2999964J36D01*
G01*
X57640286Y-137264014D02*
G75*
G03*
X60640309Y-140264014I3000014J14D01*
G01*
D11*
%TO.C,D8*%
X72531350Y-37107000D02*
X75931350Y-37107000D01*
X75931350Y-37107000D02*
X75931350Y-40507000D01*
X75931350Y-40507000D02*
X72531350Y-40507000D01*
X72531350Y-40507000D02*
X72531350Y-37107000D01*
%TO.C,D36*%
X99118950Y-66381500D02*
X95718950Y-66381500D01*
X95718950Y-66381500D02*
X95718950Y-62981500D01*
X95718950Y-62981500D02*
X99118950Y-62981500D01*
X99118950Y-62981500D02*
X99118950Y-66381500D01*
%TO.C,D19*%
X60531350Y-37107000D02*
X63931350Y-37107000D01*
X63931350Y-37107000D02*
X63931350Y-40507000D01*
X63931350Y-40507000D02*
X60531350Y-40507000D01*
X60531350Y-40507000D02*
X60531350Y-37107000D01*
%TO.C,D47*%
X96737700Y-145439900D02*
X93337700Y-145439900D01*
X93337700Y-145439900D02*
X93337700Y-142039900D01*
X93337700Y-142039900D02*
X96737700Y-142039900D01*
X96737700Y-142039900D02*
X96737700Y-145439900D01*
%TO.C,D48*%
X90955750Y-82031800D02*
X94355750Y-82031800D01*
X94355750Y-82031800D02*
X94355750Y-85431800D01*
X94355750Y-85431800D02*
X90955750Y-85431800D01*
X90955750Y-85431800D02*
X90955750Y-82031800D01*
%TO.C,D41*%
X93337700Y-120131800D02*
X96737700Y-120131800D01*
X96737700Y-120131800D02*
X96737700Y-123531800D01*
X96737700Y-123531800D02*
X93337700Y-123531800D01*
X93337700Y-123531800D02*
X93337700Y-120131800D01*
%TO.C,D49*%
X91498250Y-104481800D02*
X88098250Y-104481800D01*
X88098250Y-104481800D02*
X88098250Y-101081800D01*
X88098250Y-101081800D02*
X91498250Y-101081800D01*
X91498250Y-101081800D02*
X91498250Y-104481800D01*
%TO.C,D51*%
X71495400Y-134961100D02*
X68095400Y-134961100D01*
X68095400Y-134961100D02*
X68095400Y-131561100D01*
X68095400Y-131561100D02*
X71495400Y-131561100D01*
X71495400Y-131561100D02*
X71495400Y-134961100D01*
%TO.C,D26*%
X84531350Y-37107000D02*
X87931350Y-37107000D01*
X87931350Y-37107000D02*
X87931350Y-40507000D01*
X87931350Y-40507000D02*
X84531350Y-40507000D01*
X84531350Y-40507000D02*
X84531350Y-37107000D01*
%TO.C,D35*%
X75306350Y-63523500D02*
X71906350Y-63523500D01*
X71906350Y-63523500D02*
X71906350Y-60123500D01*
X71906350Y-60123500D02*
X75306350Y-60123500D01*
X75306350Y-60123500D02*
X75306350Y-63523500D01*
%TO.C,D40*%
X91498250Y-101081800D02*
X88098250Y-101081800D01*
X88098250Y-101081800D02*
X88098250Y-104481800D01*
X88098250Y-104481800D02*
X91498250Y-104481800D01*
X91498250Y-104481800D02*
X91498250Y-101081800D01*
%TO.C,D30*%
X60531350Y-40507000D02*
X63931350Y-40507000D01*
X63931350Y-40507000D02*
X63931350Y-37107000D01*
X63931350Y-37107000D02*
X60531350Y-37107000D01*
X60531350Y-37107000D02*
X60531350Y-40507000D01*
%TO.C,D20*%
X75306350Y-60123500D02*
X71906350Y-60123500D01*
X71906350Y-60123500D02*
X71906350Y-63523500D01*
X71906350Y-63523500D02*
X75306350Y-63523500D01*
X75306350Y-63523500D02*
X75306350Y-60123500D01*
%TO.C,D29*%
X72531350Y-40507000D02*
X75931350Y-40507000D01*
X75931350Y-40507000D02*
X75931350Y-37107000D01*
X75931350Y-37107000D02*
X72531350Y-37107000D01*
X72531350Y-37107000D02*
X72531350Y-40507000D01*
%TO.C,D25*%
X99118950Y-62981500D02*
X95718950Y-62981500D01*
X95718950Y-62981500D02*
X95718950Y-66381500D01*
X95718950Y-66381500D02*
X99118950Y-66381500D01*
X99118950Y-66381500D02*
X99118950Y-62981500D01*
%TO.C,D39*%
X90955750Y-85431800D02*
X94355750Y-85431800D01*
X94355750Y-85431800D02*
X94355750Y-82031800D01*
X94355750Y-82031800D02*
X90955750Y-82031800D01*
X90955750Y-82031800D02*
X90955750Y-85431800D01*
%TO.C,D7*%
X84531350Y-40507000D02*
X87931350Y-40507000D01*
X87931350Y-40507000D02*
X87931350Y-37107000D01*
X87931350Y-37107000D02*
X84531350Y-37107000D01*
X84531350Y-37107000D02*
X84531350Y-40507000D01*
%TO.C,D50*%
X93337700Y-123531800D02*
X96737700Y-123531800D01*
X96737700Y-123531800D02*
X96737700Y-120131800D01*
X96737700Y-120131800D02*
X93337700Y-120131800D01*
X93337700Y-120131800D02*
X93337700Y-123531800D01*
%TO.C,D42*%
X71495400Y-131561100D02*
X68095400Y-131561100D01*
X68095400Y-131561100D02*
X68095400Y-134961100D01*
X68095400Y-134961100D02*
X71495400Y-134961100D01*
X71495400Y-134961100D02*
X71495400Y-131561100D01*
%TO.C,D52*%
X96737700Y-142039900D02*
X93337700Y-142039900D01*
X93337700Y-142039900D02*
X93337700Y-145439900D01*
X93337700Y-145439900D02*
X96737700Y-145439900D01*
X96737700Y-145439900D02*
X96737700Y-142039900D01*
%TD*%
M02*
