%TF.GenerationSoftware,KiCad,Pcbnew,7.0.7*%
%TF.CreationDate,2024-04-21T22:37:20+02:00*%
%TF.ProjectId,isokey_left,69736f6b-6579-45f6-9c65-66742e6b6963,rev?*%
%TF.SameCoordinates,Original*%
%TF.FileFunction,Drillmap*%
%TF.FilePolarity,Positive*%
%FSLAX45Y45*%
G04 Gerber Fmt 4.5, Leading zero omitted, Abs format (unit mm)*
G04 Created by KiCad (PCBNEW 7.0.7) date 2024-04-21 22:37:20*
%MOMM*%
%LPD*%
G01*
G04 APERTURE LIST*
%ADD10C,0.250000*%
%ADD11C,0.200000*%
%ADD12C,0.170180*%
%ADD13C,0.300000*%
%ADD14C,0.398780*%
G04 APERTURE END LIST*
D10*
X10691855Y-4476401D02*
X10691855Y-15176401D01*
X6864029Y-14326401D02*
G75*
G03*
X6564031Y-14026401I-299999J1D01*
G01*
X9864031Y-4226401D02*
X10441855Y-4226401D01*
X6261421Y-11609386D02*
G75*
G03*
X6864031Y-10726401I-52547J682985D01*
G01*
X9564031Y-3626401D02*
X9564031Y-3926401D01*
X7045541Y-8828664D02*
G75*
G03*
X6940950Y-9470766I418490J-397737D01*
G01*
X5264031Y-3626401D02*
X5264031Y-4484414D01*
X5564031Y-4784414D02*
X5610660Y-4784414D01*
X9264031Y-3326401D02*
X5564031Y-3326401D01*
X9564029Y-3926401D02*
G75*
G03*
X9864031Y-4226401I300001J1D01*
G01*
X9564029Y-3626401D02*
G75*
G03*
X9264031Y-3326401I-299999J1D01*
G01*
X7106100Y-8734712D02*
G75*
G03*
X6160848Y-7042427I-1151580J466902D01*
G01*
X5910659Y-6746591D02*
G75*
G03*
X6160848Y-7042427I300001J1D01*
G01*
X7045540Y-8828663D02*
G75*
G03*
X7106104Y-8734713I-217450J206673D01*
G01*
X6864031Y-10726401D02*
G75*
G03*
X6969144Y-9599070I-1090487J670243D01*
G01*
X5264026Y-4484414D02*
G75*
G03*
X5564031Y-4784414I300004J4D01*
G01*
X5910660Y-6746591D02*
X5910660Y-5084414D01*
X10441855Y-15426395D02*
G75*
G03*
X10691855Y-15176401I5J249995D01*
G01*
X6969142Y-9599070D02*
G75*
G03*
X6940950Y-9470766I-300002J1330D01*
G01*
X5564031Y-3326401D02*
G75*
G03*
X5264031Y-3626401I-1J-299999D01*
G01*
X10691859Y-4476401D02*
G75*
G03*
X10441855Y-4226401I-249999J1D01*
G01*
X10441855Y-15426401D02*
X7464031Y-15426401D01*
X6864029Y-14826401D02*
G75*
G03*
X7464031Y-15426401I600001J1D01*
G01*
X6064031Y-14026401D02*
X6564031Y-14026401D01*
X6864031Y-14326401D02*
X6864031Y-14826401D01*
X6261421Y-11609387D02*
G75*
G03*
X5764031Y-12106777I0J-497390D01*
G01*
X5764031Y-13726401D02*
X5764031Y-12106777D01*
X5910656Y-5084414D02*
G75*
G03*
X5610660Y-4784414I-299996J4D01*
G01*
X5764029Y-13726401D02*
G75*
G03*
X6064031Y-14026401I300001J1D01*
G01*
D11*
D12*
X6386450Y-12739370D02*
X6556630Y-12909550D01*
X6556630Y-12739370D02*
X6386450Y-12909550D01*
X6386450Y-12739370D02*
X6556630Y-12909550D01*
X6556630Y-12739370D02*
X6386450Y-12909550D01*
X6767545Y-5595610D02*
X6937725Y-5765790D01*
X6937725Y-5595610D02*
X6767545Y-5765790D01*
X6767545Y-5595610D02*
X6937725Y-5765790D01*
X6937725Y-5595610D02*
X6767545Y-5765790D01*
X7402450Y-12739370D02*
X7572630Y-12909550D01*
X7572630Y-12739370D02*
X7402450Y-12909550D01*
X7402450Y-12739370D02*
X7572630Y-12909550D01*
X7572630Y-12739370D02*
X7402450Y-12909550D01*
X7783545Y-5595610D02*
X7953725Y-5765790D01*
X7953725Y-5595610D02*
X7783545Y-5765790D01*
X7783545Y-5595610D02*
X7953725Y-5765790D01*
X7953725Y-5595610D02*
X7783545Y-5765790D01*
X8386735Y-9691440D02*
X8556915Y-9861620D01*
X8556915Y-9691440D02*
X8386735Y-9861620D01*
X8386735Y-9691440D02*
X8556915Y-9861620D01*
X8556915Y-9691440D02*
X8386735Y-9861620D01*
X8672485Y-7786440D02*
X8842665Y-7956620D01*
X8842665Y-7786440D02*
X8672485Y-7956620D01*
X8672485Y-7786440D02*
X8842665Y-7956620D01*
X8842665Y-7786440D02*
X8672485Y-7956620D01*
X8910680Y-11596440D02*
X9080860Y-11766620D01*
X9080860Y-11596440D02*
X8910680Y-11766620D01*
X8910680Y-11596440D02*
X9080860Y-11766620D01*
X9080860Y-11596440D02*
X8910680Y-11766620D01*
X8910680Y-13787250D02*
X9080860Y-13957430D01*
X9080860Y-13787250D02*
X8910680Y-13957430D01*
X8910680Y-13787250D02*
X9080860Y-13957430D01*
X9080860Y-13787250D02*
X8910680Y-13957430D01*
X9148805Y-5881410D02*
X9318985Y-6051590D01*
X9318985Y-5881410D02*
X9148805Y-6051590D01*
X9148805Y-5881410D02*
X9318985Y-6051590D01*
X9318985Y-5881410D02*
X9148805Y-6051590D01*
X9402735Y-9691440D02*
X9572915Y-9861620D01*
X9572915Y-9691440D02*
X9402735Y-9861620D01*
X9402735Y-9691440D02*
X9572915Y-9861620D01*
X9572915Y-9691440D02*
X9402735Y-9861620D01*
X9688485Y-7786440D02*
X9858665Y-7956620D01*
X9858665Y-7786440D02*
X9688485Y-7956620D01*
X9688485Y-7786440D02*
X9858665Y-7956620D01*
X9858665Y-7786440D02*
X9688485Y-7956620D01*
X9926680Y-11596440D02*
X10096860Y-11766620D01*
X10096860Y-11596440D02*
X9926680Y-11766620D01*
X9926680Y-11596440D02*
X10096860Y-11766620D01*
X10096860Y-11596440D02*
X9926680Y-11766620D01*
X9926680Y-13787250D02*
X10096860Y-13957430D01*
X10096860Y-13787250D02*
X9926680Y-13957430D01*
X9926680Y-13787250D02*
X10096860Y-13957430D01*
X10096860Y-13787250D02*
X9926680Y-13957430D01*
X10164805Y-5881410D02*
X10334985Y-6051590D01*
X10334985Y-5881410D02*
X10164805Y-6051590D01*
X10164805Y-5881410D02*
X10334985Y-6051590D01*
X10334985Y-5881410D02*
X10164805Y-6051590D01*
D13*
X6748540Y-12570460D02*
G75*
G03*
X6748540Y-12570460I-150000J0D01*
G01*
X6875540Y-12316460D02*
G75*
G03*
X6875540Y-12316460I-150000J0D01*
G01*
X7129635Y-5426700D02*
G75*
G03*
X7129635Y-5426700I-150000J0D01*
G01*
X7256635Y-5172700D02*
G75*
G03*
X7256635Y-5172700I-150000J0D01*
G01*
X7383540Y-12316460D02*
G75*
G03*
X7383540Y-12316460I-150000J0D01*
G01*
X7510540Y-12570460D02*
G75*
G03*
X7510540Y-12570460I-150000J0D01*
G01*
X7764635Y-5172700D02*
G75*
G03*
X7764635Y-5172700I-150000J0D01*
G01*
X7891635Y-5426700D02*
G75*
G03*
X7891635Y-5426700I-150000J0D01*
G01*
X8748825Y-9522530D02*
G75*
G03*
X8748825Y-9522530I-150000J0D01*
G01*
X8875825Y-9268530D02*
G75*
G03*
X8875825Y-9268530I-150000J0D01*
G01*
X9034575Y-7617530D02*
G75*
G03*
X9034575Y-7617530I-150000J0D01*
G01*
X9161575Y-7363530D02*
G75*
G03*
X9161575Y-7363530I-150000J0D01*
G01*
X9272770Y-11427530D02*
G75*
G03*
X9272770Y-11427530I-150000J0D01*
G01*
X9272770Y-13618340D02*
G75*
G03*
X9272770Y-13618340I-150000J0D01*
G01*
X9383825Y-9268530D02*
G75*
G03*
X9383825Y-9268530I-150000J0D01*
G01*
X9399770Y-11173530D02*
G75*
G03*
X9399770Y-11173530I-150000J0D01*
G01*
X9399770Y-13364340D02*
G75*
G03*
X9399770Y-13364340I-150000J0D01*
G01*
X9510825Y-9522530D02*
G75*
G03*
X9510825Y-9522530I-150000J0D01*
G01*
X9510895Y-5712500D02*
G75*
G03*
X9510895Y-5712500I-150000J0D01*
G01*
X9637895Y-5458500D02*
G75*
G03*
X9637895Y-5458500I-150000J0D01*
G01*
X9669575Y-7363530D02*
G75*
G03*
X9669575Y-7363530I-150000J0D01*
G01*
X9796575Y-7617530D02*
G75*
G03*
X9796575Y-7617530I-150000J0D01*
G01*
X9907770Y-11173530D02*
G75*
G03*
X9907770Y-11173530I-150000J0D01*
G01*
X9907770Y-13364340D02*
G75*
G03*
X9907770Y-13364340I-150000J0D01*
G01*
X10034770Y-11427530D02*
G75*
G03*
X10034770Y-11427530I-150000J0D01*
G01*
X10034770Y-13618340D02*
G75*
G03*
X10034770Y-13618340I-150000J0D01*
G01*
X10145895Y-5458500D02*
G75*
G03*
X10145895Y-5458500I-150000J0D01*
G01*
X10272895Y-5712500D02*
G75*
G03*
X10272895Y-5712500I-150000J0D01*
G01*
D14*
X6979540Y-12625070D02*
X6979540Y-13023850D01*
X6780150Y-12824460D02*
X7178930Y-12824460D01*
X6979540Y-12625070D02*
X6979540Y-13023850D01*
X6780150Y-12824460D02*
X7178930Y-12824460D01*
X7360635Y-5481310D02*
X7360635Y-5880090D01*
X7161245Y-5680700D02*
X7560025Y-5680700D01*
X7360635Y-5481310D02*
X7360635Y-5880090D01*
X7161245Y-5680700D02*
X7560025Y-5680700D01*
X8979825Y-9577140D02*
X8979825Y-9975920D01*
X8780435Y-9776530D02*
X9179215Y-9776530D01*
X8979825Y-9577140D02*
X8979825Y-9975920D01*
X8780435Y-9776530D02*
X9179215Y-9776530D01*
X9265575Y-7672140D02*
X9265575Y-8070920D01*
X9066185Y-7871530D02*
X9464965Y-7871530D01*
X9265575Y-7672140D02*
X9265575Y-8070920D01*
X9066185Y-7871530D02*
X9464965Y-7871530D01*
X9503770Y-11482140D02*
X9503770Y-11880920D01*
X9304380Y-11681530D02*
X9703160Y-11681530D01*
X9503770Y-11482140D02*
X9503770Y-11880920D01*
X9304380Y-11681530D02*
X9703160Y-11681530D01*
X9503770Y-13672950D02*
X9503770Y-14071730D01*
X9304380Y-13872340D02*
X9703160Y-13872340D01*
X9503770Y-13672950D02*
X9503770Y-14071730D01*
X9304380Y-13872340D02*
X9703160Y-13872340D01*
X9741895Y-5767110D02*
X9741895Y-6165890D01*
X9542505Y-5966500D02*
X9941285Y-5966500D01*
X9741895Y-5767110D02*
X9741895Y-6165890D01*
X9542505Y-5966500D02*
X9941285Y-5966500D01*
D11*
X5512308Y-15750385D02*
X5512308Y-15550385D01*
X5512308Y-15550385D02*
X5559927Y-15550385D01*
X5559927Y-15550385D02*
X5588498Y-15559909D01*
X5588498Y-15559909D02*
X5607546Y-15578957D01*
X5607546Y-15578957D02*
X5617070Y-15598004D01*
X5617070Y-15598004D02*
X5626593Y-15636099D01*
X5626593Y-15636099D02*
X5626593Y-15664671D01*
X5626593Y-15664671D02*
X5617070Y-15702766D01*
X5617070Y-15702766D02*
X5607546Y-15721814D01*
X5607546Y-15721814D02*
X5588498Y-15740861D01*
X5588498Y-15740861D02*
X5559927Y-15750385D01*
X5559927Y-15750385D02*
X5512308Y-15750385D01*
X5712308Y-15750385D02*
X5712308Y-15617052D01*
X5712308Y-15655147D02*
X5721831Y-15636099D01*
X5721831Y-15636099D02*
X5731355Y-15626576D01*
X5731355Y-15626576D02*
X5750403Y-15617052D01*
X5750403Y-15617052D02*
X5769451Y-15617052D01*
X5836117Y-15750385D02*
X5836117Y-15617052D01*
X5836117Y-15550385D02*
X5826593Y-15559909D01*
X5826593Y-15559909D02*
X5836117Y-15569433D01*
X5836117Y-15569433D02*
X5845641Y-15559909D01*
X5845641Y-15559909D02*
X5836117Y-15550385D01*
X5836117Y-15550385D02*
X5836117Y-15569433D01*
X5959927Y-15750385D02*
X5940879Y-15740861D01*
X5940879Y-15740861D02*
X5931355Y-15721814D01*
X5931355Y-15721814D02*
X5931355Y-15550385D01*
X6064689Y-15750385D02*
X6045641Y-15740861D01*
X6045641Y-15740861D02*
X6036117Y-15721814D01*
X6036117Y-15721814D02*
X6036117Y-15550385D01*
X6293260Y-15750385D02*
X6293260Y-15550385D01*
X6293260Y-15550385D02*
X6359927Y-15693242D01*
X6359927Y-15693242D02*
X6426593Y-15550385D01*
X6426593Y-15550385D02*
X6426593Y-15750385D01*
X6607546Y-15750385D02*
X6607546Y-15645623D01*
X6607546Y-15645623D02*
X6598022Y-15626576D01*
X6598022Y-15626576D02*
X6578974Y-15617052D01*
X6578974Y-15617052D02*
X6540879Y-15617052D01*
X6540879Y-15617052D02*
X6521831Y-15626576D01*
X6607546Y-15740861D02*
X6588498Y-15750385D01*
X6588498Y-15750385D02*
X6540879Y-15750385D01*
X6540879Y-15750385D02*
X6521831Y-15740861D01*
X6521831Y-15740861D02*
X6512308Y-15721814D01*
X6512308Y-15721814D02*
X6512308Y-15702766D01*
X6512308Y-15702766D02*
X6521831Y-15683718D01*
X6521831Y-15683718D02*
X6540879Y-15674195D01*
X6540879Y-15674195D02*
X6588498Y-15674195D01*
X6588498Y-15674195D02*
X6607546Y-15664671D01*
X6702784Y-15617052D02*
X6702784Y-15817052D01*
X6702784Y-15626576D02*
X6721831Y-15617052D01*
X6721831Y-15617052D02*
X6759927Y-15617052D01*
X6759927Y-15617052D02*
X6778974Y-15626576D01*
X6778974Y-15626576D02*
X6788498Y-15636099D01*
X6788498Y-15636099D02*
X6798022Y-15655147D01*
X6798022Y-15655147D02*
X6798022Y-15712290D01*
X6798022Y-15712290D02*
X6788498Y-15731337D01*
X6788498Y-15731337D02*
X6778974Y-15740861D01*
X6778974Y-15740861D02*
X6759927Y-15750385D01*
X6759927Y-15750385D02*
X6721831Y-15750385D01*
X6721831Y-15750385D02*
X6702784Y-15740861D01*
X6883736Y-15731337D02*
X6893260Y-15740861D01*
X6893260Y-15740861D02*
X6883736Y-15750385D01*
X6883736Y-15750385D02*
X6874212Y-15740861D01*
X6874212Y-15740861D02*
X6883736Y-15731337D01*
X6883736Y-15731337D02*
X6883736Y-15750385D01*
X6883736Y-15626576D02*
X6893260Y-15636099D01*
X6893260Y-15636099D02*
X6883736Y-15645623D01*
X6883736Y-15645623D02*
X6874212Y-15636099D01*
X6874212Y-15636099D02*
X6883736Y-15626576D01*
X6883736Y-15626576D02*
X6883736Y-15645623D01*
D12*
X5081351Y-15993811D02*
X5251531Y-16163991D01*
X5251531Y-15993811D02*
X5081351Y-16163991D01*
D11*
X5617070Y-16170385D02*
X5502784Y-16170385D01*
X5559927Y-16170385D02*
X5559927Y-15970385D01*
X5559927Y-15970385D02*
X5540879Y-15998957D01*
X5540879Y-15998957D02*
X5521832Y-16018004D01*
X5521832Y-16018004D02*
X5502784Y-16027528D01*
X5702784Y-16151337D02*
X5712308Y-16160861D01*
X5712308Y-16160861D02*
X5702784Y-16170385D01*
X5702784Y-16170385D02*
X5693260Y-16160861D01*
X5693260Y-16160861D02*
X5702784Y-16151337D01*
X5702784Y-16151337D02*
X5702784Y-16170385D01*
X5778974Y-15970385D02*
X5912308Y-15970385D01*
X5912308Y-15970385D02*
X5826593Y-16170385D01*
X6026593Y-15970385D02*
X6045641Y-15970385D01*
X6045641Y-15970385D02*
X6064689Y-15979909D01*
X6064689Y-15979909D02*
X6074212Y-15989433D01*
X6074212Y-15989433D02*
X6083736Y-16008480D01*
X6083736Y-16008480D02*
X6093260Y-16046576D01*
X6093260Y-16046576D02*
X6093260Y-16094195D01*
X6093260Y-16094195D02*
X6083736Y-16132290D01*
X6083736Y-16132290D02*
X6074212Y-16151337D01*
X6074212Y-16151337D02*
X6064689Y-16160861D01*
X6064689Y-16160861D02*
X6045641Y-16170385D01*
X6045641Y-16170385D02*
X6026593Y-16170385D01*
X6026593Y-16170385D02*
X6007546Y-16160861D01*
X6007546Y-16160861D02*
X5998022Y-16151337D01*
X5998022Y-16151337D02*
X5988498Y-16132290D01*
X5988498Y-16132290D02*
X5978974Y-16094195D01*
X5978974Y-16094195D02*
X5978974Y-16046576D01*
X5978974Y-16046576D02*
X5988498Y-16008480D01*
X5988498Y-16008480D02*
X5998022Y-15989433D01*
X5998022Y-15989433D02*
X6007546Y-15979909D01*
X6007546Y-15979909D02*
X6026593Y-15970385D01*
X6169451Y-15989433D02*
X6178974Y-15979909D01*
X6178974Y-15979909D02*
X6198022Y-15970385D01*
X6198022Y-15970385D02*
X6245641Y-15970385D01*
X6245641Y-15970385D02*
X6264689Y-15979909D01*
X6264689Y-15979909D02*
X6274212Y-15989433D01*
X6274212Y-15989433D02*
X6283736Y-16008480D01*
X6283736Y-16008480D02*
X6283736Y-16027528D01*
X6283736Y-16027528D02*
X6274212Y-16056099D01*
X6274212Y-16056099D02*
X6159927Y-16170385D01*
X6159927Y-16170385D02*
X6283736Y-16170385D01*
X6369451Y-16170385D02*
X6369451Y-16037052D01*
X6369451Y-16056099D02*
X6378974Y-16046576D01*
X6378974Y-16046576D02*
X6398022Y-16037052D01*
X6398022Y-16037052D02*
X6426593Y-16037052D01*
X6426593Y-16037052D02*
X6445641Y-16046576D01*
X6445641Y-16046576D02*
X6455165Y-16065623D01*
X6455165Y-16065623D02*
X6455165Y-16170385D01*
X6455165Y-16065623D02*
X6464689Y-16046576D01*
X6464689Y-16046576D02*
X6483736Y-16037052D01*
X6483736Y-16037052D02*
X6512308Y-16037052D01*
X6512308Y-16037052D02*
X6531355Y-16046576D01*
X6531355Y-16046576D02*
X6540879Y-16065623D01*
X6540879Y-16065623D02*
X6540879Y-16170385D01*
X6636117Y-16170385D02*
X6636117Y-16037052D01*
X6636117Y-16056099D02*
X6645641Y-16046576D01*
X6645641Y-16046576D02*
X6664689Y-16037052D01*
X6664689Y-16037052D02*
X6693260Y-16037052D01*
X6693260Y-16037052D02*
X6712308Y-16046576D01*
X6712308Y-16046576D02*
X6721832Y-16065623D01*
X6721832Y-16065623D02*
X6721832Y-16170385D01*
X6721832Y-16065623D02*
X6731355Y-16046576D01*
X6731355Y-16046576D02*
X6750403Y-16037052D01*
X6750403Y-16037052D02*
X6778974Y-16037052D01*
X6778974Y-16037052D02*
X6798022Y-16046576D01*
X6798022Y-16046576D02*
X6807546Y-16065623D01*
X6807546Y-16065623D02*
X6807546Y-16170385D01*
X7198022Y-15960861D02*
X7026594Y-16218004D01*
X7455165Y-15970385D02*
X7474213Y-15970385D01*
X7474213Y-15970385D02*
X7493260Y-15979909D01*
X7493260Y-15979909D02*
X7502784Y-15989433D01*
X7502784Y-15989433D02*
X7512308Y-16008480D01*
X7512308Y-16008480D02*
X7521832Y-16046576D01*
X7521832Y-16046576D02*
X7521832Y-16094195D01*
X7521832Y-16094195D02*
X7512308Y-16132290D01*
X7512308Y-16132290D02*
X7502784Y-16151337D01*
X7502784Y-16151337D02*
X7493260Y-16160861D01*
X7493260Y-16160861D02*
X7474213Y-16170385D01*
X7474213Y-16170385D02*
X7455165Y-16170385D01*
X7455165Y-16170385D02*
X7436117Y-16160861D01*
X7436117Y-16160861D02*
X7426594Y-16151337D01*
X7426594Y-16151337D02*
X7417070Y-16132290D01*
X7417070Y-16132290D02*
X7407546Y-16094195D01*
X7407546Y-16094195D02*
X7407546Y-16046576D01*
X7407546Y-16046576D02*
X7417070Y-16008480D01*
X7417070Y-16008480D02*
X7426594Y-15989433D01*
X7426594Y-15989433D02*
X7436117Y-15979909D01*
X7436117Y-15979909D02*
X7455165Y-15970385D01*
X7607546Y-16151337D02*
X7617070Y-16160861D01*
X7617070Y-16160861D02*
X7607546Y-16170385D01*
X7607546Y-16170385D02*
X7598022Y-16160861D01*
X7598022Y-16160861D02*
X7607546Y-16151337D01*
X7607546Y-16151337D02*
X7607546Y-16170385D01*
X7740879Y-15970385D02*
X7759927Y-15970385D01*
X7759927Y-15970385D02*
X7778975Y-15979909D01*
X7778975Y-15979909D02*
X7788498Y-15989433D01*
X7788498Y-15989433D02*
X7798022Y-16008480D01*
X7798022Y-16008480D02*
X7807546Y-16046576D01*
X7807546Y-16046576D02*
X7807546Y-16094195D01*
X7807546Y-16094195D02*
X7798022Y-16132290D01*
X7798022Y-16132290D02*
X7788498Y-16151337D01*
X7788498Y-16151337D02*
X7778975Y-16160861D01*
X7778975Y-16160861D02*
X7759927Y-16170385D01*
X7759927Y-16170385D02*
X7740879Y-16170385D01*
X7740879Y-16170385D02*
X7721832Y-16160861D01*
X7721832Y-16160861D02*
X7712308Y-16151337D01*
X7712308Y-16151337D02*
X7702784Y-16132290D01*
X7702784Y-16132290D02*
X7693260Y-16094195D01*
X7693260Y-16094195D02*
X7693260Y-16046576D01*
X7693260Y-16046576D02*
X7702784Y-16008480D01*
X7702784Y-16008480D02*
X7712308Y-15989433D01*
X7712308Y-15989433D02*
X7721832Y-15979909D01*
X7721832Y-15979909D02*
X7740879Y-15970385D01*
X7978975Y-15970385D02*
X7940879Y-15970385D01*
X7940879Y-15970385D02*
X7921832Y-15979909D01*
X7921832Y-15979909D02*
X7912308Y-15989433D01*
X7912308Y-15989433D02*
X7893260Y-16018004D01*
X7893260Y-16018004D02*
X7883736Y-16056099D01*
X7883736Y-16056099D02*
X7883736Y-16132290D01*
X7883736Y-16132290D02*
X7893260Y-16151337D01*
X7893260Y-16151337D02*
X7902784Y-16160861D01*
X7902784Y-16160861D02*
X7921832Y-16170385D01*
X7921832Y-16170385D02*
X7959927Y-16170385D01*
X7959927Y-16170385D02*
X7978975Y-16160861D01*
X7978975Y-16160861D02*
X7988498Y-16151337D01*
X7988498Y-16151337D02*
X7998022Y-16132290D01*
X7998022Y-16132290D02*
X7998022Y-16084671D01*
X7998022Y-16084671D02*
X7988498Y-16065623D01*
X7988498Y-16065623D02*
X7978975Y-16056099D01*
X7978975Y-16056099D02*
X7959927Y-16046576D01*
X7959927Y-16046576D02*
X7921832Y-16046576D01*
X7921832Y-16046576D02*
X7902784Y-16056099D01*
X7902784Y-16056099D02*
X7893260Y-16065623D01*
X7893260Y-16065623D02*
X7883736Y-16084671D01*
X8064689Y-15970385D02*
X8198022Y-15970385D01*
X8198022Y-15970385D02*
X8112308Y-16170385D01*
X8312308Y-15970385D02*
X8331356Y-15970385D01*
X8331356Y-15970385D02*
X8350403Y-15979909D01*
X8350403Y-15979909D02*
X8359927Y-15989433D01*
X8359927Y-15989433D02*
X8369451Y-16008480D01*
X8369451Y-16008480D02*
X8378975Y-16046576D01*
X8378975Y-16046576D02*
X8378975Y-16094195D01*
X8378975Y-16094195D02*
X8369451Y-16132290D01*
X8369451Y-16132290D02*
X8359927Y-16151337D01*
X8359927Y-16151337D02*
X8350403Y-16160861D01*
X8350403Y-16160861D02*
X8331356Y-16170385D01*
X8331356Y-16170385D02*
X8312308Y-16170385D01*
X8312308Y-16170385D02*
X8293260Y-16160861D01*
X8293260Y-16160861D02*
X8283736Y-16151337D01*
X8283736Y-16151337D02*
X8274213Y-16132290D01*
X8274213Y-16132290D02*
X8264689Y-16094195D01*
X8264689Y-16094195D02*
X8264689Y-16046576D01*
X8264689Y-16046576D02*
X8274213Y-16008480D01*
X8274213Y-16008480D02*
X8283736Y-15989433D01*
X8283736Y-15989433D02*
X8293260Y-15979909D01*
X8293260Y-15979909D02*
X8312308Y-15970385D01*
X8455165Y-15970385D02*
X8455165Y-16008480D01*
X8531356Y-15970385D02*
X8531356Y-16008480D01*
X8826594Y-16246576D02*
X8817070Y-16237052D01*
X8817070Y-16237052D02*
X8798022Y-16208480D01*
X8798022Y-16208480D02*
X8788499Y-16189433D01*
X8788499Y-16189433D02*
X8778975Y-16160861D01*
X8778975Y-16160861D02*
X8769451Y-16113242D01*
X8769451Y-16113242D02*
X8769451Y-16075147D01*
X8769451Y-16075147D02*
X8778975Y-16027528D01*
X8778975Y-16027528D02*
X8788499Y-15998957D01*
X8788499Y-15998957D02*
X8798022Y-15979909D01*
X8798022Y-15979909D02*
X8817070Y-15951337D01*
X8817070Y-15951337D02*
X8826594Y-15941814D01*
X8893260Y-15989433D02*
X8902784Y-15979909D01*
X8902784Y-15979909D02*
X8921832Y-15970385D01*
X8921832Y-15970385D02*
X8969451Y-15970385D01*
X8969451Y-15970385D02*
X8988499Y-15979909D01*
X8988499Y-15979909D02*
X8998022Y-15989433D01*
X8998022Y-15989433D02*
X9007546Y-16008480D01*
X9007546Y-16008480D02*
X9007546Y-16027528D01*
X9007546Y-16027528D02*
X8998022Y-16056099D01*
X8998022Y-16056099D02*
X8883737Y-16170385D01*
X8883737Y-16170385D02*
X9007546Y-16170385D01*
X9121832Y-16056099D02*
X9102784Y-16046576D01*
X9102784Y-16046576D02*
X9093260Y-16037052D01*
X9093260Y-16037052D02*
X9083737Y-16018004D01*
X9083737Y-16018004D02*
X9083737Y-16008480D01*
X9083737Y-16008480D02*
X9093260Y-15989433D01*
X9093260Y-15989433D02*
X9102784Y-15979909D01*
X9102784Y-15979909D02*
X9121832Y-15970385D01*
X9121832Y-15970385D02*
X9159927Y-15970385D01*
X9159927Y-15970385D02*
X9178975Y-15979909D01*
X9178975Y-15979909D02*
X9188499Y-15989433D01*
X9188499Y-15989433D02*
X9198022Y-16008480D01*
X9198022Y-16008480D02*
X9198022Y-16018004D01*
X9198022Y-16018004D02*
X9188499Y-16037052D01*
X9188499Y-16037052D02*
X9178975Y-16046576D01*
X9178975Y-16046576D02*
X9159927Y-16056099D01*
X9159927Y-16056099D02*
X9121832Y-16056099D01*
X9121832Y-16056099D02*
X9102784Y-16065623D01*
X9102784Y-16065623D02*
X9093260Y-16075147D01*
X9093260Y-16075147D02*
X9083737Y-16094195D01*
X9083737Y-16094195D02*
X9083737Y-16132290D01*
X9083737Y-16132290D02*
X9093260Y-16151337D01*
X9093260Y-16151337D02*
X9102784Y-16160861D01*
X9102784Y-16160861D02*
X9121832Y-16170385D01*
X9121832Y-16170385D02*
X9159927Y-16170385D01*
X9159927Y-16170385D02*
X9178975Y-16160861D01*
X9178975Y-16160861D02*
X9188499Y-16151337D01*
X9188499Y-16151337D02*
X9198022Y-16132290D01*
X9198022Y-16132290D02*
X9198022Y-16094195D01*
X9198022Y-16094195D02*
X9188499Y-16075147D01*
X9188499Y-16075147D02*
X9178975Y-16065623D01*
X9178975Y-16065623D02*
X9159927Y-16056099D01*
X9436118Y-16170385D02*
X9436118Y-15970385D01*
X9521832Y-16170385D02*
X9521832Y-16065623D01*
X9521832Y-16065623D02*
X9512308Y-16046576D01*
X9512308Y-16046576D02*
X9493261Y-16037052D01*
X9493261Y-16037052D02*
X9464689Y-16037052D01*
X9464689Y-16037052D02*
X9445641Y-16046576D01*
X9445641Y-16046576D02*
X9436118Y-16056099D01*
X9645641Y-16170385D02*
X9626594Y-16160861D01*
X9626594Y-16160861D02*
X9617070Y-16151337D01*
X9617070Y-16151337D02*
X9607546Y-16132290D01*
X9607546Y-16132290D02*
X9607546Y-16075147D01*
X9607546Y-16075147D02*
X9617070Y-16056099D01*
X9617070Y-16056099D02*
X9626594Y-16046576D01*
X9626594Y-16046576D02*
X9645641Y-16037052D01*
X9645641Y-16037052D02*
X9674213Y-16037052D01*
X9674213Y-16037052D02*
X9693261Y-16046576D01*
X9693261Y-16046576D02*
X9702784Y-16056099D01*
X9702784Y-16056099D02*
X9712308Y-16075147D01*
X9712308Y-16075147D02*
X9712308Y-16132290D01*
X9712308Y-16132290D02*
X9702784Y-16151337D01*
X9702784Y-16151337D02*
X9693261Y-16160861D01*
X9693261Y-16160861D02*
X9674213Y-16170385D01*
X9674213Y-16170385D02*
X9645641Y-16170385D01*
X9826594Y-16170385D02*
X9807546Y-16160861D01*
X9807546Y-16160861D02*
X9798022Y-16141814D01*
X9798022Y-16141814D02*
X9798022Y-15970385D01*
X9978975Y-16160861D02*
X9959927Y-16170385D01*
X9959927Y-16170385D02*
X9921832Y-16170385D01*
X9921832Y-16170385D02*
X9902784Y-16160861D01*
X9902784Y-16160861D02*
X9893261Y-16141814D01*
X9893261Y-16141814D02*
X9893261Y-16065623D01*
X9893261Y-16065623D02*
X9902784Y-16046576D01*
X9902784Y-16046576D02*
X9921832Y-16037052D01*
X9921832Y-16037052D02*
X9959927Y-16037052D01*
X9959927Y-16037052D02*
X9978975Y-16046576D01*
X9978975Y-16046576D02*
X9988499Y-16065623D01*
X9988499Y-16065623D02*
X9988499Y-16084671D01*
X9988499Y-16084671D02*
X9893261Y-16103718D01*
X10064689Y-16160861D02*
X10083737Y-16170385D01*
X10083737Y-16170385D02*
X10121832Y-16170385D01*
X10121832Y-16170385D02*
X10140880Y-16160861D01*
X10140880Y-16160861D02*
X10150403Y-16141814D01*
X10150403Y-16141814D02*
X10150403Y-16132290D01*
X10150403Y-16132290D02*
X10140880Y-16113242D01*
X10140880Y-16113242D02*
X10121832Y-16103718D01*
X10121832Y-16103718D02*
X10093261Y-16103718D01*
X10093261Y-16103718D02*
X10074213Y-16094195D01*
X10074213Y-16094195D02*
X10064689Y-16075147D01*
X10064689Y-16075147D02*
X10064689Y-16065623D01*
X10064689Y-16065623D02*
X10074213Y-16046576D01*
X10074213Y-16046576D02*
X10093261Y-16037052D01*
X10093261Y-16037052D02*
X10121832Y-16037052D01*
X10121832Y-16037052D02*
X10140880Y-16046576D01*
X10217070Y-16246576D02*
X10226594Y-16237052D01*
X10226594Y-16237052D02*
X10245642Y-16208480D01*
X10245642Y-16208480D02*
X10255165Y-16189433D01*
X10255165Y-16189433D02*
X10264689Y-16160861D01*
X10264689Y-16160861D02*
X10274213Y-16113242D01*
X10274213Y-16113242D02*
X10274213Y-16075147D01*
X10274213Y-16075147D02*
X10264689Y-16027528D01*
X10264689Y-16027528D02*
X10255165Y-15998957D01*
X10255165Y-15998957D02*
X10245642Y-15979909D01*
X10245642Y-15979909D02*
X10226594Y-15951337D01*
X10226594Y-15951337D02*
X10217070Y-15941814D01*
X10578975Y-16246576D02*
X10569451Y-16237052D01*
X10569451Y-16237052D02*
X10550403Y-16208480D01*
X10550403Y-16208480D02*
X10540880Y-16189433D01*
X10540880Y-16189433D02*
X10531356Y-16160861D01*
X10531356Y-16160861D02*
X10521832Y-16113242D01*
X10521832Y-16113242D02*
X10521832Y-16075147D01*
X10521832Y-16075147D02*
X10531356Y-16027528D01*
X10531356Y-16027528D02*
X10540880Y-15998957D01*
X10540880Y-15998957D02*
X10550403Y-15979909D01*
X10550403Y-15979909D02*
X10569451Y-15951337D01*
X10569451Y-15951337D02*
X10578975Y-15941814D01*
X10655165Y-16037052D02*
X10655165Y-16170385D01*
X10655165Y-16056099D02*
X10664689Y-16046576D01*
X10664689Y-16046576D02*
X10683737Y-16037052D01*
X10683737Y-16037052D02*
X10712308Y-16037052D01*
X10712308Y-16037052D02*
X10731356Y-16046576D01*
X10731356Y-16046576D02*
X10740880Y-16065623D01*
X10740880Y-16065623D02*
X10740880Y-16170385D01*
X10864689Y-16170385D02*
X10845642Y-16160861D01*
X10845642Y-16160861D02*
X10836118Y-16151337D01*
X10836118Y-16151337D02*
X10826594Y-16132290D01*
X10826594Y-16132290D02*
X10826594Y-16075147D01*
X10826594Y-16075147D02*
X10836118Y-16056099D01*
X10836118Y-16056099D02*
X10845642Y-16046576D01*
X10845642Y-16046576D02*
X10864689Y-16037052D01*
X10864689Y-16037052D02*
X10893261Y-16037052D01*
X10893261Y-16037052D02*
X10912308Y-16046576D01*
X10912308Y-16046576D02*
X10921832Y-16056099D01*
X10921832Y-16056099D02*
X10931356Y-16075147D01*
X10931356Y-16075147D02*
X10931356Y-16132290D01*
X10931356Y-16132290D02*
X10921832Y-16151337D01*
X10921832Y-16151337D02*
X10912308Y-16160861D01*
X10912308Y-16160861D02*
X10893261Y-16170385D01*
X10893261Y-16170385D02*
X10864689Y-16170385D01*
X10988499Y-16037052D02*
X11064689Y-16037052D01*
X11017070Y-15970385D02*
X11017070Y-16141814D01*
X11017070Y-16141814D02*
X11026594Y-16160861D01*
X11026594Y-16160861D02*
X11045642Y-16170385D01*
X11045642Y-16170385D02*
X11064689Y-16170385D01*
X11283737Y-16037052D02*
X11283737Y-16237052D01*
X11283737Y-16046576D02*
X11302784Y-16037052D01*
X11302784Y-16037052D02*
X11340880Y-16037052D01*
X11340880Y-16037052D02*
X11359927Y-16046576D01*
X11359927Y-16046576D02*
X11369451Y-16056099D01*
X11369451Y-16056099D02*
X11378975Y-16075147D01*
X11378975Y-16075147D02*
X11378975Y-16132290D01*
X11378975Y-16132290D02*
X11369451Y-16151337D01*
X11369451Y-16151337D02*
X11359927Y-16160861D01*
X11359927Y-16160861D02*
X11340880Y-16170385D01*
X11340880Y-16170385D02*
X11302784Y-16170385D01*
X11302784Y-16170385D02*
X11283737Y-16160861D01*
X11493261Y-16170385D02*
X11474213Y-16160861D01*
X11474213Y-16160861D02*
X11464689Y-16141814D01*
X11464689Y-16141814D02*
X11464689Y-15970385D01*
X11655165Y-16170385D02*
X11655165Y-16065623D01*
X11655165Y-16065623D02*
X11645642Y-16046576D01*
X11645642Y-16046576D02*
X11626594Y-16037052D01*
X11626594Y-16037052D02*
X11588499Y-16037052D01*
X11588499Y-16037052D02*
X11569451Y-16046576D01*
X11655165Y-16160861D02*
X11636118Y-16170385D01*
X11636118Y-16170385D02*
X11588499Y-16170385D01*
X11588499Y-16170385D02*
X11569451Y-16160861D01*
X11569451Y-16160861D02*
X11559927Y-16141814D01*
X11559927Y-16141814D02*
X11559927Y-16122766D01*
X11559927Y-16122766D02*
X11569451Y-16103718D01*
X11569451Y-16103718D02*
X11588499Y-16094195D01*
X11588499Y-16094195D02*
X11636118Y-16094195D01*
X11636118Y-16094195D02*
X11655165Y-16084671D01*
X11721832Y-16037052D02*
X11798022Y-16037052D01*
X11750403Y-15970385D02*
X11750403Y-16141814D01*
X11750403Y-16141814D02*
X11759927Y-16160861D01*
X11759927Y-16160861D02*
X11778975Y-16170385D01*
X11778975Y-16170385D02*
X11798022Y-16170385D01*
X11940880Y-16160861D02*
X11921832Y-16170385D01*
X11921832Y-16170385D02*
X11883737Y-16170385D01*
X11883737Y-16170385D02*
X11864689Y-16160861D01*
X11864689Y-16160861D02*
X11855165Y-16141814D01*
X11855165Y-16141814D02*
X11855165Y-16065623D01*
X11855165Y-16065623D02*
X11864689Y-16046576D01*
X11864689Y-16046576D02*
X11883737Y-16037052D01*
X11883737Y-16037052D02*
X11921832Y-16037052D01*
X11921832Y-16037052D02*
X11940880Y-16046576D01*
X11940880Y-16046576D02*
X11950403Y-16065623D01*
X11950403Y-16065623D02*
X11950403Y-16084671D01*
X11950403Y-16084671D02*
X11855165Y-16103718D01*
X12121832Y-16170385D02*
X12121832Y-15970385D01*
X12121832Y-16160861D02*
X12102784Y-16170385D01*
X12102784Y-16170385D02*
X12064689Y-16170385D01*
X12064689Y-16170385D02*
X12045642Y-16160861D01*
X12045642Y-16160861D02*
X12036118Y-16151337D01*
X12036118Y-16151337D02*
X12026594Y-16132290D01*
X12026594Y-16132290D02*
X12026594Y-16075147D01*
X12026594Y-16075147D02*
X12036118Y-16056099D01*
X12036118Y-16056099D02*
X12045642Y-16046576D01*
X12045642Y-16046576D02*
X12064689Y-16037052D01*
X12064689Y-16037052D02*
X12102784Y-16037052D01*
X12102784Y-16037052D02*
X12121832Y-16046576D01*
X12198023Y-16246576D02*
X12207546Y-16237052D01*
X12207546Y-16237052D02*
X12226594Y-16208480D01*
X12226594Y-16208480D02*
X12236118Y-16189433D01*
X12236118Y-16189433D02*
X12245642Y-16160861D01*
X12245642Y-16160861D02*
X12255165Y-16113242D01*
X12255165Y-16113242D02*
X12255165Y-16075147D01*
X12255165Y-16075147D02*
X12245642Y-16027528D01*
X12245642Y-16027528D02*
X12236118Y-15998957D01*
X12236118Y-15998957D02*
X12226594Y-15979909D01*
X12226594Y-15979909D02*
X12207546Y-15951337D01*
X12207546Y-15951337D02*
X12198023Y-15941814D01*
X5251531Y-16369081D02*
G75*
G03*
X5251531Y-16369081I-100000J0D01*
G01*
X5493260Y-16260565D02*
X5617070Y-16260565D01*
X5617070Y-16260565D02*
X5550403Y-16336756D01*
X5550403Y-16336756D02*
X5578974Y-16336756D01*
X5578974Y-16336756D02*
X5598022Y-16346279D01*
X5598022Y-16346279D02*
X5607546Y-16355803D01*
X5607546Y-16355803D02*
X5617070Y-16374851D01*
X5617070Y-16374851D02*
X5617070Y-16422470D01*
X5617070Y-16422470D02*
X5607546Y-16441517D01*
X5607546Y-16441517D02*
X5598022Y-16451041D01*
X5598022Y-16451041D02*
X5578974Y-16460565D01*
X5578974Y-16460565D02*
X5521832Y-16460565D01*
X5521832Y-16460565D02*
X5502784Y-16451041D01*
X5502784Y-16451041D02*
X5493260Y-16441517D01*
X5702784Y-16441517D02*
X5712308Y-16451041D01*
X5712308Y-16451041D02*
X5702784Y-16460565D01*
X5702784Y-16460565D02*
X5693260Y-16451041D01*
X5693260Y-16451041D02*
X5702784Y-16441517D01*
X5702784Y-16441517D02*
X5702784Y-16460565D01*
X5836117Y-16260565D02*
X5855165Y-16260565D01*
X5855165Y-16260565D02*
X5874212Y-16270089D01*
X5874212Y-16270089D02*
X5883736Y-16279613D01*
X5883736Y-16279613D02*
X5893260Y-16298660D01*
X5893260Y-16298660D02*
X5902784Y-16336756D01*
X5902784Y-16336756D02*
X5902784Y-16384375D01*
X5902784Y-16384375D02*
X5893260Y-16422470D01*
X5893260Y-16422470D02*
X5883736Y-16441517D01*
X5883736Y-16441517D02*
X5874212Y-16451041D01*
X5874212Y-16451041D02*
X5855165Y-16460565D01*
X5855165Y-16460565D02*
X5836117Y-16460565D01*
X5836117Y-16460565D02*
X5817070Y-16451041D01*
X5817070Y-16451041D02*
X5807546Y-16441517D01*
X5807546Y-16441517D02*
X5798022Y-16422470D01*
X5798022Y-16422470D02*
X5788498Y-16384375D01*
X5788498Y-16384375D02*
X5788498Y-16336756D01*
X5788498Y-16336756D02*
X5798022Y-16298660D01*
X5798022Y-16298660D02*
X5807546Y-16279613D01*
X5807546Y-16279613D02*
X5817070Y-16270089D01*
X5817070Y-16270089D02*
X5836117Y-16260565D01*
X6026593Y-16260565D02*
X6045641Y-16260565D01*
X6045641Y-16260565D02*
X6064689Y-16270089D01*
X6064689Y-16270089D02*
X6074212Y-16279613D01*
X6074212Y-16279613D02*
X6083736Y-16298660D01*
X6083736Y-16298660D02*
X6093260Y-16336756D01*
X6093260Y-16336756D02*
X6093260Y-16384375D01*
X6093260Y-16384375D02*
X6083736Y-16422470D01*
X6083736Y-16422470D02*
X6074212Y-16441517D01*
X6074212Y-16441517D02*
X6064689Y-16451041D01*
X6064689Y-16451041D02*
X6045641Y-16460565D01*
X6045641Y-16460565D02*
X6026593Y-16460565D01*
X6026593Y-16460565D02*
X6007546Y-16451041D01*
X6007546Y-16451041D02*
X5998022Y-16441517D01*
X5998022Y-16441517D02*
X5988498Y-16422470D01*
X5988498Y-16422470D02*
X5978974Y-16384375D01*
X5978974Y-16384375D02*
X5978974Y-16336756D01*
X5978974Y-16336756D02*
X5988498Y-16298660D01*
X5988498Y-16298660D02*
X5998022Y-16279613D01*
X5998022Y-16279613D02*
X6007546Y-16270089D01*
X6007546Y-16270089D02*
X6026593Y-16260565D01*
X6217070Y-16260565D02*
X6236117Y-16260565D01*
X6236117Y-16260565D02*
X6255165Y-16270089D01*
X6255165Y-16270089D02*
X6264689Y-16279613D01*
X6264689Y-16279613D02*
X6274212Y-16298660D01*
X6274212Y-16298660D02*
X6283736Y-16336756D01*
X6283736Y-16336756D02*
X6283736Y-16384375D01*
X6283736Y-16384375D02*
X6274212Y-16422470D01*
X6274212Y-16422470D02*
X6264689Y-16441517D01*
X6264689Y-16441517D02*
X6255165Y-16451041D01*
X6255165Y-16451041D02*
X6236117Y-16460565D01*
X6236117Y-16460565D02*
X6217070Y-16460565D01*
X6217070Y-16460565D02*
X6198022Y-16451041D01*
X6198022Y-16451041D02*
X6188498Y-16441517D01*
X6188498Y-16441517D02*
X6178974Y-16422470D01*
X6178974Y-16422470D02*
X6169451Y-16384375D01*
X6169451Y-16384375D02*
X6169451Y-16336756D01*
X6169451Y-16336756D02*
X6178974Y-16298660D01*
X6178974Y-16298660D02*
X6188498Y-16279613D01*
X6188498Y-16279613D02*
X6198022Y-16270089D01*
X6198022Y-16270089D02*
X6217070Y-16260565D01*
X6369451Y-16460565D02*
X6369451Y-16327232D01*
X6369451Y-16346279D02*
X6378974Y-16336756D01*
X6378974Y-16336756D02*
X6398022Y-16327232D01*
X6398022Y-16327232D02*
X6426593Y-16327232D01*
X6426593Y-16327232D02*
X6445641Y-16336756D01*
X6445641Y-16336756D02*
X6455165Y-16355803D01*
X6455165Y-16355803D02*
X6455165Y-16460565D01*
X6455165Y-16355803D02*
X6464689Y-16336756D01*
X6464689Y-16336756D02*
X6483736Y-16327232D01*
X6483736Y-16327232D02*
X6512308Y-16327232D01*
X6512308Y-16327232D02*
X6531355Y-16336756D01*
X6531355Y-16336756D02*
X6540879Y-16355803D01*
X6540879Y-16355803D02*
X6540879Y-16460565D01*
X6636117Y-16460565D02*
X6636117Y-16327232D01*
X6636117Y-16346279D02*
X6645641Y-16336756D01*
X6645641Y-16336756D02*
X6664689Y-16327232D01*
X6664689Y-16327232D02*
X6693260Y-16327232D01*
X6693260Y-16327232D02*
X6712308Y-16336756D01*
X6712308Y-16336756D02*
X6721832Y-16355803D01*
X6721832Y-16355803D02*
X6721832Y-16460565D01*
X6721832Y-16355803D02*
X6731355Y-16336756D01*
X6731355Y-16336756D02*
X6750403Y-16327232D01*
X6750403Y-16327232D02*
X6778974Y-16327232D01*
X6778974Y-16327232D02*
X6798022Y-16336756D01*
X6798022Y-16336756D02*
X6807546Y-16355803D01*
X6807546Y-16355803D02*
X6807546Y-16460565D01*
X7198022Y-16251041D02*
X7026594Y-16508184D01*
X7455165Y-16260565D02*
X7474213Y-16260565D01*
X7474213Y-16260565D02*
X7493260Y-16270089D01*
X7493260Y-16270089D02*
X7502784Y-16279613D01*
X7502784Y-16279613D02*
X7512308Y-16298660D01*
X7512308Y-16298660D02*
X7521832Y-16336756D01*
X7521832Y-16336756D02*
X7521832Y-16384375D01*
X7521832Y-16384375D02*
X7512308Y-16422470D01*
X7512308Y-16422470D02*
X7502784Y-16441517D01*
X7502784Y-16441517D02*
X7493260Y-16451041D01*
X7493260Y-16451041D02*
X7474213Y-16460565D01*
X7474213Y-16460565D02*
X7455165Y-16460565D01*
X7455165Y-16460565D02*
X7436117Y-16451041D01*
X7436117Y-16451041D02*
X7426594Y-16441517D01*
X7426594Y-16441517D02*
X7417070Y-16422470D01*
X7417070Y-16422470D02*
X7407546Y-16384375D01*
X7407546Y-16384375D02*
X7407546Y-16336756D01*
X7407546Y-16336756D02*
X7417070Y-16298660D01*
X7417070Y-16298660D02*
X7426594Y-16279613D01*
X7426594Y-16279613D02*
X7436117Y-16270089D01*
X7436117Y-16270089D02*
X7455165Y-16260565D01*
X7607546Y-16441517D02*
X7617070Y-16451041D01*
X7617070Y-16451041D02*
X7607546Y-16460565D01*
X7607546Y-16460565D02*
X7598022Y-16451041D01*
X7598022Y-16451041D02*
X7607546Y-16441517D01*
X7607546Y-16441517D02*
X7607546Y-16460565D01*
X7807546Y-16460565D02*
X7693260Y-16460565D01*
X7750403Y-16460565D02*
X7750403Y-16260565D01*
X7750403Y-16260565D02*
X7731355Y-16289137D01*
X7731355Y-16289137D02*
X7712308Y-16308184D01*
X7712308Y-16308184D02*
X7693260Y-16317708D01*
X7998022Y-16460565D02*
X7883736Y-16460565D01*
X7940879Y-16460565D02*
X7940879Y-16260565D01*
X7940879Y-16260565D02*
X7921832Y-16289137D01*
X7921832Y-16289137D02*
X7902784Y-16308184D01*
X7902784Y-16308184D02*
X7883736Y-16317708D01*
X8112308Y-16346279D02*
X8093260Y-16336756D01*
X8093260Y-16336756D02*
X8083736Y-16327232D01*
X8083736Y-16327232D02*
X8074213Y-16308184D01*
X8074213Y-16308184D02*
X8074213Y-16298660D01*
X8074213Y-16298660D02*
X8083736Y-16279613D01*
X8083736Y-16279613D02*
X8093260Y-16270089D01*
X8093260Y-16270089D02*
X8112308Y-16260565D01*
X8112308Y-16260565D02*
X8150403Y-16260565D01*
X8150403Y-16260565D02*
X8169451Y-16270089D01*
X8169451Y-16270089D02*
X8178975Y-16279613D01*
X8178975Y-16279613D02*
X8188498Y-16298660D01*
X8188498Y-16298660D02*
X8188498Y-16308184D01*
X8188498Y-16308184D02*
X8178975Y-16327232D01*
X8178975Y-16327232D02*
X8169451Y-16336756D01*
X8169451Y-16336756D02*
X8150403Y-16346279D01*
X8150403Y-16346279D02*
X8112308Y-16346279D01*
X8112308Y-16346279D02*
X8093260Y-16355803D01*
X8093260Y-16355803D02*
X8083736Y-16365327D01*
X8083736Y-16365327D02*
X8074213Y-16384375D01*
X8074213Y-16384375D02*
X8074213Y-16422470D01*
X8074213Y-16422470D02*
X8083736Y-16441517D01*
X8083736Y-16441517D02*
X8093260Y-16451041D01*
X8093260Y-16451041D02*
X8112308Y-16460565D01*
X8112308Y-16460565D02*
X8150403Y-16460565D01*
X8150403Y-16460565D02*
X8169451Y-16451041D01*
X8169451Y-16451041D02*
X8178975Y-16441517D01*
X8178975Y-16441517D02*
X8188498Y-16422470D01*
X8188498Y-16422470D02*
X8188498Y-16384375D01*
X8188498Y-16384375D02*
X8178975Y-16365327D01*
X8178975Y-16365327D02*
X8169451Y-16355803D01*
X8169451Y-16355803D02*
X8150403Y-16346279D01*
X8378975Y-16460565D02*
X8264689Y-16460565D01*
X8321832Y-16460565D02*
X8321832Y-16260565D01*
X8321832Y-16260565D02*
X8302784Y-16289137D01*
X8302784Y-16289137D02*
X8283736Y-16308184D01*
X8283736Y-16308184D02*
X8264689Y-16317708D01*
X8455165Y-16260565D02*
X8455165Y-16298660D01*
X8531356Y-16260565D02*
X8531356Y-16298660D01*
X8826594Y-16536756D02*
X8817070Y-16527232D01*
X8817070Y-16527232D02*
X8798022Y-16498660D01*
X8798022Y-16498660D02*
X8788499Y-16479613D01*
X8788499Y-16479613D02*
X8778975Y-16451041D01*
X8778975Y-16451041D02*
X8769451Y-16403422D01*
X8769451Y-16403422D02*
X8769451Y-16365327D01*
X8769451Y-16365327D02*
X8778975Y-16317708D01*
X8778975Y-16317708D02*
X8788499Y-16289137D01*
X8788499Y-16289137D02*
X8798022Y-16270089D01*
X8798022Y-16270089D02*
X8817070Y-16241517D01*
X8817070Y-16241517D02*
X8826594Y-16231994D01*
X8893260Y-16279613D02*
X8902784Y-16270089D01*
X8902784Y-16270089D02*
X8921832Y-16260565D01*
X8921832Y-16260565D02*
X8969451Y-16260565D01*
X8969451Y-16260565D02*
X8988499Y-16270089D01*
X8988499Y-16270089D02*
X8998022Y-16279613D01*
X8998022Y-16279613D02*
X9007546Y-16298660D01*
X9007546Y-16298660D02*
X9007546Y-16317708D01*
X9007546Y-16317708D02*
X8998022Y-16346279D01*
X8998022Y-16346279D02*
X8883737Y-16460565D01*
X8883737Y-16460565D02*
X9007546Y-16460565D01*
X9121832Y-16346279D02*
X9102784Y-16336756D01*
X9102784Y-16336756D02*
X9093260Y-16327232D01*
X9093260Y-16327232D02*
X9083737Y-16308184D01*
X9083737Y-16308184D02*
X9083737Y-16298660D01*
X9083737Y-16298660D02*
X9093260Y-16279613D01*
X9093260Y-16279613D02*
X9102784Y-16270089D01*
X9102784Y-16270089D02*
X9121832Y-16260565D01*
X9121832Y-16260565D02*
X9159927Y-16260565D01*
X9159927Y-16260565D02*
X9178975Y-16270089D01*
X9178975Y-16270089D02*
X9188499Y-16279613D01*
X9188499Y-16279613D02*
X9198022Y-16298660D01*
X9198022Y-16298660D02*
X9198022Y-16308184D01*
X9198022Y-16308184D02*
X9188499Y-16327232D01*
X9188499Y-16327232D02*
X9178975Y-16336756D01*
X9178975Y-16336756D02*
X9159927Y-16346279D01*
X9159927Y-16346279D02*
X9121832Y-16346279D01*
X9121832Y-16346279D02*
X9102784Y-16355803D01*
X9102784Y-16355803D02*
X9093260Y-16365327D01*
X9093260Y-16365327D02*
X9083737Y-16384375D01*
X9083737Y-16384375D02*
X9083737Y-16422470D01*
X9083737Y-16422470D02*
X9093260Y-16441517D01*
X9093260Y-16441517D02*
X9102784Y-16451041D01*
X9102784Y-16451041D02*
X9121832Y-16460565D01*
X9121832Y-16460565D02*
X9159927Y-16460565D01*
X9159927Y-16460565D02*
X9178975Y-16451041D01*
X9178975Y-16451041D02*
X9188499Y-16441517D01*
X9188499Y-16441517D02*
X9198022Y-16422470D01*
X9198022Y-16422470D02*
X9198022Y-16384375D01*
X9198022Y-16384375D02*
X9188499Y-16365327D01*
X9188499Y-16365327D02*
X9178975Y-16355803D01*
X9178975Y-16355803D02*
X9159927Y-16346279D01*
X9436118Y-16460565D02*
X9436118Y-16260565D01*
X9521832Y-16460565D02*
X9521832Y-16355803D01*
X9521832Y-16355803D02*
X9512308Y-16336756D01*
X9512308Y-16336756D02*
X9493261Y-16327232D01*
X9493261Y-16327232D02*
X9464689Y-16327232D01*
X9464689Y-16327232D02*
X9445641Y-16336756D01*
X9445641Y-16336756D02*
X9436118Y-16346279D01*
X9645641Y-16460565D02*
X9626594Y-16451041D01*
X9626594Y-16451041D02*
X9617070Y-16441517D01*
X9617070Y-16441517D02*
X9607546Y-16422470D01*
X9607546Y-16422470D02*
X9607546Y-16365327D01*
X9607546Y-16365327D02*
X9617070Y-16346279D01*
X9617070Y-16346279D02*
X9626594Y-16336756D01*
X9626594Y-16336756D02*
X9645641Y-16327232D01*
X9645641Y-16327232D02*
X9674213Y-16327232D01*
X9674213Y-16327232D02*
X9693261Y-16336756D01*
X9693261Y-16336756D02*
X9702784Y-16346279D01*
X9702784Y-16346279D02*
X9712308Y-16365327D01*
X9712308Y-16365327D02*
X9712308Y-16422470D01*
X9712308Y-16422470D02*
X9702784Y-16441517D01*
X9702784Y-16441517D02*
X9693261Y-16451041D01*
X9693261Y-16451041D02*
X9674213Y-16460565D01*
X9674213Y-16460565D02*
X9645641Y-16460565D01*
X9826594Y-16460565D02*
X9807546Y-16451041D01*
X9807546Y-16451041D02*
X9798022Y-16431994D01*
X9798022Y-16431994D02*
X9798022Y-16260565D01*
X9978975Y-16451041D02*
X9959927Y-16460565D01*
X9959927Y-16460565D02*
X9921832Y-16460565D01*
X9921832Y-16460565D02*
X9902784Y-16451041D01*
X9902784Y-16451041D02*
X9893261Y-16431994D01*
X9893261Y-16431994D02*
X9893261Y-16355803D01*
X9893261Y-16355803D02*
X9902784Y-16336756D01*
X9902784Y-16336756D02*
X9921832Y-16327232D01*
X9921832Y-16327232D02*
X9959927Y-16327232D01*
X9959927Y-16327232D02*
X9978975Y-16336756D01*
X9978975Y-16336756D02*
X9988499Y-16355803D01*
X9988499Y-16355803D02*
X9988499Y-16374851D01*
X9988499Y-16374851D02*
X9893261Y-16393898D01*
X10064689Y-16451041D02*
X10083737Y-16460565D01*
X10083737Y-16460565D02*
X10121832Y-16460565D01*
X10121832Y-16460565D02*
X10140880Y-16451041D01*
X10140880Y-16451041D02*
X10150403Y-16431994D01*
X10150403Y-16431994D02*
X10150403Y-16422470D01*
X10150403Y-16422470D02*
X10140880Y-16403422D01*
X10140880Y-16403422D02*
X10121832Y-16393898D01*
X10121832Y-16393898D02*
X10093261Y-16393898D01*
X10093261Y-16393898D02*
X10074213Y-16384375D01*
X10074213Y-16384375D02*
X10064689Y-16365327D01*
X10064689Y-16365327D02*
X10064689Y-16355803D01*
X10064689Y-16355803D02*
X10074213Y-16336756D01*
X10074213Y-16336756D02*
X10093261Y-16327232D01*
X10093261Y-16327232D02*
X10121832Y-16327232D01*
X10121832Y-16327232D02*
X10140880Y-16336756D01*
X10217070Y-16536756D02*
X10226594Y-16527232D01*
X10226594Y-16527232D02*
X10245642Y-16498660D01*
X10245642Y-16498660D02*
X10255165Y-16479613D01*
X10255165Y-16479613D02*
X10264689Y-16451041D01*
X10264689Y-16451041D02*
X10274213Y-16403422D01*
X10274213Y-16403422D02*
X10274213Y-16365327D01*
X10274213Y-16365327D02*
X10264689Y-16317708D01*
X10264689Y-16317708D02*
X10255165Y-16289137D01*
X10255165Y-16289137D02*
X10245642Y-16270089D01*
X10245642Y-16270089D02*
X10226594Y-16241517D01*
X10226594Y-16241517D02*
X10217070Y-16231994D01*
X10578975Y-16536756D02*
X10569451Y-16527232D01*
X10569451Y-16527232D02*
X10550403Y-16498660D01*
X10550403Y-16498660D02*
X10540880Y-16479613D01*
X10540880Y-16479613D02*
X10531356Y-16451041D01*
X10531356Y-16451041D02*
X10521832Y-16403422D01*
X10521832Y-16403422D02*
X10521832Y-16365327D01*
X10521832Y-16365327D02*
X10531356Y-16317708D01*
X10531356Y-16317708D02*
X10540880Y-16289137D01*
X10540880Y-16289137D02*
X10550403Y-16270089D01*
X10550403Y-16270089D02*
X10569451Y-16241517D01*
X10569451Y-16241517D02*
X10578975Y-16231994D01*
X10655165Y-16327232D02*
X10655165Y-16460565D01*
X10655165Y-16346279D02*
X10664689Y-16336756D01*
X10664689Y-16336756D02*
X10683737Y-16327232D01*
X10683737Y-16327232D02*
X10712308Y-16327232D01*
X10712308Y-16327232D02*
X10731356Y-16336756D01*
X10731356Y-16336756D02*
X10740880Y-16355803D01*
X10740880Y-16355803D02*
X10740880Y-16460565D01*
X10864689Y-16460565D02*
X10845642Y-16451041D01*
X10845642Y-16451041D02*
X10836118Y-16441517D01*
X10836118Y-16441517D02*
X10826594Y-16422470D01*
X10826594Y-16422470D02*
X10826594Y-16365327D01*
X10826594Y-16365327D02*
X10836118Y-16346279D01*
X10836118Y-16346279D02*
X10845642Y-16336756D01*
X10845642Y-16336756D02*
X10864689Y-16327232D01*
X10864689Y-16327232D02*
X10893261Y-16327232D01*
X10893261Y-16327232D02*
X10912308Y-16336756D01*
X10912308Y-16336756D02*
X10921832Y-16346279D01*
X10921832Y-16346279D02*
X10931356Y-16365327D01*
X10931356Y-16365327D02*
X10931356Y-16422470D01*
X10931356Y-16422470D02*
X10921832Y-16441517D01*
X10921832Y-16441517D02*
X10912308Y-16451041D01*
X10912308Y-16451041D02*
X10893261Y-16460565D01*
X10893261Y-16460565D02*
X10864689Y-16460565D01*
X10988499Y-16327232D02*
X11064689Y-16327232D01*
X11017070Y-16260565D02*
X11017070Y-16431994D01*
X11017070Y-16431994D02*
X11026594Y-16451041D01*
X11026594Y-16451041D02*
X11045642Y-16460565D01*
X11045642Y-16460565D02*
X11064689Y-16460565D01*
X11283737Y-16327232D02*
X11283737Y-16527232D01*
X11283737Y-16336756D02*
X11302784Y-16327232D01*
X11302784Y-16327232D02*
X11340880Y-16327232D01*
X11340880Y-16327232D02*
X11359927Y-16336756D01*
X11359927Y-16336756D02*
X11369451Y-16346279D01*
X11369451Y-16346279D02*
X11378975Y-16365327D01*
X11378975Y-16365327D02*
X11378975Y-16422470D01*
X11378975Y-16422470D02*
X11369451Y-16441517D01*
X11369451Y-16441517D02*
X11359927Y-16451041D01*
X11359927Y-16451041D02*
X11340880Y-16460565D01*
X11340880Y-16460565D02*
X11302784Y-16460565D01*
X11302784Y-16460565D02*
X11283737Y-16451041D01*
X11493261Y-16460565D02*
X11474213Y-16451041D01*
X11474213Y-16451041D02*
X11464689Y-16431994D01*
X11464689Y-16431994D02*
X11464689Y-16260565D01*
X11655165Y-16460565D02*
X11655165Y-16355803D01*
X11655165Y-16355803D02*
X11645642Y-16336756D01*
X11645642Y-16336756D02*
X11626594Y-16327232D01*
X11626594Y-16327232D02*
X11588499Y-16327232D01*
X11588499Y-16327232D02*
X11569451Y-16336756D01*
X11655165Y-16451041D02*
X11636118Y-16460565D01*
X11636118Y-16460565D02*
X11588499Y-16460565D01*
X11588499Y-16460565D02*
X11569451Y-16451041D01*
X11569451Y-16451041D02*
X11559927Y-16431994D01*
X11559927Y-16431994D02*
X11559927Y-16412946D01*
X11559927Y-16412946D02*
X11569451Y-16393898D01*
X11569451Y-16393898D02*
X11588499Y-16384375D01*
X11588499Y-16384375D02*
X11636118Y-16384375D01*
X11636118Y-16384375D02*
X11655165Y-16374851D01*
X11721832Y-16327232D02*
X11798022Y-16327232D01*
X11750403Y-16260565D02*
X11750403Y-16431994D01*
X11750403Y-16431994D02*
X11759927Y-16451041D01*
X11759927Y-16451041D02*
X11778975Y-16460565D01*
X11778975Y-16460565D02*
X11798022Y-16460565D01*
X11940880Y-16451041D02*
X11921832Y-16460565D01*
X11921832Y-16460565D02*
X11883737Y-16460565D01*
X11883737Y-16460565D02*
X11864689Y-16451041D01*
X11864689Y-16451041D02*
X11855165Y-16431994D01*
X11855165Y-16431994D02*
X11855165Y-16355803D01*
X11855165Y-16355803D02*
X11864689Y-16336756D01*
X11864689Y-16336756D02*
X11883737Y-16327232D01*
X11883737Y-16327232D02*
X11921832Y-16327232D01*
X11921832Y-16327232D02*
X11940880Y-16336756D01*
X11940880Y-16336756D02*
X11950403Y-16355803D01*
X11950403Y-16355803D02*
X11950403Y-16374851D01*
X11950403Y-16374851D02*
X11855165Y-16393898D01*
X12121832Y-16460565D02*
X12121832Y-16260565D01*
X12121832Y-16451041D02*
X12102784Y-16460565D01*
X12102784Y-16460565D02*
X12064689Y-16460565D01*
X12064689Y-16460565D02*
X12045642Y-16451041D01*
X12045642Y-16451041D02*
X12036118Y-16441517D01*
X12036118Y-16441517D02*
X12026594Y-16422470D01*
X12026594Y-16422470D02*
X12026594Y-16365327D01*
X12026594Y-16365327D02*
X12036118Y-16346279D01*
X12036118Y-16346279D02*
X12045642Y-16336756D01*
X12045642Y-16336756D02*
X12064689Y-16327232D01*
X12064689Y-16327232D02*
X12102784Y-16327232D01*
X12102784Y-16327232D02*
X12121832Y-16336756D01*
X12198023Y-16536756D02*
X12207546Y-16527232D01*
X12207546Y-16527232D02*
X12226594Y-16498660D01*
X12226594Y-16498660D02*
X12236118Y-16479613D01*
X12236118Y-16479613D02*
X12245642Y-16451041D01*
X12245642Y-16451041D02*
X12255165Y-16403422D01*
X12255165Y-16403422D02*
X12255165Y-16365327D01*
X12255165Y-16365327D02*
X12245642Y-16317708D01*
X12245642Y-16317708D02*
X12236118Y-16289137D01*
X12236118Y-16289137D02*
X12226594Y-16270089D01*
X12226594Y-16270089D02*
X12207546Y-16241517D01*
X12207546Y-16241517D02*
X12198023Y-16231994D01*
X5151531Y-16589081D02*
X5151531Y-16789081D01*
X5051531Y-16689081D02*
X5251531Y-16689081D01*
X5493260Y-16580565D02*
X5617070Y-16580565D01*
X5617070Y-16580565D02*
X5550403Y-16656756D01*
X5550403Y-16656756D02*
X5578974Y-16656756D01*
X5578974Y-16656756D02*
X5598022Y-16666279D01*
X5598022Y-16666279D02*
X5607546Y-16675803D01*
X5607546Y-16675803D02*
X5617070Y-16694851D01*
X5617070Y-16694851D02*
X5617070Y-16742470D01*
X5617070Y-16742470D02*
X5607546Y-16761517D01*
X5607546Y-16761517D02*
X5598022Y-16771041D01*
X5598022Y-16771041D02*
X5578974Y-16780565D01*
X5578974Y-16780565D02*
X5521832Y-16780565D01*
X5521832Y-16780565D02*
X5502784Y-16771041D01*
X5502784Y-16771041D02*
X5493260Y-16761517D01*
X5702784Y-16761517D02*
X5712308Y-16771041D01*
X5712308Y-16771041D02*
X5702784Y-16780565D01*
X5702784Y-16780565D02*
X5693260Y-16771041D01*
X5693260Y-16771041D02*
X5702784Y-16761517D01*
X5702784Y-16761517D02*
X5702784Y-16780565D01*
X5807546Y-16780565D02*
X5845641Y-16780565D01*
X5845641Y-16780565D02*
X5864689Y-16771041D01*
X5864689Y-16771041D02*
X5874212Y-16761517D01*
X5874212Y-16761517D02*
X5893260Y-16732946D01*
X5893260Y-16732946D02*
X5902784Y-16694851D01*
X5902784Y-16694851D02*
X5902784Y-16618660D01*
X5902784Y-16618660D02*
X5893260Y-16599613D01*
X5893260Y-16599613D02*
X5883736Y-16590089D01*
X5883736Y-16590089D02*
X5864689Y-16580565D01*
X5864689Y-16580565D02*
X5826593Y-16580565D01*
X5826593Y-16580565D02*
X5807546Y-16590089D01*
X5807546Y-16590089D02*
X5798022Y-16599613D01*
X5798022Y-16599613D02*
X5788498Y-16618660D01*
X5788498Y-16618660D02*
X5788498Y-16666279D01*
X5788498Y-16666279D02*
X5798022Y-16685327D01*
X5798022Y-16685327D02*
X5807546Y-16694851D01*
X5807546Y-16694851D02*
X5826593Y-16704375D01*
X5826593Y-16704375D02*
X5864689Y-16704375D01*
X5864689Y-16704375D02*
X5883736Y-16694851D01*
X5883736Y-16694851D02*
X5893260Y-16685327D01*
X5893260Y-16685327D02*
X5902784Y-16666279D01*
X6017070Y-16666279D02*
X5998022Y-16656756D01*
X5998022Y-16656756D02*
X5988498Y-16647232D01*
X5988498Y-16647232D02*
X5978974Y-16628184D01*
X5978974Y-16628184D02*
X5978974Y-16618660D01*
X5978974Y-16618660D02*
X5988498Y-16599613D01*
X5988498Y-16599613D02*
X5998022Y-16590089D01*
X5998022Y-16590089D02*
X6017070Y-16580565D01*
X6017070Y-16580565D02*
X6055165Y-16580565D01*
X6055165Y-16580565D02*
X6074212Y-16590089D01*
X6074212Y-16590089D02*
X6083736Y-16599613D01*
X6083736Y-16599613D02*
X6093260Y-16618660D01*
X6093260Y-16618660D02*
X6093260Y-16628184D01*
X6093260Y-16628184D02*
X6083736Y-16647232D01*
X6083736Y-16647232D02*
X6074212Y-16656756D01*
X6074212Y-16656756D02*
X6055165Y-16666279D01*
X6055165Y-16666279D02*
X6017070Y-16666279D01*
X6017070Y-16666279D02*
X5998022Y-16675803D01*
X5998022Y-16675803D02*
X5988498Y-16685327D01*
X5988498Y-16685327D02*
X5978974Y-16704375D01*
X5978974Y-16704375D02*
X5978974Y-16742470D01*
X5978974Y-16742470D02*
X5988498Y-16761517D01*
X5988498Y-16761517D02*
X5998022Y-16771041D01*
X5998022Y-16771041D02*
X6017070Y-16780565D01*
X6017070Y-16780565D02*
X6055165Y-16780565D01*
X6055165Y-16780565D02*
X6074212Y-16771041D01*
X6074212Y-16771041D02*
X6083736Y-16761517D01*
X6083736Y-16761517D02*
X6093260Y-16742470D01*
X6093260Y-16742470D02*
X6093260Y-16704375D01*
X6093260Y-16704375D02*
X6083736Y-16685327D01*
X6083736Y-16685327D02*
X6074212Y-16675803D01*
X6074212Y-16675803D02*
X6055165Y-16666279D01*
X6207546Y-16666279D02*
X6188498Y-16656756D01*
X6188498Y-16656756D02*
X6178974Y-16647232D01*
X6178974Y-16647232D02*
X6169451Y-16628184D01*
X6169451Y-16628184D02*
X6169451Y-16618660D01*
X6169451Y-16618660D02*
X6178974Y-16599613D01*
X6178974Y-16599613D02*
X6188498Y-16590089D01*
X6188498Y-16590089D02*
X6207546Y-16580565D01*
X6207546Y-16580565D02*
X6245641Y-16580565D01*
X6245641Y-16580565D02*
X6264689Y-16590089D01*
X6264689Y-16590089D02*
X6274212Y-16599613D01*
X6274212Y-16599613D02*
X6283736Y-16618660D01*
X6283736Y-16618660D02*
X6283736Y-16628184D01*
X6283736Y-16628184D02*
X6274212Y-16647232D01*
X6274212Y-16647232D02*
X6264689Y-16656756D01*
X6264689Y-16656756D02*
X6245641Y-16666279D01*
X6245641Y-16666279D02*
X6207546Y-16666279D01*
X6207546Y-16666279D02*
X6188498Y-16675803D01*
X6188498Y-16675803D02*
X6178974Y-16685327D01*
X6178974Y-16685327D02*
X6169451Y-16704375D01*
X6169451Y-16704375D02*
X6169451Y-16742470D01*
X6169451Y-16742470D02*
X6178974Y-16761517D01*
X6178974Y-16761517D02*
X6188498Y-16771041D01*
X6188498Y-16771041D02*
X6207546Y-16780565D01*
X6207546Y-16780565D02*
X6245641Y-16780565D01*
X6245641Y-16780565D02*
X6264689Y-16771041D01*
X6264689Y-16771041D02*
X6274212Y-16761517D01*
X6274212Y-16761517D02*
X6283736Y-16742470D01*
X6283736Y-16742470D02*
X6283736Y-16704375D01*
X6283736Y-16704375D02*
X6274212Y-16685327D01*
X6274212Y-16685327D02*
X6264689Y-16675803D01*
X6264689Y-16675803D02*
X6245641Y-16666279D01*
X6369451Y-16780565D02*
X6369451Y-16647232D01*
X6369451Y-16666279D02*
X6378974Y-16656756D01*
X6378974Y-16656756D02*
X6398022Y-16647232D01*
X6398022Y-16647232D02*
X6426593Y-16647232D01*
X6426593Y-16647232D02*
X6445641Y-16656756D01*
X6445641Y-16656756D02*
X6455165Y-16675803D01*
X6455165Y-16675803D02*
X6455165Y-16780565D01*
X6455165Y-16675803D02*
X6464689Y-16656756D01*
X6464689Y-16656756D02*
X6483736Y-16647232D01*
X6483736Y-16647232D02*
X6512308Y-16647232D01*
X6512308Y-16647232D02*
X6531355Y-16656756D01*
X6531355Y-16656756D02*
X6540879Y-16675803D01*
X6540879Y-16675803D02*
X6540879Y-16780565D01*
X6636117Y-16780565D02*
X6636117Y-16647232D01*
X6636117Y-16666279D02*
X6645641Y-16656756D01*
X6645641Y-16656756D02*
X6664689Y-16647232D01*
X6664689Y-16647232D02*
X6693260Y-16647232D01*
X6693260Y-16647232D02*
X6712308Y-16656756D01*
X6712308Y-16656756D02*
X6721832Y-16675803D01*
X6721832Y-16675803D02*
X6721832Y-16780565D01*
X6721832Y-16675803D02*
X6731355Y-16656756D01*
X6731355Y-16656756D02*
X6750403Y-16647232D01*
X6750403Y-16647232D02*
X6778974Y-16647232D01*
X6778974Y-16647232D02*
X6798022Y-16656756D01*
X6798022Y-16656756D02*
X6807546Y-16675803D01*
X6807546Y-16675803D02*
X6807546Y-16780565D01*
X7198022Y-16571041D02*
X7026594Y-16828184D01*
X7455165Y-16580565D02*
X7474213Y-16580565D01*
X7474213Y-16580565D02*
X7493260Y-16590089D01*
X7493260Y-16590089D02*
X7502784Y-16599613D01*
X7502784Y-16599613D02*
X7512308Y-16618660D01*
X7512308Y-16618660D02*
X7521832Y-16656756D01*
X7521832Y-16656756D02*
X7521832Y-16704375D01*
X7521832Y-16704375D02*
X7512308Y-16742470D01*
X7512308Y-16742470D02*
X7502784Y-16761517D01*
X7502784Y-16761517D02*
X7493260Y-16771041D01*
X7493260Y-16771041D02*
X7474213Y-16780565D01*
X7474213Y-16780565D02*
X7455165Y-16780565D01*
X7455165Y-16780565D02*
X7436117Y-16771041D01*
X7436117Y-16771041D02*
X7426594Y-16761517D01*
X7426594Y-16761517D02*
X7417070Y-16742470D01*
X7417070Y-16742470D02*
X7407546Y-16704375D01*
X7407546Y-16704375D02*
X7407546Y-16656756D01*
X7407546Y-16656756D02*
X7417070Y-16618660D01*
X7417070Y-16618660D02*
X7426594Y-16599613D01*
X7426594Y-16599613D02*
X7436117Y-16590089D01*
X7436117Y-16590089D02*
X7455165Y-16580565D01*
X7607546Y-16761517D02*
X7617070Y-16771041D01*
X7617070Y-16771041D02*
X7607546Y-16780565D01*
X7607546Y-16780565D02*
X7598022Y-16771041D01*
X7598022Y-16771041D02*
X7607546Y-16761517D01*
X7607546Y-16761517D02*
X7607546Y-16780565D01*
X7807546Y-16780565D02*
X7693260Y-16780565D01*
X7750403Y-16780565D02*
X7750403Y-16580565D01*
X7750403Y-16580565D02*
X7731355Y-16609137D01*
X7731355Y-16609137D02*
X7712308Y-16628184D01*
X7712308Y-16628184D02*
X7693260Y-16637708D01*
X7988498Y-16580565D02*
X7893260Y-16580565D01*
X7893260Y-16580565D02*
X7883736Y-16675803D01*
X7883736Y-16675803D02*
X7893260Y-16666279D01*
X7893260Y-16666279D02*
X7912308Y-16656756D01*
X7912308Y-16656756D02*
X7959927Y-16656756D01*
X7959927Y-16656756D02*
X7978975Y-16666279D01*
X7978975Y-16666279D02*
X7988498Y-16675803D01*
X7988498Y-16675803D02*
X7998022Y-16694851D01*
X7998022Y-16694851D02*
X7998022Y-16742470D01*
X7998022Y-16742470D02*
X7988498Y-16761517D01*
X7988498Y-16761517D02*
X7978975Y-16771041D01*
X7978975Y-16771041D02*
X7959927Y-16780565D01*
X7959927Y-16780565D02*
X7912308Y-16780565D01*
X7912308Y-16780565D02*
X7893260Y-16771041D01*
X7893260Y-16771041D02*
X7883736Y-16761517D01*
X8064689Y-16580565D02*
X8198022Y-16580565D01*
X8198022Y-16580565D02*
X8112308Y-16780565D01*
X8312308Y-16580565D02*
X8331356Y-16580565D01*
X8331356Y-16580565D02*
X8350403Y-16590089D01*
X8350403Y-16590089D02*
X8359927Y-16599613D01*
X8359927Y-16599613D02*
X8369451Y-16618660D01*
X8369451Y-16618660D02*
X8378975Y-16656756D01*
X8378975Y-16656756D02*
X8378975Y-16704375D01*
X8378975Y-16704375D02*
X8369451Y-16742470D01*
X8369451Y-16742470D02*
X8359927Y-16761517D01*
X8359927Y-16761517D02*
X8350403Y-16771041D01*
X8350403Y-16771041D02*
X8331356Y-16780565D01*
X8331356Y-16780565D02*
X8312308Y-16780565D01*
X8312308Y-16780565D02*
X8293260Y-16771041D01*
X8293260Y-16771041D02*
X8283736Y-16761517D01*
X8283736Y-16761517D02*
X8274213Y-16742470D01*
X8274213Y-16742470D02*
X8264689Y-16704375D01*
X8264689Y-16704375D02*
X8264689Y-16656756D01*
X8264689Y-16656756D02*
X8274213Y-16618660D01*
X8274213Y-16618660D02*
X8283736Y-16599613D01*
X8283736Y-16599613D02*
X8293260Y-16590089D01*
X8293260Y-16590089D02*
X8312308Y-16580565D01*
X8455165Y-16580565D02*
X8455165Y-16618660D01*
X8531356Y-16580565D02*
X8531356Y-16618660D01*
X8826594Y-16856756D02*
X8817070Y-16847232D01*
X8817070Y-16847232D02*
X8798022Y-16818660D01*
X8798022Y-16818660D02*
X8788499Y-16799613D01*
X8788499Y-16799613D02*
X8778975Y-16771041D01*
X8778975Y-16771041D02*
X8769451Y-16723422D01*
X8769451Y-16723422D02*
X8769451Y-16685327D01*
X8769451Y-16685327D02*
X8778975Y-16637708D01*
X8778975Y-16637708D02*
X8788499Y-16609137D01*
X8788499Y-16609137D02*
X8798022Y-16590089D01*
X8798022Y-16590089D02*
X8817070Y-16561517D01*
X8817070Y-16561517D02*
X8826594Y-16551994D01*
X9007546Y-16780565D02*
X8893260Y-16780565D01*
X8950403Y-16780565D02*
X8950403Y-16580565D01*
X8950403Y-16580565D02*
X8931356Y-16609137D01*
X8931356Y-16609137D02*
X8912308Y-16628184D01*
X8912308Y-16628184D02*
X8893260Y-16637708D01*
X9178975Y-16647232D02*
X9178975Y-16780565D01*
X9131356Y-16571041D02*
X9083737Y-16713898D01*
X9083737Y-16713898D02*
X9207546Y-16713898D01*
X9436118Y-16780565D02*
X9436118Y-16580565D01*
X9521832Y-16780565D02*
X9521832Y-16675803D01*
X9521832Y-16675803D02*
X9512308Y-16656756D01*
X9512308Y-16656756D02*
X9493261Y-16647232D01*
X9493261Y-16647232D02*
X9464689Y-16647232D01*
X9464689Y-16647232D02*
X9445641Y-16656756D01*
X9445641Y-16656756D02*
X9436118Y-16666279D01*
X9645641Y-16780565D02*
X9626594Y-16771041D01*
X9626594Y-16771041D02*
X9617070Y-16761517D01*
X9617070Y-16761517D02*
X9607546Y-16742470D01*
X9607546Y-16742470D02*
X9607546Y-16685327D01*
X9607546Y-16685327D02*
X9617070Y-16666279D01*
X9617070Y-16666279D02*
X9626594Y-16656756D01*
X9626594Y-16656756D02*
X9645641Y-16647232D01*
X9645641Y-16647232D02*
X9674213Y-16647232D01*
X9674213Y-16647232D02*
X9693261Y-16656756D01*
X9693261Y-16656756D02*
X9702784Y-16666279D01*
X9702784Y-16666279D02*
X9712308Y-16685327D01*
X9712308Y-16685327D02*
X9712308Y-16742470D01*
X9712308Y-16742470D02*
X9702784Y-16761517D01*
X9702784Y-16761517D02*
X9693261Y-16771041D01*
X9693261Y-16771041D02*
X9674213Y-16780565D01*
X9674213Y-16780565D02*
X9645641Y-16780565D01*
X9826594Y-16780565D02*
X9807546Y-16771041D01*
X9807546Y-16771041D02*
X9798022Y-16751994D01*
X9798022Y-16751994D02*
X9798022Y-16580565D01*
X9978975Y-16771041D02*
X9959927Y-16780565D01*
X9959927Y-16780565D02*
X9921832Y-16780565D01*
X9921832Y-16780565D02*
X9902784Y-16771041D01*
X9902784Y-16771041D02*
X9893261Y-16751994D01*
X9893261Y-16751994D02*
X9893261Y-16675803D01*
X9893261Y-16675803D02*
X9902784Y-16656756D01*
X9902784Y-16656756D02*
X9921832Y-16647232D01*
X9921832Y-16647232D02*
X9959927Y-16647232D01*
X9959927Y-16647232D02*
X9978975Y-16656756D01*
X9978975Y-16656756D02*
X9988499Y-16675803D01*
X9988499Y-16675803D02*
X9988499Y-16694851D01*
X9988499Y-16694851D02*
X9893261Y-16713898D01*
X10064689Y-16771041D02*
X10083737Y-16780565D01*
X10083737Y-16780565D02*
X10121832Y-16780565D01*
X10121832Y-16780565D02*
X10140880Y-16771041D01*
X10140880Y-16771041D02*
X10150403Y-16751994D01*
X10150403Y-16751994D02*
X10150403Y-16742470D01*
X10150403Y-16742470D02*
X10140880Y-16723422D01*
X10140880Y-16723422D02*
X10121832Y-16713898D01*
X10121832Y-16713898D02*
X10093261Y-16713898D01*
X10093261Y-16713898D02*
X10074213Y-16704375D01*
X10074213Y-16704375D02*
X10064689Y-16685327D01*
X10064689Y-16685327D02*
X10064689Y-16675803D01*
X10064689Y-16675803D02*
X10074213Y-16656756D01*
X10074213Y-16656756D02*
X10093261Y-16647232D01*
X10093261Y-16647232D02*
X10121832Y-16647232D01*
X10121832Y-16647232D02*
X10140880Y-16656756D01*
X10217070Y-16856756D02*
X10226594Y-16847232D01*
X10226594Y-16847232D02*
X10245642Y-16818660D01*
X10245642Y-16818660D02*
X10255165Y-16799613D01*
X10255165Y-16799613D02*
X10264689Y-16771041D01*
X10264689Y-16771041D02*
X10274213Y-16723422D01*
X10274213Y-16723422D02*
X10274213Y-16685327D01*
X10274213Y-16685327D02*
X10264689Y-16637708D01*
X10264689Y-16637708D02*
X10255165Y-16609137D01*
X10255165Y-16609137D02*
X10245642Y-16590089D01*
X10245642Y-16590089D02*
X10226594Y-16561517D01*
X10226594Y-16561517D02*
X10217070Y-16551994D01*
X10578975Y-16856756D02*
X10569451Y-16847232D01*
X10569451Y-16847232D02*
X10550403Y-16818660D01*
X10550403Y-16818660D02*
X10540880Y-16799613D01*
X10540880Y-16799613D02*
X10531356Y-16771041D01*
X10531356Y-16771041D02*
X10521832Y-16723422D01*
X10521832Y-16723422D02*
X10521832Y-16685327D01*
X10521832Y-16685327D02*
X10531356Y-16637708D01*
X10531356Y-16637708D02*
X10540880Y-16609137D01*
X10540880Y-16609137D02*
X10550403Y-16590089D01*
X10550403Y-16590089D02*
X10569451Y-16561517D01*
X10569451Y-16561517D02*
X10578975Y-16551994D01*
X10655165Y-16647232D02*
X10655165Y-16780565D01*
X10655165Y-16666279D02*
X10664689Y-16656756D01*
X10664689Y-16656756D02*
X10683737Y-16647232D01*
X10683737Y-16647232D02*
X10712308Y-16647232D01*
X10712308Y-16647232D02*
X10731356Y-16656756D01*
X10731356Y-16656756D02*
X10740880Y-16675803D01*
X10740880Y-16675803D02*
X10740880Y-16780565D01*
X10864689Y-16780565D02*
X10845642Y-16771041D01*
X10845642Y-16771041D02*
X10836118Y-16761517D01*
X10836118Y-16761517D02*
X10826594Y-16742470D01*
X10826594Y-16742470D02*
X10826594Y-16685327D01*
X10826594Y-16685327D02*
X10836118Y-16666279D01*
X10836118Y-16666279D02*
X10845642Y-16656756D01*
X10845642Y-16656756D02*
X10864689Y-16647232D01*
X10864689Y-16647232D02*
X10893261Y-16647232D01*
X10893261Y-16647232D02*
X10912308Y-16656756D01*
X10912308Y-16656756D02*
X10921832Y-16666279D01*
X10921832Y-16666279D02*
X10931356Y-16685327D01*
X10931356Y-16685327D02*
X10931356Y-16742470D01*
X10931356Y-16742470D02*
X10921832Y-16761517D01*
X10921832Y-16761517D02*
X10912308Y-16771041D01*
X10912308Y-16771041D02*
X10893261Y-16780565D01*
X10893261Y-16780565D02*
X10864689Y-16780565D01*
X10988499Y-16647232D02*
X11064689Y-16647232D01*
X11017070Y-16580565D02*
X11017070Y-16751994D01*
X11017070Y-16751994D02*
X11026594Y-16771041D01*
X11026594Y-16771041D02*
X11045642Y-16780565D01*
X11045642Y-16780565D02*
X11064689Y-16780565D01*
X11283737Y-16647232D02*
X11283737Y-16847232D01*
X11283737Y-16656756D02*
X11302784Y-16647232D01*
X11302784Y-16647232D02*
X11340880Y-16647232D01*
X11340880Y-16647232D02*
X11359927Y-16656756D01*
X11359927Y-16656756D02*
X11369451Y-16666279D01*
X11369451Y-16666279D02*
X11378975Y-16685327D01*
X11378975Y-16685327D02*
X11378975Y-16742470D01*
X11378975Y-16742470D02*
X11369451Y-16761517D01*
X11369451Y-16761517D02*
X11359927Y-16771041D01*
X11359927Y-16771041D02*
X11340880Y-16780565D01*
X11340880Y-16780565D02*
X11302784Y-16780565D01*
X11302784Y-16780565D02*
X11283737Y-16771041D01*
X11493261Y-16780565D02*
X11474213Y-16771041D01*
X11474213Y-16771041D02*
X11464689Y-16751994D01*
X11464689Y-16751994D02*
X11464689Y-16580565D01*
X11655165Y-16780565D02*
X11655165Y-16675803D01*
X11655165Y-16675803D02*
X11645642Y-16656756D01*
X11645642Y-16656756D02*
X11626594Y-16647232D01*
X11626594Y-16647232D02*
X11588499Y-16647232D01*
X11588499Y-16647232D02*
X11569451Y-16656756D01*
X11655165Y-16771041D02*
X11636118Y-16780565D01*
X11636118Y-16780565D02*
X11588499Y-16780565D01*
X11588499Y-16780565D02*
X11569451Y-16771041D01*
X11569451Y-16771041D02*
X11559927Y-16751994D01*
X11559927Y-16751994D02*
X11559927Y-16732946D01*
X11559927Y-16732946D02*
X11569451Y-16713898D01*
X11569451Y-16713898D02*
X11588499Y-16704375D01*
X11588499Y-16704375D02*
X11636118Y-16704375D01*
X11636118Y-16704375D02*
X11655165Y-16694851D01*
X11721832Y-16647232D02*
X11798022Y-16647232D01*
X11750403Y-16580565D02*
X11750403Y-16751994D01*
X11750403Y-16751994D02*
X11759927Y-16771041D01*
X11759927Y-16771041D02*
X11778975Y-16780565D01*
X11778975Y-16780565D02*
X11798022Y-16780565D01*
X11940880Y-16771041D02*
X11921832Y-16780565D01*
X11921832Y-16780565D02*
X11883737Y-16780565D01*
X11883737Y-16780565D02*
X11864689Y-16771041D01*
X11864689Y-16771041D02*
X11855165Y-16751994D01*
X11855165Y-16751994D02*
X11855165Y-16675803D01*
X11855165Y-16675803D02*
X11864689Y-16656756D01*
X11864689Y-16656756D02*
X11883737Y-16647232D01*
X11883737Y-16647232D02*
X11921832Y-16647232D01*
X11921832Y-16647232D02*
X11940880Y-16656756D01*
X11940880Y-16656756D02*
X11950403Y-16675803D01*
X11950403Y-16675803D02*
X11950403Y-16694851D01*
X11950403Y-16694851D02*
X11855165Y-16713898D01*
X12121832Y-16780565D02*
X12121832Y-16580565D01*
X12121832Y-16771041D02*
X12102784Y-16780565D01*
X12102784Y-16780565D02*
X12064689Y-16780565D01*
X12064689Y-16780565D02*
X12045642Y-16771041D01*
X12045642Y-16771041D02*
X12036118Y-16761517D01*
X12036118Y-16761517D02*
X12026594Y-16742470D01*
X12026594Y-16742470D02*
X12026594Y-16685327D01*
X12026594Y-16685327D02*
X12036118Y-16666279D01*
X12036118Y-16666279D02*
X12045642Y-16656756D01*
X12045642Y-16656756D02*
X12064689Y-16647232D01*
X12064689Y-16647232D02*
X12102784Y-16647232D01*
X12102784Y-16647232D02*
X12121832Y-16656756D01*
X12198023Y-16856756D02*
X12207546Y-16847232D01*
X12207546Y-16847232D02*
X12226594Y-16818660D01*
X12226594Y-16818660D02*
X12236118Y-16799613D01*
X12236118Y-16799613D02*
X12245642Y-16771041D01*
X12245642Y-16771041D02*
X12255165Y-16723422D01*
X12255165Y-16723422D02*
X12255165Y-16685327D01*
X12255165Y-16685327D02*
X12245642Y-16637708D01*
X12245642Y-16637708D02*
X12236118Y-16609137D01*
X12236118Y-16609137D02*
X12226594Y-16590089D01*
X12226594Y-16590089D02*
X12207546Y-16561517D01*
X12207546Y-16561517D02*
X12198023Y-16551994D01*
M02*
