%TF.GenerationSoftware,KiCad,Pcbnew,7.0.7*%
%TF.CreationDate,2024-04-21T22:37:26+02:00*%
%TF.ProjectId,isokey_left,69736f6b-6579-45f6-9c65-66742e6b6963,rev?*%
%TF.SameCoordinates,Original*%
%TF.FileFunction,Legend,Top*%
%TF.FilePolarity,Positive*%
%FSLAX46Y46*%
G04 Gerber Fmt 4.6, Leading zero omitted, Abs format (unit mm)*
G04 Created by KiCad (PCBNEW 7.0.7) date 2024-04-21 22:37:26*
%MOMM*%
%LPD*%
G01*
G04 APERTURE LIST*
%ADD10C,0.300000*%
%ADD11C,0.200000*%
%ADD12C,0.600000*%
%ADD13C,0.500000*%
%ADD14C,0.150000*%
%ADD15C,0.120000*%
%ADD16C,0.250000*%
%ADD17C,0.350000*%
G04 APERTURE END LIST*
D10*
G36*
X82185500Y-152213915D02*
G01*
X82199704Y-152220785D01*
X82211447Y-152230882D01*
X82215143Y-152235073D01*
X82319556Y-152361835D01*
X82327880Y-152374512D01*
X82333480Y-152388638D01*
X82336355Y-152404213D01*
X82336775Y-152413492D01*
X82336775Y-152672878D01*
X82335699Y-152687510D01*
X82331916Y-152702602D01*
X82325408Y-152716245D01*
X82319556Y-152724535D01*
X82218440Y-152851297D01*
X82206877Y-152862632D01*
X82193009Y-152870875D01*
X82178069Y-152874539D01*
X82173377Y-152874745D01*
X82011078Y-152874745D01*
X82319556Y-153258695D01*
X82327880Y-153271372D01*
X82333480Y-153285498D01*
X82336355Y-153301073D01*
X82336775Y-153310352D01*
X82336775Y-153389487D01*
X82213311Y-153389487D01*
X82213311Y-153352117D01*
X81834490Y-152874745D01*
X81727145Y-152874745D01*
X81727145Y-153389487D01*
X81602215Y-153389487D01*
X81602215Y-152361835D01*
X81727145Y-152361835D01*
X81727145Y-152724535D01*
X82145533Y-152724535D01*
X82211113Y-152643569D01*
X82211113Y-152445000D01*
X82143702Y-152361835D01*
X81727145Y-152361835D01*
X81602215Y-152361835D01*
X81602215Y-152211625D01*
X82170080Y-152211625D01*
X82185500Y-152213915D01*
G37*
G36*
X83009378Y-152469213D02*
G01*
X83022715Y-152475907D01*
X83034777Y-152487064D01*
X83040928Y-152495191D01*
X83140945Y-152625617D01*
X83150025Y-152638948D01*
X83155743Y-152654211D01*
X83158013Y-152669599D01*
X83158164Y-152675076D01*
X83158164Y-153007369D01*
X82639026Y-153007369D01*
X82639026Y-153158311D01*
X82706071Y-153245872D01*
X83162561Y-153245872D01*
X83162561Y-153387288D01*
X82680059Y-153387288D01*
X82665263Y-153385579D01*
X82651338Y-153379668D01*
X82640061Y-153369536D01*
X82637194Y-153365673D01*
X82530582Y-153240010D01*
X82522661Y-153227058D01*
X82518040Y-153212832D01*
X82515928Y-153198144D01*
X82515561Y-153187986D01*
X82515561Y-152853129D01*
X82641224Y-152853129D01*
X83036898Y-152853129D01*
X83036898Y-152704385D01*
X82969120Y-152619389D01*
X82710101Y-152619389D01*
X82641224Y-152706584D01*
X82641224Y-152853129D01*
X82515561Y-152853129D01*
X82515561Y-152677274D01*
X82517812Y-152662174D01*
X82523003Y-152648337D01*
X82530147Y-152634919D01*
X82534612Y-152627815D01*
X82638293Y-152494825D01*
X82648694Y-152483976D01*
X82660538Y-152474840D01*
X82675279Y-152468314D01*
X82685554Y-152466981D01*
X82994766Y-152466981D01*
X83009378Y-152469213D01*
G37*
G36*
X83558600Y-152655659D02*
G01*
X83804431Y-153167103D01*
X84054291Y-152649431D01*
X84054291Y-152469180D01*
X84180321Y-152469180D01*
X84180321Y-152668848D01*
X84179051Y-152683494D01*
X84175241Y-152698262D01*
X84172627Y-152705118D01*
X83859385Y-153355415D01*
X83851649Y-153368488D01*
X83841125Y-153380321D01*
X83827123Y-153389337D01*
X83811015Y-153393545D01*
X83804431Y-153393883D01*
X83789529Y-153392042D01*
X83774474Y-153385430D01*
X83763029Y-153375701D01*
X83753196Y-153362289D01*
X83749476Y-153355415D01*
X83440265Y-152711346D01*
X83435521Y-152696523D01*
X83433195Y-152681821D01*
X83432937Y-152675076D01*
X83432937Y-152469180D01*
X83558600Y-152469180D01*
X83558600Y-152655659D01*
G37*
G36*
X84558042Y-153131933D02*
G01*
X84784089Y-153131933D01*
X84784089Y-153389487D01*
X84558042Y-153389487D01*
X84558042Y-153131933D01*
G37*
G36*
X85652005Y-152213480D02*
G01*
X85666154Y-152219044D01*
X85678332Y-152228318D01*
X85684246Y-152235073D01*
X85990160Y-152619023D01*
X85998661Y-152632253D01*
X86003620Y-152646424D01*
X86006028Y-152662740D01*
X86006280Y-152670680D01*
X86006280Y-153391685D01*
X85880617Y-153391685D01*
X85880617Y-152980258D01*
X85396650Y-152980258D01*
X85396650Y-153391685D01*
X85271720Y-153391685D01*
X85271720Y-152838475D01*
X85397749Y-152838475D01*
X85880617Y-152838475D01*
X85880617Y-152700355D01*
X85638084Y-152398471D01*
X85397749Y-152698157D01*
X85397749Y-152838475D01*
X85271720Y-152838475D01*
X85271720Y-152666650D01*
X85273509Y-152652095D01*
X85278875Y-152636826D01*
X85286764Y-152622471D01*
X85290038Y-152617557D01*
X85593021Y-152235439D01*
X85603373Y-152223928D01*
X85616439Y-152215556D01*
X85631151Y-152211835D01*
X85635886Y-152211625D01*
X85652005Y-152213480D01*
G37*
G36*
X82093335Y-150468865D02*
G01*
X82106962Y-150474516D01*
X82118271Y-150483935D01*
X82123551Y-150490795D01*
X82223569Y-150617191D01*
X82232649Y-150630522D01*
X82238367Y-150645784D01*
X82240637Y-150661173D01*
X82240788Y-150666650D01*
X82240788Y-151243674D01*
X82345568Y-151243674D01*
X82345568Y-151389487D01*
X81759752Y-151389487D01*
X81744161Y-151387574D01*
X81729420Y-151380962D01*
X81718479Y-151370974D01*
X81714323Y-151365307D01*
X81615404Y-151235247D01*
X81607081Y-151223163D01*
X81601481Y-151209165D01*
X81598606Y-151193255D01*
X81598185Y-151183590D01*
X81598185Y-151156479D01*
X81721650Y-151156479D01*
X81787595Y-151243674D01*
X82115125Y-151243674D01*
X82115125Y-151001140D01*
X81788695Y-151001140D01*
X81721650Y-151086503D01*
X81721650Y-151156479D01*
X81598185Y-151156479D01*
X81598185Y-151056828D01*
X81599831Y-151040835D01*
X81604126Y-151026503D01*
X81611088Y-151012229D01*
X81615038Y-151005903D01*
X81715788Y-150876577D01*
X81726846Y-150866305D01*
X81740899Y-150858834D01*
X81756813Y-150855514D01*
X81761950Y-150855327D01*
X82115125Y-150855327D01*
X82115125Y-150695959D01*
X82051378Y-150614993D01*
X81696371Y-150614993D01*
X81696371Y-150466981D01*
X82077390Y-150466981D01*
X82093335Y-150468865D01*
G37*
G36*
X83030303Y-150702187D02*
G01*
X82961793Y-150617191D01*
X82710467Y-150617191D01*
X82670533Y-150667749D01*
X83139846Y-151126803D01*
X83149784Y-151138596D01*
X83156882Y-151151625D01*
X83161141Y-151165890D01*
X83162561Y-151181392D01*
X83161416Y-151197672D01*
X83157981Y-151212441D01*
X83151380Y-151227250D01*
X83144242Y-151237445D01*
X83036531Y-151368237D01*
X83025116Y-151379572D01*
X83011278Y-151387815D01*
X82996222Y-151391479D01*
X82991468Y-151391685D01*
X82683356Y-151391685D01*
X82667936Y-151389395D01*
X82653732Y-151382526D01*
X82641989Y-151372428D01*
X82638293Y-151368237D01*
X82532780Y-151241475D01*
X82524457Y-151228653D01*
X82518857Y-151214093D01*
X82515982Y-151197793D01*
X82515561Y-151187986D01*
X82515561Y-151116912D01*
X82641224Y-151116912D01*
X82641224Y-151156479D01*
X82710101Y-151241475D01*
X82965823Y-151241475D01*
X83006489Y-151190917D01*
X82539741Y-150734427D01*
X82529616Y-150722485D01*
X82522767Y-150707760D01*
X82518480Y-150691508D01*
X82516660Y-150679839D01*
X82516660Y-150671779D01*
X82517935Y-150656548D01*
X82522343Y-150641121D01*
X82529900Y-150627268D01*
X82532780Y-150623419D01*
X82635362Y-150490429D01*
X82646835Y-150479094D01*
X82659409Y-150471469D01*
X82674672Y-150467348D01*
X82681158Y-150466981D01*
X82988171Y-150466981D01*
X83003012Y-150469271D01*
X83016851Y-150476140D01*
X83028449Y-150486238D01*
X83032135Y-150490429D01*
X83138747Y-150618656D01*
X83147779Y-150631807D01*
X83153855Y-150646116D01*
X83156975Y-150661585D01*
X83157431Y-150670680D01*
X83157431Y-150750181D01*
X83030303Y-150750181D01*
X83030303Y-150702187D01*
G37*
G36*
X83865614Y-151219860D02*
G01*
X83882100Y-151241475D01*
X83971127Y-151241475D01*
X83971127Y-151391685D01*
X83854989Y-151391685D01*
X83840148Y-151389395D01*
X83826310Y-151382526D01*
X83814711Y-151372428D01*
X83811025Y-151368237D01*
X83758269Y-151302658D01*
X83749414Y-151289833D01*
X83743457Y-151275675D01*
X83740398Y-151260183D01*
X83739951Y-151251001D01*
X83739951Y-150619389D01*
X83528925Y-150619389D01*
X83528925Y-150466981D01*
X83739951Y-150466981D01*
X83739951Y-150080833D01*
X83865614Y-150080833D01*
X83865614Y-150466981D01*
X84075540Y-150466981D01*
X84075540Y-150619389D01*
X83865614Y-150619389D01*
X83865614Y-151219860D01*
G37*
G36*
X84844130Y-150469213D02*
G01*
X84857468Y-150475907D01*
X84869530Y-150487064D01*
X84875680Y-150495191D01*
X84975697Y-150625617D01*
X84984778Y-150638948D01*
X84990495Y-150654211D01*
X84992765Y-150669599D01*
X84992916Y-150675076D01*
X84992916Y-151007369D01*
X84473778Y-151007369D01*
X84473778Y-151158311D01*
X84540823Y-151245872D01*
X84997313Y-151245872D01*
X84997313Y-151387288D01*
X84514811Y-151387288D01*
X84500015Y-151385579D01*
X84486090Y-151379668D01*
X84474813Y-151369536D01*
X84471946Y-151365673D01*
X84365334Y-151240010D01*
X84357413Y-151227058D01*
X84352793Y-151212832D01*
X84350680Y-151198144D01*
X84350314Y-151187986D01*
X84350314Y-150853129D01*
X84475976Y-150853129D01*
X84871650Y-150853129D01*
X84871650Y-150704385D01*
X84803872Y-150619389D01*
X84544853Y-150619389D01*
X84475976Y-150706584D01*
X84475976Y-150853129D01*
X84350314Y-150853129D01*
X84350314Y-150677274D01*
X84352565Y-150662174D01*
X84357755Y-150648337D01*
X84364899Y-150634919D01*
X84369364Y-150627815D01*
X84473046Y-150494825D01*
X84483447Y-150483976D01*
X84495290Y-150474840D01*
X84510031Y-150468314D01*
X84520307Y-150466981D01*
X84829518Y-150466981D01*
X84844130Y-150469213D01*
G37*
G36*
X85476884Y-150826751D02*
G01*
X85476884Y-151389487D01*
X85353053Y-151389487D01*
X85353053Y-150672878D01*
X85351095Y-150658315D01*
X85345221Y-150643752D01*
X85339131Y-150634043D01*
X85327047Y-150624555D01*
X85312507Y-150619518D01*
X85309822Y-150619389D01*
X85267690Y-150619389D01*
X85267690Y-150466981D01*
X85362578Y-150466981D01*
X85378950Y-150469775D01*
X85394290Y-150476802D01*
X85408191Y-150486231D01*
X85420308Y-150496488D01*
X85432907Y-150508928D01*
X85435484Y-150511678D01*
X85445187Y-150522955D01*
X85455497Y-150537341D01*
X85463785Y-150552049D01*
X85470051Y-150567080D01*
X85474296Y-150582432D01*
X85476520Y-150598106D01*
X85476884Y-150607665D01*
X85476884Y-150614260D01*
X85573970Y-150492627D01*
X85584892Y-150481407D01*
X85597454Y-150472616D01*
X85611750Y-150467607D01*
X85619033Y-150466981D01*
X85743597Y-150466981D01*
X85759040Y-150468865D01*
X85773752Y-150475377D01*
X85784790Y-150485214D01*
X85789026Y-150490795D01*
X85896371Y-150619023D01*
X85905226Y-150632170D01*
X85911183Y-150646882D01*
X85914045Y-150661273D01*
X85914689Y-150672878D01*
X85914689Y-150747983D01*
X85789026Y-150747983D01*
X85789026Y-150702554D01*
X85717951Y-150619389D01*
X85646877Y-150619389D01*
X85476884Y-150826751D01*
G37*
G36*
X86492079Y-150080833D02*
G01*
X86618841Y-150080833D01*
X86618841Y-150233241D01*
X86492079Y-150233241D01*
X86492079Y-150080833D01*
G37*
G36*
X86492079Y-150466981D02*
G01*
X86618841Y-150466981D01*
X86618841Y-151391685D01*
X86492079Y-151391685D01*
X86492079Y-150466981D01*
G37*
G36*
X87473935Y-151037777D02*
G01*
X87221877Y-151345889D01*
X87221877Y-151393883D01*
X87096214Y-151393883D01*
X87096214Y-151314382D01*
X87097290Y-151299750D01*
X87101073Y-151284658D01*
X87107581Y-151271015D01*
X87113433Y-151262725D01*
X87384909Y-150930432D01*
X87113433Y-150595942D01*
X87105109Y-150583091D01*
X87099510Y-150568443D01*
X87096819Y-150553914D01*
X87096214Y-150542086D01*
X87096214Y-150466981D01*
X87221877Y-150466981D01*
X87221877Y-150516441D01*
X87473935Y-150821256D01*
X87725994Y-150516441D01*
X87725994Y-150466981D01*
X87851657Y-150466981D01*
X87851657Y-150542086D01*
X87850512Y-150557405D01*
X87846487Y-150573160D01*
X87839564Y-150587351D01*
X87833339Y-150595942D01*
X87560764Y-150928234D01*
X87833339Y-151262725D01*
X87842194Y-151275698D01*
X87848151Y-151289888D01*
X87851210Y-151305296D01*
X87851657Y-151314382D01*
X87851657Y-151393883D01*
X87725994Y-151393883D01*
X87725994Y-151345889D01*
X87473935Y-151037777D01*
G37*
G36*
X88148778Y-150490429D02*
G01*
X88023848Y-150490429D01*
X88023848Y-150411294D01*
X88025326Y-150395803D01*
X88029760Y-150381065D01*
X88037150Y-150367080D01*
X88042533Y-150359637D01*
X88249162Y-150102083D01*
X88260577Y-150090748D01*
X88274416Y-150082505D01*
X88289471Y-150078841D01*
X88294225Y-150078635D01*
X88591713Y-150078635D01*
X88607763Y-150080925D01*
X88622024Y-150087794D01*
X88633329Y-150097892D01*
X88636775Y-150102083D01*
X88741189Y-150231043D01*
X88749513Y-150243720D01*
X88755113Y-150257846D01*
X88757988Y-150273421D01*
X88758408Y-150282700D01*
X88758408Y-150548314D01*
X88757046Y-150564250D01*
X88752960Y-150579085D01*
X88746150Y-150592818D01*
X88741189Y-150599972D01*
X88230844Y-151243674D01*
X88758408Y-151243674D01*
X88758408Y-151393883D01*
X88082100Y-151393883D01*
X88066680Y-151391593D01*
X88052476Y-151384724D01*
X88040733Y-151374626D01*
X88037037Y-151370436D01*
X88028713Y-151357759D01*
X88023114Y-151343632D01*
X88020238Y-151328057D01*
X88019818Y-151318778D01*
X88020894Y-151304147D01*
X88024678Y-151289054D01*
X88031185Y-151275411D01*
X88037037Y-151267121D01*
X88634944Y-150519005D01*
X88634944Y-150312009D01*
X88567166Y-150228845D01*
X88319870Y-150228845D01*
X88148778Y-150440603D01*
X88148778Y-150490429D01*
G37*
G36*
X89575767Y-150838475D02*
G01*
X89675785Y-150838475D01*
X89675785Y-150980258D01*
X89575767Y-150980258D01*
X89575767Y-151442243D01*
X89450104Y-151442243D01*
X89450104Y-150980258D01*
X89004605Y-150980258D01*
X88988870Y-150978039D01*
X88974638Y-150971385D01*
X88963113Y-150961602D01*
X88959542Y-150957543D01*
X88950687Y-150944067D01*
X88944730Y-150929606D01*
X88941671Y-150914160D01*
X88941224Y-150905153D01*
X88941224Y-150838475D01*
X89062857Y-150838475D01*
X89450104Y-150838475D01*
X89450104Y-150228845D01*
X89441678Y-150228845D01*
X89062857Y-150704385D01*
X89062857Y-150838475D01*
X88941224Y-150838475D01*
X88941224Y-150668848D01*
X88942702Y-150652764D01*
X88947136Y-150637897D01*
X88954526Y-150624248D01*
X88959909Y-150617191D01*
X89368771Y-150102815D01*
X89378377Y-150091127D01*
X89392244Y-150082626D01*
X89407600Y-150079013D01*
X89415300Y-150078635D01*
X89575767Y-150078635D01*
X89575767Y-150838475D01*
G37*
G36*
X90445680Y-150088916D02*
G01*
X90460649Y-150095328D01*
X90472776Y-150105013D01*
X90477756Y-150110509D01*
X90577041Y-150232875D01*
X90585541Y-150246577D01*
X90590500Y-150260807D01*
X90592909Y-150276833D01*
X90593161Y-150284532D01*
X90593161Y-150683503D01*
X90592153Y-150698546D01*
X90588611Y-150713774D01*
X90582519Y-150727204D01*
X90577041Y-150735160D01*
X90479954Y-150855327D01*
X90469132Y-150866662D01*
X90455407Y-150874905D01*
X90439894Y-150878569D01*
X90434891Y-150878775D01*
X90124581Y-150878775D01*
X90109425Y-150876557D01*
X90095558Y-150869902D01*
X90084178Y-150860120D01*
X90080617Y-150856060D01*
X90071762Y-150842585D01*
X90065805Y-150828124D01*
X90062746Y-150812677D01*
X90062299Y-150803670D01*
X90062299Y-150728565D01*
X90188328Y-150728565D01*
X90264898Y-150728565D01*
X90264898Y-150625617D01*
X90255739Y-150625617D01*
X90188328Y-150708782D01*
X90188328Y-150728565D01*
X90062299Y-150728565D01*
X90062299Y-150679106D01*
X90063329Y-150664200D01*
X90066952Y-150649018D01*
X90073182Y-150635516D01*
X90078785Y-150627449D01*
X90182100Y-150498855D01*
X90193327Y-150488809D01*
X90207774Y-150482483D01*
X90223530Y-150479972D01*
X90229361Y-150479804D01*
X90328279Y-150479804D01*
X90343979Y-150481808D01*
X90358104Y-150487818D01*
X90370655Y-150497836D01*
X90372976Y-150500321D01*
X90382008Y-150512585D01*
X90388084Y-150526299D01*
X90391204Y-150541462D01*
X90391660Y-150550512D01*
X90391660Y-150728565D01*
X90407048Y-150728565D01*
X90467498Y-150651995D01*
X90467498Y-150313841D01*
X90405216Y-150237271D01*
X90050942Y-150237271D01*
X89984630Y-150318237D01*
X89984630Y-151164905D01*
X90042515Y-151237445D01*
X90593161Y-151237445D01*
X90593161Y-151387288D01*
X90016137Y-151387288D01*
X90001141Y-151385434D01*
X89987479Y-151379870D01*
X89975150Y-151370596D01*
X89968876Y-151363841D01*
X89875087Y-151248070D01*
X89866393Y-151234525D01*
X89861321Y-151220315D01*
X89858858Y-151204192D01*
X89858600Y-151196413D01*
X89858600Y-150288928D01*
X89859631Y-150273747D01*
X89863253Y-150258475D01*
X89869484Y-150245115D01*
X89875087Y-150237271D01*
X89977302Y-150110509D01*
X89988299Y-150099175D01*
X90001092Y-150091550D01*
X90015682Y-150087634D01*
X90024563Y-150087062D01*
X90430861Y-150087062D01*
X90445680Y-150088916D01*
G37*
G36*
X91313765Y-150464632D02*
G01*
X91328648Y-150470442D01*
X91341242Y-150480403D01*
X91344574Y-150484200D01*
X91448621Y-150614260D01*
X91458088Y-150627090D01*
X91463610Y-150641390D01*
X91466135Y-150656290D01*
X91466573Y-150666650D01*
X91466573Y-151449570D01*
X91465474Y-151464339D01*
X91461610Y-151479477D01*
X91454964Y-151493049D01*
X91448988Y-151501228D01*
X91353367Y-151618831D01*
X91343848Y-151630342D01*
X91330281Y-151638714D01*
X91315379Y-151642272D01*
X91307937Y-151642644D01*
X91031699Y-151642644D01*
X91016858Y-151640355D01*
X91003019Y-151633485D01*
X90991421Y-151623387D01*
X90987735Y-151619197D01*
X90882588Y-151489504D01*
X90969417Y-151382159D01*
X91058077Y-151492801D01*
X91282292Y-151492801D01*
X91340544Y-151420261D01*
X91340544Y-151115446D01*
X91243824Y-151234881D01*
X91234305Y-151246392D01*
X91220738Y-151254764D01*
X91205836Y-151258322D01*
X91198394Y-151258695D01*
X91035729Y-151258695D01*
X91020309Y-151256405D01*
X91006105Y-151249535D01*
X90994361Y-151239438D01*
X90990666Y-151235247D01*
X90789532Y-150986486D01*
X90780258Y-150973849D01*
X90774849Y-150959662D01*
X90772376Y-150944813D01*
X90771946Y-150934462D01*
X90771946Y-150905153D01*
X90897609Y-150905153D01*
X91062473Y-151108485D01*
X91171650Y-151108485D01*
X91340544Y-150901123D01*
X91340544Y-150695959D01*
X91273133Y-150612794D01*
X91066503Y-150612794D01*
X90897609Y-150822721D01*
X90897609Y-150905153D01*
X90771946Y-150905153D01*
X90771946Y-150793046D01*
X90773023Y-150778299D01*
X90776806Y-150763243D01*
X90783314Y-150749809D01*
X90789166Y-150741755D01*
X90995795Y-150484933D01*
X91005899Y-150473341D01*
X91019723Y-150466043D01*
X91035347Y-150463145D01*
X91041224Y-150462951D01*
X91298412Y-150462951D01*
X91313765Y-150464632D01*
G37*
G36*
X92125296Y-150700355D02*
G01*
X92125296Y-151391685D01*
X91997435Y-151391685D01*
X91997435Y-150700355D01*
X91934787Y-150619389D01*
X91883862Y-150619389D01*
X91814986Y-150702554D01*
X91814986Y-151391685D01*
X91689323Y-151391685D01*
X91689323Y-150469180D01*
X91816085Y-150469180D01*
X91813154Y-150492260D01*
X91810956Y-150490429D01*
X91822283Y-150479094D01*
X91835822Y-150470851D01*
X91850362Y-150467187D01*
X91854919Y-150466981D01*
X91961531Y-150466981D01*
X91976527Y-150468836D01*
X91990189Y-150474400D01*
X92002519Y-150483674D01*
X92008792Y-150490429D01*
X92061182Y-150561137D01*
X92116870Y-150492627D01*
X92128433Y-150481292D01*
X92142300Y-150473049D01*
X92157241Y-150469386D01*
X92161933Y-150469180D01*
X92271842Y-150469180D01*
X92287262Y-150471469D01*
X92301466Y-150478339D01*
X92313209Y-150488437D01*
X92316905Y-150492627D01*
X92416922Y-150617191D01*
X92425954Y-150630164D01*
X92432030Y-150644355D01*
X92435150Y-150659762D01*
X92435607Y-150668848D01*
X92435607Y-151391685D01*
X92308478Y-151391685D01*
X92308478Y-150698157D01*
X92245097Y-150619389D01*
X92189776Y-150619389D01*
X92125296Y-150700355D01*
G37*
G36*
X93101849Y-150468865D02*
G01*
X93115476Y-150474516D01*
X93126784Y-150483935D01*
X93132065Y-150490795D01*
X93232083Y-150617191D01*
X93241163Y-150630522D01*
X93246880Y-150645784D01*
X93249150Y-150661173D01*
X93249302Y-150666650D01*
X93249302Y-151243674D01*
X93354082Y-151243674D01*
X93354082Y-151389487D01*
X92768265Y-151389487D01*
X92752674Y-151387574D01*
X92737934Y-151380962D01*
X92726992Y-151370974D01*
X92722836Y-151365307D01*
X92623918Y-151235247D01*
X92615594Y-151223163D01*
X92609995Y-151209165D01*
X92607119Y-151193255D01*
X92606699Y-151183590D01*
X92606699Y-151156479D01*
X92730163Y-151156479D01*
X92796109Y-151243674D01*
X93123639Y-151243674D01*
X93123639Y-151001140D01*
X92797208Y-151001140D01*
X92730163Y-151086503D01*
X92730163Y-151156479D01*
X92606699Y-151156479D01*
X92606699Y-151056828D01*
X92608345Y-151040835D01*
X92612640Y-151026503D01*
X92619602Y-151012229D01*
X92623551Y-151005903D01*
X92724302Y-150876577D01*
X92735359Y-150866305D01*
X92749413Y-150858834D01*
X92765327Y-150855514D01*
X92770464Y-150855327D01*
X93123639Y-150855327D01*
X93123639Y-150695959D01*
X93059891Y-150614993D01*
X92704884Y-150614993D01*
X92704884Y-150466981D01*
X93085903Y-150466981D01*
X93101849Y-150468865D01*
G37*
G36*
X93831088Y-150080833D02*
G01*
X93957850Y-150080833D01*
X93957850Y-150233241D01*
X93831088Y-150233241D01*
X93831088Y-150080833D01*
G37*
G36*
X93831088Y-150466981D02*
G01*
X93957850Y-150466981D01*
X93957850Y-151391685D01*
X93831088Y-151391685D01*
X93831088Y-150466981D01*
G37*
G36*
X94874127Y-151219860D02*
G01*
X94890614Y-151241475D01*
X94979640Y-151241475D01*
X94979640Y-151391685D01*
X94863503Y-151391685D01*
X94848662Y-151389395D01*
X94834823Y-151382526D01*
X94823225Y-151372428D01*
X94819539Y-151368237D01*
X94766782Y-151302658D01*
X94757927Y-151289833D01*
X94751970Y-151275675D01*
X94748911Y-151260183D01*
X94748464Y-151251001D01*
X94748464Y-150080833D01*
X94874127Y-150080833D01*
X94874127Y-151219860D01*
G37*
G36*
X95566556Y-151131933D02*
G01*
X95792602Y-151131933D01*
X95792602Y-151389487D01*
X95566556Y-151389487D01*
X95566556Y-151131933D01*
G37*
G36*
X96923203Y-150469180D02*
G01*
X96923203Y-150617191D01*
X96569661Y-150617191D01*
X96399668Y-150828949D01*
X96399668Y-151029351D01*
X96575157Y-151241475D01*
X96923203Y-151241475D01*
X96923203Y-151387288D01*
X96548412Y-151387288D01*
X96532870Y-151385249D01*
X96518759Y-151379131D01*
X96506080Y-151368934D01*
X96503715Y-151366406D01*
X96293056Y-151110317D01*
X96285683Y-151097632D01*
X96279906Y-151083251D01*
X96276796Y-151068755D01*
X96276203Y-151059026D01*
X96276203Y-150799640D01*
X96277279Y-150784436D01*
X96281063Y-150769083D01*
X96287571Y-150755585D01*
X96293422Y-150747616D01*
X96498953Y-150492993D01*
X96508742Y-150481482D01*
X96521793Y-150473110D01*
X96537135Y-150469389D01*
X96542184Y-150469180D01*
X96923203Y-150469180D01*
G37*
G36*
X97696206Y-150466841D02*
G01*
X97709868Y-150473013D01*
X97722198Y-150483301D01*
X97728471Y-150490795D01*
X97823360Y-150623785D01*
X97831683Y-150635938D01*
X97837737Y-150650392D01*
X97840427Y-150665848D01*
X97840579Y-150670680D01*
X97840579Y-151187986D01*
X97838826Y-151203542D01*
X97834250Y-151217910D01*
X97826834Y-151232625D01*
X97822627Y-151239277D01*
X97723342Y-151363475D01*
X97712429Y-151374738D01*
X97698832Y-151381326D01*
X97684141Y-151383258D01*
X97677913Y-151383258D01*
X97359176Y-151383258D01*
X97343410Y-151381051D01*
X97328857Y-151374427D01*
X97316678Y-151364574D01*
X97211165Y-151241842D01*
X97201891Y-151228554D01*
X97196482Y-151213842D01*
X97194009Y-151198575D01*
X97193579Y-151187986D01*
X97193579Y-151158311D01*
X97319242Y-151158311D01*
X97385921Y-151239277D01*
X97651901Y-151239277D01*
X97714916Y-151158311D01*
X97714916Y-150697791D01*
X97653000Y-150612794D01*
X97386287Y-150612794D01*
X97319242Y-150698157D01*
X97319242Y-151158311D01*
X97193579Y-151158311D01*
X97193579Y-150666650D01*
X97195831Y-150651592D01*
X97201021Y-150637856D01*
X97208165Y-150624575D01*
X97212630Y-150617557D01*
X97316311Y-150484200D01*
X97327581Y-150473961D01*
X97340783Y-150467514D01*
X97355917Y-150464859D01*
X97359176Y-150464783D01*
X97681210Y-150464783D01*
X97696206Y-150466841D01*
G37*
G36*
X98546929Y-150700355D02*
G01*
X98546929Y-151391685D01*
X98419068Y-151391685D01*
X98419068Y-150700355D01*
X98356420Y-150619389D01*
X98305495Y-150619389D01*
X98236618Y-150702554D01*
X98236618Y-151391685D01*
X98110956Y-151391685D01*
X98110956Y-150469180D01*
X98237718Y-150469180D01*
X98234787Y-150492260D01*
X98232588Y-150490429D01*
X98243916Y-150479094D01*
X98257455Y-150470851D01*
X98271995Y-150467187D01*
X98276552Y-150466981D01*
X98383164Y-150466981D01*
X98398160Y-150468836D01*
X98411822Y-150474400D01*
X98424152Y-150483674D01*
X98430425Y-150490429D01*
X98482815Y-150561137D01*
X98538503Y-150492627D01*
X98550066Y-150481292D01*
X98563933Y-150473049D01*
X98578874Y-150469386D01*
X98583565Y-150469180D01*
X98693475Y-150469180D01*
X98708895Y-150471469D01*
X98723099Y-150478339D01*
X98734842Y-150488437D01*
X98738538Y-150492627D01*
X98838555Y-150617191D01*
X98847587Y-150630164D01*
X98853663Y-150644355D01*
X98856783Y-150659762D01*
X98857240Y-150668848D01*
X98857240Y-151391685D01*
X98730111Y-151391685D01*
X98730111Y-150698157D01*
X98666730Y-150619389D01*
X98611409Y-150619389D01*
X98546929Y-150700355D01*
G37*
G36*
X66805914Y-42211625D02*
G01*
X67134542Y-42211625D01*
X67134542Y-42361835D01*
X67031960Y-42361835D01*
X67031960Y-43241475D01*
X67134542Y-43241475D01*
X67134542Y-43393883D01*
X66805914Y-43393883D01*
X66805914Y-43241475D01*
X66906297Y-43241475D01*
X66906297Y-42361835D01*
X66805914Y-42361835D01*
X66805914Y-42211625D01*
G37*
G36*
X68030303Y-42702187D02*
G01*
X67961793Y-42617191D01*
X67710467Y-42617191D01*
X67670533Y-42667749D01*
X68139846Y-43126803D01*
X68149784Y-43138596D01*
X68156882Y-43151625D01*
X68161141Y-43165890D01*
X68162561Y-43181392D01*
X68161416Y-43197672D01*
X68157981Y-43212441D01*
X68151380Y-43227250D01*
X68144242Y-43237445D01*
X68036531Y-43368237D01*
X68025116Y-43379572D01*
X68011278Y-43387815D01*
X67996222Y-43391479D01*
X67991468Y-43391685D01*
X67683356Y-43391685D01*
X67667936Y-43389395D01*
X67653732Y-43382526D01*
X67641989Y-43372428D01*
X67638293Y-43368237D01*
X67532780Y-43241475D01*
X67524457Y-43228653D01*
X67518857Y-43214093D01*
X67515982Y-43197793D01*
X67515561Y-43187986D01*
X67515561Y-43116912D01*
X67641224Y-43116912D01*
X67641224Y-43156479D01*
X67710101Y-43241475D01*
X67965823Y-43241475D01*
X68006489Y-43190917D01*
X67539741Y-42734427D01*
X67529616Y-42722485D01*
X67522767Y-42707760D01*
X67518480Y-42691508D01*
X67516660Y-42679839D01*
X67516660Y-42671779D01*
X67517935Y-42656548D01*
X67522343Y-42641121D01*
X67529900Y-42627268D01*
X67532780Y-42623419D01*
X67635362Y-42490429D01*
X67646835Y-42479094D01*
X67659409Y-42471469D01*
X67674672Y-42467348D01*
X67681158Y-42466981D01*
X67988171Y-42466981D01*
X68003012Y-42469271D01*
X68016851Y-42476140D01*
X68028449Y-42486238D01*
X68032135Y-42490429D01*
X68138747Y-42618656D01*
X68147779Y-42631807D01*
X68153855Y-42646116D01*
X68156975Y-42661585D01*
X68157431Y-42670680D01*
X68157431Y-42750181D01*
X68030303Y-42750181D01*
X68030303Y-42702187D01*
G37*
G36*
X68935564Y-42466841D02*
G01*
X68949226Y-42473013D01*
X68961556Y-42483301D01*
X68967829Y-42490795D01*
X69062718Y-42623785D01*
X69071041Y-42635938D01*
X69077095Y-42650392D01*
X69079785Y-42665848D01*
X69079937Y-42670680D01*
X69079937Y-43187986D01*
X69078184Y-43203542D01*
X69073608Y-43217910D01*
X69066192Y-43232625D01*
X69061985Y-43239277D01*
X68962700Y-43363475D01*
X68951787Y-43374738D01*
X68938189Y-43381326D01*
X68923499Y-43383258D01*
X68917271Y-43383258D01*
X68598534Y-43383258D01*
X68582768Y-43381051D01*
X68568215Y-43374427D01*
X68556036Y-43364574D01*
X68450523Y-43241842D01*
X68441249Y-43228554D01*
X68435840Y-43213842D01*
X68433367Y-43198575D01*
X68432937Y-43187986D01*
X68432937Y-43158311D01*
X68558600Y-43158311D01*
X68625279Y-43239277D01*
X68891259Y-43239277D01*
X68954274Y-43158311D01*
X68954274Y-42697791D01*
X68892358Y-42612794D01*
X68625645Y-42612794D01*
X68558600Y-42698157D01*
X68558600Y-43158311D01*
X68432937Y-43158311D01*
X68432937Y-42666650D01*
X68435189Y-42651592D01*
X68440379Y-42637856D01*
X68447523Y-42624575D01*
X68451988Y-42617557D01*
X68555669Y-42484200D01*
X68566939Y-42473961D01*
X68580141Y-42467514D01*
X68595275Y-42464859D01*
X68598534Y-42464783D01*
X68920568Y-42464783D01*
X68935564Y-42466841D01*
G37*
G36*
X69485502Y-43090533D02*
G01*
X69485502Y-43391685D01*
X69354344Y-43391685D01*
X69354344Y-42211625D01*
X69485502Y-42211625D01*
X69485502Y-42871081D01*
X69963241Y-42259619D01*
X69963241Y-42211625D01*
X70088171Y-42211625D01*
X70088171Y-42288928D01*
X70086693Y-42305012D01*
X70082259Y-42319879D01*
X70074869Y-42333529D01*
X70069487Y-42340586D01*
X69708251Y-42801838D01*
X70071685Y-43262725D01*
X70080008Y-43275402D01*
X70085608Y-43289528D01*
X70088484Y-43305103D01*
X70088904Y-43314382D01*
X70088904Y-43391685D01*
X69963241Y-43391685D01*
X69963241Y-43343691D01*
X69620690Y-42909549D01*
X69485502Y-43090533D01*
G37*
G36*
X70761506Y-42469213D02*
G01*
X70774844Y-42475907D01*
X70786906Y-42487064D01*
X70793056Y-42495191D01*
X70893073Y-42625617D01*
X70902154Y-42638948D01*
X70907871Y-42654211D01*
X70910141Y-42669599D01*
X70910293Y-42675076D01*
X70910293Y-43007369D01*
X70391154Y-43007369D01*
X70391154Y-43158311D01*
X70458199Y-43245872D01*
X70914689Y-43245872D01*
X70914689Y-43387288D01*
X70432187Y-43387288D01*
X70417391Y-43385579D01*
X70403467Y-43379668D01*
X70392189Y-43369536D01*
X70389323Y-43365673D01*
X70282711Y-43240010D01*
X70274789Y-43227058D01*
X70270169Y-43212832D01*
X70268056Y-43198144D01*
X70267690Y-43187986D01*
X70267690Y-42853129D01*
X70393353Y-42853129D01*
X70789026Y-42853129D01*
X70789026Y-42704385D01*
X70721249Y-42619389D01*
X70462229Y-42619389D01*
X70393353Y-42706584D01*
X70393353Y-42853129D01*
X70267690Y-42853129D01*
X70267690Y-42677274D01*
X70269941Y-42662174D01*
X70275131Y-42648337D01*
X70282276Y-42634919D01*
X70286741Y-42627815D01*
X70390422Y-42494825D01*
X70400823Y-42483976D01*
X70412667Y-42474840D01*
X70427407Y-42468314D01*
X70437683Y-42466981D01*
X70746894Y-42466981D01*
X70761506Y-42469213D01*
G37*
G36*
X71471929Y-43318778D02*
G01*
X71202285Y-42982090D01*
X71193961Y-42969412D01*
X71188362Y-42955286D01*
X71185486Y-42939711D01*
X71185066Y-42930432D01*
X71185066Y-42466981D01*
X71310729Y-42466981D01*
X71310729Y-42901123D01*
X71559856Y-43209235D01*
X71704204Y-43031915D01*
X71704204Y-42466981D01*
X71829867Y-42466981D01*
X71829867Y-43061224D01*
X71828791Y-43075856D01*
X71825007Y-43090948D01*
X71818500Y-43104591D01*
X71812648Y-43112882D01*
X71278122Y-43771971D01*
X71191294Y-43664626D01*
X71471929Y-43318778D01*
G37*
G36*
X73145481Y-42655659D02*
G01*
X73391311Y-43167103D01*
X73641172Y-42649431D01*
X73641172Y-42469180D01*
X73767201Y-42469180D01*
X73767201Y-42668848D01*
X73765931Y-42683494D01*
X73762122Y-42698262D01*
X73759508Y-42705118D01*
X73446266Y-43355415D01*
X73438529Y-43368488D01*
X73428006Y-43380321D01*
X73414004Y-43389337D01*
X73397895Y-43393545D01*
X73391311Y-43393883D01*
X73376410Y-43392042D01*
X73361355Y-43385430D01*
X73349909Y-43375701D01*
X73340077Y-43362289D01*
X73336357Y-43355415D01*
X73027145Y-42711346D01*
X73022401Y-42696523D01*
X73020076Y-42681821D01*
X73019818Y-42675076D01*
X73019818Y-42469180D01*
X73145481Y-42469180D01*
X73145481Y-42655659D01*
G37*
G36*
X74675785Y-42078635D02*
G01*
X74675785Y-42228845D01*
X74066154Y-42228845D01*
X74066154Y-42464783D01*
X74407972Y-42464783D01*
X74423235Y-42467073D01*
X74437425Y-42473942D01*
X74449277Y-42484040D01*
X74453035Y-42488230D01*
X74658199Y-42741388D01*
X74667473Y-42753989D01*
X74672882Y-42768083D01*
X74675355Y-42782801D01*
X74675785Y-42793046D01*
X74675785Y-43059026D01*
X74674708Y-43073658D01*
X74670925Y-43088750D01*
X74664417Y-43102393D01*
X74658565Y-43110683D01*
X74452302Y-43365673D01*
X74442697Y-43377184D01*
X74428830Y-43385556D01*
X74413473Y-43389115D01*
X74405774Y-43389487D01*
X73946720Y-43389487D01*
X73946720Y-43239277D01*
X74381228Y-43239277D01*
X74552320Y-43027519D01*
X74552320Y-42822721D01*
X74383426Y-42614993D01*
X73941224Y-42614993D01*
X73941224Y-42078635D01*
X74675785Y-42078635D01*
G37*
G36*
X76286688Y-42702187D02*
G01*
X76218178Y-42617191D01*
X75966852Y-42617191D01*
X75926919Y-42667749D01*
X76396231Y-43126803D01*
X76406169Y-43138596D01*
X76413267Y-43151625D01*
X76417526Y-43165890D01*
X76418946Y-43181392D01*
X76417801Y-43197672D01*
X76414366Y-43212441D01*
X76407765Y-43227250D01*
X76400628Y-43237445D01*
X76292916Y-43368237D01*
X76281502Y-43379572D01*
X76267663Y-43387815D01*
X76252607Y-43391479D01*
X76247854Y-43391685D01*
X75939741Y-43391685D01*
X75924321Y-43389395D01*
X75910117Y-43382526D01*
X75898374Y-43372428D01*
X75894678Y-43368237D01*
X75789166Y-43241475D01*
X75780842Y-43228653D01*
X75775242Y-43214093D01*
X75772367Y-43197793D01*
X75771946Y-43187986D01*
X75771946Y-43116912D01*
X75897609Y-43116912D01*
X75897609Y-43156479D01*
X75966486Y-43241475D01*
X76222208Y-43241475D01*
X76262875Y-43190917D01*
X75796127Y-42734427D01*
X75786001Y-42722485D01*
X75779152Y-42707760D01*
X75774865Y-42691508D01*
X75773046Y-42679839D01*
X75773046Y-42671779D01*
X75774321Y-42656548D01*
X75778728Y-42641121D01*
X75786285Y-42627268D01*
X75789166Y-42623419D01*
X75891748Y-42490429D01*
X75903220Y-42479094D01*
X75915795Y-42471469D01*
X75931057Y-42467348D01*
X75937543Y-42466981D01*
X76244556Y-42466981D01*
X76259397Y-42469271D01*
X76273236Y-42476140D01*
X76284834Y-42486238D01*
X76288520Y-42490429D01*
X76395132Y-42618656D01*
X76404164Y-42631807D01*
X76410240Y-42646116D01*
X76413361Y-42661585D01*
X76413817Y-42670680D01*
X76413817Y-42750181D01*
X76286688Y-42750181D01*
X76286688Y-42702187D01*
G37*
G36*
X77091133Y-42464755D02*
G01*
X77104700Y-42472080D01*
X77108077Y-42475774D01*
X77318370Y-42724902D01*
X77326224Y-42738686D01*
X77332377Y-42753427D01*
X77335884Y-42768855D01*
X77336322Y-42776193D01*
X77336322Y-43059026D01*
X77334873Y-43075110D01*
X77330526Y-43089977D01*
X77323281Y-43103626D01*
X77318004Y-43110683D01*
X77112473Y-43365673D01*
X77102685Y-43377184D01*
X77089633Y-43385556D01*
X77074291Y-43389277D01*
X77069242Y-43389487D01*
X76814986Y-43389487D01*
X76814986Y-43777833D01*
X76689323Y-43777833D01*
X76689323Y-42619389D01*
X76814986Y-42619389D01*
X76814986Y-43241475D01*
X77041399Y-43241475D01*
X77211392Y-43029717D01*
X77211392Y-42806235D01*
X77052023Y-42619389D01*
X76814986Y-42619389D01*
X76689323Y-42619389D01*
X76689323Y-42462951D01*
X77076570Y-42462951D01*
X77091133Y-42464755D01*
G37*
G36*
X78039375Y-43219860D02*
G01*
X78055861Y-43241475D01*
X78144888Y-43241475D01*
X78144888Y-43391685D01*
X78028750Y-43391685D01*
X78013910Y-43389395D01*
X78000071Y-43382526D01*
X77988472Y-43372428D01*
X77984787Y-43368237D01*
X77932030Y-43302658D01*
X77923175Y-43289833D01*
X77917218Y-43275675D01*
X77914159Y-43260183D01*
X77913712Y-43251001D01*
X77913712Y-42080833D01*
X78039375Y-42080833D01*
X78039375Y-43219860D01*
G37*
G36*
X78831088Y-42080833D02*
G01*
X78957850Y-42080833D01*
X78957850Y-42233241D01*
X78831088Y-42233241D01*
X78831088Y-42080833D01*
G37*
G36*
X78831088Y-42466981D02*
G01*
X78957850Y-42466981D01*
X78957850Y-43391685D01*
X78831088Y-43391685D01*
X78831088Y-42466981D01*
G37*
G36*
X79874127Y-43219860D02*
G01*
X79890614Y-43241475D01*
X79979640Y-43241475D01*
X79979640Y-43391685D01*
X79863503Y-43391685D01*
X79848662Y-43389395D01*
X79834823Y-43382526D01*
X79823225Y-43372428D01*
X79819539Y-43368237D01*
X79766782Y-43302658D01*
X79757927Y-43289833D01*
X79751970Y-43275675D01*
X79748911Y-43260183D01*
X79748464Y-43251001D01*
X79748464Y-42619389D01*
X79537438Y-42619389D01*
X79537438Y-42466981D01*
X79748464Y-42466981D01*
X79748464Y-42080833D01*
X79874127Y-42080833D01*
X79874127Y-42466981D01*
X80084054Y-42466981D01*
X80084054Y-42619389D01*
X79874127Y-42619389D01*
X79874127Y-43219860D01*
G37*
G36*
X66852215Y-44211625D02*
G01*
X66977145Y-44211625D01*
X66977145Y-45241475D01*
X67586775Y-45241475D01*
X67586775Y-45391685D01*
X66852215Y-45391685D01*
X66852215Y-44211625D01*
G37*
G36*
X68259378Y-44469213D02*
G01*
X68272715Y-44475907D01*
X68284777Y-44487064D01*
X68290928Y-44495191D01*
X68390945Y-44625617D01*
X68400025Y-44638948D01*
X68405743Y-44654211D01*
X68408013Y-44669599D01*
X68408164Y-44675076D01*
X68408164Y-45007369D01*
X67889026Y-45007369D01*
X67889026Y-45158311D01*
X67956071Y-45245872D01*
X68412561Y-45245872D01*
X68412561Y-45387288D01*
X67930059Y-45387288D01*
X67915263Y-45385579D01*
X67901338Y-45379668D01*
X67890061Y-45369536D01*
X67887194Y-45365673D01*
X67780582Y-45240010D01*
X67772661Y-45227058D01*
X67768040Y-45212832D01*
X67765928Y-45198144D01*
X67765561Y-45187986D01*
X67765561Y-44853129D01*
X67891224Y-44853129D01*
X68286898Y-44853129D01*
X68286898Y-44704385D01*
X68219120Y-44619389D01*
X67960101Y-44619389D01*
X67891224Y-44706584D01*
X67891224Y-44853129D01*
X67765561Y-44853129D01*
X67765561Y-44677274D01*
X67767812Y-44662174D01*
X67773003Y-44648337D01*
X67780147Y-44634919D01*
X67784612Y-44627815D01*
X67888293Y-44494825D01*
X67898694Y-44483976D01*
X67910538Y-44474840D01*
X67925279Y-44468314D01*
X67935554Y-44466981D01*
X68244766Y-44466981D01*
X68259378Y-44469213D01*
G37*
G36*
X69082274Y-44231043D02*
G01*
X69020725Y-44309811D01*
X69020725Y-44466981D01*
X69227721Y-44466981D01*
X69227721Y-44619389D01*
X69018527Y-44619389D01*
X69018527Y-45391685D01*
X68893963Y-45391685D01*
X68893963Y-44619389D01*
X68682937Y-44619389D01*
X68682937Y-44466981D01*
X68893963Y-44466981D01*
X68893963Y-44280502D01*
X68894971Y-44265458D01*
X68898513Y-44250231D01*
X68904605Y-44236800D01*
X68910083Y-44228845D01*
X69008269Y-44104281D01*
X69019771Y-44092946D01*
X69032432Y-44085321D01*
X69047859Y-44081200D01*
X69054431Y-44080833D01*
X69329937Y-44080833D01*
X69329937Y-44231043D01*
X69082274Y-44231043D01*
G37*
G36*
X70032990Y-45219860D02*
G01*
X70049476Y-45241475D01*
X70138503Y-45241475D01*
X70138503Y-45391685D01*
X70022365Y-45391685D01*
X70007525Y-45389395D01*
X69993686Y-45382526D01*
X69982087Y-45372428D01*
X69978401Y-45368237D01*
X69925645Y-45302658D01*
X69916790Y-45289833D01*
X69910833Y-45275675D01*
X69907774Y-45260183D01*
X69907327Y-45251001D01*
X69907327Y-44619389D01*
X69696301Y-44619389D01*
X69696301Y-44466981D01*
X69907327Y-44466981D01*
X69907327Y-44080833D01*
X70032990Y-44080833D01*
X70032990Y-44466981D01*
X70242916Y-44466981D01*
X70242916Y-44619389D01*
X70032990Y-44619389D01*
X70032990Y-45219860D01*
G37*
G36*
X71660133Y-43978743D02*
G01*
X71686589Y-43981233D01*
X71712568Y-43985383D01*
X71738071Y-43991194D01*
X71763096Y-43998664D01*
X71787645Y-44007795D01*
X71811716Y-44018585D01*
X71835310Y-44031036D01*
X71858055Y-44044803D01*
X71879579Y-44059849D01*
X71899882Y-44076173D01*
X71918963Y-44093776D01*
X71936823Y-44112657D01*
X71953463Y-44132816D01*
X71968880Y-44154254D01*
X71983077Y-44176971D01*
X71995957Y-44200432D01*
X72007120Y-44224407D01*
X72016565Y-44248898D01*
X72024293Y-44273905D01*
X72030304Y-44299426D01*
X72034597Y-44325463D01*
X72037173Y-44352015D01*
X72038032Y-44379082D01*
X72037297Y-44404355D01*
X72035093Y-44429190D01*
X72031420Y-44453585D01*
X72026277Y-44477542D01*
X72019666Y-44501060D01*
X72011585Y-44524139D01*
X72002034Y-44546779D01*
X71991015Y-44568981D01*
X71976561Y-44594791D01*
X71962583Y-44617650D01*
X71946441Y-44641185D01*
X71930985Y-44660469D01*
X71911445Y-44679570D01*
X71906751Y-44683164D01*
X71939625Y-44686878D01*
X71972532Y-44691837D01*
X72005471Y-44698041D01*
X72038442Y-44705490D01*
X72071445Y-44714184D01*
X72104480Y-44724123D01*
X72137548Y-44735307D01*
X72170648Y-44747736D01*
X72203780Y-44761410D01*
X72236944Y-44776329D01*
X72259071Y-44786967D01*
X72284075Y-44798672D01*
X72308251Y-44808370D01*
X72331602Y-44816060D01*
X72361450Y-44823192D01*
X72389829Y-44826755D01*
X72416739Y-44826750D01*
X72442179Y-44823177D01*
X72466150Y-44816036D01*
X72483164Y-44808339D01*
X72505500Y-44797600D01*
X72528732Y-44784648D01*
X72550294Y-44770624D01*
X72556437Y-44766207D01*
X72565596Y-44841922D01*
X72559180Y-44870175D01*
X72552525Y-44898069D01*
X72545632Y-44925606D01*
X72538500Y-44952785D01*
X72531130Y-44979607D01*
X72523522Y-45006070D01*
X72520411Y-45016556D01*
X72509974Y-45045693D01*
X72499116Y-45073876D01*
X72487839Y-45101106D01*
X72476142Y-45127381D01*
X72464025Y-45152702D01*
X72451489Y-45177069D01*
X72438533Y-45200482D01*
X72425157Y-45222941D01*
X72411819Y-45243910D01*
X72393500Y-45270500D01*
X72374572Y-45295526D01*
X72355032Y-45318986D01*
X72334882Y-45340882D01*
X72314121Y-45361214D01*
X72292750Y-45379980D01*
X72270768Y-45397182D01*
X72265177Y-45401238D01*
X72244230Y-45414769D01*
X72222831Y-45426970D01*
X72193598Y-45441166D01*
X72163564Y-45452997D01*
X72132728Y-45462461D01*
X72101091Y-45469559D01*
X72076837Y-45473330D01*
X72052133Y-45475770D01*
X72026977Y-45476880D01*
X72018492Y-45476953D01*
X71556263Y-45476953D01*
X71493370Y-45469626D01*
X71465700Y-45464861D01*
X71439016Y-45458807D01*
X71413321Y-45451465D01*
X71388613Y-45442836D01*
X71364892Y-45432918D01*
X71357205Y-45429326D01*
X71335089Y-45417257D01*
X71314233Y-45404253D01*
X71289934Y-45386683D01*
X71267603Y-45367652D01*
X71247239Y-45347161D01*
X71228844Y-45325208D01*
X71215544Y-45306594D01*
X71200517Y-45282227D01*
X71187494Y-45256448D01*
X71176474Y-45229257D01*
X71167459Y-45200654D01*
X71160446Y-45170639D01*
X71155437Y-45139211D01*
X71152995Y-45114714D01*
X71151681Y-45089423D01*
X71151430Y-45072121D01*
X71152654Y-45043499D01*
X71156324Y-45014877D01*
X71162442Y-44986254D01*
X71169410Y-44962402D01*
X71178077Y-44938551D01*
X71186235Y-44919469D01*
X71199096Y-44896800D01*
X71212916Y-44874335D01*
X71226669Y-44853126D01*
X71242182Y-44830114D01*
X71256454Y-44809560D01*
X71270634Y-44789143D01*
X71285289Y-44767161D01*
X71299130Y-44744988D01*
X71311774Y-44721976D01*
X71316294Y-44711863D01*
X71321977Y-44686580D01*
X71322287Y-44660415D01*
X71316277Y-44636277D01*
X71313241Y-44629431D01*
X71283569Y-44628417D01*
X71254852Y-44625376D01*
X71227088Y-44620307D01*
X71200279Y-44613212D01*
X71174423Y-44604088D01*
X71149522Y-44592937D01*
X71139829Y-44587909D01*
X71117267Y-44572296D01*
X71096294Y-44555223D01*
X71076910Y-44536690D01*
X71059114Y-44516697D01*
X71042907Y-44495245D01*
X71037857Y-44487770D01*
X71027019Y-44463536D01*
X71017707Y-44438463D01*
X71009922Y-44412551D01*
X71003663Y-44385799D01*
X70996946Y-44310083D01*
X71021994Y-44321431D01*
X71045998Y-44331049D01*
X71073425Y-44340308D01*
X71099350Y-44347077D01*
X71123771Y-44351356D01*
X71139218Y-44352826D01*
X71164500Y-44353552D01*
X71189888Y-44352235D01*
X71213979Y-44348017D01*
X71231420Y-44341835D01*
X71420708Y-44341835D01*
X71424027Y-44368170D01*
X71433984Y-44391764D01*
X71448796Y-44410833D01*
X71469969Y-44426825D01*
X71494028Y-44436178D01*
X71518405Y-44438921D01*
X71542925Y-44436178D01*
X71566590Y-44426825D01*
X71586793Y-44410833D01*
X71602089Y-44389732D01*
X71611036Y-44365889D01*
X71613660Y-44341835D01*
X71610485Y-44315440D01*
X71600961Y-44292509D01*
X71586793Y-44274668D01*
X71566722Y-44259372D01*
X71542610Y-44250425D01*
X71517184Y-44247801D01*
X71491196Y-44250976D01*
X71467806Y-44260500D01*
X71448796Y-44274668D01*
X71432804Y-44294726D01*
X71423451Y-44317959D01*
X71420708Y-44341835D01*
X71231420Y-44341835D01*
X71234507Y-44314477D01*
X71239420Y-44287818D01*
X71246156Y-44261855D01*
X71254718Y-44236591D01*
X71265104Y-44212024D01*
X71277315Y-44188155D01*
X71291351Y-44164984D01*
X71307211Y-44142510D01*
X71324896Y-44120734D01*
X71344406Y-44099655D01*
X71358426Y-44085990D01*
X71380451Y-44066676D01*
X71403248Y-44049261D01*
X71426819Y-44033746D01*
X71451162Y-44020131D01*
X71476278Y-44008415D01*
X71502167Y-43998600D01*
X71528828Y-43990684D01*
X71556263Y-43984668D01*
X71584470Y-43980552D01*
X71613450Y-43978335D01*
X71633199Y-43977913D01*
X71660133Y-43978743D01*
G37*
D11*
X104461330Y-140615898D02*
X103937521Y-140949231D01*
X104461330Y-141187326D02*
X103361330Y-141187326D01*
X103361330Y-141187326D02*
X103361330Y-140806374D01*
X103361330Y-140806374D02*
X103413711Y-140711136D01*
X103413711Y-140711136D02*
X103466092Y-140663517D01*
X103466092Y-140663517D02*
X103570854Y-140615898D01*
X103570854Y-140615898D02*
X103727997Y-140615898D01*
X103727997Y-140615898D02*
X103832759Y-140663517D01*
X103832759Y-140663517D02*
X103885140Y-140711136D01*
X103885140Y-140711136D02*
X103937521Y-140806374D01*
X103937521Y-140806374D02*
X103937521Y-141187326D01*
X103361330Y-139996850D02*
X103361330Y-139901612D01*
X103361330Y-139901612D02*
X103413711Y-139806374D01*
X103413711Y-139806374D02*
X103466092Y-139758755D01*
X103466092Y-139758755D02*
X103570854Y-139711136D01*
X103570854Y-139711136D02*
X103780378Y-139663517D01*
X103780378Y-139663517D02*
X104042283Y-139663517D01*
X104042283Y-139663517D02*
X104251807Y-139711136D01*
X104251807Y-139711136D02*
X104356569Y-139758755D01*
X104356569Y-139758755D02*
X104408950Y-139806374D01*
X104408950Y-139806374D02*
X104461330Y-139901612D01*
X104461330Y-139901612D02*
X104461330Y-139996850D01*
X104461330Y-139996850D02*
X104408950Y-140092088D01*
X104408950Y-140092088D02*
X104356569Y-140139707D01*
X104356569Y-140139707D02*
X104251807Y-140187326D01*
X104251807Y-140187326D02*
X104042283Y-140234945D01*
X104042283Y-140234945D02*
X103780378Y-140234945D01*
X103780378Y-140234945D02*
X103570854Y-140187326D01*
X103570854Y-140187326D02*
X103466092Y-140139707D01*
X103466092Y-140139707D02*
X103413711Y-140092088D01*
X103413711Y-140092088D02*
X103361330Y-139996850D01*
X103047451Y-147161980D02*
X102714118Y-146638171D01*
X102476023Y-147161980D02*
X102476023Y-146061980D01*
X102476023Y-146061980D02*
X102856975Y-146061980D01*
X102856975Y-146061980D02*
X102952213Y-146114361D01*
X102952213Y-146114361D02*
X102999832Y-146166742D01*
X102999832Y-146166742D02*
X103047451Y-146271504D01*
X103047451Y-146271504D02*
X103047451Y-146428647D01*
X103047451Y-146428647D02*
X102999832Y-146533409D01*
X102999832Y-146533409D02*
X102952213Y-146585790D01*
X102952213Y-146585790D02*
X102856975Y-146638171D01*
X102856975Y-146638171D02*
X102476023Y-146638171D01*
X103904594Y-146428647D02*
X103904594Y-147161980D01*
X103666499Y-146009600D02*
X103428404Y-146795314D01*
X103428404Y-146795314D02*
X104047451Y-146795314D01*
X103598523Y-139119756D02*
X103598523Y-138019756D01*
X104074713Y-139119756D02*
X104074713Y-138019756D01*
X104074713Y-138019756D02*
X104312808Y-138019756D01*
X104312808Y-138019756D02*
X104455665Y-138072137D01*
X104455665Y-138072137D02*
X104550903Y-138176899D01*
X104550903Y-138176899D02*
X104598522Y-138281661D01*
X104598522Y-138281661D02*
X104646141Y-138491185D01*
X104646141Y-138491185D02*
X104646141Y-138648328D01*
X104646141Y-138648328D02*
X104598522Y-138857852D01*
X104598522Y-138857852D02*
X104550903Y-138962614D01*
X104550903Y-138962614D02*
X104455665Y-139067376D01*
X104455665Y-139067376D02*
X104312808Y-139119756D01*
X104312808Y-139119756D02*
X104074713Y-139119756D01*
X102249832Y-69364361D02*
X102154594Y-69311980D01*
X102154594Y-69311980D02*
X102011737Y-69311980D01*
X102011737Y-69311980D02*
X101868880Y-69364361D01*
X101868880Y-69364361D02*
X101773642Y-69469123D01*
X101773642Y-69469123D02*
X101726023Y-69573885D01*
X101726023Y-69573885D02*
X101678404Y-69783409D01*
X101678404Y-69783409D02*
X101678404Y-69940552D01*
X101678404Y-69940552D02*
X101726023Y-70150076D01*
X101726023Y-70150076D02*
X101773642Y-70254838D01*
X101773642Y-70254838D02*
X101868880Y-70359600D01*
X101868880Y-70359600D02*
X102011737Y-70411980D01*
X102011737Y-70411980D02*
X102106975Y-70411980D01*
X102106975Y-70411980D02*
X102249832Y-70359600D01*
X102249832Y-70359600D02*
X102297451Y-70307219D01*
X102297451Y-70307219D02*
X102297451Y-69940552D01*
X102297451Y-69940552D02*
X102106975Y-69940552D01*
X102726023Y-70411980D02*
X102726023Y-69311980D01*
X102726023Y-69311980D02*
X103297451Y-70411980D01*
X103297451Y-70411980D02*
X103297451Y-69311980D01*
X103773642Y-70411980D02*
X103773642Y-69311980D01*
X103773642Y-69311980D02*
X104011737Y-69311980D01*
X104011737Y-69311980D02*
X104154594Y-69364361D01*
X104154594Y-69364361D02*
X104249832Y-69469123D01*
X104249832Y-69469123D02*
X104297451Y-69573885D01*
X104297451Y-69573885D02*
X104345070Y-69783409D01*
X104345070Y-69783409D02*
X104345070Y-69940552D01*
X104345070Y-69940552D02*
X104297451Y-70150076D01*
X104297451Y-70150076D02*
X104249832Y-70254838D01*
X104249832Y-70254838D02*
X104154594Y-70359600D01*
X104154594Y-70359600D02*
X104011737Y-70411980D01*
X104011737Y-70411980D02*
X103773642Y-70411980D01*
D12*
G36*
X80388781Y-113206589D02*
G01*
X80388781Y-114014422D01*
X80617392Y-114014422D01*
X80672485Y-114015796D01*
X80723455Y-114019918D01*
X80770304Y-114026787D01*
X80823069Y-114039237D01*
X80869394Y-114055981D01*
X80909279Y-114077019D01*
X80942724Y-114102349D01*
X80975967Y-114136842D01*
X81002333Y-114175199D01*
X81021820Y-114217419D01*
X81034430Y-114263504D01*
X81040161Y-114313453D01*
X81040543Y-114330961D01*
X81037104Y-114382236D01*
X81026787Y-114429725D01*
X81009593Y-114473426D01*
X80985520Y-114513341D01*
X80954569Y-114549470D01*
X80942724Y-114560671D01*
X80901817Y-114590179D01*
X80860644Y-114610106D01*
X80813031Y-114625792D01*
X80758978Y-114637240D01*
X80711099Y-114643345D01*
X80659098Y-114646736D01*
X80617392Y-114647500D01*
X79655686Y-114647500D01*
X79600577Y-114646143D01*
X79549555Y-114642073D01*
X79502620Y-114635289D01*
X79449700Y-114622994D01*
X79403165Y-114606460D01*
X79363017Y-114585685D01*
X79329256Y-114560671D01*
X79296386Y-114525805D01*
X79270317Y-114487152D01*
X79251048Y-114444713D01*
X79238581Y-114398486D01*
X79232913Y-114348473D01*
X79232536Y-114330961D01*
X79236013Y-114279724D01*
X79246446Y-114232352D01*
X79263834Y-114188843D01*
X79288177Y-114149198D01*
X79319476Y-114113418D01*
X79331454Y-114102349D01*
X79372992Y-114072468D01*
X79414396Y-114052289D01*
X79461971Y-114036404D01*
X79515718Y-114024812D01*
X79563160Y-114018630D01*
X79614551Y-114015195D01*
X79655686Y-114014422D01*
X79754605Y-114014422D01*
X79754605Y-111693138D01*
X79655686Y-111693138D01*
X79600577Y-111691781D01*
X79549555Y-111687711D01*
X79502620Y-111680928D01*
X79449700Y-111668633D01*
X79403165Y-111652098D01*
X79363017Y-111631324D01*
X79329256Y-111606310D01*
X79296386Y-111571444D01*
X79270317Y-111532791D01*
X79251048Y-111490351D01*
X79238581Y-111444125D01*
X79232913Y-111394112D01*
X79232536Y-111376599D01*
X79235936Y-111325363D01*
X79246137Y-111277990D01*
X79263138Y-111234481D01*
X79286941Y-111194837D01*
X79317544Y-111159056D01*
X79329256Y-111147988D01*
X79370536Y-111118106D01*
X79411961Y-111097928D01*
X79459773Y-111082042D01*
X79513971Y-111070450D01*
X79561927Y-111064268D01*
X79613971Y-111060833D01*
X79655686Y-111060061D01*
X80617392Y-111060061D01*
X80672485Y-111061434D01*
X80723455Y-111065556D01*
X80770304Y-111072425D01*
X80823069Y-111084876D01*
X80869394Y-111101620D01*
X80909279Y-111122657D01*
X80942724Y-111147988D01*
X80975967Y-111182481D01*
X81002333Y-111220837D01*
X81021820Y-111263058D01*
X81034430Y-111309142D01*
X81040161Y-111359091D01*
X81040543Y-111376599D01*
X81037104Y-111427875D01*
X81026787Y-111475363D01*
X81009593Y-111519065D01*
X80985520Y-111558980D01*
X80954569Y-111595108D01*
X80942724Y-111606310D01*
X80901817Y-111635818D01*
X80860644Y-111655744D01*
X80813031Y-111671431D01*
X80758978Y-111682878D01*
X80711099Y-111688983D01*
X80659098Y-111692375D01*
X80617392Y-111693138D01*
X80388781Y-111693138D01*
X80388781Y-112466899D01*
X81514252Y-111693138D01*
X81468640Y-111688810D01*
X81426522Y-111673596D01*
X81391145Y-111643843D01*
X81377965Y-111623895D01*
X81359901Y-111578677D01*
X81349938Y-111535693D01*
X81343552Y-111485872D01*
X81340924Y-111437727D01*
X81340596Y-111411770D01*
X81343996Y-111359915D01*
X81354197Y-111310688D01*
X81371198Y-111264088D01*
X81395001Y-111220116D01*
X81425604Y-111178771D01*
X81437316Y-111165573D01*
X81471077Y-111135177D01*
X81511225Y-111109932D01*
X81557760Y-111089839D01*
X81610680Y-111074898D01*
X81657615Y-111066655D01*
X81708637Y-111061709D01*
X81763746Y-111060061D01*
X82410013Y-111060061D01*
X82465122Y-111061434D01*
X82516144Y-111065556D01*
X82563079Y-111072425D01*
X82615999Y-111084876D01*
X82662534Y-111101620D01*
X82702682Y-111122657D01*
X82736443Y-111147988D01*
X82769687Y-111182481D01*
X82796052Y-111220837D01*
X82815539Y-111263058D01*
X82828149Y-111309142D01*
X82833881Y-111359091D01*
X82834263Y-111376599D01*
X82830824Y-111427875D01*
X82820507Y-111475363D01*
X82803312Y-111519065D01*
X82779239Y-111558980D01*
X82748289Y-111595108D01*
X82736443Y-111606310D01*
X82695936Y-111635818D01*
X82656335Y-111655744D01*
X82611422Y-111671431D01*
X82561195Y-111682878D01*
X82517188Y-111688983D01*
X82469781Y-111692375D01*
X82431995Y-111693138D01*
X81294434Y-112513061D01*
X81334121Y-112536902D01*
X81373500Y-112562263D01*
X81412569Y-112589143D01*
X81451329Y-112617544D01*
X81489780Y-112647464D01*
X81527922Y-112678904D01*
X81565755Y-112711864D01*
X81603279Y-112746344D01*
X81640493Y-112782343D01*
X81677399Y-112819863D01*
X81713995Y-112858902D01*
X81750282Y-112899461D01*
X81786261Y-112941540D01*
X81821930Y-112985139D01*
X81857289Y-113030257D01*
X81892340Y-113076896D01*
X81927125Y-113124865D01*
X81961411Y-113174251D01*
X81995200Y-113225054D01*
X82028490Y-113277274D01*
X82061283Y-113330911D01*
X82093577Y-113385964D01*
X82125374Y-113442434D01*
X82156672Y-113500321D01*
X82187472Y-113559625D01*
X82217775Y-113620346D01*
X82247579Y-113682483D01*
X82276885Y-113746037D01*
X82305694Y-113811008D01*
X82334004Y-113877396D01*
X82361816Y-113945201D01*
X82389130Y-114014422D01*
X82558390Y-114014422D01*
X82612967Y-114015796D01*
X82663491Y-114019918D01*
X82709962Y-114026787D01*
X82762352Y-114039237D01*
X82808408Y-114055981D01*
X82848132Y-114077019D01*
X82881524Y-114102349D01*
X82914767Y-114136842D01*
X82941132Y-114175199D01*
X82960620Y-114217419D01*
X82973229Y-114263504D01*
X82978961Y-114313453D01*
X82979343Y-114330961D01*
X82975943Y-114382236D01*
X82965742Y-114429725D01*
X82948740Y-114473426D01*
X82924938Y-114513341D01*
X82894335Y-114549470D01*
X82882623Y-114560671D01*
X82842089Y-114590179D01*
X82801169Y-114610106D01*
X82753754Y-114625792D01*
X82699846Y-114637240D01*
X82652044Y-114643345D01*
X82600086Y-114646736D01*
X82558390Y-114647500D01*
X81983565Y-114647500D01*
X81958689Y-114586122D01*
X81933522Y-114525088D01*
X81908062Y-114464398D01*
X81882311Y-114404050D01*
X81856268Y-114344047D01*
X81829932Y-114284387D01*
X81803305Y-114225070D01*
X81776386Y-114166097D01*
X81749175Y-114107467D01*
X81721672Y-114049181D01*
X81693877Y-113991238D01*
X81665790Y-113933639D01*
X81637411Y-113876383D01*
X81608740Y-113819470D01*
X81579777Y-113762902D01*
X81550522Y-113706676D01*
X81526694Y-113661974D01*
X81503021Y-113618817D01*
X81479502Y-113577206D01*
X81456138Y-113537141D01*
X81432928Y-113498621D01*
X81398403Y-113443740D01*
X81364226Y-113392336D01*
X81330397Y-113344409D01*
X81296915Y-113299960D01*
X81263781Y-113258989D01*
X81230995Y-113221495D01*
X81198557Y-113187479D01*
X81187822Y-113176913D01*
X81155084Y-113146375D01*
X81121168Y-113116996D01*
X81086073Y-113088776D01*
X81049800Y-113061715D01*
X81012348Y-113035813D01*
X80973718Y-113011071D01*
X80933909Y-112987487D01*
X80892921Y-112965063D01*
X80850755Y-112943798D01*
X80807411Y-112923693D01*
X80777860Y-112910933D01*
X80388781Y-113206589D01*
G37*
D13*
G36*
X74844224Y-110603030D02*
G01*
X74844224Y-110884398D01*
X74509123Y-110884398D01*
X74509123Y-110603030D01*
X74844224Y-110603030D01*
G37*
G36*
X74882815Y-111134502D02*
G01*
X74882815Y-112041132D01*
X75220847Y-112041132D01*
X75245332Y-112041742D01*
X75267986Y-112043574D01*
X75288807Y-112046627D01*
X75312258Y-112052161D01*
X75332847Y-112059603D01*
X75350574Y-112068953D01*
X75365439Y-112080211D01*
X75380213Y-112095541D01*
X75391931Y-112112588D01*
X75400592Y-112131353D01*
X75406197Y-112151835D01*
X75408744Y-112174034D01*
X75408914Y-112181816D01*
X75407385Y-112204605D01*
X75402800Y-112225711D01*
X75395158Y-112245134D01*
X75384459Y-112262874D01*
X75370703Y-112278931D01*
X75365439Y-112283909D01*
X75347258Y-112297024D01*
X75328959Y-112305880D01*
X75307797Y-112312852D01*
X75283774Y-112317940D01*
X75262494Y-112320653D01*
X75239383Y-112322160D01*
X75220847Y-112322500D01*
X74262926Y-112322500D01*
X74238433Y-112321897D01*
X74215757Y-112320088D01*
X74194897Y-112317073D01*
X74171377Y-112311608D01*
X74150695Y-112304260D01*
X74132851Y-112295026D01*
X74117846Y-112283909D01*
X74103237Y-112268413D01*
X74091651Y-112251234D01*
X74083087Y-112232372D01*
X74077546Y-112211827D01*
X74075027Y-112189599D01*
X74074859Y-112181816D01*
X74076371Y-112159044D01*
X74080904Y-112137989D01*
X74088461Y-112118652D01*
X74099039Y-112101032D01*
X74112641Y-112085130D01*
X74117846Y-112080211D01*
X74136193Y-112066930D01*
X74154604Y-112057962D01*
X74175854Y-112050901D01*
X74199942Y-112045749D01*
X74221256Y-112043002D01*
X74244386Y-112041475D01*
X74262926Y-112041132D01*
X74600958Y-112041132D01*
X74600958Y-111415870D01*
X74374301Y-111415870D01*
X74350144Y-111415267D01*
X74327742Y-111413458D01*
X74307096Y-111410443D01*
X74283757Y-111404979D01*
X74263161Y-111397630D01*
X74245308Y-111388397D01*
X74230198Y-111377280D01*
X74215257Y-111361784D01*
X74203407Y-111344605D01*
X74194649Y-111325743D01*
X74188982Y-111305198D01*
X74186406Y-111282970D01*
X74186234Y-111275186D01*
X74187745Y-111252414D01*
X74192279Y-111231360D01*
X74199835Y-111212023D01*
X74210414Y-111194403D01*
X74224015Y-111178500D01*
X74229221Y-111173581D01*
X74247568Y-111160300D01*
X74265979Y-111151332D01*
X74287229Y-111144272D01*
X74311316Y-111139120D01*
X74332630Y-111136372D01*
X74355761Y-111134846D01*
X74374301Y-111134502D01*
X74882815Y-111134502D01*
G37*
G36*
X76727825Y-111464230D02*
G01*
X76710499Y-111454644D01*
X76692959Y-111445668D01*
X76675206Y-111437302D01*
X76657239Y-111429548D01*
X76634480Y-111420713D01*
X76611386Y-111412832D01*
X76592671Y-111407215D01*
X76583233Y-111404635D01*
X76559558Y-111398865D01*
X76540377Y-111394953D01*
X76520983Y-111391668D01*
X76501375Y-111389008D01*
X76481553Y-111386974D01*
X76461517Y-111385565D01*
X76441268Y-111384783D01*
X76425941Y-111384607D01*
X76405749Y-111384794D01*
X76386084Y-111385355D01*
X76357573Y-111386898D01*
X76330247Y-111389282D01*
X76304107Y-111392508D01*
X76279151Y-111396575D01*
X76255380Y-111401484D01*
X76232795Y-111407234D01*
X76211394Y-111413825D01*
X76191178Y-111421259D01*
X76172147Y-111429533D01*
X76166067Y-111432479D01*
X76147474Y-111443225D01*
X76131703Y-111457346D01*
X76123734Y-111475297D01*
X76123568Y-111478396D01*
X76130379Y-111497759D01*
X76146084Y-111513430D01*
X76164604Y-111525511D01*
X76181210Y-111534084D01*
X76201509Y-111541377D01*
X76224249Y-111547402D01*
X76246254Y-111552187D01*
X76271647Y-111556942D01*
X76292916Y-111560489D01*
X76316092Y-111564018D01*
X76341173Y-111567530D01*
X76368161Y-111571024D01*
X76377581Y-111572185D01*
X76411964Y-111576465D01*
X76445015Y-111580757D01*
X76476734Y-111585060D01*
X76507121Y-111589374D01*
X76536177Y-111593700D01*
X76563900Y-111598037D01*
X76590292Y-111602386D01*
X76615351Y-111606746D01*
X76639079Y-111611117D01*
X76661475Y-111615500D01*
X76682539Y-111619895D01*
X76702271Y-111624301D01*
X76729372Y-111630931D01*
X76753476Y-111637587D01*
X76767881Y-111642039D01*
X76794321Y-111651418D01*
X76819601Y-111661605D01*
X76843723Y-111672599D01*
X76866685Y-111684400D01*
X76888488Y-111697008D01*
X76909132Y-111710423D01*
X76928616Y-111724645D01*
X76946942Y-111739675D01*
X76964108Y-111755512D01*
X76980115Y-111772155D01*
X76990142Y-111783700D01*
X77004197Y-111801284D01*
X77016869Y-111819048D01*
X77028159Y-111836993D01*
X77038067Y-111855118D01*
X77046592Y-111873423D01*
X77053735Y-111891909D01*
X77061108Y-111916837D01*
X77066023Y-111942086D01*
X77068481Y-111967655D01*
X77068788Y-111980560D01*
X77067616Y-112006621D01*
X77064100Y-112031868D01*
X77058239Y-112056298D01*
X77050035Y-112079913D01*
X77039486Y-112102712D01*
X77026593Y-112124695D01*
X77011356Y-112145863D01*
X76993775Y-112166215D01*
X76973850Y-112185751D01*
X76951580Y-112204471D01*
X76935432Y-112216498D01*
X76911110Y-112233120D01*
X76885896Y-112248669D01*
X76859789Y-112263147D01*
X76832789Y-112276551D01*
X76804895Y-112288884D01*
X76776109Y-112300144D01*
X76746430Y-112310331D01*
X76715857Y-112319446D01*
X76684392Y-112327489D01*
X76652034Y-112334460D01*
X76618782Y-112340358D01*
X76584638Y-112345184D01*
X76549600Y-112348937D01*
X76513670Y-112351618D01*
X76476847Y-112353226D01*
X76439130Y-112353763D01*
X76416391Y-112353621D01*
X76393970Y-112353196D01*
X76371866Y-112352487D01*
X76350081Y-112351496D01*
X76328613Y-112350221D01*
X76307462Y-112348662D01*
X76286630Y-112346820D01*
X76266115Y-112344695D01*
X76245917Y-112342287D01*
X76226038Y-112339595D01*
X76212961Y-112337643D01*
X76187339Y-112333498D01*
X76162250Y-112328880D01*
X76137696Y-112323789D01*
X76113677Y-112318225D01*
X76090191Y-112312188D01*
X76067240Y-112305677D01*
X76044823Y-112298693D01*
X76022940Y-112291236D01*
X76005787Y-112302411D01*
X75987666Y-112311329D01*
X75978977Y-112314684D01*
X75959764Y-112319744D01*
X75940230Y-112322225D01*
X75931105Y-112322500D01*
X75911153Y-112321522D01*
X75888942Y-112317766D01*
X75868620Y-112311195D01*
X75850188Y-112301807D01*
X75833644Y-112289602D01*
X75826081Y-112282444D01*
X75812800Y-112265350D01*
X75802267Y-112244479D01*
X75795588Y-112224200D01*
X75790818Y-112201298D01*
X75788376Y-112181087D01*
X75787154Y-112159196D01*
X75787002Y-112147622D01*
X75787002Y-112059694D01*
X75787612Y-112036972D01*
X75789444Y-112015944D01*
X75792497Y-111996611D01*
X75798031Y-111974827D01*
X75805473Y-111955691D01*
X75816921Y-111936222D01*
X75826081Y-111925361D01*
X75841577Y-111911582D01*
X75858756Y-111900654D01*
X75877618Y-111892577D01*
X75898163Y-111887350D01*
X75920391Y-111884975D01*
X75928174Y-111884816D01*
X75949605Y-111885892D01*
X75969447Y-111889117D01*
X75990177Y-111895437D01*
X76008831Y-111904566D01*
X76013171Y-111907287D01*
X76029535Y-111920323D01*
X76043945Y-111937451D01*
X76054951Y-111955793D01*
X76063195Y-111974008D01*
X76066904Y-111983979D01*
X76083436Y-111994520D01*
X76100793Y-112004404D01*
X76118974Y-112013632D01*
X76137979Y-112022203D01*
X76157808Y-112030118D01*
X76178462Y-112037377D01*
X76199940Y-112043979D01*
X76222242Y-112049924D01*
X76245384Y-112055191D01*
X76269381Y-112059755D01*
X76294233Y-112063617D01*
X76319940Y-112066777D01*
X76339781Y-112068686D01*
X76360102Y-112070200D01*
X76380905Y-112071320D01*
X76402188Y-112072044D01*
X76423953Y-112072373D01*
X76431314Y-112072395D01*
X76455159Y-112072183D01*
X76478331Y-112071548D01*
X76500832Y-112070489D01*
X76522661Y-112069006D01*
X76543819Y-112067100D01*
X76564305Y-112064770D01*
X76584119Y-112062016D01*
X76612581Y-112057092D01*
X76639531Y-112051214D01*
X76664971Y-112044384D01*
X76688899Y-112036600D01*
X76711316Y-112027863D01*
X76732222Y-112018173D01*
X76749486Y-112007995D01*
X76765114Y-111995860D01*
X76778063Y-111979846D01*
X76783024Y-111961509D01*
X76779541Y-111940765D01*
X76769093Y-111921705D01*
X76754593Y-111906707D01*
X76738600Y-111895153D01*
X76719053Y-111884458D01*
X76710240Y-111880420D01*
X76689616Y-111872520D01*
X76664139Y-111864941D01*
X76641845Y-111859467D01*
X76616821Y-111854173D01*
X76589066Y-111849060D01*
X76569045Y-111845751D01*
X76547811Y-111842523D01*
X76525364Y-111839374D01*
X76501703Y-111836306D01*
X76476828Y-111833318D01*
X76450740Y-111830410D01*
X76423438Y-111827582D01*
X76409332Y-111826198D01*
X76388334Y-111824121D01*
X76367775Y-111821922D01*
X76347656Y-111819599D01*
X76327977Y-111817153D01*
X76289938Y-111811893D01*
X76253658Y-111806140D01*
X76219138Y-111799894D01*
X76186377Y-111793157D01*
X76155375Y-111785927D01*
X76126133Y-111778204D01*
X76098650Y-111769990D01*
X76072926Y-111761283D01*
X76048962Y-111752084D01*
X76026757Y-111742392D01*
X76006311Y-111732208D01*
X75987624Y-111721532D01*
X75970697Y-111710364D01*
X75955529Y-111698703D01*
X75935189Y-111680731D01*
X75916849Y-111661987D01*
X75900510Y-111642469D01*
X75886172Y-111622179D01*
X75873834Y-111601116D01*
X75863497Y-111579280D01*
X75855161Y-111556671D01*
X75848826Y-111533290D01*
X75844491Y-111509136D01*
X75842157Y-111484208D01*
X75841712Y-111467161D01*
X75842837Y-111441103D01*
X75846212Y-111415870D01*
X75851836Y-111391461D01*
X75859710Y-111367876D01*
X75869833Y-111345116D01*
X75882207Y-111323180D01*
X75896830Y-111302068D01*
X75913703Y-111281781D01*
X75932825Y-111262318D01*
X75954197Y-111243679D01*
X75969695Y-111231711D01*
X75991731Y-111216154D01*
X76014606Y-111201600D01*
X76038320Y-111188051D01*
X76062874Y-111175505D01*
X76088268Y-111163962D01*
X76114501Y-111153423D01*
X76141574Y-111143888D01*
X76169486Y-111135357D01*
X76198238Y-111127830D01*
X76227830Y-111121306D01*
X76258261Y-111115785D01*
X76289531Y-111111269D01*
X76321642Y-111107756D01*
X76354592Y-111105247D01*
X76388381Y-111103741D01*
X76423010Y-111103239D01*
X76447198Y-111103514D01*
X76471156Y-111104338D01*
X76494886Y-111105712D01*
X76518387Y-111107636D01*
X76541659Y-111110109D01*
X76564701Y-111113131D01*
X76587515Y-111116703D01*
X76610100Y-111120825D01*
X76632570Y-111125397D01*
X76654797Y-111130564D01*
X76676778Y-111136326D01*
X76698516Y-111142684D01*
X76720009Y-111149638D01*
X76741259Y-111157186D01*
X76762263Y-111165330D01*
X76783024Y-111174070D01*
X76800419Y-111161791D01*
X76818474Y-111151029D01*
X76831384Y-111144760D01*
X76850725Y-111137748D01*
X76870997Y-111134542D01*
X76873394Y-111134502D01*
X76894340Y-111135996D01*
X76913946Y-111140479D01*
X76932213Y-111147949D01*
X76949140Y-111158408D01*
X76964727Y-111171854D01*
X76969626Y-111177001D01*
X76982740Y-111194964D01*
X76991596Y-111213029D01*
X76998568Y-111233909D01*
X77003656Y-111257604D01*
X77006369Y-111278586D01*
X77007877Y-111301369D01*
X77008216Y-111319638D01*
X77008216Y-111387049D01*
X77007872Y-111408741D01*
X77006842Y-111428632D01*
X77004588Y-111450962D01*
X77001261Y-111470477D01*
X76995851Y-111490181D01*
X76987586Y-111508046D01*
X76986234Y-111510148D01*
X76971720Y-111528020D01*
X76955656Y-111542863D01*
X76938041Y-111554677D01*
X76918876Y-111563461D01*
X76898161Y-111569217D01*
X76875895Y-111571943D01*
X76866555Y-111572185D01*
X76844913Y-111570783D01*
X76824440Y-111566576D01*
X76805136Y-111559563D01*
X76787001Y-111549746D01*
X76777162Y-111542876D01*
X76761778Y-111528928D01*
X76748966Y-111513157D01*
X76738724Y-111495562D01*
X76731054Y-111476145D01*
X76727825Y-111464230D01*
G37*
G36*
X78130273Y-111103590D02*
G01*
X78154104Y-111104644D01*
X78177824Y-111106399D01*
X78201434Y-111108857D01*
X78224933Y-111112017D01*
X78248321Y-111115879D01*
X78271598Y-111120443D01*
X78294765Y-111125710D01*
X78317821Y-111131678D01*
X78340767Y-111138349D01*
X78363602Y-111145722D01*
X78386326Y-111153797D01*
X78408939Y-111162575D01*
X78431442Y-111172055D01*
X78453834Y-111182237D01*
X78476115Y-111193121D01*
X78498059Y-111204598D01*
X78519316Y-111216560D01*
X78539886Y-111229007D01*
X78559769Y-111241939D01*
X78578965Y-111255355D01*
X78597474Y-111269256D01*
X78615296Y-111283641D01*
X78632431Y-111298511D01*
X78648879Y-111313866D01*
X78664640Y-111329706D01*
X78679715Y-111346030D01*
X78694102Y-111362839D01*
X78707803Y-111380132D01*
X78720816Y-111397911D01*
X78733143Y-111416173D01*
X78744783Y-111434921D01*
X78755785Y-111453884D01*
X78766078Y-111472916D01*
X78775660Y-111492017D01*
X78784533Y-111511186D01*
X78792696Y-111530424D01*
X78800149Y-111549730D01*
X78806893Y-111569106D01*
X78812926Y-111588550D01*
X78818250Y-111608062D01*
X78822864Y-111627644D01*
X78826768Y-111647294D01*
X78829962Y-111667013D01*
X78832447Y-111686800D01*
X78834221Y-111706656D01*
X78835286Y-111726581D01*
X78835641Y-111746575D01*
X78834851Y-111775070D01*
X78832481Y-111803401D01*
X78828531Y-111831570D01*
X78823001Y-111859575D01*
X78815892Y-111887418D01*
X78807202Y-111915097D01*
X78796932Y-111942613D01*
X78789208Y-111960866D01*
X78780782Y-111979047D01*
X78771653Y-111997155D01*
X78761822Y-112015191D01*
X78751289Y-112033154D01*
X78745760Y-112042109D01*
X78734179Y-112059711D01*
X78721908Y-112076860D01*
X78708946Y-112093554D01*
X78695293Y-112109795D01*
X78680949Y-112125581D01*
X78665915Y-112140913D01*
X78650190Y-112155790D01*
X78633774Y-112170214D01*
X78616668Y-112184184D01*
X78598870Y-112197699D01*
X78580382Y-112210760D01*
X78561204Y-112223367D01*
X78541334Y-112235520D01*
X78520774Y-112247219D01*
X78499523Y-112258464D01*
X78477581Y-112269255D01*
X78455294Y-112279488D01*
X78432884Y-112289061D01*
X78410353Y-112297974D01*
X78387700Y-112306227D01*
X78364924Y-112313819D01*
X78342026Y-112320752D01*
X78319006Y-112327024D01*
X78295864Y-112332636D01*
X78272600Y-112337587D01*
X78249214Y-112341879D01*
X78225705Y-112345510D01*
X78202075Y-112348481D01*
X78178322Y-112350792D01*
X78154448Y-112352442D01*
X78130451Y-112353432D01*
X78106332Y-112353763D01*
X78082339Y-112353438D01*
X78058475Y-112352465D01*
X78034742Y-112350843D01*
X78011138Y-112348572D01*
X77987664Y-112345653D01*
X77964320Y-112342085D01*
X77941105Y-112337868D01*
X77918021Y-112333002D01*
X77895066Y-112327487D01*
X77872240Y-112321324D01*
X77849545Y-112314512D01*
X77826979Y-112307051D01*
X77804543Y-112298942D01*
X77782237Y-112290183D01*
X77760060Y-112280776D01*
X77738014Y-112270720D01*
X77716358Y-112260046D01*
X77695355Y-112248906D01*
X77675005Y-112237301D01*
X77655307Y-112225230D01*
X77636262Y-112212693D01*
X77617869Y-112199691D01*
X77600129Y-112186223D01*
X77583041Y-112172290D01*
X77566607Y-112157891D01*
X77550824Y-112143027D01*
X77535695Y-112127697D01*
X77521218Y-112111901D01*
X77507393Y-112095640D01*
X77494221Y-112078913D01*
X77481702Y-112061721D01*
X77469835Y-112044063D01*
X77458714Y-112026061D01*
X77448311Y-112007961D01*
X77438625Y-111989761D01*
X77429657Y-111971461D01*
X77421406Y-111953063D01*
X77413873Y-111934566D01*
X77407057Y-111915969D01*
X77400958Y-111897273D01*
X77395577Y-111878477D01*
X77388851Y-111850099D01*
X77383739Y-111821496D01*
X77380242Y-111792671D01*
X77378358Y-111763622D01*
X77378072Y-111748040D01*
X77659367Y-111748040D01*
X77660501Y-111770160D01*
X77663901Y-111792004D01*
X77669568Y-111813574D01*
X77677502Y-111834869D01*
X77687703Y-111855889D01*
X77700171Y-111876634D01*
X77714906Y-111897105D01*
X77731908Y-111917301D01*
X77751176Y-111937222D01*
X77772711Y-111956868D01*
X77788328Y-111969813D01*
X77804738Y-111982235D01*
X77821606Y-111993855D01*
X77838932Y-112004675D01*
X77856716Y-112014692D01*
X77874957Y-112023909D01*
X77893657Y-112032324D01*
X77912815Y-112039937D01*
X77932431Y-112046749D01*
X77952505Y-112052760D01*
X77973036Y-112057969D01*
X77994026Y-112062377D01*
X78015473Y-112065983D01*
X78037379Y-112068788D01*
X78059742Y-112070792D01*
X78082564Y-112071994D01*
X78105843Y-112072395D01*
X78129298Y-112071994D01*
X78152280Y-112070792D01*
X78174788Y-112068788D01*
X78196824Y-112065983D01*
X78218386Y-112062377D01*
X78239475Y-112057969D01*
X78260090Y-112052760D01*
X78280233Y-112046749D01*
X78299902Y-112039937D01*
X78319098Y-112032324D01*
X78337821Y-112023909D01*
X78356070Y-112014692D01*
X78373846Y-112004675D01*
X78391149Y-111993855D01*
X78407979Y-111982235D01*
X78424336Y-111969813D01*
X78440011Y-111956864D01*
X78454676Y-111943786D01*
X78474775Y-111923925D01*
X78492600Y-111903772D01*
X78508149Y-111883327D01*
X78521423Y-111862590D01*
X78532421Y-111841561D01*
X78541143Y-111820241D01*
X78547590Y-111798628D01*
X78551762Y-111776724D01*
X78553658Y-111754527D01*
X78553785Y-111747063D01*
X78552926Y-111724342D01*
X78550350Y-111701972D01*
X78546057Y-111679954D01*
X78540046Y-111658289D01*
X78532318Y-111636975D01*
X78522873Y-111616014D01*
X78511710Y-111595404D01*
X78498830Y-111575147D01*
X78484233Y-111555242D01*
X78467918Y-111535688D01*
X78456088Y-111522848D01*
X78439092Y-111506108D01*
X78421443Y-111490448D01*
X78403142Y-111475868D01*
X78384189Y-111462368D01*
X78364582Y-111449948D01*
X78344324Y-111438608D01*
X78323412Y-111428347D01*
X78301848Y-111419167D01*
X78279632Y-111411067D01*
X78256762Y-111404047D01*
X78233241Y-111398107D01*
X78209066Y-111393247D01*
X78184240Y-111389467D01*
X78158760Y-111386767D01*
X78132628Y-111385147D01*
X78105843Y-111384607D01*
X78082215Y-111385036D01*
X78059078Y-111386324D01*
X78036434Y-111388471D01*
X78014283Y-111391476D01*
X77992623Y-111395340D01*
X77971456Y-111400063D01*
X77950782Y-111405644D01*
X77930599Y-111412084D01*
X77910909Y-111419383D01*
X77891711Y-111427540D01*
X77873005Y-111436556D01*
X77854792Y-111446431D01*
X77837071Y-111457164D01*
X77819843Y-111468756D01*
X77803106Y-111481207D01*
X77786862Y-111494516D01*
X77771423Y-111508329D01*
X77756981Y-111522413D01*
X77743534Y-111536768D01*
X77725231Y-111558809D01*
X77709170Y-111581459D01*
X77695350Y-111604719D01*
X77683771Y-111628588D01*
X77674433Y-111653068D01*
X77667336Y-111678156D01*
X77662480Y-111703855D01*
X77659865Y-111730163D01*
X77659367Y-111748040D01*
X77378072Y-111748040D01*
X77378000Y-111744132D01*
X77378364Y-111724251D01*
X77379457Y-111704420D01*
X77381280Y-111684638D01*
X77383831Y-111664906D01*
X77387111Y-111645224D01*
X77391120Y-111625591D01*
X77395858Y-111606007D01*
X77401325Y-111586474D01*
X77407521Y-111566990D01*
X77414445Y-111547555D01*
X77422099Y-111528170D01*
X77430481Y-111508835D01*
X77439593Y-111489549D01*
X77449433Y-111470313D01*
X77460002Y-111451127D01*
X77471300Y-111431990D01*
X77483284Y-111413132D01*
X77495908Y-111394781D01*
X77509173Y-111376938D01*
X77523080Y-111359603D01*
X77537628Y-111342775D01*
X77552816Y-111326454D01*
X77568646Y-111310641D01*
X77585118Y-111295336D01*
X77602230Y-111280539D01*
X77619983Y-111266248D01*
X77638378Y-111252466D01*
X77657413Y-111239191D01*
X77677090Y-111226423D01*
X77697408Y-111214164D01*
X77718367Y-111202411D01*
X77739968Y-111191167D01*
X77761949Y-111180519D01*
X77784053Y-111170559D01*
X77806279Y-111161285D01*
X77828628Y-111152698D01*
X77851098Y-111144799D01*
X77873690Y-111137586D01*
X77896405Y-111131060D01*
X77919242Y-111125221D01*
X77942201Y-111120069D01*
X77965282Y-111115604D01*
X77988485Y-111111826D01*
X78011810Y-111108735D01*
X78035257Y-111106330D01*
X78058827Y-111104613D01*
X78082518Y-111103583D01*
X78106332Y-111103239D01*
X78130273Y-111103590D01*
G37*
D11*
X101797451Y-134307219D02*
X101749832Y-134359600D01*
X101749832Y-134359600D02*
X101606975Y-134411980D01*
X101606975Y-134411980D02*
X101511737Y-134411980D01*
X101511737Y-134411980D02*
X101368880Y-134359600D01*
X101368880Y-134359600D02*
X101273642Y-134254838D01*
X101273642Y-134254838D02*
X101226023Y-134150076D01*
X101226023Y-134150076D02*
X101178404Y-133940552D01*
X101178404Y-133940552D02*
X101178404Y-133783409D01*
X101178404Y-133783409D02*
X101226023Y-133573885D01*
X101226023Y-133573885D02*
X101273642Y-133469123D01*
X101273642Y-133469123D02*
X101368880Y-133364361D01*
X101368880Y-133364361D02*
X101511737Y-133311980D01*
X101511737Y-133311980D02*
X101606975Y-133311980D01*
X101606975Y-133311980D02*
X101749832Y-133364361D01*
X101749832Y-133364361D02*
X101797451Y-133416742D01*
X102702213Y-134411980D02*
X102226023Y-134411980D01*
X102226023Y-134411980D02*
X102226023Y-133311980D01*
X103559356Y-134411980D02*
X102987928Y-134411980D01*
X103273642Y-134411980D02*
X103273642Y-133311980D01*
X103273642Y-133311980D02*
X103178404Y-133469123D01*
X103178404Y-133469123D02*
X103083166Y-133573885D01*
X103083166Y-133573885D02*
X102987928Y-133626266D01*
X104178404Y-133311980D02*
X104273642Y-133311980D01*
X104273642Y-133311980D02*
X104368880Y-133364361D01*
X104368880Y-133364361D02*
X104416499Y-133416742D01*
X104416499Y-133416742D02*
X104464118Y-133521504D01*
X104464118Y-133521504D02*
X104511737Y-133731028D01*
X104511737Y-133731028D02*
X104511737Y-133992933D01*
X104511737Y-133992933D02*
X104464118Y-134202457D01*
X104464118Y-134202457D02*
X104416499Y-134307219D01*
X104416499Y-134307219D02*
X104368880Y-134359600D01*
X104368880Y-134359600D02*
X104273642Y-134411980D01*
X104273642Y-134411980D02*
X104178404Y-134411980D01*
X104178404Y-134411980D02*
X104083166Y-134359600D01*
X104083166Y-134359600D02*
X104035547Y-134307219D01*
X104035547Y-134307219D02*
X103987928Y-134202457D01*
X103987928Y-134202457D02*
X103940309Y-133992933D01*
X103940309Y-133992933D02*
X103940309Y-133731028D01*
X103940309Y-133731028D02*
X103987928Y-133521504D01*
X103987928Y-133521504D02*
X104035547Y-133416742D01*
X104035547Y-133416742D02*
X104083166Y-133364361D01*
X104083166Y-133364361D02*
X104178404Y-133311980D01*
X101797451Y-128307219D02*
X101749832Y-128359600D01*
X101749832Y-128359600D02*
X101606975Y-128411980D01*
X101606975Y-128411980D02*
X101511737Y-128411980D01*
X101511737Y-128411980D02*
X101368880Y-128359600D01*
X101368880Y-128359600D02*
X101273642Y-128254838D01*
X101273642Y-128254838D02*
X101226023Y-128150076D01*
X101226023Y-128150076D02*
X101178404Y-127940552D01*
X101178404Y-127940552D02*
X101178404Y-127783409D01*
X101178404Y-127783409D02*
X101226023Y-127573885D01*
X101226023Y-127573885D02*
X101273642Y-127469123D01*
X101273642Y-127469123D02*
X101368880Y-127364361D01*
X101368880Y-127364361D02*
X101511737Y-127311980D01*
X101511737Y-127311980D02*
X101606975Y-127311980D01*
X101606975Y-127311980D02*
X101749832Y-127364361D01*
X101749832Y-127364361D02*
X101797451Y-127416742D01*
X102702213Y-128411980D02*
X102226023Y-128411980D01*
X102226023Y-128411980D02*
X102226023Y-127311980D01*
X102940309Y-127311980D02*
X103606975Y-127311980D01*
X103606975Y-127311980D02*
X103178404Y-128411980D01*
X103047451Y-145661980D02*
X102714118Y-145138171D01*
X102476023Y-145661980D02*
X102476023Y-144561980D01*
X102476023Y-144561980D02*
X102856975Y-144561980D01*
X102856975Y-144561980D02*
X102952213Y-144614361D01*
X102952213Y-144614361D02*
X102999832Y-144666742D01*
X102999832Y-144666742D02*
X103047451Y-144771504D01*
X103047451Y-144771504D02*
X103047451Y-144928647D01*
X103047451Y-144928647D02*
X102999832Y-145033409D01*
X102999832Y-145033409D02*
X102952213Y-145085790D01*
X102952213Y-145085790D02*
X102856975Y-145138171D01*
X102856975Y-145138171D02*
X102476023Y-145138171D01*
X103380785Y-144561980D02*
X103999832Y-144561980D01*
X103999832Y-144561980D02*
X103666499Y-144981028D01*
X103666499Y-144981028D02*
X103809356Y-144981028D01*
X103809356Y-144981028D02*
X103904594Y-145033409D01*
X103904594Y-145033409D02*
X103952213Y-145085790D01*
X103952213Y-145085790D02*
X103999832Y-145190552D01*
X103999832Y-145190552D02*
X103999832Y-145452457D01*
X103999832Y-145452457D02*
X103952213Y-145557219D01*
X103952213Y-145557219D02*
X103904594Y-145609600D01*
X103904594Y-145609600D02*
X103809356Y-145661980D01*
X103809356Y-145661980D02*
X103523642Y-145661980D01*
X103523642Y-145661980D02*
X103428404Y-145609600D01*
X103428404Y-145609600D02*
X103380785Y-145557219D01*
X101999832Y-88037200D02*
X101904594Y-87984819D01*
X101904594Y-87984819D02*
X101761737Y-87984819D01*
X101761737Y-87984819D02*
X101618880Y-88037200D01*
X101618880Y-88037200D02*
X101523642Y-88141962D01*
X101523642Y-88141962D02*
X101476023Y-88246724D01*
X101476023Y-88246724D02*
X101428404Y-88456248D01*
X101428404Y-88456248D02*
X101428404Y-88613391D01*
X101428404Y-88613391D02*
X101476023Y-88822915D01*
X101476023Y-88822915D02*
X101523642Y-88927677D01*
X101523642Y-88927677D02*
X101618880Y-89032439D01*
X101618880Y-89032439D02*
X101761737Y-89084819D01*
X101761737Y-89084819D02*
X101856975Y-89084819D01*
X101856975Y-89084819D02*
X101999832Y-89032439D01*
X101999832Y-89032439D02*
X102047451Y-88980058D01*
X102047451Y-88980058D02*
X102047451Y-88613391D01*
X102047451Y-88613391D02*
X101856975Y-88613391D01*
X102476023Y-89084819D02*
X102476023Y-87984819D01*
X102476023Y-87984819D02*
X103047451Y-89084819D01*
X103047451Y-89084819D02*
X103047451Y-87984819D01*
X103523642Y-89084819D02*
X103523642Y-87984819D01*
X103523642Y-87984819D02*
X103761737Y-87984819D01*
X103761737Y-87984819D02*
X103904594Y-88037200D01*
X103904594Y-88037200D02*
X103999832Y-88141962D01*
X103999832Y-88141962D02*
X104047451Y-88246724D01*
X104047451Y-88246724D02*
X104095070Y-88456248D01*
X104095070Y-88456248D02*
X104095070Y-88613391D01*
X104095070Y-88613391D02*
X104047451Y-88822915D01*
X104047451Y-88822915D02*
X103999832Y-88927677D01*
X103999832Y-88927677D02*
X103904594Y-89032439D01*
X103904594Y-89032439D02*
X103761737Y-89084819D01*
X103761737Y-89084819D02*
X103523642Y-89084819D01*
X103047451Y-142661980D02*
X102714118Y-142138171D01*
X102476023Y-142661980D02*
X102476023Y-141561980D01*
X102476023Y-141561980D02*
X102856975Y-141561980D01*
X102856975Y-141561980D02*
X102952213Y-141614361D01*
X102952213Y-141614361D02*
X102999832Y-141666742D01*
X102999832Y-141666742D02*
X103047451Y-141771504D01*
X103047451Y-141771504D02*
X103047451Y-141928647D01*
X103047451Y-141928647D02*
X102999832Y-142033409D01*
X102999832Y-142033409D02*
X102952213Y-142085790D01*
X102952213Y-142085790D02*
X102856975Y-142138171D01*
X102856975Y-142138171D02*
X102476023Y-142138171D01*
X103999832Y-142661980D02*
X103428404Y-142661980D01*
X103714118Y-142661980D02*
X103714118Y-141561980D01*
X103714118Y-141561980D02*
X103618880Y-141719123D01*
X103618880Y-141719123D02*
X103523642Y-141823885D01*
X103523642Y-141823885D02*
X103428404Y-141876266D01*
X101476023Y-50742933D02*
X102237928Y-50742933D01*
X101856975Y-51161980D02*
X101856975Y-50323885D01*
X103190308Y-50061980D02*
X102714118Y-50061980D01*
X102714118Y-50061980D02*
X102666499Y-50585790D01*
X102666499Y-50585790D02*
X102714118Y-50533409D01*
X102714118Y-50533409D02*
X102809356Y-50481028D01*
X102809356Y-50481028D02*
X103047451Y-50481028D01*
X103047451Y-50481028D02*
X103142689Y-50533409D01*
X103142689Y-50533409D02*
X103190308Y-50585790D01*
X103190308Y-50585790D02*
X103237927Y-50690552D01*
X103237927Y-50690552D02*
X103237927Y-50952457D01*
X103237927Y-50952457D02*
X103190308Y-51057219D01*
X103190308Y-51057219D02*
X103142689Y-51109600D01*
X103142689Y-51109600D02*
X103047451Y-51161980D01*
X103047451Y-51161980D02*
X102809356Y-51161980D01*
X102809356Y-51161980D02*
X102714118Y-51109600D01*
X102714118Y-51109600D02*
X102666499Y-51057219D01*
X103523642Y-50061980D02*
X103856975Y-51161980D01*
X103856975Y-51161980D02*
X104190308Y-50061980D01*
X101476023Y-87242933D02*
X102237928Y-87242933D01*
X101856975Y-87661980D02*
X101856975Y-86823885D01*
X103190308Y-86561980D02*
X102714118Y-86561980D01*
X102714118Y-86561980D02*
X102666499Y-87085790D01*
X102666499Y-87085790D02*
X102714118Y-87033409D01*
X102714118Y-87033409D02*
X102809356Y-86981028D01*
X102809356Y-86981028D02*
X103047451Y-86981028D01*
X103047451Y-86981028D02*
X103142689Y-87033409D01*
X103142689Y-87033409D02*
X103190308Y-87085790D01*
X103190308Y-87085790D02*
X103237927Y-87190552D01*
X103237927Y-87190552D02*
X103237927Y-87452457D01*
X103237927Y-87452457D02*
X103190308Y-87557219D01*
X103190308Y-87557219D02*
X103142689Y-87609600D01*
X103142689Y-87609600D02*
X103047451Y-87661980D01*
X103047451Y-87661980D02*
X102809356Y-87661980D01*
X102809356Y-87661980D02*
X102714118Y-87609600D01*
X102714118Y-87609600D02*
X102666499Y-87557219D01*
X103523642Y-86561980D02*
X103856975Y-87661980D01*
X103856975Y-87661980D02*
X104190308Y-86561980D01*
X101797451Y-129807219D02*
X101749832Y-129859600D01*
X101749832Y-129859600D02*
X101606975Y-129911980D01*
X101606975Y-129911980D02*
X101511737Y-129911980D01*
X101511737Y-129911980D02*
X101368880Y-129859600D01*
X101368880Y-129859600D02*
X101273642Y-129754838D01*
X101273642Y-129754838D02*
X101226023Y-129650076D01*
X101226023Y-129650076D02*
X101178404Y-129440552D01*
X101178404Y-129440552D02*
X101178404Y-129283409D01*
X101178404Y-129283409D02*
X101226023Y-129073885D01*
X101226023Y-129073885D02*
X101273642Y-128969123D01*
X101273642Y-128969123D02*
X101368880Y-128864361D01*
X101368880Y-128864361D02*
X101511737Y-128811980D01*
X101511737Y-128811980D02*
X101606975Y-128811980D01*
X101606975Y-128811980D02*
X101749832Y-128864361D01*
X101749832Y-128864361D02*
X101797451Y-128916742D01*
X102702213Y-129911980D02*
X102226023Y-129911980D01*
X102226023Y-129911980D02*
X102226023Y-128811980D01*
X103464118Y-128811980D02*
X103273642Y-128811980D01*
X103273642Y-128811980D02*
X103178404Y-128864361D01*
X103178404Y-128864361D02*
X103130785Y-128916742D01*
X103130785Y-128916742D02*
X103035547Y-129073885D01*
X103035547Y-129073885D02*
X102987928Y-129283409D01*
X102987928Y-129283409D02*
X102987928Y-129702457D01*
X102987928Y-129702457D02*
X103035547Y-129807219D01*
X103035547Y-129807219D02*
X103083166Y-129859600D01*
X103083166Y-129859600D02*
X103178404Y-129911980D01*
X103178404Y-129911980D02*
X103368880Y-129911980D01*
X103368880Y-129911980D02*
X103464118Y-129859600D01*
X103464118Y-129859600D02*
X103511737Y-129807219D01*
X103511737Y-129807219D02*
X103559356Y-129702457D01*
X103559356Y-129702457D02*
X103559356Y-129440552D01*
X103559356Y-129440552D02*
X103511737Y-129335790D01*
X103511737Y-129335790D02*
X103464118Y-129283409D01*
X103464118Y-129283409D02*
X103368880Y-129231028D01*
X103368880Y-129231028D02*
X103178404Y-129231028D01*
X103178404Y-129231028D02*
X103083166Y-129283409D01*
X103083166Y-129283409D02*
X103035547Y-129335790D01*
X103035547Y-129335790D02*
X102987928Y-129440552D01*
X101476023Y-68492933D02*
X102237928Y-68492933D01*
X101856975Y-68911980D02*
X101856975Y-68073885D01*
X103190308Y-67811980D02*
X102714118Y-67811980D01*
X102714118Y-67811980D02*
X102666499Y-68335790D01*
X102666499Y-68335790D02*
X102714118Y-68283409D01*
X102714118Y-68283409D02*
X102809356Y-68231028D01*
X102809356Y-68231028D02*
X103047451Y-68231028D01*
X103047451Y-68231028D02*
X103142689Y-68283409D01*
X103142689Y-68283409D02*
X103190308Y-68335790D01*
X103190308Y-68335790D02*
X103237927Y-68440552D01*
X103237927Y-68440552D02*
X103237927Y-68702457D01*
X103237927Y-68702457D02*
X103190308Y-68807219D01*
X103190308Y-68807219D02*
X103142689Y-68859600D01*
X103142689Y-68859600D02*
X103047451Y-68911980D01*
X103047451Y-68911980D02*
X102809356Y-68911980D01*
X102809356Y-68911980D02*
X102714118Y-68859600D01*
X102714118Y-68859600D02*
X102666499Y-68807219D01*
X103523642Y-67811980D02*
X103856975Y-68911980D01*
X103856975Y-68911980D02*
X104190308Y-67811980D01*
X102249832Y-48614361D02*
X102154594Y-48561980D01*
X102154594Y-48561980D02*
X102011737Y-48561980D01*
X102011737Y-48561980D02*
X101868880Y-48614361D01*
X101868880Y-48614361D02*
X101773642Y-48719123D01*
X101773642Y-48719123D02*
X101726023Y-48823885D01*
X101726023Y-48823885D02*
X101678404Y-49033409D01*
X101678404Y-49033409D02*
X101678404Y-49190552D01*
X101678404Y-49190552D02*
X101726023Y-49400076D01*
X101726023Y-49400076D02*
X101773642Y-49504838D01*
X101773642Y-49504838D02*
X101868880Y-49609600D01*
X101868880Y-49609600D02*
X102011737Y-49661980D01*
X102011737Y-49661980D02*
X102106975Y-49661980D01*
X102106975Y-49661980D02*
X102249832Y-49609600D01*
X102249832Y-49609600D02*
X102297451Y-49557219D01*
X102297451Y-49557219D02*
X102297451Y-49190552D01*
X102297451Y-49190552D02*
X102106975Y-49190552D01*
X102726023Y-49661980D02*
X102726023Y-48561980D01*
X102726023Y-48561980D02*
X103297451Y-49661980D01*
X103297451Y-49661980D02*
X103297451Y-48561980D01*
X103773642Y-49661980D02*
X103773642Y-48561980D01*
X103773642Y-48561980D02*
X104011737Y-48561980D01*
X104011737Y-48561980D02*
X104154594Y-48614361D01*
X104154594Y-48614361D02*
X104249832Y-48719123D01*
X104249832Y-48719123D02*
X104297451Y-48823885D01*
X104297451Y-48823885D02*
X104345070Y-49033409D01*
X104345070Y-49033409D02*
X104345070Y-49190552D01*
X104345070Y-49190552D02*
X104297451Y-49400076D01*
X104297451Y-49400076D02*
X104249832Y-49504838D01*
X104249832Y-49504838D02*
X104154594Y-49609600D01*
X104154594Y-49609600D02*
X104011737Y-49661980D01*
X104011737Y-49661980D02*
X103773642Y-49661980D01*
X101797451Y-131307219D02*
X101749832Y-131359600D01*
X101749832Y-131359600D02*
X101606975Y-131411980D01*
X101606975Y-131411980D02*
X101511737Y-131411980D01*
X101511737Y-131411980D02*
X101368880Y-131359600D01*
X101368880Y-131359600D02*
X101273642Y-131254838D01*
X101273642Y-131254838D02*
X101226023Y-131150076D01*
X101226023Y-131150076D02*
X101178404Y-130940552D01*
X101178404Y-130940552D02*
X101178404Y-130783409D01*
X101178404Y-130783409D02*
X101226023Y-130573885D01*
X101226023Y-130573885D02*
X101273642Y-130469123D01*
X101273642Y-130469123D02*
X101368880Y-130364361D01*
X101368880Y-130364361D02*
X101511737Y-130311980D01*
X101511737Y-130311980D02*
X101606975Y-130311980D01*
X101606975Y-130311980D02*
X101749832Y-130364361D01*
X101749832Y-130364361D02*
X101797451Y-130416742D01*
X102702213Y-131411980D02*
X102226023Y-131411980D01*
X102226023Y-131411980D02*
X102226023Y-130311980D01*
X103178404Y-130783409D02*
X103083166Y-130731028D01*
X103083166Y-130731028D02*
X103035547Y-130678647D01*
X103035547Y-130678647D02*
X102987928Y-130573885D01*
X102987928Y-130573885D02*
X102987928Y-130521504D01*
X102987928Y-130521504D02*
X103035547Y-130416742D01*
X103035547Y-130416742D02*
X103083166Y-130364361D01*
X103083166Y-130364361D02*
X103178404Y-130311980D01*
X103178404Y-130311980D02*
X103368880Y-130311980D01*
X103368880Y-130311980D02*
X103464118Y-130364361D01*
X103464118Y-130364361D02*
X103511737Y-130416742D01*
X103511737Y-130416742D02*
X103559356Y-130521504D01*
X103559356Y-130521504D02*
X103559356Y-130573885D01*
X103559356Y-130573885D02*
X103511737Y-130678647D01*
X103511737Y-130678647D02*
X103464118Y-130731028D01*
X103464118Y-130731028D02*
X103368880Y-130783409D01*
X103368880Y-130783409D02*
X103178404Y-130783409D01*
X103178404Y-130783409D02*
X103083166Y-130835790D01*
X103083166Y-130835790D02*
X103035547Y-130888171D01*
X103035547Y-130888171D02*
X102987928Y-130992933D01*
X102987928Y-130992933D02*
X102987928Y-131202457D01*
X102987928Y-131202457D02*
X103035547Y-131307219D01*
X103035547Y-131307219D02*
X103083166Y-131359600D01*
X103083166Y-131359600D02*
X103178404Y-131411980D01*
X103178404Y-131411980D02*
X103368880Y-131411980D01*
X103368880Y-131411980D02*
X103464118Y-131359600D01*
X103464118Y-131359600D02*
X103511737Y-131307219D01*
X103511737Y-131307219D02*
X103559356Y-131202457D01*
X103559356Y-131202457D02*
X103559356Y-130992933D01*
X103559356Y-130992933D02*
X103511737Y-130888171D01*
X103511737Y-130888171D02*
X103464118Y-130835790D01*
X103464118Y-130835790D02*
X103368880Y-130783409D01*
X101797451Y-132807219D02*
X101749832Y-132859600D01*
X101749832Y-132859600D02*
X101606975Y-132911980D01*
X101606975Y-132911980D02*
X101511737Y-132911980D01*
X101511737Y-132911980D02*
X101368880Y-132859600D01*
X101368880Y-132859600D02*
X101273642Y-132754838D01*
X101273642Y-132754838D02*
X101226023Y-132650076D01*
X101226023Y-132650076D02*
X101178404Y-132440552D01*
X101178404Y-132440552D02*
X101178404Y-132283409D01*
X101178404Y-132283409D02*
X101226023Y-132073885D01*
X101226023Y-132073885D02*
X101273642Y-131969123D01*
X101273642Y-131969123D02*
X101368880Y-131864361D01*
X101368880Y-131864361D02*
X101511737Y-131811980D01*
X101511737Y-131811980D02*
X101606975Y-131811980D01*
X101606975Y-131811980D02*
X101749832Y-131864361D01*
X101749832Y-131864361D02*
X101797451Y-131916742D01*
X102702213Y-132911980D02*
X102226023Y-132911980D01*
X102226023Y-132911980D02*
X102226023Y-131811980D01*
X103083166Y-132911980D02*
X103273642Y-132911980D01*
X103273642Y-132911980D02*
X103368880Y-132859600D01*
X103368880Y-132859600D02*
X103416499Y-132807219D01*
X103416499Y-132807219D02*
X103511737Y-132650076D01*
X103511737Y-132650076D02*
X103559356Y-132440552D01*
X103559356Y-132440552D02*
X103559356Y-132021504D01*
X103559356Y-132021504D02*
X103511737Y-131916742D01*
X103511737Y-131916742D02*
X103464118Y-131864361D01*
X103464118Y-131864361D02*
X103368880Y-131811980D01*
X103368880Y-131811980D02*
X103178404Y-131811980D01*
X103178404Y-131811980D02*
X103083166Y-131864361D01*
X103083166Y-131864361D02*
X103035547Y-131916742D01*
X103035547Y-131916742D02*
X102987928Y-132021504D01*
X102987928Y-132021504D02*
X102987928Y-132283409D01*
X102987928Y-132283409D02*
X103035547Y-132388171D01*
X103035547Y-132388171D02*
X103083166Y-132440552D01*
X103083166Y-132440552D02*
X103178404Y-132492933D01*
X103178404Y-132492933D02*
X103368880Y-132492933D01*
X103368880Y-132492933D02*
X103464118Y-132440552D01*
X103464118Y-132440552D02*
X103511737Y-132388171D01*
X103511737Y-132388171D02*
X103559356Y-132283409D01*
X103047451Y-144161980D02*
X102714118Y-143638171D01*
X102476023Y-144161980D02*
X102476023Y-143061980D01*
X102476023Y-143061980D02*
X102856975Y-143061980D01*
X102856975Y-143061980D02*
X102952213Y-143114361D01*
X102952213Y-143114361D02*
X102999832Y-143166742D01*
X102999832Y-143166742D02*
X103047451Y-143271504D01*
X103047451Y-143271504D02*
X103047451Y-143428647D01*
X103047451Y-143428647D02*
X102999832Y-143533409D01*
X102999832Y-143533409D02*
X102952213Y-143585790D01*
X102952213Y-143585790D02*
X102856975Y-143638171D01*
X102856975Y-143638171D02*
X102476023Y-143638171D01*
X103428404Y-143166742D02*
X103476023Y-143114361D01*
X103476023Y-143114361D02*
X103571261Y-143061980D01*
X103571261Y-143061980D02*
X103809356Y-143061980D01*
X103809356Y-143061980D02*
X103904594Y-143114361D01*
X103904594Y-143114361D02*
X103952213Y-143166742D01*
X103952213Y-143166742D02*
X103999832Y-143271504D01*
X103999832Y-143271504D02*
X103999832Y-143376266D01*
X103999832Y-143376266D02*
X103952213Y-143533409D01*
X103952213Y-143533409D02*
X103380785Y-144161980D01*
X103380785Y-144161980D02*
X103999832Y-144161980D01*
D14*
X90846226Y-70867500D02*
X90989083Y-70915119D01*
X90989083Y-70915119D02*
X91227178Y-70915119D01*
X91227178Y-70915119D02*
X91322416Y-70867500D01*
X91322416Y-70867500D02*
X91370035Y-70819880D01*
X91370035Y-70819880D02*
X91417654Y-70724642D01*
X91417654Y-70724642D02*
X91417654Y-70629404D01*
X91417654Y-70629404D02*
X91370035Y-70534166D01*
X91370035Y-70534166D02*
X91322416Y-70486547D01*
X91322416Y-70486547D02*
X91227178Y-70438928D01*
X91227178Y-70438928D02*
X91036702Y-70391309D01*
X91036702Y-70391309D02*
X90941464Y-70343690D01*
X90941464Y-70343690D02*
X90893845Y-70296071D01*
X90893845Y-70296071D02*
X90846226Y-70200833D01*
X90846226Y-70200833D02*
X90846226Y-70105595D01*
X90846226Y-70105595D02*
X90893845Y-70010357D01*
X90893845Y-70010357D02*
X90941464Y-69962738D01*
X90941464Y-69962738D02*
X91036702Y-69915119D01*
X91036702Y-69915119D02*
X91274797Y-69915119D01*
X91274797Y-69915119D02*
X91417654Y-69962738D01*
X91750988Y-69915119D02*
X91989083Y-70915119D01*
X91989083Y-70915119D02*
X92179559Y-70200833D01*
X92179559Y-70200833D02*
X92370035Y-70915119D01*
X92370035Y-70915119D02*
X92608131Y-69915119D01*
X93512892Y-70915119D02*
X92941464Y-70915119D01*
X93227178Y-70915119D02*
X93227178Y-69915119D01*
X93227178Y-69915119D02*
X93131940Y-70057976D01*
X93131940Y-70057976D02*
X93036702Y-70153214D01*
X93036702Y-70153214D02*
X92941464Y-70200833D01*
X94370035Y-70248452D02*
X94370035Y-70915119D01*
X94131940Y-69867500D02*
X93893845Y-70581785D01*
X93893845Y-70581785D02*
X94512892Y-70581785D01*
X96085617Y-51817200D02*
X96228474Y-51864819D01*
X96228474Y-51864819D02*
X96466569Y-51864819D01*
X96466569Y-51864819D02*
X96561807Y-51817200D01*
X96561807Y-51817200D02*
X96609426Y-51769580D01*
X96609426Y-51769580D02*
X96657045Y-51674342D01*
X96657045Y-51674342D02*
X96657045Y-51579104D01*
X96657045Y-51579104D02*
X96609426Y-51483866D01*
X96609426Y-51483866D02*
X96561807Y-51436247D01*
X96561807Y-51436247D02*
X96466569Y-51388628D01*
X96466569Y-51388628D02*
X96276093Y-51341009D01*
X96276093Y-51341009D02*
X96180855Y-51293390D01*
X96180855Y-51293390D02*
X96133236Y-51245771D01*
X96133236Y-51245771D02*
X96085617Y-51150533D01*
X96085617Y-51150533D02*
X96085617Y-51055295D01*
X96085617Y-51055295D02*
X96133236Y-50960057D01*
X96133236Y-50960057D02*
X96180855Y-50912438D01*
X96180855Y-50912438D02*
X96276093Y-50864819D01*
X96276093Y-50864819D02*
X96514188Y-50864819D01*
X96514188Y-50864819D02*
X96657045Y-50912438D01*
X96990379Y-50864819D02*
X97228474Y-51864819D01*
X97228474Y-51864819D02*
X97418950Y-51150533D01*
X97418950Y-51150533D02*
X97609426Y-51864819D01*
X97609426Y-51864819D02*
X97847522Y-50864819D01*
X98657045Y-51198152D02*
X98657045Y-51864819D01*
X98418950Y-50817200D02*
X98180855Y-51531485D01*
X98180855Y-51531485D02*
X98799902Y-51531485D01*
X93228176Y-130875600D02*
X93371033Y-130923219D01*
X93371033Y-130923219D02*
X93609128Y-130923219D01*
X93609128Y-130923219D02*
X93704366Y-130875600D01*
X93704366Y-130875600D02*
X93751985Y-130827980D01*
X93751985Y-130827980D02*
X93799604Y-130732742D01*
X93799604Y-130732742D02*
X93799604Y-130637504D01*
X93799604Y-130637504D02*
X93751985Y-130542266D01*
X93751985Y-130542266D02*
X93704366Y-130494647D01*
X93704366Y-130494647D02*
X93609128Y-130447028D01*
X93609128Y-130447028D02*
X93418652Y-130399409D01*
X93418652Y-130399409D02*
X93323414Y-130351790D01*
X93323414Y-130351790D02*
X93275795Y-130304171D01*
X93275795Y-130304171D02*
X93228176Y-130208933D01*
X93228176Y-130208933D02*
X93228176Y-130113695D01*
X93228176Y-130113695D02*
X93275795Y-130018457D01*
X93275795Y-130018457D02*
X93323414Y-129970838D01*
X93323414Y-129970838D02*
X93418652Y-129923219D01*
X93418652Y-129923219D02*
X93656747Y-129923219D01*
X93656747Y-129923219D02*
X93799604Y-129970838D01*
X94132938Y-129923219D02*
X94371033Y-130923219D01*
X94371033Y-130923219D02*
X94561509Y-130208933D01*
X94561509Y-130208933D02*
X94751985Y-130923219D01*
X94751985Y-130923219D02*
X94990081Y-129923219D01*
X95799604Y-130256552D02*
X95799604Y-130923219D01*
X95561509Y-129875600D02*
X95323414Y-130589885D01*
X95323414Y-130589885D02*
X95942461Y-130589885D01*
X96275795Y-130018457D02*
X96323414Y-129970838D01*
X96323414Y-129970838D02*
X96418652Y-129923219D01*
X96418652Y-129923219D02*
X96656747Y-129923219D01*
X96656747Y-129923219D02*
X96751985Y-129970838D01*
X96751985Y-129970838D02*
X96799604Y-130018457D01*
X96799604Y-130018457D02*
X96847223Y-130113695D01*
X96847223Y-130113695D02*
X96847223Y-130208933D01*
X96847223Y-130208933D02*
X96799604Y-130351790D01*
X96799604Y-130351790D02*
X96228176Y-130923219D01*
X96228176Y-130923219D02*
X96847223Y-130923219D01*
X93228176Y-108967500D02*
X93371033Y-109015119D01*
X93371033Y-109015119D02*
X93609128Y-109015119D01*
X93609128Y-109015119D02*
X93704366Y-108967500D01*
X93704366Y-108967500D02*
X93751985Y-108919880D01*
X93751985Y-108919880D02*
X93799604Y-108824642D01*
X93799604Y-108824642D02*
X93799604Y-108729404D01*
X93799604Y-108729404D02*
X93751985Y-108634166D01*
X93751985Y-108634166D02*
X93704366Y-108586547D01*
X93704366Y-108586547D02*
X93609128Y-108538928D01*
X93609128Y-108538928D02*
X93418652Y-108491309D01*
X93418652Y-108491309D02*
X93323414Y-108443690D01*
X93323414Y-108443690D02*
X93275795Y-108396071D01*
X93275795Y-108396071D02*
X93228176Y-108300833D01*
X93228176Y-108300833D02*
X93228176Y-108205595D01*
X93228176Y-108205595D02*
X93275795Y-108110357D01*
X93275795Y-108110357D02*
X93323414Y-108062738D01*
X93323414Y-108062738D02*
X93418652Y-108015119D01*
X93418652Y-108015119D02*
X93656747Y-108015119D01*
X93656747Y-108015119D02*
X93799604Y-108062738D01*
X94132938Y-108015119D02*
X94371033Y-109015119D01*
X94371033Y-109015119D02*
X94561509Y-108300833D01*
X94561509Y-108300833D02*
X94751985Y-109015119D01*
X94751985Y-109015119D02*
X94990081Y-108015119D01*
X95275795Y-108015119D02*
X95894842Y-108015119D01*
X95894842Y-108015119D02*
X95561509Y-108396071D01*
X95561509Y-108396071D02*
X95704366Y-108396071D01*
X95704366Y-108396071D02*
X95799604Y-108443690D01*
X95799604Y-108443690D02*
X95847223Y-108491309D01*
X95847223Y-108491309D02*
X95894842Y-108586547D01*
X95894842Y-108586547D02*
X95894842Y-108824642D01*
X95894842Y-108824642D02*
X95847223Y-108919880D01*
X95847223Y-108919880D02*
X95799604Y-108967500D01*
X95799604Y-108967500D02*
X95704366Y-109015119D01*
X95704366Y-109015119D02*
X95418652Y-109015119D01*
X95418652Y-109015119D02*
X95323414Y-108967500D01*
X95323414Y-108967500D02*
X95275795Y-108919880D01*
X96751985Y-108348452D02*
X96751985Y-109015119D01*
X96513890Y-107967500D02*
X96275795Y-108681785D01*
X96275795Y-108681785D02*
X96894842Y-108681785D01*
X87988726Y-89917500D02*
X88131583Y-89965119D01*
X88131583Y-89965119D02*
X88369678Y-89965119D01*
X88369678Y-89965119D02*
X88464916Y-89917500D01*
X88464916Y-89917500D02*
X88512535Y-89869880D01*
X88512535Y-89869880D02*
X88560154Y-89774642D01*
X88560154Y-89774642D02*
X88560154Y-89679404D01*
X88560154Y-89679404D02*
X88512535Y-89584166D01*
X88512535Y-89584166D02*
X88464916Y-89536547D01*
X88464916Y-89536547D02*
X88369678Y-89488928D01*
X88369678Y-89488928D02*
X88179202Y-89441309D01*
X88179202Y-89441309D02*
X88083964Y-89393690D01*
X88083964Y-89393690D02*
X88036345Y-89346071D01*
X88036345Y-89346071D02*
X87988726Y-89250833D01*
X87988726Y-89250833D02*
X87988726Y-89155595D01*
X87988726Y-89155595D02*
X88036345Y-89060357D01*
X88036345Y-89060357D02*
X88083964Y-89012738D01*
X88083964Y-89012738D02*
X88179202Y-88965119D01*
X88179202Y-88965119D02*
X88417297Y-88965119D01*
X88417297Y-88965119D02*
X88560154Y-89012738D01*
X88893488Y-88965119D02*
X89131583Y-89965119D01*
X89131583Y-89965119D02*
X89322059Y-89250833D01*
X89322059Y-89250833D02*
X89512535Y-89965119D01*
X89512535Y-89965119D02*
X89750631Y-88965119D01*
X90083964Y-89060357D02*
X90131583Y-89012738D01*
X90131583Y-89012738D02*
X90226821Y-88965119D01*
X90226821Y-88965119D02*
X90464916Y-88965119D01*
X90464916Y-88965119D02*
X90560154Y-89012738D01*
X90560154Y-89012738D02*
X90607773Y-89060357D01*
X90607773Y-89060357D02*
X90655392Y-89155595D01*
X90655392Y-89155595D02*
X90655392Y-89250833D01*
X90655392Y-89250833D02*
X90607773Y-89393690D01*
X90607773Y-89393690D02*
X90036345Y-89965119D01*
X90036345Y-89965119D02*
X90655392Y-89965119D01*
X91512535Y-89298452D02*
X91512535Y-89965119D01*
X91274440Y-88917500D02*
X91036345Y-89631785D01*
X91036345Y-89631785D02*
X91655392Y-89631785D01*
X72273017Y-48959200D02*
X72415874Y-49006819D01*
X72415874Y-49006819D02*
X72653969Y-49006819D01*
X72653969Y-49006819D02*
X72749207Y-48959200D01*
X72749207Y-48959200D02*
X72796826Y-48911580D01*
X72796826Y-48911580D02*
X72844445Y-48816342D01*
X72844445Y-48816342D02*
X72844445Y-48721104D01*
X72844445Y-48721104D02*
X72796826Y-48625866D01*
X72796826Y-48625866D02*
X72749207Y-48578247D01*
X72749207Y-48578247D02*
X72653969Y-48530628D01*
X72653969Y-48530628D02*
X72463493Y-48483009D01*
X72463493Y-48483009D02*
X72368255Y-48435390D01*
X72368255Y-48435390D02*
X72320636Y-48387771D01*
X72320636Y-48387771D02*
X72273017Y-48292533D01*
X72273017Y-48292533D02*
X72273017Y-48197295D01*
X72273017Y-48197295D02*
X72320636Y-48102057D01*
X72320636Y-48102057D02*
X72368255Y-48054438D01*
X72368255Y-48054438D02*
X72463493Y-48006819D01*
X72463493Y-48006819D02*
X72701588Y-48006819D01*
X72701588Y-48006819D02*
X72844445Y-48054438D01*
X73177779Y-48006819D02*
X73415874Y-49006819D01*
X73415874Y-49006819D02*
X73606350Y-48292533D01*
X73606350Y-48292533D02*
X73796826Y-49006819D01*
X73796826Y-49006819D02*
X74034922Y-48006819D01*
X74368255Y-48102057D02*
X74415874Y-48054438D01*
X74415874Y-48054438D02*
X74511112Y-48006819D01*
X74511112Y-48006819D02*
X74749207Y-48006819D01*
X74749207Y-48006819D02*
X74844445Y-48054438D01*
X74844445Y-48054438D02*
X74892064Y-48102057D01*
X74892064Y-48102057D02*
X74939683Y-48197295D01*
X74939683Y-48197295D02*
X74939683Y-48292533D01*
X74939683Y-48292533D02*
X74892064Y-48435390D01*
X74892064Y-48435390D02*
X74320636Y-49006819D01*
X74320636Y-49006819D02*
X74939683Y-49006819D01*
X67985876Y-120396800D02*
X68128733Y-120444419D01*
X68128733Y-120444419D02*
X68366828Y-120444419D01*
X68366828Y-120444419D02*
X68462066Y-120396800D01*
X68462066Y-120396800D02*
X68509685Y-120349180D01*
X68509685Y-120349180D02*
X68557304Y-120253942D01*
X68557304Y-120253942D02*
X68557304Y-120158704D01*
X68557304Y-120158704D02*
X68509685Y-120063466D01*
X68509685Y-120063466D02*
X68462066Y-120015847D01*
X68462066Y-120015847D02*
X68366828Y-119968228D01*
X68366828Y-119968228D02*
X68176352Y-119920609D01*
X68176352Y-119920609D02*
X68081114Y-119872990D01*
X68081114Y-119872990D02*
X68033495Y-119825371D01*
X68033495Y-119825371D02*
X67985876Y-119730133D01*
X67985876Y-119730133D02*
X67985876Y-119634895D01*
X67985876Y-119634895D02*
X68033495Y-119539657D01*
X68033495Y-119539657D02*
X68081114Y-119492038D01*
X68081114Y-119492038D02*
X68176352Y-119444419D01*
X68176352Y-119444419D02*
X68414447Y-119444419D01*
X68414447Y-119444419D02*
X68557304Y-119492038D01*
X68890638Y-119444419D02*
X69128733Y-120444419D01*
X69128733Y-120444419D02*
X69319209Y-119730133D01*
X69319209Y-119730133D02*
X69509685Y-120444419D01*
X69509685Y-120444419D02*
X69747781Y-119444419D01*
X70652542Y-120444419D02*
X70081114Y-120444419D01*
X70366828Y-120444419D02*
X70366828Y-119444419D01*
X70366828Y-119444419D02*
X70271590Y-119587276D01*
X70271590Y-119587276D02*
X70176352Y-119682514D01*
X70176352Y-119682514D02*
X70081114Y-119730133D01*
X71271590Y-119444419D02*
X71366828Y-119444419D01*
X71366828Y-119444419D02*
X71462066Y-119492038D01*
X71462066Y-119492038D02*
X71509685Y-119539657D01*
X71509685Y-119539657D02*
X71557304Y-119634895D01*
X71557304Y-119634895D02*
X71604923Y-119825371D01*
X71604923Y-119825371D02*
X71604923Y-120063466D01*
X71604923Y-120063466D02*
X71557304Y-120253942D01*
X71557304Y-120253942D02*
X71509685Y-120349180D01*
X71509685Y-120349180D02*
X71462066Y-120396800D01*
X71462066Y-120396800D02*
X71366828Y-120444419D01*
X71366828Y-120444419D02*
X71271590Y-120444419D01*
X71271590Y-120444419D02*
X71176352Y-120396800D01*
X71176352Y-120396800D02*
X71128733Y-120349180D01*
X71128733Y-120349180D02*
X71081114Y-120253942D01*
X71081114Y-120253942D02*
X71033495Y-120063466D01*
X71033495Y-120063466D02*
X71033495Y-119825371D01*
X71033495Y-119825371D02*
X71081114Y-119634895D01*
X71081114Y-119634895D02*
X71128733Y-119539657D01*
X71128733Y-119539657D02*
X71176352Y-119492038D01*
X71176352Y-119492038D02*
X71271590Y-119444419D01*
D15*
%TO.C,C14*%
X91560083Y-36797000D02*
X91852617Y-36797000D01*
X91560083Y-37817000D02*
X91852617Y-37817000D01*
D16*
%TO.C,D8*%
X70831350Y-37107000D02*
X72181350Y-37107000D01*
X70831350Y-37307000D02*
X70831350Y-37107000D01*
X70831350Y-37307000D02*
X72181350Y-37307000D01*
X72181350Y-37307000D02*
X72181350Y-37107000D01*
D15*
%TO.C,C18*%
X91002617Y-65925000D02*
X90710083Y-65925000D01*
X91002617Y-64905000D02*
X90710083Y-64905000D01*
%TO.C,C8*%
X63752617Y-133067000D02*
X63460083Y-133067000D01*
X63752617Y-132047000D02*
X63460083Y-132047000D01*
D17*
%TO.C,REF\u002A\u002A*%
X74399005Y-106662500D02*
X75399005Y-106412500D01*
X74899005Y-105162500D02*
X75649005Y-104912500D01*
X75399005Y-104162500D02*
X76899005Y-104162500D01*
X75399005Y-106412500D02*
X74899005Y-105162500D01*
X75399005Y-107412500D02*
X76149005Y-107162500D01*
X75649005Y-104912500D02*
X75399005Y-104162500D01*
X75649005Y-109162500D02*
X74399005Y-106662500D01*
X75649005Y-109162500D02*
X75399005Y-107412500D01*
X76149005Y-107162500D02*
X75899005Y-105662500D01*
X76649005Y-105412500D02*
X75899005Y-105662500D01*
X76899005Y-104162500D02*
X76649005Y-105412500D01*
X70617742Y-106662500D02*
X71899005Y-106662500D01*
X71899005Y-106662500D02*
X71899005Y-107943763D01*
X71899005Y-107943763D02*
X70617742Y-107943763D01*
X70617742Y-107943763D02*
X70617742Y-106662500D01*
X70617742Y-108662500D02*
X71899005Y-108662500D01*
X71899005Y-108662500D02*
X71899005Y-109943763D01*
X71899005Y-109943763D02*
X70617742Y-109943763D01*
X70617742Y-109943763D02*
X70617742Y-108662500D01*
X72617742Y-106662500D02*
X73899005Y-106662500D01*
X73899005Y-106662500D02*
X73899005Y-107943763D01*
X73899005Y-107943763D02*
X72617742Y-107943763D01*
X72617742Y-107943763D02*
X72617742Y-106662500D01*
X72617742Y-108662500D02*
X73899005Y-108662500D01*
X73899005Y-108662500D02*
X73899005Y-109943763D01*
X73899005Y-109943763D02*
X72617742Y-109943763D01*
X72617742Y-109943763D02*
X72617742Y-108662500D01*
X76758373Y-106662500D02*
X78039636Y-106662500D01*
X78039636Y-106662500D02*
X78039636Y-107943763D01*
X78039636Y-107943763D02*
X76758373Y-107943763D01*
X76758373Y-107943763D02*
X76758373Y-106662500D01*
X76758373Y-108662500D02*
X78039636Y-108662500D01*
X78039636Y-108662500D02*
X78039636Y-109943763D01*
X78039636Y-109943763D02*
X76758373Y-109943763D01*
X76758373Y-109943763D02*
X76758373Y-108662500D01*
X78758373Y-106662500D02*
X80039636Y-106662500D01*
X80039636Y-106662500D02*
X80039636Y-107943763D01*
X80039636Y-107943763D02*
X78758373Y-107943763D01*
X78758373Y-107943763D02*
X78758373Y-106662500D01*
X78758373Y-108662500D02*
X80039636Y-108662500D01*
X80039636Y-108662500D02*
X80039636Y-109943763D01*
X80039636Y-109943763D02*
X78758373Y-109943763D01*
X78758373Y-109943763D02*
X78758373Y-108662500D01*
D13*
X76709490Y-113412501D02*
G75*
G03*
X80758375Y-109363617I4048884J0D01*
G01*
D11*
%TO.C,D44*%
X101606350Y-142357000D02*
X99606350Y-142357000D01*
X100606350Y-142357000D02*
X99706350Y-143257000D01*
X101506350Y-143257000D02*
X100606350Y-142357000D01*
X100606350Y-143257000D02*
X100606350Y-143857000D01*
X99706350Y-143257000D02*
X101506350Y-143257000D01*
%TO.C,D14*%
X102155750Y-80065300D02*
X100155750Y-80065300D01*
X101155750Y-80065300D02*
X100255750Y-80965300D01*
X102055750Y-80965300D02*
X101155750Y-80065300D01*
X101155750Y-80965300D02*
X101155750Y-81565300D01*
X100255750Y-80965300D02*
X102055750Y-80965300D01*
D15*
%TO.C,C2*%
X86140117Y-106067000D02*
X85847583Y-106067000D01*
X86140117Y-105047000D02*
X85847583Y-105047000D01*
%TO.C,C12*%
X80060083Y-36597000D02*
X80352617Y-36597000D01*
X80060083Y-37617000D02*
X80352617Y-37617000D01*
D11*
%TO.C,D2*%
X83106350Y-58157000D02*
X81106350Y-58157000D01*
X82106350Y-58157000D02*
X81206350Y-59057000D01*
X83006350Y-59057000D02*
X82106350Y-58157000D01*
X82106350Y-59057000D02*
X82106350Y-59657000D01*
X81206350Y-59057000D02*
X83006350Y-59057000D01*
%TO.C,D10*%
X79295400Y-129594600D02*
X77295400Y-129594600D01*
X78295400Y-129594600D02*
X77395400Y-130494600D01*
X79195400Y-130494600D02*
X78295400Y-129594600D01*
X78295400Y-130494600D02*
X78295400Y-131094600D01*
X77395400Y-130494600D02*
X79195400Y-130494600D01*
D15*
%TO.C,R3*%
X103228850Y-139264776D02*
X103228850Y-139774224D01*
X102183850Y-139264776D02*
X102183850Y-139774224D01*
D16*
%TO.C,D36*%
X100818950Y-66381500D02*
X99468950Y-66381500D01*
X100818950Y-66181500D02*
X100818950Y-66381500D01*
X100818950Y-66181500D02*
X99468950Y-66181500D01*
X99468950Y-66181500D02*
X99468950Y-66381500D01*
%TO.C,D19*%
X58831350Y-37107000D02*
X60181350Y-37107000D01*
X58831350Y-37307000D02*
X58831350Y-37107000D01*
X58831350Y-37307000D02*
X60181350Y-37307000D01*
X60181350Y-37307000D02*
X60181350Y-37107000D01*
%TO.C,D47*%
X98437700Y-145439900D02*
X97087700Y-145439900D01*
X98437700Y-145239900D02*
X98437700Y-145439900D01*
X98437700Y-145239900D02*
X97087700Y-145239900D01*
X97087700Y-145239900D02*
X97087700Y-145439900D01*
%TO.C,D48*%
X89255750Y-82031800D02*
X90605750Y-82031800D01*
X89255750Y-82231800D02*
X89255750Y-82031800D01*
X89255750Y-82231800D02*
X90605750Y-82231800D01*
X90605750Y-82231800D02*
X90605750Y-82031800D01*
D15*
%TO.C,C20*%
X68002617Y-60067000D02*
X67710083Y-60067000D01*
X68002617Y-59047000D02*
X67710083Y-59047000D01*
D16*
%TO.C,D41*%
X91637700Y-120131800D02*
X92987700Y-120131800D01*
X91637700Y-120331800D02*
X91637700Y-120131800D01*
X91637700Y-120331800D02*
X92987700Y-120331800D01*
X92987700Y-120331800D02*
X92987700Y-120131800D01*
D15*
%TO.C,C9*%
X68160083Y-36397000D02*
X68452617Y-36397000D01*
X68160083Y-37417000D02*
X68452617Y-37417000D01*
D11*
%TO.C,D4*%
X106918950Y-61015000D02*
X104918950Y-61015000D01*
X105918950Y-61015000D02*
X105018950Y-61915000D01*
X106818950Y-61915000D02*
X105918950Y-61015000D01*
X105918950Y-61915000D02*
X105918950Y-62515000D01*
X105018950Y-61915000D02*
X106818950Y-61915000D01*
D16*
%TO.C,D49*%
X93198250Y-104481800D02*
X91848250Y-104481800D01*
X93198250Y-104281800D02*
X93198250Y-104481800D01*
X93198250Y-104281800D02*
X91848250Y-104281800D01*
X91848250Y-104281800D02*
X91848250Y-104481800D01*
%TO.C,D51*%
X73195400Y-134961100D02*
X71845400Y-134961100D01*
X73195400Y-134761100D02*
X73195400Y-134961100D01*
X73195400Y-134761100D02*
X71845400Y-134761100D01*
X71845400Y-134761100D02*
X71845400Y-134961100D01*
D15*
%TO.C,C4*%
X100572583Y-123547000D02*
X100865117Y-123547000D01*
X100572583Y-124567000D02*
X100865117Y-124567000D01*
D16*
%TO.C,D26*%
X82831350Y-37107000D02*
X84181350Y-37107000D01*
X82831350Y-37307000D02*
X82831350Y-37107000D01*
X82831350Y-37307000D02*
X84181350Y-37307000D01*
X84181350Y-37307000D02*
X84181350Y-37107000D01*
D11*
%TO.C,D24*%
X99298250Y-99115300D02*
X97298250Y-99115300D01*
X98298250Y-99115300D02*
X97398250Y-100015300D01*
X99198250Y-100015300D02*
X98298250Y-99115300D01*
X98298250Y-100015300D02*
X98298250Y-100615300D01*
X97398250Y-100015300D02*
X99198250Y-100015300D01*
%TO.C,D34*%
X104606350Y-118157000D02*
X102606350Y-118157000D01*
X103606350Y-118157000D02*
X102706350Y-119057000D01*
X104506350Y-119057000D02*
X103606350Y-118157000D01*
X103606350Y-119057000D02*
X103606350Y-119657000D01*
X102706350Y-119057000D02*
X104506350Y-119057000D01*
D16*
%TO.C,D35*%
X77006350Y-63523500D02*
X75656350Y-63523500D01*
X77006350Y-63323500D02*
X77006350Y-63523500D01*
X77006350Y-63323500D02*
X75656350Y-63323500D01*
X75656350Y-63323500D02*
X75656350Y-63523500D01*
D15*
%TO.C,C6*%
X89252617Y-145067000D02*
X88960083Y-145067000D01*
X89252617Y-144047000D02*
X88960083Y-144047000D01*
%TO.C,C16*%
X98097583Y-85547000D02*
X98390117Y-85547000D01*
X98097583Y-86567000D02*
X98390117Y-86567000D01*
D14*
%TO.C,SW14*%
X99005750Y-74270300D02*
X99005750Y-74651300D01*
X96465750Y-71730300D02*
X87575750Y-71730300D01*
X87575750Y-71730300D02*
X87575750Y-72111300D01*
X99005750Y-74270300D02*
G75*
G03*
X96465750Y-71730300I-2540001J-1D01*
G01*
%TO.C,SW4*%
X103768950Y-55220000D02*
X103768950Y-55601000D01*
X101228950Y-52680000D02*
X92338950Y-52680000D01*
X92338950Y-52680000D02*
X92338950Y-53061000D01*
X103768950Y-55220000D02*
G75*
G03*
X101228950Y-52680000I-2540001J-1D01*
G01*
%TO.C,SW42*%
X101387700Y-134278400D02*
X101387700Y-134659400D01*
X98847700Y-131738400D02*
X89957700Y-131738400D01*
X89957700Y-131738400D02*
X89957700Y-132119400D01*
X101387700Y-134278400D02*
G75*
G03*
X98847700Y-131738400I-2540001J-1D01*
G01*
%TO.C,SW34*%
X101387700Y-112370300D02*
X101387700Y-112751300D01*
X98847700Y-109830300D02*
X89957700Y-109830300D01*
X89957700Y-109830300D02*
X89957700Y-110211300D01*
X101387700Y-112370300D02*
G75*
G03*
X98847700Y-109830300I-2540001J-1D01*
G01*
%TO.C,SW24*%
X96148250Y-93320300D02*
X96148250Y-93701300D01*
X93608250Y-90780300D02*
X84718250Y-90780300D01*
X84718250Y-90780300D02*
X84718250Y-91161300D01*
X96148250Y-93320300D02*
G75*
G03*
X93608250Y-90780300I-2540001J-1D01*
G01*
%TO.C,SW2*%
X79956350Y-52362000D02*
X79956350Y-52743000D01*
X77416350Y-49822000D02*
X68526350Y-49822000D01*
X68526350Y-49822000D02*
X68526350Y-50203000D01*
X79956350Y-52362000D02*
G75*
G03*
X77416350Y-49822000I-2540001J-1D01*
G01*
%TO.C,SW10*%
X76145400Y-123799600D02*
X76145400Y-124180600D01*
X73605400Y-121259600D02*
X64715400Y-121259600D01*
X64715400Y-121259600D02*
X64715400Y-121640600D01*
X76145400Y-123799600D02*
G75*
G03*
X73605400Y-121259600I-2540001J-1D01*
G01*
%TD*%
M02*
