M48
; DRILL file {KiCad 7.0.7} date 2024 April 21, Sunday 22:37:21
; FORMAT={-:-/ absolute / metric / decimal}
; #@! TF.CreationDate,2024-04-21T22:37:21+02:00
; #@! TF.GenerationSoftware,Kicad,Pcbnew,7.0.7
; #@! TF.FileFunction,Plated,1,2,PTH
FMAT,2
METRIC
; #@! TA.AperFunction,Plated,PTH,ViaDrill
T1C0.300
; #@! TA.AperFunction,Plated,PTH,ComponentDrill
T2C2.500
%
G90
G05
T1
X57.913Y-40.207
X58.5Y-42.1
X59.206Y-35.507
X59.4Y-40.575
X59.428Y-45.072
X60.106Y-131.307
X62.106Y-128.107
X62.744Y-133.807
X63.6Y-42.4
X63.885Y-60.307
X64.356Y-133.557
X65.081Y-41.25
X65.106Y-48.707
X65.33Y-131.583
X65.606Y-121.057
X65.706Y-57.107
X66.306Y-36.907
X66.856Y-60.424
X66.856Y-62.057
X67.606Y-34.557
X68.106Y-61.057
X68.306Y-38.707
X69.356Y-61.807
X69.856Y-59.557
X71.306Y-47.207
X71.356Y-40.807
X71.406Y-35.507
X74.356Y-133.307
X76.356Y-65.807
X76.856Y-132.557
X77.106Y-48.707
X77.606Y-114.557
X77.856Y-141.307
X77.856Y-145.557
X78.106Y-61.807
X78.295Y-133.307
X78.356Y-37.057
X78.606Y-88.057
X78.606Y-104.307
X78.606Y-113.807
X78.856Y-66.807
X79.106Y-145.557
X79.356Y-34.557
X79.606Y-62.557
X79.606Y-144.057
X79.856Y-89.557
X79.856Y-131.557
X79.906Y-105.83
X80.106Y-67.557
X80.106Y-107.307
X80.306Y-38.707
X80.606Y-144.557
X81.006Y-120.107
X81.006Y-127.407
X81.106Y-35.507
X81.106Y-68.807
X81.106Y-102.807
X81.106Y-114.307
X81.356Y-85.807
X81.856Y-144.307
X82.081Y-61.807
X82.11Y-64.81
X82.238Y-97.807
X82.706Y-124.057
X82.706Y-136.057
X82.706Y-143.557
X82.856Y-64.057
X83.206Y-65.807
X83.381Y-40.607
X83.406Y-35.507
X83.406Y-47.207
X83.406Y-48.707
X83.856Y-105.807
X84.106Y-104.307
X84.206Y-120.307
X84.206Y-125.307
X84.206Y-130.807
X84.206Y-137.057
X84.421Y-64.122
X85.069Y-47.116
X85.096Y-71.307
X85.164Y-111.149
X85.356Y-102.807
X86.206Y-70.407
X86.293Y-132.02
X86.856Y-85.307
X87.206Y-144.607
X87.406Y-49.407
X87.856Y-83.807
X87.856Y-105.557
X88.106Y-59.207
X88.856Y-65.397
X89.106Y-41.607
X89.356Y-121.807
X89.553Y-143.554
X89.856Y-85.557
X89.856Y-88.838
X90.356Y-120.307
X90.606Y-122.807
X90.606Y-125.307
X90.856Y-34.557
X90.856Y-36.307
X90.856Y-143.007
X91.606Y-39.607
X92.037Y-64.488
X92.569Y-36.369
X92.606Y-107.307
X93.106Y-64.807
X94.356Y-103.057
X94.356Y-106.557
X95.356Y-102.807
X95.356Y-107.307
X97.356Y-83.581
X97.356Y-87.415
X97.806Y-145.607
X98.356Y-103.057
X98.356Y-108.057
X98.856Y-83.557
X98.856Y-124.057
X98.906Y-147.307
X99.106Y-85.057
X99.106Y-88.838
X99.206Y-142.107
X99.306Y-143.507
X99.706Y-146.507
X99.856Y-122.607
X100.356Y-69.915
X100.356Y-121.057
X100.506Y-147.631
X100.606Y-144.007
X100.856Y-125.307
X101.106Y-148.307
X101.156Y-83.557
X101.606Y-64.682
X102.356Y-65.307
X102.356Y-130.307
X102.606Y-119.057
X102.856Y-106.557
X103.106Y-70.807
X103.106Y-81.057
X103.606Y-121.807
X103.706Y-139.607
X103.856Y-67.791
X103.856Y-108.807
X104.106Y-49.44
X104.106Y-69.915
X104.106Y-87.415
X104.106Y-88.838
X104.123Y-50.89
X104.306Y-129.107
X104.306Y-130.707
X104.306Y-132.107
X104.306Y-133.607
X104.306Y-140.607
X104.306Y-142.107
X104.306Y-143.607
X104.306Y-145.107
X104.306Y-146.607
X104.356Y-68.484
X104.356Y-138.607
X104.406Y-135.107
X104.406Y-136.307
X104.606Y-109.557
X105.856Y-64.557
T2
X55.64Y-44.764
X69.64Y-70.264
X73.64Y-149.264
X104.419Y-44.764
X104.419Y-151.764
T0
M30
