%TF.GenerationSoftware,KiCad,Pcbnew,7.0.7*%
%TF.CreationDate,2024-04-21T23:11:45+02:00*%
%TF.ProjectId,isokey_right,69736f6b-6579-45f7-9269-6768742e6b69,rev?*%
%TF.SameCoordinates,Original*%
%TF.FileFunction,Profile,NP*%
%FSLAX46Y46*%
G04 Gerber Fmt 4.6, Leading zero omitted, Abs format (unit mm)*
G04 Created by KiCad (PCBNEW 7.0.7) date 2024-04-21 23:11:45*
%MOMM*%
%LPD*%
G01*
G04 APERTURE LIST*
%TA.AperFunction,Profile*%
%ADD10C,0.250000*%
%TD*%
%TA.AperFunction,Profile*%
%ADD11C,0.150000*%
%TD*%
G04 APERTURE END LIST*
D10*
X41222009Y-127598914D02*
G75*
G03*
X44222009Y-130598914I2999976J-24D01*
G01*
X42688300Y-41179036D02*
G75*
G03*
X39688300Y-38179036I-3000025J-25D01*
G01*
X41222009Y-127598914D02*
X41222009Y-111402669D01*
X46195910Y-106428768D02*
G75*
G03*
X41222009Y-111402669I2J-4973903D01*
G01*
X52222009Y-133598914D02*
X52222009Y-138598914D01*
X44222009Y-130598914D02*
X49222009Y-130598914D01*
X52222009Y-138598914D02*
G75*
G03*
X58222009Y-144598914I5999975J-25D01*
G01*
X88000250Y-144598914D02*
X58222009Y-144598914D01*
X90500250Y-35098914D02*
G75*
G03*
X88000250Y-32598914I-2499925J75D01*
G01*
X39222009Y-23598914D02*
G75*
G03*
X36222009Y-26598914I-18J-2999982D01*
G01*
X53273136Y-86325600D02*
G75*
G03*
X52991197Y-85042562I-3000396J13179D01*
G01*
X88000250Y-144598914D02*
G75*
G03*
X90500250Y-142098914I-60J2500060D01*
G01*
X42688300Y-57800813D02*
X42688300Y-41179036D01*
X36222009Y-35179036D02*
G75*
G03*
X39222009Y-38179036I2999958J-42D01*
G01*
X52222009Y-97598914D02*
G75*
G03*
X53273136Y-86325600I-10904864J6702434D01*
G01*
X54037113Y-78621547D02*
G75*
G03*
X54642742Y-77682032I-2174978J2066989D01*
G01*
X42688300Y-57800813D02*
G75*
G03*
X45190178Y-60759170I2999986J-12D01*
G01*
X54642742Y-77682032D02*
G75*
G03*
X45190178Y-60759170I-11515876J4668983D01*
G01*
X79222009Y-26598914D02*
G75*
G03*
X76222009Y-23598914I-3000025J-25D01*
G01*
X79222009Y-29598914D02*
G75*
G03*
X82222009Y-32598914I2999976J-24D01*
G01*
X76222009Y-23598914D02*
X39222009Y-23598914D01*
X39222009Y-38179036D02*
X39688300Y-38179036D01*
X36222009Y-26598914D02*
X36222009Y-35179036D01*
X54037113Y-78621547D02*
G75*
G03*
X52991198Y-85042562I4184886J-3977365D01*
G01*
X79222009Y-26598914D02*
X79222009Y-29598914D01*
X46195910Y-106428768D02*
G75*
G03*
X52222009Y-97598914I-525473J6829858D01*
G01*
X82222009Y-32598914D02*
X88000250Y-32598914D01*
X52222009Y-133598914D02*
G75*
G03*
X49222009Y-130598914I-3000025J-25D01*
G01*
X90500250Y-35098914D02*
X90500250Y-142098914D01*
X90500186Y-142098914D02*
G75*
G03*
X93000250Y-144598914I2500114J114D01*
G01*
X169196582Y-34671128D02*
G75*
G03*
X169285440Y-37510746I1451718J-1375772D01*
G01*
X170872926Y-60113680D02*
G75*
G03*
X171667321Y-56999847I-5705326J3113780D01*
G01*
X180342500Y-66029900D02*
X174384086Y-66029900D01*
X171667321Y-56999847D02*
X171667218Y-42660630D01*
X171667200Y-42660630D02*
G75*
G03*
X169285440Y-37510746I-6758400J30D01*
G01*
X126999999Y-35499999D02*
G75*
G03*
X129299999Y-33199999I1J2299999D01*
G01*
X187842500Y-142098914D02*
X187842500Y-73529900D01*
X95337114Y-34210630D02*
G75*
G03*
X90500250Y-35098914I-2336874J-888240D01*
G01*
X95337108Y-34210633D02*
G75*
G03*
X97206612Y-35500000I1869492J710633D01*
G01*
X134999999Y-26307253D02*
G75*
G03*
X129307253Y-31999999I1J-5692747D01*
G01*
X129307253Y-31999999D02*
X129307253Y-33199999D01*
X90500250Y-35098914D02*
X90500250Y-142098914D01*
X169196606Y-34671151D02*
G75*
G03*
X165600000Y-26307253I-3596606J3408651D01*
G01*
X170872952Y-60113695D02*
G75*
G03*
X174384086Y-66029900I3511148J-1916205D01*
G01*
X93000250Y-144598914D02*
X185342500Y-144598914D01*
X187842500Y-73529900D02*
G75*
G03*
X180342500Y-66029900I-7500000J0D01*
G01*
X165600000Y-26307253D02*
X135000000Y-26307253D01*
X185342500Y-144598900D02*
G75*
G03*
X187842500Y-142098914I0J2500000D01*
G01*
X127000000Y-35500000D02*
X97206612Y-35500000D01*
D11*
%TO.C,D36*%
X82700650Y-56716400D02*
X79300650Y-56716400D01*
X79300650Y-56716400D02*
X79300650Y-53316400D01*
X79300650Y-53316400D02*
X82700650Y-53316400D01*
X82700650Y-53316400D02*
X82700650Y-56716400D01*
%TO.C,D19*%
X44113050Y-27441900D02*
X47513050Y-27441900D01*
X47513050Y-27441900D02*
X47513050Y-30841900D01*
X47513050Y-30841900D02*
X44113050Y-30841900D01*
X44113050Y-30841900D02*
X44113050Y-27441900D01*
%TO.C,D52*%
X80319400Y-132374800D02*
X76919400Y-132374800D01*
X76919400Y-132374800D02*
X76919400Y-135774800D01*
X76919400Y-135774800D02*
X80319400Y-135774800D01*
X80319400Y-135774800D02*
X80319400Y-132374800D01*
%TO.C,D42*%
X55077100Y-121896000D02*
X51677100Y-121896000D01*
X51677100Y-121896000D02*
X51677100Y-125296000D01*
X51677100Y-125296000D02*
X55077100Y-125296000D01*
X55077100Y-125296000D02*
X55077100Y-121896000D01*
%TO.C,D50*%
X76919400Y-113866700D02*
X80319400Y-113866700D01*
X80319400Y-113866700D02*
X80319400Y-110466700D01*
X80319400Y-110466700D02*
X76919400Y-110466700D01*
X76919400Y-110466700D02*
X76919400Y-113866700D01*
%TO.C,D7*%
X68113050Y-30841900D02*
X71513050Y-30841900D01*
X71513050Y-30841900D02*
X71513050Y-27441900D01*
X71513050Y-27441900D02*
X68113050Y-27441900D01*
X68113050Y-27441900D02*
X68113050Y-30841900D01*
%TO.C,D39*%
X74537450Y-75766700D02*
X77937450Y-75766700D01*
X77937450Y-75766700D02*
X77937450Y-72366700D01*
X77937450Y-72366700D02*
X74537450Y-72366700D01*
X74537450Y-72366700D02*
X74537450Y-75766700D01*
%TO.C,D25*%
X82700650Y-53316400D02*
X79300650Y-53316400D01*
X79300650Y-53316400D02*
X79300650Y-56716400D01*
X79300650Y-56716400D02*
X82700650Y-56716400D01*
X82700650Y-56716400D02*
X82700650Y-53316400D01*
%TO.C,D29*%
X56113050Y-30841900D02*
X59513050Y-30841900D01*
X59513050Y-30841900D02*
X59513050Y-27441900D01*
X59513050Y-27441900D02*
X56113050Y-27441900D01*
X56113050Y-27441900D02*
X56113050Y-30841900D01*
%TO.C,D20*%
X58888050Y-50458400D02*
X55488050Y-50458400D01*
X55488050Y-50458400D02*
X55488050Y-53858400D01*
X55488050Y-53858400D02*
X58888050Y-53858400D01*
X58888050Y-53858400D02*
X58888050Y-50458400D01*
%TO.C,D30*%
X44113050Y-30841900D02*
X47513050Y-30841900D01*
X47513050Y-30841900D02*
X47513050Y-27441900D01*
X47513050Y-27441900D02*
X44113050Y-27441900D01*
X44113050Y-27441900D02*
X44113050Y-30841900D01*
%TO.C,D40*%
X75079950Y-91416700D02*
X71679950Y-91416700D01*
X71679950Y-91416700D02*
X71679950Y-94816700D01*
X71679950Y-94816700D02*
X75079950Y-94816700D01*
X75079950Y-94816700D02*
X75079950Y-91416700D01*
%TO.C,D35*%
X58888050Y-53858400D02*
X55488050Y-53858400D01*
X55488050Y-53858400D02*
X55488050Y-50458400D01*
X55488050Y-50458400D02*
X58888050Y-50458400D01*
X58888050Y-50458400D02*
X58888050Y-53858400D01*
%TO.C,D26*%
X68113050Y-27441900D02*
X71513050Y-27441900D01*
X71513050Y-27441900D02*
X71513050Y-30841900D01*
X71513050Y-30841900D02*
X68113050Y-30841900D01*
X68113050Y-30841900D02*
X68113050Y-27441900D01*
%TO.C,D51*%
X55077100Y-125296000D02*
X51677100Y-125296000D01*
X51677100Y-125296000D02*
X51677100Y-121896000D01*
X51677100Y-121896000D02*
X55077100Y-121896000D01*
X55077100Y-121896000D02*
X55077100Y-125296000D01*
%TO.C,D8*%
X56113050Y-27441900D02*
X59513050Y-27441900D01*
X59513050Y-27441900D02*
X59513050Y-30841900D01*
X59513050Y-30841900D02*
X56113050Y-30841900D01*
X56113050Y-30841900D02*
X56113050Y-27441900D01*
%TO.C,D48*%
X74537450Y-72366700D02*
X77937450Y-72366700D01*
X77937450Y-72366700D02*
X77937450Y-75766700D01*
X77937450Y-75766700D02*
X74537450Y-75766700D01*
X74537450Y-75766700D02*
X74537450Y-72366700D01*
%TO.C,D41*%
X76919400Y-110466700D02*
X80319400Y-110466700D01*
X80319400Y-110466700D02*
X80319400Y-113866700D01*
X80319400Y-113866700D02*
X76919400Y-113866700D01*
X76919400Y-113866700D02*
X76919400Y-110466700D01*
%TO.C,D47*%
X80319400Y-135774800D02*
X76919400Y-135774800D01*
X76919400Y-135774800D02*
X76919400Y-132374800D01*
X76919400Y-132374800D02*
X80319400Y-132374800D01*
X80319400Y-132374800D02*
X80319400Y-135774800D01*
%TO.C,D49*%
X75079950Y-94816700D02*
X71679950Y-94816700D01*
X71679950Y-94816700D02*
X71679950Y-91416700D01*
X71679950Y-91416700D02*
X75079950Y-91416700D01*
X75079950Y-91416700D02*
X75079950Y-94816700D01*
%TO.C,D8*%
X120750000Y-56716500D02*
X117350000Y-56716500D01*
X117350000Y-56716500D02*
X117350000Y-53316500D01*
X117350000Y-53316500D02*
X120750000Y-53316500D01*
X120750000Y-53316500D02*
X120750000Y-56716500D01*
%TO.C,D70*%
X133300000Y-30300000D02*
X136700000Y-30300000D01*
X136700000Y-30300000D02*
X136700000Y-33700000D01*
X136700000Y-33700000D02*
X133300000Y-33700000D01*
X133300000Y-33700000D02*
X133300000Y-30300000D01*
%TO.C,D62*%
X133131000Y-138631350D02*
X129731000Y-138631350D01*
X129731000Y-138631350D02*
X129731000Y-135231350D01*
X129731000Y-135231350D02*
X133131000Y-135231350D01*
X133131000Y-135231350D02*
X133131000Y-138631350D01*
%TO.C,D58*%
X171643000Y-121895950D02*
X175043000Y-121895950D01*
X175043000Y-121895950D02*
X175043000Y-125295950D01*
X175043000Y-125295950D02*
X171643000Y-125295950D01*
X171643000Y-125295950D02*
X171643000Y-121895950D01*
%TO.C,D56*%
X114081000Y-138631350D02*
X110681000Y-138631350D01*
X110681000Y-138631350D02*
X110681000Y-135231350D01*
X110681000Y-135231350D02*
X114081000Y-135231350D01*
X114081000Y-135231350D02*
X114081000Y-138631350D01*
%TO.C,D65*%
X157300000Y-30300000D02*
X160700000Y-30300000D01*
X160700000Y-30300000D02*
X160700000Y-33700000D01*
X160700000Y-33700000D02*
X157300000Y-33700000D01*
X157300000Y-33700000D02*
X157300000Y-30300000D01*
%TO.C,D36*%
X143544000Y-81891650D02*
X146944000Y-81891650D01*
X146944000Y-81891650D02*
X146944000Y-85291650D01*
X146944000Y-85291650D02*
X143544000Y-85291650D01*
X143544000Y-85291650D02*
X143544000Y-81891650D01*
%TO.C,D59*%
X129731000Y-116181300D02*
X133131000Y-116181300D01*
X133131000Y-116181300D02*
X133131000Y-119581300D01*
X133131000Y-119581300D02*
X129731000Y-119581300D01*
X129731000Y-119581300D02*
X129731000Y-116181300D01*
%TO.C,D55*%
X100682000Y-110466650D02*
X104082000Y-110466650D01*
X104082000Y-110466650D02*
X104082000Y-113866650D01*
X104082000Y-113866650D02*
X100682000Y-113866650D01*
X100682000Y-113866650D02*
X100682000Y-110466650D01*
%TO.C,D19*%
X149325000Y-56716500D02*
X145925000Y-56716500D01*
X145925000Y-56716500D02*
X145925000Y-53316500D01*
X145925000Y-53316500D02*
X149325000Y-53316500D01*
X149325000Y-53316500D02*
X149325000Y-56716500D01*
%TO.C,D47*%
X175043000Y-106245950D02*
X171643000Y-106245950D01*
X171643000Y-106245950D02*
X171643000Y-102845950D01*
X171643000Y-102845950D02*
X175043000Y-102845950D01*
X175043000Y-102845950D02*
X175043000Y-106245950D01*
%TO.C,D48*%
X117350000Y-72366650D02*
X120750000Y-72366650D01*
X120750000Y-72366650D02*
X120750000Y-75766650D01*
X120750000Y-75766650D02*
X117350000Y-75766650D01*
X117350000Y-75766650D02*
X117350000Y-72366650D01*
%TO.C,D41*%
X101700000Y-94816800D02*
X98300000Y-94816800D01*
X98300000Y-94816800D02*
X98300000Y-91416800D01*
X98300000Y-91416800D02*
X101700000Y-91416800D01*
X101700000Y-91416800D02*
X101700000Y-94816800D01*
%TO.C,D67*%
X145300000Y-30300000D02*
X148700000Y-30300000D01*
X148700000Y-30300000D02*
X148700000Y-33700000D01*
X148700000Y-33700000D02*
X145300000Y-33700000D01*
X145300000Y-33700000D02*
X145300000Y-30300000D01*
%TO.C,D49*%
X98300000Y-72366650D02*
X101700000Y-72366650D01*
X101700000Y-72366650D02*
X101700000Y-75766650D01*
X101700000Y-75766650D02*
X98300000Y-75766650D01*
X98300000Y-75766650D02*
X98300000Y-72366650D01*
%TO.C,D51*%
X120750000Y-94816800D02*
X117350000Y-94816800D01*
X117350000Y-94816800D02*
X117350000Y-91416800D01*
X117350000Y-91416800D02*
X120750000Y-91416800D01*
X120750000Y-91416800D02*
X120750000Y-94816800D01*
%TO.C,D26*%
X101700000Y-56716500D02*
X98300000Y-56716500D01*
X98300000Y-56716500D02*
X98300000Y-53316500D01*
X98300000Y-53316500D02*
X101700000Y-53316500D01*
X101700000Y-53316500D02*
X101700000Y-56716500D01*
%TO.C,D35*%
X171643000Y-83846250D02*
X175043000Y-83846250D01*
X175043000Y-83846250D02*
X175043000Y-87246250D01*
X175043000Y-87246250D02*
X171643000Y-87246250D01*
X171643000Y-87246250D02*
X171643000Y-83846250D01*
%TO.C,D68*%
X152181000Y-138631350D02*
X148781000Y-138631350D01*
X148781000Y-138631350D02*
X148781000Y-135231350D01*
X148781000Y-135231350D02*
X152181000Y-135231350D01*
X152181000Y-135231350D02*
X152181000Y-138631350D01*
%TO.C,D61*%
X114081000Y-135231350D02*
X110681000Y-135231350D01*
X110681000Y-135231350D02*
X110681000Y-138631350D01*
X110681000Y-138631350D02*
X114081000Y-138631350D01*
X114081000Y-138631350D02*
X114081000Y-135231350D01*
%TO.C,D69*%
X133300000Y-33700000D02*
X136700000Y-33700000D01*
X136700000Y-33700000D02*
X136700000Y-30300000D01*
X136700000Y-30300000D02*
X133300000Y-30300000D01*
X133300000Y-30300000D02*
X133300000Y-33700000D01*
%TO.C,D57*%
X133131000Y-135231350D02*
X129731000Y-135231350D01*
X129731000Y-135231350D02*
X129731000Y-138631350D01*
X129731000Y-138631350D02*
X133131000Y-138631350D01*
X133131000Y-138631350D02*
X133131000Y-135231350D01*
%TO.C,D60*%
X100682000Y-113866650D02*
X104082000Y-113866650D01*
X104082000Y-113866650D02*
X104082000Y-110466650D01*
X104082000Y-110466650D02*
X100682000Y-110466650D01*
X100682000Y-110466650D02*
X100682000Y-113866650D01*
%TO.C,D63*%
X152181000Y-135231350D02*
X148781000Y-135231350D01*
X148781000Y-135231350D02*
X148781000Y-138631350D01*
X148781000Y-138631350D02*
X152181000Y-138631350D01*
X152181000Y-138631350D02*
X152181000Y-135231350D01*
%TO.C,D40*%
X98300000Y-75766650D02*
X101700000Y-75766650D01*
X101700000Y-75766650D02*
X101700000Y-72366650D01*
X101700000Y-72366650D02*
X98300000Y-72366650D01*
X98300000Y-72366650D02*
X98300000Y-75766650D01*
%TO.C,D30*%
X149325000Y-53316500D02*
X145925000Y-53316500D01*
X145925000Y-53316500D02*
X145925000Y-56716500D01*
X145925000Y-56716500D02*
X149325000Y-56716500D01*
X149325000Y-56716500D02*
X149325000Y-53316500D01*
%TO.C,D20*%
X171643000Y-87246250D02*
X175043000Y-87246250D01*
X175043000Y-87246250D02*
X175043000Y-83846250D01*
X175043000Y-83846250D02*
X171643000Y-83846250D01*
X171643000Y-83846250D02*
X171643000Y-87246250D01*
%TO.C,D66*%
X145300000Y-33700000D02*
X148700000Y-33700000D01*
X148700000Y-33700000D02*
X148700000Y-30300000D01*
X148700000Y-30300000D02*
X145300000Y-30300000D01*
X145300000Y-30300000D02*
X145300000Y-33700000D01*
%TO.C,D29*%
X120750000Y-53316500D02*
X117350000Y-53316500D01*
X117350000Y-53316500D02*
X117350000Y-56716500D01*
X117350000Y-56716500D02*
X120750000Y-56716500D01*
X120750000Y-56716500D02*
X120750000Y-53316500D01*
%TO.C,D25*%
X143544000Y-85291650D02*
X146944000Y-85291650D01*
X146944000Y-85291650D02*
X146944000Y-81891650D01*
X146944000Y-81891650D02*
X143544000Y-81891650D01*
X143544000Y-81891650D02*
X143544000Y-85291650D01*
%TO.C,D39*%
X117350000Y-75766650D02*
X120750000Y-75766650D01*
X120750000Y-75766650D02*
X120750000Y-72366650D01*
X120750000Y-72366650D02*
X117350000Y-72366650D01*
X117350000Y-72366650D02*
X117350000Y-75766650D01*
%TO.C,D53*%
X171643000Y-125295950D02*
X175043000Y-125295950D01*
X175043000Y-125295950D02*
X175043000Y-121895950D01*
X175043000Y-121895950D02*
X171643000Y-121895950D01*
X171643000Y-121895950D02*
X171643000Y-125295950D01*
%TO.C,D7*%
X101700000Y-53316500D02*
X98300000Y-53316500D01*
X98300000Y-53316500D02*
X98300000Y-56716500D01*
X98300000Y-56716500D02*
X101700000Y-56716500D01*
X101700000Y-56716500D02*
X101700000Y-53316500D01*
%TO.C,D64*%
X157300000Y-33700000D02*
X160700000Y-33700000D01*
X160700000Y-33700000D02*
X160700000Y-30300000D01*
X160700000Y-30300000D02*
X157300000Y-30300000D01*
X157300000Y-30300000D02*
X157300000Y-33700000D01*
%TO.C,D50*%
X101700000Y-91416800D02*
X98300000Y-91416800D01*
X98300000Y-91416800D02*
X98300000Y-94816800D01*
X98300000Y-94816800D02*
X101700000Y-94816800D01*
X101700000Y-94816800D02*
X101700000Y-91416800D01*
%TO.C,D42*%
X120750000Y-91416800D02*
X117350000Y-91416800D01*
X117350000Y-91416800D02*
X117350000Y-94816800D01*
X117350000Y-94816800D02*
X120750000Y-94816800D01*
X120750000Y-94816800D02*
X120750000Y-91416800D01*
%TO.C,D54*%
X129731000Y-119581300D02*
X133131000Y-119581300D01*
X133131000Y-119581300D02*
X133131000Y-116181300D01*
X133131000Y-116181300D02*
X129731000Y-116181300D01*
X129731000Y-116181300D02*
X129731000Y-119581300D01*
%TO.C,D52*%
X175043000Y-102845950D02*
X171643000Y-102845950D01*
X171643000Y-102845950D02*
X171643000Y-106245950D01*
X171643000Y-106245950D02*
X175043000Y-106245950D01*
X175043000Y-106245950D02*
X175043000Y-102845950D01*
%TD*%
M02*
