M48
; DRILL file {KiCad 7.0.7} date 2024 April 21, Sunday 23:11:32
; FORMAT={-:-/ absolute / metric / decimal}
; #@! TF.CreationDate,2024-04-21T23:11:32+02:00
; #@! TF.GenerationSoftware,Kicad,Pcbnew,7.0.7
; #@! TF.FileFunction,Plated,1,2,PTH
FMAT,2
METRIC
; #@! TA.AperFunction,Plated,PTH,ViaDrill
T1C0.300
; #@! TA.AperFunction,Plated,PTH,ComponentDrill
T2C2.500
%
G90
G05
T1
X41.495Y-30.542
X42.082Y-32.435
X42.788Y-25.842
X42.982Y-30.91
X43.01Y-35.407
X43.688Y-121.642
X45.688Y-118.442
X46.326Y-124.142
X47.182Y-32.735
X47.467Y-50.642
X47.938Y-123.892
X48.663Y-31.585
X48.688Y-39.042
X48.912Y-121.918
X49.188Y-111.392
X49.288Y-47.442
X49.888Y-27.242
X50.438Y-50.759
X50.438Y-52.392
X51.188Y-24.892
X51.688Y-51.392
X51.888Y-29.042
X52.938Y-52.142
X53.438Y-49.892
X54.888Y-37.542
X54.938Y-31.142
X54.988Y-25.842
X57.938Y-123.642
X59.938Y-56.142
X60.438Y-122.892
X60.688Y-39.042
X61.188Y-104.892
X61.438Y-131.642
X61.438Y-135.892
X61.688Y-52.142
X61.877Y-123.642
X61.938Y-27.392
X62.188Y-78.392
X62.188Y-94.642
X62.188Y-104.142
X62.438Y-57.142
X62.688Y-135.892
X62.938Y-24.892
X63.188Y-52.892
X63.188Y-134.392
X63.438Y-79.892
X63.438Y-121.892
X63.488Y-96.165
X63.688Y-57.892
X63.688Y-97.642
X63.888Y-29.042
X64.188Y-134.892
X64.588Y-110.442
X64.588Y-117.742
X64.688Y-25.842
X64.688Y-59.142
X64.688Y-93.142
X64.688Y-104.642
X64.938Y-76.142
X65.438Y-134.642
X65.663Y-52.142
X65.691Y-55.145
X65.82Y-88.142
X66.288Y-114.392
X66.288Y-126.392
X66.288Y-133.892
X66.438Y-54.392
X66.788Y-56.142
X66.963Y-30.942
X66.988Y-25.842
X66.988Y-37.542
X66.988Y-39.042
X67.438Y-96.142
X67.688Y-94.642
X67.788Y-110.642
X67.788Y-115.642
X67.788Y-121.142
X67.788Y-127.392
X68.003Y-54.457
X68.651Y-37.451
X68.677Y-61.642
X68.746Y-101.484
X68.938Y-93.142
X69.788Y-60.742
X69.875Y-122.355
X70.438Y-75.642
X70.788Y-134.942
X70.988Y-39.742
X71.438Y-74.142
X71.438Y-95.892
X71.688Y-49.542
X72.438Y-55.732
X72.688Y-31.942
X72.938Y-112.142
X73.135Y-133.889
X73.438Y-75.892
X73.438Y-79.173
X73.938Y-110.642
X74.188Y-113.142
X74.188Y-115.642
X74.438Y-24.892
X74.438Y-26.642
X74.438Y-133.342
X75.188Y-29.942
X75.619Y-54.823
X76.151Y-26.704
X76.188Y-97.642
X76.688Y-55.142
X77.938Y-93.392
X77.938Y-96.892
X78.938Y-93.142
X78.938Y-97.642
X80.938Y-73.916
X80.938Y-77.75
X81.388Y-135.942
X81.938Y-93.392
X81.938Y-98.392
X82.438Y-73.892
X82.438Y-114.392
X82.488Y-137.642
X82.688Y-75.392
X82.688Y-79.173
X82.788Y-132.442
X82.888Y-133.842
X83.288Y-136.842
X83.438Y-112.942
X83.938Y-60.25
X83.938Y-111.392
X84.088Y-137.966
X84.188Y-134.342
X84.438Y-115.642
X84.688Y-138.642
X84.737Y-73.892
X85.188Y-55.017
X85.938Y-55.642
X85.938Y-120.642
X86.188Y-109.392
X86.438Y-96.892
X86.688Y-61.142
X86.688Y-71.392
X87.188Y-112.142
X87.288Y-129.942
X87.438Y-58.126
X87.438Y-99.142
X87.688Y-39.775
X87.688Y-60.25
X87.688Y-77.75
X87.688Y-79.173
X87.705Y-41.225
X87.888Y-119.442
X87.888Y-121.042
X87.888Y-122.442
X87.888Y-123.942
X87.888Y-130.942
X87.888Y-132.442
X87.888Y-133.942
X87.888Y-135.442
X87.888Y-136.942
X87.938Y-58.819
X87.938Y-128.942
X87.988Y-125.442
X87.988Y-126.642
X88.188Y-99.892
X89.438Y-54.892
X91.7Y-44.75
X91.7Y-63.8
X92.3Y-102.0
X92.325Y-81.2
X92.8Y-87.7
X93.1Y-77.75
X93.1Y-119.5
X93.1Y-121.0
X93.1Y-122.5
X93.1Y-124.0
X93.1Y-125.5
X93.1Y-131.0
X93.1Y-132.5
X93.1Y-134.0
X93.1Y-135.5
X93.1Y-137.0
X93.2Y-54.8
X93.3Y-60.6
X93.3Y-79.2
X93.3Y-127.5
X93.3Y-129.0
X93.5Y-59.2
X94.082Y-101.9
X94.612Y-55.0
X94.612Y-93.1
X94.822Y-119.5
X95.5Y-54.5
X95.5Y-92.6
X95.5Y-126.75
X95.8Y-74.8
X96.2Y-128.1
X97.1Y-113.0
X97.1Y-116.3
X97.15Y-76.2
X97.6Y-137.0
X97.8Y-112.0
X97.8Y-135.3
X100.4Y-120.0
X100.4Y-130.0
X101.3Y-118.9
X101.3Y-131.3
X102.2Y-117.8
X102.2Y-133.0
X102.9Y-77.5
X103.0Y-117.0
X103.0Y-134.3
X104.081Y-126.665
X104.3Y-74.3
X104.5Y-137.7
X104.7Y-54.25
X104.7Y-58.25
X104.7Y-71.7
X104.7Y-92.35
X104.7Y-96.35
X105.2Y-115.5
X105.631Y-140.165
X106.6Y-53.4
X106.6Y-91.5
X106.8Y-74.9
X106.8Y-78.3
X106.9Y-73.1
X106.9Y-112.2
X106.993Y-136.915
X107.6Y-77.5
X107.6Y-111.4
X107.881Y-136.415
X108.2Y-109.6
X108.5Y-55.0
X108.5Y-59.1
X108.5Y-74.05
X108.5Y-76.6
X108.5Y-93.1
X108.5Y-97.2
X108.5Y-114.2
X108.5Y-116.3
X109.6Y-98.6
X109.6Y-115.5
X110.75Y-44.75
X110.75Y-63.8
X110.75Y-82.85
X110.882Y-112.15
X110.9Y-117.0
X111.6Y-97.2
X112.0Y-54.75
X112.0Y-58.25
X112.0Y-92.85
X112.0Y-96.35
X113.0Y-107.5
X113.3Y-74.9
X113.3Y-78.3
X114.0Y-117.8
X114.4Y-57.5
X114.4Y-95.6
X114.6Y-74.2
X114.8Y-55.0
X114.8Y-93.1
X116.7Y-122.5
X117.081Y-136.165
X117.081Y-140.165
X118.4Y-105.4
X118.981Y-135.315
X120.881Y-136.8
X120.881Y-141.015
X121.9Y-124.3
X122.0Y-77.5
X123.131Y-107.615
X123.131Y-126.665
X123.3Y-74.3
X123.75Y-54.25
X123.75Y-58.25
X123.75Y-92.35
X123.75Y-96.35
X124.1Y-73.292
X124.1Y-77.5
X124.381Y-136.665
X124.381Y-140.165
X124.7Y-71.7
X124.75Y-53.5
X124.75Y-91.6
X125.1Y-75.9
X125.1Y-78.3
X125.3Y-121.5
X126.3Y-117.1
X126.781Y-139.415
X127.181Y-136.915
X127.55Y-54.655
X127.55Y-59.1
X127.55Y-74.05
X127.55Y-93.1
X127.55Y-97.2
X127.6Y-76.6
X128.6Y-119.581
X128.6Y-121.5
X128.8Y-37.6
X130.4Y-60.2
X130.6Y-32.0
X131.6Y-37.6
X131.6Y-61.5
X134.3Y-120.6
X135.1Y-59.1
X135.8Y-93.0
X136.1Y-118.0
X136.131Y-136.165
X136.131Y-140.165
X136.944Y-73.325
X137.131Y-135.415
X137.6Y-34.0
X137.6Y-115.6
X137.6Y-121.5
X137.9Y-93.0
X138.9Y-118.8
X139.325Y-44.75
X139.5Y-56.0
X139.5Y-58.25
X139.6Y-84.6
X139.6Y-88.5
X139.8Y-104.8
X139.931Y-117.865
X139.931Y-136.915
X139.931Y-141.015
X140.0Y-122.3
X140.2Y-29.2
X140.4Y-32.8
X140.7Y-83.8
X141.4Y-120.6
X141.6Y-35.9
X142.181Y-126.665
X142.292Y-57.492
X142.798Y-30.997
X142.9Y-32.8
X143.1Y-123.9
X143.2Y-55.0
X143.637Y-138.7
X143.7Y-140.165
X145.3Y-139.415
X146.2Y-136.825
X148.1Y-87.4
X149.6Y-84.4
X149.8Y-34.0
X150.5Y-58.25
X150.5Y-81.3
X151.2Y-85.5
X151.2Y-88.5
X152.2Y-29.2
X152.2Y-32.775
X152.5Y-83.2
X152.5Y-87.4
X152.7Y-54.9
X152.8Y-57.5
X152.8Y-60.227
X153.6Y-35.9
X153.7Y-83.6
X153.7Y-86.3
X154.4Y-54.1
X154.4Y-58.2
X154.6Y-31.0
X154.6Y-60.7
X154.8Y-32.8
X154.8Y-137.0
X155.4Y-87.4
X155.4Y-95.6
X155.5Y-89.6
X155.5Y-136.1
X155.5Y-140.165
X156.125Y-55.0
X156.125Y-59.1
X156.9Y-120.6
X156.9Y-120.6
X157.0Y-55.8
X157.0Y-66.6
X157.0Y-83.8
X157.0Y-88.5
X157.0Y-90.8
X157.0Y-96.35
X158.2Y-89.4
X158.5Y-121.5
X158.981Y-136.915
X159.0Y-141.015
X159.3Y-97.5
X160.2Y-108.6
X160.5Y-96.7
X160.698Y-139.4
X161.2Y-107.8
X161.3Y-35.0
X161.5Y-95.9
X161.8Y-123.1
X161.9Y-140.1
X162.175Y-123.85
X162.2Y-107.0
X163.0Y-29.2
X163.0Y-134.4
X163.1Y-92.741
X163.1Y-103.6
X163.8Y-33.0
X163.9Y-88.141
X165.043Y-75.28
X165.043Y-94.279
X165.043Y-113.329
X165.6Y-32.4
X166.387Y-107.77
X166.4Y-104.5
X168.1Y-104.5
X168.1Y-107.0
X168.4Y-124.3
X168.4Y-128.3
X169.0Y-86.3
X169.0Y-90.4
X169.1Y-123.5
X169.2Y-104.6
X170.5Y-87.4
X176.2Y-89.3
X176.2Y-107.8
X176.2Y-127.1
X177.7Y-104.5
X177.7Y-107.8
X177.8Y-86.0
X177.8Y-91.3
X177.8Y-123.6
X178.5Y-124.4
X178.7Y-105.3
X179.5Y-121.6
X180.4Y-84.6
X180.5Y-86.7
X180.5Y-90.4
X180.5Y-128.3
X181.3Y-89.3
X181.843Y-85.53
X181.843Y-104.529
X181.843Y-123.579
X181.9Y-108.6
X181.9Y-129.1
X182.3Y-88.2
T2
X39.222Y-35.099
X53.222Y-60.599
X57.222Y-139.599
X88.0Y-35.099
X88.0Y-142.099
X93.0Y-142.2
X93.0Y-35.099
X165.778Y-37.599
X165.778Y-66.599
X185.343Y-142.099
T0
M30
