%TF.GenerationSoftware,KiCad,Pcbnew,7.0.7*%
%TF.CreationDate,2024-04-21T23:11:45+02:00*%
%TF.ProjectId,isokey_right,69736f6b-6579-45f7-9269-6768742e6b69,rev?*%
%TF.SameCoordinates,Original*%
%TF.FileFunction,Paste,Bot*%
%TF.FilePolarity,Positive*%
%FSLAX46Y46*%
G04 Gerber Fmt 4.6, Leading zero omitted, Abs format (unit mm)*
G04 Created by KiCad (PCBNEW 7.0.7) date 2024-04-21 23:11:45*
%MOMM*%
%LPD*%
G01*
G04 APERTURE LIST*
G04 Aperture macros list*
%AMRoundRect*
0 Rectangle with rounded corners*
0 $1 Rounding radius*
0 $2 $3 $4 $5 $6 $7 $8 $9 X,Y pos of 4 corners*
0 Add a 4 corners polygon primitive as box body*
4,1,4,$2,$3,$4,$5,$6,$7,$8,$9,$2,$3,0*
0 Add four circle primitives for the rounded corners*
1,1,$1+$1,$2,$3*
1,1,$1+$1,$4,$5*
1,1,$1+$1,$6,$7*
1,1,$1+$1,$8,$9*
0 Add four rect primitives between the rounded corners*
20,1,$1+$1,$2,$3,$4,$5,0*
20,1,$1+$1,$4,$5,$6,$7,0*
20,1,$1+$1,$6,$7,$8,$9,0*
20,1,$1+$1,$8,$9,$2,$3,0*%
G04 Aperture macros list end*
%ADD10RoundRect,0.100000X-0.900000X-0.400000X0.900000X-0.400000X0.900000X0.400000X-0.900000X0.400000X0*%
%ADD11RoundRect,0.225000X-0.375000X0.225000X-0.375000X-0.225000X0.375000X-0.225000X0.375000X0.225000X0*%
%ADD12R,1.500000X0.850000*%
%ADD13RoundRect,0.237500X-0.300000X-0.237500X0.300000X-0.237500X0.300000X0.237500X-0.300000X0.237500X0*%
%ADD14RoundRect,0.237500X0.300000X0.237500X-0.300000X0.237500X-0.300000X-0.237500X0.300000X-0.237500X0*%
%ADD15R,2.550000X2.500000*%
%ADD16RoundRect,0.237500X-0.237500X0.250000X-0.237500X-0.250000X0.237500X-0.250000X0.237500X0.250000X0*%
%ADD17RoundRect,0.237500X-0.237500X0.300000X-0.237500X-0.300000X0.237500X-0.300000X0.237500X0.300000X0*%
%ADD18RoundRect,0.237500X-0.250000X-0.237500X0.250000X-0.237500X0.250000X0.237500X-0.250000X0.237500X0*%
%ADD19RoundRect,0.237500X0.237500X-0.300000X0.237500X0.300000X-0.237500X0.300000X-0.237500X-0.300000X0*%
G04 APERTURE END LIST*
D10*
%TO.C,TP3*%
X89400988Y-77750099D03*
%TD*%
%TO.C,TP17*%
X89450988Y-41225075D03*
%TD*%
%TO.C,TP5*%
X89401000Y-119500088D03*
%TD*%
D11*
%TO.C,D9*%
X61877100Y-119179500D03*
X61877100Y-122479500D03*
%TD*%
%TO.C,D13*%
X84737450Y-69650200D03*
X84737450Y-72950200D03*
%TD*%
D12*
%TO.C,D52*%
X81469400Y-133299800D03*
X81469400Y-134849800D03*
X75769400Y-134849800D03*
X75769400Y-133299800D03*
%TD*%
D13*
%TO.C,C10*%
X51025550Y-27241900D03*
X52750550Y-27241900D03*
%TD*%
D12*
%TO.C,D42*%
X56227100Y-122821000D03*
X56227100Y-124371000D03*
X50527100Y-124371000D03*
X50527100Y-122821000D03*
%TD*%
%TO.C,D50*%
X75769400Y-112941700D03*
X75769400Y-111391700D03*
X81469400Y-111391700D03*
X81469400Y-112941700D03*
%TD*%
D11*
%TO.C,D1*%
X65688050Y-47741900D03*
X65688050Y-51041900D03*
%TD*%
D12*
%TO.C,D7*%
X66963050Y-29916900D03*
X66963050Y-28366900D03*
X72663050Y-28366900D03*
X72663050Y-29916900D03*
%TD*%
D11*
%TO.C,D23*%
X81879950Y-88700200D03*
X81879950Y-92000200D03*
%TD*%
D12*
%TO.C,D39*%
X73387450Y-74841700D03*
X73387450Y-73291700D03*
X79087450Y-73291700D03*
X79087450Y-74841700D03*
%TD*%
%TO.C,D25*%
X83850650Y-54241400D03*
X83850650Y-55791400D03*
X78150650Y-55791400D03*
X78150650Y-54241400D03*
%TD*%
D14*
%TO.C,C3*%
X70438050Y-95891900D03*
X68713050Y-95891900D03*
%TD*%
D13*
%TO.C,C5*%
X83438050Y-114391900D03*
X85163050Y-114391900D03*
%TD*%
D12*
%TO.C,D29*%
X54963050Y-29916900D03*
X54963050Y-28366900D03*
X60663050Y-28366900D03*
X60663050Y-29916900D03*
%TD*%
D11*
%TO.C,D33*%
X87188050Y-107741900D03*
X87188050Y-111041900D03*
%TD*%
D13*
%TO.C,C11*%
X62925550Y-27441900D03*
X64650550Y-27441900D03*
%TD*%
D14*
%TO.C,C7*%
X48050550Y-122891900D03*
X46325550Y-122891900D03*
%TD*%
D12*
%TO.C,D20*%
X60038050Y-51383400D03*
X60038050Y-52933400D03*
X54338050Y-52933400D03*
X54338050Y-51383400D03*
%TD*%
D11*
%TO.C,D3*%
X89500650Y-50599900D03*
X89500650Y-53899900D03*
%TD*%
D12*
%TO.C,D30*%
X42963050Y-29916900D03*
X42963050Y-28366900D03*
X48663050Y-28366900D03*
X48663050Y-29916900D03*
%TD*%
D13*
%TO.C,C13*%
X74425550Y-27641900D03*
X76150550Y-27641900D03*
%TD*%
D12*
%TO.C,D40*%
X76229950Y-92341700D03*
X76229950Y-93891700D03*
X70529950Y-93891700D03*
X70529950Y-92341700D03*
%TD*%
D10*
%TO.C,TP8*%
X89401000Y-124000088D03*
%TD*%
%TO.C,TP7*%
X89401000Y-122500088D03*
%TD*%
%TO.C,TP18*%
X89450988Y-39775075D03*
%TD*%
%TO.C,TP4*%
X89400988Y-58800099D03*
%TD*%
%TO.C,TP11*%
X89401000Y-132500088D03*
%TD*%
%TO.C,TP16*%
X89400988Y-79172938D03*
%TD*%
%TO.C,TP13*%
X89401000Y-135500088D03*
%TD*%
%TO.C,TP6*%
X89401000Y-121000088D03*
%TD*%
D15*
%TO.C,SW33*%
X84909400Y-102070200D03*
X71059400Y-104610200D03*
%TD*%
D10*
%TO.C,TP9*%
X89401000Y-125500088D03*
%TD*%
D15*
%TO.C,SW41*%
X84909400Y-123978300D03*
X71059400Y-126518300D03*
%TD*%
D10*
%TO.C,TP15*%
X89400988Y-60250099D03*
%TD*%
%TO.C,TP1*%
X89401000Y-127500088D03*
%TD*%
D15*
%TO.C,SW23*%
X79669950Y-83020200D03*
X65819950Y-85560200D03*
%TD*%
D10*
%TO.C,TP2*%
X89401000Y-129000088D03*
%TD*%
D15*
%TO.C,SW1*%
X63478050Y-42061900D03*
X49628050Y-44601900D03*
%TD*%
%TO.C,SW3*%
X87290650Y-44919900D03*
X73440650Y-47459900D03*
%TD*%
D14*
%TO.C,C19*%
X52300550Y-49891900D03*
X50575550Y-49891900D03*
%TD*%
D16*
%TO.C,R4*%
X86288050Y-128941900D03*
X86288050Y-130766900D03*
%TD*%
D15*
%TO.C,SW13*%
X82527450Y-63970200D03*
X68677450Y-66510200D03*
%TD*%
D14*
%TO.C,C17*%
X75300550Y-55749900D03*
X73575550Y-55749900D03*
%TD*%
D13*
%TO.C,C15*%
X80963050Y-76391900D03*
X82688050Y-76391900D03*
%TD*%
D11*
%TO.C,D43*%
X84188050Y-131941900D03*
X84188050Y-135241900D03*
%TD*%
D10*
%TO.C,TP12*%
X89401000Y-134000088D03*
%TD*%
D14*
%TO.C,C1*%
X73550550Y-134891900D03*
X71825550Y-134891900D03*
%TD*%
D10*
%TO.C,TP10*%
X89401000Y-131000088D03*
%TD*%
%TO.C,TP14*%
X89401000Y-137000088D03*
%TD*%
D15*
%TO.C,SW9*%
X59667100Y-113499500D03*
X45817100Y-116039500D03*
%TD*%
%TO.C,SW3*%
X125340000Y-44920000D03*
X111490000Y-47460000D03*
%TD*%
%TO.C,SW13*%
X125340000Y-63970150D03*
X111490000Y-66510150D03*
%TD*%
%TO.C,SW33*%
X137721000Y-107784800D03*
X123871000Y-110324800D03*
%TD*%
D10*
%TO.C,TP10*%
X91600000Y-131000000D03*
%TD*%
%TO.C,TP14*%
X91600000Y-137000000D03*
%TD*%
D15*
%TO.C,SW27*%
X179633000Y-94449450D03*
X165783000Y-96989450D03*
%TD*%
D10*
%TO.C,TP1*%
X91600000Y-127500000D03*
%TD*%
D15*
%TO.C,SW31*%
X108672000Y-102070150D03*
X94822000Y-104610150D03*
%TD*%
D10*
%TO.C,TP2*%
X91600000Y-129000000D03*
%TD*%
D15*
%TO.C,SW1*%
X106290000Y-44920000D03*
X92440000Y-47460000D03*
%TD*%
D10*
%TO.C,TP15*%
X91700000Y-60250000D03*
%TD*%
D15*
%TO.C,SW41*%
X137721000Y-126834850D03*
X123871000Y-129374850D03*
%TD*%
%TO.C,SW17*%
X179633000Y-75449750D03*
X165783000Y-77989750D03*
%TD*%
D10*
%TO.C,TP9*%
X91600000Y-125500000D03*
%TD*%
D15*
%TO.C,SW23*%
X125340000Y-83020300D03*
X111490000Y-85560300D03*
%TD*%
D10*
%TO.C,TP6*%
X91600000Y-121000000D03*
%TD*%
%TO.C,TP13*%
X91600000Y-135500000D03*
%TD*%
%TO.C,TP16*%
X91700000Y-79172839D03*
%TD*%
%TO.C,TP11*%
X91600000Y-132500000D03*
%TD*%
D15*
%TO.C,SW21*%
X106290000Y-83020300D03*
X92440000Y-85560300D03*
%TD*%
%TO.C,SW9*%
X118671000Y-126834850D03*
X104821000Y-129374850D03*
%TD*%
%TO.C,SW15*%
X151534000Y-73495150D03*
X137684000Y-76035150D03*
%TD*%
%TO.C,SW43*%
X156771000Y-126834850D03*
X142921000Y-129374850D03*
%TD*%
%TO.C,SW11*%
X106290000Y-63970150D03*
X92440000Y-66510150D03*
%TD*%
D10*
%TO.C,TP3*%
X91700000Y-77750000D03*
%TD*%
D15*
%TO.C,SW5*%
X153915000Y-44920000D03*
X140065000Y-47460000D03*
%TD*%
D10*
%TO.C,TP5*%
X91600000Y-119500000D03*
%TD*%
%TO.C,TP4*%
X91700000Y-58800000D03*
%TD*%
%TO.C,TP7*%
X91600000Y-122500000D03*
%TD*%
%TO.C,TP8*%
X91600000Y-124000000D03*
%TD*%
D15*
%TO.C,SW37*%
X179633000Y-113499450D03*
X165783000Y-116039450D03*
%TD*%
D10*
%TO.C,TP12*%
X91600000Y-134000000D03*
%TD*%
D17*
%TO.C,C1*%
X108500000Y-111300000D03*
X108500000Y-113025000D03*
%TD*%
D12*
%TO.C,D61*%
X115231000Y-136156350D03*
X115231000Y-137706350D03*
X109531000Y-137706350D03*
X109531000Y-136156350D03*
%TD*%
D14*
%TO.C,C33*%
X94612500Y-56000000D03*
X92887500Y-56000000D03*
%TD*%
D18*
%TO.C,R4*%
X94400000Y-129000000D03*
X96225000Y-129000000D03*
%TD*%
D14*
%TO.C,C17*%
X113862500Y-55750000D03*
X112137500Y-55750000D03*
%TD*%
%TO.C,C27*%
X142362500Y-56000000D03*
X140637500Y-56000000D03*
%TD*%
D12*
%TO.C,D69*%
X132150000Y-32775000D03*
X132150000Y-31225000D03*
X137850000Y-31225000D03*
X137850000Y-32775000D03*
%TD*%
D11*
%TO.C,D43*%
X139931000Y-132514850D03*
X139931000Y-135814850D03*
%TD*%
D13*
%TO.C,C37*%
X163887500Y-31250000D03*
X165612500Y-31250000D03*
%TD*%
D19*
%TO.C,C15*%
X179500000Y-124362500D03*
X179500000Y-122637500D03*
%TD*%
D11*
%TO.C,D5*%
X156125000Y-50600000D03*
X156125000Y-53900000D03*
%TD*%
D12*
%TO.C,D57*%
X134281000Y-136156350D03*
X134281000Y-137706350D03*
X128581000Y-137706350D03*
X128581000Y-136156350D03*
%TD*%
%TO.C,D60*%
X99532000Y-112941650D03*
X99532000Y-111391650D03*
X105232000Y-111391650D03*
X105232000Y-112941650D03*
%TD*%
D11*
%TO.C,D33*%
X139931000Y-113464800D03*
X139931000Y-116764800D03*
%TD*%
D12*
%TO.C,D63*%
X153331000Y-136156350D03*
X153331000Y-137706350D03*
X147631000Y-137706350D03*
X147631000Y-136156350D03*
%TD*%
D17*
%TO.C,C19*%
X105750000Y-73137500D03*
X105750000Y-74862500D03*
%TD*%
%TO.C,C21*%
X125100000Y-73237500D03*
X125100000Y-74962500D03*
%TD*%
D12*
%TO.C,D40*%
X97150000Y-74841650D03*
X97150000Y-73291650D03*
X102850000Y-73291650D03*
X102850000Y-74841650D03*
%TD*%
D11*
%TO.C,D17*%
X181843000Y-81129750D03*
X181843000Y-84429750D03*
%TD*%
%TO.C,D27*%
X181843000Y-100129450D03*
X181843000Y-103429450D03*
%TD*%
D17*
%TO.C,C13*%
X179250000Y-84637500D03*
X179250000Y-86362500D03*
%TD*%
D12*
%TO.C,D30*%
X150475000Y-54241500D03*
X150475000Y-55791500D03*
X144775000Y-55791500D03*
X144775000Y-54241500D03*
%TD*%
D11*
%TO.C,D3*%
X127550000Y-50255411D03*
X127550000Y-53555411D03*
%TD*%
D12*
%TO.C,D20*%
X170493000Y-86321250D03*
X170493000Y-84771250D03*
X176193000Y-84771250D03*
X176193000Y-86321250D03*
%TD*%
D14*
%TO.C,C7*%
X113975000Y-94000000D03*
X112250000Y-94000000D03*
%TD*%
D13*
%TO.C,C34*%
X139887500Y-31250000D03*
X141612500Y-31250000D03*
%TD*%
D11*
%TO.C,D31*%
X110882000Y-107750150D03*
X110882000Y-111050150D03*
%TD*%
D14*
%TO.C,C11*%
X126362500Y-137750000D03*
X124637500Y-137750000D03*
%TD*%
D12*
%TO.C,D66*%
X144150000Y-32775000D03*
X144150000Y-31225000D03*
X149850000Y-31225000D03*
X149850000Y-32775000D03*
%TD*%
D17*
%TO.C,C30*%
X151250000Y-82637500D03*
X151250000Y-84362500D03*
%TD*%
D12*
%TO.C,D29*%
X121900000Y-54241500D03*
X121900000Y-55791500D03*
X116200000Y-55791500D03*
X116200000Y-54241500D03*
%TD*%
D14*
%TO.C,C5*%
X107362500Y-137750000D03*
X105637500Y-137750000D03*
%TD*%
D17*
%TO.C,C3*%
X137600000Y-116837500D03*
X137600000Y-118562500D03*
%TD*%
D11*
%TO.C,D15*%
X153744000Y-79175150D03*
X153744000Y-82475150D03*
%TD*%
%TO.C,D21*%
X108500000Y-88700300D03*
X108500000Y-92000300D03*
%TD*%
D12*
%TO.C,D25*%
X142394000Y-84366650D03*
X142394000Y-82816650D03*
X148094000Y-82816650D03*
X148094000Y-84366650D03*
%TD*%
D11*
%TO.C,D45*%
X158981000Y-132514850D03*
X158981000Y-135814850D03*
%TD*%
D12*
%TO.C,D39*%
X116200000Y-74841650D03*
X116200000Y-73291650D03*
X121900000Y-73291650D03*
X121900000Y-74841650D03*
%TD*%
D14*
%TO.C,C9*%
X145362500Y-137750000D03*
X143637500Y-137750000D03*
%TD*%
D12*
%TO.C,D53*%
X170493000Y-124370950D03*
X170493000Y-122820950D03*
X176193000Y-122820950D03*
X176193000Y-124370950D03*
%TD*%
%TO.C,D7*%
X102850000Y-54241500D03*
X102850000Y-55791500D03*
X97150000Y-55791500D03*
X97150000Y-54241500D03*
%TD*%
D11*
%TO.C,D1*%
X108500000Y-50600000D03*
X108500000Y-53900000D03*
%TD*%
D13*
%TO.C,C31*%
X151887500Y-31250000D03*
X153612500Y-31250000D03*
%TD*%
D11*
%TO.C,D37*%
X181843000Y-119179450D03*
X181843000Y-122479450D03*
%TD*%
%TO.C,D13*%
X127550000Y-69650150D03*
X127550000Y-72950150D03*
%TD*%
D12*
%TO.C,D64*%
X156150000Y-32775000D03*
X156150000Y-31225000D03*
X161850000Y-31225000D03*
X161850000Y-32775000D03*
%TD*%
%TO.C,D50*%
X102850000Y-92341800D03*
X102850000Y-93891800D03*
X97150000Y-93891800D03*
X97150000Y-92341800D03*
%TD*%
%TO.C,D42*%
X121900000Y-92341800D03*
X121900000Y-93891800D03*
X116200000Y-93891800D03*
X116200000Y-92341800D03*
%TD*%
D11*
%TO.C,D23*%
X127550000Y-88700300D03*
X127550000Y-92000300D03*
%TD*%
D12*
%TO.C,D54*%
X128581000Y-118656300D03*
X128581000Y-117106300D03*
X134281000Y-117106300D03*
X134281000Y-118656300D03*
%TD*%
D17*
%TO.C,C25*%
X94200000Y-77637500D03*
X94200000Y-79362500D03*
%TD*%
D12*
%TO.C,D52*%
X176193000Y-103770950D03*
X176193000Y-105320950D03*
X170493000Y-105320950D03*
X170493000Y-103770950D03*
%TD*%
D11*
%TO.C,D11*%
X108500000Y-69650150D03*
X108500000Y-72950150D03*
%TD*%
D14*
%TO.C,C23*%
X168112500Y-105500000D03*
X166387500Y-105500000D03*
%TD*%
D11*
%TO.C,D9*%
X120881000Y-132514850D03*
X120881000Y-135814850D03*
%TD*%
M02*
