%TF.GenerationSoftware,KiCad,Pcbnew,7.0.7*%
%TF.CreationDate,2024-04-21T23:11:33+02:00*%
%TF.ProjectId,isokey_right,69736f6b-6579-45f7-9269-6768742e6b69,rev?*%
%TF.SameCoordinates,Original*%
%TF.FileFunction,Drillmap*%
%TF.FilePolarity,Positive*%
%FSLAX45Y45*%
G04 Gerber Fmt 4.5, Leading zero omitted, Abs format (unit mm)*
G04 Created by KiCad (PCBNEW 7.0.7) date 2024-04-21 23:11:33*
%MOMM*%
%LPD*%
G01*
G04 APERTURE LIST*
%ADD10C,0.250000*%
%ADD11C,0.200000*%
%ADD12C,0.170180*%
%ADD13C,0.300000*%
%ADD14C,0.398780*%
G04 APERTURE END LIST*
D10*
X4122201Y-12759891D02*
G75*
G03*
X4422201Y-13059891I299998J-2D01*
G01*
X4268830Y-4117904D02*
G75*
G03*
X3968830Y-3817904I-300003J-3D01*
G01*
X4122201Y-12759891D02*
X4122201Y-11140267D01*
X4619591Y-10642877D02*
G75*
G03*
X4122201Y-11140267I0J-497390D01*
G01*
X5222201Y-13359891D02*
X5222201Y-13859891D01*
X4422201Y-13059891D02*
X4922201Y-13059891D01*
X5222201Y-13859891D02*
G75*
G03*
X5822201Y-14459891I599998J-3D01*
G01*
X8800025Y-14459891D02*
X5822201Y-14459891D01*
X9050025Y-3509891D02*
G75*
G03*
X8800025Y-3259891I-249993J8D01*
G01*
X3922201Y-2359891D02*
G75*
G03*
X3622201Y-2659891I-2J-299998D01*
G01*
X5327314Y-8632560D02*
G75*
G03*
X5299120Y-8504256I-300040J1318D01*
G01*
X8800025Y-14459891D02*
G75*
G03*
X9050025Y-14209891I-6J250006D01*
G01*
X4268830Y-5780081D02*
X4268830Y-4117904D01*
X3622201Y-3517904D02*
G75*
G03*
X3922201Y-3817904I299996J-4D01*
G01*
X5222201Y-9759891D02*
G75*
G03*
X5327314Y-8632560I-1090486J670243D01*
G01*
X5403711Y-7862155D02*
G75*
G03*
X5464274Y-7768203I-217498J206699D01*
G01*
X4268830Y-5780081D02*
G75*
G03*
X4519018Y-6075917I299999J-1D01*
G01*
X5464274Y-7768203D02*
G75*
G03*
X4519018Y-6075917I-1151588J466898D01*
G01*
X7922201Y-2659891D02*
G75*
G03*
X7622201Y-2359891I-300003J-3D01*
G01*
X7922201Y-2959891D02*
G75*
G03*
X8222201Y-3259891I299998J-2D01*
G01*
X7622201Y-2359891D02*
X3922201Y-2359891D01*
X3922201Y-3817904D02*
X3968830Y-3817904D01*
X3622201Y-2659891D02*
X3622201Y-3517904D01*
X5403711Y-7862155D02*
G75*
G03*
X5299120Y-8504256I418489J-397737D01*
G01*
X7922201Y-2659891D02*
X7922201Y-2959891D01*
X4619591Y-10642877D02*
G75*
G03*
X5222201Y-9759891I-52547J682986D01*
G01*
X8222201Y-3259891D02*
X8800025Y-3259891D01*
X5222201Y-13359891D02*
G75*
G03*
X4922201Y-13059891I-300003J-3D01*
G01*
X9050025Y-3509891D02*
X9050025Y-14209891D01*
X9050019Y-14209891D02*
G75*
G03*
X9300025Y-14459891I250011J11D01*
G01*
X16919658Y-3467113D02*
G75*
G03*
X16928544Y-3751075I145172J-137577D01*
G01*
X17087293Y-6011368D02*
G75*
G03*
X17166732Y-5699985I-570533J311378D01*
G01*
X18034250Y-6602990D02*
X17438409Y-6602990D01*
X17166732Y-5699985D02*
X17166722Y-4266063D01*
X17166720Y-4266063D02*
G75*
G03*
X16928544Y-3751075I-675840J3D01*
G01*
X12700000Y-3550000D02*
G75*
G03*
X12930000Y-3320000I0J230000D01*
G01*
X18784250Y-14209891D02*
X18784250Y-7352990D01*
X9533711Y-3421063D02*
G75*
G03*
X9050025Y-3509891I-233687J-88824D01*
G01*
X9533711Y-3421063D02*
G75*
G03*
X9720661Y-3550000I186949J71063D01*
G01*
X13500000Y-2630725D02*
G75*
G03*
X12930725Y-3200000I0J-569275D01*
G01*
X12930725Y-3200000D02*
X12930725Y-3320000D01*
X9050025Y-3509891D02*
X9050025Y-14209891D01*
X16919661Y-3467115D02*
G75*
G03*
X16560000Y-2630725I-359661J340865D01*
G01*
X17087295Y-6011369D02*
G75*
G03*
X17438409Y-6602990I351115J-191621D01*
G01*
X9300025Y-14459891D02*
X18534250Y-14459891D01*
X18784250Y-7352990D02*
G75*
G03*
X18034250Y-6602990I-750000J0D01*
G01*
X16560000Y-2630725D02*
X13500000Y-2630725D01*
X18534250Y-14459890D02*
G75*
G03*
X18784250Y-14209891I0J250000D01*
G01*
X12700000Y-3550000D02*
X9720661Y-3550000D01*
D11*
D12*
X4744620Y-11772860D02*
X4914800Y-11943040D01*
X4914800Y-11772860D02*
X4744620Y-11943040D01*
X4744620Y-11772860D02*
X4914800Y-11943040D01*
X4914800Y-11772860D02*
X4744620Y-11943040D01*
X5125715Y-4629100D02*
X5295895Y-4799280D01*
X5295895Y-4629100D02*
X5125715Y-4799280D01*
X5125715Y-4629100D02*
X5295895Y-4799280D01*
X5295895Y-4629100D02*
X5125715Y-4799280D01*
X5760620Y-11772860D02*
X5930800Y-11943040D01*
X5930800Y-11772860D02*
X5760620Y-11943040D01*
X5760620Y-11772860D02*
X5930800Y-11943040D01*
X5930800Y-11772860D02*
X5760620Y-11943040D01*
X6141715Y-4629100D02*
X6311895Y-4799280D01*
X6311895Y-4629100D02*
X6141715Y-4799280D01*
X6141715Y-4629100D02*
X6311895Y-4799280D01*
X6311895Y-4629100D02*
X6141715Y-4799280D01*
X6744905Y-8724930D02*
X6915085Y-8895110D01*
X6915085Y-8724930D02*
X6744905Y-8895110D01*
X6744905Y-8724930D02*
X6915085Y-8895110D01*
X6915085Y-8724930D02*
X6744905Y-8895110D01*
X7030655Y-6819930D02*
X7200835Y-6990110D01*
X7200835Y-6819930D02*
X7030655Y-6990110D01*
X7030655Y-6819930D02*
X7200835Y-6990110D01*
X7200835Y-6819930D02*
X7030655Y-6990110D01*
X7268850Y-10629930D02*
X7439030Y-10800110D01*
X7439030Y-10629930D02*
X7268850Y-10800110D01*
X7268850Y-10629930D02*
X7439030Y-10800110D01*
X7439030Y-10629930D02*
X7268850Y-10800110D01*
X7268850Y-12820740D02*
X7439030Y-12990920D01*
X7439030Y-12820740D02*
X7268850Y-12990920D01*
X7268850Y-12820740D02*
X7439030Y-12990920D01*
X7439030Y-12820740D02*
X7268850Y-12990920D01*
X7506975Y-4914900D02*
X7677155Y-5085080D01*
X7677155Y-4914900D02*
X7506975Y-5085080D01*
X7506975Y-4914900D02*
X7677155Y-5085080D01*
X7677155Y-4914900D02*
X7506975Y-5085080D01*
X7760905Y-8724930D02*
X7931085Y-8895110D01*
X7931085Y-8724930D02*
X7760905Y-8895110D01*
X7760905Y-8724930D02*
X7931085Y-8895110D01*
X7931085Y-8724930D02*
X7760905Y-8895110D01*
X8046655Y-6819930D02*
X8216835Y-6990110D01*
X8216835Y-6819930D02*
X8046655Y-6990110D01*
X8046655Y-6819930D02*
X8216835Y-6990110D01*
X8216835Y-6819930D02*
X8046655Y-6990110D01*
X8284850Y-10629930D02*
X8455030Y-10800110D01*
X8455030Y-10629930D02*
X8284850Y-10800110D01*
X8284850Y-10629930D02*
X8455030Y-10800110D01*
X8455030Y-10629930D02*
X8284850Y-10800110D01*
X8284850Y-12820740D02*
X8455030Y-12990920D01*
X8455030Y-12820740D02*
X8284850Y-12990920D01*
X8284850Y-12820740D02*
X8455030Y-12990920D01*
X8455030Y-12820740D02*
X8284850Y-12990920D01*
X8522975Y-4914900D02*
X8693155Y-5085080D01*
X8693155Y-4914900D02*
X8522975Y-5085080D01*
X8522975Y-4914900D02*
X8693155Y-5085080D01*
X8693155Y-4914900D02*
X8522975Y-5085080D01*
X9406910Y-4914910D02*
X9577090Y-5085090D01*
X9577090Y-4914910D02*
X9406910Y-5085090D01*
X9406910Y-4914910D02*
X9577090Y-5085090D01*
X9577090Y-4914910D02*
X9406910Y-5085090D01*
X9406910Y-6819925D02*
X9577090Y-6990105D01*
X9577090Y-6819925D02*
X9406910Y-6990105D01*
X9406910Y-6819925D02*
X9577090Y-6990105D01*
X9577090Y-6819925D02*
X9406910Y-6990105D01*
X9406910Y-8724940D02*
X9577090Y-8895120D01*
X9577090Y-8724940D02*
X9406910Y-8895120D01*
X9406910Y-8724940D02*
X9577090Y-8895120D01*
X9577090Y-8724940D02*
X9406910Y-8895120D01*
X9645110Y-10629925D02*
X9815290Y-10800105D01*
X9815290Y-10629925D02*
X9645110Y-10800105D01*
X9645110Y-10629925D02*
X9815290Y-10800105D01*
X9815290Y-10629925D02*
X9645110Y-10800105D01*
X10422910Y-4914910D02*
X10593090Y-5085090D01*
X10593090Y-4914910D02*
X10422910Y-5085090D01*
X10422910Y-4914910D02*
X10593090Y-5085090D01*
X10593090Y-4914910D02*
X10422910Y-5085090D01*
X10422910Y-6819925D02*
X10593090Y-6990105D01*
X10593090Y-6819925D02*
X10422910Y-6990105D01*
X10422910Y-6819925D02*
X10593090Y-6990105D01*
X10593090Y-6819925D02*
X10422910Y-6990105D01*
X10422910Y-8724940D02*
X10593090Y-8895120D01*
X10593090Y-8724940D02*
X10422910Y-8895120D01*
X10422910Y-8724940D02*
X10593090Y-8895120D01*
X10593090Y-8724940D02*
X10422910Y-8895120D01*
X10645010Y-13106395D02*
X10815190Y-13276575D01*
X10815190Y-13106395D02*
X10645010Y-13276575D01*
X10645010Y-13106395D02*
X10815190Y-13276575D01*
X10815190Y-13106395D02*
X10645010Y-13276575D01*
X10661110Y-10629925D02*
X10831290Y-10800105D01*
X10831290Y-10629925D02*
X10661110Y-10800105D01*
X10661110Y-10629925D02*
X10831290Y-10800105D01*
X10831290Y-10629925D02*
X10661110Y-10800105D01*
X11311910Y-4914910D02*
X11482090Y-5085090D01*
X11482090Y-4914910D02*
X11311910Y-5085090D01*
X11311910Y-4914910D02*
X11482090Y-5085090D01*
X11482090Y-4914910D02*
X11311910Y-5085090D01*
X11311910Y-6819925D02*
X11482090Y-6990105D01*
X11482090Y-6819925D02*
X11311910Y-6990105D01*
X11311910Y-6819925D02*
X11482090Y-6990105D01*
X11482090Y-6819925D02*
X11311910Y-6990105D01*
X11311910Y-8724940D02*
X11482090Y-8895120D01*
X11482090Y-8724940D02*
X11311910Y-8895120D01*
X11311910Y-8724940D02*
X11482090Y-8895120D01*
X11482090Y-8724940D02*
X11311910Y-8895120D01*
X11661010Y-13106395D02*
X11831190Y-13276575D01*
X11831190Y-13106395D02*
X11661010Y-13276575D01*
X11661010Y-13106395D02*
X11831190Y-13276575D01*
X11831190Y-13106395D02*
X11661010Y-13276575D01*
X12327910Y-4914910D02*
X12498090Y-5085090D01*
X12498090Y-4914910D02*
X12327910Y-5085090D01*
X12327910Y-4914910D02*
X12498090Y-5085090D01*
X12498090Y-4914910D02*
X12327910Y-5085090D01*
X12327910Y-6819925D02*
X12498090Y-6990105D01*
X12498090Y-6819925D02*
X12327910Y-6990105D01*
X12327910Y-6819925D02*
X12498090Y-6990105D01*
X12498090Y-6819925D02*
X12327910Y-6990105D01*
X12327910Y-8724940D02*
X12498090Y-8895120D01*
X12498090Y-8724940D02*
X12327910Y-8895120D01*
X12327910Y-8724940D02*
X12498090Y-8895120D01*
X12498090Y-8724940D02*
X12327910Y-8895120D01*
X12550010Y-11201390D02*
X12720190Y-11371570D01*
X12720190Y-11201390D02*
X12550010Y-11371570D01*
X12550010Y-11201390D02*
X12720190Y-11371570D01*
X12720190Y-11201390D02*
X12550010Y-11371570D01*
X12550010Y-13106395D02*
X12720190Y-13276575D01*
X12720190Y-13106395D02*
X12550010Y-13276575D01*
X12550010Y-13106395D02*
X12720190Y-13276575D01*
X12720190Y-13106395D02*
X12550010Y-13276575D01*
X13566010Y-11201390D02*
X13736190Y-11371570D01*
X13736190Y-11201390D02*
X13566010Y-11371570D01*
X13566010Y-11201390D02*
X13736190Y-11371570D01*
X13736190Y-11201390D02*
X13566010Y-11371570D01*
X13566010Y-13106395D02*
X13736190Y-13276575D01*
X13736190Y-13106395D02*
X13566010Y-13276575D01*
X13566010Y-13106395D02*
X13736190Y-13276575D01*
X13736190Y-13106395D02*
X13566010Y-13276575D01*
X13931310Y-7772425D02*
X14101490Y-7942605D01*
X14101490Y-7772425D02*
X13931310Y-7942605D01*
X13931310Y-7772425D02*
X14101490Y-7942605D01*
X14101490Y-7772425D02*
X13931310Y-7942605D01*
X14169410Y-4914910D02*
X14339590Y-5085090D01*
X14339590Y-4914910D02*
X14169410Y-5085090D01*
X14169410Y-4914910D02*
X14339590Y-5085090D01*
X14339590Y-4914910D02*
X14169410Y-5085090D01*
X14455010Y-13106395D02*
X14625190Y-13276575D01*
X14625190Y-13106395D02*
X14455010Y-13276575D01*
X14455010Y-13106395D02*
X14625190Y-13276575D01*
X14625190Y-13106395D02*
X14455010Y-13276575D01*
X14947310Y-7772425D02*
X15117490Y-7942605D01*
X15117490Y-7772425D02*
X14947310Y-7942605D01*
X14947310Y-7772425D02*
X15117490Y-7942605D01*
X15117490Y-7772425D02*
X14947310Y-7942605D01*
X15185410Y-4914910D02*
X15355590Y-5085090D01*
X15355590Y-4914910D02*
X15185410Y-5085090D01*
X15185410Y-4914910D02*
X15355590Y-5085090D01*
X15355590Y-4914910D02*
X15185410Y-5085090D01*
X15471010Y-13106395D02*
X15641190Y-13276575D01*
X15641190Y-13106395D02*
X15471010Y-13276575D01*
X15471010Y-13106395D02*
X15641190Y-13276575D01*
X15641190Y-13106395D02*
X15471010Y-13276575D01*
X16741210Y-7967885D02*
X16911390Y-8138065D01*
X16911390Y-7967885D02*
X16741210Y-8138065D01*
X16741210Y-7967885D02*
X16911390Y-8138065D01*
X16911390Y-7967885D02*
X16741210Y-8138065D01*
X16741210Y-9867855D02*
X16911390Y-10038035D01*
X16911390Y-9867855D02*
X16741210Y-10038035D01*
X16741210Y-9867855D02*
X16911390Y-10038035D01*
X16911390Y-9867855D02*
X16741210Y-10038035D01*
X16741210Y-11772855D02*
X16911390Y-11943035D01*
X16911390Y-11772855D02*
X16741210Y-11943035D01*
X16741210Y-11772855D02*
X16911390Y-11943035D01*
X16911390Y-11772855D02*
X16741210Y-11943035D01*
X17757210Y-7967885D02*
X17927390Y-8138065D01*
X17927390Y-7967885D02*
X17757210Y-8138065D01*
X17757210Y-7967885D02*
X17927390Y-8138065D01*
X17927390Y-7967885D02*
X17757210Y-8138065D01*
X17757210Y-9867855D02*
X17927390Y-10038035D01*
X17927390Y-9867855D02*
X17757210Y-10038035D01*
X17757210Y-9867855D02*
X17927390Y-10038035D01*
X17927390Y-9867855D02*
X17757210Y-10038035D01*
X17757210Y-11772855D02*
X17927390Y-11943035D01*
X17927390Y-11772855D02*
X17757210Y-11943035D01*
X17757210Y-11772855D02*
X17927390Y-11943035D01*
X17927390Y-11772855D02*
X17757210Y-11943035D01*
D13*
X5106710Y-11603950D02*
G75*
G03*
X5106710Y-11603950I-150000J0D01*
G01*
X5233710Y-11349950D02*
G75*
G03*
X5233710Y-11349950I-150000J0D01*
G01*
X5487805Y-4460190D02*
G75*
G03*
X5487805Y-4460190I-150000J0D01*
G01*
X5614805Y-4206190D02*
G75*
G03*
X5614805Y-4206190I-150000J0D01*
G01*
X5741710Y-11349950D02*
G75*
G03*
X5741710Y-11349950I-150000J0D01*
G01*
X5868710Y-11603950D02*
G75*
G03*
X5868710Y-11603950I-150000J0D01*
G01*
X6122805Y-4206190D02*
G75*
G03*
X6122805Y-4206190I-150000J0D01*
G01*
X6249805Y-4460190D02*
G75*
G03*
X6249805Y-4460190I-150000J0D01*
G01*
X7106995Y-8556020D02*
G75*
G03*
X7106995Y-8556020I-150000J0D01*
G01*
X7233995Y-8302020D02*
G75*
G03*
X7233995Y-8302020I-150000J0D01*
G01*
X7392745Y-6651020D02*
G75*
G03*
X7392745Y-6651020I-150000J0D01*
G01*
X7519745Y-6397020D02*
G75*
G03*
X7519745Y-6397020I-150000J0D01*
G01*
X7630940Y-10461020D02*
G75*
G03*
X7630940Y-10461020I-150000J0D01*
G01*
X7630940Y-12651830D02*
G75*
G03*
X7630940Y-12651830I-150000J0D01*
G01*
X7741995Y-8302020D02*
G75*
G03*
X7741995Y-8302020I-150000J0D01*
G01*
X7757940Y-10207020D02*
G75*
G03*
X7757940Y-10207020I-150000J0D01*
G01*
X7757940Y-12397830D02*
G75*
G03*
X7757940Y-12397830I-150000J0D01*
G01*
X7868995Y-8556020D02*
G75*
G03*
X7868995Y-8556020I-150000J0D01*
G01*
X7869065Y-4745990D02*
G75*
G03*
X7869065Y-4745990I-150000J0D01*
G01*
X7996065Y-4491990D02*
G75*
G03*
X7996065Y-4491990I-150000J0D01*
G01*
X8027745Y-6397020D02*
G75*
G03*
X8027745Y-6397020I-150000J0D01*
G01*
X8154745Y-6651020D02*
G75*
G03*
X8154745Y-6651020I-150000J0D01*
G01*
X8265940Y-10207020D02*
G75*
G03*
X8265940Y-10207020I-150000J0D01*
G01*
X8265940Y-12397830D02*
G75*
G03*
X8265940Y-12397830I-150000J0D01*
G01*
X8392940Y-10461020D02*
G75*
G03*
X8392940Y-10461020I-150000J0D01*
G01*
X8392940Y-12651830D02*
G75*
G03*
X8392940Y-12651830I-150000J0D01*
G01*
X8504065Y-4491990D02*
G75*
G03*
X8504065Y-4491990I-150000J0D01*
G01*
X8631065Y-4745990D02*
G75*
G03*
X8631065Y-4745990I-150000J0D01*
G01*
X9769000Y-4746000D02*
G75*
G03*
X9769000Y-4746000I-150000J0D01*
G01*
X9769000Y-6651015D02*
G75*
G03*
X9769000Y-6651015I-150000J0D01*
G01*
X9769000Y-8556030D02*
G75*
G03*
X9769000Y-8556030I-150000J0D01*
G01*
X9896000Y-4492000D02*
G75*
G03*
X9896000Y-4492000I-150000J0D01*
G01*
X9896000Y-6397015D02*
G75*
G03*
X9896000Y-6397015I-150000J0D01*
G01*
X9896000Y-8302030D02*
G75*
G03*
X9896000Y-8302030I-150000J0D01*
G01*
X10007200Y-10461015D02*
G75*
G03*
X10007200Y-10461015I-150000J0D01*
G01*
X10134200Y-10207015D02*
G75*
G03*
X10134200Y-10207015I-150000J0D01*
G01*
X10404000Y-4492000D02*
G75*
G03*
X10404000Y-4492000I-150000J0D01*
G01*
X10404000Y-6397015D02*
G75*
G03*
X10404000Y-6397015I-150000J0D01*
G01*
X10404000Y-8302030D02*
G75*
G03*
X10404000Y-8302030I-150000J0D01*
G01*
X10531000Y-4746000D02*
G75*
G03*
X10531000Y-4746000I-150000J0D01*
G01*
X10531000Y-6651015D02*
G75*
G03*
X10531000Y-6651015I-150000J0D01*
G01*
X10531000Y-8556030D02*
G75*
G03*
X10531000Y-8556030I-150000J0D01*
G01*
X10642200Y-10207015D02*
G75*
G03*
X10642200Y-10207015I-150000J0D01*
G01*
X10769200Y-10461015D02*
G75*
G03*
X10769200Y-10461015I-150000J0D01*
G01*
X11007100Y-12937485D02*
G75*
G03*
X11007100Y-12937485I-150000J0D01*
G01*
X11134100Y-12683485D02*
G75*
G03*
X11134100Y-12683485I-150000J0D01*
G01*
X11642100Y-12683485D02*
G75*
G03*
X11642100Y-12683485I-150000J0D01*
G01*
X11674000Y-4746000D02*
G75*
G03*
X11674000Y-4746000I-150000J0D01*
G01*
X11674000Y-6651015D02*
G75*
G03*
X11674000Y-6651015I-150000J0D01*
G01*
X11674000Y-8556030D02*
G75*
G03*
X11674000Y-8556030I-150000J0D01*
G01*
X11769100Y-12937485D02*
G75*
G03*
X11769100Y-12937485I-150000J0D01*
G01*
X11801000Y-4492000D02*
G75*
G03*
X11801000Y-4492000I-150000J0D01*
G01*
X11801000Y-6397015D02*
G75*
G03*
X11801000Y-6397015I-150000J0D01*
G01*
X11801000Y-8302030D02*
G75*
G03*
X11801000Y-8302030I-150000J0D01*
G01*
X12309000Y-4492000D02*
G75*
G03*
X12309000Y-4492000I-150000J0D01*
G01*
X12309000Y-6397015D02*
G75*
G03*
X12309000Y-6397015I-150000J0D01*
G01*
X12309000Y-8302030D02*
G75*
G03*
X12309000Y-8302030I-150000J0D01*
G01*
X12436000Y-4746000D02*
G75*
G03*
X12436000Y-4746000I-150000J0D01*
G01*
X12436000Y-6651015D02*
G75*
G03*
X12436000Y-6651015I-150000J0D01*
G01*
X12436000Y-8556030D02*
G75*
G03*
X12436000Y-8556030I-150000J0D01*
G01*
X12912100Y-11032480D02*
G75*
G03*
X12912100Y-11032480I-150000J0D01*
G01*
X12912100Y-12937485D02*
G75*
G03*
X12912100Y-12937485I-150000J0D01*
G01*
X13039100Y-10778480D02*
G75*
G03*
X13039100Y-10778480I-150000J0D01*
G01*
X13039100Y-12683485D02*
G75*
G03*
X13039100Y-12683485I-150000J0D01*
G01*
X13547100Y-10778480D02*
G75*
G03*
X13547100Y-10778480I-150000J0D01*
G01*
X13547100Y-12683485D02*
G75*
G03*
X13547100Y-12683485I-150000J0D01*
G01*
X13674100Y-11032480D02*
G75*
G03*
X13674100Y-11032480I-150000J0D01*
G01*
X13674100Y-12937485D02*
G75*
G03*
X13674100Y-12937485I-150000J0D01*
G01*
X14293400Y-7603515D02*
G75*
G03*
X14293400Y-7603515I-150000J0D01*
G01*
X14420400Y-7349515D02*
G75*
G03*
X14420400Y-7349515I-150000J0D01*
G01*
X14531500Y-4746000D02*
G75*
G03*
X14531500Y-4746000I-150000J0D01*
G01*
X14658500Y-4492000D02*
G75*
G03*
X14658500Y-4492000I-150000J0D01*
G01*
X14817100Y-12937485D02*
G75*
G03*
X14817100Y-12937485I-150000J0D01*
G01*
X14928400Y-7349515D02*
G75*
G03*
X14928400Y-7349515I-150000J0D01*
G01*
X14944100Y-12683485D02*
G75*
G03*
X14944100Y-12683485I-150000J0D01*
G01*
X15055400Y-7603515D02*
G75*
G03*
X15055400Y-7603515I-150000J0D01*
G01*
X15166500Y-4492000D02*
G75*
G03*
X15166500Y-4492000I-150000J0D01*
G01*
X15293500Y-4746000D02*
G75*
G03*
X15293500Y-4746000I-150000J0D01*
G01*
X15452100Y-12683485D02*
G75*
G03*
X15452100Y-12683485I-150000J0D01*
G01*
X15579100Y-12937485D02*
G75*
G03*
X15579100Y-12937485I-150000J0D01*
G01*
X17103300Y-7798975D02*
G75*
G03*
X17103300Y-7798975I-150000J0D01*
G01*
X17103300Y-9698945D02*
G75*
G03*
X17103300Y-9698945I-150000J0D01*
G01*
X17103300Y-11603945D02*
G75*
G03*
X17103300Y-11603945I-150000J0D01*
G01*
X17230300Y-7544975D02*
G75*
G03*
X17230300Y-7544975I-150000J0D01*
G01*
X17230300Y-9444945D02*
G75*
G03*
X17230300Y-9444945I-150000J0D01*
G01*
X17230300Y-11349945D02*
G75*
G03*
X17230300Y-11349945I-150000J0D01*
G01*
X17738300Y-7544975D02*
G75*
G03*
X17738300Y-7544975I-150000J0D01*
G01*
X17738300Y-9444945D02*
G75*
G03*
X17738300Y-9444945I-150000J0D01*
G01*
X17738300Y-11349945D02*
G75*
G03*
X17738300Y-11349945I-150000J0D01*
G01*
X17865300Y-7798975D02*
G75*
G03*
X17865300Y-7798975I-150000J0D01*
G01*
X17865300Y-9698945D02*
G75*
G03*
X17865300Y-9698945I-150000J0D01*
G01*
X17865300Y-11603945D02*
G75*
G03*
X17865300Y-11603945I-150000J0D01*
G01*
D14*
X5337710Y-11658560D02*
X5337710Y-12057340D01*
X5138320Y-11857950D02*
X5537100Y-11857950D01*
X5337710Y-11658560D02*
X5337710Y-12057340D01*
X5138320Y-11857950D02*
X5537100Y-11857950D01*
X5718805Y-4514800D02*
X5718805Y-4913580D01*
X5519415Y-4714190D02*
X5918195Y-4714190D01*
X5718805Y-4514800D02*
X5718805Y-4913580D01*
X5519415Y-4714190D02*
X5918195Y-4714190D01*
X7337995Y-8610630D02*
X7337995Y-9009410D01*
X7138605Y-8810020D02*
X7537385Y-8810020D01*
X7337995Y-8610630D02*
X7337995Y-9009410D01*
X7138605Y-8810020D02*
X7537385Y-8810020D01*
X7623745Y-6705630D02*
X7623745Y-7104410D01*
X7424355Y-6905020D02*
X7823135Y-6905020D01*
X7623745Y-6705630D02*
X7623745Y-7104410D01*
X7424355Y-6905020D02*
X7823135Y-6905020D01*
X7861940Y-10515630D02*
X7861940Y-10914410D01*
X7662550Y-10715020D02*
X8061330Y-10715020D01*
X7861940Y-10515630D02*
X7861940Y-10914410D01*
X7662550Y-10715020D02*
X8061330Y-10715020D01*
X7861940Y-12706440D02*
X7861940Y-13105220D01*
X7662550Y-12905830D02*
X8061330Y-12905830D01*
X7861940Y-12706440D02*
X7861940Y-13105220D01*
X7662550Y-12905830D02*
X8061330Y-12905830D01*
X8100065Y-4800600D02*
X8100065Y-5199380D01*
X7900675Y-4999990D02*
X8299455Y-4999990D01*
X8100065Y-4800600D02*
X8100065Y-5199380D01*
X7900675Y-4999990D02*
X8299455Y-4999990D01*
X10000000Y-4800610D02*
X10000000Y-5199390D01*
X9800610Y-5000000D02*
X10199390Y-5000000D01*
X10000000Y-4800610D02*
X10000000Y-5199390D01*
X9800610Y-5000000D02*
X10199390Y-5000000D01*
X10000000Y-6705625D02*
X10000000Y-7104405D01*
X9800610Y-6905015D02*
X10199390Y-6905015D01*
X10000000Y-6705625D02*
X10000000Y-7104405D01*
X9800610Y-6905015D02*
X10199390Y-6905015D01*
X10000000Y-8610640D02*
X10000000Y-9009420D01*
X9800610Y-8810030D02*
X10199390Y-8810030D01*
X10000000Y-8610640D02*
X10000000Y-9009420D01*
X9800610Y-8810030D02*
X10199390Y-8810030D01*
X10238200Y-10515625D02*
X10238200Y-10914405D01*
X10038810Y-10715015D02*
X10437590Y-10715015D01*
X10238200Y-10515625D02*
X10238200Y-10914405D01*
X10038810Y-10715015D02*
X10437590Y-10715015D01*
X11238100Y-12992095D02*
X11238100Y-13390875D01*
X11038710Y-13191485D02*
X11437490Y-13191485D01*
X11238100Y-12992095D02*
X11238100Y-13390875D01*
X11038710Y-13191485D02*
X11437490Y-13191485D01*
X11905000Y-4800610D02*
X11905000Y-5199390D01*
X11705610Y-5000000D02*
X12104390Y-5000000D01*
X11905000Y-4800610D02*
X11905000Y-5199390D01*
X11705610Y-5000000D02*
X12104390Y-5000000D01*
X11905000Y-6705625D02*
X11905000Y-7104405D01*
X11705610Y-6905015D02*
X12104390Y-6905015D01*
X11905000Y-6705625D02*
X11905000Y-7104405D01*
X11705610Y-6905015D02*
X12104390Y-6905015D01*
X11905000Y-8610640D02*
X11905000Y-9009420D01*
X11705610Y-8810030D02*
X12104390Y-8810030D01*
X11905000Y-8610640D02*
X11905000Y-9009420D01*
X11705610Y-8810030D02*
X12104390Y-8810030D01*
X13143100Y-11087090D02*
X13143100Y-11485870D01*
X12943710Y-11286480D02*
X13342490Y-11286480D01*
X13143100Y-11087090D02*
X13143100Y-11485870D01*
X12943710Y-11286480D02*
X13342490Y-11286480D01*
X13143100Y-12992095D02*
X13143100Y-13390875D01*
X12943710Y-13191485D02*
X13342490Y-13191485D01*
X13143100Y-12992095D02*
X13143100Y-13390875D01*
X12943710Y-13191485D02*
X13342490Y-13191485D01*
X14524400Y-7658125D02*
X14524400Y-8056905D01*
X14325010Y-7857515D02*
X14723790Y-7857515D01*
X14524400Y-7658125D02*
X14524400Y-8056905D01*
X14325010Y-7857515D02*
X14723790Y-7857515D01*
X14762500Y-4800610D02*
X14762500Y-5199390D01*
X14563110Y-5000000D02*
X14961890Y-5000000D01*
X14762500Y-4800610D02*
X14762500Y-5199390D01*
X14563110Y-5000000D02*
X14961890Y-5000000D01*
X15048100Y-12992095D02*
X15048100Y-13390875D01*
X14848710Y-13191485D02*
X15247490Y-13191485D01*
X15048100Y-12992095D02*
X15048100Y-13390875D01*
X14848710Y-13191485D02*
X15247490Y-13191485D01*
X17334300Y-7853585D02*
X17334300Y-8252365D01*
X17134910Y-8052975D02*
X17533690Y-8052975D01*
X17334300Y-7853585D02*
X17334300Y-8252365D01*
X17134910Y-8052975D02*
X17533690Y-8052975D01*
X17334300Y-9753555D02*
X17334300Y-10152335D01*
X17134910Y-9952945D02*
X17533690Y-9952945D01*
X17334300Y-9753555D02*
X17334300Y-10152335D01*
X17134910Y-9952945D02*
X17533690Y-9952945D01*
X17334300Y-11658555D02*
X17334300Y-12057335D01*
X17134910Y-11857945D02*
X17533690Y-11857945D01*
X17334300Y-11658555D02*
X17334300Y-12057335D01*
X17134910Y-11857945D02*
X17533690Y-11857945D01*
D11*
X3870478Y-14783875D02*
X3870478Y-14583875D01*
X3870478Y-14583875D02*
X3918097Y-14583875D01*
X3918097Y-14583875D02*
X3946668Y-14593399D01*
X3946668Y-14593399D02*
X3965716Y-14612447D01*
X3965716Y-14612447D02*
X3975240Y-14631494D01*
X3975240Y-14631494D02*
X3984763Y-14669589D01*
X3984763Y-14669589D02*
X3984763Y-14698161D01*
X3984763Y-14698161D02*
X3975240Y-14736256D01*
X3975240Y-14736256D02*
X3965716Y-14755304D01*
X3965716Y-14755304D02*
X3946668Y-14774351D01*
X3946668Y-14774351D02*
X3918097Y-14783875D01*
X3918097Y-14783875D02*
X3870478Y-14783875D01*
X4070478Y-14783875D02*
X4070478Y-14650542D01*
X4070478Y-14688637D02*
X4080001Y-14669589D01*
X4080001Y-14669589D02*
X4089525Y-14660066D01*
X4089525Y-14660066D02*
X4108573Y-14650542D01*
X4108573Y-14650542D02*
X4127621Y-14650542D01*
X4194287Y-14783875D02*
X4194287Y-14650542D01*
X4194287Y-14583875D02*
X4184763Y-14593399D01*
X4184763Y-14593399D02*
X4194287Y-14602923D01*
X4194287Y-14602923D02*
X4203811Y-14593399D01*
X4203811Y-14593399D02*
X4194287Y-14583875D01*
X4194287Y-14583875D02*
X4194287Y-14602923D01*
X4318097Y-14783875D02*
X4299049Y-14774351D01*
X4299049Y-14774351D02*
X4289525Y-14755304D01*
X4289525Y-14755304D02*
X4289525Y-14583875D01*
X4422859Y-14783875D02*
X4403811Y-14774351D01*
X4403811Y-14774351D02*
X4394287Y-14755304D01*
X4394287Y-14755304D02*
X4394287Y-14583875D01*
X4651430Y-14783875D02*
X4651430Y-14583875D01*
X4651430Y-14583875D02*
X4718097Y-14726732D01*
X4718097Y-14726732D02*
X4784763Y-14583875D01*
X4784763Y-14583875D02*
X4784763Y-14783875D01*
X4965716Y-14783875D02*
X4965716Y-14679113D01*
X4965716Y-14679113D02*
X4956192Y-14660066D01*
X4956192Y-14660066D02*
X4937144Y-14650542D01*
X4937144Y-14650542D02*
X4899049Y-14650542D01*
X4899049Y-14650542D02*
X4880002Y-14660066D01*
X4965716Y-14774351D02*
X4946668Y-14783875D01*
X4946668Y-14783875D02*
X4899049Y-14783875D01*
X4899049Y-14783875D02*
X4880002Y-14774351D01*
X4880002Y-14774351D02*
X4870478Y-14755304D01*
X4870478Y-14755304D02*
X4870478Y-14736256D01*
X4870478Y-14736256D02*
X4880002Y-14717208D01*
X4880002Y-14717208D02*
X4899049Y-14707685D01*
X4899049Y-14707685D02*
X4946668Y-14707685D01*
X4946668Y-14707685D02*
X4965716Y-14698161D01*
X5060954Y-14650542D02*
X5060954Y-14850542D01*
X5060954Y-14660066D02*
X5080002Y-14650542D01*
X5080002Y-14650542D02*
X5118097Y-14650542D01*
X5118097Y-14650542D02*
X5137144Y-14660066D01*
X5137144Y-14660066D02*
X5146668Y-14669589D01*
X5146668Y-14669589D02*
X5156192Y-14688637D01*
X5156192Y-14688637D02*
X5156192Y-14745780D01*
X5156192Y-14745780D02*
X5146668Y-14764827D01*
X5146668Y-14764827D02*
X5137144Y-14774351D01*
X5137144Y-14774351D02*
X5118097Y-14783875D01*
X5118097Y-14783875D02*
X5080002Y-14783875D01*
X5080002Y-14783875D02*
X5060954Y-14774351D01*
X5241906Y-14764827D02*
X5251430Y-14774351D01*
X5251430Y-14774351D02*
X5241906Y-14783875D01*
X5241906Y-14783875D02*
X5232383Y-14774351D01*
X5232383Y-14774351D02*
X5241906Y-14764827D01*
X5241906Y-14764827D02*
X5241906Y-14783875D01*
X5241906Y-14660066D02*
X5251430Y-14669589D01*
X5251430Y-14669589D02*
X5241906Y-14679113D01*
X5241906Y-14679113D02*
X5232383Y-14669589D01*
X5232383Y-14669589D02*
X5241906Y-14660066D01*
X5241906Y-14660066D02*
X5241906Y-14679113D01*
D12*
X3439521Y-15027301D02*
X3609701Y-15197481D01*
X3609701Y-15027301D02*
X3439521Y-15197481D01*
D11*
X3975240Y-15203875D02*
X3860954Y-15203875D01*
X3918097Y-15203875D02*
X3918097Y-15003875D01*
X3918097Y-15003875D02*
X3899049Y-15032447D01*
X3899049Y-15032447D02*
X3880001Y-15051494D01*
X3880001Y-15051494D02*
X3860954Y-15061018D01*
X4060954Y-15184827D02*
X4070478Y-15194351D01*
X4070478Y-15194351D02*
X4060954Y-15203875D01*
X4060954Y-15203875D02*
X4051430Y-15194351D01*
X4051430Y-15194351D02*
X4060954Y-15184827D01*
X4060954Y-15184827D02*
X4060954Y-15203875D01*
X4137144Y-15003875D02*
X4270478Y-15003875D01*
X4270478Y-15003875D02*
X4184763Y-15203875D01*
X4384763Y-15003875D02*
X4403811Y-15003875D01*
X4403811Y-15003875D02*
X4422859Y-15013399D01*
X4422859Y-15013399D02*
X4432383Y-15022923D01*
X4432383Y-15022923D02*
X4441906Y-15041970D01*
X4441906Y-15041970D02*
X4451430Y-15080066D01*
X4451430Y-15080066D02*
X4451430Y-15127685D01*
X4451430Y-15127685D02*
X4441906Y-15165780D01*
X4441906Y-15165780D02*
X4432383Y-15184827D01*
X4432383Y-15184827D02*
X4422859Y-15194351D01*
X4422859Y-15194351D02*
X4403811Y-15203875D01*
X4403811Y-15203875D02*
X4384763Y-15203875D01*
X4384763Y-15203875D02*
X4365716Y-15194351D01*
X4365716Y-15194351D02*
X4356192Y-15184827D01*
X4356192Y-15184827D02*
X4346668Y-15165780D01*
X4346668Y-15165780D02*
X4337144Y-15127685D01*
X4337144Y-15127685D02*
X4337144Y-15080066D01*
X4337144Y-15080066D02*
X4346668Y-15041970D01*
X4346668Y-15041970D02*
X4356192Y-15022923D01*
X4356192Y-15022923D02*
X4365716Y-15013399D01*
X4365716Y-15013399D02*
X4384763Y-15003875D01*
X4527621Y-15022923D02*
X4537144Y-15013399D01*
X4537144Y-15013399D02*
X4556192Y-15003875D01*
X4556192Y-15003875D02*
X4603811Y-15003875D01*
X4603811Y-15003875D02*
X4622859Y-15013399D01*
X4622859Y-15013399D02*
X4632383Y-15022923D01*
X4632383Y-15022923D02*
X4641906Y-15041970D01*
X4641906Y-15041970D02*
X4641906Y-15061018D01*
X4641906Y-15061018D02*
X4632383Y-15089589D01*
X4632383Y-15089589D02*
X4518097Y-15203875D01*
X4518097Y-15203875D02*
X4641906Y-15203875D01*
X4727621Y-15203875D02*
X4727621Y-15070542D01*
X4727621Y-15089589D02*
X4737144Y-15080066D01*
X4737144Y-15080066D02*
X4756192Y-15070542D01*
X4756192Y-15070542D02*
X4784764Y-15070542D01*
X4784764Y-15070542D02*
X4803811Y-15080066D01*
X4803811Y-15080066D02*
X4813335Y-15099113D01*
X4813335Y-15099113D02*
X4813335Y-15203875D01*
X4813335Y-15099113D02*
X4822859Y-15080066D01*
X4822859Y-15080066D02*
X4841906Y-15070542D01*
X4841906Y-15070542D02*
X4870478Y-15070542D01*
X4870478Y-15070542D02*
X4889525Y-15080066D01*
X4889525Y-15080066D02*
X4899049Y-15099113D01*
X4899049Y-15099113D02*
X4899049Y-15203875D01*
X4994287Y-15203875D02*
X4994287Y-15070542D01*
X4994287Y-15089589D02*
X5003811Y-15080066D01*
X5003811Y-15080066D02*
X5022859Y-15070542D01*
X5022859Y-15070542D02*
X5051430Y-15070542D01*
X5051430Y-15070542D02*
X5070478Y-15080066D01*
X5070478Y-15080066D02*
X5080002Y-15099113D01*
X5080002Y-15099113D02*
X5080002Y-15203875D01*
X5080002Y-15099113D02*
X5089525Y-15080066D01*
X5089525Y-15080066D02*
X5108573Y-15070542D01*
X5108573Y-15070542D02*
X5137144Y-15070542D01*
X5137144Y-15070542D02*
X5156192Y-15080066D01*
X5156192Y-15080066D02*
X5165716Y-15099113D01*
X5165716Y-15099113D02*
X5165716Y-15203875D01*
X5556192Y-14994351D02*
X5384764Y-15251494D01*
X5813335Y-15003875D02*
X5832383Y-15003875D01*
X5832383Y-15003875D02*
X5851430Y-15013399D01*
X5851430Y-15013399D02*
X5860954Y-15022923D01*
X5860954Y-15022923D02*
X5870478Y-15041970D01*
X5870478Y-15041970D02*
X5880002Y-15080066D01*
X5880002Y-15080066D02*
X5880002Y-15127685D01*
X5880002Y-15127685D02*
X5870478Y-15165780D01*
X5870478Y-15165780D02*
X5860954Y-15184827D01*
X5860954Y-15184827D02*
X5851430Y-15194351D01*
X5851430Y-15194351D02*
X5832383Y-15203875D01*
X5832383Y-15203875D02*
X5813335Y-15203875D01*
X5813335Y-15203875D02*
X5794287Y-15194351D01*
X5794287Y-15194351D02*
X5784764Y-15184827D01*
X5784764Y-15184827D02*
X5775240Y-15165780D01*
X5775240Y-15165780D02*
X5765716Y-15127685D01*
X5765716Y-15127685D02*
X5765716Y-15080066D01*
X5765716Y-15080066D02*
X5775240Y-15041970D01*
X5775240Y-15041970D02*
X5784764Y-15022923D01*
X5784764Y-15022923D02*
X5794287Y-15013399D01*
X5794287Y-15013399D02*
X5813335Y-15003875D01*
X5965716Y-15184827D02*
X5975240Y-15194351D01*
X5975240Y-15194351D02*
X5965716Y-15203875D01*
X5965716Y-15203875D02*
X5956192Y-15194351D01*
X5956192Y-15194351D02*
X5965716Y-15184827D01*
X5965716Y-15184827D02*
X5965716Y-15203875D01*
X6099049Y-15003875D02*
X6118097Y-15003875D01*
X6118097Y-15003875D02*
X6137145Y-15013399D01*
X6137145Y-15013399D02*
X6146668Y-15022923D01*
X6146668Y-15022923D02*
X6156192Y-15041970D01*
X6156192Y-15041970D02*
X6165716Y-15080066D01*
X6165716Y-15080066D02*
X6165716Y-15127685D01*
X6165716Y-15127685D02*
X6156192Y-15165780D01*
X6156192Y-15165780D02*
X6146668Y-15184827D01*
X6146668Y-15184827D02*
X6137145Y-15194351D01*
X6137145Y-15194351D02*
X6118097Y-15203875D01*
X6118097Y-15203875D02*
X6099049Y-15203875D01*
X6099049Y-15203875D02*
X6080002Y-15194351D01*
X6080002Y-15194351D02*
X6070478Y-15184827D01*
X6070478Y-15184827D02*
X6060954Y-15165780D01*
X6060954Y-15165780D02*
X6051430Y-15127685D01*
X6051430Y-15127685D02*
X6051430Y-15080066D01*
X6051430Y-15080066D02*
X6060954Y-15041970D01*
X6060954Y-15041970D02*
X6070478Y-15022923D01*
X6070478Y-15022923D02*
X6080002Y-15013399D01*
X6080002Y-15013399D02*
X6099049Y-15003875D01*
X6337145Y-15003875D02*
X6299049Y-15003875D01*
X6299049Y-15003875D02*
X6280002Y-15013399D01*
X6280002Y-15013399D02*
X6270478Y-15022923D01*
X6270478Y-15022923D02*
X6251430Y-15051494D01*
X6251430Y-15051494D02*
X6241906Y-15089589D01*
X6241906Y-15089589D02*
X6241906Y-15165780D01*
X6241906Y-15165780D02*
X6251430Y-15184827D01*
X6251430Y-15184827D02*
X6260954Y-15194351D01*
X6260954Y-15194351D02*
X6280002Y-15203875D01*
X6280002Y-15203875D02*
X6318097Y-15203875D01*
X6318097Y-15203875D02*
X6337145Y-15194351D01*
X6337145Y-15194351D02*
X6346668Y-15184827D01*
X6346668Y-15184827D02*
X6356192Y-15165780D01*
X6356192Y-15165780D02*
X6356192Y-15118161D01*
X6356192Y-15118161D02*
X6346668Y-15099113D01*
X6346668Y-15099113D02*
X6337145Y-15089589D01*
X6337145Y-15089589D02*
X6318097Y-15080066D01*
X6318097Y-15080066D02*
X6280002Y-15080066D01*
X6280002Y-15080066D02*
X6260954Y-15089589D01*
X6260954Y-15089589D02*
X6251430Y-15099113D01*
X6251430Y-15099113D02*
X6241906Y-15118161D01*
X6422859Y-15003875D02*
X6556192Y-15003875D01*
X6556192Y-15003875D02*
X6470478Y-15203875D01*
X6670478Y-15003875D02*
X6689526Y-15003875D01*
X6689526Y-15003875D02*
X6708573Y-15013399D01*
X6708573Y-15013399D02*
X6718097Y-15022923D01*
X6718097Y-15022923D02*
X6727621Y-15041970D01*
X6727621Y-15041970D02*
X6737145Y-15080066D01*
X6737145Y-15080066D02*
X6737145Y-15127685D01*
X6737145Y-15127685D02*
X6727621Y-15165780D01*
X6727621Y-15165780D02*
X6718097Y-15184827D01*
X6718097Y-15184827D02*
X6708573Y-15194351D01*
X6708573Y-15194351D02*
X6689526Y-15203875D01*
X6689526Y-15203875D02*
X6670478Y-15203875D01*
X6670478Y-15203875D02*
X6651430Y-15194351D01*
X6651430Y-15194351D02*
X6641906Y-15184827D01*
X6641906Y-15184827D02*
X6632383Y-15165780D01*
X6632383Y-15165780D02*
X6622859Y-15127685D01*
X6622859Y-15127685D02*
X6622859Y-15080066D01*
X6622859Y-15080066D02*
X6632383Y-15041970D01*
X6632383Y-15041970D02*
X6641906Y-15022923D01*
X6641906Y-15022923D02*
X6651430Y-15013399D01*
X6651430Y-15013399D02*
X6670478Y-15003875D01*
X6813335Y-15003875D02*
X6813335Y-15041970D01*
X6889526Y-15003875D02*
X6889526Y-15041970D01*
X7184764Y-15280066D02*
X7175240Y-15270542D01*
X7175240Y-15270542D02*
X7156192Y-15241970D01*
X7156192Y-15241970D02*
X7146668Y-15222923D01*
X7146668Y-15222923D02*
X7137145Y-15194351D01*
X7137145Y-15194351D02*
X7127621Y-15146732D01*
X7127621Y-15146732D02*
X7127621Y-15108637D01*
X7127621Y-15108637D02*
X7137145Y-15061018D01*
X7137145Y-15061018D02*
X7146668Y-15032447D01*
X7146668Y-15032447D02*
X7156192Y-15013399D01*
X7156192Y-15013399D02*
X7175240Y-14984827D01*
X7175240Y-14984827D02*
X7184764Y-14975304D01*
X7270478Y-15203875D02*
X7308573Y-15203875D01*
X7308573Y-15203875D02*
X7327621Y-15194351D01*
X7327621Y-15194351D02*
X7337145Y-15184827D01*
X7337145Y-15184827D02*
X7356192Y-15156256D01*
X7356192Y-15156256D02*
X7365716Y-15118161D01*
X7365716Y-15118161D02*
X7365716Y-15041970D01*
X7365716Y-15041970D02*
X7356192Y-15022923D01*
X7356192Y-15022923D02*
X7346668Y-15013399D01*
X7346668Y-15013399D02*
X7327621Y-15003875D01*
X7327621Y-15003875D02*
X7289526Y-15003875D01*
X7289526Y-15003875D02*
X7270478Y-15013399D01*
X7270478Y-15013399D02*
X7260954Y-15022923D01*
X7260954Y-15022923D02*
X7251430Y-15041970D01*
X7251430Y-15041970D02*
X7251430Y-15089589D01*
X7251430Y-15089589D02*
X7260954Y-15108637D01*
X7260954Y-15108637D02*
X7270478Y-15118161D01*
X7270478Y-15118161D02*
X7289526Y-15127685D01*
X7289526Y-15127685D02*
X7327621Y-15127685D01*
X7327621Y-15127685D02*
X7346668Y-15118161D01*
X7346668Y-15118161D02*
X7356192Y-15108637D01*
X7356192Y-15108637D02*
X7365716Y-15089589D01*
X7441907Y-15022923D02*
X7451430Y-15013399D01*
X7451430Y-15013399D02*
X7470478Y-15003875D01*
X7470478Y-15003875D02*
X7518097Y-15003875D01*
X7518097Y-15003875D02*
X7537145Y-15013399D01*
X7537145Y-15013399D02*
X7546668Y-15022923D01*
X7546668Y-15022923D02*
X7556192Y-15041970D01*
X7556192Y-15041970D02*
X7556192Y-15061018D01*
X7556192Y-15061018D02*
X7546668Y-15089589D01*
X7546668Y-15089589D02*
X7432383Y-15203875D01*
X7432383Y-15203875D02*
X7556192Y-15203875D01*
X7794288Y-15203875D02*
X7794288Y-15003875D01*
X7880002Y-15203875D02*
X7880002Y-15099113D01*
X7880002Y-15099113D02*
X7870478Y-15080066D01*
X7870478Y-15080066D02*
X7851430Y-15070542D01*
X7851430Y-15070542D02*
X7822859Y-15070542D01*
X7822859Y-15070542D02*
X7803811Y-15080066D01*
X7803811Y-15080066D02*
X7794288Y-15089589D01*
X8003811Y-15203875D02*
X7984764Y-15194351D01*
X7984764Y-15194351D02*
X7975240Y-15184827D01*
X7975240Y-15184827D02*
X7965716Y-15165780D01*
X7965716Y-15165780D02*
X7965716Y-15108637D01*
X7965716Y-15108637D02*
X7975240Y-15089589D01*
X7975240Y-15089589D02*
X7984764Y-15080066D01*
X7984764Y-15080066D02*
X8003811Y-15070542D01*
X8003811Y-15070542D02*
X8032383Y-15070542D01*
X8032383Y-15070542D02*
X8051430Y-15080066D01*
X8051430Y-15080066D02*
X8060954Y-15089589D01*
X8060954Y-15089589D02*
X8070478Y-15108637D01*
X8070478Y-15108637D02*
X8070478Y-15165780D01*
X8070478Y-15165780D02*
X8060954Y-15184827D01*
X8060954Y-15184827D02*
X8051430Y-15194351D01*
X8051430Y-15194351D02*
X8032383Y-15203875D01*
X8032383Y-15203875D02*
X8003811Y-15203875D01*
X8184764Y-15203875D02*
X8165716Y-15194351D01*
X8165716Y-15194351D02*
X8156192Y-15175304D01*
X8156192Y-15175304D02*
X8156192Y-15003875D01*
X8337145Y-15194351D02*
X8318097Y-15203875D01*
X8318097Y-15203875D02*
X8280002Y-15203875D01*
X8280002Y-15203875D02*
X8260954Y-15194351D01*
X8260954Y-15194351D02*
X8251430Y-15175304D01*
X8251430Y-15175304D02*
X8251430Y-15099113D01*
X8251430Y-15099113D02*
X8260954Y-15080066D01*
X8260954Y-15080066D02*
X8280002Y-15070542D01*
X8280002Y-15070542D02*
X8318097Y-15070542D01*
X8318097Y-15070542D02*
X8337145Y-15080066D01*
X8337145Y-15080066D02*
X8346669Y-15099113D01*
X8346669Y-15099113D02*
X8346669Y-15118161D01*
X8346669Y-15118161D02*
X8251430Y-15137208D01*
X8422859Y-15194351D02*
X8441907Y-15203875D01*
X8441907Y-15203875D02*
X8480002Y-15203875D01*
X8480002Y-15203875D02*
X8499050Y-15194351D01*
X8499050Y-15194351D02*
X8508573Y-15175304D01*
X8508573Y-15175304D02*
X8508573Y-15165780D01*
X8508573Y-15165780D02*
X8499050Y-15146732D01*
X8499050Y-15146732D02*
X8480002Y-15137208D01*
X8480002Y-15137208D02*
X8451431Y-15137208D01*
X8451431Y-15137208D02*
X8432383Y-15127685D01*
X8432383Y-15127685D02*
X8422859Y-15108637D01*
X8422859Y-15108637D02*
X8422859Y-15099113D01*
X8422859Y-15099113D02*
X8432383Y-15080066D01*
X8432383Y-15080066D02*
X8451431Y-15070542D01*
X8451431Y-15070542D02*
X8480002Y-15070542D01*
X8480002Y-15070542D02*
X8499050Y-15080066D01*
X8575240Y-15280066D02*
X8584764Y-15270542D01*
X8584764Y-15270542D02*
X8603812Y-15241970D01*
X8603812Y-15241970D02*
X8613335Y-15222923D01*
X8613335Y-15222923D02*
X8622859Y-15194351D01*
X8622859Y-15194351D02*
X8632383Y-15146732D01*
X8632383Y-15146732D02*
X8632383Y-15108637D01*
X8632383Y-15108637D02*
X8622859Y-15061018D01*
X8622859Y-15061018D02*
X8613335Y-15032447D01*
X8613335Y-15032447D02*
X8603812Y-15013399D01*
X8603812Y-15013399D02*
X8584764Y-14984827D01*
X8584764Y-14984827D02*
X8575240Y-14975304D01*
X8937145Y-15280066D02*
X8927621Y-15270542D01*
X8927621Y-15270542D02*
X8908573Y-15241970D01*
X8908573Y-15241970D02*
X8899050Y-15222923D01*
X8899050Y-15222923D02*
X8889526Y-15194351D01*
X8889526Y-15194351D02*
X8880002Y-15146732D01*
X8880002Y-15146732D02*
X8880002Y-15108637D01*
X8880002Y-15108637D02*
X8889526Y-15061018D01*
X8889526Y-15061018D02*
X8899050Y-15032447D01*
X8899050Y-15032447D02*
X8908573Y-15013399D01*
X8908573Y-15013399D02*
X8927621Y-14984827D01*
X8927621Y-14984827D02*
X8937145Y-14975304D01*
X9013335Y-15070542D02*
X9013335Y-15203875D01*
X9013335Y-15089589D02*
X9022859Y-15080066D01*
X9022859Y-15080066D02*
X9041907Y-15070542D01*
X9041907Y-15070542D02*
X9070478Y-15070542D01*
X9070478Y-15070542D02*
X9089526Y-15080066D01*
X9089526Y-15080066D02*
X9099050Y-15099113D01*
X9099050Y-15099113D02*
X9099050Y-15203875D01*
X9222859Y-15203875D02*
X9203812Y-15194351D01*
X9203812Y-15194351D02*
X9194288Y-15184827D01*
X9194288Y-15184827D02*
X9184764Y-15165780D01*
X9184764Y-15165780D02*
X9184764Y-15108637D01*
X9184764Y-15108637D02*
X9194288Y-15089589D01*
X9194288Y-15089589D02*
X9203812Y-15080066D01*
X9203812Y-15080066D02*
X9222859Y-15070542D01*
X9222859Y-15070542D02*
X9251431Y-15070542D01*
X9251431Y-15070542D02*
X9270478Y-15080066D01*
X9270478Y-15080066D02*
X9280002Y-15089589D01*
X9280002Y-15089589D02*
X9289526Y-15108637D01*
X9289526Y-15108637D02*
X9289526Y-15165780D01*
X9289526Y-15165780D02*
X9280002Y-15184827D01*
X9280002Y-15184827D02*
X9270478Y-15194351D01*
X9270478Y-15194351D02*
X9251431Y-15203875D01*
X9251431Y-15203875D02*
X9222859Y-15203875D01*
X9346669Y-15070542D02*
X9422859Y-15070542D01*
X9375240Y-15003875D02*
X9375240Y-15175304D01*
X9375240Y-15175304D02*
X9384764Y-15194351D01*
X9384764Y-15194351D02*
X9403812Y-15203875D01*
X9403812Y-15203875D02*
X9422859Y-15203875D01*
X9641907Y-15070542D02*
X9641907Y-15270542D01*
X9641907Y-15080066D02*
X9660954Y-15070542D01*
X9660954Y-15070542D02*
X9699050Y-15070542D01*
X9699050Y-15070542D02*
X9718097Y-15080066D01*
X9718097Y-15080066D02*
X9727621Y-15089589D01*
X9727621Y-15089589D02*
X9737145Y-15108637D01*
X9737145Y-15108637D02*
X9737145Y-15165780D01*
X9737145Y-15165780D02*
X9727621Y-15184827D01*
X9727621Y-15184827D02*
X9718097Y-15194351D01*
X9718097Y-15194351D02*
X9699050Y-15203875D01*
X9699050Y-15203875D02*
X9660954Y-15203875D01*
X9660954Y-15203875D02*
X9641907Y-15194351D01*
X9851431Y-15203875D02*
X9832383Y-15194351D01*
X9832383Y-15194351D02*
X9822859Y-15175304D01*
X9822859Y-15175304D02*
X9822859Y-15003875D01*
X10013335Y-15203875D02*
X10013335Y-15099113D01*
X10013335Y-15099113D02*
X10003812Y-15080066D01*
X10003812Y-15080066D02*
X9984764Y-15070542D01*
X9984764Y-15070542D02*
X9946669Y-15070542D01*
X9946669Y-15070542D02*
X9927621Y-15080066D01*
X10013335Y-15194351D02*
X9994288Y-15203875D01*
X9994288Y-15203875D02*
X9946669Y-15203875D01*
X9946669Y-15203875D02*
X9927621Y-15194351D01*
X9927621Y-15194351D02*
X9918097Y-15175304D01*
X9918097Y-15175304D02*
X9918097Y-15156256D01*
X9918097Y-15156256D02*
X9927621Y-15137208D01*
X9927621Y-15137208D02*
X9946669Y-15127685D01*
X9946669Y-15127685D02*
X9994288Y-15127685D01*
X9994288Y-15127685D02*
X10013335Y-15118161D01*
X10080002Y-15070542D02*
X10156193Y-15070542D01*
X10108574Y-15003875D02*
X10108574Y-15175304D01*
X10108574Y-15175304D02*
X10118097Y-15194351D01*
X10118097Y-15194351D02*
X10137145Y-15203875D01*
X10137145Y-15203875D02*
X10156193Y-15203875D01*
X10299050Y-15194351D02*
X10280002Y-15203875D01*
X10280002Y-15203875D02*
X10241907Y-15203875D01*
X10241907Y-15203875D02*
X10222859Y-15194351D01*
X10222859Y-15194351D02*
X10213335Y-15175304D01*
X10213335Y-15175304D02*
X10213335Y-15099113D01*
X10213335Y-15099113D02*
X10222859Y-15080066D01*
X10222859Y-15080066D02*
X10241907Y-15070542D01*
X10241907Y-15070542D02*
X10280002Y-15070542D01*
X10280002Y-15070542D02*
X10299050Y-15080066D01*
X10299050Y-15080066D02*
X10308574Y-15099113D01*
X10308574Y-15099113D02*
X10308574Y-15118161D01*
X10308574Y-15118161D02*
X10213335Y-15137208D01*
X10480002Y-15203875D02*
X10480002Y-15003875D01*
X10480002Y-15194351D02*
X10460955Y-15203875D01*
X10460955Y-15203875D02*
X10422859Y-15203875D01*
X10422859Y-15203875D02*
X10403812Y-15194351D01*
X10403812Y-15194351D02*
X10394288Y-15184827D01*
X10394288Y-15184827D02*
X10384764Y-15165780D01*
X10384764Y-15165780D02*
X10384764Y-15108637D01*
X10384764Y-15108637D02*
X10394288Y-15089589D01*
X10394288Y-15089589D02*
X10403812Y-15080066D01*
X10403812Y-15080066D02*
X10422859Y-15070542D01*
X10422859Y-15070542D02*
X10460955Y-15070542D01*
X10460955Y-15070542D02*
X10480002Y-15080066D01*
X10556193Y-15280066D02*
X10565716Y-15270542D01*
X10565716Y-15270542D02*
X10584764Y-15241970D01*
X10584764Y-15241970D02*
X10594288Y-15222923D01*
X10594288Y-15222923D02*
X10603812Y-15194351D01*
X10603812Y-15194351D02*
X10613335Y-15146732D01*
X10613335Y-15146732D02*
X10613335Y-15108637D01*
X10613335Y-15108637D02*
X10603812Y-15061018D01*
X10603812Y-15061018D02*
X10594288Y-15032447D01*
X10594288Y-15032447D02*
X10584764Y-15013399D01*
X10584764Y-15013399D02*
X10565716Y-14984827D01*
X10565716Y-14984827D02*
X10556193Y-14975304D01*
X3609701Y-15402571D02*
G75*
G03*
X3609701Y-15402571I-100000J0D01*
G01*
X3851430Y-15294055D02*
X3975240Y-15294055D01*
X3975240Y-15294055D02*
X3908573Y-15370246D01*
X3908573Y-15370246D02*
X3937144Y-15370246D01*
X3937144Y-15370246D02*
X3956192Y-15379769D01*
X3956192Y-15379769D02*
X3965716Y-15389293D01*
X3965716Y-15389293D02*
X3975240Y-15408341D01*
X3975240Y-15408341D02*
X3975240Y-15455960D01*
X3975240Y-15455960D02*
X3965716Y-15475007D01*
X3965716Y-15475007D02*
X3956192Y-15484531D01*
X3956192Y-15484531D02*
X3937144Y-15494055D01*
X3937144Y-15494055D02*
X3880001Y-15494055D01*
X3880001Y-15494055D02*
X3860954Y-15484531D01*
X3860954Y-15484531D02*
X3851430Y-15475007D01*
X4060954Y-15475007D02*
X4070478Y-15484531D01*
X4070478Y-15484531D02*
X4060954Y-15494055D01*
X4060954Y-15494055D02*
X4051430Y-15484531D01*
X4051430Y-15484531D02*
X4060954Y-15475007D01*
X4060954Y-15475007D02*
X4060954Y-15494055D01*
X4194287Y-15294055D02*
X4213335Y-15294055D01*
X4213335Y-15294055D02*
X4232383Y-15303579D01*
X4232383Y-15303579D02*
X4241906Y-15313103D01*
X4241906Y-15313103D02*
X4251430Y-15332150D01*
X4251430Y-15332150D02*
X4260954Y-15370246D01*
X4260954Y-15370246D02*
X4260954Y-15417865D01*
X4260954Y-15417865D02*
X4251430Y-15455960D01*
X4251430Y-15455960D02*
X4241906Y-15475007D01*
X4241906Y-15475007D02*
X4232383Y-15484531D01*
X4232383Y-15484531D02*
X4213335Y-15494055D01*
X4213335Y-15494055D02*
X4194287Y-15494055D01*
X4194287Y-15494055D02*
X4175240Y-15484531D01*
X4175240Y-15484531D02*
X4165716Y-15475007D01*
X4165716Y-15475007D02*
X4156192Y-15455960D01*
X4156192Y-15455960D02*
X4146668Y-15417865D01*
X4146668Y-15417865D02*
X4146668Y-15370246D01*
X4146668Y-15370246D02*
X4156192Y-15332150D01*
X4156192Y-15332150D02*
X4165716Y-15313103D01*
X4165716Y-15313103D02*
X4175240Y-15303579D01*
X4175240Y-15303579D02*
X4194287Y-15294055D01*
X4384763Y-15294055D02*
X4403811Y-15294055D01*
X4403811Y-15294055D02*
X4422859Y-15303579D01*
X4422859Y-15303579D02*
X4432383Y-15313103D01*
X4432383Y-15313103D02*
X4441906Y-15332150D01*
X4441906Y-15332150D02*
X4451430Y-15370246D01*
X4451430Y-15370246D02*
X4451430Y-15417865D01*
X4451430Y-15417865D02*
X4441906Y-15455960D01*
X4441906Y-15455960D02*
X4432383Y-15475007D01*
X4432383Y-15475007D02*
X4422859Y-15484531D01*
X4422859Y-15484531D02*
X4403811Y-15494055D01*
X4403811Y-15494055D02*
X4384763Y-15494055D01*
X4384763Y-15494055D02*
X4365716Y-15484531D01*
X4365716Y-15484531D02*
X4356192Y-15475007D01*
X4356192Y-15475007D02*
X4346668Y-15455960D01*
X4346668Y-15455960D02*
X4337144Y-15417865D01*
X4337144Y-15417865D02*
X4337144Y-15370246D01*
X4337144Y-15370246D02*
X4346668Y-15332150D01*
X4346668Y-15332150D02*
X4356192Y-15313103D01*
X4356192Y-15313103D02*
X4365716Y-15303579D01*
X4365716Y-15303579D02*
X4384763Y-15294055D01*
X4575240Y-15294055D02*
X4594287Y-15294055D01*
X4594287Y-15294055D02*
X4613335Y-15303579D01*
X4613335Y-15303579D02*
X4622859Y-15313103D01*
X4622859Y-15313103D02*
X4632383Y-15332150D01*
X4632383Y-15332150D02*
X4641906Y-15370246D01*
X4641906Y-15370246D02*
X4641906Y-15417865D01*
X4641906Y-15417865D02*
X4632383Y-15455960D01*
X4632383Y-15455960D02*
X4622859Y-15475007D01*
X4622859Y-15475007D02*
X4613335Y-15484531D01*
X4613335Y-15484531D02*
X4594287Y-15494055D01*
X4594287Y-15494055D02*
X4575240Y-15494055D01*
X4575240Y-15494055D02*
X4556192Y-15484531D01*
X4556192Y-15484531D02*
X4546668Y-15475007D01*
X4546668Y-15475007D02*
X4537144Y-15455960D01*
X4537144Y-15455960D02*
X4527621Y-15417865D01*
X4527621Y-15417865D02*
X4527621Y-15370246D01*
X4527621Y-15370246D02*
X4537144Y-15332150D01*
X4537144Y-15332150D02*
X4546668Y-15313103D01*
X4546668Y-15313103D02*
X4556192Y-15303579D01*
X4556192Y-15303579D02*
X4575240Y-15294055D01*
X4727621Y-15494055D02*
X4727621Y-15360722D01*
X4727621Y-15379769D02*
X4737144Y-15370246D01*
X4737144Y-15370246D02*
X4756192Y-15360722D01*
X4756192Y-15360722D02*
X4784764Y-15360722D01*
X4784764Y-15360722D02*
X4803811Y-15370246D01*
X4803811Y-15370246D02*
X4813335Y-15389293D01*
X4813335Y-15389293D02*
X4813335Y-15494055D01*
X4813335Y-15389293D02*
X4822859Y-15370246D01*
X4822859Y-15370246D02*
X4841906Y-15360722D01*
X4841906Y-15360722D02*
X4870478Y-15360722D01*
X4870478Y-15360722D02*
X4889525Y-15370246D01*
X4889525Y-15370246D02*
X4899049Y-15389293D01*
X4899049Y-15389293D02*
X4899049Y-15494055D01*
X4994287Y-15494055D02*
X4994287Y-15360722D01*
X4994287Y-15379769D02*
X5003811Y-15370246D01*
X5003811Y-15370246D02*
X5022859Y-15360722D01*
X5022859Y-15360722D02*
X5051430Y-15360722D01*
X5051430Y-15360722D02*
X5070478Y-15370246D01*
X5070478Y-15370246D02*
X5080002Y-15389293D01*
X5080002Y-15389293D02*
X5080002Y-15494055D01*
X5080002Y-15389293D02*
X5089525Y-15370246D01*
X5089525Y-15370246D02*
X5108573Y-15360722D01*
X5108573Y-15360722D02*
X5137144Y-15360722D01*
X5137144Y-15360722D02*
X5156192Y-15370246D01*
X5156192Y-15370246D02*
X5165716Y-15389293D01*
X5165716Y-15389293D02*
X5165716Y-15494055D01*
X5556192Y-15284531D02*
X5384764Y-15541674D01*
X5813335Y-15294055D02*
X5832383Y-15294055D01*
X5832383Y-15294055D02*
X5851430Y-15303579D01*
X5851430Y-15303579D02*
X5860954Y-15313103D01*
X5860954Y-15313103D02*
X5870478Y-15332150D01*
X5870478Y-15332150D02*
X5880002Y-15370246D01*
X5880002Y-15370246D02*
X5880002Y-15417865D01*
X5880002Y-15417865D02*
X5870478Y-15455960D01*
X5870478Y-15455960D02*
X5860954Y-15475007D01*
X5860954Y-15475007D02*
X5851430Y-15484531D01*
X5851430Y-15484531D02*
X5832383Y-15494055D01*
X5832383Y-15494055D02*
X5813335Y-15494055D01*
X5813335Y-15494055D02*
X5794287Y-15484531D01*
X5794287Y-15484531D02*
X5784764Y-15475007D01*
X5784764Y-15475007D02*
X5775240Y-15455960D01*
X5775240Y-15455960D02*
X5765716Y-15417865D01*
X5765716Y-15417865D02*
X5765716Y-15370246D01*
X5765716Y-15370246D02*
X5775240Y-15332150D01*
X5775240Y-15332150D02*
X5784764Y-15313103D01*
X5784764Y-15313103D02*
X5794287Y-15303579D01*
X5794287Y-15303579D02*
X5813335Y-15294055D01*
X5965716Y-15475007D02*
X5975240Y-15484531D01*
X5975240Y-15484531D02*
X5965716Y-15494055D01*
X5965716Y-15494055D02*
X5956192Y-15484531D01*
X5956192Y-15484531D02*
X5965716Y-15475007D01*
X5965716Y-15475007D02*
X5965716Y-15494055D01*
X6165716Y-15494055D02*
X6051430Y-15494055D01*
X6108573Y-15494055D02*
X6108573Y-15294055D01*
X6108573Y-15294055D02*
X6089525Y-15322627D01*
X6089525Y-15322627D02*
X6070478Y-15341674D01*
X6070478Y-15341674D02*
X6051430Y-15351198D01*
X6356192Y-15494055D02*
X6241906Y-15494055D01*
X6299049Y-15494055D02*
X6299049Y-15294055D01*
X6299049Y-15294055D02*
X6280002Y-15322627D01*
X6280002Y-15322627D02*
X6260954Y-15341674D01*
X6260954Y-15341674D02*
X6241906Y-15351198D01*
X6470478Y-15379769D02*
X6451430Y-15370246D01*
X6451430Y-15370246D02*
X6441906Y-15360722D01*
X6441906Y-15360722D02*
X6432383Y-15341674D01*
X6432383Y-15341674D02*
X6432383Y-15332150D01*
X6432383Y-15332150D02*
X6441906Y-15313103D01*
X6441906Y-15313103D02*
X6451430Y-15303579D01*
X6451430Y-15303579D02*
X6470478Y-15294055D01*
X6470478Y-15294055D02*
X6508573Y-15294055D01*
X6508573Y-15294055D02*
X6527621Y-15303579D01*
X6527621Y-15303579D02*
X6537145Y-15313103D01*
X6537145Y-15313103D02*
X6546668Y-15332150D01*
X6546668Y-15332150D02*
X6546668Y-15341674D01*
X6546668Y-15341674D02*
X6537145Y-15360722D01*
X6537145Y-15360722D02*
X6527621Y-15370246D01*
X6527621Y-15370246D02*
X6508573Y-15379769D01*
X6508573Y-15379769D02*
X6470478Y-15379769D01*
X6470478Y-15379769D02*
X6451430Y-15389293D01*
X6451430Y-15389293D02*
X6441906Y-15398817D01*
X6441906Y-15398817D02*
X6432383Y-15417865D01*
X6432383Y-15417865D02*
X6432383Y-15455960D01*
X6432383Y-15455960D02*
X6441906Y-15475007D01*
X6441906Y-15475007D02*
X6451430Y-15484531D01*
X6451430Y-15484531D02*
X6470478Y-15494055D01*
X6470478Y-15494055D02*
X6508573Y-15494055D01*
X6508573Y-15494055D02*
X6527621Y-15484531D01*
X6527621Y-15484531D02*
X6537145Y-15475007D01*
X6537145Y-15475007D02*
X6546668Y-15455960D01*
X6546668Y-15455960D02*
X6546668Y-15417865D01*
X6546668Y-15417865D02*
X6537145Y-15398817D01*
X6537145Y-15398817D02*
X6527621Y-15389293D01*
X6527621Y-15389293D02*
X6508573Y-15379769D01*
X6737145Y-15494055D02*
X6622859Y-15494055D01*
X6680002Y-15494055D02*
X6680002Y-15294055D01*
X6680002Y-15294055D02*
X6660954Y-15322627D01*
X6660954Y-15322627D02*
X6641906Y-15341674D01*
X6641906Y-15341674D02*
X6622859Y-15351198D01*
X6813335Y-15294055D02*
X6813335Y-15332150D01*
X6889526Y-15294055D02*
X6889526Y-15332150D01*
X7184764Y-15570246D02*
X7175240Y-15560722D01*
X7175240Y-15560722D02*
X7156192Y-15532150D01*
X7156192Y-15532150D02*
X7146668Y-15513103D01*
X7146668Y-15513103D02*
X7137145Y-15484531D01*
X7137145Y-15484531D02*
X7127621Y-15436912D01*
X7127621Y-15436912D02*
X7127621Y-15398817D01*
X7127621Y-15398817D02*
X7137145Y-15351198D01*
X7137145Y-15351198D02*
X7146668Y-15322627D01*
X7146668Y-15322627D02*
X7156192Y-15303579D01*
X7156192Y-15303579D02*
X7175240Y-15275007D01*
X7175240Y-15275007D02*
X7184764Y-15265484D01*
X7270478Y-15494055D02*
X7308573Y-15494055D01*
X7308573Y-15494055D02*
X7327621Y-15484531D01*
X7327621Y-15484531D02*
X7337145Y-15475007D01*
X7337145Y-15475007D02*
X7356192Y-15446436D01*
X7356192Y-15446436D02*
X7365716Y-15408341D01*
X7365716Y-15408341D02*
X7365716Y-15332150D01*
X7365716Y-15332150D02*
X7356192Y-15313103D01*
X7356192Y-15313103D02*
X7346668Y-15303579D01*
X7346668Y-15303579D02*
X7327621Y-15294055D01*
X7327621Y-15294055D02*
X7289526Y-15294055D01*
X7289526Y-15294055D02*
X7270478Y-15303579D01*
X7270478Y-15303579D02*
X7260954Y-15313103D01*
X7260954Y-15313103D02*
X7251430Y-15332150D01*
X7251430Y-15332150D02*
X7251430Y-15379769D01*
X7251430Y-15379769D02*
X7260954Y-15398817D01*
X7260954Y-15398817D02*
X7270478Y-15408341D01*
X7270478Y-15408341D02*
X7289526Y-15417865D01*
X7289526Y-15417865D02*
X7327621Y-15417865D01*
X7327621Y-15417865D02*
X7346668Y-15408341D01*
X7346668Y-15408341D02*
X7356192Y-15398817D01*
X7356192Y-15398817D02*
X7365716Y-15379769D01*
X7441907Y-15313103D02*
X7451430Y-15303579D01*
X7451430Y-15303579D02*
X7470478Y-15294055D01*
X7470478Y-15294055D02*
X7518097Y-15294055D01*
X7518097Y-15294055D02*
X7537145Y-15303579D01*
X7537145Y-15303579D02*
X7546668Y-15313103D01*
X7546668Y-15313103D02*
X7556192Y-15332150D01*
X7556192Y-15332150D02*
X7556192Y-15351198D01*
X7556192Y-15351198D02*
X7546668Y-15379769D01*
X7546668Y-15379769D02*
X7432383Y-15494055D01*
X7432383Y-15494055D02*
X7556192Y-15494055D01*
X7794288Y-15494055D02*
X7794288Y-15294055D01*
X7880002Y-15494055D02*
X7880002Y-15389293D01*
X7880002Y-15389293D02*
X7870478Y-15370246D01*
X7870478Y-15370246D02*
X7851430Y-15360722D01*
X7851430Y-15360722D02*
X7822859Y-15360722D01*
X7822859Y-15360722D02*
X7803811Y-15370246D01*
X7803811Y-15370246D02*
X7794288Y-15379769D01*
X8003811Y-15494055D02*
X7984764Y-15484531D01*
X7984764Y-15484531D02*
X7975240Y-15475007D01*
X7975240Y-15475007D02*
X7965716Y-15455960D01*
X7965716Y-15455960D02*
X7965716Y-15398817D01*
X7965716Y-15398817D02*
X7975240Y-15379769D01*
X7975240Y-15379769D02*
X7984764Y-15370246D01*
X7984764Y-15370246D02*
X8003811Y-15360722D01*
X8003811Y-15360722D02*
X8032383Y-15360722D01*
X8032383Y-15360722D02*
X8051430Y-15370246D01*
X8051430Y-15370246D02*
X8060954Y-15379769D01*
X8060954Y-15379769D02*
X8070478Y-15398817D01*
X8070478Y-15398817D02*
X8070478Y-15455960D01*
X8070478Y-15455960D02*
X8060954Y-15475007D01*
X8060954Y-15475007D02*
X8051430Y-15484531D01*
X8051430Y-15484531D02*
X8032383Y-15494055D01*
X8032383Y-15494055D02*
X8003811Y-15494055D01*
X8184764Y-15494055D02*
X8165716Y-15484531D01*
X8165716Y-15484531D02*
X8156192Y-15465484D01*
X8156192Y-15465484D02*
X8156192Y-15294055D01*
X8337145Y-15484531D02*
X8318097Y-15494055D01*
X8318097Y-15494055D02*
X8280002Y-15494055D01*
X8280002Y-15494055D02*
X8260954Y-15484531D01*
X8260954Y-15484531D02*
X8251430Y-15465484D01*
X8251430Y-15465484D02*
X8251430Y-15389293D01*
X8251430Y-15389293D02*
X8260954Y-15370246D01*
X8260954Y-15370246D02*
X8280002Y-15360722D01*
X8280002Y-15360722D02*
X8318097Y-15360722D01*
X8318097Y-15360722D02*
X8337145Y-15370246D01*
X8337145Y-15370246D02*
X8346669Y-15389293D01*
X8346669Y-15389293D02*
X8346669Y-15408341D01*
X8346669Y-15408341D02*
X8251430Y-15427388D01*
X8422859Y-15484531D02*
X8441907Y-15494055D01*
X8441907Y-15494055D02*
X8480002Y-15494055D01*
X8480002Y-15494055D02*
X8499050Y-15484531D01*
X8499050Y-15484531D02*
X8508573Y-15465484D01*
X8508573Y-15465484D02*
X8508573Y-15455960D01*
X8508573Y-15455960D02*
X8499050Y-15436912D01*
X8499050Y-15436912D02*
X8480002Y-15427388D01*
X8480002Y-15427388D02*
X8451431Y-15427388D01*
X8451431Y-15427388D02*
X8432383Y-15417865D01*
X8432383Y-15417865D02*
X8422859Y-15398817D01*
X8422859Y-15398817D02*
X8422859Y-15389293D01*
X8422859Y-15389293D02*
X8432383Y-15370246D01*
X8432383Y-15370246D02*
X8451431Y-15360722D01*
X8451431Y-15360722D02*
X8480002Y-15360722D01*
X8480002Y-15360722D02*
X8499050Y-15370246D01*
X8575240Y-15570246D02*
X8584764Y-15560722D01*
X8584764Y-15560722D02*
X8603812Y-15532150D01*
X8603812Y-15532150D02*
X8613335Y-15513103D01*
X8613335Y-15513103D02*
X8622859Y-15484531D01*
X8622859Y-15484531D02*
X8632383Y-15436912D01*
X8632383Y-15436912D02*
X8632383Y-15398817D01*
X8632383Y-15398817D02*
X8622859Y-15351198D01*
X8622859Y-15351198D02*
X8613335Y-15322627D01*
X8613335Y-15322627D02*
X8603812Y-15303579D01*
X8603812Y-15303579D02*
X8584764Y-15275007D01*
X8584764Y-15275007D02*
X8575240Y-15265484D01*
X8937145Y-15570246D02*
X8927621Y-15560722D01*
X8927621Y-15560722D02*
X8908573Y-15532150D01*
X8908573Y-15532150D02*
X8899050Y-15513103D01*
X8899050Y-15513103D02*
X8889526Y-15484531D01*
X8889526Y-15484531D02*
X8880002Y-15436912D01*
X8880002Y-15436912D02*
X8880002Y-15398817D01*
X8880002Y-15398817D02*
X8889526Y-15351198D01*
X8889526Y-15351198D02*
X8899050Y-15322627D01*
X8899050Y-15322627D02*
X8908573Y-15303579D01*
X8908573Y-15303579D02*
X8927621Y-15275007D01*
X8927621Y-15275007D02*
X8937145Y-15265484D01*
X9013335Y-15360722D02*
X9013335Y-15494055D01*
X9013335Y-15379769D02*
X9022859Y-15370246D01*
X9022859Y-15370246D02*
X9041907Y-15360722D01*
X9041907Y-15360722D02*
X9070478Y-15360722D01*
X9070478Y-15360722D02*
X9089526Y-15370246D01*
X9089526Y-15370246D02*
X9099050Y-15389293D01*
X9099050Y-15389293D02*
X9099050Y-15494055D01*
X9222859Y-15494055D02*
X9203812Y-15484531D01*
X9203812Y-15484531D02*
X9194288Y-15475007D01*
X9194288Y-15475007D02*
X9184764Y-15455960D01*
X9184764Y-15455960D02*
X9184764Y-15398817D01*
X9184764Y-15398817D02*
X9194288Y-15379769D01*
X9194288Y-15379769D02*
X9203812Y-15370246D01*
X9203812Y-15370246D02*
X9222859Y-15360722D01*
X9222859Y-15360722D02*
X9251431Y-15360722D01*
X9251431Y-15360722D02*
X9270478Y-15370246D01*
X9270478Y-15370246D02*
X9280002Y-15379769D01*
X9280002Y-15379769D02*
X9289526Y-15398817D01*
X9289526Y-15398817D02*
X9289526Y-15455960D01*
X9289526Y-15455960D02*
X9280002Y-15475007D01*
X9280002Y-15475007D02*
X9270478Y-15484531D01*
X9270478Y-15484531D02*
X9251431Y-15494055D01*
X9251431Y-15494055D02*
X9222859Y-15494055D01*
X9346669Y-15360722D02*
X9422859Y-15360722D01*
X9375240Y-15294055D02*
X9375240Y-15465484D01*
X9375240Y-15465484D02*
X9384764Y-15484531D01*
X9384764Y-15484531D02*
X9403812Y-15494055D01*
X9403812Y-15494055D02*
X9422859Y-15494055D01*
X9641907Y-15360722D02*
X9641907Y-15560722D01*
X9641907Y-15370246D02*
X9660954Y-15360722D01*
X9660954Y-15360722D02*
X9699050Y-15360722D01*
X9699050Y-15360722D02*
X9718097Y-15370246D01*
X9718097Y-15370246D02*
X9727621Y-15379769D01*
X9727621Y-15379769D02*
X9737145Y-15398817D01*
X9737145Y-15398817D02*
X9737145Y-15455960D01*
X9737145Y-15455960D02*
X9727621Y-15475007D01*
X9727621Y-15475007D02*
X9718097Y-15484531D01*
X9718097Y-15484531D02*
X9699050Y-15494055D01*
X9699050Y-15494055D02*
X9660954Y-15494055D01*
X9660954Y-15494055D02*
X9641907Y-15484531D01*
X9851431Y-15494055D02*
X9832383Y-15484531D01*
X9832383Y-15484531D02*
X9822859Y-15465484D01*
X9822859Y-15465484D02*
X9822859Y-15294055D01*
X10013335Y-15494055D02*
X10013335Y-15389293D01*
X10013335Y-15389293D02*
X10003812Y-15370246D01*
X10003812Y-15370246D02*
X9984764Y-15360722D01*
X9984764Y-15360722D02*
X9946669Y-15360722D01*
X9946669Y-15360722D02*
X9927621Y-15370246D01*
X10013335Y-15484531D02*
X9994288Y-15494055D01*
X9994288Y-15494055D02*
X9946669Y-15494055D01*
X9946669Y-15494055D02*
X9927621Y-15484531D01*
X9927621Y-15484531D02*
X9918097Y-15465484D01*
X9918097Y-15465484D02*
X9918097Y-15446436D01*
X9918097Y-15446436D02*
X9927621Y-15427388D01*
X9927621Y-15427388D02*
X9946669Y-15417865D01*
X9946669Y-15417865D02*
X9994288Y-15417865D01*
X9994288Y-15417865D02*
X10013335Y-15408341D01*
X10080002Y-15360722D02*
X10156193Y-15360722D01*
X10108574Y-15294055D02*
X10108574Y-15465484D01*
X10108574Y-15465484D02*
X10118097Y-15484531D01*
X10118097Y-15484531D02*
X10137145Y-15494055D01*
X10137145Y-15494055D02*
X10156193Y-15494055D01*
X10299050Y-15484531D02*
X10280002Y-15494055D01*
X10280002Y-15494055D02*
X10241907Y-15494055D01*
X10241907Y-15494055D02*
X10222859Y-15484531D01*
X10222859Y-15484531D02*
X10213335Y-15465484D01*
X10213335Y-15465484D02*
X10213335Y-15389293D01*
X10213335Y-15389293D02*
X10222859Y-15370246D01*
X10222859Y-15370246D02*
X10241907Y-15360722D01*
X10241907Y-15360722D02*
X10280002Y-15360722D01*
X10280002Y-15360722D02*
X10299050Y-15370246D01*
X10299050Y-15370246D02*
X10308574Y-15389293D01*
X10308574Y-15389293D02*
X10308574Y-15408341D01*
X10308574Y-15408341D02*
X10213335Y-15427388D01*
X10480002Y-15494055D02*
X10480002Y-15294055D01*
X10480002Y-15484531D02*
X10460955Y-15494055D01*
X10460955Y-15494055D02*
X10422859Y-15494055D01*
X10422859Y-15494055D02*
X10403812Y-15484531D01*
X10403812Y-15484531D02*
X10394288Y-15475007D01*
X10394288Y-15475007D02*
X10384764Y-15455960D01*
X10384764Y-15455960D02*
X10384764Y-15398817D01*
X10384764Y-15398817D02*
X10394288Y-15379769D01*
X10394288Y-15379769D02*
X10403812Y-15370246D01*
X10403812Y-15370246D02*
X10422859Y-15360722D01*
X10422859Y-15360722D02*
X10460955Y-15360722D01*
X10460955Y-15360722D02*
X10480002Y-15370246D01*
X10556193Y-15570246D02*
X10565716Y-15560722D01*
X10565716Y-15560722D02*
X10584764Y-15532150D01*
X10584764Y-15532150D02*
X10594288Y-15513103D01*
X10594288Y-15513103D02*
X10603812Y-15484531D01*
X10603812Y-15484531D02*
X10613335Y-15436912D01*
X10613335Y-15436912D02*
X10613335Y-15398817D01*
X10613335Y-15398817D02*
X10603812Y-15351198D01*
X10603812Y-15351198D02*
X10594288Y-15322627D01*
X10594288Y-15322627D02*
X10584764Y-15303579D01*
X10584764Y-15303579D02*
X10565716Y-15275007D01*
X10565716Y-15275007D02*
X10556193Y-15265484D01*
X3509701Y-15622571D02*
X3509701Y-15822571D01*
X3409701Y-15722571D02*
X3609701Y-15722571D01*
X3851430Y-15614055D02*
X3975240Y-15614055D01*
X3975240Y-15614055D02*
X3908573Y-15690246D01*
X3908573Y-15690246D02*
X3937144Y-15690246D01*
X3937144Y-15690246D02*
X3956192Y-15699769D01*
X3956192Y-15699769D02*
X3965716Y-15709293D01*
X3965716Y-15709293D02*
X3975240Y-15728341D01*
X3975240Y-15728341D02*
X3975240Y-15775960D01*
X3975240Y-15775960D02*
X3965716Y-15795007D01*
X3965716Y-15795007D02*
X3956192Y-15804531D01*
X3956192Y-15804531D02*
X3937144Y-15814055D01*
X3937144Y-15814055D02*
X3880001Y-15814055D01*
X3880001Y-15814055D02*
X3860954Y-15804531D01*
X3860954Y-15804531D02*
X3851430Y-15795007D01*
X4060954Y-15795007D02*
X4070478Y-15804531D01*
X4070478Y-15804531D02*
X4060954Y-15814055D01*
X4060954Y-15814055D02*
X4051430Y-15804531D01*
X4051430Y-15804531D02*
X4060954Y-15795007D01*
X4060954Y-15795007D02*
X4060954Y-15814055D01*
X4165716Y-15814055D02*
X4203811Y-15814055D01*
X4203811Y-15814055D02*
X4222859Y-15804531D01*
X4222859Y-15804531D02*
X4232383Y-15795007D01*
X4232383Y-15795007D02*
X4251430Y-15766436D01*
X4251430Y-15766436D02*
X4260954Y-15728341D01*
X4260954Y-15728341D02*
X4260954Y-15652150D01*
X4260954Y-15652150D02*
X4251430Y-15633103D01*
X4251430Y-15633103D02*
X4241906Y-15623579D01*
X4241906Y-15623579D02*
X4222859Y-15614055D01*
X4222859Y-15614055D02*
X4184763Y-15614055D01*
X4184763Y-15614055D02*
X4165716Y-15623579D01*
X4165716Y-15623579D02*
X4156192Y-15633103D01*
X4156192Y-15633103D02*
X4146668Y-15652150D01*
X4146668Y-15652150D02*
X4146668Y-15699769D01*
X4146668Y-15699769D02*
X4156192Y-15718817D01*
X4156192Y-15718817D02*
X4165716Y-15728341D01*
X4165716Y-15728341D02*
X4184763Y-15737865D01*
X4184763Y-15737865D02*
X4222859Y-15737865D01*
X4222859Y-15737865D02*
X4241906Y-15728341D01*
X4241906Y-15728341D02*
X4251430Y-15718817D01*
X4251430Y-15718817D02*
X4260954Y-15699769D01*
X4375240Y-15699769D02*
X4356192Y-15690246D01*
X4356192Y-15690246D02*
X4346668Y-15680722D01*
X4346668Y-15680722D02*
X4337144Y-15661674D01*
X4337144Y-15661674D02*
X4337144Y-15652150D01*
X4337144Y-15652150D02*
X4346668Y-15633103D01*
X4346668Y-15633103D02*
X4356192Y-15623579D01*
X4356192Y-15623579D02*
X4375240Y-15614055D01*
X4375240Y-15614055D02*
X4413335Y-15614055D01*
X4413335Y-15614055D02*
X4432383Y-15623579D01*
X4432383Y-15623579D02*
X4441906Y-15633103D01*
X4441906Y-15633103D02*
X4451430Y-15652150D01*
X4451430Y-15652150D02*
X4451430Y-15661674D01*
X4451430Y-15661674D02*
X4441906Y-15680722D01*
X4441906Y-15680722D02*
X4432383Y-15690246D01*
X4432383Y-15690246D02*
X4413335Y-15699769D01*
X4413335Y-15699769D02*
X4375240Y-15699769D01*
X4375240Y-15699769D02*
X4356192Y-15709293D01*
X4356192Y-15709293D02*
X4346668Y-15718817D01*
X4346668Y-15718817D02*
X4337144Y-15737865D01*
X4337144Y-15737865D02*
X4337144Y-15775960D01*
X4337144Y-15775960D02*
X4346668Y-15795007D01*
X4346668Y-15795007D02*
X4356192Y-15804531D01*
X4356192Y-15804531D02*
X4375240Y-15814055D01*
X4375240Y-15814055D02*
X4413335Y-15814055D01*
X4413335Y-15814055D02*
X4432383Y-15804531D01*
X4432383Y-15804531D02*
X4441906Y-15795007D01*
X4441906Y-15795007D02*
X4451430Y-15775960D01*
X4451430Y-15775960D02*
X4451430Y-15737865D01*
X4451430Y-15737865D02*
X4441906Y-15718817D01*
X4441906Y-15718817D02*
X4432383Y-15709293D01*
X4432383Y-15709293D02*
X4413335Y-15699769D01*
X4565716Y-15699769D02*
X4546668Y-15690246D01*
X4546668Y-15690246D02*
X4537144Y-15680722D01*
X4537144Y-15680722D02*
X4527621Y-15661674D01*
X4527621Y-15661674D02*
X4527621Y-15652150D01*
X4527621Y-15652150D02*
X4537144Y-15633103D01*
X4537144Y-15633103D02*
X4546668Y-15623579D01*
X4546668Y-15623579D02*
X4565716Y-15614055D01*
X4565716Y-15614055D02*
X4603811Y-15614055D01*
X4603811Y-15614055D02*
X4622859Y-15623579D01*
X4622859Y-15623579D02*
X4632383Y-15633103D01*
X4632383Y-15633103D02*
X4641906Y-15652150D01*
X4641906Y-15652150D02*
X4641906Y-15661674D01*
X4641906Y-15661674D02*
X4632383Y-15680722D01*
X4632383Y-15680722D02*
X4622859Y-15690246D01*
X4622859Y-15690246D02*
X4603811Y-15699769D01*
X4603811Y-15699769D02*
X4565716Y-15699769D01*
X4565716Y-15699769D02*
X4546668Y-15709293D01*
X4546668Y-15709293D02*
X4537144Y-15718817D01*
X4537144Y-15718817D02*
X4527621Y-15737865D01*
X4527621Y-15737865D02*
X4527621Y-15775960D01*
X4527621Y-15775960D02*
X4537144Y-15795007D01*
X4537144Y-15795007D02*
X4546668Y-15804531D01*
X4546668Y-15804531D02*
X4565716Y-15814055D01*
X4565716Y-15814055D02*
X4603811Y-15814055D01*
X4603811Y-15814055D02*
X4622859Y-15804531D01*
X4622859Y-15804531D02*
X4632383Y-15795007D01*
X4632383Y-15795007D02*
X4641906Y-15775960D01*
X4641906Y-15775960D02*
X4641906Y-15737865D01*
X4641906Y-15737865D02*
X4632383Y-15718817D01*
X4632383Y-15718817D02*
X4622859Y-15709293D01*
X4622859Y-15709293D02*
X4603811Y-15699769D01*
X4727621Y-15814055D02*
X4727621Y-15680722D01*
X4727621Y-15699769D02*
X4737144Y-15690246D01*
X4737144Y-15690246D02*
X4756192Y-15680722D01*
X4756192Y-15680722D02*
X4784764Y-15680722D01*
X4784764Y-15680722D02*
X4803811Y-15690246D01*
X4803811Y-15690246D02*
X4813335Y-15709293D01*
X4813335Y-15709293D02*
X4813335Y-15814055D01*
X4813335Y-15709293D02*
X4822859Y-15690246D01*
X4822859Y-15690246D02*
X4841906Y-15680722D01*
X4841906Y-15680722D02*
X4870478Y-15680722D01*
X4870478Y-15680722D02*
X4889525Y-15690246D01*
X4889525Y-15690246D02*
X4899049Y-15709293D01*
X4899049Y-15709293D02*
X4899049Y-15814055D01*
X4994287Y-15814055D02*
X4994287Y-15680722D01*
X4994287Y-15699769D02*
X5003811Y-15690246D01*
X5003811Y-15690246D02*
X5022859Y-15680722D01*
X5022859Y-15680722D02*
X5051430Y-15680722D01*
X5051430Y-15680722D02*
X5070478Y-15690246D01*
X5070478Y-15690246D02*
X5080002Y-15709293D01*
X5080002Y-15709293D02*
X5080002Y-15814055D01*
X5080002Y-15709293D02*
X5089525Y-15690246D01*
X5089525Y-15690246D02*
X5108573Y-15680722D01*
X5108573Y-15680722D02*
X5137144Y-15680722D01*
X5137144Y-15680722D02*
X5156192Y-15690246D01*
X5156192Y-15690246D02*
X5165716Y-15709293D01*
X5165716Y-15709293D02*
X5165716Y-15814055D01*
X5556192Y-15604531D02*
X5384764Y-15861674D01*
X5813335Y-15614055D02*
X5832383Y-15614055D01*
X5832383Y-15614055D02*
X5851430Y-15623579D01*
X5851430Y-15623579D02*
X5860954Y-15633103D01*
X5860954Y-15633103D02*
X5870478Y-15652150D01*
X5870478Y-15652150D02*
X5880002Y-15690246D01*
X5880002Y-15690246D02*
X5880002Y-15737865D01*
X5880002Y-15737865D02*
X5870478Y-15775960D01*
X5870478Y-15775960D02*
X5860954Y-15795007D01*
X5860954Y-15795007D02*
X5851430Y-15804531D01*
X5851430Y-15804531D02*
X5832383Y-15814055D01*
X5832383Y-15814055D02*
X5813335Y-15814055D01*
X5813335Y-15814055D02*
X5794287Y-15804531D01*
X5794287Y-15804531D02*
X5784764Y-15795007D01*
X5784764Y-15795007D02*
X5775240Y-15775960D01*
X5775240Y-15775960D02*
X5765716Y-15737865D01*
X5765716Y-15737865D02*
X5765716Y-15690246D01*
X5765716Y-15690246D02*
X5775240Y-15652150D01*
X5775240Y-15652150D02*
X5784764Y-15633103D01*
X5784764Y-15633103D02*
X5794287Y-15623579D01*
X5794287Y-15623579D02*
X5813335Y-15614055D01*
X5965716Y-15795007D02*
X5975240Y-15804531D01*
X5975240Y-15804531D02*
X5965716Y-15814055D01*
X5965716Y-15814055D02*
X5956192Y-15804531D01*
X5956192Y-15804531D02*
X5965716Y-15795007D01*
X5965716Y-15795007D02*
X5965716Y-15814055D01*
X6165716Y-15814055D02*
X6051430Y-15814055D01*
X6108573Y-15814055D02*
X6108573Y-15614055D01*
X6108573Y-15614055D02*
X6089525Y-15642627D01*
X6089525Y-15642627D02*
X6070478Y-15661674D01*
X6070478Y-15661674D02*
X6051430Y-15671198D01*
X6346668Y-15614055D02*
X6251430Y-15614055D01*
X6251430Y-15614055D02*
X6241906Y-15709293D01*
X6241906Y-15709293D02*
X6251430Y-15699769D01*
X6251430Y-15699769D02*
X6270478Y-15690246D01*
X6270478Y-15690246D02*
X6318097Y-15690246D01*
X6318097Y-15690246D02*
X6337145Y-15699769D01*
X6337145Y-15699769D02*
X6346668Y-15709293D01*
X6346668Y-15709293D02*
X6356192Y-15728341D01*
X6356192Y-15728341D02*
X6356192Y-15775960D01*
X6356192Y-15775960D02*
X6346668Y-15795007D01*
X6346668Y-15795007D02*
X6337145Y-15804531D01*
X6337145Y-15804531D02*
X6318097Y-15814055D01*
X6318097Y-15814055D02*
X6270478Y-15814055D01*
X6270478Y-15814055D02*
X6251430Y-15804531D01*
X6251430Y-15804531D02*
X6241906Y-15795007D01*
X6422859Y-15614055D02*
X6556192Y-15614055D01*
X6556192Y-15614055D02*
X6470478Y-15814055D01*
X6670478Y-15614055D02*
X6689526Y-15614055D01*
X6689526Y-15614055D02*
X6708573Y-15623579D01*
X6708573Y-15623579D02*
X6718097Y-15633103D01*
X6718097Y-15633103D02*
X6727621Y-15652150D01*
X6727621Y-15652150D02*
X6737145Y-15690246D01*
X6737145Y-15690246D02*
X6737145Y-15737865D01*
X6737145Y-15737865D02*
X6727621Y-15775960D01*
X6727621Y-15775960D02*
X6718097Y-15795007D01*
X6718097Y-15795007D02*
X6708573Y-15804531D01*
X6708573Y-15804531D02*
X6689526Y-15814055D01*
X6689526Y-15814055D02*
X6670478Y-15814055D01*
X6670478Y-15814055D02*
X6651430Y-15804531D01*
X6651430Y-15804531D02*
X6641906Y-15795007D01*
X6641906Y-15795007D02*
X6632383Y-15775960D01*
X6632383Y-15775960D02*
X6622859Y-15737865D01*
X6622859Y-15737865D02*
X6622859Y-15690246D01*
X6622859Y-15690246D02*
X6632383Y-15652150D01*
X6632383Y-15652150D02*
X6641906Y-15633103D01*
X6641906Y-15633103D02*
X6651430Y-15623579D01*
X6651430Y-15623579D02*
X6670478Y-15614055D01*
X6813335Y-15614055D02*
X6813335Y-15652150D01*
X6889526Y-15614055D02*
X6889526Y-15652150D01*
X7184764Y-15890246D02*
X7175240Y-15880722D01*
X7175240Y-15880722D02*
X7156192Y-15852150D01*
X7156192Y-15852150D02*
X7146668Y-15833103D01*
X7146668Y-15833103D02*
X7137145Y-15804531D01*
X7137145Y-15804531D02*
X7127621Y-15756912D01*
X7127621Y-15756912D02*
X7127621Y-15718817D01*
X7127621Y-15718817D02*
X7137145Y-15671198D01*
X7137145Y-15671198D02*
X7146668Y-15642627D01*
X7146668Y-15642627D02*
X7156192Y-15623579D01*
X7156192Y-15623579D02*
X7175240Y-15595007D01*
X7175240Y-15595007D02*
X7184764Y-15585484D01*
X7346668Y-15680722D02*
X7346668Y-15814055D01*
X7299049Y-15604531D02*
X7251430Y-15747388D01*
X7251430Y-15747388D02*
X7375240Y-15747388D01*
X7537145Y-15614055D02*
X7499049Y-15614055D01*
X7499049Y-15614055D02*
X7480002Y-15623579D01*
X7480002Y-15623579D02*
X7470478Y-15633103D01*
X7470478Y-15633103D02*
X7451430Y-15661674D01*
X7451430Y-15661674D02*
X7441907Y-15699769D01*
X7441907Y-15699769D02*
X7441907Y-15775960D01*
X7441907Y-15775960D02*
X7451430Y-15795007D01*
X7451430Y-15795007D02*
X7460954Y-15804531D01*
X7460954Y-15804531D02*
X7480002Y-15814055D01*
X7480002Y-15814055D02*
X7518097Y-15814055D01*
X7518097Y-15814055D02*
X7537145Y-15804531D01*
X7537145Y-15804531D02*
X7546668Y-15795007D01*
X7546668Y-15795007D02*
X7556192Y-15775960D01*
X7556192Y-15775960D02*
X7556192Y-15728341D01*
X7556192Y-15728341D02*
X7546668Y-15709293D01*
X7546668Y-15709293D02*
X7537145Y-15699769D01*
X7537145Y-15699769D02*
X7518097Y-15690246D01*
X7518097Y-15690246D02*
X7480002Y-15690246D01*
X7480002Y-15690246D02*
X7460954Y-15699769D01*
X7460954Y-15699769D02*
X7451430Y-15709293D01*
X7451430Y-15709293D02*
X7441907Y-15728341D01*
X7794288Y-15814055D02*
X7794288Y-15614055D01*
X7880002Y-15814055D02*
X7880002Y-15709293D01*
X7880002Y-15709293D02*
X7870478Y-15690246D01*
X7870478Y-15690246D02*
X7851430Y-15680722D01*
X7851430Y-15680722D02*
X7822859Y-15680722D01*
X7822859Y-15680722D02*
X7803811Y-15690246D01*
X7803811Y-15690246D02*
X7794288Y-15699769D01*
X8003811Y-15814055D02*
X7984764Y-15804531D01*
X7984764Y-15804531D02*
X7975240Y-15795007D01*
X7975240Y-15795007D02*
X7965716Y-15775960D01*
X7965716Y-15775960D02*
X7965716Y-15718817D01*
X7965716Y-15718817D02*
X7975240Y-15699769D01*
X7975240Y-15699769D02*
X7984764Y-15690246D01*
X7984764Y-15690246D02*
X8003811Y-15680722D01*
X8003811Y-15680722D02*
X8032383Y-15680722D01*
X8032383Y-15680722D02*
X8051430Y-15690246D01*
X8051430Y-15690246D02*
X8060954Y-15699769D01*
X8060954Y-15699769D02*
X8070478Y-15718817D01*
X8070478Y-15718817D02*
X8070478Y-15775960D01*
X8070478Y-15775960D02*
X8060954Y-15795007D01*
X8060954Y-15795007D02*
X8051430Y-15804531D01*
X8051430Y-15804531D02*
X8032383Y-15814055D01*
X8032383Y-15814055D02*
X8003811Y-15814055D01*
X8184764Y-15814055D02*
X8165716Y-15804531D01*
X8165716Y-15804531D02*
X8156192Y-15785484D01*
X8156192Y-15785484D02*
X8156192Y-15614055D01*
X8337145Y-15804531D02*
X8318097Y-15814055D01*
X8318097Y-15814055D02*
X8280002Y-15814055D01*
X8280002Y-15814055D02*
X8260954Y-15804531D01*
X8260954Y-15804531D02*
X8251430Y-15785484D01*
X8251430Y-15785484D02*
X8251430Y-15709293D01*
X8251430Y-15709293D02*
X8260954Y-15690246D01*
X8260954Y-15690246D02*
X8280002Y-15680722D01*
X8280002Y-15680722D02*
X8318097Y-15680722D01*
X8318097Y-15680722D02*
X8337145Y-15690246D01*
X8337145Y-15690246D02*
X8346669Y-15709293D01*
X8346669Y-15709293D02*
X8346669Y-15728341D01*
X8346669Y-15728341D02*
X8251430Y-15747388D01*
X8422859Y-15804531D02*
X8441907Y-15814055D01*
X8441907Y-15814055D02*
X8480002Y-15814055D01*
X8480002Y-15814055D02*
X8499050Y-15804531D01*
X8499050Y-15804531D02*
X8508573Y-15785484D01*
X8508573Y-15785484D02*
X8508573Y-15775960D01*
X8508573Y-15775960D02*
X8499050Y-15756912D01*
X8499050Y-15756912D02*
X8480002Y-15747388D01*
X8480002Y-15747388D02*
X8451431Y-15747388D01*
X8451431Y-15747388D02*
X8432383Y-15737865D01*
X8432383Y-15737865D02*
X8422859Y-15718817D01*
X8422859Y-15718817D02*
X8422859Y-15709293D01*
X8422859Y-15709293D02*
X8432383Y-15690246D01*
X8432383Y-15690246D02*
X8451431Y-15680722D01*
X8451431Y-15680722D02*
X8480002Y-15680722D01*
X8480002Y-15680722D02*
X8499050Y-15690246D01*
X8575240Y-15890246D02*
X8584764Y-15880722D01*
X8584764Y-15880722D02*
X8603812Y-15852150D01*
X8603812Y-15852150D02*
X8613335Y-15833103D01*
X8613335Y-15833103D02*
X8622859Y-15804531D01*
X8622859Y-15804531D02*
X8632383Y-15756912D01*
X8632383Y-15756912D02*
X8632383Y-15718817D01*
X8632383Y-15718817D02*
X8622859Y-15671198D01*
X8622859Y-15671198D02*
X8613335Y-15642627D01*
X8613335Y-15642627D02*
X8603812Y-15623579D01*
X8603812Y-15623579D02*
X8584764Y-15595007D01*
X8584764Y-15595007D02*
X8575240Y-15585484D01*
X8937145Y-15890246D02*
X8927621Y-15880722D01*
X8927621Y-15880722D02*
X8908573Y-15852150D01*
X8908573Y-15852150D02*
X8899050Y-15833103D01*
X8899050Y-15833103D02*
X8889526Y-15804531D01*
X8889526Y-15804531D02*
X8880002Y-15756912D01*
X8880002Y-15756912D02*
X8880002Y-15718817D01*
X8880002Y-15718817D02*
X8889526Y-15671198D01*
X8889526Y-15671198D02*
X8899050Y-15642627D01*
X8899050Y-15642627D02*
X8908573Y-15623579D01*
X8908573Y-15623579D02*
X8927621Y-15595007D01*
X8927621Y-15595007D02*
X8937145Y-15585484D01*
X9013335Y-15680722D02*
X9013335Y-15814055D01*
X9013335Y-15699769D02*
X9022859Y-15690246D01*
X9022859Y-15690246D02*
X9041907Y-15680722D01*
X9041907Y-15680722D02*
X9070478Y-15680722D01*
X9070478Y-15680722D02*
X9089526Y-15690246D01*
X9089526Y-15690246D02*
X9099050Y-15709293D01*
X9099050Y-15709293D02*
X9099050Y-15814055D01*
X9222859Y-15814055D02*
X9203812Y-15804531D01*
X9203812Y-15804531D02*
X9194288Y-15795007D01*
X9194288Y-15795007D02*
X9184764Y-15775960D01*
X9184764Y-15775960D02*
X9184764Y-15718817D01*
X9184764Y-15718817D02*
X9194288Y-15699769D01*
X9194288Y-15699769D02*
X9203812Y-15690246D01*
X9203812Y-15690246D02*
X9222859Y-15680722D01*
X9222859Y-15680722D02*
X9251431Y-15680722D01*
X9251431Y-15680722D02*
X9270478Y-15690246D01*
X9270478Y-15690246D02*
X9280002Y-15699769D01*
X9280002Y-15699769D02*
X9289526Y-15718817D01*
X9289526Y-15718817D02*
X9289526Y-15775960D01*
X9289526Y-15775960D02*
X9280002Y-15795007D01*
X9280002Y-15795007D02*
X9270478Y-15804531D01*
X9270478Y-15804531D02*
X9251431Y-15814055D01*
X9251431Y-15814055D02*
X9222859Y-15814055D01*
X9346669Y-15680722D02*
X9422859Y-15680722D01*
X9375240Y-15614055D02*
X9375240Y-15785484D01*
X9375240Y-15785484D02*
X9384764Y-15804531D01*
X9384764Y-15804531D02*
X9403812Y-15814055D01*
X9403812Y-15814055D02*
X9422859Y-15814055D01*
X9641907Y-15680722D02*
X9641907Y-15880722D01*
X9641907Y-15690246D02*
X9660954Y-15680722D01*
X9660954Y-15680722D02*
X9699050Y-15680722D01*
X9699050Y-15680722D02*
X9718097Y-15690246D01*
X9718097Y-15690246D02*
X9727621Y-15699769D01*
X9727621Y-15699769D02*
X9737145Y-15718817D01*
X9737145Y-15718817D02*
X9737145Y-15775960D01*
X9737145Y-15775960D02*
X9727621Y-15795007D01*
X9727621Y-15795007D02*
X9718097Y-15804531D01*
X9718097Y-15804531D02*
X9699050Y-15814055D01*
X9699050Y-15814055D02*
X9660954Y-15814055D01*
X9660954Y-15814055D02*
X9641907Y-15804531D01*
X9851431Y-15814055D02*
X9832383Y-15804531D01*
X9832383Y-15804531D02*
X9822859Y-15785484D01*
X9822859Y-15785484D02*
X9822859Y-15614055D01*
X10013335Y-15814055D02*
X10013335Y-15709293D01*
X10013335Y-15709293D02*
X10003812Y-15690246D01*
X10003812Y-15690246D02*
X9984764Y-15680722D01*
X9984764Y-15680722D02*
X9946669Y-15680722D01*
X9946669Y-15680722D02*
X9927621Y-15690246D01*
X10013335Y-15804531D02*
X9994288Y-15814055D01*
X9994288Y-15814055D02*
X9946669Y-15814055D01*
X9946669Y-15814055D02*
X9927621Y-15804531D01*
X9927621Y-15804531D02*
X9918097Y-15785484D01*
X9918097Y-15785484D02*
X9918097Y-15766436D01*
X9918097Y-15766436D02*
X9927621Y-15747388D01*
X9927621Y-15747388D02*
X9946669Y-15737865D01*
X9946669Y-15737865D02*
X9994288Y-15737865D01*
X9994288Y-15737865D02*
X10013335Y-15728341D01*
X10080002Y-15680722D02*
X10156193Y-15680722D01*
X10108574Y-15614055D02*
X10108574Y-15785484D01*
X10108574Y-15785484D02*
X10118097Y-15804531D01*
X10118097Y-15804531D02*
X10137145Y-15814055D01*
X10137145Y-15814055D02*
X10156193Y-15814055D01*
X10299050Y-15804531D02*
X10280002Y-15814055D01*
X10280002Y-15814055D02*
X10241907Y-15814055D01*
X10241907Y-15814055D02*
X10222859Y-15804531D01*
X10222859Y-15804531D02*
X10213335Y-15785484D01*
X10213335Y-15785484D02*
X10213335Y-15709293D01*
X10213335Y-15709293D02*
X10222859Y-15690246D01*
X10222859Y-15690246D02*
X10241907Y-15680722D01*
X10241907Y-15680722D02*
X10280002Y-15680722D01*
X10280002Y-15680722D02*
X10299050Y-15690246D01*
X10299050Y-15690246D02*
X10308574Y-15709293D01*
X10308574Y-15709293D02*
X10308574Y-15728341D01*
X10308574Y-15728341D02*
X10213335Y-15747388D01*
X10480002Y-15814055D02*
X10480002Y-15614055D01*
X10480002Y-15804531D02*
X10460955Y-15814055D01*
X10460955Y-15814055D02*
X10422859Y-15814055D01*
X10422859Y-15814055D02*
X10403812Y-15804531D01*
X10403812Y-15804531D02*
X10394288Y-15795007D01*
X10394288Y-15795007D02*
X10384764Y-15775960D01*
X10384764Y-15775960D02*
X10384764Y-15718817D01*
X10384764Y-15718817D02*
X10394288Y-15699769D01*
X10394288Y-15699769D02*
X10403812Y-15690246D01*
X10403812Y-15690246D02*
X10422859Y-15680722D01*
X10422859Y-15680722D02*
X10460955Y-15680722D01*
X10460955Y-15680722D02*
X10480002Y-15690246D01*
X10556193Y-15890246D02*
X10565716Y-15880722D01*
X10565716Y-15880722D02*
X10584764Y-15852150D01*
X10584764Y-15852150D02*
X10594288Y-15833103D01*
X10594288Y-15833103D02*
X10603812Y-15804531D01*
X10603812Y-15804531D02*
X10613335Y-15756912D01*
X10613335Y-15756912D02*
X10613335Y-15718817D01*
X10613335Y-15718817D02*
X10603812Y-15671198D01*
X10603812Y-15671198D02*
X10594288Y-15642627D01*
X10594288Y-15642627D02*
X10584764Y-15623579D01*
X10584764Y-15623579D02*
X10565716Y-15595007D01*
X10565716Y-15595007D02*
X10556193Y-15585484D01*
M02*
