G04*
G04 #@! TF.GenerationSoftware,Altium Limited,Altium Designer,25.7.1 (20)*
G04*
G04 Layer_Color=8388736*
%FSLAX44Y44*%
%MOMM*%
G71*
G04*
G04 #@! TF.SameCoordinates,9F9FC123-953C-4523-80A4-8AAEF463EA7A*
G04*
G04*
G04 #@! TF.FilePolarity,Negative*
G04*
G01*
G75*
G04:AMPARAMS|DCode=51|XSize=0.6mm|YSize=0.7mm|CornerRadius=0mm|HoleSize=0mm|Usage=FLASHONLY|Rotation=9.500|XOffset=0mm|YOffset=0mm|HoleType=Round|Shape=Rectangle|*
%AMROTATEDRECTD51*
4,1,4,-0.2381,-0.3947,-0.3537,0.2957,0.2381,0.3947,0.3537,-0.2957,-0.2381,-0.3947,0.0*
%
%ADD51ROTATEDRECTD51*%

G04:AMPARAMS|DCode=52|XSize=0.6mm|YSize=0.7mm|CornerRadius=0mm|HoleSize=0mm|Usage=FLASHONLY|Rotation=320.702|XOffset=0mm|YOffset=0mm|HoleType=Round|Shape=Rectangle|*
%AMROTATEDRECTD52*
4,1,4,-0.4538,-0.0809,-0.0105,0.4609,0.4538,0.0809,0.0105,-0.4609,-0.4538,-0.0809,0.0*
%
%ADD52ROTATEDRECTD52*%

G04:AMPARAMS|DCode=53|XSize=0.6mm|YSize=0.7mm|CornerRadius=0mm|HoleSize=0mm|Usage=FLASHONLY|Rotation=142.894|XOffset=0mm|YOffset=0mm|HoleType=Round|Shape=Rectangle|*
%AMROTATEDRECTD53*
4,1,4,0.4504,0.0982,0.0281,-0.4601,-0.4504,-0.0982,-0.0281,0.4601,0.4504,0.0982,0.0*
%
%ADD53ROTATEDRECTD53*%

G04:AMPARAMS|DCode=54|XSize=0.6mm|YSize=0.7mm|CornerRadius=0mm|HoleSize=0mm|Usage=FLASHONLY|Rotation=30.000|XOffset=0mm|YOffset=0mm|HoleType=Round|Shape=Rectangle|*
%AMROTATEDRECTD54*
4,1,4,-0.0848,-0.4531,-0.4348,0.1531,0.0848,0.4531,0.4348,-0.1531,-0.0848,-0.4531,0.0*
%
%ADD54ROTATEDRECTD54*%

G04:AMPARAMS|DCode=55|XSize=0.6mm|YSize=0.7mm|CornerRadius=0mm|HoleSize=0mm|Usage=FLASHONLY|Rotation=100.000|XOffset=0mm|YOffset=0mm|HoleType=Round|Shape=Rectangle|*
%AMROTATEDRECTD55*
4,1,4,0.3968,-0.2347,-0.2926,-0.3562,-0.3968,0.2347,0.2926,0.3562,0.3968,-0.2347,0.0*
%
%ADD55ROTATEDRECTD55*%

G04:AMPARAMS|DCode=56|XSize=0.6mm|YSize=0.7mm|CornerRadius=0mm|HoleSize=0mm|Usage=FLASHONLY|Rotation=20.000|XOffset=0mm|YOffset=0mm|HoleType=Round|Shape=Rectangle|*
%AMROTATEDRECTD56*
4,1,4,-0.1622,-0.4315,-0.4016,0.2263,0.1622,0.4315,0.4016,-0.2263,-0.1622,-0.4315,0.0*
%
%ADD56ROTATEDRECTD56*%

G04:AMPARAMS|DCode=57|XSize=0.6mm|YSize=0.7mm|CornerRadius=0mm|HoleSize=0mm|Usage=FLASHONLY|Rotation=10.000|XOffset=0mm|YOffset=0mm|HoleType=Round|Shape=Rectangle|*
%AMROTATEDRECTD57*
4,1,4,-0.2347,-0.3968,-0.3562,0.2926,0.2347,0.3968,0.3562,-0.2926,-0.2347,-0.3968,0.0*
%
%ADD57ROTATEDRECTD57*%

G04:AMPARAMS|DCode=58|XSize=0.6mm|YSize=0.7mm|CornerRadius=0mm|HoleSize=0mm|Usage=FLASHONLY|Rotation=176.515|XOffset=0mm|YOffset=0mm|HoleType=Round|Shape=Rectangle|*
%AMROTATEDRECTD58*
4,1,4,0.3207,0.3311,0.2782,-0.3676,-0.3207,-0.3311,-0.2782,0.3676,0.3207,0.3311,0.0*
%
%ADD58ROTATEDRECTD58*%

G04:AMPARAMS|DCode=59|XSize=0.6mm|YSize=0.7mm|CornerRadius=0mm|HoleSize=0mm|Usage=FLASHONLY|Rotation=110.000|XOffset=0mm|YOffset=0mm|HoleType=Round|Shape=Rectangle|*
%AMROTATEDRECTD59*
4,1,4,0.4315,-0.1622,-0.2263,-0.4016,-0.4315,0.1622,0.2263,0.4016,0.4315,-0.1622,0.0*
%
%ADD59ROTATEDRECTD59*%

G04:AMPARAMS|DCode=60|XSize=0.6mm|YSize=0.7mm|CornerRadius=0mm|HoleSize=0mm|Usage=FLASHONLY|Rotation=161.758|XOffset=0mm|YOffset=0mm|HoleType=Round|Shape=Rectangle|*
%AMROTATEDRECTD60*
4,1,4,0.3945,0.2385,0.1754,-0.4263,-0.3945,-0.2385,-0.1754,0.4263,0.3945,0.2385,0.0*
%
%ADD60ROTATEDRECTD60*%

G04:AMPARAMS|DCode=61|XSize=0.6mm|YSize=0.7mm|CornerRadius=0mm|HoleSize=0mm|Usage=FLASHONLY|Rotation=65.943|XOffset=0mm|YOffset=0mm|HoleType=Round|Shape=Rectangle|*
%AMROTATEDRECTD61*
4,1,4,0.1973,-0.4166,-0.4419,-0.1313,-0.1973,0.4166,0.4419,0.1313,0.1973,-0.4166,0.0*
%
%ADD61ROTATEDRECTD61*%

G04:AMPARAMS|DCode=62|XSize=0.6mm|YSize=0.7mm|CornerRadius=0mm|HoleSize=0mm|Usage=FLASHONLY|Rotation=234.426|XOffset=0mm|YOffset=0mm|HoleType=Round|Shape=Rectangle|*
%AMROTATEDRECTD62*
4,1,4,-0.1102,0.4476,0.4592,0.0404,0.1102,-0.4476,-0.4592,-0.0404,-0.1102,0.4476,0.0*
%
%ADD62ROTATEDRECTD62*%

G04:AMPARAMS|DCode=63|XSize=0.6mm|YSize=0.7mm|CornerRadius=0mm|HoleSize=0mm|Usage=FLASHONLY|Rotation=293.779|XOffset=0mm|YOffset=0mm|HoleType=Round|Shape=Rectangle|*
%AMROTATEDRECTD63*
4,1,4,-0.4412,0.1334,0.1993,0.4157,0.4412,-0.1334,-0.1993,-0.4157,-0.4412,0.1334,0.0*
%
%ADD63ROTATEDRECTD63*%

G04:AMPARAMS|DCode=64|XSize=0.6mm|YSize=0.7mm|CornerRadius=0mm|HoleSize=0mm|Usage=FLASHONLY|Rotation=314.000|XOffset=0mm|YOffset=0mm|HoleType=Round|Shape=Rectangle|*
%AMROTATEDRECTD64*
4,1,4,-0.4602,-0.0273,0.0434,0.4589,0.4602,0.0273,-0.0434,-0.4589,-0.4602,-0.0273,0.0*
%
%ADD64ROTATEDRECTD64*%

G04:AMPARAMS|DCode=65|XSize=0.6mm|YSize=0.7mm|CornerRadius=0mm|HoleSize=0mm|Usage=FLASHONLY|Rotation=172.798|XOffset=0mm|YOffset=0mm|HoleType=Round|Shape=Rectangle|*
%AMROTATEDRECTD65*
4,1,4,0.3415,0.3096,0.2537,-0.3849,-0.3415,-0.3096,-0.2537,0.3849,0.3415,0.3096,0.0*
%
%ADD65ROTATEDRECTD65*%

G04:AMPARAMS|DCode=66|XSize=0.6mm|YSize=0.7mm|CornerRadius=0mm|HoleSize=0mm|Usage=FLASHONLY|Rotation=146.548|XOffset=0mm|YOffset=0mm|HoleType=Round|Shape=Rectangle|*
%AMROTATEDRECTD66*
4,1,4,0.4432,0.1267,0.0574,-0.4574,-0.4432,-0.1267,-0.0574,0.4574,0.4432,0.1267,0.0*
%
%ADD66ROTATEDRECTD66*%

G04:AMPARAMS|DCode=67|XSize=0.6mm|YSize=0.7mm|CornerRadius=0mm|HoleSize=0mm|Usage=FLASHONLY|Rotation=120.000|XOffset=0mm|YOffset=0mm|HoleType=Round|Shape=Rectangle|*
%AMROTATEDRECTD67*
4,1,4,0.4531,-0.0848,-0.1531,-0.4348,-0.4531,0.0848,0.1531,0.4348,0.4531,-0.0848,0.0*
%
%ADD67ROTATEDRECTD67*%

G04:AMPARAMS|DCode=68|XSize=0.6mm|YSize=0.7mm|CornerRadius=0mm|HoleSize=0mm|Usage=FLASHONLY|Rotation=180.421|XOffset=0mm|YOffset=0mm|HoleType=Round|Shape=Rectangle|*
%AMROTATEDRECTD68*
4,1,4,0.2974,0.3522,0.3026,-0.3478,-0.2974,-0.3522,-0.3026,0.3478,0.2974,0.3522,0.0*
%
%ADD68ROTATEDRECTD68*%

G04:AMPARAMS|DCode=69|XSize=0.6mm|YSize=0.7mm|CornerRadius=0mm|HoleSize=0mm|Usage=FLASHONLY|Rotation=209.122|XOffset=0mm|YOffset=0mm|HoleType=Round|Shape=Rectangle|*
%AMROTATEDRECTD69*
4,1,4,0.0917,0.4518,0.4324,-0.1598,-0.0917,-0.4518,-0.4324,0.1598,0.0917,0.4518,0.0*
%
%ADD69ROTATEDRECTD69*%

G04:AMPARAMS|DCode=70|XSize=0.6mm|YSize=0.7mm|CornerRadius=0mm|HoleSize=0mm|Usage=FLASHONLY|Rotation=149.428|XOffset=0mm|YOffset=0mm|HoleType=Round|Shape=Rectangle|*
%AMROTATEDRECTD70*
4,1,4,0.4363,0.1488,0.0803,-0.4539,-0.4363,-0.1488,-0.0803,0.4539,0.4363,0.1488,0.0*
%
%ADD70ROTATEDRECTD70*%

%ADD71R,0.7000X0.6000*%
G04:AMPARAMS|DCode=72|XSize=0.6mm|YSize=0.7mm|CornerRadius=0mm|HoleSize=0mm|Usage=FLASHONLY|Rotation=344.966|XOffset=0mm|YOffset=0mm|HoleType=Round|Shape=Rectangle|*
%AMROTATEDRECTD72*
4,1,4,-0.3805,-0.2602,-0.1989,0.4158,0.3805,0.2602,0.1989,-0.4158,-0.3805,-0.2602,0.0*
%
%ADD72ROTATEDRECTD72*%

G04:AMPARAMS|DCode=73|XSize=0.6mm|YSize=0.7mm|CornerRadius=0mm|HoleSize=0mm|Usage=FLASHONLY|Rotation=255.937|XOffset=0mm|YOffset=0mm|HoleType=Round|Shape=Rectangle|*
%AMROTATEDRECTD73*
4,1,4,-0.2666,0.3761,0.4124,0.2060,0.2666,-0.3761,-0.4124,-0.2060,-0.2666,0.3761,0.0*
%
%ADD73ROTATEDRECTD73*%

G04:AMPARAMS|DCode=74|XSize=0.6mm|YSize=0.7mm|CornerRadius=0mm|HoleSize=0mm|Usage=FLASHONLY|Rotation=260.000|XOffset=0mm|YOffset=0mm|HoleType=Round|Shape=Rectangle|*
%AMROTATEDRECTD74*
4,1,4,-0.2926,0.3562,0.3968,0.2347,0.2926,-0.3562,-0.3968,-0.2347,-0.2926,0.3562,0.0*
%
%ADD74ROTATEDRECTD74*%

G04:AMPARAMS|DCode=75|XSize=0.6mm|YSize=0.7mm|CornerRadius=0mm|HoleSize=0mm|Usage=FLASHONLY|Rotation=52.338|XOffset=0mm|YOffset=0mm|HoleType=Round|Shape=Rectangle|*
%AMROTATEDRECTD75*
4,1,4,0.0938,-0.4513,-0.4604,-0.0236,-0.0938,0.4513,0.4604,0.0236,0.0938,-0.4513,0.0*
%
%ADD75ROTATEDRECTD75*%

G04:AMPARAMS|DCode=76|XSize=0.6mm|YSize=0.7mm|CornerRadius=0mm|HoleSize=0mm|Usage=FLASHONLY|Rotation=334.000|XOffset=0mm|YOffset=0mm|HoleType=Round|Shape=Rectangle|*
%AMROTATEDRECTD76*
4,1,4,-0.4231,-0.1831,-0.1162,0.4461,0.4231,0.1831,0.1162,-0.4461,-0.4231,-0.1831,0.0*
%
%ADD76ROTATEDRECTD76*%

G04:AMPARAMS|DCode=77|XSize=0.6mm|YSize=0.7mm|CornerRadius=0mm|HoleSize=0mm|Usage=FLASHONLY|Rotation=34.817|XOffset=0mm|YOffset=0mm|HoleType=Round|Shape=Rectangle|*
%AMROTATEDRECTD77*
4,1,4,-0.0465,-0.4586,-0.4461,0.1161,0.0465,0.4586,0.4461,-0.1161,-0.0465,-0.4586,0.0*
%
%ADD77ROTATEDRECTD77*%

G04:AMPARAMS|DCode=78|XSize=0.6mm|YSize=0.7mm|CornerRadius=0mm|HoleSize=0mm|Usage=FLASHONLY|Rotation=84.459|XOffset=0mm|YOffset=0mm|HoleType=Round|Shape=Rectangle|*
%AMROTATEDRECTD78*
4,1,4,0.3194,-0.3324,-0.3773,-0.2648,-0.3194,0.3324,0.3773,0.2648,0.3194,-0.3324,0.0*
%
%ADD78ROTATEDRECTD78*%

G04:AMPARAMS|DCode=79|XSize=0.6mm|YSize=0.7mm|CornerRadius=0mm|HoleSize=0mm|Usage=FLASHONLY|Rotation=244.120|XOffset=0mm|YOffset=0mm|HoleType=Round|Shape=Rectangle|*
%AMROTATEDRECTD79*
4,1,4,-0.1840,0.4227,0.4458,0.1171,0.1840,-0.4227,-0.4458,-0.1171,-0.1840,0.4227,0.0*
%
%ADD79ROTATEDRECTD79*%

G04:AMPARAMS|DCode=80|XSize=0.6mm|YSize=0.7mm|CornerRadius=0mm|HoleSize=0mm|Usage=FLASHONLY|Rotation=1.331|XOffset=0mm|YOffset=0mm|HoleType=Round|Shape=Rectangle|*
%AMROTATEDRECTD80*
4,1,4,-0.2918,-0.3569,-0.3081,0.3429,0.2918,0.3569,0.3081,-0.3429,-0.2918,-0.3569,0.0*
%
%ADD80ROTATEDRECTD80*%

G04:AMPARAMS|DCode=81|XSize=0.6mm|YSize=0.7mm|CornerRadius=0mm|HoleSize=0mm|Usage=FLASHONLY|Rotation=51.078|XOffset=0mm|YOffset=0mm|HoleType=Round|Shape=Rectangle|*
%AMROTATEDRECTD81*
4,1,4,0.0838,-0.4533,-0.4608,-0.0135,-0.0838,0.4533,0.4608,0.0135,0.0838,-0.4533,0.0*
%
%ADD81ROTATEDRECTD81*%

G04:AMPARAMS|DCode=82|XSize=0.6mm|YSize=0.7mm|CornerRadius=0mm|HoleSize=0mm|Usage=FLASHONLY|Rotation=229.185|XOffset=0mm|YOffset=0mm|HoleType=Round|Shape=Rectangle|*
%AMROTATEDRECTD82*
4,1,4,-0.0688,0.4558,0.4610,-0.0017,0.0688,-0.4558,-0.4610,0.0017,-0.0688,0.4558,0.0*
%
%ADD82ROTATEDRECTD82*%

%ADD83R,0.6000X0.7000*%
%ADD84C,1.6000*%
%ADD85P,2.2627X4X324.5*%
%ADD86C,2.9000*%
G04:AMPARAMS|DCode=87|XSize=2.1mm|YSize=1mm|CornerRadius=0.5mm|HoleSize=0mm|Usage=FLASHONLY|Rotation=9.500|XOffset=0mm|YOffset=0mm|HoleType=Round|Shape=RoundedRectangle|*
%AMROUNDEDRECTD87*
21,1,2.1000,0.0000,0,0,9.5*
21,1,1.1000,1.0000,0,0,9.5*
1,1,1.0000,0.5425,0.0908*
1,1,1.0000,-0.5425,-0.0908*
1,1,1.0000,-0.5425,-0.0908*
1,1,1.0000,0.5425,0.0908*
%
%ADD87ROUNDEDRECTD87*%
%ADD88R,1.6000X1.6000*%
%ADD89C,1.0000*%
%ADD90C,1.8500*%
%ADD91C,4.2000*%
%ADD92C,0.1000*%
%ADD93C,2.6000*%
D51*
X259175Y364931D02*
D03*
X234175Y359931D02*
D03*
X246675Y362431D02*
D03*
X221675Y357431D02*
D03*
X223325Y347569D02*
D03*
X248325Y352569D02*
D03*
X260825Y355069D02*
D03*
X235825Y350069D02*
D03*
D52*
X14275Y292260D02*
D03*
X7941Y284522D02*
D03*
D53*
X87348Y221366D02*
D03*
X93381Y229341D02*
D03*
D54*
X-12284Y239023D02*
D03*
X92308Y287863D02*
D03*
X-7285Y230363D02*
D03*
X87308Y296523D02*
D03*
D55*
X40732Y230569D02*
D03*
X50580Y232305D02*
D03*
X37122Y308628D02*
D03*
X27273Y306891D02*
D03*
D56*
X-3984Y252751D02*
D03*
X80588Y283533D02*
D03*
X-564Y243354D02*
D03*
X84008Y274136D02*
D03*
D57*
X7137Y262724D02*
D03*
X8874Y252876D02*
D03*
X71150Y274011D02*
D03*
X72886Y264163D02*
D03*
D58*
X59719Y258190D02*
D03*
X60326Y268172D02*
D03*
D59*
X50107Y218165D02*
D03*
X15647Y315765D02*
D03*
X25044Y319186D02*
D03*
X59503Y221586D02*
D03*
D60*
X86493Y242858D02*
D03*
X89624Y252355D02*
D03*
D61*
X17363Y217615D02*
D03*
X26495Y213539D02*
D03*
D62*
X67864Y292211D02*
D03*
X59730Y298028D02*
D03*
D63*
X13278Y334039D02*
D03*
X4127Y330007D02*
D03*
D64*
X-1181Y312395D02*
D03*
X-8375Y305448D02*
D03*
D65*
X102754Y249467D02*
D03*
X104008Y259388D02*
D03*
D66*
X73906Y247043D02*
D03*
X68394Y238699D02*
D03*
D67*
X73092Y216147D02*
D03*
X64432Y211147D02*
D03*
D68*
X117274Y269639D02*
D03*
X117348Y259639D02*
D03*
D69*
X102793Y304859D02*
D03*
X107659Y296123D02*
D03*
D70*
X108728Y228536D02*
D03*
X103642Y219926D02*
D03*
D71*
X45012Y241943D02*
D03*
X35012Y241944D02*
D03*
X35012Y297443D02*
D03*
X45012Y297443D02*
D03*
D72*
X-22421Y275034D02*
D03*
X-19827Y284692D02*
D03*
D73*
X51726Y326669D02*
D03*
X61426Y324239D02*
D03*
D74*
X38561Y284008D02*
D03*
X48409Y282271D02*
D03*
D75*
X22366Y229216D02*
D03*
X14449Y235326D02*
D03*
D76*
X-7721Y278834D02*
D03*
X-3338Y287822D02*
D03*
D77*
X-18103Y215679D02*
D03*
X-23812Y223889D02*
D03*
D78*
X34893Y200322D02*
D03*
X24940Y201287D02*
D03*
D79*
X57249Y312719D02*
D03*
X66246Y308355D02*
D03*
D80*
X-34384Y258086D02*
D03*
X-34616Y268083D02*
D03*
D81*
X4472Y210476D02*
D03*
X-3308Y216759D02*
D03*
D82*
X80244Y318481D02*
D03*
X87813Y311945D02*
D03*
D83*
X20012Y258443D02*
D03*
X20012Y268443D02*
D03*
D84*
X530078Y407039D02*
D03*
X371486Y277487D02*
D03*
X367293Y302538D02*
D03*
X404922Y231576D02*
D03*
X358909Y352642D02*
D03*
X480077Y244152D02*
D03*
X555232Y256729D02*
D03*
X530180Y252537D02*
D03*
X429973Y235768D02*
D03*
X455025Y239960D02*
D03*
X505128Y248344D02*
D03*
X375678Y252435D02*
D03*
X363101Y327590D02*
D03*
X354717Y377693D02*
D03*
X379768Y381885D02*
D03*
X404820Y386078D02*
D03*
X429872Y390270D02*
D03*
X454923Y394462D02*
D03*
X479975Y398654D02*
D03*
X505027Y402847D02*
D03*
X555130Y411231D02*
D03*
X379870Y227383D02*
D03*
X1247500Y204800D02*
D03*
Y179400D02*
D03*
Y230200D02*
D03*
D85*
X580283Y260921D02*
D03*
D86*
X1152546Y-784600D02*
D03*
X1104900Y-355600D02*
D03*
Y-165100D02*
D03*
Y25400D02*
D03*
X533400D02*
D03*
Y-165100D02*
D03*
Y-355600D02*
D03*
Y-546100D02*
D03*
X-38100Y25400D02*
D03*
Y-165100D02*
D03*
Y-355600D02*
D03*
Y-546100D02*
D03*
X1342994Y-594100D02*
D03*
X1343050Y-784600D02*
D03*
X1366900Y-259600D02*
D03*
X1390710Y25400D02*
D03*
X652455Y-755660D02*
D03*
X723900Y-546100D02*
D03*
Y-355600D02*
D03*
Y-165100D02*
D03*
Y25400D02*
D03*
X152400D02*
D03*
Y-355600D02*
D03*
X104775Y-755660D02*
D03*
X152400Y-165100D02*
D03*
Y-546100D02*
D03*
X914400Y-355600D02*
D03*
X938214Y-546100D02*
D03*
X914400Y-165100D02*
D03*
Y25400D02*
D03*
X1533550Y-784600D02*
D03*
X1676364Y-450100D02*
D03*
Y-259600D02*
D03*
X342900Y25400D02*
D03*
X414335Y-755660D02*
D03*
X342900Y-165100D02*
D03*
Y-355600D02*
D03*
Y-546100D02*
D03*
X715955Y-730260D02*
D03*
X1739864Y-424700D02*
D03*
X787400Y50800D02*
D03*
X1454209Y50800D02*
D03*
X1406494Y-568700D02*
D03*
X977900Y50800D02*
D03*
X1168400D02*
D03*
X787400Y-520700D02*
D03*
X406400Y50800D02*
D03*
X1739864Y-234200D02*
D03*
X1168400Y-139700D02*
D03*
X215900Y50800D02*
D03*
Y-330200D02*
D03*
X1406550Y-759200D02*
D03*
X406400Y-139700D02*
D03*
X596900D02*
D03*
X1597050Y-759200D02*
D03*
X1430400Y-234200D02*
D03*
X25400Y-520700D02*
D03*
X215900Y-139700D02*
D03*
X596900Y-330200D02*
D03*
X168275Y-730260D02*
D03*
X25400Y50800D02*
D03*
Y-139700D02*
D03*
Y-330200D02*
D03*
X215900Y-520700D02*
D03*
X477835Y-730260D02*
D03*
X596900Y50800D02*
D03*
Y-520700D02*
D03*
X787400Y-139700D02*
D03*
Y-330200D02*
D03*
X977900Y-139700D02*
D03*
Y-330200D02*
D03*
X1001714Y-520700D02*
D03*
X1216046Y-759200D02*
D03*
X406400Y-520700D02*
D03*
Y-330200D02*
D03*
X1168400D02*
D03*
D87*
X479145Y342022D02*
D03*
X537859Y306221D02*
D03*
X497421Y299454D02*
D03*
X568434Y311338D02*
D03*
D88*
X1247500Y255600D02*
D03*
D89*
X511461Y324617D02*
D03*
X580501Y336170D02*
D03*
D90*
X741355Y-781060D02*
D03*
X639755D02*
D03*
X1765264Y-475500D02*
D03*
X1663664D02*
D03*
X812800Y-0D02*
D03*
X711200D02*
D03*
X1479610Y0D02*
D03*
X1378009D02*
D03*
X1431894Y-619500D02*
D03*
X1330294D02*
D03*
X901700Y-0D02*
D03*
X1003300D02*
D03*
X1092200D02*
D03*
X1193800D02*
D03*
X330200D02*
D03*
X431800D02*
D03*
X1663664Y-285000D02*
D03*
X1765264D02*
D03*
X1092200Y-190500D02*
D03*
X1193800D02*
D03*
X241300Y-0D02*
D03*
X139700D02*
D03*
X241300Y-381000D02*
D03*
X139700D02*
D03*
X193675Y-781060D02*
D03*
X92075D02*
D03*
X-50800Y0D02*
D03*
X50800D02*
D03*
Y-190500D02*
D03*
X-50800D02*
D03*
Y-381000D02*
D03*
X50800D02*
D03*
Y-571500D02*
D03*
X-50800D02*
D03*
X241300Y-190500D02*
D03*
X139700D02*
D03*
X241300Y-571500D02*
D03*
X139700D02*
D03*
X330200Y-190500D02*
D03*
X431800D02*
D03*
X503235Y-781060D02*
D03*
X401635D02*
D03*
X520700Y-0D02*
D03*
X622300D02*
D03*
Y-190500D02*
D03*
X520700D02*
D03*
Y-381000D02*
D03*
X622300D02*
D03*
Y-571500D02*
D03*
X520700D02*
D03*
X812800Y-190500D02*
D03*
X711200D02*
D03*
Y-381000D02*
D03*
X812800D02*
D03*
Y-571500D02*
D03*
X711200D02*
D03*
X901700Y-190500D02*
D03*
X1003300D02*
D03*
Y-381000D02*
D03*
X901700D02*
D03*
X925514Y-571500D02*
D03*
X1027114D02*
D03*
X1139846Y-810000D02*
D03*
X1241446D02*
D03*
X431800Y-571500D02*
D03*
X330200D02*
D03*
Y-381000D02*
D03*
X431800D02*
D03*
X1092200D02*
D03*
X1193800D02*
D03*
X1354200Y-285000D02*
D03*
X1455800D02*
D03*
X1330350Y-810000D02*
D03*
X1431950D02*
D03*
X1622450D02*
D03*
X1520850D02*
D03*
D91*
X690555Y-781060D02*
D03*
X1714464Y-475500D02*
D03*
X762000Y-0D02*
D03*
X1428810Y0D02*
D03*
X1381094Y-619500D02*
D03*
X952500Y-0D02*
D03*
X1143000D02*
D03*
X381000D02*
D03*
X1714464Y-285000D02*
D03*
X1143000Y-190500D02*
D03*
X190500Y-0D02*
D03*
Y-381000D02*
D03*
X142875Y-781060D02*
D03*
X0Y0D02*
D03*
Y-190500D02*
D03*
Y-381000D02*
D03*
Y-571500D02*
D03*
X190500Y-190500D02*
D03*
Y-571500D02*
D03*
X381000Y-190500D02*
D03*
X452435Y-781060D02*
D03*
X571500Y-0D02*
D03*
Y-190500D02*
D03*
Y-381000D02*
D03*
Y-571500D02*
D03*
X762000Y-190500D02*
D03*
Y-381000D02*
D03*
Y-571500D02*
D03*
X952500Y-190500D02*
D03*
Y-381000D02*
D03*
X976314Y-571500D02*
D03*
X1190646Y-810000D02*
D03*
X381000Y-571500D02*
D03*
Y-381000D02*
D03*
X1143000D02*
D03*
X1405000Y-285000D02*
D03*
X1381150Y-810000D02*
D03*
X1571650D02*
D03*
D92*
X261957Y-864931D02*
D03*
X23727Y-864900D02*
D03*
X1488839Y-404148D02*
D03*
X1488871Y-165918D02*
D03*
X1547892Y-83871D02*
D03*
X1309661Y-83840D02*
D03*
X261847Y-706559D02*
D03*
X24058Y-706152D02*
D03*
X1331353Y-404114D02*
D03*
X1330923Y-164834D02*
D03*
X1547781Y72411D02*
D03*
X1309661Y72410D02*
D03*
X285753Y-97500D02*
D03*
X857253D02*
D03*
Y-478500D02*
D03*
X285753D02*
D03*
D93*
X1635312Y-637500D02*
D03*
Y-120000D02*
D03*
X585715Y196265D02*
D03*
X-69694Y-874623D02*
D03*
M02*
