G04*
G04 #@! TF.GenerationSoftware,Altium Limited,Altium Designer,25.7.1 (20)*
G04*
G04 Layer_Color=128*
%FSLAX44Y44*%
%MOMM*%
G71*
G04*
G04 #@! TF.SameCoordinates,9F9FC123-953C-4523-80A4-8AAEF463EA7A*
G04*
G04*
G04 #@! TF.FilePolarity,Positive*
G04*
G01*
G75*
%ADD130C,0.0508*%
D130*
X525578Y407039D02*
X534578D01*
X530078Y402539D02*
Y411539D01*
X366986Y277487D02*
X375986D01*
X371486Y272987D02*
Y281987D01*
X362793Y302538D02*
X371793D01*
X367293Y298038D02*
Y307038D01*
X400422Y231576D02*
X409422D01*
X404922Y227076D02*
Y236076D01*
X354409Y352642D02*
X363409D01*
X358909Y348142D02*
Y357142D01*
X475577Y244152D02*
X484577D01*
X480077Y239652D02*
Y248652D01*
X550732Y256729D02*
X559732D01*
X555232Y252229D02*
Y261229D01*
X525680Y252537D02*
X534680D01*
X530180Y248037D02*
Y257037D01*
X575783Y260921D02*
X584783D01*
X580283Y256421D02*
Y265421D01*
X425473Y235768D02*
X434473D01*
X429973Y231268D02*
Y240268D01*
X450525Y239960D02*
X459525D01*
X455025Y235460D02*
Y244460D01*
X500628Y248344D02*
X509628D01*
X505128Y243844D02*
Y252844D01*
X371178Y252435D02*
X380178D01*
X375678Y247935D02*
Y256935D01*
X358601Y327590D02*
X367601D01*
X363101Y323090D02*
Y332090D01*
X350217Y377693D02*
X359217D01*
X354717Y373193D02*
Y382193D01*
X375268Y381885D02*
X384268D01*
X379768Y377385D02*
Y386385D01*
X400320Y386078D02*
X409320D01*
X404820Y381578D02*
Y390578D01*
X425372Y390270D02*
X434372D01*
X429872Y385770D02*
Y394770D01*
X450424Y394462D02*
X459423D01*
X454923Y389962D02*
Y398962D01*
X475475Y398654D02*
X484475D01*
X479975Y394154D02*
Y403154D01*
X500527Y402847D02*
X509527D01*
X505027Y398347D02*
Y407347D01*
X550630Y411231D02*
X559630D01*
X555130Y406731D02*
Y415731D01*
X375370Y227383D02*
X384370D01*
X379870Y222883D02*
Y231883D01*
X1144796Y-784600D02*
X1160296D01*
X1152546Y-792350D02*
Y-776850D01*
X1097150Y-355600D02*
X1112650D01*
X1104900Y-363350D02*
Y-347850D01*
X1097150Y-165100D02*
X1112650D01*
X1104900Y-172850D02*
Y-157350D01*
X1097150Y25400D02*
X1112650D01*
X1104900Y17650D02*
Y33150D01*
X525650Y25400D02*
X541150D01*
X533400Y17650D02*
Y33150D01*
X525650Y-165100D02*
X541150D01*
X533400Y-172850D02*
Y-157350D01*
X525650Y-355600D02*
X541150D01*
X533400Y-363350D02*
Y-347850D01*
X525650Y-546100D02*
X541150D01*
X533400Y-553850D02*
Y-538350D01*
X1243000Y204800D02*
X1252000D01*
X1247500Y200300D02*
Y209300D01*
X476395Y342022D02*
X481895D01*
X479145Y339272D02*
Y344772D01*
X-45850Y25400D02*
X-30350D01*
X-38100Y17650D02*
Y33150D01*
X-45850Y-165100D02*
X-30350D01*
X-38100Y-172850D02*
Y-157350D01*
X-45850Y-355600D02*
X-30350D01*
X-38100Y-363350D02*
Y-347850D01*
X-45850Y-546100D02*
X-30350D01*
X-38100Y-553850D02*
Y-538350D01*
X1335244Y-594100D02*
X1350744D01*
X1342994Y-601850D02*
Y-586350D01*
X1335300Y-784600D02*
X1350800D01*
X1343050Y-792350D02*
Y-776850D01*
X1359150Y-259600D02*
X1374650D01*
X1366900Y-267350D02*
Y-251850D01*
X1382959Y25400D02*
X1398459D01*
X1390710Y17650D02*
Y33150D01*
X644705Y-755660D02*
X660205D01*
X652455Y-763410D02*
Y-747910D01*
X716150Y-546100D02*
X731650D01*
X723900Y-553850D02*
Y-538350D01*
X716150Y-355600D02*
X731650D01*
X723900Y-363350D02*
Y-347850D01*
X716150Y-165100D02*
X731650D01*
X723900Y-172850D02*
Y-157350D01*
X716150Y25400D02*
X731650D01*
X723900Y17650D02*
Y33150D01*
X144650Y25400D02*
X160150D01*
X152400Y17650D02*
Y33150D01*
X144650Y-355600D02*
X160150D01*
X152400Y-363350D02*
Y-347850D01*
X97025Y-755660D02*
X112525D01*
X104775Y-763410D02*
Y-747910D01*
X144650Y-165100D02*
X160150D01*
X152400Y-172850D02*
Y-157350D01*
X144650Y-546100D02*
X160150D01*
X152400Y-553850D02*
Y-538350D01*
X906650Y-355600D02*
X922150D01*
X914400Y-363350D02*
Y-347850D01*
X930464Y-546100D02*
X945964D01*
X938214Y-553850D02*
Y-538350D01*
X906650Y-165100D02*
X922150D01*
X914400Y-172850D02*
Y-157350D01*
X906650Y25400D02*
X922150D01*
X914400Y17650D02*
Y33150D01*
X1525800Y-784600D02*
X1541300D01*
X1533550Y-792350D02*
Y-776850D01*
X1668614Y-450100D02*
X1684114D01*
X1676364Y-457850D02*
Y-442350D01*
X1668614Y-259600D02*
X1684114D01*
X1676364Y-267350D02*
Y-251850D01*
X335150Y25400D02*
X350650D01*
X342900Y17650D02*
Y33150D01*
X406585Y-755660D02*
X422085D01*
X414335Y-763410D02*
Y-747910D01*
X335150Y-165100D02*
X350650D01*
X342900Y-172850D02*
Y-157350D01*
X335150Y-355600D02*
X350650D01*
X342900Y-363350D02*
Y-347850D01*
X335150Y-546100D02*
X350650D01*
X342900Y-553850D02*
Y-538350D01*
X1243000Y179400D02*
X1252000D01*
X1247500Y174900D02*
Y183900D01*
X535109Y306221D02*
X540609D01*
X537859Y303471D02*
Y308971D01*
X1243000Y230200D02*
X1252000D01*
X1247500Y225700D02*
Y234700D01*
X1243000Y255600D02*
X1252000D01*
X1247500Y251100D02*
Y260100D01*
X506461Y324617D02*
X516461D01*
X511461Y319617D02*
Y329617D01*
X575501Y336170D02*
X585501D01*
X580501Y331170D02*
Y341170D01*
X494672Y299454D02*
X500172D01*
X497421Y296704D02*
Y302204D01*
X565684Y311338D02*
X571184D01*
X568434Y308588D02*
Y314088D01*
X708205Y-730260D02*
X723705D01*
X715955Y-738010D02*
Y-722510D01*
X732605Y-781060D02*
X750105D01*
X741355Y-789810D02*
Y-772310D01*
X631005Y-781060D02*
X648505D01*
X639755Y-789810D02*
Y-772310D01*
X670055Y-781060D02*
X711055D01*
X690555Y-801560D02*
Y-760560D01*
X1756514Y-475500D02*
X1774014D01*
X1765264Y-484250D02*
Y-466750D01*
X1654914Y-475500D02*
X1672414D01*
X1663664Y-484250D02*
Y-466750D01*
X1693964Y-475500D02*
X1734964D01*
X1714464Y-496000D02*
Y-455000D01*
X1732114Y-424700D02*
X1747614D01*
X1739864Y-432450D02*
Y-416950D01*
X241957Y-864931D02*
X281957D01*
X261957Y-884931D02*
Y-844931D01*
X3727Y-864900D02*
X43727D01*
X23727Y-884899D02*
Y-844900D01*
X779650Y50800D02*
X795150D01*
X787400Y43050D02*
Y58550D01*
X804050Y-0D02*
X821550D01*
X812800Y-8750D02*
Y8750D01*
X702450Y-0D02*
X719950D01*
X711200Y-8750D02*
Y8750D01*
X741500Y-0D02*
X782500D01*
X762000Y-20500D02*
Y20500D01*
X1620312Y-637500D02*
X1650312D01*
X1635312Y-652500D02*
Y-622500D01*
X1620312Y-120000D02*
X1650312D01*
X1635312Y-135000D02*
Y-105000D01*
X570715Y196265D02*
X600715D01*
X585715Y181265D02*
Y211265D01*
X-84694Y-874623D02*
X-54694D01*
X-69694Y-889623D02*
Y-859623D01*
X1470860Y0D02*
X1488360D01*
X1479610Y-8750D02*
Y8750D01*
X1369259Y0D02*
X1386759D01*
X1378009Y-8750D02*
Y8750D01*
X1408309Y0D02*
X1449310D01*
X1428810Y-20500D02*
Y20500D01*
X1446460Y50800D02*
X1461960D01*
X1454209Y43050D02*
Y58550D01*
X1398744Y-568700D02*
X1414244D01*
X1406494Y-576450D02*
Y-560950D01*
X1423144Y-619500D02*
X1440644D01*
X1431894Y-628250D02*
Y-610750D01*
X1321544Y-619500D02*
X1339044D01*
X1330294Y-628250D02*
Y-610750D01*
X1360594Y-619500D02*
X1401594D01*
X1381094Y-640000D02*
Y-599000D01*
X1468839Y-404148D02*
X1508839D01*
X1488839Y-424148D02*
Y-384148D01*
X1468871Y-165918D02*
X1508871D01*
X1488871Y-185918D02*
Y-145918D01*
X1527892Y-83871D02*
X1567892D01*
X1547892Y-103871D02*
Y-63871D01*
X1289662Y-83840D02*
X1329661D01*
X1309661Y-103839D02*
Y-63840D01*
X243847Y-706559D02*
X279847D01*
X261847Y-724559D02*
Y-688559D01*
X6058Y-706152D02*
X42058D01*
X24058Y-724152D02*
Y-688152D01*
X1313353Y-404114D02*
X1349353D01*
X1331353Y-422114D02*
Y-386114D01*
X1312923Y-164834D02*
X1348923D01*
X1330923Y-182834D02*
Y-146834D01*
X1529781Y72411D02*
X1565781D01*
X1547781Y54411D02*
Y90411D01*
X1291661Y72410D02*
X1327661D01*
X1309661Y54411D02*
Y90410D01*
X932000Y-0D02*
X973000D01*
X952500Y-20500D02*
Y20500D01*
X892950Y-0D02*
X910450D01*
X901700Y-8750D02*
Y8750D01*
X994550Y-0D02*
X1012050D01*
X1003300Y-8750D02*
Y8750D01*
X970150Y50800D02*
X985650D01*
X977900Y43050D02*
Y58550D01*
X1122500Y-0D02*
X1163500D01*
X1143000Y-20500D02*
Y20500D01*
X1083450Y-0D02*
X1100950D01*
X1092200Y-8750D02*
Y8750D01*
X1185050Y-0D02*
X1202550D01*
X1193800Y-8750D02*
Y8750D01*
X1160650Y50800D02*
X1176150D01*
X1168400Y43050D02*
Y58550D01*
X779650Y-520700D02*
X795150D01*
X787400Y-528450D02*
Y-512950D01*
X360500Y-0D02*
X401500D01*
X381000Y-20500D02*
Y20500D01*
X321450Y-0D02*
X338950D01*
X330200Y-8750D02*
Y8750D01*
X423050Y-0D02*
X440550D01*
X431800Y-8750D02*
Y8750D01*
X398650Y50800D02*
X414150D01*
X406400Y43050D02*
Y58550D01*
X1693964Y-285000D02*
X1734964D01*
X1714464Y-305500D02*
Y-264500D01*
X1654914Y-285000D02*
X1672414D01*
X1663664Y-293750D02*
Y-276250D01*
X1756514Y-285000D02*
X1774014D01*
X1765264Y-293750D02*
Y-276250D01*
X1732114Y-234200D02*
X1747614D01*
X1739864Y-241950D02*
Y-226450D01*
X1122500Y-190500D02*
X1163500D01*
X1143000Y-211000D02*
Y-170000D01*
X1083450Y-190500D02*
X1100950D01*
X1092200Y-199250D02*
Y-181750D01*
X1185050Y-190500D02*
X1202550D01*
X1193800Y-199250D02*
Y-181750D01*
X1160650Y-139700D02*
X1176150D01*
X1168400Y-147450D02*
Y-131950D01*
X232550Y-0D02*
X250050D01*
X241300Y-8750D02*
Y8750D01*
X130950Y-0D02*
X148450D01*
X139700Y-8750D02*
Y8750D01*
X170000Y-0D02*
X211000D01*
X190500Y-20500D02*
Y20500D01*
X208150Y50800D02*
X223650D01*
X215900Y43050D02*
Y58550D01*
X208150Y-330200D02*
X223650D01*
X215900Y-337950D02*
Y-322450D01*
X232550Y-381000D02*
X250050D01*
X241300Y-389750D02*
Y-372250D01*
X130950Y-381000D02*
X148450D01*
X139700Y-389750D02*
Y-372250D01*
X170000Y-381000D02*
X211000D01*
X190500Y-401500D02*
Y-360500D01*
X1398800Y-759200D02*
X1414300D01*
X1406550Y-766950D02*
Y-751450D01*
X398650Y-139700D02*
X414150D01*
X406400Y-147450D02*
Y-131950D01*
X589150Y-139700D02*
X604650D01*
X596900Y-147450D02*
Y-131950D01*
X1589300Y-759200D02*
X1604800D01*
X1597050Y-766950D02*
Y-751450D01*
X1422650Y-234200D02*
X1438150D01*
X1430400Y-241950D02*
Y-226450D01*
X17650Y-520700D02*
X33150D01*
X25400Y-528450D02*
Y-512950D01*
X208150Y-139700D02*
X223650D01*
X215900Y-147450D02*
Y-131950D01*
X589150Y-330200D02*
X604650D01*
X596900Y-337950D02*
Y-322450D01*
X270753Y-97500D02*
X300753D01*
X285753Y-112500D02*
Y-82500D01*
X842253Y-97500D02*
X872253D01*
X857253Y-112500D02*
Y-82500D01*
X842253Y-478500D02*
X872253D01*
X857253Y-493500D02*
Y-463500D01*
X270753Y-478500D02*
X300753D01*
X285753Y-493500D02*
Y-463500D01*
X160525Y-730260D02*
X176025D01*
X168275Y-738010D02*
Y-722510D01*
X184925Y-781060D02*
X202425D01*
X193675Y-789810D02*
Y-772310D01*
X83325Y-781060D02*
X100825D01*
X92075Y-789810D02*
Y-772310D01*
X122375Y-781060D02*
X163375D01*
X142875Y-801560D02*
Y-760560D01*
X-20500Y0D02*
X20500D01*
X0Y-20500D02*
Y20500D01*
X-59550Y0D02*
X-42050D01*
X-50800Y-8750D02*
Y8750D01*
X42050Y0D02*
X59550D01*
X50800Y-8750D02*
Y8750D01*
X17650Y50800D02*
X33150D01*
X25400Y43050D02*
Y58550D01*
X17650Y-139700D02*
X33150D01*
X25400Y-147450D02*
Y-131950D01*
X42050Y-190500D02*
X59550D01*
X50800Y-199250D02*
Y-181750D01*
X-59550Y-190500D02*
X-42050D01*
X-50800Y-199250D02*
Y-181750D01*
X-20500Y-190500D02*
X20500D01*
X0Y-211000D02*
Y-170000D01*
X-20500Y-381000D02*
X20500D01*
X0Y-401500D02*
Y-360500D01*
X-59550Y-381000D02*
X-42050D01*
X-50800Y-389750D02*
Y-372250D01*
X42050Y-381000D02*
X59550D01*
X50800Y-389750D02*
Y-372250D01*
X17650Y-330200D02*
X33150D01*
X25400Y-337950D02*
Y-322450D01*
X42050Y-571500D02*
X59550D01*
X50800Y-580250D02*
Y-562750D01*
X-59550Y-571500D02*
X-42050D01*
X-50800Y-580250D02*
Y-562750D01*
X-20500Y-571500D02*
X20500D01*
X0Y-592000D02*
Y-551000D01*
X232550Y-190500D02*
X250050D01*
X241300Y-199250D02*
Y-181750D01*
X130950Y-190500D02*
X148450D01*
X139700Y-199250D02*
Y-181750D01*
X170000Y-190500D02*
X211000D01*
X190500Y-211000D02*
Y-170000D01*
X208150Y-520700D02*
X223650D01*
X215900Y-528450D02*
Y-512950D01*
X232550Y-571500D02*
X250050D01*
X241300Y-580250D02*
Y-562750D01*
X130950Y-571500D02*
X148450D01*
X139700Y-580250D02*
Y-562750D01*
X170000Y-571500D02*
X211000D01*
X190500Y-592000D02*
Y-551000D01*
X360500Y-190500D02*
X401500D01*
X381000Y-211000D02*
Y-170000D01*
X321450Y-190500D02*
X338950D01*
X330200Y-199250D02*
Y-181750D01*
X423050Y-190500D02*
X440550D01*
X431800Y-199250D02*
Y-181750D01*
X470085Y-730260D02*
X485585D01*
X477835Y-738010D02*
Y-722510D01*
X494485Y-781060D02*
X511985D01*
X503235Y-789810D02*
Y-772310D01*
X392885Y-781060D02*
X410385D01*
X401635Y-789810D02*
Y-772310D01*
X431935Y-781060D02*
X472935D01*
X452435Y-801560D02*
Y-760560D01*
X551000Y-0D02*
X592000D01*
X571500Y-20500D02*
Y20500D01*
X511950Y-0D02*
X529450D01*
X520700Y-8750D02*
Y8750D01*
X613550Y-0D02*
X631050D01*
X622300Y-8750D02*
Y8750D01*
X589150Y50800D02*
X604650D01*
X596900Y43050D02*
Y58550D01*
X613550Y-190500D02*
X631050D01*
X622300Y-199250D02*
Y-181750D01*
X511950Y-190500D02*
X529450D01*
X520700Y-199250D02*
Y-181750D01*
X551000Y-190500D02*
X592000D01*
X571500Y-211000D02*
Y-170000D01*
X551000Y-381000D02*
X592000D01*
X571500Y-401500D02*
Y-360500D01*
X511950Y-381000D02*
X529450D01*
X520700Y-389750D02*
Y-372250D01*
X613550Y-381000D02*
X631050D01*
X622300Y-389750D02*
Y-372250D01*
X589150Y-520700D02*
X604650D01*
X596900Y-528450D02*
Y-512950D01*
X613550Y-571500D02*
X631050D01*
X622300Y-580250D02*
Y-562750D01*
X511950Y-571500D02*
X529450D01*
X520700Y-580250D02*
Y-562750D01*
X551000Y-571500D02*
X592000D01*
X571500Y-592000D02*
Y-551000D01*
X779650Y-139700D02*
X795150D01*
X787400Y-147450D02*
Y-131950D01*
X804050Y-190500D02*
X821550D01*
X812800Y-199250D02*
Y-181750D01*
X702450Y-190500D02*
X719950D01*
X711200Y-199250D02*
Y-181750D01*
X741500Y-190500D02*
X782500D01*
X762000Y-211000D02*
Y-170000D01*
X741500Y-381000D02*
X782500D01*
X762000Y-401500D02*
Y-360500D01*
X702450Y-381000D02*
X719950D01*
X711200Y-389750D02*
Y-372250D01*
X804050Y-381000D02*
X821550D01*
X812800Y-389750D02*
Y-372250D01*
X779650Y-330200D02*
X795150D01*
X787400Y-337950D02*
Y-322450D01*
X804050Y-571500D02*
X821550D01*
X812800Y-580250D02*
Y-562750D01*
X702450Y-571500D02*
X719950D01*
X711200Y-580250D02*
Y-562750D01*
X741500Y-571500D02*
X782500D01*
X762000Y-592000D02*
Y-551000D01*
X932000Y-190500D02*
X973000D01*
X952500Y-211000D02*
Y-170000D01*
X892950Y-190500D02*
X910450D01*
X901700Y-199250D02*
Y-181750D01*
X994550Y-190500D02*
X1012050D01*
X1003300Y-199250D02*
Y-181750D01*
X970150Y-139700D02*
X985650D01*
X977900Y-147450D02*
Y-131950D01*
X970150Y-330200D02*
X985650D01*
X977900Y-337950D02*
Y-322450D01*
X994550Y-381000D02*
X1012050D01*
X1003300Y-389750D02*
Y-372250D01*
X892950Y-381000D02*
X910450D01*
X901700Y-389750D02*
Y-372250D01*
X932000Y-381000D02*
X973000D01*
X952500Y-401500D02*
Y-360500D01*
X955814Y-571500D02*
X996814D01*
X976314Y-592000D02*
Y-551000D01*
X916764Y-571500D02*
X934264D01*
X925514Y-580250D02*
Y-562750D01*
X1018364Y-571500D02*
X1035864D01*
X1027114Y-580250D02*
Y-562750D01*
X993964Y-520700D02*
X1009464D01*
X1001714Y-528450D02*
Y-512950D01*
X1170146Y-810000D02*
X1211146D01*
X1190646Y-830500D02*
Y-789500D01*
X1131096Y-810000D02*
X1148596D01*
X1139846Y-818750D02*
Y-801250D01*
X1232696Y-810000D02*
X1250196D01*
X1241446Y-818750D02*
Y-801250D01*
X1208296Y-759200D02*
X1223796D01*
X1216046Y-766950D02*
Y-751450D01*
X398650Y-520700D02*
X414150D01*
X406400Y-528450D02*
Y-512950D01*
X423050Y-571500D02*
X440550D01*
X431800Y-580250D02*
Y-562750D01*
X321450Y-571500D02*
X338950D01*
X330200Y-580250D02*
Y-562750D01*
X360500Y-571500D02*
X401500D01*
X381000Y-592000D02*
Y-551000D01*
X360500Y-381000D02*
X401500D01*
X381000Y-401500D02*
Y-360500D01*
X321450Y-381000D02*
X338950D01*
X330200Y-389750D02*
Y-372250D01*
X423050Y-381000D02*
X440550D01*
X431800Y-389750D02*
Y-372250D01*
X398650Y-330200D02*
X414150D01*
X406400Y-337950D02*
Y-322450D01*
X1122500Y-381000D02*
X1163500D01*
X1143000Y-401500D02*
Y-360500D01*
X1083450Y-381000D02*
X1100950D01*
X1092200Y-389750D02*
Y-372250D01*
X1185050Y-381000D02*
X1202550D01*
X1193800Y-389750D02*
Y-372250D01*
X1160650Y-330200D02*
X1176150D01*
X1168400Y-337950D02*
Y-322450D01*
X1384500Y-285000D02*
X1425500D01*
X1405000Y-305500D02*
Y-264500D01*
X1345450Y-285000D02*
X1362950D01*
X1354200Y-293750D02*
Y-276250D01*
X1447050Y-285000D02*
X1464550D01*
X1455800Y-293750D02*
Y-276250D01*
X1360650Y-810000D02*
X1401650D01*
X1381150Y-830500D02*
Y-789500D01*
X1321600Y-810000D02*
X1339100D01*
X1330350Y-818750D02*
Y-801250D01*
X1423200Y-810000D02*
X1440700D01*
X1431950Y-818750D02*
Y-801250D01*
X1613700Y-810000D02*
X1631200D01*
X1622450Y-818750D02*
Y-801250D01*
X1512100Y-810000D02*
X1529600D01*
X1520850Y-818750D02*
Y-801250D01*
X1551150Y-810000D02*
X1592150D01*
X1571650Y-830500D02*
Y-789500D01*
X435913Y368011D02*
X438913D01*
X437413Y366511D02*
Y369511D01*
X-69000Y-67500D02*
X-66000D01*
X-67500Y-69000D02*
Y-66000D01*
X135942Y-67386D02*
X138942D01*
X137442Y-68886D02*
Y-65886D01*
X373500Y-67500D02*
X376500D01*
X375000Y-69000D02*
Y-66000D01*
X469337Y-67680D02*
X472337D01*
X470836Y-69180D02*
Y-66180D01*
X504209Y-69370D02*
X507209D01*
X505709Y-70870D02*
Y-67870D01*
X703500Y-67500D02*
X706500D01*
X705000Y-69000D02*
Y-66000D01*
X931000Y-67500D02*
X934000D01*
X932500Y-69000D02*
Y-66000D01*
X1111000Y-67500D02*
X1114000D01*
X1112500Y-69000D02*
Y-66000D01*
X441873Y-32749D02*
X444873D01*
X443373Y-34249D02*
Y-31249D01*
X1100986Y-42965D02*
X1103986D01*
X1102486Y-44465D02*
Y-41465D01*
X441072Y34928D02*
X444072D01*
X442572Y33428D02*
Y36428D01*
X553732Y365983D02*
X556732D01*
X555232Y364483D02*
Y367483D01*
X552086Y358269D02*
X555086D01*
X553586Y356769D02*
Y359769D01*
X546586Y353523D02*
X549586D01*
X548086Y352023D02*
Y355023D01*
X536359Y352642D02*
X539359D01*
X537859Y351142D02*
Y354142D01*
X561642Y225829D02*
X564642D01*
X563142Y224329D02*
Y227329D01*
X553313Y225441D02*
X556313D01*
X554813Y223941D02*
Y226942D01*
X544540Y225441D02*
X547540D01*
X546040Y223941D02*
Y226942D01*
X203500Y-52000D02*
X206500D01*
X205000Y-53500D02*
Y-50500D01*
X441000Y-52000D02*
X444000D01*
X442500Y-53500D02*
Y-50500D01*
X498003Y-53008D02*
X501003D01*
X499502Y-54508D02*
Y-51508D01*
X570000Y-52000D02*
X573000D01*
X571500Y-53500D02*
Y-50500D01*
X-1500Y-52000D02*
X1500D01*
X0Y-53500D02*
Y-50500D01*
X771753Y-57443D02*
X774753D01*
X773253Y-58943D02*
Y-55943D01*
X999300Y-52000D02*
X1002300D01*
X1000800Y-53500D02*
Y-50500D01*
X1246000Y-54000D02*
X1249000D01*
X1247500Y-55500D02*
Y-52500D01*
X1087700Y-52000D02*
X1090700D01*
X1089200Y-53500D02*
Y-50500D01*
X268163Y359319D02*
X271163D01*
X269663Y357819D02*
Y360819D01*
X448201Y-10000D02*
X451201D01*
X449701Y-11500D02*
Y-8500D01*
X411668Y-38670D02*
X414667D01*
X413167Y-40170D02*
Y-37170D01*
X1341494Y-552500D02*
X1344494D01*
X1342994Y-554000D02*
Y-551000D01*
X1328500Y-120000D02*
X1331500D01*
X1330000Y-121500D02*
Y-118500D01*
X1390233Y-84207D02*
X1393233D01*
X1391733Y-85707D02*
Y-82707D01*
X433799Y15262D02*
X436799D01*
X435299Y13762D02*
Y16762D01*
X735845Y-24842D02*
X738845D01*
X737345Y-26342D02*
Y-23342D01*
X113500Y-47500D02*
X116500D01*
X115000Y-49000D02*
Y-46000D01*
X351000Y-47500D02*
X354000D01*
X352500Y-49000D02*
Y-46000D01*
X459000Y-47682D02*
X462000D01*
X460500Y-49182D02*
Y-46182D01*
X681000Y-47500D02*
X684000D01*
X682500Y-49000D02*
Y-46000D01*
X1021000Y-47500D02*
X1024000D01*
X1022500Y-49000D02*
Y-46000D01*
X1133475Y-47736D02*
X1136475D01*
X1134975Y-49236D02*
Y-46236D01*
X1156000Y-47500D02*
X1159000D01*
X1157500Y-49000D02*
Y-46000D01*
X232062Y368011D02*
X235062D01*
X233562Y366511D02*
Y369511D01*
X445000Y3602D02*
X448000D01*
X446500Y2102D02*
Y5102D01*
X976400Y-56500D02*
X979400D01*
X977900Y-58000D02*
Y-55000D01*
X181000Y-56500D02*
X184000D01*
X182500Y-58000D02*
Y-55000D01*
X488500Y-58500D02*
X491500D01*
X490000Y-60000D02*
Y-57000D01*
X1066000Y-58500D02*
X1069000D01*
X1067500Y-60000D02*
Y-57000D01*
X1223500Y-58500D02*
X1226500D01*
X1225000Y-60000D02*
Y-57000D01*
X548500Y-56500D02*
X551500D01*
X550000Y-58000D02*
Y-55000D01*
X418774Y-56500D02*
X421774D01*
X420274Y-58000D02*
Y-55000D01*
X-24000Y-56500D02*
X-21000D01*
X-22500Y-58000D02*
Y-55000D01*
X748342Y-61294D02*
X751342D01*
X749842Y-62794D02*
Y-59794D01*
X435502Y-38375D02*
X438502D01*
X437001Y-39875D02*
Y-36875D01*
X911000Y-43000D02*
X914000D01*
X912500Y-44500D02*
Y-41500D01*
X911000Y-87250D02*
X914000D01*
X912500Y-88750D02*
Y-85750D01*
X913271Y-124602D02*
X916271D01*
X914771Y-126102D02*
Y-123102D01*
X158501Y-61000D02*
X161501D01*
X160001Y-62500D02*
Y-59500D01*
X396000Y-61000D02*
X399000D01*
X397500Y-62500D02*
Y-59500D01*
X478599Y-63000D02*
X481599D01*
X480099Y-64500D02*
Y-61500D01*
X-46500Y-61000D02*
X-43500D01*
X-45000Y-62500D02*
Y-59500D01*
X725330Y-63435D02*
X728330D01*
X726830Y-64935D02*
Y-61935D01*
X1043500Y-63250D02*
X1046500D01*
X1045000Y-64750D02*
Y-61750D01*
X1201000Y-63250D02*
X1204000D01*
X1202500Y-64750D02*
Y-61750D01*
X1178500Y-63250D02*
X1181500D01*
X1180000Y-64750D02*
Y-61750D01*
X526000Y-61000D02*
X529000D01*
X527500Y-62500D02*
Y-59500D01*
X953500Y-61000D02*
X956500D01*
X955000Y-62500D02*
Y-59500D01*
X418774Y-30210D02*
X421774D01*
X420274Y-31710D02*
Y-28710D01*
X1463492Y-88097D02*
X1466492D01*
X1464992Y-89597D02*
Y-86597D01*
X364747Y-135632D02*
X367747D01*
X366247Y-137132D02*
Y-134132D01*
X341500Y-83224D02*
X344500D01*
X343000Y-84724D02*
Y-81724D01*
X443045Y25400D02*
X446045D01*
X444545Y23900D02*
Y26900D01*
X1650721Y73671D02*
X1653721D01*
X1652221Y72171D02*
Y75171D01*
X1652053Y-14356D02*
X1655053D01*
X1653553Y-15856D02*
Y-12856D01*
X1688475Y-198001D02*
X1691475D01*
X1689975Y-199501D02*
Y-196501D01*
X1652053Y-160000D02*
X1655053D01*
X1653553Y-161500D02*
Y-158500D01*
X1598500Y272000D02*
X1601500D01*
X1600000Y270500D02*
Y273500D01*
X1613553Y185000D02*
X1616553D01*
X1615053Y183500D02*
Y186500D01*
X1268500Y272000D02*
X1271500D01*
X1270000Y270500D02*
Y273500D01*
X1800272Y-247500D02*
X1803272D01*
X1801772Y-249000D02*
Y-246000D01*
X1800272Y-532500D02*
X1803272D01*
X1801772Y-534000D02*
Y-531000D01*
X1761000Y-562500D02*
X1764000D01*
X1762500Y-564000D02*
Y-561000D01*
X1657208Y-682500D02*
X1660208D01*
X1658708Y-684000D02*
Y-681000D01*
X1006676Y-752094D02*
X1009677D01*
X1008176Y-753594D02*
Y-750594D01*
X1611000Y-897000D02*
X1614000D01*
X1612500Y-898500D02*
Y-895500D01*
X1138346Y-897000D02*
X1141346D01*
X1139846Y-898500D02*
Y-895500D01*
X580830Y239960D02*
X583830D01*
X582331Y238460D02*
Y241460D01*
X589529Y239960D02*
X592529D01*
X591029Y238460D02*
Y241460D01*
X572294Y239960D02*
X575294D01*
X573794Y238460D02*
Y241460D01*
X572294Y232568D02*
X575294D01*
X573794Y231068D02*
Y234068D01*
X503476Y422981D02*
X506476D01*
X504976Y421481D02*
Y424481D01*
X468439Y417258D02*
X471440D01*
X469939Y415758D02*
Y418758D01*
X434000Y411633D02*
X437000D01*
X435500Y410133D02*
Y413133D01*
X390845Y404584D02*
X393845D01*
X392345Y403084D02*
Y406084D01*
X351555Y398167D02*
X354555D01*
X353055Y396667D02*
Y399667D01*
X333414Y395204D02*
X336414D01*
X334914Y393704D02*
Y396704D01*
X315273Y392241D02*
X318273D01*
X316773Y390741D02*
Y393741D01*
X245781Y371670D02*
X248781D01*
X247281Y370170D02*
Y373170D01*
X218606Y374282D02*
X221606D01*
X220106Y372781D02*
Y375782D01*
X-12964Y142817D02*
X-9964D01*
X-11464Y141317D02*
Y144317D01*
X885459Y-752178D02*
X888459D01*
X886959Y-753678D02*
Y-750678D01*
X751000Y-891623D02*
X754000D01*
X752500Y-893123D02*
Y-890123D01*
X138500Y-891623D02*
X141500D01*
X140000Y-893123D02*
Y-890123D01*
X-88194Y-202500D02*
X-85194D01*
X-86694Y-204000D02*
Y-201000D01*
X-88194Y-545000D02*
X-85194D01*
X-86694Y-546500D02*
Y-543500D01*
X528680Y202659D02*
X531680D01*
X530180Y201159D02*
Y204159D01*
X834557Y36335D02*
X837557D01*
X836057Y34835D02*
Y37835D01*
X428473Y347500D02*
X431473D01*
X429973Y346000D02*
Y349000D01*
X536622Y195000D02*
X539622D01*
X538122Y193500D02*
Y196500D01*
X840780Y25914D02*
X843780D01*
X842280Y24413D02*
Y27413D01*
X403500Y347500D02*
X406500D01*
X405000Y346000D02*
Y349000D01*
X135183Y333641D02*
X138183D01*
X136683Y332141D02*
Y335141D01*
X78018Y308701D02*
X81018D01*
X79518Y307201D02*
Y310201D01*
X26081Y342980D02*
X29081D01*
X27580Y341480D02*
Y344480D01*
X48048Y320876D02*
X51048D01*
X49548Y319376D02*
Y322376D01*
X951000Y44332D02*
X954000D01*
X952500Y42832D02*
Y45832D01*
X981406Y30405D02*
X984406D01*
X982906Y28905D02*
Y31906D01*
X880194Y-21648D02*
X883194D01*
X881694Y-23148D02*
Y-20148D01*
X868863Y-23000D02*
X871863D01*
X870363Y-24500D02*
Y-21500D01*
X818740Y41298D02*
X821740D01*
X820240Y39798D02*
Y42798D01*
X793519Y11608D02*
X796519D01*
X795019Y10108D02*
Y13108D01*
X801277Y21409D02*
X804277D01*
X802777Y19909D02*
Y22909D01*
X697191Y67258D02*
X700191D01*
X698691Y65758D02*
Y68758D01*
X128662Y340513D02*
X131662D01*
X130162Y339013D02*
Y342013D01*
X-16818Y300402D02*
X-13818D01*
X-15318Y298902D02*
Y301902D01*
X290020Y61050D02*
X293020D01*
X291520Y59550D02*
Y62550D01*
X206581Y229152D02*
X209581D01*
X208081Y227652D02*
Y230652D01*
X1079802Y-142753D02*
X1082802D01*
X1081302Y-144253D02*
Y-141253D01*
X1115061Y-139095D02*
X1118061D01*
X1116561Y-140595D02*
Y-137595D01*
X1166900Y-102500D02*
X1169900D01*
X1168400Y-104000D02*
Y-101000D01*
X1189233Y-130000D02*
X1192233D01*
X1190733Y-131500D02*
Y-128500D01*
X571018Y-129975D02*
X574018D01*
X572518Y-131475D02*
Y-128475D01*
X91793Y-92814D02*
X94793D01*
X93293Y-94314D02*
Y-91314D01*
X179163Y252355D02*
X182164D01*
X180664Y250856D02*
Y253855D01*
X233174Y-123810D02*
X236174D01*
X234674Y-125310D02*
Y-122310D01*
X297632Y-165640D02*
X300632D01*
X299132Y-167140D02*
Y-164140D01*
X276000Y-165174D02*
X279000D01*
X277500Y-166674D02*
Y-163674D01*
X276000Y-156674D02*
X279000D01*
X277500Y-158174D02*
Y-155174D01*
X316021Y-330200D02*
X319021D01*
X317521Y-331700D02*
Y-328700D01*
X494214Y-330200D02*
X497214D01*
X495714Y-331700D02*
Y-328700D01*
X892728Y-330200D02*
X895727D01*
X894228Y-331700D02*
Y-328700D01*
X683500Y-520000D02*
X686500D01*
X685000Y-521500D02*
Y-518500D01*
X513500Y-520700D02*
X516500D01*
X515000Y-522200D02*
Y-519200D01*
X331410Y-520700D02*
X334410D01*
X332910Y-522200D02*
Y-519200D01*
X668500Y-705000D02*
X671500D01*
X670000Y-706500D02*
Y-703500D01*
X323500Y-730260D02*
X326500D01*
X325000Y-731760D02*
Y-728760D01*
X59420Y156006D02*
X62420D01*
X60920Y154506D02*
Y157506D01*
X82443Y190301D02*
X85443D01*
X83943Y188801D02*
Y191801D01*
X62563Y176484D02*
X65563D01*
X64063Y174984D02*
Y177984D01*
X72793Y189850D02*
X75793D01*
X74293Y188350D02*
Y191350D01*
X66730Y183893D02*
X69730D01*
X68230Y182393D02*
Y185393D01*
X145570Y215542D02*
X148570D01*
X147070Y214042D02*
Y217042D01*
X158543Y205346D02*
X161543D01*
X160043Y203846D02*
Y206846D01*
X167399Y214167D02*
X170399D01*
X168899Y212668D02*
Y215667D01*
X160908Y176508D02*
X163908D01*
X162407Y175008D02*
Y178008D01*
X180447Y224393D02*
X183447D01*
X181947Y222893D02*
Y225893D01*
X1301000Y-234200D02*
X1304000D01*
X1302500Y-235700D02*
Y-232700D01*
X901000Y-520000D02*
X904000D01*
X902500Y-521500D02*
Y-518500D01*
X691218Y-339200D02*
X694218D01*
X692718Y-340700D02*
Y-337700D01*
X243120Y162242D02*
X246120D01*
X244620Y160742D02*
Y163742D01*
X233309Y213969D02*
X236309D01*
X234809Y212468D02*
Y215469D01*
X234305Y152273D02*
X237305D01*
X235805Y150773D02*
Y153773D01*
X297624Y118972D02*
X300624D01*
X299124Y117472D02*
Y120472D01*
X258519Y128216D02*
X261519D01*
X260019Y126716D02*
Y129716D01*
X370554Y110391D02*
X373554D01*
X372054Y108891D02*
Y111891D01*
X360924Y104141D02*
X363924D01*
X362424Y102641D02*
Y105641D01*
X347773Y99322D02*
X350773D01*
X349273Y97822D02*
Y100822D01*
X336389Y100548D02*
X339389D01*
X337889Y99048D02*
Y102048D01*
X322617Y97180D02*
X325616D01*
X324117Y95680D02*
Y98680D01*
X568816Y92309D02*
X571816D01*
X570316Y90809D02*
Y93809D01*
X587347Y99235D02*
X590347D01*
X588847Y97735D02*
Y100735D01*
X577891Y99235D02*
X580891D01*
X579391Y97735D02*
Y100735D01*
X555087Y83450D02*
X558087D01*
X556587Y81950D02*
Y84950D01*
X558500Y91235D02*
X561500D01*
X560000Y89735D02*
Y92735D01*
X644881Y-171765D02*
X647881D01*
X646381Y-173265D02*
Y-170265D01*
X660271Y-200000D02*
X663271D01*
X661771Y-201500D02*
Y-198500D01*
X659439Y-190143D02*
X662439D01*
X660939Y-191643D02*
Y-188643D01*
X654957Y-182921D02*
X657957D01*
X656457Y-184421D02*
Y-181421D01*
X654957Y-174421D02*
X657957D01*
X656457Y-175921D02*
Y-172921D01*
X677515Y-157400D02*
X680515D01*
X679015Y-158900D02*
Y-155900D01*
X858627Y-147304D02*
X861628D01*
X860127Y-148804D02*
Y-145804D01*
X230123Y199213D02*
X233123D01*
X231623Y197713D02*
Y200713D01*
X263797Y116885D02*
X266797D01*
X265297Y115385D02*
Y118385D01*
X218606Y204250D02*
X221606D01*
X220106Y202750D02*
Y205750D01*
X212200Y139043D02*
X215200D01*
X213700Y137543D02*
Y140543D01*
X215184Y121102D02*
X218183D01*
X216684Y119602D02*
Y122602D01*
X197435Y132250D02*
X200435D01*
X198935Y130750D02*
Y133750D01*
X330674Y87235D02*
X333674D01*
X332174Y85735D02*
Y88735D01*
X322617Y83522D02*
X325616D01*
X324117Y82022D02*
Y85022D01*
X312738Y78622D02*
X315738D01*
X314238Y77122D02*
Y80122D01*
X304841Y73199D02*
X307840D01*
X306341Y71699D02*
Y74699D01*
X297632Y65990D02*
X300632D01*
X299132Y64490D02*
Y67490D01*
X281125Y57050D02*
X284125D01*
X282625Y55550D02*
Y58550D01*
X991000Y-26505D02*
X994000D01*
X992500Y-28005D02*
Y-25005D01*
X1008500Y-26505D02*
X1011500D01*
X1010000Y-28005D02*
Y-25005D01*
X276000Y42884D02*
X279000D01*
X277500Y41384D02*
Y44384D01*
X196857Y147025D02*
X199857D01*
X198357Y145525D02*
Y148525D01*
X1235617Y-36500D02*
X1238616D01*
X1237116Y-38000D02*
Y-35000D01*
X1214891Y-36500D02*
X1217891D01*
X1216391Y-38000D02*
Y-35000D01*
X1183308Y-36500D02*
X1186308D01*
X1184808Y-38000D02*
Y-35000D01*
X1192300Y-36500D02*
X1195300D01*
X1193800Y-38000D02*
Y-35000D01*
X1192300Y-92500D02*
X1195300D01*
X1193800Y-94000D02*
Y-91000D01*
X1192300Y-113309D02*
X1195300D01*
X1193800Y-114809D02*
Y-111809D01*
X1066000Y-143546D02*
X1069000D01*
X1067500Y-145046D02*
Y-142046D01*
X1143551Y-150463D02*
X1146551D01*
X1145051Y-151963D02*
Y-148963D01*
X1133500Y-149709D02*
X1136500D01*
X1135000Y-151209D02*
Y-148209D01*
X1081000Y35000D02*
X1084000D01*
X1082500Y33500D02*
Y36500D01*
X154841Y151818D02*
X157841D01*
X156341Y150318D02*
Y153318D01*
X133759Y144882D02*
X136759D01*
X135259Y143382D02*
Y146382D01*
X252388Y50804D02*
X255388D01*
X253888Y49304D02*
Y52304D01*
X1033500Y-26505D02*
X1036500D01*
X1035000Y-28005D02*
Y-25005D01*
X203387Y221276D02*
X206387D01*
X204887Y219776D02*
Y222776D01*
X207638Y170849D02*
X210638D01*
X209138Y169349D02*
Y172349D01*
X196000Y180250D02*
X199000D01*
X197500Y178750D02*
Y181750D01*
X196000Y188750D02*
X199000D01*
X197500Y187250D02*
Y190250D01*
X269231Y37513D02*
X272231D01*
X270731Y36012D02*
Y39012D01*
X267790Y29135D02*
X270790D01*
X269290Y27636D02*
Y30635D01*
X198718Y246928D02*
X201718D01*
X200218Y245428D02*
Y248428D01*
X171036Y242754D02*
X174036D01*
X172536Y241254D02*
Y244254D01*
X126438Y174097D02*
X129438D01*
X127938Y172597D02*
Y175597D01*
X94532Y117775D02*
X97533D01*
X96032Y116275D02*
Y119275D01*
X91181Y137999D02*
X94181D01*
X92681Y136499D02*
Y139499D01*
X107267Y166239D02*
X110267D01*
X108767Y164739D02*
Y167739D01*
X75748Y-85250D02*
X78748D01*
X77248Y-86750D02*
Y-83750D01*
X292898Y-157095D02*
X295898D01*
X294398Y-158595D02*
Y-155595D01*
X267744Y-29714D02*
X270744D01*
X269244Y-31214D02*
Y-28214D01*
X403577Y-32830D02*
X406577D01*
X405077Y-34330D02*
Y-31330D01*
X82407Y-74000D02*
X85407D01*
X83907Y-75500D02*
Y-72500D01*
X98135Y-78989D02*
X101135D01*
X99635Y-80489D02*
Y-77489D01*
X99192Y-87742D02*
X102192D01*
X100692Y-89242D02*
Y-86242D01*
X198079Y260257D02*
X201080D01*
X199580Y258757D02*
Y261757D01*
X175799Y264913D02*
X178799D01*
X177299Y263413D02*
Y266413D01*
X188093Y240342D02*
X191093D01*
X189593Y238842D02*
Y241842D01*
X673000Y-145000D02*
X676000D01*
X674500Y-146500D02*
Y-143500D01*
X668500Y-127500D02*
X671500D01*
X670000Y-129000D02*
Y-126000D01*
X119044Y127552D02*
X122044D01*
X120544Y126053D02*
Y129052D01*
X110069Y-35480D02*
X113069D01*
X111569Y-36980D02*
Y-33980D01*
X101877Y-42672D02*
X104877D01*
X103377Y-44172D02*
Y-41172D01*
X220400Y-28062D02*
X223400D01*
X221900Y-29562D02*
Y-26562D01*
X224461Y-38375D02*
X227461D01*
X225961Y-39875D02*
Y-36875D01*
X239300Y-139156D02*
X242300D01*
X240800Y-140656D02*
Y-137656D01*
X175704Y179625D02*
X178704D01*
X177204Y178125D02*
Y181125D01*
X186520Y187416D02*
X189520D01*
X188020Y185916D02*
Y188916D01*
X101061Y232860D02*
X104061D01*
X102561Y231360D02*
Y234360D01*
X121980Y346401D02*
X124979D01*
X123479Y344901D02*
Y347901D01*
X109375Y269613D02*
X112375D01*
X110875Y268113D02*
Y271113D01*
X95977Y261437D02*
X98977D01*
X97477Y259937D02*
Y262937D01*
X-10363Y223410D02*
X-7363D01*
X-8863Y221910D02*
Y224910D01*
X50674Y241943D02*
X53674D01*
X52174Y240443D02*
Y243443D01*
X57473Y229906D02*
X60473D01*
X58973Y228406D02*
Y231406D01*
X64690Y223681D02*
X67691D01*
X66191Y222181D02*
Y225181D01*
X76718Y210857D02*
X79718D01*
X78218Y209357D02*
Y212357D01*
X82942Y230373D02*
X85942D01*
X84442Y228873D02*
Y231873D01*
X56334Y249789D02*
X59334D01*
X57834Y248289D02*
Y251289D01*
X66948Y250976D02*
X69948D01*
X68448Y249476D02*
Y252476D01*
X18097Y251411D02*
X21098D01*
X19598Y249911D02*
Y252911D01*
X25186Y246720D02*
X28186D01*
X26686Y245220D02*
Y248220D01*
X20212Y239827D02*
X23212D01*
X21712Y238326D02*
Y241327D01*
X81824Y254168D02*
X84824D01*
X83324Y252668D02*
Y255668D01*
X13392Y280981D02*
X16392D01*
X14892Y279481D02*
Y282481D01*
X-5707Y320562D02*
X-2707D01*
X-4207Y319062D02*
Y322062D01*
X-32406Y234333D02*
X-29406D01*
X-30906Y232833D02*
Y235833D01*
X-14744Y210058D02*
X-11744D01*
X-13244Y208558D02*
Y211558D01*
X-25435Y239197D02*
X-22435D01*
X-23935Y237697D02*
Y240697D01*
X-777Y204404D02*
X2223D01*
X723Y202904D02*
Y205904D01*
X96877Y295416D02*
X99877D01*
X98377Y293916D02*
Y296916D01*
X-27690Y256986D02*
X-24690D01*
X-26190Y255486D02*
Y258486D01*
X-4714Y301107D02*
X-1714D01*
X-3214Y299607D02*
Y302607D01*
X2654Y322090D02*
X5654D01*
X4154Y320591D02*
Y323591D01*
X34606Y207003D02*
X37606D01*
X36106Y205504D02*
Y208503D01*
X27544Y218712D02*
X30544D01*
X29044Y217212D02*
Y220212D01*
X-16667Y268729D02*
X-13667D01*
X-15167Y267229D02*
Y270229D01*
X-2064Y274363D02*
X936D01*
X-564Y272863D02*
Y275863D01*
X52532Y307292D02*
X55532D01*
X54032Y305792D02*
Y308792D01*
X55704Y292542D02*
X58703D01*
X57203Y291042D02*
Y294042D01*
X69650Y281697D02*
X72650D01*
X71150Y280197D02*
Y283197D01*
X84Y235523D02*
X3084D01*
X1584Y234023D02*
Y237024D01*
X8201Y245943D02*
X11201D01*
X9701Y244443D02*
Y247443D01*
X12074Y322824D02*
X15074D01*
X13574Y321324D02*
Y324324D01*
X28594Y283779D02*
X31594D01*
X30094Y282279D02*
Y285279D01*
X25352Y297443D02*
X28352D01*
X26852Y295943D02*
Y298943D01*
X17689Y306136D02*
X20689D01*
X19189Y304636D02*
Y307636D01*
X91098Y301649D02*
X94098D01*
X92598Y300149D02*
Y303149D01*
X78767Y292719D02*
X81767D01*
X80267Y291219D02*
Y294219D01*
X59713Y276691D02*
X62713D01*
X61213Y275191D02*
Y278191D01*
M02*
