G04*
G04 #@! TF.GenerationSoftware,Altium Limited,Altium Designer,25.7.1 (20)*
G04*
G04 Layer_Color=8421504*
%FSLAX44Y44*%
%MOMM*%
G71*
G04*
G04 #@! TF.SameCoordinates,9F9FC123-953C-4523-80A4-8AAEF463EA7A*
G04*
G04*
G04 #@! TF.FilePolarity,Positive*
G04*
G01*
G75*
G04:AMPARAMS|DCode=18|XSize=0.5mm|YSize=0.6mm|CornerRadius=0mm|HoleSize=0mm|Usage=FLASHONLY|Rotation=9.500|XOffset=0mm|YOffset=0mm|HoleType=Round|Shape=Rectangle|*
%AMROTATEDRECTD18*
4,1,4,-0.1971,-0.3372,-0.2961,0.2546,0.1971,0.3372,0.2961,-0.2546,-0.1971,-0.3372,0.0*
%
%ADD18ROTATEDRECTD18*%

G04:AMPARAMS|DCode=19|XSize=0.5mm|YSize=0.6mm|CornerRadius=0mm|HoleSize=0mm|Usage=FLASHONLY|Rotation=320.702|XOffset=0mm|YOffset=0mm|HoleType=Round|Shape=Rectangle|*
%AMROTATEDRECTD19*
4,1,4,-0.3835,-0.0738,-0.0035,0.3905,0.3835,0.0738,0.0035,-0.3905,-0.3835,-0.0738,0.0*
%
%ADD19ROTATEDRECTD19*%

G04:AMPARAMS|DCode=20|XSize=0.5mm|YSize=0.6mm|CornerRadius=0mm|HoleSize=0mm|Usage=FLASHONLY|Rotation=142.894|XOffset=0mm|YOffset=0mm|HoleType=Round|Shape=Rectangle|*
%AMROTATEDRECTD20*
4,1,4,0.3804,0.0884,0.0184,-0.3901,-0.3804,-0.0884,-0.0184,0.3901,0.3804,0.0884,0.0*
%
%ADD20ROTATEDRECTD20*%

G04:AMPARAMS|DCode=21|XSize=0.5mm|YSize=0.6mm|CornerRadius=0mm|HoleSize=0mm|Usage=FLASHONLY|Rotation=30.000|XOffset=0mm|YOffset=0mm|HoleType=Round|Shape=Rectangle|*
%AMROTATEDRECTD21*
4,1,4,-0.0665,-0.3848,-0.3665,0.1348,0.0665,0.3848,0.3665,-0.1348,-0.0665,-0.3848,0.0*
%
%ADD21ROTATEDRECTD21*%

G04:AMPARAMS|DCode=22|XSize=0.5mm|YSize=0.6mm|CornerRadius=0mm|HoleSize=0mm|Usage=FLASHONLY|Rotation=100.000|XOffset=0mm|YOffset=0mm|HoleType=Round|Shape=Rectangle|*
%AMROTATEDRECTD22*
4,1,4,0.3388,-0.1941,-0.2520,-0.2983,-0.3388,0.1941,0.2520,0.2983,0.3388,-0.1941,0.0*
%
%ADD22ROTATEDRECTD22*%

G04:AMPARAMS|DCode=23|XSize=0.5mm|YSize=0.6mm|CornerRadius=0mm|HoleSize=0mm|Usage=FLASHONLY|Rotation=20.000|XOffset=0mm|YOffset=0mm|HoleType=Round|Shape=Rectangle|*
%AMROTATEDRECTD23*
4,1,4,-0.1323,-0.3674,-0.3375,0.1964,0.1323,0.3674,0.3375,-0.1964,-0.1323,-0.3674,0.0*
%
%ADD23ROTATEDRECTD23*%

G04:AMPARAMS|DCode=24|XSize=0.5mm|YSize=0.6mm|CornerRadius=0mm|HoleSize=0mm|Usage=FLASHONLY|Rotation=10.000|XOffset=0mm|YOffset=0mm|HoleType=Round|Shape=Rectangle|*
%AMROTATEDRECTD24*
4,1,4,-0.1941,-0.3388,-0.2983,0.2520,0.1941,0.3388,0.2983,-0.2520,-0.1941,-0.3388,0.0*
%
%ADD24ROTATEDRECTD24*%

G04:AMPARAMS|DCode=25|XSize=0.5mm|YSize=0.6mm|CornerRadius=0mm|HoleSize=0mm|Usage=FLASHONLY|Rotation=176.515|XOffset=0mm|YOffset=0mm|HoleType=Round|Shape=Rectangle|*
%AMROTATEDRECTD25*
4,1,4,0.2678,0.2843,0.2313,-0.3146,-0.2678,-0.2843,-0.2313,0.3146,0.2678,0.2843,0.0*
%
%ADD25ROTATEDRECTD25*%

G04:AMPARAMS|DCode=26|XSize=0.5mm|YSize=0.6mm|CornerRadius=0mm|HoleSize=0mm|Usage=FLASHONLY|Rotation=110.000|XOffset=0mm|YOffset=0mm|HoleType=Round|Shape=Rectangle|*
%AMROTATEDRECTD26*
4,1,4,0.3674,-0.1323,-0.1964,-0.3375,-0.3674,0.1323,0.1964,0.3375,0.3674,-0.1323,0.0*
%
%ADD26ROTATEDRECTD26*%

G04:AMPARAMS|DCode=27|XSize=0.5mm|YSize=0.6mm|CornerRadius=0mm|HoleSize=0mm|Usage=FLASHONLY|Rotation=161.758|XOffset=0mm|YOffset=0mm|HoleType=Round|Shape=Rectangle|*
%AMROTATEDRECTD27*
4,1,4,0.3314,0.2067,0.1435,-0.3632,-0.3314,-0.2067,-0.1435,0.3632,0.3314,0.2067,0.0*
%
%ADD27ROTATEDRECTD27*%

G04:AMPARAMS|DCode=28|XSize=0.5mm|YSize=0.6mm|CornerRadius=0mm|HoleSize=0mm|Usage=FLASHONLY|Rotation=65.943|XOffset=0mm|YOffset=0mm|HoleType=Round|Shape=Rectangle|*
%AMROTATEDRECTD28*
4,1,4,0.1720,-0.3506,-0.3759,-0.1060,-0.1720,0.3506,0.3759,0.1060,0.1720,-0.3506,0.0*
%
%ADD28ROTATEDRECTD28*%

G04:AMPARAMS|DCode=29|XSize=0.5mm|YSize=0.6mm|CornerRadius=0mm|HoleSize=0mm|Usage=FLASHONLY|Rotation=234.426|XOffset=0mm|YOffset=0mm|HoleType=Round|Shape=Rectangle|*
%AMROTATEDRECTD29*
4,1,4,-0.0986,0.3779,0.3895,0.0288,0.0986,-0.3779,-0.3895,-0.0288,-0.0986,0.3779,0.0*
%
%ADD29ROTATEDRECTD29*%

G04:AMPARAMS|DCode=30|XSize=0.5mm|YSize=0.6mm|CornerRadius=0mm|HoleSize=0mm|Usage=FLASHONLY|Rotation=293.779|XOffset=0mm|YOffset=0mm|HoleType=Round|Shape=Rectangle|*
%AMROTATEDRECTD30*
4,1,4,-0.3753,0.1078,0.1737,0.3497,0.3753,-0.1078,-0.1737,-0.3497,-0.3753,0.1078,0.0*
%
%ADD30ROTATEDRECTD30*%

G04:AMPARAMS|DCode=31|XSize=0.5mm|YSize=0.6mm|CornerRadius=0mm|HoleSize=0mm|Usage=FLASHONLY|Rotation=314.000|XOffset=0mm|YOffset=0mm|HoleType=Round|Shape=Rectangle|*
%AMROTATEDRECTD31*
4,1,4,-0.3895,-0.0286,0.0421,0.3882,0.3895,0.0286,-0.0421,-0.3882,-0.3895,-0.0286,0.0*
%
%ADD31ROTATEDRECTD31*%

G04:AMPARAMS|DCode=32|XSize=0.5mm|YSize=0.6mm|CornerRadius=0mm|HoleSize=0mm|Usage=FLASHONLY|Rotation=172.798|XOffset=0mm|YOffset=0mm|HoleType=Round|Shape=Rectangle|*
%AMROTATEDRECTD32*
4,1,4,0.2856,0.2663,0.2104,-0.3290,-0.2856,-0.2663,-0.2104,0.3290,0.2856,0.2663,0.0*
%
%ADD32ROTATEDRECTD32*%

G04:AMPARAMS|DCode=33|XSize=0.5mm|YSize=0.6mm|CornerRadius=0mm|HoleSize=0mm|Usage=FLASHONLY|Rotation=146.548|XOffset=0mm|YOffset=0mm|HoleType=Round|Shape=Rectangle|*
%AMROTATEDRECTD33*
4,1,4,0.3740,0.1125,0.0432,-0.3881,-0.3740,-0.1125,-0.0432,0.3881,0.3740,0.1125,0.0*
%
%ADD33ROTATEDRECTD33*%

G04:AMPARAMS|DCode=34|XSize=0.5mm|YSize=0.6mm|CornerRadius=0mm|HoleSize=0mm|Usage=FLASHONLY|Rotation=120.000|XOffset=0mm|YOffset=0mm|HoleType=Round|Shape=Rectangle|*
%AMROTATEDRECTD34*
4,1,4,0.3848,-0.0665,-0.1348,-0.3665,-0.3848,0.0665,0.1348,0.3665,0.3848,-0.0665,0.0*
%
%ADD34ROTATEDRECTD34*%

G04:AMPARAMS|DCode=35|XSize=0.5mm|YSize=0.6mm|CornerRadius=0mm|HoleSize=0mm|Usage=FLASHONLY|Rotation=180.421|XOffset=0mm|YOffset=0mm|HoleType=Round|Shape=Rectangle|*
%AMROTATEDRECTD35*
4,1,4,0.2478,0.3018,0.2522,-0.2982,-0.2478,-0.3018,-0.2522,0.2982,0.2478,0.3018,0.0*
%
%ADD35ROTATEDRECTD35*%

G04:AMPARAMS|DCode=36|XSize=0.5mm|YSize=0.6mm|CornerRadius=0mm|HoleSize=0mm|Usage=FLASHONLY|Rotation=209.122|XOffset=0mm|YOffset=0mm|HoleType=Round|Shape=Rectangle|*
%AMROTATEDRECTD36*
4,1,4,0.0724,0.3837,0.3644,-0.1404,-0.0724,-0.3837,-0.3644,0.1404,0.0724,0.3837,0.0*
%
%ADD36ROTATEDRECTD36*%

G04:AMPARAMS|DCode=37|XSize=0.5mm|YSize=0.6mm|CornerRadius=0mm|HoleSize=0mm|Usage=FLASHONLY|Rotation=149.428|XOffset=0mm|YOffset=0mm|HoleType=Round|Shape=Rectangle|*
%AMROTATEDRECTD37*
4,1,4,0.3678,0.1311,0.0627,-0.3855,-0.3678,-0.1311,-0.0627,0.3855,0.3678,0.1311,0.0*
%
%ADD37ROTATEDRECTD37*%

%ADD38R,0.6000X0.5000*%
G04:AMPARAMS|DCode=39|XSize=0.5mm|YSize=0.6mm|CornerRadius=0mm|HoleSize=0mm|Usage=FLASHONLY|Rotation=344.966|XOffset=0mm|YOffset=0mm|HoleType=Round|Shape=Rectangle|*
%AMROTATEDRECTD39*
4,1,4,-0.3193,-0.2249,-0.1636,0.3546,0.3193,0.2249,0.1636,-0.3546,-0.3193,-0.2249,0.0*
%
%ADD39ROTATEDRECTD39*%

G04:AMPARAMS|DCode=40|XSize=0.5mm|YSize=0.6mm|CornerRadius=0mm|HoleSize=0mm|Usage=FLASHONLY|Rotation=255.937|XOffset=0mm|YOffset=0mm|HoleType=Round|Shape=Rectangle|*
%AMROTATEDRECTD40*
4,1,4,-0.2303,0.3154,0.3518,0.1696,0.2303,-0.3154,-0.3518,-0.1696,-0.2303,0.3154,0.0*
%
%ADD40ROTATEDRECTD40*%

G04:AMPARAMS|DCode=41|XSize=0.5mm|YSize=0.6mm|CornerRadius=0mm|HoleSize=0mm|Usage=FLASHONLY|Rotation=260.000|XOffset=0mm|YOffset=0mm|HoleType=Round|Shape=Rectangle|*
%AMROTATEDRECTD41*
4,1,4,-0.2520,0.2983,0.3388,0.1941,0.2520,-0.2983,-0.3388,-0.1941,-0.2520,0.2983,0.0*
%
%ADD41ROTATEDRECTD41*%

G04:AMPARAMS|DCode=42|XSize=0.5mm|YSize=0.6mm|CornerRadius=0mm|HoleSize=0mm|Usage=FLASHONLY|Rotation=52.338|XOffset=0mm|YOffset=0mm|HoleType=Round|Shape=Rectangle|*
%AMROTATEDRECTD42*
4,1,4,0.0847,-0.3812,-0.3902,-0.0146,-0.0847,0.3812,0.3902,0.0146,0.0847,-0.3812,0.0*
%
%ADD42ROTATEDRECTD42*%

G04:AMPARAMS|DCode=43|XSize=0.5mm|YSize=0.6mm|CornerRadius=0mm|HoleSize=0mm|Usage=FLASHONLY|Rotation=334.000|XOffset=0mm|YOffset=0mm|HoleType=Round|Shape=Rectangle|*
%AMROTATEDRECTD43*
4,1,4,-0.3562,-0.1601,-0.0932,0.3792,0.3562,0.1601,0.0932,-0.3792,-0.3562,-0.1601,0.0*
%
%ADD43ROTATEDRECTD43*%

G04:AMPARAMS|DCode=44|XSize=0.5mm|YSize=0.6mm|CornerRadius=0mm|HoleSize=0mm|Usage=FLASHONLY|Rotation=34.817|XOffset=0mm|YOffset=0mm|HoleType=Round|Shape=Rectangle|*
%AMROTATEDRECTD44*
4,1,4,-0.0340,-0.3890,-0.3765,0.1036,0.0340,0.3890,0.3765,-0.1036,-0.0340,-0.3890,0.0*
%
%ADD44ROTATEDRECTD44*%

G04:AMPARAMS|DCode=45|XSize=0.5mm|YSize=0.6mm|CornerRadius=0mm|HoleSize=0mm|Usage=FLASHONLY|Rotation=84.459|XOffset=0mm|YOffset=0mm|HoleType=Round|Shape=Rectangle|*
%AMROTATEDRECTD45*
4,1,4,0.2745,-0.2778,-0.3227,-0.2199,-0.2745,0.2778,0.3227,0.2199,0.2745,-0.2778,0.0*
%
%ADD45ROTATEDRECTD45*%

G04:AMPARAMS|DCode=46|XSize=0.5mm|YSize=0.6mm|CornerRadius=0mm|HoleSize=0mm|Usage=FLASHONLY|Rotation=244.120|XOffset=0mm|YOffset=0mm|HoleType=Round|Shape=Rectangle|*
%AMROTATEDRECTD46*
4,1,4,-0.1608,0.3559,0.3790,0.0940,0.1608,-0.3559,-0.3790,-0.0940,-0.1608,0.3559,0.0*
%
%ADD46ROTATEDRECTD46*%

G04:AMPARAMS|DCode=47|XSize=0.5mm|YSize=0.6mm|CornerRadius=0mm|HoleSize=0mm|Usage=FLASHONLY|Rotation=1.331|XOffset=0mm|YOffset=0mm|HoleType=Round|Shape=Rectangle|*
%AMROTATEDRECTD47*
4,1,4,-0.2430,-0.3057,-0.2569,0.2941,0.2430,0.3057,0.2569,-0.2941,-0.2430,-0.3057,0.0*
%
%ADD47ROTATEDRECTD47*%

G04:AMPARAMS|DCode=48|XSize=0.5mm|YSize=0.6mm|CornerRadius=0mm|HoleSize=0mm|Usage=FLASHONLY|Rotation=51.078|XOffset=0mm|YOffset=0mm|HoleType=Round|Shape=Rectangle|*
%AMROTATEDRECTD48*
4,1,4,0.0763,-0.3830,-0.3905,-0.0060,-0.0763,0.3830,0.3905,0.0060,0.0763,-0.3830,0.0*
%
%ADD48ROTATEDRECTD48*%

G04:AMPARAMS|DCode=49|XSize=0.5mm|YSize=0.6mm|CornerRadius=0mm|HoleSize=0mm|Usage=FLASHONLY|Rotation=229.185|XOffset=0mm|YOffset=0mm|HoleType=Round|Shape=Rectangle|*
%AMROTATEDRECTD49*
4,1,4,-0.0636,0.3853,0.3905,-0.0069,0.0636,-0.3853,-0.3905,0.0069,-0.0636,0.3853,0.0*
%
%ADD49ROTATEDRECTD49*%

%ADD50R,0.5000X0.6000*%
D18*
X259175Y364931D02*
D03*
X234175Y359931D02*
D03*
X246675Y362431D02*
D03*
X221675Y357431D02*
D03*
X223325Y347569D02*
D03*
X248325Y352569D02*
D03*
X260825Y355069D02*
D03*
X235825Y350069D02*
D03*
D19*
X14275Y292260D02*
D03*
X7941Y284522D02*
D03*
D20*
X87348Y221366D02*
D03*
X93381Y229341D02*
D03*
D21*
X-12284Y239023D02*
D03*
X92308Y287863D02*
D03*
X-7285Y230363D02*
D03*
X87308Y296523D02*
D03*
D22*
X40732Y230569D02*
D03*
X50580Y232305D02*
D03*
X37122Y308628D02*
D03*
X27273Y306891D02*
D03*
D23*
X-3984Y252751D02*
D03*
X80588Y283533D02*
D03*
X-564Y243354D02*
D03*
X84008Y274136D02*
D03*
D24*
X7137Y262724D02*
D03*
X8874Y252876D02*
D03*
X71150Y274011D02*
D03*
X72886Y264163D02*
D03*
D25*
X59719Y258190D02*
D03*
X60326Y268172D02*
D03*
D26*
X50107Y218165D02*
D03*
X15647Y315765D02*
D03*
X25044Y319186D02*
D03*
X59503Y221586D02*
D03*
D27*
X86493Y242858D02*
D03*
X89624Y252355D02*
D03*
D28*
X17363Y217615D02*
D03*
X26495Y213539D02*
D03*
D29*
X67864Y292211D02*
D03*
X59730Y298028D02*
D03*
D30*
X13278Y334039D02*
D03*
X4127Y330007D02*
D03*
D31*
X-1181Y312395D02*
D03*
X-8375Y305448D02*
D03*
D32*
X102754Y249467D02*
D03*
X104008Y259388D02*
D03*
D33*
X73906Y247043D02*
D03*
X68394Y238699D02*
D03*
D34*
X73092Y216147D02*
D03*
X64432Y211147D02*
D03*
D35*
X117274Y269639D02*
D03*
X117348Y259639D02*
D03*
D36*
X102793Y304859D02*
D03*
X107659Y296123D02*
D03*
D37*
X108728Y228536D02*
D03*
X103642Y219926D02*
D03*
D38*
X45012Y241943D02*
D03*
X35012Y241944D02*
D03*
X35012Y297443D02*
D03*
X45012Y297443D02*
D03*
D39*
X-22421Y275034D02*
D03*
X-19827Y284692D02*
D03*
D40*
X51726Y326669D02*
D03*
X61426Y324239D02*
D03*
D41*
X38561Y284008D02*
D03*
X48409Y282271D02*
D03*
D42*
X22366Y229216D02*
D03*
X14449Y235326D02*
D03*
D43*
X-7721Y278834D02*
D03*
X-3338Y287822D02*
D03*
D44*
X-18103Y215679D02*
D03*
X-23812Y223889D02*
D03*
D45*
X34893Y200322D02*
D03*
X24940Y201287D02*
D03*
D46*
X57249Y312719D02*
D03*
X66246Y308355D02*
D03*
D47*
X-34384Y258086D02*
D03*
X-34616Y268083D02*
D03*
D48*
X4472Y210476D02*
D03*
X-3308Y216759D02*
D03*
D49*
X80244Y318481D02*
D03*
X87813Y311945D02*
D03*
D50*
X20012Y258443D02*
D03*
X20012Y268443D02*
D03*
M02*
