M48
;Layer_Color=9474304
;FILE_FORMAT=4:4
METRIC,LZ
;TYPE=PLATED
T01F00S00C0.3000
T03F00S00C0.9000
T04F00S00C1.5500
T05F00S00C3.0000
;TYPE=NON_PLATED
T06F00S00C1.0000
T07F00S00C1.7500
T08F00S00C3.6000
T09F00S00C4.0000
T10F00S00C4.1000
%
T01
X0014Y-00891623
X00325Y-0073026
X00886959Y-00752178
X01008176Y-00752094
X007525Y-00891623
X01139846Y-00897
X016125
X01658708Y-006825
X017625Y-005625
X01801772Y-005325
X01342994Y-005525
X009025Y-0052
X00894228Y-003302
X00692718Y-003392
X00685Y-0052
X00515Y-005207
X0033291
X00317521Y-003302
X00495714
X0067Y-00705
X-00086694Y-00545
X-00086694Y-002025
X-000675Y-000675
X-00045Y-00061
X-000225Y-000565
X0Y-00052
X00083907Y-00074
X00077248Y-0008525
X00093293Y-00092814
X00100692Y-00087742
X00099635Y-00078989
X00103377Y-00042672
X00111569Y-0003548
X00115Y-000475
X00137442Y-00067386
X00160001Y-00061
X001825Y-000565
X00205Y-00052
X00225961Y-00038375
X002219Y-00028062
X00269244Y-00029714
X0026929Y00029135
X00270731Y00037513
X002775Y00042884
X00282625Y0005705
X00253888Y00050804
X00234674Y-0012381
X002408Y-00139156
X002775Y-00156674
Y-00165174
X00299132Y-0016564
X00294398Y-00157095
X00366247Y-00135632
X00343Y-00083224
X003525Y-000475
X00375Y-000675
X003975Y-00061
X00420274Y-000565
X00413167Y-0003867
X00405077Y-0003283
X00420274Y-0003021
X00437001Y-00038375
X00443373Y-00032749
X004425Y-00052
X004605Y-00047682
X00470836Y-0006768
X00480099Y-00063
X0049Y-000585
X00499502Y-00053008
X00505709Y-0006937
X005275Y-00061
X0055Y-000565
X005715Y-00052
X00572518Y-00129975
X0067Y-001275
X006745Y-00145
X00679015Y-001574
X00656457Y-00174421
Y-00182921
X00660939Y-00190143
X00661771Y-002
X00646381Y-00171765
X006825Y-000475
X00449701Y-0001
X004465Y00003602
X00435299Y00015262
X00444545Y000254
X00442572Y00034928
X00299132Y0006599
X0029152Y0006105
X00698691Y00067258
X00737345Y-00024842
X00749842Y-00061294
X0072683Y-00063435
X00705Y-000675
X00773253Y-00057443
X00795019Y00011608
X00802777Y00021409
X0082024Y00041298
X00836057Y00036335
X0084228Y00025914
X00870363Y-00023
X00881694Y-00021648
X009125Y-00043
Y-0008725
X00914771Y-00124602
X009325Y-000675
X00955Y-00061
X009779Y-000565
X010008Y-00052
X010225Y-000475
X0101Y-00026505
X009925
X01035
X01045Y-0006325
X010675Y-000585
Y-00143546
X00860127Y-00147304
X009525Y00044332
X00982906Y00030405
X010825Y00035
X010892Y-00052
X01102486Y-00042965
X011125Y-000675
X01134975Y-00047736
X011575Y-000475
X0118Y-0006325
X012025
X01225Y-000585
X012475Y-00054
X01237116Y-000365
X01216391
X011938
X01184808
X011938Y-000925
Y-00113309
X01190733Y-0013
X011684Y-001025
X01145051Y-00150463
X01135Y-00149709
X01116561Y-00139095
X01081302Y-00142753
X0133Y-0012
X01391733Y-00084207
X01464992Y-00088097
X013025Y-002342
X01689975Y-00198001
X01653553Y-0016
Y-00014356
X01801772Y-002475
X01652221Y00073671
X01615053Y00185
X016Y00272
X0127
X00591029Y0023996
X00582331
X00573794
Y00232568
X00563142Y00225829
X00554813Y00225441
X0054604
X00538122Y00195
X0053018Y00202659
X0056Y00091235
X00556587Y0008345
X00570316Y00092309
X00579391Y00099235
X00588847
X00372054Y00110391
X00362424Y00104141
X00349273Y00099322
X00337889Y00100548
X00324117Y0009718
Y00083522
X00332174Y00087235
X00314238Y00078622
X00306341Y00073199
X00299124Y00118972
X00316773Y00392241
X00334914Y00395204
X00353055Y00398167
X00392345Y00404584
X004355Y00411633
X00469939Y00417258
X00504976Y00422981
X00537859Y00352642
X00548086Y00353523
X00553586Y00358269
X00555232Y00365983
X00437413Y00368011
X00429973Y003475
X00405
X00269663Y00359319
X00247281Y0037167
X00233562Y00368011
X00220106Y00374282
X00130162Y00340513
X00123479Y00346401
X00136683Y00333641
X00092598Y00301649
X00098377Y00295416
X00080267Y00292719
X00079518Y00308701
X00054032Y00307292
X00057203Y00292542
X00061213Y00276691
X0007115Y00281697
X00068448Y00250976
X00057834Y00249789
X00052174Y00241943
X00058973Y00229906
X00066191Y00223681
X00078218Y00210857
X00074293Y0018985
X00083943Y00190301
X0006823Y00183893
X00064063Y00176484
X0006092Y00156006
X00092681Y00137999
X00096032Y00117775
X00120544Y00127552
X00135259Y00144882
X00156341Y00151818
X00162407Y00176508
X00177204Y00179625
X0018802Y00187416
X001975Y0018875
Y0018025
X00209138Y00170849
X00198357Y00147025
X00198935Y0013225
X002137Y00139043
X00216684Y00121102
X00235805Y00152273
X0024462Y00162242
X00260019Y00128216
X00265297Y00116885
X00231623Y00199213
X00220106Y0020425
X00234809Y00213969
X00204887Y00221276
X00208081Y00229152
X00200218Y00246928
X0019958Y00260257
X00180664Y00252355
X00177299Y00264913
X00172536Y00242754
X00189593Y00240342
X00181947Y00224393
X00168899Y00214167
X00160043Y00205346
X0014707Y00215542
X00127938Y00174097
X00108767Y00166239
X00102561Y0023286
X00084442Y00230373
X00083324Y00254168
X00097477Y00261437
X00110875Y00269613
X00030094Y00283779
X00026852Y00297443
X00019189Y00306136
X00013574Y00322824
X00004154Y0032209
X-00004207Y00320562
X-00003214Y00301107
X-00015318Y00300402
X-00015167Y00268729
X-00000564Y00274363
X00014892Y00280981
X00019598Y00251411
X00026686Y0024672
X00021712Y00239827
X00009701Y00245943
X00001584Y00235523
X-00008863Y0022341
X-00013244Y00210058
X00000723Y00204404
X00036106Y00207003
X00029044Y00218712
X-00023935Y00239197
X-00030906Y00234333
X-0002619Y00256986
X-00011464Y00142817
X00049548Y00320876
X0002758Y0034298
T03
X012475Y001794
Y002048
Y002302
Y002556
X00580283Y00260921
X00555232Y00256729
X0053018Y00252537
X00505128Y00248344
X00480077Y00244152
X00455025Y0023996
X00429973Y00235768
X00404922Y00231576
X0037987Y00227383
X00375678Y00252435
X00371486Y00277487
X00367293Y00302538
X00363101Y0032759
X00358909Y00352642
X00354717Y00377693
X00379768Y00381885
X0040482Y00386078
X00429872Y0039027
X00454923Y00394462
X00479975Y00398654
X00505027Y00402847
X00530078Y00407039
X0055513Y00411231
T04
X00104775Y-0075566
X00168275Y-0073026
X00414335Y-0075566
X00477835Y-0073026
X00652455Y-0075566
X00715955Y-0073026
X01152546Y-007846
X01216046Y-007592
X0134305Y-007846
X0140655Y-007592
X0153355Y-007846
X0159705Y-007592
X01676364Y-004501
X01739864Y-004247
X01406494Y-005687
X01342994Y-005941
X011684Y-003302
X011049Y-003556
X009779Y-003302
X009144Y-003556
X007874Y-003302
X007239Y-003556
Y-005461
X007874Y-005207
X00938214Y-005461
X01001714Y-005207
X005969
X005334Y-005461
X004064Y-005207
X003429Y-005461
Y-003556
X004064Y-003302
X005334Y-003556
X005969Y-003302
X002159
X001524Y-003556
X000254Y-003302
X-000381Y-003556
Y-005461
X000254Y-005207
X001524Y-005461
X002159Y-005207
Y-001397
X001524Y-001651
X000254Y-001397
X-000381Y-001651
Y000254
X000254Y000508
X001524Y000254
X002159Y000508
X003429Y000254
X004064Y000508
X005334Y000254
X005969Y000508
Y-001397
X005334Y-001651
X004064Y-001397
X003429Y-001651
X007239
X007874Y-001397
X009144Y-001651
X009779Y-001397
Y000508
X009144Y000254
X007874Y000508
X007239Y000254
X011049
X011684Y000508
Y-001397
X011049Y-001651
X013669Y-002596
X014304Y-002342
X0139071Y000254
X01454209Y000508
X01676364Y-002596
X01739864Y-002342
T05
X-00069694Y-00874623
X01635312Y-006375
X00857253Y-004785
X00285753
Y-000975
X00857253
X01635312Y-0012
X00585715Y00196265
T06
X00511461Y00324617
X00580501Y0033617
T07
X00092075Y-0078106
X00193675
X00401635
X00503235
X00639755
X00741355
X01139846Y-0081
X01241446
X0133035
X0143195
X0152085
X0162245
X01663664Y-004755
X01765264
X01431894Y-006195
X01330294
X011938Y-00381
X010922
X010033
X009017
X008128
X007112
Y-005715
X008128
X00925514
X01027114
X006223
X005207
X004318
X003302
Y-00381
X004318
X005207
X006223
X002413
X001397
X000508
X-000508
Y-005715
X000508
X001397
X002413
Y-001905
X001397
X000508
X-000508
Y0
X000508
X001397Y-0
X002413
X003302
X004318
X005207
X006223
Y-001905
X005207
X004318
X003302
X007112
X008128
X009017
X010033
Y-0
X009017
X008128
X007112
X010922
X011938
X01378009Y0
X013542Y-00285
X014558
X011938Y-001905
X010922
X0147961Y0
X01663664Y-00285
X01765264
T08
X01331353Y-00404114
X00261847Y-00706559
X00024058Y-00706152
X01330923Y-00164834
X01547781Y00072411
X01309661Y0007241
T09
X00023727Y-008649
X00261957Y-00864931
X01488839Y-00404148
X01309661Y-0008384
X01547892Y-00083871
X01488871Y-00165918
T10
X00142875Y-0078106
X00452435
X00690555
X01190646Y-0081
X0138115
X0157165
X01714464Y-004755
X01381094Y-006195
X01143Y-00381
X009525
X00762
Y-005715
X00976314
X005715
Y-00381
X00381
Y-005715
X001905
Y-00381
X0
Y-005715
Y-001905
Y0
X001905Y-0
Y-001905
X00381
Y-0
X005715
Y-001905
X00762
Y-0
X009525
Y-001905
X01143
Y-0
X0142881Y0
X01405Y-00285
X01714464Y-00285
M30
