G04*
G04 #@! TF.GenerationSoftware,Altium Limited,Altium Designer,25.7.1 (20)*
G04*
G04 Layer_Color=5020405*
%FSLAX44Y44*%
%MOMM*%
G71*
G04*
G04 #@! TF.SameCoordinates,9F9FC123-953C-4523-80A4-8AAEF463EA7A*
G04*
G04*
G04 #@! TF.FilePolarity,Positive*
G04*
G01*
G75*
%ADD99C,0.1500*%
D99*
X1641708Y-904898D02*
G03*
X1666708Y-879898I0J25000D01*
G01*
X1809772Y-215032D02*
G03*
X1784772Y-190032I-25000J0D01*
G01*
X1661552Y-165000D02*
G03*
X1686552Y-190000I25000J0D01*
G01*
X1784772Y-570500D02*
G03*
X1809772Y-545500I0J25000D01*
G01*
X1691708Y-570500D02*
G03*
X1666708Y-595500I0J-25000D01*
G01*
X1096182Y-880000D02*
G03*
X1121182Y-905000I25000J0D01*
G01*
X775552Y-899623D02*
G03*
X800552Y-874623I0J25000D01*
G01*
X-69694Y118500D02*
G03*
X-94694Y93500I0J-25000D01*
G01*
X-94694Y-874623D02*
G03*
X-69694Y-899623I25000J0D01*
G01*
X611800Y187806D02*
G03*
X724522Y95000I116895J27121D01*
G01*
X-25161Y135572D02*
X-21224Y141187D01*
X-18157Y147319D01*
X-16024Y153836D01*
X1691708Y-570500D02*
X1784772D01*
X1666708Y-595500D02*
X1666708Y-879898D01*
X1121182Y-905000D02*
X1641606D01*
X1686552Y-190000D02*
X1784772D01*
X1809772Y-545500D02*
X1809772Y-215032D01*
X-61164Y118500D02*
X-54326Y119005D01*
X-47637Y120511D01*
X-41241Y122984D01*
X-35279Y126371D01*
X-29880Y130597D01*
X-25161Y135572D01*
X-16024Y153836D02*
X-14873Y160595D01*
X-14729Y167451D01*
X-15594Y174253D02*
X-14729Y167451D01*
X-17450Y180854D02*
X-15594Y174253D01*
X-20257Y187110D02*
X-17450Y180854D01*
X-23953Y192885D02*
X-20257Y187110D01*
X-34810Y207373D02*
X-23953Y192885D01*
X-39638Y214473D02*
X-34810Y207373D01*
X-43795Y221987D02*
X-39638Y214473D01*
X-47245Y229851D02*
X-43795Y221987D01*
X-49959Y237998D02*
X-47245Y229851D01*
X-51914Y246359D02*
X-49959Y237998D01*
X-53093Y254865D02*
X-51914Y246359D01*
X-53488Y263443D02*
X-53093Y254865D01*
X-53488Y263443D02*
X-53015Y272837D01*
X-51600Y282135D01*
X-49259Y291245D01*
X-46014Y300072D01*
X-41899Y308530D01*
X-36955Y316531D01*
X-31232Y323995D01*
X-24788Y330846D01*
X-17689Y337015D01*
X-10005Y342440D01*
X-1816Y347065D01*
X6797Y350844D01*
X15746Y353739D01*
X24940Y355720D01*
X551146Y441668D01*
X554760Y441899D01*
X558351Y441421D01*
X561780Y440252D01*
X564916Y438438D01*
X567637Y436048D01*
X569841Y433173D01*
X571443Y429924D01*
X572380Y426425D01*
X611800Y187806D01*
X-69694Y-899623D02*
X775552Y-899623D01*
X-94694Y93500D02*
X-94694Y-874623D01*
X-69694Y118500D02*
X-61164D01*
X881144Y-760493D02*
X890552Y-760001D01*
X871840Y-761967D02*
X881144Y-760493D01*
X890552Y-760001D02*
X1006182D01*
X1015066Y-760466D01*
X1096182Y-880000D02*
Y-850000D01*
X1095689Y-840593D02*
X1096182Y-850000D01*
X1094215Y-831288D02*
X1095689Y-840593D01*
X1091777Y-822189D02*
X1094215Y-831288D01*
X1088401Y-813394D02*
X1091777Y-822189D01*
X1084124Y-805000D02*
X1088401Y-813394D01*
X1078993Y-797100D02*
X1084124Y-805000D01*
X1073065Y-789779D02*
X1078993Y-797100D01*
X1066404Y-783117D02*
X1073065Y-789779D01*
X1059082Y-777189D02*
X1066404Y-783117D01*
X1051182Y-772058D02*
X1059082Y-777189D01*
X1042788Y-767781D02*
X1051182Y-772058D01*
X1033993Y-764405D02*
X1042788Y-767781D01*
X1024894Y-761967D02*
X1033993Y-764405D01*
X1015590Y-760493D02*
X1024894Y-761967D01*
X862740Y-764405D02*
X871840Y-761967D01*
X853945Y-767781D02*
X862740Y-764405D01*
X845552Y-772058D02*
X853945Y-767781D01*
X837651Y-777189D02*
X845552Y-772058D01*
X830330Y-783117D02*
X837651Y-777189D01*
X823669Y-789779D02*
X830330Y-783117D01*
X817740Y-797100D02*
X823669Y-789779D01*
X812610Y-805000D02*
X817740Y-797100D01*
X808333Y-813394D02*
X812610Y-805000D01*
X804957Y-822189D02*
X808333Y-813394D01*
X802519Y-831288D02*
X804957Y-822189D01*
X801045Y-840593D02*
X802519Y-831288D01*
X800552Y-850000D02*
X801045Y-840593D01*
X800552Y-874623D02*
Y-850000D01*
X1223053Y189764D02*
Y275000D01*
X1223148Y275975D01*
X1223433Y276913D01*
X1223895Y277777D01*
X1224517Y278535D01*
X1225275Y279157D01*
X1226139Y279619D01*
X1227077Y279904D01*
X1228053Y280000D01*
X1618052D01*
X1619028Y279904D01*
X1619966Y279619D01*
X1620830Y279157D01*
X1621588Y278535D01*
X1622210Y277777D01*
X1622672Y276913D01*
X1622957Y275975D01*
X1623053Y275000D01*
Y147043D02*
Y275000D01*
Y147043D02*
X1623518Y138700D01*
X1624909Y130460D01*
X1627208Y122426D01*
X1630386Y114698D01*
X1634404Y107371D01*
X1639212Y100537D01*
X1644751Y94280D01*
X1650951Y88678D01*
X1654602Y85151D01*
X1657569Y81032D01*
X1659759Y76452D01*
X1661100Y71556D01*
X1661552Y66500D01*
Y-165000D02*
Y66500D01*
X724245Y95019D02*
X1127937Y94764D01*
X1137257Y95211D01*
X1146487Y96570D01*
X1155540Y98827D01*
X1164328Y101962D01*
X1172765Y105944D01*
X1180771Y110734D01*
X1188270Y116286D01*
X1195186Y122548D01*
X1201456Y129458D01*
X1207018Y136949D01*
X1211818Y144949D01*
X1215810Y153382D01*
X1218955Y162166D01*
X1221225Y171216D01*
X1222594Y180445D01*
X1223053Y189764D01*
M02*
